<?xml version="1.0" encoding="UTF-8"?>
<svg xmlns="http://www.w3.org/2000/svg" viewBox="0 0 280 280">
  <defs>
    <style>
      .cls-1 {
        stroke: #665451;
        stroke-width: 50px;
      }

      .cls-1, .cls-2 {
        fill: none;
        stroke-linecap: round;
        stroke-linejoin: round;
      }

      .cls-3 {
        fill: #fff;
      }

      .cls-4 {
        fill: #e11f26;
      }

      .cls-5 {
        fill: #ec1940;
      }

      .cls-2 {
        stroke: #998675;
        stroke-width: 2px;
      }
    </style>
  </defs>
  <g id="Content">
    <g>
      <g>
        <path d="M241.691105995332691,59.468085106382205c-1.106749577676055-6.902778150571976,9.273037609367748-16.416255042106059,8.166260204434366-23.319148936170677-.303888174617896-1.895306472077209-12.515732261490484,1.555368779740093-17.352336498632212,2.80732812403221-5.077070460343748,1.314180404693616-17.866875733534471,4.523732401634334-17.541280522644229,6.554374003628254,1.10677740493702,6.9028938940628,16.378385864889424,11.480200572832473,17.48513544256457,18.382978723404449.303888174616077,1.895306472079028,3.79146030211632,3.404255319148433,5.086203427863438,2.882359562176134,4.390135247644139-1.76961198922254,4.481640984569822-5.277134131585626,4.156017946414067-7.30789147707037Z"/>
        <path d="M241.944346869579022,84.757466823999493c-12.86544762795711,2.878856758996335-195.992561490567823,43.386755522995372-208.857792528873688,46.265614238833223-3.296956410425992.73776716573775-5.72377157117262,4.469111321994205-4.767405404534657,7.785371313299038.982499651572653,3.407878912215892,4.252562508610936,5.557932541300033,7.785371313297219,4.767405404532838,12.865231038304955-2.87885871583785,195.992344900918397-43.386757479835069,208.857792528873688-46.265614238831404,3.296752100912272-.737718045200381,5.723567261657081-4.469062201456836,4.767405404534657-7.785371313297219-.98251193170654-3.407929989596596-4.252779098260362-5.557934498143368-7.785371313297219-4.767405404536476Z"/>
      </g>
      <g>
        <path class="cls-1" d="M241.691105995332691,59.468085106382205c-1.106749577676055-6.902778150571976,9.273037609367748-16.416255042106059,8.166260204434366-23.319148936170677-.303888174617896-1.895306472077209-12.515732261490484,1.555368779740093-17.352336498632212,2.80732812403221-5.077070460343748,1.314180404693616-17.866875733534471,4.523732401634334-17.541280522644229,6.554374003628254,1.10677740493702,6.9028938940628,16.378385864889424,11.480200572832473,17.48513544256457,18.382978723404449.303888174616077,1.895306472079028,3.79146030211632,3.404255319148433,5.086203427863438,2.882359562176134,4.390135247644139-1.76961198922254,4.481640984569822-5.277134131585626,4.156017946414067-7.30789147707037Z"/>
        <path class="cls-1" d="M241.944346869579022,84.757466823999493c-12.86544762795711,2.878856758996335-195.992561490567823,43.386755522995372-208.857792528873688,46.265614238833223-3.296956410425992.73776716573775-5.72377157117262,4.469111321994205-4.767405404534657,7.785371313299038.982499651572653,3.407878912215892,4.252562508610936,5.557932541300033,7.785371313297219,4.767405404532838,12.865231038304955-2.87885871583785,195.992344900918397-43.386757479835069,208.857792528873688-46.265614238831404,3.296752100912272-.737718045200381,5.723567261657081-4.469062201456836,4.767405404534657-7.785371313297219-.98251193170654-3.407929989596596-4.252779098260362-5.557934498143368-7.785371313297219-4.767405404536476Z"/>
      </g>
      <g>
        <path class="cls-2" d="M241.691105995332691,59.468085106382205c-1.106749577676055-6.902778150571976,9.273037609367748-16.416255042106059,8.166260204434366-23.319148936170677-.303888174617896-1.895306472077209-12.515732261490484,1.555368779740093-17.352336498632212,2.80732812403221-5.077070460343748,1.314180404693616-17.866875733534471,4.523732401634334-17.541280522644229,6.554374003628254,1.10677740493702,6.9028938940628,16.378385864889424,11.480200572832473,17.48513544256457,18.382978723404449.303888174616077,1.895306472079028,3.79146030211632,3.404255319148433,5.086203427863438,2.882359562176134,4.390135247644139-1.76961198922254,4.481640984569822-5.277134131585626,4.156017946414067-7.30789147707037Z"/>
        <path class="cls-2" d="M241.944346869579022,84.757466823999493c-12.86544762795711,2.878856758996335-195.992561490567823,43.386755522995372-208.857792528873688,46.265614238833223-3.296956410425992.73776716573775-5.72377157117262,4.469111321994205-4.767405404534657,7.785371313299038.982499651572653,3.407878912215892,4.252562508610936,5.557932541300033,7.785371313297219,4.767405404532838,12.865231038304955-2.87885871583785,195.992344900918397-43.386757479835069,208.857792528873688-46.265614238831404,3.296752100912272-.737718045200381,5.723567261657081-4.469062201456836,4.767405404534657-7.785371313297219-.98251193170654-3.407929989596596-4.252779098260362-5.557934498143368-7.785371313297219-4.767405404536476Z"/>
      </g>
      <g>
        <path class="cls-3" d="M241.691105995332691,59.468085106382205c-1.106749577676055-6.902778150571976,9.273037609367748-16.416255042106059,8.166260204434366-23.319148936170677-.303888174617896-1.895306472077209-12.515732261490484,1.555368779740093-17.352336498632212,2.80732812403221-5.077070460343748,1.314180404693616-17.866875733534471,4.523732401634334-17.541280522644229,6.554374003628254,1.10677740493702,6.9028938940628,16.378385864889424,11.480200572832473,17.48513544256457,18.382978723404449.303888174616077,1.895306472079028,3.79146030211632,3.404255319148433,5.086203427863438,2.882359562176134,4.390135247644139-1.76961198922254,4.481640984569822-5.277134131585626,4.156017946414067-7.30789147707037Z"/>
        <path class="cls-3" d="M241.944346869579022,84.757466823999493c-12.86544762795711,2.878856758996335-195.992561490567823,43.386755522995372-208.857792528873688,46.265614238833223-3.296956410425992.73776716573775-5.72377157117262,4.469111321994205-4.767405404534657,7.785371313299038.982499651572653,3.407878912215892,4.252562508610936,5.557932541300033,7.785371313297219,4.767405404532838,12.865231038304955-2.87885871583785,195.992344900918397-43.386757479835069,208.857792528873688-46.265614238831404,3.296752100912272-.737718045200381,5.723567261657081-4.469062201456836,4.767405404534657-7.785371313297219-.98251193170654-3.407929989596596-4.252779098260362-5.557934498143368-7.785371313297219-4.767405404536476Z"/>
      </g>
    </g>
  </g>
  <g id="Arrows">
    <g>
      <g>
        <path class="cls-5" d="M216.239081524789071,177.011143461186293c9.647506713870825,0,18.182769775390625.61407470703125,26.093521118160425,1.8773193359375,2.437667846679688.3892822265625,5.081085205079944.5784912109375,8.081329345710401.5784912109375,2.584655761720569,0,5.178863525389716-.1383056640625,7.407577514641162-.26800537109375,2.849182128909888-.16571044921875,5.877410888679151-.242919921875,9.530014038089575-.242919921875,2.790802001949487,0,5.633453369138806.04583740234375,8.382537841798694.09014892578125,1.278045654291418.0206298828125,2.555831909181506.04119873046875,3.833175659181506.05755615234375,8.607666015619543.10992431640625,16.209320068359375,1.57861328125,23.239372253419788,4.48992919921875,13.068504333488818,5.41204833984375,21.741577148428405,15.21478271484375,25.778266906729186,29.13592529296875,2.879074096679688,9.92889404296875,3.709579467779804,20.678466796875,2.613578796390357,33.82952880859375-.037872314449487.45465087890625-.039764404300513.89862060546875-.041580200189856,1.32806396484375-.00192260743097.4512939453125-.003738403329407.8775634765625-.045951843270814,1.28729248046875-.89813232421875,8.7158203125.101737976081495,17.4197998046875,1.068656921390357,25.83721923828125.195503234859643,1.7017822265625.3910064697302,3.40350341796875.571502685550513,5.10601806640625.127845764159247,1.20587158203125.168846130369275,2.45648193359375.208503723139074,3.6658935546875.057106018070044,1.74139404296875.1161041259802,3.54095458984375.429206848149988,5.3289794921875v13.2296142578125c-.347831726079676,1.5208740234375-.4228515625,3.0526123046875-.495475769050245,4.5350341796875-.026809692379175.54779052734375-.053497314449487,1.09466552734375-.094184875488281,1.6385498046875-.482177734372272,6.44464111328125-3.044708251951306,12.3995361328125-8.064414978020068,18.74041748046875-8.244689941409888,10.41455078125-19.430793762210669,15.663818359375-34.197509765630457,16.04779052734375-.439514160150793.01141357421875-.878860473630994.0172119140625-1.315567016599744.0172119140625-7.625320434570312,0-14.220581054691138-1.7264404296875-20.162689208980737-5.27801513671875-6.481811523439319-3.8741455078125-11.447097778320312-9.30035400390625-14.760604858400256-16.13323974609375-.796127319339575-1.641845703125-1.234710693359375-2.54620361328125-2.297393798829944-2.54644775390625-.7685546875-.00006103515625-1.339630126949487.54498291015625-2.376373291019263,1.534423828125l-.075942993160425.072509765625c-1.82218933105105,1.73858642578125-3.647689819339575,3.4737548828125-5.473205566409888,5.20892333984375-7.71826171875,7.33636474609375-15.6993255615198,14.9224853515625-23.291900634760168,22.65911865234375-1.186843872070312,1.2093505859375-2.346603393560144,2.473388671875-3.468215942380994,3.69580078125-1.527755737308325,1.6650390625-3.107513427738013,3.3868408203125-4.756179809568494,4.96856689453125-4.759872436530713,4.56695556640625-9.583129882821595,7.76416015625-14.745452880861194,9.7742919921875-3.338073730469659,1.2998046875-6.819671630859375,1.43402099609375-10.505737304689319,1.5760498046875l-.185943603521082.00787353515625-3.377792358398438-.00006103515625-3.4214935302698.00103759765625c-.440887451170056.01983642578125-.878967285159888.02960205078125-1.312286376951306.02960205078125-7.575714111329944,0-14.701568603519263-3.02203369140625-21.784759521489832-9.2388916015625-4.392883300779431-3.85552978515625-7.837005615228918-7.7626953125-10.529205322260168-11.94464111328125-3.431671142579944-5.3306884765625-5.024932861329944-11.151123046875-4.870544433599207-17.81707763671875v-2.01336669921875l-.001190185540509-4.07122802734375c-.432769775389716-8.91302490234375,2.935272216790509-17.052490234375,10.010620117181134-24.19219970703125,4.933349609378638-4.978271484375,10.113647460939319-9.8868408203125,15.123443603519263-14.6337890625,4.509948730470569-4.2733154296875,9.1734466552698-8.69219970703125,13.654022216799603-13.15863037109375,2.377349853509259-2.369873046875,4.842605590821222-4.75030517578125,7.226684570309772-7.05230712890625,1.079421997070312-1.04229736328125,2.158813476560681-2.08453369140625,3.234237670900256-3.12945556640625.90234375-.87677001953125,1.695953369140625-1.74737548828125,1.498291015619543-2.75689697265625-.198501586908606-1.013916015625-1.235733032219287-1.50933837890625-2.469284057609912-2.00830078125-8.082794189460401-3.2691650390625-14.294799804689319-8.67144775390625-18.463470458989832-16.056640625-2.380676269529431-4.2176513671875-3.804626464840112-9.002685546875-4.353179931638806-14.62860107421875-.824340820310681-8.4537353515625.548248291019263-16.679443359375,4.079681396489832-24.4486083984375,4.827789306638806-10.62139892578125,12.893127441398974-18.1539306640625,23.97201538085028-22.38836669921875,4.607742309570312-1.7611083984375,9.335510253909888-2.1168212890625,13.7581939697302-2.2388916015625,2.465881347659888-.06805419921875,4.869171142578125-.10260009765625,7.143096923828125-.10260009765625M216.239081524789071,176.011143461186293c-2.389114379879175,0-4.780014038089575.0369873046875-7.170715332029431.10296630859375-4.747711181638806.13104248046875-9.4990234375.5506591796875-14.087600708009631,2.304443359375-11.327606201170056,4.3294677734375-19.530914306640625,11.92059326171875-24.525360107420056,22.90863037109375-3.598480224609375,7.916748046875-5.016387939449487,16.22412109375-4.164611816409888,24.95947265625.521331787109375,5.346435546875,1.850708007810681,10.36920166015625,4.477630615239832,15.0230712890625,4.361480712889716,7.726806640625,10.740997314449487,13.16815185546875,18.959365844719287,16.4921875,2.319473266601562.9381103515625,2.426971435550513,1.3934326171875.649078369140625,3.12091064453125-3.493072509760168,3.39410400390625-7.028106689449487,6.7596435546875-10.470046997070312,10.19073486328125-9.450439453119543,9.42071533203125-19.396697998039599,18.32623291015625-28.781799316399884,27.7967529296875-6.723663330079034,6.784912109375-10.781219482419147,15.01544189453125-10.299102783209491,24.94464111328125-.000030517570849,2.0108642578125,0,4.02264404296875,0,6.03607177734375-.15362548828125,6.62188720703125,1.397613525390625,12.71630859375,5.029724121099207,18.35833740234375,2.974212646480737,4.62005615234375,6.64630126953125,8.5880126953125,10.710357666010168,12.15496826171875,6.435546875,5.6484375,13.703002929691138,9.4873046875,22.444412231450769,9.4873046875.448150634760168,0,.901199340820312-.0101318359375,1.357177734369543-.03057861328125,1.125137329110657,0,2.250640869140625-.00006103515625,3.376617431640625-.00006103515625s2.25244140625.00006103515625,3.379501342778894.00006103515625c3.746292114259631-.1448974609375,7.487579345701306-.2637939453125,11.052841186521619-1.652099609375,5.75115966796875-2.23944091796875,10.653289794918237-5.74212646484375,15.074920654298694-9.9844970703125,2.884750366210938-2.76776123046875,5.451538085939319-5.83831787109375,8.245773315429688-8.685546875,9.345184326170056-9.52252197265625,19.090103149410425-18.63629150390625,28.741714477540881-27.844970703125.903274536129175-.86181640625,1.383224487299231-1.3304443359375,1.761871337890625-1.33038330078125.436889648430224.00006103515625.738906860349744.62408447265625,1.400360107418237,1.98809814453125,3.405181884761987,7.02203369140625,8.453109741210938,12.55035400390625,15.144729614260541,16.54986572265625,6.38957214355014,3.81903076171875,13.334091186520709,5.419677734375,20.675720214841022,5.419677734375.445343017579944,0,.89335632323855-.00592041015625,1.341567993160425-.017578125,14.059745788577857-.36553955078125,26.058792114257812-5.1884765625,34.955558776859107-16.4267578125,4.466865539550781-5.64251708984375,7.723106384279163-11.87579345703125,8.277580261230469-19.2864990234375.152496337888806-2.038330078125.112709045410156-4.11798095703125.592445373538794-6.133056640625v-13.43280029296875c-.53626251220885-2.9808349609375-.325469970710401-6.01458740234375-.643287658698682-9.01220703125-1.083076477050781-10.21563720703125-2.704551696770068-20.4029541015625-1.639846801750537-30.7353515625.089714050288421-.8707275390625.016212463378906-1.757080078125.089347839350012-2.63482666015625.961784362800245-11.54083251953125.586021423339844-23.0322265625-2.649688720701306-34.1910400390625-4.055763244628906-13.98687744140625-12.746948242189319-24.1453857421875-26.356101989749732-29.78131103515625-7.546844482418237-3.1253662109375-15.480606079099744-4.462158203125-23.609207153320312-4.56597900390625-4.073989868158606-.05206298828125-8.152923583978918-.1478271484375-12.228469848629175-.14776611328125-3.199859619140625,0-6.397903442380084.05902099609375-9.588119506839575.24462890625-2.460144042959655.14312744140625-4.908111572260168.26629638671875-7.349487304680224.26629638671875-2.646987915039062,0-5.286178588870825-.144775390625-7.923645019529431-.56597900390625-8.710098266610657-1.390869140625-17.472473144540345-1.88983154296875-26.251205444341394-1.88983154296875h0Z"/>
        <path class="cls-5" d="M215.418769024789071,206.144383207280043c6.575668334960938,0,13.255661010740369,1.05926513671875,19.000717163091394,2.0521240234375,5.113983154289599.88372802734375,10.489562988279431,1.29534912109375,16.917312622068494,1.29534912109375,4.036087036130994,0,8.003982543941675-.16802978515625,11.009902954100653-.3143310546875,3.233718872071222-.157470703125,6.681381225579571-.31121826171875,10.153396606440765-.31121826171875,4.914291381839575,0,8.987365722659888.30816650390625,12.818206787109375.96990966796875,10.2205963134802,1.76544189453125,14.563781738279431,6.50469970703125,15.490676879880994,16.9033203125.7479400634802,8.39080810546875.7704010009802,17.27642822265625.066741943359375,26.4100341796875-.737197875969287,9.56866455078125.677421569829676,19.03564453125,2.045478820800781,28.19085693359375.161163330078125,1.07861328125.322357177738013,2.15740966796875.480262756349475,3.2366943359375.869674682619006,5.94488525390625,1.502197265630457,12.2994384765625.252418518070044,18.48895263671875-1.188980102541791,5.8883056640625-7.102134704589844,10.50079345703125-13.4618606567401,10.50079345703125-1.778366088870825,0-3.471923828121362-.3604736328125-5.033645629880994-1.07147216796875-3.461761474609375-1.57586669921875-4.482269287109375-4.69110107421875-4.949539184568494-8.8837890625-.599792480470569-5.3818359375-.293609619140625-10.88299560546875.002487182609912-16.2030029296875.169311523439319-3.0418701171875.344375610358838-6.1873779296875.351272583009631-9.2962646484375.016143798829944-7.27154541015625-.326492309570312-15.74200439453125-4.623397827150256-24.25189208984375l-.654281616210938-1.2957763671875-.977600097648974,1.07305908203125c-.678192138679151.74444580078125-1.346939086921338,1.49835205078125-2.015655517579944,2.2523193359375-1.41552734375,1.595947265625-2.879241943361194,3.2462158203125-4.404357910159888,4.76068115234375-9.106689453119543,9.04290771484375-17.379699707029431,17.18017578125-25.291809082029431,24.876953125-8.338317871090112,8.111328125-16.836853027340112,16.338134765625-25.055572509761987,24.2940673828125-5.708877563478381,5.5263671875-11.417785644538526,11.052734375-17.120361328128638,16.5855712890625-1.47003173828125,1.42626953125-2.818038940429688,2.984619140625-4.121673583980737,4.49163818359375-1.765426635749463,2.0408935546875-3.590972900390625,4.15130615234375-5.692962646489832,5.8856201171875-2.56242370605014,2.11431884765625-4.751739501949487,3.09906005859375-6.889877319330481,3.09906005859375-2.087112426759631,0-4.209732055669519-.9337158203125-6.679962158210401-2.9383544921875-.696197509759259-.56494140625-1.428939819328662-1.17755126953125-2.070877075188037-1.82891845703125-5.559127807620825-5.64044189453125-5.597732543950769-10.6097412109375-.125183105470569-16.112548828125,1.767898559570312-1.77764892578125,3.729217529298694-3.45147705078125,5.625961303709119-5.07025146484375,1.931091308590112-1.6480712890625,3.927947998050513-3.35223388671875,5.756500244140625-5.1920166015625,14.893341064449487-14.98516845703125,29.863052368160425-29.35052490234375,45.166336059570312-43.97198486328125,6.08378601073855-5.812744140625,12.291381835939319-11.70111083984375,18.294586181640625-17.39556884765625,3.228668212888806-3.0626220703125,6.457351684568494-6.125244140625,9.682937622068494-9.191162109375,1.284088134770172-1.220458984375,1.991439819341394-1.89276123046875,1.777557373050513-2.82769775390625-.215301513670056-.9410400390625-1.1659088134802-1.24578857421875-2.891586303709119-1.79888916015625-9.333816528321222-2.99169921875-18.852981567390088-3.3753662109375-26.103256225591394-3.3753662109375-1.340240478510168,0-2.753845214840112.01458740234375-4.321624755859375.04461669921875-1.684860229490369.03228759765625-3.394882202150256.0877685546875-5.048599243160425.14141845703125-2.568771362310144.0833740234375-5.225021362310144.16961669921875-7.828079223629175.16961669921875-3.746658325200769,0-6.832641601571595-.1778564453125-9.711730957040345-.559814453125-1.794448852539062-.23797607421875-3.315948486320849-.71148681640625-4.651458740230737-1.44744873046875-2.199569702148438-1.21221923828125-3.27734375-2.90386962890625-3.39178466796875-5.3238525390625-.248764038089575-5.25970458984375.984054565429688-9.38140869140625,3.664215087888806-12.25067138671875,2.857238769529431-3.058837890625,7.324188232420056-4.6728515625,13.276763916020172-4.797119140625.427703857420966-.0089111328125.85588073730014-.01324462890625,1.283004760739459-.01324462890625M215.418769024789071,205.144383207280043c-.434097290039062,0-.869232177738013.00439453125-1.303878784179688.01348876953125-12.201568603519263.25469970703125-18.45976257323855,6.66070556640625-17.918991088869006,18.09478759765625.133956909179688,2.83258056640625,1.488250732420056,4.81884765625,3.908004760740369,6.15240478515625,1.557922363288526.85858154296875,3.252532958989832,1.33087158203125,5.002639770509631,1.56298828125,3.278198242189319.43487548828125,6.559539794920056.5684814453125,9.843215942390088.5684814453125,4.296951293939856,0,8.597473144529431-.22894287109375,12.895828247068494-.31121826171875,1.435440063471106-.0274658203125,2.869827270500537-.04443359375,4.302474975580481-.04443359375,8.719787597659888,0,17.374206542970569.62762451171875,25.798034667970569,3.32763671875,2.840072631839575.91033935546875,2.838638305660425.94561767578125.730331420900256,2.94952392578125-9.325561523439319,8.86383056640625-18.676986694341394,17.70050048828125-27.979431152349207,26.5885009765625-15.198928833001446,14.52178955078125-30.363830566400793,29.0777587890625-45.184799194330481,43.99005126953125-3.595687866210938,3.61785888671875-7.785278320310681,6.64532470703125-11.3822174072302,10.2620849609375-5.928359985349744,5.96112060546875-5.774642944330481,11.5367431640625.122009277349207,17.5196533203125.670959472650793.6807861328125,1.409545898430224,1.3001708984375,2.152954101560681,1.9034423828125,2.601409912109375,2.111083984375,4.95654296875,3.161865234375,7.310104370119006,3.161865234375,2.421752929680224,0,4.841812133781787-1.11273193359375,7.526321411130994-3.32769775390625,3.726287841798694-3.0745849609375,6.436828613279431-7.09552001953125,9.874526977539062-10.430908203125,14.052124023441138-13.6339111328125,28.142623901361731-27.22833251953125,42.176879882810681-40.88055419921875,8.478698730470569-8.2479248046875,16.90568542480105-16.54949951171875,25.299148559570312-24.8841552734375,2.258132934570312-2.24237060546875,4.308731079099744-4.6937255859375,6.454620361329944-7.04913330078125,4.039672851560681,8.00042724609375,4.533630371090112,15.8782958984375,4.516052246090112,23.7989501953125-.018936157221106,8.53741455078125-1.300750732420056,17.059814453125-.347595214840112,25.61224365234375.448043823240369,4.02020263671875,1.432266235349744,7.81817626953125,5.529052734369543,9.68316650390625,1.743423461919519.793701171875,3.597427368169519,1.16131591796875,5.447967529300513,1.16131591796875,6.571487426759631,0,13.096183776859107-4.637451171875,14.44207763671875-11.3028564453125,1.267059326171875-6.275146484375.6729583740198-12.5692138671875-.243179321289062-18.8316650390625-1.513740539550781-10.34771728515625-3.331573486329944-20.64776611328125-2.518157958980737-31.2059326171875.681541442871094-8.846435546875.722297668449755-17.7127685546875-.067718505859375-26.57568359375-.96589660644895-10.8360595703125-5.556243896489832-15.9412841796875-16.316528320319776-17.7999267578125-4.314483642570849-.7452392578125-8.648147583000537-.9844970703125-12.988418579099744-.9844970703125-3.399276733400256,0-6.803039550779431.1468505859375-10.202041625971106.3123779296875-3.660766601569776.17828369140625-7.312927246099207.31317138671875-10.961242675788526.31317138671875-5.590316772460938,0-11.170181274410425-.3170166015625-16.747024536130994-1.28076171875-6.333282470699487-1.094482421875-12.720275878900793-2.06671142578125-19.171020507810681-2.06671142578125h0Z"/>
      </g>
      <path class="cls-4" d="M279.731009625380466,279.730992093998793c-69.716348130461483.440577790905081-210.016398902730543,1.330698970154117-279.731261791830548,1.531175585761957.000365795640391.000257519823208-1.52688640146971.007093457123119-1.52688640146971.007093457123119l-.00427246101026-1.53833007803587c-.064488100940252-34.90488965775512-.304369570600102-104.981273348690593-.285207838939641-139.8656837088256C-1.81678090197056,139.865513578373793-1.997689105090103.000096097905043-1.997689105090103.000096097905043l-.002593994139716-2.00030517578125c47.593476761810052.061588905666213,165.706463395780702.208737529726932,211.798481010390788.271000175487643,17.377560329619882.057227283703469,52.54488262959967.067277170550369,69.932673576669913.190932786214034.000031326058888-.000140969543281,1.545487258608773.005901510974581,1.545487258608773.005901510974581l-.006912231419847,1.532470703104991c-.324877768889564,69.719190645657363-.970720792429347,210.042533958780041-1.538436889639343,279.73089599609375h0ZM279.731009625380466,279.730992093998793c-.57887557218055-69.74289238880192-1.234199681170139-210.023048334704072-1.538486708890559-279.731249247339292.000049818949265.000353251467459,1.538379897559935,1.538683329210471,1.538379897559935,1.538683329210471-38.949249814219002.064972138083249-100.445698826660191.316594068870472-139.865427925249605.281565584833515C139.865500592280114,1.820286525884512.000113629200314,1.99765469288468.000113629200314,1.99765469288468L1.99767222302944.000096097905043c.100238623910627,79.280994913942777-.354786111049179,201.347947724820187-.465772804919652,279.730682550894926-.000474753729577.000152410108058-1.53178578879033-1.53115862516097-1.53178578879033-1.53115862516097,69.708463279380339.186233777205416,210.024441760489935,1.073926720886448,279.730895996061008,1.531372070359794h0Z"/>
    </g>
  </g>
</svg>