<?xml version="1.0" encoding="UTF-8"?>
<svg xmlns="http://www.w3.org/2000/svg" xmlns:xlink="http://www.w3.org/1999/xlink" viewBox="0 0 280 280">
  <defs>
    <style>
      .cls-1 {
        stroke: #665451;
        stroke-width: 50px;
      }

      .cls-1, .cls-2 {
        fill: none;
        stroke-linecap: round;
        stroke-linejoin: round;
      }

      .cls-3 {
        fill: #fff;
      }

      .cls-4 {
        fill: #e11f26;
      }

      .cls-5 {
        fill: #ec1940;
      }

      .cls-2 {
        stroke: #998675;
        stroke-width: 2px;
      }
    </style>
  </defs>
  <g id="Content">
    <g>
      <g>
        <path d="M67.1796875,77.9599609375c5.04296875-1.5322265625,9.97412109375-2.2373046875,14.787109375-2.1083984375,4.8134765625.12890625,9.27734375,1.0693359375,13.3955078125,2.822265625,4.11669921875,1.7529296875,7.74365234375,4.2880859375,10.88232421875,7.6044921875,3.13623046875,3.3173828125,5.5439453125,7.30859375,7.21875,11.9697265625,1.67333984375,4.6630859375,2.48486328125,10.0576171875,2.43359375,16.18359375-.05224609375,6.1298828125-1.2021484375,12.8505859375-3.45263671875,20.1689453125l-8.24169921875,31.5546875c-.53759765625,1.4228515625-1.2607421875,2.62890625-2.17724609375,3.6142578125-.75732421875.787109375-1.81640625,1.4775390625-3.181640625,2.0751953125s-3.01123046875.693359375-4.93115234375.2890625c-2.05859375-.3173828125-4.16357421875-.7001953125-6.30908203125-1.15234375-2.1494140625-.453125-4.03857421875-1.1474609375-5.671875-2.080078125-1.63427734375-.93359375-2.9228515625-2.2373046875-3.8681640625-3.9140625-.94775390625-1.6748046875-1.24609375-3.892578125-.8994140625-6.6533203125,1.119140625-5.3115234375,2.47412109375-10.4853515625,4.06689453125-15.5234375,1.59130859375-5.03515625,3.1298828125-10.2314453125,4.61181640625-15.5849609375,1.77783203125-5.646484375,2.42138671875-10.380859375,1.92919921875-14.203125-.4951171875-3.8232421875-1.62060546875-6.744140625-3.37646484375-8.7685546875-1.759765625-2.0224609375-3.93310546875-3.1884765625-6.5224609375-3.4990234375-2.59228515625-.30859375-5.22021484375.2587890625-7.884765625,1.703125-2.6689453125,1.447265625-5.099609375,3.73828125-7.29345703125,6.875-2.1962890625,3.1396484375-3.6826171875,7.1044921875-4.455078125,11.8994140625-1.97021484375,11.037109375-3.7119140625,21.8271484375-5.22509765625,32.3681640625-.45263671875,2.1484375-1.55859375,3.89453125-3.31591796875,5.2333984375-1.76025390625,1.3427734375-3.8037109375,1.943359375-6.1357421875,1.806640625-2.1064453125-.0888671875-4.234375-.2138671875-6.384765625-.37109375-2.15234375-.16015625-4.091796875-.626953125-5.81396484375-1.4013671875-1.72607421875-.779296875-3.1708984375-1.908203125-4.33203125-3.392578125-1.166015625-1.484375-1.7001953125-3.572265625-1.60107421875-6.26953125,2.517578125-18.12109375,5.76806640625-36.353515625,9.75341796875-54.7001953125,3.97998046875-18.34375,8.6171875-36.7001953125,13.90185546875-55.0654296875.3740234375-1.21875.822265625-2.36328125,1.34375-3.435546875.51806640625-1.0693359375,1.185546875-1.9912109375,1.99951171875-2.765625.810546875-.7734375,1.80712890625-1.3017578125,2.98974609375-1.583984375,1.18017578125-.2822265625,2.61962890625-.2451171875,4.31591796875.111328125,1.44384765625.423828125,3.19970703125.9130859375,5.26904296875,1.46484375,2.06591796875.5537109375,3.9970703125,1.1962890625,5.791015625,1.927734375,1.7939453125.732421875,3.2626953125,1.603515625,4.40869140625,2.611328125,1.142578125,1.0107421875,1.5751953125,2.19140625,1.28955078125,3.5478515625-3.38818359375,12.1552734375-6.4931640625,24.3701171875-9.31396484375,36.6416015625Z"/>
        <a xlink:href="https://www.notion.so/congruence/hypothesis-f8e01f142f324c2b8a2aaf7e4944f125?pvs=4">
          <path d="M139.814453125,185.7744140625c-2.630859375-.916015625-4.947265625-2.267578125-6.94921875-4.0546875-2.0029296875-1.7880859375-3.5830078125-3.8134765625-4.7421875-6.07421875-1.1591796875-2.26171875-1.857421875-4.7021484375-2.095703125-7.322265625-.2392578125-2.6181640625.08203125-5.19140625.9609375-7.7158203125l6.1806640625-17.7548828125c.896484375-2.5771484375,2.2470703125-4.8056640625,4.0517578125-6.685546875,1.8037109375-1.8779296875,3.8671875-3.35546875,6.189453125-4.435546875s4.822265625-1.697265625,7.5029296875-1.8564453125c2.6787109375-.1591796875,5.333984375.2197265625,7.9658203125,1.1357421875l.8671875.302734375c2.68359375.93359375,5.025390625,2.294921875,7.0283203125,4.0830078125,2.0009765625,1.7880859375,3.5908203125,3.830078125,4.767578125,6.1279296875,1.17578125,2.296875,1.8740234375,4.736328125,2.0966796875,7.3203125.2197265625,2.583984375-.1171875,5.166015625-1.0146484375,7.7421875l-6.1806640625,17.755859375c-.87890625,2.5244140625-2.212890625,4.744140625-3.998046875,6.658203125-1.7880859375,1.9140625-3.8515625,3.3935546875-6.1904296875,4.4375-2.33984375,1.04296875-4.849609375,1.64453125-7.5283203125,1.802734375-2.6796875.1572265625-5.361328125-.23046875-8.0439453125-1.1640625l-.8681640625-.302734375ZM154.5927734375,143.3212890625c-1.736328125-.6044921875-3.4453125-.521484375-5.1298828125.2490234375-1.68359375.7705078125-2.828125,2.0244140625-3.431640625,3.759765625l-6.1806640625,17.7548828125c-.5869140625,1.68359375-.458984375,3.3505859375.3828125,5,.8408203125,1.650390625,2.1298828125,2.7763671875,3.8662109375,3.380859375l.8681640625.3017578125c1.8408203125.640625,3.58984375.572265625,5.248046875-.2080078125,1.65625-.779296875,2.779296875-2.0107421875,3.365234375-3.6953125l6.1806640625-17.75390625c.6044921875-1.736328125.498046875-3.423828125-.31640625-5.064453125-.8154296875-1.640625-2.1435546875-2.78125-3.984375-3.421875l-.8681640625-.302734375Z"/>
        </a>
      </g>
      <g>
        <path class="cls-1" d="M67.1796875,77.9599609375c5.04296875-1.5322265625,9.97412109375-2.2373046875,14.787109375-2.1083984375,4.8134765625.12890625,9.27734375,1.0693359375,13.3955078125,2.822265625,4.11669921875,1.7529296875,7.74365234375,4.2880859375,10.88232421875,7.6044921875,3.13623046875,3.3173828125,5.5439453125,7.30859375,7.21875,11.9697265625,1.67333984375,4.6630859375,2.48486328125,10.0576171875,2.43359375,16.18359375-.05224609375,6.1298828125-1.2021484375,12.8505859375-3.45263671875,20.1689453125l-8.24169921875,31.5546875c-.53759765625,1.4228515625-1.2607421875,2.62890625-2.17724609375,3.6142578125-.75732421875.787109375-1.81640625,1.4775390625-3.181640625,2.0751953125s-3.01123046875.693359375-4.93115234375.2890625c-2.05859375-.3173828125-4.16357421875-.7001953125-6.30908203125-1.15234375-2.1494140625-.453125-4.03857421875-1.1474609375-5.671875-2.080078125-1.63427734375-.93359375-2.9228515625-2.2373046875-3.8681640625-3.9140625-.94775390625-1.6748046875-1.24609375-3.892578125-.8994140625-6.6533203125,1.119140625-5.3115234375,2.47412109375-10.4853515625,4.06689453125-15.5234375,1.59130859375-5.03515625,3.1298828125-10.2314453125,4.61181640625-15.5849609375,1.77783203125-5.646484375,2.42138671875-10.380859375,1.92919921875-14.203125-.4951171875-3.8232421875-1.62060546875-6.744140625-3.37646484375-8.7685546875-1.759765625-2.0224609375-3.93310546875-3.1884765625-6.5224609375-3.4990234375-2.59228515625-.30859375-5.22021484375.2587890625-7.884765625,1.703125-2.6689453125,1.447265625-5.099609375,3.73828125-7.29345703125,6.875-2.1962890625,3.1396484375-3.6826171875,7.1044921875-4.455078125,11.8994140625-1.97021484375,11.037109375-3.7119140625,21.8271484375-5.22509765625,32.3681640625-.45263671875,2.1484375-1.55859375,3.89453125-3.31591796875,5.2333984375-1.76025390625,1.3427734375-3.8037109375,1.943359375-6.1357421875,1.806640625-2.1064453125-.0888671875-4.234375-.2138671875-6.384765625-.37109375-2.15234375-.16015625-4.091796875-.626953125-5.81396484375-1.4013671875-1.72607421875-.779296875-3.1708984375-1.908203125-4.33203125-3.392578125-1.166015625-1.484375-1.7001953125-3.572265625-1.60107421875-6.26953125,2.517578125-18.12109375,5.76806640625-36.353515625,9.75341796875-54.7001953125,3.97998046875-18.34375,8.6171875-36.7001953125,13.90185546875-55.0654296875.3740234375-1.21875.822265625-2.36328125,1.34375-3.435546875.51806640625-1.0693359375,1.185546875-1.9912109375,1.99951171875-2.765625.810546875-.7734375,1.80712890625-1.3017578125,2.98974609375-1.583984375,1.18017578125-.2822265625,2.61962890625-.2451171875,4.31591796875.111328125,1.44384765625.423828125,3.19970703125.9130859375,5.26904296875,1.46484375,2.06591796875.5537109375,3.9970703125,1.1962890625,5.791015625,1.927734375,1.7939453125.732421875,3.2626953125,1.603515625,4.40869140625,2.611328125,1.142578125,1.0107421875,1.5751953125,2.19140625,1.28955078125,3.5478515625-3.38818359375,12.1552734375-6.4931640625,24.3701171875-9.31396484375,36.6416015625Z"/>
        <a xlink:href="https://www.notion.so/congruence/hypothesis-f8e01f142f324c2b8a2aaf7e4944f125?pvs=4">
          <path class="cls-1" d="M139.814453125,185.7744140625c-2.630859375-.916015625-4.947265625-2.267578125-6.94921875-4.0546875-2.0029296875-1.7880859375-3.5830078125-3.8134765625-4.7421875-6.07421875-1.1591796875-2.26171875-1.857421875-4.7021484375-2.095703125-7.322265625-.2392578125-2.6181640625.08203125-5.19140625.9609375-7.7158203125l6.1806640625-17.7548828125c.896484375-2.5771484375,2.2470703125-4.8056640625,4.0517578125-6.685546875,1.8037109375-1.8779296875,3.8671875-3.35546875,6.189453125-4.435546875s4.822265625-1.697265625,7.5029296875-1.8564453125c2.6787109375-.1591796875,5.333984375.2197265625,7.9658203125,1.1357421875l.8671875.302734375c2.68359375.93359375,5.025390625,2.294921875,7.0283203125,4.0830078125,2.0009765625,1.7880859375,3.5908203125,3.830078125,4.767578125,6.1279296875,1.17578125,2.296875,1.8740234375,4.736328125,2.0966796875,7.3203125.2197265625,2.583984375-.1171875,5.166015625-1.0146484375,7.7421875l-6.1806640625,17.755859375c-.87890625,2.5244140625-2.212890625,4.744140625-3.998046875,6.658203125-1.7880859375,1.9140625-3.8515625,3.3935546875-6.1904296875,4.4375-2.33984375,1.04296875-4.849609375,1.64453125-7.5283203125,1.802734375-2.6796875.1572265625-5.361328125-.23046875-8.0439453125-1.1640625l-.8681640625-.302734375ZM154.5927734375,143.3212890625c-1.736328125-.6044921875-3.4453125-.521484375-5.1298828125.2490234375-1.68359375.7705078125-2.828125,2.0244140625-3.431640625,3.759765625l-6.1806640625,17.7548828125c-.5869140625,1.68359375-.458984375,3.3505859375.3828125,5,.8408203125,1.650390625,2.1298828125,2.7763671875,3.8662109375,3.380859375l.8681640625.3017578125c1.8408203125.640625,3.58984375.572265625,5.248046875-.2080078125,1.65625-.779296875,2.779296875-2.0107421875,3.365234375-3.6953125l6.1806640625-17.75390625c.6044921875-1.736328125.498046875-3.423828125-.31640625-5.064453125-.8154296875-1.640625-2.1435546875-2.78125-3.984375-3.421875l-.8681640625-.302734375Z"/>
        </a>
      </g>
      <g>
        <path class="cls-2" d="M67.1796875,77.9599609375c5.04296875-1.5322265625,9.97412109375-2.2373046875,14.787109375-2.1083984375,4.8134765625.12890625,9.27734375,1.0693359375,13.3955078125,2.822265625,4.11669921875,1.7529296875,7.74365234375,4.2880859375,10.88232421875,7.6044921875,3.13623046875,3.3173828125,5.5439453125,7.30859375,7.21875,11.9697265625,1.67333984375,4.6630859375,2.48486328125,10.0576171875,2.43359375,16.18359375-.05224609375,6.1298828125-1.2021484375,12.8505859375-3.45263671875,20.1689453125l-8.24169921875,31.5546875c-.53759765625,1.4228515625-1.2607421875,2.62890625-2.17724609375,3.6142578125-.75732421875.787109375-1.81640625,1.4775390625-3.181640625,2.0751953125s-3.01123046875.693359375-4.93115234375.2890625c-2.05859375-.3173828125-4.16357421875-.7001953125-6.30908203125-1.15234375-2.1494140625-.453125-4.03857421875-1.1474609375-5.671875-2.080078125-1.63427734375-.93359375-2.9228515625-2.2373046875-3.8681640625-3.9140625-.94775390625-1.6748046875-1.24609375-3.892578125-.8994140625-6.6533203125,1.119140625-5.3115234375,2.47412109375-10.4853515625,4.06689453125-15.5234375,1.59130859375-5.03515625,3.1298828125-10.2314453125,4.61181640625-15.5849609375,1.77783203125-5.646484375,2.42138671875-10.380859375,1.92919921875-14.203125-.4951171875-3.8232421875-1.62060546875-6.744140625-3.37646484375-8.7685546875-1.759765625-2.0224609375-3.93310546875-3.1884765625-6.5224609375-3.4990234375-2.59228515625-.30859375-5.22021484375.2587890625-7.884765625,1.703125-2.6689453125,1.447265625-5.099609375,3.73828125-7.29345703125,6.875-2.1962890625,3.1396484375-3.6826171875,7.1044921875-4.455078125,11.8994140625-1.97021484375,11.037109375-3.7119140625,21.8271484375-5.22509765625,32.3681640625-.45263671875,2.1484375-1.55859375,3.89453125-3.31591796875,5.2333984375-1.76025390625,1.3427734375-3.8037109375,1.943359375-6.1357421875,1.806640625-2.1064453125-.0888671875-4.234375-.2138671875-6.384765625-.37109375-2.15234375-.16015625-4.091796875-.626953125-5.81396484375-1.4013671875-1.72607421875-.779296875-3.1708984375-1.908203125-4.33203125-3.392578125-1.166015625-1.484375-1.7001953125-3.572265625-1.60107421875-6.26953125,2.517578125-18.12109375,5.76806640625-36.353515625,9.75341796875-54.7001953125,3.97998046875-18.34375,8.6171875-36.7001953125,13.90185546875-55.0654296875.3740234375-1.21875.822265625-2.36328125,1.34375-3.435546875.51806640625-1.0693359375,1.185546875-1.9912109375,1.99951171875-2.765625.810546875-.7734375,1.80712890625-1.3017578125,2.98974609375-1.583984375,1.18017578125-.2822265625,2.61962890625-.2451171875,4.31591796875.111328125,1.44384765625.423828125,3.19970703125.9130859375,5.26904296875,1.46484375,2.06591796875.5537109375,3.9970703125,1.1962890625,5.791015625,1.927734375,1.7939453125.732421875,3.2626953125,1.603515625,4.40869140625,2.611328125,1.142578125,1.0107421875,1.5751953125,2.19140625,1.28955078125,3.5478515625-3.38818359375,12.1552734375-6.4931640625,24.3701171875-9.31396484375,36.6416015625Z"/>
        <a xlink:href="https://www.notion.so/congruence/hypothesis-f8e01f142f324c2b8a2aaf7e4944f125?pvs=4">
          <path class="cls-2" d="M139.814453125,185.7744140625c-2.630859375-.916015625-4.947265625-2.267578125-6.94921875-4.0546875-2.0029296875-1.7880859375-3.5830078125-3.8134765625-4.7421875-6.07421875-1.1591796875-2.26171875-1.857421875-4.7021484375-2.095703125-7.322265625-.2392578125-2.6181640625.08203125-5.19140625.9609375-7.7158203125l6.1806640625-17.7548828125c.896484375-2.5771484375,2.2470703125-4.8056640625,4.0517578125-6.685546875,1.8037109375-1.8779296875,3.8671875-3.35546875,6.189453125-4.435546875s4.822265625-1.697265625,7.5029296875-1.8564453125c2.6787109375-.1591796875,5.333984375.2197265625,7.9658203125,1.1357421875l.8671875.302734375c2.68359375.93359375,5.025390625,2.294921875,7.0283203125,4.0830078125,2.0009765625,1.7880859375,3.5908203125,3.830078125,4.767578125,6.1279296875,1.17578125,2.296875,1.8740234375,4.736328125,2.0966796875,7.3203125.2197265625,2.583984375-.1171875,5.166015625-1.0146484375,7.7421875l-6.1806640625,17.755859375c-.87890625,2.5244140625-2.212890625,4.744140625-3.998046875,6.658203125-1.7880859375,1.9140625-3.8515625,3.3935546875-6.1904296875,4.4375-2.33984375,1.04296875-4.849609375,1.64453125-7.5283203125,1.802734375-2.6796875.1572265625-5.361328125-.23046875-8.0439453125-1.1640625l-.8681640625-.302734375ZM154.5927734375,143.3212890625c-1.736328125-.6044921875-3.4453125-.521484375-5.1298828125.2490234375-1.68359375.7705078125-2.828125,2.0244140625-3.431640625,3.759765625l-6.1806640625,17.7548828125c-.5869140625,1.68359375-.458984375,3.3505859375.3828125,5,.8408203125,1.650390625,2.1298828125,2.7763671875,3.8662109375,3.380859375l.8681640625.3017578125c1.8408203125.640625,3.58984375.572265625,5.248046875-.2080078125,1.65625-.779296875,2.779296875-2.0107421875,3.365234375-3.6953125l6.1806640625-17.75390625c.6044921875-1.736328125.498046875-3.423828125-.31640625-5.064453125-.8154296875-1.640625-2.1435546875-2.78125-3.984375-3.421875l-.8681640625-.302734375Z"/>
        </a>
      </g>
      <g>
        <path class="cls-3" d="M67.1796875,77.9599609375c5.04296875-1.5322265625,9.97412109375-2.2373046875,14.787109375-2.1083984375,4.8134765625.12890625,9.27734375,1.0693359375,13.3955078125,2.822265625,4.11669921875,1.7529296875,7.74365234375,4.2880859375,10.88232421875,7.6044921875,3.13623046875,3.3173828125,5.5439453125,7.30859375,7.21875,11.9697265625,1.67333984375,4.6630859375,2.48486328125,10.0576171875,2.43359375,16.18359375-.05224609375,6.1298828125-1.2021484375,12.8505859375-3.45263671875,20.1689453125l-8.24169921875,31.5546875c-.53759765625,1.4228515625-1.2607421875,2.62890625-2.17724609375,3.6142578125-.75732421875.787109375-1.81640625,1.4775390625-3.181640625,2.0751953125s-3.01123046875.693359375-4.93115234375.2890625c-2.05859375-.3173828125-4.16357421875-.7001953125-6.30908203125-1.15234375-2.1494140625-.453125-4.03857421875-1.1474609375-5.671875-2.080078125-1.63427734375-.93359375-2.9228515625-2.2373046875-3.8681640625-3.9140625-.94775390625-1.6748046875-1.24609375-3.892578125-.8994140625-6.6533203125,1.119140625-5.3115234375,2.47412109375-10.4853515625,4.06689453125-15.5234375,1.59130859375-5.03515625,3.1298828125-10.2314453125,4.61181640625-15.5849609375,1.77783203125-5.646484375,2.42138671875-10.380859375,1.92919921875-14.203125-.4951171875-3.8232421875-1.62060546875-6.744140625-3.37646484375-8.7685546875-1.759765625-2.0224609375-3.93310546875-3.1884765625-6.5224609375-3.4990234375-2.59228515625-.30859375-5.22021484375.2587890625-7.884765625,1.703125-2.6689453125,1.447265625-5.099609375,3.73828125-7.29345703125,6.875-2.1962890625,3.1396484375-3.6826171875,7.1044921875-4.455078125,11.8994140625-1.97021484375,11.037109375-3.7119140625,21.8271484375-5.22509765625,32.3681640625-.45263671875,2.1484375-1.55859375,3.89453125-3.31591796875,5.2333984375-1.76025390625,1.3427734375-3.8037109375,1.943359375-6.1357421875,1.806640625-2.1064453125-.0888671875-4.234375-.2138671875-6.384765625-.37109375-2.15234375-.16015625-4.091796875-.626953125-5.81396484375-1.4013671875-1.72607421875-.779296875-3.1708984375-1.908203125-4.33203125-3.392578125-1.166015625-1.484375-1.7001953125-3.572265625-1.60107421875-6.26953125,2.517578125-18.12109375,5.76806640625-36.353515625,9.75341796875-54.7001953125,3.97998046875-18.34375,8.6171875-36.7001953125,13.90185546875-55.0654296875.3740234375-1.21875.822265625-2.36328125,1.34375-3.435546875.51806640625-1.0693359375,1.185546875-1.9912109375,1.99951171875-2.765625.810546875-.7734375,1.80712890625-1.3017578125,2.98974609375-1.583984375,1.18017578125-.2822265625,2.61962890625-.2451171875,4.31591796875.111328125,1.44384765625.423828125,3.19970703125.9130859375,5.26904296875,1.46484375,2.06591796875.5537109375,3.9970703125,1.1962890625,5.791015625,1.927734375,1.7939453125.732421875,3.2626953125,1.603515625,4.40869140625,2.611328125,1.142578125,1.0107421875,1.5751953125,2.19140625,1.28955078125,3.5478515625-3.38818359375,12.1552734375-6.4931640625,24.3701171875-9.31396484375,36.6416015625Z"/>
        <a xlink:href="https://www.notion.so/congruence/hypothesis-f8e01f142f324c2b8a2aaf7e4944f125?pvs=4">
          <path class="cls-3" d="M139.814453125,185.7744140625c-2.630859375-.916015625-4.947265625-2.267578125-6.94921875-4.0546875-2.0029296875-1.7880859375-3.5830078125-3.8134765625-4.7421875-6.07421875-1.1591796875-2.26171875-1.857421875-4.7021484375-2.095703125-7.322265625-.2392578125-2.6181640625.08203125-5.19140625.9609375-7.7158203125l6.1806640625-17.7548828125c.896484375-2.5771484375,2.2470703125-4.8056640625,4.0517578125-6.685546875,1.8037109375-1.8779296875,3.8671875-3.35546875,6.189453125-4.435546875s4.822265625-1.697265625,7.5029296875-1.8564453125c2.6787109375-.1591796875,5.333984375.2197265625,7.9658203125,1.1357421875l.8671875.302734375c2.68359375.93359375,5.025390625,2.294921875,7.0283203125,4.0830078125,2.0009765625,1.7880859375,3.5908203125,3.830078125,4.767578125,6.1279296875,1.17578125,2.296875,1.8740234375,4.736328125,2.0966796875,7.3203125.2197265625,2.583984375-.1171875,5.166015625-1.0146484375,7.7421875l-6.1806640625,17.755859375c-.87890625,2.5244140625-2.212890625,4.744140625-3.998046875,6.658203125-1.7880859375,1.9140625-3.8515625,3.3935546875-6.1904296875,4.4375-2.33984375,1.04296875-4.849609375,1.64453125-7.5283203125,1.802734375-2.6796875.1572265625-5.361328125-.23046875-8.0439453125-1.1640625l-.8681640625-.302734375ZM154.5927734375,143.3212890625c-1.736328125-.6044921875-3.4453125-.521484375-5.1298828125.2490234375-1.68359375.7705078125-2.828125,2.0244140625-3.431640625,3.759765625l-6.1806640625,17.7548828125c-.5869140625,1.68359375-.458984375,3.3505859375.3828125,5,.8408203125,1.650390625,2.1298828125,2.7763671875,3.8662109375,3.380859375l.8681640625.3017578125c1.8408203125.640625,3.58984375.572265625,5.248046875-.2080078125,1.65625-.779296875,2.779296875-2.0107421875,3.365234375-3.6953125l6.1806640625-17.75390625c.6044921875-1.736328125.498046875-3.423828125-.31640625-5.064453125-.8154296875-1.640625-2.1435546875-2.78125-3.984375-3.421875l-.8681640625-.302734375Z"/>
        </a>
      </g>
    </g>
  </g>
  <g id="Arrows">
    <g>
      <g>
        <path class="cls-5" d="M216.239019150099921,177.011137345280076c9.6474609375,0,18.182739257809772.61407470703125,26.093597412110284,1.87738037109375,2.437591552739832.38922119140625,5.080947875979291.57843017578125,8.081146240239832.57843017578125,2.584777832030341,0,5.179016113280341-.1383056640625,7.407730102529968-.26800537109375,2.849182128909888-.16571044921875,5.877426147470032-.242919921875,9.530044555670429-.242919921875,2.790802001949487,0,5.633483886719659.04583740234375,8.382553100579571.09014892578125,1.278030395510541.0206298828125,2.55581665039972.04119873046875,3.833145141609748.05755615234375,8.607620239250537.10992431640625,16.209304809570312,1.57861328125,23.239395141599744,4.48992919921875,13.068466186520709,5.41204833984375,21.741516113280341,15.21478271484375,25.778259277340112,29.13592529296875,2.879043579100653,9.9288330078125,3.709548950200769,20.67840576171875,2.613571166990369,33.82952880859375-.037857055660425.45465087890625-.039764404289599.89862060546875-.041595458979828,1.3280029296875-.001922607420056.45135498046875-.003738403320312.87762451171875-.045959472659888,1.287353515625-.898132324220569,8.7158203125.101745605469659,17.4197998046875,1.068664550779431,25.83721923828125.195495605470569,1.7017822265625.3910064697302,3.40350341796875.571502685550513,5.10601806640625.127838134770172,1.20587158203125.168838500979291,2.45648193359375.208526611329944,3.6658935546875.057098388670056,1.74139404296875.116104125979291,3.5408935546875.429214477539972,5.3289794921875v13.2296142578125c-.347839355470569,1.52093505859375-.422882080079944,3.0526123046875-.495513916020172,4.53515625-.026809692380084.5477294921875-.053497314450397,1.09454345703125-.094177246090112,1.638427734375-.482208251950397,6.4447021484375-3.044738769530341,12.39959716796875-8.064422607420056,18.74041748046875-8.244689941409888,10.41461181640625-19.430786132819776,15.66387939453125-34.197494506839575,16.04779052734375-.439529418940765.01141357421875-.878875732420056.0172119140625-1.315582275389716.0172119140625-7.625289916990369,0-14.220550537110284-1.7264404296875-20.162658691410797-5.27801513671875-6.481842041009259-3.8741455078125-11.447128295890252-9.30035400390625-14.760681152339203-16.1334228515625-.796127319340485-1.6417236328125-1.234680175780341-2.5460205078125-2.297348022460938-2.5462646484375-.768569946289062-.00006103515625-1.339675903319403.54498291015625-2.376449584959119,1.5345458984375l-.075836181640625.0723876953125c-1.821975708009631,1.73834228515625-3.647277832029431,3.473388671875-5.472595214850116,5.2083740234375-7.718505859369543,7.33648681640625-15.699768066399884,14.9228515625-23.292541503899884,22.65966796875-1.186767578130457,1.20928955078125-2.346466064460401,2.47320556640625-3.467987060549603,3.695556640625-1.52783203125,1.6651611328125-3.107666015620453,3.38702392578125-4.756408691410797,4.96881103515625-4.759887695308862,4.56695556640625-9.583160400388806,7.76416015625-14.745452880849371,9.7742919921875-3.338043212900629,1.2998046875-6.819641113289435,1.43402099609375-10.505676269539435,1.5760498046875l-.18603515625.00787353515625-3.37774658203125-.00006103515625-3.421478271478918.00103759765625c-.440887451170056.01983642578125-.878967285159888.02960205078125-1.312286376950397.02960205078125-7.575714111329944,0-14.701568603520172-3.02203369140625-21.784790039070685-9.2388916015625-4.392913818359375-3.8555908203125-7.837066650388806-7.76275634765625-10.529174804679315-11.94464111328125-3.431701660159888-5.33074951171875-5.024963378909888-11.15118408203125-4.87057495118006-17.81707763671875l-.001159667970569-6.0845947265625c-.432800292959655-8.91302490234375,2.935241699220569-17.05242919921875,10.010620117191138-24.19219970703125,4.933349609379547-4.97833251953125,10.113708496099207-9.88690185546875,15.12353515625-14.6339111328125,4.509918212888806-4.2733154296875,9.173370361329944-8.69207763671875,13.653900146489832-13.15850830078125,2.377655029289599-2.37017822265625,4.843170166010168-4.7508544921875,7.227508544920056-7.0531005859375,1.079162597648974-1.04205322265625,2.158294677728918-2.083984375,3.233459472648974-3.128662109375.90234375-.8768310546875,1.695922851570685-1.74737548828125,1.498260498050513-2.7569580078125-.198516845699487-1.01385498046875-1.235748291010168-1.50927734375-2.469268798829944-2.00823974609375-8.082794189449487-3.2691650390625-14.294799804680224-8.67144775390625-18.463470458979828-16.056640625-2.380676269530341-4.2176513671875-3.804626464840112-9.002685546875-4.353179931639716-14.6285400390625-.824340820310681-8.4537353515625.548248291010168-16.67950439453125,4.079650878898974-24.44866943359375,4.827819824220569-10.6214599609375,12.893188476570685-18.1539306640625,23.972045898441138-22.38836669921875,4.607727050779431-1.7611083984375,9.335479736329944-2.1168212890625,13.758148193359375-2.2388916015625,2.465911865239832-.06805419921875,4.869171142579944-.10260009765625,7.14306640625-.10260009765625M216.239019150099921,176.011137345280076c-2.389099121090112,0-4.779968261720569.0369873046875-7.170654296869543.10296630859375-4.747680664069776.13104248046875-9.4990234375.5506591796875-14.087585449220569,2.304443359375-11.32763671875,4.3294677734375-19.530914306639716,11.92059326171875-24.525390625,22.90863037109375-3.598449707029431,7.916748046875-5.016357421880457,16.22412109375-4.164581298829944,24.95953369140625.521331787110284,5.34637451171875,1.850708007810681,10.369140625,4.477630615230737,15.02301025390625,4.361480712888806,7.726806640625,10.740997314459491,13.16815185546875,18.959381103519263,16.4921875,2.319458007810681.9381103515625,2.426940917970569,1.3934326171875.649078369140625,3.12091064453125-3.493103027340112,3.39410400390625-7.028137207030341,6.7596435546875-10.470092773441138,10.19073486328125-9.450408935539599,9.42071533203125-19.396697998039599,18.32623291015625-28.781768798829944,27.7967529296875-6.72366333006903,6.784912109375-10.78125,15.01544189453125-10.299133300779431,24.94464111328125v6.03607177734375c-.153625488279431,6.62188720703125,1.397644042970569,12.71630859375,5.029724121100116,18.35833740234375,2.974243164059772,4.6201171875,6.646331787110284,8.5880126953125,10.710357666009259,12.15496826171875,6.435577392580853,5.6484375,13.703033447271082,9.4873046875,22.444458007820685,9.4873046875.448150634760168,0,.901184082030341-.0101318359375,1.357147216790509-.03057861328125,1.125152587888806,0,2.250640869138806-.00006103515625,3.376617431638806-.00006103515625s2.25244140625.00006103515625,3.379516601570685.00006103515625c3.746276855460565-.1448974609375,7.487579345700397-.2637939453125,11.052825927729828-1.652099609375,5.751190185550513-2.23944091796875,10.653289794920056-5.74212646484375,15.074920654300513-9.9844970703125,2.884765625-2.76776123046875,5.451538085930224-5.83831787109375,8.245758056639716-8.685546875,9.345184326170056-9.52252197265625,19.090118408200397-18.63629150390625,28.741744995109912-27.844970703125.903259277350116-.86181640625,1.3831939697302-1.3304443359375,1.761840820319776-1.33038330078125.436889648430224.00006103515625.738922119139716.62408447265625,1.400390625,1.9881591796875,3.405151367180224,7.02197265625,8.453079223630084,12.55029296875,15.144714355469659,16.54986572265625,6.38957214355105,3.8189697265625,13.334075927730737,5.41961669921875,20.67570495605105,5.41961669921875.445343017579944,0,.893371582029431-.00592041015625,1.341583251949487-.017578125,14.059738159179688-.365478515625,26.058792114259631-5.18841552734375,34.955551147460028-16.4267578125,4.466857910159888-5.6424560546875,7.723098754890088-11.87579345703125,8.277572631840485-19.2864990234375.152496337889716-2.038330078125.112747192379175-4.11798095703125.592483520509631-6.133056640625v-13.43280029296875c-.536270141599744-2.9808349609375-.325500488280341-6.0145263671875-.643325805670429-9.01220703125-1.083068847649884-10.21563720703125-2.704544067380084-20.4029541015625-1.639831542959655-30.7353515625.089706420890252-.8707275390625.016235351559772-1.757080078125.08935546875-2.63482666015625.961761474610284-11.540771484375.586029052729828-23.0322265625-2.649673461920429-34.1910400390625-4.055801391599744-13.98687744140625-12.746948242189319-24.1453857421875-26.356109619139716-29.78131103515625-7.546875-3.1253662109375-15.480636596679688-4.462158203125-23.609237670899347-4.56597900390625-4.073974609370453-.05206298828125-8.152893066400793-.1478271484375-12.22843933105105-.14776611328125-3.199874877929688,0-6.397918701170056.05902099609375-9.588134765629547.24462890625-2.460159301759631.14312744140625-4.908294677729828.26629638671875-7.349670410149884.26629638671875-2.64697265625,0-5.285995483400256-.144775390625-7.923446655279804-.56591796875-8.710113525389716-1.39093017578125-17.472564697260168-1.889892578125-26.251281738280341-1.889892578125h0Z"/>
        <path class="cls-5" d="M215.418737167679865,206.144377091373826c6.575714111329944,0,13.255676269530341,1.05926513671875,19.000762939450397,2.0521240234375,5.113952636719659.88372802734375,10.489532470709491,1.29534912109375,16.917312622069403,1.29534912109375,4.036071777350116,0,8.003967285159888-.16802978515625,11.009887695319776-.3143310546875,3.233718872070312-.157470703125,6.681381225580481-.31121826171875,10.153411865230737-.31121826171875,4.914291381839575,0,8.987350463869916.30816650390625,12.818176269529431.96990966796875,10.2205963134802,1.76544189453125,14.563781738280341,6.504638671875,15.490692138670056,16.9033203125.7479400634802,8.39080810546875.7704010009802,17.27642822265625.066741943360284,26.4100341796875-.737182617180224,9.56866455078125.677444458010541,19.03570556640625,2.04548645019986,28.19097900390625.161178588869916,1.07861328125.322357177730737,2.1573486328125.480255126950397,3.23663330078125.869689941409888,5.94488525390625,1.502197265629547,12.29931640625.252426147460028,18.4888916015625-1.188980102539972,5.8883056640625-7.102142333980737,10.50079345703125-13.461883544920056,10.50079345703125-1.778366088869916,0-3.471923828120453-.3604736328125-5.033645629880084-1.07147216796875-3.461730957030341-1.57586669921875-4.482254028320312-4.69110107421875-4.949508666990369-8.8837890625-.599807739259631-5.3818359375-.293624877929688-10.88299560546875.00247192381994-16.2030029296875.1693267822302-3.0418701171875.344375610360657-6.1873779296875.351287841800513-9.2962646484375.01611328125-7.27154541015625-.326522827150256-15.74212646484375-4.623413085940228-24.25189208984375l-.654266357420056-1.2957763671875-.977600097659888,1.07305908203125c-.678283691399884.7445068359375-1.347106933590112,1.49853515625-2.015899658200397,2.2525634765625-1.415451049799231,1.59588623046875-2.879089355469659,3.24603271484375-4.404129028319403,4.76043701171875-9.105804443360284,9.0419921875-17.378814697260168,17.1793212890625-25.291809082030341,24.876953125-8.338317871090112,8.111328125-16.836853027340112,16.338134765625-25.055572509769263,24.2940673828125-5.708862304680224,5.5263671875-11.41778564453125,11.052734375-17.120361328120453,16.5855712890625-1.470031738280341,1.42626953125-2.818023681639716,2.984619140625-4.121643066410797,4.49163818359375-1.765441894529431,2.0408935546875-3.59100341796875,4.15130615234375-5.693023681638806,5.8856201171875-2.562408447260168,2.11431884765625-4.751708984370453,3.09906005859375-6.889862060540509,3.09906005859375-2.087097167969659,0-4.209716796879547-.9337158203125-6.679962158209491-2.9383544921875-.696136474611194-.56488037109375-1.428802490230737-1.17742919921875-2.070861816400793-1.82891845703125-5.559173583989832-5.64044189453125-5.597747802739832-10.6097412109375-.125152587889716-16.11248779296875,1.767944335929315-1.7777099609375,3.729309082030341-3.45159912109375,5.626098632809772-5.0704345703125,1.931060791010168-1.64801025390625,3.927856445310681-3.35211181640625,5.756317138670056-5.19189453125,14.891510009770172-14.98333740234375,29.862030029300513-29.34942626953125,45.166320800780341-43.97198486328125,6.083435058590112-5.8123779296875,12.290649414059772-11.70037841796875,18.293518066409888-17.39453125,3.229034423829944-3.06298828125,6.458099365229828-6.12591552734375,9.684051513670056-9.19219970703125,1.284088134760168-1.220458984375,1.991409301759631-1.89276123046875,1.777526855469659-2.82769775390625-.215301513670056-.9410400390625-1.165878295900256-1.24578857421875-2.891555786130084-1.79888916015625-9.333831787110284-2.99169921875-18.853012084970032-3.3753662109375-26.103286743169519-3.3753662109375-1.340209960940228,0-2.753814697260168.01458740234375-4.321594238280341.04461669921875-1.684936523439319.03228759765625-3.395080566409888.0877685546875-5.048950195309772.1414794921875-2.568878173829944.0833740234375-5.225219726570685.16961669921875-7.828216552740741.16961669921875-3.746429443359375,0-6.832244873039599-.17791748046875-9.711212158199487-.559814453125-1.794494628909888-.238037109375-3.316040039059772-.7115478515625-4.651519775389716-1.44757080078125-2.199554443360284-1.21209716796875-3.277313232420056-2.90374755859375-3.391754150389716-5.32379150390625-.248779296880457-5.25970458984375.984039306639716-9.38140869140625,3.664215087889716-12.25067138671875,2.857238769530341-3.05889892578125,7.324157714839203-4.6728515625,13.276733398440228-4.797119140625.427703857420056-.0089111328125.855865478510168-.01324462890625,1.282989501949487-.01324462890625M215.418767685259809,205.144377091373826c-.434112548829944,0-.869232177739832.00439453125-1.303894042969659.01348876953125-12.201568603520172.25469970703125-18.459747314450397,6.66070556640625-17.918975830079944,18.09478759765625.133972167969659,2.83258056640625,1.488250732419147,4.81890869140625,3.908020019530341,6.15240478515625,1.557922363279431.85858154296875,3.252532958989832,1.33087158203125,5.002624511719659,1.56304931640625,3.278198242190228.43487548828125,6.559051513669147.5684814453125,9.842742919919147.5684814453125,4.296936035160797,0,8.59796142578125-.22900390625,12.89630126953125-.311279296875,1.435424804689319-.0274658203125,2.869842529299603-.04443359375,4.302459716799603-.04443359375,8.719787597659888,0,17.374221801759631.62762451171875,25.798065185549603,3.32763671875,2.840042114259631.91033935546875,2.838607788080481.94561767578125.730316162110284,2.94952392578125-9.325561523440228,8.86383056640625-18.677001953129547,17.70050048828125-27.979431152350116,26.5885009765625-15.198944091789599,14.5218505859375-30.363830566399884,29.0777587890625-45.184783935539599,43.9901123046875-3.595733642579944,3.61785888671875-7.785278320319776,6.645263671875-11.382232666020172,10.2620849609375-5.928375244139716,5.9610595703125-5.774627685549603,11.5367431640625.122009277339203,17.51959228515625.670959472660797.6807861328125,1.409545898441138,1.3001708984375,2.152954101570685,1.9034423828125,2.601409912110284,2.111083984375,4.95654296875,3.161865234375,7.310089111329944,3.161865234375,2.421752929679315,0,4.84182739256994-1.11273193359375,7.526306152340112-3.32769775390625,3.726318359370453-3.0745849609375,6.436859130860284-7.09552001953125,9.874572753909888-10.430908203125,14.052124023429315-13.6339111328125,28.14260864256994-27.22833251953125,42.176879882809772-40.88055419921875,8.478668212890625-8.2479248046875,16.905670166010168-16.54949951171875,25.299133300780341-24.8841552734375,2.258148193360284-2.24237060546875,4.308715820309772-4.6937255859375,6.454620361329944-7.04913330078125,4.039688110349744,8.00042724609375,4.53361511230014,15.8782958984375,4.516067504880084,23.7989501953125-.018951416020172,8.53741455078125-1.300765991210028,17.059814453125-.347610473630084,25.61224365234375.448043823239459,4.02020263671875,1.432250976559772,7.81817626953125,5.529037475579571,9.68316650390625,1.743438720710401.793701171875,3.597427368170429,1.16131591796875,5.447967529300513,1.16131591796875,6.571502685549603,0,13.096206665039972-4.637451171875,14.442092895509631-11.3028564453125,1.267059326170056-6.275146484375.672973632810681-12.5692138671875-.243179321289972-18.83160400390625-1.513732910159888-10.3477783203125-3.331558227539972-20.6478271484375-2.518157958989832-31.20599365234375.681549072270172-8.846435546875.722305297859748-17.7127685546875-.06771850585028-26.57568359375-.965911865239832-10.8360595703125-5.556243896489832-15.9412841796875-16.316543579109748-17.7999267578125-4.314468383789972-.7452392578125-8.648132324209655-.9844970703125-12.9883880615198-.9844970703125-3.399291992190228,0-6.803039550780341.1468505859375-10.2020416259802.3123779296875-3.660797119139716.17828369140625-7.312957763670056.31317138671875-10.961273193360284.31317138671875-5.59033203125,0-11.170166015619543-.3170166015625-16.747009277339203-1.28076171875-6.333282470700397-1.094482421875-12.720245361329944-2.06671142578125-19.171020507810681-2.06671142578125h0Z"/>
      </g>
      <path class="cls-4" d="M279.731008285840289,279.730985978092576c-69.716351184770247.440578179877775-210.016410129730502,1.330698880577984-279.731277051299912,1.531175586202153.000365796359802.000257519355728-1.526855883220378.007154491859183-1.526855883220378.007154491859183l-.00430297856019-1.538391113217585c-.064466009100215-34.904889679753978-.304332171809619-104.981273403907835-.285177332809326-139.865683708776487C-1.81676698272986,139.865507462473033-1.997675185819389.000089981995188-1.997675185819389.000089981995188l-.002593994140625-2.000305175767608c47.593448544559578.061678103190388,165.706463488089867.208744173559353,211.798450492719894.27100022398281,17.377564021579929.057256412161223,52.544894306030073.067305907798072,69.932688834899636.190932715224335.000031326670069-.000140947033287,1.545487259270885.005932051020864,1.545487259270885.005932051020864l-.006912231439856,1.532440185543237c-.324877767640828,69.719190650677774-.970720793330656,210.042533955160252-1.538436889650256,279.73089599609375h0ZM279.731008285840289,279.730985978092576c-.578875428040192-69.742890748202626-1.234200297490133-210.023047358901749-1.538486707469929-279.731249249096436.000049818089792.000353252795321,1.538379895759135,1.538713848854968,1.538379895759135,1.538713848854968-38.949250925439628.064877984557825-100.445683312958863.316583179728696-139.865412666009433.281504515698543C139.865514511429865,1.820249894093649.000097030960205,1.997679093337865.000097030960205,1.997679093337865L1.997686142290149.000089981998826c.100233861439847,79.280994943896076-.354767541000001,201.347947819946057-.46580332395024,279.730682550889469-.000474752219816.000152410046212-1.531785787379704-1.5311586251064-1.531785787379704-1.5311586251064,69.708467800580365.186233468544742,210.024453468809952,1.073926733639382,279.730911254880084,1.531372070310681h0Z"/>
    </g>
  </g>
</svg>