<?xml version="1.0" encoding="UTF-8"?>
<svg xmlns="http://www.w3.org/2000/svg" xmlns:xlink="http://www.w3.org/1999/xlink" viewBox="0 0 280 280">
  <defs>
    <style>
      .cls-1 {
        stroke: #665451;
        stroke-width: 50px;
      }

      .cls-1, .cls-2 {
        fill: none;
        stroke-linecap: round;
        stroke-linejoin: round;
      }

      .cls-3 {
        fill: #fff;
      }

      .cls-4 {
        fill: #e11f26;
      }

      .cls-5 {
        fill: #ec1940;
      }

      .cls-2 {
        stroke: #998675;
        stroke-width: 2px;
      }
    </style>
  </defs>
  <g id="Content">
    <a xlink:href="https://www.notion.so/congruence/Sample-correlation-coefficient-d3d17eb14c1d49a9b4227f842360db90?pvs=4">
      <g>
        <path class="cls-1" d="M126.396484375,115.697244847075126c-.28125,3.5029296875-1.083984375,6.7353515625-2.41015625,9.6982421875-1.328125,2.962890625-3.0927734375,5.3994140625-5.2939453125,7.3115234375-2.201171875,1.9111328125-4.8798828125,3.1953125-8.033203125,3.8525390625-3.15625.6591796875-6.6875.3720703125-10.591796875-.85546875-3.2978515625-1.21484375-5.046875-3.166015625-5.2529296875-5.853515625-.2099609375-2.6875.26953125-5.5615234375,1.4345703125-8.6220703125,1.34375-3.8798828125,2.25390625-7.1796875,2.7314453125-9.90234375.5625-3.6826171875-.109375-6.0732421875-2.0166015625-7.169921875-1.9091796875-1.09375-4.3251953125-.8583984375-7.25.708984375s-5.931640625,4.623046875-9.017578125,9.1650390625c-3.0908203125,4.54296875-5.46875,10.62109375-7.1435546875,18.2373046875l-8.2099609375,39.8388671875c-.4951171875,1.1201171875-1.123046875,2.02734375-1.8876953125,2.716796875-.7685546875.69140625-1.7724609375,1.208984375-3.0126953125,1.548828125-1.2431640625.33984375-2.884765625.4072265625-4.9287109375.205078125-2.16015625-.23046875-4.33203125-.5546875-6.51171875-.970703125-2.181640625-.419921875-4.171875-1.009765625-5.966796875-1.7734375-1.798828125-.763671875-3.2705078125-1.76171875-4.4091796875-2.9970703125-1.142578125-1.2333984375-1.7294921875-2.896484375-1.7568359375-4.9931640625-.0302734375-.98828125.279296875-2.947265625.923828125-5.876953125.64453125-2.927734375,1.4580078125-6.498046875,2.4453125-10.703125.986328125-4.205078125,2.0986328125-8.84375,3.337890625-13.9140625,1.236328125-5.0732421875,2.5400390625-10.1591796875,3.91015625-15.263671875,3.12109375-11.96484375,6.646484375-25.193359375,10.5712890625-39.6884765625.0380859375-.728515625.3544921875-1.33203125.953125-1.8173828125.455078125-.388671875,1.10546875-.7060546875,1.9599609375-.9501953125.8515625-.2421875,2.1083984375-.2412109375,3.77734375.0009765625,1.546875.2197265625,3.412109375.5380859375,5.5947265625.955078125,2.1787109375.41796875,4.2236328125.900390625,6.1318359375,1.4404296875,1.908203125.5439453125,3.513671875,1.2041015625,4.8154296875,1.98046875,1.3037109375.7783203125,1.896484375,1.70703125,1.783203125,2.7880859375l-.55859375,3.3779296875c4.4580078125-1.84375,9.2783203125-2.810546875,14.45703125-2.9013671875,5.1787109375-.0869140625,10.1455078125,1.06640625,14.90234375,3.462890625,5.6142578125,2.9560546875,9.572265625,6.744140625,11.873046875,11.3642578125,2.2998046875,4.6220703125,3.1826171875,9.8212890625,2.6494140625,15.599609375Z"/>
        <path class="cls-2" d="M126.396484375,115.697244847075126c-.28125,3.5029296875-1.083984375,6.7353515625-2.41015625,9.6982421875-1.328125,2.962890625-3.0927734375,5.3994140625-5.2939453125,7.3115234375-2.201171875,1.9111328125-4.8798828125,3.1953125-8.033203125,3.8525390625-3.15625.6591796875-6.6875.3720703125-10.591796875-.85546875-3.2978515625-1.21484375-5.046875-3.166015625-5.2529296875-5.853515625-.2099609375-2.6875.26953125-5.5615234375,1.4345703125-8.6220703125,1.34375-3.8798828125,2.25390625-7.1796875,2.7314453125-9.90234375.5625-3.6826171875-.109375-6.0732421875-2.0166015625-7.169921875-1.9091796875-1.09375-4.3251953125-.8583984375-7.25.708984375s-5.931640625,4.623046875-9.017578125,9.1650390625c-3.0908203125,4.54296875-5.46875,10.62109375-7.1435546875,18.2373046875l-8.2099609375,39.8388671875c-.4951171875,1.1201171875-1.123046875,2.02734375-1.8876953125,2.716796875-.7685546875.69140625-1.7724609375,1.208984375-3.0126953125,1.548828125-1.2431640625.33984375-2.884765625.4072265625-4.9287109375.205078125-2.16015625-.23046875-4.33203125-.5546875-6.51171875-.970703125-2.181640625-.419921875-4.171875-1.009765625-5.966796875-1.7734375-1.798828125-.763671875-3.2705078125-1.76171875-4.4091796875-2.9970703125-1.142578125-1.2333984375-1.7294921875-2.896484375-1.7568359375-4.9931640625-.0302734375-.98828125.279296875-2.947265625.923828125-5.876953125.64453125-2.927734375,1.4580078125-6.498046875,2.4453125-10.703125.986328125-4.205078125,2.0986328125-8.84375,3.337890625-13.9140625,1.236328125-5.0732421875,2.5400390625-10.1591796875,3.91015625-15.263671875,3.12109375-11.96484375,6.646484375-25.193359375,10.5712890625-39.6884765625.0380859375-.728515625.3544921875-1.33203125.953125-1.8173828125.455078125-.388671875,1.10546875-.7060546875,1.9599609375-.9501953125.8515625-.2421875,2.1083984375-.2412109375,3.77734375.0009765625,1.546875.2197265625,3.412109375.5380859375,5.5947265625.955078125,2.1787109375.41796875,4.2236328125.900390625,6.1318359375,1.4404296875,1.908203125.5439453125,3.513671875,1.2041015625,4.8154296875,1.98046875,1.3037109375.7783203125,1.896484375,1.70703125,1.783203125,2.7880859375l-.55859375,3.3779296875c4.4580078125-1.84375,9.2783203125-2.810546875,14.45703125-2.9013671875,5.1787109375-.0869140625,10.1455078125,1.06640625,14.90234375,3.462890625,5.6142578125,2.9560546875,9.572265625,6.744140625,11.873046875,11.3642578125,2.2998046875,4.6220703125,3.1826171875,9.8212890625,2.6494140625,15.599609375Z"/>
        <path class="cls-3" d="M126.396484375,115.697244847075126c-.28125,3.5029296875-1.083984375,6.7353515625-2.41015625,9.6982421875-1.328125,2.962890625-3.0927734375,5.3994140625-5.2939453125,7.3115234375-2.201171875,1.9111328125-4.8798828125,3.1953125-8.033203125,3.8525390625-3.15625.6591796875-6.6875.3720703125-10.591796875-.85546875-3.2978515625-1.21484375-5.046875-3.166015625-5.2529296875-5.853515625-.2099609375-2.6875.26953125-5.5615234375,1.4345703125-8.6220703125,1.34375-3.8798828125,2.25390625-7.1796875,2.7314453125-9.90234375.5625-3.6826171875-.109375-6.0732421875-2.0166015625-7.169921875-1.9091796875-1.09375-4.3251953125-.8583984375-7.25.708984375s-5.931640625,4.623046875-9.017578125,9.1650390625c-3.0908203125,4.54296875-5.46875,10.62109375-7.1435546875,18.2373046875l-8.2099609375,39.8388671875c-.4951171875,1.1201171875-1.123046875,2.02734375-1.8876953125,2.716796875-.7685546875.69140625-1.7724609375,1.208984375-3.0126953125,1.548828125-1.2431640625.33984375-2.884765625.4072265625-4.9287109375.205078125-2.16015625-.23046875-4.33203125-.5546875-6.51171875-.970703125-2.181640625-.419921875-4.171875-1.009765625-5.966796875-1.7734375-1.798828125-.763671875-3.2705078125-1.76171875-4.4091796875-2.9970703125-1.142578125-1.2333984375-1.7294921875-2.896484375-1.7568359375-4.9931640625-.0302734375-.98828125.279296875-2.947265625.923828125-5.876953125.64453125-2.927734375,1.4580078125-6.498046875,2.4453125-10.703125.986328125-4.205078125,2.0986328125-8.84375,3.337890625-13.9140625,1.236328125-5.0732421875,2.5400390625-10.1591796875,3.91015625-15.263671875,3.12109375-11.96484375,6.646484375-25.193359375,10.5712890625-39.6884765625.0380859375-.728515625.3544921875-1.33203125.953125-1.8173828125.455078125-.388671875,1.10546875-.7060546875,1.9599609375-.9501953125.8515625-.2421875,2.1083984375-.2412109375,3.77734375.0009765625,1.546875.2197265625,3.412109375.5380859375,5.5947265625.955078125,2.1787109375.41796875,4.2236328125.900390625,6.1318359375,1.4404296875,1.908203125.5439453125,3.513671875,1.2041015625,4.8154296875,1.98046875,1.3037109375.7783203125,1.896484375,1.70703125,1.783203125,2.7880859375l-.55859375,3.3779296875c4.4580078125-1.84375,9.2783203125-2.810546875,14.45703125-2.9013671875,5.1787109375-.0869140625,10.1455078125,1.06640625,14.90234375,3.462890625,5.6142578125,2.9560546875,9.572265625,6.744140625,11.873046875,11.3642578125,2.2998046875,4.6220703125,3.1826171875,9.8212890625,2.6494140625,15.599609375Z"/>
      </g>
    </a>
  </g>
  <g id="Arrows">
    <g>
      <g>
        <path class="cls-5" d="M216.239088667200122,177.011143461189931c9.647506713870825,0,18.182769775390625.61407470703125,26.093521118171338,1.8773193359375,2.437667846679688.3892822265625,5.081085205078125.5784912109375,8.081329345699487.5784912109375,2.584625244140625,0,5.178833007808862-.1383056640625,7.407546997070312-.26800537109375,2.849182128909888-.16571044921875,5.877426147459119-.242919921875,9.530044555669519-.242919921875,2.790802001949487,0,5.633453369138806.04583740234375,8.382537841789599.09014892578125,1.278045654300513.0206298828125,2.555831909179688.04119873046875,3.833175659179688.05755615234375,8.607666015630457.10992431640625,16.209320068361194,1.57861328125,23.239379882810681,4.48992919921875,13.068466186530713,5.4119873046875,21.741531372070312,15.2147216796875,25.778244018560144,29.13592529296875,2.879089355470569,9.92889404296875,3.709594726560681,20.678466796875,2.613586425779431,33.82952880859375-.037872314449487.45465087890625-.039764404300513.89862060546875-.041564941409888,1.32794189453125-.001922607420056.45135498046875-.003753662109375.87762451171875-.045989990230737,1.28741455078125-.898101806638806,8.7159423828125.101776123050513,17.4200439453125,1.068725585941138,25.8375244140625.195465087890625,1.70166015625.390960693359375,3.4033203125.57147216796875,5.105712890625.127838134761987,1.20587158203125.168823242180224,2.45648193359375.20849609375,3.6658935546875.057098388671875,1.74139404296875.116088867180224,3.54095458984375.42919921875,5.3289794921875v13.2296142578125c-.347808837888806,1.5208740234375-.4228515625,3.0526123046875-.495452880859375,4.5350341796875-.026824951179151.54779052734375-.053497314460401,1.09466552734375-.094207763679151,1.6385498046875-.482177734371362,6.444580078125-3.044708251949487,12.39947509765625-8.064422607421875,18.74041748046875-8.244659423828125,10.41455078125-19.4307708740198,15.663818359375-34.197494506828662,16.04779052734375-.439514160159888.01141357421875-.878860473640088.0172119140625-1.315567016599744.0172119140625-7.625320434579407,0-14.220581054689319-1.7264404296875-20.162689208989832-5.27801513671875-6.481842041010168-3.8741455078125-11.447128295900256-9.30035400390625-14.760757446290881-16.13360595703125-.796081542970569-1.6416015625-1.234603881830481-2.54583740234375-2.297241210939319-2.54608154296875-.7685546875-.00006103515625-1.339584350580481.544921875-2.376205444330481,1.5343017578125l-.076110839849207.0726318359375c-1.821868896480737,1.73828125-3.6470794677698,3.47314453125-5.472290039060681,5.20806884765625-7.718582153320312,7.33660888671875-15.699951171869543,14.92303466796875-23.292846679689319,22.65997314453125-1.186782836910425,1.20928955078125-2.34652709960028,2.4732666015625-3.46807861328125,3.6956787109375-1.527786254879175,1.66510009765625-3.10760498046875,3.38690185546875-4.756286621090112,4.96868896484375-4.7598724365198,4.56695556640625-9.583160400388806,7.76416015625-14.745468139648438,9.7742919921875-3.338058471679688,1.2998046875-6.819686889652075,1.43402099609375-10.505737304691138,1.5760498046875l-.18603515625.00787353515625-3.377685546869543-.00006103515625-3.4214935302698.00103759765625c-.440895080570044.01983642578125-.878974914559876.02960205078125-1.312286376960401.02960205078125-7.575714111329944,0-14.701583862299231-3.02203369140625-21.784790039060681-9.2388916015625-4.392814636230469-3.85552978515625-7.836921691898169-7.76263427734375-10.529159545898438-11.94464111328125-3.431709289550781-5.33074951171875-5.024971008300781-11.15118408203125-4.870582580570044-17.81707763671875l-.001182556150525-6.0845947265625c-.432762145990637-8.91302490234375,2.935287475589575-17.052490234375,10.0106353759802-24.19219970703125,4.933311462400525-4.978271484375,10.113632202150256-9.88677978515625,15.123390197748449-14.63372802734375,4.509948730472388-4.27337646484375,9.173477172851562-8.6922607421875,13.654029846191406-13.15869140625,2.377258300788526-2.36981201171875,4.842391967780713-4.75006103515625,7.226364135749463-7.05194091796875,1.079559326170056-1.04241943359375,2.159057617180224-2.08477783203125,3.234603881830481-3.12982177734375.90234375-.8768310546875,1.695922851560681-1.74737548828125,1.498260498048694-2.7569580078125-.198486328128638-1.01385498046875-1.2357330322302-1.50927734375-2.469253540039062-2.00823974609375-8.082794189449487-3.2691650390625-14.294792175289331-8.67144775390625-18.463478088378906-16.056640625-2.380683898922143-4.21771240234375-3.804626464840112-9.00274658203125-4.353179931640625-14.62860107421875-.824348449710669-8.4537353515625.548263549810144-16.679443359375,4.079681396480737-24.4486083984375,4.827789306647901-10.62139892578125,12.893165588378906-18.1539306640625,23.972023010259363-22.38836669921875,4.607742309568494-1.7611083984375,9.335510253909888-2.1168212890625,13.758193969728381-2.2388916015625,2.465881347650793-.06805419921875,4.869171142570849-.10260009765625,7.143096923820849-.10260009765625M216.239088667200122,176.011143461189931c-2.389114379879175,0-4.780014038078662.0369873046875-7.170715332029431.10296630859375-4.747711181640625.13104248046875-9.4990234375.5506591796875-14.087600708009631,2.304443359375-11.32763671875,4.3294677734375-19.530921936031518,11.92059326171875-24.525367736810949,22.90863037109375-3.598472595220301,7.916748046875-5.016395568849475,16.22412109375-4.1646041870099,24.95947265625.521316528320312,5.346435546875,1.850708007810681,10.36920166015625,4.477630615230737,15.0230712890625,4.361473083499732,7.726806640625,10.740997314449487,13.16815185546875,18.9593658447302,16.4921875,2.319473266599744.9381103515625,2.426956176759631,1.3934326171875.649078369140625,3.12091064453125-3.493072509771082,3.39410400390625-7.028106689460401,6.7596435546875-10.470077514652075,10.19073486328125-9.450416564939587,9.42071533203125-19.396682739259631,18.32623291015625-28.781761169429956,27.7967529296875-6.723686218268995,6.784912109375-10.781234741218213,15.01544189453125-10.299133300788526,24.94464111328125v6.03607177734375c-.15362548828125,6.62188720703125,1.397636413579676,12.71630859375,5.029739379890088,18.35833740234375,2.974235534667969,4.62005615234375,6.646316528320312,8.5880126953125,10.710342407219287,12.15496826171875,6.43556976319087,5.6484375,13.7030181884802,9.4873046875,22.444435119628906,9.4873046875.448150634771082,0,.901191711431238-.0101318359375,1.357170104980469-.03057861328125,1.125144958499732,0,2.250648498540613-.00006103515625,3.376625061040613-.00006103515625s2.252426147459119.00006103515625,3.379486083978918.00006103515625c3.746307373050513-.1448974609375,7.487594604501282-.2637939453125,11.052841186530713-1.652099609375,5.751174926750537-2.23944091796875,10.653305053710938-5.74212646484375,15.074935913080481-9.9844970703125,2.884750366209119-2.76776123046875,5.451538085939319-5.83831787109375,8.245742797849744-8.685546875,9.34521484375-9.52252197265625,19.090103149421338-18.63629150390625,28.741744995120825-27.844970703125.903274536129175-.86181640625,1.383209228519263-1.3304443359375,1.761856079097925-1.33038330078125.436889648441138.00006103515625.738906860351562.62408447265625,1.400375366210938,1.98809814453125,3.405151367191138,7.02203369140625,8.453079223640088,12.55035400390625,15.14472961426145,16.54986572265625,6.389572143558325,3.81903076171875,13.33406066894895,5.419677734375,20.675720214849207,5.419677734375.44534301756903,0,.893356323240369-.00592041015625,1.341567993158606-.017578125,14.059722900390625-.36553955078125,26.05879211426145-5.1884765625,34.955551147460938-16.4267578125,4.466857910159888-5.64251708984375,7.723114013670056-11.87579345703125,8.277587890630457-19.2864990234375.152496337888806-2.038330078125.112701416010168-4.11798095703125.592437744138806-6.133056640625v-13.43280029296875c-.536254882819776-2.9808349609375-.325469970710401-6.01458740234375-.643280029298694-9.01220703125-1.083099365239832-10.21563720703125-2.704559326170056-20.4029541015625-1.639862060550513-30.7353515625.089721679689319-.8707275390625.016235351560681-1.757080078125.08935546875-2.63482666015625.961791992189319-11.54083251953125.586029052739832-23.0322265625-2.649688720699487-34.1910400390625-4.055786132810681-13.98687744140625-12.746917724611194-24.1453857421875-26.356094360349744-29.78131103515625-7.546844482421875-3.1253662109375-15.480606079101562-4.462158203125-23.609207153320312-4.56597900390625-4.073989868171338-.05206298828125-8.152923583991651-.1478271484375-12.228469848640088-.14776611328125-3.199874877929688,0-6.397918701170056.05902099609375-9.588134765621362.24462890625-2.460159301757812.14312744140625-4.908111572269263.26629638671875-7.349487304689319.26629638671875-2.64697265625,0-5.286163330079944-.144775390625-7.923629760740369-.56597900390625-8.710098266597925-1.390869140625-17.472473144529431-1.88983154296875-26.251205444339575-1.88983154296875h0Z"/>
        <path class="cls-5" d="M215.418776167200122,206.144383207283681c6.575668334960938,0,13.255661010749463,1.05926513671875,19.000717163089575,2.0521240234375,5.113983154300513.88372802734375,10.48956298828125,1.29534912109375,16.917312622070312,1.29534912109375,4.036087036129175,0,8.003982543950769-.16802978515625,11.009902954101562-.3143310546875,3.233718872068494-.157470703125,6.681381225589575-.31121826171875,10.15339660644895-.31121826171875,4.914291381828662,0,8.987365722648974.30816650390625,12.818206787109375.96990966796875,10.220581054680224,1.76544189453125,14.563751220699487,6.50469970703125,15.490661621090112,16.9033203125.747955322269263,8.39080810546875.770416259769263,17.2764892578125.066741943359375,26.4100341796875-.737182617189319,9.56866455078125.677429199222388,19.03558349609375,2.045501708980737,28.19085693359375.161148071289062,1.07861328125.322357177741651,2.15740966796875.480255126960401,3.2366943359375.869674682609912,5.94488525390625,1.502197265619543,12.2994384765625.252395629879175,18.48895263671875-1.188980102539062,5.8883056640625-7.102142333978918,10.50079345703125-13.461853027340112,10.50079345703125-1.778366088869006,0-3.471923828128638-.3604736328125-5.033645629890088-1.07147216796875-3.461761474609375-1.57586669921875-4.482284545898438-4.69110107421875-4.949539184570312-8.8837890625-.599777221679688-5.3818359375-.293594360347925-10.883056640625.002502441411707-16.20306396484375.169296264650256-3.0418701171875.344375610349744-6.18731689453125.351272583009631-9.29620361328125.016128540039062-7.27154541015625-.326522827150256-15.7420654296875-4.623413085941138-24.25189208984375l-.654281616209119-1.2957763671875-.977600097659888,1.07305908203125c-.678207397459119.74444580078125-1.346939086908606,1.49835205078125-2.015686035150793,2.2523193359375-1.415496826179151,1.595947265625-2.879196166999463,3.2462158203125-4.404327392578125,4.76068115234375-9.1064453125,9.04266357421875-17.379470825200769,17.17999267578125-25.291793823242188,24.876953125-8.338317871099207,8.111328125-16.836853027349207,16.338134765625-25.055572509769263,24.2940673828125-5.7088775634802,5.5263671875-11.417785644529431,11.052734375-17.120361328128638,16.5855712890625-1.470062255852099,1.42633056640625-2.818084716789599,2.98468017578125-4.121719360351562,4.49169921875-1.76542663573855,2.0408935546875-3.590957641599744,4.1512451171875-5.692947387688037,5.88555908203125-2.562408447271082,2.11431884765625-4.751708984382276,3.09906005859375-6.88984680176145,3.09906005859375-2.087112426759631,0-4.209724426269531-.9337158203125-6.679962158199487-2.9383544921875-.696205139160156-.56494140625-1.428939819339575-1.17755126953125-2.070884704589844-1.82891845703125-5.559120178229932-5.64044189453125-5.597717285159888-10.6097412109375-.125175476081495-16.112548828125,1.767913818361194-1.77764892578125,3.729232788091394-3.45147705078125,5.6259765625-5.07025146484375,1.931106567390088-1.6480712890625,3.92793273926145-3.35223388671875,5.756484985351562-5.1920166015625,14.893676757819776-14.9854736328125,29.863250732429151-29.3507080078125,45.166320800788526-43.97198486328125,6.08341979980105-5.8123779296875,12.2906341552698-11.70037841796875,18.293487548820849-17.39453125,3.229049682620825-3.06298828125,6.458099365239832-6.12591552734375,9.684066772460938-9.19219970703125,1.2840728759802-1.220458984375,1.99139404296875-1.89276123046875,1.77752685546875-2.82769775390625-.215301513670056-.9410400390625-1.165893554680224-1.24578857421875-2.891571044920056-1.79888916015625-9.333816528318494-2.99169921875-18.852996826170056-3.3753662109375-26.103271484369543-3.3753662109375-1.3402252197302,0-2.753829956060144.01458740234375-4.321609497070312.04461669921875-1.684860229499463.03228759765625-3.394882202148438.0877685546875-5.048599243169519.14141845703125-2.568771362299231.0833740234375-5.225021362299231.16961669921875-7.828079223630994.16961669921875-3.74665832519895,0-6.832641601558862-.1778564453125-9.711761474609375-.559814453125-1.794418334960938-.23797607421875-3.31591796875-.71148681640625-4.651428222659888-1.44744873046875-2.199569702141162-1.21221923828125-3.27734375-2.90386962890625-3.391799926750537-5.3238525390625-.248764038089575-5.25970458984375.984054565429688-9.38140869140625,3.664215087890625-12.25067138671875,2.85723876953125-3.058837890625,7.324203491210938-4.6728515625,13.27677917480105-4.797119140625.427703857418237-.0089111328125.855880737308325-.01324462890625,1.28300476073855-.01324462890625M215.418776167200122,205.144383207283681c-.434097290039062,0-.869232177730737.00439453125-1.303878784179688.01348876953125-12.20158386230105.25469970703125-18.459793090820312,6.66070556640625-17.919006347648974,18.09478759765625.13397216796875,2.83258056640625,1.488265991209119,4.81884765625,3.908020019529431,6.15240478515625,1.557922363279431.85858154296875,3.252532958978918,1.33087158203125,5.002624511720569,1.56298828125,3.278213500969287.43487548828125,6.559555053709119.5684814453125,9.843231201168237.5684814453125,4.296951293941675,0,8.59747314453125-.22894287109375,12.895828247070312-.31121826171875,1.4354400634802-.0274658203125,2.86982727051145-.04443359375,4.302459716800513-.04443359375,8.719787597648974,0,17.374221801750537.62762451171875,25.798049926750537,3.32763671875,2.840042114259631.91033935546875,2.838623046878638.94561767578125.730331420898438,2.94952392578125-9.325561523430224,8.86383056640625-18.677001953117724,17.70050048828125-27.979446411129175,26.5885009765625-15.198944091800513,14.52178955078125-30.363815307620825,29.0777587890625-45.184783935550513,43.99005126953125-3.595718383789062,3.61785888671875-7.785278320308862,6.64532470703125-11.382217407219287,10.2620849609375-5.928359985349744,5.96112060546875-5.774635314939587,11.5367431640625.122001647949219,17.5196533203125.670959472650793.6807861328125,1.409561157221106,1.3001708984375,2.152961730949755,1.9034423828125,2.601409912111194,2.111083984375,4.95654296875,3.161865234375,7.310104370120825,3.161865234375,2.421737670900256,0,4.841796875-1.11273193359375,7.52629089355105-3.32769775390625,3.726303100589575-3.0745849609375,6.436843872079407-7.09552001953125,9.874557495119006-10.430908203125,14.052124023439319-13.6339111328125,28.142623901369006-27.22833251953125,42.176879882810681-40.88055419921875,8.478683471679688-8.2479248046875,16.905670166019263-16.54949951171875,25.299133300788526-24.8841552734375,2.258148193361194-2.24237060546875,4.308731079101562-4.6937255859375,6.454605102531787-7.04913330078125,4.039688110358838,8.00042724609375,4.533645629890088,15.8782958984375,4.516082763679151,23.7989501953125-.018951416019263,8.53741455078125-1.300750732429151,17.059814453125-.347610473640088,25.61224365234375.448028564460401,4.02020263671875,1.432250976569776,7.81817626953125,5.529052734380457,9.68316650390625,1.743423461908606.793701171875,3.597412109369543,1.16131591796875,5.447952270509631,1.16131591796875,6.571502685539599,0,13.09619140625-4.637451171875,14.442092895500537-11.3028564453125,1.267074584968213-6.275146484375.672973632819776-12.5692138671875-.2431640625-18.8316650390625-1.513732910150793-10.34771728515625-3.331573486320849-20.64776611328125-2.5181732177698-31.2059326171875.681549072269263-8.846435546875.722320556638806-17.7127685546875-.067718505861194-26.57568359375-.965911865228918-10.8360595703125-5.556228637689856-15.9412841796875-16.3165130615198-17.7999267578125-4.314483642579944-.7452392578125-8.648147583009631-.9844970703125-12.988418579099744-.9844970703125-3.399291992191138,0-6.80303955078125.1468505859375-10.2020416259802.3123779296875-3.660766601558862.17828369140625-7.312927246090112.31317138671875-10.961257934570312.31317138671875-5.590316772459119,0-11.170181274410425-.3170166015625-16.747009277340112-1.28076171875-6.333282470710401-1.094482421875-12.720275878909888-2.06671142578125-19.171020507819776-2.06671142578125h0Z"/>
      </g>
      <path class="cls-4" d="M279.731001509000635,279.730992094002431c-69.716348767378804.440577951147134-210.016401672539359,1.330698934176326-279.731265606798843,1.531175585940218.000365795989637.000257519553998-1.526859698362387.007093457006704-1.526859698362387.007093457006704l-.004287719739295-1.538330078103172c-.064482580379263-34.904889664445363-.304360219179216-104.981273361630883-.285200212420023-139.865683708812867C-1.81677375955951,139.865513578373793-1.997685777379957.000096097905043-1.997685777379957.000096097905043l-.002586364738818-2.00030517578125c47.593461552089138.061588990722157,165.706460777128086.208737488239422,211.798461936909007.271000175613153,17.377564136240835.057227081453675,52.544893820810103.067277353244208,69.932688836201123.190932785619225.000031325149394-.00014096895211,1.545471999199435.005901511358388,1.545471999199435.005901511358388l-.0069122315399,1.532470703190484c-.324877765749989,69.719190645653725-.970720794701265,210.04253395878186-1.538436889650256,279.730895996097388h0ZM279.731001509000635,279.730992094002431c-.578864574868931-69.742892426609615-1.234180971319802-210.023048388055031-1.538471455800391-279.731249247308369.000049824941016.000353251210981,1.538379903069654,1.538683329335981,1.538379903069654,1.538683329335981-38.949254562849092.064972187628882-100.445701974080293.316593994770301-139.865435554460419.281565584895361C139.865500105190222,1.820286527583448.000101698209619,1.997654691662319.000101698209619,1.997654691662319L1.997683180139575.000096097905043c.10023505206118,79.280994930933957-.35477218350934,201.347947800109978-.465795694188273,279.730682550882193-.000474752501759.000152409946168-1.531789602500794-1.53115862501727-1.531789602500794-1.53115862501727,69.70846601959056.186233415071911,210.02444778195968,1.073926737230067,279.730903625550127,1.531372070232464h0Z"/>
    </g>
  </g>
</svg>