<?xml version="1.0" encoding="UTF-8"?>
<svg xmlns="http://www.w3.org/2000/svg" xmlns:xlink="http://www.w3.org/1999/xlink" viewBox="0 0 280 280">
  <defs>
    <style>
      .cls-1 {
        stroke: #665451;
        stroke-width: 50px;
      }

      .cls-1, .cls-2 {
        fill: none;
        stroke-linecap: round;
        stroke-linejoin: round;
      }

      .cls-3 {
        fill: #fff;
      }

      .cls-4 {
        fill: #e11f26;
      }

      .cls-5 {
        fill: #ec1940;
      }

      .cls-2 {
        stroke: #998675;
        stroke-width: 2px;
      }
    </style>
  </defs>
  <g id="Content">
    <a xlink:href="https://www.notion.so/congruence/Sample-proportion-ac26b7ca2dc44ca9a64cbc4aedbdf615?pvs=4">
      <g>
        <path class="cls-1" d="M104.595703125,54.9794921875c.17578125.16015625.22998046875.4091796875.164306640625.748046875-.067138671875.341796875-.25732421875.7509765625-.568115234375,1.2275390625-.3125.48046875-.87158203125,1.0771484375-1.674560546875,1.7900390625-.889892578125.7197265625-1.897216796875,1.5693359375-3.02392578125,2.552734375-1.12890625.9853515625-2.2373046875,1.90234375-3.3291015625,2.755859375-1.091796875.857421875-2.0673828125,1.517578125-2.927001953125,1.9814453125-.859619140625.46484375-1.423828125.5361328125-1.692626953125.212890625-4.020751953125-4.58984375-7.746337890625-9.1494140625-11.1748046875-13.6875-1.389892578125,2.427734375-2.78076171875,4.833984375-4.1728515625,7.21875s-2.86767578125,4.794921875-4.424560546875,7.2294921875c-.40380859375.357421875-.898681640625.5498046875-1.48486328125.580078125-.503173828125.025390625-1.181396484375-.04296875-2.029541015625-.2109375-.8505859375-.166015625-1.925537109375-.63671875-3.22705078125-1.412109375-1.301513671875-.7734375-2.6259765625-1.5693359375-3.970947265625-2.3837890625-1.346923828125-.8134765625-2.544189453125-1.6357421875-3.596435546875-2.46484375-1.052001953125-.830078125-1.873779296875-1.671875-2.463623046875-2.5234375-.59228515625-.853515625-.779296875-1.6640625-.56640625-2.4326171875.145751953125-.427734375.510498046875-1.119140625,1.092529296875-2.07421875s1.342041015625-2.130859375,2.27978515625-3.5244140625c.853759765625-1.388671875,1.871826171875-2.8720703125,3.05322265625-4.4462890625,1.18115234375-1.5751953125,2.314697265625-3.23046875,3.405029296875-4.970703125,1.088134765625-1.736328125,2.137939453125-3.4091796875,3.14990234375-5.0185546875,1.009765625-1.607421875,1.94677734375-3.0224609375,2.810791015625-4.2451171875.849365234375-1.4736328125,1.70263671875-2.86328125,2.5625-4.169921875,2.4326171875-.1240234375,4.702392578125-.1552734375,6.80908203125-.0966796875,1.77099609375.0791015625,3.43505859375.1611328125,4.99755859375.2490234375,1.559814453125.08984375,2.5146484375.25,2.86376953125.484375.611572265625.4736328125,1.75,2.140625,3.41064453125,4.9990234375.828125,1.388671875,1.723876953125,2.857421875,2.686279296875,4.4052734375.962646484375,1.5498046875,1.947509765625,3.138671875,2.957763671875,4.76953125,1.00830078125,1.6318359375,1.99365234375,3.2001953125,2.953857421875,4.70703125.960693359375,1.5078125,1.805419921875,2.83203125,2.5380859375,3.9697265625.910888671875,1.384765625,1.77587890625,2.6455078125,2.59130859375,3.7802734375Z"/>
        <path class="cls-2" d="M104.595703125,54.9794921875c.17578125.16015625.22998046875.4091796875.164306640625.748046875-.067138671875.341796875-.25732421875.7509765625-.568115234375,1.2275390625-.3125.48046875-.87158203125,1.0771484375-1.674560546875,1.7900390625-.889892578125.7197265625-1.897216796875,1.5693359375-3.02392578125,2.552734375-1.12890625.9853515625-2.2373046875,1.90234375-3.3291015625,2.755859375-1.091796875.857421875-2.0673828125,1.517578125-2.927001953125,1.9814453125-.859619140625.46484375-1.423828125.5361328125-1.692626953125.212890625-4.020751953125-4.58984375-7.746337890625-9.1494140625-11.1748046875-13.6875-1.389892578125,2.427734375-2.78076171875,4.833984375-4.1728515625,7.21875s-2.86767578125,4.794921875-4.424560546875,7.2294921875c-.40380859375.357421875-.898681640625.5498046875-1.48486328125.580078125-.503173828125.025390625-1.181396484375-.04296875-2.029541015625-.2109375-.8505859375-.166015625-1.925537109375-.63671875-3.22705078125-1.412109375-1.301513671875-.7734375-2.6259765625-1.5693359375-3.970947265625-2.3837890625-1.346923828125-.8134765625-2.544189453125-1.6357421875-3.596435546875-2.46484375-1.052001953125-.830078125-1.873779296875-1.671875-2.463623046875-2.5234375-.59228515625-.853515625-.779296875-1.6640625-.56640625-2.4326171875.145751953125-.427734375.510498046875-1.119140625,1.092529296875-2.07421875s1.342041015625-2.130859375,2.27978515625-3.5244140625c.853759765625-1.388671875,1.871826171875-2.8720703125,3.05322265625-4.4462890625,1.18115234375-1.5751953125,2.314697265625-3.23046875,3.405029296875-4.970703125,1.088134765625-1.736328125,2.137939453125-3.4091796875,3.14990234375-5.0185546875,1.009765625-1.607421875,1.94677734375-3.0224609375,2.810791015625-4.2451171875.849365234375-1.4736328125,1.70263671875-2.86328125,2.5625-4.169921875,2.4326171875-.1240234375,4.702392578125-.1552734375,6.80908203125-.0966796875,1.77099609375.0791015625,3.43505859375.1611328125,4.99755859375.2490234375,1.559814453125.08984375,2.5146484375.25,2.86376953125.484375.611572265625.4736328125,1.75,2.140625,3.41064453125,4.9990234375.828125,1.388671875,1.723876953125,2.857421875,2.686279296875,4.4052734375.962646484375,1.5498046875,1.947509765625,3.138671875,2.957763671875,4.76953125,1.00830078125,1.6318359375,1.99365234375,3.2001953125,2.953857421875,4.70703125.960693359375,1.5078125,1.805419921875,2.83203125,2.5380859375,3.9697265625.910888671875,1.384765625,1.77587890625,2.6455078125,2.59130859375,3.7802734375Z"/>
        <path class="cls-3" d="M104.595703125,54.9794921875c.17578125.16015625.22998046875.4091796875.164306640625.748046875-.067138671875.341796875-.25732421875.7509765625-.568115234375,1.2275390625-.3125.48046875-.87158203125,1.0771484375-1.674560546875,1.7900390625-.889892578125.7197265625-1.897216796875,1.5693359375-3.02392578125,2.552734375-1.12890625.9853515625-2.2373046875,1.90234375-3.3291015625,2.755859375-1.091796875.857421875-2.0673828125,1.517578125-2.927001953125,1.9814453125-.859619140625.46484375-1.423828125.5361328125-1.692626953125.212890625-4.020751953125-4.58984375-7.746337890625-9.1494140625-11.1748046875-13.6875-1.389892578125,2.427734375-2.78076171875,4.833984375-4.1728515625,7.21875s-2.86767578125,4.794921875-4.424560546875,7.2294921875c-.40380859375.357421875-.898681640625.5498046875-1.48486328125.580078125-.503173828125.025390625-1.181396484375-.04296875-2.029541015625-.2109375-.8505859375-.166015625-1.925537109375-.63671875-3.22705078125-1.412109375-1.301513671875-.7734375-2.6259765625-1.5693359375-3.970947265625-2.3837890625-1.346923828125-.8134765625-2.544189453125-1.6357421875-3.596435546875-2.46484375-1.052001953125-.830078125-1.873779296875-1.671875-2.463623046875-2.5234375-.59228515625-.853515625-.779296875-1.6640625-.56640625-2.4326171875.145751953125-.427734375.510498046875-1.119140625,1.092529296875-2.07421875s1.342041015625-2.130859375,2.27978515625-3.5244140625c.853759765625-1.388671875,1.871826171875-2.8720703125,3.05322265625-4.4462890625,1.18115234375-1.5751953125,2.314697265625-3.23046875,3.405029296875-4.970703125,1.088134765625-1.736328125,2.137939453125-3.4091796875,3.14990234375-5.0185546875,1.009765625-1.607421875,1.94677734375-3.0224609375,2.810791015625-4.2451171875.849365234375-1.4736328125,1.70263671875-2.86328125,2.5625-4.169921875,2.4326171875-.1240234375,4.702392578125-.1552734375,6.80908203125-.0966796875,1.77099609375.0791015625,3.43505859375.1611328125,4.99755859375.2490234375,1.559814453125.08984375,2.5146484375.25,2.86376953125.484375.611572265625.4736328125,1.75,2.140625,3.41064453125,4.9990234375.828125,1.388671875,1.723876953125,2.857421875,2.686279296875,4.4052734375.962646484375,1.5498046875,1.947509765625,3.138671875,2.957763671875,4.76953125,1.00830078125,1.6318359375,1.99365234375,3.2001953125,2.953857421875,4.70703125.960693359375,1.5078125,1.805419921875,2.83203125,2.5380859375,3.9697265625.910888671875,1.384765625,1.77587890625,2.6455078125,2.59130859375,3.7802734375Z"/>
      </g>
    </a>
    <a xlink:href="https://www.notion.so/congruence/Sample-proportion-ac26b7ca2dc44ca9a64cbc4aedbdf615?pvs=4">
      <g>
        <path class="cls-1" d="M91.8095703125,105.837890625c6.6650390625,2.8515625,12.21923828125,6.6591796875,16.655517578125,11.4228515625,4.4365234375,4.7646484375,7.7001953125,10.0205078125,9.791259765625,15.7685546875,2.09130859375,5.751953125,3.061767578125,11.7216796875,2.91455078125,17.9169921875-.150390625,6.197265625-1.37060546875,12.2177734375-3.66650390625,18.0556640625-2.2958984375,5.841796875-5.744873046875,11.2744140625-10.34423828125,16.30078125-4.60205078125,5.02734375-10.2099609375,9.1767578125-16.830322265625,12.44140625-6.8876953125,3.28125-14.60595703125,5.873046875-23.158203125,7.7744140625-.093017578125.8037109375-.135009765625,2.6015625-.122802734375,5.3955078125-.01123046875,2.3955078125.10888671875,6.015625.357177734375,10.8623046875.248046875,4.84375.58984375,11.5146484375,1.025146484375,20.009765625-.04541015625,1.7314453125-.362060546875,3.3447265625-.949951171875,4.8408203125-.6044921875,1.228515625-1.54248046875,2.40625-2.813232421875,3.537109375-1.274169921875,1.12890625-3.031982421875,1.8837890625-5.27392578125,2.2666015625-2.375732421875.38671875-4.856201171875.6787109375-7.44091796875.880859375-2.5849609375.1982421875-4.988037109375.0546875-7.208740234375-.4296875-2.220947265625-.484375-4.103271484375-1.486328125-5.64404296875-3.005859375-1.543701171875-1.5166015625-2.462646484375-3.865234375-2.75634765625-7.0439453125-.32421875-3.7109375-.65673828125-8.9189453125-1-15.6201171875-.343505859375-6.705078125-.696533203125-14.2060546875-1.052978515625-22.5048828125-.360107421875-8.296875-.779541015625-17.1591796875-1.2626953125-26.5849609375-.48291015625-9.423828125-.98828125-18.615234375-1.51220703125-27.572265625-.52783203125-8.9560546875-1.062744140625-17.4443359375-1.604736328125-25.470703125-.545166015625-8.0224609375-1.096435546875-14.8818359375-1.6533203125-20.5771484375-.108642578125-2.12109375.52880859375-3.919921875,1.920166015625-5.388671875,1.3876953125-1.4677734375,3.394775390625-2.53515625,6.024169921875-3.203125,1.84375-.359375,3.95166015625-.8017578125,6.320556640625-1.322265625,2.368896484375-.51953125,4.6796875-.837890625,6.938232421875-.9541015625,2.255615234375-.115234375,4.1982421875.119140625,5.8251953125.69921875,1.626708984375.5849609375,2.615234375,1.7314453125,2.97119140625,3.44140625.164794921875.6591796875.26220703125,1.21875.285888671875,1.68359375.02392578125.4658203125.11083984375.890625.265380859375,1.283203125,5.022705078125-.6572265625,10.35009765625-.595703125,15.979736328125.1787109375,5.62939453125.7783203125,11.302734375,2.416015625,17.02099609375,4.91796875ZM64.90625,176.88671875c5.149658203125-.79296875,9.55126953125-2.55078125,13.205322265625-5.267578125,3.65380859375-2.7138671875,6.417236328125-5.8837890625,8.296630859375-9.5078125,1.876220703125-3.62109375,2.84619140625-7.3984375,2.9130859375-11.328125.0634765625-3.927734375-.885498046875-7.541015625-2.85107421875-10.8349609375-1.96533203125-3.29296875-4.964111328125-5.93359375-8.990234375-7.9228515625-4.02880859375-1.9892578125-9.16552734375-2.890625-15.41015625-2.705078125.380859375,7.435546875.79443359375,14.9013671875,1.2470703125,22.39453125.44970703125,7.498046875.959228515625,15.490234375,1.528076171875,23.9775390625l.030517578125.5966796875.03076171875.59765625Z"/>
        <path class="cls-2" d="M91.8095703125,105.837890625c6.6650390625,2.8515625,12.21923828125,6.6591796875,16.655517578125,11.4228515625,4.4365234375,4.7646484375,7.7001953125,10.0205078125,9.791259765625,15.7685546875,2.09130859375,5.751953125,3.061767578125,11.7216796875,2.91455078125,17.9169921875-.150390625,6.197265625-1.37060546875,12.2177734375-3.66650390625,18.0556640625-2.2958984375,5.841796875-5.744873046875,11.2744140625-10.34423828125,16.30078125-4.60205078125,5.02734375-10.2099609375,9.1767578125-16.830322265625,12.44140625-6.8876953125,3.28125-14.60595703125,5.873046875-23.158203125,7.7744140625-.093017578125.8037109375-.135009765625,2.6015625-.122802734375,5.3955078125-.01123046875,2.3955078125.10888671875,6.015625.357177734375,10.8623046875.248046875,4.84375.58984375,11.5146484375,1.025146484375,20.009765625-.04541015625,1.7314453125-.362060546875,3.3447265625-.949951171875,4.8408203125-.6044921875,1.228515625-1.54248046875,2.40625-2.813232421875,3.537109375-1.274169921875,1.12890625-3.031982421875,1.8837890625-5.27392578125,2.2666015625-2.375732421875.38671875-4.856201171875.6787109375-7.44091796875.880859375-2.5849609375.1982421875-4.988037109375.0546875-7.208740234375-.4296875-2.220947265625-.484375-4.103271484375-1.486328125-5.64404296875-3.005859375-1.543701171875-1.5166015625-2.462646484375-3.865234375-2.75634765625-7.0439453125-.32421875-3.7109375-.65673828125-8.9189453125-1-15.6201171875-.343505859375-6.705078125-.696533203125-14.2060546875-1.052978515625-22.5048828125-.360107421875-8.296875-.779541015625-17.1591796875-1.2626953125-26.5849609375-.48291015625-9.423828125-.98828125-18.615234375-1.51220703125-27.572265625-.52783203125-8.9560546875-1.062744140625-17.4443359375-1.604736328125-25.470703125-.545166015625-8.0224609375-1.096435546875-14.8818359375-1.6533203125-20.5771484375-.108642578125-2.12109375.52880859375-3.919921875,1.920166015625-5.388671875,1.3876953125-1.4677734375,3.394775390625-2.53515625,6.024169921875-3.203125,1.84375-.359375,3.95166015625-.8017578125,6.320556640625-1.322265625,2.368896484375-.51953125,4.6796875-.837890625,6.938232421875-.9541015625,2.255615234375-.115234375,4.1982421875.119140625,5.8251953125.69921875,1.626708984375.5849609375,2.615234375,1.7314453125,2.97119140625,3.44140625.164794921875.6591796875.26220703125,1.21875.285888671875,1.68359375.02392578125.4658203125.11083984375.890625.265380859375,1.283203125,5.022705078125-.6572265625,10.35009765625-.595703125,15.979736328125.1787109375,5.62939453125.7783203125,11.302734375,2.416015625,17.02099609375,4.91796875ZM64.90625,176.88671875c5.149658203125-.79296875,9.55126953125-2.55078125,13.205322265625-5.267578125,3.65380859375-2.7138671875,6.417236328125-5.8837890625,8.296630859375-9.5078125,1.876220703125-3.62109375,2.84619140625-7.3984375,2.9130859375-11.328125.0634765625-3.927734375-.885498046875-7.541015625-2.85107421875-10.8349609375-1.96533203125-3.29296875-4.964111328125-5.93359375-8.990234375-7.9228515625-4.02880859375-1.9892578125-9.16552734375-2.890625-15.41015625-2.705078125.380859375,7.435546875.79443359375,14.9013671875,1.2470703125,22.39453125.44970703125,7.498046875.959228515625,15.490234375,1.528076171875,23.9775390625l.030517578125.5966796875.03076171875.59765625Z"/>
        <path class="cls-3" d="M91.8095703125,105.837890625c6.6650390625,2.8515625,12.21923828125,6.6591796875,16.655517578125,11.4228515625,4.4365234375,4.7646484375,7.7001953125,10.0205078125,9.791259765625,15.7685546875,2.09130859375,5.751953125,3.061767578125,11.7216796875,2.91455078125,17.9169921875-.150390625,6.197265625-1.37060546875,12.2177734375-3.66650390625,18.0556640625-2.2958984375,5.841796875-5.744873046875,11.2744140625-10.34423828125,16.30078125-4.60205078125,5.02734375-10.2099609375,9.1767578125-16.830322265625,12.44140625-6.8876953125,3.28125-14.60595703125,5.873046875-23.158203125,7.7744140625-.093017578125.8037109375-.135009765625,2.6015625-.122802734375,5.3955078125-.01123046875,2.3955078125.10888671875,6.015625.357177734375,10.8623046875.248046875,4.84375.58984375,11.5146484375,1.025146484375,20.009765625-.04541015625,1.7314453125-.362060546875,3.3447265625-.949951171875,4.8408203125-.6044921875,1.228515625-1.54248046875,2.40625-2.813232421875,3.537109375-1.274169921875,1.12890625-3.031982421875,1.8837890625-5.27392578125,2.2666015625-2.375732421875.38671875-4.856201171875.6787109375-7.44091796875.880859375-2.5849609375.1982421875-4.988037109375.0546875-7.208740234375-.4296875-2.220947265625-.484375-4.103271484375-1.486328125-5.64404296875-3.005859375-1.543701171875-1.5166015625-2.462646484375-3.865234375-2.75634765625-7.0439453125-.32421875-3.7109375-.65673828125-8.9189453125-1-15.6201171875-.343505859375-6.705078125-.696533203125-14.2060546875-1.052978515625-22.5048828125-.360107421875-8.296875-.779541015625-17.1591796875-1.2626953125-26.5849609375-.48291015625-9.423828125-.98828125-18.615234375-1.51220703125-27.572265625-.52783203125-8.9560546875-1.062744140625-17.4443359375-1.604736328125-25.470703125-.545166015625-8.0224609375-1.096435546875-14.8818359375-1.6533203125-20.5771484375-.108642578125-2.12109375.52880859375-3.919921875,1.920166015625-5.388671875,1.3876953125-1.4677734375,3.394775390625-2.53515625,6.024169921875-3.203125,1.84375-.359375,3.95166015625-.8017578125,6.320556640625-1.322265625,2.368896484375-.51953125,4.6796875-.837890625,6.938232421875-.9541015625,2.255615234375-.115234375,4.1982421875.119140625,5.8251953125.69921875,1.626708984375.5849609375,2.615234375,1.7314453125,2.97119140625,3.44140625.164794921875.6591796875.26220703125,1.21875.285888671875,1.68359375.02392578125.4658203125.11083984375.890625.265380859375,1.283203125,5.022705078125-.6572265625,10.35009765625-.595703125,15.979736328125.1787109375,5.62939453125.7783203125,11.302734375,2.416015625,17.02099609375,4.91796875ZM64.90625,176.88671875c5.149658203125-.79296875,9.55126953125-2.55078125,13.205322265625-5.267578125,3.65380859375-2.7138671875,6.417236328125-5.8837890625,8.296630859375-9.5078125,1.876220703125-3.62109375,2.84619140625-7.3984375,2.9130859375-11.328125.0634765625-3.927734375-.885498046875-7.541015625-2.85107421875-10.8349609375-1.96533203125-3.29296875-4.964111328125-5.93359375-8.990234375-7.9228515625-4.02880859375-1.9892578125-9.16552734375-2.890625-15.41015625-2.705078125.380859375,7.435546875.79443359375,14.9013671875,1.2470703125,22.39453125.44970703125,7.498046875.959228515625,15.490234375,1.528076171875,23.9775390625l.030517578125.5966796875.03076171875.59765625Z"/>
      </g>
    </a>
  </g>
  <g id="Arrows">
    <g>
      <g>
        <path class="cls-5" d="M216.238935754653539,177.011132422912851c9.6474609375,0,18.18310546875.61407470703125,26.09375,1.877349853515625,2.4375.389251708984375,5.0810546875.5784912109375,8.0810546875.5784912109375,2.58544921875,0,5.17919921875-.1383056640625,7.40771484375-.267974853515625,2.84912109375-.165771484375,5.87744140625-.24298095703125,9.5302734375-.243011474609375,2.79052734375,0,5.63330078125.04583740234375,8.38232421875.090179443359375,1.27783203125.0206298828125,2.5556640625.041229248046875,3.8330078125.057525634765625,8.607421875.10992431640625,16.20947265625,1.57861328125,23.2392578125,4.489990234375,13.06884765625,5.411956787109375,21.74169921875,15.214691162109375,25.7783203125,29.13592529296875,2.87939453125,9.929351806640625,3.7099609375,20.678924560546875,2.61376953125,33.829376220703125-.0380859375.454803466796875-.03955078125.89886474609375-.04150390625,1.32830810546875-.001953125.45123291015625-.00390625.87744140625-.0458984375,1.28717041015625-.89794921875,8.716339111328125.1015625,17.420806884765625,1.068359375,25.838653564453125.19580078125,1.7012939453125.39111328125,3.402557373046875.5712890625,5.104644775390625.1279296875,1.205963134765625.1689453125,2.4566650390625.208984375,3.666168212890625.05712890625,1.741241455078125.1162109375,3.5406494140625.42919921875,5.328643798828125v13.229583740234375c-.34814453125,1.52117919921875-.4228515625,3.0531005859375-.49560546875,4.5357666015625-.02685546875.54754638671875-.05322265625,1.09423828125-.09375,1.6378173828125-.482421875,6.444580078125-3.044921875,12.39947509765625-8.06494140625,18.740478515625-8.244140625,10.41455078125-19.43017578125,15.663818359375-34.197265625,16.04779052734375-.439453125.01141357421875-.87890625.0172119140625-1.3154296875.0172119140625-7.62548828125,0-14.220703125-1.7264404296875-20.16259765625-5.27801513671875-6.48193359375-3.8740234375-11.447265625-9.3001708984375-14.7607421875-16.13214111328125-.7958984375-1.64251708984375-1.23486328125-2.54730224609375-2.29736328125-2.54754638671875-.76904296875-.00006103515625-1.34033203125.54510498046875-2.376953125,1.534912109375l-.07568359375.072021484375c-1.8251953125,1.74139404296875-3.6533203125,3.47930908203125-5.48193359375,5.21734619140625-7.71533203125,7.3336181640625-15.693359375,14.91693115234375-23.283203125,22.65069580078125-1.1875,1.20989990234375-2.34765625,2.4744873046875-3.4697265625,3.69744873046875-1.52685546875,1.66448974609375-3.1064453125,3.38568115234375-4.75439453125,4.9669189453125-4.7607421875,4.5672607421875-9.583984375,7.76446533203125-14.74560546875,9.7742919921875-3.337890625,1.29974365234375-6.8193359375,1.4339599609375-10.50537109375,1.57598876953125l-.1845703125.00787353515625-6.80126953125.0009765625c-.44091796875.01983642578125-.87890625.0296630859375-1.3125.0296630859375-7.5751953125,0-14.70068359375-3.0220947265625-21.7841796875-9.23895263671875-4.3935546875-3.8560791015625-7.83740234375-7.76318359375-10.529296875-11.9447021484375-3.43212890625-5.33062744140625-5.025390625-11.1510009765625-4.87060546875-17.8170166015625l-.0009765625-6.08453369140625c-.4326171875-8.91302490234375,2.93505859375-17.05242919921875,10.0107421875-24.19219970703125,4.93408203125-4.979583740234375,10.11572265625-9.889373779296875,15.126953125-14.63751220703125,4.5087890625-4.27215576171875,9.1708984375-8.68975830078125,13.650390625-13.15496826171875,2.37744140625-2.370147705078125,4.84326171875-4.7508544921875,7.2275390625-7.053131103515625,1.0791015625-1.042022705078125,2.158203125-2.083953857421875,3.2333984375-3.128631591796875.90234375-.876678466796875,1.69580078125-1.747161865234375,1.498046875-2.7567138671875-.1982421875-1.013916015625-1.23583984375-1.509429931640625-2.46923828125-2.0084228515625-8.08251953125-3.26910400390625-14.29443359375-8.67138671875-18.46337890625-16.056732177734375-2.380859375-4.217071533203125-3.8046875-9.002105712890625-4.353515625-14.62847900390625-.82373046875-8.45367431640625.548828125-16.679412841796875,4.07958984375-24.44866943359375,4.828125-10.6214599609375,12.8935546875-18.15399169921875,23.97216796875-22.388336181640625,4.60791015625-1.7611083984375,9.3359375-2.116851806640625,13.7587890625-2.238922119140625,2.4658203125-.068084716796875,4.869140625-.10260009765625,7.142578125-.10260009765625M216.238935754653539,176.011132422912851c-2.38916015625,0-4.77978515625.036956787109375-7.17041015625.10296630859375-4.748046875.131072998046875-9.4990234375.5506591796875-14.087890625,2.304443359375-11.32763671875,4.329498291015625-19.53076171875,11.920623779296875-24.525390625,22.90863037109375-3.59814453125,7.916778564453125-5.01611328125,16.22412109375-4.16455078125,24.959503173828125.521484375,5.34637451171875,1.8505859375,10.369171142578125,4.4775390625,15.023040771484375,4.36181640625,7.726806640625,10.7412109375,13.168182373046875,18.95947265625,16.4921875,2.3193359375.938140869140625,2.42724609375,1.393463134765625.6494140625,3.12091064453125-3.4931640625,3.39410400390625-7.0283203125,6.7596435546875-10.47021484375,10.19073486328125-9.45068359375,9.42071533203125-19.39697265625,18.32623291015625-28.78173828125,27.796783447265625-6.7236328125,6.784912109375-10.78125,15.015380859375-10.29931640625,24.944580078125v6.03607177734375c-.15380859375,6.6219482421875,1.3974609375,12.71636962890625,5.02978515625,18.35833740234375,2.97412109375,4.6201171875,6.646484375,8.5880126953125,10.71044921875,12.15496826171875,6.435546875,5.6484375,13.70263671875,9.4873046875,22.44384765625,9.4873046875.4482421875,0,.9013671875-.01007080078125,1.357421875-.03057861328125h6.75634765625c3.74609375-.1448974609375,7.48779296875-.2637939453125,11.052734375-1.65203857421875,5.75146484375-2.23944091796875,10.6533203125-5.7421875,15.0751953125-9.9844970703125,2.884765625-2.767822265625,5.451171875-5.83831787109375,8.24560546875-8.685546875,9.34521484375-9.52252197265625,19.09033203125-18.63629150390625,28.74169921875-27.844970703125.9033203125-.86181640625,1.38330078125-1.3304443359375,1.76171875-1.33038330078125.43701171875.00006103515625.7392578125.62408447265625,1.400390625,1.98809814453125,3.4052734375,7.02197265625,8.453125,12.55035400390625,15.14501953125,16.54986572265625,6.38916015625,3.81903076171875,13.333984375,5.419677734375,20.67578125,5.419677734375.4453125,0,.89306640625-.00592041015625,1.34130859375-.017578125,14.0595703125-.36553955078125,26.05908203125-5.1884765625,34.95556640625-16.4267578125,4.466796875-5.64251708984375,7.72314453125-11.87579345703125,8.27783203125-19.2864990234375.15234375-2.038330078125.1123046875-4.11798095703125.59228515625-6.133056640625v-13.43280029296875c-.5361328125-2.980865478515625-.32568359375-6.01458740234375-.6435546875-9.01220703125-1.0830078125-10.21563720703125-2.7041015625-20.4029541015625-1.6396484375-30.735382080078125.08984375-.8707275390625.01611328125-1.757049560546875.08935546875-2.634796142578125.9619140625-11.54083251953125.5859375-23.032257080078125-2.64990234375-34.1910400390625-4.0556640625-13.98687744140625-12.74658203125-24.1453857421875-26.35595703125-29.781341552734375-7.546875-3.1253662109375-15.48046875-4.462158203125-23.609375-4.56597900390625-4.07373046875-.052032470703125-8.15234375-.147796630859375-12.22802734375-.147796630859375-3.19970703125.000030517578125-6.39794921875.05908203125-9.58837890625.24468994140625-2.4599609375.14312744140625-4.908203125.26629638671875-7.349609375.26629638671875-2.64697265625,0-5.2861328125-.144805908203125-7.92333984375-.56597900390625-8.7099609375-1.390899658203125-17.47265625-1.889862060546875-26.25146484375-1.889862060546875h0Z"/>
        <path class="cls-5" d="M215.419111535903539,206.144402686584726c6.5751953125,0,13.25537109375,1.059234619140625,19.00048828125,2.05206298828125,5.1142578125.8837890625,10.48974609375,1.29541015625,16.91748046875,1.29541015625,4.0361328125,0,8.00390625-.167999267578125,11.009765625-.314361572265625,3.2333984375-.157470703125,6.68115234375-.311187744140625,10.1533203125-.311187744140625,4.91455078125,0,8.9873046875.308197021484375,12.81787109375.969879150390625,10.220703125,1.76544189453125,14.56396484375,6.504669189453125,15.49072265625,16.903289794921875.748046875,8.39190673828125.7705078125,17.27752685546875.06689453125,26.410064697265625-.7373046875,9.568389892578125.67724609375,19.035064697265625,2.04541015625,28.1900634765625.1611328125,1.078887939453125.322265625,2.157928466796875.48046875,3.237548828125.86962890625,5.943939208984375,1.50244140625,12.297760009765625.25244140625,18.488922119140625-1.18896484375,5.8883056640625-7.10205078125,10.50079345703125-13.4619140625,10.50079345703125-1.77880859375,0-3.47216796875-.3604736328125-5.03369140625-1.0714111328125-3.46142578125-1.5758056640625-4.48193359375-4.69110107421875-4.94970703125-8.88385009765625-.599609375-5.38201904296875-.29345703125-10.883453369140625.0029296875-16.203704833984375.1689453125-3.041656494140625.34423828125-6.186859130859375.35107421875-9.295562744140625.01611328125-7.2713623046875-.32666015625-15.74169921875-4.62353515625-24.251861572265625l-.654296875-1.2957763671875-.9775390625,1.073028564453125c-.6787109375.744964599609375-1.34814453125,1.49951171875-2.01708984375,2.254058837890625-1.4150390625,1.5953369140625-2.8779296875,3.2449951171875-4.40283203125,4.7589111328125-9.12255859375,9.05828857421875-17.3955078125,17.195587158203125-25.2919921875,24.876953125-8.3486328125,8.121337890625-16.857421875,16.358245849609375-25.08642578125,24.323944091796875-5.6982421875,5.51641845703125-11.39697265625,11.0328369140625-17.08935546875,16.5557861328125-1.4697265625,1.4261474609375-2.81787109375,2.984375-4.12158203125,4.49127197265625-1.765625,2.041015625-3.59130859375,4.15155029296875-5.69287109375,5.88592529296875-2.5625,2.11431884765625-4.751953125,3.0989990234375-6.89013671875,3.0989990234375-2.0869140625,0-4.20947265625-.93365478515625-6.6796875-2.938232421875-.8056640625-.6539306640625-1.46630859375-1.2152099609375-2.07080078125-1.82904052734375-5.5595703125-5.6402587890625-5.59814453125-10.6094970703125-.12548828125-16.11248779296875,1.76806640625-1.77783203125,3.7294921875-3.45184326171875,5.62646484375-5.0706787109375,1.93115234375-1.64794921875,3.927734375-3.35198974609375,5.75634765625-5.191650390625,14.88623046875-14.978515625,29.85888671875-29.3466796875,45.166015625-43.971923828125,6.09130859375-5.819915771484375,12.306640625-11.715576171875,18.3173828125-17.417083740234375,3.22119140625-3.05548095703125,6.44189453125-6.1109619140625,9.66015625-9.16961669921875,1.2841796875-1.22052001953125,1.99169921875-1.892822265625,1.77734375-2.8277587890625-.21533203125-.941070556640625-1.16552734375-1.245758056640625-2.8916015625-1.798858642578125-9.3330078125-2.9915771484375-18.8525390625-3.37530517578125-26.10302734375-3.3753662109375-1.3388671875,0-2.75244140625.01458740234375-4.32177734375.04461669921875-1.68505859375.032257080078125-3.39501953125.0877685546875-5.048828125.141448974609375-2.56884765625.0833740234375-5.22509765625.1695556640625-7.828125.1695556640625-3.74658203125,0-6.83251953125-.1778564453125-9.71142578125-.55975341796875-1.79443359375-.23809814453125-3.31591796875-.711578369140625-4.6513671875-1.447509765625-2.19970703125-1.212310791015625-3.27734375-2.90399169921875-3.3916015625-5.3238525390625-.2490234375-5.2596435546875.98388671875-9.381317138671875,3.6640625-12.250579833984375,2.85693359375-3.05889892578125,7.32421875-4.67291259765625,13.27685546875-4.797149658203125.427734375-.008941650390625.85595703125-.013275146484375,1.283203125-.013275146484375M215.419111535903539,205.144402686584726c-.43408203125,0-.86962890625.004425048828125-1.30419921875.01348876953125-12.20166015625.254669189453125-18.4599609375,6.66064453125-17.9189453125,18.094757080078125.1337890625,2.832611083984375,1.48828125,4.818878173828125,3.90771484375,6.15240478515625,1.55810546875.85858154296875,3.2529296875,1.33087158203125,5.0029296875,1.563018798828125,3.2783203125.434844970703125,6.55908203125.568450927734375,9.8427734375.568450927734375,4.296875,0,8.59765625-.228912353515625,12.89599609375-.311187744140625,1.43603515625-.027496337890625,2.869140625-.04443359375,4.302734375-.044403076171875,8.71923828125.00006103515625,17.375.627777099609375,25.7978515625,3.327606201171875,2.84033203125.910308837890625,2.8388671875.945587158203125.73046875,2.949493408203125-9.32568359375,8.863800048828125-18.6767578125,17.700531005859375-27.9794921875,26.588531494140625-15.19873046875,14.52178955078125-30.36376953125,29.077728271484375-45.1845703125,43.99005126953125-3.595703125,3.61785888671875-7.78564453125,6.64532470703125-11.38232421875,10.2620849609375-5.92822265625,5.9610595703125-5.77490234375,11.5367431640625.1220703125,17.51959228515625.6708984375.6807861328125,1.40966796875,1.3001708984375,2.15283203125,1.9034423828125,2.6015625,2.111083984375,4.95654296875,3.161865234375,7.31005859375,3.161865234375,2.421875,0,4.841796875-1.1126708984375,7.5263671875-3.32763671875,3.72607421875-3.0745849609375,6.43701171875-7.09552001953125,9.87451171875-10.430908203125,14.05224609375-13.6339111328125,28.142578125-27.22833251953125,42.1767578125-40.880584716796875,8.47900390625-8.247894287109375,16.90576171875-16.549530029296875,25.29931640625-24.8841552734375,2.25830078125-2.242340087890625,4.30859375-4.693695068359375,6.45458984375-7.049102783203125,4.03955078125,8.00042724609375,4.53369140625,15.878265380859375,4.51611328125,23.798919677734375-.01904296875,8.53741455078125-1.30078125,17.059814453125-.34765625,25.612274169921875.4482421875,4.02020263671875,1.43212890625,7.818115234375,5.52880859375,9.68316650390625,1.74365234375.793701171875,3.59765625,1.16131591796875,5.4482421875,1.16131591796875,6.5712890625,0,13.09619140625-4.637451171875,14.44189453125-11.30291748046875,1.26708984375-6.27508544921875.67333984375-12.56915283203125-.2431640625-18.83160400390625-1.513671875-10.3477783203125-3.33154296875-20.647796630859375-2.51806640625-31.205963134765625.681640625-8.846466064453125.72216796875-17.712738037109375-.06787109375-26.57568359375-.9658203125-10.8360595703125-5.55615234375-15.9412841796875-16.31640625-17.7999267578125-4.314453125-.7452392578125-8.64794921875-.984466552734375-12.98828125-.984466552734375-3.3994140625,0-6.80322265625.1468505859375-10.2021484375.3123779296875-3.66064453125.178253173828125-7.3125.31317138671875-10.9609375.31317138671875-5.59033203125,0-11.17041015625-.317047119140625-16.7470703125-1.280792236328125-6.33349609375-1.094512939453125-12.72021484375-2.066680908203125-19.1708984375-2.066680908203125h0Z"/>
      </g>
      <path class="cls-4" d="M279.731123254653539,279.731011573303476c-69.716369426983874.440552522768485-210.01644666086122,1.330662285226936-279.731322821578942,1.531145076209214.000365790328942.00025751168323-1.526977959671058.007123966757717-1.526977959671058.007123966759536-.000000000672117.000000000904038-.004394530765239-1.538360596354323-.004394531251819-1.538360595701306-.064449894854988-34.9048884713593-.304223356733019-104.98127322745313-.284994205123439-139.865683708947472C-1.816728306264849,139.865502539734734-1.997880652736967.000100318682598-1.997880651592823.000100318420664l-.002441406253638-2.000320434570312c47.593470573341619.061677606001467,165.706312396532667.208744367519103,211.798328422421946.271000223317969,17.377663006357579.057249542636782,52.545183166301285.067312122819203,69.933085588626454.190932699893892.000031283391763-.000140917927638,1.545441470719197.005932057581958,1.545441457662491.005932067051617.000000000271939-.000000000196451-.007324218878239,1.532455444426887-.007324218709982,1.532455444306834-.324667974525255,69.719194526980573-.970334403837114,210.042545374024485-1.538085937500909,279.730911254882812h0ZM279.731123254653539,279.731011573303476c-.57880145863237-69.742896399757228-1.234193576096004-210.02306030354157-1.538624124328635-279.731264505973741.000049905636843.000353251045453,1.538624124286798,1.53868332924867,1.538624124328635,1.538683329215928-38.949397647274054.064927708212053-100.445877184570236.316607599062991-139.865748360132784.281535038739094.000025703883693.0002947952471-139.865208671117216.177723994464031-139.865208671117216.177723994464031L1.997724817153539.000100318420664c.099990269048249,79.280991564623037-.354985196065172,201.347935078119917-.465833673781162,279.73066729245329-.000474919967928.000152409695147-1.531724919968838-1.531158625461103-1.531724919968838-1.531158625461103,69.708469978682842.186230594936205,210.02448464353165,1.073935079259172,279.73095703125,1.531402587890625h0Z"/>
    </g>
  </g>
</svg>