<?xml version="1.0" encoding="UTF-8"?>
<svg id="Content" xmlns="http://www.w3.org/2000/svg" xmlns:xlink="http://www.w3.org/1999/xlink" viewBox="0 0 280 280">
  <defs>
    <style>
      .cls-1 {
        stroke: #665451;
        stroke-width: 50px;
      }

      .cls-1, .cls-2 {
        fill: none;
        stroke-linecap: round;
        stroke-linejoin: round;
      }

      .cls-3 {
        fill: #fff;
      }

      .cls-2 {
        stroke: #998675;
        stroke-width: 2px;
      }
    </style>
  </defs>
  <a xlink:href="https://www.notion.so/congruence/A-given-that-B-916fe31797264702894ca490e14910b7?pvs=4">
    <g>
      <a xlink:href="https://www.notion.so/congruence/B-Event-1f1a5b08a72c49f5ab60f2e0793fd0a8?pvs=4">
        <g>
          <path class="cls-3" d="M70.188476562498181,55.17236328125c2.6474609375,1.2607421875,4.9580078125,2.8818359375,6.9287109375,4.8671875,1.970703125,1.986328125,3.671875,4.193359375,5.109375,6.623046875,1.4375,2.4306640625,2.634765625,5.0302734375,3.59765625,7.80078125.9609375,2.7705078125,1.7587890625,5.5712890625,2.390625,8.400390625,1.3896484375,5.5849609375,2.384765625,11.2666015625,2.98828125,17.048828125.6015625,5.78125.974609375,11.6162109375,1.1162109375,17.5.0009765625,1.67578125-.0205078125,3.052734375-.0673828125,4.126953125-.046875,1.078125-.2265625,1.962890625-.5390625,2.658203125s-.78515625,1.26953125-1.41796875,1.72265625c-.6337890625.453125-1.5361328125.89453125-2.70703125,1.32421875-1.1220703125.2255859375-2.294921875.4208984375-3.521484375.5869140625s-2.40234375-.0732421875-3.525390625-.71875c-1.052734375-.583984375-1.978515625-1.6494140625-2.771484375-3.193359375-.796875-1.5439453125-1.349609375-3.8115234375-1.658203125-6.802734375l-.0810546875-.998046875c-1.6806640625-.0654296875-3.673828125-.0693359375-5.9814453125-.0185546875-2.30859375.0546875-4.662109375.1611328125-7.0615234375.3212890625-2.3994140625.1611328125-4.71484375.33203125-6.9443359375.5126953125-2.232421875.1806640625-4.111328125.3330078125-5.642578125.45703125-.01953125.6044921875-.0205078125,1.6103515625-.0078125,3.0166015625.013671875,1.40625-.08984375,2.8212890625-.30859375,4.2470703125-.220703125,1.4248046875-.568359375,2.7265625-1.041015625,3.9052734375-.474609375,1.177734375-1.2080078125,1.837890625-2.201171875,1.9853515625-.927734375.142578125-1.986328125.2958984375-3.1796875.4599609375-1.193359375.1630859375-2.369140625.125-3.52734375-.1171875-1.154296875-.1728515625-2.146484375-.6298828125-2.9755859375-1.3662109375-.8310546875-.7373046875-1.3505859375-1.9677734375-1.5556640625-3.6943359375-.16796875-2.0625-.326171875-4.4296875-.4755859375-7.0986328125-.1494140625-2.66796875-.25-5.57421875-.3037109375-8.720703125-.078125-2.6064453125-.091796875-5.4716796875-.04296875-8.5908203125.048828125-3.12109375.22265625-6.333984375.525390625-9.642578125.30078125-3.3076171875.76953125-6.6298828125,1.404296875-9.96484375s1.515625-6.5224609375,2.642578125-9.5634765625c1.126953125-3.0390625,2.5234375-5.8662109375,4.189453125-8.4814453125,1.6630859375-2.61328125,3.7275390625-4.8583984375,6.189453125-6.7333984375,2.904296875-2.1796875,6.189453125-3.41796875,9.8515625-3.71484375,3.66015625-.2958984375,7.1953125.322265625,10.6044921875,1.85546875ZM49.601562499998181,102.57861328125c4.16796875-.671875,8.3251953125-1.259765625,12.47265625-1.7646484375,4.1474609375-.501953125,8.32421875-.8583984375,12.529296875-1.064453125-.181640625-4.744140625-.724609375-8.953125-1.626953125-12.6357421875-.900390625-3.6787109375-1.98828125-6.7578125-3.259765625-9.2353515625-1.2734375-2.4755859375-2.69921875-4.3369140625-4.2734375-5.583984375-1.5751953125-1.2451171875-3.12890625-1.8076171875-4.66015625-1.68359375-1.33203125.1083984375-2.658203125.9033203125-3.978515625,2.3837890625-1.3212890625,1.4814453125-2.490234375,3.5859375-3.5087890625,6.3154296875-1.01953125,2.7314453125-1.8701171875,6.06640625-2.556640625,10.0078125-.685546875,3.943359375-1.0654296875,8.36328125-1.1376953125,13.2607421875Z"/>
          <path class="cls-3" d="M206.677734374998181,78.49365234375c3.111328125,2.0263671875,5.51953125,4.6650390625,7.224609375,7.91015625,1.703125,3.24609375,2.43359375,6.6884765625,2.193359375,10.326171875-.26953125,4.1103515625-1.591796875,7.6513671875-3.96484375,10.625-2.37109375,2.9736328125-5.2578125,5.40234375-8.658203125,7.28515625-3.3984375,1.884765625-7.123046875,3.2587890625-11.1748046875,4.12109375-4.0517578125.865234375-7.8916015625,1.2431640625-11.5185546875,1.1357421875-.3232421875.1591796875-.6162109375.2666015625-.87890625.322265625-.263671875.0546875-.5595703125.12890625-.88671875.2216796875-1.193359375.1630859375-2.42578125.2626953125-3.6953125.2998046875-1.2705078125.0361328125-2.4365234375-.0888671875-3.498046875-.369140625-1.0625-.2822265625-1.9921875-.8095703125-2.791015625-1.583984375-.80078125-.7724609375-1.3291015625-1.9189453125-1.5859375-3.439453125-.193359375-.7216796875-.345703125-2.19921875-.4599609375-4.4375-.1142578125-2.2333984375-.2685546875-4.953125-.4599609375-8.1533203125-.130859375-3.2724609375-.3017578125-6.8271484375-.51171875-10.6650390625-.2109375-3.8369140625-.439453125-7.6875-.6845703125-11.5556640625-.3447265625-5.0634765625-.6904296875-10.162109375-1.0380859375-15.2958984375-.349609375-5.1298828125-.96875-10.2744140625-1.853515625-15.4306640625-.18359375-.5888671875-.158203125-1.125.0703125-1.61328125.099609375-.41015625.3681640625-.8173828125.8046875-1.2216796875.435546875-.40234375,1.115234375-.708984375,2.037109375-.9189453125.66015625-.119140625,1.384765625-.2783203125,2.171875-.4775390625.7890625-.1962890625,1.61328125-.3642578125,2.47265625-.501953125.8603515625-.1357421875,1.693359375-.203125,2.498046875-.2021484375.8037109375.001953125,1.513671875.078125,2.12890625.23046875,3.357421875-.7412109375,6.91796875-1.0478515625,10.681640625-.9169921875,3.763671875.1318359375,7.34765625.7294921875,10.75,1.79296875,3.404296875,1.06640625,6.41015625,2.615234375,9.021484375,4.6474609375,2.611328125,2.03515625,4.4462890625,4.6162109375,5.50390625,7.7470703125.4453125,1.37109375.763671875,2.8203125.955078125,4.345703125.189453125,1.52734375.15234375,3.12109375-.115234375,4.783203125-.267578125,1.666015625-.779296875,3.4150390625-1.53515625,5.251953125-.7548828125,1.837890625-1.82421875,3.75-3.203125,5.7373046875ZM180.234374999998181,74.70556640625c3.20703125-.125,5.8759765625-.6767578125,8.0078125-1.654296875,2.1328125-.9765625,3.6953125-2.1591796875,4.689453125-3.546875.9921875-1.38671875,1.41015625-2.8427734375,1.25390625-4.3720703125-.158203125-1.5283203125-.8515625-2.84765625-2.080078125-3.9541015625-1.23046875-1.1064453125-3.001953125-1.8828125-5.3154296875-2.3330078125-2.3154296875-.44921875-5.185546875-.2998046875-8.6083984375.4462890625.41015625,2.580078125.767578125,5.1318359375,1.072265625,7.65234375.3046875,2.5224609375.630859375,5.111328125.98046875,7.76171875ZM182.880859374998181,103.64306640625c3.626953125.107421875,6.642578125-.302734375,9.046875-1.2353515625,2.40234375-.931640625,4.169921875-2.080078125,5.2998046875-3.4453125,1.12890625-1.3642578125,1.6494140625-2.78125,1.5654296875-4.2490234375-.0859375-1.4658203125-.76953125-2.6845703125-2.0546875-3.6533203125-1.28515625-.966796875-3.17578125-1.5341796875-5.666015625-1.701171875-2.494140625-.166015625-5.5703125.333984375-9.2275390625,1.5009765625l1.0361328125,12.783203125Z"/>
        </g>
      </a>
      <g>
        <a xlink:href="https://www.notion.so/congruence/B-Event-1f1a5b08a72c49f5ab60f2e0793fd0a8?pvs=4">
          <g>
            <g>
              <path class="cls-1" d="M70.188476562498181,55.17236328125c2.6474609375,1.2607421875,4.9580078125,2.8818359375,6.9287109375,4.8671875,1.970703125,1.986328125,3.671875,4.193359375,5.109375,6.623046875,1.4375,2.4306640625,2.634765625,5.0302734375,3.59765625,7.80078125.9609375,2.7705078125,1.7587890625,5.5712890625,2.390625,8.400390625,1.3896484375,5.5849609375,2.384765625,11.2666015625,2.98828125,17.048828125.6015625,5.78125.974609375,11.6162109375,1.1162109375,17.5.0009765625,1.67578125-.0205078125,3.052734375-.0673828125,4.126953125-.046875,1.078125-.2265625,1.962890625-.5390625,2.658203125s-.78515625,1.26953125-1.41796875,1.72265625c-.6337890625.453125-1.5361328125.89453125-2.70703125,1.32421875-1.1220703125.2255859375-2.294921875.4208984375-3.521484375.5869140625s-2.40234375-.0732421875-3.525390625-.71875c-1.052734375-.583984375-1.978515625-1.6494140625-2.771484375-3.193359375-.796875-1.5439453125-1.349609375-3.8115234375-1.658203125-6.802734375l-.0810546875-.998046875c-1.6806640625-.0654296875-3.673828125-.0693359375-5.9814453125-.0185546875-2.30859375.0546875-4.662109375.1611328125-7.0615234375.3212890625-2.3994140625.1611328125-4.71484375.33203125-6.9443359375.5126953125-2.232421875.1806640625-4.111328125.3330078125-5.642578125.45703125-.01953125.6044921875-.0205078125,1.6103515625-.0078125,3.0166015625.013671875,1.40625-.08984375,2.8212890625-.30859375,4.2470703125-.220703125,1.4248046875-.568359375,2.7265625-1.041015625,3.9052734375-.474609375,1.177734375-1.2080078125,1.837890625-2.201171875,1.9853515625-.927734375.142578125-1.986328125.2958984375-3.1796875.4599609375-1.193359375.1630859375-2.369140625.125-3.52734375-.1171875-1.154296875-.1728515625-2.146484375-.6298828125-2.9755859375-1.3662109375-.8310546875-.7373046875-1.3505859375-1.9677734375-1.5556640625-3.6943359375-.16796875-2.0625-.326171875-4.4296875-.4755859375-7.0986328125-.1494140625-2.66796875-.25-5.57421875-.3037109375-8.720703125-.078125-2.6064453125-.091796875-5.4716796875-.04296875-8.5908203125.048828125-3.12109375.22265625-6.333984375.525390625-9.642578125.30078125-3.3076171875.76953125-6.6298828125,1.404296875-9.96484375s1.515625-6.5224609375,2.642578125-9.5634765625c1.126953125-3.0390625,2.5234375-5.8662109375,4.189453125-8.4814453125,1.6630859375-2.61328125,3.7275390625-4.8583984375,6.189453125-6.7333984375,2.904296875-2.1796875,6.189453125-3.41796875,9.8515625-3.71484375,3.66015625-.2958984375,7.1953125.322265625,10.6044921875,1.85546875ZM49.601562499998181,102.57861328125c4.16796875-.671875,8.3251953125-1.259765625,12.47265625-1.7646484375,4.1474609375-.501953125,8.32421875-.8583984375,12.529296875-1.064453125-.181640625-4.744140625-.724609375-8.953125-1.626953125-12.6357421875-.900390625-3.6787109375-1.98828125-6.7578125-3.259765625-9.2353515625-1.2734375-2.4755859375-2.69921875-4.3369140625-4.2734375-5.583984375-1.5751953125-1.2451171875-3.12890625-1.8076171875-4.66015625-1.68359375-1.33203125.1083984375-2.658203125.9033203125-3.978515625,2.3837890625-1.3212890625,1.4814453125-2.490234375,3.5859375-3.5087890625,6.3154296875-1.01953125,2.7314453125-1.8701171875,6.06640625-2.556640625,10.0078125-.685546875,3.943359375-1.0654296875,8.36328125-1.1376953125,13.2607421875Z"/>
              <path class="cls-1" d="M206.677734374998181,78.49365234375c3.111328125,2.0263671875,5.51953125,4.6650390625,7.224609375,7.91015625,1.703125,3.24609375,2.43359375,6.6884765625,2.193359375,10.326171875-.26953125,4.1103515625-1.591796875,7.6513671875-3.96484375,10.625-2.37109375,2.9736328125-5.2578125,5.40234375-8.658203125,7.28515625-3.3984375,1.884765625-7.123046875,3.2587890625-11.1748046875,4.12109375-4.0517578125.865234375-7.8916015625,1.2431640625-11.5185546875,1.1357421875-.3232421875.1591796875-.6162109375.2666015625-.87890625.322265625-.263671875.0546875-.5595703125.12890625-.88671875.2216796875-1.193359375.1630859375-2.42578125.2626953125-3.6953125.2998046875-1.2705078125.0361328125-2.4365234375-.0888671875-3.498046875-.369140625-1.0625-.2822265625-1.9921875-.8095703125-2.791015625-1.583984375-.80078125-.7724609375-1.3291015625-1.9189453125-1.5859375-3.439453125-.193359375-.7216796875-.345703125-2.19921875-.4599609375-4.4375-.1142578125-2.2333984375-.2685546875-4.953125-.4599609375-8.1533203125-.130859375-3.2724609375-.3017578125-6.8271484375-.51171875-10.6650390625-.2109375-3.8369140625-.439453125-7.6875-.6845703125-11.5556640625-.3447265625-5.0634765625-.6904296875-10.162109375-1.0380859375-15.2958984375-.349609375-5.1298828125-.96875-10.2744140625-1.853515625-15.4306640625-.18359375-.5888671875-.158203125-1.125.0703125-1.61328125.099609375-.41015625.3681640625-.8173828125.8046875-1.2216796875.435546875-.40234375,1.115234375-.708984375,2.037109375-.9189453125.66015625-.119140625,1.384765625-.2783203125,2.171875-.4775390625.7890625-.1962890625,1.61328125-.3642578125,2.47265625-.501953125.8603515625-.1357421875,1.693359375-.203125,2.498046875-.2021484375.8037109375.001953125,1.513671875.078125,2.12890625.23046875,3.357421875-.7412109375,6.91796875-1.0478515625,10.681640625-.9169921875,3.763671875.1318359375,7.34765625.7294921875,10.75,1.79296875,3.404296875,1.06640625,6.41015625,2.615234375,9.021484375,4.6474609375,2.611328125,2.03515625,4.4462890625,4.6162109375,5.50390625,7.7470703125.4453125,1.37109375.763671875,2.8203125.955078125,4.345703125.189453125,1.52734375.15234375,3.12109375-.115234375,4.783203125-.267578125,1.666015625-.779296875,3.4150390625-1.53515625,5.251953125-.7548828125,1.837890625-1.82421875,3.75-3.203125,5.7373046875ZM180.234374999998181,74.70556640625c3.20703125-.125,5.8759765625-.6767578125,8.0078125-1.654296875,2.1328125-.9765625,3.6953125-2.1591796875,4.689453125-3.546875.9921875-1.38671875,1.41015625-2.8427734375,1.25390625-4.3720703125-.158203125-1.5283203125-.8515625-2.84765625-2.080078125-3.9541015625-1.23046875-1.1064453125-3.001953125-1.8828125-5.3154296875-2.3330078125-2.3154296875-.44921875-5.185546875-.2998046875-8.6083984375.4462890625.41015625,2.580078125.767578125,5.1318359375,1.072265625,7.65234375.3046875,2.5224609375.630859375,5.111328125.98046875,7.76171875ZM182.880859374998181,103.64306640625c3.626953125.107421875,6.642578125-.302734375,9.046875-1.2353515625,2.40234375-.931640625,4.169921875-2.080078125,5.2998046875-3.4453125,1.12890625-1.3642578125,1.6494140625-2.78125,1.5654296875-4.2490234375-.0859375-1.4658203125-.76953125-2.6845703125-2.0546875-3.6533203125-1.28515625-.966796875-3.17578125-1.5341796875-5.666015625-1.701171875-2.494140625-.166015625-5.5703125.333984375-9.2275390625,1.5009765625l1.0361328125,12.783203125Z"/>
            </g>
            <g>
              <path class="cls-1" d="M70.188476562498181,55.17236328125c2.6474609375,1.2607421875,4.9580078125,2.8818359375,6.9287109375,4.8671875,1.970703125,1.986328125,3.671875,4.193359375,5.109375,6.623046875,1.4375,2.4306640625,2.634765625,5.0302734375,3.59765625,7.80078125.9609375,2.7705078125,1.7587890625,5.5712890625,2.390625,8.400390625,1.3896484375,5.5849609375,2.384765625,11.2666015625,2.98828125,17.048828125.6015625,5.78125.974609375,11.6162109375,1.1162109375,17.5.0009765625,1.67578125-.0205078125,3.052734375-.0673828125,4.126953125-.046875,1.078125-.2265625,1.962890625-.5390625,2.658203125s-.78515625,1.26953125-1.41796875,1.72265625c-.6337890625.453125-1.5361328125.89453125-2.70703125,1.32421875-1.1220703125.2255859375-2.294921875.4208984375-3.521484375.5869140625s-2.40234375-.0732421875-3.525390625-.71875c-1.052734375-.583984375-1.978515625-1.6494140625-2.771484375-3.193359375-.796875-1.5439453125-1.349609375-3.8115234375-1.658203125-6.802734375l-.0810546875-.998046875c-1.6806640625-.0654296875-3.673828125-.0693359375-5.9814453125-.0185546875-2.30859375.0546875-4.662109375.1611328125-7.0615234375.3212890625-2.3994140625.1611328125-4.71484375.33203125-6.9443359375.5126953125-2.232421875.1806640625-4.111328125.3330078125-5.642578125.45703125-.01953125.6044921875-.0205078125,1.6103515625-.0078125,3.0166015625.013671875,1.40625-.08984375,2.8212890625-.30859375,4.2470703125-.220703125,1.4248046875-.568359375,2.7265625-1.041015625,3.9052734375-.474609375,1.177734375-1.2080078125,1.837890625-2.201171875,1.9853515625-.927734375.142578125-1.986328125.2958984375-3.1796875.4599609375-1.193359375.1630859375-2.369140625.125-3.52734375-.1171875-1.154296875-.1728515625-2.146484375-.6298828125-2.9755859375-1.3662109375-.8310546875-.7373046875-1.3505859375-1.9677734375-1.5556640625-3.6943359375-.16796875-2.0625-.326171875-4.4296875-.4755859375-7.0986328125-.1494140625-2.66796875-.25-5.57421875-.3037109375-8.720703125-.078125-2.6064453125-.091796875-5.4716796875-.04296875-8.5908203125.048828125-3.12109375.22265625-6.333984375.525390625-9.642578125.30078125-3.3076171875.76953125-6.6298828125,1.404296875-9.96484375s1.515625-6.5224609375,2.642578125-9.5634765625c1.126953125-3.0390625,2.5234375-5.8662109375,4.189453125-8.4814453125,1.6630859375-2.61328125,3.7275390625-4.8583984375,6.189453125-6.7333984375,2.904296875-2.1796875,6.189453125-3.41796875,9.8515625-3.71484375,3.66015625-.2958984375,7.1953125.322265625,10.6044921875,1.85546875ZM49.601562499998181,102.57861328125c4.16796875-.671875,8.3251953125-1.259765625,12.47265625-1.7646484375,4.1474609375-.501953125,8.32421875-.8583984375,12.529296875-1.064453125-.181640625-4.744140625-.724609375-8.953125-1.626953125-12.6357421875-.900390625-3.6787109375-1.98828125-6.7578125-3.259765625-9.2353515625-1.2734375-2.4755859375-2.69921875-4.3369140625-4.2734375-5.583984375-1.5751953125-1.2451171875-3.12890625-1.8076171875-4.66015625-1.68359375-1.33203125.1083984375-2.658203125.9033203125-3.978515625,2.3837890625-1.3212890625,1.4814453125-2.490234375,3.5859375-3.5087890625,6.3154296875-1.01953125,2.7314453125-1.8701171875,6.06640625-2.556640625,10.0078125-.685546875,3.943359375-1.0654296875,8.36328125-1.1376953125,13.2607421875Z"/>
              <path class="cls-1" d="M206.677734374998181,78.49365234375c3.111328125,2.0263671875,5.51953125,4.6650390625,7.224609375,7.91015625,1.703125,3.24609375,2.43359375,6.6884765625,2.193359375,10.326171875-.26953125,4.1103515625-1.591796875,7.6513671875-3.96484375,10.625-2.37109375,2.9736328125-5.2578125,5.40234375-8.658203125,7.28515625-3.3984375,1.884765625-7.123046875,3.2587890625-11.1748046875,4.12109375-4.0517578125.865234375-7.8916015625,1.2431640625-11.5185546875,1.1357421875-.3232421875.1591796875-.6162109375.2666015625-.87890625.322265625-.263671875.0546875-.5595703125.12890625-.88671875.2216796875-1.193359375.1630859375-2.42578125.2626953125-3.6953125.2998046875-1.2705078125.0361328125-2.4365234375-.0888671875-3.498046875-.369140625-1.0625-.2822265625-1.9921875-.8095703125-2.791015625-1.583984375-.80078125-.7724609375-1.3291015625-1.9189453125-1.5859375-3.439453125-.193359375-.7216796875-.345703125-2.19921875-.4599609375-4.4375-.1142578125-2.2333984375-.2685546875-4.953125-.4599609375-8.1533203125-.130859375-3.2724609375-.3017578125-6.8271484375-.51171875-10.6650390625-.2109375-3.8369140625-.439453125-7.6875-.6845703125-11.5556640625-.3447265625-5.0634765625-.6904296875-10.162109375-1.0380859375-15.2958984375-.349609375-5.1298828125-.96875-10.2744140625-1.853515625-15.4306640625-.18359375-.5888671875-.158203125-1.125.0703125-1.61328125.099609375-.41015625.3681640625-.8173828125.8046875-1.2216796875.435546875-.40234375,1.115234375-.708984375,2.037109375-.9189453125.66015625-.119140625,1.384765625-.2783203125,2.171875-.4775390625.7890625-.1962890625,1.61328125-.3642578125,2.47265625-.501953125.8603515625-.1357421875,1.693359375-.203125,2.498046875-.2021484375.8037109375.001953125,1.513671875.078125,2.12890625.23046875,3.357421875-.7412109375,6.91796875-1.0478515625,10.681640625-.9169921875,3.763671875.1318359375,7.34765625.7294921875,10.75,1.79296875,3.404296875,1.06640625,6.41015625,2.615234375,9.021484375,4.6474609375,2.611328125,2.03515625,4.4462890625,4.6162109375,5.50390625,7.7470703125.4453125,1.37109375.763671875,2.8203125.955078125,4.345703125.189453125,1.52734375.15234375,3.12109375-.115234375,4.783203125-.267578125,1.666015625-.779296875,3.4150390625-1.53515625,5.251953125-.7548828125,1.837890625-1.82421875,3.75-3.203125,5.7373046875ZM180.234374999998181,74.70556640625c3.20703125-.125,5.8759765625-.6767578125,8.0078125-1.654296875,2.1328125-.9765625,3.6953125-2.1591796875,4.689453125-3.546875.9921875-1.38671875,1.41015625-2.8427734375,1.25390625-4.3720703125-.158203125-1.5283203125-.8515625-2.84765625-2.080078125-3.9541015625-1.23046875-1.1064453125-3.001953125-1.8828125-5.3154296875-2.3330078125-2.3154296875-.44921875-5.185546875-.2998046875-8.6083984375.4462890625.41015625,2.580078125.767578125,5.1318359375,1.072265625,7.65234375.3046875,2.5224609375.630859375,5.111328125.98046875,7.76171875ZM182.880859374998181,103.64306640625c3.626953125.107421875,6.642578125-.302734375,9.046875-1.2353515625,2.40234375-.931640625,4.169921875-2.080078125,5.2998046875-3.4453125,1.12890625-1.3642578125,1.6494140625-2.78125,1.5654296875-4.2490234375-.0859375-1.4658203125-.76953125-2.6845703125-2.0546875-3.6533203125-1.28515625-.966796875-3.17578125-1.5341796875-5.666015625-1.701171875-2.494140625-.166015625-5.5703125.333984375-9.2275390625,1.5009765625l1.0361328125,12.783203125Z"/>
            </g>
            <g>
              <path class="cls-1" d="M70.188476562498181,55.17236328125c2.6474609375,1.2607421875,4.9580078125,2.8818359375,6.9287109375,4.8671875,1.970703125,1.986328125,3.671875,4.193359375,5.109375,6.623046875,1.4375,2.4306640625,2.634765625,5.0302734375,3.59765625,7.80078125.9609375,2.7705078125,1.7587890625,5.5712890625,2.390625,8.400390625,1.3896484375,5.5849609375,2.384765625,11.2666015625,2.98828125,17.048828125.6015625,5.78125.974609375,11.6162109375,1.1162109375,17.5.0009765625,1.67578125-.0205078125,3.052734375-.0673828125,4.126953125-.046875,1.078125-.2265625,1.962890625-.5390625,2.658203125s-.78515625,1.26953125-1.41796875,1.72265625c-.6337890625.453125-1.5361328125.89453125-2.70703125,1.32421875-1.1220703125.2255859375-2.294921875.4208984375-3.521484375.5869140625s-2.40234375-.0732421875-3.525390625-.71875c-1.052734375-.583984375-1.978515625-1.6494140625-2.771484375-3.193359375-.796875-1.5439453125-1.349609375-3.8115234375-1.658203125-6.802734375l-.0810546875-.998046875c-1.6806640625-.0654296875-3.673828125-.0693359375-5.9814453125-.0185546875-2.30859375.0546875-4.662109375.1611328125-7.0615234375.3212890625-2.3994140625.1611328125-4.71484375.33203125-6.9443359375.5126953125-2.232421875.1806640625-4.111328125.3330078125-5.642578125.45703125-.01953125.6044921875-.0205078125,1.6103515625-.0078125,3.0166015625.013671875,1.40625-.08984375,2.8212890625-.30859375,4.2470703125-.220703125,1.4248046875-.568359375,2.7265625-1.041015625,3.9052734375-.474609375,1.177734375-1.2080078125,1.837890625-2.201171875,1.9853515625-.927734375.142578125-1.986328125.2958984375-3.1796875.4599609375-1.193359375.1630859375-2.369140625.125-3.52734375-.1171875-1.154296875-.1728515625-2.146484375-.6298828125-2.9755859375-1.3662109375-.8310546875-.7373046875-1.3505859375-1.9677734375-1.5556640625-3.6943359375-.16796875-2.0625-.326171875-4.4296875-.4755859375-7.0986328125-.1494140625-2.66796875-.25-5.57421875-.3037109375-8.720703125-.078125-2.6064453125-.091796875-5.4716796875-.04296875-8.5908203125.048828125-3.12109375.22265625-6.333984375.525390625-9.642578125.30078125-3.3076171875.76953125-6.6298828125,1.404296875-9.96484375s1.515625-6.5224609375,2.642578125-9.5634765625c1.126953125-3.0390625,2.5234375-5.8662109375,4.189453125-8.4814453125,1.6630859375-2.61328125,3.7275390625-4.8583984375,6.189453125-6.7333984375,2.904296875-2.1796875,6.189453125-3.41796875,9.8515625-3.71484375,3.66015625-.2958984375,7.1953125.322265625,10.6044921875,1.85546875ZM49.601562499998181,102.57861328125c4.16796875-.671875,8.3251953125-1.259765625,12.47265625-1.7646484375,4.1474609375-.501953125,8.32421875-.8583984375,12.529296875-1.064453125-.181640625-4.744140625-.724609375-8.953125-1.626953125-12.6357421875-.900390625-3.6787109375-1.98828125-6.7578125-3.259765625-9.2353515625-1.2734375-2.4755859375-2.69921875-4.3369140625-4.2734375-5.583984375-1.5751953125-1.2451171875-3.12890625-1.8076171875-4.66015625-1.68359375-1.33203125.1083984375-2.658203125.9033203125-3.978515625,2.3837890625-1.3212890625,1.4814453125-2.490234375,3.5859375-3.5087890625,6.3154296875-1.01953125,2.7314453125-1.8701171875,6.06640625-2.556640625,10.0078125-.685546875,3.943359375-1.0654296875,8.36328125-1.1376953125,13.2607421875Z"/>
              <path class="cls-1" d="M206.677734374998181,78.49365234375c3.111328125,2.0263671875,5.51953125,4.6650390625,7.224609375,7.91015625,1.703125,3.24609375,2.43359375,6.6884765625,2.193359375,10.326171875-.26953125,4.1103515625-1.591796875,7.6513671875-3.96484375,10.625-2.37109375,2.9736328125-5.2578125,5.40234375-8.658203125,7.28515625-3.3984375,1.884765625-7.123046875,3.2587890625-11.1748046875,4.12109375-4.0517578125.865234375-7.8916015625,1.2431640625-11.5185546875,1.1357421875-.3232421875.1591796875-.6162109375.2666015625-.87890625.322265625-.263671875.0546875-.5595703125.12890625-.88671875.2216796875-1.193359375.1630859375-2.42578125.2626953125-3.6953125.2998046875-1.2705078125.0361328125-2.4365234375-.0888671875-3.498046875-.369140625-1.0625-.2822265625-1.9921875-.8095703125-2.791015625-1.583984375-.80078125-.7724609375-1.3291015625-1.9189453125-1.5859375-3.439453125-.193359375-.7216796875-.345703125-2.19921875-.4599609375-4.4375-.1142578125-2.2333984375-.2685546875-4.953125-.4599609375-8.1533203125-.130859375-3.2724609375-.3017578125-6.8271484375-.51171875-10.6650390625-.2109375-3.8369140625-.439453125-7.6875-.6845703125-11.5556640625-.3447265625-5.0634765625-.6904296875-10.162109375-1.0380859375-15.2958984375-.349609375-5.1298828125-.96875-10.2744140625-1.853515625-15.4306640625-.18359375-.5888671875-.158203125-1.125.0703125-1.61328125.099609375-.41015625.3681640625-.8173828125.8046875-1.2216796875.435546875-.40234375,1.115234375-.708984375,2.037109375-.9189453125.66015625-.119140625,1.384765625-.2783203125,2.171875-.4775390625.7890625-.1962890625,1.61328125-.3642578125,2.47265625-.501953125.8603515625-.1357421875,1.693359375-.203125,2.498046875-.2021484375.8037109375.001953125,1.513671875.078125,2.12890625.23046875,3.357421875-.7412109375,6.91796875-1.0478515625,10.681640625-.9169921875,3.763671875.1318359375,7.34765625.7294921875,10.75,1.79296875,3.404296875,1.06640625,6.41015625,2.615234375,9.021484375,4.6474609375,2.611328125,2.03515625,4.4462890625,4.6162109375,5.50390625,7.7470703125.4453125,1.37109375.763671875,2.8203125.955078125,4.345703125.189453125,1.52734375.15234375,3.12109375-.115234375,4.783203125-.267578125,1.666015625-.779296875,3.4150390625-1.53515625,5.251953125-.7548828125,1.837890625-1.82421875,3.75-3.203125,5.7373046875ZM180.234374999998181,74.70556640625c3.20703125-.125,5.8759765625-.6767578125,8.0078125-1.654296875,2.1328125-.9765625,3.6953125-2.1591796875,4.689453125-3.546875.9921875-1.38671875,1.41015625-2.8427734375,1.25390625-4.3720703125-.158203125-1.5283203125-.8515625-2.84765625-2.080078125-3.9541015625-1.23046875-1.1064453125-3.001953125-1.8828125-5.3154296875-2.3330078125-2.3154296875-.44921875-5.185546875-.2998046875-8.6083984375.4462890625.41015625,2.580078125.767578125,5.1318359375,1.072265625,7.65234375.3046875,2.5224609375.630859375,5.111328125.98046875,7.76171875ZM182.880859374998181,103.64306640625c3.626953125.107421875,6.642578125-.302734375,9.046875-1.2353515625,2.40234375-.931640625,4.169921875-2.080078125,5.2998046875-3.4453125,1.12890625-1.3642578125,1.6494140625-2.78125,1.5654296875-4.2490234375-.0859375-1.4658203125-.76953125-2.6845703125-2.0546875-3.6533203125-1.28515625-.966796875-3.17578125-1.5341796875-5.666015625-1.701171875-2.494140625-.166015625-5.5703125.333984375-9.2275390625,1.5009765625l1.0361328125,12.783203125Z"/>
            </g>
          </g>
        </a>
        <path class="cls-1" d="M136.360351562498181,44.60400390625c-.1552734375,13.7421875-.2880859375,27.3642578125-.4033203125,40.8662109375-.115234375,13.5009765625-.1357421875,27.123046875-.05859375,40.8662109375-.154296875.9638671875-.4228515625,1.849609375-.806640625,2.6513671875-.38671875.64453125-.962890625,1.287109375-1.7314453125,1.9287109375-.76953125.64453125-1.8076171875,1.0439453125-3.115234375,1.2060546875-1.384765625.16015625-2.7890625.259765625-4.2119140625.30078125-1.423828125.0400390625-2.7509765625-.1201171875-3.98046875-.4814453125-1.2314453125-.3623046875-2.2900390625-1.00390625-3.173828125-1.9287109375-.884765625-.923828125-1.44140625-2.3095703125-1.6728515625-4.1591796875-.1552734375-.8837890625-.23046875-2.7314453125-.23046875-5.5458984375,0-2.8115234375.0576171875-6.2080078125.1728515625-10.185546875.115234375-3.978515625.2490234375-8.3583984375.404296875-13.140625.15234375-4.7802734375.345703125-9.5830078125.576171875-14.4052734375.154296875-4.822265625.365234375-9.482421875.634765625-13.9833984375.26953125-4.5.48046875-8.517578125.634765625-12.0556640625.23046875-4.0986328125.4619140625-7.9560546875.6923828125-11.572265625-.0771484375-.7236328125.0380859375-1.365234375.3466796875-1.9287109375.23046875-.482421875.5947265625-.904296875,1.095703125-1.265625.5-.3623046875,1.287109375-.58203125,2.365234375-.6630859375h3.75c1.4228515625,0,2.787109375.1015625,4.0966796875.30078125,1.3076171875.2021484375,2.4033203125.54296875,3.2880859375,1.025390625.8837890625.4814453125,1.3271484375,1.205078125,1.3271484375,2.169921875Z"/>
      </g>
      <g>
        <a xlink:href="https://www.notion.so/congruence/B-Event-1f1a5b08a72c49f5ab60f2e0793fd0a8?pvs=4">
          <g>
            <g>
              <path class="cls-2" d="M70.188476562498181,55.17236328125c2.6474609375,1.2607421875,4.9580078125,2.8818359375,6.9287109375,4.8671875,1.970703125,1.986328125,3.671875,4.193359375,5.109375,6.623046875,1.4375,2.4306640625,2.634765625,5.0302734375,3.59765625,7.80078125.9609375,2.7705078125,1.7587890625,5.5712890625,2.390625,8.400390625,1.3896484375,5.5849609375,2.384765625,11.2666015625,2.98828125,17.048828125.6015625,5.78125.974609375,11.6162109375,1.1162109375,17.5.0009765625,1.67578125-.0205078125,3.052734375-.0673828125,4.126953125-.046875,1.078125-.2265625,1.962890625-.5390625,2.658203125s-.78515625,1.26953125-1.41796875,1.72265625c-.6337890625.453125-1.5361328125.89453125-2.70703125,1.32421875-1.1220703125.2255859375-2.294921875.4208984375-3.521484375.5869140625s-2.40234375-.0732421875-3.525390625-.71875c-1.052734375-.583984375-1.978515625-1.6494140625-2.771484375-3.193359375-.796875-1.5439453125-1.349609375-3.8115234375-1.658203125-6.802734375l-.0810546875-.998046875c-1.6806640625-.0654296875-3.673828125-.0693359375-5.9814453125-.0185546875-2.30859375.0546875-4.662109375.1611328125-7.0615234375.3212890625-2.3994140625.1611328125-4.71484375.33203125-6.9443359375.5126953125-2.232421875.1806640625-4.111328125.3330078125-5.642578125.45703125-.01953125.6044921875-.0205078125,1.6103515625-.0078125,3.0166015625.013671875,1.40625-.08984375,2.8212890625-.30859375,4.2470703125-.220703125,1.4248046875-.568359375,2.7265625-1.041015625,3.9052734375-.474609375,1.177734375-1.2080078125,1.837890625-2.201171875,1.9853515625-.927734375.142578125-1.986328125.2958984375-3.1796875.4599609375-1.193359375.1630859375-2.369140625.125-3.52734375-.1171875-1.154296875-.1728515625-2.146484375-.6298828125-2.9755859375-1.3662109375-.8310546875-.7373046875-1.3505859375-1.9677734375-1.5556640625-3.6943359375-.16796875-2.0625-.326171875-4.4296875-.4755859375-7.0986328125-.1494140625-2.66796875-.25-5.57421875-.3037109375-8.720703125-.078125-2.6064453125-.091796875-5.4716796875-.04296875-8.5908203125.048828125-3.12109375.22265625-6.333984375.525390625-9.642578125.30078125-3.3076171875.76953125-6.6298828125,1.404296875-9.96484375s1.515625-6.5224609375,2.642578125-9.5634765625c1.126953125-3.0390625,2.5234375-5.8662109375,4.189453125-8.4814453125,1.6630859375-2.61328125,3.7275390625-4.8583984375,6.189453125-6.7333984375,2.904296875-2.1796875,6.189453125-3.41796875,9.8515625-3.71484375,3.66015625-.2958984375,7.1953125.322265625,10.6044921875,1.85546875ZM49.601562499998181,102.57861328125c4.16796875-.671875,8.3251953125-1.259765625,12.47265625-1.7646484375,4.1474609375-.501953125,8.32421875-.8583984375,12.529296875-1.064453125-.181640625-4.744140625-.724609375-8.953125-1.626953125-12.6357421875-.900390625-3.6787109375-1.98828125-6.7578125-3.259765625-9.2353515625-1.2734375-2.4755859375-2.69921875-4.3369140625-4.2734375-5.583984375-1.5751953125-1.2451171875-3.12890625-1.8076171875-4.66015625-1.68359375-1.33203125.1083984375-2.658203125.9033203125-3.978515625,2.3837890625-1.3212890625,1.4814453125-2.490234375,3.5859375-3.5087890625,6.3154296875-1.01953125,2.7314453125-1.8701171875,6.06640625-2.556640625,10.0078125-.685546875,3.943359375-1.0654296875,8.36328125-1.1376953125,13.2607421875Z"/>
              <path class="cls-2" d="M206.677734374998181,78.49365234375c3.111328125,2.0263671875,5.51953125,4.6650390625,7.224609375,7.91015625,1.703125,3.24609375,2.43359375,6.6884765625,2.193359375,10.326171875-.26953125,4.1103515625-1.591796875,7.6513671875-3.96484375,10.625-2.37109375,2.9736328125-5.2578125,5.40234375-8.658203125,7.28515625-3.3984375,1.884765625-7.123046875,3.2587890625-11.1748046875,4.12109375-4.0517578125.865234375-7.8916015625,1.2431640625-11.5185546875,1.1357421875-.3232421875.1591796875-.6162109375.2666015625-.87890625.322265625-.263671875.0546875-.5595703125.12890625-.88671875.2216796875-1.193359375.1630859375-2.42578125.2626953125-3.6953125.2998046875-1.2705078125.0361328125-2.4365234375-.0888671875-3.498046875-.369140625-1.0625-.2822265625-1.9921875-.8095703125-2.791015625-1.583984375-.80078125-.7724609375-1.3291015625-1.9189453125-1.5859375-3.439453125-.193359375-.7216796875-.345703125-2.19921875-.4599609375-4.4375-.1142578125-2.2333984375-.2685546875-4.953125-.4599609375-8.1533203125-.130859375-3.2724609375-.3017578125-6.8271484375-.51171875-10.6650390625-.2109375-3.8369140625-.439453125-7.6875-.6845703125-11.5556640625-.3447265625-5.0634765625-.6904296875-10.162109375-1.0380859375-15.2958984375-.349609375-5.1298828125-.96875-10.2744140625-1.853515625-15.4306640625-.18359375-.5888671875-.158203125-1.125.0703125-1.61328125.099609375-.41015625.3681640625-.8173828125.8046875-1.2216796875.435546875-.40234375,1.115234375-.708984375,2.037109375-.9189453125.66015625-.119140625,1.384765625-.2783203125,2.171875-.4775390625.7890625-.1962890625,1.61328125-.3642578125,2.47265625-.501953125.8603515625-.1357421875,1.693359375-.203125,2.498046875-.2021484375.8037109375.001953125,1.513671875.078125,2.12890625.23046875,3.357421875-.7412109375,6.91796875-1.0478515625,10.681640625-.9169921875,3.763671875.1318359375,7.34765625.7294921875,10.75,1.79296875,3.404296875,1.06640625,6.41015625,2.615234375,9.021484375,4.6474609375,2.611328125,2.03515625,4.4462890625,4.6162109375,5.50390625,7.7470703125.4453125,1.37109375.763671875,2.8203125.955078125,4.345703125.189453125,1.52734375.15234375,3.12109375-.115234375,4.783203125-.267578125,1.666015625-.779296875,3.4150390625-1.53515625,5.251953125-.7548828125,1.837890625-1.82421875,3.75-3.203125,5.7373046875ZM180.234374999998181,74.70556640625c3.20703125-.125,5.8759765625-.6767578125,8.0078125-1.654296875,2.1328125-.9765625,3.6953125-2.1591796875,4.689453125-3.546875.9921875-1.38671875,1.41015625-2.8427734375,1.25390625-4.3720703125-.158203125-1.5283203125-.8515625-2.84765625-2.080078125-3.9541015625-1.23046875-1.1064453125-3.001953125-1.8828125-5.3154296875-2.3330078125-2.3154296875-.44921875-5.185546875-.2998046875-8.6083984375.4462890625.41015625,2.580078125.767578125,5.1318359375,1.072265625,7.65234375.3046875,2.5224609375.630859375,5.111328125.98046875,7.76171875ZM182.880859374998181,103.64306640625c3.626953125.107421875,6.642578125-.302734375,9.046875-1.2353515625,2.40234375-.931640625,4.169921875-2.080078125,5.2998046875-3.4453125,1.12890625-1.3642578125,1.6494140625-2.78125,1.5654296875-4.2490234375-.0859375-1.4658203125-.76953125-2.6845703125-2.0546875-3.6533203125-1.28515625-.966796875-3.17578125-1.5341796875-5.666015625-1.701171875-2.494140625-.166015625-5.5703125.333984375-9.2275390625,1.5009765625l1.0361328125,12.783203125Z"/>
            </g>
            <g>
              <path class="cls-2" d="M70.188476562498181,55.17236328125c2.6474609375,1.2607421875,4.9580078125,2.8818359375,6.9287109375,4.8671875,1.970703125,1.986328125,3.671875,4.193359375,5.109375,6.623046875,1.4375,2.4306640625,2.634765625,5.0302734375,3.59765625,7.80078125.9609375,2.7705078125,1.7587890625,5.5712890625,2.390625,8.400390625,1.3896484375,5.5849609375,2.384765625,11.2666015625,2.98828125,17.048828125.6015625,5.78125.974609375,11.6162109375,1.1162109375,17.5.0009765625,1.67578125-.0205078125,3.052734375-.0673828125,4.126953125-.046875,1.078125-.2265625,1.962890625-.5390625,2.658203125s-.78515625,1.26953125-1.41796875,1.72265625c-.6337890625.453125-1.5361328125.89453125-2.70703125,1.32421875-1.1220703125.2255859375-2.294921875.4208984375-3.521484375.5869140625s-2.40234375-.0732421875-3.525390625-.71875c-1.052734375-.583984375-1.978515625-1.6494140625-2.771484375-3.193359375-.796875-1.5439453125-1.349609375-3.8115234375-1.658203125-6.802734375l-.0810546875-.998046875c-1.6806640625-.0654296875-3.673828125-.0693359375-5.9814453125-.0185546875-2.30859375.0546875-4.662109375.1611328125-7.0615234375.3212890625-2.3994140625.1611328125-4.71484375.33203125-6.9443359375.5126953125-2.232421875.1806640625-4.111328125.3330078125-5.642578125.45703125-.01953125.6044921875-.0205078125,1.6103515625-.0078125,3.0166015625.013671875,1.40625-.08984375,2.8212890625-.30859375,4.2470703125-.220703125,1.4248046875-.568359375,2.7265625-1.041015625,3.9052734375-.474609375,1.177734375-1.2080078125,1.837890625-2.201171875,1.9853515625-.927734375.142578125-1.986328125.2958984375-3.1796875.4599609375-1.193359375.1630859375-2.369140625.125-3.52734375-.1171875-1.154296875-.1728515625-2.146484375-.6298828125-2.9755859375-1.3662109375-.8310546875-.7373046875-1.3505859375-1.9677734375-1.5556640625-3.6943359375-.16796875-2.0625-.326171875-4.4296875-.4755859375-7.0986328125-.1494140625-2.66796875-.25-5.57421875-.3037109375-8.720703125-.078125-2.6064453125-.091796875-5.4716796875-.04296875-8.5908203125.048828125-3.12109375.22265625-6.333984375.525390625-9.642578125.30078125-3.3076171875.76953125-6.6298828125,1.404296875-9.96484375s1.515625-6.5224609375,2.642578125-9.5634765625c1.126953125-3.0390625,2.5234375-5.8662109375,4.189453125-8.4814453125,1.6630859375-2.61328125,3.7275390625-4.8583984375,6.189453125-6.7333984375,2.904296875-2.1796875,6.189453125-3.41796875,9.8515625-3.71484375,3.66015625-.2958984375,7.1953125.322265625,10.6044921875,1.85546875ZM49.601562499998181,102.57861328125c4.16796875-.671875,8.3251953125-1.259765625,12.47265625-1.7646484375,4.1474609375-.501953125,8.32421875-.8583984375,12.529296875-1.064453125-.181640625-4.744140625-.724609375-8.953125-1.626953125-12.6357421875-.900390625-3.6787109375-1.98828125-6.7578125-3.259765625-9.2353515625-1.2734375-2.4755859375-2.69921875-4.3369140625-4.2734375-5.583984375-1.5751953125-1.2451171875-3.12890625-1.8076171875-4.66015625-1.68359375-1.33203125.1083984375-2.658203125.9033203125-3.978515625,2.3837890625-1.3212890625,1.4814453125-2.490234375,3.5859375-3.5087890625,6.3154296875-1.01953125,2.7314453125-1.8701171875,6.06640625-2.556640625,10.0078125-.685546875,3.943359375-1.0654296875,8.36328125-1.1376953125,13.2607421875Z"/>
              <path class="cls-2" d="M206.677734374998181,78.49365234375c3.111328125,2.0263671875,5.51953125,4.6650390625,7.224609375,7.91015625,1.703125,3.24609375,2.43359375,6.6884765625,2.193359375,10.326171875-.26953125,4.1103515625-1.591796875,7.6513671875-3.96484375,10.625-2.37109375,2.9736328125-5.2578125,5.40234375-8.658203125,7.28515625-3.3984375,1.884765625-7.123046875,3.2587890625-11.1748046875,4.12109375-4.0517578125.865234375-7.8916015625,1.2431640625-11.5185546875,1.1357421875-.3232421875.1591796875-.6162109375.2666015625-.87890625.322265625-.263671875.0546875-.5595703125.12890625-.88671875.2216796875-1.193359375.1630859375-2.42578125.2626953125-3.6953125.2998046875-1.2705078125.0361328125-2.4365234375-.0888671875-3.498046875-.369140625-1.0625-.2822265625-1.9921875-.8095703125-2.791015625-1.583984375-.80078125-.7724609375-1.3291015625-1.9189453125-1.5859375-3.439453125-.193359375-.7216796875-.345703125-2.19921875-.4599609375-4.4375-.1142578125-2.2333984375-.2685546875-4.953125-.4599609375-8.1533203125-.130859375-3.2724609375-.3017578125-6.8271484375-.51171875-10.6650390625-.2109375-3.8369140625-.439453125-7.6875-.6845703125-11.5556640625-.3447265625-5.0634765625-.6904296875-10.162109375-1.0380859375-15.2958984375-.349609375-5.1298828125-.96875-10.2744140625-1.853515625-15.4306640625-.18359375-.5888671875-.158203125-1.125.0703125-1.61328125.099609375-.41015625.3681640625-.8173828125.8046875-1.2216796875.435546875-.40234375,1.115234375-.708984375,2.037109375-.9189453125.66015625-.119140625,1.384765625-.2783203125,2.171875-.4775390625.7890625-.1962890625,1.61328125-.3642578125,2.47265625-.501953125.8603515625-.1357421875,1.693359375-.203125,2.498046875-.2021484375.8037109375.001953125,1.513671875.078125,2.12890625.23046875,3.357421875-.7412109375,6.91796875-1.0478515625,10.681640625-.9169921875,3.763671875.1318359375,7.34765625.7294921875,10.75,1.79296875,3.404296875,1.06640625,6.41015625,2.615234375,9.021484375,4.6474609375,2.611328125,2.03515625,4.4462890625,4.6162109375,5.50390625,7.7470703125.4453125,1.37109375.763671875,2.8203125.955078125,4.345703125.189453125,1.52734375.15234375,3.12109375-.115234375,4.783203125-.267578125,1.666015625-.779296875,3.4150390625-1.53515625,5.251953125-.7548828125,1.837890625-1.82421875,3.75-3.203125,5.7373046875ZM180.234374999998181,74.70556640625c3.20703125-.125,5.8759765625-.6767578125,8.0078125-1.654296875,2.1328125-.9765625,3.6953125-2.1591796875,4.689453125-3.546875.9921875-1.38671875,1.41015625-2.8427734375,1.25390625-4.3720703125-.158203125-1.5283203125-.8515625-2.84765625-2.080078125-3.9541015625-1.23046875-1.1064453125-3.001953125-1.8828125-5.3154296875-2.3330078125-2.3154296875-.44921875-5.185546875-.2998046875-8.6083984375.4462890625.41015625,2.580078125.767578125,5.1318359375,1.072265625,7.65234375.3046875,2.5224609375.630859375,5.111328125.98046875,7.76171875ZM182.880859374998181,103.64306640625c3.626953125.107421875,6.642578125-.302734375,9.046875-1.2353515625,2.40234375-.931640625,4.169921875-2.080078125,5.2998046875-3.4453125,1.12890625-1.3642578125,1.6494140625-2.78125,1.5654296875-4.2490234375-.0859375-1.4658203125-.76953125-2.6845703125-2.0546875-3.6533203125-1.28515625-.966796875-3.17578125-1.5341796875-5.666015625-1.701171875-2.494140625-.166015625-5.5703125.333984375-9.2275390625,1.5009765625l1.0361328125,12.783203125Z"/>
            </g>
            <g>
              <path class="cls-2" d="M70.188476562498181,55.17236328125c2.6474609375,1.2607421875,4.9580078125,2.8818359375,6.9287109375,4.8671875,1.970703125,1.986328125,3.671875,4.193359375,5.109375,6.623046875,1.4375,2.4306640625,2.634765625,5.0302734375,3.59765625,7.80078125.9609375,2.7705078125,1.7587890625,5.5712890625,2.390625,8.400390625,1.3896484375,5.5849609375,2.384765625,11.2666015625,2.98828125,17.048828125.6015625,5.78125.974609375,11.6162109375,1.1162109375,17.5.0009765625,1.67578125-.0205078125,3.052734375-.0673828125,4.126953125-.046875,1.078125-.2265625,1.962890625-.5390625,2.658203125s-.78515625,1.26953125-1.41796875,1.72265625c-.6337890625.453125-1.5361328125.89453125-2.70703125,1.32421875-1.1220703125.2255859375-2.294921875.4208984375-3.521484375.5869140625s-2.40234375-.0732421875-3.525390625-.71875c-1.052734375-.583984375-1.978515625-1.6494140625-2.771484375-3.193359375-.796875-1.5439453125-1.349609375-3.8115234375-1.658203125-6.802734375l-.0810546875-.998046875c-1.6806640625-.0654296875-3.673828125-.0693359375-5.9814453125-.0185546875-2.30859375.0546875-4.662109375.1611328125-7.0615234375.3212890625-2.3994140625.1611328125-4.71484375.33203125-6.9443359375.5126953125-2.232421875.1806640625-4.111328125.3330078125-5.642578125.45703125-.01953125.6044921875-.0205078125,1.6103515625-.0078125,3.0166015625.013671875,1.40625-.08984375,2.8212890625-.30859375,4.2470703125-.220703125,1.4248046875-.568359375,2.7265625-1.041015625,3.9052734375-.474609375,1.177734375-1.2080078125,1.837890625-2.201171875,1.9853515625-.927734375.142578125-1.986328125.2958984375-3.1796875.4599609375-1.193359375.1630859375-2.369140625.125-3.52734375-.1171875-1.154296875-.1728515625-2.146484375-.6298828125-2.9755859375-1.3662109375-.8310546875-.7373046875-1.3505859375-1.9677734375-1.5556640625-3.6943359375-.16796875-2.0625-.326171875-4.4296875-.4755859375-7.0986328125-.1494140625-2.66796875-.25-5.57421875-.3037109375-8.720703125-.078125-2.6064453125-.091796875-5.4716796875-.04296875-8.5908203125.048828125-3.12109375.22265625-6.333984375.525390625-9.642578125.30078125-3.3076171875.76953125-6.6298828125,1.404296875-9.96484375s1.515625-6.5224609375,2.642578125-9.5634765625c1.126953125-3.0390625,2.5234375-5.8662109375,4.189453125-8.4814453125,1.6630859375-2.61328125,3.7275390625-4.8583984375,6.189453125-6.7333984375,2.904296875-2.1796875,6.189453125-3.41796875,9.8515625-3.71484375,3.66015625-.2958984375,7.1953125.322265625,10.6044921875,1.85546875ZM49.601562499998181,102.57861328125c4.16796875-.671875,8.3251953125-1.259765625,12.47265625-1.7646484375,4.1474609375-.501953125,8.32421875-.8583984375,12.529296875-1.064453125-.181640625-4.744140625-.724609375-8.953125-1.626953125-12.6357421875-.900390625-3.6787109375-1.98828125-6.7578125-3.259765625-9.2353515625-1.2734375-2.4755859375-2.69921875-4.3369140625-4.2734375-5.583984375-1.5751953125-1.2451171875-3.12890625-1.8076171875-4.66015625-1.68359375-1.33203125.1083984375-2.658203125.9033203125-3.978515625,2.3837890625-1.3212890625,1.4814453125-2.490234375,3.5859375-3.5087890625,6.3154296875-1.01953125,2.7314453125-1.8701171875,6.06640625-2.556640625,10.0078125-.685546875,3.943359375-1.0654296875,8.36328125-1.1376953125,13.2607421875Z"/>
              <path class="cls-2" d="M206.677734374998181,78.49365234375c3.111328125,2.0263671875,5.51953125,4.6650390625,7.224609375,7.91015625,1.703125,3.24609375,2.43359375,6.6884765625,2.193359375,10.326171875-.26953125,4.1103515625-1.591796875,7.6513671875-3.96484375,10.625-2.37109375,2.9736328125-5.2578125,5.40234375-8.658203125,7.28515625-3.3984375,1.884765625-7.123046875,3.2587890625-11.1748046875,4.12109375-4.0517578125.865234375-7.8916015625,1.2431640625-11.5185546875,1.1357421875-.3232421875.1591796875-.6162109375.2666015625-.87890625.322265625-.263671875.0546875-.5595703125.12890625-.88671875.2216796875-1.193359375.1630859375-2.42578125.2626953125-3.6953125.2998046875-1.2705078125.0361328125-2.4365234375-.0888671875-3.498046875-.369140625-1.0625-.2822265625-1.9921875-.8095703125-2.791015625-1.583984375-.80078125-.7724609375-1.3291015625-1.9189453125-1.5859375-3.439453125-.193359375-.7216796875-.345703125-2.19921875-.4599609375-4.4375-.1142578125-2.2333984375-.2685546875-4.953125-.4599609375-8.1533203125-.130859375-3.2724609375-.3017578125-6.8271484375-.51171875-10.6650390625-.2109375-3.8369140625-.439453125-7.6875-.6845703125-11.5556640625-.3447265625-5.0634765625-.6904296875-10.162109375-1.0380859375-15.2958984375-.349609375-5.1298828125-.96875-10.2744140625-1.853515625-15.4306640625-.18359375-.5888671875-.158203125-1.125.0703125-1.61328125.099609375-.41015625.3681640625-.8173828125.8046875-1.2216796875.435546875-.40234375,1.115234375-.708984375,2.037109375-.9189453125.66015625-.119140625,1.384765625-.2783203125,2.171875-.4775390625.7890625-.1962890625,1.61328125-.3642578125,2.47265625-.501953125.8603515625-.1357421875,1.693359375-.203125,2.498046875-.2021484375.8037109375.001953125,1.513671875.078125,2.12890625.23046875,3.357421875-.7412109375,6.91796875-1.0478515625,10.681640625-.9169921875,3.763671875.1318359375,7.34765625.7294921875,10.75,1.79296875,3.404296875,1.06640625,6.41015625,2.615234375,9.021484375,4.6474609375,2.611328125,2.03515625,4.4462890625,4.6162109375,5.50390625,7.7470703125.4453125,1.37109375.763671875,2.8203125.955078125,4.345703125.189453125,1.52734375.15234375,3.12109375-.115234375,4.783203125-.267578125,1.666015625-.779296875,3.4150390625-1.53515625,5.251953125-.7548828125,1.837890625-1.82421875,3.75-3.203125,5.7373046875ZM180.234374999998181,74.70556640625c3.20703125-.125,5.8759765625-.6767578125,8.0078125-1.654296875,2.1328125-.9765625,3.6953125-2.1591796875,4.689453125-3.546875.9921875-1.38671875,1.41015625-2.8427734375,1.25390625-4.3720703125-.158203125-1.5283203125-.8515625-2.84765625-2.080078125-3.9541015625-1.23046875-1.1064453125-3.001953125-1.8828125-5.3154296875-2.3330078125-2.3154296875-.44921875-5.185546875-.2998046875-8.6083984375.4462890625.41015625,2.580078125.767578125,5.1318359375,1.072265625,7.65234375.3046875,2.5224609375.630859375,5.111328125.98046875,7.76171875ZM182.880859374998181,103.64306640625c3.626953125.107421875,6.642578125-.302734375,9.046875-1.2353515625,2.40234375-.931640625,4.169921875-2.080078125,5.2998046875-3.4453125,1.12890625-1.3642578125,1.6494140625-2.78125,1.5654296875-4.2490234375-.0859375-1.4658203125-.76953125-2.6845703125-2.0546875-3.6533203125-1.28515625-.966796875-3.17578125-1.5341796875-5.666015625-1.701171875-2.494140625-.166015625-5.5703125.333984375-9.2275390625,1.5009765625l1.0361328125,12.783203125Z"/>
            </g>
          </g>
        </a>
        <path class="cls-2" d="M136.360351562498181,44.60400390625c-.1552734375,13.7421875-.2880859375,27.3642578125-.4033203125,40.8662109375-.115234375,13.5009765625-.1357421875,27.123046875-.05859375,40.8662109375-.154296875.9638671875-.4228515625,1.849609375-.806640625,2.6513671875-.38671875.64453125-.962890625,1.287109375-1.7314453125,1.9287109375-.76953125.64453125-1.8076171875,1.0439453125-3.115234375,1.2060546875-1.384765625.16015625-2.7890625.259765625-4.2119140625.30078125-1.423828125.0400390625-2.7509765625-.1201171875-3.98046875-.4814453125-1.2314453125-.3623046875-2.2900390625-1.00390625-3.173828125-1.9287109375-.884765625-.923828125-1.44140625-2.3095703125-1.6728515625-4.1591796875-.1552734375-.8837890625-.23046875-2.7314453125-.23046875-5.5458984375,0-2.8115234375.0576171875-6.2080078125.1728515625-10.185546875.115234375-3.978515625.2490234375-8.3583984375.404296875-13.140625.15234375-4.7802734375.345703125-9.5830078125.576171875-14.4052734375.154296875-4.822265625.365234375-9.482421875.634765625-13.9833984375.26953125-4.5.48046875-8.517578125.634765625-12.0556640625.23046875-4.0986328125.4619140625-7.9560546875.6923828125-11.572265625-.0771484375-.7236328125.0380859375-1.365234375.3466796875-1.9287109375.23046875-.482421875.5947265625-.904296875,1.095703125-1.265625.5-.3623046875,1.287109375-.58203125,2.365234375-.6630859375h3.75c1.4228515625,0,2.787109375.1015625,4.0966796875.30078125,1.3076171875.2021484375,2.4033203125.54296875,3.2880859375,1.025390625.8837890625.4814453125,1.3271484375,1.205078125,1.3271484375,2.169921875Z"/>
      </g>
      <g>
        <a xlink:href="https://www.notion.so/congruence/B-Event-1f1a5b08a72c49f5ab60f2e0793fd0a8?pvs=4">
          <g>
            <g>
              <path class="cls-3" d="M70.188476562498181,55.17236328125c2.6474609375,1.2607421875,4.9580078125,2.8818359375,6.9287109375,4.8671875,1.970703125,1.986328125,3.671875,4.193359375,5.109375,6.623046875,1.4375,2.4306640625,2.634765625,5.0302734375,3.59765625,7.80078125.9609375,2.7705078125,1.7587890625,5.5712890625,2.390625,8.400390625,1.3896484375,5.5849609375,2.384765625,11.2666015625,2.98828125,17.048828125.6015625,5.78125.974609375,11.6162109375,1.1162109375,17.5.0009765625,1.67578125-.0205078125,3.052734375-.0673828125,4.126953125-.046875,1.078125-.2265625,1.962890625-.5390625,2.658203125s-.78515625,1.26953125-1.41796875,1.72265625c-.6337890625.453125-1.5361328125.89453125-2.70703125,1.32421875-1.1220703125.2255859375-2.294921875.4208984375-3.521484375.5869140625s-2.40234375-.0732421875-3.525390625-.71875c-1.052734375-.583984375-1.978515625-1.6494140625-2.771484375-3.193359375-.796875-1.5439453125-1.349609375-3.8115234375-1.658203125-6.802734375l-.0810546875-.998046875c-1.6806640625-.0654296875-3.673828125-.0693359375-5.9814453125-.0185546875-2.30859375.0546875-4.662109375.1611328125-7.0615234375.3212890625-2.3994140625.1611328125-4.71484375.33203125-6.9443359375.5126953125-2.232421875.1806640625-4.111328125.3330078125-5.642578125.45703125-.01953125.6044921875-.0205078125,1.6103515625-.0078125,3.0166015625.013671875,1.40625-.08984375,2.8212890625-.30859375,4.2470703125-.220703125,1.4248046875-.568359375,2.7265625-1.041015625,3.9052734375-.474609375,1.177734375-1.2080078125,1.837890625-2.201171875,1.9853515625-.927734375.142578125-1.986328125.2958984375-3.1796875.4599609375-1.193359375.1630859375-2.369140625.125-3.52734375-.1171875-1.154296875-.1728515625-2.146484375-.6298828125-2.9755859375-1.3662109375-.8310546875-.7373046875-1.3505859375-1.9677734375-1.5556640625-3.6943359375-.16796875-2.0625-.326171875-4.4296875-.4755859375-7.0986328125-.1494140625-2.66796875-.25-5.57421875-.3037109375-8.720703125-.078125-2.6064453125-.091796875-5.4716796875-.04296875-8.5908203125.048828125-3.12109375.22265625-6.333984375.525390625-9.642578125.30078125-3.3076171875.76953125-6.6298828125,1.404296875-9.96484375s1.515625-6.5224609375,2.642578125-9.5634765625c1.126953125-3.0390625,2.5234375-5.8662109375,4.189453125-8.4814453125,1.6630859375-2.61328125,3.7275390625-4.8583984375,6.189453125-6.7333984375,2.904296875-2.1796875,6.189453125-3.41796875,9.8515625-3.71484375,3.66015625-.2958984375,7.1953125.322265625,10.6044921875,1.85546875ZM49.601562499998181,102.57861328125c4.16796875-.671875,8.3251953125-1.259765625,12.47265625-1.7646484375,4.1474609375-.501953125,8.32421875-.8583984375,12.529296875-1.064453125-.181640625-4.744140625-.724609375-8.953125-1.626953125-12.6357421875-.900390625-3.6787109375-1.98828125-6.7578125-3.259765625-9.2353515625-1.2734375-2.4755859375-2.69921875-4.3369140625-4.2734375-5.583984375-1.5751953125-1.2451171875-3.12890625-1.8076171875-4.66015625-1.68359375-1.33203125.1083984375-2.658203125.9033203125-3.978515625,2.3837890625-1.3212890625,1.4814453125-2.490234375,3.5859375-3.5087890625,6.3154296875-1.01953125,2.7314453125-1.8701171875,6.06640625-2.556640625,10.0078125-.685546875,3.943359375-1.0654296875,8.36328125-1.1376953125,13.2607421875Z"/>
              <path class="cls-3" d="M206.677734374998181,78.49365234375c3.111328125,2.0263671875,5.51953125,4.6650390625,7.224609375,7.91015625,1.703125,3.24609375,2.43359375,6.6884765625,2.193359375,10.326171875-.26953125,4.1103515625-1.591796875,7.6513671875-3.96484375,10.625-2.37109375,2.9736328125-5.2578125,5.40234375-8.658203125,7.28515625-3.3984375,1.884765625-7.123046875,3.2587890625-11.1748046875,4.12109375-4.0517578125.865234375-7.8916015625,1.2431640625-11.5185546875,1.1357421875-.3232421875.1591796875-.6162109375.2666015625-.87890625.322265625-.263671875.0546875-.5595703125.12890625-.88671875.2216796875-1.193359375.1630859375-2.42578125.2626953125-3.6953125.2998046875-1.2705078125.0361328125-2.4365234375-.0888671875-3.498046875-.369140625-1.0625-.2822265625-1.9921875-.8095703125-2.791015625-1.583984375-.80078125-.7724609375-1.3291015625-1.9189453125-1.5859375-3.439453125-.193359375-.7216796875-.345703125-2.19921875-.4599609375-4.4375-.1142578125-2.2333984375-.2685546875-4.953125-.4599609375-8.1533203125-.130859375-3.2724609375-.3017578125-6.8271484375-.51171875-10.6650390625-.2109375-3.8369140625-.439453125-7.6875-.6845703125-11.5556640625-.3447265625-5.0634765625-.6904296875-10.162109375-1.0380859375-15.2958984375-.349609375-5.1298828125-.96875-10.2744140625-1.853515625-15.4306640625-.18359375-.5888671875-.158203125-1.125.0703125-1.61328125.099609375-.41015625.3681640625-.8173828125.8046875-1.2216796875.435546875-.40234375,1.115234375-.708984375,2.037109375-.9189453125.66015625-.119140625,1.384765625-.2783203125,2.171875-.4775390625.7890625-.1962890625,1.61328125-.3642578125,2.47265625-.501953125.8603515625-.1357421875,1.693359375-.203125,2.498046875-.2021484375.8037109375.001953125,1.513671875.078125,2.12890625.23046875,3.357421875-.7412109375,6.91796875-1.0478515625,10.681640625-.9169921875,3.763671875.1318359375,7.34765625.7294921875,10.75,1.79296875,3.404296875,1.06640625,6.41015625,2.615234375,9.021484375,4.6474609375,2.611328125,2.03515625,4.4462890625,4.6162109375,5.50390625,7.7470703125.4453125,1.37109375.763671875,2.8203125.955078125,4.345703125.189453125,1.52734375.15234375,3.12109375-.115234375,4.783203125-.267578125,1.666015625-.779296875,3.4150390625-1.53515625,5.251953125-.7548828125,1.837890625-1.82421875,3.75-3.203125,5.7373046875ZM180.234374999998181,74.70556640625c3.20703125-.125,5.8759765625-.6767578125,8.0078125-1.654296875,2.1328125-.9765625,3.6953125-2.1591796875,4.689453125-3.546875.9921875-1.38671875,1.41015625-2.8427734375,1.25390625-4.3720703125-.158203125-1.5283203125-.8515625-2.84765625-2.080078125-3.9541015625-1.23046875-1.1064453125-3.001953125-1.8828125-5.3154296875-2.3330078125-2.3154296875-.44921875-5.185546875-.2998046875-8.6083984375.4462890625.41015625,2.580078125.767578125,5.1318359375,1.072265625,7.65234375.3046875,2.5224609375.630859375,5.111328125.98046875,7.76171875ZM182.880859374998181,103.64306640625c3.626953125.107421875,6.642578125-.302734375,9.046875-1.2353515625,2.40234375-.931640625,4.169921875-2.080078125,5.2998046875-3.4453125,1.12890625-1.3642578125,1.6494140625-2.78125,1.5654296875-4.2490234375-.0859375-1.4658203125-.76953125-2.6845703125-2.0546875-3.6533203125-1.28515625-.966796875-3.17578125-1.5341796875-5.666015625-1.701171875-2.494140625-.166015625-5.5703125.333984375-9.2275390625,1.5009765625l1.0361328125,12.783203125Z"/>
            </g>
            <g>
              <path class="cls-3" d="M70.188476562498181,55.17236328125c2.6474609375,1.2607421875,4.9580078125,2.8818359375,6.9287109375,4.8671875,1.970703125,1.986328125,3.671875,4.193359375,5.109375,6.623046875,1.4375,2.4306640625,2.634765625,5.0302734375,3.59765625,7.80078125.9609375,2.7705078125,1.7587890625,5.5712890625,2.390625,8.400390625,1.3896484375,5.5849609375,2.384765625,11.2666015625,2.98828125,17.048828125.6015625,5.78125.974609375,11.6162109375,1.1162109375,17.5.0009765625,1.67578125-.0205078125,3.052734375-.0673828125,4.126953125-.046875,1.078125-.2265625,1.962890625-.5390625,2.658203125s-.78515625,1.26953125-1.41796875,1.72265625c-.6337890625.453125-1.5361328125.89453125-2.70703125,1.32421875-1.1220703125.2255859375-2.294921875.4208984375-3.521484375.5869140625s-2.40234375-.0732421875-3.525390625-.71875c-1.052734375-.583984375-1.978515625-1.6494140625-2.771484375-3.193359375-.796875-1.5439453125-1.349609375-3.8115234375-1.658203125-6.802734375l-.0810546875-.998046875c-1.6806640625-.0654296875-3.673828125-.0693359375-5.9814453125-.0185546875-2.30859375.0546875-4.662109375.1611328125-7.0615234375.3212890625-2.3994140625.1611328125-4.71484375.33203125-6.9443359375.5126953125-2.232421875.1806640625-4.111328125.3330078125-5.642578125.45703125-.01953125.6044921875-.0205078125,1.6103515625-.0078125,3.0166015625.013671875,1.40625-.08984375,2.8212890625-.30859375,4.2470703125-.220703125,1.4248046875-.568359375,2.7265625-1.041015625,3.9052734375-.474609375,1.177734375-1.2080078125,1.837890625-2.201171875,1.9853515625-.927734375.142578125-1.986328125.2958984375-3.1796875.4599609375-1.193359375.1630859375-2.369140625.125-3.52734375-.1171875-1.154296875-.1728515625-2.146484375-.6298828125-2.9755859375-1.3662109375-.8310546875-.7373046875-1.3505859375-1.9677734375-1.5556640625-3.6943359375-.16796875-2.0625-.326171875-4.4296875-.4755859375-7.0986328125-.1494140625-2.66796875-.25-5.57421875-.3037109375-8.720703125-.078125-2.6064453125-.091796875-5.4716796875-.04296875-8.5908203125.048828125-3.12109375.22265625-6.333984375.525390625-9.642578125.30078125-3.3076171875.76953125-6.6298828125,1.404296875-9.96484375s1.515625-6.5224609375,2.642578125-9.5634765625c1.126953125-3.0390625,2.5234375-5.8662109375,4.189453125-8.4814453125,1.6630859375-2.61328125,3.7275390625-4.8583984375,6.189453125-6.7333984375,2.904296875-2.1796875,6.189453125-3.41796875,9.8515625-3.71484375,3.66015625-.2958984375,7.1953125.322265625,10.6044921875,1.85546875ZM49.601562499998181,102.57861328125c4.16796875-.671875,8.3251953125-1.259765625,12.47265625-1.7646484375,4.1474609375-.501953125,8.32421875-.8583984375,12.529296875-1.064453125-.181640625-4.744140625-.724609375-8.953125-1.626953125-12.6357421875-.900390625-3.6787109375-1.98828125-6.7578125-3.259765625-9.2353515625-1.2734375-2.4755859375-2.69921875-4.3369140625-4.2734375-5.583984375-1.5751953125-1.2451171875-3.12890625-1.8076171875-4.66015625-1.68359375-1.33203125.1083984375-2.658203125.9033203125-3.978515625,2.3837890625-1.3212890625,1.4814453125-2.490234375,3.5859375-3.5087890625,6.3154296875-1.01953125,2.7314453125-1.8701171875,6.06640625-2.556640625,10.0078125-.685546875,3.943359375-1.0654296875,8.36328125-1.1376953125,13.2607421875Z"/>
              <path class="cls-3" d="M206.677734374998181,78.49365234375c3.111328125,2.0263671875,5.51953125,4.6650390625,7.224609375,7.91015625,1.703125,3.24609375,2.43359375,6.6884765625,2.193359375,10.326171875-.26953125,4.1103515625-1.591796875,7.6513671875-3.96484375,10.625-2.37109375,2.9736328125-5.2578125,5.40234375-8.658203125,7.28515625-3.3984375,1.884765625-7.123046875,3.2587890625-11.1748046875,4.12109375-4.0517578125.865234375-7.8916015625,1.2431640625-11.5185546875,1.1357421875-.3232421875.1591796875-.6162109375.2666015625-.87890625.322265625-.263671875.0546875-.5595703125.12890625-.88671875.2216796875-1.193359375.1630859375-2.42578125.2626953125-3.6953125.2998046875-1.2705078125.0361328125-2.4365234375-.0888671875-3.498046875-.369140625-1.0625-.2822265625-1.9921875-.8095703125-2.791015625-1.583984375-.80078125-.7724609375-1.3291015625-1.9189453125-1.5859375-3.439453125-.193359375-.7216796875-.345703125-2.19921875-.4599609375-4.4375-.1142578125-2.2333984375-.2685546875-4.953125-.4599609375-8.1533203125-.130859375-3.2724609375-.3017578125-6.8271484375-.51171875-10.6650390625-.2109375-3.8369140625-.439453125-7.6875-.6845703125-11.5556640625-.3447265625-5.0634765625-.6904296875-10.162109375-1.0380859375-15.2958984375-.349609375-5.1298828125-.96875-10.2744140625-1.853515625-15.4306640625-.18359375-.5888671875-.158203125-1.125.0703125-1.61328125.099609375-.41015625.3681640625-.8173828125.8046875-1.2216796875.435546875-.40234375,1.115234375-.708984375,2.037109375-.9189453125.66015625-.119140625,1.384765625-.2783203125,2.171875-.4775390625.7890625-.1962890625,1.61328125-.3642578125,2.47265625-.501953125.8603515625-.1357421875,1.693359375-.203125,2.498046875-.2021484375.8037109375.001953125,1.513671875.078125,2.12890625.23046875,3.357421875-.7412109375,6.91796875-1.0478515625,10.681640625-.9169921875,3.763671875.1318359375,7.34765625.7294921875,10.75,1.79296875,3.404296875,1.06640625,6.41015625,2.615234375,9.021484375,4.6474609375,2.611328125,2.03515625,4.4462890625,4.6162109375,5.50390625,7.7470703125.4453125,1.37109375.763671875,2.8203125.955078125,4.345703125.189453125,1.52734375.15234375,3.12109375-.115234375,4.783203125-.267578125,1.666015625-.779296875,3.4150390625-1.53515625,5.251953125-.7548828125,1.837890625-1.82421875,3.75-3.203125,5.7373046875ZM180.234374999998181,74.70556640625c3.20703125-.125,5.8759765625-.6767578125,8.0078125-1.654296875,2.1328125-.9765625,3.6953125-2.1591796875,4.689453125-3.546875.9921875-1.38671875,1.41015625-2.8427734375,1.25390625-4.3720703125-.158203125-1.5283203125-.8515625-2.84765625-2.080078125-3.9541015625-1.23046875-1.1064453125-3.001953125-1.8828125-5.3154296875-2.3330078125-2.3154296875-.44921875-5.185546875-.2998046875-8.6083984375.4462890625.41015625,2.580078125.767578125,5.1318359375,1.072265625,7.65234375.3046875,2.5224609375.630859375,5.111328125.98046875,7.76171875ZM182.880859374998181,103.64306640625c3.626953125.107421875,6.642578125-.302734375,9.046875-1.2353515625,2.40234375-.931640625,4.169921875-2.080078125,5.2998046875-3.4453125,1.12890625-1.3642578125,1.6494140625-2.78125,1.5654296875-4.2490234375-.0859375-1.4658203125-.76953125-2.6845703125-2.0546875-3.6533203125-1.28515625-.966796875-3.17578125-1.5341796875-5.666015625-1.701171875-2.494140625-.166015625-5.5703125.333984375-9.2275390625,1.5009765625l1.0361328125,12.783203125Z"/>
            </g>
            <g>
              <path class="cls-3" d="M70.188476562498181,55.17236328125c2.6474609375,1.2607421875,4.9580078125,2.8818359375,6.9287109375,4.8671875,1.970703125,1.986328125,3.671875,4.193359375,5.109375,6.623046875,1.4375,2.4306640625,2.634765625,5.0302734375,3.59765625,7.80078125.9609375,2.7705078125,1.7587890625,5.5712890625,2.390625,8.400390625,1.3896484375,5.5849609375,2.384765625,11.2666015625,2.98828125,17.048828125.6015625,5.78125.974609375,11.6162109375,1.1162109375,17.5.0009765625,1.67578125-.0205078125,3.052734375-.0673828125,4.126953125-.046875,1.078125-.2265625,1.962890625-.5390625,2.658203125s-.78515625,1.26953125-1.41796875,1.72265625c-.6337890625.453125-1.5361328125.89453125-2.70703125,1.32421875-1.1220703125.2255859375-2.294921875.4208984375-3.521484375.5869140625s-2.40234375-.0732421875-3.525390625-.71875c-1.052734375-.583984375-1.978515625-1.6494140625-2.771484375-3.193359375-.796875-1.5439453125-1.349609375-3.8115234375-1.658203125-6.802734375l-.0810546875-.998046875c-1.6806640625-.0654296875-3.673828125-.0693359375-5.9814453125-.0185546875-2.30859375.0546875-4.662109375.1611328125-7.0615234375.3212890625-2.3994140625.1611328125-4.71484375.33203125-6.9443359375.5126953125-2.232421875.1806640625-4.111328125.3330078125-5.642578125.45703125-.01953125.6044921875-.0205078125,1.6103515625-.0078125,3.0166015625.013671875,1.40625-.08984375,2.8212890625-.30859375,4.2470703125-.220703125,1.4248046875-.568359375,2.7265625-1.041015625,3.9052734375-.474609375,1.177734375-1.2080078125,1.837890625-2.201171875,1.9853515625-.927734375.142578125-1.986328125.2958984375-3.1796875.4599609375-1.193359375.1630859375-2.369140625.125-3.52734375-.1171875-1.154296875-.1728515625-2.146484375-.6298828125-2.9755859375-1.3662109375-.8310546875-.7373046875-1.3505859375-1.9677734375-1.5556640625-3.6943359375-.16796875-2.0625-.326171875-4.4296875-.4755859375-7.0986328125-.1494140625-2.66796875-.25-5.57421875-.3037109375-8.720703125-.078125-2.6064453125-.091796875-5.4716796875-.04296875-8.5908203125.048828125-3.12109375.22265625-6.333984375.525390625-9.642578125.30078125-3.3076171875.76953125-6.6298828125,1.404296875-9.96484375s1.515625-6.5224609375,2.642578125-9.5634765625c1.126953125-3.0390625,2.5234375-5.8662109375,4.189453125-8.4814453125,1.6630859375-2.61328125,3.7275390625-4.8583984375,6.189453125-6.7333984375,2.904296875-2.1796875,6.189453125-3.41796875,9.8515625-3.71484375,3.66015625-.2958984375,7.1953125.322265625,10.6044921875,1.85546875ZM49.601562499998181,102.57861328125c4.16796875-.671875,8.3251953125-1.259765625,12.47265625-1.7646484375,4.1474609375-.501953125,8.32421875-.8583984375,12.529296875-1.064453125-.181640625-4.744140625-.724609375-8.953125-1.626953125-12.6357421875-.900390625-3.6787109375-1.98828125-6.7578125-3.259765625-9.2353515625-1.2734375-2.4755859375-2.69921875-4.3369140625-4.2734375-5.583984375-1.5751953125-1.2451171875-3.12890625-1.8076171875-4.66015625-1.68359375-1.33203125.1083984375-2.658203125.9033203125-3.978515625,2.3837890625-1.3212890625,1.4814453125-2.490234375,3.5859375-3.5087890625,6.3154296875-1.01953125,2.7314453125-1.8701171875,6.06640625-2.556640625,10.0078125-.685546875,3.943359375-1.0654296875,8.36328125-1.1376953125,13.2607421875Z"/>
              <path class="cls-3" d="M206.677734374998181,78.49365234375c3.111328125,2.0263671875,5.51953125,4.6650390625,7.224609375,7.91015625,1.703125,3.24609375,2.43359375,6.6884765625,2.193359375,10.326171875-.26953125,4.1103515625-1.591796875,7.6513671875-3.96484375,10.625-2.37109375,2.9736328125-5.2578125,5.40234375-8.658203125,7.28515625-3.3984375,1.884765625-7.123046875,3.2587890625-11.1748046875,4.12109375-4.0517578125.865234375-7.8916015625,1.2431640625-11.5185546875,1.1357421875-.3232421875.1591796875-.6162109375.2666015625-.87890625.322265625-.263671875.0546875-.5595703125.12890625-.88671875.2216796875-1.193359375.1630859375-2.42578125.2626953125-3.6953125.2998046875-1.2705078125.0361328125-2.4365234375-.0888671875-3.498046875-.369140625-1.0625-.2822265625-1.9921875-.8095703125-2.791015625-1.583984375-.80078125-.7724609375-1.3291015625-1.9189453125-1.5859375-3.439453125-.193359375-.7216796875-.345703125-2.19921875-.4599609375-4.4375-.1142578125-2.2333984375-.2685546875-4.953125-.4599609375-8.1533203125-.130859375-3.2724609375-.3017578125-6.8271484375-.51171875-10.6650390625-.2109375-3.8369140625-.439453125-7.6875-.6845703125-11.5556640625-.3447265625-5.0634765625-.6904296875-10.162109375-1.0380859375-15.2958984375-.349609375-5.1298828125-.96875-10.2744140625-1.853515625-15.4306640625-.18359375-.5888671875-.158203125-1.125.0703125-1.61328125.099609375-.41015625.3681640625-.8173828125.8046875-1.2216796875.435546875-.40234375,1.115234375-.708984375,2.037109375-.9189453125.66015625-.119140625,1.384765625-.2783203125,2.171875-.4775390625.7890625-.1962890625,1.61328125-.3642578125,2.47265625-.501953125.8603515625-.1357421875,1.693359375-.203125,2.498046875-.2021484375.8037109375.001953125,1.513671875.078125,2.12890625.23046875,3.357421875-.7412109375,6.91796875-1.0478515625,10.681640625-.9169921875,3.763671875.1318359375,7.34765625.7294921875,10.75,1.79296875,3.404296875,1.06640625,6.41015625,2.615234375,9.021484375,4.6474609375,2.611328125,2.03515625,4.4462890625,4.6162109375,5.50390625,7.7470703125.4453125,1.37109375.763671875,2.8203125.955078125,4.345703125.189453125,1.52734375.15234375,3.12109375-.115234375,4.783203125-.267578125,1.666015625-.779296875,3.4150390625-1.53515625,5.251953125-.7548828125,1.837890625-1.82421875,3.75-3.203125,5.7373046875ZM180.234374999998181,74.70556640625c3.20703125-.125,5.8759765625-.6767578125,8.0078125-1.654296875,2.1328125-.9765625,3.6953125-2.1591796875,4.689453125-3.546875.9921875-1.38671875,1.41015625-2.8427734375,1.25390625-4.3720703125-.158203125-1.5283203125-.8515625-2.84765625-2.080078125-3.9541015625-1.23046875-1.1064453125-3.001953125-1.8828125-5.3154296875-2.3330078125-2.3154296875-.44921875-5.185546875-.2998046875-8.6083984375.4462890625.41015625,2.580078125.767578125,5.1318359375,1.072265625,7.65234375.3046875,2.5224609375.630859375,5.111328125.98046875,7.76171875ZM182.880859374998181,103.64306640625c3.626953125.107421875,6.642578125-.302734375,9.046875-1.2353515625,2.40234375-.931640625,4.169921875-2.080078125,5.2998046875-3.4453125,1.12890625-1.3642578125,1.6494140625-2.78125,1.5654296875-4.2490234375-.0859375-1.4658203125-.76953125-2.6845703125-2.0546875-3.6533203125-1.28515625-.966796875-3.17578125-1.5341796875-5.666015625-1.701171875-2.494140625-.166015625-5.5703125.333984375-9.2275390625,1.5009765625l1.0361328125,12.783203125Z"/>
            </g>
          </g>
        </a>
        <path class="cls-3" d="M136.360351562498181,44.60400390625c-.1552734375,13.7421875-.2880859375,27.3642578125-.4033203125,40.8662109375-.115234375,13.5009765625-.1357421875,27.123046875-.05859375,40.8662109375-.154296875.9638671875-.4228515625,1.849609375-.806640625,2.6513671875-.38671875.64453125-.962890625,1.287109375-1.7314453125,1.9287109375-.76953125.64453125-1.8076171875,1.0439453125-3.115234375,1.2060546875-1.384765625.16015625-2.7890625.259765625-4.2119140625.30078125-1.423828125.0400390625-2.7509765625-.1201171875-3.98046875-.4814453125-1.2314453125-.3623046875-2.2900390625-1.00390625-3.173828125-1.9287109375-.884765625-.923828125-1.44140625-2.3095703125-1.6728515625-4.1591796875-.1552734375-.8837890625-.23046875-2.7314453125-.23046875-5.5458984375,0-2.8115234375.0576171875-6.2080078125.1728515625-10.185546875.115234375-3.978515625.2490234375-8.3583984375.404296875-13.140625.15234375-4.7802734375.345703125-9.5830078125.576171875-14.4052734375.154296875-4.822265625.365234375-9.482421875.634765625-13.9833984375.26953125-4.5.48046875-8.517578125.634765625-12.0556640625.23046875-4.0986328125.4619140625-7.9560546875.6923828125-11.572265625-.0771484375-.7236328125.0380859375-1.365234375.3466796875-1.9287109375.23046875-.482421875.5947265625-.904296875,1.095703125-1.265625.5-.3623046875,1.287109375-.58203125,2.365234375-.6630859375h3.75c1.4228515625,0,2.787109375.1015625,4.0966796875.30078125,1.3076171875.2021484375,2.4033203125.54296875,3.2880859375,1.025390625.8837890625.4814453125,1.3271484375,1.205078125,1.3271484375,2.169921875Z"/>
      </g>
    </g>
  </a>
</svg>