<?xml version="1.0" encoding="UTF-8"?>
<svg id="Content" xmlns="http://www.w3.org/2000/svg" xmlns:xlink="http://www.w3.org/1999/xlink" viewBox="0 0 280 280">
  <defs>
    <style>
      .cls-1 {
        stroke: #665451;
        stroke-width: 50px;
      }

      .cls-1, .cls-2 {
        fill: none;
        stroke-linecap: round;
        stroke-linejoin: round;
      }

      .cls-3 {
        fill: #fff;
      }

      .cls-2 {
        stroke: #998675;
        stroke-width: 2px;
      }
    </style>
  </defs>
  <a xlink:href="https://www.notion.so/congruence/A-given-that-not-B-ac8e06fdaa834559a392a79ea756e970?pvs=4">
    <g>
      <g>
        <a xlink:href="https://www.notion.so/congruence/B-Event-1f1a5b08a72c49f5ab60f2e0793fd0a8?pvs=4">
          <path class="cls-3" d="M66.986328125,61.17431640625c2.61328125,1.244140625,4.892578125,2.845703125,6.837890625,4.8037109375,1.9453125,1.9609375,3.625,4.138671875,5.04296875,6.537109375s2.6015625,4.96484375,3.55078125,7.697265625c.94921875,2.736328125,1.734375,5.4990234375,2.3583984375,8.2919921875,1.3720703125,5.5107421875,2.3544921875,11.119140625,2.9501953125,16.8251953125.59375,5.7060546875.9609375,11.4638671875,1.1015625,17.2724609375.0009765625,1.6533203125-.0205078125,3.01171875-.06640625,4.072265625-.046875,1.0634765625-.224609375,1.9375-.53125,2.623046875-.30859375.6875-.7763671875,1.2529296875-1.400390625,1.701171875-.6259765625.4462890625-1.515625.8818359375-2.671875,1.3076171875-1.107421875.2216796875-2.265625.4140625-3.474609375.5791015625-1.2119140625.1630859375-2.3720703125-.0732421875-3.48046875-.7109375-1.0390625-.576171875-1.9521484375-1.626953125-2.736328125-3.1513671875-.78515625-1.5234375-1.330078125-3.76171875-1.634765625-6.712890625l-.080078125-.984375c-1.658203125-.0654296875-3.6259765625-.0693359375-5.904296875-.0185546875-2.27734375.052734375-4.599609375.158203125-6.96875.31640625-2.3671875.1591796875-4.65234375.3271484375-6.853515625.505859375-2.2021484375.1787109375-4.05859375.3291015625-5.568359375.451171875-.0185546875.595703125-.021484375,1.5888671875-.0078125,2.9765625s-.0888671875,2.78515625-.3046875,4.19140625c-.21875,1.4072265625-.560546875,2.6923828125-1.02734375,3.853515625-.46875,1.1630859375-1.1923828125,1.8154296875-2.171875,1.9619140625-.916015625.138671875-1.9609375.291015625-3.138671875.453125-1.177734375.16015625-2.337890625.1220703125-3.482421875-.1142578125-1.138671875-.171875-2.1171875-.6240234375-2.935546875-1.3505859375-.8203125-.7275390625-1.33203125-1.9404296875-1.5361328125-3.6455078125-.1650390625-2.0361328125-.3212890625-4.3720703125-.46875-7.005859375-.1474609375-2.6318359375-.2470703125-5.501953125-.2998046875-8.6064453125-.0771484375-2.57421875-.08984375-5.3994140625-.0419921875-8.4794921875.0478515625-3.0791015625.220703125-6.2509765625.5185546875-9.515625.296875-3.265625.759765625-6.544921875,1.3857421875-9.8359375s1.4951171875-6.4365234375,2.6083984375-9.4375c1.111328125-3,2.490234375-5.7900390625,4.1337890625-8.37109375,1.6416015625-2.5791015625,3.6787109375-4.794921875,6.1083984375-6.646484375,2.8671875-2.1484375,6.109375-3.3720703125,9.72265625-3.6640625,3.61328125-.29296875,7.1025390625.3173828125,10.466796875,1.830078125ZM46.6689453125,107.96044921875c4.11328125-.6630859375,8.2158203125-1.2431640625,12.3095703125-1.740234375,4.0927734375-.4970703125,8.21484375-.84765625,12.365234375-1.0517578125-.1796875-4.6806640625-.7158203125-8.8359375-1.60546875-12.4697265625-.888671875-3.630859375-1.962890625-6.6689453125-3.21875-9.115234375-1.255859375-2.443359375-2.662109375-4.28125-4.216796875-5.5107421875s-3.087890625-1.783203125-4.59765625-1.6611328125c-1.3154296875.1064453125-2.6240234375.890625-3.927734375,2.3515625-1.3046875,1.4619140625-2.4580078125,3.541015625-3.462890625,6.2333984375-1.005859375,2.6943359375-1.8466796875,5.9873046875-2.5234375,9.876953125-.67578125,3.8916015625-1.0517578125,8.2548828125-1.1220703125,13.0869140625Z"/>
        </a>
        <a xlink:href="https://www.notion.so/congruence/B-Event-1f1a5b08a72c49f5ab60f2e0793fd0a8?pvs=4">
          <path class="cls-3" d="M202.31640625,83.40966796875c3.072265625,2,5.44921875,4.603515625,7.130859375,7.8056640625,1.681640625,3.2041015625,2.40234375,6.6005859375,2.1640625,10.19140625-.265625,4.0576171875-1.5703125,7.552734375-3.912109375,10.4853515625-2.341796875,2.935546875-5.189453125,5.3330078125-8.5439453125,7.19140625-3.3564453125,1.859375-7.03125,3.216796875-11.0302734375,4.068359375-3.998046875.8525390625-7.787109375,1.2265625-11.3681640625,1.119140625-.3193359375.158203125-.607421875.263671875-.8662109375.318359375-.26171875.0537109375-.552734375.126953125-.8759765625.220703125-1.1767578125.16015625-2.3935546875.2587890625-3.646484375.294921875-1.2548828125.03515625-2.4052734375-.0869140625-3.4521484375-.3662109375-1.048828125-.27734375-1.966796875-.7978515625-2.755859375-1.5615234375-.791015625-.7626953125-1.3115234375-1.8935546875-1.564453125-3.3955078125-.19140625-.7119140625-.341796875-2.1708984375-.4541015625-4.37890625-.1142578125-2.205078125-.2646484375-4.888671875-.4541015625-8.048828125-.1298828125-3.228515625-.296875-6.7373046875-.5048828125-10.5244140625-.2080078125-3.7861328125-.43359375-7.5869140625-.6767578125-11.4033203125-.33984375-4.9990234375-.6806640625-10.0302734375-1.0234375-15.095703125-.345703125-5.064453125-.955078125-10.1416015625-1.830078125-15.2294921875-.1796875-.5810546875-.15625-1.111328125.0703125-1.59375.0986328125-.404296875.36328125-.8056640625.794921875-1.205078125.4296875-.3974609375,1.099609375-.7001953125,2.009765625-.90625.650390625-.119140625,1.3671875-.2763671875,2.14453125-.4716796875s1.58984375-.3603515625,2.439453125-.4951171875c.8486328125-.1337890625,1.6708984375-.2001953125,2.46484375-.2001953125.79296875.001953125,1.494140625.078125,2.1015625.2255859375,3.314453125-.7294921875,6.8271484375-1.03125,10.5419921875-.90234375,3.7138671875.12890625,7.2509765625.71875,10.6103515625,1.76953125s6.326171875,2.5791015625,8.9033203125,4.5859375c2.5771484375,2.0087890625,4.3876953125,4.556640625,5.4306640625,7.6455078125.4404296875,1.353515625.7548828125,2.783203125.943359375,4.2880859375.1875,1.5078125.150390625,3.0810546875-.11328125,4.72265625-.2646484375,1.642578125-.76953125,3.37109375-1.515625,5.181640625-.7451171875,1.814453125-1.7998046875,3.703125-3.162109375,5.6640625ZM176.2197265625,79.67041015625c3.1650390625-.123046875,5.798828125-.6689453125,7.9033203125-1.6318359375,2.1044921875-.96484375,3.646484375-2.130859375,4.626953125-3.5.98046875-1.3701171875,1.392578125-2.8076171875,1.23828125-4.3173828125-.15625-1.5078125-.83984375-2.8095703125-2.052734375-3.9013671875-1.2138671875-1.091796875-2.962890625-1.8583984375-5.24609375-2.302734375-2.28515625-.443359375-5.1171875-.2958984375-8.49609375.4404296875.404296875,2.5458984375.7578125,5.064453125,1.05859375,7.552734375.30078125,2.490234375.6220703125,5.0439453125.9677734375,7.66015625ZM178.830078125,108.22900390625c3.580078125.107421875,6.556640625-.298828125,8.9296875-1.21875,2.37109375-.9189453125,4.115234375-2.052734375,5.23046875-3.400390625,1.115234375-1.345703125,1.62890625-2.7431640625,1.544921875-4.193359375-.083984375-1.447265625-.759765625-2.6494140625-2.02734375-3.60546875-1.267578125-.955078125-3.1328125-1.5146484375-5.59375-1.6796875-2.4599609375-.1630859375-5.49609375.330078125-9.10546875,1.482421875l1.021484375,12.615234375Z"/>
        </a>
        <a xlink:href="https://www.notion.so/congruence/B-Event-1f1a5b08a72c49f5ab60f2e0793fd0a8?pvs=4">
          <path class="cls-3" d="M230.61328125,39.2783203125c-.052734375-1.111328125-.30078125-1.9287109375-.74609375-2.4501953125-.447265625-.521484375-.9814453125-.82421875-1.603515625-.908203125-.623046875-.083984375-1.2763671875.037109375-1.9609375.3603515625-.6865234375.3251953125-1.294921875.759765625-1.828125,1.3017578125-1.244140625,1.2548828125-2.205078125,2.8037109375-2.8828125,4.6474609375-.6787109375,1.8447265625-1.080078125,3.751953125-1.2099609375,5.724609375-.12890625,1.9716796875.0087890625,3.9130859375.4140625,5.8232421875s1.0849609375,3.5380859375,2.0400390625,4.8828125c.609375.8740234375,1.3046875,1.5009765625,2.0849609375,1.87890625.78125.3798828125,1.59375.5634765625,2.4404296875.5537109375.84375-.0107421875,1.6640625-.2119140625,2.4599609375-.603515625.7958984375-.390625,1.4912109375-.9375,2.0888671875-1.640625.9130859375-1.07421875,1.658203125-1.845703125,2.236328125-2.31640625.576171875-.4697265625,1.24609375-.75390625,2.0078125-.8544921875,2.177734375-.1767578125,3.669921875.318359375,4.4765625,1.4833984375.8056640625,1.166015625.97265625,2.65234375.5048828125,4.458984375-.3857421875,1.4169921875-1.04296875,2.681640625-1.9716796875,3.7958984375-.9296875,1.1142578125-2.037109375,2.0400390625-3.3232421875,2.7783203125-1.2880859375.7392578125-2.6845703125,1.294921875-4.1923828125,1.66796875-1.5087890625.3720703125-3.01171875.560546875-4.51171875.56640625s-2.9404296875-.1953125-4.3193359375-.6025390625c-1.3798828125-.4072265625-2.5830078125-1.01171875-3.6083984375-1.8125-1.1513671875-.908203125-2.1796875-1.9677734375-3.0859375-3.1826171875-.90625-1.2158203125-1.685546875-2.5185546875-2.3359375-3.9091796875-.6513671875-1.388671875-1.173828125-2.8466796875-1.5654296875-4.373046875-.3935546875-1.5263671875-.6533203125-3.072265625-.7802734375-4.6396484375-.208984375-3.521484375.26171875-6.9833984375,1.408203125-10.384765625,1.1484375-3.400390625,2.7890625-6.4189453125,4.921875-9.0537109375.9794921875-1.1943359375,2.173828125-2.2431640625,3.58203125-3.1455078125,1.4072265625-.90234375,2.876953125-1.5322265625,4.40625-1.8857421875,1.529296875-.3564453125,3.0546875-.40234375,4.5751953125-.140625,1.5224609375.26171875,2.9052734375.9580078125,4.1494140625,2.087890625.9541015625.845703125,1.74609375,1.8388671875,2.376953125,2.98046875.630859375,1.140625,1.12890625,2.29296875,1.4921875,3.4560546875.21484375.7529296875.33984375,1.47265625.376953125,2.162109375.037109375.6904296875-.0732421875,1.353515625-.3291015625,1.98828125-.3583984375.7998046875-.9638671875,1.396484375-1.8173828125,1.7919921875-.8525390625.396484375-1.712890625.5712890625-2.58203125.52734375-.869140625-.0458984375-1.6416015625-.3193359375-2.31640625-.8232421875-.67578125-.5029296875-1.033203125-1.232421875-1.072265625-2.19140625Z"/>
        </a>
      </g>
      <g>
        <a xlink:href="https://www.notion.so/congruence/B-Event-1f1a5b08a72c49f5ab60f2e0793fd0a8?pvs=4">
          <g>
            <path class="cls-1" d="M66.986328125,61.17431640625c2.61328125,1.244140625,4.892578125,2.845703125,6.837890625,4.8037109375,1.9453125,1.9609375,3.625,4.138671875,5.04296875,6.537109375s2.6015625,4.96484375,3.55078125,7.697265625c.94921875,2.736328125,1.734375,5.4990234375,2.3583984375,8.2919921875,1.3720703125,5.5107421875,2.3544921875,11.119140625,2.9501953125,16.8251953125.59375,5.7060546875.9609375,11.4638671875,1.1015625,17.2724609375.0009765625,1.6533203125-.0205078125,3.01171875-.06640625,4.072265625-.046875,1.0634765625-.224609375,1.9375-.53125,2.623046875-.30859375.6875-.7763671875,1.2529296875-1.400390625,1.701171875-.6259765625.4462890625-1.515625.8818359375-2.671875,1.3076171875-1.107421875.2216796875-2.265625.4140625-3.474609375.5791015625-1.2119140625.1630859375-2.3720703125-.0732421875-3.48046875-.7109375-1.0390625-.576171875-1.9521484375-1.626953125-2.736328125-3.1513671875-.78515625-1.5234375-1.330078125-3.76171875-1.634765625-6.712890625l-.080078125-.984375c-1.658203125-.0654296875-3.6259765625-.0693359375-5.904296875-.0185546875-2.27734375.052734375-4.599609375.158203125-6.96875.31640625-2.3671875.1591796875-4.65234375.3271484375-6.853515625.505859375-2.2021484375.1787109375-4.05859375.3291015625-5.568359375.451171875-.0185546875.595703125-.021484375,1.5888671875-.0078125,2.9765625s-.0888671875,2.78515625-.3046875,4.19140625c-.21875,1.4072265625-.560546875,2.6923828125-1.02734375,3.853515625-.46875,1.1630859375-1.1923828125,1.8154296875-2.171875,1.9619140625-.916015625.138671875-1.9609375.291015625-3.138671875.453125-1.177734375.16015625-2.337890625.1220703125-3.482421875-.1142578125-1.138671875-.171875-2.1171875-.6240234375-2.935546875-1.3505859375-.8203125-.7275390625-1.33203125-1.9404296875-1.5361328125-3.6455078125-.1650390625-2.0361328125-.3212890625-4.3720703125-.46875-7.005859375-.1474609375-2.6318359375-.2470703125-5.501953125-.2998046875-8.6064453125-.0771484375-2.57421875-.08984375-5.3994140625-.0419921875-8.4794921875.0478515625-3.0791015625.220703125-6.2509765625.5185546875-9.515625.296875-3.265625.759765625-6.544921875,1.3857421875-9.8359375s1.4951171875-6.4365234375,2.6083984375-9.4375c1.111328125-3,2.490234375-5.7900390625,4.1337890625-8.37109375,1.6416015625-2.5791015625,3.6787109375-4.794921875,6.1083984375-6.646484375,2.8671875-2.1484375,6.109375-3.3720703125,9.72265625-3.6640625,3.61328125-.29296875,7.1025390625.3173828125,10.466796875,1.830078125ZM46.6689453125,107.96044921875c4.11328125-.6630859375,8.2158203125-1.2431640625,12.3095703125-1.740234375,4.0927734375-.4970703125,8.21484375-.84765625,12.365234375-1.0517578125-.1796875-4.6806640625-.7158203125-8.8359375-1.60546875-12.4697265625-.888671875-3.630859375-1.962890625-6.6689453125-3.21875-9.115234375-1.255859375-2.443359375-2.662109375-4.28125-4.216796875-5.5107421875s-3.087890625-1.783203125-4.59765625-1.6611328125c-1.3154296875.1064453125-2.6240234375.890625-3.927734375,2.3515625-1.3046875,1.4619140625-2.4580078125,3.541015625-3.462890625,6.2333984375-1.005859375,2.6943359375-1.8466796875,5.9873046875-2.5234375,9.876953125-.67578125,3.8916015625-1.0517578125,8.2548828125-1.1220703125,13.0869140625Z"/>
            <path class="cls-1" d="M66.986328125,61.17431640625c2.61328125,1.244140625,4.892578125,2.845703125,6.837890625,4.8037109375,1.9453125,1.9609375,3.625,4.138671875,5.04296875,6.537109375s2.6015625,4.96484375,3.55078125,7.697265625c.94921875,2.736328125,1.734375,5.4990234375,2.3583984375,8.2919921875,1.3720703125,5.5107421875,2.3544921875,11.119140625,2.9501953125,16.8251953125.59375,5.7060546875.9609375,11.4638671875,1.1015625,17.2724609375.0009765625,1.6533203125-.0205078125,3.01171875-.06640625,4.072265625-.046875,1.0634765625-.224609375,1.9375-.53125,2.623046875-.30859375.6875-.7763671875,1.2529296875-1.400390625,1.701171875-.6259765625.4462890625-1.515625.8818359375-2.671875,1.3076171875-1.107421875.2216796875-2.265625.4140625-3.474609375.5791015625-1.2119140625.1630859375-2.3720703125-.0732421875-3.48046875-.7109375-1.0390625-.576171875-1.9521484375-1.626953125-2.736328125-3.1513671875-.78515625-1.5234375-1.330078125-3.76171875-1.634765625-6.712890625l-.080078125-.984375c-1.658203125-.0654296875-3.6259765625-.0693359375-5.904296875-.0185546875-2.27734375.052734375-4.599609375.158203125-6.96875.31640625-2.3671875.1591796875-4.65234375.3271484375-6.853515625.505859375-2.2021484375.1787109375-4.05859375.3291015625-5.568359375.451171875-.0185546875.595703125-.021484375,1.5888671875-.0078125,2.9765625s-.0888671875,2.78515625-.3046875,4.19140625c-.21875,1.4072265625-.560546875,2.6923828125-1.02734375,3.853515625-.46875,1.1630859375-1.1923828125,1.8154296875-2.171875,1.9619140625-.916015625.138671875-1.9609375.291015625-3.138671875.453125-1.177734375.16015625-2.337890625.1220703125-3.482421875-.1142578125-1.138671875-.171875-2.1171875-.6240234375-2.935546875-1.3505859375-.8203125-.7275390625-1.33203125-1.9404296875-1.5361328125-3.6455078125-.1650390625-2.0361328125-.3212890625-4.3720703125-.46875-7.005859375-.1474609375-2.6318359375-.2470703125-5.501953125-.2998046875-8.6064453125-.0771484375-2.57421875-.08984375-5.3994140625-.0419921875-8.4794921875.0478515625-3.0791015625.220703125-6.2509765625.5185546875-9.515625.296875-3.265625.759765625-6.544921875,1.3857421875-9.8359375s1.4951171875-6.4365234375,2.6083984375-9.4375c1.111328125-3,2.490234375-5.7900390625,4.1337890625-8.37109375,1.6416015625-2.5791015625,3.6787109375-4.794921875,6.1083984375-6.646484375,2.8671875-2.1484375,6.109375-3.3720703125,9.72265625-3.6640625,3.61328125-.29296875,7.1025390625.3173828125,10.466796875,1.830078125ZM46.6689453125,107.96044921875c4.11328125-.6630859375,8.2158203125-1.2431640625,12.3095703125-1.740234375,4.0927734375-.4970703125,8.21484375-.84765625,12.365234375-1.0517578125-.1796875-4.6806640625-.7158203125-8.8359375-1.60546875-12.4697265625-.888671875-3.630859375-1.962890625-6.6689453125-3.21875-9.115234375-1.255859375-2.443359375-2.662109375-4.28125-4.216796875-5.5107421875s-3.087890625-1.783203125-4.59765625-1.6611328125c-1.3154296875.1064453125-2.6240234375.890625-3.927734375,2.3515625-1.3046875,1.4619140625-2.4580078125,3.541015625-3.462890625,6.2333984375-1.005859375,2.6943359375-1.8466796875,5.9873046875-2.5234375,9.876953125-.67578125,3.8916015625-1.0517578125,8.2548828125-1.1220703125,13.0869140625Z"/>
            <path class="cls-1" d="M66.986328125,61.17431640625c2.61328125,1.244140625,4.892578125,2.845703125,6.837890625,4.8037109375,1.9453125,1.9609375,3.625,4.138671875,5.04296875,6.537109375s2.6015625,4.96484375,3.55078125,7.697265625c.94921875,2.736328125,1.734375,5.4990234375,2.3583984375,8.2919921875,1.3720703125,5.5107421875,2.3544921875,11.119140625,2.9501953125,16.8251953125.59375,5.7060546875.9609375,11.4638671875,1.1015625,17.2724609375.0009765625,1.6533203125-.0205078125,3.01171875-.06640625,4.072265625-.046875,1.0634765625-.224609375,1.9375-.53125,2.623046875-.30859375.6875-.7763671875,1.2529296875-1.400390625,1.701171875-.6259765625.4462890625-1.515625.8818359375-2.671875,1.3076171875-1.107421875.2216796875-2.265625.4140625-3.474609375.5791015625-1.2119140625.1630859375-2.3720703125-.0732421875-3.48046875-.7109375-1.0390625-.576171875-1.9521484375-1.626953125-2.736328125-3.1513671875-.78515625-1.5234375-1.330078125-3.76171875-1.634765625-6.712890625l-.080078125-.984375c-1.658203125-.0654296875-3.6259765625-.0693359375-5.904296875-.0185546875-2.27734375.052734375-4.599609375.158203125-6.96875.31640625-2.3671875.1591796875-4.65234375.3271484375-6.853515625.505859375-2.2021484375.1787109375-4.05859375.3291015625-5.568359375.451171875-.0185546875.595703125-.021484375,1.5888671875-.0078125,2.9765625s-.0888671875,2.78515625-.3046875,4.19140625c-.21875,1.4072265625-.560546875,2.6923828125-1.02734375,3.853515625-.46875,1.1630859375-1.1923828125,1.8154296875-2.171875,1.9619140625-.916015625.138671875-1.9609375.291015625-3.138671875.453125-1.177734375.16015625-2.337890625.1220703125-3.482421875-.1142578125-1.138671875-.171875-2.1171875-.6240234375-2.935546875-1.3505859375-.8203125-.7275390625-1.33203125-1.9404296875-1.5361328125-3.6455078125-.1650390625-2.0361328125-.3212890625-4.3720703125-.46875-7.005859375-.1474609375-2.6318359375-.2470703125-5.501953125-.2998046875-8.6064453125-.0771484375-2.57421875-.08984375-5.3994140625-.0419921875-8.4794921875.0478515625-3.0791015625.220703125-6.2509765625.5185546875-9.515625.296875-3.265625.759765625-6.544921875,1.3857421875-9.8359375s1.4951171875-6.4365234375,2.6083984375-9.4375c1.111328125-3,2.490234375-5.7900390625,4.1337890625-8.37109375,1.6416015625-2.5791015625,3.6787109375-4.794921875,6.1083984375-6.646484375,2.8671875-2.1484375,6.109375-3.3720703125,9.72265625-3.6640625,3.61328125-.29296875,7.1025390625.3173828125,10.466796875,1.830078125ZM46.6689453125,107.96044921875c4.11328125-.6630859375,8.2158203125-1.2431640625,12.3095703125-1.740234375,4.0927734375-.4970703125,8.21484375-.84765625,12.365234375-1.0517578125-.1796875-4.6806640625-.7158203125-8.8359375-1.60546875-12.4697265625-.888671875-3.630859375-1.962890625-6.6689453125-3.21875-9.115234375-1.255859375-2.443359375-2.662109375-4.28125-4.216796875-5.5107421875s-3.087890625-1.783203125-4.59765625-1.6611328125c-1.3154296875.1064453125-2.6240234375.890625-3.927734375,2.3515625-1.3046875,1.4619140625-2.4580078125,3.541015625-3.462890625,6.2333984375-1.005859375,2.6943359375-1.8466796875,5.9873046875-2.5234375,9.876953125-.67578125,3.8916015625-1.0517578125,8.2548828125-1.1220703125,13.0869140625Z"/>
          </g>
        </a>
        <a xlink:href="https://www.notion.so/congruence/B-Event-1f1a5b08a72c49f5ab60f2e0793fd0a8?pvs=4">
          <g>
            <path class="cls-1" d="M202.31640625,83.40966796875c3.072265625,2,5.44921875,4.603515625,7.130859375,7.8056640625,1.681640625,3.2041015625,2.40234375,6.6005859375,2.1640625,10.19140625-.265625,4.0576171875-1.5703125,7.552734375-3.912109375,10.4853515625-2.341796875,2.935546875-5.189453125,5.3330078125-8.5439453125,7.19140625-3.3564453125,1.859375-7.03125,3.216796875-11.0302734375,4.068359375-3.998046875.8525390625-7.787109375,1.2265625-11.3681640625,1.119140625-.3193359375.158203125-.607421875.263671875-.8662109375.318359375-.26171875.0537109375-.552734375.126953125-.8759765625.220703125-1.1767578125.16015625-2.3935546875.2587890625-3.646484375.294921875-1.2548828125.03515625-2.4052734375-.0869140625-3.4521484375-.3662109375-1.048828125-.27734375-1.966796875-.7978515625-2.755859375-1.5615234375-.791015625-.7626953125-1.3115234375-1.8935546875-1.564453125-3.3955078125-.19140625-.7119140625-.341796875-2.1708984375-.4541015625-4.37890625-.1142578125-2.205078125-.2646484375-4.888671875-.4541015625-8.048828125-.1298828125-3.228515625-.296875-6.7373046875-.5048828125-10.5244140625-.2080078125-3.7861328125-.43359375-7.5869140625-.6767578125-11.4033203125-.33984375-4.9990234375-.6806640625-10.0302734375-1.0234375-15.095703125-.345703125-5.064453125-.955078125-10.1416015625-1.830078125-15.2294921875-.1796875-.5810546875-.15625-1.111328125.0703125-1.59375.0986328125-.404296875.36328125-.8056640625.794921875-1.205078125.4296875-.3974609375,1.099609375-.7001953125,2.009765625-.90625.650390625-.119140625,1.3671875-.2763671875,2.14453125-.4716796875s1.58984375-.3603515625,2.439453125-.4951171875c.8486328125-.1337890625,1.6708984375-.2001953125,2.46484375-.2001953125.79296875.001953125,1.494140625.078125,2.1015625.2255859375,3.314453125-.7294921875,6.8271484375-1.03125,10.5419921875-.90234375,3.7138671875.12890625,7.2509765625.71875,10.6103515625,1.76953125s6.326171875,2.5791015625,8.9033203125,4.5859375c2.5771484375,2.0087890625,4.3876953125,4.556640625,5.4306640625,7.6455078125.4404296875,1.353515625.7548828125,2.783203125.943359375,4.2880859375.1875,1.5078125.150390625,3.0810546875-.11328125,4.72265625-.2646484375,1.642578125-.76953125,3.37109375-1.515625,5.181640625-.7451171875,1.814453125-1.7998046875,3.703125-3.162109375,5.6640625ZM176.2197265625,79.67041015625c3.1650390625-.123046875,5.798828125-.6689453125,7.9033203125-1.6318359375,2.1044921875-.96484375,3.646484375-2.130859375,4.626953125-3.5.98046875-1.3701171875,1.392578125-2.8076171875,1.23828125-4.3173828125-.15625-1.5078125-.83984375-2.8095703125-2.052734375-3.9013671875-1.2138671875-1.091796875-2.962890625-1.8583984375-5.24609375-2.302734375-2.28515625-.443359375-5.1171875-.2958984375-8.49609375.4404296875.404296875,2.5458984375.7578125,5.064453125,1.05859375,7.552734375.30078125,2.490234375.6220703125,5.0439453125.9677734375,7.66015625ZM178.830078125,108.22900390625c3.580078125.107421875,6.556640625-.298828125,8.9296875-1.21875,2.37109375-.9189453125,4.115234375-2.052734375,5.23046875-3.400390625,1.115234375-1.345703125,1.62890625-2.7431640625,1.544921875-4.193359375-.083984375-1.447265625-.759765625-2.6494140625-2.02734375-3.60546875-1.267578125-.955078125-3.1328125-1.5146484375-5.59375-1.6796875-2.4599609375-.1630859375-5.49609375.330078125-9.10546875,1.482421875l1.021484375,12.615234375Z"/>
            <path class="cls-1" d="M202.31640625,83.40966796875c3.072265625,2,5.44921875,4.603515625,7.130859375,7.8056640625,1.681640625,3.2041015625,2.40234375,6.6005859375,2.1640625,10.19140625-.265625,4.0576171875-1.5703125,7.552734375-3.912109375,10.4853515625-2.341796875,2.935546875-5.189453125,5.3330078125-8.5439453125,7.19140625-3.3564453125,1.859375-7.03125,3.216796875-11.0302734375,4.068359375-3.998046875.8525390625-7.787109375,1.2265625-11.3681640625,1.119140625-.3193359375.158203125-.607421875.263671875-.8662109375.318359375-.26171875.0537109375-.552734375.126953125-.8759765625.220703125-1.1767578125.16015625-2.3935546875.2587890625-3.646484375.294921875-1.2548828125.03515625-2.4052734375-.0869140625-3.4521484375-.3662109375-1.048828125-.27734375-1.966796875-.7978515625-2.755859375-1.5615234375-.791015625-.7626953125-1.3115234375-1.8935546875-1.564453125-3.3955078125-.19140625-.7119140625-.341796875-2.1708984375-.4541015625-4.37890625-.1142578125-2.205078125-.2646484375-4.888671875-.4541015625-8.048828125-.1298828125-3.228515625-.296875-6.7373046875-.5048828125-10.5244140625-.2080078125-3.7861328125-.43359375-7.5869140625-.6767578125-11.4033203125-.33984375-4.9990234375-.6806640625-10.0302734375-1.0234375-15.095703125-.345703125-5.064453125-.955078125-10.1416015625-1.830078125-15.2294921875-.1796875-.5810546875-.15625-1.111328125.0703125-1.59375.0986328125-.404296875.36328125-.8056640625.794921875-1.205078125.4296875-.3974609375,1.099609375-.7001953125,2.009765625-.90625.650390625-.119140625,1.3671875-.2763671875,2.14453125-.4716796875s1.58984375-.3603515625,2.439453125-.4951171875c.8486328125-.1337890625,1.6708984375-.2001953125,2.46484375-.2001953125.79296875.001953125,1.494140625.078125,2.1015625.2255859375,3.314453125-.7294921875,6.8271484375-1.03125,10.5419921875-.90234375,3.7138671875.12890625,7.2509765625.71875,10.6103515625,1.76953125s6.326171875,2.5791015625,8.9033203125,4.5859375c2.5771484375,2.0087890625,4.3876953125,4.556640625,5.4306640625,7.6455078125.4404296875,1.353515625.7548828125,2.783203125.943359375,4.2880859375.1875,1.5078125.150390625,3.0810546875-.11328125,4.72265625-.2646484375,1.642578125-.76953125,3.37109375-1.515625,5.181640625-.7451171875,1.814453125-1.7998046875,3.703125-3.162109375,5.6640625ZM176.2197265625,79.67041015625c3.1650390625-.123046875,5.798828125-.6689453125,7.9033203125-1.6318359375,2.1044921875-.96484375,3.646484375-2.130859375,4.626953125-3.5.98046875-1.3701171875,1.392578125-2.8076171875,1.23828125-4.3173828125-.15625-1.5078125-.83984375-2.8095703125-2.052734375-3.9013671875-1.2138671875-1.091796875-2.962890625-1.8583984375-5.24609375-2.302734375-2.28515625-.443359375-5.1171875-.2958984375-8.49609375.4404296875.404296875,2.5458984375.7578125,5.064453125,1.05859375,7.552734375.30078125,2.490234375.6220703125,5.0439453125.9677734375,7.66015625ZM178.830078125,108.22900390625c3.580078125.107421875,6.556640625-.298828125,8.9296875-1.21875,2.37109375-.9189453125,4.115234375-2.052734375,5.23046875-3.400390625,1.115234375-1.345703125,1.62890625-2.7431640625,1.544921875-4.193359375-.083984375-1.447265625-.759765625-2.6494140625-2.02734375-3.60546875-1.267578125-.955078125-3.1328125-1.5146484375-5.59375-1.6796875-2.4599609375-.1630859375-5.49609375.330078125-9.10546875,1.482421875l1.021484375,12.615234375Z"/>
            <path class="cls-1" d="M202.31640625,83.40966796875c3.072265625,2,5.44921875,4.603515625,7.130859375,7.8056640625,1.681640625,3.2041015625,2.40234375,6.6005859375,2.1640625,10.19140625-.265625,4.0576171875-1.5703125,7.552734375-3.912109375,10.4853515625-2.341796875,2.935546875-5.189453125,5.3330078125-8.5439453125,7.19140625-3.3564453125,1.859375-7.03125,3.216796875-11.0302734375,4.068359375-3.998046875.8525390625-7.787109375,1.2265625-11.3681640625,1.119140625-.3193359375.158203125-.607421875.263671875-.8662109375.318359375-.26171875.0537109375-.552734375.126953125-.8759765625.220703125-1.1767578125.16015625-2.3935546875.2587890625-3.646484375.294921875-1.2548828125.03515625-2.4052734375-.0869140625-3.4521484375-.3662109375-1.048828125-.27734375-1.966796875-.7978515625-2.755859375-1.5615234375-.791015625-.7626953125-1.3115234375-1.8935546875-1.564453125-3.3955078125-.19140625-.7119140625-.341796875-2.1708984375-.4541015625-4.37890625-.1142578125-2.205078125-.2646484375-4.888671875-.4541015625-8.048828125-.1298828125-3.228515625-.296875-6.7373046875-.5048828125-10.5244140625-.2080078125-3.7861328125-.43359375-7.5869140625-.6767578125-11.4033203125-.33984375-4.9990234375-.6806640625-10.0302734375-1.0234375-15.095703125-.345703125-5.064453125-.955078125-10.1416015625-1.830078125-15.2294921875-.1796875-.5810546875-.15625-1.111328125.0703125-1.59375.0986328125-.404296875.36328125-.8056640625.794921875-1.205078125.4296875-.3974609375,1.099609375-.7001953125,2.009765625-.90625.650390625-.119140625,1.3671875-.2763671875,2.14453125-.4716796875s1.58984375-.3603515625,2.439453125-.4951171875c.8486328125-.1337890625,1.6708984375-.2001953125,2.46484375-.2001953125.79296875.001953125,1.494140625.078125,2.1015625.2255859375,3.314453125-.7294921875,6.8271484375-1.03125,10.5419921875-.90234375,3.7138671875.12890625,7.2509765625.71875,10.6103515625,1.76953125s6.326171875,2.5791015625,8.9033203125,4.5859375c2.5771484375,2.0087890625,4.3876953125,4.556640625,5.4306640625,7.6455078125.4404296875,1.353515625.7548828125,2.783203125.943359375,4.2880859375.1875,1.5078125.150390625,3.0810546875-.11328125,4.72265625-.2646484375,1.642578125-.76953125,3.37109375-1.515625,5.181640625-.7451171875,1.814453125-1.7998046875,3.703125-3.162109375,5.6640625ZM176.2197265625,79.67041015625c3.1650390625-.123046875,5.798828125-.6689453125,7.9033203125-1.6318359375,2.1044921875-.96484375,3.646484375-2.130859375,4.626953125-3.5.98046875-1.3701171875,1.392578125-2.8076171875,1.23828125-4.3173828125-.15625-1.5078125-.83984375-2.8095703125-2.052734375-3.9013671875-1.2138671875-1.091796875-2.962890625-1.8583984375-5.24609375-2.302734375-2.28515625-.443359375-5.1171875-.2958984375-8.49609375.4404296875.404296875,2.5458984375.7578125,5.064453125,1.05859375,7.552734375.30078125,2.490234375.6220703125,5.0439453125.9677734375,7.66015625ZM178.830078125,108.22900390625c3.580078125.107421875,6.556640625-.298828125,8.9296875-1.21875,2.37109375-.9189453125,4.115234375-2.052734375,5.23046875-3.400390625,1.115234375-1.345703125,1.62890625-2.7431640625,1.544921875-4.193359375-.083984375-1.447265625-.759765625-2.6494140625-2.02734375-3.60546875-1.267578125-.955078125-3.1328125-1.5146484375-5.59375-1.6796875-2.4599609375-.1630859375-5.49609375.330078125-9.10546875,1.482421875l1.021484375,12.615234375Z"/>
          </g>
        </a>
        <a xlink:href="https://www.notion.so/congruence/B-Event-1f1a5b08a72c49f5ab60f2e0793fd0a8?pvs=4">
          <g>
            <path class="cls-1" d="M230.61328125,39.2783203125c-.052734375-1.111328125-.30078125-1.9287109375-.74609375-2.4501953125-.447265625-.521484375-.9814453125-.82421875-1.603515625-.908203125-.623046875-.083984375-1.2763671875.037109375-1.9609375.3603515625-.6865234375.3251953125-1.294921875.759765625-1.828125,1.3017578125-1.244140625,1.2548828125-2.205078125,2.8037109375-2.8828125,4.6474609375-.6787109375,1.8447265625-1.080078125,3.751953125-1.2099609375,5.724609375-.12890625,1.9716796875.0087890625,3.9130859375.4140625,5.8232421875s1.0849609375,3.5380859375,2.0400390625,4.8828125c.609375.8740234375,1.3046875,1.5009765625,2.0849609375,1.87890625.78125.3798828125,1.59375.5634765625,2.4404296875.5537109375.84375-.0107421875,1.6640625-.2119140625,2.4599609375-.603515625.7958984375-.390625,1.4912109375-.9375,2.0888671875-1.640625.9130859375-1.07421875,1.658203125-1.845703125,2.236328125-2.31640625.576171875-.4697265625,1.24609375-.75390625,2.0078125-.8544921875,2.177734375-.1767578125,3.669921875.318359375,4.4765625,1.4833984375.8056640625,1.166015625.97265625,2.65234375.5048828125,4.458984375-.3857421875,1.4169921875-1.04296875,2.681640625-1.9716796875,3.7958984375-.9296875,1.1142578125-2.037109375,2.0400390625-3.3232421875,2.7783203125-1.2880859375.7392578125-2.6845703125,1.294921875-4.1923828125,1.66796875-1.5087890625.3720703125-3.01171875.560546875-4.51171875.56640625s-2.9404296875-.1953125-4.3193359375-.6025390625c-1.3798828125-.4072265625-2.5830078125-1.01171875-3.6083984375-1.8125-1.1513671875-.908203125-2.1796875-1.9677734375-3.0859375-3.1826171875-.90625-1.2158203125-1.685546875-2.5185546875-2.3359375-3.9091796875-.6513671875-1.388671875-1.173828125-2.8466796875-1.5654296875-4.373046875-.3935546875-1.5263671875-.6533203125-3.072265625-.7802734375-4.6396484375-.208984375-3.521484375.26171875-6.9833984375,1.408203125-10.384765625,1.1484375-3.400390625,2.7890625-6.4189453125,4.921875-9.0537109375.9794921875-1.1943359375,2.173828125-2.2431640625,3.58203125-3.1455078125,1.4072265625-.90234375,2.876953125-1.5322265625,4.40625-1.8857421875,1.529296875-.3564453125,3.0546875-.40234375,4.5751953125-.140625,1.5224609375.26171875,2.9052734375.9580078125,4.1494140625,2.087890625.9541015625.845703125,1.74609375,1.8388671875,2.376953125,2.98046875.630859375,1.140625,1.12890625,2.29296875,1.4921875,3.4560546875.21484375.7529296875.33984375,1.47265625.376953125,2.162109375.037109375.6904296875-.0732421875,1.353515625-.3291015625,1.98828125-.3583984375.7998046875-.9638671875,1.396484375-1.8173828125,1.7919921875-.8525390625.396484375-1.712890625.5712890625-2.58203125.52734375-.869140625-.0458984375-1.6416015625-.3193359375-2.31640625-.8232421875-.67578125-.5029296875-1.033203125-1.232421875-1.072265625-2.19140625Z"/>
            <path class="cls-1" d="M230.61328125,39.2783203125c-.052734375-1.111328125-.30078125-1.9287109375-.74609375-2.4501953125-.447265625-.521484375-.9814453125-.82421875-1.603515625-.908203125-.623046875-.083984375-1.2763671875.037109375-1.9609375.3603515625-.6865234375.3251953125-1.294921875.759765625-1.828125,1.3017578125-1.244140625,1.2548828125-2.205078125,2.8037109375-2.8828125,4.6474609375-.6787109375,1.8447265625-1.080078125,3.751953125-1.2099609375,5.724609375-.12890625,1.9716796875.0087890625,3.9130859375.4140625,5.8232421875s1.0849609375,3.5380859375,2.0400390625,4.8828125c.609375.8740234375,1.3046875,1.5009765625,2.0849609375,1.87890625.78125.3798828125,1.59375.5634765625,2.4404296875.5537109375.84375-.0107421875,1.6640625-.2119140625,2.4599609375-.603515625.7958984375-.390625,1.4912109375-.9375,2.0888671875-1.640625.9130859375-1.07421875,1.658203125-1.845703125,2.236328125-2.31640625.576171875-.4697265625,1.24609375-.75390625,2.0078125-.8544921875,2.177734375-.1767578125,3.669921875.318359375,4.4765625,1.4833984375.8056640625,1.166015625.97265625,2.65234375.5048828125,4.458984375-.3857421875,1.4169921875-1.04296875,2.681640625-1.9716796875,3.7958984375-.9296875,1.1142578125-2.037109375,2.0400390625-3.3232421875,2.7783203125-1.2880859375.7392578125-2.6845703125,1.294921875-4.1923828125,1.66796875-1.5087890625.3720703125-3.01171875.560546875-4.51171875.56640625s-2.9404296875-.1953125-4.3193359375-.6025390625c-1.3798828125-.4072265625-2.5830078125-1.01171875-3.6083984375-1.8125-1.1513671875-.908203125-2.1796875-1.9677734375-3.0859375-3.1826171875-.90625-1.2158203125-1.685546875-2.5185546875-2.3359375-3.9091796875-.6513671875-1.388671875-1.173828125-2.8466796875-1.5654296875-4.373046875-.3935546875-1.5263671875-.6533203125-3.072265625-.7802734375-4.6396484375-.208984375-3.521484375.26171875-6.9833984375,1.408203125-10.384765625,1.1484375-3.400390625,2.7890625-6.4189453125,4.921875-9.0537109375.9794921875-1.1943359375,2.173828125-2.2431640625,3.58203125-3.1455078125,1.4072265625-.90234375,2.876953125-1.5322265625,4.40625-1.8857421875,1.529296875-.3564453125,3.0546875-.40234375,4.5751953125-.140625,1.5224609375.26171875,2.9052734375.9580078125,4.1494140625,2.087890625.9541015625.845703125,1.74609375,1.8388671875,2.376953125,2.98046875.630859375,1.140625,1.12890625,2.29296875,1.4921875,3.4560546875.21484375.7529296875.33984375,1.47265625.376953125,2.162109375.037109375.6904296875-.0732421875,1.353515625-.3291015625,1.98828125-.3583984375.7998046875-.9638671875,1.396484375-1.8173828125,1.7919921875-.8525390625.396484375-1.712890625.5712890625-2.58203125.52734375-.869140625-.0458984375-1.6416015625-.3193359375-2.31640625-.8232421875-.67578125-.5029296875-1.033203125-1.232421875-1.072265625-2.19140625Z"/>
            <path class="cls-1" d="M230.61328125,39.2783203125c-.052734375-1.111328125-.30078125-1.9287109375-.74609375-2.4501953125-.447265625-.521484375-.9814453125-.82421875-1.603515625-.908203125-.623046875-.083984375-1.2763671875.037109375-1.9609375.3603515625-.6865234375.3251953125-1.294921875.759765625-1.828125,1.3017578125-1.244140625,1.2548828125-2.205078125,2.8037109375-2.8828125,4.6474609375-.6787109375,1.8447265625-1.080078125,3.751953125-1.2099609375,5.724609375-.12890625,1.9716796875.0087890625,3.9130859375.4140625,5.8232421875s1.0849609375,3.5380859375,2.0400390625,4.8828125c.609375.8740234375,1.3046875,1.5009765625,2.0849609375,1.87890625.78125.3798828125,1.59375.5634765625,2.4404296875.5537109375.84375-.0107421875,1.6640625-.2119140625,2.4599609375-.603515625.7958984375-.390625,1.4912109375-.9375,2.0888671875-1.640625.9130859375-1.07421875,1.658203125-1.845703125,2.236328125-2.31640625.576171875-.4697265625,1.24609375-.75390625,2.0078125-.8544921875,2.177734375-.1767578125,3.669921875.318359375,4.4765625,1.4833984375.8056640625,1.166015625.97265625,2.65234375.5048828125,4.458984375-.3857421875,1.4169921875-1.04296875,2.681640625-1.9716796875,3.7958984375-.9296875,1.1142578125-2.037109375,2.0400390625-3.3232421875,2.7783203125-1.2880859375.7392578125-2.6845703125,1.294921875-4.1923828125,1.66796875-1.5087890625.3720703125-3.01171875.560546875-4.51171875.56640625s-2.9404296875-.1953125-4.3193359375-.6025390625c-1.3798828125-.4072265625-2.5830078125-1.01171875-3.6083984375-1.8125-1.1513671875-.908203125-2.1796875-1.9677734375-3.0859375-3.1826171875-.90625-1.2158203125-1.685546875-2.5185546875-2.3359375-3.9091796875-.6513671875-1.388671875-1.173828125-2.8466796875-1.5654296875-4.373046875-.3935546875-1.5263671875-.6533203125-3.072265625-.7802734375-4.6396484375-.208984375-3.521484375.26171875-6.9833984375,1.408203125-10.384765625,1.1484375-3.400390625,2.7890625-6.4189453125,4.921875-9.0537109375.9794921875-1.1943359375,2.173828125-2.2431640625,3.58203125-3.1455078125,1.4072265625-.90234375,2.876953125-1.5322265625,4.40625-1.8857421875,1.529296875-.3564453125,3.0546875-.40234375,4.5751953125-.140625,1.5224609375.26171875,2.9052734375.9580078125,4.1494140625,2.087890625.9541015625.845703125,1.74609375,1.8388671875,2.376953125,2.98046875.630859375,1.140625,1.12890625,2.29296875,1.4921875,3.4560546875.21484375.7529296875.33984375,1.47265625.376953125,2.162109375.037109375.6904296875-.0732421875,1.353515625-.3291015625,1.98828125-.3583984375.7998046875-.9638671875,1.396484375-1.8173828125,1.7919921875-.8525390625.396484375-1.712890625.5712890625-2.58203125.52734375-.869140625-.0458984375-1.6416015625-.3193359375-2.31640625-.8232421875-.67578125-.5029296875-1.033203125-1.232421875-1.072265625-2.19140625Z"/>
          </g>
        </a>
        <path class="cls-1" d="M129,54.10009765625c-.15234375,13.5634765625-.28515625,27.0078125-.3984375,40.3330078125-.1142578125,13.3251953125-.1337890625,26.76953125-.056640625,40.33203125-.1533203125.9521484375-.41796875,1.826171875-.7978515625,2.6181640625-.3798828125.6357421875-.9501953125,1.26953125-1.7080078125,1.9033203125-.759765625.6357421875-1.78515625,1.0302734375-3.07421875,1.189453125-1.3671875.158203125-2.75390625.2568359375-4.1572265625.2978515625-1.4052734375.0390625-2.7158203125-.119140625-3.9287109375-.4755859375-1.21484375-.357421875-2.259765625-.9912109375-3.1318359375-1.904296875-.8740234375-.91015625-1.4228515625-2.279296875-1.6513671875-4.1044921875-.15234375-.8720703125-.2275390625-2.6953125-.2275390625-5.47265625,0-2.775390625.056640625-6.126953125.1708984375-10.0537109375.11328125-3.92578125.2451171875-8.248046875.3984375-12.9677734375.1513671875-4.71875.341796875-9.458984375.5693359375-14.2177734375.1513671875-4.7587890625.359375-9.3583984375.6259765625-13.80078125.265625-4.44140625.4736328125-8.40625.626953125-11.8974609375.2275390625-4.0458984375.455078125-7.8525390625.68359375-11.421875-.0771484375-.7138671875.037109375-1.34765625.341796875-1.9033203125.2265625-.4765625.5859375-.892578125,1.0810546875-1.25.4931640625-.3564453125,1.2705078125-.57421875,2.3349609375-.654296875h3.701171875c1.404296875,0,2.75.1005859375,4.04296875.2978515625,1.2890625.19921875,2.37109375.53515625,3.2451171875,1.0107421875.8720703125.4765625,1.3095703125,1.1904296875,1.3095703125,2.1416015625Z"/>
      </g>
      <g>
        <a xlink:href="https://www.notion.so/congruence/B-Event-1f1a5b08a72c49f5ab60f2e0793fd0a8?pvs=4">
          <g>
            <path class="cls-2" d="M66.986328125,61.17431640625c2.61328125,1.244140625,4.892578125,2.845703125,6.837890625,4.8037109375,1.9453125,1.9609375,3.625,4.138671875,5.04296875,6.537109375s2.6015625,4.96484375,3.55078125,7.697265625c.94921875,2.736328125,1.734375,5.4990234375,2.3583984375,8.2919921875,1.3720703125,5.5107421875,2.3544921875,11.119140625,2.9501953125,16.8251953125.59375,5.7060546875.9609375,11.4638671875,1.1015625,17.2724609375.0009765625,1.6533203125-.0205078125,3.01171875-.06640625,4.072265625-.046875,1.0634765625-.224609375,1.9375-.53125,2.623046875-.30859375.6875-.7763671875,1.2529296875-1.400390625,1.701171875-.6259765625.4462890625-1.515625.8818359375-2.671875,1.3076171875-1.107421875.2216796875-2.265625.4140625-3.474609375.5791015625-1.2119140625.1630859375-2.3720703125-.0732421875-3.48046875-.7109375-1.0390625-.576171875-1.9521484375-1.626953125-2.736328125-3.1513671875-.78515625-1.5234375-1.330078125-3.76171875-1.634765625-6.712890625l-.080078125-.984375c-1.658203125-.0654296875-3.6259765625-.0693359375-5.904296875-.0185546875-2.27734375.052734375-4.599609375.158203125-6.96875.31640625-2.3671875.1591796875-4.65234375.3271484375-6.853515625.505859375-2.2021484375.1787109375-4.05859375.3291015625-5.568359375.451171875-.0185546875.595703125-.021484375,1.5888671875-.0078125,2.9765625s-.0888671875,2.78515625-.3046875,4.19140625c-.21875,1.4072265625-.560546875,2.6923828125-1.02734375,3.853515625-.46875,1.1630859375-1.1923828125,1.8154296875-2.171875,1.9619140625-.916015625.138671875-1.9609375.291015625-3.138671875.453125-1.177734375.16015625-2.337890625.1220703125-3.482421875-.1142578125-1.138671875-.171875-2.1171875-.6240234375-2.935546875-1.3505859375-.8203125-.7275390625-1.33203125-1.9404296875-1.5361328125-3.6455078125-.1650390625-2.0361328125-.3212890625-4.3720703125-.46875-7.005859375-.1474609375-2.6318359375-.2470703125-5.501953125-.2998046875-8.6064453125-.0771484375-2.57421875-.08984375-5.3994140625-.0419921875-8.4794921875.0478515625-3.0791015625.220703125-6.2509765625.5185546875-9.515625.296875-3.265625.759765625-6.544921875,1.3857421875-9.8359375s1.4951171875-6.4365234375,2.6083984375-9.4375c1.111328125-3,2.490234375-5.7900390625,4.1337890625-8.37109375,1.6416015625-2.5791015625,3.6787109375-4.794921875,6.1083984375-6.646484375,2.8671875-2.1484375,6.109375-3.3720703125,9.72265625-3.6640625,3.61328125-.29296875,7.1025390625.3173828125,10.466796875,1.830078125ZM46.6689453125,107.96044921875c4.11328125-.6630859375,8.2158203125-1.2431640625,12.3095703125-1.740234375,4.0927734375-.4970703125,8.21484375-.84765625,12.365234375-1.0517578125-.1796875-4.6806640625-.7158203125-8.8359375-1.60546875-12.4697265625-.888671875-3.630859375-1.962890625-6.6689453125-3.21875-9.115234375-1.255859375-2.443359375-2.662109375-4.28125-4.216796875-5.5107421875s-3.087890625-1.783203125-4.59765625-1.6611328125c-1.3154296875.1064453125-2.6240234375.890625-3.927734375,2.3515625-1.3046875,1.4619140625-2.4580078125,3.541015625-3.462890625,6.2333984375-1.005859375,2.6943359375-1.8466796875,5.9873046875-2.5234375,9.876953125-.67578125,3.8916015625-1.0517578125,8.2548828125-1.1220703125,13.0869140625Z"/>
            <path class="cls-2" d="M66.986328125,61.17431640625c2.61328125,1.244140625,4.892578125,2.845703125,6.837890625,4.8037109375,1.9453125,1.9609375,3.625,4.138671875,5.04296875,6.537109375s2.6015625,4.96484375,3.55078125,7.697265625c.94921875,2.736328125,1.734375,5.4990234375,2.3583984375,8.2919921875,1.3720703125,5.5107421875,2.3544921875,11.119140625,2.9501953125,16.8251953125.59375,5.7060546875.9609375,11.4638671875,1.1015625,17.2724609375.0009765625,1.6533203125-.0205078125,3.01171875-.06640625,4.072265625-.046875,1.0634765625-.224609375,1.9375-.53125,2.623046875-.30859375.6875-.7763671875,1.2529296875-1.400390625,1.701171875-.6259765625.4462890625-1.515625.8818359375-2.671875,1.3076171875-1.107421875.2216796875-2.265625.4140625-3.474609375.5791015625-1.2119140625.1630859375-2.3720703125-.0732421875-3.48046875-.7109375-1.0390625-.576171875-1.9521484375-1.626953125-2.736328125-3.1513671875-.78515625-1.5234375-1.330078125-3.76171875-1.634765625-6.712890625l-.080078125-.984375c-1.658203125-.0654296875-3.6259765625-.0693359375-5.904296875-.0185546875-2.27734375.052734375-4.599609375.158203125-6.96875.31640625-2.3671875.1591796875-4.65234375.3271484375-6.853515625.505859375-2.2021484375.1787109375-4.05859375.3291015625-5.568359375.451171875-.0185546875.595703125-.021484375,1.5888671875-.0078125,2.9765625s-.0888671875,2.78515625-.3046875,4.19140625c-.21875,1.4072265625-.560546875,2.6923828125-1.02734375,3.853515625-.46875,1.1630859375-1.1923828125,1.8154296875-2.171875,1.9619140625-.916015625.138671875-1.9609375.291015625-3.138671875.453125-1.177734375.16015625-2.337890625.1220703125-3.482421875-.1142578125-1.138671875-.171875-2.1171875-.6240234375-2.935546875-1.3505859375-.8203125-.7275390625-1.33203125-1.9404296875-1.5361328125-3.6455078125-.1650390625-2.0361328125-.3212890625-4.3720703125-.46875-7.005859375-.1474609375-2.6318359375-.2470703125-5.501953125-.2998046875-8.6064453125-.0771484375-2.57421875-.08984375-5.3994140625-.0419921875-8.4794921875.0478515625-3.0791015625.220703125-6.2509765625.5185546875-9.515625.296875-3.265625.759765625-6.544921875,1.3857421875-9.8359375s1.4951171875-6.4365234375,2.6083984375-9.4375c1.111328125-3,2.490234375-5.7900390625,4.1337890625-8.37109375,1.6416015625-2.5791015625,3.6787109375-4.794921875,6.1083984375-6.646484375,2.8671875-2.1484375,6.109375-3.3720703125,9.72265625-3.6640625,3.61328125-.29296875,7.1025390625.3173828125,10.466796875,1.830078125ZM46.6689453125,107.96044921875c4.11328125-.6630859375,8.2158203125-1.2431640625,12.3095703125-1.740234375,4.0927734375-.4970703125,8.21484375-.84765625,12.365234375-1.0517578125-.1796875-4.6806640625-.7158203125-8.8359375-1.60546875-12.4697265625-.888671875-3.630859375-1.962890625-6.6689453125-3.21875-9.115234375-1.255859375-2.443359375-2.662109375-4.28125-4.216796875-5.5107421875s-3.087890625-1.783203125-4.59765625-1.6611328125c-1.3154296875.1064453125-2.6240234375.890625-3.927734375,2.3515625-1.3046875,1.4619140625-2.4580078125,3.541015625-3.462890625,6.2333984375-1.005859375,2.6943359375-1.8466796875,5.9873046875-2.5234375,9.876953125-.67578125,3.8916015625-1.0517578125,8.2548828125-1.1220703125,13.0869140625Z"/>
            <path class="cls-2" d="M66.986328125,61.17431640625c2.61328125,1.244140625,4.892578125,2.845703125,6.837890625,4.8037109375,1.9453125,1.9609375,3.625,4.138671875,5.04296875,6.537109375s2.6015625,4.96484375,3.55078125,7.697265625c.94921875,2.736328125,1.734375,5.4990234375,2.3583984375,8.2919921875,1.3720703125,5.5107421875,2.3544921875,11.119140625,2.9501953125,16.8251953125.59375,5.7060546875.9609375,11.4638671875,1.1015625,17.2724609375.0009765625,1.6533203125-.0205078125,3.01171875-.06640625,4.072265625-.046875,1.0634765625-.224609375,1.9375-.53125,2.623046875-.30859375.6875-.7763671875,1.2529296875-1.400390625,1.701171875-.6259765625.4462890625-1.515625.8818359375-2.671875,1.3076171875-1.107421875.2216796875-2.265625.4140625-3.474609375.5791015625-1.2119140625.1630859375-2.3720703125-.0732421875-3.48046875-.7109375-1.0390625-.576171875-1.9521484375-1.626953125-2.736328125-3.1513671875-.78515625-1.5234375-1.330078125-3.76171875-1.634765625-6.712890625l-.080078125-.984375c-1.658203125-.0654296875-3.6259765625-.0693359375-5.904296875-.0185546875-2.27734375.052734375-4.599609375.158203125-6.96875.31640625-2.3671875.1591796875-4.65234375.3271484375-6.853515625.505859375-2.2021484375.1787109375-4.05859375.3291015625-5.568359375.451171875-.0185546875.595703125-.021484375,1.5888671875-.0078125,2.9765625s-.0888671875,2.78515625-.3046875,4.19140625c-.21875,1.4072265625-.560546875,2.6923828125-1.02734375,3.853515625-.46875,1.1630859375-1.1923828125,1.8154296875-2.171875,1.9619140625-.916015625.138671875-1.9609375.291015625-3.138671875.453125-1.177734375.16015625-2.337890625.1220703125-3.482421875-.1142578125-1.138671875-.171875-2.1171875-.6240234375-2.935546875-1.3505859375-.8203125-.7275390625-1.33203125-1.9404296875-1.5361328125-3.6455078125-.1650390625-2.0361328125-.3212890625-4.3720703125-.46875-7.005859375-.1474609375-2.6318359375-.2470703125-5.501953125-.2998046875-8.6064453125-.0771484375-2.57421875-.08984375-5.3994140625-.0419921875-8.4794921875.0478515625-3.0791015625.220703125-6.2509765625.5185546875-9.515625.296875-3.265625.759765625-6.544921875,1.3857421875-9.8359375s1.4951171875-6.4365234375,2.6083984375-9.4375c1.111328125-3,2.490234375-5.7900390625,4.1337890625-8.37109375,1.6416015625-2.5791015625,3.6787109375-4.794921875,6.1083984375-6.646484375,2.8671875-2.1484375,6.109375-3.3720703125,9.72265625-3.6640625,3.61328125-.29296875,7.1025390625.3173828125,10.466796875,1.830078125ZM46.6689453125,107.96044921875c4.11328125-.6630859375,8.2158203125-1.2431640625,12.3095703125-1.740234375,4.0927734375-.4970703125,8.21484375-.84765625,12.365234375-1.0517578125-.1796875-4.6806640625-.7158203125-8.8359375-1.60546875-12.4697265625-.888671875-3.630859375-1.962890625-6.6689453125-3.21875-9.115234375-1.255859375-2.443359375-2.662109375-4.28125-4.216796875-5.5107421875s-3.087890625-1.783203125-4.59765625-1.6611328125c-1.3154296875.1064453125-2.6240234375.890625-3.927734375,2.3515625-1.3046875,1.4619140625-2.4580078125,3.541015625-3.462890625,6.2333984375-1.005859375,2.6943359375-1.8466796875,5.9873046875-2.5234375,9.876953125-.67578125,3.8916015625-1.0517578125,8.2548828125-1.1220703125,13.0869140625Z"/>
          </g>
        </a>
        <a xlink:href="https://www.notion.so/congruence/B-Event-1f1a5b08a72c49f5ab60f2e0793fd0a8?pvs=4">
          <g>
            <path class="cls-2" d="M202.31640625,83.40966796875c3.072265625,2,5.44921875,4.603515625,7.130859375,7.8056640625,1.681640625,3.2041015625,2.40234375,6.6005859375,2.1640625,10.19140625-.265625,4.0576171875-1.5703125,7.552734375-3.912109375,10.4853515625-2.341796875,2.935546875-5.189453125,5.3330078125-8.5439453125,7.19140625-3.3564453125,1.859375-7.03125,3.216796875-11.0302734375,4.068359375-3.998046875.8525390625-7.787109375,1.2265625-11.3681640625,1.119140625-.3193359375.158203125-.607421875.263671875-.8662109375.318359375-.26171875.0537109375-.552734375.126953125-.8759765625.220703125-1.1767578125.16015625-2.3935546875.2587890625-3.646484375.294921875-1.2548828125.03515625-2.4052734375-.0869140625-3.4521484375-.3662109375-1.048828125-.27734375-1.966796875-.7978515625-2.755859375-1.5615234375-.791015625-.7626953125-1.3115234375-1.8935546875-1.564453125-3.3955078125-.19140625-.7119140625-.341796875-2.1708984375-.4541015625-4.37890625-.1142578125-2.205078125-.2646484375-4.888671875-.4541015625-8.048828125-.1298828125-3.228515625-.296875-6.7373046875-.5048828125-10.5244140625-.2080078125-3.7861328125-.43359375-7.5869140625-.6767578125-11.4033203125-.33984375-4.9990234375-.6806640625-10.0302734375-1.0234375-15.095703125-.345703125-5.064453125-.955078125-10.1416015625-1.830078125-15.2294921875-.1796875-.5810546875-.15625-1.111328125.0703125-1.59375.0986328125-.404296875.36328125-.8056640625.794921875-1.205078125.4296875-.3974609375,1.099609375-.7001953125,2.009765625-.90625.650390625-.119140625,1.3671875-.2763671875,2.14453125-.4716796875s1.58984375-.3603515625,2.439453125-.4951171875c.8486328125-.1337890625,1.6708984375-.2001953125,2.46484375-.2001953125.79296875.001953125,1.494140625.078125,2.1015625.2255859375,3.314453125-.7294921875,6.8271484375-1.03125,10.5419921875-.90234375,3.7138671875.12890625,7.2509765625.71875,10.6103515625,1.76953125s6.326171875,2.5791015625,8.9033203125,4.5859375c2.5771484375,2.0087890625,4.3876953125,4.556640625,5.4306640625,7.6455078125.4404296875,1.353515625.7548828125,2.783203125.943359375,4.2880859375.1875,1.5078125.150390625,3.0810546875-.11328125,4.72265625-.2646484375,1.642578125-.76953125,3.37109375-1.515625,5.181640625-.7451171875,1.814453125-1.7998046875,3.703125-3.162109375,5.6640625ZM176.2197265625,79.67041015625c3.1650390625-.123046875,5.798828125-.6689453125,7.9033203125-1.6318359375,2.1044921875-.96484375,3.646484375-2.130859375,4.626953125-3.5.98046875-1.3701171875,1.392578125-2.8076171875,1.23828125-4.3173828125-.15625-1.5078125-.83984375-2.8095703125-2.052734375-3.9013671875-1.2138671875-1.091796875-2.962890625-1.8583984375-5.24609375-2.302734375-2.28515625-.443359375-5.1171875-.2958984375-8.49609375.4404296875.404296875,2.5458984375.7578125,5.064453125,1.05859375,7.552734375.30078125,2.490234375.6220703125,5.0439453125.9677734375,7.66015625ZM178.830078125,108.22900390625c3.580078125.107421875,6.556640625-.298828125,8.9296875-1.21875,2.37109375-.9189453125,4.115234375-2.052734375,5.23046875-3.400390625,1.115234375-1.345703125,1.62890625-2.7431640625,1.544921875-4.193359375-.083984375-1.447265625-.759765625-2.6494140625-2.02734375-3.60546875-1.267578125-.955078125-3.1328125-1.5146484375-5.59375-1.6796875-2.4599609375-.1630859375-5.49609375.330078125-9.10546875,1.482421875l1.021484375,12.615234375Z"/>
            <path class="cls-2" d="M202.31640625,83.40966796875c3.072265625,2,5.44921875,4.603515625,7.130859375,7.8056640625,1.681640625,3.2041015625,2.40234375,6.6005859375,2.1640625,10.19140625-.265625,4.0576171875-1.5703125,7.552734375-3.912109375,10.4853515625-2.341796875,2.935546875-5.189453125,5.3330078125-8.5439453125,7.19140625-3.3564453125,1.859375-7.03125,3.216796875-11.0302734375,4.068359375-3.998046875.8525390625-7.787109375,1.2265625-11.3681640625,1.119140625-.3193359375.158203125-.607421875.263671875-.8662109375.318359375-.26171875.0537109375-.552734375.126953125-.8759765625.220703125-1.1767578125.16015625-2.3935546875.2587890625-3.646484375.294921875-1.2548828125.03515625-2.4052734375-.0869140625-3.4521484375-.3662109375-1.048828125-.27734375-1.966796875-.7978515625-2.755859375-1.5615234375-.791015625-.7626953125-1.3115234375-1.8935546875-1.564453125-3.3955078125-.19140625-.7119140625-.341796875-2.1708984375-.4541015625-4.37890625-.1142578125-2.205078125-.2646484375-4.888671875-.4541015625-8.048828125-.1298828125-3.228515625-.296875-6.7373046875-.5048828125-10.5244140625-.2080078125-3.7861328125-.43359375-7.5869140625-.6767578125-11.4033203125-.33984375-4.9990234375-.6806640625-10.0302734375-1.0234375-15.095703125-.345703125-5.064453125-.955078125-10.1416015625-1.830078125-15.2294921875-.1796875-.5810546875-.15625-1.111328125.0703125-1.59375.0986328125-.404296875.36328125-.8056640625.794921875-1.205078125.4296875-.3974609375,1.099609375-.7001953125,2.009765625-.90625.650390625-.119140625,1.3671875-.2763671875,2.14453125-.4716796875s1.58984375-.3603515625,2.439453125-.4951171875c.8486328125-.1337890625,1.6708984375-.2001953125,2.46484375-.2001953125.79296875.001953125,1.494140625.078125,2.1015625.2255859375,3.314453125-.7294921875,6.8271484375-1.03125,10.5419921875-.90234375,3.7138671875.12890625,7.2509765625.71875,10.6103515625,1.76953125s6.326171875,2.5791015625,8.9033203125,4.5859375c2.5771484375,2.0087890625,4.3876953125,4.556640625,5.4306640625,7.6455078125.4404296875,1.353515625.7548828125,2.783203125.943359375,4.2880859375.1875,1.5078125.150390625,3.0810546875-.11328125,4.72265625-.2646484375,1.642578125-.76953125,3.37109375-1.515625,5.181640625-.7451171875,1.814453125-1.7998046875,3.703125-3.162109375,5.6640625ZM176.2197265625,79.67041015625c3.1650390625-.123046875,5.798828125-.6689453125,7.9033203125-1.6318359375,2.1044921875-.96484375,3.646484375-2.130859375,4.626953125-3.5.98046875-1.3701171875,1.392578125-2.8076171875,1.23828125-4.3173828125-.15625-1.5078125-.83984375-2.8095703125-2.052734375-3.9013671875-1.2138671875-1.091796875-2.962890625-1.8583984375-5.24609375-2.302734375-2.28515625-.443359375-5.1171875-.2958984375-8.49609375.4404296875.404296875,2.5458984375.7578125,5.064453125,1.05859375,7.552734375.30078125,2.490234375.6220703125,5.0439453125.9677734375,7.66015625ZM178.830078125,108.22900390625c3.580078125.107421875,6.556640625-.298828125,8.9296875-1.21875,2.37109375-.9189453125,4.115234375-2.052734375,5.23046875-3.400390625,1.115234375-1.345703125,1.62890625-2.7431640625,1.544921875-4.193359375-.083984375-1.447265625-.759765625-2.6494140625-2.02734375-3.60546875-1.267578125-.955078125-3.1328125-1.5146484375-5.59375-1.6796875-2.4599609375-.1630859375-5.49609375.330078125-9.10546875,1.482421875l1.021484375,12.615234375Z"/>
            <path class="cls-2" d="M202.31640625,83.40966796875c3.072265625,2,5.44921875,4.603515625,7.130859375,7.8056640625,1.681640625,3.2041015625,2.40234375,6.6005859375,2.1640625,10.19140625-.265625,4.0576171875-1.5703125,7.552734375-3.912109375,10.4853515625-2.341796875,2.935546875-5.189453125,5.3330078125-8.5439453125,7.19140625-3.3564453125,1.859375-7.03125,3.216796875-11.0302734375,4.068359375-3.998046875.8525390625-7.787109375,1.2265625-11.3681640625,1.119140625-.3193359375.158203125-.607421875.263671875-.8662109375.318359375-.26171875.0537109375-.552734375.126953125-.8759765625.220703125-1.1767578125.16015625-2.3935546875.2587890625-3.646484375.294921875-1.2548828125.03515625-2.4052734375-.0869140625-3.4521484375-.3662109375-1.048828125-.27734375-1.966796875-.7978515625-2.755859375-1.5615234375-.791015625-.7626953125-1.3115234375-1.8935546875-1.564453125-3.3955078125-.19140625-.7119140625-.341796875-2.1708984375-.4541015625-4.37890625-.1142578125-2.205078125-.2646484375-4.888671875-.4541015625-8.048828125-.1298828125-3.228515625-.296875-6.7373046875-.5048828125-10.5244140625-.2080078125-3.7861328125-.43359375-7.5869140625-.6767578125-11.4033203125-.33984375-4.9990234375-.6806640625-10.0302734375-1.0234375-15.095703125-.345703125-5.064453125-.955078125-10.1416015625-1.830078125-15.2294921875-.1796875-.5810546875-.15625-1.111328125.0703125-1.59375.0986328125-.404296875.36328125-.8056640625.794921875-1.205078125.4296875-.3974609375,1.099609375-.7001953125,2.009765625-.90625.650390625-.119140625,1.3671875-.2763671875,2.14453125-.4716796875s1.58984375-.3603515625,2.439453125-.4951171875c.8486328125-.1337890625,1.6708984375-.2001953125,2.46484375-.2001953125.79296875.001953125,1.494140625.078125,2.1015625.2255859375,3.314453125-.7294921875,6.8271484375-1.03125,10.5419921875-.90234375,3.7138671875.12890625,7.2509765625.71875,10.6103515625,1.76953125s6.326171875,2.5791015625,8.9033203125,4.5859375c2.5771484375,2.0087890625,4.3876953125,4.556640625,5.4306640625,7.6455078125.4404296875,1.353515625.7548828125,2.783203125.943359375,4.2880859375.1875,1.5078125.150390625,3.0810546875-.11328125,4.72265625-.2646484375,1.642578125-.76953125,3.37109375-1.515625,5.181640625-.7451171875,1.814453125-1.7998046875,3.703125-3.162109375,5.6640625ZM176.2197265625,79.67041015625c3.1650390625-.123046875,5.798828125-.6689453125,7.9033203125-1.6318359375,2.1044921875-.96484375,3.646484375-2.130859375,4.626953125-3.5.98046875-1.3701171875,1.392578125-2.8076171875,1.23828125-4.3173828125-.15625-1.5078125-.83984375-2.8095703125-2.052734375-3.9013671875-1.2138671875-1.091796875-2.962890625-1.8583984375-5.24609375-2.302734375-2.28515625-.443359375-5.1171875-.2958984375-8.49609375.4404296875.404296875,2.5458984375.7578125,5.064453125,1.05859375,7.552734375.30078125,2.490234375.6220703125,5.0439453125.9677734375,7.66015625ZM178.830078125,108.22900390625c3.580078125.107421875,6.556640625-.298828125,8.9296875-1.21875,2.37109375-.9189453125,4.115234375-2.052734375,5.23046875-3.400390625,1.115234375-1.345703125,1.62890625-2.7431640625,1.544921875-4.193359375-.083984375-1.447265625-.759765625-2.6494140625-2.02734375-3.60546875-1.267578125-.955078125-3.1328125-1.5146484375-5.59375-1.6796875-2.4599609375-.1630859375-5.49609375.330078125-9.10546875,1.482421875l1.021484375,12.615234375Z"/>
          </g>
        </a>
        <a xlink:href="https://www.notion.so/congruence/B-Event-1f1a5b08a72c49f5ab60f2e0793fd0a8?pvs=4">
          <g>
            <path class="cls-2" d="M230.61328125,39.2783203125c-.052734375-1.111328125-.30078125-1.9287109375-.74609375-2.4501953125-.447265625-.521484375-.9814453125-.82421875-1.603515625-.908203125-.623046875-.083984375-1.2763671875.037109375-1.9609375.3603515625-.6865234375.3251953125-1.294921875.759765625-1.828125,1.3017578125-1.244140625,1.2548828125-2.205078125,2.8037109375-2.8828125,4.6474609375-.6787109375,1.8447265625-1.080078125,3.751953125-1.2099609375,5.724609375-.12890625,1.9716796875.0087890625,3.9130859375.4140625,5.8232421875s1.0849609375,3.5380859375,2.0400390625,4.8828125c.609375.8740234375,1.3046875,1.5009765625,2.0849609375,1.87890625.78125.3798828125,1.59375.5634765625,2.4404296875.5537109375.84375-.0107421875,1.6640625-.2119140625,2.4599609375-.603515625.7958984375-.390625,1.4912109375-.9375,2.0888671875-1.640625.9130859375-1.07421875,1.658203125-1.845703125,2.236328125-2.31640625.576171875-.4697265625,1.24609375-.75390625,2.0078125-.8544921875,2.177734375-.1767578125,3.669921875.318359375,4.4765625,1.4833984375.8056640625,1.166015625.97265625,2.65234375.5048828125,4.458984375-.3857421875,1.4169921875-1.04296875,2.681640625-1.9716796875,3.7958984375-.9296875,1.1142578125-2.037109375,2.0400390625-3.3232421875,2.7783203125-1.2880859375.7392578125-2.6845703125,1.294921875-4.1923828125,1.66796875-1.5087890625.3720703125-3.01171875.560546875-4.51171875.56640625s-2.9404296875-.1953125-4.3193359375-.6025390625c-1.3798828125-.4072265625-2.5830078125-1.01171875-3.6083984375-1.8125-1.1513671875-.908203125-2.1796875-1.9677734375-3.0859375-3.1826171875-.90625-1.2158203125-1.685546875-2.5185546875-2.3359375-3.9091796875-.6513671875-1.388671875-1.173828125-2.8466796875-1.5654296875-4.373046875-.3935546875-1.5263671875-.6533203125-3.072265625-.7802734375-4.6396484375-.208984375-3.521484375.26171875-6.9833984375,1.408203125-10.384765625,1.1484375-3.400390625,2.7890625-6.4189453125,4.921875-9.0537109375.9794921875-1.1943359375,2.173828125-2.2431640625,3.58203125-3.1455078125,1.4072265625-.90234375,2.876953125-1.5322265625,4.40625-1.8857421875,1.529296875-.3564453125,3.0546875-.40234375,4.5751953125-.140625,1.5224609375.26171875,2.9052734375.9580078125,4.1494140625,2.087890625.9541015625.845703125,1.74609375,1.8388671875,2.376953125,2.98046875.630859375,1.140625,1.12890625,2.29296875,1.4921875,3.4560546875.21484375.7529296875.33984375,1.47265625.376953125,2.162109375.037109375.6904296875-.0732421875,1.353515625-.3291015625,1.98828125-.3583984375.7998046875-.9638671875,1.396484375-1.8173828125,1.7919921875-.8525390625.396484375-1.712890625.5712890625-2.58203125.52734375-.869140625-.0458984375-1.6416015625-.3193359375-2.31640625-.8232421875-.67578125-.5029296875-1.033203125-1.232421875-1.072265625-2.19140625Z"/>
            <path class="cls-2" d="M230.61328125,39.2783203125c-.052734375-1.111328125-.30078125-1.9287109375-.74609375-2.4501953125-.447265625-.521484375-.9814453125-.82421875-1.603515625-.908203125-.623046875-.083984375-1.2763671875.037109375-1.9609375.3603515625-.6865234375.3251953125-1.294921875.759765625-1.828125,1.3017578125-1.244140625,1.2548828125-2.205078125,2.8037109375-2.8828125,4.6474609375-.6787109375,1.8447265625-1.080078125,3.751953125-1.2099609375,5.724609375-.12890625,1.9716796875.0087890625,3.9130859375.4140625,5.8232421875s1.0849609375,3.5380859375,2.0400390625,4.8828125c.609375.8740234375,1.3046875,1.5009765625,2.0849609375,1.87890625.78125.3798828125,1.59375.5634765625,2.4404296875.5537109375.84375-.0107421875,1.6640625-.2119140625,2.4599609375-.603515625.7958984375-.390625,1.4912109375-.9375,2.0888671875-1.640625.9130859375-1.07421875,1.658203125-1.845703125,2.236328125-2.31640625.576171875-.4697265625,1.24609375-.75390625,2.0078125-.8544921875,2.177734375-.1767578125,3.669921875.318359375,4.4765625,1.4833984375.8056640625,1.166015625.97265625,2.65234375.5048828125,4.458984375-.3857421875,1.4169921875-1.04296875,2.681640625-1.9716796875,3.7958984375-.9296875,1.1142578125-2.037109375,2.0400390625-3.3232421875,2.7783203125-1.2880859375.7392578125-2.6845703125,1.294921875-4.1923828125,1.66796875-1.5087890625.3720703125-3.01171875.560546875-4.51171875.56640625s-2.9404296875-.1953125-4.3193359375-.6025390625c-1.3798828125-.4072265625-2.5830078125-1.01171875-3.6083984375-1.8125-1.1513671875-.908203125-2.1796875-1.9677734375-3.0859375-3.1826171875-.90625-1.2158203125-1.685546875-2.5185546875-2.3359375-3.9091796875-.6513671875-1.388671875-1.173828125-2.8466796875-1.5654296875-4.373046875-.3935546875-1.5263671875-.6533203125-3.072265625-.7802734375-4.6396484375-.208984375-3.521484375.26171875-6.9833984375,1.408203125-10.384765625,1.1484375-3.400390625,2.7890625-6.4189453125,4.921875-9.0537109375.9794921875-1.1943359375,2.173828125-2.2431640625,3.58203125-3.1455078125,1.4072265625-.90234375,2.876953125-1.5322265625,4.40625-1.8857421875,1.529296875-.3564453125,3.0546875-.40234375,4.5751953125-.140625,1.5224609375.26171875,2.9052734375.9580078125,4.1494140625,2.087890625.9541015625.845703125,1.74609375,1.8388671875,2.376953125,2.98046875.630859375,1.140625,1.12890625,2.29296875,1.4921875,3.4560546875.21484375.7529296875.33984375,1.47265625.376953125,2.162109375.037109375.6904296875-.0732421875,1.353515625-.3291015625,1.98828125-.3583984375.7998046875-.9638671875,1.396484375-1.8173828125,1.7919921875-.8525390625.396484375-1.712890625.5712890625-2.58203125.52734375-.869140625-.0458984375-1.6416015625-.3193359375-2.31640625-.8232421875-.67578125-.5029296875-1.033203125-1.232421875-1.072265625-2.19140625Z"/>
            <path class="cls-2" d="M230.61328125,39.2783203125c-.052734375-1.111328125-.30078125-1.9287109375-.74609375-2.4501953125-.447265625-.521484375-.9814453125-.82421875-1.603515625-.908203125-.623046875-.083984375-1.2763671875.037109375-1.9609375.3603515625-.6865234375.3251953125-1.294921875.759765625-1.828125,1.3017578125-1.244140625,1.2548828125-2.205078125,2.8037109375-2.8828125,4.6474609375-.6787109375,1.8447265625-1.080078125,3.751953125-1.2099609375,5.724609375-.12890625,1.9716796875.0087890625,3.9130859375.4140625,5.8232421875s1.0849609375,3.5380859375,2.0400390625,4.8828125c.609375.8740234375,1.3046875,1.5009765625,2.0849609375,1.87890625.78125.3798828125,1.59375.5634765625,2.4404296875.5537109375.84375-.0107421875,1.6640625-.2119140625,2.4599609375-.603515625.7958984375-.390625,1.4912109375-.9375,2.0888671875-1.640625.9130859375-1.07421875,1.658203125-1.845703125,2.236328125-2.31640625.576171875-.4697265625,1.24609375-.75390625,2.0078125-.8544921875,2.177734375-.1767578125,3.669921875.318359375,4.4765625,1.4833984375.8056640625,1.166015625.97265625,2.65234375.5048828125,4.458984375-.3857421875,1.4169921875-1.04296875,2.681640625-1.9716796875,3.7958984375-.9296875,1.1142578125-2.037109375,2.0400390625-3.3232421875,2.7783203125-1.2880859375.7392578125-2.6845703125,1.294921875-4.1923828125,1.66796875-1.5087890625.3720703125-3.01171875.560546875-4.51171875.56640625s-2.9404296875-.1953125-4.3193359375-.6025390625c-1.3798828125-.4072265625-2.5830078125-1.01171875-3.6083984375-1.8125-1.1513671875-.908203125-2.1796875-1.9677734375-3.0859375-3.1826171875-.90625-1.2158203125-1.685546875-2.5185546875-2.3359375-3.9091796875-.6513671875-1.388671875-1.173828125-2.8466796875-1.5654296875-4.373046875-.3935546875-1.5263671875-.6533203125-3.072265625-.7802734375-4.6396484375-.208984375-3.521484375.26171875-6.9833984375,1.408203125-10.384765625,1.1484375-3.400390625,2.7890625-6.4189453125,4.921875-9.0537109375.9794921875-1.1943359375,2.173828125-2.2431640625,3.58203125-3.1455078125,1.4072265625-.90234375,2.876953125-1.5322265625,4.40625-1.8857421875,1.529296875-.3564453125,3.0546875-.40234375,4.5751953125-.140625,1.5224609375.26171875,2.9052734375.9580078125,4.1494140625,2.087890625.9541015625.845703125,1.74609375,1.8388671875,2.376953125,2.98046875.630859375,1.140625,1.12890625,2.29296875,1.4921875,3.4560546875.21484375.7529296875.33984375,1.47265625.376953125,2.162109375.037109375.6904296875-.0732421875,1.353515625-.3291015625,1.98828125-.3583984375.7998046875-.9638671875,1.396484375-1.8173828125,1.7919921875-.8525390625.396484375-1.712890625.5712890625-2.58203125.52734375-.869140625-.0458984375-1.6416015625-.3193359375-2.31640625-.8232421875-.67578125-.5029296875-1.033203125-1.232421875-1.072265625-2.19140625Z"/>
          </g>
        </a>
        <path class="cls-2" d="M129,54.10009765625c-.15234375,13.5634765625-.28515625,27.0078125-.3984375,40.3330078125-.1142578125,13.3251953125-.1337890625,26.76953125-.056640625,40.33203125-.1533203125.9521484375-.41796875,1.826171875-.7978515625,2.6181640625-.3798828125.6357421875-.9501953125,1.26953125-1.7080078125,1.9033203125-.759765625.6357421875-1.78515625,1.0302734375-3.07421875,1.189453125-1.3671875.158203125-2.75390625.2568359375-4.1572265625.2978515625-1.4052734375.0390625-2.7158203125-.119140625-3.9287109375-.4755859375-1.21484375-.357421875-2.259765625-.9912109375-3.1318359375-1.904296875-.8740234375-.91015625-1.4228515625-2.279296875-1.6513671875-4.1044921875-.15234375-.8720703125-.2275390625-2.6953125-.2275390625-5.47265625,0-2.775390625.056640625-6.126953125.1708984375-10.0537109375.11328125-3.92578125.2451171875-8.248046875.3984375-12.9677734375.1513671875-4.71875.341796875-9.458984375.5693359375-14.2177734375.1513671875-4.7587890625.359375-9.3583984375.6259765625-13.80078125.265625-4.44140625.4736328125-8.40625.626953125-11.8974609375.2275390625-4.0458984375.455078125-7.8525390625.68359375-11.421875-.0771484375-.7138671875.037109375-1.34765625.341796875-1.9033203125.2265625-.4765625.5859375-.892578125,1.0810546875-1.25.4931640625-.3564453125,1.2705078125-.57421875,2.3349609375-.654296875h3.701171875c1.404296875,0,2.75.1005859375,4.04296875.2978515625,1.2890625.19921875,2.37109375.53515625,3.2451171875,1.0107421875.8720703125.4765625,1.3095703125,1.1904296875,1.3095703125,2.1416015625Z"/>
      </g>
      <g>
        <a xlink:href="https://www.notion.so/congruence/B-Event-1f1a5b08a72c49f5ab60f2e0793fd0a8?pvs=4">
          <g>
            <path class="cls-3" d="M66.986328125,61.17431640625c2.61328125,1.244140625,4.892578125,2.845703125,6.837890625,4.8037109375,1.9453125,1.9609375,3.625,4.138671875,5.04296875,6.537109375s2.6015625,4.96484375,3.55078125,7.697265625c.94921875,2.736328125,1.734375,5.4990234375,2.3583984375,8.2919921875,1.3720703125,5.5107421875,2.3544921875,11.119140625,2.9501953125,16.8251953125.59375,5.7060546875.9609375,11.4638671875,1.1015625,17.2724609375.0009765625,1.6533203125-.0205078125,3.01171875-.06640625,4.072265625-.046875,1.0634765625-.224609375,1.9375-.53125,2.623046875-.30859375.6875-.7763671875,1.2529296875-1.400390625,1.701171875-.6259765625.4462890625-1.515625.8818359375-2.671875,1.3076171875-1.107421875.2216796875-2.265625.4140625-3.474609375.5791015625-1.2119140625.1630859375-2.3720703125-.0732421875-3.48046875-.7109375-1.0390625-.576171875-1.9521484375-1.626953125-2.736328125-3.1513671875-.78515625-1.5234375-1.330078125-3.76171875-1.634765625-6.712890625l-.080078125-.984375c-1.658203125-.0654296875-3.6259765625-.0693359375-5.904296875-.0185546875-2.27734375.052734375-4.599609375.158203125-6.96875.31640625-2.3671875.1591796875-4.65234375.3271484375-6.853515625.505859375-2.2021484375.1787109375-4.05859375.3291015625-5.568359375.451171875-.0185546875.595703125-.021484375,1.5888671875-.0078125,2.9765625s-.0888671875,2.78515625-.3046875,4.19140625c-.21875,1.4072265625-.560546875,2.6923828125-1.02734375,3.853515625-.46875,1.1630859375-1.1923828125,1.8154296875-2.171875,1.9619140625-.916015625.138671875-1.9609375.291015625-3.138671875.453125-1.177734375.16015625-2.337890625.1220703125-3.482421875-.1142578125-1.138671875-.171875-2.1171875-.6240234375-2.935546875-1.3505859375-.8203125-.7275390625-1.33203125-1.9404296875-1.5361328125-3.6455078125-.1650390625-2.0361328125-.3212890625-4.3720703125-.46875-7.005859375-.1474609375-2.6318359375-.2470703125-5.501953125-.2998046875-8.6064453125-.0771484375-2.57421875-.08984375-5.3994140625-.0419921875-8.4794921875.0478515625-3.0791015625.220703125-6.2509765625.5185546875-9.515625.296875-3.265625.759765625-6.544921875,1.3857421875-9.8359375s1.4951171875-6.4365234375,2.6083984375-9.4375c1.111328125-3,2.490234375-5.7900390625,4.1337890625-8.37109375,1.6416015625-2.5791015625,3.6787109375-4.794921875,6.1083984375-6.646484375,2.8671875-2.1484375,6.109375-3.3720703125,9.72265625-3.6640625,3.61328125-.29296875,7.1025390625.3173828125,10.466796875,1.830078125ZM46.6689453125,107.96044921875c4.11328125-.6630859375,8.2158203125-1.2431640625,12.3095703125-1.740234375,4.0927734375-.4970703125,8.21484375-.84765625,12.365234375-1.0517578125-.1796875-4.6806640625-.7158203125-8.8359375-1.60546875-12.4697265625-.888671875-3.630859375-1.962890625-6.6689453125-3.21875-9.115234375-1.255859375-2.443359375-2.662109375-4.28125-4.216796875-5.5107421875s-3.087890625-1.783203125-4.59765625-1.6611328125c-1.3154296875.1064453125-2.6240234375.890625-3.927734375,2.3515625-1.3046875,1.4619140625-2.4580078125,3.541015625-3.462890625,6.2333984375-1.005859375,2.6943359375-1.8466796875,5.9873046875-2.5234375,9.876953125-.67578125,3.8916015625-1.0517578125,8.2548828125-1.1220703125,13.0869140625Z"/>
            <path class="cls-3" d="M66.986328125,61.17431640625c2.61328125,1.244140625,4.892578125,2.845703125,6.837890625,4.8037109375,1.9453125,1.9609375,3.625,4.138671875,5.04296875,6.537109375s2.6015625,4.96484375,3.55078125,7.697265625c.94921875,2.736328125,1.734375,5.4990234375,2.3583984375,8.2919921875,1.3720703125,5.5107421875,2.3544921875,11.119140625,2.9501953125,16.8251953125.59375,5.7060546875.9609375,11.4638671875,1.1015625,17.2724609375.0009765625,1.6533203125-.0205078125,3.01171875-.06640625,4.072265625-.046875,1.0634765625-.224609375,1.9375-.53125,2.623046875-.30859375.6875-.7763671875,1.2529296875-1.400390625,1.701171875-.6259765625.4462890625-1.515625.8818359375-2.671875,1.3076171875-1.107421875.2216796875-2.265625.4140625-3.474609375.5791015625-1.2119140625.1630859375-2.3720703125-.0732421875-3.48046875-.7109375-1.0390625-.576171875-1.9521484375-1.626953125-2.736328125-3.1513671875-.78515625-1.5234375-1.330078125-3.76171875-1.634765625-6.712890625l-.080078125-.984375c-1.658203125-.0654296875-3.6259765625-.0693359375-5.904296875-.0185546875-2.27734375.052734375-4.599609375.158203125-6.96875.31640625-2.3671875.1591796875-4.65234375.3271484375-6.853515625.505859375-2.2021484375.1787109375-4.05859375.3291015625-5.568359375.451171875-.0185546875.595703125-.021484375,1.5888671875-.0078125,2.9765625s-.0888671875,2.78515625-.3046875,4.19140625c-.21875,1.4072265625-.560546875,2.6923828125-1.02734375,3.853515625-.46875,1.1630859375-1.1923828125,1.8154296875-2.171875,1.9619140625-.916015625.138671875-1.9609375.291015625-3.138671875.453125-1.177734375.16015625-2.337890625.1220703125-3.482421875-.1142578125-1.138671875-.171875-2.1171875-.6240234375-2.935546875-1.3505859375-.8203125-.7275390625-1.33203125-1.9404296875-1.5361328125-3.6455078125-.1650390625-2.0361328125-.3212890625-4.3720703125-.46875-7.005859375-.1474609375-2.6318359375-.2470703125-5.501953125-.2998046875-8.6064453125-.0771484375-2.57421875-.08984375-5.3994140625-.0419921875-8.4794921875.0478515625-3.0791015625.220703125-6.2509765625.5185546875-9.515625.296875-3.265625.759765625-6.544921875,1.3857421875-9.8359375s1.4951171875-6.4365234375,2.6083984375-9.4375c1.111328125-3,2.490234375-5.7900390625,4.1337890625-8.37109375,1.6416015625-2.5791015625,3.6787109375-4.794921875,6.1083984375-6.646484375,2.8671875-2.1484375,6.109375-3.3720703125,9.72265625-3.6640625,3.61328125-.29296875,7.1025390625.3173828125,10.466796875,1.830078125ZM46.6689453125,107.96044921875c4.11328125-.6630859375,8.2158203125-1.2431640625,12.3095703125-1.740234375,4.0927734375-.4970703125,8.21484375-.84765625,12.365234375-1.0517578125-.1796875-4.6806640625-.7158203125-8.8359375-1.60546875-12.4697265625-.888671875-3.630859375-1.962890625-6.6689453125-3.21875-9.115234375-1.255859375-2.443359375-2.662109375-4.28125-4.216796875-5.5107421875s-3.087890625-1.783203125-4.59765625-1.6611328125c-1.3154296875.1064453125-2.6240234375.890625-3.927734375,2.3515625-1.3046875,1.4619140625-2.4580078125,3.541015625-3.462890625,6.2333984375-1.005859375,2.6943359375-1.8466796875,5.9873046875-2.5234375,9.876953125-.67578125,3.8916015625-1.0517578125,8.2548828125-1.1220703125,13.0869140625Z"/>
            <path class="cls-3" d="M66.986328125,61.17431640625c2.61328125,1.244140625,4.892578125,2.845703125,6.837890625,4.8037109375,1.9453125,1.9609375,3.625,4.138671875,5.04296875,6.537109375s2.6015625,4.96484375,3.55078125,7.697265625c.94921875,2.736328125,1.734375,5.4990234375,2.3583984375,8.2919921875,1.3720703125,5.5107421875,2.3544921875,11.119140625,2.9501953125,16.8251953125.59375,5.7060546875.9609375,11.4638671875,1.1015625,17.2724609375.0009765625,1.6533203125-.0205078125,3.01171875-.06640625,4.072265625-.046875,1.0634765625-.224609375,1.9375-.53125,2.623046875-.30859375.6875-.7763671875,1.2529296875-1.400390625,1.701171875-.6259765625.4462890625-1.515625.8818359375-2.671875,1.3076171875-1.107421875.2216796875-2.265625.4140625-3.474609375.5791015625-1.2119140625.1630859375-2.3720703125-.0732421875-3.48046875-.7109375-1.0390625-.576171875-1.9521484375-1.626953125-2.736328125-3.1513671875-.78515625-1.5234375-1.330078125-3.76171875-1.634765625-6.712890625l-.080078125-.984375c-1.658203125-.0654296875-3.6259765625-.0693359375-5.904296875-.0185546875-2.27734375.052734375-4.599609375.158203125-6.96875.31640625-2.3671875.1591796875-4.65234375.3271484375-6.853515625.505859375-2.2021484375.1787109375-4.05859375.3291015625-5.568359375.451171875-.0185546875.595703125-.021484375,1.5888671875-.0078125,2.9765625s-.0888671875,2.78515625-.3046875,4.19140625c-.21875,1.4072265625-.560546875,2.6923828125-1.02734375,3.853515625-.46875,1.1630859375-1.1923828125,1.8154296875-2.171875,1.9619140625-.916015625.138671875-1.9609375.291015625-3.138671875.453125-1.177734375.16015625-2.337890625.1220703125-3.482421875-.1142578125-1.138671875-.171875-2.1171875-.6240234375-2.935546875-1.3505859375-.8203125-.7275390625-1.33203125-1.9404296875-1.5361328125-3.6455078125-.1650390625-2.0361328125-.3212890625-4.3720703125-.46875-7.005859375-.1474609375-2.6318359375-.2470703125-5.501953125-.2998046875-8.6064453125-.0771484375-2.57421875-.08984375-5.3994140625-.0419921875-8.4794921875.0478515625-3.0791015625.220703125-6.2509765625.5185546875-9.515625.296875-3.265625.759765625-6.544921875,1.3857421875-9.8359375s1.4951171875-6.4365234375,2.6083984375-9.4375c1.111328125-3,2.490234375-5.7900390625,4.1337890625-8.37109375,1.6416015625-2.5791015625,3.6787109375-4.794921875,6.1083984375-6.646484375,2.8671875-2.1484375,6.109375-3.3720703125,9.72265625-3.6640625,3.61328125-.29296875,7.1025390625.3173828125,10.466796875,1.830078125ZM46.6689453125,107.96044921875c4.11328125-.6630859375,8.2158203125-1.2431640625,12.3095703125-1.740234375,4.0927734375-.4970703125,8.21484375-.84765625,12.365234375-1.0517578125-.1796875-4.6806640625-.7158203125-8.8359375-1.60546875-12.4697265625-.888671875-3.630859375-1.962890625-6.6689453125-3.21875-9.115234375-1.255859375-2.443359375-2.662109375-4.28125-4.216796875-5.5107421875s-3.087890625-1.783203125-4.59765625-1.6611328125c-1.3154296875.1064453125-2.6240234375.890625-3.927734375,2.3515625-1.3046875,1.4619140625-2.4580078125,3.541015625-3.462890625,6.2333984375-1.005859375,2.6943359375-1.8466796875,5.9873046875-2.5234375,9.876953125-.67578125,3.8916015625-1.0517578125,8.2548828125-1.1220703125,13.0869140625Z"/>
          </g>
        </a>
        <a xlink:href="https://www.notion.so/congruence/B-Event-1f1a5b08a72c49f5ab60f2e0793fd0a8?pvs=4">
          <g>
            <path class="cls-3" d="M202.31640625,83.40966796875c3.072265625,2,5.44921875,4.603515625,7.130859375,7.8056640625,1.681640625,3.2041015625,2.40234375,6.6005859375,2.1640625,10.19140625-.265625,4.0576171875-1.5703125,7.552734375-3.912109375,10.4853515625-2.341796875,2.935546875-5.189453125,5.3330078125-8.5439453125,7.19140625-3.3564453125,1.859375-7.03125,3.216796875-11.0302734375,4.068359375-3.998046875.8525390625-7.787109375,1.2265625-11.3681640625,1.119140625-.3193359375.158203125-.607421875.263671875-.8662109375.318359375-.26171875.0537109375-.552734375.126953125-.8759765625.220703125-1.1767578125.16015625-2.3935546875.2587890625-3.646484375.294921875-1.2548828125.03515625-2.4052734375-.0869140625-3.4521484375-.3662109375-1.048828125-.27734375-1.966796875-.7978515625-2.755859375-1.5615234375-.791015625-.7626953125-1.3115234375-1.8935546875-1.564453125-3.3955078125-.19140625-.7119140625-.341796875-2.1708984375-.4541015625-4.37890625-.1142578125-2.205078125-.2646484375-4.888671875-.4541015625-8.048828125-.1298828125-3.228515625-.296875-6.7373046875-.5048828125-10.5244140625-.2080078125-3.7861328125-.43359375-7.5869140625-.6767578125-11.4033203125-.33984375-4.9990234375-.6806640625-10.0302734375-1.0234375-15.095703125-.345703125-5.064453125-.955078125-10.1416015625-1.830078125-15.2294921875-.1796875-.5810546875-.15625-1.111328125.0703125-1.59375.0986328125-.404296875.36328125-.8056640625.794921875-1.205078125.4296875-.3974609375,1.099609375-.7001953125,2.009765625-.90625.650390625-.119140625,1.3671875-.2763671875,2.14453125-.4716796875s1.58984375-.3603515625,2.439453125-.4951171875c.8486328125-.1337890625,1.6708984375-.2001953125,2.46484375-.2001953125.79296875.001953125,1.494140625.078125,2.1015625.2255859375,3.314453125-.7294921875,6.8271484375-1.03125,10.5419921875-.90234375,3.7138671875.12890625,7.2509765625.71875,10.6103515625,1.76953125s6.326171875,2.5791015625,8.9033203125,4.5859375c2.5771484375,2.0087890625,4.3876953125,4.556640625,5.4306640625,7.6455078125.4404296875,1.353515625.7548828125,2.783203125.943359375,4.2880859375.1875,1.5078125.150390625,3.0810546875-.11328125,4.72265625-.2646484375,1.642578125-.76953125,3.37109375-1.515625,5.181640625-.7451171875,1.814453125-1.7998046875,3.703125-3.162109375,5.6640625ZM176.2197265625,79.67041015625c3.1650390625-.123046875,5.798828125-.6689453125,7.9033203125-1.6318359375,2.1044921875-.96484375,3.646484375-2.130859375,4.626953125-3.5.98046875-1.3701171875,1.392578125-2.8076171875,1.23828125-4.3173828125-.15625-1.5078125-.83984375-2.8095703125-2.052734375-3.9013671875-1.2138671875-1.091796875-2.962890625-1.8583984375-5.24609375-2.302734375-2.28515625-.443359375-5.1171875-.2958984375-8.49609375.4404296875.404296875,2.5458984375.7578125,5.064453125,1.05859375,7.552734375.30078125,2.490234375.6220703125,5.0439453125.9677734375,7.66015625ZM178.830078125,108.22900390625c3.580078125.107421875,6.556640625-.298828125,8.9296875-1.21875,2.37109375-.9189453125,4.115234375-2.052734375,5.23046875-3.400390625,1.115234375-1.345703125,1.62890625-2.7431640625,1.544921875-4.193359375-.083984375-1.447265625-.759765625-2.6494140625-2.02734375-3.60546875-1.267578125-.955078125-3.1328125-1.5146484375-5.59375-1.6796875-2.4599609375-.1630859375-5.49609375.330078125-9.10546875,1.482421875l1.021484375,12.615234375Z"/>
            <path class="cls-3" d="M202.31640625,83.40966796875c3.072265625,2,5.44921875,4.603515625,7.130859375,7.8056640625,1.681640625,3.2041015625,2.40234375,6.6005859375,2.1640625,10.19140625-.265625,4.0576171875-1.5703125,7.552734375-3.912109375,10.4853515625-2.341796875,2.935546875-5.189453125,5.3330078125-8.5439453125,7.19140625-3.3564453125,1.859375-7.03125,3.216796875-11.0302734375,4.068359375-3.998046875.8525390625-7.787109375,1.2265625-11.3681640625,1.119140625-.3193359375.158203125-.607421875.263671875-.8662109375.318359375-.26171875.0537109375-.552734375.126953125-.8759765625.220703125-1.1767578125.16015625-2.3935546875.2587890625-3.646484375.294921875-1.2548828125.03515625-2.4052734375-.0869140625-3.4521484375-.3662109375-1.048828125-.27734375-1.966796875-.7978515625-2.755859375-1.5615234375-.791015625-.7626953125-1.3115234375-1.8935546875-1.564453125-3.3955078125-.19140625-.7119140625-.341796875-2.1708984375-.4541015625-4.37890625-.1142578125-2.205078125-.2646484375-4.888671875-.4541015625-8.048828125-.1298828125-3.228515625-.296875-6.7373046875-.5048828125-10.5244140625-.2080078125-3.7861328125-.43359375-7.5869140625-.6767578125-11.4033203125-.33984375-4.9990234375-.6806640625-10.0302734375-1.0234375-15.095703125-.345703125-5.064453125-.955078125-10.1416015625-1.830078125-15.2294921875-.1796875-.5810546875-.15625-1.111328125.0703125-1.59375.0986328125-.404296875.36328125-.8056640625.794921875-1.205078125.4296875-.3974609375,1.099609375-.7001953125,2.009765625-.90625.650390625-.119140625,1.3671875-.2763671875,2.14453125-.4716796875s1.58984375-.3603515625,2.439453125-.4951171875c.8486328125-.1337890625,1.6708984375-.2001953125,2.46484375-.2001953125.79296875.001953125,1.494140625.078125,2.1015625.2255859375,3.314453125-.7294921875,6.8271484375-1.03125,10.5419921875-.90234375,3.7138671875.12890625,7.2509765625.71875,10.6103515625,1.76953125s6.326171875,2.5791015625,8.9033203125,4.5859375c2.5771484375,2.0087890625,4.3876953125,4.556640625,5.4306640625,7.6455078125.4404296875,1.353515625.7548828125,2.783203125.943359375,4.2880859375.1875,1.5078125.150390625,3.0810546875-.11328125,4.72265625-.2646484375,1.642578125-.76953125,3.37109375-1.515625,5.181640625-.7451171875,1.814453125-1.7998046875,3.703125-3.162109375,5.6640625ZM176.2197265625,79.67041015625c3.1650390625-.123046875,5.798828125-.6689453125,7.9033203125-1.6318359375,2.1044921875-.96484375,3.646484375-2.130859375,4.626953125-3.5.98046875-1.3701171875,1.392578125-2.8076171875,1.23828125-4.3173828125-.15625-1.5078125-.83984375-2.8095703125-2.052734375-3.9013671875-1.2138671875-1.091796875-2.962890625-1.8583984375-5.24609375-2.302734375-2.28515625-.443359375-5.1171875-.2958984375-8.49609375.4404296875.404296875,2.5458984375.7578125,5.064453125,1.05859375,7.552734375.30078125,2.490234375.6220703125,5.0439453125.9677734375,7.66015625ZM178.830078125,108.22900390625c3.580078125.107421875,6.556640625-.298828125,8.9296875-1.21875,2.37109375-.9189453125,4.115234375-2.052734375,5.23046875-3.400390625,1.115234375-1.345703125,1.62890625-2.7431640625,1.544921875-4.193359375-.083984375-1.447265625-.759765625-2.6494140625-2.02734375-3.60546875-1.267578125-.955078125-3.1328125-1.5146484375-5.59375-1.6796875-2.4599609375-.1630859375-5.49609375.330078125-9.10546875,1.482421875l1.021484375,12.615234375Z"/>
            <path class="cls-3" d="M202.31640625,83.40966796875c3.072265625,2,5.44921875,4.603515625,7.130859375,7.8056640625,1.681640625,3.2041015625,2.40234375,6.6005859375,2.1640625,10.19140625-.265625,4.0576171875-1.5703125,7.552734375-3.912109375,10.4853515625-2.341796875,2.935546875-5.189453125,5.3330078125-8.5439453125,7.19140625-3.3564453125,1.859375-7.03125,3.216796875-11.0302734375,4.068359375-3.998046875.8525390625-7.787109375,1.2265625-11.3681640625,1.119140625-.3193359375.158203125-.607421875.263671875-.8662109375.318359375-.26171875.0537109375-.552734375.126953125-.8759765625.220703125-1.1767578125.16015625-2.3935546875.2587890625-3.646484375.294921875-1.2548828125.03515625-2.4052734375-.0869140625-3.4521484375-.3662109375-1.048828125-.27734375-1.966796875-.7978515625-2.755859375-1.5615234375-.791015625-.7626953125-1.3115234375-1.8935546875-1.564453125-3.3955078125-.19140625-.7119140625-.341796875-2.1708984375-.4541015625-4.37890625-.1142578125-2.205078125-.2646484375-4.888671875-.4541015625-8.048828125-.1298828125-3.228515625-.296875-6.7373046875-.5048828125-10.5244140625-.2080078125-3.7861328125-.43359375-7.5869140625-.6767578125-11.4033203125-.33984375-4.9990234375-.6806640625-10.0302734375-1.0234375-15.095703125-.345703125-5.064453125-.955078125-10.1416015625-1.830078125-15.2294921875-.1796875-.5810546875-.15625-1.111328125.0703125-1.59375.0986328125-.404296875.36328125-.8056640625.794921875-1.205078125.4296875-.3974609375,1.099609375-.7001953125,2.009765625-.90625.650390625-.119140625,1.3671875-.2763671875,2.14453125-.4716796875s1.58984375-.3603515625,2.439453125-.4951171875c.8486328125-.1337890625,1.6708984375-.2001953125,2.46484375-.2001953125.79296875.001953125,1.494140625.078125,2.1015625.2255859375,3.314453125-.7294921875,6.8271484375-1.03125,10.5419921875-.90234375,3.7138671875.12890625,7.2509765625.71875,10.6103515625,1.76953125s6.326171875,2.5791015625,8.9033203125,4.5859375c2.5771484375,2.0087890625,4.3876953125,4.556640625,5.4306640625,7.6455078125.4404296875,1.353515625.7548828125,2.783203125.943359375,4.2880859375.1875,1.5078125.150390625,3.0810546875-.11328125,4.72265625-.2646484375,1.642578125-.76953125,3.37109375-1.515625,5.181640625-.7451171875,1.814453125-1.7998046875,3.703125-3.162109375,5.6640625ZM176.2197265625,79.67041015625c3.1650390625-.123046875,5.798828125-.6689453125,7.9033203125-1.6318359375,2.1044921875-.96484375,3.646484375-2.130859375,4.626953125-3.5.98046875-1.3701171875,1.392578125-2.8076171875,1.23828125-4.3173828125-.15625-1.5078125-.83984375-2.8095703125-2.052734375-3.9013671875-1.2138671875-1.091796875-2.962890625-1.8583984375-5.24609375-2.302734375-2.28515625-.443359375-5.1171875-.2958984375-8.49609375.4404296875.404296875,2.5458984375.7578125,5.064453125,1.05859375,7.552734375.30078125,2.490234375.6220703125,5.0439453125.9677734375,7.66015625ZM178.830078125,108.22900390625c3.580078125.107421875,6.556640625-.298828125,8.9296875-1.21875,2.37109375-.9189453125,4.115234375-2.052734375,5.23046875-3.400390625,1.115234375-1.345703125,1.62890625-2.7431640625,1.544921875-4.193359375-.083984375-1.447265625-.759765625-2.6494140625-2.02734375-3.60546875-1.267578125-.955078125-3.1328125-1.5146484375-5.59375-1.6796875-2.4599609375-.1630859375-5.49609375.330078125-9.10546875,1.482421875l1.021484375,12.615234375Z"/>
          </g>
        </a>
        <a xlink:href="https://www.notion.so/congruence/B-Event-1f1a5b08a72c49f5ab60f2e0793fd0a8?pvs=4">
          <g>
            <path class="cls-3" d="M230.61328125,39.2783203125c-.052734375-1.111328125-.30078125-1.9287109375-.74609375-2.4501953125-.447265625-.521484375-.9814453125-.82421875-1.603515625-.908203125-.623046875-.083984375-1.2763671875.037109375-1.9609375.3603515625-.6865234375.3251953125-1.294921875.759765625-1.828125,1.3017578125-1.244140625,1.2548828125-2.205078125,2.8037109375-2.8828125,4.6474609375-.6787109375,1.8447265625-1.080078125,3.751953125-1.2099609375,5.724609375-.12890625,1.9716796875.0087890625,3.9130859375.4140625,5.8232421875s1.0849609375,3.5380859375,2.0400390625,4.8828125c.609375.8740234375,1.3046875,1.5009765625,2.0849609375,1.87890625.78125.3798828125,1.59375.5634765625,2.4404296875.5537109375.84375-.0107421875,1.6640625-.2119140625,2.4599609375-.603515625.7958984375-.390625,1.4912109375-.9375,2.0888671875-1.640625.9130859375-1.07421875,1.658203125-1.845703125,2.236328125-2.31640625.576171875-.4697265625,1.24609375-.75390625,2.0078125-.8544921875,2.177734375-.1767578125,3.669921875.318359375,4.4765625,1.4833984375.8056640625,1.166015625.97265625,2.65234375.5048828125,4.458984375-.3857421875,1.4169921875-1.04296875,2.681640625-1.9716796875,3.7958984375-.9296875,1.1142578125-2.037109375,2.0400390625-3.3232421875,2.7783203125-1.2880859375.7392578125-2.6845703125,1.294921875-4.1923828125,1.66796875-1.5087890625.3720703125-3.01171875.560546875-4.51171875.56640625s-2.9404296875-.1953125-4.3193359375-.6025390625c-1.3798828125-.4072265625-2.5830078125-1.01171875-3.6083984375-1.8125-1.1513671875-.908203125-2.1796875-1.9677734375-3.0859375-3.1826171875-.90625-1.2158203125-1.685546875-2.5185546875-2.3359375-3.9091796875-.6513671875-1.388671875-1.173828125-2.8466796875-1.5654296875-4.373046875-.3935546875-1.5263671875-.6533203125-3.072265625-.7802734375-4.6396484375-.208984375-3.521484375.26171875-6.9833984375,1.408203125-10.384765625,1.1484375-3.400390625,2.7890625-6.4189453125,4.921875-9.0537109375.9794921875-1.1943359375,2.173828125-2.2431640625,3.58203125-3.1455078125,1.4072265625-.90234375,2.876953125-1.5322265625,4.40625-1.8857421875,1.529296875-.3564453125,3.0546875-.40234375,4.5751953125-.140625,1.5224609375.26171875,2.9052734375.9580078125,4.1494140625,2.087890625.9541015625.845703125,1.74609375,1.8388671875,2.376953125,2.98046875.630859375,1.140625,1.12890625,2.29296875,1.4921875,3.4560546875.21484375.7529296875.33984375,1.47265625.376953125,2.162109375.037109375.6904296875-.0732421875,1.353515625-.3291015625,1.98828125-.3583984375.7998046875-.9638671875,1.396484375-1.8173828125,1.7919921875-.8525390625.396484375-1.712890625.5712890625-2.58203125.52734375-.869140625-.0458984375-1.6416015625-.3193359375-2.31640625-.8232421875-.67578125-.5029296875-1.033203125-1.232421875-1.072265625-2.19140625Z"/>
            <path class="cls-3" d="M230.61328125,39.2783203125c-.052734375-1.111328125-.30078125-1.9287109375-.74609375-2.4501953125-.447265625-.521484375-.9814453125-.82421875-1.603515625-.908203125-.623046875-.083984375-1.2763671875.037109375-1.9609375.3603515625-.6865234375.3251953125-1.294921875.759765625-1.828125,1.3017578125-1.244140625,1.2548828125-2.205078125,2.8037109375-2.8828125,4.6474609375-.6787109375,1.8447265625-1.080078125,3.751953125-1.2099609375,5.724609375-.12890625,1.9716796875.0087890625,3.9130859375.4140625,5.8232421875s1.0849609375,3.5380859375,2.0400390625,4.8828125c.609375.8740234375,1.3046875,1.5009765625,2.0849609375,1.87890625.78125.3798828125,1.59375.5634765625,2.4404296875.5537109375.84375-.0107421875,1.6640625-.2119140625,2.4599609375-.603515625.7958984375-.390625,1.4912109375-.9375,2.0888671875-1.640625.9130859375-1.07421875,1.658203125-1.845703125,2.236328125-2.31640625.576171875-.4697265625,1.24609375-.75390625,2.0078125-.8544921875,2.177734375-.1767578125,3.669921875.318359375,4.4765625,1.4833984375.8056640625,1.166015625.97265625,2.65234375.5048828125,4.458984375-.3857421875,1.4169921875-1.04296875,2.681640625-1.9716796875,3.7958984375-.9296875,1.1142578125-2.037109375,2.0400390625-3.3232421875,2.7783203125-1.2880859375.7392578125-2.6845703125,1.294921875-4.1923828125,1.66796875-1.5087890625.3720703125-3.01171875.560546875-4.51171875.56640625s-2.9404296875-.1953125-4.3193359375-.6025390625c-1.3798828125-.4072265625-2.5830078125-1.01171875-3.6083984375-1.8125-1.1513671875-.908203125-2.1796875-1.9677734375-3.0859375-3.1826171875-.90625-1.2158203125-1.685546875-2.5185546875-2.3359375-3.9091796875-.6513671875-1.388671875-1.173828125-2.8466796875-1.5654296875-4.373046875-.3935546875-1.5263671875-.6533203125-3.072265625-.7802734375-4.6396484375-.208984375-3.521484375.26171875-6.9833984375,1.408203125-10.384765625,1.1484375-3.400390625,2.7890625-6.4189453125,4.921875-9.0537109375.9794921875-1.1943359375,2.173828125-2.2431640625,3.58203125-3.1455078125,1.4072265625-.90234375,2.876953125-1.5322265625,4.40625-1.8857421875,1.529296875-.3564453125,3.0546875-.40234375,4.5751953125-.140625,1.5224609375.26171875,2.9052734375.9580078125,4.1494140625,2.087890625.9541015625.845703125,1.74609375,1.8388671875,2.376953125,2.98046875.630859375,1.140625,1.12890625,2.29296875,1.4921875,3.4560546875.21484375.7529296875.33984375,1.47265625.376953125,2.162109375.037109375.6904296875-.0732421875,1.353515625-.3291015625,1.98828125-.3583984375.7998046875-.9638671875,1.396484375-1.8173828125,1.7919921875-.8525390625.396484375-1.712890625.5712890625-2.58203125.52734375-.869140625-.0458984375-1.6416015625-.3193359375-2.31640625-.8232421875-.67578125-.5029296875-1.033203125-1.232421875-1.072265625-2.19140625Z"/>
            <path class="cls-3" d="M230.61328125,39.2783203125c-.052734375-1.111328125-.30078125-1.9287109375-.74609375-2.4501953125-.447265625-.521484375-.9814453125-.82421875-1.603515625-.908203125-.623046875-.083984375-1.2763671875.037109375-1.9609375.3603515625-.6865234375.3251953125-1.294921875.759765625-1.828125,1.3017578125-1.244140625,1.2548828125-2.205078125,2.8037109375-2.8828125,4.6474609375-.6787109375,1.8447265625-1.080078125,3.751953125-1.2099609375,5.724609375-.12890625,1.9716796875.0087890625,3.9130859375.4140625,5.8232421875s1.0849609375,3.5380859375,2.0400390625,4.8828125c.609375.8740234375,1.3046875,1.5009765625,2.0849609375,1.87890625.78125.3798828125,1.59375.5634765625,2.4404296875.5537109375.84375-.0107421875,1.6640625-.2119140625,2.4599609375-.603515625.7958984375-.390625,1.4912109375-.9375,2.0888671875-1.640625.9130859375-1.07421875,1.658203125-1.845703125,2.236328125-2.31640625.576171875-.4697265625,1.24609375-.75390625,2.0078125-.8544921875,2.177734375-.1767578125,3.669921875.318359375,4.4765625,1.4833984375.8056640625,1.166015625.97265625,2.65234375.5048828125,4.458984375-.3857421875,1.4169921875-1.04296875,2.681640625-1.9716796875,3.7958984375-.9296875,1.1142578125-2.037109375,2.0400390625-3.3232421875,2.7783203125-1.2880859375.7392578125-2.6845703125,1.294921875-4.1923828125,1.66796875-1.5087890625.3720703125-3.01171875.560546875-4.51171875.56640625s-2.9404296875-.1953125-4.3193359375-.6025390625c-1.3798828125-.4072265625-2.5830078125-1.01171875-3.6083984375-1.8125-1.1513671875-.908203125-2.1796875-1.9677734375-3.0859375-3.1826171875-.90625-1.2158203125-1.685546875-2.5185546875-2.3359375-3.9091796875-.6513671875-1.388671875-1.173828125-2.8466796875-1.5654296875-4.373046875-.3935546875-1.5263671875-.6533203125-3.072265625-.7802734375-4.6396484375-.208984375-3.521484375.26171875-6.9833984375,1.408203125-10.384765625,1.1484375-3.400390625,2.7890625-6.4189453125,4.921875-9.0537109375.9794921875-1.1943359375,2.173828125-2.2431640625,3.58203125-3.1455078125,1.4072265625-.90234375,2.876953125-1.5322265625,4.40625-1.8857421875,1.529296875-.3564453125,3.0546875-.40234375,4.5751953125-.140625,1.5224609375.26171875,2.9052734375.9580078125,4.1494140625,2.087890625.9541015625.845703125,1.74609375,1.8388671875,2.376953125,2.98046875.630859375,1.140625,1.12890625,2.29296875,1.4921875,3.4560546875.21484375.7529296875.33984375,1.47265625.376953125,2.162109375.037109375.6904296875-.0732421875,1.353515625-.3291015625,1.98828125-.3583984375.7998046875-.9638671875,1.396484375-1.8173828125,1.7919921875-.8525390625.396484375-1.712890625.5712890625-2.58203125.52734375-.869140625-.0458984375-1.6416015625-.3193359375-2.31640625-.8232421875-.67578125-.5029296875-1.033203125-1.232421875-1.072265625-2.19140625Z"/>
          </g>
        </a>
        <path class="cls-3" d="M129,54.10009765625c-.15234375,13.5634765625-.28515625,27.0078125-.3984375,40.3330078125-.1142578125,13.3251953125-.1337890625,26.76953125-.056640625,40.33203125-.1533203125.9521484375-.41796875,1.826171875-.7978515625,2.6181640625-.3798828125.6357421875-.9501953125,1.26953125-1.7080078125,1.9033203125-.759765625.6357421875-1.78515625,1.0302734375-3.07421875,1.189453125-1.3671875.158203125-2.75390625.2568359375-4.1572265625.2978515625-1.4052734375.0390625-2.7158203125-.119140625-3.9287109375-.4755859375-1.21484375-.357421875-2.259765625-.9912109375-3.1318359375-1.904296875-.8740234375-.91015625-1.4228515625-2.279296875-1.6513671875-4.1044921875-.15234375-.8720703125-.2275390625-2.6953125-.2275390625-5.47265625,0-2.775390625.056640625-6.126953125.1708984375-10.0537109375.11328125-3.92578125.2451171875-8.248046875.3984375-12.9677734375.1513671875-4.71875.341796875-9.458984375.5693359375-14.2177734375.1513671875-4.7587890625.359375-9.3583984375.6259765625-13.80078125.265625-4.44140625.4736328125-8.40625.626953125-11.8974609375.2275390625-4.0458984375.455078125-7.8525390625.68359375-11.421875-.0771484375-.7138671875.037109375-1.34765625.341796875-1.9033203125.2265625-.4765625.5859375-.892578125,1.0810546875-1.25.4931640625-.3564453125,1.2705078125-.57421875,2.3349609375-.654296875h3.701171875c1.404296875,0,2.75.1005859375,4.04296875.2978515625,1.2890625.19921875,2.37109375.53515625,3.2451171875,1.0107421875.8720703125.4765625,1.3095703125,1.1904296875,1.3095703125,2.1416015625Z"/>
      </g>
    </g>
  </a>
</svg>