<?xml version="1.0" encoding="UTF-8"?>
<svg xmlns="http://www.w3.org/2000/svg" xmlns:xlink="http://www.w3.org/1999/xlink" viewBox="0 0 280 280">
  <defs>
    <style>
      .cls-1 {
        stroke: #665451;
        stroke-width: 50px;
      }

      .cls-1, .cls-2 {
        fill: none;
        stroke-linecap: round;
        stroke-linejoin: round;
      }

      .cls-3 {
        fill: #fff;
      }

      .cls-4 {
        fill: #e11f26;
      }

      .cls-5 {
        fill: #ec1940;
      }

      .cls-2 {
        stroke: #998675;
        stroke-width: 2px;
      }
    </style>
  </defs>
  <g id="Content">
    <a xlink:href="https://www.notion.so/congruence/A-given-that-B-916fe31797264702894ca490e14910b7?pvs=4">
      <g>
        <a xlink:href="https://www.notion.so/congruence/B-Event-1f1a5b08a72c49f5ab60f2e0793fd0a8?pvs=4">
          <g>
            <path class="cls-3" d="M78.5458984375,67.427734375c2.6484375,1.2607421875,4.958984375,2.8818359375,6.9287109375,4.8671875,1.970703125,1.986328125,3.671875,4.193359375,5.1103515625,6.623046875,1.4365234375,2.4306640625,2.6337890625,5.0302734375,3.5966796875,7.80078125.9619140625,2.7705078125,1.7587890625,5.5712890625,2.390625,8.400390625,1.3896484375,5.5849609375,2.384765625,11.2666015625,2.9892578125,17.048828125.6015625,5.78125.9736328125,11.6162109375,1.115234375,17.5.001953125,1.67578125-.0205078125,3.052734375-.06640625,4.126953125-.0478515625,1.078125-.2275390625,1.962890625-.5390625,2.658203125-.3125.6953125-.7861328125,1.26953125-1.4189453125,1.72265625-.6337890625.453125-1.5361328125.89453125-2.70703125,1.32421875-1.1220703125.2255859375-2.294921875.4208984375-3.5205078125.5869140625-1.2275390625.166015625-2.4033203125-.0732421875-3.5263671875-.71875-1.052734375-.583984375-1.978515625-1.6494140625-2.771484375-3.193359375-.796875-1.5439453125-1.349609375-3.8115234375-1.658203125-6.802734375l-.0810546875-.998046875c-1.6806640625-.0654296875-3.673828125-.0693359375-5.9814453125-.0185546875-2.3076171875.0546875-4.662109375.1611328125-7.0615234375.3212890625-2.3994140625.1611328125-4.71484375.33203125-6.9443359375.5126953125-2.2314453125.1806640625-4.111328125.3330078125-5.642578125.45703125-.0185546875.6044921875-.0205078125,1.6103515625-.0068359375,3.0166015625.0126953125,1.40625-.08984375,2.8212890625-.3095703125,4.2470703125-.220703125,1.4248046875-.5673828125,2.7265625-1.0400390625,3.9052734375-.4755859375,1.177734375-1.208984375,1.837890625-2.2021484375,1.9853515625-.927734375.142578125-1.986328125.2958984375-3.1796875.4599609375-1.1923828125.1630859375-2.369140625.125-3.52734375-.1171875-1.154296875-.1728515625-2.146484375-.6298828125-2.9755859375-1.3662109375-.8310546875-.7373046875-1.349609375-1.9677734375-1.5556640625-3.6943359375-.1669921875-2.0625-.326171875-4.4296875-.4755859375-7.0986328125-.1494140625-2.66796875-.25-5.57421875-.3037109375-8.720703125-.078125-2.6064453125-.091796875-5.4716796875-.04296875-8.5908203125.048828125-3.12109375.2236328125-6.333984375.5263671875-9.642578125.30078125-3.3076171875.76953125-6.6298828125,1.404296875-9.96484375.6337890625-3.3349609375,1.5146484375-6.5224609375,2.642578125-9.5634765625,1.126953125-3.0390625,2.5234375-5.8662109375,4.1884765625-8.4814453125,1.6630859375-2.61328125,3.7275390625-4.8583984375,6.189453125-6.7333984375,2.9052734375-2.1796875,6.189453125-3.41796875,9.8515625-3.71484375,3.6611328125-.2958984375,7.1962890625.322265625,10.6044921875,1.85546875ZM57.9599609375,114.833984375c4.1669921875-.671875,8.32421875-1.259765625,12.47265625-1.7646484375,4.146484375-.501953125,8.32421875-.8583984375,12.529296875-1.064453125-.1826171875-4.744140625-.7255859375-8.953125-1.626953125-12.6357421875-.9013671875-3.6787109375-1.9892578125-6.7578125-3.2607421875-9.2353515625-1.2734375-2.4755859375-2.6982421875-4.3369140625-4.2734375-5.583984375-1.5751953125-1.2451171875-3.1279296875-1.8076171875-4.6591796875-1.68359375-1.3330078125.1083984375-2.658203125.9033203125-3.978515625,2.3837890625-1.322265625,1.4814453125-2.4912109375,3.5859375-3.509765625,6.3154296875-1.01953125,2.7314453125-1.8701171875,6.06640625-2.556640625,10.0078125-.685546875,3.943359375-1.0654296875,8.36328125-1.13671875,13.2607421875Z"/>
            <path class="cls-3" d="M215.03515625,90.7490234375c3.1123046875,2.0263671875,5.5205078125,4.6650390625,7.224609375,7.91015625,1.703125,3.24609375,2.4345703125,6.6884765625,2.193359375,10.326171875-.26953125,4.1103515625-1.5908203125,7.6513671875-3.9638671875,10.625-2.3720703125,2.9736328125-5.2587890625,5.40234375-8.658203125,7.28515625-3.3994140625,1.884765625-7.1240234375,3.2587890625-11.17578125,4.12109375-4.0517578125.865234375-7.890625,1.2431640625-11.5185546875,1.1357421875-.3232421875.1591796875-.6162109375.2666015625-.87890625.322265625-.263671875.0546875-.5595703125.12890625-.88671875.2216796875-1.1923828125.1630859375-2.42578125.2626953125-3.6943359375.2998046875-1.271484375.0361328125-2.4375-.0888671875-3.498046875-.369140625-1.0625-.2822265625-1.9931640625-.8095703125-2.7919921875-1.583984375-.80078125-.7724609375-1.3291015625-1.9189453125-1.5859375-3.439453125-.193359375-.7216796875-.345703125-2.19921875-.4599609375-4.4375-.1142578125-2.2333984375-.267578125-4.953125-.4599609375-8.1533203125-.130859375-3.2724609375-.3017578125-6.8271484375-.51171875-10.6650390625-.2099609375-3.8369140625-.4384765625-7.6875-.6845703125-11.5556640625-.3447265625-5.0634765625-.6904296875-10.162109375-1.0380859375-15.2958984375-.349609375-5.1298828125-.9677734375-10.2744140625-1.853515625-15.4306640625-.1826171875-.5888671875-.158203125-1.125.0703125-1.61328125.1005859375-.41015625.3681640625-.8173828125.8056640625-1.2216796875.435546875-.40234375,1.1142578125-.708984375,2.0361328125-.9189453125.66015625-.119140625,1.3857421875-.2783203125,2.1728515625-.4775390625.7890625-.1962890625,1.6123046875-.3642578125,2.47265625-.501953125.859375-.1357421875,1.6923828125-.203125,2.4970703125-.2021484375.8037109375.001953125,1.513671875.078125,2.1298828125.23046875,3.357421875-.7412109375,6.9169921875-1.0478515625,10.681640625-.9169921875,3.7626953125.1318359375,7.3466796875.7294921875,10.75,1.79296875,3.4033203125,1.06640625,6.41015625,2.615234375,9.021484375,4.6474609375,2.6103515625,2.03515625,4.4453125,4.6162109375,5.5029296875,7.7470703125.4453125,1.37109375.7646484375,2.8203125.955078125,4.345703125.189453125,1.52734375.15234375,3.12109375-.115234375,4.783203125-.2666015625,1.666015625-.7783203125,3.4150390625-1.5341796875,5.251953125-.755859375,1.837890625-1.82421875,3.75-3.2041015625,5.7373046875ZM188.591796875,86.9609375c3.20703125-.125,5.8759765625-.6767578125,8.0087890625-1.654296875,2.1318359375-.9765625,3.6943359375-2.1591796875,4.6884765625-3.546875.9931640625-1.38671875,1.4111328125-2.8427734375,1.25390625-4.3720703125-.158203125-1.5283203125-.8515625-2.84765625-2.0791015625-3.9541015625-1.23046875-1.1064453125-3.001953125-1.8828125-5.31640625-2.3330078125-2.3154296875-.44921875-5.185546875-.2998046875-8.6083984375.4462890625.41015625,2.580078125.767578125,5.1318359375,1.072265625,7.65234375.3046875,2.5224609375.630859375,5.111328125.98046875,7.76171875ZM191.23828125,115.8984375c3.626953125.107421875,6.642578125-.302734375,9.046875-1.2353515625,2.4033203125-.931640625,4.169921875-2.080078125,5.2998046875-3.4453125,1.12890625-1.3642578125,1.650390625-2.78125,1.5654296875-4.2490234375-.0849609375-1.4658203125-.76953125-2.6845703125-2.0546875-3.6533203125-1.2841796875-.966796875-3.1748046875-1.5341796875-5.666015625-1.701171875-2.494140625-.166015625-5.5703125.333984375-9.2275390625,1.5009765625l1.0361328125,12.783203125Z"/>
          </g>
        </a>
        <g>
          <a xlink:href="https://www.notion.so/congruence/B-Event-1f1a5b08a72c49f5ab60f2e0793fd0a8?pvs=4">
            <g>
              <g>
                <path class="cls-1" d="M78.5458984375,67.427734375c2.6484375,1.2607421875,4.958984375,2.8818359375,6.9287109375,4.8671875,1.970703125,1.986328125,3.671875,4.193359375,5.1103515625,6.623046875,1.4365234375,2.4306640625,2.6337890625,5.0302734375,3.5966796875,7.80078125.9619140625,2.7705078125,1.7587890625,5.5712890625,2.390625,8.400390625,1.3896484375,5.5849609375,2.384765625,11.2666015625,2.9892578125,17.048828125.6015625,5.78125.9736328125,11.6162109375,1.115234375,17.5.001953125,1.67578125-.0205078125,3.052734375-.06640625,4.126953125-.0478515625,1.078125-.2275390625,1.962890625-.5390625,2.658203125-.3125.6953125-.7861328125,1.26953125-1.4189453125,1.72265625-.6337890625.453125-1.5361328125.89453125-2.70703125,1.32421875-1.1220703125.2255859375-2.294921875.4208984375-3.5205078125.5869140625-1.2275390625.166015625-2.4033203125-.0732421875-3.5263671875-.71875-1.052734375-.583984375-1.978515625-1.6494140625-2.771484375-3.193359375-.796875-1.5439453125-1.349609375-3.8115234375-1.658203125-6.802734375l-.0810546875-.998046875c-1.6806640625-.0654296875-3.673828125-.0693359375-5.9814453125-.0185546875-2.3076171875.0546875-4.662109375.1611328125-7.0615234375.3212890625-2.3994140625.1611328125-4.71484375.33203125-6.9443359375.5126953125-2.2314453125.1806640625-4.111328125.3330078125-5.642578125.45703125-.0185546875.6044921875-.0205078125,1.6103515625-.0068359375,3.0166015625.0126953125,1.40625-.08984375,2.8212890625-.3095703125,4.2470703125-.220703125,1.4248046875-.5673828125,2.7265625-1.0400390625,3.9052734375-.4755859375,1.177734375-1.208984375,1.837890625-2.2021484375,1.9853515625-.927734375.142578125-1.986328125.2958984375-3.1796875.4599609375-1.1923828125.1630859375-2.369140625.125-3.52734375-.1171875-1.154296875-.1728515625-2.146484375-.6298828125-2.9755859375-1.3662109375-.8310546875-.7373046875-1.349609375-1.9677734375-1.5556640625-3.6943359375-.1669921875-2.0625-.326171875-4.4296875-.4755859375-7.0986328125-.1494140625-2.66796875-.25-5.57421875-.3037109375-8.720703125-.078125-2.6064453125-.091796875-5.4716796875-.04296875-8.5908203125.048828125-3.12109375.2236328125-6.333984375.5263671875-9.642578125.30078125-3.3076171875.76953125-6.6298828125,1.404296875-9.96484375.6337890625-3.3349609375,1.5146484375-6.5224609375,2.642578125-9.5634765625,1.126953125-3.0390625,2.5234375-5.8662109375,4.1884765625-8.4814453125,1.6630859375-2.61328125,3.7275390625-4.8583984375,6.189453125-6.7333984375,2.9052734375-2.1796875,6.189453125-3.41796875,9.8515625-3.71484375,3.6611328125-.2958984375,7.1962890625.322265625,10.6044921875,1.85546875ZM57.9599609375,114.833984375c4.1669921875-.671875,8.32421875-1.259765625,12.47265625-1.7646484375,4.146484375-.501953125,8.32421875-.8583984375,12.529296875-1.064453125-.1826171875-4.744140625-.7255859375-8.953125-1.626953125-12.6357421875-.9013671875-3.6787109375-1.9892578125-6.7578125-3.2607421875-9.2353515625-1.2734375-2.4755859375-2.6982421875-4.3369140625-4.2734375-5.583984375-1.5751953125-1.2451171875-3.1279296875-1.8076171875-4.6591796875-1.68359375-1.3330078125.1083984375-2.658203125.9033203125-3.978515625,2.3837890625-1.322265625,1.4814453125-2.4912109375,3.5859375-3.509765625,6.3154296875-1.01953125,2.7314453125-1.8701171875,6.06640625-2.556640625,10.0078125-.685546875,3.943359375-1.0654296875,8.36328125-1.13671875,13.2607421875Z"/>
                <path class="cls-1" d="M215.03515625,90.7490234375c3.1123046875,2.0263671875,5.5205078125,4.6650390625,7.224609375,7.91015625,1.703125,3.24609375,2.4345703125,6.6884765625,2.193359375,10.326171875-.26953125,4.1103515625-1.5908203125,7.6513671875-3.9638671875,10.625-2.3720703125,2.9736328125-5.2587890625,5.40234375-8.658203125,7.28515625-3.3994140625,1.884765625-7.1240234375,3.2587890625-11.17578125,4.12109375-4.0517578125.865234375-7.890625,1.2431640625-11.5185546875,1.1357421875-.3232421875.1591796875-.6162109375.2666015625-.87890625.322265625-.263671875.0546875-.5595703125.12890625-.88671875.2216796875-1.1923828125.1630859375-2.42578125.2626953125-3.6943359375.2998046875-1.271484375.0361328125-2.4375-.0888671875-3.498046875-.369140625-1.0625-.2822265625-1.9931640625-.8095703125-2.7919921875-1.583984375-.80078125-.7724609375-1.3291015625-1.9189453125-1.5859375-3.439453125-.193359375-.7216796875-.345703125-2.19921875-.4599609375-4.4375-.1142578125-2.2333984375-.267578125-4.953125-.4599609375-8.1533203125-.130859375-3.2724609375-.3017578125-6.8271484375-.51171875-10.6650390625-.2099609375-3.8369140625-.4384765625-7.6875-.6845703125-11.5556640625-.3447265625-5.0634765625-.6904296875-10.162109375-1.0380859375-15.2958984375-.349609375-5.1298828125-.9677734375-10.2744140625-1.853515625-15.4306640625-.1826171875-.5888671875-.158203125-1.125.0703125-1.61328125.1005859375-.41015625.3681640625-.8173828125.8056640625-1.2216796875.435546875-.40234375,1.1142578125-.708984375,2.0361328125-.9189453125.66015625-.119140625,1.3857421875-.2783203125,2.1728515625-.4775390625.7890625-.1962890625,1.6123046875-.3642578125,2.47265625-.501953125.859375-.1357421875,1.6923828125-.203125,2.4970703125-.2021484375.8037109375.001953125,1.513671875.078125,2.1298828125.23046875,3.357421875-.7412109375,6.9169921875-1.0478515625,10.681640625-.9169921875,3.7626953125.1318359375,7.3466796875.7294921875,10.75,1.79296875,3.4033203125,1.06640625,6.41015625,2.615234375,9.021484375,4.6474609375,2.6103515625,2.03515625,4.4453125,4.6162109375,5.5029296875,7.7470703125.4453125,1.37109375.7646484375,2.8203125.955078125,4.345703125.189453125,1.52734375.15234375,3.12109375-.115234375,4.783203125-.2666015625,1.666015625-.7783203125,3.4150390625-1.5341796875,5.251953125-.755859375,1.837890625-1.82421875,3.75-3.2041015625,5.7373046875ZM188.591796875,86.9609375c3.20703125-.125,5.8759765625-.6767578125,8.0087890625-1.654296875,2.1318359375-.9765625,3.6943359375-2.1591796875,4.6884765625-3.546875.9931640625-1.38671875,1.4111328125-2.8427734375,1.25390625-4.3720703125-.158203125-1.5283203125-.8515625-2.84765625-2.0791015625-3.9541015625-1.23046875-1.1064453125-3.001953125-1.8828125-5.31640625-2.3330078125-2.3154296875-.44921875-5.185546875-.2998046875-8.6083984375.4462890625.41015625,2.580078125.767578125,5.1318359375,1.072265625,7.65234375.3046875,2.5224609375.630859375,5.111328125.98046875,7.76171875ZM191.23828125,115.8984375c3.626953125.107421875,6.642578125-.302734375,9.046875-1.2353515625,2.4033203125-.931640625,4.169921875-2.080078125,5.2998046875-3.4453125,1.12890625-1.3642578125,1.650390625-2.78125,1.5654296875-4.2490234375-.0849609375-1.4658203125-.76953125-2.6845703125-2.0546875-3.6533203125-1.2841796875-.966796875-3.1748046875-1.5341796875-5.666015625-1.701171875-2.494140625-.166015625-5.5703125.333984375-9.2275390625,1.5009765625l1.0361328125,12.783203125Z"/>
              </g>
              <g>
                <path class="cls-1" d="M78.5458984375,67.427734375c2.6484375,1.2607421875,4.958984375,2.8818359375,6.9287109375,4.8671875,1.970703125,1.986328125,3.671875,4.193359375,5.1103515625,6.623046875,1.4365234375,2.4306640625,2.6337890625,5.0302734375,3.5966796875,7.80078125.9619140625,2.7705078125,1.7587890625,5.5712890625,2.390625,8.400390625,1.3896484375,5.5849609375,2.384765625,11.2666015625,2.9892578125,17.048828125.6015625,5.78125.9736328125,11.6162109375,1.115234375,17.5.001953125,1.67578125-.0205078125,3.052734375-.06640625,4.126953125-.0478515625,1.078125-.2275390625,1.962890625-.5390625,2.658203125-.3125.6953125-.7861328125,1.26953125-1.4189453125,1.72265625-.6337890625.453125-1.5361328125.89453125-2.70703125,1.32421875-1.1220703125.2255859375-2.294921875.4208984375-3.5205078125.5869140625-1.2275390625.166015625-2.4033203125-.0732421875-3.5263671875-.71875-1.052734375-.583984375-1.978515625-1.6494140625-2.771484375-3.193359375-.796875-1.5439453125-1.349609375-3.8115234375-1.658203125-6.802734375l-.0810546875-.998046875c-1.6806640625-.0654296875-3.673828125-.0693359375-5.9814453125-.0185546875-2.3076171875.0546875-4.662109375.1611328125-7.0615234375.3212890625-2.3994140625.1611328125-4.71484375.33203125-6.9443359375.5126953125-2.2314453125.1806640625-4.111328125.3330078125-5.642578125.45703125-.0185546875.6044921875-.0205078125,1.6103515625-.0068359375,3.0166015625.0126953125,1.40625-.08984375,2.8212890625-.3095703125,4.2470703125-.220703125,1.4248046875-.5673828125,2.7265625-1.0400390625,3.9052734375-.4755859375,1.177734375-1.208984375,1.837890625-2.2021484375,1.9853515625-.927734375.142578125-1.986328125.2958984375-3.1796875.4599609375-1.1923828125.1630859375-2.369140625.125-3.52734375-.1171875-1.154296875-.1728515625-2.146484375-.6298828125-2.9755859375-1.3662109375-.8310546875-.7373046875-1.349609375-1.9677734375-1.5556640625-3.6943359375-.1669921875-2.0625-.326171875-4.4296875-.4755859375-7.0986328125-.1494140625-2.66796875-.25-5.57421875-.3037109375-8.720703125-.078125-2.6064453125-.091796875-5.4716796875-.04296875-8.5908203125.048828125-3.12109375.2236328125-6.333984375.5263671875-9.642578125.30078125-3.3076171875.76953125-6.6298828125,1.404296875-9.96484375.6337890625-3.3349609375,1.5146484375-6.5224609375,2.642578125-9.5634765625,1.126953125-3.0390625,2.5234375-5.8662109375,4.1884765625-8.4814453125,1.6630859375-2.61328125,3.7275390625-4.8583984375,6.189453125-6.7333984375,2.9052734375-2.1796875,6.189453125-3.41796875,9.8515625-3.71484375,3.6611328125-.2958984375,7.1962890625.322265625,10.6044921875,1.85546875ZM57.9599609375,114.833984375c4.1669921875-.671875,8.32421875-1.259765625,12.47265625-1.7646484375,4.146484375-.501953125,8.32421875-.8583984375,12.529296875-1.064453125-.1826171875-4.744140625-.7255859375-8.953125-1.626953125-12.6357421875-.9013671875-3.6787109375-1.9892578125-6.7578125-3.2607421875-9.2353515625-1.2734375-2.4755859375-2.6982421875-4.3369140625-4.2734375-5.583984375-1.5751953125-1.2451171875-3.1279296875-1.8076171875-4.6591796875-1.68359375-1.3330078125.1083984375-2.658203125.9033203125-3.978515625,2.3837890625-1.322265625,1.4814453125-2.4912109375,3.5859375-3.509765625,6.3154296875-1.01953125,2.7314453125-1.8701171875,6.06640625-2.556640625,10.0078125-.685546875,3.943359375-1.0654296875,8.36328125-1.13671875,13.2607421875Z"/>
                <path class="cls-1" d="M215.03515625,90.7490234375c3.1123046875,2.0263671875,5.5205078125,4.6650390625,7.224609375,7.91015625,1.703125,3.24609375,2.4345703125,6.6884765625,2.193359375,10.326171875-.26953125,4.1103515625-1.5908203125,7.6513671875-3.9638671875,10.625-2.3720703125,2.9736328125-5.2587890625,5.40234375-8.658203125,7.28515625-3.3994140625,1.884765625-7.1240234375,3.2587890625-11.17578125,4.12109375-4.0517578125.865234375-7.890625,1.2431640625-11.5185546875,1.1357421875-.3232421875.1591796875-.6162109375.2666015625-.87890625.322265625-.263671875.0546875-.5595703125.12890625-.88671875.2216796875-1.1923828125.1630859375-2.42578125.2626953125-3.6943359375.2998046875-1.271484375.0361328125-2.4375-.0888671875-3.498046875-.369140625-1.0625-.2822265625-1.9931640625-.8095703125-2.7919921875-1.583984375-.80078125-.7724609375-1.3291015625-1.9189453125-1.5859375-3.439453125-.193359375-.7216796875-.345703125-2.19921875-.4599609375-4.4375-.1142578125-2.2333984375-.267578125-4.953125-.4599609375-8.1533203125-.130859375-3.2724609375-.3017578125-6.8271484375-.51171875-10.6650390625-.2099609375-3.8369140625-.4384765625-7.6875-.6845703125-11.5556640625-.3447265625-5.0634765625-.6904296875-10.162109375-1.0380859375-15.2958984375-.349609375-5.1298828125-.9677734375-10.2744140625-1.853515625-15.4306640625-.1826171875-.5888671875-.158203125-1.125.0703125-1.61328125.1005859375-.41015625.3681640625-.8173828125.8056640625-1.2216796875.435546875-.40234375,1.1142578125-.708984375,2.0361328125-.9189453125.66015625-.119140625,1.3857421875-.2783203125,2.1728515625-.4775390625.7890625-.1962890625,1.6123046875-.3642578125,2.47265625-.501953125.859375-.1357421875,1.6923828125-.203125,2.4970703125-.2021484375.8037109375.001953125,1.513671875.078125,2.1298828125.23046875,3.357421875-.7412109375,6.9169921875-1.0478515625,10.681640625-.9169921875,3.7626953125.1318359375,7.3466796875.7294921875,10.75,1.79296875,3.4033203125,1.06640625,6.41015625,2.615234375,9.021484375,4.6474609375,2.6103515625,2.03515625,4.4453125,4.6162109375,5.5029296875,7.7470703125.4453125,1.37109375.7646484375,2.8203125.955078125,4.345703125.189453125,1.52734375.15234375,3.12109375-.115234375,4.783203125-.2666015625,1.666015625-.7783203125,3.4150390625-1.5341796875,5.251953125-.755859375,1.837890625-1.82421875,3.75-3.2041015625,5.7373046875ZM188.591796875,86.9609375c3.20703125-.125,5.8759765625-.6767578125,8.0087890625-1.654296875,2.1318359375-.9765625,3.6943359375-2.1591796875,4.6884765625-3.546875.9931640625-1.38671875,1.4111328125-2.8427734375,1.25390625-4.3720703125-.158203125-1.5283203125-.8515625-2.84765625-2.0791015625-3.9541015625-1.23046875-1.1064453125-3.001953125-1.8828125-5.31640625-2.3330078125-2.3154296875-.44921875-5.185546875-.2998046875-8.6083984375.4462890625.41015625,2.580078125.767578125,5.1318359375,1.072265625,7.65234375.3046875,2.5224609375.630859375,5.111328125.98046875,7.76171875ZM191.23828125,115.8984375c3.626953125.107421875,6.642578125-.302734375,9.046875-1.2353515625,2.4033203125-.931640625,4.169921875-2.080078125,5.2998046875-3.4453125,1.12890625-1.3642578125,1.650390625-2.78125,1.5654296875-4.2490234375-.0849609375-1.4658203125-.76953125-2.6845703125-2.0546875-3.6533203125-1.2841796875-.966796875-3.1748046875-1.5341796875-5.666015625-1.701171875-2.494140625-.166015625-5.5703125.333984375-9.2275390625,1.5009765625l1.0361328125,12.783203125Z"/>
              </g>
              <g>
                <path class="cls-1" d="M78.5458984375,67.427734375c2.6484375,1.2607421875,4.958984375,2.8818359375,6.9287109375,4.8671875,1.970703125,1.986328125,3.671875,4.193359375,5.1103515625,6.623046875,1.4365234375,2.4306640625,2.6337890625,5.0302734375,3.5966796875,7.80078125.9619140625,2.7705078125,1.7587890625,5.5712890625,2.390625,8.400390625,1.3896484375,5.5849609375,2.384765625,11.2666015625,2.9892578125,17.048828125.6015625,5.78125.9736328125,11.6162109375,1.115234375,17.5.001953125,1.67578125-.0205078125,3.052734375-.06640625,4.126953125-.0478515625,1.078125-.2275390625,1.962890625-.5390625,2.658203125-.3125.6953125-.7861328125,1.26953125-1.4189453125,1.72265625-.6337890625.453125-1.5361328125.89453125-2.70703125,1.32421875-1.1220703125.2255859375-2.294921875.4208984375-3.5205078125.5869140625-1.2275390625.166015625-2.4033203125-.0732421875-3.5263671875-.71875-1.052734375-.583984375-1.978515625-1.6494140625-2.771484375-3.193359375-.796875-1.5439453125-1.349609375-3.8115234375-1.658203125-6.802734375l-.0810546875-.998046875c-1.6806640625-.0654296875-3.673828125-.0693359375-5.9814453125-.0185546875-2.3076171875.0546875-4.662109375.1611328125-7.0615234375.3212890625-2.3994140625.1611328125-4.71484375.33203125-6.9443359375.5126953125-2.2314453125.1806640625-4.111328125.3330078125-5.642578125.45703125-.0185546875.6044921875-.0205078125,1.6103515625-.0068359375,3.0166015625.0126953125,1.40625-.08984375,2.8212890625-.3095703125,4.2470703125-.220703125,1.4248046875-.5673828125,2.7265625-1.0400390625,3.9052734375-.4755859375,1.177734375-1.208984375,1.837890625-2.2021484375,1.9853515625-.927734375.142578125-1.986328125.2958984375-3.1796875.4599609375-1.1923828125.1630859375-2.369140625.125-3.52734375-.1171875-1.154296875-.1728515625-2.146484375-.6298828125-2.9755859375-1.3662109375-.8310546875-.7373046875-1.349609375-1.9677734375-1.5556640625-3.6943359375-.1669921875-2.0625-.326171875-4.4296875-.4755859375-7.0986328125-.1494140625-2.66796875-.25-5.57421875-.3037109375-8.720703125-.078125-2.6064453125-.091796875-5.4716796875-.04296875-8.5908203125.048828125-3.12109375.2236328125-6.333984375.5263671875-9.642578125.30078125-3.3076171875.76953125-6.6298828125,1.404296875-9.96484375.6337890625-3.3349609375,1.5146484375-6.5224609375,2.642578125-9.5634765625,1.126953125-3.0390625,2.5234375-5.8662109375,4.1884765625-8.4814453125,1.6630859375-2.61328125,3.7275390625-4.8583984375,6.189453125-6.7333984375,2.9052734375-2.1796875,6.189453125-3.41796875,9.8515625-3.71484375,3.6611328125-.2958984375,7.1962890625.322265625,10.6044921875,1.85546875ZM57.9599609375,114.833984375c4.1669921875-.671875,8.32421875-1.259765625,12.47265625-1.7646484375,4.146484375-.501953125,8.32421875-.8583984375,12.529296875-1.064453125-.1826171875-4.744140625-.7255859375-8.953125-1.626953125-12.6357421875-.9013671875-3.6787109375-1.9892578125-6.7578125-3.2607421875-9.2353515625-1.2734375-2.4755859375-2.6982421875-4.3369140625-4.2734375-5.583984375-1.5751953125-1.2451171875-3.1279296875-1.8076171875-4.6591796875-1.68359375-1.3330078125.1083984375-2.658203125.9033203125-3.978515625,2.3837890625-1.322265625,1.4814453125-2.4912109375,3.5859375-3.509765625,6.3154296875-1.01953125,2.7314453125-1.8701171875,6.06640625-2.556640625,10.0078125-.685546875,3.943359375-1.0654296875,8.36328125-1.13671875,13.2607421875Z"/>
                <path class="cls-1" d="M215.03515625,90.7490234375c3.1123046875,2.0263671875,5.5205078125,4.6650390625,7.224609375,7.91015625,1.703125,3.24609375,2.4345703125,6.6884765625,2.193359375,10.326171875-.26953125,4.1103515625-1.5908203125,7.6513671875-3.9638671875,10.625-2.3720703125,2.9736328125-5.2587890625,5.40234375-8.658203125,7.28515625-3.3994140625,1.884765625-7.1240234375,3.2587890625-11.17578125,4.12109375-4.0517578125.865234375-7.890625,1.2431640625-11.5185546875,1.1357421875-.3232421875.1591796875-.6162109375.2666015625-.87890625.322265625-.263671875.0546875-.5595703125.12890625-.88671875.2216796875-1.1923828125.1630859375-2.42578125.2626953125-3.6943359375.2998046875-1.271484375.0361328125-2.4375-.0888671875-3.498046875-.369140625-1.0625-.2822265625-1.9931640625-.8095703125-2.7919921875-1.583984375-.80078125-.7724609375-1.3291015625-1.9189453125-1.5859375-3.439453125-.193359375-.7216796875-.345703125-2.19921875-.4599609375-4.4375-.1142578125-2.2333984375-.267578125-4.953125-.4599609375-8.1533203125-.130859375-3.2724609375-.3017578125-6.8271484375-.51171875-10.6650390625-.2099609375-3.8369140625-.4384765625-7.6875-.6845703125-11.5556640625-.3447265625-5.0634765625-.6904296875-10.162109375-1.0380859375-15.2958984375-.349609375-5.1298828125-.9677734375-10.2744140625-1.853515625-15.4306640625-.1826171875-.5888671875-.158203125-1.125.0703125-1.61328125.1005859375-.41015625.3681640625-.8173828125.8056640625-1.2216796875.435546875-.40234375,1.1142578125-.708984375,2.0361328125-.9189453125.66015625-.119140625,1.3857421875-.2783203125,2.1728515625-.4775390625.7890625-.1962890625,1.6123046875-.3642578125,2.47265625-.501953125.859375-.1357421875,1.6923828125-.203125,2.4970703125-.2021484375.8037109375.001953125,1.513671875.078125,2.1298828125.23046875,3.357421875-.7412109375,6.9169921875-1.0478515625,10.681640625-.9169921875,3.7626953125.1318359375,7.3466796875.7294921875,10.75,1.79296875,3.4033203125,1.06640625,6.41015625,2.615234375,9.021484375,4.6474609375,2.6103515625,2.03515625,4.4453125,4.6162109375,5.5029296875,7.7470703125.4453125,1.37109375.7646484375,2.8203125.955078125,4.345703125.189453125,1.52734375.15234375,3.12109375-.115234375,4.783203125-.2666015625,1.666015625-.7783203125,3.4150390625-1.5341796875,5.251953125-.755859375,1.837890625-1.82421875,3.75-3.2041015625,5.7373046875ZM188.591796875,86.9609375c3.20703125-.125,5.8759765625-.6767578125,8.0087890625-1.654296875,2.1318359375-.9765625,3.6943359375-2.1591796875,4.6884765625-3.546875.9931640625-1.38671875,1.4111328125-2.8427734375,1.25390625-4.3720703125-.158203125-1.5283203125-.8515625-2.84765625-2.0791015625-3.9541015625-1.23046875-1.1064453125-3.001953125-1.8828125-5.31640625-2.3330078125-2.3154296875-.44921875-5.185546875-.2998046875-8.6083984375.4462890625.41015625,2.580078125.767578125,5.1318359375,1.072265625,7.65234375.3046875,2.5224609375.630859375,5.111328125.98046875,7.76171875ZM191.23828125,115.8984375c3.626953125.107421875,6.642578125-.302734375,9.046875-1.2353515625,2.4033203125-.931640625,4.169921875-2.080078125,5.2998046875-3.4453125,1.12890625-1.3642578125,1.650390625-2.78125,1.5654296875-4.2490234375-.0849609375-1.4658203125-.76953125-2.6845703125-2.0546875-3.6533203125-1.2841796875-.966796875-3.1748046875-1.5341796875-5.666015625-1.701171875-2.494140625-.166015625-5.5703125.333984375-9.2275390625,1.5009765625l1.0361328125,12.783203125Z"/>
              </g>
            </g>
          </a>
          <path class="cls-1" d="M144.7177734375,56.859375c-.154296875,13.7421875-.2880859375,27.3642578125-.4033203125,40.8662109375-.115234375,13.5009765625-.1357421875,27.123046875-.0576171875,40.8662109375-.1552734375.9638671875-.423828125,1.849609375-.8076171875,2.6513671875-.3857421875.64453125-.962890625,1.287109375-1.7314453125,1.9287109375-.76953125.64453125-1.8076171875,1.0439453125-3.115234375,1.2060546875-1.384765625.16015625-2.7890625.259765625-4.2119140625.30078125-1.423828125.0400390625-2.7509765625-.1201171875-3.98046875-.4814453125-1.2314453125-.3623046875-2.2900390625-1.00390625-3.1728515625-1.9287109375-.8857421875-.923828125-1.4423828125-2.3095703125-1.673828125-4.1591796875-.154296875-.8837890625-.23046875-2.7314453125-.23046875-5.5458984375,0-2.8115234375.0576171875-6.2080078125.1728515625-10.185546875.115234375-3.978515625.2490234375-8.3583984375.404296875-13.140625.1533203125-4.7802734375.345703125-9.5830078125.5771484375-14.4052734375.1533203125-4.822265625.3642578125-9.482421875.634765625-13.9833984375.2685546875-4.5.4794921875-8.517578125.6337890625-12.0556640625.2314453125-4.0986328125.4619140625-7.9560546875.6923828125-11.572265625-.0771484375-.7236328125.0380859375-1.365234375.3466796875-1.9287109375.23046875-.482421875.5947265625-.904296875,1.095703125-1.265625.5-.3623046875,1.287109375-.58203125,2.3662109375-.6630859375h3.75c1.421875,0,2.787109375.1015625,4.095703125.30078125,1.3076171875.2021484375,2.4033203125.54296875,3.2890625,1.025390625.8828125.4814453125,1.326171875,1.205078125,1.326171875,2.169921875Z"/>
        </g>
        <g>
          <a xlink:href="https://www.notion.so/congruence/B-Event-1f1a5b08a72c49f5ab60f2e0793fd0a8?pvs=4">
            <g>
              <g>
                <path class="cls-2" d="M78.5458984375,67.427734375c2.6484375,1.2607421875,4.958984375,2.8818359375,6.9287109375,4.8671875,1.970703125,1.986328125,3.671875,4.193359375,5.1103515625,6.623046875,1.4365234375,2.4306640625,2.6337890625,5.0302734375,3.5966796875,7.80078125.9619140625,2.7705078125,1.7587890625,5.5712890625,2.390625,8.400390625,1.3896484375,5.5849609375,2.384765625,11.2666015625,2.9892578125,17.048828125.6015625,5.78125.9736328125,11.6162109375,1.115234375,17.5.001953125,1.67578125-.0205078125,3.052734375-.06640625,4.126953125-.0478515625,1.078125-.2275390625,1.962890625-.5390625,2.658203125-.3125.6953125-.7861328125,1.26953125-1.4189453125,1.72265625-.6337890625.453125-1.5361328125.89453125-2.70703125,1.32421875-1.1220703125.2255859375-2.294921875.4208984375-3.5205078125.5869140625-1.2275390625.166015625-2.4033203125-.0732421875-3.5263671875-.71875-1.052734375-.583984375-1.978515625-1.6494140625-2.771484375-3.193359375-.796875-1.5439453125-1.349609375-3.8115234375-1.658203125-6.802734375l-.0810546875-.998046875c-1.6806640625-.0654296875-3.673828125-.0693359375-5.9814453125-.0185546875-2.3076171875.0546875-4.662109375.1611328125-7.0615234375.3212890625-2.3994140625.1611328125-4.71484375.33203125-6.9443359375.5126953125-2.2314453125.1806640625-4.111328125.3330078125-5.642578125.45703125-.0185546875.6044921875-.0205078125,1.6103515625-.0068359375,3.0166015625.0126953125,1.40625-.08984375,2.8212890625-.3095703125,4.2470703125-.220703125,1.4248046875-.5673828125,2.7265625-1.0400390625,3.9052734375-.4755859375,1.177734375-1.208984375,1.837890625-2.2021484375,1.9853515625-.927734375.142578125-1.986328125.2958984375-3.1796875.4599609375-1.1923828125.1630859375-2.369140625.125-3.52734375-.1171875-1.154296875-.1728515625-2.146484375-.6298828125-2.9755859375-1.3662109375-.8310546875-.7373046875-1.349609375-1.9677734375-1.5556640625-3.6943359375-.1669921875-2.0625-.326171875-4.4296875-.4755859375-7.0986328125-.1494140625-2.66796875-.25-5.57421875-.3037109375-8.720703125-.078125-2.6064453125-.091796875-5.4716796875-.04296875-8.5908203125.048828125-3.12109375.2236328125-6.333984375.5263671875-9.642578125.30078125-3.3076171875.76953125-6.6298828125,1.404296875-9.96484375.6337890625-3.3349609375,1.5146484375-6.5224609375,2.642578125-9.5634765625,1.126953125-3.0390625,2.5234375-5.8662109375,4.1884765625-8.4814453125,1.6630859375-2.61328125,3.7275390625-4.8583984375,6.189453125-6.7333984375,2.9052734375-2.1796875,6.189453125-3.41796875,9.8515625-3.71484375,3.6611328125-.2958984375,7.1962890625.322265625,10.6044921875,1.85546875ZM57.9599609375,114.833984375c4.1669921875-.671875,8.32421875-1.259765625,12.47265625-1.7646484375,4.146484375-.501953125,8.32421875-.8583984375,12.529296875-1.064453125-.1826171875-4.744140625-.7255859375-8.953125-1.626953125-12.6357421875-.9013671875-3.6787109375-1.9892578125-6.7578125-3.2607421875-9.2353515625-1.2734375-2.4755859375-2.6982421875-4.3369140625-4.2734375-5.583984375-1.5751953125-1.2451171875-3.1279296875-1.8076171875-4.6591796875-1.68359375-1.3330078125.1083984375-2.658203125.9033203125-3.978515625,2.3837890625-1.322265625,1.4814453125-2.4912109375,3.5859375-3.509765625,6.3154296875-1.01953125,2.7314453125-1.8701171875,6.06640625-2.556640625,10.0078125-.685546875,3.943359375-1.0654296875,8.36328125-1.13671875,13.2607421875Z"/>
                <path class="cls-2" d="M215.03515625,90.7490234375c3.1123046875,2.0263671875,5.5205078125,4.6650390625,7.224609375,7.91015625,1.703125,3.24609375,2.4345703125,6.6884765625,2.193359375,10.326171875-.26953125,4.1103515625-1.5908203125,7.6513671875-3.9638671875,10.625-2.3720703125,2.9736328125-5.2587890625,5.40234375-8.658203125,7.28515625-3.3994140625,1.884765625-7.1240234375,3.2587890625-11.17578125,4.12109375-4.0517578125.865234375-7.890625,1.2431640625-11.5185546875,1.1357421875-.3232421875.1591796875-.6162109375.2666015625-.87890625.322265625-.263671875.0546875-.5595703125.12890625-.88671875.2216796875-1.1923828125.1630859375-2.42578125.2626953125-3.6943359375.2998046875-1.271484375.0361328125-2.4375-.0888671875-3.498046875-.369140625-1.0625-.2822265625-1.9931640625-.8095703125-2.7919921875-1.583984375-.80078125-.7724609375-1.3291015625-1.9189453125-1.5859375-3.439453125-.193359375-.7216796875-.345703125-2.19921875-.4599609375-4.4375-.1142578125-2.2333984375-.267578125-4.953125-.4599609375-8.1533203125-.130859375-3.2724609375-.3017578125-6.8271484375-.51171875-10.6650390625-.2099609375-3.8369140625-.4384765625-7.6875-.6845703125-11.5556640625-.3447265625-5.0634765625-.6904296875-10.162109375-1.0380859375-15.2958984375-.349609375-5.1298828125-.9677734375-10.2744140625-1.853515625-15.4306640625-.1826171875-.5888671875-.158203125-1.125.0703125-1.61328125.1005859375-.41015625.3681640625-.8173828125.8056640625-1.2216796875.435546875-.40234375,1.1142578125-.708984375,2.0361328125-.9189453125.66015625-.119140625,1.3857421875-.2783203125,2.1728515625-.4775390625.7890625-.1962890625,1.6123046875-.3642578125,2.47265625-.501953125.859375-.1357421875,1.6923828125-.203125,2.4970703125-.2021484375.8037109375.001953125,1.513671875.078125,2.1298828125.23046875,3.357421875-.7412109375,6.9169921875-1.0478515625,10.681640625-.9169921875,3.7626953125.1318359375,7.3466796875.7294921875,10.75,1.79296875,3.4033203125,1.06640625,6.41015625,2.615234375,9.021484375,4.6474609375,2.6103515625,2.03515625,4.4453125,4.6162109375,5.5029296875,7.7470703125.4453125,1.37109375.7646484375,2.8203125.955078125,4.345703125.189453125,1.52734375.15234375,3.12109375-.115234375,4.783203125-.2666015625,1.666015625-.7783203125,3.4150390625-1.5341796875,5.251953125-.755859375,1.837890625-1.82421875,3.75-3.2041015625,5.7373046875ZM188.591796875,86.9609375c3.20703125-.125,5.8759765625-.6767578125,8.0087890625-1.654296875,2.1318359375-.9765625,3.6943359375-2.1591796875,4.6884765625-3.546875.9931640625-1.38671875,1.4111328125-2.8427734375,1.25390625-4.3720703125-.158203125-1.5283203125-.8515625-2.84765625-2.0791015625-3.9541015625-1.23046875-1.1064453125-3.001953125-1.8828125-5.31640625-2.3330078125-2.3154296875-.44921875-5.185546875-.2998046875-8.6083984375.4462890625.41015625,2.580078125.767578125,5.1318359375,1.072265625,7.65234375.3046875,2.5224609375.630859375,5.111328125.98046875,7.76171875ZM191.23828125,115.8984375c3.626953125.107421875,6.642578125-.302734375,9.046875-1.2353515625,2.4033203125-.931640625,4.169921875-2.080078125,5.2998046875-3.4453125,1.12890625-1.3642578125,1.650390625-2.78125,1.5654296875-4.2490234375-.0849609375-1.4658203125-.76953125-2.6845703125-2.0546875-3.6533203125-1.2841796875-.966796875-3.1748046875-1.5341796875-5.666015625-1.701171875-2.494140625-.166015625-5.5703125.333984375-9.2275390625,1.5009765625l1.0361328125,12.783203125Z"/>
              </g>
              <g>
                <path class="cls-2" d="M78.5458984375,67.427734375c2.6484375,1.2607421875,4.958984375,2.8818359375,6.9287109375,4.8671875,1.970703125,1.986328125,3.671875,4.193359375,5.1103515625,6.623046875,1.4365234375,2.4306640625,2.6337890625,5.0302734375,3.5966796875,7.80078125.9619140625,2.7705078125,1.7587890625,5.5712890625,2.390625,8.400390625,1.3896484375,5.5849609375,2.384765625,11.2666015625,2.9892578125,17.048828125.6015625,5.78125.9736328125,11.6162109375,1.115234375,17.5.001953125,1.67578125-.0205078125,3.052734375-.06640625,4.126953125-.0478515625,1.078125-.2275390625,1.962890625-.5390625,2.658203125-.3125.6953125-.7861328125,1.26953125-1.4189453125,1.72265625-.6337890625.453125-1.5361328125.89453125-2.70703125,1.32421875-1.1220703125.2255859375-2.294921875.4208984375-3.5205078125.5869140625-1.2275390625.166015625-2.4033203125-.0732421875-3.5263671875-.71875-1.052734375-.583984375-1.978515625-1.6494140625-2.771484375-3.193359375-.796875-1.5439453125-1.349609375-3.8115234375-1.658203125-6.802734375l-.0810546875-.998046875c-1.6806640625-.0654296875-3.673828125-.0693359375-5.9814453125-.0185546875-2.3076171875.0546875-4.662109375.1611328125-7.0615234375.3212890625-2.3994140625.1611328125-4.71484375.33203125-6.9443359375.5126953125-2.2314453125.1806640625-4.111328125.3330078125-5.642578125.45703125-.0185546875.6044921875-.0205078125,1.6103515625-.0068359375,3.0166015625.0126953125,1.40625-.08984375,2.8212890625-.3095703125,4.2470703125-.220703125,1.4248046875-.5673828125,2.7265625-1.0400390625,3.9052734375-.4755859375,1.177734375-1.208984375,1.837890625-2.2021484375,1.9853515625-.927734375.142578125-1.986328125.2958984375-3.1796875.4599609375-1.1923828125.1630859375-2.369140625.125-3.52734375-.1171875-1.154296875-.1728515625-2.146484375-.6298828125-2.9755859375-1.3662109375-.8310546875-.7373046875-1.349609375-1.9677734375-1.5556640625-3.6943359375-.1669921875-2.0625-.326171875-4.4296875-.4755859375-7.0986328125-.1494140625-2.66796875-.25-5.57421875-.3037109375-8.720703125-.078125-2.6064453125-.091796875-5.4716796875-.04296875-8.5908203125.048828125-3.12109375.2236328125-6.333984375.5263671875-9.642578125.30078125-3.3076171875.76953125-6.6298828125,1.404296875-9.96484375.6337890625-3.3349609375,1.5146484375-6.5224609375,2.642578125-9.5634765625,1.126953125-3.0390625,2.5234375-5.8662109375,4.1884765625-8.4814453125,1.6630859375-2.61328125,3.7275390625-4.8583984375,6.189453125-6.7333984375,2.9052734375-2.1796875,6.189453125-3.41796875,9.8515625-3.71484375,3.6611328125-.2958984375,7.1962890625.322265625,10.6044921875,1.85546875ZM57.9599609375,114.833984375c4.1669921875-.671875,8.32421875-1.259765625,12.47265625-1.7646484375,4.146484375-.501953125,8.32421875-.8583984375,12.529296875-1.064453125-.1826171875-4.744140625-.7255859375-8.953125-1.626953125-12.6357421875-.9013671875-3.6787109375-1.9892578125-6.7578125-3.2607421875-9.2353515625-1.2734375-2.4755859375-2.6982421875-4.3369140625-4.2734375-5.583984375-1.5751953125-1.2451171875-3.1279296875-1.8076171875-4.6591796875-1.68359375-1.3330078125.1083984375-2.658203125.9033203125-3.978515625,2.3837890625-1.322265625,1.4814453125-2.4912109375,3.5859375-3.509765625,6.3154296875-1.01953125,2.7314453125-1.8701171875,6.06640625-2.556640625,10.0078125-.685546875,3.943359375-1.0654296875,8.36328125-1.13671875,13.2607421875Z"/>
                <path class="cls-2" d="M215.03515625,90.7490234375c3.1123046875,2.0263671875,5.5205078125,4.6650390625,7.224609375,7.91015625,1.703125,3.24609375,2.4345703125,6.6884765625,2.193359375,10.326171875-.26953125,4.1103515625-1.5908203125,7.6513671875-3.9638671875,10.625-2.3720703125,2.9736328125-5.2587890625,5.40234375-8.658203125,7.28515625-3.3994140625,1.884765625-7.1240234375,3.2587890625-11.17578125,4.12109375-4.0517578125.865234375-7.890625,1.2431640625-11.5185546875,1.1357421875-.3232421875.1591796875-.6162109375.2666015625-.87890625.322265625-.263671875.0546875-.5595703125.12890625-.88671875.2216796875-1.1923828125.1630859375-2.42578125.2626953125-3.6943359375.2998046875-1.271484375.0361328125-2.4375-.0888671875-3.498046875-.369140625-1.0625-.2822265625-1.9931640625-.8095703125-2.7919921875-1.583984375-.80078125-.7724609375-1.3291015625-1.9189453125-1.5859375-3.439453125-.193359375-.7216796875-.345703125-2.19921875-.4599609375-4.4375-.1142578125-2.2333984375-.267578125-4.953125-.4599609375-8.1533203125-.130859375-3.2724609375-.3017578125-6.8271484375-.51171875-10.6650390625-.2099609375-3.8369140625-.4384765625-7.6875-.6845703125-11.5556640625-.3447265625-5.0634765625-.6904296875-10.162109375-1.0380859375-15.2958984375-.349609375-5.1298828125-.9677734375-10.2744140625-1.853515625-15.4306640625-.1826171875-.5888671875-.158203125-1.125.0703125-1.61328125.1005859375-.41015625.3681640625-.8173828125.8056640625-1.2216796875.435546875-.40234375,1.1142578125-.708984375,2.0361328125-.9189453125.66015625-.119140625,1.3857421875-.2783203125,2.1728515625-.4775390625.7890625-.1962890625,1.6123046875-.3642578125,2.47265625-.501953125.859375-.1357421875,1.6923828125-.203125,2.4970703125-.2021484375.8037109375.001953125,1.513671875.078125,2.1298828125.23046875,3.357421875-.7412109375,6.9169921875-1.0478515625,10.681640625-.9169921875,3.7626953125.1318359375,7.3466796875.7294921875,10.75,1.79296875,3.4033203125,1.06640625,6.41015625,2.615234375,9.021484375,4.6474609375,2.6103515625,2.03515625,4.4453125,4.6162109375,5.5029296875,7.7470703125.4453125,1.37109375.7646484375,2.8203125.955078125,4.345703125.189453125,1.52734375.15234375,3.12109375-.115234375,4.783203125-.2666015625,1.666015625-.7783203125,3.4150390625-1.5341796875,5.251953125-.755859375,1.837890625-1.82421875,3.75-3.2041015625,5.7373046875ZM188.591796875,86.9609375c3.20703125-.125,5.8759765625-.6767578125,8.0087890625-1.654296875,2.1318359375-.9765625,3.6943359375-2.1591796875,4.6884765625-3.546875.9931640625-1.38671875,1.4111328125-2.8427734375,1.25390625-4.3720703125-.158203125-1.5283203125-.8515625-2.84765625-2.0791015625-3.9541015625-1.23046875-1.1064453125-3.001953125-1.8828125-5.31640625-2.3330078125-2.3154296875-.44921875-5.185546875-.2998046875-8.6083984375.4462890625.41015625,2.580078125.767578125,5.1318359375,1.072265625,7.65234375.3046875,2.5224609375.630859375,5.111328125.98046875,7.76171875ZM191.23828125,115.8984375c3.626953125.107421875,6.642578125-.302734375,9.046875-1.2353515625,2.4033203125-.931640625,4.169921875-2.080078125,5.2998046875-3.4453125,1.12890625-1.3642578125,1.650390625-2.78125,1.5654296875-4.2490234375-.0849609375-1.4658203125-.76953125-2.6845703125-2.0546875-3.6533203125-1.2841796875-.966796875-3.1748046875-1.5341796875-5.666015625-1.701171875-2.494140625-.166015625-5.5703125.333984375-9.2275390625,1.5009765625l1.0361328125,12.783203125Z"/>
              </g>
              <g>
                <path class="cls-2" d="M78.5458984375,67.427734375c2.6484375,1.2607421875,4.958984375,2.8818359375,6.9287109375,4.8671875,1.970703125,1.986328125,3.671875,4.193359375,5.1103515625,6.623046875,1.4365234375,2.4306640625,2.6337890625,5.0302734375,3.5966796875,7.80078125.9619140625,2.7705078125,1.7587890625,5.5712890625,2.390625,8.400390625,1.3896484375,5.5849609375,2.384765625,11.2666015625,2.9892578125,17.048828125.6015625,5.78125.9736328125,11.6162109375,1.115234375,17.5.001953125,1.67578125-.0205078125,3.052734375-.06640625,4.126953125-.0478515625,1.078125-.2275390625,1.962890625-.5390625,2.658203125-.3125.6953125-.7861328125,1.26953125-1.4189453125,1.72265625-.6337890625.453125-1.5361328125.89453125-2.70703125,1.32421875-1.1220703125.2255859375-2.294921875.4208984375-3.5205078125.5869140625-1.2275390625.166015625-2.4033203125-.0732421875-3.5263671875-.71875-1.052734375-.583984375-1.978515625-1.6494140625-2.771484375-3.193359375-.796875-1.5439453125-1.349609375-3.8115234375-1.658203125-6.802734375l-.0810546875-.998046875c-1.6806640625-.0654296875-3.673828125-.0693359375-5.9814453125-.0185546875-2.3076171875.0546875-4.662109375.1611328125-7.0615234375.3212890625-2.3994140625.1611328125-4.71484375.33203125-6.9443359375.5126953125-2.2314453125.1806640625-4.111328125.3330078125-5.642578125.45703125-.0185546875.6044921875-.0205078125,1.6103515625-.0068359375,3.0166015625.0126953125,1.40625-.08984375,2.8212890625-.3095703125,4.2470703125-.220703125,1.4248046875-.5673828125,2.7265625-1.0400390625,3.9052734375-.4755859375,1.177734375-1.208984375,1.837890625-2.2021484375,1.9853515625-.927734375.142578125-1.986328125.2958984375-3.1796875.4599609375-1.1923828125.1630859375-2.369140625.125-3.52734375-.1171875-1.154296875-.1728515625-2.146484375-.6298828125-2.9755859375-1.3662109375-.8310546875-.7373046875-1.349609375-1.9677734375-1.5556640625-3.6943359375-.1669921875-2.0625-.326171875-4.4296875-.4755859375-7.0986328125-.1494140625-2.66796875-.25-5.57421875-.3037109375-8.720703125-.078125-2.6064453125-.091796875-5.4716796875-.04296875-8.5908203125.048828125-3.12109375.2236328125-6.333984375.5263671875-9.642578125.30078125-3.3076171875.76953125-6.6298828125,1.404296875-9.96484375.6337890625-3.3349609375,1.5146484375-6.5224609375,2.642578125-9.5634765625,1.126953125-3.0390625,2.5234375-5.8662109375,4.1884765625-8.4814453125,1.6630859375-2.61328125,3.7275390625-4.8583984375,6.189453125-6.7333984375,2.9052734375-2.1796875,6.189453125-3.41796875,9.8515625-3.71484375,3.6611328125-.2958984375,7.1962890625.322265625,10.6044921875,1.85546875ZM57.9599609375,114.833984375c4.1669921875-.671875,8.32421875-1.259765625,12.47265625-1.7646484375,4.146484375-.501953125,8.32421875-.8583984375,12.529296875-1.064453125-.1826171875-4.744140625-.7255859375-8.953125-1.626953125-12.6357421875-.9013671875-3.6787109375-1.9892578125-6.7578125-3.2607421875-9.2353515625-1.2734375-2.4755859375-2.6982421875-4.3369140625-4.2734375-5.583984375-1.5751953125-1.2451171875-3.1279296875-1.8076171875-4.6591796875-1.68359375-1.3330078125.1083984375-2.658203125.9033203125-3.978515625,2.3837890625-1.322265625,1.4814453125-2.4912109375,3.5859375-3.509765625,6.3154296875-1.01953125,2.7314453125-1.8701171875,6.06640625-2.556640625,10.0078125-.685546875,3.943359375-1.0654296875,8.36328125-1.13671875,13.2607421875Z"/>
                <path class="cls-2" d="M215.03515625,90.7490234375c3.1123046875,2.0263671875,5.5205078125,4.6650390625,7.224609375,7.91015625,1.703125,3.24609375,2.4345703125,6.6884765625,2.193359375,10.326171875-.26953125,4.1103515625-1.5908203125,7.6513671875-3.9638671875,10.625-2.3720703125,2.9736328125-5.2587890625,5.40234375-8.658203125,7.28515625-3.3994140625,1.884765625-7.1240234375,3.2587890625-11.17578125,4.12109375-4.0517578125.865234375-7.890625,1.2431640625-11.5185546875,1.1357421875-.3232421875.1591796875-.6162109375.2666015625-.87890625.322265625-.263671875.0546875-.5595703125.12890625-.88671875.2216796875-1.1923828125.1630859375-2.42578125.2626953125-3.6943359375.2998046875-1.271484375.0361328125-2.4375-.0888671875-3.498046875-.369140625-1.0625-.2822265625-1.9931640625-.8095703125-2.7919921875-1.583984375-.80078125-.7724609375-1.3291015625-1.9189453125-1.5859375-3.439453125-.193359375-.7216796875-.345703125-2.19921875-.4599609375-4.4375-.1142578125-2.2333984375-.267578125-4.953125-.4599609375-8.1533203125-.130859375-3.2724609375-.3017578125-6.8271484375-.51171875-10.6650390625-.2099609375-3.8369140625-.4384765625-7.6875-.6845703125-11.5556640625-.3447265625-5.0634765625-.6904296875-10.162109375-1.0380859375-15.2958984375-.349609375-5.1298828125-.9677734375-10.2744140625-1.853515625-15.4306640625-.1826171875-.5888671875-.158203125-1.125.0703125-1.61328125.1005859375-.41015625.3681640625-.8173828125.8056640625-1.2216796875.435546875-.40234375,1.1142578125-.708984375,2.0361328125-.9189453125.66015625-.119140625,1.3857421875-.2783203125,2.1728515625-.4775390625.7890625-.1962890625,1.6123046875-.3642578125,2.47265625-.501953125.859375-.1357421875,1.6923828125-.203125,2.4970703125-.2021484375.8037109375.001953125,1.513671875.078125,2.1298828125.23046875,3.357421875-.7412109375,6.9169921875-1.0478515625,10.681640625-.9169921875,3.7626953125.1318359375,7.3466796875.7294921875,10.75,1.79296875,3.4033203125,1.06640625,6.41015625,2.615234375,9.021484375,4.6474609375,2.6103515625,2.03515625,4.4453125,4.6162109375,5.5029296875,7.7470703125.4453125,1.37109375.7646484375,2.8203125.955078125,4.345703125.189453125,1.52734375.15234375,3.12109375-.115234375,4.783203125-.2666015625,1.666015625-.7783203125,3.4150390625-1.5341796875,5.251953125-.755859375,1.837890625-1.82421875,3.75-3.2041015625,5.7373046875ZM188.591796875,86.9609375c3.20703125-.125,5.8759765625-.6767578125,8.0087890625-1.654296875,2.1318359375-.9765625,3.6943359375-2.1591796875,4.6884765625-3.546875.9931640625-1.38671875,1.4111328125-2.8427734375,1.25390625-4.3720703125-.158203125-1.5283203125-.8515625-2.84765625-2.0791015625-3.9541015625-1.23046875-1.1064453125-3.001953125-1.8828125-5.31640625-2.3330078125-2.3154296875-.44921875-5.185546875-.2998046875-8.6083984375.4462890625.41015625,2.580078125.767578125,5.1318359375,1.072265625,7.65234375.3046875,2.5224609375.630859375,5.111328125.98046875,7.76171875ZM191.23828125,115.8984375c3.626953125.107421875,6.642578125-.302734375,9.046875-1.2353515625,2.4033203125-.931640625,4.169921875-2.080078125,5.2998046875-3.4453125,1.12890625-1.3642578125,1.650390625-2.78125,1.5654296875-4.2490234375-.0849609375-1.4658203125-.76953125-2.6845703125-2.0546875-3.6533203125-1.2841796875-.966796875-3.1748046875-1.5341796875-5.666015625-1.701171875-2.494140625-.166015625-5.5703125.333984375-9.2275390625,1.5009765625l1.0361328125,12.783203125Z"/>
              </g>
            </g>
          </a>
          <path class="cls-2" d="M144.7177734375,56.859375c-.154296875,13.7421875-.2880859375,27.3642578125-.4033203125,40.8662109375-.115234375,13.5009765625-.1357421875,27.123046875-.0576171875,40.8662109375-.1552734375.9638671875-.423828125,1.849609375-.8076171875,2.6513671875-.3857421875.64453125-.962890625,1.287109375-1.7314453125,1.9287109375-.76953125.64453125-1.8076171875,1.0439453125-3.115234375,1.2060546875-1.384765625.16015625-2.7890625.259765625-4.2119140625.30078125-1.423828125.0400390625-2.7509765625-.1201171875-3.98046875-.4814453125-1.2314453125-.3623046875-2.2900390625-1.00390625-3.1728515625-1.9287109375-.8857421875-.923828125-1.4423828125-2.3095703125-1.673828125-4.1591796875-.154296875-.8837890625-.23046875-2.7314453125-.23046875-5.5458984375,0-2.8115234375.0576171875-6.2080078125.1728515625-10.185546875.115234375-3.978515625.2490234375-8.3583984375.404296875-13.140625.1533203125-4.7802734375.345703125-9.5830078125.5771484375-14.4052734375.1533203125-4.822265625.3642578125-9.482421875.634765625-13.9833984375.2685546875-4.5.4794921875-8.517578125.6337890625-12.0556640625.2314453125-4.0986328125.4619140625-7.9560546875.6923828125-11.572265625-.0771484375-.7236328125.0380859375-1.365234375.3466796875-1.9287109375.23046875-.482421875.5947265625-.904296875,1.095703125-1.265625.5-.3623046875,1.287109375-.58203125,2.3662109375-.6630859375h3.75c1.421875,0,2.787109375.1015625,4.095703125.30078125,1.3076171875.2021484375,2.4033203125.54296875,3.2890625,1.025390625.8828125.4814453125,1.326171875,1.205078125,1.326171875,2.169921875Z"/>
        </g>
        <g>
          <a xlink:href="https://www.notion.so/congruence/B-Event-1f1a5b08a72c49f5ab60f2e0793fd0a8?pvs=4">
            <g>
              <g>
                <path class="cls-3" d="M78.5458984375,67.427734375c2.6484375,1.2607421875,4.958984375,2.8818359375,6.9287109375,4.8671875,1.970703125,1.986328125,3.671875,4.193359375,5.1103515625,6.623046875,1.4365234375,2.4306640625,2.6337890625,5.0302734375,3.5966796875,7.80078125.9619140625,2.7705078125,1.7587890625,5.5712890625,2.390625,8.400390625,1.3896484375,5.5849609375,2.384765625,11.2666015625,2.9892578125,17.048828125.6015625,5.78125.9736328125,11.6162109375,1.115234375,17.5.001953125,1.67578125-.0205078125,3.052734375-.06640625,4.126953125-.0478515625,1.078125-.2275390625,1.962890625-.5390625,2.658203125-.3125.6953125-.7861328125,1.26953125-1.4189453125,1.72265625-.6337890625.453125-1.5361328125.89453125-2.70703125,1.32421875-1.1220703125.2255859375-2.294921875.4208984375-3.5205078125.5869140625-1.2275390625.166015625-2.4033203125-.0732421875-3.5263671875-.71875-1.052734375-.583984375-1.978515625-1.6494140625-2.771484375-3.193359375-.796875-1.5439453125-1.349609375-3.8115234375-1.658203125-6.802734375l-.0810546875-.998046875c-1.6806640625-.0654296875-3.673828125-.0693359375-5.9814453125-.0185546875-2.3076171875.0546875-4.662109375.1611328125-7.0615234375.3212890625-2.3994140625.1611328125-4.71484375.33203125-6.9443359375.5126953125-2.2314453125.1806640625-4.111328125.3330078125-5.642578125.45703125-.0185546875.6044921875-.0205078125,1.6103515625-.0068359375,3.0166015625.0126953125,1.40625-.08984375,2.8212890625-.3095703125,4.2470703125-.220703125,1.4248046875-.5673828125,2.7265625-1.0400390625,3.9052734375-.4755859375,1.177734375-1.208984375,1.837890625-2.2021484375,1.9853515625-.927734375.142578125-1.986328125.2958984375-3.1796875.4599609375-1.1923828125.1630859375-2.369140625.125-3.52734375-.1171875-1.154296875-.1728515625-2.146484375-.6298828125-2.9755859375-1.3662109375-.8310546875-.7373046875-1.349609375-1.9677734375-1.5556640625-3.6943359375-.1669921875-2.0625-.326171875-4.4296875-.4755859375-7.0986328125-.1494140625-2.66796875-.25-5.57421875-.3037109375-8.720703125-.078125-2.6064453125-.091796875-5.4716796875-.04296875-8.5908203125.048828125-3.12109375.2236328125-6.333984375.5263671875-9.642578125.30078125-3.3076171875.76953125-6.6298828125,1.404296875-9.96484375.6337890625-3.3349609375,1.5146484375-6.5224609375,2.642578125-9.5634765625,1.126953125-3.0390625,2.5234375-5.8662109375,4.1884765625-8.4814453125,1.6630859375-2.61328125,3.7275390625-4.8583984375,6.189453125-6.7333984375,2.9052734375-2.1796875,6.189453125-3.41796875,9.8515625-3.71484375,3.6611328125-.2958984375,7.1962890625.322265625,10.6044921875,1.85546875ZM57.9599609375,114.833984375c4.1669921875-.671875,8.32421875-1.259765625,12.47265625-1.7646484375,4.146484375-.501953125,8.32421875-.8583984375,12.529296875-1.064453125-.1826171875-4.744140625-.7255859375-8.953125-1.626953125-12.6357421875-.9013671875-3.6787109375-1.9892578125-6.7578125-3.2607421875-9.2353515625-1.2734375-2.4755859375-2.6982421875-4.3369140625-4.2734375-5.583984375-1.5751953125-1.2451171875-3.1279296875-1.8076171875-4.6591796875-1.68359375-1.3330078125.1083984375-2.658203125.9033203125-3.978515625,2.3837890625-1.322265625,1.4814453125-2.4912109375,3.5859375-3.509765625,6.3154296875-1.01953125,2.7314453125-1.8701171875,6.06640625-2.556640625,10.0078125-.685546875,3.943359375-1.0654296875,8.36328125-1.13671875,13.2607421875Z"/>
                <path class="cls-3" d="M215.03515625,90.7490234375c3.1123046875,2.0263671875,5.5205078125,4.6650390625,7.224609375,7.91015625,1.703125,3.24609375,2.4345703125,6.6884765625,2.193359375,10.326171875-.26953125,4.1103515625-1.5908203125,7.6513671875-3.9638671875,10.625-2.3720703125,2.9736328125-5.2587890625,5.40234375-8.658203125,7.28515625-3.3994140625,1.884765625-7.1240234375,3.2587890625-11.17578125,4.12109375-4.0517578125.865234375-7.890625,1.2431640625-11.5185546875,1.1357421875-.3232421875.1591796875-.6162109375.2666015625-.87890625.322265625-.263671875.0546875-.5595703125.12890625-.88671875.2216796875-1.1923828125.1630859375-2.42578125.2626953125-3.6943359375.2998046875-1.271484375.0361328125-2.4375-.0888671875-3.498046875-.369140625-1.0625-.2822265625-1.9931640625-.8095703125-2.7919921875-1.583984375-.80078125-.7724609375-1.3291015625-1.9189453125-1.5859375-3.439453125-.193359375-.7216796875-.345703125-2.19921875-.4599609375-4.4375-.1142578125-2.2333984375-.267578125-4.953125-.4599609375-8.1533203125-.130859375-3.2724609375-.3017578125-6.8271484375-.51171875-10.6650390625-.2099609375-3.8369140625-.4384765625-7.6875-.6845703125-11.5556640625-.3447265625-5.0634765625-.6904296875-10.162109375-1.0380859375-15.2958984375-.349609375-5.1298828125-.9677734375-10.2744140625-1.853515625-15.4306640625-.1826171875-.5888671875-.158203125-1.125.0703125-1.61328125.1005859375-.41015625.3681640625-.8173828125.8056640625-1.2216796875.435546875-.40234375,1.1142578125-.708984375,2.0361328125-.9189453125.66015625-.119140625,1.3857421875-.2783203125,2.1728515625-.4775390625.7890625-.1962890625,1.6123046875-.3642578125,2.47265625-.501953125.859375-.1357421875,1.6923828125-.203125,2.4970703125-.2021484375.8037109375.001953125,1.513671875.078125,2.1298828125.23046875,3.357421875-.7412109375,6.9169921875-1.0478515625,10.681640625-.9169921875,3.7626953125.1318359375,7.3466796875.7294921875,10.75,1.79296875,3.4033203125,1.06640625,6.41015625,2.615234375,9.021484375,4.6474609375,2.6103515625,2.03515625,4.4453125,4.6162109375,5.5029296875,7.7470703125.4453125,1.37109375.7646484375,2.8203125.955078125,4.345703125.189453125,1.52734375.15234375,3.12109375-.115234375,4.783203125-.2666015625,1.666015625-.7783203125,3.4150390625-1.5341796875,5.251953125-.755859375,1.837890625-1.82421875,3.75-3.2041015625,5.7373046875ZM188.591796875,86.9609375c3.20703125-.125,5.8759765625-.6767578125,8.0087890625-1.654296875,2.1318359375-.9765625,3.6943359375-2.1591796875,4.6884765625-3.546875.9931640625-1.38671875,1.4111328125-2.8427734375,1.25390625-4.3720703125-.158203125-1.5283203125-.8515625-2.84765625-2.0791015625-3.9541015625-1.23046875-1.1064453125-3.001953125-1.8828125-5.31640625-2.3330078125-2.3154296875-.44921875-5.185546875-.2998046875-8.6083984375.4462890625.41015625,2.580078125.767578125,5.1318359375,1.072265625,7.65234375.3046875,2.5224609375.630859375,5.111328125.98046875,7.76171875ZM191.23828125,115.8984375c3.626953125.107421875,6.642578125-.302734375,9.046875-1.2353515625,2.4033203125-.931640625,4.169921875-2.080078125,5.2998046875-3.4453125,1.12890625-1.3642578125,1.650390625-2.78125,1.5654296875-4.2490234375-.0849609375-1.4658203125-.76953125-2.6845703125-2.0546875-3.6533203125-1.2841796875-.966796875-3.1748046875-1.5341796875-5.666015625-1.701171875-2.494140625-.166015625-5.5703125.333984375-9.2275390625,1.5009765625l1.0361328125,12.783203125Z"/>
              </g>
              <g>
                <path class="cls-3" d="M78.5458984375,67.427734375c2.6484375,1.2607421875,4.958984375,2.8818359375,6.9287109375,4.8671875,1.970703125,1.986328125,3.671875,4.193359375,5.1103515625,6.623046875,1.4365234375,2.4306640625,2.6337890625,5.0302734375,3.5966796875,7.80078125.9619140625,2.7705078125,1.7587890625,5.5712890625,2.390625,8.400390625,1.3896484375,5.5849609375,2.384765625,11.2666015625,2.9892578125,17.048828125.6015625,5.78125.9736328125,11.6162109375,1.115234375,17.5.001953125,1.67578125-.0205078125,3.052734375-.06640625,4.126953125-.0478515625,1.078125-.2275390625,1.962890625-.5390625,2.658203125-.3125.6953125-.7861328125,1.26953125-1.4189453125,1.72265625-.6337890625.453125-1.5361328125.89453125-2.70703125,1.32421875-1.1220703125.2255859375-2.294921875.4208984375-3.5205078125.5869140625-1.2275390625.166015625-2.4033203125-.0732421875-3.5263671875-.71875-1.052734375-.583984375-1.978515625-1.6494140625-2.771484375-3.193359375-.796875-1.5439453125-1.349609375-3.8115234375-1.658203125-6.802734375l-.0810546875-.998046875c-1.6806640625-.0654296875-3.673828125-.0693359375-5.9814453125-.0185546875-2.3076171875.0546875-4.662109375.1611328125-7.0615234375.3212890625-2.3994140625.1611328125-4.71484375.33203125-6.9443359375.5126953125-2.2314453125.1806640625-4.111328125.3330078125-5.642578125.45703125-.0185546875.6044921875-.0205078125,1.6103515625-.0068359375,3.0166015625.0126953125,1.40625-.08984375,2.8212890625-.3095703125,4.2470703125-.220703125,1.4248046875-.5673828125,2.7265625-1.0400390625,3.9052734375-.4755859375,1.177734375-1.208984375,1.837890625-2.2021484375,1.9853515625-.927734375.142578125-1.986328125.2958984375-3.1796875.4599609375-1.1923828125.1630859375-2.369140625.125-3.52734375-.1171875-1.154296875-.1728515625-2.146484375-.6298828125-2.9755859375-1.3662109375-.8310546875-.7373046875-1.349609375-1.9677734375-1.5556640625-3.6943359375-.1669921875-2.0625-.326171875-4.4296875-.4755859375-7.0986328125-.1494140625-2.66796875-.25-5.57421875-.3037109375-8.720703125-.078125-2.6064453125-.091796875-5.4716796875-.04296875-8.5908203125.048828125-3.12109375.2236328125-6.333984375.5263671875-9.642578125.30078125-3.3076171875.76953125-6.6298828125,1.404296875-9.96484375.6337890625-3.3349609375,1.5146484375-6.5224609375,2.642578125-9.5634765625,1.126953125-3.0390625,2.5234375-5.8662109375,4.1884765625-8.4814453125,1.6630859375-2.61328125,3.7275390625-4.8583984375,6.189453125-6.7333984375,2.9052734375-2.1796875,6.189453125-3.41796875,9.8515625-3.71484375,3.6611328125-.2958984375,7.1962890625.322265625,10.6044921875,1.85546875ZM57.9599609375,114.833984375c4.1669921875-.671875,8.32421875-1.259765625,12.47265625-1.7646484375,4.146484375-.501953125,8.32421875-.8583984375,12.529296875-1.064453125-.1826171875-4.744140625-.7255859375-8.953125-1.626953125-12.6357421875-.9013671875-3.6787109375-1.9892578125-6.7578125-3.2607421875-9.2353515625-1.2734375-2.4755859375-2.6982421875-4.3369140625-4.2734375-5.583984375-1.5751953125-1.2451171875-3.1279296875-1.8076171875-4.6591796875-1.68359375-1.3330078125.1083984375-2.658203125.9033203125-3.978515625,2.3837890625-1.322265625,1.4814453125-2.4912109375,3.5859375-3.509765625,6.3154296875-1.01953125,2.7314453125-1.8701171875,6.06640625-2.556640625,10.0078125-.685546875,3.943359375-1.0654296875,8.36328125-1.13671875,13.2607421875Z"/>
                <path class="cls-3" d="M215.03515625,90.7490234375c3.1123046875,2.0263671875,5.5205078125,4.6650390625,7.224609375,7.91015625,1.703125,3.24609375,2.4345703125,6.6884765625,2.193359375,10.326171875-.26953125,4.1103515625-1.5908203125,7.6513671875-3.9638671875,10.625-2.3720703125,2.9736328125-5.2587890625,5.40234375-8.658203125,7.28515625-3.3994140625,1.884765625-7.1240234375,3.2587890625-11.17578125,4.12109375-4.0517578125.865234375-7.890625,1.2431640625-11.5185546875,1.1357421875-.3232421875.1591796875-.6162109375.2666015625-.87890625.322265625-.263671875.0546875-.5595703125.12890625-.88671875.2216796875-1.1923828125.1630859375-2.42578125.2626953125-3.6943359375.2998046875-1.271484375.0361328125-2.4375-.0888671875-3.498046875-.369140625-1.0625-.2822265625-1.9931640625-.8095703125-2.7919921875-1.583984375-.80078125-.7724609375-1.3291015625-1.9189453125-1.5859375-3.439453125-.193359375-.7216796875-.345703125-2.19921875-.4599609375-4.4375-.1142578125-2.2333984375-.267578125-4.953125-.4599609375-8.1533203125-.130859375-3.2724609375-.3017578125-6.8271484375-.51171875-10.6650390625-.2099609375-3.8369140625-.4384765625-7.6875-.6845703125-11.5556640625-.3447265625-5.0634765625-.6904296875-10.162109375-1.0380859375-15.2958984375-.349609375-5.1298828125-.9677734375-10.2744140625-1.853515625-15.4306640625-.1826171875-.5888671875-.158203125-1.125.0703125-1.61328125.1005859375-.41015625.3681640625-.8173828125.8056640625-1.2216796875.435546875-.40234375,1.1142578125-.708984375,2.0361328125-.9189453125.66015625-.119140625,1.3857421875-.2783203125,2.1728515625-.4775390625.7890625-.1962890625,1.6123046875-.3642578125,2.47265625-.501953125.859375-.1357421875,1.6923828125-.203125,2.4970703125-.2021484375.8037109375.001953125,1.513671875.078125,2.1298828125.23046875,3.357421875-.7412109375,6.9169921875-1.0478515625,10.681640625-.9169921875,3.7626953125.1318359375,7.3466796875.7294921875,10.75,1.79296875,3.4033203125,1.06640625,6.41015625,2.615234375,9.021484375,4.6474609375,2.6103515625,2.03515625,4.4453125,4.6162109375,5.5029296875,7.7470703125.4453125,1.37109375.7646484375,2.8203125.955078125,4.345703125.189453125,1.52734375.15234375,3.12109375-.115234375,4.783203125-.2666015625,1.666015625-.7783203125,3.4150390625-1.5341796875,5.251953125-.755859375,1.837890625-1.82421875,3.75-3.2041015625,5.7373046875ZM188.591796875,86.9609375c3.20703125-.125,5.8759765625-.6767578125,8.0087890625-1.654296875,2.1318359375-.9765625,3.6943359375-2.1591796875,4.6884765625-3.546875.9931640625-1.38671875,1.4111328125-2.8427734375,1.25390625-4.3720703125-.158203125-1.5283203125-.8515625-2.84765625-2.0791015625-3.9541015625-1.23046875-1.1064453125-3.001953125-1.8828125-5.31640625-2.3330078125-2.3154296875-.44921875-5.185546875-.2998046875-8.6083984375.4462890625.41015625,2.580078125.767578125,5.1318359375,1.072265625,7.65234375.3046875,2.5224609375.630859375,5.111328125.98046875,7.76171875ZM191.23828125,115.8984375c3.626953125.107421875,6.642578125-.302734375,9.046875-1.2353515625,2.4033203125-.931640625,4.169921875-2.080078125,5.2998046875-3.4453125,1.12890625-1.3642578125,1.650390625-2.78125,1.5654296875-4.2490234375-.0849609375-1.4658203125-.76953125-2.6845703125-2.0546875-3.6533203125-1.2841796875-.966796875-3.1748046875-1.5341796875-5.666015625-1.701171875-2.494140625-.166015625-5.5703125.333984375-9.2275390625,1.5009765625l1.0361328125,12.783203125Z"/>
              </g>
              <g>
                <path class="cls-3" d="M78.5458984375,67.427734375c2.6484375,1.2607421875,4.958984375,2.8818359375,6.9287109375,4.8671875,1.970703125,1.986328125,3.671875,4.193359375,5.1103515625,6.623046875,1.4365234375,2.4306640625,2.6337890625,5.0302734375,3.5966796875,7.80078125.9619140625,2.7705078125,1.7587890625,5.5712890625,2.390625,8.400390625,1.3896484375,5.5849609375,2.384765625,11.2666015625,2.9892578125,17.048828125.6015625,5.78125.9736328125,11.6162109375,1.115234375,17.5.001953125,1.67578125-.0205078125,3.052734375-.06640625,4.126953125-.0478515625,1.078125-.2275390625,1.962890625-.5390625,2.658203125-.3125.6953125-.7861328125,1.26953125-1.4189453125,1.72265625-.6337890625.453125-1.5361328125.89453125-2.70703125,1.32421875-1.1220703125.2255859375-2.294921875.4208984375-3.5205078125.5869140625-1.2275390625.166015625-2.4033203125-.0732421875-3.5263671875-.71875-1.052734375-.583984375-1.978515625-1.6494140625-2.771484375-3.193359375-.796875-1.5439453125-1.349609375-3.8115234375-1.658203125-6.802734375l-.0810546875-.998046875c-1.6806640625-.0654296875-3.673828125-.0693359375-5.9814453125-.0185546875-2.3076171875.0546875-4.662109375.1611328125-7.0615234375.3212890625-2.3994140625.1611328125-4.71484375.33203125-6.9443359375.5126953125-2.2314453125.1806640625-4.111328125.3330078125-5.642578125.45703125-.0185546875.6044921875-.0205078125,1.6103515625-.0068359375,3.0166015625.0126953125,1.40625-.08984375,2.8212890625-.3095703125,4.2470703125-.220703125,1.4248046875-.5673828125,2.7265625-1.0400390625,3.9052734375-.4755859375,1.177734375-1.208984375,1.837890625-2.2021484375,1.9853515625-.927734375.142578125-1.986328125.2958984375-3.1796875.4599609375-1.1923828125.1630859375-2.369140625.125-3.52734375-.1171875-1.154296875-.1728515625-2.146484375-.6298828125-2.9755859375-1.3662109375-.8310546875-.7373046875-1.349609375-1.9677734375-1.5556640625-3.6943359375-.1669921875-2.0625-.326171875-4.4296875-.4755859375-7.0986328125-.1494140625-2.66796875-.25-5.57421875-.3037109375-8.720703125-.078125-2.6064453125-.091796875-5.4716796875-.04296875-8.5908203125.048828125-3.12109375.2236328125-6.333984375.5263671875-9.642578125.30078125-3.3076171875.76953125-6.6298828125,1.404296875-9.96484375.6337890625-3.3349609375,1.5146484375-6.5224609375,2.642578125-9.5634765625,1.126953125-3.0390625,2.5234375-5.8662109375,4.1884765625-8.4814453125,1.6630859375-2.61328125,3.7275390625-4.8583984375,6.189453125-6.7333984375,2.9052734375-2.1796875,6.189453125-3.41796875,9.8515625-3.71484375,3.6611328125-.2958984375,7.1962890625.322265625,10.6044921875,1.85546875ZM57.9599609375,114.833984375c4.1669921875-.671875,8.32421875-1.259765625,12.47265625-1.7646484375,4.146484375-.501953125,8.32421875-.8583984375,12.529296875-1.064453125-.1826171875-4.744140625-.7255859375-8.953125-1.626953125-12.6357421875-.9013671875-3.6787109375-1.9892578125-6.7578125-3.2607421875-9.2353515625-1.2734375-2.4755859375-2.6982421875-4.3369140625-4.2734375-5.583984375-1.5751953125-1.2451171875-3.1279296875-1.8076171875-4.6591796875-1.68359375-1.3330078125.1083984375-2.658203125.9033203125-3.978515625,2.3837890625-1.322265625,1.4814453125-2.4912109375,3.5859375-3.509765625,6.3154296875-1.01953125,2.7314453125-1.8701171875,6.06640625-2.556640625,10.0078125-.685546875,3.943359375-1.0654296875,8.36328125-1.13671875,13.2607421875Z"/>
                <path class="cls-3" d="M215.03515625,90.7490234375c3.1123046875,2.0263671875,5.5205078125,4.6650390625,7.224609375,7.91015625,1.703125,3.24609375,2.4345703125,6.6884765625,2.193359375,10.326171875-.26953125,4.1103515625-1.5908203125,7.6513671875-3.9638671875,10.625-2.3720703125,2.9736328125-5.2587890625,5.40234375-8.658203125,7.28515625-3.3994140625,1.884765625-7.1240234375,3.2587890625-11.17578125,4.12109375-4.0517578125.865234375-7.890625,1.2431640625-11.5185546875,1.1357421875-.3232421875.1591796875-.6162109375.2666015625-.87890625.322265625-.263671875.0546875-.5595703125.12890625-.88671875.2216796875-1.1923828125.1630859375-2.42578125.2626953125-3.6943359375.2998046875-1.271484375.0361328125-2.4375-.0888671875-3.498046875-.369140625-1.0625-.2822265625-1.9931640625-.8095703125-2.7919921875-1.583984375-.80078125-.7724609375-1.3291015625-1.9189453125-1.5859375-3.439453125-.193359375-.7216796875-.345703125-2.19921875-.4599609375-4.4375-.1142578125-2.2333984375-.267578125-4.953125-.4599609375-8.1533203125-.130859375-3.2724609375-.3017578125-6.8271484375-.51171875-10.6650390625-.2099609375-3.8369140625-.4384765625-7.6875-.6845703125-11.5556640625-.3447265625-5.0634765625-.6904296875-10.162109375-1.0380859375-15.2958984375-.349609375-5.1298828125-.9677734375-10.2744140625-1.853515625-15.4306640625-.1826171875-.5888671875-.158203125-1.125.0703125-1.61328125.1005859375-.41015625.3681640625-.8173828125.8056640625-1.2216796875.435546875-.40234375,1.1142578125-.708984375,2.0361328125-.9189453125.66015625-.119140625,1.3857421875-.2783203125,2.1728515625-.4775390625.7890625-.1962890625,1.6123046875-.3642578125,2.47265625-.501953125.859375-.1357421875,1.6923828125-.203125,2.4970703125-.2021484375.8037109375.001953125,1.513671875.078125,2.1298828125.23046875,3.357421875-.7412109375,6.9169921875-1.0478515625,10.681640625-.9169921875,3.7626953125.1318359375,7.3466796875.7294921875,10.75,1.79296875,3.4033203125,1.06640625,6.41015625,2.615234375,9.021484375,4.6474609375,2.6103515625,2.03515625,4.4453125,4.6162109375,5.5029296875,7.7470703125.4453125,1.37109375.7646484375,2.8203125.955078125,4.345703125.189453125,1.52734375.15234375,3.12109375-.115234375,4.783203125-.2666015625,1.666015625-.7783203125,3.4150390625-1.5341796875,5.251953125-.755859375,1.837890625-1.82421875,3.75-3.2041015625,5.7373046875ZM188.591796875,86.9609375c3.20703125-.125,5.8759765625-.6767578125,8.0087890625-1.654296875,2.1318359375-.9765625,3.6943359375-2.1591796875,4.6884765625-3.546875.9931640625-1.38671875,1.4111328125-2.8427734375,1.25390625-4.3720703125-.158203125-1.5283203125-.8515625-2.84765625-2.0791015625-3.9541015625-1.23046875-1.1064453125-3.001953125-1.8828125-5.31640625-2.3330078125-2.3154296875-.44921875-5.185546875-.2998046875-8.6083984375.4462890625.41015625,2.580078125.767578125,5.1318359375,1.072265625,7.65234375.3046875,2.5224609375.630859375,5.111328125.98046875,7.76171875ZM191.23828125,115.8984375c3.626953125.107421875,6.642578125-.302734375,9.046875-1.2353515625,2.4033203125-.931640625,4.169921875-2.080078125,5.2998046875-3.4453125,1.12890625-1.3642578125,1.650390625-2.78125,1.5654296875-4.2490234375-.0849609375-1.4658203125-.76953125-2.6845703125-2.0546875-3.6533203125-1.2841796875-.966796875-3.1748046875-1.5341796875-5.666015625-1.701171875-2.494140625-.166015625-5.5703125.333984375-9.2275390625,1.5009765625l1.0361328125,12.783203125Z"/>
              </g>
            </g>
          </a>
          <path class="cls-3" d="M144.7177734375,56.859375c-.154296875,13.7421875-.2880859375,27.3642578125-.4033203125,40.8662109375-.115234375,13.5009765625-.1357421875,27.123046875-.0576171875,40.8662109375-.1552734375.9638671875-.423828125,1.849609375-.8076171875,2.6513671875-.3857421875.64453125-.962890625,1.287109375-1.7314453125,1.9287109375-.76953125.64453125-1.8076171875,1.0439453125-3.115234375,1.2060546875-1.384765625.16015625-2.7890625.259765625-4.2119140625.30078125-1.423828125.0400390625-2.7509765625-.1201171875-3.98046875-.4814453125-1.2314453125-.3623046875-2.2900390625-1.00390625-3.1728515625-1.9287109375-.8857421875-.923828125-1.4423828125-2.3095703125-1.673828125-4.1591796875-.154296875-.8837890625-.23046875-2.7314453125-.23046875-5.5458984375,0-2.8115234375.0576171875-6.2080078125.1728515625-10.185546875.115234375-3.978515625.2490234375-8.3583984375.404296875-13.140625.1533203125-4.7802734375.345703125-9.5830078125.5771484375-14.4052734375.1533203125-4.822265625.3642578125-9.482421875.634765625-13.9833984375.2685546875-4.5.4794921875-8.517578125.6337890625-12.0556640625.2314453125-4.0986328125.4619140625-7.9560546875.6923828125-11.572265625-.0771484375-.7236328125.0380859375-1.365234375.3466796875-1.9287109375.23046875-.482421875.5947265625-.904296875,1.095703125-1.265625.5-.3623046875,1.287109375-.58203125,2.3662109375-.6630859375h3.75c1.421875,0,2.787109375.1015625,4.095703125.30078125,1.3076171875.2021484375,2.4033203125.54296875,3.2890625,1.025390625.8828125.4814453125,1.326171875,1.205078125,1.326171875,2.169921875Z"/>
        </g>
      </g>
    </a>
  </g>
  <g id="Arrows">
    <g>
      <g>
        <path class="cls-5" d="M216.238987699467543,177.011138916015625c9.647216796875,0,18.1826171875.61407470703125,26.093505859375,1.877349853515625,2.4375.389251708984375,5.0810546875.5784912109375,8.081298828125.5784912109375,2.585205078125,0,5.17919921875-.1383056640625,7.40771484375-.267974853515625,2.849365234375-.165802001953125,5.8779296875-.243011474609375,9.53076171875-.243011474609375,2.791015625,0,5.6337890625.04583740234375,8.38330078125.090179443359375,1.277587890625.0206298828125,2.554931640625.04119873046875,3.831787109375.057525634765625,8.607421875.10992431640625,16.209228515625,1.578643798828125,23.2392578125,4.489959716796875,13.068359375,5.412017822265625,21.741455078125,15.214752197265625,25.7783203125,29.13592529296875,2.87890625,9.92877197265625,3.70947265625,20.6783447265625,2.613525390625,33.82940673828125-.037841796875.455047607421875-.039794921875.899383544921875-.041748046875,1.329071044921875-.001708984375.451019287109375-.003662109375.87701416015625-.045654296875,1.286376953125-.898193359375,8.7166748046875.101806640625,17.421417236328125,1.06884765625,25.839569091796875.1953125,1.70098876953125.390869140625,3.4019775390625.5712890625,5.1036376953125.127685546875,1.20550537109375.168701171875,2.4556884765625.208251953125,3.66473388671875.05712890625,1.74163818359375.1162109375,3.541717529296875.429443359375,5.330169677734375v13.229644775390625c-.34765625,1.520660400390625-.4228515625,3.0521240234375-.495361328125,4.53436279296875-.02685546875.548004150390625-.0537109375,1.0950927734375-.094482421875,1.63922119140625-.48193359375,6.444488525390625-3.044677734375,12.399383544921875-8.064208984375,18.740447998046875-8.244873046875,10.41455078125-19.430908203125,15.663818359375-34.197509765625,16.04779052734375-.439697265625.01141357421875-.87890625.0172119140625-1.315673828125.0172119140625-7.625244140625,0-14.220703125-1.7264404296875-20.162841796875-5.27801513671875-6.4814453125-3.8740234375-11.447021484375-9.30023193359375-14.7607421875-16.13372802734375-.7958984375-1.641510009765625-1.234375-2.545745849609375-2.297119140625-2.545928955078125-.7685546875-.000091552734375-1.339599609375.544921875-2.376220703125,1.534332275390625l-.076171875.07257080078125c-1.822021484375,1.73846435546875-3.6474609375,3.4735107421875-5.47265625,5.2086181640625-7.718505859375,7.33642578125-15.69970703125,14.922607421875-23.292236328125,22.65936279296875-1.186767578125,1.20916748046875-2.346435546875,2.4730224609375-3.4677734375,3.6951904296875-1.528076171875,1.665283203125-3.10791015625,3.38726806640625-4.7568359375,4.96923828125-4.760009765625,4.56707763671875-9.583251953125,7.76422119140625-14.745361328125,9.7742919921875-3.338134765625,1.2998046875-6.819580078125,1.4339599609375-10.505859375,1.5760498046875l-.18408203125.0078125-6.801025390625.0009765625c-.44091796875.01983642578125-.879150390625.0296630859375-1.3125.0296630859375-7.57568359375,0-14.701416015625-3.0220947265625-21.78466796875-9.23895263671875-4.39306640625-3.855712890625-7.837158203125-7.76287841796875-10.529052734375-11.9447021484375-3.431640625-5.3306884765625-5.02490234375-11.15106201171875-4.87060546875-17.8170166015625l-.001220703125-6.0845947265625c-.432861328125-8.912933349609375,2.935302734375-17.0523681640625,10.010498046875-24.192169189453125,4.933349609375-4.978057861328125,10.113525390625-9.886474609375,15.123046875-14.633270263671875,4.510009765625-4.273529052734375,9.173828125-8.692535400390625,13.654541015625-13.1591796875,2.3779296875-2.370391845703125,4.84375-4.75128173828125,7.228271484375-7.05377197265625,1.078857421875-1.041778564453125,2.157958984375-2.083526611328125,3.232666015625-3.12799072265625.90234375-.87677001953125,1.696044921875-1.74737548828125,1.498291015625-2.75689697265625-.198486328125-1.013885498046875-1.23583984375-1.50933837890625-2.46923828125-2.00823974609375-8.0830078125-3.269256591796875-14.294921875-8.671539306640625-18.46337890625-16.056732177734375-2.380615234375-4.217498779296875-3.8046875-9.00250244140625-4.353271484375-14.628509521484375-.824462890625-8.45361328125.548095703125-16.6793212890625,4.07958984375-24.448638916015625,4.827880859375-10.6214599609375,12.893310546875-18.15399169921875,23.971923828125-22.388336181640625,4.607666015625-1.761077880859375,9.335693359375-2.1168212890625,13.75830078125-2.238922119140625,2.4658203125-.068084716796875,4.869140625-.10260009765625,7.14306640625-.10260009765625M216.238987699467543,176.011138916015625c-2.38916015625,0-4.780029296875.036956787109375-7.170654296875.10296630859375-4.74755859375.131072998046875-9.4990234375.5506591796875-14.087646484375,2.304443359375-11.32763671875,4.329498291015625-19.53076171875,11.920623779296875-24.525390625,22.90863037109375-3.598388671875,7.916748046875-5.016357421875,16.22412109375-4.16455078125,24.959503173828125.521484375,5.34637451171875,1.850830078125,10.369140625,4.477783203125,15.02301025390625,4.361328125,7.726837158203125,10.740966796875,13.168212890625,18.959228515625,16.492218017578125,2.319580078125.9381103515625,2.427001953125,1.3934326171875.649169921875,3.12091064453125-3.4931640625,3.39410400390625-7.028076171875,6.759613037109375-10.47021484375,10.19073486328125-9.450439453125,9.42071533203125-19.396484375,18.32623291015625-28.78173828125,27.796783447265625-6.7236328125,6.784881591796875-10.78125,15.015380859375-10.299072265625,24.944580078125v6.03607177734375c-.153564453125,6.6219482421875,1.397705078125,12.71630859375,5.02978515625,18.35833740234375,2.97412109375,4.6201171875,6.646240234375,8.5880126953125,10.710205078125,12.15496826171875,6.435791015625,5.6484375,13.703125,9.4873046875,22.4443359375,9.4873046875.4482421875,0,.9013671875-.01007080078125,1.357421875-.03057861328125h6.756103515625c3.746337890625-.1448974609375,7.487548828125-.2637939453125,11.052734375-1.65203857421875,5.751220703125-2.23944091796875,10.6533203125-5.7421875,15.074951171875-9.9844970703125,2.884765625-2.767822265625,5.45166015625-5.83831787109375,8.245849609375-8.68560791015625,9.34521484375-9.5224609375,19.090087890625-18.63623046875,28.74169921875-27.84490966796875.9033203125-.86181640625,1.38330078125-1.330474853515625,1.761962890625-1.330413818359375.436767578125.00006103515625.73876953125.624114990234375,1.400146484375,1.988128662109375,3.4052734375,7.02197265625,8.453125,12.55035400390625,15.144775390625,16.54986572265625,6.3896484375,3.81903076171875,13.333984375,5.419677734375,20.67578125,5.419677734375.4453125,0,.893310546875-.00592041015625,1.341552734375-.017578125,14.059814453125-.36553955078125,26.058837890625-5.1884765625,34.95556640625-16.4267578125,4.466796875-5.64251708984375,7.72314453125-11.875823974609375,8.277587890625-19.2864990234375.152587890625-2.038360595703125.11279296875-4.118011474609375.592529296875-6.133087158203125v-13.432769775390625c-.536376953125-2.98089599609375-.32568359375-6.01458740234375-.643310546875-9.012237548828125-1.083251953125-10.215606689453125-2.70458984375-20.402923583984375-1.639892578125-30.735382080078125.089599609375-.870697021484375.01611328125-1.75701904296875.08935546875-2.634765625.961669921875-11.54083251953125.5859375-23.03228759765625-2.649658203125-34.191070556640625-4.055908203125-13.986846923828125-12.7470703125-24.145355224609375-26.356201171875-29.78131103515625-7.546875-3.1253662109375-15.48046875-4.462158203125-23.609130859375-4.566009521484375-4.073486328125-.052032470703125-8.152587890625-.14776611328125-12.227783203125-.14776611328125-3.2001953125,0-6.398193359375.059051513671875-9.5888671875.24468994140625-2.460205078125.14312744140625-4.908203125.26629638671875-7.349609375.26629638671875-2.64697265625,0-5.2861328125-.144805908203125-7.923583984375-.56597900390625-8.710205078125-1.390899658203125-17.47265625-1.889862060546875-26.251220703125-1.889862060546875h0Z"/>
        <path class="cls-5" d="M215.419163480717543,206.1444091796875c6.5751953125,0,13.255126953125,1.0592041015625,19.000244140625,2.05206298828125,5.114013671875.883758544921875,10.48974609375,1.295379638671875,16.91748046875,1.295379638671875,4.03564453125,0,8.003662109375-.167999267578125,11.009765625-.314361572265625,3.233642578125-.157440185546875,6.68115234375-.3111572265625,10.153564453125-.3111572265625,4.914306640625,0,8.9873046875.308197021484375,12.818115234375.969879150390625,10.220458984375,1.765411376953125,14.563720703125,6.504638671875,15.49072265625,16.90325927734375.747802734375,8.392333984375.770263671875,17.277984619140625.066650390625,26.41009521484375-.737060546875,9.568389892578125.67724609375,19.03509521484375,2.04541015625,28.19012451171875.1611328125,1.078857421875.322265625,2.157867431640625.480224609375,3.237457275390625.869873046875,5.944580078125,1.50244140625,12.298858642578125.25244140625,18.488922119140625-1.18896484375,5.8883056640625-7.10205078125,10.500823974609375-13.4619140625,10.500823974609375-1.7783203125,0-3.4716796875-.3604736328125-5.033447265625-1.071441650390625-3.4619140625-1.575927734375-4.482177734375-4.691162109375-4.949462890625-8.883819580078125-.599853515625-5.382049560546875-.293701171875-10.883453369140625.00244140625-16.203704833984375.16943359375-3.041656494140625.344482421875-6.1868896484375.351318359375-9.295654296875.015869140625-7.271728515625-.326904296875-15.742431640625-4.62353515625-24.251800537109375l-.654052734375-1.295806884765625-.977783203125,1.073028564453125c-.678466796875.744873046875-1.34765625,1.499267578125-2.016845703125,2.253692626953125-1.4150390625,1.595489501953125-2.87841796875,3.24530029296875-4.403076171875,4.759307861328125-9.11083984375,9.04681396484375-17.3837890625,17.18414306640625-25.2919921875,24.876983642578125-8.334716796875,8.10784912109375-16.82958984375,16.33111572265625-25.044677734375,24.28363037109375-5.712646484375,5.52984619140625-11.425048828125,11.0596923828125-17.131103515625,16.596038818359375-1.47021484375,1.42633056640625-2.818115234375,2.9847412109375-4.121826171875,4.4918212890625-1.765380859375,2.04083251953125-3.5908203125,4.151123046875-5.69287109375,5.8853759765625-2.5625,2.11431884765625-4.751708984375,3.09906005859375-6.889892578125,3.09906005859375-2.087158203125,0-4.209716796875-.93365478515625-6.679931640625-2.9383544921875-.69580078125-.56475830078125-1.428466796875-1.17718505859375-2.071044921875-1.82891845703125-5.55908203125-5.6405029296875-5.59765625-10.6097412109375-.125-16.112457275390625,1.76806640625-1.77764892578125,3.729248046875-3.4515380859375,5.6259765625-5.070281982421875,1.93115234375-1.6480712890625,3.927978515625-3.352264404296875,5.75634765625-5.192047119140625,14.895263671875-14.9869384765625,29.8642578125-29.35150146484375,45.16650390625-43.971954345703125,6.091796875-5.820404052734375,12.3076171875-11.716522216796875,18.318603515625-17.41851806640625,3.220703125-3.05499267578125,6.44140625-6.1099853515625,9.658935546875-9.168243408203125,1.283935546875-1.22052001953125,1.9912109375-1.892852783203125,1.77734375-2.827728271484375-.21533203125-.941009521484375-1.165771484375-1.2457275390625-2.8916015625-1.798828125-9.333251953125-2.9915771484375-18.8525390625-3.37530517578125-26.102783203125-3.3753662109375-1.3388671875,0-2.75244140625.01458740234375-4.32177734375.04461669921875-1.68505859375.032257080078125-3.395263671875.0877685546875-5.04931640625.141448974609375-2.568603515625.0833740234375-5.224853515625.1695556640625-7.827880859375.1695556640625-3.74658203125,0-6.83251953125-.1778564453125-9.71142578125-.55975341796875-1.79443359375-.238067626953125-3.31591796875-.7115478515625-4.6513671875-1.447540283203125-2.19970703125-1.212127685546875-3.277587890625-2.90380859375-3.39208984375-5.323822021484375-.24853515625-5.259674072265625.984130859375-9.381378173828125,3.664306640625-12.250640869140625,2.857421875-3.05889892578125,7.32421875-4.672882080078125,13.277099609375-4.797088623046875.427490234375-.008941650390625.85595703125-.013275146484375,1.283203125-.013275146484375M215.419163480717543,205.1444091796875c-.43408203125,0-.86962890625.004425048828125-1.30419921875.01348876953125-12.20166015625.254638671875-18.4599609375,6.66064453125-17.919189453125,18.094757080078125.134033203125,2.832611083984375,1.48828125,4.818878173828125,3.908203125,6.15240478515625,1.557861328125.858551025390625,3.25244140625,1.33087158203125,5.00244140625,1.563018798828125,3.2783203125.434844970703125,6.559326171875.568450927734375,9.843017578125.568450927734375,4.296875,0,8.597900390625-.228912353515625,12.896240234375-.311187744140625,1.43603515625-.027496337890625,2.869384765625-.04443359375,4.302734375-.04443359375,8.718994140625.000091552734375,17.374267578125.62774658203125,25.797607421875,3.32763671875,2.840087890625.910308837890625,2.838623046875.945556640625.73046875,2.949493408203125-9.32568359375,8.863800048828125-18.677001953125,17.700531005859375-27.9794921875,26.588531494140625-15.198974609375,14.52178955078125-30.36376953125,29.077728271484375-45.184814453125,43.99005126953125-3.595703125,3.61785888671875-7.78515625,6.64532470703125-11.382080078125,10.2620849609375-5.928466796875,5.9610595703125-5.774658203125,11.5367431640625.121826171875,17.51959228515625.671142578125.6807861328125,1.40966796875,1.3001708984375,2.153076171875,1.9034423828125,2.601318359375,2.111083984375,4.95654296875,3.161865234375,7.31005859375,3.161865234375,2.421875,0,4.841796875-1.1126708984375,7.5263671875-3.32769775390625,3.726318359375-3.07452392578125,6.436767578125-7.09552001953125,9.87451171875-10.43084716796875,14.052001953125-13.6339111328125,28.142578125-27.228363037109375,42.1767578125-40.880584716796875,8.478759765625-8.247894287109375,16.90576171875-16.549530029296875,25.29931640625-24.884185791015625,2.258056640625-2.2423095703125,4.30859375-4.693695068359375,6.45458984375-7.049102783203125,4.03955078125,8.000457763671875,4.533447265625,15.8782958984375,4.51611328125,23.798919677734375-.01904296875,8.537445068359375-1.30078125,17.059844970703125-.34765625,25.612274169921875.447998046875,4.020233154296875,1.43212890625,7.818145751953125,5.529052734375,9.683197021484375,1.743408203125.793670654296875,3.597412109375,1.16131591796875,5.44775390625,1.16131591796875,6.571533203125,0,13.09619140625-4.637481689453125,14.442138671875-11.302886962890625,1.26708984375-6.275146484375.673095703125-12.569183349609375-.2431640625-18.831634521484375-1.513671875-10.3477783203125-3.33154296875-20.6478271484375-2.51806640625-31.205963134765625.681640625-8.846466064453125.72216796875-17.7127685546875-.067626953125-26.57568359375-.966064453125-10.8360595703125-5.556396484375-15.9412841796875-16.316650390625-17.7999267578125-4.314453125-.7452392578125-8.64794921875-.984466552734375-12.98828125-.984466552734375-3.3994140625,0-6.80322265625.1468505859375-10.2021484375.312347412109375-3.660888671875.178253173828125-7.312744140625.31317138671875-10.961181640625.31317138671875-5.59033203125,0-11.170166015625-.3170166015625-16.7470703125-1.280792236328125-6.333251953125-1.094482421875-12.719970703125-2.066650390625-19.170654296875-2.066650390625h0Z"/>
      </g>
      <path class="cls-4" d="M279.730931058842543,279.73101806640625c-69.716304551849134.440554578446609-210.016262152500531,1.330661824649724-279.731078684219028,1.531145078506597.000365718816283.000257611394773-1.526977902505678.007123890933144-1.526977956569681.007123964685888-.000000153580913.000000206991899-.00439442026709-1.538391262865844-.004394531422804-1.538391113052057-.064450174601006-34.904880242547733-.304223199511398-104.981250238193752-.284994205281691-139.865653191860474C-1.816676363032457,139.865509033203125-1.997584566157457.000106811523438-1.997584566157457.000106811523438l-.002685546875-2.000335693359375c47.593582693960343.061715124833427,165.706438538649309.208723257623205,211.798572562996014.271015521784648,17.377541146091062.057259411451014,52.544825036575276.067302018493137,69.932597283529503.190917410738621.000031325730561-.000140940612255,1.545441481324815.005947316700258,1.545441481600392.005947316500169.000000000351974-.00000000025284-.006835937754659,1.532455444517836-.0068359375,1.532455444335938-.325019867067567,69.719193273553174-.970933141200476,210.042544586691292-1.538574218750909,279.730911254882812h0ZM279.730931058842543,279.73101806640625c-.578856243988412-69.742896012317942-1.234126993774225-210.023059662829837-1.538379891137083-279.731264506381194.000049812953876.000353251543856,1.538379891179829,1.53868332959064,1.538379891137083,1.538683329623382-38.949245807159969.06489847316152-100.445776456256681.31660055471184-139.865504219364084.28153503658541.000025703736355.000294797411698-139.865208671259097.177708737819557-139.865208671260916.177708737828652-.000000000013642-.000000000010914,1.997558593760004-1.997573852529968,1.99755859375-1.997573852539062.100317249390173,79.280980534649643-.354954867321794,201.347916270631686-.465833915863186,279.730636774262166-.000474677886814.000152410308147-1.531724677886814-1.531158624848103-1.531724677886814-1.531158624848103,69.708420720320646.186218737204399,210.024305445439495,1.073943829718701,279.730712890625,1.53143310546875h0Z"/>
    </g>
  </g>
</svg>