<?xml version="1.0" encoding="UTF-8"?>
<svg id="Content" xmlns="http://www.w3.org/2000/svg" xmlns:xlink="http://www.w3.org/1999/xlink" viewBox="0 0 280 280">
  <defs>
    <style>
      .cls-1 {
        stroke: #665451;
        stroke-width: 50px;
      }

      .cls-1, .cls-2 {
        fill: none;
        stroke-linecap: round;
        stroke-linejoin: round;
      }

      .cls-3 {
        fill: #fff;
      }

      .cls-2 {
        stroke: #998675;
        stroke-width: 2px;
      }
    </style>
  </defs>
  <a xlink:href="https://www.notion.so/congruence/A-given-that-B-916fe31797264702894ca490e14910b7?pvs=4">
    <g>
      <a xlink:href="https://www.notion.so/congruence/B-Event-1f1a5b08a72c49f5ab60f2e0793fd0a8?pvs=4">
        <g>
          <path class="cls-3" d="M70.166015625,55.13525390625c2.6474609375,1.26171875,4.95703125,2.8828125,6.927734375,4.8681640625,1.970703125,1.986328125,3.6728515625,4.1923828125,5.109375,6.6220703125,1.4375,2.431640625,2.634765625,5.0302734375,3.59765625,7.80078125.9619140625,2.771484375,1.7587890625,5.5712890625,2.390625,8.4013671875,1.3896484375,5.583984375,2.384765625,11.265625,2.98828125,17.046875.6015625,5.7822265625.974609375,11.6162109375,1.1171875,17.5009765625,0,1.6767578125-.021484375,3.0517578125-.068359375,4.1279296875s-.2265625,1.9619140625-.5380859375,2.65625c-.3125.697265625-.7861328125,1.2705078125-1.4189453125,1.724609375-.6337890625.4521484375-1.53515625.892578125-2.70703125,1.32421875-1.1220703125.224609375-2.294921875.419921875-3.521484375.5869140625-1.2265625.166015625-2.40234375-.07421875-3.525390625-.7197265625-1.052734375-.5849609375-1.978515625-1.6494140625-2.771484375-3.1923828125-.796875-1.544921875-1.349609375-3.8125-1.658203125-6.802734375l-.080078125-.9990234375c-1.681640625-.064453125-3.6748046875-.0703125-5.982421875-.017578125-2.30859375.052734375-4.662109375.1611328125-7.060546875.3212890625-2.400390625.1611328125-4.71484375.33203125-6.9453125.5126953125-2.232421875.1806640625-4.111328125.3330078125-5.642578125.45703125-.017578125.603515625-.01953125,1.6083984375-.005859375,3.0166015625.01171875,1.4052734375-.091796875,2.8203125-.310546875,4.24609375-.220703125,1.4248046875-.5673828125,2.7265625-1.041015625,3.904296875-.474609375,1.177734375-1.2080078125,1.8388671875-2.201171875,1.9873046875-.927734375.1416015625-1.986328125.294921875-3.1787109375.458984375-1.193359375.162109375-2.3701171875.1240234375-3.5283203125-.1162109375-1.154296875-.173828125-2.146484375-.630859375-2.9755859375-1.3671875-.8310546875-.736328125-1.349609375-1.9677734375-1.5556640625-3.693359375-.1669921875-2.0625-.326171875-4.4296875-.474609375-7.1005859375-.150390625-2.6669921875-.25-5.5732421875-.3046875-8.7197265625-.078125-2.607421875-.091796875-5.4716796875-.0419921875-8.591796875.0478515625-3.119140625.2236328125-6.3330078125.5244140625-9.6416015625.30078125-3.3076171875.7705078125-6.6298828125,1.404296875-9.9658203125.634765625-3.333984375,1.515625-6.5205078125,2.6435546875-9.5625,1.1259765625-3.0390625,2.5234375-5.8662109375,4.1884765625-8.48046875,1.6640625-2.6142578125,3.7275390625-4.859375,6.189453125-6.734375,2.9052734375-2.1787109375,6.189453125-3.4169921875,9.8515625-3.7138671875s7.1962890625.322265625,10.60546875,1.8544921875ZM49.5791015625,102.54150390625c4.1669921875-.6708984375,8.3251953125-1.2607421875,12.47265625-1.763671875,4.1474609375-.501953125,8.3232421875-.8583984375,12.5283203125-1.06640625-.181640625-4.7421875-.724609375-8.953125-1.6259765625-12.6337890625-.9013671875-3.6796875-1.9892578125-6.7578125-3.2607421875-9.236328125-1.2734375-2.4755859375-2.6982421875-4.3369140625-4.2734375-5.583984375-1.57421875-1.2451171875-3.12890625-1.806640625-4.658203125-1.6826171875-1.333984375.107421875-2.658203125.9033203125-3.9794921875,2.3818359375-1.322265625,1.482421875-2.4912109375,3.587890625-3.5087890625,6.31640625-1.01953125,2.73046875-1.87109375,6.06640625-2.556640625,10.0068359375-.6865234375,3.943359375-1.06640625,8.365234375-1.1376953125,13.26171875Z"/>
          <path class="cls-3" d="M206.654296875,78.45654296875c3.111328125,2.02734375,5.51953125,4.6640625,7.224609375,7.9091796875,1.703125,3.248046875,2.43359375,6.6884765625,2.193359375,10.328125-.2705078125,4.1083984375-1.591796875,7.6513671875-3.96484375,10.6240234375-2.3720703125,2.9736328125-5.2587890625,5.40234375-8.658203125,7.28515625-3.3994140625,1.8837890625-7.1240234375,3.2587890625-11.17578125,4.1220703125-4.05078125.8642578125-7.890625,1.2431640625-11.517578125,1.134765625-.322265625.16015625-.6162109375.2666015625-.87890625.322265625-.263671875.0546875-.5595703125.12890625-.88671875.22265625-1.193359375.1630859375-2.42578125.2626953125-3.6953125.2998046875-1.26953125.03515625-2.4365234375-.0888671875-3.498046875-.37109375-1.0625-.28125-1.9921875-.8095703125-2.791015625-1.5830078125-.80078125-.771484375-1.3291015625-1.91796875-1.5859375-3.439453125-.193359375-.7216796875-.345703125-2.19921875-.4609375-4.4365234375-.1142578125-2.234375-.267578125-4.953125-.458984375-8.1552734375-.130859375-3.2724609375-.302734375-6.826171875-.51171875-10.6640625-.2109375-3.8359375-.439453125-7.6875-.685546875-11.5546875-.34375-5.064453125-.689453125-10.162109375-1.037109375-15.2958984375-.349609375-5.130859375-.96875-10.275390625-1.853515625-15.4306640625-.18359375-.5888671875-.1591796875-1.1259765625.0703125-1.615234375.099609375-.4091796875.369140625-.81640625.8046875-1.220703125.435546875-.40234375,1.115234375-.708984375,2.037109375-.91796875.66015625-.119140625,1.384765625-.279296875,2.1728515625-.478515625.7880859375-.197265625,1.6123046875-.3642578125,2.4716796875-.501953125.8603515625-.134765625,1.693359375-.2021484375,2.4970703125-.2021484375.8056640625.0029296875,1.5146484375.0791015625,2.1298828125.2294921875,3.357421875-.7392578125,6.91796875-1.0458984375,10.681640625-.9150390625,3.7626953125.1318359375,7.34765625.728515625,10.75,1.79296875,3.404296875,1.064453125,6.41015625,2.6142578125,9.021484375,4.646484375,2.6103515625,2.03515625,4.4453125,4.6162109375,5.5029296875,7.74609375.4462890625,1.373046875.7646484375,2.8212890625.9560546875,4.34765625.189453125,1.5263671875.15234375,3.1201171875-.115234375,4.783203125-.267578125,1.6640625-.779296875,3.4150390625-1.53515625,5.251953125s-1.82421875,3.75-3.203125,5.736328125ZM180.2109375,74.66845703125c3.2060546875-.1240234375,5.8759765625-.6767578125,8.0078125-1.6533203125,2.1328125-.9775390625,3.6953125-2.1591796875,4.689453125-3.546875.9931640625-1.3876953125,1.41015625-2.84375,1.25390625-4.3740234375-.1591796875-1.5283203125-.8515625-2.845703125-2.080078125-3.953125-1.2294921875-1.1064453125-3.001953125-1.8837890625-5.31640625-2.3330078125s-5.18359375-.2998046875-8.607421875.4453125c.41015625,2.5810546875.767578125,5.1328125,1.072265625,7.6533203125.3046875,2.5234375.6298828125,5.1103515625.98046875,7.76171875ZM182.8564453125,103.60595703125c3.6279296875.1083984375,6.6435546875-.302734375,9.0478515625-1.2353515625,2.40234375-.931640625,4.1689453125-2.080078125,5.298828125-3.4443359375,1.1298828125-1.365234375,1.650390625-2.7822265625,1.56640625-4.25-.0859375-1.466796875-.7705078125-2.68359375-2.0546875-3.6533203125-1.28515625-.9658203125-3.1748046875-1.5341796875-5.6669921875-1.701171875-2.4931640625-.166015625-5.5693359375.3349609375-9.2275390625,1.5009765625l1.0361328125,12.783203125Z"/>
        </g>
      </a>
      <g>
        <a xlink:href="https://www.notion.so/congruence/B-Event-1f1a5b08a72c49f5ab60f2e0793fd0a8?pvs=4">
          <g>
            <g>
              <path class="cls-1" d="M70.166015625,55.13525390625c2.6474609375,1.26171875,4.95703125,2.8828125,6.927734375,4.8681640625,1.970703125,1.986328125,3.6728515625,4.1923828125,5.109375,6.6220703125,1.4375,2.431640625,2.634765625,5.0302734375,3.59765625,7.80078125.9619140625,2.771484375,1.7587890625,5.5712890625,2.390625,8.4013671875,1.3896484375,5.583984375,2.384765625,11.265625,2.98828125,17.046875.6015625,5.7822265625.974609375,11.6162109375,1.1171875,17.5009765625,0,1.6767578125-.021484375,3.0517578125-.068359375,4.1279296875s-.2265625,1.9619140625-.5380859375,2.65625c-.3125.697265625-.7861328125,1.2705078125-1.4189453125,1.724609375-.6337890625.4521484375-1.53515625.892578125-2.70703125,1.32421875-1.1220703125.224609375-2.294921875.419921875-3.521484375.5869140625-1.2265625.166015625-2.40234375-.07421875-3.525390625-.7197265625-1.052734375-.5849609375-1.978515625-1.6494140625-2.771484375-3.1923828125-.796875-1.544921875-1.349609375-3.8125-1.658203125-6.802734375l-.080078125-.9990234375c-1.681640625-.064453125-3.6748046875-.0703125-5.982421875-.017578125-2.30859375.052734375-4.662109375.1611328125-7.060546875.3212890625-2.400390625.1611328125-4.71484375.33203125-6.9453125.5126953125-2.232421875.1806640625-4.111328125.3330078125-5.642578125.45703125-.017578125.603515625-.01953125,1.6083984375-.005859375,3.0166015625.01171875,1.4052734375-.091796875,2.8203125-.310546875,4.24609375-.220703125,1.4248046875-.5673828125,2.7265625-1.041015625,3.904296875-.474609375,1.177734375-1.2080078125,1.8388671875-2.201171875,1.9873046875-.927734375.1416015625-1.986328125.294921875-3.1787109375.458984375-1.193359375.162109375-2.3701171875.1240234375-3.5283203125-.1162109375-1.154296875-.173828125-2.146484375-.630859375-2.9755859375-1.3671875-.8310546875-.736328125-1.349609375-1.9677734375-1.5556640625-3.693359375-.1669921875-2.0625-.326171875-4.4296875-.474609375-7.1005859375-.150390625-2.6669921875-.25-5.5732421875-.3046875-8.7197265625-.078125-2.607421875-.091796875-5.4716796875-.0419921875-8.591796875.0478515625-3.119140625.2236328125-6.3330078125.5244140625-9.6416015625.30078125-3.3076171875.7705078125-6.6298828125,1.404296875-9.9658203125.634765625-3.333984375,1.515625-6.5205078125,2.6435546875-9.5625,1.1259765625-3.0390625,2.5234375-5.8662109375,4.1884765625-8.48046875,1.6640625-2.6142578125,3.7275390625-4.859375,6.189453125-6.734375,2.9052734375-2.1787109375,6.189453125-3.4169921875,9.8515625-3.7138671875s7.1962890625.322265625,10.60546875,1.8544921875ZM49.5791015625,102.54150390625c4.1669921875-.6708984375,8.3251953125-1.2607421875,12.47265625-1.763671875,4.1474609375-.501953125,8.3232421875-.8583984375,12.5283203125-1.06640625-.181640625-4.7421875-.724609375-8.953125-1.6259765625-12.6337890625-.9013671875-3.6796875-1.9892578125-6.7578125-3.2607421875-9.236328125-1.2734375-2.4755859375-2.6982421875-4.3369140625-4.2734375-5.583984375-1.57421875-1.2451171875-3.12890625-1.806640625-4.658203125-1.6826171875-1.333984375.107421875-2.658203125.9033203125-3.9794921875,2.3818359375-1.322265625,1.482421875-2.4912109375,3.587890625-3.5087890625,6.31640625-1.01953125,2.73046875-1.87109375,6.06640625-2.556640625,10.0068359375-.6865234375,3.943359375-1.06640625,8.365234375-1.1376953125,13.26171875Z"/>
              <path class="cls-1" d="M206.654296875,78.45654296875c3.111328125,2.02734375,5.51953125,4.6640625,7.224609375,7.9091796875,1.703125,3.248046875,2.43359375,6.6884765625,2.193359375,10.328125-.2705078125,4.1083984375-1.591796875,7.6513671875-3.96484375,10.6240234375-2.3720703125,2.9736328125-5.2587890625,5.40234375-8.658203125,7.28515625-3.3994140625,1.8837890625-7.1240234375,3.2587890625-11.17578125,4.1220703125-4.05078125.8642578125-7.890625,1.2431640625-11.517578125,1.134765625-.322265625.16015625-.6162109375.2666015625-.87890625.322265625-.263671875.0546875-.5595703125.12890625-.88671875.22265625-1.193359375.1630859375-2.42578125.2626953125-3.6953125.2998046875-1.26953125.03515625-2.4365234375-.0888671875-3.498046875-.37109375-1.0625-.28125-1.9921875-.8095703125-2.791015625-1.5830078125-.80078125-.771484375-1.3291015625-1.91796875-1.5859375-3.439453125-.193359375-.7216796875-.345703125-2.19921875-.4609375-4.4365234375-.1142578125-2.234375-.267578125-4.953125-.458984375-8.1552734375-.130859375-3.2724609375-.302734375-6.826171875-.51171875-10.6640625-.2109375-3.8359375-.439453125-7.6875-.685546875-11.5546875-.34375-5.064453125-.689453125-10.162109375-1.037109375-15.2958984375-.349609375-5.130859375-.96875-10.275390625-1.853515625-15.4306640625-.18359375-.5888671875-.1591796875-1.1259765625.0703125-1.615234375.099609375-.4091796875.369140625-.81640625.8046875-1.220703125.435546875-.40234375,1.115234375-.708984375,2.037109375-.91796875.66015625-.119140625,1.384765625-.279296875,2.1728515625-.478515625.7880859375-.197265625,1.6123046875-.3642578125,2.4716796875-.501953125.8603515625-.134765625,1.693359375-.2021484375,2.4970703125-.2021484375.8056640625.0029296875,1.5146484375.0791015625,2.1298828125.2294921875,3.357421875-.7392578125,6.91796875-1.0458984375,10.681640625-.9150390625,3.7626953125.1318359375,7.34765625.728515625,10.75,1.79296875,3.404296875,1.064453125,6.41015625,2.6142578125,9.021484375,4.646484375,2.6103515625,2.03515625,4.4453125,4.6162109375,5.5029296875,7.74609375.4462890625,1.373046875.7646484375,2.8212890625.9560546875,4.34765625.189453125,1.5263671875.15234375,3.1201171875-.115234375,4.783203125-.267578125,1.6640625-.779296875,3.4150390625-1.53515625,5.251953125s-1.82421875,3.75-3.203125,5.736328125ZM180.2109375,74.66845703125c3.2060546875-.1240234375,5.8759765625-.6767578125,8.0078125-1.6533203125,2.1328125-.9775390625,3.6953125-2.1591796875,4.689453125-3.546875.9931640625-1.3876953125,1.41015625-2.84375,1.25390625-4.3740234375-.1591796875-1.5283203125-.8515625-2.845703125-2.080078125-3.953125-1.2294921875-1.1064453125-3.001953125-1.8837890625-5.31640625-2.3330078125s-5.18359375-.2998046875-8.607421875.4453125c.41015625,2.5810546875.767578125,5.1328125,1.072265625,7.6533203125.3046875,2.5234375.6298828125,5.1103515625.98046875,7.76171875ZM182.8564453125,103.60595703125c3.6279296875.1083984375,6.6435546875-.302734375,9.0478515625-1.2353515625,2.40234375-.931640625,4.1689453125-2.080078125,5.298828125-3.4443359375,1.1298828125-1.365234375,1.650390625-2.7822265625,1.56640625-4.25-.0859375-1.466796875-.7705078125-2.68359375-2.0546875-3.6533203125-1.28515625-.9658203125-3.1748046875-1.5341796875-5.6669921875-1.701171875-2.4931640625-.166015625-5.5693359375.3349609375-9.2275390625,1.5009765625l1.0361328125,12.783203125Z"/>
            </g>
            <g>
              <path class="cls-1" d="M70.166015625,55.13525390625c2.6474609375,1.26171875,4.95703125,2.8828125,6.927734375,4.8681640625,1.970703125,1.986328125,3.6728515625,4.1923828125,5.109375,6.6220703125,1.4375,2.431640625,2.634765625,5.0302734375,3.59765625,7.80078125.9619140625,2.771484375,1.7587890625,5.5712890625,2.390625,8.4013671875,1.3896484375,5.583984375,2.384765625,11.265625,2.98828125,17.046875.6015625,5.7822265625.974609375,11.6162109375,1.1171875,17.5009765625,0,1.6767578125-.021484375,3.0517578125-.068359375,4.1279296875s-.2265625,1.9619140625-.5380859375,2.65625c-.3125.697265625-.7861328125,1.2705078125-1.4189453125,1.724609375-.6337890625.4521484375-1.53515625.892578125-2.70703125,1.32421875-1.1220703125.224609375-2.294921875.419921875-3.521484375.5869140625-1.2265625.166015625-2.40234375-.07421875-3.525390625-.7197265625-1.052734375-.5849609375-1.978515625-1.6494140625-2.771484375-3.1923828125-.796875-1.544921875-1.349609375-3.8125-1.658203125-6.802734375l-.080078125-.9990234375c-1.681640625-.064453125-3.6748046875-.0703125-5.982421875-.017578125-2.30859375.052734375-4.662109375.1611328125-7.060546875.3212890625-2.400390625.1611328125-4.71484375.33203125-6.9453125.5126953125-2.232421875.1806640625-4.111328125.3330078125-5.642578125.45703125-.017578125.603515625-.01953125,1.6083984375-.005859375,3.0166015625.01171875,1.4052734375-.091796875,2.8203125-.310546875,4.24609375-.220703125,1.4248046875-.5673828125,2.7265625-1.041015625,3.904296875-.474609375,1.177734375-1.2080078125,1.8388671875-2.201171875,1.9873046875-.927734375.1416015625-1.986328125.294921875-3.1787109375.458984375-1.193359375.162109375-2.3701171875.1240234375-3.5283203125-.1162109375-1.154296875-.173828125-2.146484375-.630859375-2.9755859375-1.3671875-.8310546875-.736328125-1.349609375-1.9677734375-1.5556640625-3.693359375-.1669921875-2.0625-.326171875-4.4296875-.474609375-7.1005859375-.150390625-2.6669921875-.25-5.5732421875-.3046875-8.7197265625-.078125-2.607421875-.091796875-5.4716796875-.0419921875-8.591796875.0478515625-3.119140625.2236328125-6.3330078125.5244140625-9.6416015625.30078125-3.3076171875.7705078125-6.6298828125,1.404296875-9.9658203125.634765625-3.333984375,1.515625-6.5205078125,2.6435546875-9.5625,1.1259765625-3.0390625,2.5234375-5.8662109375,4.1884765625-8.48046875,1.6640625-2.6142578125,3.7275390625-4.859375,6.189453125-6.734375,2.9052734375-2.1787109375,6.189453125-3.4169921875,9.8515625-3.7138671875s7.1962890625.322265625,10.60546875,1.8544921875ZM49.5791015625,102.54150390625c4.1669921875-.6708984375,8.3251953125-1.2607421875,12.47265625-1.763671875,4.1474609375-.501953125,8.3232421875-.8583984375,12.5283203125-1.06640625-.181640625-4.7421875-.724609375-8.953125-1.6259765625-12.6337890625-.9013671875-3.6796875-1.9892578125-6.7578125-3.2607421875-9.236328125-1.2734375-2.4755859375-2.6982421875-4.3369140625-4.2734375-5.583984375-1.57421875-1.2451171875-3.12890625-1.806640625-4.658203125-1.6826171875-1.333984375.107421875-2.658203125.9033203125-3.9794921875,2.3818359375-1.322265625,1.482421875-2.4912109375,3.587890625-3.5087890625,6.31640625-1.01953125,2.73046875-1.87109375,6.06640625-2.556640625,10.0068359375-.6865234375,3.943359375-1.06640625,8.365234375-1.1376953125,13.26171875Z"/>
              <path class="cls-1" d="M206.654296875,78.45654296875c3.111328125,2.02734375,5.51953125,4.6640625,7.224609375,7.9091796875,1.703125,3.248046875,2.43359375,6.6884765625,2.193359375,10.328125-.2705078125,4.1083984375-1.591796875,7.6513671875-3.96484375,10.6240234375-2.3720703125,2.9736328125-5.2587890625,5.40234375-8.658203125,7.28515625-3.3994140625,1.8837890625-7.1240234375,3.2587890625-11.17578125,4.1220703125-4.05078125.8642578125-7.890625,1.2431640625-11.517578125,1.134765625-.322265625.16015625-.6162109375.2666015625-.87890625.322265625-.263671875.0546875-.5595703125.12890625-.88671875.22265625-1.193359375.1630859375-2.42578125.2626953125-3.6953125.2998046875-1.26953125.03515625-2.4365234375-.0888671875-3.498046875-.37109375-1.0625-.28125-1.9921875-.8095703125-2.791015625-1.5830078125-.80078125-.771484375-1.3291015625-1.91796875-1.5859375-3.439453125-.193359375-.7216796875-.345703125-2.19921875-.4609375-4.4365234375-.1142578125-2.234375-.267578125-4.953125-.458984375-8.1552734375-.130859375-3.2724609375-.302734375-6.826171875-.51171875-10.6640625-.2109375-3.8359375-.439453125-7.6875-.685546875-11.5546875-.34375-5.064453125-.689453125-10.162109375-1.037109375-15.2958984375-.349609375-5.130859375-.96875-10.275390625-1.853515625-15.4306640625-.18359375-.5888671875-.1591796875-1.1259765625.0703125-1.615234375.099609375-.4091796875.369140625-.81640625.8046875-1.220703125.435546875-.40234375,1.115234375-.708984375,2.037109375-.91796875.66015625-.119140625,1.384765625-.279296875,2.1728515625-.478515625.7880859375-.197265625,1.6123046875-.3642578125,2.4716796875-.501953125.8603515625-.134765625,1.693359375-.2021484375,2.4970703125-.2021484375.8056640625.0029296875,1.5146484375.0791015625,2.1298828125.2294921875,3.357421875-.7392578125,6.91796875-1.0458984375,10.681640625-.9150390625,3.7626953125.1318359375,7.34765625.728515625,10.75,1.79296875,3.404296875,1.064453125,6.41015625,2.6142578125,9.021484375,4.646484375,2.6103515625,2.03515625,4.4453125,4.6162109375,5.5029296875,7.74609375.4462890625,1.373046875.7646484375,2.8212890625.9560546875,4.34765625.189453125,1.5263671875.15234375,3.1201171875-.115234375,4.783203125-.267578125,1.6640625-.779296875,3.4150390625-1.53515625,5.251953125s-1.82421875,3.75-3.203125,5.736328125ZM180.2109375,74.66845703125c3.2060546875-.1240234375,5.8759765625-.6767578125,8.0078125-1.6533203125,2.1328125-.9775390625,3.6953125-2.1591796875,4.689453125-3.546875.9931640625-1.3876953125,1.41015625-2.84375,1.25390625-4.3740234375-.1591796875-1.5283203125-.8515625-2.845703125-2.080078125-3.953125-1.2294921875-1.1064453125-3.001953125-1.8837890625-5.31640625-2.3330078125s-5.18359375-.2998046875-8.607421875.4453125c.41015625,2.5810546875.767578125,5.1328125,1.072265625,7.6533203125.3046875,2.5234375.6298828125,5.1103515625.98046875,7.76171875ZM182.8564453125,103.60595703125c3.6279296875.1083984375,6.6435546875-.302734375,9.0478515625-1.2353515625,2.40234375-.931640625,4.1689453125-2.080078125,5.298828125-3.4443359375,1.1298828125-1.365234375,1.650390625-2.7822265625,1.56640625-4.25-.0859375-1.466796875-.7705078125-2.68359375-2.0546875-3.6533203125-1.28515625-.9658203125-3.1748046875-1.5341796875-5.6669921875-1.701171875-2.4931640625-.166015625-5.5693359375.3349609375-9.2275390625,1.5009765625l1.0361328125,12.783203125Z"/>
            </g>
            <g>
              <path class="cls-1" d="M70.166015625,55.13525390625c2.6474609375,1.26171875,4.95703125,2.8828125,6.927734375,4.8681640625,1.970703125,1.986328125,3.6728515625,4.1923828125,5.109375,6.6220703125,1.4375,2.431640625,2.634765625,5.0302734375,3.59765625,7.80078125.9619140625,2.771484375,1.7587890625,5.5712890625,2.390625,8.4013671875,1.3896484375,5.583984375,2.384765625,11.265625,2.98828125,17.046875.6015625,5.7822265625.974609375,11.6162109375,1.1171875,17.5009765625,0,1.6767578125-.021484375,3.0517578125-.068359375,4.1279296875s-.2265625,1.9619140625-.5380859375,2.65625c-.3125.697265625-.7861328125,1.2705078125-1.4189453125,1.724609375-.6337890625.4521484375-1.53515625.892578125-2.70703125,1.32421875-1.1220703125.224609375-2.294921875.419921875-3.521484375.5869140625-1.2265625.166015625-2.40234375-.07421875-3.525390625-.7197265625-1.052734375-.5849609375-1.978515625-1.6494140625-2.771484375-3.1923828125-.796875-1.544921875-1.349609375-3.8125-1.658203125-6.802734375l-.080078125-.9990234375c-1.681640625-.064453125-3.6748046875-.0703125-5.982421875-.017578125-2.30859375.052734375-4.662109375.1611328125-7.060546875.3212890625-2.400390625.1611328125-4.71484375.33203125-6.9453125.5126953125-2.232421875.1806640625-4.111328125.3330078125-5.642578125.45703125-.017578125.603515625-.01953125,1.6083984375-.005859375,3.0166015625.01171875,1.4052734375-.091796875,2.8203125-.310546875,4.24609375-.220703125,1.4248046875-.5673828125,2.7265625-1.041015625,3.904296875-.474609375,1.177734375-1.2080078125,1.8388671875-2.201171875,1.9873046875-.927734375.1416015625-1.986328125.294921875-3.1787109375.458984375-1.193359375.162109375-2.3701171875.1240234375-3.5283203125-.1162109375-1.154296875-.173828125-2.146484375-.630859375-2.9755859375-1.3671875-.8310546875-.736328125-1.349609375-1.9677734375-1.5556640625-3.693359375-.1669921875-2.0625-.326171875-4.4296875-.474609375-7.1005859375-.150390625-2.6669921875-.25-5.5732421875-.3046875-8.7197265625-.078125-2.607421875-.091796875-5.4716796875-.0419921875-8.591796875.0478515625-3.119140625.2236328125-6.3330078125.5244140625-9.6416015625.30078125-3.3076171875.7705078125-6.6298828125,1.404296875-9.9658203125.634765625-3.333984375,1.515625-6.5205078125,2.6435546875-9.5625,1.1259765625-3.0390625,2.5234375-5.8662109375,4.1884765625-8.48046875,1.6640625-2.6142578125,3.7275390625-4.859375,6.189453125-6.734375,2.9052734375-2.1787109375,6.189453125-3.4169921875,9.8515625-3.7138671875s7.1962890625.322265625,10.60546875,1.8544921875ZM49.5791015625,102.54150390625c4.1669921875-.6708984375,8.3251953125-1.2607421875,12.47265625-1.763671875,4.1474609375-.501953125,8.3232421875-.8583984375,12.5283203125-1.06640625-.181640625-4.7421875-.724609375-8.953125-1.6259765625-12.6337890625-.9013671875-3.6796875-1.9892578125-6.7578125-3.2607421875-9.236328125-1.2734375-2.4755859375-2.6982421875-4.3369140625-4.2734375-5.583984375-1.57421875-1.2451171875-3.12890625-1.806640625-4.658203125-1.6826171875-1.333984375.107421875-2.658203125.9033203125-3.9794921875,2.3818359375-1.322265625,1.482421875-2.4912109375,3.587890625-3.5087890625,6.31640625-1.01953125,2.73046875-1.87109375,6.06640625-2.556640625,10.0068359375-.6865234375,3.943359375-1.06640625,8.365234375-1.1376953125,13.26171875Z"/>
              <path class="cls-1" d="M206.654296875,78.45654296875c3.111328125,2.02734375,5.51953125,4.6640625,7.224609375,7.9091796875,1.703125,3.248046875,2.43359375,6.6884765625,2.193359375,10.328125-.2705078125,4.1083984375-1.591796875,7.6513671875-3.96484375,10.6240234375-2.3720703125,2.9736328125-5.2587890625,5.40234375-8.658203125,7.28515625-3.3994140625,1.8837890625-7.1240234375,3.2587890625-11.17578125,4.1220703125-4.05078125.8642578125-7.890625,1.2431640625-11.517578125,1.134765625-.322265625.16015625-.6162109375.2666015625-.87890625.322265625-.263671875.0546875-.5595703125.12890625-.88671875.22265625-1.193359375.1630859375-2.42578125.2626953125-3.6953125.2998046875-1.26953125.03515625-2.4365234375-.0888671875-3.498046875-.37109375-1.0625-.28125-1.9921875-.8095703125-2.791015625-1.5830078125-.80078125-.771484375-1.3291015625-1.91796875-1.5859375-3.439453125-.193359375-.7216796875-.345703125-2.19921875-.4609375-4.4365234375-.1142578125-2.234375-.267578125-4.953125-.458984375-8.1552734375-.130859375-3.2724609375-.302734375-6.826171875-.51171875-10.6640625-.2109375-3.8359375-.439453125-7.6875-.685546875-11.5546875-.34375-5.064453125-.689453125-10.162109375-1.037109375-15.2958984375-.349609375-5.130859375-.96875-10.275390625-1.853515625-15.4306640625-.18359375-.5888671875-.1591796875-1.1259765625.0703125-1.615234375.099609375-.4091796875.369140625-.81640625.8046875-1.220703125.435546875-.40234375,1.115234375-.708984375,2.037109375-.91796875.66015625-.119140625,1.384765625-.279296875,2.1728515625-.478515625.7880859375-.197265625,1.6123046875-.3642578125,2.4716796875-.501953125.8603515625-.134765625,1.693359375-.2021484375,2.4970703125-.2021484375.8056640625.0029296875,1.5146484375.0791015625,2.1298828125.2294921875,3.357421875-.7392578125,6.91796875-1.0458984375,10.681640625-.9150390625,3.7626953125.1318359375,7.34765625.728515625,10.75,1.79296875,3.404296875,1.064453125,6.41015625,2.6142578125,9.021484375,4.646484375,2.6103515625,2.03515625,4.4453125,4.6162109375,5.5029296875,7.74609375.4462890625,1.373046875.7646484375,2.8212890625.9560546875,4.34765625.189453125,1.5263671875.15234375,3.1201171875-.115234375,4.783203125-.267578125,1.6640625-.779296875,3.4150390625-1.53515625,5.251953125s-1.82421875,3.75-3.203125,5.736328125ZM180.2109375,74.66845703125c3.2060546875-.1240234375,5.8759765625-.6767578125,8.0078125-1.6533203125,2.1328125-.9775390625,3.6953125-2.1591796875,4.689453125-3.546875.9931640625-1.3876953125,1.41015625-2.84375,1.25390625-4.3740234375-.1591796875-1.5283203125-.8515625-2.845703125-2.080078125-3.953125-1.2294921875-1.1064453125-3.001953125-1.8837890625-5.31640625-2.3330078125s-5.18359375-.2998046875-8.607421875.4453125c.41015625,2.5810546875.767578125,5.1328125,1.072265625,7.6533203125.3046875,2.5234375.6298828125,5.1103515625.98046875,7.76171875ZM182.8564453125,103.60595703125c3.6279296875.1083984375,6.6435546875-.302734375,9.0478515625-1.2353515625,2.40234375-.931640625,4.1689453125-2.080078125,5.298828125-3.4443359375,1.1298828125-1.365234375,1.650390625-2.7822265625,1.56640625-4.25-.0859375-1.466796875-.7705078125-2.68359375-2.0546875-3.6533203125-1.28515625-.9658203125-3.1748046875-1.5341796875-5.6669921875-1.701171875-2.4931640625-.166015625-5.5693359375.3349609375-9.2275390625,1.5009765625l1.0361328125,12.783203125Z"/>
            </g>
          </g>
        </a>
        <path class="cls-1" d="M136.3603515625,44.60400390625c-.1552734375,13.7421875-.2880859375,27.3642578125-.4033203125,40.8662109375-.115234375,13.5009765625-.1357421875,27.123046875-.05859375,40.8662109375-.154296875.9638671875-.423828125,1.849609375-.806640625,2.6513671875-.38671875.64453125-.962890625,1.287109375-1.7314453125,1.9287109375-.7705078125.64453125-1.8076171875,1.0439453125-3.115234375,1.2060546875-1.384765625.16015625-2.7890625.259765625-4.2119140625.30078125-1.423828125.0400390625-2.7509765625-.1201171875-3.98046875-.4814453125-1.2314453125-.3623046875-2.2900390625-1.00390625-3.173828125-1.9287109375-.884765625-.923828125-1.44140625-2.3095703125-1.6728515625-4.1591796875-.1552734375-.8837890625-.23046875-2.7314453125-.23046875-5.5458984375,0-2.8115234375.0576171875-6.2080078125.1728515625-10.185546875.115234375-3.978515625.2490234375-8.3583984375.404296875-13.140625.15234375-4.7802734375.345703125-9.5830078125.576171875-14.4052734375.154296875-4.822265625.365234375-9.482421875.634765625-13.9833984375.26953125-4.5.48046875-8.517578125.634765625-12.0556640625.23046875-4.0986328125.4609375-7.9560546875.6923828125-11.572265625-.0771484375-.7236328125.0380859375-1.365234375.3466796875-1.9287109375.23046875-.482421875.5947265625-.904296875,1.095703125-1.265625.5-.3623046875,1.287109375-.58203125,2.365234375-.6630859375h3.75c1.4228515625,0,2.787109375.1015625,4.0966796875.30078125,1.3076171875.2021484375,2.4033203125.54296875,3.2880859375,1.025390625.8837890625.4814453125,1.3271484375,1.205078125,1.3271484375,2.169921875Z"/>
      </g>
      <g>
        <a xlink:href="https://www.notion.so/congruence/B-Event-1f1a5b08a72c49f5ab60f2e0793fd0a8?pvs=4">
          <g>
            <g>
              <path class="cls-2" d="M70.166015625,55.13525390625c2.6474609375,1.26171875,4.95703125,2.8828125,6.927734375,4.8681640625,1.970703125,1.986328125,3.6728515625,4.1923828125,5.109375,6.6220703125,1.4375,2.431640625,2.634765625,5.0302734375,3.59765625,7.80078125.9619140625,2.771484375,1.7587890625,5.5712890625,2.390625,8.4013671875,1.3896484375,5.583984375,2.384765625,11.265625,2.98828125,17.046875.6015625,5.7822265625.974609375,11.6162109375,1.1171875,17.5009765625,0,1.6767578125-.021484375,3.0517578125-.068359375,4.1279296875s-.2265625,1.9619140625-.5380859375,2.65625c-.3125.697265625-.7861328125,1.2705078125-1.4189453125,1.724609375-.6337890625.4521484375-1.53515625.892578125-2.70703125,1.32421875-1.1220703125.224609375-2.294921875.419921875-3.521484375.5869140625-1.2265625.166015625-2.40234375-.07421875-3.525390625-.7197265625-1.052734375-.5849609375-1.978515625-1.6494140625-2.771484375-3.1923828125-.796875-1.544921875-1.349609375-3.8125-1.658203125-6.802734375l-.080078125-.9990234375c-1.681640625-.064453125-3.6748046875-.0703125-5.982421875-.017578125-2.30859375.052734375-4.662109375.1611328125-7.060546875.3212890625-2.400390625.1611328125-4.71484375.33203125-6.9453125.5126953125-2.232421875.1806640625-4.111328125.3330078125-5.642578125.45703125-.017578125.603515625-.01953125,1.6083984375-.005859375,3.0166015625.01171875,1.4052734375-.091796875,2.8203125-.310546875,4.24609375-.220703125,1.4248046875-.5673828125,2.7265625-1.041015625,3.904296875-.474609375,1.177734375-1.2080078125,1.8388671875-2.201171875,1.9873046875-.927734375.1416015625-1.986328125.294921875-3.1787109375.458984375-1.193359375.162109375-2.3701171875.1240234375-3.5283203125-.1162109375-1.154296875-.173828125-2.146484375-.630859375-2.9755859375-1.3671875-.8310546875-.736328125-1.349609375-1.9677734375-1.5556640625-3.693359375-.1669921875-2.0625-.326171875-4.4296875-.474609375-7.1005859375-.150390625-2.6669921875-.25-5.5732421875-.3046875-8.7197265625-.078125-2.607421875-.091796875-5.4716796875-.0419921875-8.591796875.0478515625-3.119140625.2236328125-6.3330078125.5244140625-9.6416015625.30078125-3.3076171875.7705078125-6.6298828125,1.404296875-9.9658203125.634765625-3.333984375,1.515625-6.5205078125,2.6435546875-9.5625,1.1259765625-3.0390625,2.5234375-5.8662109375,4.1884765625-8.48046875,1.6640625-2.6142578125,3.7275390625-4.859375,6.189453125-6.734375,2.9052734375-2.1787109375,6.189453125-3.4169921875,9.8515625-3.7138671875s7.1962890625.322265625,10.60546875,1.8544921875ZM49.5791015625,102.54150390625c4.1669921875-.6708984375,8.3251953125-1.2607421875,12.47265625-1.763671875,4.1474609375-.501953125,8.3232421875-.8583984375,12.5283203125-1.06640625-.181640625-4.7421875-.724609375-8.953125-1.6259765625-12.6337890625-.9013671875-3.6796875-1.9892578125-6.7578125-3.2607421875-9.236328125-1.2734375-2.4755859375-2.6982421875-4.3369140625-4.2734375-5.583984375-1.57421875-1.2451171875-3.12890625-1.806640625-4.658203125-1.6826171875-1.333984375.107421875-2.658203125.9033203125-3.9794921875,2.3818359375-1.322265625,1.482421875-2.4912109375,3.587890625-3.5087890625,6.31640625-1.01953125,2.73046875-1.87109375,6.06640625-2.556640625,10.0068359375-.6865234375,3.943359375-1.06640625,8.365234375-1.1376953125,13.26171875Z"/>
              <path class="cls-2" d="M206.654296875,78.45654296875c3.111328125,2.02734375,5.51953125,4.6640625,7.224609375,7.9091796875,1.703125,3.248046875,2.43359375,6.6884765625,2.193359375,10.328125-.2705078125,4.1083984375-1.591796875,7.6513671875-3.96484375,10.6240234375-2.3720703125,2.9736328125-5.2587890625,5.40234375-8.658203125,7.28515625-3.3994140625,1.8837890625-7.1240234375,3.2587890625-11.17578125,4.1220703125-4.05078125.8642578125-7.890625,1.2431640625-11.517578125,1.134765625-.322265625.16015625-.6162109375.2666015625-.87890625.322265625-.263671875.0546875-.5595703125.12890625-.88671875.22265625-1.193359375.1630859375-2.42578125.2626953125-3.6953125.2998046875-1.26953125.03515625-2.4365234375-.0888671875-3.498046875-.37109375-1.0625-.28125-1.9921875-.8095703125-2.791015625-1.5830078125-.80078125-.771484375-1.3291015625-1.91796875-1.5859375-3.439453125-.193359375-.7216796875-.345703125-2.19921875-.4609375-4.4365234375-.1142578125-2.234375-.267578125-4.953125-.458984375-8.1552734375-.130859375-3.2724609375-.302734375-6.826171875-.51171875-10.6640625-.2109375-3.8359375-.439453125-7.6875-.685546875-11.5546875-.34375-5.064453125-.689453125-10.162109375-1.037109375-15.2958984375-.349609375-5.130859375-.96875-10.275390625-1.853515625-15.4306640625-.18359375-.5888671875-.1591796875-1.1259765625.0703125-1.615234375.099609375-.4091796875.369140625-.81640625.8046875-1.220703125.435546875-.40234375,1.115234375-.708984375,2.037109375-.91796875.66015625-.119140625,1.384765625-.279296875,2.1728515625-.478515625.7880859375-.197265625,1.6123046875-.3642578125,2.4716796875-.501953125.8603515625-.134765625,1.693359375-.2021484375,2.4970703125-.2021484375.8056640625.0029296875,1.5146484375.0791015625,2.1298828125.2294921875,3.357421875-.7392578125,6.91796875-1.0458984375,10.681640625-.9150390625,3.7626953125.1318359375,7.34765625.728515625,10.75,1.79296875,3.404296875,1.064453125,6.41015625,2.6142578125,9.021484375,4.646484375,2.6103515625,2.03515625,4.4453125,4.6162109375,5.5029296875,7.74609375.4462890625,1.373046875.7646484375,2.8212890625.9560546875,4.34765625.189453125,1.5263671875.15234375,3.1201171875-.115234375,4.783203125-.267578125,1.6640625-.779296875,3.4150390625-1.53515625,5.251953125s-1.82421875,3.75-3.203125,5.736328125ZM180.2109375,74.66845703125c3.2060546875-.1240234375,5.8759765625-.6767578125,8.0078125-1.6533203125,2.1328125-.9775390625,3.6953125-2.1591796875,4.689453125-3.546875.9931640625-1.3876953125,1.41015625-2.84375,1.25390625-4.3740234375-.1591796875-1.5283203125-.8515625-2.845703125-2.080078125-3.953125-1.2294921875-1.1064453125-3.001953125-1.8837890625-5.31640625-2.3330078125s-5.18359375-.2998046875-8.607421875.4453125c.41015625,2.5810546875.767578125,5.1328125,1.072265625,7.6533203125.3046875,2.5234375.6298828125,5.1103515625.98046875,7.76171875ZM182.8564453125,103.60595703125c3.6279296875.1083984375,6.6435546875-.302734375,9.0478515625-1.2353515625,2.40234375-.931640625,4.1689453125-2.080078125,5.298828125-3.4443359375,1.1298828125-1.365234375,1.650390625-2.7822265625,1.56640625-4.25-.0859375-1.466796875-.7705078125-2.68359375-2.0546875-3.6533203125-1.28515625-.9658203125-3.1748046875-1.5341796875-5.6669921875-1.701171875-2.4931640625-.166015625-5.5693359375.3349609375-9.2275390625,1.5009765625l1.0361328125,12.783203125Z"/>
            </g>
            <g>
              <path class="cls-2" d="M70.166015625,55.13525390625c2.6474609375,1.26171875,4.95703125,2.8828125,6.927734375,4.8681640625,1.970703125,1.986328125,3.6728515625,4.1923828125,5.109375,6.6220703125,1.4375,2.431640625,2.634765625,5.0302734375,3.59765625,7.80078125.9619140625,2.771484375,1.7587890625,5.5712890625,2.390625,8.4013671875,1.3896484375,5.583984375,2.384765625,11.265625,2.98828125,17.046875.6015625,5.7822265625.974609375,11.6162109375,1.1171875,17.5009765625,0,1.6767578125-.021484375,3.0517578125-.068359375,4.1279296875s-.2265625,1.9619140625-.5380859375,2.65625c-.3125.697265625-.7861328125,1.2705078125-1.4189453125,1.724609375-.6337890625.4521484375-1.53515625.892578125-2.70703125,1.32421875-1.1220703125.224609375-2.294921875.419921875-3.521484375.5869140625-1.2265625.166015625-2.40234375-.07421875-3.525390625-.7197265625-1.052734375-.5849609375-1.978515625-1.6494140625-2.771484375-3.1923828125-.796875-1.544921875-1.349609375-3.8125-1.658203125-6.802734375l-.080078125-.9990234375c-1.681640625-.064453125-3.6748046875-.0703125-5.982421875-.017578125-2.30859375.052734375-4.662109375.1611328125-7.060546875.3212890625-2.400390625.1611328125-4.71484375.33203125-6.9453125.5126953125-2.232421875.1806640625-4.111328125.3330078125-5.642578125.45703125-.017578125.603515625-.01953125,1.6083984375-.005859375,3.0166015625.01171875,1.4052734375-.091796875,2.8203125-.310546875,4.24609375-.220703125,1.4248046875-.5673828125,2.7265625-1.041015625,3.904296875-.474609375,1.177734375-1.2080078125,1.8388671875-2.201171875,1.9873046875-.927734375.1416015625-1.986328125.294921875-3.1787109375.458984375-1.193359375.162109375-2.3701171875.1240234375-3.5283203125-.1162109375-1.154296875-.173828125-2.146484375-.630859375-2.9755859375-1.3671875-.8310546875-.736328125-1.349609375-1.9677734375-1.5556640625-3.693359375-.1669921875-2.0625-.326171875-4.4296875-.474609375-7.1005859375-.150390625-2.6669921875-.25-5.5732421875-.3046875-8.7197265625-.078125-2.607421875-.091796875-5.4716796875-.0419921875-8.591796875.0478515625-3.119140625.2236328125-6.3330078125.5244140625-9.6416015625.30078125-3.3076171875.7705078125-6.6298828125,1.404296875-9.9658203125.634765625-3.333984375,1.515625-6.5205078125,2.6435546875-9.5625,1.1259765625-3.0390625,2.5234375-5.8662109375,4.1884765625-8.48046875,1.6640625-2.6142578125,3.7275390625-4.859375,6.189453125-6.734375,2.9052734375-2.1787109375,6.189453125-3.4169921875,9.8515625-3.7138671875s7.1962890625.322265625,10.60546875,1.8544921875ZM49.5791015625,102.54150390625c4.1669921875-.6708984375,8.3251953125-1.2607421875,12.47265625-1.763671875,4.1474609375-.501953125,8.3232421875-.8583984375,12.5283203125-1.06640625-.181640625-4.7421875-.724609375-8.953125-1.6259765625-12.6337890625-.9013671875-3.6796875-1.9892578125-6.7578125-3.2607421875-9.236328125-1.2734375-2.4755859375-2.6982421875-4.3369140625-4.2734375-5.583984375-1.57421875-1.2451171875-3.12890625-1.806640625-4.658203125-1.6826171875-1.333984375.107421875-2.658203125.9033203125-3.9794921875,2.3818359375-1.322265625,1.482421875-2.4912109375,3.587890625-3.5087890625,6.31640625-1.01953125,2.73046875-1.87109375,6.06640625-2.556640625,10.0068359375-.6865234375,3.943359375-1.06640625,8.365234375-1.1376953125,13.26171875Z"/>
              <path class="cls-2" d="M206.654296875,78.45654296875c3.111328125,2.02734375,5.51953125,4.6640625,7.224609375,7.9091796875,1.703125,3.248046875,2.43359375,6.6884765625,2.193359375,10.328125-.2705078125,4.1083984375-1.591796875,7.6513671875-3.96484375,10.6240234375-2.3720703125,2.9736328125-5.2587890625,5.40234375-8.658203125,7.28515625-3.3994140625,1.8837890625-7.1240234375,3.2587890625-11.17578125,4.1220703125-4.05078125.8642578125-7.890625,1.2431640625-11.517578125,1.134765625-.322265625.16015625-.6162109375.2666015625-.87890625.322265625-.263671875.0546875-.5595703125.12890625-.88671875.22265625-1.193359375.1630859375-2.42578125.2626953125-3.6953125.2998046875-1.26953125.03515625-2.4365234375-.0888671875-3.498046875-.37109375-1.0625-.28125-1.9921875-.8095703125-2.791015625-1.5830078125-.80078125-.771484375-1.3291015625-1.91796875-1.5859375-3.439453125-.193359375-.7216796875-.345703125-2.19921875-.4609375-4.4365234375-.1142578125-2.234375-.267578125-4.953125-.458984375-8.1552734375-.130859375-3.2724609375-.302734375-6.826171875-.51171875-10.6640625-.2109375-3.8359375-.439453125-7.6875-.685546875-11.5546875-.34375-5.064453125-.689453125-10.162109375-1.037109375-15.2958984375-.349609375-5.130859375-.96875-10.275390625-1.853515625-15.4306640625-.18359375-.5888671875-.1591796875-1.1259765625.0703125-1.615234375.099609375-.4091796875.369140625-.81640625.8046875-1.220703125.435546875-.40234375,1.115234375-.708984375,2.037109375-.91796875.66015625-.119140625,1.384765625-.279296875,2.1728515625-.478515625.7880859375-.197265625,1.6123046875-.3642578125,2.4716796875-.501953125.8603515625-.134765625,1.693359375-.2021484375,2.4970703125-.2021484375.8056640625.0029296875,1.5146484375.0791015625,2.1298828125.2294921875,3.357421875-.7392578125,6.91796875-1.0458984375,10.681640625-.9150390625,3.7626953125.1318359375,7.34765625.728515625,10.75,1.79296875,3.404296875,1.064453125,6.41015625,2.6142578125,9.021484375,4.646484375,2.6103515625,2.03515625,4.4453125,4.6162109375,5.5029296875,7.74609375.4462890625,1.373046875.7646484375,2.8212890625.9560546875,4.34765625.189453125,1.5263671875.15234375,3.1201171875-.115234375,4.783203125-.267578125,1.6640625-.779296875,3.4150390625-1.53515625,5.251953125s-1.82421875,3.75-3.203125,5.736328125ZM180.2109375,74.66845703125c3.2060546875-.1240234375,5.8759765625-.6767578125,8.0078125-1.6533203125,2.1328125-.9775390625,3.6953125-2.1591796875,4.689453125-3.546875.9931640625-1.3876953125,1.41015625-2.84375,1.25390625-4.3740234375-.1591796875-1.5283203125-.8515625-2.845703125-2.080078125-3.953125-1.2294921875-1.1064453125-3.001953125-1.8837890625-5.31640625-2.3330078125s-5.18359375-.2998046875-8.607421875.4453125c.41015625,2.5810546875.767578125,5.1328125,1.072265625,7.6533203125.3046875,2.5234375.6298828125,5.1103515625.98046875,7.76171875ZM182.8564453125,103.60595703125c3.6279296875.1083984375,6.6435546875-.302734375,9.0478515625-1.2353515625,2.40234375-.931640625,4.1689453125-2.080078125,5.298828125-3.4443359375,1.1298828125-1.365234375,1.650390625-2.7822265625,1.56640625-4.25-.0859375-1.466796875-.7705078125-2.68359375-2.0546875-3.6533203125-1.28515625-.9658203125-3.1748046875-1.5341796875-5.6669921875-1.701171875-2.4931640625-.166015625-5.5693359375.3349609375-9.2275390625,1.5009765625l1.0361328125,12.783203125Z"/>
            </g>
            <g>
              <path class="cls-2" d="M70.166015625,55.13525390625c2.6474609375,1.26171875,4.95703125,2.8828125,6.927734375,4.8681640625,1.970703125,1.986328125,3.6728515625,4.1923828125,5.109375,6.6220703125,1.4375,2.431640625,2.634765625,5.0302734375,3.59765625,7.80078125.9619140625,2.771484375,1.7587890625,5.5712890625,2.390625,8.4013671875,1.3896484375,5.583984375,2.384765625,11.265625,2.98828125,17.046875.6015625,5.7822265625.974609375,11.6162109375,1.1171875,17.5009765625,0,1.6767578125-.021484375,3.0517578125-.068359375,4.1279296875s-.2265625,1.9619140625-.5380859375,2.65625c-.3125.697265625-.7861328125,1.2705078125-1.4189453125,1.724609375-.6337890625.4521484375-1.53515625.892578125-2.70703125,1.32421875-1.1220703125.224609375-2.294921875.419921875-3.521484375.5869140625-1.2265625.166015625-2.40234375-.07421875-3.525390625-.7197265625-1.052734375-.5849609375-1.978515625-1.6494140625-2.771484375-3.1923828125-.796875-1.544921875-1.349609375-3.8125-1.658203125-6.802734375l-.080078125-.9990234375c-1.681640625-.064453125-3.6748046875-.0703125-5.982421875-.017578125-2.30859375.052734375-4.662109375.1611328125-7.060546875.3212890625-2.400390625.1611328125-4.71484375.33203125-6.9453125.5126953125-2.232421875.1806640625-4.111328125.3330078125-5.642578125.45703125-.017578125.603515625-.01953125,1.6083984375-.005859375,3.0166015625.01171875,1.4052734375-.091796875,2.8203125-.310546875,4.24609375-.220703125,1.4248046875-.5673828125,2.7265625-1.041015625,3.904296875-.474609375,1.177734375-1.2080078125,1.8388671875-2.201171875,1.9873046875-.927734375.1416015625-1.986328125.294921875-3.1787109375.458984375-1.193359375.162109375-2.3701171875.1240234375-3.5283203125-.1162109375-1.154296875-.173828125-2.146484375-.630859375-2.9755859375-1.3671875-.8310546875-.736328125-1.349609375-1.9677734375-1.5556640625-3.693359375-.1669921875-2.0625-.326171875-4.4296875-.474609375-7.1005859375-.150390625-2.6669921875-.25-5.5732421875-.3046875-8.7197265625-.078125-2.607421875-.091796875-5.4716796875-.0419921875-8.591796875.0478515625-3.119140625.2236328125-6.3330078125.5244140625-9.6416015625.30078125-3.3076171875.7705078125-6.6298828125,1.404296875-9.9658203125.634765625-3.333984375,1.515625-6.5205078125,2.6435546875-9.5625,1.1259765625-3.0390625,2.5234375-5.8662109375,4.1884765625-8.48046875,1.6640625-2.6142578125,3.7275390625-4.859375,6.189453125-6.734375,2.9052734375-2.1787109375,6.189453125-3.4169921875,9.8515625-3.7138671875s7.1962890625.322265625,10.60546875,1.8544921875ZM49.5791015625,102.54150390625c4.1669921875-.6708984375,8.3251953125-1.2607421875,12.47265625-1.763671875,4.1474609375-.501953125,8.3232421875-.8583984375,12.5283203125-1.06640625-.181640625-4.7421875-.724609375-8.953125-1.6259765625-12.6337890625-.9013671875-3.6796875-1.9892578125-6.7578125-3.2607421875-9.236328125-1.2734375-2.4755859375-2.6982421875-4.3369140625-4.2734375-5.583984375-1.57421875-1.2451171875-3.12890625-1.806640625-4.658203125-1.6826171875-1.333984375.107421875-2.658203125.9033203125-3.9794921875,2.3818359375-1.322265625,1.482421875-2.4912109375,3.587890625-3.5087890625,6.31640625-1.01953125,2.73046875-1.87109375,6.06640625-2.556640625,10.0068359375-.6865234375,3.943359375-1.06640625,8.365234375-1.1376953125,13.26171875Z"/>
              <path class="cls-2" d="M206.654296875,78.45654296875c3.111328125,2.02734375,5.51953125,4.6640625,7.224609375,7.9091796875,1.703125,3.248046875,2.43359375,6.6884765625,2.193359375,10.328125-.2705078125,4.1083984375-1.591796875,7.6513671875-3.96484375,10.6240234375-2.3720703125,2.9736328125-5.2587890625,5.40234375-8.658203125,7.28515625-3.3994140625,1.8837890625-7.1240234375,3.2587890625-11.17578125,4.1220703125-4.05078125.8642578125-7.890625,1.2431640625-11.517578125,1.134765625-.322265625.16015625-.6162109375.2666015625-.87890625.322265625-.263671875.0546875-.5595703125.12890625-.88671875.22265625-1.193359375.1630859375-2.42578125.2626953125-3.6953125.2998046875-1.26953125.03515625-2.4365234375-.0888671875-3.498046875-.37109375-1.0625-.28125-1.9921875-.8095703125-2.791015625-1.5830078125-.80078125-.771484375-1.3291015625-1.91796875-1.5859375-3.439453125-.193359375-.7216796875-.345703125-2.19921875-.4609375-4.4365234375-.1142578125-2.234375-.267578125-4.953125-.458984375-8.1552734375-.130859375-3.2724609375-.302734375-6.826171875-.51171875-10.6640625-.2109375-3.8359375-.439453125-7.6875-.685546875-11.5546875-.34375-5.064453125-.689453125-10.162109375-1.037109375-15.2958984375-.349609375-5.130859375-.96875-10.275390625-1.853515625-15.4306640625-.18359375-.5888671875-.1591796875-1.1259765625.0703125-1.615234375.099609375-.4091796875.369140625-.81640625.8046875-1.220703125.435546875-.40234375,1.115234375-.708984375,2.037109375-.91796875.66015625-.119140625,1.384765625-.279296875,2.1728515625-.478515625.7880859375-.197265625,1.6123046875-.3642578125,2.4716796875-.501953125.8603515625-.134765625,1.693359375-.2021484375,2.4970703125-.2021484375.8056640625.0029296875,1.5146484375.0791015625,2.1298828125.2294921875,3.357421875-.7392578125,6.91796875-1.0458984375,10.681640625-.9150390625,3.7626953125.1318359375,7.34765625.728515625,10.75,1.79296875,3.404296875,1.064453125,6.41015625,2.6142578125,9.021484375,4.646484375,2.6103515625,2.03515625,4.4453125,4.6162109375,5.5029296875,7.74609375.4462890625,1.373046875.7646484375,2.8212890625.9560546875,4.34765625.189453125,1.5263671875.15234375,3.1201171875-.115234375,4.783203125-.267578125,1.6640625-.779296875,3.4150390625-1.53515625,5.251953125s-1.82421875,3.75-3.203125,5.736328125ZM180.2109375,74.66845703125c3.2060546875-.1240234375,5.8759765625-.6767578125,8.0078125-1.6533203125,2.1328125-.9775390625,3.6953125-2.1591796875,4.689453125-3.546875.9931640625-1.3876953125,1.41015625-2.84375,1.25390625-4.3740234375-.1591796875-1.5283203125-.8515625-2.845703125-2.080078125-3.953125-1.2294921875-1.1064453125-3.001953125-1.8837890625-5.31640625-2.3330078125s-5.18359375-.2998046875-8.607421875.4453125c.41015625,2.5810546875.767578125,5.1328125,1.072265625,7.6533203125.3046875,2.5234375.6298828125,5.1103515625.98046875,7.76171875ZM182.8564453125,103.60595703125c3.6279296875.1083984375,6.6435546875-.302734375,9.0478515625-1.2353515625,2.40234375-.931640625,4.1689453125-2.080078125,5.298828125-3.4443359375,1.1298828125-1.365234375,1.650390625-2.7822265625,1.56640625-4.25-.0859375-1.466796875-.7705078125-2.68359375-2.0546875-3.6533203125-1.28515625-.9658203125-3.1748046875-1.5341796875-5.6669921875-1.701171875-2.4931640625-.166015625-5.5693359375.3349609375-9.2275390625,1.5009765625l1.0361328125,12.783203125Z"/>
            </g>
          </g>
        </a>
        <path class="cls-2" d="M136.3603515625,44.60400390625c-.1552734375,13.7421875-.2880859375,27.3642578125-.4033203125,40.8662109375-.115234375,13.5009765625-.1357421875,27.123046875-.05859375,40.8662109375-.154296875.9638671875-.423828125,1.849609375-.806640625,2.6513671875-.38671875.64453125-.962890625,1.287109375-1.7314453125,1.9287109375-.7705078125.64453125-1.8076171875,1.0439453125-3.115234375,1.2060546875-1.384765625.16015625-2.7890625.259765625-4.2119140625.30078125-1.423828125.0400390625-2.7509765625-.1201171875-3.98046875-.4814453125-1.2314453125-.3623046875-2.2900390625-1.00390625-3.173828125-1.9287109375-.884765625-.923828125-1.44140625-2.3095703125-1.6728515625-4.1591796875-.1552734375-.8837890625-.23046875-2.7314453125-.23046875-5.5458984375,0-2.8115234375.0576171875-6.2080078125.1728515625-10.185546875.115234375-3.978515625.2490234375-8.3583984375.404296875-13.140625.15234375-4.7802734375.345703125-9.5830078125.576171875-14.4052734375.154296875-4.822265625.365234375-9.482421875.634765625-13.9833984375.26953125-4.5.48046875-8.517578125.634765625-12.0556640625.23046875-4.0986328125.4609375-7.9560546875.6923828125-11.572265625-.0771484375-.7236328125.0380859375-1.365234375.3466796875-1.9287109375.23046875-.482421875.5947265625-.904296875,1.095703125-1.265625.5-.3623046875,1.287109375-.58203125,2.365234375-.6630859375h3.75c1.4228515625,0,2.787109375.1015625,4.0966796875.30078125,1.3076171875.2021484375,2.4033203125.54296875,3.2880859375,1.025390625.8837890625.4814453125,1.3271484375,1.205078125,1.3271484375,2.169921875Z"/>
      </g>
      <g>
        <a xlink:href="https://www.notion.so/congruence/B-Event-1f1a5b08a72c49f5ab60f2e0793fd0a8?pvs=4">
          <g>
            <g>
              <path class="cls-3" d="M70.166015625,55.13525390625c2.6474609375,1.26171875,4.95703125,2.8828125,6.927734375,4.8681640625,1.970703125,1.986328125,3.6728515625,4.1923828125,5.109375,6.6220703125,1.4375,2.431640625,2.634765625,5.0302734375,3.59765625,7.80078125.9619140625,2.771484375,1.7587890625,5.5712890625,2.390625,8.4013671875,1.3896484375,5.583984375,2.384765625,11.265625,2.98828125,17.046875.6015625,5.7822265625.974609375,11.6162109375,1.1171875,17.5009765625,0,1.6767578125-.021484375,3.0517578125-.068359375,4.1279296875s-.2265625,1.9619140625-.5380859375,2.65625c-.3125.697265625-.7861328125,1.2705078125-1.4189453125,1.724609375-.6337890625.4521484375-1.53515625.892578125-2.70703125,1.32421875-1.1220703125.224609375-2.294921875.419921875-3.521484375.5869140625-1.2265625.166015625-2.40234375-.07421875-3.525390625-.7197265625-1.052734375-.5849609375-1.978515625-1.6494140625-2.771484375-3.1923828125-.796875-1.544921875-1.349609375-3.8125-1.658203125-6.802734375l-.080078125-.9990234375c-1.681640625-.064453125-3.6748046875-.0703125-5.982421875-.017578125-2.30859375.052734375-4.662109375.1611328125-7.060546875.3212890625-2.400390625.1611328125-4.71484375.33203125-6.9453125.5126953125-2.232421875.1806640625-4.111328125.3330078125-5.642578125.45703125-.017578125.603515625-.01953125,1.6083984375-.005859375,3.0166015625.01171875,1.4052734375-.091796875,2.8203125-.310546875,4.24609375-.220703125,1.4248046875-.5673828125,2.7265625-1.041015625,3.904296875-.474609375,1.177734375-1.2080078125,1.8388671875-2.201171875,1.9873046875-.927734375.1416015625-1.986328125.294921875-3.1787109375.458984375-1.193359375.162109375-2.3701171875.1240234375-3.5283203125-.1162109375-1.154296875-.173828125-2.146484375-.630859375-2.9755859375-1.3671875-.8310546875-.736328125-1.349609375-1.9677734375-1.5556640625-3.693359375-.1669921875-2.0625-.326171875-4.4296875-.474609375-7.1005859375-.150390625-2.6669921875-.25-5.5732421875-.3046875-8.7197265625-.078125-2.607421875-.091796875-5.4716796875-.0419921875-8.591796875.0478515625-3.119140625.2236328125-6.3330078125.5244140625-9.6416015625.30078125-3.3076171875.7705078125-6.6298828125,1.404296875-9.9658203125.634765625-3.333984375,1.515625-6.5205078125,2.6435546875-9.5625,1.1259765625-3.0390625,2.5234375-5.8662109375,4.1884765625-8.48046875,1.6640625-2.6142578125,3.7275390625-4.859375,6.189453125-6.734375,2.9052734375-2.1787109375,6.189453125-3.4169921875,9.8515625-3.7138671875s7.1962890625.322265625,10.60546875,1.8544921875ZM49.5791015625,102.54150390625c4.1669921875-.6708984375,8.3251953125-1.2607421875,12.47265625-1.763671875,4.1474609375-.501953125,8.3232421875-.8583984375,12.5283203125-1.06640625-.181640625-4.7421875-.724609375-8.953125-1.6259765625-12.6337890625-.9013671875-3.6796875-1.9892578125-6.7578125-3.2607421875-9.236328125-1.2734375-2.4755859375-2.6982421875-4.3369140625-4.2734375-5.583984375-1.57421875-1.2451171875-3.12890625-1.806640625-4.658203125-1.6826171875-1.333984375.107421875-2.658203125.9033203125-3.9794921875,2.3818359375-1.322265625,1.482421875-2.4912109375,3.587890625-3.5087890625,6.31640625-1.01953125,2.73046875-1.87109375,6.06640625-2.556640625,10.0068359375-.6865234375,3.943359375-1.06640625,8.365234375-1.1376953125,13.26171875Z"/>
              <path class="cls-3" d="M206.654296875,78.45654296875c3.111328125,2.02734375,5.51953125,4.6640625,7.224609375,7.9091796875,1.703125,3.248046875,2.43359375,6.6884765625,2.193359375,10.328125-.2705078125,4.1083984375-1.591796875,7.6513671875-3.96484375,10.6240234375-2.3720703125,2.9736328125-5.2587890625,5.40234375-8.658203125,7.28515625-3.3994140625,1.8837890625-7.1240234375,3.2587890625-11.17578125,4.1220703125-4.05078125.8642578125-7.890625,1.2431640625-11.517578125,1.134765625-.322265625.16015625-.6162109375.2666015625-.87890625.322265625-.263671875.0546875-.5595703125.12890625-.88671875.22265625-1.193359375.1630859375-2.42578125.2626953125-3.6953125.2998046875-1.26953125.03515625-2.4365234375-.0888671875-3.498046875-.37109375-1.0625-.28125-1.9921875-.8095703125-2.791015625-1.5830078125-.80078125-.771484375-1.3291015625-1.91796875-1.5859375-3.439453125-.193359375-.7216796875-.345703125-2.19921875-.4609375-4.4365234375-.1142578125-2.234375-.267578125-4.953125-.458984375-8.1552734375-.130859375-3.2724609375-.302734375-6.826171875-.51171875-10.6640625-.2109375-3.8359375-.439453125-7.6875-.685546875-11.5546875-.34375-5.064453125-.689453125-10.162109375-1.037109375-15.2958984375-.349609375-5.130859375-.96875-10.275390625-1.853515625-15.4306640625-.18359375-.5888671875-.1591796875-1.1259765625.0703125-1.615234375.099609375-.4091796875.369140625-.81640625.8046875-1.220703125.435546875-.40234375,1.115234375-.708984375,2.037109375-.91796875.66015625-.119140625,1.384765625-.279296875,2.1728515625-.478515625.7880859375-.197265625,1.6123046875-.3642578125,2.4716796875-.501953125.8603515625-.134765625,1.693359375-.2021484375,2.4970703125-.2021484375.8056640625.0029296875,1.5146484375.0791015625,2.1298828125.2294921875,3.357421875-.7392578125,6.91796875-1.0458984375,10.681640625-.9150390625,3.7626953125.1318359375,7.34765625.728515625,10.75,1.79296875,3.404296875,1.064453125,6.41015625,2.6142578125,9.021484375,4.646484375,2.6103515625,2.03515625,4.4453125,4.6162109375,5.5029296875,7.74609375.4462890625,1.373046875.7646484375,2.8212890625.9560546875,4.34765625.189453125,1.5263671875.15234375,3.1201171875-.115234375,4.783203125-.267578125,1.6640625-.779296875,3.4150390625-1.53515625,5.251953125s-1.82421875,3.75-3.203125,5.736328125ZM180.2109375,74.66845703125c3.2060546875-.1240234375,5.8759765625-.6767578125,8.0078125-1.6533203125,2.1328125-.9775390625,3.6953125-2.1591796875,4.689453125-3.546875.9931640625-1.3876953125,1.41015625-2.84375,1.25390625-4.3740234375-.1591796875-1.5283203125-.8515625-2.845703125-2.080078125-3.953125-1.2294921875-1.1064453125-3.001953125-1.8837890625-5.31640625-2.3330078125s-5.18359375-.2998046875-8.607421875.4453125c.41015625,2.5810546875.767578125,5.1328125,1.072265625,7.6533203125.3046875,2.5234375.6298828125,5.1103515625.98046875,7.76171875ZM182.8564453125,103.60595703125c3.6279296875.1083984375,6.6435546875-.302734375,9.0478515625-1.2353515625,2.40234375-.931640625,4.1689453125-2.080078125,5.298828125-3.4443359375,1.1298828125-1.365234375,1.650390625-2.7822265625,1.56640625-4.25-.0859375-1.466796875-.7705078125-2.68359375-2.0546875-3.6533203125-1.28515625-.9658203125-3.1748046875-1.5341796875-5.6669921875-1.701171875-2.4931640625-.166015625-5.5693359375.3349609375-9.2275390625,1.5009765625l1.0361328125,12.783203125Z"/>
            </g>
            <g>
              <path class="cls-3" d="M70.166015625,55.13525390625c2.6474609375,1.26171875,4.95703125,2.8828125,6.927734375,4.8681640625,1.970703125,1.986328125,3.6728515625,4.1923828125,5.109375,6.6220703125,1.4375,2.431640625,2.634765625,5.0302734375,3.59765625,7.80078125.9619140625,2.771484375,1.7587890625,5.5712890625,2.390625,8.4013671875,1.3896484375,5.583984375,2.384765625,11.265625,2.98828125,17.046875.6015625,5.7822265625.974609375,11.6162109375,1.1171875,17.5009765625,0,1.6767578125-.021484375,3.0517578125-.068359375,4.1279296875s-.2265625,1.9619140625-.5380859375,2.65625c-.3125.697265625-.7861328125,1.2705078125-1.4189453125,1.724609375-.6337890625.4521484375-1.53515625.892578125-2.70703125,1.32421875-1.1220703125.224609375-2.294921875.419921875-3.521484375.5869140625-1.2265625.166015625-2.40234375-.07421875-3.525390625-.7197265625-1.052734375-.5849609375-1.978515625-1.6494140625-2.771484375-3.1923828125-.796875-1.544921875-1.349609375-3.8125-1.658203125-6.802734375l-.080078125-.9990234375c-1.681640625-.064453125-3.6748046875-.0703125-5.982421875-.017578125-2.30859375.052734375-4.662109375.1611328125-7.060546875.3212890625-2.400390625.1611328125-4.71484375.33203125-6.9453125.5126953125-2.232421875.1806640625-4.111328125.3330078125-5.642578125.45703125-.017578125.603515625-.01953125,1.6083984375-.005859375,3.0166015625.01171875,1.4052734375-.091796875,2.8203125-.310546875,4.24609375-.220703125,1.4248046875-.5673828125,2.7265625-1.041015625,3.904296875-.474609375,1.177734375-1.2080078125,1.8388671875-2.201171875,1.9873046875-.927734375.1416015625-1.986328125.294921875-3.1787109375.458984375-1.193359375.162109375-2.3701171875.1240234375-3.5283203125-.1162109375-1.154296875-.173828125-2.146484375-.630859375-2.9755859375-1.3671875-.8310546875-.736328125-1.349609375-1.9677734375-1.5556640625-3.693359375-.1669921875-2.0625-.326171875-4.4296875-.474609375-7.1005859375-.150390625-2.6669921875-.25-5.5732421875-.3046875-8.7197265625-.078125-2.607421875-.091796875-5.4716796875-.0419921875-8.591796875.0478515625-3.119140625.2236328125-6.3330078125.5244140625-9.6416015625.30078125-3.3076171875.7705078125-6.6298828125,1.404296875-9.9658203125.634765625-3.333984375,1.515625-6.5205078125,2.6435546875-9.5625,1.1259765625-3.0390625,2.5234375-5.8662109375,4.1884765625-8.48046875,1.6640625-2.6142578125,3.7275390625-4.859375,6.189453125-6.734375,2.9052734375-2.1787109375,6.189453125-3.4169921875,9.8515625-3.7138671875s7.1962890625.322265625,10.60546875,1.8544921875ZM49.5791015625,102.54150390625c4.1669921875-.6708984375,8.3251953125-1.2607421875,12.47265625-1.763671875,4.1474609375-.501953125,8.3232421875-.8583984375,12.5283203125-1.06640625-.181640625-4.7421875-.724609375-8.953125-1.6259765625-12.6337890625-.9013671875-3.6796875-1.9892578125-6.7578125-3.2607421875-9.236328125-1.2734375-2.4755859375-2.6982421875-4.3369140625-4.2734375-5.583984375-1.57421875-1.2451171875-3.12890625-1.806640625-4.658203125-1.6826171875-1.333984375.107421875-2.658203125.9033203125-3.9794921875,2.3818359375-1.322265625,1.482421875-2.4912109375,3.587890625-3.5087890625,6.31640625-1.01953125,2.73046875-1.87109375,6.06640625-2.556640625,10.0068359375-.6865234375,3.943359375-1.06640625,8.365234375-1.1376953125,13.26171875Z"/>
              <path class="cls-3" d="M206.654296875,78.45654296875c3.111328125,2.02734375,5.51953125,4.6640625,7.224609375,7.9091796875,1.703125,3.248046875,2.43359375,6.6884765625,2.193359375,10.328125-.2705078125,4.1083984375-1.591796875,7.6513671875-3.96484375,10.6240234375-2.3720703125,2.9736328125-5.2587890625,5.40234375-8.658203125,7.28515625-3.3994140625,1.8837890625-7.1240234375,3.2587890625-11.17578125,4.1220703125-4.05078125.8642578125-7.890625,1.2431640625-11.517578125,1.134765625-.322265625.16015625-.6162109375.2666015625-.87890625.322265625-.263671875.0546875-.5595703125.12890625-.88671875.22265625-1.193359375.1630859375-2.42578125.2626953125-3.6953125.2998046875-1.26953125.03515625-2.4365234375-.0888671875-3.498046875-.37109375-1.0625-.28125-1.9921875-.8095703125-2.791015625-1.5830078125-.80078125-.771484375-1.3291015625-1.91796875-1.5859375-3.439453125-.193359375-.7216796875-.345703125-2.19921875-.4609375-4.4365234375-.1142578125-2.234375-.267578125-4.953125-.458984375-8.1552734375-.130859375-3.2724609375-.302734375-6.826171875-.51171875-10.6640625-.2109375-3.8359375-.439453125-7.6875-.685546875-11.5546875-.34375-5.064453125-.689453125-10.162109375-1.037109375-15.2958984375-.349609375-5.130859375-.96875-10.275390625-1.853515625-15.4306640625-.18359375-.5888671875-.1591796875-1.1259765625.0703125-1.615234375.099609375-.4091796875.369140625-.81640625.8046875-1.220703125.435546875-.40234375,1.115234375-.708984375,2.037109375-.91796875.66015625-.119140625,1.384765625-.279296875,2.1728515625-.478515625.7880859375-.197265625,1.6123046875-.3642578125,2.4716796875-.501953125.8603515625-.134765625,1.693359375-.2021484375,2.4970703125-.2021484375.8056640625.0029296875,1.5146484375.0791015625,2.1298828125.2294921875,3.357421875-.7392578125,6.91796875-1.0458984375,10.681640625-.9150390625,3.7626953125.1318359375,7.34765625.728515625,10.75,1.79296875,3.404296875,1.064453125,6.41015625,2.6142578125,9.021484375,4.646484375,2.6103515625,2.03515625,4.4453125,4.6162109375,5.5029296875,7.74609375.4462890625,1.373046875.7646484375,2.8212890625.9560546875,4.34765625.189453125,1.5263671875.15234375,3.1201171875-.115234375,4.783203125-.267578125,1.6640625-.779296875,3.4150390625-1.53515625,5.251953125s-1.82421875,3.75-3.203125,5.736328125ZM180.2109375,74.66845703125c3.2060546875-.1240234375,5.8759765625-.6767578125,8.0078125-1.6533203125,2.1328125-.9775390625,3.6953125-2.1591796875,4.689453125-3.546875.9931640625-1.3876953125,1.41015625-2.84375,1.25390625-4.3740234375-.1591796875-1.5283203125-.8515625-2.845703125-2.080078125-3.953125-1.2294921875-1.1064453125-3.001953125-1.8837890625-5.31640625-2.3330078125s-5.18359375-.2998046875-8.607421875.4453125c.41015625,2.5810546875.767578125,5.1328125,1.072265625,7.6533203125.3046875,2.5234375.6298828125,5.1103515625.98046875,7.76171875ZM182.8564453125,103.60595703125c3.6279296875.1083984375,6.6435546875-.302734375,9.0478515625-1.2353515625,2.40234375-.931640625,4.1689453125-2.080078125,5.298828125-3.4443359375,1.1298828125-1.365234375,1.650390625-2.7822265625,1.56640625-4.25-.0859375-1.466796875-.7705078125-2.68359375-2.0546875-3.6533203125-1.28515625-.9658203125-3.1748046875-1.5341796875-5.6669921875-1.701171875-2.4931640625-.166015625-5.5693359375.3349609375-9.2275390625,1.5009765625l1.0361328125,12.783203125Z"/>
            </g>
            <g>
              <path class="cls-3" d="M70.166015625,55.13525390625c2.6474609375,1.26171875,4.95703125,2.8828125,6.927734375,4.8681640625,1.970703125,1.986328125,3.6728515625,4.1923828125,5.109375,6.6220703125,1.4375,2.431640625,2.634765625,5.0302734375,3.59765625,7.80078125.9619140625,2.771484375,1.7587890625,5.5712890625,2.390625,8.4013671875,1.3896484375,5.583984375,2.384765625,11.265625,2.98828125,17.046875.6015625,5.7822265625.974609375,11.6162109375,1.1171875,17.5009765625,0,1.6767578125-.021484375,3.0517578125-.068359375,4.1279296875s-.2265625,1.9619140625-.5380859375,2.65625c-.3125.697265625-.7861328125,1.2705078125-1.4189453125,1.724609375-.6337890625.4521484375-1.53515625.892578125-2.70703125,1.32421875-1.1220703125.224609375-2.294921875.419921875-3.521484375.5869140625-1.2265625.166015625-2.40234375-.07421875-3.525390625-.7197265625-1.052734375-.5849609375-1.978515625-1.6494140625-2.771484375-3.1923828125-.796875-1.544921875-1.349609375-3.8125-1.658203125-6.802734375l-.080078125-.9990234375c-1.681640625-.064453125-3.6748046875-.0703125-5.982421875-.017578125-2.30859375.052734375-4.662109375.1611328125-7.060546875.3212890625-2.400390625.1611328125-4.71484375.33203125-6.9453125.5126953125-2.232421875.1806640625-4.111328125.3330078125-5.642578125.45703125-.017578125.603515625-.01953125,1.6083984375-.005859375,3.0166015625.01171875,1.4052734375-.091796875,2.8203125-.310546875,4.24609375-.220703125,1.4248046875-.5673828125,2.7265625-1.041015625,3.904296875-.474609375,1.177734375-1.2080078125,1.8388671875-2.201171875,1.9873046875-.927734375.1416015625-1.986328125.294921875-3.1787109375.458984375-1.193359375.162109375-2.3701171875.1240234375-3.5283203125-.1162109375-1.154296875-.173828125-2.146484375-.630859375-2.9755859375-1.3671875-.8310546875-.736328125-1.349609375-1.9677734375-1.5556640625-3.693359375-.1669921875-2.0625-.326171875-4.4296875-.474609375-7.1005859375-.150390625-2.6669921875-.25-5.5732421875-.3046875-8.7197265625-.078125-2.607421875-.091796875-5.4716796875-.0419921875-8.591796875.0478515625-3.119140625.2236328125-6.3330078125.5244140625-9.6416015625.30078125-3.3076171875.7705078125-6.6298828125,1.404296875-9.9658203125.634765625-3.333984375,1.515625-6.5205078125,2.6435546875-9.5625,1.1259765625-3.0390625,2.5234375-5.8662109375,4.1884765625-8.48046875,1.6640625-2.6142578125,3.7275390625-4.859375,6.189453125-6.734375,2.9052734375-2.1787109375,6.189453125-3.4169921875,9.8515625-3.7138671875s7.1962890625.322265625,10.60546875,1.8544921875ZM49.5791015625,102.54150390625c4.1669921875-.6708984375,8.3251953125-1.2607421875,12.47265625-1.763671875,4.1474609375-.501953125,8.3232421875-.8583984375,12.5283203125-1.06640625-.181640625-4.7421875-.724609375-8.953125-1.6259765625-12.6337890625-.9013671875-3.6796875-1.9892578125-6.7578125-3.2607421875-9.236328125-1.2734375-2.4755859375-2.6982421875-4.3369140625-4.2734375-5.583984375-1.57421875-1.2451171875-3.12890625-1.806640625-4.658203125-1.6826171875-1.333984375.107421875-2.658203125.9033203125-3.9794921875,2.3818359375-1.322265625,1.482421875-2.4912109375,3.587890625-3.5087890625,6.31640625-1.01953125,2.73046875-1.87109375,6.06640625-2.556640625,10.0068359375-.6865234375,3.943359375-1.06640625,8.365234375-1.1376953125,13.26171875Z"/>
              <path class="cls-3" d="M206.654296875,78.45654296875c3.111328125,2.02734375,5.51953125,4.6640625,7.224609375,7.9091796875,1.703125,3.248046875,2.43359375,6.6884765625,2.193359375,10.328125-.2705078125,4.1083984375-1.591796875,7.6513671875-3.96484375,10.6240234375-2.3720703125,2.9736328125-5.2587890625,5.40234375-8.658203125,7.28515625-3.3994140625,1.8837890625-7.1240234375,3.2587890625-11.17578125,4.1220703125-4.05078125.8642578125-7.890625,1.2431640625-11.517578125,1.134765625-.322265625.16015625-.6162109375.2666015625-.87890625.322265625-.263671875.0546875-.5595703125.12890625-.88671875.22265625-1.193359375.1630859375-2.42578125.2626953125-3.6953125.2998046875-1.26953125.03515625-2.4365234375-.0888671875-3.498046875-.37109375-1.0625-.28125-1.9921875-.8095703125-2.791015625-1.5830078125-.80078125-.771484375-1.3291015625-1.91796875-1.5859375-3.439453125-.193359375-.7216796875-.345703125-2.19921875-.4609375-4.4365234375-.1142578125-2.234375-.267578125-4.953125-.458984375-8.1552734375-.130859375-3.2724609375-.302734375-6.826171875-.51171875-10.6640625-.2109375-3.8359375-.439453125-7.6875-.685546875-11.5546875-.34375-5.064453125-.689453125-10.162109375-1.037109375-15.2958984375-.349609375-5.130859375-.96875-10.275390625-1.853515625-15.4306640625-.18359375-.5888671875-.1591796875-1.1259765625.0703125-1.615234375.099609375-.4091796875.369140625-.81640625.8046875-1.220703125.435546875-.40234375,1.115234375-.708984375,2.037109375-.91796875.66015625-.119140625,1.384765625-.279296875,2.1728515625-.478515625.7880859375-.197265625,1.6123046875-.3642578125,2.4716796875-.501953125.8603515625-.134765625,1.693359375-.2021484375,2.4970703125-.2021484375.8056640625.0029296875,1.5146484375.0791015625,2.1298828125.2294921875,3.357421875-.7392578125,6.91796875-1.0458984375,10.681640625-.9150390625,3.7626953125.1318359375,7.34765625.728515625,10.75,1.79296875,3.404296875,1.064453125,6.41015625,2.6142578125,9.021484375,4.646484375,2.6103515625,2.03515625,4.4453125,4.6162109375,5.5029296875,7.74609375.4462890625,1.373046875.7646484375,2.8212890625.9560546875,4.34765625.189453125,1.5263671875.15234375,3.1201171875-.115234375,4.783203125-.267578125,1.6640625-.779296875,3.4150390625-1.53515625,5.251953125s-1.82421875,3.75-3.203125,5.736328125ZM180.2109375,74.66845703125c3.2060546875-.1240234375,5.8759765625-.6767578125,8.0078125-1.6533203125,2.1328125-.9775390625,3.6953125-2.1591796875,4.689453125-3.546875.9931640625-1.3876953125,1.41015625-2.84375,1.25390625-4.3740234375-.1591796875-1.5283203125-.8515625-2.845703125-2.080078125-3.953125-1.2294921875-1.1064453125-3.001953125-1.8837890625-5.31640625-2.3330078125s-5.18359375-.2998046875-8.607421875.4453125c.41015625,2.5810546875.767578125,5.1328125,1.072265625,7.6533203125.3046875,2.5234375.6298828125,5.1103515625.98046875,7.76171875ZM182.8564453125,103.60595703125c3.6279296875.1083984375,6.6435546875-.302734375,9.0478515625-1.2353515625,2.40234375-.931640625,4.1689453125-2.080078125,5.298828125-3.4443359375,1.1298828125-1.365234375,1.650390625-2.7822265625,1.56640625-4.25-.0859375-1.466796875-.7705078125-2.68359375-2.0546875-3.6533203125-1.28515625-.9658203125-3.1748046875-1.5341796875-5.6669921875-1.701171875-2.4931640625-.166015625-5.5693359375.3349609375-9.2275390625,1.5009765625l1.0361328125,12.783203125Z"/>
            </g>
          </g>
        </a>
        <path class="cls-3" d="M136.3603515625,44.60400390625c-.1552734375,13.7421875-.2880859375,27.3642578125-.4033203125,40.8662109375-.115234375,13.5009765625-.1357421875,27.123046875-.05859375,40.8662109375-.154296875.9638671875-.423828125,1.849609375-.806640625,2.6513671875-.38671875.64453125-.962890625,1.287109375-1.7314453125,1.9287109375-.7705078125.64453125-1.8076171875,1.0439453125-3.115234375,1.2060546875-1.384765625.16015625-2.7890625.259765625-4.2119140625.30078125-1.423828125.0400390625-2.7509765625-.1201171875-3.98046875-.4814453125-1.2314453125-.3623046875-2.2900390625-1.00390625-3.173828125-1.9287109375-.884765625-.923828125-1.44140625-2.3095703125-1.6728515625-4.1591796875-.1552734375-.8837890625-.23046875-2.7314453125-.23046875-5.5458984375,0-2.8115234375.0576171875-6.2080078125.1728515625-10.185546875.115234375-3.978515625.2490234375-8.3583984375.404296875-13.140625.15234375-4.7802734375.345703125-9.5830078125.576171875-14.4052734375.154296875-4.822265625.365234375-9.482421875.634765625-13.9833984375.26953125-4.5.48046875-8.517578125.634765625-12.0556640625.23046875-4.0986328125.4609375-7.9560546875.6923828125-11.572265625-.0771484375-.7236328125.0380859375-1.365234375.3466796875-1.9287109375.23046875-.482421875.5947265625-.904296875,1.095703125-1.265625.5-.3623046875,1.287109375-.58203125,2.365234375-.6630859375h3.75c1.4228515625,0,2.787109375.1015625,4.0966796875.30078125,1.3076171875.2021484375,2.4033203125.54296875,3.2880859375,1.025390625.8837890625.4814453125,1.3271484375,1.205078125,1.3271484375,2.169921875Z"/>
      </g>
    </g>
  </a>
</svg>