<?xml version="1.0" encoding="UTF-8"?>
<svg id="Content" xmlns="http://www.w3.org/2000/svg" xmlns:xlink="http://www.w3.org/1999/xlink" viewBox="0 0 280 280">
  <defs>
    <style>
      .cls-1 {
        stroke: #665451;
        stroke-width: 50px;
      }

      .cls-1, .cls-2 {
        fill: none;
        stroke-linecap: round;
        stroke-linejoin: round;
      }

      .cls-3 {
        fill: #fff;
      }

      .cls-2 {
        stroke: #998675;
        stroke-width: 2px;
      }
    </style>
  </defs>
  <g>
    <path d="M73.3466796875,81.2958984375c4.1943359375-1.60693359375,8.34326171875-2.5029296875,12.44482421875-2.68359375,4.09814453125-.18115234375,7.9501953125.349609375,11.55712890625,1.59130859375,3.60498046875,1.24169921875,6.84130859375,3.17822265625,9.7099609375,5.80908203125,2.8662109375,2.630859375,5.1533203125,5.87841796875,6.85791015625,9.73974609375,1.70361328125,3.86376953125,2.71875,8.4013671875,3.04443359375,13.6123046875.326171875,5.21337890625-.2470703125,10.99755859375-1.71875,17.35400390625l-5.103515625,27.3232421875c-.37109375,1.2412109375-.9140625,2.310546875-1.63330078125,3.20361328125-.59765625.71484375-1.455078125,1.36474609375-2.58056640625,1.955078125-1.12451171875.5908203125-2.5166015625.77197265625-4.17431640625.5439453125-1.7685546875-.14599609375-3.5810546875-.3447265625-5.4326171875-.599609375-1.85400390625-.25537109375-3.5029296875-.73095703125-4.947265625-1.42626953125-1.4462890625-.6953125-2.6201171875-1.7255859375-3.5244140625-3.09423828125-.90625-1.3662109375-1.29443359375-3.23388671875-1.166015625-5.6015625.630859375-4.58349609375,1.47119140625-9.06298828125,2.521484375-13.4423828125,1.05029296875-4.37646484375,2.04345703125-8.88623046875,2.98095703125-13.52783203125,1.171875-4.90673828125,1.43310546875-8.97021484375.7841796875-12.1904296875-.6513671875-3.22021484375-1.7841796875-5.6357421875-3.3994140625-7.25048828125-1.61767578125-1.6142578125-3.53515625-2.47412109375-5.75634765625-2.58251953125-2.2216796875-.10498046875-4.42236328125.53564453125-6.60107421875,1.92431640625-2.18017578125,1.390625-4.1083984375,3.484375-5.7841796875,6.28369140625-1.6787109375,2.8017578125-2.70263671875,6.26220703125-3.06982421875,10.38525390625-1.01025390625,9.50244140625-1.84033203125,18.77978515625-2.4912109375,27.83251953125-.2548828125,1.853515625-1.09033203125,3.40380859375-2.50341796875,4.64892578125-1.41552734375,1.2470703125-3.11669921875,1.8818359375-5.10693359375,1.90576171875-1.79638671875.05029296875-3.61376953125.07275390625-5.451171875.06884765625-1.8388671875-.005859375-3.51513671875-.28515625-5.02685546875-.8408203125-1.5146484375-.5576171875-2.810546875-1.4306640625-3.8876953125-2.62255859375-1.080078125-1.19189453125-1.65966796875-2.93505859375-1.7392578125-5.2333984375,1.04736328125-15.5576171875,2.712890625-31.25341796875,4.99365234375-47.09033203125,2.2783203125-15.83544921875,5.11328125-31.7197265625,8.49951171875-47.6513671875.2431640625-1.05908203125.55615234375-2.0595703125.9345703125-3.001953125.37646484375-.9404296875.888671875-1.76416015625,1.53369140625-2.4716796875.64208984375-.70654296875,1.45751953125-1.2158203125,2.4462890625-1.52734375.98583984375-.310546875,2.21142578125-.3662109375,3.6748046875-.16455078125,1.2529296875.2724609375,2.775390625.58203125,4.568359375.92724609375,1.78955078125.34619140625,3.470703125.7763671875,5.0400390625,1.29052734375,1.56884765625.513671875,2.86962890625,1.16552734375,3.90478515625,1.95361328125,1.03271484375.7900390625,1.470703125,1.767578125,1.3095703125,2.93798828125-2.14794921875,10.5380859375-4.05029296875,21.109375-5.7080078125,31.7119140625Z"/>
    <a xlink:href="https://www.notion.so/congruence/hypothesis-f8e01f142f324c2b8a2aaf7e4944f125?pvs=4">
      <path d="M144.578125,122.95849609375c1.212890625,1.01318359375,2.20068359375,2.1708984375,2.96240234375,3.470703125.76123046875,1.3017578125,1.35302734375,2.68212890625,1.77685546875,4.14306640625.4228515625,1.46240234375.69970703125,2.98046875.830078125,4.55517578125.12890625,1.5751953125.1689453125,3.14404296875.1181640625,4.70556640625-.02490234375,3.1015625-.2685546875,6.201171875-.73095703125,9.29931640625-.46240234375,3.0986328125-1.0517578125,6.1943359375-1.7685546875,9.28466796875-.22509765625.875-.42138671875,1.59033203125-.58984375,2.14501953125-.16943359375.5556640625-.38232421875.99365234375-.63818359375,1.314453125-.2568359375.32080078125-.5810546875.55712890625-.9716796875.708984375-.3916015625.1513671875-.921875.26025390625-1.59130859375.32763671875-.61572265625-.03369140625-1.25439453125-.0888671875-1.9169921875-.16650390625-.66259765625-.07861328125-1.24365234375-.361328125-1.74365234375-.849609375-.470703125-.4462890625-.810546875-1.12646484375-1.01708984375-2.0390625-.20849609375-.91259765625-.19189453125-2.17041015625.04833984375-3.77294921875l.09228515625-.5322265625c-.86865234375-.25927734375-1.90869140625-.5302734375-3.1201171875-.81298828125-1.2109375-.28173828125-2.45361328125-.5419921875-3.72802734375-.78125-1.2744140625-.23828125-2.50537109375-.46044921875-3.69384765625-.666015625-1.18896484375-.205078125-2.19091796875-.37841796875-3.00634765625-.51953125-.0908203125.3134765625-.22705078125.837890625-.408203125,1.5732421875-.18212890625.736328125-.4267578125,1.4609375-.732421875,2.17529296875-.306640625.71435546875-.6630859375,1.34716796875-1.06787109375,1.89794921875-.40673828125.55126953125-.8779296875.7978515625-1.416015625.74169921875-.50390625-.05078125-1.07666015625-.11376953125-1.72119140625-.18798828125-.64453125-.07568359375-1.25341796875-.25390625-1.826171875-.53466796875-.578125-.24560546875-1.03515625-.61767578125-1.369140625-1.11328125-.33447265625-.49609375-.43994140625-1.20849609375-.3154296875-2.13720703125.18994140625-1.09912109375.4248046875-2.35546875.7060546875-3.7685546875.2802734375-1.41259765625.61865234375-2.943359375,1.01318359375-4.5927734375.3095703125-1.37158203125.68701171875-2.86767578125,1.13232421875-4.490234375.44384765625-1.62158203125.96728515625-3.275390625,1.5693359375-4.96142578125.6015625-1.68603515625,1.29296875-3.35693359375,2.072265625-5.01220703125s1.6669921875-3.2001953125,2.66455078125-4.63623046875c.99658203125-1.43505859375,2.1044921875-2.72314453125,3.3251953125-3.86376953125,1.21923828125-1.140625,2.59814453125-2.03515625,4.13525390625-2.68359375,1.8095703125-.74609375,3.68994140625-.951171875,5.6416015625-.6142578125,1.9501953125.33740234375,3.71240234375,1.13525390625,5.28515625,2.3935546875ZM127.46337890625,144.93408203125c2.26611328125.2099609375,4.51416015625.4619140625,6.74755859375.755859375,2.23095703125.29443359375,4.4599609375.67041015625,6.6826171875,1.126953125.54150390625-2.5.82421875-4.7705078125.8486328125-6.8125.0234375-2.04150390625-.13037109375-3.79443359375-.46142578125-5.2587890625-.33251953125-1.462890625-.8251953125-2.626953125-1.47998046875-3.48828125-.6552734375-.86181640625-1.3896484375-1.36376953125-2.2060546875-1.5048828125-.708984375-.123046875-1.5087890625.1142578125-2.396484375.708984375-.888671875.59521484375-1.78173828125,1.537109375-2.68017578125,2.8251953125-.89892578125,1.2880859375-1.79150390625,2.9150390625-2.67919921875,4.8798828125-.8876953125,1.9658203125-1.68017578125,4.2216796875-2.37548828125,6.767578125Z"/>
    </a>
  </g>
  <g>
    <path class="cls-1" d="M73.3466796875,81.2958984375c4.1943359375-1.60693359375,8.34326171875-2.5029296875,12.44482421875-2.68359375,4.09814453125-.18115234375,7.9501953125.349609375,11.55712890625,1.59130859375,3.60498046875,1.24169921875,6.84130859375,3.17822265625,9.7099609375,5.80908203125,2.8662109375,2.630859375,5.1533203125,5.87841796875,6.85791015625,9.73974609375,1.70361328125,3.86376953125,2.71875,8.4013671875,3.04443359375,13.6123046875.326171875,5.21337890625-.2470703125,10.99755859375-1.71875,17.35400390625l-5.103515625,27.3232421875c-.37109375,1.2412109375-.9140625,2.310546875-1.63330078125,3.20361328125-.59765625.71484375-1.455078125,1.36474609375-2.58056640625,1.955078125-1.12451171875.5908203125-2.5166015625.77197265625-4.17431640625.5439453125-1.7685546875-.14599609375-3.5810546875-.3447265625-5.4326171875-.599609375-1.85400390625-.25537109375-3.5029296875-.73095703125-4.947265625-1.42626953125-1.4462890625-.6953125-2.6201171875-1.7255859375-3.5244140625-3.09423828125-.90625-1.3662109375-1.29443359375-3.23388671875-1.166015625-5.6015625.630859375-4.58349609375,1.47119140625-9.06298828125,2.521484375-13.4423828125,1.05029296875-4.37646484375,2.04345703125-8.88623046875,2.98095703125-13.52783203125,1.171875-4.90673828125,1.43310546875-8.97021484375.7841796875-12.1904296875-.6513671875-3.22021484375-1.7841796875-5.6357421875-3.3994140625-7.25048828125-1.61767578125-1.6142578125-3.53515625-2.47412109375-5.75634765625-2.58251953125-2.2216796875-.10498046875-4.42236328125.53564453125-6.60107421875,1.92431640625-2.18017578125,1.390625-4.1083984375,3.484375-5.7841796875,6.28369140625-1.6787109375,2.8017578125-2.70263671875,6.26220703125-3.06982421875,10.38525390625-1.01025390625,9.50244140625-1.84033203125,18.77978515625-2.4912109375,27.83251953125-.2548828125,1.853515625-1.09033203125,3.40380859375-2.50341796875,4.64892578125-1.41552734375,1.2470703125-3.11669921875,1.8818359375-5.10693359375,1.90576171875-1.79638671875.05029296875-3.61376953125.07275390625-5.451171875.06884765625-1.8388671875-.005859375-3.51513671875-.28515625-5.02685546875-.8408203125-1.5146484375-.5576171875-2.810546875-1.4306640625-3.8876953125-2.62255859375-1.080078125-1.19189453125-1.65966796875-2.93505859375-1.7392578125-5.2333984375,1.04736328125-15.5576171875,2.712890625-31.25341796875,4.99365234375-47.09033203125,2.2783203125-15.83544921875,5.11328125-31.7197265625,8.49951171875-47.6513671875.2431640625-1.05908203125.55615234375-2.0595703125.9345703125-3.001953125.37646484375-.9404296875.888671875-1.76416015625,1.53369140625-2.4716796875.64208984375-.70654296875,1.45751953125-1.2158203125,2.4462890625-1.52734375.98583984375-.310546875,2.21142578125-.3662109375,3.6748046875-.16455078125,1.2529296875.2724609375,2.775390625.58203125,4.568359375.92724609375,1.78955078125.34619140625,3.470703125.7763671875,5.0400390625,1.29052734375,1.56884765625.513671875,2.86962890625,1.16552734375,3.90478515625,1.95361328125,1.03271484375.7900390625,1.470703125,1.767578125,1.3095703125,2.93798828125-2.14794921875,10.5380859375-4.05029296875,21.109375-5.7080078125,31.7119140625Z"/>
    <a xlink:href="https://www.notion.so/congruence/hypothesis-f8e01f142f324c2b8a2aaf7e4944f125?pvs=4">
      <path class="cls-1" d="M144.578125,122.95849609375c1.212890625,1.01318359375,2.20068359375,2.1708984375,2.96240234375,3.470703125.76123046875,1.3017578125,1.35302734375,2.68212890625,1.77685546875,4.14306640625.4228515625,1.46240234375.69970703125,2.98046875.830078125,4.55517578125.12890625,1.5751953125.1689453125,3.14404296875.1181640625,4.70556640625-.02490234375,3.1015625-.2685546875,6.201171875-.73095703125,9.29931640625-.46240234375,3.0986328125-1.0517578125,6.1943359375-1.7685546875,9.28466796875-.22509765625.875-.42138671875,1.59033203125-.58984375,2.14501953125-.16943359375.5556640625-.38232421875.99365234375-.63818359375,1.314453125-.2568359375.32080078125-.5810546875.55712890625-.9716796875.708984375-.3916015625.1513671875-.921875.26025390625-1.59130859375.32763671875-.61572265625-.03369140625-1.25439453125-.0888671875-1.9169921875-.16650390625-.66259765625-.07861328125-1.24365234375-.361328125-1.74365234375-.849609375-.470703125-.4462890625-.810546875-1.12646484375-1.01708984375-2.0390625-.20849609375-.91259765625-.19189453125-2.17041015625.04833984375-3.77294921875l.09228515625-.5322265625c-.86865234375-.25927734375-1.90869140625-.5302734375-3.1201171875-.81298828125-1.2109375-.28173828125-2.45361328125-.5419921875-3.72802734375-.78125-1.2744140625-.23828125-2.50537109375-.46044921875-3.69384765625-.666015625-1.18896484375-.205078125-2.19091796875-.37841796875-3.00634765625-.51953125-.0908203125.3134765625-.22705078125.837890625-.408203125,1.5732421875-.18212890625.736328125-.4267578125,1.4609375-.732421875,2.17529296875-.306640625.71435546875-.6630859375,1.34716796875-1.06787109375,1.89794921875-.40673828125.55126953125-.8779296875.7978515625-1.416015625.74169921875-.50390625-.05078125-1.07666015625-.11376953125-1.72119140625-.18798828125-.64453125-.07568359375-1.25341796875-.25390625-1.826171875-.53466796875-.578125-.24560546875-1.03515625-.61767578125-1.369140625-1.11328125-.33447265625-.49609375-.43994140625-1.20849609375-.3154296875-2.13720703125.18994140625-1.09912109375.4248046875-2.35546875.7060546875-3.7685546875.2802734375-1.41259765625.61865234375-2.943359375,1.01318359375-4.5927734375.3095703125-1.37158203125.68701171875-2.86767578125,1.13232421875-4.490234375.44384765625-1.62158203125.96728515625-3.275390625,1.5693359375-4.96142578125.6015625-1.68603515625,1.29296875-3.35693359375,2.072265625-5.01220703125s1.6669921875-3.2001953125,2.66455078125-4.63623046875c.99658203125-1.43505859375,2.1044921875-2.72314453125,3.3251953125-3.86376953125,1.21923828125-1.140625,2.59814453125-2.03515625,4.13525390625-2.68359375,1.8095703125-.74609375,3.68994140625-.951171875,5.6416015625-.6142578125,1.9501953125.33740234375,3.71240234375,1.13525390625,5.28515625,2.3935546875ZM127.46337890625,144.93408203125c2.26611328125.2099609375,4.51416015625.4619140625,6.74755859375.755859375,2.23095703125.29443359375,4.4599609375.67041015625,6.6826171875,1.126953125.54150390625-2.5.82421875-4.7705078125.8486328125-6.8125.0234375-2.04150390625-.13037109375-3.79443359375-.46142578125-5.2587890625-.33251953125-1.462890625-.8251953125-2.626953125-1.47998046875-3.48828125-.6552734375-.86181640625-1.3896484375-1.36376953125-2.2060546875-1.5048828125-.708984375-.123046875-1.5087890625.1142578125-2.396484375.708984375-.888671875.59521484375-1.78173828125,1.537109375-2.68017578125,2.8251953125-.89892578125,1.2880859375-1.79150390625,2.9150390625-2.67919921875,4.8798828125-.8876953125,1.9658203125-1.68017578125,4.2216796875-2.37548828125,6.767578125Z"/>
    </a>
  </g>
  <g>
    <path class="cls-2" d="M73.3466796875,81.2958984375c4.1943359375-1.60693359375,8.34326171875-2.5029296875,12.44482421875-2.68359375,4.09814453125-.18115234375,7.9501953125.349609375,11.55712890625,1.59130859375,3.60498046875,1.24169921875,6.84130859375,3.17822265625,9.7099609375,5.80908203125,2.8662109375,2.630859375,5.1533203125,5.87841796875,6.85791015625,9.73974609375,1.70361328125,3.86376953125,2.71875,8.4013671875,3.04443359375,13.6123046875.326171875,5.21337890625-.2470703125,10.99755859375-1.71875,17.35400390625l-5.103515625,27.3232421875c-.37109375,1.2412109375-.9140625,2.310546875-1.63330078125,3.20361328125-.59765625.71484375-1.455078125,1.36474609375-2.58056640625,1.955078125-1.12451171875.5908203125-2.5166015625.77197265625-4.17431640625.5439453125-1.7685546875-.14599609375-3.5810546875-.3447265625-5.4326171875-.599609375-1.85400390625-.25537109375-3.5029296875-.73095703125-4.947265625-1.42626953125-1.4462890625-.6953125-2.6201171875-1.7255859375-3.5244140625-3.09423828125-.90625-1.3662109375-1.29443359375-3.23388671875-1.166015625-5.6015625.630859375-4.58349609375,1.47119140625-9.06298828125,2.521484375-13.4423828125,1.05029296875-4.37646484375,2.04345703125-8.88623046875,2.98095703125-13.52783203125,1.171875-4.90673828125,1.43310546875-8.97021484375.7841796875-12.1904296875-.6513671875-3.22021484375-1.7841796875-5.6357421875-3.3994140625-7.25048828125-1.61767578125-1.6142578125-3.53515625-2.47412109375-5.75634765625-2.58251953125-2.2216796875-.10498046875-4.42236328125.53564453125-6.60107421875,1.92431640625-2.18017578125,1.390625-4.1083984375,3.484375-5.7841796875,6.28369140625-1.6787109375,2.8017578125-2.70263671875,6.26220703125-3.06982421875,10.38525390625-1.01025390625,9.50244140625-1.84033203125,18.77978515625-2.4912109375,27.83251953125-.2548828125,1.853515625-1.09033203125,3.40380859375-2.50341796875,4.64892578125-1.41552734375,1.2470703125-3.11669921875,1.8818359375-5.10693359375,1.90576171875-1.79638671875.05029296875-3.61376953125.07275390625-5.451171875.06884765625-1.8388671875-.005859375-3.51513671875-.28515625-5.02685546875-.8408203125-1.5146484375-.5576171875-2.810546875-1.4306640625-3.8876953125-2.62255859375-1.080078125-1.19189453125-1.65966796875-2.93505859375-1.7392578125-5.2333984375,1.04736328125-15.5576171875,2.712890625-31.25341796875,4.99365234375-47.09033203125,2.2783203125-15.83544921875,5.11328125-31.7197265625,8.49951171875-47.6513671875.2431640625-1.05908203125.55615234375-2.0595703125.9345703125-3.001953125.37646484375-.9404296875.888671875-1.76416015625,1.53369140625-2.4716796875.64208984375-.70654296875,1.45751953125-1.2158203125,2.4462890625-1.52734375.98583984375-.310546875,2.21142578125-.3662109375,3.6748046875-.16455078125,1.2529296875.2724609375,2.775390625.58203125,4.568359375.92724609375,1.78955078125.34619140625,3.470703125.7763671875,5.0400390625,1.29052734375,1.56884765625.513671875,2.86962890625,1.16552734375,3.90478515625,1.95361328125,1.03271484375.7900390625,1.470703125,1.767578125,1.3095703125,2.93798828125-2.14794921875,10.5380859375-4.05029296875,21.109375-5.7080078125,31.7119140625Z"/>
    <a xlink:href="https://www.notion.so/congruence/hypothesis-f8e01f142f324c2b8a2aaf7e4944f125?pvs=4">
      <path class="cls-2" d="M144.578125,122.95849609375c1.212890625,1.01318359375,2.20068359375,2.1708984375,2.96240234375,3.470703125.76123046875,1.3017578125,1.35302734375,2.68212890625,1.77685546875,4.14306640625.4228515625,1.46240234375.69970703125,2.98046875.830078125,4.55517578125.12890625,1.5751953125.1689453125,3.14404296875.1181640625,4.70556640625-.02490234375,3.1015625-.2685546875,6.201171875-.73095703125,9.29931640625-.46240234375,3.0986328125-1.0517578125,6.1943359375-1.7685546875,9.28466796875-.22509765625.875-.42138671875,1.59033203125-.58984375,2.14501953125-.16943359375.5556640625-.38232421875.99365234375-.63818359375,1.314453125-.2568359375.32080078125-.5810546875.55712890625-.9716796875.708984375-.3916015625.1513671875-.921875.26025390625-1.59130859375.32763671875-.61572265625-.03369140625-1.25439453125-.0888671875-1.9169921875-.16650390625-.66259765625-.07861328125-1.24365234375-.361328125-1.74365234375-.849609375-.470703125-.4462890625-.810546875-1.12646484375-1.01708984375-2.0390625-.20849609375-.91259765625-.19189453125-2.17041015625.04833984375-3.77294921875l.09228515625-.5322265625c-.86865234375-.25927734375-1.90869140625-.5302734375-3.1201171875-.81298828125-1.2109375-.28173828125-2.45361328125-.5419921875-3.72802734375-.78125-1.2744140625-.23828125-2.50537109375-.46044921875-3.69384765625-.666015625-1.18896484375-.205078125-2.19091796875-.37841796875-3.00634765625-.51953125-.0908203125.3134765625-.22705078125.837890625-.408203125,1.5732421875-.18212890625.736328125-.4267578125,1.4609375-.732421875,2.17529296875-.306640625.71435546875-.6630859375,1.34716796875-1.06787109375,1.89794921875-.40673828125.55126953125-.8779296875.7978515625-1.416015625.74169921875-.50390625-.05078125-1.07666015625-.11376953125-1.72119140625-.18798828125-.64453125-.07568359375-1.25341796875-.25390625-1.826171875-.53466796875-.578125-.24560546875-1.03515625-.61767578125-1.369140625-1.11328125-.33447265625-.49609375-.43994140625-1.20849609375-.3154296875-2.13720703125.18994140625-1.09912109375.4248046875-2.35546875.7060546875-3.7685546875.2802734375-1.41259765625.61865234375-2.943359375,1.01318359375-4.5927734375.3095703125-1.37158203125.68701171875-2.86767578125,1.13232421875-4.490234375.44384765625-1.62158203125.96728515625-3.275390625,1.5693359375-4.96142578125.6015625-1.68603515625,1.29296875-3.35693359375,2.072265625-5.01220703125s1.6669921875-3.2001953125,2.66455078125-4.63623046875c.99658203125-1.43505859375,2.1044921875-2.72314453125,3.3251953125-3.86376953125,1.21923828125-1.140625,2.59814453125-2.03515625,4.13525390625-2.68359375,1.8095703125-.74609375,3.68994140625-.951171875,5.6416015625-.6142578125,1.9501953125.33740234375,3.71240234375,1.13525390625,5.28515625,2.3935546875ZM127.46337890625,144.93408203125c2.26611328125.2099609375,4.51416015625.4619140625,6.74755859375.755859375,2.23095703125.29443359375,4.4599609375.67041015625,6.6826171875,1.126953125.54150390625-2.5.82421875-4.7705078125.8486328125-6.8125.0234375-2.04150390625-.13037109375-3.79443359375-.46142578125-5.2587890625-.33251953125-1.462890625-.8251953125-2.626953125-1.47998046875-3.48828125-.6552734375-.86181640625-1.3896484375-1.36376953125-2.2060546875-1.5048828125-.708984375-.123046875-1.5087890625.1142578125-2.396484375.708984375-.888671875.59521484375-1.78173828125,1.537109375-2.68017578125,2.8251953125-.89892578125,1.2880859375-1.79150390625,2.9150390625-2.67919921875,4.8798828125-.8876953125,1.9658203125-1.68017578125,4.2216796875-2.37548828125,6.767578125Z"/>
    </a>
  </g>
  <g>
    <path class="cls-3" d="M73.3466796875,81.2958984375c4.1943359375-1.60693359375,8.34326171875-2.5029296875,12.44482421875-2.68359375,4.09814453125-.18115234375,7.9501953125.349609375,11.55712890625,1.59130859375,3.60498046875,1.24169921875,6.84130859375,3.17822265625,9.7099609375,5.80908203125,2.8662109375,2.630859375,5.1533203125,5.87841796875,6.85791015625,9.73974609375,1.70361328125,3.86376953125,2.71875,8.4013671875,3.04443359375,13.6123046875.326171875,5.21337890625-.2470703125,10.99755859375-1.71875,17.35400390625l-5.103515625,27.3232421875c-.37109375,1.2412109375-.9140625,2.310546875-1.63330078125,3.20361328125-.59765625.71484375-1.455078125,1.36474609375-2.58056640625,1.955078125-1.12451171875.5908203125-2.5166015625.77197265625-4.17431640625.5439453125-1.7685546875-.14599609375-3.5810546875-.3447265625-5.4326171875-.599609375-1.85400390625-.25537109375-3.5029296875-.73095703125-4.947265625-1.42626953125-1.4462890625-.6953125-2.6201171875-1.7255859375-3.5244140625-3.09423828125-.90625-1.3662109375-1.29443359375-3.23388671875-1.166015625-5.6015625.630859375-4.58349609375,1.47119140625-9.06298828125,2.521484375-13.4423828125,1.05029296875-4.37646484375,2.04345703125-8.88623046875,2.98095703125-13.52783203125,1.171875-4.90673828125,1.43310546875-8.97021484375.7841796875-12.1904296875-.6513671875-3.22021484375-1.7841796875-5.6357421875-3.3994140625-7.25048828125-1.61767578125-1.6142578125-3.53515625-2.47412109375-5.75634765625-2.58251953125-2.2216796875-.10498046875-4.42236328125.53564453125-6.60107421875,1.92431640625-2.18017578125,1.390625-4.1083984375,3.484375-5.7841796875,6.28369140625-1.6787109375,2.8017578125-2.70263671875,6.26220703125-3.06982421875,10.38525390625-1.01025390625,9.50244140625-1.84033203125,18.77978515625-2.4912109375,27.83251953125-.2548828125,1.853515625-1.09033203125,3.40380859375-2.50341796875,4.64892578125-1.41552734375,1.2470703125-3.11669921875,1.8818359375-5.10693359375,1.90576171875-1.79638671875.05029296875-3.61376953125.07275390625-5.451171875.06884765625-1.8388671875-.005859375-3.51513671875-.28515625-5.02685546875-.8408203125-1.5146484375-.5576171875-2.810546875-1.4306640625-3.8876953125-2.62255859375-1.080078125-1.19189453125-1.65966796875-2.93505859375-1.7392578125-5.2333984375,1.04736328125-15.5576171875,2.712890625-31.25341796875,4.99365234375-47.09033203125,2.2783203125-15.83544921875,5.11328125-31.7197265625,8.49951171875-47.6513671875.2431640625-1.05908203125.55615234375-2.0595703125.9345703125-3.001953125.37646484375-.9404296875.888671875-1.76416015625,1.53369140625-2.4716796875.64208984375-.70654296875,1.45751953125-1.2158203125,2.4462890625-1.52734375.98583984375-.310546875,2.21142578125-.3662109375,3.6748046875-.16455078125,1.2529296875.2724609375,2.775390625.58203125,4.568359375.92724609375,1.78955078125.34619140625,3.470703125.7763671875,5.0400390625,1.29052734375,1.56884765625.513671875,2.86962890625,1.16552734375,3.90478515625,1.95361328125,1.03271484375.7900390625,1.470703125,1.767578125,1.3095703125,2.93798828125-2.14794921875,10.5380859375-4.05029296875,21.109375-5.7080078125,31.7119140625Z"/>
    <a xlink:href="https://www.notion.so/congruence/hypothesis-f8e01f142f324c2b8a2aaf7e4944f125?pvs=4">
      <path class="cls-3" d="M144.578125,122.95849609375c1.212890625,1.01318359375,2.20068359375,2.1708984375,2.96240234375,3.470703125.76123046875,1.3017578125,1.35302734375,2.68212890625,1.77685546875,4.14306640625.4228515625,1.46240234375.69970703125,2.98046875.830078125,4.55517578125.12890625,1.5751953125.1689453125,3.14404296875.1181640625,4.70556640625-.02490234375,3.1015625-.2685546875,6.201171875-.73095703125,9.29931640625-.46240234375,3.0986328125-1.0517578125,6.1943359375-1.7685546875,9.28466796875-.22509765625.875-.42138671875,1.59033203125-.58984375,2.14501953125-.16943359375.5556640625-.38232421875.99365234375-.63818359375,1.314453125-.2568359375.32080078125-.5810546875.55712890625-.9716796875.708984375-.3916015625.1513671875-.921875.26025390625-1.59130859375.32763671875-.61572265625-.03369140625-1.25439453125-.0888671875-1.9169921875-.16650390625-.66259765625-.07861328125-1.24365234375-.361328125-1.74365234375-.849609375-.470703125-.4462890625-.810546875-1.12646484375-1.01708984375-2.0390625-.20849609375-.91259765625-.19189453125-2.17041015625.04833984375-3.77294921875l.09228515625-.5322265625c-.86865234375-.25927734375-1.90869140625-.5302734375-3.1201171875-.81298828125-1.2109375-.28173828125-2.45361328125-.5419921875-3.72802734375-.78125-1.2744140625-.23828125-2.50537109375-.46044921875-3.69384765625-.666015625-1.18896484375-.205078125-2.19091796875-.37841796875-3.00634765625-.51953125-.0908203125.3134765625-.22705078125.837890625-.408203125,1.5732421875-.18212890625.736328125-.4267578125,1.4609375-.732421875,2.17529296875-.306640625.71435546875-.6630859375,1.34716796875-1.06787109375,1.89794921875-.40673828125.55126953125-.8779296875.7978515625-1.416015625.74169921875-.50390625-.05078125-1.07666015625-.11376953125-1.72119140625-.18798828125-.64453125-.07568359375-1.25341796875-.25390625-1.826171875-.53466796875-.578125-.24560546875-1.03515625-.61767578125-1.369140625-1.11328125-.33447265625-.49609375-.43994140625-1.20849609375-.3154296875-2.13720703125.18994140625-1.09912109375.4248046875-2.35546875.7060546875-3.7685546875.2802734375-1.41259765625.61865234375-2.943359375,1.01318359375-4.5927734375.3095703125-1.37158203125.68701171875-2.86767578125,1.13232421875-4.490234375.44384765625-1.62158203125.96728515625-3.275390625,1.5693359375-4.96142578125.6015625-1.68603515625,1.29296875-3.35693359375,2.072265625-5.01220703125s1.6669921875-3.2001953125,2.66455078125-4.63623046875c.99658203125-1.43505859375,2.1044921875-2.72314453125,3.3251953125-3.86376953125,1.21923828125-1.140625,2.59814453125-2.03515625,4.13525390625-2.68359375,1.8095703125-.74609375,3.68994140625-.951171875,5.6416015625-.6142578125,1.9501953125.33740234375,3.71240234375,1.13525390625,5.28515625,2.3935546875ZM127.46337890625,144.93408203125c2.26611328125.2099609375,4.51416015625.4619140625,6.74755859375.755859375,2.23095703125.29443359375,4.4599609375.67041015625,6.6826171875,1.126953125.54150390625-2.5.82421875-4.7705078125.8486328125-6.8125.0234375-2.04150390625-.13037109375-3.79443359375-.46142578125-5.2587890625-.33251953125-1.462890625-.8251953125-2.626953125-1.47998046875-3.48828125-.6552734375-.86181640625-1.3896484375-1.36376953125-2.2060546875-1.5048828125-.708984375-.123046875-1.5087890625.1142578125-2.396484375.708984375-.888671875.59521484375-1.78173828125,1.537109375-2.68017578125,2.8251953125-.89892578125,1.2880859375-1.79150390625,2.9150390625-2.67919921875,4.8798828125-.8876953125,1.9658203125-1.68017578125,4.2216796875-2.37548828125,6.767578125Z"/>
    </a>
  </g>
</svg>