<?xml version="1.0" encoding="UTF-8"?>
<svg id="Content" xmlns="http://www.w3.org/2000/svg" xmlns:xlink="http://www.w3.org/1999/xlink" viewBox="0 0 280 280">
  <defs>
    <style>
      .cls-1 {
        stroke: #665451;
        stroke-width: 50px;
      }

      .cls-1, .cls-2 {
        fill: none;
        stroke-linecap: round;
        stroke-linejoin: round;
      }

      .cls-3 {
        fill: #fff;
      }

      .cls-2 {
        stroke: #998675;
        stroke-width: 2px;
      }
    </style>
  </defs>
  <g>
    <path d="M65.6865234375,76.14599609375c4.1943359375-1.60693359375,8.34375-2.5029296875,12.4453125-2.68359375,4.09765625-.18115234375,7.9501953125.349609375,11.556640625,1.59130859375,3.60546875,1.24169921875,6.841796875,3.17822265625,9.7099609375,5.80908203125,2.8662109375,2.630859375,5.1533203125,5.87841796875,6.8583984375,9.73974609375,1.703125,3.86376953125,2.71875,8.4013671875,3.0439453125,13.6123046875.326171875,5.21337890625-.2470703125,10.99755859375-1.71875,17.35400390625l-5.103515625,27.3232421875c-.37109375,1.2412109375-.9140625,2.310546875-1.6328125,3.20361328125-.59765625.71484375-1.455078125,1.36474609375-2.5810546875,1.955078125-1.1240234375.5908203125-2.5166015625.77197265625-4.173828125.5439453125-1.7685546875-.14599609375-3.5810546875-.3447265625-5.4326171875-.599609375-1.8544921875-.25537109375-3.5029296875-.73095703125-4.947265625-1.42626953125-1.4462890625-.6953125-2.6201171875-1.7255859375-3.5244140625-3.09423828125-.90625-1.3662109375-1.294921875-3.23388671875-1.166015625-5.6015625.630859375-4.58349609375,1.470703125-9.06298828125,2.521484375-13.4423828125,1.0498046875-4.37646484375,2.04296875-8.88623046875,2.98046875-13.52783203125,1.171875-4.90673828125,1.43359375-8.97021484375.7841796875-12.1904296875-.6513671875-3.22021484375-1.7841796875-5.6357421875-3.3994140625-7.25048828125-1.6171875-1.6142578125-3.53515625-2.47412109375-5.755859375-2.58251953125-2.2216796875-.10498046875-4.4228515625.53564453125-6.6015625,1.92431640625-2.1796875,1.390625-4.1083984375,3.484375-5.7841796875,6.28369140625-1.6787109375,2.8017578125-2.7021484375,6.26220703125-3.0693359375,10.38525390625-1.0107421875,9.50244140625-1.8408203125,18.77978515625-2.4912109375,27.83251953125-.2548828125,1.853515625-1.0908203125,3.40380859375-2.50390625,4.64892578125-1.4150390625,1.2470703125-3.1162109375,1.8818359375-5.1064453125,1.90576171875-1.796875.05029296875-3.6142578125.07275390625-5.451171875.06884765625-1.8388671875-.005859375-3.515625-.28515625-5.02734375-.8408203125-1.5146484375-.5576171875-2.810546875-1.4306640625-3.8876953125-2.62255859375-1.080078125-1.19189453125-1.6591796875-2.93505859375-1.7392578125-5.2333984375,1.0478515625-15.5576171875,2.712890625-31.25341796875,4.994140625-47.09033203125,2.2783203125-15.83544921875,5.11328125-31.7197265625,8.4990234375-47.6513671875.2431640625-1.05908203125.556640625-2.0595703125.9345703125-3.001953125.376953125-.9404296875.888671875-1.76416015625,1.5341796875-2.4716796875.6416015625-.70654296875,1.45703125-1.2158203125,2.4462890625-1.52734375.9853515625-.310546875,2.2109375-.3662109375,3.6748046875-.16455078125,1.2529296875.2724609375,2.775390625.58203125,4.568359375.92724609375,1.7890625.34619140625,3.470703125.7763671875,5.0400390625,1.29052734375,1.568359375.513671875,2.869140625,1.16552734375,3.904296875,1.95361328125,1.033203125.7900390625,1.470703125,1.767578125,1.3095703125,2.93798828125-2.1474609375,10.5380859375-4.0498046875,21.109375-5.7080078125,31.7119140625Z"/>
    <a xlink:href="https://www.notion.so/congruence/hypothesis-f8e01f142f324c2b8a2aaf7e4944f125?pvs=4">
      <path d="M136.91796875,117.80859375c1.212890625,1.01318359375,2.201171875,2.1708984375,2.962890625,3.470703125.7607421875,1.3017578125,1.3525390625,2.68212890625,1.7763671875,4.14306640625.4228515625,1.46240234375.7001953125,2.98046875.830078125,4.55517578125.12890625,1.5751953125.1689453125,3.14404296875.1181640625,4.70556640625-.0244140625,3.1015625-.2685546875,6.201171875-.73046875,9.29931640625-.462890625,3.0986328125-1.0517578125,6.1943359375-1.7685546875,9.28466796875-.2255859375.875-.421875,1.59033203125-.58984375,2.14501953125-.169921875.5556640625-.3828125.99365234375-.638671875,1.314453125-.2568359375.32080078125-.5810546875.55712890625-.9716796875.708984375-.3916015625.1513671875-.921875.26025390625-1.5908203125.32763671875-.6162109375-.03369140625-1.2548828125-.0888671875-1.9169921875-.16650390625-.6630859375-.07861328125-1.244140625-.361328125-1.744140625-.849609375-.470703125-.4462890625-.810546875-1.12646484375-1.0166015625-2.0390625-.208984375-.91259765625-.1923828125-2.17041015625.0478515625-3.77294921875l.0927734375-.5322265625c-.869140625-.25927734375-1.9091796875-.5302734375-3.1201171875-.81298828125-1.2109375-.28173828125-2.4541015625-.5419921875-3.728515625-.78125-1.2744140625-.23828125-2.5048828125-.46044921875-3.693359375-.666015625-1.189453125-.205078125-2.19140625-.37841796875-3.0068359375-.51953125-.0908203125.3134765625-.2265625.837890625-.408203125,1.5732421875-.181640625.736328125-.4267578125,1.4609375-.732421875,2.17529296875-.306640625.71435546875-.6630859375,1.34716796875-1.0673828125,1.89794921875-.4072265625.55126953125-.8779296875.7978515625-1.416015625.74169921875-.50390625-.05078125-1.0771484375-.11376953125-1.7216796875-.18798828125-.64453125-.07568359375-1.2529296875-.25390625-1.826171875-.53466796875-.578125-.24560546875-1.03515625-.61767578125-1.369140625-1.11328125-.333984375-.49609375-.439453125-1.20849609375-.3154296875-2.13720703125.1904296875-1.09912109375.4248046875-2.35546875.7060546875-3.7685546875.2802734375-1.41259765625.619140625-2.943359375,1.013671875-4.5927734375.3095703125-1.37158203125.6865234375-2.86767578125,1.1318359375-4.490234375.4443359375-1.62158203125.9677734375-3.275390625,1.5693359375-4.96142578125s1.29296875-3.35693359375,2.072265625-5.01220703125,1.6669921875-3.2001953125,2.6650390625-4.63623046875c.99609375-1.43505859375,2.1044921875-2.72314453125,3.3251953125-3.86376953125,1.21875-1.140625,2.59765625-2.03515625,4.134765625-2.68359375,1.8095703125-.74609375,3.6904296875-.951171875,5.6416015625-.6142578125,1.9501953125.33740234375,3.712890625,1.13525390625,5.28515625,2.3935546875ZM119.8037109375,139.7841796875c2.265625.2099609375,4.513671875.4619140625,6.7470703125.755859375,2.2314453125.29443359375,4.4599609375.67041015625,6.6826171875,1.126953125.5419921875-2.5.82421875-4.7705078125.8486328125-6.8125.0234375-2.04150390625-.1298828125-3.79443359375-.4609375-5.2587890625-.3330078125-1.462890625-.8251953125-2.626953125-1.48046875-3.48828125-.6552734375-.86181640625-1.3896484375-1.36376953125-2.2060546875-1.5048828125-.708984375-.123046875-1.5087890625.1142578125-2.396484375.708984375-.888671875.59521484375-1.78125,1.537109375-2.6796875,2.8251953125-.8994140625,1.2880859375-1.7919921875,2.9150390625-2.6796875,4.8798828125-.8876953125,1.9658203125-1.6796875,4.2216796875-2.375,6.767578125Z"/>
    </a>
  </g>
  <g>
    <path class="cls-1" d="M65.6865234375,76.14599609375c4.1943359375-1.60693359375,8.34375-2.5029296875,12.4453125-2.68359375,4.09765625-.18115234375,7.9501953125.349609375,11.556640625,1.59130859375,3.60546875,1.24169921875,6.841796875,3.17822265625,9.7099609375,5.80908203125,2.8662109375,2.630859375,5.1533203125,5.87841796875,6.8583984375,9.73974609375,1.703125,3.86376953125,2.71875,8.4013671875,3.0439453125,13.6123046875.326171875,5.21337890625-.2470703125,10.99755859375-1.71875,17.35400390625l-5.103515625,27.3232421875c-.37109375,1.2412109375-.9140625,2.310546875-1.6328125,3.20361328125-.59765625.71484375-1.455078125,1.36474609375-2.5810546875,1.955078125-1.1240234375.5908203125-2.5166015625.77197265625-4.173828125.5439453125-1.7685546875-.14599609375-3.5810546875-.3447265625-5.4326171875-.599609375-1.8544921875-.25537109375-3.5029296875-.73095703125-4.947265625-1.42626953125-1.4462890625-.6953125-2.6201171875-1.7255859375-3.5244140625-3.09423828125-.90625-1.3662109375-1.294921875-3.23388671875-1.166015625-5.6015625.630859375-4.58349609375,1.470703125-9.06298828125,2.521484375-13.4423828125,1.0498046875-4.37646484375,2.04296875-8.88623046875,2.98046875-13.52783203125,1.171875-4.90673828125,1.43359375-8.97021484375.7841796875-12.1904296875-.6513671875-3.22021484375-1.7841796875-5.6357421875-3.3994140625-7.25048828125-1.6171875-1.6142578125-3.53515625-2.47412109375-5.755859375-2.58251953125-2.2216796875-.10498046875-4.4228515625.53564453125-6.6015625,1.92431640625-2.1796875,1.390625-4.1083984375,3.484375-5.7841796875,6.28369140625-1.6787109375,2.8017578125-2.7021484375,6.26220703125-3.0693359375,10.38525390625-1.0107421875,9.50244140625-1.8408203125,18.77978515625-2.4912109375,27.83251953125-.2548828125,1.853515625-1.0908203125,3.40380859375-2.50390625,4.64892578125-1.4150390625,1.2470703125-3.1162109375,1.8818359375-5.1064453125,1.90576171875-1.796875.05029296875-3.6142578125.07275390625-5.451171875.06884765625-1.8388671875-.005859375-3.515625-.28515625-5.02734375-.8408203125-1.5146484375-.5576171875-2.810546875-1.4306640625-3.8876953125-2.62255859375-1.080078125-1.19189453125-1.6591796875-2.93505859375-1.7392578125-5.2333984375,1.0478515625-15.5576171875,2.712890625-31.25341796875,4.994140625-47.09033203125,2.2783203125-15.83544921875,5.11328125-31.7197265625,8.4990234375-47.6513671875.2431640625-1.05908203125.556640625-2.0595703125.9345703125-3.001953125.376953125-.9404296875.888671875-1.76416015625,1.5341796875-2.4716796875.6416015625-.70654296875,1.45703125-1.2158203125,2.4462890625-1.52734375.9853515625-.310546875,2.2109375-.3662109375,3.6748046875-.16455078125,1.2529296875.2724609375,2.775390625.58203125,4.568359375.92724609375,1.7890625.34619140625,3.470703125.7763671875,5.0400390625,1.29052734375,1.568359375.513671875,2.869140625,1.16552734375,3.904296875,1.95361328125,1.033203125.7900390625,1.470703125,1.767578125,1.3095703125,2.93798828125-2.1474609375,10.5380859375-4.0498046875,21.109375-5.7080078125,31.7119140625Z"/>
    <a xlink:href="https://www.notion.so/congruence/hypothesis-f8e01f142f324c2b8a2aaf7e4944f125?pvs=4">
      <path class="cls-1" d="M136.91796875,117.80859375c1.212890625,1.01318359375,2.201171875,2.1708984375,2.962890625,3.470703125.7607421875,1.3017578125,1.3525390625,2.68212890625,1.7763671875,4.14306640625.4228515625,1.46240234375.7001953125,2.98046875.830078125,4.55517578125.12890625,1.5751953125.1689453125,3.14404296875.1181640625,4.70556640625-.0244140625,3.1015625-.2685546875,6.201171875-.73046875,9.29931640625-.462890625,3.0986328125-1.0517578125,6.1943359375-1.7685546875,9.28466796875-.2255859375.875-.421875,1.59033203125-.58984375,2.14501953125-.169921875.5556640625-.3828125.99365234375-.638671875,1.314453125-.2568359375.32080078125-.5810546875.55712890625-.9716796875.708984375-.3916015625.1513671875-.921875.26025390625-1.5908203125.32763671875-.6162109375-.03369140625-1.2548828125-.0888671875-1.9169921875-.16650390625-.6630859375-.07861328125-1.244140625-.361328125-1.744140625-.849609375-.470703125-.4462890625-.810546875-1.12646484375-1.0166015625-2.0390625-.208984375-.91259765625-.1923828125-2.17041015625.0478515625-3.77294921875l.0927734375-.5322265625c-.869140625-.25927734375-1.9091796875-.5302734375-3.1201171875-.81298828125-1.2109375-.28173828125-2.4541015625-.5419921875-3.728515625-.78125-1.2744140625-.23828125-2.5048828125-.46044921875-3.693359375-.666015625-1.189453125-.205078125-2.19140625-.37841796875-3.0068359375-.51953125-.0908203125.3134765625-.2265625.837890625-.408203125,1.5732421875-.181640625.736328125-.4267578125,1.4609375-.732421875,2.17529296875-.306640625.71435546875-.6630859375,1.34716796875-1.0673828125,1.89794921875-.4072265625.55126953125-.8779296875.7978515625-1.416015625.74169921875-.50390625-.05078125-1.0771484375-.11376953125-1.7216796875-.18798828125-.64453125-.07568359375-1.2529296875-.25390625-1.826171875-.53466796875-.578125-.24560546875-1.03515625-.61767578125-1.369140625-1.11328125-.333984375-.49609375-.439453125-1.20849609375-.3154296875-2.13720703125.1904296875-1.09912109375.4248046875-2.35546875.7060546875-3.7685546875.2802734375-1.41259765625.619140625-2.943359375,1.013671875-4.5927734375.3095703125-1.37158203125.6865234375-2.86767578125,1.1318359375-4.490234375.4443359375-1.62158203125.9677734375-3.275390625,1.5693359375-4.96142578125s1.29296875-3.35693359375,2.072265625-5.01220703125,1.6669921875-3.2001953125,2.6650390625-4.63623046875c.99609375-1.43505859375,2.1044921875-2.72314453125,3.3251953125-3.86376953125,1.21875-1.140625,2.59765625-2.03515625,4.134765625-2.68359375,1.8095703125-.74609375,3.6904296875-.951171875,5.6416015625-.6142578125,1.9501953125.33740234375,3.712890625,1.13525390625,5.28515625,2.3935546875ZM119.8037109375,139.7841796875c2.265625.2099609375,4.513671875.4619140625,6.7470703125.755859375,2.2314453125.29443359375,4.4599609375.67041015625,6.6826171875,1.126953125.5419921875-2.5.82421875-4.7705078125.8486328125-6.8125.0234375-2.04150390625-.1298828125-3.79443359375-.4609375-5.2587890625-.3330078125-1.462890625-.8251953125-2.626953125-1.48046875-3.48828125-.6552734375-.86181640625-1.3896484375-1.36376953125-2.2060546875-1.5048828125-.708984375-.123046875-1.5087890625.1142578125-2.396484375.708984375-.888671875.59521484375-1.78125,1.537109375-2.6796875,2.8251953125-.8994140625,1.2880859375-1.7919921875,2.9150390625-2.6796875,4.8798828125-.8876953125,1.9658203125-1.6796875,4.2216796875-2.375,6.767578125Z"/>
    </a>
  </g>
  <g>
    <path class="cls-2" d="M65.6865234375,76.14599609375c4.1943359375-1.60693359375,8.34375-2.5029296875,12.4453125-2.68359375,4.09765625-.18115234375,7.9501953125.349609375,11.556640625,1.59130859375,3.60546875,1.24169921875,6.841796875,3.17822265625,9.7099609375,5.80908203125,2.8662109375,2.630859375,5.1533203125,5.87841796875,6.8583984375,9.73974609375,1.703125,3.86376953125,2.71875,8.4013671875,3.0439453125,13.6123046875.326171875,5.21337890625-.2470703125,10.99755859375-1.71875,17.35400390625l-5.103515625,27.3232421875c-.37109375,1.2412109375-.9140625,2.310546875-1.6328125,3.20361328125-.59765625.71484375-1.455078125,1.36474609375-2.5810546875,1.955078125-1.1240234375.5908203125-2.5166015625.77197265625-4.173828125.5439453125-1.7685546875-.14599609375-3.5810546875-.3447265625-5.4326171875-.599609375-1.8544921875-.25537109375-3.5029296875-.73095703125-4.947265625-1.42626953125-1.4462890625-.6953125-2.6201171875-1.7255859375-3.5244140625-3.09423828125-.90625-1.3662109375-1.294921875-3.23388671875-1.166015625-5.6015625.630859375-4.58349609375,1.470703125-9.06298828125,2.521484375-13.4423828125,1.0498046875-4.37646484375,2.04296875-8.88623046875,2.98046875-13.52783203125,1.171875-4.90673828125,1.43359375-8.97021484375.7841796875-12.1904296875-.6513671875-3.22021484375-1.7841796875-5.6357421875-3.3994140625-7.25048828125-1.6171875-1.6142578125-3.53515625-2.47412109375-5.755859375-2.58251953125-2.2216796875-.10498046875-4.4228515625.53564453125-6.6015625,1.92431640625-2.1796875,1.390625-4.1083984375,3.484375-5.7841796875,6.28369140625-1.6787109375,2.8017578125-2.7021484375,6.26220703125-3.0693359375,10.38525390625-1.0107421875,9.50244140625-1.8408203125,18.77978515625-2.4912109375,27.83251953125-.2548828125,1.853515625-1.0908203125,3.40380859375-2.50390625,4.64892578125-1.4150390625,1.2470703125-3.1162109375,1.8818359375-5.1064453125,1.90576171875-1.796875.05029296875-3.6142578125.07275390625-5.451171875.06884765625-1.8388671875-.005859375-3.515625-.28515625-5.02734375-.8408203125-1.5146484375-.5576171875-2.810546875-1.4306640625-3.8876953125-2.62255859375-1.080078125-1.19189453125-1.6591796875-2.93505859375-1.7392578125-5.2333984375,1.0478515625-15.5576171875,2.712890625-31.25341796875,4.994140625-47.09033203125,2.2783203125-15.83544921875,5.11328125-31.7197265625,8.4990234375-47.6513671875.2431640625-1.05908203125.556640625-2.0595703125.9345703125-3.001953125.376953125-.9404296875.888671875-1.76416015625,1.5341796875-2.4716796875.6416015625-.70654296875,1.45703125-1.2158203125,2.4462890625-1.52734375.9853515625-.310546875,2.2109375-.3662109375,3.6748046875-.16455078125,1.2529296875.2724609375,2.775390625.58203125,4.568359375.92724609375,1.7890625.34619140625,3.470703125.7763671875,5.0400390625,1.29052734375,1.568359375.513671875,2.869140625,1.16552734375,3.904296875,1.95361328125,1.033203125.7900390625,1.470703125,1.767578125,1.3095703125,2.93798828125-2.1474609375,10.5380859375-4.0498046875,21.109375-5.7080078125,31.7119140625Z"/>
    <a xlink:href="https://www.notion.so/congruence/hypothesis-f8e01f142f324c2b8a2aaf7e4944f125?pvs=4">
      <path class="cls-2" d="M136.91796875,117.80859375c1.212890625,1.01318359375,2.201171875,2.1708984375,2.962890625,3.470703125.7607421875,1.3017578125,1.3525390625,2.68212890625,1.7763671875,4.14306640625.4228515625,1.46240234375.7001953125,2.98046875.830078125,4.55517578125.12890625,1.5751953125.1689453125,3.14404296875.1181640625,4.70556640625-.0244140625,3.1015625-.2685546875,6.201171875-.73046875,9.29931640625-.462890625,3.0986328125-1.0517578125,6.1943359375-1.7685546875,9.28466796875-.2255859375.875-.421875,1.59033203125-.58984375,2.14501953125-.169921875.5556640625-.3828125.99365234375-.638671875,1.314453125-.2568359375.32080078125-.5810546875.55712890625-.9716796875.708984375-.3916015625.1513671875-.921875.26025390625-1.5908203125.32763671875-.6162109375-.03369140625-1.2548828125-.0888671875-1.9169921875-.16650390625-.6630859375-.07861328125-1.244140625-.361328125-1.744140625-.849609375-.470703125-.4462890625-.810546875-1.12646484375-1.0166015625-2.0390625-.208984375-.91259765625-.1923828125-2.17041015625.0478515625-3.77294921875l.0927734375-.5322265625c-.869140625-.25927734375-1.9091796875-.5302734375-3.1201171875-.81298828125-1.2109375-.28173828125-2.4541015625-.5419921875-3.728515625-.78125-1.2744140625-.23828125-2.5048828125-.46044921875-3.693359375-.666015625-1.189453125-.205078125-2.19140625-.37841796875-3.0068359375-.51953125-.0908203125.3134765625-.2265625.837890625-.408203125,1.5732421875-.181640625.736328125-.4267578125,1.4609375-.732421875,2.17529296875-.306640625.71435546875-.6630859375,1.34716796875-1.0673828125,1.89794921875-.4072265625.55126953125-.8779296875.7978515625-1.416015625.74169921875-.50390625-.05078125-1.0771484375-.11376953125-1.7216796875-.18798828125-.64453125-.07568359375-1.2529296875-.25390625-1.826171875-.53466796875-.578125-.24560546875-1.03515625-.61767578125-1.369140625-1.11328125-.333984375-.49609375-.439453125-1.20849609375-.3154296875-2.13720703125.1904296875-1.09912109375.4248046875-2.35546875.7060546875-3.7685546875.2802734375-1.41259765625.619140625-2.943359375,1.013671875-4.5927734375.3095703125-1.37158203125.6865234375-2.86767578125,1.1318359375-4.490234375.4443359375-1.62158203125.9677734375-3.275390625,1.5693359375-4.96142578125s1.29296875-3.35693359375,2.072265625-5.01220703125,1.6669921875-3.2001953125,2.6650390625-4.63623046875c.99609375-1.43505859375,2.1044921875-2.72314453125,3.3251953125-3.86376953125,1.21875-1.140625,2.59765625-2.03515625,4.134765625-2.68359375,1.8095703125-.74609375,3.6904296875-.951171875,5.6416015625-.6142578125,1.9501953125.33740234375,3.712890625,1.13525390625,5.28515625,2.3935546875ZM119.8037109375,139.7841796875c2.265625.2099609375,4.513671875.4619140625,6.7470703125.755859375,2.2314453125.29443359375,4.4599609375.67041015625,6.6826171875,1.126953125.5419921875-2.5.82421875-4.7705078125.8486328125-6.8125.0234375-2.04150390625-.1298828125-3.79443359375-.4609375-5.2587890625-.3330078125-1.462890625-.8251953125-2.626953125-1.48046875-3.48828125-.6552734375-.86181640625-1.3896484375-1.36376953125-2.2060546875-1.5048828125-.708984375-.123046875-1.5087890625.1142578125-2.396484375.708984375-.888671875.59521484375-1.78125,1.537109375-2.6796875,2.8251953125-.8994140625,1.2880859375-1.7919921875,2.9150390625-2.6796875,4.8798828125-.8876953125,1.9658203125-1.6796875,4.2216796875-2.375,6.767578125Z"/>
    </a>
  </g>
  <g>
    <path class="cls-3" d="M65.6865234375,76.14599609375c4.1943359375-1.60693359375,8.34375-2.5029296875,12.4453125-2.68359375,4.09765625-.18115234375,7.9501953125.349609375,11.556640625,1.59130859375,3.60546875,1.24169921875,6.841796875,3.17822265625,9.7099609375,5.80908203125,2.8662109375,2.630859375,5.1533203125,5.87841796875,6.8583984375,9.73974609375,1.703125,3.86376953125,2.71875,8.4013671875,3.0439453125,13.6123046875.326171875,5.21337890625-.2470703125,10.99755859375-1.71875,17.35400390625l-5.103515625,27.3232421875c-.37109375,1.2412109375-.9140625,2.310546875-1.6328125,3.20361328125-.59765625.71484375-1.455078125,1.36474609375-2.5810546875,1.955078125-1.1240234375.5908203125-2.5166015625.77197265625-4.173828125.5439453125-1.7685546875-.14599609375-3.5810546875-.3447265625-5.4326171875-.599609375-1.8544921875-.25537109375-3.5029296875-.73095703125-4.947265625-1.42626953125-1.4462890625-.6953125-2.6201171875-1.7255859375-3.5244140625-3.09423828125-.90625-1.3662109375-1.294921875-3.23388671875-1.166015625-5.6015625.630859375-4.58349609375,1.470703125-9.06298828125,2.521484375-13.4423828125,1.0498046875-4.37646484375,2.04296875-8.88623046875,2.98046875-13.52783203125,1.171875-4.90673828125,1.43359375-8.97021484375.7841796875-12.1904296875-.6513671875-3.22021484375-1.7841796875-5.6357421875-3.3994140625-7.25048828125-1.6171875-1.6142578125-3.53515625-2.47412109375-5.755859375-2.58251953125-2.2216796875-.10498046875-4.4228515625.53564453125-6.6015625,1.92431640625-2.1796875,1.390625-4.1083984375,3.484375-5.7841796875,6.28369140625-1.6787109375,2.8017578125-2.7021484375,6.26220703125-3.0693359375,10.38525390625-1.0107421875,9.50244140625-1.8408203125,18.77978515625-2.4912109375,27.83251953125-.2548828125,1.853515625-1.0908203125,3.40380859375-2.50390625,4.64892578125-1.4150390625,1.2470703125-3.1162109375,1.8818359375-5.1064453125,1.90576171875-1.796875.05029296875-3.6142578125.07275390625-5.451171875.06884765625-1.8388671875-.005859375-3.515625-.28515625-5.02734375-.8408203125-1.5146484375-.5576171875-2.810546875-1.4306640625-3.8876953125-2.62255859375-1.080078125-1.19189453125-1.6591796875-2.93505859375-1.7392578125-5.2333984375,1.0478515625-15.5576171875,2.712890625-31.25341796875,4.994140625-47.09033203125,2.2783203125-15.83544921875,5.11328125-31.7197265625,8.4990234375-47.6513671875.2431640625-1.05908203125.556640625-2.0595703125.9345703125-3.001953125.376953125-.9404296875.888671875-1.76416015625,1.5341796875-2.4716796875.6416015625-.70654296875,1.45703125-1.2158203125,2.4462890625-1.52734375.9853515625-.310546875,2.2109375-.3662109375,3.6748046875-.16455078125,1.2529296875.2724609375,2.775390625.58203125,4.568359375.92724609375,1.7890625.34619140625,3.470703125.7763671875,5.0400390625,1.29052734375,1.568359375.513671875,2.869140625,1.16552734375,3.904296875,1.95361328125,1.033203125.7900390625,1.470703125,1.767578125,1.3095703125,2.93798828125-2.1474609375,10.5380859375-4.0498046875,21.109375-5.7080078125,31.7119140625Z"/>
    <a xlink:href="https://www.notion.so/congruence/hypothesis-f8e01f142f324c2b8a2aaf7e4944f125?pvs=4">
      <path class="cls-3" d="M136.91796875,117.80859375c1.212890625,1.01318359375,2.201171875,2.1708984375,2.962890625,3.470703125.7607421875,1.3017578125,1.3525390625,2.68212890625,1.7763671875,4.14306640625.4228515625,1.46240234375.7001953125,2.98046875.830078125,4.55517578125.12890625,1.5751953125.1689453125,3.14404296875.1181640625,4.70556640625-.0244140625,3.1015625-.2685546875,6.201171875-.73046875,9.29931640625-.462890625,3.0986328125-1.0517578125,6.1943359375-1.7685546875,9.28466796875-.2255859375.875-.421875,1.59033203125-.58984375,2.14501953125-.169921875.5556640625-.3828125.99365234375-.638671875,1.314453125-.2568359375.32080078125-.5810546875.55712890625-.9716796875.708984375-.3916015625.1513671875-.921875.26025390625-1.5908203125.32763671875-.6162109375-.03369140625-1.2548828125-.0888671875-1.9169921875-.16650390625-.6630859375-.07861328125-1.244140625-.361328125-1.744140625-.849609375-.470703125-.4462890625-.810546875-1.12646484375-1.0166015625-2.0390625-.208984375-.91259765625-.1923828125-2.17041015625.0478515625-3.77294921875l.0927734375-.5322265625c-.869140625-.25927734375-1.9091796875-.5302734375-3.1201171875-.81298828125-1.2109375-.28173828125-2.4541015625-.5419921875-3.728515625-.78125-1.2744140625-.23828125-2.5048828125-.46044921875-3.693359375-.666015625-1.189453125-.205078125-2.19140625-.37841796875-3.0068359375-.51953125-.0908203125.3134765625-.2265625.837890625-.408203125,1.5732421875-.181640625.736328125-.4267578125,1.4609375-.732421875,2.17529296875-.306640625.71435546875-.6630859375,1.34716796875-1.0673828125,1.89794921875-.4072265625.55126953125-.8779296875.7978515625-1.416015625.74169921875-.50390625-.05078125-1.0771484375-.11376953125-1.7216796875-.18798828125-.64453125-.07568359375-1.2529296875-.25390625-1.826171875-.53466796875-.578125-.24560546875-1.03515625-.61767578125-1.369140625-1.11328125-.333984375-.49609375-.439453125-1.20849609375-.3154296875-2.13720703125.1904296875-1.09912109375.4248046875-2.35546875.7060546875-3.7685546875.2802734375-1.41259765625.619140625-2.943359375,1.013671875-4.5927734375.3095703125-1.37158203125.6865234375-2.86767578125,1.1318359375-4.490234375.4443359375-1.62158203125.9677734375-3.275390625,1.5693359375-4.96142578125s1.29296875-3.35693359375,2.072265625-5.01220703125,1.6669921875-3.2001953125,2.6650390625-4.63623046875c.99609375-1.43505859375,2.1044921875-2.72314453125,3.3251953125-3.86376953125,1.21875-1.140625,2.59765625-2.03515625,4.134765625-2.68359375,1.8095703125-.74609375,3.6904296875-.951171875,5.6416015625-.6142578125,1.9501953125.33740234375,3.712890625,1.13525390625,5.28515625,2.3935546875ZM119.8037109375,139.7841796875c2.265625.2099609375,4.513671875.4619140625,6.7470703125.755859375,2.2314453125.29443359375,4.4599609375.67041015625,6.6826171875,1.126953125.5419921875-2.5.82421875-4.7705078125.8486328125-6.8125.0234375-2.04150390625-.1298828125-3.79443359375-.4609375-5.2587890625-.3330078125-1.462890625-.8251953125-2.626953125-1.48046875-3.48828125-.6552734375-.86181640625-1.3896484375-1.36376953125-2.2060546875-1.5048828125-.708984375-.123046875-1.5087890625.1142578125-2.396484375.708984375-.888671875.59521484375-1.78125,1.537109375-2.6796875,2.8251953125-.8994140625,1.2880859375-1.7919921875,2.9150390625-2.6796875,4.8798828125-.8876953125,1.9658203125-1.6796875,4.2216796875-2.375,6.767578125Z"/>
    </a>
  </g>
</svg>