<?xml version="1.0" encoding="UTF-8"?>
<svg id="Content" xmlns="http://www.w3.org/2000/svg" xmlns:xlink="http://www.w3.org/1999/xlink" viewBox="0 0 280 280">
  <defs>
    <style>
      .cls-1 {
        stroke: #665451;
        stroke-width: 50px;
      }

      .cls-1, .cls-2 {
        fill: none;
        stroke-linecap: round;
        stroke-linejoin: round;
      }

      .cls-3 {
        fill: #fff;
      }

      .cls-2 {
        stroke: #998675;
        stroke-width: 2px;
      }
    </style>
  </defs>
  <g>
    <path d="M69.09765625,77.97802734375c5.33642578125-2.044921875,10.61328125-3.1845703125,15.83056640625-3.4150390625,5.2138671875-.2294921875,10.1142578125.4453125,14.7021484375,2.025390625,4.58544921875,1.5791015625,8.703125,4.04296875,12.35205078125,7.3896484375,3.64599609375,3.3466796875,6.55517578125,7.4775390625,8.72314453125,12.3896484375,2.16845703125,4.9140625,3.46044921875,10.6865234375,3.8740234375,17.3154296875.4140625,6.6318359375-.314453125,13.990234375-2.18603515625,22.076171875l-6.49267578125,34.7568359375c-.47314453125,1.580078125-1.1640625,2.939453125-2.07861328125,4.076171875-.76025390625.908203125-1.85107421875,1.736328125-3.28173828125,2.4873046875-1.43115234375.7509765625-3.2021484375.9814453125-5.3095703125.6904296875-2.2509765625-.185546875-4.5556640625-.4375-6.912109375-.76171875-2.3583984375-.32421875-4.45556640625-.9306640625-6.29296875-1.814453125-1.83984375-.884765625-3.3330078125-2.1953125-4.4833984375-3.9365234375-1.15234375-1.7373046875-1.646484375-4.1142578125-1.4833984375-7.125.802734375-5.8310546875,1.8720703125-11.5302734375,3.20751953125-17.1005859375,1.33544921875-5.5673828125,2.59912109375-11.3037109375,3.79248046875-17.2080078125,1.490234375-6.2421875,1.82177734375-11.4111328125.998046875-15.5078125-.8291015625-4.0966796875-2.27001953125-7.1689453125-4.32421875-9.2236328125-2.05908203125-2.052734375-4.49853515625-3.146484375-7.32373046875-3.2841796875-2.826171875-.1337890625-5.625.6806640625-8.39599609375,2.447265625-2.77392578125,1.76953125-5.2265625,4.4326171875-7.35888671875,7.994140625-2.13525390625,3.564453125-3.43798828125,7.9658203125-3.90478515625,13.2109375-1.2861328125,12.0869140625-2.341796875,23.888671875-3.16845703125,35.404296875-.32470703125,2.3583984375-1.38818359375,4.3310546875-3.185546875,5.9140625-1.80078125,1.5859375-3.96484375,2.3935546875-6.49658203125,2.4248046875-2.2841796875.064453125-4.5966796875.0927734375-6.93359375.087890625-2.33935546875-.0078125-4.4716796875-.3642578125-6.3955078125-1.0703125-1.92529296875-.7099609375-3.57421875-1.8203125-4.94482421875-3.3359375-1.37353515625-1.5166015625-2.11083984375-3.7333984375-2.212890625-6.6572265625,1.3330078125-19.7900390625,3.45166015625-39.7568359375,6.35205078125-59.9033203125,2.89892578125-20.1435546875,6.50439453125-40.349609375,10.8125-60.6162109375.310546875-1.3466796875.7080078125-2.6201171875,1.1904296875-3.818359375.47802734375-1.1962890625,1.12890625-2.244140625,1.94970703125-3.14453125.81689453125-.8984375,1.8544921875-1.546875,3.111328125-1.9423828125,1.25439453125-.3955078125,2.814453125-.4658203125,4.6748046875-.208984375,1.59423828125.3466796875,3.53076171875.740234375,5.81201171875,1.1787109375,2.27587890625.44140625,4.41455078125.9873046875,6.4111328125,1.6416015625,1.99560546875.6533203125,3.6494140625,1.4833984375,4.96630859375,2.4853515625,1.31494140625,1.0048828125,1.87158203125,2.2490234375,1.66650390625,3.73828125-2.7314453125,13.404296875-5.15234375,26.8515625-7.26123046875,40.33984375Z"/>
    <a xlink:href="https://www.notion.so/congruence/hypothesis-f8e01f142f324c2b8a2aaf7e4944f125?pvs=4">
      <path d="M159.7109375,130.9755859375c1.5419921875,1.2900390625,2.7978515625,2.76171875,3.767578125,4.416015625.9677734375,1.6552734375,1.720703125,3.412109375,2.2607421875,5.2705078125.5390625,1.859375.888671875,3.7900390625,1.0556640625,5.794921875.1630859375,2.00390625.21484375,3.9990234375.1494140625,5.9853515625-.0302734375,3.9453125-.341796875,7.8876953125-.9287109375,11.830078125-.5888671875,3.94140625-1.3388671875,7.87890625-2.25,11.810546875-.287109375,1.1123046875-.5361328125,2.0224609375-.7509765625,2.728515625s-.486328125,1.263671875-.8115234375,1.6708984375c-.326171875.41015625-.73828125.7099609375-1.2353515625.90234375-.4990234375.1923828125-1.173828125.3310546875-2.0244140625.4169921875-.7841796875-.0419921875-1.5966796875-.11328125-2.4384765625-.2119140625-.8427734375-.1005859375-1.58203125-.4599609375-2.21875-1.0810546875-.5986328125-.56640625-1.03125-1.4326171875-1.2939453125-2.5927734375-.2646484375-1.162109375-.244140625-2.76171875.0615234375-4.7998046875l.1171875-.6767578125c-1.1044921875-.330078125-2.427734375-.6748046875-3.9677734375-1.03515625-1.5419921875-.3583984375-3.123046875-.689453125-4.7431640625-.9931640625-1.62109375-.302734375-3.1875-.5859375-4.6982421875-.84765625-1.513671875-.2607421875-2.787109375-.4814453125-3.82421875-.66015625-.1171875.3984375-.2890625,1.0654296875-.5205078125,2.0009765625-.232421875.935546875-.54296875,1.8583984375-.9306640625,2.767578125-.3916015625.908203125-.84375,1.712890625-1.359375,2.4140625s-1.1162109375,1.0146484375-1.80078125.943359375c-.640625-.064453125-1.3701171875-.14453125-2.189453125-.2392578125-.8203125-.0966796875-1.5947265625-.322265625-2.322265625-.6806640625-.7373046875-.3125-1.3173828125-.78515625-1.7431640625-1.416015625-.4248046875-.630859375-.5595703125-1.537109375-.400390625-2.7177734375.2412109375-1.3984375.541015625-2.9970703125.8974609375-4.794921875.3564453125-1.7958984375.787109375-3.744140625,1.2890625-5.841796875.3935546875-1.7451171875.8740234375-3.6474609375,1.4404296875-5.7119140625.5654296875-2.0634765625,1.23046875-4.166015625,1.9970703125-6.3115234375.7646484375-2.14453125,1.6435546875-4.2705078125,2.634765625-6.3759765625.9921875-2.10546875,2.12109375-4.0712890625,3.390625-5.8974609375,1.2666015625-1.8251953125,2.6767578125-3.4638671875,4.2294921875-4.9150390625,1.55078125-1.451171875,3.3056640625-2.5888671875,5.2607421875-3.4130859375,2.30078125-.9501953125,4.693359375-1.2109375,7.17578125-.7822265625,2.4814453125.4296875,4.72265625,1.443359375,6.724609375,3.0439453125ZM137.9384765625,158.931640625c2.8818359375.265625,5.7431640625.5869140625,8.5830078125.9609375,2.83984375.375,5.673828125.8525390625,8.501953125,1.4345703125.6875-3.1806640625,1.048828125-6.0693359375,1.0791015625-8.6669921875.029296875-2.59765625-.166015625-4.826171875-.587890625-6.689453125-.421875-1.861328125-1.0498046875-3.3408203125-1.8818359375-4.4375s-1.767578125-1.7353515625-2.8046875-1.9140625c-.904296875-.15625-1.919921875.14453125-3.0498046875.90234375-1.130859375.7568359375-2.2666015625,1.955078125-3.41015625,3.5927734375-1.142578125,1.6396484375-2.2783203125,3.7080078125-3.408203125,6.20703125-1.12890625,2.501953125-2.1357421875,5.37109375-3.021484375,8.6103515625Z"/>
    </a>
  </g>
  <g>
    <path class="cls-1" d="M69.09765625,77.97802734375c5.33642578125-2.044921875,10.61328125-3.1845703125,15.83056640625-3.4150390625,5.2138671875-.2294921875,10.1142578125.4453125,14.7021484375,2.025390625,4.58544921875,1.5791015625,8.703125,4.04296875,12.35205078125,7.3896484375,3.64599609375,3.3466796875,6.55517578125,7.4775390625,8.72314453125,12.3896484375,2.16845703125,4.9140625,3.46044921875,10.6865234375,3.8740234375,17.3154296875.4140625,6.6318359375-.314453125,13.990234375-2.18603515625,22.076171875l-6.49267578125,34.7568359375c-.47314453125,1.580078125-1.1640625,2.939453125-2.07861328125,4.076171875-.76025390625.908203125-1.85107421875,1.736328125-3.28173828125,2.4873046875-1.43115234375.7509765625-3.2021484375.9814453125-5.3095703125.6904296875-2.2509765625-.185546875-4.5556640625-.4375-6.912109375-.76171875-2.3583984375-.32421875-4.45556640625-.9306640625-6.29296875-1.814453125-1.83984375-.884765625-3.3330078125-2.1953125-4.4833984375-3.9365234375-1.15234375-1.7373046875-1.646484375-4.1142578125-1.4833984375-7.125.802734375-5.8310546875,1.8720703125-11.5302734375,3.20751953125-17.1005859375,1.33544921875-5.5673828125,2.59912109375-11.3037109375,3.79248046875-17.2080078125,1.490234375-6.2421875,1.82177734375-11.4111328125.998046875-15.5078125-.8291015625-4.0966796875-2.27001953125-7.1689453125-4.32421875-9.2236328125-2.05908203125-2.052734375-4.49853515625-3.146484375-7.32373046875-3.2841796875-2.826171875-.1337890625-5.625.6806640625-8.39599609375,2.447265625-2.77392578125,1.76953125-5.2265625,4.4326171875-7.35888671875,7.994140625-2.13525390625,3.564453125-3.43798828125,7.9658203125-3.90478515625,13.2109375-1.2861328125,12.0869140625-2.341796875,23.888671875-3.16845703125,35.404296875-.32470703125,2.3583984375-1.38818359375,4.3310546875-3.185546875,5.9140625-1.80078125,1.5859375-3.96484375,2.3935546875-6.49658203125,2.4248046875-2.2841796875.064453125-4.5966796875.0927734375-6.93359375.087890625-2.33935546875-.0078125-4.4716796875-.3642578125-6.3955078125-1.0703125-1.92529296875-.7099609375-3.57421875-1.8203125-4.94482421875-3.3359375-1.37353515625-1.5166015625-2.11083984375-3.7333984375-2.212890625-6.6572265625,1.3330078125-19.7900390625,3.45166015625-39.7568359375,6.35205078125-59.9033203125,2.89892578125-20.1435546875,6.50439453125-40.349609375,10.8125-60.6162109375.310546875-1.3466796875.7080078125-2.6201171875,1.1904296875-3.818359375.47802734375-1.1962890625,1.12890625-2.244140625,1.94970703125-3.14453125.81689453125-.8984375,1.8544921875-1.546875,3.111328125-1.9423828125,1.25439453125-.3955078125,2.814453125-.4658203125,4.6748046875-.208984375,1.59423828125.3466796875,3.53076171875.740234375,5.81201171875,1.1787109375,2.27587890625.44140625,4.41455078125.9873046875,6.4111328125,1.6416015625,1.99560546875.6533203125,3.6494140625,1.4833984375,4.96630859375,2.4853515625,1.31494140625,1.0048828125,1.87158203125,2.2490234375,1.66650390625,3.73828125-2.7314453125,13.404296875-5.15234375,26.8515625-7.26123046875,40.33984375Z"/>
    <a xlink:href="https://www.notion.so/congruence/hypothesis-f8e01f142f324c2b8a2aaf7e4944f125?pvs=4">
      <path class="cls-1" d="M159.7109375,130.9755859375c1.5419921875,1.2900390625,2.7978515625,2.76171875,3.767578125,4.416015625.9677734375,1.6552734375,1.720703125,3.412109375,2.2607421875,5.2705078125.5390625,1.859375.888671875,3.7900390625,1.0556640625,5.794921875.1630859375,2.00390625.21484375,3.9990234375.1494140625,5.9853515625-.0302734375,3.9453125-.341796875,7.8876953125-.9287109375,11.830078125-.5888671875,3.94140625-1.3388671875,7.87890625-2.25,11.810546875-.287109375,1.1123046875-.5361328125,2.0224609375-.7509765625,2.728515625s-.486328125,1.263671875-.8115234375,1.6708984375c-.326171875.41015625-.73828125.7099609375-1.2353515625.90234375-.4990234375.1923828125-1.173828125.3310546875-2.0244140625.4169921875-.7841796875-.0419921875-1.5966796875-.11328125-2.4384765625-.2119140625-.8427734375-.1005859375-1.58203125-.4599609375-2.21875-1.0810546875-.5986328125-.56640625-1.03125-1.4326171875-1.2939453125-2.5927734375-.2646484375-1.162109375-.244140625-2.76171875.0615234375-4.7998046875l.1171875-.6767578125c-1.1044921875-.330078125-2.427734375-.6748046875-3.9677734375-1.03515625-1.5419921875-.3583984375-3.123046875-.689453125-4.7431640625-.9931640625-1.62109375-.302734375-3.1875-.5859375-4.6982421875-.84765625-1.513671875-.2607421875-2.787109375-.4814453125-3.82421875-.66015625-.1171875.3984375-.2890625,1.0654296875-.5205078125,2.0009765625-.232421875.935546875-.54296875,1.8583984375-.9306640625,2.767578125-.3916015625.908203125-.84375,1.712890625-1.359375,2.4140625s-1.1162109375,1.0146484375-1.80078125.943359375c-.640625-.064453125-1.3701171875-.14453125-2.189453125-.2392578125-.8203125-.0966796875-1.5947265625-.322265625-2.322265625-.6806640625-.7373046875-.3125-1.3173828125-.78515625-1.7431640625-1.416015625-.4248046875-.630859375-.5595703125-1.537109375-.400390625-2.7177734375.2412109375-1.3984375.541015625-2.9970703125.8974609375-4.794921875.3564453125-1.7958984375.787109375-3.744140625,1.2890625-5.841796875.3935546875-1.7451171875.8740234375-3.6474609375,1.4404296875-5.7119140625.5654296875-2.0634765625,1.23046875-4.166015625,1.9970703125-6.3115234375.7646484375-2.14453125,1.6435546875-4.2705078125,2.634765625-6.3759765625.9921875-2.10546875,2.12109375-4.0712890625,3.390625-5.8974609375,1.2666015625-1.8251953125,2.6767578125-3.4638671875,4.2294921875-4.9150390625,1.55078125-1.451171875,3.3056640625-2.5888671875,5.2607421875-3.4130859375,2.30078125-.9501953125,4.693359375-1.2109375,7.17578125-.7822265625,2.4814453125.4296875,4.72265625,1.443359375,6.724609375,3.0439453125ZM137.9384765625,158.931640625c2.8818359375.265625,5.7431640625.5869140625,8.5830078125.9609375,2.83984375.375,5.673828125.8525390625,8.501953125,1.4345703125.6875-3.1806640625,1.048828125-6.0693359375,1.0791015625-8.6669921875.029296875-2.59765625-.166015625-4.826171875-.587890625-6.689453125-.421875-1.861328125-1.0498046875-3.3408203125-1.8818359375-4.4375s-1.767578125-1.7353515625-2.8046875-1.9140625c-.904296875-.15625-1.919921875.14453125-3.0498046875.90234375-1.130859375.7568359375-2.2666015625,1.955078125-3.41015625,3.5927734375-1.142578125,1.6396484375-2.2783203125,3.7080078125-3.408203125,6.20703125-1.12890625,2.501953125-2.1357421875,5.37109375-3.021484375,8.6103515625Z"/>
    </a>
  </g>
  <g>
    <path class="cls-2" d="M69.09765625,77.97802734375c5.33642578125-2.044921875,10.61328125-3.1845703125,15.83056640625-3.4150390625,5.2138671875-.2294921875,10.1142578125.4453125,14.7021484375,2.025390625,4.58544921875,1.5791015625,8.703125,4.04296875,12.35205078125,7.3896484375,3.64599609375,3.3466796875,6.55517578125,7.4775390625,8.72314453125,12.3896484375,2.16845703125,4.9140625,3.46044921875,10.6865234375,3.8740234375,17.3154296875.4140625,6.6318359375-.314453125,13.990234375-2.18603515625,22.076171875l-6.49267578125,34.7568359375c-.47314453125,1.580078125-1.1640625,2.939453125-2.07861328125,4.076171875-.76025390625.908203125-1.85107421875,1.736328125-3.28173828125,2.4873046875-1.43115234375.7509765625-3.2021484375.9814453125-5.3095703125.6904296875-2.2509765625-.185546875-4.5556640625-.4375-6.912109375-.76171875-2.3583984375-.32421875-4.45556640625-.9306640625-6.29296875-1.814453125-1.83984375-.884765625-3.3330078125-2.1953125-4.4833984375-3.9365234375-1.15234375-1.7373046875-1.646484375-4.1142578125-1.4833984375-7.125.802734375-5.8310546875,1.8720703125-11.5302734375,3.20751953125-17.1005859375,1.33544921875-5.5673828125,2.59912109375-11.3037109375,3.79248046875-17.2080078125,1.490234375-6.2421875,1.82177734375-11.4111328125.998046875-15.5078125-.8291015625-4.0966796875-2.27001953125-7.1689453125-4.32421875-9.2236328125-2.05908203125-2.052734375-4.49853515625-3.146484375-7.32373046875-3.2841796875-2.826171875-.1337890625-5.625.6806640625-8.39599609375,2.447265625-2.77392578125,1.76953125-5.2265625,4.4326171875-7.35888671875,7.994140625-2.13525390625,3.564453125-3.43798828125,7.9658203125-3.90478515625,13.2109375-1.2861328125,12.0869140625-2.341796875,23.888671875-3.16845703125,35.404296875-.32470703125,2.3583984375-1.38818359375,4.3310546875-3.185546875,5.9140625-1.80078125,1.5859375-3.96484375,2.3935546875-6.49658203125,2.4248046875-2.2841796875.064453125-4.5966796875.0927734375-6.93359375.087890625-2.33935546875-.0078125-4.4716796875-.3642578125-6.3955078125-1.0703125-1.92529296875-.7099609375-3.57421875-1.8203125-4.94482421875-3.3359375-1.37353515625-1.5166015625-2.11083984375-3.7333984375-2.212890625-6.6572265625,1.3330078125-19.7900390625,3.45166015625-39.7568359375,6.35205078125-59.9033203125,2.89892578125-20.1435546875,6.50439453125-40.349609375,10.8125-60.6162109375.310546875-1.3466796875.7080078125-2.6201171875,1.1904296875-3.818359375.47802734375-1.1962890625,1.12890625-2.244140625,1.94970703125-3.14453125.81689453125-.8984375,1.8544921875-1.546875,3.111328125-1.9423828125,1.25439453125-.3955078125,2.814453125-.4658203125,4.6748046875-.208984375,1.59423828125.3466796875,3.53076171875.740234375,5.81201171875,1.1787109375,2.27587890625.44140625,4.41455078125.9873046875,6.4111328125,1.6416015625,1.99560546875.6533203125,3.6494140625,1.4833984375,4.96630859375,2.4853515625,1.31494140625,1.0048828125,1.87158203125,2.2490234375,1.66650390625,3.73828125-2.7314453125,13.404296875-5.15234375,26.8515625-7.26123046875,40.33984375Z"/>
    <a xlink:href="https://www.notion.so/congruence/hypothesis-f8e01f142f324c2b8a2aaf7e4944f125?pvs=4">
      <path class="cls-2" d="M159.7109375,130.9755859375c1.5419921875,1.2900390625,2.7978515625,2.76171875,3.767578125,4.416015625.9677734375,1.6552734375,1.720703125,3.412109375,2.2607421875,5.2705078125.5390625,1.859375.888671875,3.7900390625,1.0556640625,5.794921875.1630859375,2.00390625.21484375,3.9990234375.1494140625,5.9853515625-.0302734375,3.9453125-.341796875,7.8876953125-.9287109375,11.830078125-.5888671875,3.94140625-1.3388671875,7.87890625-2.25,11.810546875-.287109375,1.1123046875-.5361328125,2.0224609375-.7509765625,2.728515625s-.486328125,1.263671875-.8115234375,1.6708984375c-.326171875.41015625-.73828125.7099609375-1.2353515625.90234375-.4990234375.1923828125-1.173828125.3310546875-2.0244140625.4169921875-.7841796875-.0419921875-1.5966796875-.11328125-2.4384765625-.2119140625-.8427734375-.1005859375-1.58203125-.4599609375-2.21875-1.0810546875-.5986328125-.56640625-1.03125-1.4326171875-1.2939453125-2.5927734375-.2646484375-1.162109375-.244140625-2.76171875.0615234375-4.7998046875l.1171875-.6767578125c-1.1044921875-.330078125-2.427734375-.6748046875-3.9677734375-1.03515625-1.5419921875-.3583984375-3.123046875-.689453125-4.7431640625-.9931640625-1.62109375-.302734375-3.1875-.5859375-4.6982421875-.84765625-1.513671875-.2607421875-2.787109375-.4814453125-3.82421875-.66015625-.1171875.3984375-.2890625,1.0654296875-.5205078125,2.0009765625-.232421875.935546875-.54296875,1.8583984375-.9306640625,2.767578125-.3916015625.908203125-.84375,1.712890625-1.359375,2.4140625s-1.1162109375,1.0146484375-1.80078125.943359375c-.640625-.064453125-1.3701171875-.14453125-2.189453125-.2392578125-.8203125-.0966796875-1.5947265625-.322265625-2.322265625-.6806640625-.7373046875-.3125-1.3173828125-.78515625-1.7431640625-1.416015625-.4248046875-.630859375-.5595703125-1.537109375-.400390625-2.7177734375.2412109375-1.3984375.541015625-2.9970703125.8974609375-4.794921875.3564453125-1.7958984375.787109375-3.744140625,1.2890625-5.841796875.3935546875-1.7451171875.8740234375-3.6474609375,1.4404296875-5.7119140625.5654296875-2.0634765625,1.23046875-4.166015625,1.9970703125-6.3115234375.7646484375-2.14453125,1.6435546875-4.2705078125,2.634765625-6.3759765625.9921875-2.10546875,2.12109375-4.0712890625,3.390625-5.8974609375,1.2666015625-1.8251953125,2.6767578125-3.4638671875,4.2294921875-4.9150390625,1.55078125-1.451171875,3.3056640625-2.5888671875,5.2607421875-3.4130859375,2.30078125-.9501953125,4.693359375-1.2109375,7.17578125-.7822265625,2.4814453125.4296875,4.72265625,1.443359375,6.724609375,3.0439453125ZM137.9384765625,158.931640625c2.8818359375.265625,5.7431640625.5869140625,8.5830078125.9609375,2.83984375.375,5.673828125.8525390625,8.501953125,1.4345703125.6875-3.1806640625,1.048828125-6.0693359375,1.0791015625-8.6669921875.029296875-2.59765625-.166015625-4.826171875-.587890625-6.689453125-.421875-1.861328125-1.0498046875-3.3408203125-1.8818359375-4.4375s-1.767578125-1.7353515625-2.8046875-1.9140625c-.904296875-.15625-1.919921875.14453125-3.0498046875.90234375-1.130859375.7568359375-2.2666015625,1.955078125-3.41015625,3.5927734375-1.142578125,1.6396484375-2.2783203125,3.7080078125-3.408203125,6.20703125-1.12890625,2.501953125-2.1357421875,5.37109375-3.021484375,8.6103515625Z"/>
    </a>
  </g>
  <g>
    <path class="cls-3" d="M69.09765625,77.97802734375c5.33642578125-2.044921875,10.61328125-3.1845703125,15.83056640625-3.4150390625,5.2138671875-.2294921875,10.1142578125.4453125,14.7021484375,2.025390625,4.58544921875,1.5791015625,8.703125,4.04296875,12.35205078125,7.3896484375,3.64599609375,3.3466796875,6.55517578125,7.4775390625,8.72314453125,12.3896484375,2.16845703125,4.9140625,3.46044921875,10.6865234375,3.8740234375,17.3154296875.4140625,6.6318359375-.314453125,13.990234375-2.18603515625,22.076171875l-6.49267578125,34.7568359375c-.47314453125,1.580078125-1.1640625,2.939453125-2.07861328125,4.076171875-.76025390625.908203125-1.85107421875,1.736328125-3.28173828125,2.4873046875-1.43115234375.7509765625-3.2021484375.9814453125-5.3095703125.6904296875-2.2509765625-.185546875-4.5556640625-.4375-6.912109375-.76171875-2.3583984375-.32421875-4.45556640625-.9306640625-6.29296875-1.814453125-1.83984375-.884765625-3.3330078125-2.1953125-4.4833984375-3.9365234375-1.15234375-1.7373046875-1.646484375-4.1142578125-1.4833984375-7.125.802734375-5.8310546875,1.8720703125-11.5302734375,3.20751953125-17.1005859375,1.33544921875-5.5673828125,2.59912109375-11.3037109375,3.79248046875-17.2080078125,1.490234375-6.2421875,1.82177734375-11.4111328125.998046875-15.5078125-.8291015625-4.0966796875-2.27001953125-7.1689453125-4.32421875-9.2236328125-2.05908203125-2.052734375-4.49853515625-3.146484375-7.32373046875-3.2841796875-2.826171875-.1337890625-5.625.6806640625-8.39599609375,2.447265625-2.77392578125,1.76953125-5.2265625,4.4326171875-7.35888671875,7.994140625-2.13525390625,3.564453125-3.43798828125,7.9658203125-3.90478515625,13.2109375-1.2861328125,12.0869140625-2.341796875,23.888671875-3.16845703125,35.404296875-.32470703125,2.3583984375-1.38818359375,4.3310546875-3.185546875,5.9140625-1.80078125,1.5859375-3.96484375,2.3935546875-6.49658203125,2.4248046875-2.2841796875.064453125-4.5966796875.0927734375-6.93359375.087890625-2.33935546875-.0078125-4.4716796875-.3642578125-6.3955078125-1.0703125-1.92529296875-.7099609375-3.57421875-1.8203125-4.94482421875-3.3359375-1.37353515625-1.5166015625-2.11083984375-3.7333984375-2.212890625-6.6572265625,1.3330078125-19.7900390625,3.45166015625-39.7568359375,6.35205078125-59.9033203125,2.89892578125-20.1435546875,6.50439453125-40.349609375,10.8125-60.6162109375.310546875-1.3466796875.7080078125-2.6201171875,1.1904296875-3.818359375.47802734375-1.1962890625,1.12890625-2.244140625,1.94970703125-3.14453125.81689453125-.8984375,1.8544921875-1.546875,3.111328125-1.9423828125,1.25439453125-.3955078125,2.814453125-.4658203125,4.6748046875-.208984375,1.59423828125.3466796875,3.53076171875.740234375,5.81201171875,1.1787109375,2.27587890625.44140625,4.41455078125.9873046875,6.4111328125,1.6416015625,1.99560546875.6533203125,3.6494140625,1.4833984375,4.96630859375,2.4853515625,1.31494140625,1.0048828125,1.87158203125,2.2490234375,1.66650390625,3.73828125-2.7314453125,13.404296875-5.15234375,26.8515625-7.26123046875,40.33984375Z"/>
    <a xlink:href="https://www.notion.so/congruence/hypothesis-f8e01f142f324c2b8a2aaf7e4944f125?pvs=4">
      <path class="cls-3" d="M159.7109375,130.9755859375c1.5419921875,1.2900390625,2.7978515625,2.76171875,3.767578125,4.416015625.9677734375,1.6552734375,1.720703125,3.412109375,2.2607421875,5.2705078125.5390625,1.859375.888671875,3.7900390625,1.0556640625,5.794921875.1630859375,2.00390625.21484375,3.9990234375.1494140625,5.9853515625-.0302734375,3.9453125-.341796875,7.8876953125-.9287109375,11.830078125-.5888671875,3.94140625-1.3388671875,7.87890625-2.25,11.810546875-.287109375,1.1123046875-.5361328125,2.0224609375-.7509765625,2.728515625s-.486328125,1.263671875-.8115234375,1.6708984375c-.326171875.41015625-.73828125.7099609375-1.2353515625.90234375-.4990234375.1923828125-1.173828125.3310546875-2.0244140625.4169921875-.7841796875-.0419921875-1.5966796875-.11328125-2.4384765625-.2119140625-.8427734375-.1005859375-1.58203125-.4599609375-2.21875-1.0810546875-.5986328125-.56640625-1.03125-1.4326171875-1.2939453125-2.5927734375-.2646484375-1.162109375-.244140625-2.76171875.0615234375-4.7998046875l.1171875-.6767578125c-1.1044921875-.330078125-2.427734375-.6748046875-3.9677734375-1.03515625-1.5419921875-.3583984375-3.123046875-.689453125-4.7431640625-.9931640625-1.62109375-.302734375-3.1875-.5859375-4.6982421875-.84765625-1.513671875-.2607421875-2.787109375-.4814453125-3.82421875-.66015625-.1171875.3984375-.2890625,1.0654296875-.5205078125,2.0009765625-.232421875.935546875-.54296875,1.8583984375-.9306640625,2.767578125-.3916015625.908203125-.84375,1.712890625-1.359375,2.4140625s-1.1162109375,1.0146484375-1.80078125.943359375c-.640625-.064453125-1.3701171875-.14453125-2.189453125-.2392578125-.8203125-.0966796875-1.5947265625-.322265625-2.322265625-.6806640625-.7373046875-.3125-1.3173828125-.78515625-1.7431640625-1.416015625-.4248046875-.630859375-.5595703125-1.537109375-.400390625-2.7177734375.2412109375-1.3984375.541015625-2.9970703125.8974609375-4.794921875.3564453125-1.7958984375.787109375-3.744140625,1.2890625-5.841796875.3935546875-1.7451171875.8740234375-3.6474609375,1.4404296875-5.7119140625.5654296875-2.0634765625,1.23046875-4.166015625,1.9970703125-6.3115234375.7646484375-2.14453125,1.6435546875-4.2705078125,2.634765625-6.3759765625.9921875-2.10546875,2.12109375-4.0712890625,3.390625-5.8974609375,1.2666015625-1.8251953125,2.6767578125-3.4638671875,4.2294921875-4.9150390625,1.55078125-1.451171875,3.3056640625-2.5888671875,5.2607421875-3.4130859375,2.30078125-.9501953125,4.693359375-1.2109375,7.17578125-.7822265625,2.4814453125.4296875,4.72265625,1.443359375,6.724609375,3.0439453125ZM137.9384765625,158.931640625c2.8818359375.265625,5.7431640625.5869140625,8.5830078125.9609375,2.83984375.375,5.673828125.8525390625,8.501953125,1.4345703125.6875-3.1806640625,1.048828125-6.0693359375,1.0791015625-8.6669921875.029296875-2.59765625-.166015625-4.826171875-.587890625-6.689453125-.421875-1.861328125-1.0498046875-3.3408203125-1.8818359375-4.4375s-1.767578125-1.7353515625-2.8046875-1.9140625c-.904296875-.15625-1.919921875.14453125-3.0498046875.90234375-1.130859375.7568359375-2.2666015625,1.955078125-3.41015625,3.5927734375-1.142578125,1.6396484375-2.2783203125,3.7080078125-3.408203125,6.20703125-1.12890625,2.501953125-2.1357421875,5.37109375-3.021484375,8.6103515625Z"/>
    </a>
  </g>
</svg>