<?xml version="1.0" encoding="UTF-8"?>
<svg id="Content" xmlns="http://www.w3.org/2000/svg" xmlns:xlink="http://www.w3.org/1999/xlink" viewBox="0 0 280 280">
  <defs>
    <style>
      .cls-1 {
        stroke: #665451;
        stroke-width: 50px;
      }

      .cls-1, .cls-2 {
        fill: none;
        stroke-linecap: round;
        stroke-linejoin: round;
      }

      .cls-3 {
        fill: #fff;
      }

      .cls-2 {
        stroke: #998675;
        stroke-width: 2px;
      }
    </style>
  </defs>
  <a xlink:href="https://www.notion.so/congruence/Binomial-distribution-06f9455aac044affbc3cc6f6c722de48?pvs=4">
    <g>
      <g>
        <path class="cls-1" d="M75.440429687498181,80.2275390625c2.212890625,1.53515625,3.9013671875,3.4990234375,5.0673828125,5.88671875,1.1650390625,2.390625,1.62109375,4.90234375,1.3681640625,7.533203125-.2841796875,2.974609375-1.3173828125,5.513671875-3.1015625,7.6171875-1.7841796875,2.10546875-3.9287109375,3.8017578125-6.4326171875,5.095703125-2.505859375,1.2919921875-5.234375,2.2080078125-8.1904296875,2.748046875-2.955078125.5380859375-5.74609375.73046875-8.3740234375.57421875-.2373046875.107421875-.4521484375.1796875-.6435546875.2138671875-.1923828125.0341796875-.408203125.08203125-.6474609375.142578125-.8681640625.0927734375-1.763671875.138671875-2.6845703125.1376953125-.9228515625-.001953125-1.7646484375-.1171875-2.5283203125-.34375s-1.4267578125-.62890625-1.990234375-1.20703125-.921875-1.4189453125-1.0751953125-2.52734375c-.1240234375-.52734375-.203125-1.6025390625-.2373046875-3.2255859375-.0361328125-1.623046875-.087890625-3.5966796875-.158203125-5.921875-.025390625-2.3740234375-.072265625-4.9560546875-.142578125-7.7412109375-.0693359375-2.7861328125-.15234375-5.58203125-.248046875-8.3916015625-.140625-3.677734375-.28125-7.380859375-.423828125-11.109375-.142578125-3.7275390625-.4794921875-7.46875-1.01171875-11.2265625-.119140625-.4296875-.08984375-.818359375.0859375-1.1669921875.08203125-.2958984375.28515625-.5859375.6103515625-.869140625.3251953125-.2822265625.8232421875-.490234375,1.49609375-.6220703125.48046875-.0732421875,1.009765625-.171875,1.5859375-.298828125.5751953125-.126953125,1.17578125-.2294921875,1.802734375-.310546875.6259765625-.080078125,1.2314453125-.111328125,1.814453125-.09375.5830078125.01953125,1.095703125.08984375,1.5380859375.2119140625,2.4501953125-.4638671875,5.037109375-.609375,7.7626953125-.43359375s5.310546875.685546875,7.7548828125,1.5302734375c2.4443359375.8466796875,4.58984375,2.033203125,6.439453125,3.5634765625,1.8486328125,1.5302734375,3.123046875,3.44140625,3.822265625,5.7333984375.2939453125,1.00390625.494140625,2.060546875.599609375,3.1708984375.1044921875,1.1103515625.04296875,2.265625-.1865234375,3.46484375-.2294921875,1.201171875-.6376953125,2.458984375-1.2255859375,3.7744140625-.5869140625,1.314453125-1.4033203125,2.6796875-2.4462890625,4.0908203125ZM56.354492187498181,76.912109375c2.3271484375-.021484375,4.2734375-.3642578125,5.8408203125-1.02734375,1.56640625-.6630859375,2.724609375-1.4853515625,3.474609375-2.4697265625.75-.9833984375,1.083984375-2.03125,1.0029296875-3.142578125-.08203125-1.1123046875-.5556640625-2.0830078125-1.4228515625-2.9111328125s-2.134765625-1.4296875-3.802734375-1.8056640625c-1.6689453125-.375-3.751953125-.3291015625-6.25.138671875.2421875,1.8779296875.4462890625,3.7373046875.61328125,5.5703125.166015625,1.8359375.3466796875,3.7177734375.5439453125,5.6474609375ZM57.650390624998181,97.9443359375c2.626953125.1572265625,4.8212890625-.0751953125,6.583984375-.7001953125,1.7626953125-.6240234375,3.068359375-1.4189453125,3.9169921875-2.3837890625.8466796875-.9638671875,1.255859375-1.98046875,1.2255859375-3.044921875-.0302734375-1.0654296875-.5-1.9638671875-1.4111328125-2.693359375-.91015625-.7294921875-2.267578125-1.1806640625-4.0712890625-1.3564453125-1.8037109375-.1728515625-4.0439453125.123046875-6.720703125.8916015625l.4765625,9.287109375Z"/>
        <path class="cls-1" d="M108.682617187498181,60.1875c-1.97265625,1.2666015625-3.7470703125,2.837890625-5.32421875,4.7119140625-1.5771484375,1.8759765625-2.8427734375,3.94140625-3.7939453125,6.197265625s-1.5712890625,4.603515625-1.857421875,7.04296875c-.2880859375,2.44140625-.103515625,4.85546875.552734375,7.2470703125.65625,2.3935546875,1.8271484375,4.6611328125,3.513671875,6.8056640625,1.685546875,2.14453125,3.978515625,4.0400390625,6.8759765625,5.6865234375.2490234375.1337890625.486328125.265625.7119140625.3994140625.224609375.134765625.4609375.2685546875.7119140625.4013671875.3984375.2216796875.64453125.5126953125.7353515625.87109375.091796875.359375.099609375.7587890625.025390625,1.19921875-.0458984375,1.0205078125-.337890625,2.17578125-.8779296875,3.4638671875-.541015625,1.2900390625-1.1259765625,2.41015625-1.755859375,3.365234375-.5400390625.802734375-1.3212890625,1.181640625-2.3427734375,1.13671875-1.0205078125-.0439453125-2.052734375-.306640625-3.095703125-.7861328125-2.4404296875-1.2314453125-4.6875-2.7431640625-6.744140625-4.529296875-2.0556640625-1.7861328125-3.833984375-3.841796875-5.3359375-6.1650390625-1.5009765625-2.32421875-2.6650390625-4.9072265625-3.4892578125-7.751953125-.8251953125-2.84375-1.2265625-5.939453125-1.203125-9.287109375.0390625-3.009765625.4619140625-5.892578125,1.2666015625-8.650390625s1.896484375-5.3359375,3.27734375-7.7353515625c1.3798828125-2.3994140625,3.01171875-4.62890625,4.896484375-6.689453125,1.8828125-2.060546875,3.9228515625-3.8759765625,6.123046875-5.443359375.6083984375-.4189453125,1.216796875-.6083984375,1.826171875-.56640625.6083984375.0419921875,1.1181640625.294921875,1.5302734375.7587890625.462890625.509765625,1.029296875,1.1591796875,1.701171875,1.94921875.669921875.791015625,1.24609375,1.5986328125,1.724609375,2.421875.478515625.82421875.796875,1.595703125.955078125,2.314453125.1572265625.720703125-.0439453125,1.265625-.607421875,1.6318359375Z"/>
        <path class="cls-1" d="M131.754882812498181,66.755859375c2.2314453125-.478515625,4.4658203125-.6416015625,6.705078125-.4892578125,2.23828125.15234375,4.3642578125.685546875,6.3759765625,1.6005859375,2.0107421875.9150390625,3.6953125,2.3330078125,5.0556640625,4.251953125,1.150390625,1.6396484375,2.0556640625,3.6904296875,2.7158203125,6.154296875.66015625,2.46484375,1.0830078125,5.5107421875,1.26953125,9.138671875l.4609375,11.8359375c.01953125.3876953125.017578125.8486328125-.001953125,1.3828125-.021484375.53515625-.1396484375,1.0751953125-.3544921875,1.619140625s-.5537109375,1.03515625-1.015625,1.470703125c-.462890625.435546875-1.103515625.72265625-1.919921875.8623046875-1.296875.259765625-2.671875.392578125-4.126953125.3935546875-1.455078125.001953125-2.5966796875-.486328125-3.421875-1.4619140625-.4658203125-.5576171875-.806640625-1.2919921875-1.0224609375-2.203125-.216796875-.91015625-.3642578125-1.8974609375-.4423828125-2.9599609375-.080078125-1.0634765625-.1083984375-2.1162109375-.08984375-3.1611328125.01953125-1.0439453125.0576171875-1.9541015625.115234375-2.734375.10546875-1.703125.19140625-3.357421875.2548828125-4.9609375s-.064453125-3.1474609375-.3828125-4.63671875c-.3720703125-1.5810546875-.9990234375-2.91796875-1.8798828125-4.0146484375-.880859375-1.0927734375-1.8779296875-1.8671875-2.9921875-2.3203125-1.115234375-.451171875-2.26171875-.5869140625-3.4404296875-.40625-1.1796875.18359375-2.267578125.7236328125-3.263671875,1.623046875-.998046875.900390625-1.81640625,2.19140625-2.45703125,3.8720703125-.6416015625,1.68359375-.9716796875,3.7607421875-.990234375,6.236328125l.998046875,15.2275390625c-.0751953125.44140625-.22265625.861328125-.4443359375,1.259765625-.2255859375.3515625-.560546875.671875-1.005859375.9609375-.447265625.2900390625-1.078125.5029296875-1.8955078125.642578125-.865234375.1416015625-1.74609375.2470703125-2.6396484375.3173828125s-1.7431640625.041015625-2.55078125-.0869140625c-.806640625-.1298828125-1.4873046875-.384765625-2.0400390625-.76953125-.5537109375-.3828125-.921875-.958984375-1.107421875-1.7255859375-.1123046875-.2841796875-.2138671875-1.3349609375-.306640625-3.1484375-.0927734375-1.8154296875-.1689453125-4.017578125-.2294921875-6.609375-.0595703125-2.5908203125-.1181640625-5.3662109375-.171875-8.322265625-.0546875-2.955078125-.099609375-5.73046875-.1357421875-8.3232421875-.03515625-2.5927734375-.0517578125-4.7998046875-.0478515625-6.6181640625.00390625-1.8193359375-.0029296875-2.8984375-.01953125-3.2373046875-.064453125-.287109375-.0048828125-.556640625.1767578125-.8095703125.1328125-.248046875.36328125-.466796875.693359375-.6533203125.330078125-.1875.83203125-.322265625,1.5078125-.4052734375.625-.0791015625,1.3857421875-.154296875,2.2802734375-.2255859375.8935546875-.0693359375,1.751953125-.1005859375,2.5771484375-.095703125s1.533203125.091796875,2.123046875.2548828125c.5908203125.1640625.8974609375.4619140625.919921875.8984375l.1220703125,2.39453125c1.798828125-.8671875,3.8134765625-1.541015625,6.044921875-2.0185546875Z"/>
        <path class="cls-1" d="M161.629882812498181,92.4716796875c.07421875-.4404296875.22265625-.8359375.4482421875-1.1865234375.2265625-.302734375.52734375-.572265625.904296875-.810546875.375-.2373046875.9013671875-.3740234375,1.580078125-.4091796875.9208984375.001953125,1.7578125.01953125,2.5126953125.0537109375.7529296875.03515625,1.400390625.1357421875,1.943359375.30078125.8349609375.2001953125,1.3125.5400390625,1.4345703125,1.017578125.12109375.4794921875.08203125,1.1376953125-.1171875,1.970703125-.1640625.5908203125-.37109375,1.28125-.6220703125,2.0693359375-.25.7900390625-.525390625,1.5908203125-.822265625,2.4072265625-.2978515625.8154296875-.59765625,1.6064453125-.896484375,2.3740234375-.30078125.767578125-.5830078125,1.400390625-.8486328125,1.8984375-.220703125.447265625-.4638671875.896484375-.7314453125,1.3466796875-.2685546875.451171875-.5869140625.8544921875-.9560546875,1.2138671875-.37109375.357421875-.79296875.6337890625-1.267578125.828125-.4755859375.1943359375-1.0556640625.2353515625-1.740234375.126953125-1.0302734375-.2392578125-1.7314453125-.4345703125-2.103515625-.583984375-.37109375-.15234375-.5419921875-.3974609375-.5107421875-.73828125l1.79296875-11.87890625Z"/>
        <path class="cls-1" d="M196.832031249998181,65.275390625c2.4296875,1.0400390625,4.453125,2.4287109375,6.0703125,4.1640625,1.6171875,1.736328125,2.806640625,3.65234375,3.568359375,5.74609375.7626953125,2.0966796875,1.1162109375,4.2734375,1.0625,6.53125-.0546875,2.2578125-.5,4.4521484375-1.3359375,6.580078125-.8369140625,2.1279296875-2.09375,4.109375-3.7705078125,5.9404296875-1.6767578125,1.8330078125-3.7216796875,3.3447265625-6.1337890625,4.53515625-2.5107421875,1.1953125-5.3232421875,2.140625-8.4404296875,2.8330078125-.0341796875.29296875-.048828125.9482421875-.044921875,1.966796875-.00390625.8740234375.0400390625,2.1923828125.1298828125,3.9580078125.0908203125,1.765625.2158203125,4.197265625.3740234375,7.2939453125-.0166015625.630859375-.1318359375,1.2177734375-.345703125,1.763671875-.220703125.4482421875-.5625.876953125-1.025390625,1.2900390625-.46484375.41015625-1.10546875.6865234375-1.921875.826171875-.8662109375.1396484375-1.7705078125.24609375-2.7119140625.3203125-.9423828125.0712890625-1.818359375.01953125-2.6279296875-.15625-.8095703125-.177734375-1.4951171875-.5419921875-2.056640625-1.0966796875-.5625-.552734375-.8974609375-1.4091796875-1.0048828125-2.56640625-.1181640625-1.3525390625-.2392578125-3.2509765625-.3642578125-5.6923828125-.125-2.443359375-.25390625-5.1787109375-.3837890625-8.2021484375-.130859375-3.0234375-.2841796875-6.25390625-.4599609375-9.689453125-.1767578125-3.435546875-.3603515625-6.7841796875-.5517578125-10.048828125-.1923828125-3.265625-.38671875-6.3583984375-.5849609375-9.2822265625-.1982421875-2.92578125-.3994140625-5.4248046875-.6025390625-7.5-.0390625-.7734375.193359375-1.4287109375.7001953125-1.96484375.505859375-.53515625,1.2373046875-.923828125,2.1953125-1.1669921875.6728515625-.130859375,1.4404296875-.2919921875,2.3037109375-.482421875.86328125-.189453125,1.705078125-.3056640625,2.529296875-.34765625.8212890625-.0419921875,1.529296875.04296875,2.123046875.255859375.5927734375.212890625.953125.6298828125,1.08203125,1.2529296875.060546875.2412109375.095703125.4443359375.1044921875.61328125.0087890625.169921875.0400390625.3251953125.0966796875.46875,1.830078125-.240234375,3.7724609375-.216796875,5.82421875.064453125,2.0517578125.2841796875,4.119140625.880859375,6.203125,1.7919921875ZM187.027343749998181,91.1708984375c1.876953125-.2890625,3.48046875-.9306640625,4.8125-1.919921875s2.3388671875-2.14453125,3.0234375-3.4658203125c.68359375-1.3193359375,1.037109375-2.6953125,1.0615234375-4.1279296875.0234375-1.431640625-.322265625-2.7490234375-1.0380859375-3.94921875-.716796875-1.19921875-1.8095703125-2.1630859375-3.27734375-2.8876953125-1.4677734375-.7255859375-3.33984375-1.052734375-5.6162109375-.9853515625.138671875,2.708984375.2900390625,5.4296875.455078125,8.162109375.1630859375,2.7314453125.3486328125,5.64453125.556640625,8.73828125l.0107421875.2177734375.01171875.2177734375Z"/>
        <path class="cls-1" d="M212.160156249998181,54.8857421875c-.55078125-.3095703125-.7705078125-.8330078125-.662109375-1.56640625.107421875-.7333984375.369140625-1.5341796875.78515625-2.404296875.416015625-.869140625.9306640625-1.732421875,1.541015625-2.5888671875.611328125-.8564453125,1.14453125-1.5615234375,1.6015625-2.119140625.3623046875-.5029296875.8427734375-.806640625,1.4453125-.9111328125.599609375-.103515625,1.224609375.0224609375,1.8740234375.376953125,2.298828125,1.3369140625,4.443359375,2.9375,6.4306640625,4.7998046875,1.986328125,1.8623046875,3.7529296875,3.91796875,5.2998046875,6.16796875,1.544921875,2.2490234375,2.798828125,4.70703125,3.7607421875,7.375.9609375,2.666015625,1.54296875,5.498046875,1.7451171875,8.4951171875.21875,3.3359375.00390625,6.462890625-.6474609375,9.3818359375-.650390625,2.9208984375-1.65234375,5.615234375-3.0048828125,8.0849609375-1.353515625,2.4697265625-2.9970703125,4.7001953125-4.9326171875,6.69140625-1.9345703125,1.9912109375-4.1015625,3.728515625-6.4990234375,5.2080078125-.9892578125.5830078125-1.98828125.9501953125-2.9990234375,1.0986328125-1.01171875.1484375-1.8271484375-.1484375-2.447265625-.8916015625-.6767578125-.8876953125-1.3125-1.9462890625-1.9091796875-3.177734375-.5966796875-1.2294921875-.9697265625-2.3515625-1.1181640625-3.361328125-.0703125-.43359375-.0673828125-.8330078125.01171875-1.201171875.0771484375-.3671875.3037109375-.6826171875.6787109375-.943359375.234375-.158203125.45703125-.3154296875.6669921875-.47265625.2109375-.15625.4326171875-.3115234375.66796875-.4697265625,2.810546875-1.9384765625,4.98046875-4.0625,6.51171875-6.373046875,1.5302734375-2.30859375,2.548828125-4.689453125,3.0546875-7.1416015625.50390625-2.451171875.5498046875-4.876953125.1357421875-7.2822265625-.4140625-2.4033203125-1.1748046875-4.6806640625-2.2783203125-6.8310546875-1.1044921875-2.150390625-2.4892578125-4.080078125-4.15234375-5.791015625-1.6650390625-1.70703125-3.5185546875-3.0927734375-5.560546875-4.1533203125Z"/>
      </g>
      <g>
        <path class="cls-2" d="M75.440429687498181,80.2275390625c2.212890625,1.53515625,3.9013671875,3.4990234375,5.0673828125,5.88671875,1.1650390625,2.390625,1.62109375,4.90234375,1.3681640625,7.533203125-.2841796875,2.974609375-1.3173828125,5.513671875-3.1015625,7.6171875-1.7841796875,2.10546875-3.9287109375,3.8017578125-6.4326171875,5.095703125-2.505859375,1.2919921875-5.234375,2.2080078125-8.1904296875,2.748046875-2.955078125.5380859375-5.74609375.73046875-8.3740234375.57421875-.2373046875.107421875-.4521484375.1796875-.6435546875.2138671875-.1923828125.0341796875-.408203125.08203125-.6474609375.142578125-.8681640625.0927734375-1.763671875.138671875-2.6845703125.1376953125-.9228515625-.001953125-1.7646484375-.1171875-2.5283203125-.34375s-1.4267578125-.62890625-1.990234375-1.20703125-.921875-1.4189453125-1.0751953125-2.52734375c-.1240234375-.52734375-.203125-1.6025390625-.2373046875-3.2255859375-.0361328125-1.623046875-.087890625-3.5966796875-.158203125-5.921875-.025390625-2.3740234375-.072265625-4.9560546875-.142578125-7.7412109375-.0693359375-2.7861328125-.15234375-5.58203125-.248046875-8.3916015625-.140625-3.677734375-.28125-7.380859375-.423828125-11.109375-.142578125-3.7275390625-.4794921875-7.46875-1.01171875-11.2265625-.119140625-.4296875-.08984375-.818359375.0859375-1.1669921875.08203125-.2958984375.28515625-.5859375.6103515625-.869140625.3251953125-.2822265625.8232421875-.490234375,1.49609375-.6220703125.48046875-.0732421875,1.009765625-.171875,1.5859375-.298828125.5751953125-.126953125,1.17578125-.2294921875,1.802734375-.310546875.6259765625-.080078125,1.2314453125-.111328125,1.814453125-.09375.5830078125.01953125,1.095703125.08984375,1.5380859375.2119140625,2.4501953125-.4638671875,5.037109375-.609375,7.7626953125-.43359375s5.310546875.685546875,7.7548828125,1.5302734375c2.4443359375.8466796875,4.58984375,2.033203125,6.439453125,3.5634765625,1.8486328125,1.5302734375,3.123046875,3.44140625,3.822265625,5.7333984375.2939453125,1.00390625.494140625,2.060546875.599609375,3.1708984375.1044921875,1.1103515625.04296875,2.265625-.1865234375,3.46484375-.2294921875,1.201171875-.6376953125,2.458984375-1.2255859375,3.7744140625-.5869140625,1.314453125-1.4033203125,2.6796875-2.4462890625,4.0908203125ZM56.354492187498181,76.912109375c2.3271484375-.021484375,4.2734375-.3642578125,5.8408203125-1.02734375,1.56640625-.6630859375,2.724609375-1.4853515625,3.474609375-2.4697265625.75-.9833984375,1.083984375-2.03125,1.0029296875-3.142578125-.08203125-1.1123046875-.5556640625-2.0830078125-1.4228515625-2.9111328125s-2.134765625-1.4296875-3.802734375-1.8056640625c-1.6689453125-.375-3.751953125-.3291015625-6.25.138671875.2421875,1.8779296875.4462890625,3.7373046875.61328125,5.5703125.166015625,1.8359375.3466796875,3.7177734375.5439453125,5.6474609375ZM57.650390624998181,97.9443359375c2.626953125.1572265625,4.8212890625-.0751953125,6.583984375-.7001953125,1.7626953125-.6240234375,3.068359375-1.4189453125,3.9169921875-2.3837890625.8466796875-.9638671875,1.255859375-1.98046875,1.2255859375-3.044921875-.0302734375-1.0654296875-.5-1.9638671875-1.4111328125-2.693359375-.91015625-.7294921875-2.267578125-1.1806640625-4.0712890625-1.3564453125-1.8037109375-.1728515625-4.0439453125.123046875-6.720703125.8916015625l.4765625,9.287109375Z"/>
        <path class="cls-2" d="M108.682617187498181,60.1875c-1.97265625,1.2666015625-3.7470703125,2.837890625-5.32421875,4.7119140625-1.5771484375,1.8759765625-2.8427734375,3.94140625-3.7939453125,6.197265625s-1.5712890625,4.603515625-1.857421875,7.04296875c-.2880859375,2.44140625-.103515625,4.85546875.552734375,7.2470703125.65625,2.3935546875,1.8271484375,4.6611328125,3.513671875,6.8056640625,1.685546875,2.14453125,3.978515625,4.0400390625,6.8759765625,5.6865234375.2490234375.1337890625.486328125.265625.7119140625.3994140625.224609375.134765625.4609375.2685546875.7119140625.4013671875.3984375.2216796875.64453125.5126953125.7353515625.87109375.091796875.359375.099609375.7587890625.025390625,1.19921875-.0458984375,1.0205078125-.337890625,2.17578125-.8779296875,3.4638671875-.541015625,1.2900390625-1.1259765625,2.41015625-1.755859375,3.365234375-.5400390625.802734375-1.3212890625,1.181640625-2.3427734375,1.13671875-1.0205078125-.0439453125-2.052734375-.306640625-3.095703125-.7861328125-2.4404296875-1.2314453125-4.6875-2.7431640625-6.744140625-4.529296875-2.0556640625-1.7861328125-3.833984375-3.841796875-5.3359375-6.1650390625-1.5009765625-2.32421875-2.6650390625-4.9072265625-3.4892578125-7.751953125-.8251953125-2.84375-1.2265625-5.939453125-1.203125-9.287109375.0390625-3.009765625.4619140625-5.892578125,1.2666015625-8.650390625s1.896484375-5.3359375,3.27734375-7.7353515625c1.3798828125-2.3994140625,3.01171875-4.62890625,4.896484375-6.689453125,1.8828125-2.060546875,3.9228515625-3.8759765625,6.123046875-5.443359375.6083984375-.4189453125,1.216796875-.6083984375,1.826171875-.56640625.6083984375.0419921875,1.1181640625.294921875,1.5302734375.7587890625.462890625.509765625,1.029296875,1.1591796875,1.701171875,1.94921875.669921875.791015625,1.24609375,1.5986328125,1.724609375,2.421875.478515625.82421875.796875,1.595703125.955078125,2.314453125.1572265625.720703125-.0439453125,1.265625-.607421875,1.6318359375Z"/>
        <path class="cls-2" d="M131.754882812498181,66.755859375c2.2314453125-.478515625,4.4658203125-.6416015625,6.705078125-.4892578125,2.23828125.15234375,4.3642578125.685546875,6.3759765625,1.6005859375,2.0107421875.9150390625,3.6953125,2.3330078125,5.0556640625,4.251953125,1.150390625,1.6396484375,2.0556640625,3.6904296875,2.7158203125,6.154296875.66015625,2.46484375,1.0830078125,5.5107421875,1.26953125,9.138671875l.4609375,11.8359375c.01953125.3876953125.017578125.8486328125-.001953125,1.3828125-.021484375.53515625-.1396484375,1.0751953125-.3544921875,1.619140625s-.5537109375,1.03515625-1.015625,1.470703125c-.462890625.435546875-1.103515625.72265625-1.919921875.8623046875-1.296875.259765625-2.671875.392578125-4.126953125.3935546875-1.455078125.001953125-2.5966796875-.486328125-3.421875-1.4619140625-.4658203125-.5576171875-.806640625-1.2919921875-1.0224609375-2.203125-.216796875-.91015625-.3642578125-1.8974609375-.4423828125-2.9599609375-.080078125-1.0634765625-.1083984375-2.1162109375-.08984375-3.1611328125.01953125-1.0439453125.0576171875-1.9541015625.115234375-2.734375.10546875-1.703125.19140625-3.357421875.2548828125-4.9609375s-.064453125-3.1474609375-.3828125-4.63671875c-.3720703125-1.5810546875-.9990234375-2.91796875-1.8798828125-4.0146484375-.880859375-1.0927734375-1.8779296875-1.8671875-2.9921875-2.3203125-1.115234375-.451171875-2.26171875-.5869140625-3.4404296875-.40625-1.1796875.18359375-2.267578125.7236328125-3.263671875,1.623046875-.998046875.900390625-1.81640625,2.19140625-2.45703125,3.8720703125-.6416015625,1.68359375-.9716796875,3.7607421875-.990234375,6.236328125l.998046875,15.2275390625c-.0751953125.44140625-.22265625.861328125-.4443359375,1.259765625-.2255859375.3515625-.560546875.671875-1.005859375.9609375-.447265625.2900390625-1.078125.5029296875-1.8955078125.642578125-.865234375.1416015625-1.74609375.2470703125-2.6396484375.3173828125s-1.7431640625.041015625-2.55078125-.0869140625c-.806640625-.1298828125-1.4873046875-.384765625-2.0400390625-.76953125-.5537109375-.3828125-.921875-.958984375-1.107421875-1.7255859375-.1123046875-.2841796875-.2138671875-1.3349609375-.306640625-3.1484375-.0927734375-1.8154296875-.1689453125-4.017578125-.2294921875-6.609375-.0595703125-2.5908203125-.1181640625-5.3662109375-.171875-8.322265625-.0546875-2.955078125-.099609375-5.73046875-.1357421875-8.3232421875-.03515625-2.5927734375-.0517578125-4.7998046875-.0478515625-6.6181640625.00390625-1.8193359375-.0029296875-2.8984375-.01953125-3.2373046875-.064453125-.287109375-.0048828125-.556640625.1767578125-.8095703125.1328125-.248046875.36328125-.466796875.693359375-.6533203125.330078125-.1875.83203125-.322265625,1.5078125-.4052734375.625-.0791015625,1.3857421875-.154296875,2.2802734375-.2255859375.8935546875-.0693359375,1.751953125-.1005859375,2.5771484375-.095703125s1.533203125.091796875,2.123046875.2548828125c.5908203125.1640625.8974609375.4619140625.919921875.8984375l.1220703125,2.39453125c1.798828125-.8671875,3.8134765625-1.541015625,6.044921875-2.0185546875Z"/>
        <path class="cls-2" d="M161.629882812498181,92.4716796875c.07421875-.4404296875.22265625-.8359375.4482421875-1.1865234375.2265625-.302734375.52734375-.572265625.904296875-.810546875.375-.2373046875.9013671875-.3740234375,1.580078125-.4091796875.9208984375.001953125,1.7578125.01953125,2.5126953125.0537109375.7529296875.03515625,1.400390625.1357421875,1.943359375.30078125.8349609375.2001953125,1.3125.5400390625,1.4345703125,1.017578125.12109375.4794921875.08203125,1.1376953125-.1171875,1.970703125-.1640625.5908203125-.37109375,1.28125-.6220703125,2.0693359375-.25.7900390625-.525390625,1.5908203125-.822265625,2.4072265625-.2978515625.8154296875-.59765625,1.6064453125-.896484375,2.3740234375-.30078125.767578125-.5830078125,1.400390625-.8486328125,1.8984375-.220703125.447265625-.4638671875.896484375-.7314453125,1.3466796875-.2685546875.451171875-.5869140625.8544921875-.9560546875,1.2138671875-.37109375.357421875-.79296875.6337890625-1.267578125.828125-.4755859375.1943359375-1.0556640625.2353515625-1.740234375.126953125-1.0302734375-.2392578125-1.7314453125-.4345703125-2.103515625-.583984375-.37109375-.15234375-.5419921875-.3974609375-.5107421875-.73828125l1.79296875-11.87890625Z"/>
        <path class="cls-2" d="M196.832031249998181,65.275390625c2.4296875,1.0400390625,4.453125,2.4287109375,6.0703125,4.1640625,1.6171875,1.736328125,2.806640625,3.65234375,3.568359375,5.74609375.7626953125,2.0966796875,1.1162109375,4.2734375,1.0625,6.53125-.0546875,2.2578125-.5,4.4521484375-1.3359375,6.580078125-.8369140625,2.1279296875-2.09375,4.109375-3.7705078125,5.9404296875-1.6767578125,1.8330078125-3.7216796875,3.3447265625-6.1337890625,4.53515625-2.5107421875,1.1953125-5.3232421875,2.140625-8.4404296875,2.8330078125-.0341796875.29296875-.048828125.9482421875-.044921875,1.966796875-.00390625.8740234375.0400390625,2.1923828125.1298828125,3.9580078125.0908203125,1.765625.2158203125,4.197265625.3740234375,7.2939453125-.0166015625.630859375-.1318359375,1.2177734375-.345703125,1.763671875-.220703125.4482421875-.5625.876953125-1.025390625,1.2900390625-.46484375.41015625-1.10546875.6865234375-1.921875.826171875-.8662109375.1396484375-1.7705078125.24609375-2.7119140625.3203125-.9423828125.0712890625-1.818359375.01953125-2.6279296875-.15625-.8095703125-.177734375-1.4951171875-.5419921875-2.056640625-1.0966796875-.5625-.552734375-.8974609375-1.4091796875-1.0048828125-2.56640625-.1181640625-1.3525390625-.2392578125-3.2509765625-.3642578125-5.6923828125-.125-2.443359375-.25390625-5.1787109375-.3837890625-8.2021484375-.130859375-3.0234375-.2841796875-6.25390625-.4599609375-9.689453125-.1767578125-3.435546875-.3603515625-6.7841796875-.5517578125-10.048828125-.1923828125-3.265625-.38671875-6.3583984375-.5849609375-9.2822265625-.1982421875-2.92578125-.3994140625-5.4248046875-.6025390625-7.5-.0390625-.7734375.193359375-1.4287109375.7001953125-1.96484375.505859375-.53515625,1.2373046875-.923828125,2.1953125-1.1669921875.6728515625-.130859375,1.4404296875-.2919921875,2.3037109375-.482421875.86328125-.189453125,1.705078125-.3056640625,2.529296875-.34765625.8212890625-.0419921875,1.529296875.04296875,2.123046875.255859375.5927734375.212890625.953125.6298828125,1.08203125,1.2529296875.060546875.2412109375.095703125.4443359375.1044921875.61328125.0087890625.169921875.0400390625.3251953125.0966796875.46875,1.830078125-.240234375,3.7724609375-.216796875,5.82421875.064453125,2.0517578125.2841796875,4.119140625.880859375,6.203125,1.7919921875ZM187.027343749998181,91.1708984375c1.876953125-.2890625,3.48046875-.9306640625,4.8125-1.919921875s2.3388671875-2.14453125,3.0234375-3.4658203125c.68359375-1.3193359375,1.037109375-2.6953125,1.0615234375-4.1279296875.0234375-1.431640625-.322265625-2.7490234375-1.0380859375-3.94921875-.716796875-1.19921875-1.8095703125-2.1630859375-3.27734375-2.8876953125-1.4677734375-.7255859375-3.33984375-1.052734375-5.6162109375-.9853515625.138671875,2.708984375.2900390625,5.4296875.455078125,8.162109375.1630859375,2.7314453125.3486328125,5.64453125.556640625,8.73828125l.0107421875.2177734375.01171875.2177734375Z"/>
        <path class="cls-2" d="M212.160156249998181,54.8857421875c-.55078125-.3095703125-.7705078125-.8330078125-.662109375-1.56640625.107421875-.7333984375.369140625-1.5341796875.78515625-2.404296875.416015625-.869140625.9306640625-1.732421875,1.541015625-2.5888671875.611328125-.8564453125,1.14453125-1.5615234375,1.6015625-2.119140625.3623046875-.5029296875.8427734375-.806640625,1.4453125-.9111328125.599609375-.103515625,1.224609375.0224609375,1.8740234375.376953125,2.298828125,1.3369140625,4.443359375,2.9375,6.4306640625,4.7998046875,1.986328125,1.8623046875,3.7529296875,3.91796875,5.2998046875,6.16796875,1.544921875,2.2490234375,2.798828125,4.70703125,3.7607421875,7.375.9609375,2.666015625,1.54296875,5.498046875,1.7451171875,8.4951171875.21875,3.3359375.00390625,6.462890625-.6474609375,9.3818359375-.650390625,2.9208984375-1.65234375,5.615234375-3.0048828125,8.0849609375-1.353515625,2.4697265625-2.9970703125,4.7001953125-4.9326171875,6.69140625-1.9345703125,1.9912109375-4.1015625,3.728515625-6.4990234375,5.2080078125-.9892578125.5830078125-1.98828125.9501953125-2.9990234375,1.0986328125-1.01171875.1484375-1.8271484375-.1484375-2.447265625-.8916015625-.6767578125-.8876953125-1.3125-1.9462890625-1.9091796875-3.177734375-.5966796875-1.2294921875-.9697265625-2.3515625-1.1181640625-3.361328125-.0703125-.43359375-.0673828125-.8330078125.01171875-1.201171875.0771484375-.3671875.3037109375-.6826171875.6787109375-.943359375.234375-.158203125.45703125-.3154296875.6669921875-.47265625.2109375-.15625.4326171875-.3115234375.66796875-.4697265625,2.810546875-1.9384765625,4.98046875-4.0625,6.51171875-6.373046875,1.5302734375-2.30859375,2.548828125-4.689453125,3.0546875-7.1416015625.50390625-2.451171875.5498046875-4.876953125.1357421875-7.2822265625-.4140625-2.4033203125-1.1748046875-4.6806640625-2.2783203125-6.8310546875-1.1044921875-2.150390625-2.4892578125-4.080078125-4.15234375-5.791015625-1.6650390625-1.70703125-3.5185546875-3.0927734375-5.560546875-4.1533203125Z"/>
      </g>
      <g>
        <path class="cls-3" d="M75.440429687498181,80.2275390625c2.212890625,1.53515625,3.9013671875,3.4990234375,5.0673828125,5.88671875,1.1650390625,2.390625,1.62109375,4.90234375,1.3681640625,7.533203125-.2841796875,2.974609375-1.3173828125,5.513671875-3.1015625,7.6171875-1.7841796875,2.10546875-3.9287109375,3.8017578125-6.4326171875,5.095703125-2.505859375,1.2919921875-5.234375,2.2080078125-8.1904296875,2.748046875-2.955078125.5380859375-5.74609375.73046875-8.3740234375.57421875-.2373046875.107421875-.4521484375.1796875-.6435546875.2138671875-.1923828125.0341796875-.408203125.08203125-.6474609375.142578125-.8681640625.0927734375-1.763671875.138671875-2.6845703125.1376953125-.9228515625-.001953125-1.7646484375-.1171875-2.5283203125-.34375s-1.4267578125-.62890625-1.990234375-1.20703125-.921875-1.4189453125-1.0751953125-2.52734375c-.1240234375-.52734375-.203125-1.6025390625-.2373046875-3.2255859375-.0361328125-1.623046875-.087890625-3.5966796875-.158203125-5.921875-.025390625-2.3740234375-.072265625-4.9560546875-.142578125-7.7412109375-.0693359375-2.7861328125-.15234375-5.58203125-.248046875-8.3916015625-.140625-3.677734375-.28125-7.380859375-.423828125-11.109375-.142578125-3.7275390625-.4794921875-7.46875-1.01171875-11.2265625-.119140625-.4296875-.08984375-.818359375.0859375-1.1669921875.08203125-.2958984375.28515625-.5859375.6103515625-.869140625.3251953125-.2822265625.8232421875-.490234375,1.49609375-.6220703125.48046875-.0732421875,1.009765625-.171875,1.5859375-.298828125.5751953125-.126953125,1.17578125-.2294921875,1.802734375-.310546875.6259765625-.080078125,1.2314453125-.111328125,1.814453125-.09375.5830078125.01953125,1.095703125.08984375,1.5380859375.2119140625,2.4501953125-.4638671875,5.037109375-.609375,7.7626953125-.43359375s5.310546875.685546875,7.7548828125,1.5302734375c2.4443359375.8466796875,4.58984375,2.033203125,6.439453125,3.5634765625,1.8486328125,1.5302734375,3.123046875,3.44140625,3.822265625,5.7333984375.2939453125,1.00390625.494140625,2.060546875.599609375,3.1708984375.1044921875,1.1103515625.04296875,2.265625-.1865234375,3.46484375-.2294921875,1.201171875-.6376953125,2.458984375-1.2255859375,3.7744140625-.5869140625,1.314453125-1.4033203125,2.6796875-2.4462890625,4.0908203125ZM56.354492187498181,76.912109375c2.3271484375-.021484375,4.2734375-.3642578125,5.8408203125-1.02734375,1.56640625-.6630859375,2.724609375-1.4853515625,3.474609375-2.4697265625.75-.9833984375,1.083984375-2.03125,1.0029296875-3.142578125-.08203125-1.1123046875-.5556640625-2.0830078125-1.4228515625-2.9111328125s-2.134765625-1.4296875-3.802734375-1.8056640625c-1.6689453125-.375-3.751953125-.3291015625-6.25.138671875.2421875,1.8779296875.4462890625,3.7373046875.61328125,5.5703125.166015625,1.8359375.3466796875,3.7177734375.5439453125,5.6474609375ZM57.650390624998181,97.9443359375c2.626953125.1572265625,4.8212890625-.0751953125,6.583984375-.7001953125,1.7626953125-.6240234375,3.068359375-1.4189453125,3.9169921875-2.3837890625.8466796875-.9638671875,1.255859375-1.98046875,1.2255859375-3.044921875-.0302734375-1.0654296875-.5-1.9638671875-1.4111328125-2.693359375-.91015625-.7294921875-2.267578125-1.1806640625-4.0712890625-1.3564453125-1.8037109375-.1728515625-4.0439453125.123046875-6.720703125.8916015625l.4765625,9.287109375Z"/>
        <path class="cls-3" d="M108.682617187498181,60.1875c-1.97265625,1.2666015625-3.7470703125,2.837890625-5.32421875,4.7119140625-1.5771484375,1.8759765625-2.8427734375,3.94140625-3.7939453125,6.197265625s-1.5712890625,4.603515625-1.857421875,7.04296875c-.2880859375,2.44140625-.103515625,4.85546875.552734375,7.2470703125.65625,2.3935546875,1.8271484375,4.6611328125,3.513671875,6.8056640625,1.685546875,2.14453125,3.978515625,4.0400390625,6.8759765625,5.6865234375.2490234375.1337890625.486328125.265625.7119140625.3994140625.224609375.134765625.4609375.2685546875.7119140625.4013671875.3984375.2216796875.64453125.5126953125.7353515625.87109375.091796875.359375.099609375.7587890625.025390625,1.19921875-.0458984375,1.0205078125-.337890625,2.17578125-.8779296875,3.4638671875-.541015625,1.2900390625-1.1259765625,2.41015625-1.755859375,3.365234375-.5400390625.802734375-1.3212890625,1.181640625-2.3427734375,1.13671875-1.0205078125-.0439453125-2.052734375-.306640625-3.095703125-.7861328125-2.4404296875-1.2314453125-4.6875-2.7431640625-6.744140625-4.529296875-2.0556640625-1.7861328125-3.833984375-3.841796875-5.3359375-6.1650390625-1.5009765625-2.32421875-2.6650390625-4.9072265625-3.4892578125-7.751953125-.8251953125-2.84375-1.2265625-5.939453125-1.203125-9.287109375.0390625-3.009765625.4619140625-5.892578125,1.2666015625-8.650390625s1.896484375-5.3359375,3.27734375-7.7353515625c1.3798828125-2.3994140625,3.01171875-4.62890625,4.896484375-6.689453125,1.8828125-2.060546875,3.9228515625-3.8759765625,6.123046875-5.443359375.6083984375-.4189453125,1.216796875-.6083984375,1.826171875-.56640625.6083984375.0419921875,1.1181640625.294921875,1.5302734375.7587890625.462890625.509765625,1.029296875,1.1591796875,1.701171875,1.94921875.669921875.791015625,1.24609375,1.5986328125,1.724609375,2.421875.478515625.82421875.796875,1.595703125.955078125,2.314453125.1572265625.720703125-.0439453125,1.265625-.607421875,1.6318359375Z"/>
        <path class="cls-3" d="M131.754882812498181,66.755859375c2.2314453125-.478515625,4.4658203125-.6416015625,6.705078125-.4892578125,2.23828125.15234375,4.3642578125.685546875,6.3759765625,1.6005859375,2.0107421875.9150390625,3.6953125,2.3330078125,5.0556640625,4.251953125,1.150390625,1.6396484375,2.0556640625,3.6904296875,2.7158203125,6.154296875.66015625,2.46484375,1.0830078125,5.5107421875,1.26953125,9.138671875l.4609375,11.8359375c.01953125.3876953125.017578125.8486328125-.001953125,1.3828125-.021484375.53515625-.1396484375,1.0751953125-.3544921875,1.619140625s-.5537109375,1.03515625-1.015625,1.470703125c-.462890625.435546875-1.103515625.72265625-1.919921875.8623046875-1.296875.259765625-2.671875.392578125-4.126953125.3935546875-1.455078125.001953125-2.5966796875-.486328125-3.421875-1.4619140625-.4658203125-.5576171875-.806640625-1.2919921875-1.0224609375-2.203125-.216796875-.91015625-.3642578125-1.8974609375-.4423828125-2.9599609375-.080078125-1.0634765625-.1083984375-2.1162109375-.08984375-3.1611328125.01953125-1.0439453125.0576171875-1.9541015625.115234375-2.734375.10546875-1.703125.19140625-3.357421875.2548828125-4.9609375s-.064453125-3.1474609375-.3828125-4.63671875c-.3720703125-1.5810546875-.9990234375-2.91796875-1.8798828125-4.0146484375-.880859375-1.0927734375-1.8779296875-1.8671875-2.9921875-2.3203125-1.115234375-.451171875-2.26171875-.5869140625-3.4404296875-.40625-1.1796875.18359375-2.267578125.7236328125-3.263671875,1.623046875-.998046875.900390625-1.81640625,2.19140625-2.45703125,3.8720703125-.6416015625,1.68359375-.9716796875,3.7607421875-.990234375,6.236328125l.998046875,15.2275390625c-.0751953125.44140625-.22265625.861328125-.4443359375,1.259765625-.2255859375.3515625-.560546875.671875-1.005859375.9609375-.447265625.2900390625-1.078125.5029296875-1.8955078125.642578125-.865234375.1416015625-1.74609375.2470703125-2.6396484375.3173828125s-1.7431640625.041015625-2.55078125-.0869140625c-.806640625-.1298828125-1.4873046875-.384765625-2.0400390625-.76953125-.5537109375-.3828125-.921875-.958984375-1.107421875-1.7255859375-.1123046875-.2841796875-.2138671875-1.3349609375-.306640625-3.1484375-.0927734375-1.8154296875-.1689453125-4.017578125-.2294921875-6.609375-.0595703125-2.5908203125-.1181640625-5.3662109375-.171875-8.322265625-.0546875-2.955078125-.099609375-5.73046875-.1357421875-8.3232421875-.03515625-2.5927734375-.0517578125-4.7998046875-.0478515625-6.6181640625.00390625-1.8193359375-.0029296875-2.8984375-.01953125-3.2373046875-.064453125-.287109375-.0048828125-.556640625.1767578125-.8095703125.1328125-.248046875.36328125-.466796875.693359375-.6533203125.330078125-.1875.83203125-.322265625,1.5078125-.4052734375.625-.0791015625,1.3857421875-.154296875,2.2802734375-.2255859375.8935546875-.0693359375,1.751953125-.1005859375,2.5771484375-.095703125s1.533203125.091796875,2.123046875.2548828125c.5908203125.1640625.8974609375.4619140625.919921875.8984375l.1220703125,2.39453125c1.798828125-.8671875,3.8134765625-1.541015625,6.044921875-2.0185546875Z"/>
        <path class="cls-3" d="M161.629882812498181,92.4716796875c.07421875-.4404296875.22265625-.8359375.4482421875-1.1865234375.2265625-.302734375.52734375-.572265625.904296875-.810546875.375-.2373046875.9013671875-.3740234375,1.580078125-.4091796875.9208984375.001953125,1.7578125.01953125,2.5126953125.0537109375.7529296875.03515625,1.400390625.1357421875,1.943359375.30078125.8349609375.2001953125,1.3125.5400390625,1.4345703125,1.017578125.12109375.4794921875.08203125,1.1376953125-.1171875,1.970703125-.1640625.5908203125-.37109375,1.28125-.6220703125,2.0693359375-.25.7900390625-.525390625,1.5908203125-.822265625,2.4072265625-.2978515625.8154296875-.59765625,1.6064453125-.896484375,2.3740234375-.30078125.767578125-.5830078125,1.400390625-.8486328125,1.8984375-.220703125.447265625-.4638671875.896484375-.7314453125,1.3466796875-.2685546875.451171875-.5869140625.8544921875-.9560546875,1.2138671875-.37109375.357421875-.79296875.6337890625-1.267578125.828125-.4755859375.1943359375-1.0556640625.2353515625-1.740234375.126953125-1.0302734375-.2392578125-1.7314453125-.4345703125-2.103515625-.583984375-.37109375-.15234375-.5419921875-.3974609375-.5107421875-.73828125l1.79296875-11.87890625Z"/>
        <path class="cls-3" d="M196.832031249998181,65.275390625c2.4296875,1.0400390625,4.453125,2.4287109375,6.0703125,4.1640625,1.6171875,1.736328125,2.806640625,3.65234375,3.568359375,5.74609375.7626953125,2.0966796875,1.1162109375,4.2734375,1.0625,6.53125-.0546875,2.2578125-.5,4.4521484375-1.3359375,6.580078125-.8369140625,2.1279296875-2.09375,4.109375-3.7705078125,5.9404296875-1.6767578125,1.8330078125-3.7216796875,3.3447265625-6.1337890625,4.53515625-2.5107421875,1.1953125-5.3232421875,2.140625-8.4404296875,2.8330078125-.0341796875.29296875-.048828125.9482421875-.044921875,1.966796875-.00390625.8740234375.0400390625,2.1923828125.1298828125,3.9580078125.0908203125,1.765625.2158203125,4.197265625.3740234375,7.2939453125-.0166015625.630859375-.1318359375,1.2177734375-.345703125,1.763671875-.220703125.4482421875-.5625.876953125-1.025390625,1.2900390625-.46484375.41015625-1.10546875.6865234375-1.921875.826171875-.8662109375.1396484375-1.7705078125.24609375-2.7119140625.3203125-.9423828125.0712890625-1.818359375.01953125-2.6279296875-.15625-.8095703125-.177734375-1.4951171875-.5419921875-2.056640625-1.0966796875-.5625-.552734375-.8974609375-1.4091796875-1.0048828125-2.56640625-.1181640625-1.3525390625-.2392578125-3.2509765625-.3642578125-5.6923828125-.125-2.443359375-.25390625-5.1787109375-.3837890625-8.2021484375-.130859375-3.0234375-.2841796875-6.25390625-.4599609375-9.689453125-.1767578125-3.435546875-.3603515625-6.7841796875-.5517578125-10.048828125-.1923828125-3.265625-.38671875-6.3583984375-.5849609375-9.2822265625-.1982421875-2.92578125-.3994140625-5.4248046875-.6025390625-7.5-.0390625-.7734375.193359375-1.4287109375.7001953125-1.96484375.505859375-.53515625,1.2373046875-.923828125,2.1953125-1.1669921875.6728515625-.130859375,1.4404296875-.2919921875,2.3037109375-.482421875.86328125-.189453125,1.705078125-.3056640625,2.529296875-.34765625.8212890625-.0419921875,1.529296875.04296875,2.123046875.255859375.5927734375.212890625.953125.6298828125,1.08203125,1.2529296875.060546875.2412109375.095703125.4443359375.1044921875.61328125.0087890625.169921875.0400390625.3251953125.0966796875.46875,1.830078125-.240234375,3.7724609375-.216796875,5.82421875.064453125,2.0517578125.2841796875,4.119140625.880859375,6.203125,1.7919921875ZM187.027343749998181,91.1708984375c1.876953125-.2890625,3.48046875-.9306640625,4.8125-1.919921875s2.3388671875-2.14453125,3.0234375-3.4658203125c.68359375-1.3193359375,1.037109375-2.6953125,1.0615234375-4.1279296875.0234375-1.431640625-.322265625-2.7490234375-1.0380859375-3.94921875-.716796875-1.19921875-1.8095703125-2.1630859375-3.27734375-2.8876953125-1.4677734375-.7255859375-3.33984375-1.052734375-5.6162109375-.9853515625.138671875,2.708984375.2900390625,5.4296875.455078125,8.162109375.1630859375,2.7314453125.3486328125,5.64453125.556640625,8.73828125l.0107421875.2177734375.01171875.2177734375Z"/>
        <path class="cls-3" d="M212.160156249998181,54.8857421875c-.55078125-.3095703125-.7705078125-.8330078125-.662109375-1.56640625.107421875-.7333984375.369140625-1.5341796875.78515625-2.404296875.416015625-.869140625.9306640625-1.732421875,1.541015625-2.5888671875.611328125-.8564453125,1.14453125-1.5615234375,1.6015625-2.119140625.3623046875-.5029296875.8427734375-.806640625,1.4453125-.9111328125.599609375-.103515625,1.224609375.0224609375,1.8740234375.376953125,2.298828125,1.3369140625,4.443359375,2.9375,6.4306640625,4.7998046875,1.986328125,1.8623046875,3.7529296875,3.91796875,5.2998046875,6.16796875,1.544921875,2.2490234375,2.798828125,4.70703125,3.7607421875,7.375.9609375,2.666015625,1.54296875,5.498046875,1.7451171875,8.4951171875.21875,3.3359375.00390625,6.462890625-.6474609375,9.3818359375-.650390625,2.9208984375-1.65234375,5.615234375-3.0048828125,8.0849609375-1.353515625,2.4697265625-2.9970703125,4.7001953125-4.9326171875,6.69140625-1.9345703125,1.9912109375-4.1015625,3.728515625-6.4990234375,5.2080078125-.9892578125.5830078125-1.98828125.9501953125-2.9990234375,1.0986328125-1.01171875.1484375-1.8271484375-.1484375-2.447265625-.8916015625-.6767578125-.8876953125-1.3125-1.9462890625-1.9091796875-3.177734375-.5966796875-1.2294921875-.9697265625-2.3515625-1.1181640625-3.361328125-.0703125-.43359375-.0673828125-.8330078125.01171875-1.201171875.0771484375-.3671875.3037109375-.6826171875.6787109375-.943359375.234375-.158203125.45703125-.3154296875.6669921875-.47265625.2109375-.15625.4326171875-.3115234375.66796875-.4697265625,2.810546875-1.9384765625,4.98046875-4.0625,6.51171875-6.373046875,1.5302734375-2.30859375,2.548828125-4.689453125,3.0546875-7.1416015625.50390625-2.451171875.5498046875-4.876953125.1357421875-7.2822265625-.4140625-2.4033203125-1.1748046875-4.6806640625-2.2783203125-6.8310546875-1.1044921875-2.150390625-2.4892578125-4.080078125-4.15234375-5.791015625-1.6650390625-1.70703125-3.5185546875-3.0927734375-5.560546875-4.1533203125Z"/>
      </g>
    </g>
  </a>
</svg>