<?xml version="1.0" encoding="UTF-8"?>
<svg id="Content" xmlns="http://www.w3.org/2000/svg" xmlns:xlink="http://www.w3.org/1999/xlink" viewBox="0 0 280 280">
  <defs>
    <style>
      .cls-1 {
        stroke: #665451;
        stroke-width: 50px;
      }

      .cls-1, .cls-2 {
        fill: none;
        stroke-linecap: round;
        stroke-linejoin: round;
      }

      .cls-3 {
        fill: #fff;
      }

      .cls-2 {
        stroke: #998675;
        stroke-width: 2px;
      }
    </style>
  </defs>
  <a xlink:href="https://www.notion.so/congruence/Binomial-distribution-06f9455aac044affbc3cc6f6c722de48?pvs=4">
    <g>
      <g>
        <path class="cls-1" d="M75.44140625,80.2275390625c2.2119140625,1.5361328125,3.900390625,3.4990234375,5.06640625,5.8876953125,1.1650390625,2.390625,1.62109375,4.9013671875,1.369140625,7.533203125-.28515625,2.974609375-1.318359375,5.513671875-3.1025390625,7.6171875-1.7841796875,2.1044921875-3.9287109375,3.8017578125-6.4326171875,5.0947265625-2.505859375,1.29296875-5.234375,2.208984375-8.1904296875,2.748046875-2.955078125.5390625-5.74609375.7314453125-8.3740234375.57421875-.2373046875.1083984375-.4521484375.1806640625-.6435546875.21484375-.1923828125.0341796875-.408203125.0810546875-.6474609375.142578125-.8681640625.0927734375-1.763671875.138671875-2.6845703125.1376953125-.9228515625-.001953125-1.7646484375-.1171875-2.5283203125-.3447265625-.763671875-.2255859375-1.4267578125-.62890625-1.9892578125-1.20703125-.564453125-.5771484375-.9228515625-1.4189453125-1.076171875-2.5263671875-.1240234375-.5283203125-.203125-1.6025390625-.2373046875-3.2255859375-.0361328125-1.6240234375-.087890625-3.5966796875-.158203125-5.921875-.025390625-2.375-.072265625-4.9560546875-.1416015625-7.7421875-.0703125-2.78515625-.1533203125-5.5810546875-.248046875-8.390625-.1416015625-3.6787109375-.2822265625-7.3818359375-.423828125-11.1103515625-.1435546875-3.7275390625-.48046875-7.46875-1.01171875-11.2255859375-.1201171875-.4306640625-.0908203125-.818359375.0849609375-1.16796875.08203125-.2958984375.28515625-.5849609375.6103515625-.869140625.3251953125-.28125.8232421875-.4892578125,1.49609375-.62109375.4814453125-.0732421875,1.009765625-.1728515625,1.5859375-.2998046875.5751953125-.126953125,1.17578125-.2294921875,1.802734375-.3095703125.6259765625-.080078125,1.2314453125-.111328125,1.814453125-.09375.5830078125.0185546875,1.095703125.0888671875,1.5380859375.2109375,2.4501953125-.462890625,5.037109375-.6083984375,7.763671875-.43359375,2.724609375.1767578125,5.3095703125.6865234375,7.75390625,1.53125,2.4443359375.845703125,4.58984375,2.033203125,6.439453125,3.5625,1.8486328125,1.5302734375,3.123046875,3.4423828125,3.822265625,5.7333984375.2939453125,1.00390625.494140625,2.0615234375.599609375,3.1708984375.1044921875,1.111328125.04296875,2.265625-.1865234375,3.4658203125-.2294921875,1.201171875-.6376953125,2.4580078125-1.2255859375,3.7744140625-.5869140625,1.314453125-1.40234375,2.6787109375-2.4453125,4.08984375ZM56.3544921875,76.9130859375c2.3271484375-.021484375,4.2734375-.365234375,5.8408203125-1.02734375,1.56640625-.6630859375,2.724609375-1.4853515625,3.474609375-2.4697265625s1.083984375-2.03125,1.0029296875-3.1435546875c-.08203125-1.111328125-.5556640625-2.08203125-1.4228515625-2.9111328125-.8671875-.828125-2.134765625-1.4296875-3.802734375-1.8046875-1.6689453125-.3759765625-3.751953125-.3291015625-6.25.1376953125.2421875,1.87890625.4462890625,3.7373046875.61328125,5.5712890625.166015625,1.8349609375.3466796875,3.7177734375.5439453125,5.6474609375ZM57.650390625,97.9453125c2.626953125.15625,4.8212890625-.076171875,6.5849609375-.701171875,1.76171875-.623046875,3.0673828125-1.41796875,3.916015625-2.3837890625.8466796875-.9638671875,1.255859375-1.9794921875,1.2255859375-3.044921875-.0302734375-1.064453125-.5-1.962890625-1.4111328125-2.6923828125-.91015625-.7294921875-2.267578125-1.1806640625-4.0712890625-1.3564453125-1.8037109375-.173828125-4.0439453125.123046875-6.720703125.890625l.4765625,9.2880859375Z"/>
        <path class="cls-1" d="M108.6826171875,60.1884765625c-1.9716796875,1.265625-3.7470703125,2.8369140625-5.32421875,4.7119140625s-2.8427734375,3.94140625-3.7939453125,6.197265625-1.5712890625,4.603515625-1.857421875,7.04296875c-.2880859375,2.4404296875-.103515625,4.85546875.552734375,7.2470703125.65625,2.3935546875,1.8271484375,4.66015625,3.513671875,6.8046875,1.685546875,2.14453125,3.978515625,4.041015625,6.8759765625,5.6865234375.2490234375.1337890625.486328125.265625.7119140625.400390625.224609375.134765625.4619140625.267578125.7119140625.400390625.3984375.22265625.64453125.5126953125.7353515625.8720703125.091796875.3583984375.099609375.7587890625.025390625,1.1982421875-.0458984375,1.021484375-.337890625,2.17578125-.8779296875,3.46484375-.541015625,1.2900390625-1.1259765625,2.41015625-1.755859375,3.3642578125-.5400390625.802734375-1.3212890625,1.1826171875-2.3427734375,1.1376953125-1.0205078125-.044921875-2.052734375-.306640625-3.095703125-.787109375-2.4404296875-1.2314453125-4.6875-2.7431640625-6.744140625-4.5283203125-2.0556640625-1.787109375-3.833984375-3.8427734375-5.3359375-6.166015625-1.5009765625-2.3232421875-2.6650390625-4.9072265625-3.4892578125-7.7509765625-.8251953125-2.84375-1.2265625-5.9404296875-1.203125-9.287109375.0390625-3.009765625.4619140625-5.8935546875,1.2666015625-8.6513671875.8046875-2.7568359375,1.896484375-5.3359375,3.27734375-7.7353515625s3.01171875-4.62890625,4.896484375-6.6884765625c1.8828125-2.0615234375,3.9228515625-3.8759765625,6.123046875-5.443359375.6083984375-.419921875,1.2177734375-.609375,1.826171875-.5673828125s1.1181640625.2958984375,1.53125.7587890625c.4619140625.509765625,1.0283203125,1.16015625,1.7001953125,1.94921875.669921875.791015625,1.24609375,1.5986328125,1.724609375,2.421875.478515625.8251953125.796875,1.5966796875.955078125,2.3154296875.158203125.720703125-.0439453125,1.2646484375-.607421875,1.6318359375Z"/>
        <path class="cls-1" d="M131.7548828125,66.755859375c2.2314453125-.4775390625,4.4658203125-.640625,6.705078125-.48828125,2.23828125.1513671875,4.3642578125.6845703125,6.3759765625,1.6005859375,2.0107421875.9150390625,3.6953125,2.3330078125,5.0556640625,4.251953125,1.150390625,1.6396484375,2.0556640625,3.6904296875,2.7158203125,6.154296875s1.0830078125,5.509765625,1.26953125,9.1376953125l.4609375,11.8359375c.01953125.388671875.0185546875.8486328125-.001953125,1.3828125-.021484375.5361328125-.1396484375,1.0751953125-.353515625,1.619140625-.2158203125.544921875-.5546875,1.0361328125-1.0166015625,1.470703125-.462890625.4365234375-1.1025390625.7236328125-1.919921875.8623046875-1.2958984375.259765625-2.671875.392578125-4.126953125.3935546875-1.455078125.001953125-2.5966796875-.4853515625-3.421875-1.4619140625-.46484375-.5576171875-.806640625-1.2919921875-1.0224609375-2.203125-.216796875-.9091796875-.3642578125-1.896484375-.4423828125-2.9599609375-.080078125-1.0625-.1083984375-2.1162109375-.08984375-3.16015625.01953125-1.0439453125.0576171875-1.955078125.115234375-2.7353515625.10546875-1.7021484375.19140625-3.3564453125.2548828125-4.9599609375.0634765625-1.6044921875-.064453125-3.1484375-.3828125-4.6376953125-.3720703125-1.5810546875-.9990234375-2.91796875-1.8798828125-4.013671875-.880859375-1.09375-1.8779296875-1.8681640625-2.9921875-2.3203125-1.1142578125-.451171875-2.26171875-.5869140625-3.4404296875-.40625-1.1796875.18359375-2.267578125.7236328125-3.263671875,1.6240234375-.998046875.8994140625-1.81640625,2.1904296875-2.45703125,3.87109375-.6416015625,1.68359375-.9716796875,3.7607421875-.990234375,6.2353515625l.998046875,15.228515625c-.0751953125.4404296875-.22265625.861328125-.4443359375,1.2587890625-.2255859375.3525390625-.560546875.6728515625-1.005859375.9609375-.4462890625.291015625-1.078125.50390625-1.8955078125.642578125-.865234375.1416015625-1.74609375.2470703125-2.638671875.3173828125-.89453125.0703125-1.744140625.041015625-2.5517578125-.0869140625-.806640625-.12890625-1.4873046875-.384765625-2.0400390625-.7685546875-.5537109375-.3837890625-.921875-.958984375-1.107421875-1.7255859375-.1123046875-.28515625-.212890625-1.3349609375-.306640625-3.1494140625-.0927734375-1.814453125-.1689453125-4.0166015625-.2294921875-6.609375-.0595703125-2.58984375-.1181640625-5.3662109375-.171875-8.322265625-.0546875-2.955078125-.099609375-5.7294921875-.134765625-8.3232421875-.0361328125-2.591796875-.052734375-4.798828125-.0478515625-6.6181640625.0029296875-1.818359375-.00390625-2.8984375-.0205078125-3.236328125-.0634765625-.2880859375-.0048828125-.5576171875.1767578125-.8095703125.1328125-.2490234375.36328125-.4677734375.693359375-.6533203125.330078125-.1875.83203125-.322265625,1.5078125-.4052734375.625-.080078125,1.3857421875-.1552734375,2.2802734375-.2265625.8935546875-.0693359375,1.751953125-.1005859375,2.578125-.095703125.82421875.005859375,1.5322265625.0927734375,2.123046875.255859375.58984375.1630859375.896484375.4619140625.9189453125.8974609375l.123046875,2.39453125c1.7978515625-.8671875,3.8125-1.5400390625,6.0439453125-2.0185546875Z"/>
        <path class="cls-1" d="M161.6298828125,92.47265625c.07421875-.44140625.2236328125-.8359375.4482421875-1.1875.2265625-.3017578125.52734375-.572265625.904296875-.810546875.3759765625-.236328125.90234375-.373046875,1.580078125-.408203125.9208984375.001953125,1.7578125.01953125,2.5126953125.0537109375.7529296875.03515625,1.400390625.134765625,1.943359375.2998046875.8349609375.201171875,1.3125.5400390625,1.4345703125,1.0185546875.12109375.4794921875.08203125,1.13671875-.1171875,1.9697265625-.1640625.5908203125-.37109375,1.28125-.62109375,2.0693359375-.2509765625.7900390625-.5263671875,1.5908203125-.8232421875,2.4072265625-.2978515625.8154296875-.59765625,1.6064453125-.896484375,2.3740234375-.30078125.7685546875-.5830078125,1.400390625-.8486328125,1.8994140625-.220703125.447265625-.4638671875.8955078125-.7314453125,1.3466796875-.2685546875.4501953125-.5869140625.8544921875-.9560546875,1.212890625-.37109375.3583984375-.79296875.6337890625-1.267578125.828125-.4755859375.1953125-1.0556640625.236328125-1.740234375.126953125-1.0302734375-.23828125-1.7314453125-.43359375-2.103515625-.583984375-.37109375-.15234375-.5419921875-.396484375-.5107421875-.73828125l1.79296875-11.8779296875Z"/>
        <path class="cls-1" d="M196.83203125,65.2763671875c2.4296875,1.0390625,4.4541015625,2.427734375,6.0703125,4.1640625,1.6171875,1.7353515625,2.806640625,3.65234375,3.568359375,5.74609375.7626953125,2.095703125,1.1162109375,4.2724609375,1.0625,6.5302734375-.0546875,2.2578125-.4990234375,4.4521484375-1.3359375,6.580078125-.8369140625,2.12890625-2.09375,4.109375-3.7705078125,5.94140625s-3.720703125,3.3447265625-6.1337890625,4.5341796875c-2.509765625,1.1962890625-5.3232421875,2.1416015625-8.4404296875,2.833984375-.033203125.2919921875-.048828125.9482421875-.0439453125,1.9658203125-.0048828125.8740234375.0390625,2.1923828125.1298828125,3.958984375.08984375,1.765625.21484375,4.1962890625.373046875,7.29296875-.0166015625.630859375-.1318359375,1.21875-.345703125,1.7646484375-.220703125.447265625-.5625.876953125-1.025390625,1.2890625-.46484375.4111328125-1.10546875.6865234375-1.921875.826171875-.8662109375.140625-1.7705078125.2470703125-2.7119140625.3212890625-.9423828125.0712890625-1.818359375.01953125-2.6279296875-.1572265625s-1.4951171875-.5419921875-2.056640625-1.095703125c-.5625-.552734375-.8974609375-1.4091796875-1.0048828125-2.5673828125-.1181640625-1.3525390625-.2392578125-3.25-.3642578125-5.6923828125-.125-2.443359375-.25390625-5.177734375-.3837890625-8.2021484375-.130859375-3.0234375-.2841796875-6.25390625-.4599609375-9.689453125-.1767578125-3.4345703125-.3603515625-6.7841796875-.5517578125-10.0478515625-.19140625-3.265625-.38671875-6.359375-.583984375-9.283203125-.19921875-2.9248046875-.400390625-5.4248046875-.603515625-7.5-.0390625-.7734375.193359375-1.4287109375.7001953125-1.9638671875.505859375-.5361328125,1.2373046875-.923828125,2.1962890625-1.16796875.671875-.130859375,1.439453125-.2919921875,2.302734375-.4814453125s1.7060546875-.3056640625,2.529296875-.34765625c.822265625-.0419921875,1.529296875.04296875,2.123046875.2548828125.5927734375.212890625.953125.630859375,1.08203125,1.25390625.060546875.240234375.095703125.443359375.1044921875.61328125s.041015625.32421875.0966796875.4677734375c1.8310546875-.240234375,3.7724609375-.216796875,5.82421875.0654296875,2.0517578125.283203125,4.119140625.8798828125,6.203125,1.7919921875ZM187.02734375,91.171875c1.876953125-.2900390625,3.48046875-.9306640625,4.8125-1.9208984375,1.33203125-.9892578125,2.3388671875-2.1435546875,3.0234375-3.46484375.6845703125-1.3203125,1.0380859375-2.6962890625,1.0625-4.12890625.0224609375-1.4306640625-.3232421875-2.748046875-1.0390625-3.94921875-.716796875-1.19921875-1.8095703125-2.1630859375-3.27734375-2.88671875-1.4677734375-.7255859375-3.33984375-1.0537109375-5.6162109375-.986328125.138671875,2.7099609375.2900390625,5.4306640625.455078125,8.162109375.1630859375,2.732421875.349609375,5.6455078125.556640625,8.73828125l.0107421875.2177734375.01171875.21875Z"/>
        <path class="cls-1" d="M212.16015625,54.88671875c-.55078125-.310546875-.7705078125-.8330078125-.662109375-1.56640625.107421875-.7333984375.369140625-1.5341796875.7861328125-2.4052734375.4150390625-.869140625.9296875-1.732421875,1.5400390625-2.5888671875.611328125-.85546875,1.14453125-1.5615234375,1.6015625-2.119140625.3623046875-.501953125.8427734375-.806640625,1.4453125-.9111328125.6005859375-.103515625,1.2255859375.0224609375,1.8740234375.3779296875,2.2998046875,1.3369140625,4.443359375,2.9365234375,6.4306640625,4.7998046875,1.9873046875,1.861328125,3.7529296875,3.9169921875,5.2998046875,6.1669921875,1.5458984375,2.2490234375,2.798828125,4.7080078125,3.7607421875,7.375.9609375,2.666015625,1.54296875,5.4990234375,1.7451171875,8.49609375.21875,3.3349609375.00390625,6.462890625-.646484375,9.3818359375-.6513671875,2.919921875-1.6533203125,5.615234375-3.005859375,8.083984375-1.353515625,2.4697265625-2.9970703125,4.7001953125-4.931640625,6.6923828125-1.935546875,1.990234375-4.1025390625,3.7275390625-6.5,5.20703125-.9892578125.583984375-1.98828125.9501953125-2.9990234375,1.099609375-1.01171875.1484375-1.8271484375-.1494140625-2.447265625-.892578125-.67578125-.88671875-1.3125-1.9453125-1.9091796875-3.1767578125-.5966796875-1.23046875-.9697265625-2.3515625-1.1181640625-3.3623046875-.0703125-.4326171875-.0673828125-.8330078125.01171875-1.2001953125.078125-.3681640625.3037109375-.6826171875.6787109375-.9443359375.234375-.158203125.45703125-.314453125.6669921875-.4716796875.2109375-.15625.4326171875-.3125.66796875-.470703125,2.810546875-1.9375,4.9814453125-4.0625,6.51171875-6.373046875,1.5302734375-2.30859375,2.548828125-4.6884765625,3.0546875-7.140625.50390625-2.451171875.5498046875-4.8779296875.1357421875-7.2822265625-.4140625-2.4033203125-1.1748046875-4.6806640625-2.2783203125-6.8310546875-1.1044921875-2.150390625-2.4892578125-4.0810546875-4.15234375-5.791015625-1.6640625-1.7080078125-3.517578125-3.09375-5.560546875-4.1533203125Z"/>
      </g>
      <g>
        <path class="cls-2" d="M75.44140625,80.2275390625c2.2119140625,1.5361328125,3.900390625,3.4990234375,5.06640625,5.8876953125,1.1650390625,2.390625,1.62109375,4.9013671875,1.369140625,7.533203125-.28515625,2.974609375-1.318359375,5.513671875-3.1025390625,7.6171875-1.7841796875,2.1044921875-3.9287109375,3.8017578125-6.4326171875,5.0947265625-2.505859375,1.29296875-5.234375,2.208984375-8.1904296875,2.748046875-2.955078125.5390625-5.74609375.7314453125-8.3740234375.57421875-.2373046875.1083984375-.4521484375.1806640625-.6435546875.21484375-.1923828125.0341796875-.408203125.0810546875-.6474609375.142578125-.8681640625.0927734375-1.763671875.138671875-2.6845703125.1376953125-.9228515625-.001953125-1.7646484375-.1171875-2.5283203125-.3447265625-.763671875-.2255859375-1.4267578125-.62890625-1.9892578125-1.20703125-.564453125-.5771484375-.9228515625-1.4189453125-1.076171875-2.5263671875-.1240234375-.5283203125-.203125-1.6025390625-.2373046875-3.2255859375-.0361328125-1.6240234375-.087890625-3.5966796875-.158203125-5.921875-.025390625-2.375-.072265625-4.9560546875-.1416015625-7.7421875-.0703125-2.78515625-.1533203125-5.5810546875-.248046875-8.390625-.1416015625-3.6787109375-.2822265625-7.3818359375-.423828125-11.1103515625-.1435546875-3.7275390625-.48046875-7.46875-1.01171875-11.2255859375-.1201171875-.4306640625-.0908203125-.818359375.0849609375-1.16796875.08203125-.2958984375.28515625-.5849609375.6103515625-.869140625.3251953125-.28125.8232421875-.4892578125,1.49609375-.62109375.4814453125-.0732421875,1.009765625-.1728515625,1.5859375-.2998046875.5751953125-.126953125,1.17578125-.2294921875,1.802734375-.3095703125.6259765625-.080078125,1.2314453125-.111328125,1.814453125-.09375.5830078125.0185546875,1.095703125.0888671875,1.5380859375.2109375,2.4501953125-.462890625,5.037109375-.6083984375,7.763671875-.43359375,2.724609375.1767578125,5.3095703125.6865234375,7.75390625,1.53125,2.4443359375.845703125,4.58984375,2.033203125,6.439453125,3.5625,1.8486328125,1.5302734375,3.123046875,3.4423828125,3.822265625,5.7333984375.2939453125,1.00390625.494140625,2.0615234375.599609375,3.1708984375.1044921875,1.111328125.04296875,2.265625-.1865234375,3.4658203125-.2294921875,1.201171875-.6376953125,2.4580078125-1.2255859375,3.7744140625-.5869140625,1.314453125-1.40234375,2.6787109375-2.4453125,4.08984375ZM56.3544921875,76.9130859375c2.3271484375-.021484375,4.2734375-.365234375,5.8408203125-1.02734375,1.56640625-.6630859375,2.724609375-1.4853515625,3.474609375-2.4697265625s1.083984375-2.03125,1.0029296875-3.1435546875c-.08203125-1.111328125-.5556640625-2.08203125-1.4228515625-2.9111328125-.8671875-.828125-2.134765625-1.4296875-3.802734375-1.8046875-1.6689453125-.3759765625-3.751953125-.3291015625-6.25.1376953125.2421875,1.87890625.4462890625,3.7373046875.61328125,5.5712890625.166015625,1.8349609375.3466796875,3.7177734375.5439453125,5.6474609375ZM57.650390625,97.9453125c2.626953125.15625,4.8212890625-.076171875,6.5849609375-.701171875,1.76171875-.623046875,3.0673828125-1.41796875,3.916015625-2.3837890625.8466796875-.9638671875,1.255859375-1.9794921875,1.2255859375-3.044921875-.0302734375-1.064453125-.5-1.962890625-1.4111328125-2.6923828125-.91015625-.7294921875-2.267578125-1.1806640625-4.0712890625-1.3564453125-1.8037109375-.173828125-4.0439453125.123046875-6.720703125.890625l.4765625,9.2880859375Z"/>
        <path class="cls-2" d="M108.6826171875,60.1884765625c-1.9716796875,1.265625-3.7470703125,2.8369140625-5.32421875,4.7119140625s-2.8427734375,3.94140625-3.7939453125,6.197265625-1.5712890625,4.603515625-1.857421875,7.04296875c-.2880859375,2.4404296875-.103515625,4.85546875.552734375,7.2470703125.65625,2.3935546875,1.8271484375,4.66015625,3.513671875,6.8046875,1.685546875,2.14453125,3.978515625,4.041015625,6.8759765625,5.6865234375.2490234375.1337890625.486328125.265625.7119140625.400390625.224609375.134765625.4619140625.267578125.7119140625.400390625.3984375.22265625.64453125.5126953125.7353515625.8720703125.091796875.3583984375.099609375.7587890625.025390625,1.1982421875-.0458984375,1.021484375-.337890625,2.17578125-.8779296875,3.46484375-.541015625,1.2900390625-1.1259765625,2.41015625-1.755859375,3.3642578125-.5400390625.802734375-1.3212890625,1.1826171875-2.3427734375,1.1376953125-1.0205078125-.044921875-2.052734375-.306640625-3.095703125-.787109375-2.4404296875-1.2314453125-4.6875-2.7431640625-6.744140625-4.5283203125-2.0556640625-1.787109375-3.833984375-3.8427734375-5.3359375-6.166015625-1.5009765625-2.3232421875-2.6650390625-4.9072265625-3.4892578125-7.7509765625-.8251953125-2.84375-1.2265625-5.9404296875-1.203125-9.287109375.0390625-3.009765625.4619140625-5.8935546875,1.2666015625-8.6513671875.8046875-2.7568359375,1.896484375-5.3359375,3.27734375-7.7353515625s3.01171875-4.62890625,4.896484375-6.6884765625c1.8828125-2.0615234375,3.9228515625-3.8759765625,6.123046875-5.443359375.6083984375-.419921875,1.2177734375-.609375,1.826171875-.5673828125s1.1181640625.2958984375,1.53125.7587890625c.4619140625.509765625,1.0283203125,1.16015625,1.7001953125,1.94921875.669921875.791015625,1.24609375,1.5986328125,1.724609375,2.421875.478515625.8251953125.796875,1.5966796875.955078125,2.3154296875.158203125.720703125-.0439453125,1.2646484375-.607421875,1.6318359375Z"/>
        <path class="cls-2" d="M131.7548828125,66.755859375c2.2314453125-.4775390625,4.4658203125-.640625,6.705078125-.48828125,2.23828125.1513671875,4.3642578125.6845703125,6.3759765625,1.6005859375,2.0107421875.9150390625,3.6953125,2.3330078125,5.0556640625,4.251953125,1.150390625,1.6396484375,2.0556640625,3.6904296875,2.7158203125,6.154296875s1.0830078125,5.509765625,1.26953125,9.1376953125l.4609375,11.8359375c.01953125.388671875.0185546875.8486328125-.001953125,1.3828125-.021484375.5361328125-.1396484375,1.0751953125-.353515625,1.619140625-.2158203125.544921875-.5546875,1.0361328125-1.0166015625,1.470703125-.462890625.4365234375-1.1025390625.7236328125-1.919921875.8623046875-1.2958984375.259765625-2.671875.392578125-4.126953125.3935546875-1.455078125.001953125-2.5966796875-.4853515625-3.421875-1.4619140625-.46484375-.5576171875-.806640625-1.2919921875-1.0224609375-2.203125-.216796875-.9091796875-.3642578125-1.896484375-.4423828125-2.9599609375-.080078125-1.0625-.1083984375-2.1162109375-.08984375-3.16015625.01953125-1.0439453125.0576171875-1.955078125.115234375-2.7353515625.10546875-1.7021484375.19140625-3.3564453125.2548828125-4.9599609375.0634765625-1.6044921875-.064453125-3.1484375-.3828125-4.6376953125-.3720703125-1.5810546875-.9990234375-2.91796875-1.8798828125-4.013671875-.880859375-1.09375-1.8779296875-1.8681640625-2.9921875-2.3203125-1.1142578125-.451171875-2.26171875-.5869140625-3.4404296875-.40625-1.1796875.18359375-2.267578125.7236328125-3.263671875,1.6240234375-.998046875.8994140625-1.81640625,2.1904296875-2.45703125,3.87109375-.6416015625,1.68359375-.9716796875,3.7607421875-.990234375,6.2353515625l.998046875,15.228515625c-.0751953125.4404296875-.22265625.861328125-.4443359375,1.2587890625-.2255859375.3525390625-.560546875.6728515625-1.005859375.9609375-.4462890625.291015625-1.078125.50390625-1.8955078125.642578125-.865234375.1416015625-1.74609375.2470703125-2.638671875.3173828125-.89453125.0703125-1.744140625.041015625-2.5517578125-.0869140625-.806640625-.12890625-1.4873046875-.384765625-2.0400390625-.7685546875-.5537109375-.3837890625-.921875-.958984375-1.107421875-1.7255859375-.1123046875-.28515625-.212890625-1.3349609375-.306640625-3.1494140625-.0927734375-1.814453125-.1689453125-4.0166015625-.2294921875-6.609375-.0595703125-2.58984375-.1181640625-5.3662109375-.171875-8.322265625-.0546875-2.955078125-.099609375-5.7294921875-.134765625-8.3232421875-.0361328125-2.591796875-.052734375-4.798828125-.0478515625-6.6181640625.0029296875-1.818359375-.00390625-2.8984375-.0205078125-3.236328125-.0634765625-.2880859375-.0048828125-.5576171875.1767578125-.8095703125.1328125-.2490234375.36328125-.4677734375.693359375-.6533203125.330078125-.1875.83203125-.322265625,1.5078125-.4052734375.625-.080078125,1.3857421875-.1552734375,2.2802734375-.2265625.8935546875-.0693359375,1.751953125-.1005859375,2.578125-.095703125.82421875.005859375,1.5322265625.0927734375,2.123046875.255859375.58984375.1630859375.896484375.4619140625.9189453125.8974609375l.123046875,2.39453125c1.7978515625-.8671875,3.8125-1.5400390625,6.0439453125-2.0185546875Z"/>
        <path class="cls-2" d="M161.6298828125,92.47265625c.07421875-.44140625.2236328125-.8359375.4482421875-1.1875.2265625-.3017578125.52734375-.572265625.904296875-.810546875.3759765625-.236328125.90234375-.373046875,1.580078125-.408203125.9208984375.001953125,1.7578125.01953125,2.5126953125.0537109375.7529296875.03515625,1.400390625.134765625,1.943359375.2998046875.8349609375.201171875,1.3125.5400390625,1.4345703125,1.0185546875.12109375.4794921875.08203125,1.13671875-.1171875,1.9697265625-.1640625.5908203125-.37109375,1.28125-.62109375,2.0693359375-.2509765625.7900390625-.5263671875,1.5908203125-.8232421875,2.4072265625-.2978515625.8154296875-.59765625,1.6064453125-.896484375,2.3740234375-.30078125.7685546875-.5830078125,1.400390625-.8486328125,1.8994140625-.220703125.447265625-.4638671875.8955078125-.7314453125,1.3466796875-.2685546875.4501953125-.5869140625.8544921875-.9560546875,1.212890625-.37109375.3583984375-.79296875.6337890625-1.267578125.828125-.4755859375.1953125-1.0556640625.236328125-1.740234375.126953125-1.0302734375-.23828125-1.7314453125-.43359375-2.103515625-.583984375-.37109375-.15234375-.5419921875-.396484375-.5107421875-.73828125l1.79296875-11.8779296875Z"/>
        <path class="cls-2" d="M196.83203125,65.2763671875c2.4296875,1.0390625,4.4541015625,2.427734375,6.0703125,4.1640625,1.6171875,1.7353515625,2.806640625,3.65234375,3.568359375,5.74609375.7626953125,2.095703125,1.1162109375,4.2724609375,1.0625,6.5302734375-.0546875,2.2578125-.4990234375,4.4521484375-1.3359375,6.580078125-.8369140625,2.12890625-2.09375,4.109375-3.7705078125,5.94140625s-3.720703125,3.3447265625-6.1337890625,4.5341796875c-2.509765625,1.1962890625-5.3232421875,2.1416015625-8.4404296875,2.833984375-.033203125.2919921875-.048828125.9482421875-.0439453125,1.9658203125-.0048828125.8740234375.0390625,2.1923828125.1298828125,3.958984375.08984375,1.765625.21484375,4.1962890625.373046875,7.29296875-.0166015625.630859375-.1318359375,1.21875-.345703125,1.7646484375-.220703125.447265625-.5625.876953125-1.025390625,1.2890625-.46484375.4111328125-1.10546875.6865234375-1.921875.826171875-.8662109375.140625-1.7705078125.2470703125-2.7119140625.3212890625-.9423828125.0712890625-1.818359375.01953125-2.6279296875-.1572265625s-1.4951171875-.5419921875-2.056640625-1.095703125c-.5625-.552734375-.8974609375-1.4091796875-1.0048828125-2.5673828125-.1181640625-1.3525390625-.2392578125-3.25-.3642578125-5.6923828125-.125-2.443359375-.25390625-5.177734375-.3837890625-8.2021484375-.130859375-3.0234375-.2841796875-6.25390625-.4599609375-9.689453125-.1767578125-3.4345703125-.3603515625-6.7841796875-.5517578125-10.0478515625-.19140625-3.265625-.38671875-6.359375-.583984375-9.283203125-.19921875-2.9248046875-.400390625-5.4248046875-.603515625-7.5-.0390625-.7734375.193359375-1.4287109375.7001953125-1.9638671875.505859375-.5361328125,1.2373046875-.923828125,2.1962890625-1.16796875.671875-.130859375,1.439453125-.2919921875,2.302734375-.4814453125s1.7060546875-.3056640625,2.529296875-.34765625c.822265625-.0419921875,1.529296875.04296875,2.123046875.2548828125.5927734375.212890625.953125.630859375,1.08203125,1.25390625.060546875.240234375.095703125.443359375.1044921875.61328125s.041015625.32421875.0966796875.4677734375c1.8310546875-.240234375,3.7724609375-.216796875,5.82421875.0654296875,2.0517578125.283203125,4.119140625.8798828125,6.203125,1.7919921875ZM187.02734375,91.171875c1.876953125-.2900390625,3.48046875-.9306640625,4.8125-1.9208984375,1.33203125-.9892578125,2.3388671875-2.1435546875,3.0234375-3.46484375.6845703125-1.3203125,1.0380859375-2.6962890625,1.0625-4.12890625.0224609375-1.4306640625-.3232421875-2.748046875-1.0390625-3.94921875-.716796875-1.19921875-1.8095703125-2.1630859375-3.27734375-2.88671875-1.4677734375-.7255859375-3.33984375-1.0537109375-5.6162109375-.986328125.138671875,2.7099609375.2900390625,5.4306640625.455078125,8.162109375.1630859375,2.732421875.349609375,5.6455078125.556640625,8.73828125l.0107421875.2177734375.01171875.21875Z"/>
        <path class="cls-2" d="M212.16015625,54.88671875c-.55078125-.310546875-.7705078125-.8330078125-.662109375-1.56640625.107421875-.7333984375.369140625-1.5341796875.7861328125-2.4052734375.4150390625-.869140625.9296875-1.732421875,1.5400390625-2.5888671875.611328125-.85546875,1.14453125-1.5615234375,1.6015625-2.119140625.3623046875-.501953125.8427734375-.806640625,1.4453125-.9111328125.6005859375-.103515625,1.2255859375.0224609375,1.8740234375.3779296875,2.2998046875,1.3369140625,4.443359375,2.9365234375,6.4306640625,4.7998046875,1.9873046875,1.861328125,3.7529296875,3.9169921875,5.2998046875,6.1669921875,1.5458984375,2.2490234375,2.798828125,4.7080078125,3.7607421875,7.375.9609375,2.666015625,1.54296875,5.4990234375,1.7451171875,8.49609375.21875,3.3349609375.00390625,6.462890625-.646484375,9.3818359375-.6513671875,2.919921875-1.6533203125,5.615234375-3.005859375,8.083984375-1.353515625,2.4697265625-2.9970703125,4.7001953125-4.931640625,6.6923828125-1.935546875,1.990234375-4.1025390625,3.7275390625-6.5,5.20703125-.9892578125.583984375-1.98828125.9501953125-2.9990234375,1.099609375-1.01171875.1484375-1.8271484375-.1494140625-2.447265625-.892578125-.67578125-.88671875-1.3125-1.9453125-1.9091796875-3.1767578125-.5966796875-1.23046875-.9697265625-2.3515625-1.1181640625-3.3623046875-.0703125-.4326171875-.0673828125-.8330078125.01171875-1.2001953125.078125-.3681640625.3037109375-.6826171875.6787109375-.9443359375.234375-.158203125.45703125-.314453125.6669921875-.4716796875.2109375-.15625.4326171875-.3125.66796875-.470703125,2.810546875-1.9375,4.9814453125-4.0625,6.51171875-6.373046875,1.5302734375-2.30859375,2.548828125-4.6884765625,3.0546875-7.140625.50390625-2.451171875.5498046875-4.8779296875.1357421875-7.2822265625-.4140625-2.4033203125-1.1748046875-4.6806640625-2.2783203125-6.8310546875-1.1044921875-2.150390625-2.4892578125-4.0810546875-4.15234375-5.791015625-1.6640625-1.7080078125-3.517578125-3.09375-5.560546875-4.1533203125Z"/>
      </g>
      <g>
        <path class="cls-3" d="M75.44140625,80.2275390625c2.2119140625,1.5361328125,3.900390625,3.4990234375,5.06640625,5.8876953125,1.1650390625,2.390625,1.62109375,4.9013671875,1.369140625,7.533203125-.28515625,2.974609375-1.318359375,5.513671875-3.1025390625,7.6171875-1.7841796875,2.1044921875-3.9287109375,3.8017578125-6.4326171875,5.0947265625-2.505859375,1.29296875-5.234375,2.208984375-8.1904296875,2.748046875-2.955078125.5390625-5.74609375.7314453125-8.3740234375.57421875-.2373046875.1083984375-.4521484375.1806640625-.6435546875.21484375-.1923828125.0341796875-.408203125.0810546875-.6474609375.142578125-.8681640625.0927734375-1.763671875.138671875-2.6845703125.1376953125-.9228515625-.001953125-1.7646484375-.1171875-2.5283203125-.3447265625-.763671875-.2255859375-1.4267578125-.62890625-1.9892578125-1.20703125-.564453125-.5771484375-.9228515625-1.4189453125-1.076171875-2.5263671875-.1240234375-.5283203125-.203125-1.6025390625-.2373046875-3.2255859375-.0361328125-1.6240234375-.087890625-3.5966796875-.158203125-5.921875-.025390625-2.375-.072265625-4.9560546875-.1416015625-7.7421875-.0703125-2.78515625-.1533203125-5.5810546875-.248046875-8.390625-.1416015625-3.6787109375-.2822265625-7.3818359375-.423828125-11.1103515625-.1435546875-3.7275390625-.48046875-7.46875-1.01171875-11.2255859375-.1201171875-.4306640625-.0908203125-.818359375.0849609375-1.16796875.08203125-.2958984375.28515625-.5849609375.6103515625-.869140625.3251953125-.28125.8232421875-.4892578125,1.49609375-.62109375.4814453125-.0732421875,1.009765625-.1728515625,1.5859375-.2998046875.5751953125-.126953125,1.17578125-.2294921875,1.802734375-.3095703125.6259765625-.080078125,1.2314453125-.111328125,1.814453125-.09375.5830078125.0185546875,1.095703125.0888671875,1.5380859375.2109375,2.4501953125-.462890625,5.037109375-.6083984375,7.763671875-.43359375,2.724609375.1767578125,5.3095703125.6865234375,7.75390625,1.53125,2.4443359375.845703125,4.58984375,2.033203125,6.439453125,3.5625,1.8486328125,1.5302734375,3.123046875,3.4423828125,3.822265625,5.7333984375.2939453125,1.00390625.494140625,2.0615234375.599609375,3.1708984375.1044921875,1.111328125.04296875,2.265625-.1865234375,3.4658203125-.2294921875,1.201171875-.6376953125,2.4580078125-1.2255859375,3.7744140625-.5869140625,1.314453125-1.40234375,2.6787109375-2.4453125,4.08984375ZM56.3544921875,76.9130859375c2.3271484375-.021484375,4.2734375-.365234375,5.8408203125-1.02734375,1.56640625-.6630859375,2.724609375-1.4853515625,3.474609375-2.4697265625s1.083984375-2.03125,1.0029296875-3.1435546875c-.08203125-1.111328125-.5556640625-2.08203125-1.4228515625-2.9111328125-.8671875-.828125-2.134765625-1.4296875-3.802734375-1.8046875-1.6689453125-.3759765625-3.751953125-.3291015625-6.25.1376953125.2421875,1.87890625.4462890625,3.7373046875.61328125,5.5712890625.166015625,1.8349609375.3466796875,3.7177734375.5439453125,5.6474609375ZM57.650390625,97.9453125c2.626953125.15625,4.8212890625-.076171875,6.5849609375-.701171875,1.76171875-.623046875,3.0673828125-1.41796875,3.916015625-2.3837890625.8466796875-.9638671875,1.255859375-1.9794921875,1.2255859375-3.044921875-.0302734375-1.064453125-.5-1.962890625-1.4111328125-2.6923828125-.91015625-.7294921875-2.267578125-1.1806640625-4.0712890625-1.3564453125-1.8037109375-.173828125-4.0439453125.123046875-6.720703125.890625l.4765625,9.2880859375Z"/>
        <path class="cls-3" d="M108.6826171875,60.1884765625c-1.9716796875,1.265625-3.7470703125,2.8369140625-5.32421875,4.7119140625s-2.8427734375,3.94140625-3.7939453125,6.197265625-1.5712890625,4.603515625-1.857421875,7.04296875c-.2880859375,2.4404296875-.103515625,4.85546875.552734375,7.2470703125.65625,2.3935546875,1.8271484375,4.66015625,3.513671875,6.8046875,1.685546875,2.14453125,3.978515625,4.041015625,6.8759765625,5.6865234375.2490234375.1337890625.486328125.265625.7119140625.400390625.224609375.134765625.4619140625.267578125.7119140625.400390625.3984375.22265625.64453125.5126953125.7353515625.8720703125.091796875.3583984375.099609375.7587890625.025390625,1.1982421875-.0458984375,1.021484375-.337890625,2.17578125-.8779296875,3.46484375-.541015625,1.2900390625-1.1259765625,2.41015625-1.755859375,3.3642578125-.5400390625.802734375-1.3212890625,1.1826171875-2.3427734375,1.1376953125-1.0205078125-.044921875-2.052734375-.306640625-3.095703125-.787109375-2.4404296875-1.2314453125-4.6875-2.7431640625-6.744140625-4.5283203125-2.0556640625-1.787109375-3.833984375-3.8427734375-5.3359375-6.166015625-1.5009765625-2.3232421875-2.6650390625-4.9072265625-3.4892578125-7.7509765625-.8251953125-2.84375-1.2265625-5.9404296875-1.203125-9.287109375.0390625-3.009765625.4619140625-5.8935546875,1.2666015625-8.6513671875.8046875-2.7568359375,1.896484375-5.3359375,3.27734375-7.7353515625s3.01171875-4.62890625,4.896484375-6.6884765625c1.8828125-2.0615234375,3.9228515625-3.8759765625,6.123046875-5.443359375.6083984375-.419921875,1.2177734375-.609375,1.826171875-.5673828125s1.1181640625.2958984375,1.53125.7587890625c.4619140625.509765625,1.0283203125,1.16015625,1.7001953125,1.94921875.669921875.791015625,1.24609375,1.5986328125,1.724609375,2.421875.478515625.8251953125.796875,1.5966796875.955078125,2.3154296875.158203125.720703125-.0439453125,1.2646484375-.607421875,1.6318359375Z"/>
        <path class="cls-3" d="M131.7548828125,66.755859375c2.2314453125-.4775390625,4.4658203125-.640625,6.705078125-.48828125,2.23828125.1513671875,4.3642578125.6845703125,6.3759765625,1.6005859375,2.0107421875.9150390625,3.6953125,2.3330078125,5.0556640625,4.251953125,1.150390625,1.6396484375,2.0556640625,3.6904296875,2.7158203125,6.154296875s1.0830078125,5.509765625,1.26953125,9.1376953125l.4609375,11.8359375c.01953125.388671875.0185546875.8486328125-.001953125,1.3828125-.021484375.5361328125-.1396484375,1.0751953125-.353515625,1.619140625-.2158203125.544921875-.5546875,1.0361328125-1.0166015625,1.470703125-.462890625.4365234375-1.1025390625.7236328125-1.919921875.8623046875-1.2958984375.259765625-2.671875.392578125-4.126953125.3935546875-1.455078125.001953125-2.5966796875-.4853515625-3.421875-1.4619140625-.46484375-.5576171875-.806640625-1.2919921875-1.0224609375-2.203125-.216796875-.9091796875-.3642578125-1.896484375-.4423828125-2.9599609375-.080078125-1.0625-.1083984375-2.1162109375-.08984375-3.16015625.01953125-1.0439453125.0576171875-1.955078125.115234375-2.7353515625.10546875-1.7021484375.19140625-3.3564453125.2548828125-4.9599609375.0634765625-1.6044921875-.064453125-3.1484375-.3828125-4.6376953125-.3720703125-1.5810546875-.9990234375-2.91796875-1.8798828125-4.013671875-.880859375-1.09375-1.8779296875-1.8681640625-2.9921875-2.3203125-1.1142578125-.451171875-2.26171875-.5869140625-3.4404296875-.40625-1.1796875.18359375-2.267578125.7236328125-3.263671875,1.6240234375-.998046875.8994140625-1.81640625,2.1904296875-2.45703125,3.87109375-.6416015625,1.68359375-.9716796875,3.7607421875-.990234375,6.2353515625l.998046875,15.228515625c-.0751953125.4404296875-.22265625.861328125-.4443359375,1.2587890625-.2255859375.3525390625-.560546875.6728515625-1.005859375.9609375-.4462890625.291015625-1.078125.50390625-1.8955078125.642578125-.865234375.1416015625-1.74609375.2470703125-2.638671875.3173828125-.89453125.0703125-1.744140625.041015625-2.5517578125-.0869140625-.806640625-.12890625-1.4873046875-.384765625-2.0400390625-.7685546875-.5537109375-.3837890625-.921875-.958984375-1.107421875-1.7255859375-.1123046875-.28515625-.212890625-1.3349609375-.306640625-3.1494140625-.0927734375-1.814453125-.1689453125-4.0166015625-.2294921875-6.609375-.0595703125-2.58984375-.1181640625-5.3662109375-.171875-8.322265625-.0546875-2.955078125-.099609375-5.7294921875-.134765625-8.3232421875-.0361328125-2.591796875-.052734375-4.798828125-.0478515625-6.6181640625.0029296875-1.818359375-.00390625-2.8984375-.0205078125-3.236328125-.0634765625-.2880859375-.0048828125-.5576171875.1767578125-.8095703125.1328125-.2490234375.36328125-.4677734375.693359375-.6533203125.330078125-.1875.83203125-.322265625,1.5078125-.4052734375.625-.080078125,1.3857421875-.1552734375,2.2802734375-.2265625.8935546875-.0693359375,1.751953125-.1005859375,2.578125-.095703125.82421875.005859375,1.5322265625.0927734375,2.123046875.255859375.58984375.1630859375.896484375.4619140625.9189453125.8974609375l.123046875,2.39453125c1.7978515625-.8671875,3.8125-1.5400390625,6.0439453125-2.0185546875Z"/>
        <path class="cls-3" d="M161.6298828125,92.47265625c.07421875-.44140625.2236328125-.8359375.4482421875-1.1875.2265625-.3017578125.52734375-.572265625.904296875-.810546875.3759765625-.236328125.90234375-.373046875,1.580078125-.408203125.9208984375.001953125,1.7578125.01953125,2.5126953125.0537109375.7529296875.03515625,1.400390625.134765625,1.943359375.2998046875.8349609375.201171875,1.3125.5400390625,1.4345703125,1.0185546875.12109375.4794921875.08203125,1.13671875-.1171875,1.9697265625-.1640625.5908203125-.37109375,1.28125-.62109375,2.0693359375-.2509765625.7900390625-.5263671875,1.5908203125-.8232421875,2.4072265625-.2978515625.8154296875-.59765625,1.6064453125-.896484375,2.3740234375-.30078125.7685546875-.5830078125,1.400390625-.8486328125,1.8994140625-.220703125.447265625-.4638671875.8955078125-.7314453125,1.3466796875-.2685546875.4501953125-.5869140625.8544921875-.9560546875,1.212890625-.37109375.3583984375-.79296875.6337890625-1.267578125.828125-.4755859375.1953125-1.0556640625.236328125-1.740234375.126953125-1.0302734375-.23828125-1.7314453125-.43359375-2.103515625-.583984375-.37109375-.15234375-.5419921875-.396484375-.5107421875-.73828125l1.79296875-11.8779296875Z"/>
        <path class="cls-3" d="M196.83203125,65.2763671875c2.4296875,1.0390625,4.4541015625,2.427734375,6.0703125,4.1640625,1.6171875,1.7353515625,2.806640625,3.65234375,3.568359375,5.74609375.7626953125,2.095703125,1.1162109375,4.2724609375,1.0625,6.5302734375-.0546875,2.2578125-.4990234375,4.4521484375-1.3359375,6.580078125-.8369140625,2.12890625-2.09375,4.109375-3.7705078125,5.94140625s-3.720703125,3.3447265625-6.1337890625,4.5341796875c-2.509765625,1.1962890625-5.3232421875,2.1416015625-8.4404296875,2.833984375-.033203125.2919921875-.048828125.9482421875-.0439453125,1.9658203125-.0048828125.8740234375.0390625,2.1923828125.1298828125,3.958984375.08984375,1.765625.21484375,4.1962890625.373046875,7.29296875-.0166015625.630859375-.1318359375,1.21875-.345703125,1.7646484375-.220703125.447265625-.5625.876953125-1.025390625,1.2890625-.46484375.4111328125-1.10546875.6865234375-1.921875.826171875-.8662109375.140625-1.7705078125.2470703125-2.7119140625.3212890625-.9423828125.0712890625-1.818359375.01953125-2.6279296875-.1572265625s-1.4951171875-.5419921875-2.056640625-1.095703125c-.5625-.552734375-.8974609375-1.4091796875-1.0048828125-2.5673828125-.1181640625-1.3525390625-.2392578125-3.25-.3642578125-5.6923828125-.125-2.443359375-.25390625-5.177734375-.3837890625-8.2021484375-.130859375-3.0234375-.2841796875-6.25390625-.4599609375-9.689453125-.1767578125-3.4345703125-.3603515625-6.7841796875-.5517578125-10.0478515625-.19140625-3.265625-.38671875-6.359375-.583984375-9.283203125-.19921875-2.9248046875-.400390625-5.4248046875-.603515625-7.5-.0390625-.7734375.193359375-1.4287109375.7001953125-1.9638671875.505859375-.5361328125,1.2373046875-.923828125,2.1962890625-1.16796875.671875-.130859375,1.439453125-.2919921875,2.302734375-.4814453125s1.7060546875-.3056640625,2.529296875-.34765625c.822265625-.0419921875,1.529296875.04296875,2.123046875.2548828125.5927734375.212890625.953125.630859375,1.08203125,1.25390625.060546875.240234375.095703125.443359375.1044921875.61328125s.041015625.32421875.0966796875.4677734375c1.8310546875-.240234375,3.7724609375-.216796875,5.82421875.0654296875,2.0517578125.283203125,4.119140625.8798828125,6.203125,1.7919921875ZM187.02734375,91.171875c1.876953125-.2900390625,3.48046875-.9306640625,4.8125-1.9208984375,1.33203125-.9892578125,2.3388671875-2.1435546875,3.0234375-3.46484375.6845703125-1.3203125,1.0380859375-2.6962890625,1.0625-4.12890625.0224609375-1.4306640625-.3232421875-2.748046875-1.0390625-3.94921875-.716796875-1.19921875-1.8095703125-2.1630859375-3.27734375-2.88671875-1.4677734375-.7255859375-3.33984375-1.0537109375-5.6162109375-.986328125.138671875,2.7099609375.2900390625,5.4306640625.455078125,8.162109375.1630859375,2.732421875.349609375,5.6455078125.556640625,8.73828125l.0107421875.2177734375.01171875.21875Z"/>
        <path class="cls-3" d="M212.16015625,54.88671875c-.55078125-.310546875-.7705078125-.8330078125-.662109375-1.56640625.107421875-.7333984375.369140625-1.5341796875.7861328125-2.4052734375.4150390625-.869140625.9296875-1.732421875,1.5400390625-2.5888671875.611328125-.85546875,1.14453125-1.5615234375,1.6015625-2.119140625.3623046875-.501953125.8427734375-.806640625,1.4453125-.9111328125.6005859375-.103515625,1.2255859375.0224609375,1.8740234375.3779296875,2.2998046875,1.3369140625,4.443359375,2.9365234375,6.4306640625,4.7998046875,1.9873046875,1.861328125,3.7529296875,3.9169921875,5.2998046875,6.1669921875,1.5458984375,2.2490234375,2.798828125,4.7080078125,3.7607421875,7.375.9609375,2.666015625,1.54296875,5.4990234375,1.7451171875,8.49609375.21875,3.3349609375.00390625,6.462890625-.646484375,9.3818359375-.6513671875,2.919921875-1.6533203125,5.615234375-3.005859375,8.083984375-1.353515625,2.4697265625-2.9970703125,4.7001953125-4.931640625,6.6923828125-1.935546875,1.990234375-4.1025390625,3.7275390625-6.5,5.20703125-.9892578125.583984375-1.98828125.9501953125-2.9990234375,1.099609375-1.01171875.1484375-1.8271484375-.1494140625-2.447265625-.892578125-.67578125-.88671875-1.3125-1.9453125-1.9091796875-3.1767578125-.5966796875-1.23046875-.9697265625-2.3515625-1.1181640625-3.3623046875-.0703125-.4326171875-.0673828125-.8330078125.01171875-1.2001953125.078125-.3681640625.3037109375-.6826171875.6787109375-.9443359375.234375-.158203125.45703125-.314453125.6669921875-.4716796875.2109375-.15625.4326171875-.3125.66796875-.470703125,2.810546875-1.9375,4.9814453125-4.0625,6.51171875-6.373046875,1.5302734375-2.30859375,2.548828125-4.6884765625,3.0546875-7.140625.50390625-2.451171875.5498046875-4.8779296875.1357421875-7.2822265625-.4140625-2.4033203125-1.1748046875-4.6806640625-2.2783203125-6.8310546875-1.1044921875-2.150390625-2.4892578125-4.0810546875-4.15234375-5.791015625-1.6640625-1.7080078125-3.517578125-3.09375-5.560546875-4.1533203125Z"/>
      </g>
    </g>
  </a>
</svg>