<?xml version="1.0" encoding="UTF-8"?>
<svg xmlns="http://www.w3.org/2000/svg" viewBox="0 0 280 280">
  <defs>
    <style>
      .cls-1 {
        stroke: #665451;
        stroke-width: 50px;
      }

      .cls-1, .cls-2 {
        fill: none;
        stroke-linecap: round;
        stroke-linejoin: round;
      }

      .cls-3 {
        fill: #fff;
      }

      .cls-4 {
        fill: #e11f26;
      }

      .cls-5 {
        fill: #ec1940;
      }

      .cls-2 {
        stroke: #998675;
        stroke-width: 2px;
      }
    </style>
  </defs>
  <g id="Layer_1">
    <g>
      <g>
        <path d="M73.988545352589426,120.989910563648664c-13.313664761695691.910350147166355-26.673913057313257.981160785915563-39.996463644078176.212179695735358-3.379787121311892-.195115640319273-6.523813119521947,3.3254777528673-6.29723474354978,6.609462562248154.257518576443545,3.728845232844833,2.989089074098956,6.088233581163877,6.609462562249973,6.29723474354978,13.3225505867631.768981090178386,26.682798882380666.698170451430087,39.996463644078176-.212179695737177,3.364038402367441-.229986314400776,6.544821078156019-3.021836864305442,6.297234743547961-6.609462562247245-.232540185632388-3.365342875001261-3.001164460476502-6.543954913617199-6.609462562248154-6.29723474354887Z"/>
        <path d="M135.859529540361109,120.228592790751463c-13.105285445990376-1.606180396356649-26.321255229704548-.593412452883058-39.467838047161422-.08363307496893-3.372534137721232.130770604456302-6.539947287627001,3.092974347530799-6.29723474354978,6.609462562247245.238174598860496,3.450544880751295,2.994172690972846,6.437398618486441,6.609462562248154,6.297234743547961,11.92314728459678-.462316673766509,24.029736553269686-1.500427811616646,35.937291908327097-.304733710649089.029513969615437.003594977215471.059017775562097.006769814545805.088321675231782.010369873593845,1.792373300004328.219644272288861,3.357220642781613.218047090891559,4.957037256972399-.770883764326754,1.319615522406821-.815732257715354,2.55908015408022-2.381490596240837,2.872258744882856-3.928466839648536.336481803477-1.661096677472415.210117325768806-3.513412314266134-.770671153470175-4.956937303833001-.877906671130404-1.291784793965235-2.304486563014507-2.67334361178473-3.928628203480912-2.872412485962741Z"/>
        <path d="M188.715660571075205,120.271162212950003c-12.309109694504514-.069698211206742-24.618218118550431-.139343904927955-36.927537882998877-.209037034303037-3.379733755506095-.01913294377573-6.532730202678067,3.200155770657148-6.297234743547961,6.609462562247245.247162827678039,3.578807842164679,2.98839445925114,6.27674084849059,6.609462562246335,6.29723474354887,12.309319764448446.069693129375082,24.618428188496182.139338823096296,36.927537882998877.209037034303037,3.379733755506095.01913294377664,6.532730202678067-3.200155770657148,6.297234743547961-6.609462562246335-.247162827678039-3.578807842163769-2.988184389309026-6.276745930324068-6.609462562246335-6.29723474354978Z"/>
        <path d="M150.637639744814805,94.678461398737454c.368788544419658-6.981205901073736,12.516252181874734-14.100570464770499,12.885037847427157-21.081895372668441.101252748705519-1.91684181054643-12.563073609268031-1.109913316618076-17.554777728149929-.902469984523123-5.239876585825186.217733692161346-18.418575245910688.667449795831089-18.527050384567701,2.72116611056299-.368785665548785,6.981324907898852,13.599648620967855,14.66615444204399,13.230860076546378,21.647360343117725-.101252748707338,1.91684181054552,2.991268617985043,4.125098490404525,4.366782409932057,3.886987694807431,4.664007447936456-.807371420482013,5.490675519029537-4.217313469739565,5.599147778812039-6.271148791296582Z"/>
        <path d="M246.28837353673589,119.456179894453271c-13.183146309725998.110509198305408-26.366082549504426.221013314778247-39.549017518829714.331569948737524-3.378375191305167.02833778153763-6.535231478252172,3.166270129506302-6.297234743547961,6.609462562248154.244290133967297,3.538257562150648,2.989414192892582,6.327582856558365,6.609462562246335,6.297234743547051,13.182934969325288-.110556633958367,26.365871209105535-.221060750431207,39.549017518829714-.331569948736615,3.378165121366692-.02833269970597,6.535021408310058-3.166265047673733,6.297234743547961-6.609462562247245-.244291404424075-3.538310079637085-2.989625533289654-6.327630292213144-6.609462562246335-6.29723474354887Z"/>
      </g>
      <g>
        <path class="cls-1" d="M73.988545352589426,120.989910563648664c-13.313664761695691.910350147166355-26.673913057313257.981160785915563-39.996463644078176.212179695735358-3.379787121311892-.195115640319273-6.523813119521947,3.3254777528673-6.29723474354978,6.609462562248154.257518576443545,3.728845232844833,2.989089074098956,6.088233581163877,6.609462562249973,6.29723474354978,13.3225505867631.768981090178386,26.682798882380666.698170451430087,39.996463644078176-.212179695737177,3.364038402367441-.229986314400776,6.544821078156019-3.021836864305442,6.297234743547961-6.609462562247245-.232540185632388-3.365342875001261-3.001164460476502-6.543954913617199-6.609462562248154-6.29723474354887Z"/>
        <path class="cls-1" d="M135.859529540361109,120.228592790751463c-13.105285445990376-1.606180396356649-26.321255229704548-.593412452883058-39.467838047161422-.08363307496893-3.372534137721232.130770604456302-6.539947287627001,3.092974347530799-6.29723474354978,6.609462562247245.238174598860496,3.450544880751295,2.994172690972846,6.437398618486441,6.609462562248154,6.297234743547961,11.92314728459678-.462316673766509,24.029736553269686-1.500427811616646,35.937291908327097-.304733710649089.029513969615437.003594977215471.059017775562097.006769814545805.088321675231782.010369873593845,1.792373300004328.219644272288861,3.357220642781613.218047090891559,4.957037256972399-.770883764326754,1.319615522406821-.815732257715354,2.55908015408022-2.381490596240837,2.872258744882856-3.928466839648536.336481803477-1.661096677472415.210117325768806-3.513412314266134-.770671153470175-4.956937303833001-.877906671130404-1.291784793965235-2.304486563014507-2.67334361178473-3.928628203480912-2.872412485962741Z"/>
        <path class="cls-1" d="M188.715660571075205,120.271162212950003c-12.309109694504514-.069698211206742-24.618218118550431-.139343904927955-36.927537882998877-.209037034303037-3.379733755506095-.01913294377573-6.532730202678067,3.200155770657148-6.297234743547961,6.609462562247245.247162827678039,3.578807842164679,2.98839445925114,6.27674084849059,6.609462562246335,6.29723474354887,12.309319764448446.069693129375082,24.618428188496182.139338823096296,36.927537882998877.209037034303037,3.379733755506095.01913294377664,6.532730202678067-3.200155770657148,6.297234743547961-6.609462562246335-.247162827678039-3.578807842163769-2.988184389309026-6.276745930324068-6.609462562246335-6.29723474354978Z"/>
        <path class="cls-1" d="M150.637639744814805,94.678461398737454c.368788544419658-6.981205901073736,12.516252181874734-14.100570464770499,12.885037847427157-21.081895372668441.101252748705519-1.91684181054643-12.563073609268031-1.109913316618076-17.554777728149929-.902469984523123-5.239876585825186.217733692161346-18.418575245910688.667449795831089-18.527050384567701,2.72116611056299-.368785665548785,6.981324907898852,13.599648620967855,14.66615444204399,13.230860076546378,21.647360343117725-.101252748707338,1.91684181054552,2.991268617985043,4.125098490404525,4.366782409932057,3.886987694807431,4.664007447936456-.807371420482013,5.490675519029537-4.217313469739565,5.599147778812039-6.271148791296582Z"/>
        <path class="cls-1" d="M246.28837353673589,119.456179894453271c-13.183146309725998.110509198305408-26.366082549504426.221013314778247-39.549017518829714.331569948737524-3.378375191305167.02833778153763-6.535231478252172,3.166270129506302-6.297234743547961,6.609462562248154.244290133967297,3.538257562150648,2.989414192892582,6.327582856558365,6.609462562246335,6.297234743547051,13.182934969325288-.110556633958367,26.365871209105535-.221060750431207,39.549017518829714-.331569948736615,3.378165121366692-.02833269970597,6.535021408310058-3.166265047673733,6.297234743547961-6.609462562247245-.244291404424075-3.538310079637085-2.989625533289654-6.327630292213144-6.609462562246335-6.29723474354887Z"/>
      </g>
      <g>
        <path class="cls-2" d="M73.988545352589426,120.989910563648664c-13.313664761695691.910350147166355-26.673913057313257.981160785915563-39.996463644078176.212179695735358-3.379787121311892-.195115640319273-6.523813119521947,3.3254777528673-6.29723474354978,6.609462562248154.257518576443545,3.728845232844833,2.989089074098956,6.088233581163877,6.609462562249973,6.29723474354978,13.3225505867631.768981090178386,26.682798882380666.698170451430087,39.996463644078176-.212179695737177,3.364038402367441-.229986314400776,6.544821078156019-3.021836864305442,6.297234743547961-6.609462562247245-.232540185632388-3.365342875001261-3.001164460476502-6.543954913617199-6.609462562248154-6.29723474354887Z"/>
        <path class="cls-2" d="M135.859529540361109,120.228592790751463c-13.105285445990376-1.606180396356649-26.321255229704548-.593412452883058-39.467838047161422-.08363307496893-3.372534137721232.130770604456302-6.539947287627001,3.092974347530799-6.29723474354978,6.609462562247245.238174598860496,3.450544880751295,2.994172690972846,6.437398618486441,6.609462562248154,6.297234743547961,11.92314728459678-.462316673766509,24.029736553269686-1.500427811616646,35.937291908327097-.304733710649089.029513969615437.003594977215471.059017775562097.006769814545805.088321675231782.010369873593845,1.792373300004328.219644272288861,3.357220642781613.218047090891559,4.957037256972399-.770883764326754,1.319615522406821-.815732257715354,2.55908015408022-2.381490596240837,2.872258744882856-3.928466839648536.336481803477-1.661096677472415.210117325768806-3.513412314266134-.770671153470175-4.956937303833001-.877906671130404-1.291784793965235-2.304486563014507-2.67334361178473-3.928628203480912-2.872412485962741Z"/>
        <path class="cls-2" d="M188.715660571075205,120.271162212950003c-12.309109694504514-.069698211206742-24.618218118550431-.139343904927955-36.927537882998877-.209037034303037-3.379733755506095-.01913294377573-6.532730202678067,3.200155770657148-6.297234743547961,6.609462562247245.247162827678039,3.578807842164679,2.98839445925114,6.27674084849059,6.609462562246335,6.29723474354887,12.309319764448446.069693129375082,24.618428188496182.139338823096296,36.927537882998877.209037034303037,3.379733755506095.01913294377664,6.532730202678067-3.200155770657148,6.297234743547961-6.609462562246335-.247162827678039-3.578807842163769-2.988184389309026-6.276745930324068-6.609462562246335-6.29723474354978Z"/>
        <path class="cls-2" d="M150.637639744814805,94.678461398737454c.368788544419658-6.981205901073736,12.516252181874734-14.100570464770499,12.885037847427157-21.081895372668441.101252748705519-1.91684181054643-12.563073609268031-1.109913316618076-17.554777728149929-.902469984523123-5.239876585825186.217733692161346-18.418575245910688.667449795831089-18.527050384567701,2.72116611056299-.368785665548785,6.981324907898852,13.599648620967855,14.66615444204399,13.230860076546378,21.647360343117725-.101252748707338,1.91684181054552,2.991268617985043,4.125098490404525,4.366782409932057,3.886987694807431,4.664007447936456-.807371420482013,5.490675519029537-4.217313469739565,5.599147778812039-6.271148791296582Z"/>
        <path class="cls-2" d="M246.28837353673589,119.456179894453271c-13.183146309725998.110509198305408-26.366082549504426.221013314778247-39.549017518829714.331569948737524-3.378375191305167.02833778153763-6.535231478252172,3.166270129506302-6.297234743547961,6.609462562248154.244290133967297,3.538257562150648,2.989414192892582,6.327582856558365,6.609462562246335,6.297234743547051,13.182934969325288-.110556633958367,26.365871209105535-.221060750431207,39.549017518829714-.331569948736615,3.378165121366692-.02833269970597,6.535021408310058-3.166265047673733,6.297234743547961-6.609462562247245-.244291404424075-3.538310079637085-2.989625533289654-6.327630292213144-6.609462562246335-6.29723474354887Z"/>
      </g>
      <g>
        <path class="cls-3" d="M73.988545352589426,120.989910563648664c-13.313664761695691.910350147166355-26.673913057313257.981160785915563-39.996463644078176.212179695735358-3.379787121311892-.195115640319273-6.523813119521947,3.3254777528673-6.29723474354978,6.609462562248154.257518576443545,3.728845232844833,2.989089074098956,6.088233581163877,6.609462562249973,6.29723474354978,13.3225505867631.768981090178386,26.682798882380666.698170451430087,39.996463644078176-.212179695737177,3.364038402367441-.229986314400776,6.544821078156019-3.021836864305442,6.297234743547961-6.609462562247245-.232540185632388-3.365342875001261-3.001164460476502-6.543954913617199-6.609462562248154-6.29723474354887Z"/>
        <path class="cls-3" d="M135.859529540361109,120.228592790751463c-13.105285445990376-1.606180396356649-26.321255229704548-.593412452883058-39.467838047161422-.08363307496893-3.372534137721232.130770604456302-6.539947287627001,3.092974347530799-6.29723474354978,6.609462562247245.238174598860496,3.450544880751295,2.994172690972846,6.437398618486441,6.609462562248154,6.297234743547961,11.92314728459678-.462316673766509,24.029736553269686-1.500427811616646,35.937291908327097-.304733710649089.029513969615437.003594977215471.059017775562097.006769814545805.088321675231782.010369873593845,1.792373300004328.219644272288861,3.357220642781613.218047090891559,4.957037256972399-.770883764326754,1.319615522406821-.815732257715354,2.55908015408022-2.381490596240837,2.872258744882856-3.928466839648536.336481803477-1.661096677472415.210117325768806-3.513412314266134-.770671153470175-4.956937303833001-.877906671130404-1.291784793965235-2.304486563014507-2.67334361178473-3.928628203480912-2.872412485962741Z"/>
        <path class="cls-3" d="M188.715660571075205,120.271162212950003c-12.309109694504514-.069698211206742-24.618218118550431-.139343904927955-36.927537882998877-.209037034303037-3.379733755506095-.01913294377573-6.532730202678067,3.200155770657148-6.297234743547961,6.609462562247245.247162827678039,3.578807842164679,2.98839445925114,6.27674084849059,6.609462562246335,6.29723474354887,12.309319764448446.069693129375082,24.618428188496182.139338823096296,36.927537882998877.209037034303037,3.379733755506095.01913294377664,6.532730202678067-3.200155770657148,6.297234743547961-6.609462562246335-.247162827678039-3.578807842163769-2.988184389309026-6.276745930324068-6.609462562246335-6.29723474354978Z"/>
        <path class="cls-3" d="M150.637639744814805,94.678461398737454c.368788544419658-6.981205901073736,12.516252181874734-14.100570464770499,12.885037847427157-21.081895372668441.101252748705519-1.91684181054643-12.563073609268031-1.109913316618076-17.554777728149929-.902469984523123-5.239876585825186.217733692161346-18.418575245910688.667449795831089-18.527050384567701,2.72116611056299-.368785665548785,6.981324907898852,13.599648620967855,14.66615444204399,13.230860076546378,21.647360343117725-.101252748707338,1.91684181054552,2.991268617985043,4.125098490404525,4.366782409932057,3.886987694807431,4.664007447936456-.807371420482013,5.490675519029537-4.217313469739565,5.599147778812039-6.271148791296582Z"/>
        <path class="cls-3" d="M246.28837353673589,119.456179894453271c-13.183146309725998.110509198305408-26.366082549504426.221013314778247-39.549017518829714.331569948737524-3.378375191305167.02833778153763-6.535231478252172,3.166270129506302-6.297234743547961,6.609462562248154.244290133967297,3.538257562150648,2.989414192892582,6.327582856558365,6.609462562246335,6.297234743547051,13.182934969325288-.110556633958367,26.365871209105535-.221060750431207,39.549017518829714-.331569948736615,3.378165121366692-.02833269970597,6.535021408310058-3.166265047673733,6.297234743547961-6.609462562247245-.244291404424075-3.538310079637085-2.989625533289654-6.327630292213144-6.609462562246335-6.29723474354887Z"/>
      </g>
    </g>
  </g>
  <g id="Arrows">
    <g>
      <g>
        <path class="cls-5" d="M216.239013671875,177.011141188600959c9.6474609375,0,18.1826171875.61407470703125,26.093505859375,1.877365112304688,2.4375.389236450195312,5.0810546875.578475952148438,8.0810546875.578475952148438,2.585205078125,0,5.179443359375-.138336181640625,7.407958984375-.267990112304688,2.84912109375-.165771484375,5.87744140625-.24298095703125,9.5322265625-.24298095703125,2.790283203125,0,5.63232421875.04583740234375,8.381103515625.090164184570312,1.27783203125.020599365234375,2.555419921875.04119873046875,3.83251953125.057525634765625,8.607421875.109909057617188,16.208984375,1.578628540039062,23.2392578125,4.489974975585938,13.068359375,5.412017822265625,21.741455078125,15.214752197265625,25.7783203125,29.135910034179688,2.87890625,9.928741455078125,3.70947265625,20.678298950195312,2.613525390625,33.829376220703125-.037841796875.455078125-.039794921875.899444580078125-.041748046875,1.329208374023438-.001708984375.450996398925781-.003662109375.876976013183594-.045654296875,1.286262512207031-.898193359375,8.716682434082031.101806640625,17.421470642089844,1.06884765625,25.83966064453125.1953125,1.700973510742188.390869140625,3.40191650390625.5712890625,5.10357666015625.127685546875,1.205474853515625.168701171875,2.455680847167969.208251953125,3.664710998535156.05712890625,1.74163818359375.1162109375,3.541740417480469.429443359375,5.330146789550781v13.229660034179688c-.347900390625,1.521488189697266-.423095703125,3.053882598876953-.49560546875,4.536983489990234-.02685546875.547157287597656-.053466796875,1.093418121337891-.09423828125,1.636604309082031-.48193359375,6.444553375244141-3.044677734375,12.399448394775391-8.064453125,18.740421295166016-8.24462890625,10.414604187011719-19.4306640625,15.663867950439453-34.197265625,16.047788619995117-.439697265625.011421203613281-.87890625.017236709594727-1.315673828125.017236709594727-7.625244140625,0-14.220703125-1.726448059082031-20.162841796875-5.278026580810547-6.481689453125-3.874025344848633-11.447021484375-9.300209045410156-14.76025390625-16.132843017578125-.79638671875-1.642078399658203-1.23486328125-2.546630859375-2.297607421875-2.54681396484375-.768798828125-.000106811523438-1.33984375.545024871826172-2.37646484375,1.534656524658203l-.07568359375.072238922119141c-1.82177734375,1.738182067871094-3.64697265625,3.472946166992188-5.47216796875,5.207736968994141-7.718505859375,7.336734771728516-15.699951171875,14.923234939575195-23.29296875,22.660314559936523-1.186767578125,1.209157943725586-2.346435546875,2.472999572753906-3.4677734375,3.695237159729004-1.528076171875,1.665236473083496-3.10791015625,3.387183666229248-4.7568359375,4.969157218933105-4.760009765625,4.566973924636841-9.583251953125,7.764158010482788-14.745361328125,9.774263381958008-3.338134765625,1.299789428710938-6.819580078125,1.433973789215088-10.505615234375,1.576052665710449l-.184326171875.007842063903809-3.37939453125-.000026226043701-3.421630859375.001026153564453c-.44091796875.019815921783447-.87890625.029605388641357-1.312255859375.029605388641357-7.57568359375,0-14.70166015625-3.022078990936279-21.784912109375-9.238921165466309-4.39306640625-3.855684280395508-7.8369140625-7.762815475463867-10.529052734375-11.944658279418945-3.431640625-5.330683708190918-5.02490234375-11.151104927062988-4.87060546875-17.817051887512207l-.001220703125-6.084579467773438c-.432861328125-8.912948608398438,2.935302734375-17.052394866943359,10.010498046875-24.192211151123047,4.93359375-4.978446960449219,10.1142578125-9.88720703125,15.1240234375-14.63433837890625,4.509765625-4.273162841796875,9.173095703125-8.691818237304688,13.653564453125-13.1580810546875,2.3779296875-2.370391845703125,4.84375-4.751289367675781,7.228271484375-7.053787231445312,1.078857421875-1.041793823242188,2.15771484375-2.083526611328125,3.232666015625-3.128005981445312.90234375-.876762390136719,1.696044921875-1.747367858886719,1.498291015625-2.756889343261719-.198486328125-1.013870239257812-1.235595703125-1.509346008300781-2.46923828125-2.008262634277344-8.0830078125-3.269210815429688-14.294921875-8.671478271484375-18.46337890625-16.056716918945312-2.380859375-4.217994689941406-3.804931640625-9.003028869628906-4.353271484375-14.628501892089844-.824462890625-8.453659057617188.548095703125-16.67938232421875,4.07958984375-24.448654174804688,4.827880859375-10.621475219726562,12.893310546875-18.15399169921875,23.971923828125-22.388336181640625,4.60791015625-1.7611083984375,9.335693359375-2.116851806640625,13.75830078125-2.2388916015625,2.4658203125-.068084716796875,4.869140625-.102615356445312,7.14306640625-.102615356445312M216.239013671875,176.011141188600959c-2.38916015625,0-4.780029296875.036972045898438-7.170654296875.102981567382812-4.747802734375.13104248046875-9.4990234375.5506591796875-14.087646484375,2.304412841796875-11.32763671875,4.329498291015625-19.53076171875,11.920639038085938-24.525390625,22.90863037109375-3.598388671875,7.916763305664062-5.016357421875,16.224105834960938-4.16455078125,24.95953369140625.521240234375,5.346359252929688,1.850830078125,10.369125366210938,4.477783203125,15.022994995117188,4.361328125,7.726814270019531,10.740966796875,13.168212890625,18.959228515625,16.492210388183594,2.319580078125.938133239746094,2.427001953125,1.393447875976562.649169921875,3.120925903320312-3.4931640625,3.39410400390625-7.028076171875,6.759605407714844-10.47021484375,10.19073486328125-9.450439453125,9.420707702636719-19.396728515625,18.32623291015625-28.78173828125,27.796760559082031-6.7236328125,6.784896850585938-10.78125,15.015396118164062-10.299072265625,24.944606781005859v6.036079406738281c-.153564453125,6.621894836425781,1.397705078125,12.716316223144531,5.02978515625,18.358342170715332,2.97412109375,4.620104789733887,6.646240234375,8.587999820709229,10.710205078125,12.15494704246521,6.435791015625,5.648446083068848,13.703125,9.487334489822388,22.444580078125,9.487334489822388.447998046875,0,.901123046875-.010124683380127,1.357177734375-.030597686767578,1.125244140625-.00001335144043,2.250732421875-.000019550323486,3.376708984375-.000019550323486s2.25244140625.000006198883057,3.37939453125.000019550323486c3.746337890625-.144894599914551,7.487548828125-.263789653778076,11.052734375-1.652052402496338,5.751220703125-2.239447593688965,10.6533203125-5.742184460163116,15.074951171875-9.984526634216309,2.884765625-2.767789363861084,5.45166015625-5.838315486907959,8.245849609375-8.68555212020874,9.34521484375-9.522500038146973,19.090087890625-18.636263847351074,28.74169921875-27.84494686126709.9033203125-.861827850341797,1.383056640625-1.330474853515625,1.76171875-1.330413818359375.43701171875.000068664550781.739013671875.624114990234375,1.400390625,1.988151550292969,3.4052734375,7.02197265625,8.453125,12.55034065246582,15.144775390625,16.54986572265625,6.389404296875,3.819002151489258,13.333984375,5.419647216796875,20.67578125,5.419647216796875.4453125,0,.893310546875-.005912780761719,1.341552734375-.017566680908203,14.059814453125-.36552619934082,26.058837890625-5.188474655151367,34.95556640625-16.426765441894531,4.466796875-5.642498016357422,7.72314453125-11.875812530517578,8.277587890625-19.2864990234375.15234375-2.038341522216797.11279296875-4.118000030517578.592529296875-6.133079528808594v-13.432785034179688c-.536376953125-2.980873107910156-.32568359375-6.014579772949219-.643310546875-9.012214660644531-1.083251953125-10.215629577636719-2.70458984375-20.402946472167969-1.639892578125-30.735366821289062.089599609375-.870712280273438.01611328125-1.757049560546875.08935546875-2.634788513183594.961669921875-11.540817260742188.5859375-23.032295227050781-2.649658203125-34.191047668457031-4.055908203125-13.98687744140625-12.7470703125-24.145370483398438-26.356201171875-29.781326293945312-7.546875-3.1253662109375-15.480712890625-4.462173461914062-23.609130859375-4.565994262695312-4.073974609375-.052032470703125-8.152587890625-.147796630859375-12.22802734375-.147781372070312-3.199951171875.000015258789062-6.3984375.059066772460938-9.588623046875.244674682617188-2.46044921875.143142700195312-4.908203125.266311645507812-7.349853515625.266311645507812-2.646728515625,0-5.2861328125-.144851684570312-7.92333984375-.565963745117188-8.710205078125-1.390899658203125-17.472412109375-1.889877319335938-26.251220703125-1.889877319335938h0Z"/>
        <path class="cls-5" d="M215.4189453125,206.144396193483772c6.57568359375,0,13.255615234375,1.059249877929688,19.00048828125,2.052078247070312,5.114013671875.883758544921875,10.48974609375,1.295379638671875,16.917724609375,1.295379638671875,4.035888671875,0,8.003662109375-.167999267578125,11.009521484375-.3143310546875,3.23388671875-.157470703125,6.681640625-.311203002929688,10.153564453125-.311203002929688,4.914306640625,0,8.9873046875.308181762695312,12.818115234375.969863891601562,10.220458984375,1.765457153320312,14.563720703125,6.50469970703125,15.490478515625,16.9033203125.748046875,8.390373229980469.7705078125,17.276016235351562.06689453125,26.41009521484375-.7373046875,9.568359375.67724609375,19.035057067871094,2.04541015625,28.190078735351562.1611328125,1.078857421875.322265625,2.157882690429688.480224609375,3.237457275390625.869873046875,5.94464111328125,1.50244140625,12.298927307128906.25244140625,18.488945007324219-1.18896484375,5.888298034667969-7.10205078125,10.500797271728516-13.4619140625,10.500797271728516-1.7783203125,0-3.4716796875-.360477447509766-5.033447265625-1.071456909179688-3.4619140625-1.575881958007812-4.482177734375-4.691120147705078-4.949462890625-8.883781433105469-.599853515625-5.381641387939453-.293701171875-10.882602691650391.00244140625-16.202457427978516.169189453125-3.042083740234375.34423828125-6.187744140625.35107421875-9.296844482421875.01611328125-7.271598815917969-.326416015625-15.742141723632812-4.623291015625-24.251861572265625l-.654296875-1.2957763671875-.9775390625,1.073020935058594c-.67822265625.744537353515625-1.34716796875,1.498619079589844-2.01611328125,2.252716064453125-1.415283203125,1.595802307128906-2.87890625,3.245941162109375-4.404052734375,4.760284423828125-9.10498046875,9.041419982910156-17.378173828125,17.178741455078125-25.291748046875,24.876960754394531-8.3359375,8.109039306640625-16.83203125,16.333477020263672-25.04833984375,24.287136077880859-5.711181640625,5.528659820556641-11.422607421875,11.057342529296875-17.12744140625,16.592502593994141-1.47021484375,1.426319122314453-2.818115234375,2.984699249267578-4.121826171875,4.49176025390625-1.765380859375,2.040859222412109-3.5908203125,4.15119743347168-5.69287109375,5.885519027709961-2.5625,2.114278793334961-4.751708984375,3.099020004272461-6.889892578125,3.099020004272461-2.087158203125,0-4.209716796875-.933681488037109-6.679931640625-2.93834114074707-.80517578125-.653400421142578-1.46533203125-1.214460372924805-2.071044921875-1.828939437866211-5.55908203125-5.640338897705078-5.59765625-10.609600067138672-.125244140625-16.112480163574219,1.76806640625-1.777641296386719,3.729248046875-3.451519012451172,5.626220703125-5.070259094238281,1.930908203125-1.648078918457031,3.927978515625-3.352260589599609,5.75634765625-5.192039489746094,14.8955078125-14.987277984619141,29.8642578125-29.351703643798828,45.16650390625-43.971958160400391,6.09130859375-5.820045471191406,12.306640625-11.715766906738281,18.3173828125-17.417366027832031,3.22119140625-3.055397033691406,6.442138671875-6.11077880859375,9.66015625-9.169418334960938,1.283935546875-1.220497131347656,1.9912109375-1.892822265625,1.77734375-2.827720642089844-.21533203125-.941032409667969-1.165771484375-1.245719909667969-2.8916015625-1.798835754394531-9.333251953125-2.991607666015625-18.8525390625-3.37530517578125-26.102783203125-3.375335693359375-1.3388671875-.000030517578125-2.75244140625.014572143554688-4.32177734375.044586181640625-1.68505859375.032272338867188-3.395263671875.0877685546875-5.04931640625.141448974609375-2.568603515625.0833740234375-5.224853515625.169570922851562-7.827880859375.169570922851562-3.74658203125,0-6.83251953125-.177871704101562-9.71142578125-.559768676757812-1.79443359375-.238037109375-3.31591796875-.7115478515625-4.6513671875-1.447525024414062-2.19970703125-1.212142944335938-3.277587890625-2.903823852539062-3.39208984375-5.323822021484375-.24853515625-5.259658813476562.984130859375-9.381362915039062,3.664306640625-12.250640869140625,2.857421875-3.058883666992188,7.32421875-4.672882080078125,13.277099609375-4.797119140625.427490234375-.008941650390625.855712890625-.013259887695312,1.282958984375-.013259887695312M215.4189453125,205.144396193483772c-.43408203125,0-.869384765625.004409790039062-1.303955078125.01348876953125-12.20166015625.254669189453125-18.4599609375,6.660659790039062-17.919189453125,18.094772338867188.134033203125,2.832595825195312,1.48828125,4.818878173828125,3.908203125,6.15240478515625,1.557861328125.858551025390625,3.25244140625,1.330856323242188,5.00244140625,1.563018798828125,3.2783203125.434860229492188,6.559326171875.568466186523438,9.843017578125.568466186523438,4.296875,0,8.597900390625-.22894287109375,12.896240234375-.311203002929688,1.43603515625-.027496337890625,2.86962890625-.044448852539062,4.302734375-.04443359375,8.718994140625.000076293945312,17.374267578125.627777099609375,25.797607421875,3.327621459960938,2.840087890625.910308837890625,2.838623046875.945587158203125.73046875,2.949485778808594-9.32568359375,8.863822937011719-18.677001953125,17.700538635253906-27.9794921875,26.588539123535156-15.198974609375,14.521804809570312-30.36376953125,29.077743530273438-45.184814453125,43.990062713623047-3.595703125,3.61785888671875-7.785400390625,6.645320892333984-11.38232421875,10.262081146240234-5.92822265625,5.961078643798828-5.774658203125,11.536758422851562.1220703125,17.519598007202148.6708984375.68079948425293,1.40966796875,1.300180435180664,2.153076171875,1.903459548950195,2.601318359375,2.111072540283203,4.95654296875,3.161855697631836,7.31005859375,3.161855697631836,2.421875,0,4.841796875-1.112674713134766,7.5263671875-3.327674865722656,3.726318359375-3.074579238891602,6.436767578125-7.095521926879883,9.87451171875-10.430898666381836,14.052001953125-13.633899688720703,28.142578125-27.228321075439453,42.1767578125-40.880561828613281,8.478759765625-8.247901916503906,16.90576171875-16.549522399902344,25.299072265625-24.884178161621094,2.25830078125-2.242324829101562,4.308837890625-4.693679809570312,6.454833984375-7.049102783203125,4.03955078125,8.000442504882812,4.533447265625,15.878280639648438,4.515869140625,23.798919677734375-.018798828125,8.537445068359375-1.300537109375,17.059844970703125-.347412109375,25.612281799316406.447998046875,4.020221710205078,1.43212890625,7.818138122558594,5.529052734375,9.683158874511719,1.743408203125.793678283691406,3.597412109375,1.161327362060547,5.44775390625,1.161327362060547,6.571533203125,0,13.09619140625-4.637462615966797,14.442138671875-11.302886962890625,1.26708984375-6.275119781494141.673095703125-12.569179534912109-.2431640625-18.831623077392578-1.513671875-10.3477783203125-3.33154296875-20.647819519042969-2.51806640625-31.205955505371094.681396484375-8.846481323242188.72216796875-17.712760925292969-.06787109375-26.575706481933594-.9658203125-10.8360595703125-5.55615234375-15.941268920898438-16.31640625-17.7999267578125-4.314453125-.745254516601562-8.64794921875-.984466552734375-12.98828125-.984466552734375-3.399169921875,0-6.80322265625.146881103515625-10.2021484375.3123779296875-3.660888671875.178253173828125-7.312744140625.31317138671875-10.9609375.31317138671875-5.59033203125,0-11.17041015625-.317031860351562-16.747314453125-1.280792236328125-6.333251953125-1.094512939453125-12.72021484375-2.066680908203125-19.1708984375-2.066680908203125h0Z"/>
      </g>
      <path class="cls-4" d="M279.73095703125,279.731005080202522c-69.716361373975815.440567719992941-210.016444177859739,1.33068005289806-279.731322828803968,1.531160333849584.000365797503036.000257512899225-1.526733811784652.007123967858206-1.526733811821032.007123967908228-.000000000023647.000000000032742-.00439453123181-1.538383483910366-.00439453125-1.538383483886719-.064394915980301-34.904886459985391-.304290746846164-104.981267724012469-.285238437994849-139.865676079432887C-1.816894531262733,139.865496047003035-1.997802734365905.000109084106043-1.997802734375.000109084108772c.000000000065484.000000000056389-.002441406297294-2.000335693400302-.00244140625-2.000335693359375,47.593358102276397.061678540466346,165.706438994355267.208743936166684,211.798328422408304.271000224660384,17.377601994048746.057259244843408,52.545012593373031.067303345071196,69.932841412775815.190932721156969.000031336850952-.000140953746268,1.545441492824466.005932044500696,1.545441492940881.005932044417023-.000000000025466.00000000001728-.00683593748181,1.532470703112267-.0068359375,1.532470703125-.325019945117674,69.7191896511913-.970933014497859,210.042533269664091-1.53857421875,279.73089599609375h0ZM279.73095703125,279.731005080202522c-.578856250474928-69.742891999942003-1.234127052975964-210.023048087220559-1.538379891013392-279.731249247784945.000049813615988.000353251113665,1.538379890489523,1.538683330231834,1.538379891015211,1.538683329815285-38.949299504643932.064928029245493-100.445728021051764.316608112249014-139.865504218894785.281535036065179C139.865478515555878,1.820268997281346.000000000049113,1.997698194670193,0,1.997698195439625c.000000000043656.00000000003547,1.997802734344077-1.997589111358138,1.997802734375-1.997589111330853.100317061451278,79.280986310523076-.354954806820388,201.347917708311797-.465833916292468,279.730644403884071-.000474677535749.000152410178998-1.531968818026144-1.531158625146418-1.531968818082532-1.531158625075477,69.708485331770135.186222257163536,210.024490027275533,1.073937508516792,279.73095703125,1.531410217285156h0Z"/>
    </g>
  </g>
</svg>