<?xml version="1.0" encoding="UTF-8"?>
<svg id="Layer_1" xmlns="http://www.w3.org/2000/svg" viewBox="0 0 280 280">
  <defs>
    <style>
      .cls-1 {
        stroke: #665451;
        stroke-width: 50px;
      }

      .cls-1, .cls-2 {
        fill: none;
        stroke-linecap: round;
        stroke-linejoin: round;
      }

      .cls-3 {
        fill: #fff;
      }

      .cls-2 {
        stroke: #998675;
        stroke-width: 2px;
      }
    </style>
  </defs>
  <g>
    <path d="M73.988545352589426,120.989910563648664c-13.313664761695691.910350147166355-26.673913057313257.981160785915563-39.996463644078176.212179695735358-3.379787121311892-.195115640319273-6.523813119521947,3.3254777528673-6.29723474354978,6.609462562248154.257518576443545,3.728845232844833,2.989089074098956,6.088233581163877,6.609462562249973,6.29723474354978,13.3225505867631.768981090178386,26.682798882380666.698170451430087,39.996463644078176-.212179695737177,3.364038402367441-.229986314400776,6.544821078156019-3.021836864305442,6.297234743547961-6.609462562247245-.232540185632388-3.365342875001261-3.001164460476502-6.543954913617199-6.609462562248154-6.29723474354887Z"/>
    <path d="M135.859529540361109,120.228592790751463c-13.105285445990376-1.606180396356649-26.321255229704548-.593412452883058-39.467838047161422-.08363307496893-3.372534137721232.130770604456302-6.539947287627001,3.092974347530799-6.29723474354978,6.609462562247245.238174598860496,3.450544880751295,2.994172690972846,6.437398618486441,6.609462562248154,6.297234743547961,11.92314728459678-.462316673766509,24.029736553269686-1.500427811616646,35.937291908327097-.304733710649089.029513969615437.003594977215471.059017775562097.006769814545805.088321675231782.010369873593845,1.792373300004328.219644272288861,3.357220642781613.218047090891559,4.957037256972399-.770883764326754,1.319615522406821-.815732257715354,2.55908015408022-2.381490596240837,2.872258744882856-3.928466839648536.336481803477-1.661096677472415.210117325768806-3.513412314266134-.770671153470175-4.956937303833001-.877906671130404-1.291784793965235-2.304486563014507-2.67334361178473-3.928628203480912-2.872412485962741Z"/>
    <path d="M188.715660571075205,120.271162212950003c-12.309109694504514-.069698211206742-24.618218118550431-.139343904927955-36.927537882998877-.209037034303037-3.379733755506095-.01913294377573-6.532730202678067,3.200155770657148-6.297234743547961,6.609462562247245.247162827678039,3.578807842164679,2.98839445925114,6.27674084849059,6.609462562246335,6.29723474354887,12.309319764448446.069693129375082,24.618428188496182.139338823096296,36.927537882998877.209037034303037,3.379733755506095.01913294377664,6.532730202678067-3.200155770657148,6.297234743547961-6.609462562246335-.247162827678039-3.578807842163769-2.988184389309026-6.276745930324068-6.609462562246335-6.29723474354978Z"/>
    <path d="M150.637639744814805,94.678461398737454c.368788544419658-6.981205901073736,12.516252181874734-14.100570464770499,12.885037847427157-21.081895372668441.101252748705519-1.91684181054643-12.563073609268031-1.109913316618076-17.554777728149929-.902469984523123-5.239876585825186.217733692161346-18.418575245910688.667449795831089-18.527050384567701,2.72116611056299-.368785665548785,6.981324907898852,13.599648620967855,14.66615444204399,13.230860076546378,21.647360343117725-.101252748707338,1.91684181054552,2.991268617985043,4.125098490404525,4.366782409932057,3.886987694807431,4.664007447936456-.807371420482013,5.490675519029537-4.217313469739565,5.599147778812039-6.271148791296582Z"/>
    <path d="M246.28837353673589,119.456179894453271c-13.183146309725998.110509198305408-26.366082549504426.221013314778247-39.549017518829714.331569948737524-3.378375191305167.02833778153763-6.535231478252172,3.166270129506302-6.297234743547961,6.609462562248154.244290133967297,3.538257562150648,2.989414192892582,6.327582856558365,6.609462562246335,6.297234743547051,13.182934969325288-.110556633958367,26.365871209105535-.221060750431207,39.549017518829714-.331569948736615,3.378165121366692-.02833269970597,6.535021408310058-3.166265047673733,6.297234743547961-6.609462562247245-.244291404424075-3.538310079637085-2.989625533289654-6.327630292213144-6.609462562246335-6.29723474354887Z"/>
  </g>
  <g>
    <path class="cls-1" d="M73.988545352589426,120.989910563648664c-13.313664761695691.910350147166355-26.673913057313257.981160785915563-39.996463644078176.212179695735358-3.379787121311892-.195115640319273-6.523813119521947,3.3254777528673-6.29723474354978,6.609462562248154.257518576443545,3.728845232844833,2.989089074098956,6.088233581163877,6.609462562249973,6.29723474354978,13.3225505867631.768981090178386,26.682798882380666.698170451430087,39.996463644078176-.212179695737177,3.364038402367441-.229986314400776,6.544821078156019-3.021836864305442,6.297234743547961-6.609462562247245-.232540185632388-3.365342875001261-3.001164460476502-6.543954913617199-6.609462562248154-6.29723474354887Z"/>
    <path class="cls-1" d="M135.859529540361109,120.228592790751463c-13.105285445990376-1.606180396356649-26.321255229704548-.593412452883058-39.467838047161422-.08363307496893-3.372534137721232.130770604456302-6.539947287627001,3.092974347530799-6.29723474354978,6.609462562247245.238174598860496,3.450544880751295,2.994172690972846,6.437398618486441,6.609462562248154,6.297234743547961,11.92314728459678-.462316673766509,24.029736553269686-1.500427811616646,35.937291908327097-.304733710649089.029513969615437.003594977215471.059017775562097.006769814545805.088321675231782.010369873593845,1.792373300004328.219644272288861,3.357220642781613.218047090891559,4.957037256972399-.770883764326754,1.319615522406821-.815732257715354,2.55908015408022-2.381490596240837,2.872258744882856-3.928466839648536.336481803477-1.661096677472415.210117325768806-3.513412314266134-.770671153470175-4.956937303833001-.877906671130404-1.291784793965235-2.304486563014507-2.67334361178473-3.928628203480912-2.872412485962741Z"/>
    <path class="cls-1" d="M188.715660571075205,120.271162212950003c-12.309109694504514-.069698211206742-24.618218118550431-.139343904927955-36.927537882998877-.209037034303037-3.379733755506095-.01913294377573-6.532730202678067,3.200155770657148-6.297234743547961,6.609462562247245.247162827678039,3.578807842164679,2.98839445925114,6.27674084849059,6.609462562246335,6.29723474354887,12.309319764448446.069693129375082,24.618428188496182.139338823096296,36.927537882998877.209037034303037,3.379733755506095.01913294377664,6.532730202678067-3.200155770657148,6.297234743547961-6.609462562246335-.247162827678039-3.578807842163769-2.988184389309026-6.276745930324068-6.609462562246335-6.29723474354978Z"/>
    <path class="cls-1" d="M150.637639744814805,94.678461398737454c.368788544419658-6.981205901073736,12.516252181874734-14.100570464770499,12.885037847427157-21.081895372668441.101252748705519-1.91684181054643-12.563073609268031-1.109913316618076-17.554777728149929-.902469984523123-5.239876585825186.217733692161346-18.418575245910688.667449795831089-18.527050384567701,2.72116611056299-.368785665548785,6.981324907898852,13.599648620967855,14.66615444204399,13.230860076546378,21.647360343117725-.101252748707338,1.91684181054552,2.991268617985043,4.125098490404525,4.366782409932057,3.886987694807431,4.664007447936456-.807371420482013,5.490675519029537-4.217313469739565,5.599147778812039-6.271148791296582Z"/>
    <path class="cls-1" d="M246.28837353673589,119.456179894453271c-13.183146309725998.110509198305408-26.366082549504426.221013314778247-39.549017518829714.331569948737524-3.378375191305167.02833778153763-6.535231478252172,3.166270129506302-6.297234743547961,6.609462562248154.244290133967297,3.538257562150648,2.989414192892582,6.327582856558365,6.609462562246335,6.297234743547051,13.182934969325288-.110556633958367,26.365871209105535-.221060750431207,39.549017518829714-.331569948736615,3.378165121366692-.02833269970597,6.535021408310058-3.166265047673733,6.297234743547961-6.609462562247245-.244291404424075-3.538310079637085-2.989625533289654-6.327630292213144-6.609462562246335-6.29723474354887Z"/>
  </g>
  <g>
    <path class="cls-2" d="M73.988545352589426,120.989910563648664c-13.313664761695691.910350147166355-26.673913057313257.981160785915563-39.996463644078176.212179695735358-3.379787121311892-.195115640319273-6.523813119521947,3.3254777528673-6.29723474354978,6.609462562248154.257518576443545,3.728845232844833,2.989089074098956,6.088233581163877,6.609462562249973,6.29723474354978,13.3225505867631.768981090178386,26.682798882380666.698170451430087,39.996463644078176-.212179695737177,3.364038402367441-.229986314400776,6.544821078156019-3.021836864305442,6.297234743547961-6.609462562247245-.232540185632388-3.365342875001261-3.001164460476502-6.543954913617199-6.609462562248154-6.29723474354887Z"/>
    <path class="cls-2" d="M135.859529540361109,120.228592790751463c-13.105285445990376-1.606180396356649-26.321255229704548-.593412452883058-39.467838047161422-.08363307496893-3.372534137721232.130770604456302-6.539947287627001,3.092974347530799-6.29723474354978,6.609462562247245.238174598860496,3.450544880751295,2.994172690972846,6.437398618486441,6.609462562248154,6.297234743547961,11.92314728459678-.462316673766509,24.029736553269686-1.500427811616646,35.937291908327097-.304733710649089.029513969615437.003594977215471.059017775562097.006769814545805.088321675231782.010369873593845,1.792373300004328.219644272288861,3.357220642781613.218047090891559,4.957037256972399-.770883764326754,1.319615522406821-.815732257715354,2.55908015408022-2.381490596240837,2.872258744882856-3.928466839648536.336481803477-1.661096677472415.210117325768806-3.513412314266134-.770671153470175-4.956937303833001-.877906671130404-1.291784793965235-2.304486563014507-2.67334361178473-3.928628203480912-2.872412485962741Z"/>
    <path class="cls-2" d="M188.715660571075205,120.271162212950003c-12.309109694504514-.069698211206742-24.618218118550431-.139343904927955-36.927537882998877-.209037034303037-3.379733755506095-.01913294377573-6.532730202678067,3.200155770657148-6.297234743547961,6.609462562247245.247162827678039,3.578807842164679,2.98839445925114,6.27674084849059,6.609462562246335,6.29723474354887,12.309319764448446.069693129375082,24.618428188496182.139338823096296,36.927537882998877.209037034303037,3.379733755506095.01913294377664,6.532730202678067-3.200155770657148,6.297234743547961-6.609462562246335-.247162827678039-3.578807842163769-2.988184389309026-6.276745930324068-6.609462562246335-6.29723474354978Z"/>
    <path class="cls-2" d="M150.637639744814805,94.678461398737454c.368788544419658-6.981205901073736,12.516252181874734-14.100570464770499,12.885037847427157-21.081895372668441.101252748705519-1.91684181054643-12.563073609268031-1.109913316618076-17.554777728149929-.902469984523123-5.239876585825186.217733692161346-18.418575245910688.667449795831089-18.527050384567701,2.72116611056299-.368785665548785,6.981324907898852,13.599648620967855,14.66615444204399,13.230860076546378,21.647360343117725-.101252748707338,1.91684181054552,2.991268617985043,4.125098490404525,4.366782409932057,3.886987694807431,4.664007447936456-.807371420482013,5.490675519029537-4.217313469739565,5.599147778812039-6.271148791296582Z"/>
    <path class="cls-2" d="M246.28837353673589,119.456179894453271c-13.183146309725998.110509198305408-26.366082549504426.221013314778247-39.549017518829714.331569948737524-3.378375191305167.02833778153763-6.535231478252172,3.166270129506302-6.297234743547961,6.609462562248154.244290133967297,3.538257562150648,2.989414192892582,6.327582856558365,6.609462562246335,6.297234743547051,13.182934969325288-.110556633958367,26.365871209105535-.221060750431207,39.549017518829714-.331569948736615,3.378165121366692-.02833269970597,6.535021408310058-3.166265047673733,6.297234743547961-6.609462562247245-.244291404424075-3.538310079637085-2.989625533289654-6.327630292213144-6.609462562246335-6.29723474354887Z"/>
  </g>
  <g>
    <path class="cls-3" d="M73.988545352589426,120.989910563648664c-13.313664761695691.910350147166355-26.673913057313257.981160785915563-39.996463644078176.212179695735358-3.379787121311892-.195115640319273-6.523813119521947,3.3254777528673-6.29723474354978,6.609462562248154.257518576443545,3.728845232844833,2.989089074098956,6.088233581163877,6.609462562249973,6.29723474354978,13.3225505867631.768981090178386,26.682798882380666.698170451430087,39.996463644078176-.212179695737177,3.364038402367441-.229986314400776,6.544821078156019-3.021836864305442,6.297234743547961-6.609462562247245-.232540185632388-3.365342875001261-3.001164460476502-6.543954913617199-6.609462562248154-6.29723474354887Z"/>
    <path class="cls-3" d="M135.859529540361109,120.228592790751463c-13.105285445990376-1.606180396356649-26.321255229704548-.593412452883058-39.467838047161422-.08363307496893-3.372534137721232.130770604456302-6.539947287627001,3.092974347530799-6.29723474354978,6.609462562247245.238174598860496,3.450544880751295,2.994172690972846,6.437398618486441,6.609462562248154,6.297234743547961,11.92314728459678-.462316673766509,24.029736553269686-1.500427811616646,35.937291908327097-.304733710649089.029513969615437.003594977215471.059017775562097.006769814545805.088321675231782.010369873593845,1.792373300004328.219644272288861,3.357220642781613.218047090891559,4.957037256972399-.770883764326754,1.319615522406821-.815732257715354,2.55908015408022-2.381490596240837,2.872258744882856-3.928466839648536.336481803477-1.661096677472415.210117325768806-3.513412314266134-.770671153470175-4.956937303833001-.877906671130404-1.291784793965235-2.304486563014507-2.67334361178473-3.928628203480912-2.872412485962741Z"/>
    <path class="cls-3" d="M188.715660571075205,120.271162212950003c-12.309109694504514-.069698211206742-24.618218118550431-.139343904927955-36.927537882998877-.209037034303037-3.379733755506095-.01913294377573-6.532730202678067,3.200155770657148-6.297234743547961,6.609462562247245.247162827678039,3.578807842164679,2.98839445925114,6.27674084849059,6.609462562246335,6.29723474354887,12.309319764448446.069693129375082,24.618428188496182.139338823096296,36.927537882998877.209037034303037,3.379733755506095.01913294377664,6.532730202678067-3.200155770657148,6.297234743547961-6.609462562246335-.247162827678039-3.578807842163769-2.988184389309026-6.276745930324068-6.609462562246335-6.29723474354978Z"/>
    <path class="cls-3" d="M150.637639744814805,94.678461398737454c.368788544419658-6.981205901073736,12.516252181874734-14.100570464770499,12.885037847427157-21.081895372668441.101252748705519-1.91684181054643-12.563073609268031-1.109913316618076-17.554777728149929-.902469984523123-5.239876585825186.217733692161346-18.418575245910688.667449795831089-18.527050384567701,2.72116611056299-.368785665548785,6.981324907898852,13.599648620967855,14.66615444204399,13.230860076546378,21.647360343117725-.101252748707338,1.91684181054552,2.991268617985043,4.125098490404525,4.366782409932057,3.886987694807431,4.664007447936456-.807371420482013,5.490675519029537-4.217313469739565,5.599147778812039-6.271148791296582Z"/>
    <path class="cls-3" d="M246.28837353673589,119.456179894453271c-13.183146309725998.110509198305408-26.366082549504426.221013314778247-39.549017518829714.331569948737524-3.378375191305167.02833778153763-6.535231478252172,3.166270129506302-6.297234743547961,6.609462562248154.244290133967297,3.538257562150648,2.989414192892582,6.327582856558365,6.609462562246335,6.297234743547051,13.182934969325288-.110556633958367,26.365871209105535-.221060750431207,39.549017518829714-.331569948736615,3.378165121366692-.02833269970597,6.535021408310058-3.166265047673733,6.297234743547961-6.609462562247245-.244291404424075-3.538310079637085-2.989625533289654-6.327630292213144-6.609462562246335-6.29723474354887Z"/>
  </g>
</svg>