<?xml version="1.0" encoding="UTF-8"?>
<svg id="Content" xmlns="http://www.w3.org/2000/svg" viewBox="0 0 280 280">
  <defs>
    <style>
      .cls-1 {
        stroke: #665451;
        stroke-width: 50px;
      }

      .cls-1, .cls-2 {
        fill: none;
        stroke-linecap: round;
        stroke-linejoin: round;
      }

      .cls-3 {
        fill: #fff;
      }

      .cls-2 {
        stroke: #998675;
        stroke-width: 2px;
      }
    </style>
  </defs>
  <g>
    <path d="M74.80735994206043,100.000591908527895c-12.522535370640981,1.209429393449682-25.11113727600241,1.628920962725715-37.686387160800223,1.256011677571223-3.190205891642108-.094634576177668-6.060125797441287,3.30612708859644-5.759892620761093,6.394916196403756.341136686220125,3.507201093951153,2.977619159930327,5.658524949206367,6.394916196401027,5.759892620759274,12.575249884797813.372909285150854,25.163851790159242-.04658228412427,37.686387160800223-1.256011677575771,3.164140274739111-.305558476154147,6.0879406035383-3.02053575028367,5.759892620757455-6.394916196401027-.307999644108349-3.165302155831341-3.001031557258102-6.087670173998049-6.394916196397389-5.759892620757455Z"/>
    <path d="M133.09342523614032,97.649512167537068c-12.392608109881621-1.167608340148035-24.820373173770349.135758333829472-37.196029927232303.963285030981751-3.174766179799917.21228359192537-6.081469328728417,3.087445822472546-5.759892620768369,6.394916196401027.315559073180339,3.245446312390413,2.991629145059051,5.987437936336391,6.394916196408303,5.759892620755636,11.223965035282163-.750495347844662,22.605599547201564-2.048453199026881,33.858648735102179-1.236055606087575.027908385709452.002608565755509.055796100068619.004821467165129.083506653598306.007440368593052,1.694901657110677.159663640828512,3.169545101291078.116840626508747,4.651073670349433-.857352229643766,1.222044903472124-.803575070037368,2.348753455342376-2.311845722571888,2.603041658381699-3.777959010314589.273235546899741-1.574273743257436.105243702439111-3.316528109821775-.857149229639617-4.650985089929236-.861432347601294-1.194176058202174-2.242295411881059-2.458466597619008-3.778115136199631-2.6031822807563Z"/>
    <path d="M182.905271339717729,96.294028137452187c-11.601736664018972.259324396322882-23.203470744119841.518698250686612-34.805405240309483.778032982678269-3.185508995278724.07120712554115-6.071838077339635,3.188261220986533-5.759892620759274,6.394916196398299.327416052450644,3.366081830447911,2.981941867788919,5.836189343679507,6.394916196399208,5.759892620760183,11.601934496189642-.259334731990748,23.203668576290511-.518708586354478,34.805405240311302-.77803298267736,3.185508995278724-.07120712554115,6.071838077339635-3.188261220986533,5.759892620759274-6.394916196398299-.327416052459739-3.36608183044882-2.981744035630982-5.836199679351921-6.394916196401027-5.759892620761093Z"/>
    <path d="M146.345446240688034,73.181303638848476c.163209971460674-6.588707533207526,11.422795824451896-13.618614788748346,11.585999940691181-20.207434395957534.044807038430008-1.809072690354697-11.868533545899481-.714251087206321-16.56715362677096-.386960236472987-4.932221903618483.343540998552271-17.339729979328695,1.115313063050962-17.387729273748846,3.053564664755868-.16320411623019,6.588819607209189,13.203320041209736,13.462053500644288,13.040110069749062,20.050761033853632-.044807038439103,1.809072690352878,2.927838972400423,3.808442161505809,4.217812837679958,3.54773184356327,4.373963932990591-.884000488939819,5.062966613211756-4.11929923403568,5.110960052399605-6.057662909742248Z"/>
    <path d="M237.139301732579042,94.005866370809599c-12.420655803929549.452226660238011-24.841113775681151.904442984803609-37.261569163511012,1.356708767416421-3.18297530163909.115906861365147-6.075089945479704,3.15639401012595-5.759892620759274,6.394916196399208.323638194620798,3.32794378370636,2.984245267800361,5.8840750656409,6.394916196399208,5.759892620758365,12.420455387829861-.452265782610993,24.840913359581464-.904482107176591,37.261569163511012-1.356708767413693,3.182777469470238-.115896525697281,6.074892113299939-3.156383674455356,5.759892620761093-6.394916196399208-.323640778540721-3.327993241749937-2.984445683890954-5.884114188014792-6.394916196401027-5.759892620761093Z"/>
  </g>
  <g>
    <path class="cls-1" d="M74.80735994206043,100.000591908527895c-12.522535370640981,1.209429393449682-25.11113727600241,1.628920962725715-37.686387160800223,1.256011677571223-3.190205891642108-.094634576177668-6.060125797441287,3.30612708859644-5.759892620761093,6.394916196403756.341136686220125,3.507201093951153,2.977619159930327,5.658524949206367,6.394916196401027,5.759892620759274,12.575249884797813.372909285150854,25.163851790159242-.04658228412427,37.686387160800223-1.256011677575771,3.164140274739111-.305558476154147,6.0879406035383-3.02053575028367,5.759892620757455-6.394916196401027-.307999644108349-3.165302155831341-3.001031557258102-6.087670173998049-6.394916196397389-5.759892620757455Z"/>
    <path class="cls-1" d="M133.09342523614032,97.649512167537068c-12.392608109881621-1.167608340148035-24.820373173770349.135758333829472-37.196029927232303.963285030981751-3.174766179799917.21228359192537-6.081469328728417,3.087445822472546-5.759892620768369,6.394916196401027.315559073180339,3.245446312390413,2.991629145059051,5.987437936336391,6.394916196408303,5.759892620755636,11.223965035282163-.750495347844662,22.605599547201564-2.048453199026881,33.858648735102179-1.236055606087575.027908385709452.002608565755509.055796100068619.004821467165129.083506653598306.007440368593052,1.694901657110677.159663640828512,3.169545101291078.116840626508747,4.651073670349433-.857352229643766,1.222044903472124-.803575070037368,2.348753455342376-2.311845722571888,2.603041658381699-3.777959010314589.273235546899741-1.574273743257436.105243702439111-3.316528109821775-.857149229639617-4.650985089929236-.861432347601294-1.194176058202174-2.242295411881059-2.458466597619008-3.778115136199631-2.6031822807563Z"/>
    <path class="cls-1" d="M182.905271339717729,96.294028137452187c-11.601736664018972.259324396322882-23.203470744119841.518698250686612-34.805405240309483.778032982678269-3.185508995278724.07120712554115-6.071838077339635,3.188261220986533-5.759892620759274,6.394916196398299.327416052450644,3.366081830447911,2.981941867788919,5.836189343679507,6.394916196399208,5.759892620760183,11.601934496189642-.259334731990748,23.203668576290511-.518708586354478,34.805405240311302-.77803298267736,3.185508995278724-.07120712554115,6.071838077339635-3.188261220986533,5.759892620759274-6.394916196398299-.327416052459739-3.36608183044882-2.981744035630982-5.836199679351921-6.394916196401027-5.759892620761093Z"/>
    <path class="cls-1" d="M146.345446240688034,73.181303638848476c.163209971460674-6.588707533207526,11.422795824451896-13.618614788748346,11.585999940691181-20.207434395957534.044807038430008-1.809072690354697-11.868533545899481-.714251087206321-16.56715362677096-.386960236472987-4.932221903618483.343540998552271-17.339729979328695,1.115313063050962-17.387729273748846,3.053564664755868-.16320411623019,6.588819607209189,13.203320041209736,13.462053500644288,13.040110069749062,20.050761033853632-.044807038439103,1.809072690352878,2.927838972400423,3.808442161505809,4.217812837679958,3.54773184356327,4.373963932990591-.884000488939819,5.062966613211756-4.11929923403568,5.110960052399605-6.057662909742248Z"/>
    <path class="cls-1" d="M237.139301732579042,94.005866370809599c-12.420655803929549.452226660238011-24.841113775681151.904442984803609-37.261569163511012,1.356708767416421-3.18297530163909.115906861365147-6.075089945479704,3.15639401012595-5.759892620759274,6.394916196399208.323638194620798,3.32794378370636,2.984245267800361,5.8840750656409,6.394916196399208,5.759892620758365,12.420455387829861-.452265782610993,24.840913359581464-.904482107176591,37.261569163511012-1.356708767413693,3.182777469470238-.115896525697281,6.074892113299939-3.156383674455356,5.759892620761093-6.394916196399208-.323640778540721-3.327993241749937-2.984445683890954-5.884114188014792-6.394916196401027-5.759892620761093Z"/>
  </g>
  <g>
    <path class="cls-2" d="M74.80735994206043,100.000591908527895c-12.522535370640981,1.209429393449682-25.11113727600241,1.628920962725715-37.686387160800223,1.256011677571223-3.190205891642108-.094634576177668-6.060125797441287,3.30612708859644-5.759892620761093,6.394916196403756.341136686220125,3.507201093951153,2.977619159930327,5.658524949206367,6.394916196401027,5.759892620759274,12.575249884797813.372909285150854,25.163851790159242-.04658228412427,37.686387160800223-1.256011677575771,3.164140274739111-.305558476154147,6.0879406035383-3.02053575028367,5.759892620757455-6.394916196401027-.307999644108349-3.165302155831341-3.001031557258102-6.087670173998049-6.394916196397389-5.759892620757455Z"/>
    <path class="cls-2" d="M133.09342523614032,97.649512167537068c-12.392608109881621-1.167608340148035-24.820373173770349.135758333829472-37.196029927232303.963285030981751-3.174766179799917.21228359192537-6.081469328728417,3.087445822472546-5.759892620768369,6.394916196401027.315559073180339,3.245446312390413,2.991629145059051,5.987437936336391,6.394916196408303,5.759892620755636,11.223965035282163-.750495347844662,22.605599547201564-2.048453199026881,33.858648735102179-1.236055606087575.027908385709452.002608565755509.055796100068619.004821467165129.083506653598306.007440368593052,1.694901657110677.159663640828512,3.169545101291078.116840626508747,4.651073670349433-.857352229643766,1.222044903472124-.803575070037368,2.348753455342376-2.311845722571888,2.603041658381699-3.777959010314589.273235546899741-1.574273743257436.105243702439111-3.316528109821775-.857149229639617-4.650985089929236-.861432347601294-1.194176058202174-2.242295411881059-2.458466597619008-3.778115136199631-2.6031822807563Z"/>
    <path class="cls-2" d="M182.905271339717729,96.294028137452187c-11.601736664018972.259324396322882-23.203470744119841.518698250686612-34.805405240309483.778032982678269-3.185508995278724.07120712554115-6.071838077339635,3.188261220986533-5.759892620759274,6.394916196398299.327416052450644,3.366081830447911,2.981941867788919,5.836189343679507,6.394916196399208,5.759892620760183,11.601934496189642-.259334731990748,23.203668576290511-.518708586354478,34.805405240311302-.77803298267736,3.185508995278724-.07120712554115,6.071838077339635-3.188261220986533,5.759892620759274-6.394916196398299-.327416052459739-3.36608183044882-2.981744035630982-5.836199679351921-6.394916196401027-5.759892620761093Z"/>
    <path class="cls-2" d="M146.345446240688034,73.181303638848476c.163209971460674-6.588707533207526,11.422795824451896-13.618614788748346,11.585999940691181-20.207434395957534.044807038430008-1.809072690354697-11.868533545899481-.714251087206321-16.56715362677096-.386960236472987-4.932221903618483.343540998552271-17.339729979328695,1.115313063050962-17.387729273748846,3.053564664755868-.16320411623019,6.588819607209189,13.203320041209736,13.462053500644288,13.040110069749062,20.050761033853632-.044807038439103,1.809072690352878,2.927838972400423,3.808442161505809,4.217812837679958,3.54773184356327,4.373963932990591-.884000488939819,5.062966613211756-4.11929923403568,5.110960052399605-6.057662909742248Z"/>
    <path class="cls-2" d="M237.139301732579042,94.005866370809599c-12.420655803929549.452226660238011-24.841113775681151.904442984803609-37.261569163511012,1.356708767416421-3.18297530163909.115906861365147-6.075089945479704,3.15639401012595-5.759892620759274,6.394916196399208.323638194620798,3.32794378370636,2.984245267800361,5.8840750656409,6.394916196399208,5.759892620758365,12.420455387829861-.452265782610993,24.840913359581464-.904482107176591,37.261569163511012-1.356708767413693,3.182777469470238-.115896525697281,6.074892113299939-3.156383674455356,5.759892620761093-6.394916196399208-.323640778540721-3.327993241749937-2.984445683890954-5.884114188014792-6.394916196401027-5.759892620761093Z"/>
  </g>
  <g>
    <path class="cls-3" d="M74.80735994206043,100.000591908527895c-12.522535370640981,1.209429393449682-25.11113727600241,1.628920962725715-37.686387160800223,1.256011677571223-3.190205891642108-.094634576177668-6.060125797441287,3.30612708859644-5.759892620761093,6.394916196403756.341136686220125,3.507201093951153,2.977619159930327,5.658524949206367,6.394916196401027,5.759892620759274,12.575249884797813.372909285150854,25.163851790159242-.04658228412427,37.686387160800223-1.256011677575771,3.164140274739111-.305558476154147,6.0879406035383-3.02053575028367,5.759892620757455-6.394916196401027-.307999644108349-3.165302155831341-3.001031557258102-6.087670173998049-6.394916196397389-5.759892620757455Z"/>
    <path class="cls-3" d="M133.09342523614032,97.649512167537068c-12.392608109881621-1.167608340148035-24.820373173770349.135758333829472-37.196029927232303.963285030981751-3.174766179799917.21228359192537-6.081469328728417,3.087445822472546-5.759892620768369,6.394916196401027.315559073180339,3.245446312390413,2.991629145059051,5.987437936336391,6.394916196408303,5.759892620755636,11.223965035282163-.750495347844662,22.605599547201564-2.048453199026881,33.858648735102179-1.236055606087575.027908385709452.002608565755509.055796100068619.004821467165129.083506653598306.007440368593052,1.694901657110677.159663640828512,3.169545101291078.116840626508747,4.651073670349433-.857352229643766,1.222044903472124-.803575070037368,2.348753455342376-2.311845722571888,2.603041658381699-3.777959010314589.273235546899741-1.574273743257436.105243702439111-3.316528109821775-.857149229639617-4.650985089929236-.861432347601294-1.194176058202174-2.242295411881059-2.458466597619008-3.778115136199631-2.6031822807563Z"/>
    <path class="cls-3" d="M182.905271339717729,96.294028137452187c-11.601736664018972.259324396322882-23.203470744119841.518698250686612-34.805405240309483.778032982678269-3.185508995278724.07120712554115-6.071838077339635,3.188261220986533-5.759892620759274,6.394916196398299.327416052450644,3.366081830447911,2.981941867788919,5.836189343679507,6.394916196399208,5.759892620760183,11.601934496189642-.259334731990748,23.203668576290511-.518708586354478,34.805405240311302-.77803298267736,3.185508995278724-.07120712554115,6.071838077339635-3.188261220986533,5.759892620759274-6.394916196398299-.327416052459739-3.36608183044882-2.981744035630982-5.836199679351921-6.394916196401027-5.759892620761093Z"/>
    <path class="cls-3" d="M146.345446240688034,73.181303638848476c.163209971460674-6.588707533207526,11.422795824451896-13.618614788748346,11.585999940691181-20.207434395957534.044807038430008-1.809072690354697-11.868533545899481-.714251087206321-16.56715362677096-.386960236472987-4.932221903618483.343540998552271-17.339729979328695,1.115313063050962-17.387729273748846,3.053564664755868-.16320411623019,6.588819607209189,13.203320041209736,13.462053500644288,13.040110069749062,20.050761033853632-.044807038439103,1.809072690352878,2.927838972400423,3.808442161505809,4.217812837679958,3.54773184356327,4.373963932990591-.884000488939819,5.062966613211756-4.11929923403568,5.110960052399605-6.057662909742248Z"/>
    <path class="cls-3" d="M237.139301732579042,94.005866370809599c-12.420655803929549.452226660238011-24.841113775681151.904442984803609-37.261569163511012,1.356708767416421-3.18297530163909.115906861365147-6.075089945479704,3.15639401012595-5.759892620759274,6.394916196399208.323638194620798,3.32794378370636,2.984245267800361,5.8840750656409,6.394916196399208,5.759892620758365,12.420455387829861-.452265782610993,24.840913359581464-.904482107176591,37.261569163511012-1.356708767413693,3.182777469470238-.115896525697281,6.074892113299939-3.156383674455356,5.759892620761093-6.394916196399208-.323640778540721-3.327993241749937-2.984445683890954-5.884114188014792-6.394916196401027-5.759892620761093Z"/>
  </g>
</svg>