<?xml version="1.0" encoding="UTF-8"?>
<svg id="Content" xmlns="http://www.w3.org/2000/svg" xmlns:xlink="http://www.w3.org/1999/xlink" viewBox="0 0 280 280">
  <defs>
    <style>
      .cls-1 {
        stroke: #665451;
        stroke-width: 50px;
      }

      .cls-1, .cls-2 {
        fill: none;
        stroke-linecap: round;
        stroke-linejoin: round;
      }

      .cls-3 {
        fill: #fff;
      }

      .cls-2 {
        stroke: #998675;
        stroke-width: 2px;
      }
    </style>
  </defs>
  <a xlink:href="https://www.notion.so/congruence/Coefficient-of-determination-125f9339b29b80be918bcfecf2dc3c98?pvs=4">
    <g>
      <path class="cls-1" d="M153.962890625,98.900390625c.23828125,7.5859375-1.103515625,14.412109375-4.02734375,20.478515625-2.923828125,6.068359375-6.802734375,11.37890625-11.6328125,15.927734375-4.8310546875,4.5546875-10.37109375,8.357421875-16.62109375,11.408203125-6.2529296875,3.052734375-12.583984375,5.359375-18.99609375,6.916015625,1.705078125,3.087890625,3.7919921875,6.201171875,6.2587890625,9.34765625,2.46484375,3.146484375,5.078125,6.0390625,7.8427734375,8.67578125,2.7607421875,2.640625,5.5625,5.0390625,8.408203125,7.203125,2.841796875,2.162109375,5.427734375,3.79296875,7.755859375,4.888671875,1.8974609375,1.1640625,3.08984375,2.765625,3.5791015625,4.8046875.4892578125,2.041015625.4599609375,4.236328125-.0791015625,6.587890625-.54296875,2.353515625-1.53125,4.662109375-2.966796875,6.93359375-1.4365234375,2.267578125-3.099609375,4.220703125-4.9833984375,5.853515625-1.88671875,1.630859375-3.9296875,2.75-6.126953125,3.3515625-2.1982421875.599609375-4.33984375.443359375-6.4169921875-.46875-.3837890625-.20703125-1.068359375-.49609375-2.0517578125-.873046875-.9814453125-.37890625-2.1748046875-.970703125-3.5751953125-1.765625-7.6328125-4.376953125-14.208984375-10.25390625-19.72265625-17.625-5.5185546875-7.369140625-10.689453125-15.310546875-15.5205078125-23.822265625.0224609375-.1328125-.1337890625-.443359375-.4716796875-.919921875-.697265625,4.07421875-1.43359375,8.17578125-2.208984375,12.302734375-.7783203125,4.12890625-1.525390625,8.298828125-2.2451171875,12.50390625-.4150390625,1.60546875-1.1435546875,3.01953125-2.1904296875,4.236328125-.8671875.970703125-2.1025390625,1.876953125-3.712890625,2.716796875-1.611328125.841796875-3.5830078125,1.1328125-5.9130859375.875-2.3564453125-.125-4.7880859375-.400390625-7.2998046875-.830078125s-4.80078125-1.134765625-6.8662109375-2.1171875c-2.0693359375-.982421875-3.7109375-2.416015625-4.9228515625-4.298828125-1.216796875-1.884765625-1.7587890625-4.421875-1.6318359375-7.615234375-.0185546875-1.5390625.3759765625-4.650390625,1.177734375-9.333984375.80078125-4.68359375,1.8671875-10.296875,3.1962890625-16.84765625,1.330078125-6.548828125,2.849609375-13.796875,4.55859375-21.75,1.70703125-7.94921875,3.39453125-15.974609375,5.0615234375-24.072265625,1.6640625-8.099609375,3.1669921875-15.875,4.5146484375-23.330078125,1.34375-7.451171875,2.662109375-14.142578125,3.9580078125-20.0703125,1.318359375-6.900390625,2.6357421875-13.380859375,3.9541015625-19.443359375.072265625-1.244140625.3955078125-2.306640625.96484375-3.1875.41015625-.767578125,1.1474609375-1.408203125,2.2158203125-1.927734375,1.0634765625-.515625,2.5595703125-.677734375,4.4853515625-.490234375,1.9453125.0546875,4.25.27734375,6.908203125.658203125,2.658203125.38671875,5.1865234375.923828125,7.5830078125,1.61328125,5.0439453125.724609375,10.2705078125,1.619140625,15.677734375,2.681640625,6.0625,1.318359375,12.142578125,3.333984375,18.24609375,6.0546875,6.1005859375,2.71875,11.6162109375,6.21484375,16.544921875,10.48046875,4.927734375,4.267578125,8.9990234375,9.26171875,12.2119140625,14.978515625,3.2138671875,5.71875,4.9052734375,12.154296875,5.080078125,19.310546875ZM81.5068359375,126.744140625c6.8544921875.75390625,12.9873046875.23046875,18.396484375-1.568359375,5.40625-1.80078125,9.748046875-4.306640625,13.0224609375-7.517578125,3.2734375-3.212890625,5.392578125-6.83203125,6.36328125-10.857421875.9677734375-4.02734375.5810546875-7.896484375-1.15625-11.619140625-1.7412109375-3.720703125-4.9912109375-6.96484375-9.755859375-9.73828125-4.765625-2.771484375-11.279296875-4.513671875-19.5390625-5.228515625-1.1904296875,7.759765625-2.4111328125,15.515625-3.666015625,23.265625-1.255859375,7.748046875-2.478515625,15.501953125-3.6650390625,23.263671875Z"/>
      <path class="cls-2" d="M153.962890625,98.900390625c.23828125,7.5859375-1.103515625,14.412109375-4.02734375,20.478515625-2.923828125,6.068359375-6.802734375,11.37890625-11.6328125,15.927734375-4.8310546875,4.5546875-10.37109375,8.357421875-16.62109375,11.408203125-6.2529296875,3.052734375-12.583984375,5.359375-18.99609375,6.916015625,1.705078125,3.087890625,3.7919921875,6.201171875,6.2587890625,9.34765625,2.46484375,3.146484375,5.078125,6.0390625,7.8427734375,8.67578125,2.7607421875,2.640625,5.5625,5.0390625,8.408203125,7.203125,2.841796875,2.162109375,5.427734375,3.79296875,7.755859375,4.888671875,1.8974609375,1.1640625,3.08984375,2.765625,3.5791015625,4.8046875.4892578125,2.041015625.4599609375,4.236328125-.0791015625,6.587890625-.54296875,2.353515625-1.53125,4.662109375-2.966796875,6.93359375-1.4365234375,2.267578125-3.099609375,4.220703125-4.9833984375,5.853515625-1.88671875,1.630859375-3.9296875,2.75-6.126953125,3.3515625-2.1982421875.599609375-4.33984375.443359375-6.4169921875-.46875-.3837890625-.20703125-1.068359375-.49609375-2.0517578125-.873046875-.9814453125-.37890625-2.1748046875-.970703125-3.5751953125-1.765625-7.6328125-4.376953125-14.208984375-10.25390625-19.72265625-17.625-5.5185546875-7.369140625-10.689453125-15.310546875-15.5205078125-23.822265625.0224609375-.1328125-.1337890625-.443359375-.4716796875-.919921875-.697265625,4.07421875-1.43359375,8.17578125-2.208984375,12.302734375-.7783203125,4.12890625-1.525390625,8.298828125-2.2451171875,12.50390625-.4150390625,1.60546875-1.1435546875,3.01953125-2.1904296875,4.236328125-.8671875.970703125-2.1025390625,1.876953125-3.712890625,2.716796875-1.611328125.841796875-3.5830078125,1.1328125-5.9130859375.875-2.3564453125-.125-4.7880859375-.400390625-7.2998046875-.830078125s-4.80078125-1.134765625-6.8662109375-2.1171875c-2.0693359375-.982421875-3.7109375-2.416015625-4.9228515625-4.298828125-1.216796875-1.884765625-1.7587890625-4.421875-1.6318359375-7.615234375-.0185546875-1.5390625.3759765625-4.650390625,1.177734375-9.333984375.80078125-4.68359375,1.8671875-10.296875,3.1962890625-16.84765625,1.330078125-6.548828125,2.849609375-13.796875,4.55859375-21.75,1.70703125-7.94921875,3.39453125-15.974609375,5.0615234375-24.072265625,1.6640625-8.099609375,3.1669921875-15.875,4.5146484375-23.330078125,1.34375-7.451171875,2.662109375-14.142578125,3.9580078125-20.0703125,1.318359375-6.900390625,2.6357421875-13.380859375,3.9541015625-19.443359375.072265625-1.244140625.3955078125-2.306640625.96484375-3.1875.41015625-.767578125,1.1474609375-1.408203125,2.2158203125-1.927734375,1.0634765625-.515625,2.5595703125-.677734375,4.4853515625-.490234375,1.9453125.0546875,4.25.27734375,6.908203125.658203125,2.658203125.38671875,5.1865234375.923828125,7.5830078125,1.61328125,5.0439453125.724609375,10.2705078125,1.619140625,15.677734375,2.681640625,6.0625,1.318359375,12.142578125,3.333984375,18.24609375,6.0546875,6.1005859375,2.71875,11.6162109375,6.21484375,16.544921875,10.48046875,4.927734375,4.267578125,8.9990234375,9.26171875,12.2119140625,14.978515625,3.2138671875,5.71875,4.9052734375,12.154296875,5.080078125,19.310546875ZM81.5068359375,126.744140625c6.8544921875.75390625,12.9873046875.23046875,18.396484375-1.568359375,5.40625-1.80078125,9.748046875-4.306640625,13.0224609375-7.517578125,3.2734375-3.212890625,5.392578125-6.83203125,6.36328125-10.857421875.9677734375-4.02734375.5810546875-7.896484375-1.15625-11.619140625-1.7412109375-3.720703125-4.9912109375-6.96484375-9.755859375-9.73828125-4.765625-2.771484375-11.279296875-4.513671875-19.5390625-5.228515625-1.1904296875,7.759765625-2.4111328125,15.515625-3.666015625,23.265625-1.255859375,7.748046875-2.478515625,15.501953125-3.6650390625,23.263671875Z"/>
      <path class="cls-3" d="M153.962890625,98.900390625c.23828125,7.5859375-1.103515625,14.412109375-4.02734375,20.478515625-2.923828125,6.068359375-6.802734375,11.37890625-11.6328125,15.927734375-4.8310546875,4.5546875-10.37109375,8.357421875-16.62109375,11.408203125-6.2529296875,3.052734375-12.583984375,5.359375-18.99609375,6.916015625,1.705078125,3.087890625,3.7919921875,6.201171875,6.2587890625,9.34765625,2.46484375,3.146484375,5.078125,6.0390625,7.8427734375,8.67578125,2.7607421875,2.640625,5.5625,5.0390625,8.408203125,7.203125,2.841796875,2.162109375,5.427734375,3.79296875,7.755859375,4.888671875,1.8974609375,1.1640625,3.08984375,2.765625,3.5791015625,4.8046875.4892578125,2.041015625.4599609375,4.236328125-.0791015625,6.587890625-.54296875,2.353515625-1.53125,4.662109375-2.966796875,6.93359375-1.4365234375,2.267578125-3.099609375,4.220703125-4.9833984375,5.853515625-1.88671875,1.630859375-3.9296875,2.75-6.126953125,3.3515625-2.1982421875.599609375-4.33984375.443359375-6.4169921875-.46875-.3837890625-.20703125-1.068359375-.49609375-2.0517578125-.873046875-.9814453125-.37890625-2.1748046875-.970703125-3.5751953125-1.765625-7.6328125-4.376953125-14.208984375-10.25390625-19.72265625-17.625-5.5185546875-7.369140625-10.689453125-15.310546875-15.5205078125-23.822265625.0224609375-.1328125-.1337890625-.443359375-.4716796875-.919921875-.697265625,4.07421875-1.43359375,8.17578125-2.208984375,12.302734375-.7783203125,4.12890625-1.525390625,8.298828125-2.2451171875,12.50390625-.4150390625,1.60546875-1.1435546875,3.01953125-2.1904296875,4.236328125-.8671875.970703125-2.1025390625,1.876953125-3.712890625,2.716796875-1.611328125.841796875-3.5830078125,1.1328125-5.9130859375.875-2.3564453125-.125-4.7880859375-.400390625-7.2998046875-.830078125s-4.80078125-1.134765625-6.8662109375-2.1171875c-2.0693359375-.982421875-3.7109375-2.416015625-4.9228515625-4.298828125-1.216796875-1.884765625-1.7587890625-4.421875-1.6318359375-7.615234375-.0185546875-1.5390625.3759765625-4.650390625,1.177734375-9.333984375.80078125-4.68359375,1.8671875-10.296875,3.1962890625-16.84765625,1.330078125-6.548828125,2.849609375-13.796875,4.55859375-21.75,1.70703125-7.94921875,3.39453125-15.974609375,5.0615234375-24.072265625,1.6640625-8.099609375,3.1669921875-15.875,4.5146484375-23.330078125,1.34375-7.451171875,2.662109375-14.142578125,3.9580078125-20.0703125,1.318359375-6.900390625,2.6357421875-13.380859375,3.9541015625-19.443359375.072265625-1.244140625.3955078125-2.306640625.96484375-3.1875.41015625-.767578125,1.1474609375-1.408203125,2.2158203125-1.927734375,1.0634765625-.515625,2.5595703125-.677734375,4.4853515625-.490234375,1.9453125.0546875,4.25.27734375,6.908203125.658203125,2.658203125.38671875,5.1865234375.923828125,7.5830078125,1.61328125,5.0439453125.724609375,10.2705078125,1.619140625,15.677734375,2.681640625,6.0625,1.318359375,12.142578125,3.333984375,18.24609375,6.0546875,6.1005859375,2.71875,11.6162109375,6.21484375,16.544921875,10.48046875,4.927734375,4.267578125,8.9990234375,9.26171875,12.2119140625,14.978515625,3.2138671875,5.71875,4.9052734375,12.154296875,5.080078125,19.310546875ZM81.5068359375,126.744140625c6.8544921875.75390625,12.9873046875.23046875,18.396484375-1.568359375,5.40625-1.80078125,9.748046875-4.306640625,13.0224609375-7.517578125,3.2734375-3.212890625,5.392578125-6.83203125,6.36328125-10.857421875.9677734375-4.02734375.5810546875-7.896484375-1.15625-11.619140625-1.7412109375-3.720703125-4.9912109375-6.96484375-9.755859375-9.73828125-4.765625-2.771484375-11.279296875-4.513671875-19.5390625-5.228515625-1.1904296875,7.759765625-2.4111328125,15.515625-3.666015625,23.265625-1.255859375,7.748046875-2.478515625,15.501953125-3.6650390625,23.263671875Z"/>
    </g>
  </a>
  <a xlink:href="https://www.notion.so/congruence/Coefficient-of-determination-125f9339b29b80be918bcfecf2dc3c98?pvs=4">
    <g>
      <path class="cls-1" d="M224.693359375,97.962890625c.439453125.0751953125.751953125.33984375.9345703125.79296875.1796875.4541015625.3056640625.9619140625.3720703125,1.5234375.0654296875.5634765625.0654296875,1.130859375.0009765625,1.7041015625-.06640625.572265625-.1201171875.986328125-.1630859375,1.2373046875-.1943359375,1.134765625-.4287109375,2.3115234375-.7021484375,3.5302734375s-.59375,2.33203125-.9599609375,3.33984375c-.3671875,1.0078125-.802734375,1.8427734375-1.3046875,2.501953125-.5029296875.66015625-1.111328125.9931640625-1.8251953125,1.001953125-.337890625.0712890625-1.0205078125-.013671875-2.0498046875-.2529296875-1.0302734375-.2421875-2.2587890625-.5498046875-3.6865234375-.9228515625-1.4921875-.3857421875-3.09765625-.7734375-4.814453125-1.1640625-1.71875-.3916015625-3.486328125-.7763671875-5.3037109375-1.150390625-1.8173828125-.376953125-3.576171875-.7099609375-5.279296875-1.0009765625-1.701171875-.291015625-3.220703125-.5185546875-4.5556640625-.681640625-1.15625-.0693359375-2.5703125-.24609375-4.2412109375-.53125-1.6708984375-.2861328125-3.087890625-.6259765625-4.25390625-1.01953125-.9130859375-.3515625-1.5126953125-1.2158203125-1.794921875-2.5947265625-.28515625-1.3779296875-.3212890625-2.9580078125-.1142578125-4.740234375.208984375-1.7802734375.6650390625-3.6005859375,1.373046875-5.4599609375.7060546875-1.857421875,1.5634765625-3.447265625,2.5673828125-4.767578125,1.552734375-1.876953125,3.2294921875-3.51953125,5.029296875-4.931640625,1.7978515625-1.4111328125,3.6494140625-2.75,5.5546875-4.0146484375,1.9013671875-1.263671875,3.8388671875-2.5380859375,5.8125-3.8232421875,1.9716796875-1.2841796875,3.9326171875-2.701171875,5.884765625-4.25.8232421875-.6376953125,1.798828125-1.60546875,2.9306640625-2.9052734375,1.130859375-1.298828125,2.0400390625-2.6357421875,2.73046875-4.0107421875.890625-1.7939453125,1.1064453125-3.25.6494140625-4.3662109375s-1.251953125-1.884765625-2.3798828125-2.3056640625c-1.12890625-.419921875-2.4326171875-.48046875-3.9111328125-.181640625s-2.8251953125.9609375-4.037109375,1.9853515625c-1.078125.984375-1.951171875,2.197265625-2.6181640625,3.640625-.669921875,1.4423828125-.85546875,3.001953125-.5576171875,4.673828125.072265625.337890625.1513671875.724609375.240234375,1.16015625.0859375.4384765625.1298828125.8505859375.12890625,1.2392578125-.0888671875.89453125-.8251953125,1.693359375-2.2109375,2.396484375-1.38671875.7041015625-2.9345703125,1.12109375-4.642578125,1.25-1.7109375.1298828125-3.32421875-.1142578125-4.8388671875-.73046875-1.517578125-.6162109375-2.453125-1.7978515625-2.80078125-3.5458984375-.3076171875-2.388671875-.2197265625-4.693359375.2578125-6.9150390625s1.2275390625-4.33203125,2.2509765625-6.33203125c1.0224609375-1.998046875,2.3115234375-3.837890625,3.8642578125-5.51953125,1.5537109375-1.6806640625,3.271484375-3.10546875,5.16015625-4.2763671875,2.0341796875-1.2734375,4.2841796875-2.1875,6.7470703125-2.7392578125s4.94140625-.7119140625,7.431640625-.48046875c2.4912109375.2314453125,4.8662109375.865234375,7.1220703125,1.8994140625,2.255859375,1.03515625,4.1904296875,2.5341796875,5.8017578125,4.4970703125,1.296875,1.5205078125,2.248046875,3.158203125,2.8564453125,4.91796875.607421875,1.7578125.947265625,3.568359375,1.0185546875,5.4296875.0703125,1.861328125-.103515625,3.7294921875-.521484375,5.6044921875-.41796875,1.8759765625-1.009765625,3.7216796875-1.7744140625,5.537109375-1.1689453125,2.6572265625-2.6552734375,4.9970703125-4.4619140625,7.0244140625-1.8076171875,2.02734375-3.76953125,3.9150390625-5.884765625,5.6611328125-2.1162109375,1.7470703125-4.3310546875,3.412109375-6.646484375,4.9951171875-2.3154296875,1.583984375-4.5908203125,3.2216796875-6.8271484375,4.9150390625,6.158203125.7958984375,12.3056640625,1.84765625,18.4423828125,3.1552734375Z"/>
      <path class="cls-2" d="M224.693359375,97.962890625c.439453125.0751953125.751953125.33984375.9345703125.79296875.1796875.4541015625.3056640625.9619140625.3720703125,1.5234375.0654296875.5634765625.0654296875,1.130859375.0009765625,1.7041015625-.06640625.572265625-.1201171875.986328125-.1630859375,1.2373046875-.1943359375,1.134765625-.4287109375,2.3115234375-.7021484375,3.5302734375s-.59375,2.33203125-.9599609375,3.33984375c-.3671875,1.0078125-.802734375,1.8427734375-1.3046875,2.501953125-.5029296875.66015625-1.111328125.9931640625-1.8251953125,1.001953125-.337890625.0712890625-1.0205078125-.013671875-2.0498046875-.2529296875-1.0302734375-.2421875-2.2587890625-.5498046875-3.6865234375-.9228515625-1.4921875-.3857421875-3.09765625-.7734375-4.814453125-1.1640625-1.71875-.3916015625-3.486328125-.7763671875-5.3037109375-1.150390625-1.8173828125-.376953125-3.576171875-.7099609375-5.279296875-1.0009765625-1.701171875-.291015625-3.220703125-.5185546875-4.5556640625-.681640625-1.15625-.0693359375-2.5703125-.24609375-4.2412109375-.53125-1.6708984375-.2861328125-3.087890625-.6259765625-4.25390625-1.01953125-.9130859375-.3515625-1.5126953125-1.2158203125-1.794921875-2.5947265625-.28515625-1.3779296875-.3212890625-2.9580078125-.1142578125-4.740234375.208984375-1.7802734375.6650390625-3.6005859375,1.373046875-5.4599609375.7060546875-1.857421875,1.5634765625-3.447265625,2.5673828125-4.767578125,1.552734375-1.876953125,3.2294921875-3.51953125,5.029296875-4.931640625,1.7978515625-1.4111328125,3.6494140625-2.75,5.5546875-4.0146484375,1.9013671875-1.263671875,3.8388671875-2.5380859375,5.8125-3.8232421875,1.9716796875-1.2841796875,3.9326171875-2.701171875,5.884765625-4.25.8232421875-.6376953125,1.798828125-1.60546875,2.9306640625-2.9052734375,1.130859375-1.298828125,2.0400390625-2.6357421875,2.73046875-4.0107421875.890625-1.7939453125,1.1064453125-3.25.6494140625-4.3662109375s-1.251953125-1.884765625-2.3798828125-2.3056640625c-1.12890625-.419921875-2.4326171875-.48046875-3.9111328125-.181640625s-2.8251953125.9609375-4.037109375,1.9853515625c-1.078125.984375-1.951171875,2.197265625-2.6181640625,3.640625-.669921875,1.4423828125-.85546875,3.001953125-.5576171875,4.673828125.072265625.337890625.1513671875.724609375.240234375,1.16015625.0859375.4384765625.1298828125.8505859375.12890625,1.2392578125-.0888671875.89453125-.8251953125,1.693359375-2.2109375,2.396484375-1.38671875.7041015625-2.9345703125,1.12109375-4.642578125,1.25-1.7109375.1298828125-3.32421875-.1142578125-4.8388671875-.73046875-1.517578125-.6162109375-2.453125-1.7978515625-2.80078125-3.5458984375-.3076171875-2.388671875-.2197265625-4.693359375.2578125-6.9150390625s1.2275390625-4.33203125,2.2509765625-6.33203125c1.0224609375-1.998046875,2.3115234375-3.837890625,3.8642578125-5.51953125,1.5537109375-1.6806640625,3.271484375-3.10546875,5.16015625-4.2763671875,2.0341796875-1.2734375,4.2841796875-2.1875,6.7470703125-2.7392578125s4.94140625-.7119140625,7.431640625-.48046875c2.4912109375.2314453125,4.8662109375.865234375,7.1220703125,1.8994140625,2.255859375,1.03515625,4.1904296875,2.5341796875,5.8017578125,4.4970703125,1.296875,1.5205078125,2.248046875,3.158203125,2.8564453125,4.91796875.607421875,1.7578125.947265625,3.568359375,1.0185546875,5.4296875.0703125,1.861328125-.103515625,3.7294921875-.521484375,5.6044921875-.41796875,1.8759765625-1.009765625,3.7216796875-1.7744140625,5.537109375-1.1689453125,2.6572265625-2.6552734375,4.9970703125-4.4619140625,7.0244140625-1.8076171875,2.02734375-3.76953125,3.9150390625-5.884765625,5.6611328125-2.1162109375,1.7470703125-4.3310546875,3.412109375-6.646484375,4.9951171875-2.3154296875,1.583984375-4.5908203125,3.2216796875-6.8271484375,4.9150390625,6.158203125.7958984375,12.3056640625,1.84765625,18.4423828125,3.1552734375Z"/>
      <path class="cls-3" d="M224.693359375,97.962890625c.439453125.0751953125.751953125.33984375.9345703125.79296875.1796875.4541015625.3056640625.9619140625.3720703125,1.5234375.0654296875.5634765625.0654296875,1.130859375.0009765625,1.7041015625-.06640625.572265625-.1201171875.986328125-.1630859375,1.2373046875-.1943359375,1.134765625-.4287109375,2.3115234375-.7021484375,3.5302734375s-.59375,2.33203125-.9599609375,3.33984375c-.3671875,1.0078125-.802734375,1.8427734375-1.3046875,2.501953125-.5029296875.66015625-1.111328125.9931640625-1.8251953125,1.001953125-.337890625.0712890625-1.0205078125-.013671875-2.0498046875-.2529296875-1.0302734375-.2421875-2.2587890625-.5498046875-3.6865234375-.9228515625-1.4921875-.3857421875-3.09765625-.7734375-4.814453125-1.1640625-1.71875-.3916015625-3.486328125-.7763671875-5.3037109375-1.150390625-1.8173828125-.376953125-3.576171875-.7099609375-5.279296875-1.0009765625-1.701171875-.291015625-3.220703125-.5185546875-4.5556640625-.681640625-1.15625-.0693359375-2.5703125-.24609375-4.2412109375-.53125-1.6708984375-.2861328125-3.087890625-.6259765625-4.25390625-1.01953125-.9130859375-.3515625-1.5126953125-1.2158203125-1.794921875-2.5947265625-.28515625-1.3779296875-.3212890625-2.9580078125-.1142578125-4.740234375.208984375-1.7802734375.6650390625-3.6005859375,1.373046875-5.4599609375.7060546875-1.857421875,1.5634765625-3.447265625,2.5673828125-4.767578125,1.552734375-1.876953125,3.2294921875-3.51953125,5.029296875-4.931640625,1.7978515625-1.4111328125,3.6494140625-2.75,5.5546875-4.0146484375,1.9013671875-1.263671875,3.8388671875-2.5380859375,5.8125-3.8232421875,1.9716796875-1.2841796875,3.9326171875-2.701171875,5.884765625-4.25.8232421875-.6376953125,1.798828125-1.60546875,2.9306640625-2.9052734375,1.130859375-1.298828125,2.0400390625-2.6357421875,2.73046875-4.0107421875.890625-1.7939453125,1.1064453125-3.25.6494140625-4.3662109375s-1.251953125-1.884765625-2.3798828125-2.3056640625c-1.12890625-.419921875-2.4326171875-.48046875-3.9111328125-.181640625s-2.8251953125.9609375-4.037109375,1.9853515625c-1.078125.984375-1.951171875,2.197265625-2.6181640625,3.640625-.669921875,1.4423828125-.85546875,3.001953125-.5576171875,4.673828125.072265625.337890625.1513671875.724609375.240234375,1.16015625.0859375.4384765625.1298828125.8505859375.12890625,1.2392578125-.0888671875.89453125-.8251953125,1.693359375-2.2109375,2.396484375-1.38671875.7041015625-2.9345703125,1.12109375-4.642578125,1.25-1.7109375.1298828125-3.32421875-.1142578125-4.8388671875-.73046875-1.517578125-.6162109375-2.453125-1.7978515625-2.80078125-3.5458984375-.3076171875-2.388671875-.2197265625-4.693359375.2578125-6.9150390625s1.2275390625-4.33203125,2.2509765625-6.33203125c1.0224609375-1.998046875,2.3115234375-3.837890625,3.8642578125-5.51953125,1.5537109375-1.6806640625,3.271484375-3.10546875,5.16015625-4.2763671875,2.0341796875-1.2734375,4.2841796875-2.1875,6.7470703125-2.7392578125s4.94140625-.7119140625,7.431640625-.48046875c2.4912109375.2314453125,4.8662109375.865234375,7.1220703125,1.8994140625,2.255859375,1.03515625,4.1904296875,2.5341796875,5.8017578125,4.4970703125,1.296875,1.5205078125,2.248046875,3.158203125,2.8564453125,4.91796875.607421875,1.7578125.947265625,3.568359375,1.0185546875,5.4296875.0703125,1.861328125-.103515625,3.7294921875-.521484375,5.6044921875-.41796875,1.8759765625-1.009765625,3.7216796875-1.7744140625,5.537109375-1.1689453125,2.6572265625-2.6552734375,4.9970703125-4.4619140625,7.0244140625-1.8076171875,2.02734375-3.76953125,3.9150390625-5.884765625,5.6611328125-2.1162109375,1.7470703125-4.3310546875,3.412109375-6.646484375,4.9951171875-2.3154296875,1.583984375-4.5908203125,3.2216796875-6.8271484375,4.9150390625,6.158203125.7958984375,12.3056640625,1.84765625,18.4423828125,3.1552734375Z"/>
    </g>
  </a>
</svg>