<?xml version="1.0" encoding="UTF-8"?>
<svg id="Content" xmlns="http://www.w3.org/2000/svg" xmlns:xlink="http://www.w3.org/1999/xlink" viewBox="0 0 280 280">
  <defs>
    <style>
      .cls-1 {
        stroke: #665451;
        stroke-width: 50px;
      }

      .cls-1, .cls-2 {
        fill: none;
        stroke-linecap: round;
        stroke-linejoin: round;
      }

      .cls-3 {
        fill: #fff;
      }

      .cls-2 {
        stroke: #998675;
        stroke-width: 2px;
      }
    </style>
  </defs>
  <a xlink:href="https://www.notion.so/congruence/Coefficient-of-determination-125f9339b29b80be918bcfecf2dc3c98?pvs=4">
    <g>
      <path class="cls-1" d="M153.953125,98.88671875c.23828125,7.5859375-1.103515625,14.412109375-4.0283203125,20.478515625-2.9228515625,6.068359375-6.8017578125,11.376953125-11.6318359375,15.927734375-4.8310546875,4.552734375-10.3720703125,8.357421875-16.62109375,11.408203125-6.251953125,3.052734375-12.5830078125,5.359375-18.99609375,6.9140625,1.7041015625,3.087890625,3.791015625,6.203125,6.2587890625,9.349609375,2.4658203125,3.146484375,5.078125,6.0390625,7.8427734375,8.67578125,2.7607421875,2.640625,5.5615234375,5.0390625,8.408203125,7.201171875,2.841796875,2.1640625,5.427734375,3.79296875,7.7568359375,4.890625,1.8955078125,1.162109375,3.0888671875,2.765625,3.578125,4.8046875.4892578125,2.041015625.4599609375,4.236328125-.078125,6.5859375-.5439453125,2.353515625-1.5322265625,4.6640625-2.9677734375,6.93359375s-3.099609375,4.220703125-4.9833984375,5.853515625c-1.8876953125,1.6328125-3.9287109375,2.75-6.1279296875,3.353515625-2.197265625.599609375-4.3388671875.44140625-6.4169921875-.46875-.3837890625-.20703125-1.06640625-.498046875-2.05078125-.875-.982421875-.37890625-2.1748046875-.96875-3.5751953125-1.765625-7.6337890625-4.376953125-14.208984375-10.251953125-19.72265625-17.625-5.5185546875-7.369140625-10.689453125-15.30859375-15.51953125-23.822265625.0224609375-.1328125-.134765625-.44140625-.47265625-.91796875-.6962890625,4.072265625-1.43359375,8.173828125-2.208984375,12.30078125-.77734375,4.130859375-1.525390625,8.30078125-2.244140625,12.505859375-.416015625,1.60546875-1.1455078125,3.01953125-2.19140625,4.234375-.8671875.97265625-2.1025390625,1.876953125-3.7138671875,2.71875-1.6103515625.841796875-3.5830078125,1.1328125-5.912109375.875-2.3564453125-.125-4.7880859375-.400390625-7.298828125-.830078125-2.5126953125-.4296875-4.802734375-1.134765625-6.8671875-2.1171875-2.0693359375-.982421875-3.7099609375-2.416015625-4.923828125-4.30078125-1.2158203125-1.884765625-1.7578125-4.419921875-1.630859375-7.615234375-.017578125-1.537109375.376953125-4.650390625,1.177734375-9.33203125.8017578125-4.68359375,1.8662109375-10.298828125,3.1962890625-16.84765625s2.8486328125-13.796875,4.55859375-21.75c1.7080078125-7.951171875,3.3955078125-15.9765625,5.0615234375-24.07421875,1.6640625-8.09765625,3.1669921875-15.873046875,4.5146484375-23.328125,1.34375-7.453125,2.662109375-14.142578125,3.958984375-20.0703125,1.3173828125-6.900390625,2.634765625-13.380859375,3.953125-19.443359375.072265625-1.244140625.39453125-2.306640625.96484375-3.189453125.4091796875-.767578125,1.1484375-1.40625,2.2158203125-1.92578125,1.0634765625-.515625,2.5595703125-.6796875,4.484375-.490234375,1.9462890625.0546875,4.25.275390625,6.9091796875.658203125,2.6591796875.38671875,5.1865234375.923828125,7.58203125,1.61328125,5.044921875.724609375,10.271484375,1.619140625,15.6787109375,2.681640625,6.0615234375,1.318359375,12.1416015625,3.333984375,18.2451171875,6.0546875,6.1015625,2.71875,11.6171875,6.21484375,16.544921875,10.48046875,4.9287109375,4.267578125,8.9990234375,9.259765625,12.2138671875,14.9765625,3.212890625,5.720703125,4.9052734375,12.15625,5.0791015625,19.3125ZM81.4970703125,126.728515625c6.85546875.75390625,12.9873046875.232421875,18.396484375-1.56640625,5.40625-1.80078125,9.7490234375-4.306640625,13.0224609375-7.51953125,3.2734375-3.2109375,5.3916015625-6.830078125,6.36328125-10.85546875.966796875-4.02734375.5810546875-7.8984375-1.15625-11.619140625-1.7412109375-3.720703125-4.990234375-6.96484375-9.755859375-9.73828125-4.7646484375-2.771484375-11.279296875-4.513671875-19.5390625-5.228515625-1.1904296875,7.759765625-2.4111328125,15.515625-3.666015625,23.263671875-1.255859375,7.75-2.478515625,15.50390625-3.6650390625,23.263671875Z"/>
      <path class="cls-2" d="M153.953125,98.88671875c.23828125,7.5859375-1.103515625,14.412109375-4.0283203125,20.478515625-2.9228515625,6.068359375-6.8017578125,11.376953125-11.6318359375,15.927734375-4.8310546875,4.552734375-10.3720703125,8.357421875-16.62109375,11.408203125-6.251953125,3.052734375-12.5830078125,5.359375-18.99609375,6.9140625,1.7041015625,3.087890625,3.791015625,6.203125,6.2587890625,9.349609375,2.4658203125,3.146484375,5.078125,6.0390625,7.8427734375,8.67578125,2.7607421875,2.640625,5.5615234375,5.0390625,8.408203125,7.201171875,2.841796875,2.1640625,5.427734375,3.79296875,7.7568359375,4.890625,1.8955078125,1.162109375,3.0888671875,2.765625,3.578125,4.8046875.4892578125,2.041015625.4599609375,4.236328125-.078125,6.5859375-.5439453125,2.353515625-1.5322265625,4.6640625-2.9677734375,6.93359375s-3.099609375,4.220703125-4.9833984375,5.853515625c-1.8876953125,1.6328125-3.9287109375,2.75-6.1279296875,3.353515625-2.197265625.599609375-4.3388671875.44140625-6.4169921875-.46875-.3837890625-.20703125-1.06640625-.498046875-2.05078125-.875-.982421875-.37890625-2.1748046875-.96875-3.5751953125-1.765625-7.6337890625-4.376953125-14.208984375-10.251953125-19.72265625-17.625-5.5185546875-7.369140625-10.689453125-15.30859375-15.51953125-23.822265625.0224609375-.1328125-.134765625-.44140625-.47265625-.91796875-.6962890625,4.072265625-1.43359375,8.173828125-2.208984375,12.30078125-.77734375,4.130859375-1.525390625,8.30078125-2.244140625,12.505859375-.416015625,1.60546875-1.1455078125,3.01953125-2.19140625,4.234375-.8671875.97265625-2.1025390625,1.876953125-3.7138671875,2.71875-1.6103515625.841796875-3.5830078125,1.1328125-5.912109375.875-2.3564453125-.125-4.7880859375-.400390625-7.298828125-.830078125-2.5126953125-.4296875-4.802734375-1.134765625-6.8671875-2.1171875-2.0693359375-.982421875-3.7099609375-2.416015625-4.923828125-4.30078125-1.2158203125-1.884765625-1.7578125-4.419921875-1.630859375-7.615234375-.017578125-1.537109375.376953125-4.650390625,1.177734375-9.33203125.8017578125-4.68359375,1.8662109375-10.298828125,3.1962890625-16.84765625s2.8486328125-13.796875,4.55859375-21.75c1.7080078125-7.951171875,3.3955078125-15.9765625,5.0615234375-24.07421875,1.6640625-8.09765625,3.1669921875-15.873046875,4.5146484375-23.328125,1.34375-7.453125,2.662109375-14.142578125,3.958984375-20.0703125,1.3173828125-6.900390625,2.634765625-13.380859375,3.953125-19.443359375.072265625-1.244140625.39453125-2.306640625.96484375-3.189453125.4091796875-.767578125,1.1484375-1.40625,2.2158203125-1.92578125,1.0634765625-.515625,2.5595703125-.6796875,4.484375-.490234375,1.9462890625.0546875,4.25.275390625,6.9091796875.658203125,2.6591796875.38671875,5.1865234375.923828125,7.58203125,1.61328125,5.044921875.724609375,10.271484375,1.619140625,15.6787109375,2.681640625,6.0615234375,1.318359375,12.1416015625,3.333984375,18.2451171875,6.0546875,6.1015625,2.71875,11.6171875,6.21484375,16.544921875,10.48046875,4.9287109375,4.267578125,8.9990234375,9.259765625,12.2138671875,14.9765625,3.212890625,5.720703125,4.9052734375,12.15625,5.0791015625,19.3125ZM81.4970703125,126.728515625c6.85546875.75390625,12.9873046875.232421875,18.396484375-1.56640625,5.40625-1.80078125,9.7490234375-4.306640625,13.0224609375-7.51953125,3.2734375-3.2109375,5.3916015625-6.830078125,6.36328125-10.85546875.966796875-4.02734375.5810546875-7.8984375-1.15625-11.619140625-1.7412109375-3.720703125-4.990234375-6.96484375-9.755859375-9.73828125-4.7646484375-2.771484375-11.279296875-4.513671875-19.5390625-5.228515625-1.1904296875,7.759765625-2.4111328125,15.515625-3.666015625,23.263671875-1.255859375,7.75-2.478515625,15.50390625-3.6650390625,23.263671875Z"/>
      <path class="cls-3" d="M153.953125,98.88671875c.23828125,7.5859375-1.103515625,14.412109375-4.0283203125,20.478515625-2.9228515625,6.068359375-6.8017578125,11.376953125-11.6318359375,15.927734375-4.8310546875,4.552734375-10.3720703125,8.357421875-16.62109375,11.408203125-6.251953125,3.052734375-12.5830078125,5.359375-18.99609375,6.9140625,1.7041015625,3.087890625,3.791015625,6.203125,6.2587890625,9.349609375,2.4658203125,3.146484375,5.078125,6.0390625,7.8427734375,8.67578125,2.7607421875,2.640625,5.5615234375,5.0390625,8.408203125,7.201171875,2.841796875,2.1640625,5.427734375,3.79296875,7.7568359375,4.890625,1.8955078125,1.162109375,3.0888671875,2.765625,3.578125,4.8046875.4892578125,2.041015625.4599609375,4.236328125-.078125,6.5859375-.5439453125,2.353515625-1.5322265625,4.6640625-2.9677734375,6.93359375s-3.099609375,4.220703125-4.9833984375,5.853515625c-1.8876953125,1.6328125-3.9287109375,2.75-6.1279296875,3.353515625-2.197265625.599609375-4.3388671875.44140625-6.4169921875-.46875-.3837890625-.20703125-1.06640625-.498046875-2.05078125-.875-.982421875-.37890625-2.1748046875-.96875-3.5751953125-1.765625-7.6337890625-4.376953125-14.208984375-10.251953125-19.72265625-17.625-5.5185546875-7.369140625-10.689453125-15.30859375-15.51953125-23.822265625.0224609375-.1328125-.134765625-.44140625-.47265625-.91796875-.6962890625,4.072265625-1.43359375,8.173828125-2.208984375,12.30078125-.77734375,4.130859375-1.525390625,8.30078125-2.244140625,12.505859375-.416015625,1.60546875-1.1455078125,3.01953125-2.19140625,4.234375-.8671875.97265625-2.1025390625,1.876953125-3.7138671875,2.71875-1.6103515625.841796875-3.5830078125,1.1328125-5.912109375.875-2.3564453125-.125-4.7880859375-.400390625-7.298828125-.830078125-2.5126953125-.4296875-4.802734375-1.134765625-6.8671875-2.1171875-2.0693359375-.982421875-3.7099609375-2.416015625-4.923828125-4.30078125-1.2158203125-1.884765625-1.7578125-4.419921875-1.630859375-7.615234375-.017578125-1.537109375.376953125-4.650390625,1.177734375-9.33203125.8017578125-4.68359375,1.8662109375-10.298828125,3.1962890625-16.84765625s2.8486328125-13.796875,4.55859375-21.75c1.7080078125-7.951171875,3.3955078125-15.9765625,5.0615234375-24.07421875,1.6640625-8.09765625,3.1669921875-15.873046875,4.5146484375-23.328125,1.34375-7.453125,2.662109375-14.142578125,3.958984375-20.0703125,1.3173828125-6.900390625,2.634765625-13.380859375,3.953125-19.443359375.072265625-1.244140625.39453125-2.306640625.96484375-3.189453125.4091796875-.767578125,1.1484375-1.40625,2.2158203125-1.92578125,1.0634765625-.515625,2.5595703125-.6796875,4.484375-.490234375,1.9462890625.0546875,4.25.275390625,6.9091796875.658203125,2.6591796875.38671875,5.1865234375.923828125,7.58203125,1.61328125,5.044921875.724609375,10.271484375,1.619140625,15.6787109375,2.681640625,6.0615234375,1.318359375,12.1416015625,3.333984375,18.2451171875,6.0546875,6.1015625,2.71875,11.6171875,6.21484375,16.544921875,10.48046875,4.9287109375,4.267578125,8.9990234375,9.259765625,12.2138671875,14.9765625,3.212890625,5.720703125,4.9052734375,12.15625,5.0791015625,19.3125ZM81.4970703125,126.728515625c6.85546875.75390625,12.9873046875.232421875,18.396484375-1.56640625,5.40625-1.80078125,9.7490234375-4.306640625,13.0224609375-7.51953125,3.2734375-3.2109375,5.3916015625-6.830078125,6.36328125-10.85546875.966796875-4.02734375.5810546875-7.8984375-1.15625-11.619140625-1.7412109375-3.720703125-4.990234375-6.96484375-9.755859375-9.73828125-4.7646484375-2.771484375-11.279296875-4.513671875-19.5390625-5.228515625-1.1904296875,7.759765625-2.4111328125,15.515625-3.666015625,23.263671875-1.255859375,7.75-2.478515625,15.50390625-3.6650390625,23.263671875Z"/>
    </g>
  </a>
  <a xlink:href="https://www.notion.so/congruence/Coefficient-of-determination-125f9339b29b80be918bcfecf2dc3c98?pvs=4">
    <g>
      <path class="cls-1" d="M224.6767578125,97.951171875c.439453125.0751953125.751953125.33984375.93359375.79296875.1806640625.453125.306640625.9609375.373046875,1.5234375.0654296875.5634765625.064453125,1.1298828125.0009765625,1.703125-.06640625.5732421875-.1201171875.986328125-.1630859375,1.23828125-.1943359375,1.134765625-.4287109375,2.3115234375-.701171875,3.5302734375-.2744140625,1.21875-.5947265625,2.33203125-.9609375,3.33984375-.3671875,1.0078125-.802734375,1.8427734375-1.3046875,2.501953125-.5029296875.66015625-1.111328125.9931640625-1.826171875,1.001953125-.337890625.0712890625-1.01953125-.013671875-2.048828125-.25390625-1.0302734375-.2412109375-2.2587890625-.548828125-3.6865234375-.921875-1.4921875-.3857421875-3.09765625-.7734375-4.814453125-1.1640625-1.71875-.3916015625-3.486328125-.7763671875-5.3037109375-1.150390625-1.8173828125-.376953125-3.576171875-.7099609375-5.279296875-1.001953125-1.701171875-.291015625-3.220703125-.5185546875-4.5556640625-.6806640625-1.15625-.0693359375-2.5703125-.24609375-4.2412109375-.53125-1.6708984375-.2861328125-3.087890625-.6259765625-4.25390625-1.0205078125-.9130859375-.3505859375-1.5126953125-1.21484375-1.794921875-2.59375-.28515625-1.3779296875-.3212890625-2.958984375-.1142578125-4.740234375.2080078125-1.7802734375.6650390625-3.6015625,1.3720703125-5.4599609375.70703125-1.857421875,1.564453125-3.4462890625,2.568359375-4.7685546875,1.552734375-1.8759765625,3.23046875-3.5185546875,5.029296875-4.9306640625,1.7978515625-1.412109375,3.6494140625-2.75,5.5546875-4.0146484375,1.9013671875-1.263671875,3.8388671875-2.5390625,5.8125-3.82421875,1.970703125-1.2841796875,3.9326171875-2.7001953125,5.8857421875-4.2490234375.822265625-.6376953125,1.798828125-1.60546875,2.9296875-2.9052734375,1.130859375-1.298828125,2.0400390625-2.6357421875,2.73046875-4.0107421875.890625-1.7939453125,1.1064453125-3.25.6494140625-4.3662109375s-1.251953125-1.884765625-2.3798828125-2.3056640625c-1.12890625-.419921875-2.4326171875-.48046875-3.9111328125-.1826171875-1.478515625.2998046875-2.8251953125.9619140625-4.037109375,1.986328125-1.078125.9833984375-1.9501953125,2.197265625-2.6181640625,3.640625-.669921875,1.4423828125-.8544921875,3.001953125-.5576171875,4.673828125.072265625.337890625.1513671875.724609375.240234375,1.16015625.0859375.4375.1298828125.8505859375.12890625,1.2392578125-.0888671875.89453125-.8251953125,1.6923828125-2.2109375,2.396484375-1.38671875.7041015625-2.9345703125,1.1201171875-4.642578125,1.2490234375-1.7109375.130859375-3.32421875-.11328125-4.8388671875-.73046875-1.5185546875-.615234375-2.453125-1.796875-2.80078125-3.544921875-.3076171875-2.388671875-.2197265625-4.693359375.2578125-6.9150390625s1.2275390625-4.33203125,2.2509765625-6.33203125c1.0224609375-1.998046875,2.3115234375-3.837890625,3.8642578125-5.51953125,1.5537109375-1.681640625,3.2724609375-3.10546875,5.16015625-4.2763671875,2.0341796875-1.2734375,4.2841796875-2.1875,6.7470703125-2.7392578125s4.94140625-.7119140625,7.431640625-.4814453125c2.4912109375.232421875,4.8662109375.8662109375,7.1220703125,1.900390625,2.255859375,1.03515625,4.1904296875,2.5341796875,5.8017578125,4.49609375,1.296875,1.521484375,2.248046875,3.1591796875,2.8564453125,4.91796875.607421875,1.7587890625.947265625,3.5693359375,1.0185546875,5.4296875.0703125,1.8623046875-.103515625,3.73046875-.521484375,5.60546875-.41796875,1.8759765625-1.009765625,3.720703125-1.7744140625,5.537109375-1.1689453125,2.65625-2.6552734375,4.9970703125-4.4619140625,7.0244140625-1.8076171875,2.0263671875-3.76953125,3.9150390625-5.884765625,5.6611328125-2.1162109375,1.7470703125-4.3310546875,3.412109375-6.646484375,4.9951171875-2.3154296875,1.583984375-4.5908203125,3.2216796875-6.8271484375,4.9150390625,6.158203125.794921875,12.3056640625,1.8466796875,18.4423828125,3.1552734375Z"/>
      <path class="cls-2" d="M224.6767578125,97.951171875c.439453125.0751953125.751953125.33984375.93359375.79296875.1806640625.453125.306640625.9609375.373046875,1.5234375.0654296875.5634765625.064453125,1.1298828125.0009765625,1.703125-.06640625.5732421875-.1201171875.986328125-.1630859375,1.23828125-.1943359375,1.134765625-.4287109375,2.3115234375-.701171875,3.5302734375-.2744140625,1.21875-.5947265625,2.33203125-.9609375,3.33984375-.3671875,1.0078125-.802734375,1.8427734375-1.3046875,2.501953125-.5029296875.66015625-1.111328125.9931640625-1.826171875,1.001953125-.337890625.0712890625-1.01953125-.013671875-2.048828125-.25390625-1.0302734375-.2412109375-2.2587890625-.548828125-3.6865234375-.921875-1.4921875-.3857421875-3.09765625-.7734375-4.814453125-1.1640625-1.71875-.3916015625-3.486328125-.7763671875-5.3037109375-1.150390625-1.8173828125-.376953125-3.576171875-.7099609375-5.279296875-1.001953125-1.701171875-.291015625-3.220703125-.5185546875-4.5556640625-.6806640625-1.15625-.0693359375-2.5703125-.24609375-4.2412109375-.53125-1.6708984375-.2861328125-3.087890625-.6259765625-4.25390625-1.0205078125-.9130859375-.3505859375-1.5126953125-1.21484375-1.794921875-2.59375-.28515625-1.3779296875-.3212890625-2.958984375-.1142578125-4.740234375.2080078125-1.7802734375.6650390625-3.6015625,1.3720703125-5.4599609375.70703125-1.857421875,1.564453125-3.4462890625,2.568359375-4.7685546875,1.552734375-1.8759765625,3.23046875-3.5185546875,5.029296875-4.9306640625,1.7978515625-1.412109375,3.6494140625-2.75,5.5546875-4.0146484375,1.9013671875-1.263671875,3.8388671875-2.5390625,5.8125-3.82421875,1.970703125-1.2841796875,3.9326171875-2.7001953125,5.8857421875-4.2490234375.822265625-.6376953125,1.798828125-1.60546875,2.9296875-2.9052734375,1.130859375-1.298828125,2.0400390625-2.6357421875,2.73046875-4.0107421875.890625-1.7939453125,1.1064453125-3.25.6494140625-4.3662109375s-1.251953125-1.884765625-2.3798828125-2.3056640625c-1.12890625-.419921875-2.4326171875-.48046875-3.9111328125-.1826171875-1.478515625.2998046875-2.8251953125.9619140625-4.037109375,1.986328125-1.078125.9833984375-1.9501953125,2.197265625-2.6181640625,3.640625-.669921875,1.4423828125-.8544921875,3.001953125-.5576171875,4.673828125.072265625.337890625.1513671875.724609375.240234375,1.16015625.0859375.4375.1298828125.8505859375.12890625,1.2392578125-.0888671875.89453125-.8251953125,1.6923828125-2.2109375,2.396484375-1.38671875.7041015625-2.9345703125,1.1201171875-4.642578125,1.2490234375-1.7109375.130859375-3.32421875-.11328125-4.8388671875-.73046875-1.5185546875-.615234375-2.453125-1.796875-2.80078125-3.544921875-.3076171875-2.388671875-.2197265625-4.693359375.2578125-6.9150390625s1.2275390625-4.33203125,2.2509765625-6.33203125c1.0224609375-1.998046875,2.3115234375-3.837890625,3.8642578125-5.51953125,1.5537109375-1.681640625,3.2724609375-3.10546875,5.16015625-4.2763671875,2.0341796875-1.2734375,4.2841796875-2.1875,6.7470703125-2.7392578125s4.94140625-.7119140625,7.431640625-.4814453125c2.4912109375.232421875,4.8662109375.8662109375,7.1220703125,1.900390625,2.255859375,1.03515625,4.1904296875,2.5341796875,5.8017578125,4.49609375,1.296875,1.521484375,2.248046875,3.1591796875,2.8564453125,4.91796875.607421875,1.7587890625.947265625,3.5693359375,1.0185546875,5.4296875.0703125,1.8623046875-.103515625,3.73046875-.521484375,5.60546875-.41796875,1.8759765625-1.009765625,3.720703125-1.7744140625,5.537109375-1.1689453125,2.65625-2.6552734375,4.9970703125-4.4619140625,7.0244140625-1.8076171875,2.0263671875-3.76953125,3.9150390625-5.884765625,5.6611328125-2.1162109375,1.7470703125-4.3310546875,3.412109375-6.646484375,4.9951171875-2.3154296875,1.583984375-4.5908203125,3.2216796875-6.8271484375,4.9150390625,6.158203125.794921875,12.3056640625,1.8466796875,18.4423828125,3.1552734375Z"/>
      <path class="cls-3" d="M224.6767578125,97.951171875c.439453125.0751953125.751953125.33984375.93359375.79296875.1806640625.453125.306640625.9609375.373046875,1.5234375.0654296875.5634765625.064453125,1.1298828125.0009765625,1.703125-.06640625.5732421875-.1201171875.986328125-.1630859375,1.23828125-.1943359375,1.134765625-.4287109375,2.3115234375-.701171875,3.5302734375-.2744140625,1.21875-.5947265625,2.33203125-.9609375,3.33984375-.3671875,1.0078125-.802734375,1.8427734375-1.3046875,2.501953125-.5029296875.66015625-1.111328125.9931640625-1.826171875,1.001953125-.337890625.0712890625-1.01953125-.013671875-2.048828125-.25390625-1.0302734375-.2412109375-2.2587890625-.548828125-3.6865234375-.921875-1.4921875-.3857421875-3.09765625-.7734375-4.814453125-1.1640625-1.71875-.3916015625-3.486328125-.7763671875-5.3037109375-1.150390625-1.8173828125-.376953125-3.576171875-.7099609375-5.279296875-1.001953125-1.701171875-.291015625-3.220703125-.5185546875-4.5556640625-.6806640625-1.15625-.0693359375-2.5703125-.24609375-4.2412109375-.53125-1.6708984375-.2861328125-3.087890625-.6259765625-4.25390625-1.0205078125-.9130859375-.3505859375-1.5126953125-1.21484375-1.794921875-2.59375-.28515625-1.3779296875-.3212890625-2.958984375-.1142578125-4.740234375.2080078125-1.7802734375.6650390625-3.6015625,1.3720703125-5.4599609375.70703125-1.857421875,1.564453125-3.4462890625,2.568359375-4.7685546875,1.552734375-1.8759765625,3.23046875-3.5185546875,5.029296875-4.9306640625,1.7978515625-1.412109375,3.6494140625-2.75,5.5546875-4.0146484375,1.9013671875-1.263671875,3.8388671875-2.5390625,5.8125-3.82421875,1.970703125-1.2841796875,3.9326171875-2.7001953125,5.8857421875-4.2490234375.822265625-.6376953125,1.798828125-1.60546875,2.9296875-2.9052734375,1.130859375-1.298828125,2.0400390625-2.6357421875,2.73046875-4.0107421875.890625-1.7939453125,1.1064453125-3.25.6494140625-4.3662109375s-1.251953125-1.884765625-2.3798828125-2.3056640625c-1.12890625-.419921875-2.4326171875-.48046875-3.9111328125-.1826171875-1.478515625.2998046875-2.8251953125.9619140625-4.037109375,1.986328125-1.078125.9833984375-1.9501953125,2.197265625-2.6181640625,3.640625-.669921875,1.4423828125-.8544921875,3.001953125-.5576171875,4.673828125.072265625.337890625.1513671875.724609375.240234375,1.16015625.0859375.4375.1298828125.8505859375.12890625,1.2392578125-.0888671875.89453125-.8251953125,1.6923828125-2.2109375,2.396484375-1.38671875.7041015625-2.9345703125,1.1201171875-4.642578125,1.2490234375-1.7109375.130859375-3.32421875-.11328125-4.8388671875-.73046875-1.5185546875-.615234375-2.453125-1.796875-2.80078125-3.544921875-.3076171875-2.388671875-.2197265625-4.693359375.2578125-6.9150390625s1.2275390625-4.33203125,2.2509765625-6.33203125c1.0224609375-1.998046875,2.3115234375-3.837890625,3.8642578125-5.51953125,1.5537109375-1.681640625,3.2724609375-3.10546875,5.16015625-4.2763671875,2.0341796875-1.2734375,4.2841796875-2.1875,6.7470703125-2.7392578125s4.94140625-.7119140625,7.431640625-.4814453125c2.4912109375.232421875,4.8662109375.8662109375,7.1220703125,1.900390625,2.255859375,1.03515625,4.1904296875,2.5341796875,5.8017578125,4.49609375,1.296875,1.521484375,2.248046875,3.1591796875,2.8564453125,4.91796875.607421875,1.7587890625.947265625,3.5693359375,1.0185546875,5.4296875.0703125,1.8623046875-.103515625,3.73046875-.521484375,5.60546875-.41796875,1.8759765625-1.009765625,3.720703125-1.7744140625,5.537109375-1.1689453125,2.65625-2.6552734375,4.9970703125-4.4619140625,7.0244140625-1.8076171875,2.0263671875-3.76953125,3.9150390625-5.884765625,5.6611328125-2.1162109375,1.7470703125-4.3310546875,3.412109375-6.646484375,4.9951171875-2.3154296875,1.583984375-4.5908203125,3.2216796875-6.8271484375,4.9150390625,6.158203125.794921875,12.3056640625,1.8466796875,18.4423828125,3.1552734375Z"/>
    </g>
  </a>
</svg>