<?xml version="1.0" encoding="UTF-8"?>
<svg id="Content" xmlns="http://www.w3.org/2000/svg" viewBox="0 0 280.000000000010914 280">
  <defs>
    <style>
      .cls-1 {
        stroke: #665451;
        stroke-width: 50px;
      }

      .cls-1, .cls-2 {
        fill: none;
        stroke-linecap: round;
        stroke-linejoin: round;
      }

      .cls-3 {
        fill: #fff;
      }

      .cls-2 {
        stroke: #998675;
        stroke-width: 2px;
      }
    </style>
  </defs>
  <g>
    <path d="M74.328187853780037,122.251923648839693c-11.479220344588612,1.763522173497222-23.060260914404353,2.802390381324585-34.670050119373627,3.110219724658236-2.945280513795296.078063971991469-5.414257169832126,3.361201589333177-4.97750246760188,6.192548902584349.496133337866922,3.214873752817766,3.037612149864799,5.061126429163778,6.192548902583439,4.977502467600971,11.609789204967456-.307829343334561,23.190829774783197-1.346697551161924,34.670050119371808-3.110219724659146,2.900521739678879-.445566987595157,5.454690528074934-3.099416330307577,4.97750246760188-6.19254890258253-.44787718320913-2.901466153361071-3.081425520593257-5.455451807019017-6.19254890258162-4.97750246760188Z"/>
    <path d="M127.927996434556917,117.065102845932415c-11.482624422113076-.434098810876094-22.869629045369948,1.411094172728554-34.233259739849018,2.815010943203561-2.9151481793524.360147099061578-5.445259351121422,3.16075131920752-4.977502467603699,6.192548902580711.458996970413864,2.974942472812472,3.067566293608252,5.363556012617664,6.192548902583439,4.97750246760188,10.30612027234929-1.273247582702425,20.729198198743688-3.059254292024889,31.143099986957168-2.893507653970119.025858002012683.000958326045293.051676451736057.001553043646709.077352649526802.002531145838475,1.570444394550577.059345735462557,2.927388209020137-.056526446294811,4.242422806410104-1.031188611691505,1.084711249590327-.803961546926075,2.045041090077575-2.252493733149095,2.203454979357048-3.616969012707159.170273549651029-1.465147252386487-.074830532597844-3.062259970937703-1.030996919398603-4.242351680445609-.855844046824132-1.056027203068879-2.19407432537264-2.14976594509244-3.61712019798324-2.203576500410236Z"/>
    <path d="M173.768793890214511,113.234968956934608c-10.679756230607381.840113470044344-21.359507517174279,1.680272391144172-32.03944555200178,2.52040563733317-2.932359019650903.230675079385946-5.431158991474149,3.253172750128215-4.977502467603699,6.19254890258162.476175658102875,3.085516571117296,3.050801303614207,5.224653768473217,6.19254890258162,4.97750246760279,10.67993803482932-.840133246189907,21.359689321398037-1.680292167288826,32.03944555200178-2.52040563733226,2.932359019650903-.230675079385946,5.43115899147233-3.253172750128215,4.977502467603699-6.19254890258253-.476175658101056-3.085516571115477-3.050619499395907-5.224673544619691-6.19254890258162-4.97750246760279Z"/>
    <path d="M223.637146660657891,108.316078748797736c-11.424550473548152,1.060338330495142-22.848919142870727,2.120656884842901-34.273282868161914,3.181020890249783-2.927707806338731.271743057301137-5.435807272890088,3.223969577523349-4.97750246760188,6.19254890258253.470717679814697,3.050560890624183,3.055405326820619,5.268670166226912,6.19254890258162,4.977502467600971,11.424363725289368-1.060364005404153,22.848732394615581-2.120682559752822,34.273282868160095-3.181020890248874,2.92752600212043-.271723281158302,5.435625468669969-3.223949801376875,4.977502467607337-6.19254890258253-.470722623857-3.050606341678758-3.055592075083041-5.268695841134104-6.192548902585258-4.97750246760188Z"/>
    <path d="M183.299824054107376,90.5259633178066c.132370460558377-1.140527941175606-.129166123078903-2.232551164845063-.690219507752772-3.123674598058642-.020567495854266-.278708633075439-.056404977676721-.560815014383479-.065394730416301-.809188699002334-.035888669312044-.991156958500142-.071772394594518-1.982268465943889-.107837924091655-2.973360197242073-.067312126477191-1.858399781023763-.134619308919355-3.716754110992952-.201926491361519-5.57510844096123s-.134796169106266-3.716688883790994-.202103351546612-5.575043213758363c-.034866584255724-.961467360858478-.071944483388506-1.922970114289456-.092143129008036-2.884883290474136-.010129771348147-.478699822158887-.016593794047367-.957522460914333-.01624701192668-1.436304149146054-.000104670078144-.195441242201014.001810282426959-.390918217789476.004108619521503-.586252941451676.000225175417654-.001312181842877.000141126798553-.002084849786115.000184497994269-.00337725548161.045689062853853-1.257568332616756-.043955312812614-2.340420256733523-.824834885170276-3.393886479340836-.643140787153243-.867845676589241-1.801933141712652-1.636140774839987-2.893697147193961-1.762870290538558-2.1695663879309-.251942472721566-5.065379428486267,1.205924839396175-5.156670811804361,3.718476693232333-.106276948832601,2.924402515410293-.034567770180729,5.851426877867198.075985489662344,8.777031211661779-12.37727207266289,2.117137658023239-24.741913995079813,4.020616895861167-37.272470543968666,4.96704219167168-2.119412101248599.160088699770313-4.240007634001813.299151257188896-6.360863632058681.430745964140442-.249198280429482-.966758035183375-.734441078750024-1.839086482540552-1.537345572260165-2.484535207843692-.859327220381601-.690634782115012-2.194165571421763-1.135931741398053-3.30174740741495-.96500236537031-1.149916374293753.17746593861466-2.307082152901785.687392059176091-3.017040115733835,1.652342109742676-.488629657100319.66420564321561-.865789600415155,1.463634214858757-.97350979091425,2.294689127185848-7.43081150899161.382813678646926-14.865019365741318.712419787873841-22.289328070613919,1.20913033321176-6.673716577422965.446473654451438-13.337907737606656,1.044778110544939-19.969743791754809,1.920233043867484-.164927024567078-1.551705270248021-.340221833796022-3.102328751207097-.497689941241333-4.654799392404129-.23755075803092-2.339412634716609-2.564830163271836-4.35070296050344-4.954039122065296-3.982001974080958-2.423401859419755.373984013976042-4.23650382147207,2.446955464193707-3.982001974081868,4.954039122065296.414279945060116,4.082481407127489.853663704798237,8.162370059215391,1.320671818137271,12.239161834940205.229822999664975,2.007937781994769.466195895345663,4.015209073776532.709098910887406,6.021632071120621.122145019782693,1.007895906756858.25419785617305,2.069670749470788.69039985051495,2.995116134996351.825448517443874,1.750683978923917,2.301000951605602,3.04650660749212,4.25358908061753,3.348310993837913,2.320992558414218.358766880929579,4.875492799523272-1.295964682367412,5.156670811804361-3.718476693235971.163363691453924-1.406909550618366-.289184913030113-2.797179707260511-1.187492215753082-3.788664401788083-.09503127417338-.787385423154774-.189512191645917-1.574784723692574-.282730367638578-2.362413359368475-.083409889004542-.705915616720631-.162456476693478-1.412305860954802-.244416875962997-2.118425137904524,12.071615787157498-1.592176413195375,24.238773578461405-2.226542278592206,36.392801264631998-2.831104765791679,2.210589780277587-.10994530566677,4.421659575611557-.222242268690934,6.63270734452999-.338123966326748.07413771899337.275686736558782.143829213175195.552776897882723.220644555123727.827712481690469.284191260707303,1.019563877078326,1.417680905016823,2.032144791472092,2.343754084098691,2.446852255047816,1.018527750069552.456296000787916,2.455883373151664.540190313422499,3.49182194563582.075919074390185,1.043135455664014-.467445515918371,2.013266230991576-1.250895275186849,2.44680680399324-2.343749140065484.111468368464557-.372125958440847.22294168096596-.744206465828938.334410049432336-1.116332424272514.021006473381931-.134962867173272.027105000597658-.268304090342099.036476003802818-.402001284144717,7.328598124116979-.468455745234678,14.646282476454871-1.077829879106503,21.930686678932034-2.040503385878765,6.778072489369151-.895823035843023,13.519568174424421-2.039962201885828,20.257612716546646-3.193843510209263.037078851621118,1.022391892026462.074152759199933,2.044738332995621.111231610819232,3.067130225023902.045896688208813,1.270876254900941.018025326073257,2.512985705715437.436379979244521,3.736034814247432.6293415998407,1.840217401877453,2.210944574697351,3.153799053859075,4.118599679781255,3.500823351447252,2.312453656521029.420630949458427,4.88064305692933-1.339938390553471,5.156852616022661-3.718496469380625ZM180.367255084813223,85.586640299023202c-.016672285604727-.006142507842924-.034144823508541-.011186211736458-.050797332969523-.017146915358353.014788845781368.00404794039332.02976443982152.008121555692014.044553285601069.012169496084425.002020747715505.001665731806497.004041495429192.003331463612994.006244047368455.004977419273928Z"/>
    <path d="M130.852984972438207,92.552784407786021c-.176949832026366-6.077545913575705,8.63315236012204-12.899790572646452,8.456192511392146-18.977439602397681-.048590128133583-1.668721993879444-9.66813713042211-.296714034207071-13.466993474108676.148085730631465-3.987725535791469.466893824915132-14.023597988252732,1.556213951642349-13.971532347368338,3.344092733704201.176959848729894,6.077649029751228,11.350387691682045,12.005237283993665,11.527337523704773,18.082783197573008.048590128133583,1.668721993877625,2.55561392965501,3.420904275215435,3.590539613709552,3.141316803678819,3.509162268499495-.948007978708119,3.91653183026574-3.950856964955165,3.864456172670543-5.738838863189812Z"/>
    <path class="cls-3" d="M114.826795646951723,30.558697644256426c.707793727919125-.051511938871045,1.386589159568757.037134365505153,2.034629289681106.265214637857753.648040130114168.228080272353509,1.230214512241218.558098882102968,1.747370803537706.98999413830461s.935618953109952.959596534106822,1.257144990700908,1.5838281089882c.319830723272389.62435495677073.506380556975273,1.290791436751533.557892495844499,1.998585164672477.05157362981663.708641385080227-.037134365504244,1.386589159569667-.26436698069665,2.034567598738249-.228927929512793.648101821057935-.56713067219971,1.223202507254427-1.016303542373862,1.72542544047792-.44917287017779.502222933222583-.977429366586875.913056680601585-1.585678837333035,1.231715275924216-.608126088856807.320353909640289-1.266995345347823.505500867681803-1.974789073268767.557012806552848-.708641385081137.051573629815721-1.38652746862499-.03628670834587-2.034629289682925-.265214637858662-.647978439170402-.227232615194225-1.22252390686117-.55780644344668-1.722727054975621-.990935518541846-.5018984624312-.433005693207633-.912176991309025-.953633275184075-1.230835586629837-1.561882745930234-.319506252481006-.608187779801483-.504591519578753-1.266209379134125-.556165149395383-1.974850764215262-.051511938871045-.707793727920944.035731489844693-1.394156383057634.262639634247535-2.058301999195464.226060487242648-.664083925194063.556079096992107-1.246258307318385.989994138302791-1.747370803535887.432219726993935-.500989114328149.952847308968558-.911267643205065,1.56103508877095-1.23077389568607.608187779800573-.319506252481006,1.266147688189449-.505439176737127,1.974789073270586-.557012806552848ZM132.467844403150593,33.402613884599305c-2.374572959563011,5.191962419171432-4.608201709663263,10.412013786511125-6.703182457998992,15.663729803490241-2.094133091177355,5.251654326034441-4.045315830529944,10.58238041167624-5.85282394278147,15.990421251665794-.026025861505332.099038862993439-.081395252791481.216404086021612-.168651145337208.352280741919458-.147898672945303.204201145584193-.327098969833969.411532513283419-.537662581615223.621146445938393-.242063951302043.245140199653179-.551049516627245.43720484239293-.929376285563194.578074315373669-.378388459881535.140021815821456-.846002773096188.166384611949979-1.402966321535132.077393074065185-.559246113394693-.120354852773744-1.127971869560497-.265584201820275-1.70690154377553-.433931041877258-.578929674213214-.168346840056074-1.090497001698168-.406359354516098-1.533006668134476-.714160925265787-.443357323594682-.307739879806832-.772146279394292-.703919646732174-.984856625911561-1.191205654143232-.213434621786291-.485529002147814-.252135606866432-1.122674747200108-.115131916187238-1.909803611782991.100774508331597-.395061031032128.336755371055915-1.157011691268053.70800427912036-2.285004323547582.371310599008211-1.127144975120245.87025143282699-2.491101872351464,1.499427163880682-4.091208107370221.597675391532903-1.564579968018734,1.282220513872744-3.282051426066573,2.052849400806736-5.15150502603592.769842920719384-1.868544251865387,1.572358308912953-3.756509284705317,2.404278917831107-5.661953020421606.637705097497019-1.471200655876601,1.243544456452582-2.818225172642087,1.818304043083117-4.041982898398601.574821277574301-1.22291006859723,1.13643654353109-2.404808122762915,1.684784106919324-3.546541819656341.548470945277586-1.140038382573039,1.098052327561163-2.264818936281699,1.647958180634305-3.373432313022022.550815201178921-1.107827410524806,1.135547958143434-2.299929382735172,1.75510761899568-3.575519950417402.139956557137339-.301620027944409.30194093099999-.523037096559165.48576804874574-.666794177319389.15173952758596-.139717510540322.362879120586513-.236037822521212.635114093318407-.289084317829293.27066304030086-.05122779910198.623153767217445.003220377456273,1.055961939260669.166010883041963.400597199990443.165134761486115.876206423865369.365713336308545,1.427613637830291.600826376364239.551407213966741.235113040055694,1.056842225760192.505953436010714,1.516243344436589.811673530707594.45861515245997.306629442799931.822061955379468.628706533950208,1.089431060658171.965445307235314.267369105275066.336738773284196.318848414804961.704528257292623.153713653318846,1.105125457285794ZM131.578736551953625,55.223484392203318c.708641385081137-.051573629815721,1.394218074001401.036579147002158,2.059149656355657.262577943301039.663359649923223.227817492506801,1.246381689208647.557774411311584,1.747370803535887.9899941383037.500203148114451.433129075096076.91109858643722.962233228664445,1.232562933084409,1.58561714638563.319892414216156.625202613930924.506380556975273,1.290791436751533.557954186790084,1.99943282183267.05157362981663.708641385080227-.037134365504244,1.386589159568757-.26436698069665,2.034567598738249-.228989620460197.647254163898651-.558946539262251,1.230276203184076-.98999413830461,1.747370803535887-.431956947146318.516308634137204-.960444191267015.935680644053718-1.583889799934695,1.256297333541625-.625140922984428.32074007137544-1.290791436749714.506380556976183-1.999432821830851.557954186791903s-1.38652746862499-.036286708346779-2.03456759873734-.264366980699378c-.647192472955794-.228141963298185-1.230831421687981-.566575453695805-1.749098149990459-1.013728538761825-.518328419246245-.448000742225304-.937700429163669-.97648798634691-1.256297333540715-1.583889799932876-.319506252481006-.608187779801483-.504591519576934-1.266209379135034-.556165149393564-1.974850764215262s.035731489842874-1.394156383057634.26257794330013-2.059149656355657c.226122178188234-.66323626803387.564555668586763-1.246875216766057,1.013728538762734-1.74909814998864.449234561119738-.5013752760633.978338714689016-.912270714387887,1.58561714638563-1.2325629330835.608249470746159-.318658595322631,1.266209379135034-.504591519577843,1.974850764214352-.556165149393564Z"/>
  </g>
  <g>
    <path class="cls-1" d="M74.328187853780037,122.251923648839693c-11.479220344588612,1.763522173497222-23.060260914404353,2.802390381324585-34.670050119373627,3.110219724658236-2.945280513795296.078063971991469-5.414257169832126,3.361201589333177-4.97750246760188,6.192548902584349.496133337866922,3.214873752817766,3.037612149864799,5.061126429163778,6.192548902583439,4.977502467600971,11.609789204967456-.307829343334561,23.190829774783197-1.346697551161924,34.670050119371808-3.110219724659146,2.900521739678879-.445566987595157,5.454690528074934-3.099416330307577,4.97750246760188-6.19254890258253-.44787718320913-2.901466153361071-3.081425520593257-5.455451807019017-6.19254890258162-4.97750246760188Z"/>
    <path class="cls-1" d="M127.927996434556917,117.065102845932415c-11.482624422113076-.434098810876094-22.869629045369948,1.411094172728554-34.233259739849018,2.815010943203561-2.9151481793524.360147099061578-5.445259351121422,3.16075131920752-4.977502467603699,6.192548902580711.458996970413864,2.974942472812472,3.067566293608252,5.363556012617664,6.192548902583439,4.97750246760188,10.30612027234929-1.273247582702425,20.729198198743688-3.059254292024889,31.143099986957168-2.893507653970119.025858002012683.000958326045293.051676451736057.001553043646709.077352649526802.002531145838475,1.570444394550577.059345735462557,2.927388209020137-.056526446294811,4.242422806410104-1.031188611691505,1.084711249590327-.803961546926075,2.045041090077575-2.252493733149095,2.203454979357048-3.616969012707159.170273549651029-1.465147252386487-.074830532597844-3.062259970937703-1.030996919398603-4.242351680445609-.855844046824132-1.056027203068879-2.19407432537264-2.14976594509244-3.61712019798324-2.203576500410236Z"/>
    <path class="cls-1" d="M173.768793890214511,113.234968956934608c-10.679756230607381.840113470044344-21.359507517174279,1.680272391144172-32.03944555200178,2.52040563733317-2.932359019650903.230675079385946-5.431158991474149,3.253172750128215-4.977502467603699,6.19254890258162.476175658102875,3.085516571117296,3.050801303614207,5.224653768473217,6.19254890258162,4.97750246760279,10.67993803482932-.840133246189907,21.359689321398037-1.680292167288826,32.03944555200178-2.52040563733226,2.932359019650903-.230675079385946,5.43115899147233-3.253172750128215,4.977502467603699-6.19254890258253-.476175658101056-3.085516571115477-3.050619499395907-5.224673544619691-6.19254890258162-4.97750246760279Z"/>
    <path class="cls-1" d="M223.637146660657891,108.316078748797736c-11.424550473548152,1.060338330495142-22.848919142870727,2.120656884842901-34.273282868161914,3.181020890249783-2.927707806338731.271743057301137-5.435807272890088,3.223969577523349-4.97750246760188,6.19254890258253.470717679814697,3.050560890624183,3.055405326820619,5.268670166226912,6.19254890258162,4.977502467600971,11.424363725289368-1.060364005404153,22.848732394615581-2.120682559752822,34.273282868160095-3.181020890248874,2.92752600212043-.271723281158302,5.435625468669969-3.223949801376875,4.977502467607337-6.19254890258253-.470722623857-3.050606341678758-3.055592075083041-5.268695841134104-6.192548902585258-4.97750246760188Z"/>
    <path class="cls-1" d="M183.299824054107376,90.5259633178066c.132370460558377-1.140527941175606-.129166123078903-2.232551164845063-.690219507752772-3.123674598058642-.020567495854266-.278708633075439-.056404977676721-.560815014383479-.065394730416301-.809188699002334-.035888669312044-.991156958500142-.071772394594518-1.982268465943889-.107837924091655-2.973360197242073-.067312126477191-1.858399781023763-.134619308919355-3.716754110992952-.201926491361519-5.57510844096123s-.134796169106266-3.716688883790994-.202103351546612-5.575043213758363c-.034866584255724-.961467360858478-.071944483388506-1.922970114289456-.092143129008036-2.884883290474136-.010129771348147-.478699822158887-.016593794047367-.957522460914333-.01624701192668-1.436304149146054-.000104670078144-.195441242201014.001810282426959-.390918217789476.004108619521503-.586252941451676.000225175417654-.001312181842877.000141126798553-.002084849786115.000184497994269-.00337725548161.045689062853853-1.257568332616756-.043955312812614-2.340420256733523-.824834885170276-3.393886479340836-.643140787153243-.867845676589241-1.801933141712652-1.636140774839987-2.893697147193961-1.762870290538558-2.1695663879309-.251942472721566-5.065379428486267,1.205924839396175-5.156670811804361,3.718476693232333-.106276948832601,2.924402515410293-.034567770180729,5.851426877867198.075985489662344,8.777031211661779-12.37727207266289,2.117137658023239-24.741913995079813,4.020616895861167-37.272470543968666,4.96704219167168-2.119412101248599.160088699770313-4.240007634001813.299151257188896-6.360863632058681.430745964140442-.249198280429482-.966758035183375-.734441078750024-1.839086482540552-1.537345572260165-2.484535207843692-.859327220381601-.690634782115012-2.194165571421763-1.135931741398053-3.30174740741495-.96500236537031-1.149916374293753.17746593861466-2.307082152901785.687392059176091-3.017040115733835,1.652342109742676-.488629657100319.66420564321561-.865789600415155,1.463634214858757-.97350979091425,2.294689127185848-7.43081150899161.382813678646926-14.865019365741318.712419787873841-22.289328070613919,1.20913033321176-6.673716577422965.446473654451438-13.337907737606656,1.044778110544939-19.969743791754809,1.920233043867484-.164927024567078-1.551705270248021-.340221833796022-3.102328751207097-.497689941241333-4.654799392404129-.23755075803092-2.339412634716609-2.564830163271836-4.35070296050344-4.954039122065296-3.982001974080958-2.423401859419755.373984013976042-4.23650382147207,2.446955464193707-3.982001974081868,4.954039122065296.414279945060116,4.082481407127489.853663704798237,8.162370059215391,1.320671818137271,12.239161834940205.229822999664975,2.007937781994769.466195895345663,4.015209073776532.709098910887406,6.021632071120621.122145019782693,1.007895906756858.25419785617305,2.069670749470788.69039985051495,2.995116134996351.825448517443874,1.750683978923917,2.301000951605602,3.04650660749212,4.25358908061753,3.348310993837913,2.320992558414218.358766880929579,4.875492799523272-1.295964682367412,5.156670811804361-3.718476693235971.163363691453924-1.406909550618366-.289184913030113-2.797179707260511-1.187492215753082-3.788664401788083-.09503127417338-.787385423154774-.189512191645917-1.574784723692574-.282730367638578-2.362413359368475-.083409889004542-.705915616720631-.162456476693478-1.412305860954802-.244416875962997-2.118425137904524,12.071615787157498-1.592176413195375,24.238773578461405-2.226542278592206,36.392801264631998-2.831104765791679,2.210589780277587-.10994530566677,4.421659575611557-.222242268690934,6.63270734452999-.338123966326748.07413771899337.275686736558782.143829213175195.552776897882723.220644555123727.827712481690469.284191260707303,1.019563877078326,1.417680905016823,2.032144791472092,2.343754084098691,2.446852255047816,1.018527750069552.456296000787916,2.455883373151664.540190313422499,3.49182194563582.075919074390185,1.043135455664014-.467445515918371,2.013266230991576-1.250895275186849,2.44680680399324-2.343749140065484.111468368464557-.372125958440847.22294168096596-.744206465828938.334410049432336-1.116332424272514.021006473381931-.134962867173272.027105000597658-.268304090342099.036476003802818-.402001284144717,7.328598124116979-.468455745234678,14.646282476454871-1.077829879106503,21.930686678932034-2.040503385878765,6.778072489369151-.895823035843023,13.519568174424421-2.039962201885828,20.257612716546646-3.193843510209263.037078851621118,1.022391892026462.074152759199933,2.044738332995621.111231610819232,3.067130225023902.045896688208813,1.270876254900941.018025326073257,2.512985705715437.436379979244521,3.736034814247432.6293415998407,1.840217401877453,2.210944574697351,3.153799053859075,4.118599679781255,3.500823351447252,2.312453656521029.420630949458427,4.88064305692933-1.339938390553471,5.156852616022661-3.718496469380625ZM180.367255084813223,85.586640299023202c-.016672285604727-.006142507842924-.034144823508541-.011186211736458-.050797332969523-.017146915358353.014788845781368.00404794039332.02976443982152.008121555692014.044553285601069.012169496084425.002020747715505.001665731806497.004041495429192.003331463612994.006244047368455.004977419273928Z"/>
    <path class="cls-1" d="M130.852984972438207,92.552784407786021c-.176949832026366-6.077545913575705,8.63315236012204-12.899790572646452,8.456192511392146-18.977439602397681-.048590128133583-1.668721993879444-9.66813713042211-.296714034207071-13.466993474108676.148085730631465-3.987725535791469.466893824915132-14.023597988252732,1.556213951642349-13.971532347368338,3.344092733704201.176959848729894,6.077649029751228,11.350387691682045,12.005237283993665,11.527337523704773,18.082783197573008.048590128133583,1.668721993877625,2.55561392965501,3.420904275215435,3.590539613709552,3.141316803678819,3.509162268499495-.948007978708119,3.91653183026574-3.950856964955165,3.864456172670543-5.738838863189812Z"/>
    <path class="cls-1" d="M114.826795646951723,30.558697644256426c.707793727919125-.051511938871045,1.386589159568757.037134365505153,2.034629289681106.265214637857753.648040130114168.228080272353509,1.230214512241218.558098882102968,1.747370803537706.98999413830461s.935618953109952.959596534106822,1.257144990700908,1.5838281089882c.319830723272389.62435495677073.506380556975273,1.290791436751533.557892495844499,1.998585164672477.05157362981663.708641385080227-.037134365504244,1.386589159569667-.26436698069665,2.034567598738249-.228927929512793.648101821057935-.56713067219971,1.223202507254427-1.016303542373862,1.72542544047792-.44917287017779.502222933222583-.977429366586875.913056680601585-1.585678837333035,1.231715275924216-.608126088856807.320353909640289-1.266995345347823.505500867681803-1.974789073268767.557012806552848-.708641385081137.051573629815721-1.38652746862499-.03628670834587-2.034629289682925-.265214637858662-.647978439170402-.227232615194225-1.22252390686117-.55780644344668-1.722727054975621-.990935518541846-.5018984624312-.433005693207633-.912176991309025-.953633275184075-1.230835586629837-1.561882745930234-.319506252481006-.608187779801483-.504591519578753-1.266209379134125-.556165149395383-1.974850764215262-.051511938871045-.707793727920944.035731489844693-1.394156383057634.262639634247535-2.058301999195464.226060487242648-.664083925194063.556079096992107-1.246258307318385.989994138302791-1.747370803535887.432219726993935-.500989114328149.952847308968558-.911267643205065,1.56103508877095-1.23077389568607.608187779800573-.319506252481006,1.266147688189449-.505439176737127,1.974789073270586-.557012806552848ZM132.467844403150593,33.402613884599305c-2.374572959563011,5.191962419171432-4.608201709663263,10.412013786511125-6.703182457998992,15.663729803490241-2.094133091177355,5.251654326034441-4.045315830529944,10.58238041167624-5.85282394278147,15.990421251665794-.026025861505332.099038862993439-.081395252791481.216404086021612-.168651145337208.352280741919458-.147898672945303.204201145584193-.327098969833969.411532513283419-.537662581615223.621146445938393-.242063951302043.245140199653179-.551049516627245.43720484239293-.929376285563194.578074315373669-.378388459881535.140021815821456-.846002773096188.166384611949979-1.402966321535132.077393074065185-.559246113394693-.120354852773744-1.127971869560497-.265584201820275-1.70690154377553-.433931041877258-.578929674213214-.168346840056074-1.090497001698168-.406359354516098-1.533006668134476-.714160925265787-.443357323594682-.307739879806832-.772146279394292-.703919646732174-.984856625911561-1.191205654143232-.213434621786291-.485529002147814-.252135606866432-1.122674747200108-.115131916187238-1.909803611782991.100774508331597-.395061031032128.336755371055915-1.157011691268053.70800427912036-2.285004323547582.371310599008211-1.127144975120245.87025143282699-2.491101872351464,1.499427163880682-4.091208107370221.597675391532903-1.564579968018734,1.282220513872744-3.282051426066573,2.052849400806736-5.15150502603592.769842920719384-1.868544251865387,1.572358308912953-3.756509284705317,2.404278917831107-5.661953020421606.637705097497019-1.471200655876601,1.243544456452582-2.818225172642087,1.818304043083117-4.041982898398601.574821277574301-1.22291006859723,1.13643654353109-2.404808122762915,1.684784106919324-3.546541819656341.548470945277586-1.140038382573039,1.098052327561163-2.264818936281699,1.647958180634305-3.373432313022022.550815201178921-1.107827410524806,1.135547958143434-2.299929382735172,1.75510761899568-3.575519950417402.139956557137339-.301620027944409.30194093099999-.523037096559165.48576804874574-.666794177319389.15173952758596-.139717510540322.362879120586513-.236037822521212.635114093318407-.289084317829293.27066304030086-.05122779910198.623153767217445.003220377456273,1.055961939260669.166010883041963.400597199990443.165134761486115.876206423865369.365713336308545,1.427613637830291.600826376364239.551407213966741.235113040055694,1.056842225760192.505953436010714,1.516243344436589.811673530707594.45861515245997.306629442799931.822061955379468.628706533950208,1.089431060658171.965445307235314.267369105275066.336738773284196.318848414804961.704528257292623.153713653318846,1.105125457285794ZM131.578736551953625,55.223484392203318c.708641385081137-.051573629815721,1.394218074001401.036579147002158,2.059149656355657.262577943301039.663359649923223.227817492506801,1.246381689208647.557774411311584,1.747370803535887.9899941383037.500203148114451.433129075096076.91109858643722.962233228664445,1.232562933084409,1.58561714638563.319892414216156.625202613930924.506380556975273,1.290791436751533.557954186790084,1.99943282183267.05157362981663.708641385080227-.037134365504244,1.386589159568757-.26436698069665,2.034567598738249-.228989620460197.647254163898651-.558946539262251,1.230276203184076-.98999413830461,1.747370803535887-.431956947146318.516308634137204-.960444191267015.935680644053718-1.583889799934695,1.256297333541625-.625140922984428.32074007137544-1.290791436749714.506380556976183-1.999432821830851.557954186791903s-1.38652746862499-.036286708346779-2.03456759873734-.264366980699378c-.647192472955794-.228141963298185-1.230831421687981-.566575453695805-1.749098149990459-1.013728538761825-.518328419246245-.448000742225304-.937700429163669-.97648798634691-1.256297333540715-1.583889799932876-.319506252481006-.608187779801483-.504591519576934-1.266209379135034-.556165149393564-1.974850764215262s.035731489842874-1.394156383057634.26257794330013-2.059149656355657c.226122178188234-.66323626803387.564555668586763-1.246875216766057,1.013728538762734-1.74909814998864.449234561119738-.5013752760633.978338714689016-.912270714387887,1.58561714638563-1.2325629330835.608249470746159-.318658595322631,1.266209379135034-.504591519577843,1.974850764214352-.556165149393564Z"/>
  </g>
  <g>
    <path class="cls-2" d="M74.328187853780037,122.251923648839693c-11.479220344588612,1.763522173497222-23.060260914404353,2.802390381324585-34.670050119373627,3.110219724658236-2.945280513795296.078063971991469-5.414257169832126,3.361201589333177-4.97750246760188,6.192548902584349.496133337866922,3.214873752817766,3.037612149864799,5.061126429163778,6.192548902583439,4.977502467600971,11.609789204967456-.307829343334561,23.190829774783197-1.346697551161924,34.670050119371808-3.110219724659146,2.900521739678879-.445566987595157,5.454690528074934-3.099416330307577,4.97750246760188-6.19254890258253-.44787718320913-2.901466153361071-3.081425520593257-5.455451807019017-6.19254890258162-4.97750246760188Z"/>
    <path class="cls-2" d="M127.927996434556917,117.065102845932415c-11.482624422113076-.434098810876094-22.869629045369948,1.411094172728554-34.233259739849018,2.815010943203561-2.9151481793524.360147099061578-5.445259351121422,3.16075131920752-4.977502467603699,6.192548902580711.458996970413864,2.974942472812472,3.067566293608252,5.363556012617664,6.192548902583439,4.97750246760188,10.30612027234929-1.273247582702425,20.729198198743688-3.059254292024889,31.143099986957168-2.893507653970119.025858002012683.000958326045293.051676451736057.001553043646709.077352649526802.002531145838475,1.570444394550577.059345735462557,2.927388209020137-.056526446294811,4.242422806410104-1.031188611691505,1.084711249590327-.803961546926075,2.045041090077575-2.252493733149095,2.203454979357048-3.616969012707159.170273549651029-1.465147252386487-.074830532597844-3.062259970937703-1.030996919398603-4.242351680445609-.855844046824132-1.056027203068879-2.19407432537264-2.14976594509244-3.61712019798324-2.203576500410236Z"/>
    <path class="cls-2" d="M173.768793890214511,113.234968956934608c-10.679756230607381.840113470044344-21.359507517174279,1.680272391144172-32.03944555200178,2.52040563733317-2.932359019650903.230675079385946-5.431158991474149,3.253172750128215-4.977502467603699,6.19254890258162.476175658102875,3.085516571117296,3.050801303614207,5.224653768473217,6.19254890258162,4.97750246760279,10.67993803482932-.840133246189907,21.359689321398037-1.680292167288826,32.03944555200178-2.52040563733226,2.932359019650903-.230675079385946,5.43115899147233-3.253172750128215,4.977502467603699-6.19254890258253-.476175658101056-3.085516571115477-3.050619499395907-5.224673544619691-6.19254890258162-4.97750246760279Z"/>
    <path class="cls-2" d="M223.637146660657891,108.316078748797736c-11.424550473548152,1.060338330495142-22.848919142870727,2.120656884842901-34.273282868161914,3.181020890249783-2.927707806338731.271743057301137-5.435807272890088,3.223969577523349-4.97750246760188,6.19254890258253.470717679814697,3.050560890624183,3.055405326820619,5.268670166226912,6.19254890258162,4.977502467600971,11.424363725289368-1.060364005404153,22.848732394615581-2.120682559752822,34.273282868160095-3.181020890248874,2.92752600212043-.271723281158302,5.435625468669969-3.223949801376875,4.977502467607337-6.19254890258253-.470722623857-3.050606341678758-3.055592075083041-5.268695841134104-6.192548902585258-4.97750246760188Z"/>
    <path class="cls-2" d="M183.299824054107376,90.5259633178066c.132370460558377-1.140527941175606-.129166123078903-2.232551164845063-.690219507752772-3.123674598058642-.020567495854266-.278708633075439-.056404977676721-.560815014383479-.065394730416301-.809188699002334-.035888669312044-.991156958500142-.071772394594518-1.982268465943889-.107837924091655-2.973360197242073-.067312126477191-1.858399781023763-.134619308919355-3.716754110992952-.201926491361519-5.57510844096123s-.134796169106266-3.716688883790994-.202103351546612-5.575043213758363c-.034866584255724-.961467360858478-.071944483388506-1.922970114289456-.092143129008036-2.884883290474136-.010129771348147-.478699822158887-.016593794047367-.957522460914333-.01624701192668-1.436304149146054-.000104670078144-.195441242201014.001810282426959-.390918217789476.004108619521503-.586252941451676.000225175417654-.001312181842877.000141126798553-.002084849786115.000184497994269-.00337725548161.045689062853853-1.257568332616756-.043955312812614-2.340420256733523-.824834885170276-3.393886479340836-.643140787153243-.867845676589241-1.801933141712652-1.636140774839987-2.893697147193961-1.762870290538558-2.1695663879309-.251942472721566-5.065379428486267,1.205924839396175-5.156670811804361,3.718476693232333-.106276948832601,2.924402515410293-.034567770180729,5.851426877867198.075985489662344,8.777031211661779-12.37727207266289,2.117137658023239-24.741913995079813,4.020616895861167-37.272470543968666,4.96704219167168-2.119412101248599.160088699770313-4.240007634001813.299151257188896-6.360863632058681.430745964140442-.249198280429482-.966758035183375-.734441078750024-1.839086482540552-1.537345572260165-2.484535207843692-.859327220381601-.690634782115012-2.194165571421763-1.135931741398053-3.30174740741495-.96500236537031-1.149916374293753.17746593861466-2.307082152901785.687392059176091-3.017040115733835,1.652342109742676-.488629657100319.66420564321561-.865789600415155,1.463634214858757-.97350979091425,2.294689127185848-7.43081150899161.382813678646926-14.865019365741318.712419787873841-22.289328070613919,1.20913033321176-6.673716577422965.446473654451438-13.337907737606656,1.044778110544939-19.969743791754809,1.920233043867484-.164927024567078-1.551705270248021-.340221833796022-3.102328751207097-.497689941241333-4.654799392404129-.23755075803092-2.339412634716609-2.564830163271836-4.35070296050344-4.954039122065296-3.982001974080958-2.423401859419755.373984013976042-4.23650382147207,2.446955464193707-3.982001974081868,4.954039122065296.414279945060116,4.082481407127489.853663704798237,8.162370059215391,1.320671818137271,12.239161834940205.229822999664975,2.007937781994769.466195895345663,4.015209073776532.709098910887406,6.021632071120621.122145019782693,1.007895906756858.25419785617305,2.069670749470788.69039985051495,2.995116134996351.825448517443874,1.750683978923917,2.301000951605602,3.04650660749212,4.25358908061753,3.348310993837913,2.320992558414218.358766880929579,4.875492799523272-1.295964682367412,5.156670811804361-3.718476693235971.163363691453924-1.406909550618366-.289184913030113-2.797179707260511-1.187492215753082-3.788664401788083-.09503127417338-.787385423154774-.189512191645917-1.574784723692574-.282730367638578-2.362413359368475-.083409889004542-.705915616720631-.162456476693478-1.412305860954802-.244416875962997-2.118425137904524,12.071615787157498-1.592176413195375,24.238773578461405-2.226542278592206,36.392801264631998-2.831104765791679,2.210589780277587-.10994530566677,4.421659575611557-.222242268690934,6.63270734452999-.338123966326748.07413771899337.275686736558782.143829213175195.552776897882723.220644555123727.827712481690469.284191260707303,1.019563877078326,1.417680905016823,2.032144791472092,2.343754084098691,2.446852255047816,1.018527750069552.456296000787916,2.455883373151664.540190313422499,3.49182194563582.075919074390185,1.043135455664014-.467445515918371,2.013266230991576-1.250895275186849,2.44680680399324-2.343749140065484.111468368464557-.372125958440847.22294168096596-.744206465828938.334410049432336-1.116332424272514.021006473381931-.134962867173272.027105000597658-.268304090342099.036476003802818-.402001284144717,7.328598124116979-.468455745234678,14.646282476454871-1.077829879106503,21.930686678932034-2.040503385878765,6.778072489369151-.895823035843023,13.519568174424421-2.039962201885828,20.257612716546646-3.193843510209263.037078851621118,1.022391892026462.074152759199933,2.044738332995621.111231610819232,3.067130225023902.045896688208813,1.270876254900941.018025326073257,2.512985705715437.436379979244521,3.736034814247432.6293415998407,1.840217401877453,2.210944574697351,3.153799053859075,4.118599679781255,3.500823351447252,2.312453656521029.420630949458427,4.88064305692933-1.339938390553471,5.156852616022661-3.718496469380625ZM180.367255084813223,85.586640299023202c-.016672285604727-.006142507842924-.034144823508541-.011186211736458-.050797332969523-.017146915358353.014788845781368.00404794039332.02976443982152.008121555692014.044553285601069.012169496084425.002020747715505.001665731806497.004041495429192.003331463612994.006244047368455.004977419273928Z"/>
    <path class="cls-2" d="M130.852984972438207,92.552784407786021c-.176949832026366-6.077545913575705,8.63315236012204-12.899790572646452,8.456192511392146-18.977439602397681-.048590128133583-1.668721993879444-9.66813713042211-.296714034207071-13.466993474108676.148085730631465-3.987725535791469.466893824915132-14.023597988252732,1.556213951642349-13.971532347368338,3.344092733704201.176959848729894,6.077649029751228,11.350387691682045,12.005237283993665,11.527337523704773,18.082783197573008.048590128133583,1.668721993877625,2.55561392965501,3.420904275215435,3.590539613709552,3.141316803678819,3.509162268499495-.948007978708119,3.91653183026574-3.950856964955165,3.864456172670543-5.738838863189812Z"/>
    <path class="cls-2" d="M114.826795646951723,30.558697644256426c.707793727919125-.051511938871045,1.386589159568757.037134365505153,2.034629289681106.265214637857753.648040130114168.228080272353509,1.230214512241218.558098882102968,1.747370803537706.98999413830461s.935618953109952.959596534106822,1.257144990700908,1.5838281089882c.319830723272389.62435495677073.506380556975273,1.290791436751533.557892495844499,1.998585164672477.05157362981663.708641385080227-.037134365504244,1.386589159569667-.26436698069665,2.034567598738249-.228927929512793.648101821057935-.56713067219971,1.223202507254427-1.016303542373862,1.72542544047792-.44917287017779.502222933222583-.977429366586875.913056680601585-1.585678837333035,1.231715275924216-.608126088856807.320353909640289-1.266995345347823.505500867681803-1.974789073268767.557012806552848-.708641385081137.051573629815721-1.38652746862499-.03628670834587-2.034629289682925-.265214637858662-.647978439170402-.227232615194225-1.22252390686117-.55780644344668-1.722727054975621-.990935518541846-.5018984624312-.433005693207633-.912176991309025-.953633275184075-1.230835586629837-1.561882745930234-.319506252481006-.608187779801483-.504591519578753-1.266209379134125-.556165149395383-1.974850764215262-.051511938871045-.707793727920944.035731489844693-1.394156383057634.262639634247535-2.058301999195464.226060487242648-.664083925194063.556079096992107-1.246258307318385.989994138302791-1.747370803535887.432219726993935-.500989114328149.952847308968558-.911267643205065,1.56103508877095-1.23077389568607.608187779800573-.319506252481006,1.266147688189449-.505439176737127,1.974789073270586-.557012806552848ZM132.467844403150593,33.402613884599305c-2.374572959563011,5.191962419171432-4.608201709663263,10.412013786511125-6.703182457998992,15.663729803490241-2.094133091177355,5.251654326034441-4.045315830529944,10.58238041167624-5.85282394278147,15.990421251665794-.026025861505332.099038862993439-.081395252791481.216404086021612-.168651145337208.352280741919458-.147898672945303.204201145584193-.327098969833969.411532513283419-.537662581615223.621146445938393-.242063951302043.245140199653179-.551049516627245.43720484239293-.929376285563194.578074315373669-.378388459881535.140021815821456-.846002773096188.166384611949979-1.402966321535132.077393074065185-.559246113394693-.120354852773744-1.127971869560497-.265584201820275-1.70690154377553-.433931041877258-.578929674213214-.168346840056074-1.090497001698168-.406359354516098-1.533006668134476-.714160925265787-.443357323594682-.307739879806832-.772146279394292-.703919646732174-.984856625911561-1.191205654143232-.213434621786291-.485529002147814-.252135606866432-1.122674747200108-.115131916187238-1.909803611782991.100774508331597-.395061031032128.336755371055915-1.157011691268053.70800427912036-2.285004323547582.371310599008211-1.127144975120245.87025143282699-2.491101872351464,1.499427163880682-4.091208107370221.597675391532903-1.564579968018734,1.282220513872744-3.282051426066573,2.052849400806736-5.15150502603592.769842920719384-1.868544251865387,1.572358308912953-3.756509284705317,2.404278917831107-5.661953020421606.637705097497019-1.471200655876601,1.243544456452582-2.818225172642087,1.818304043083117-4.041982898398601.574821277574301-1.22291006859723,1.13643654353109-2.404808122762915,1.684784106919324-3.546541819656341.548470945277586-1.140038382573039,1.098052327561163-2.264818936281699,1.647958180634305-3.373432313022022.550815201178921-1.107827410524806,1.135547958143434-2.299929382735172,1.75510761899568-3.575519950417402.139956557137339-.301620027944409.30194093099999-.523037096559165.48576804874574-.666794177319389.15173952758596-.139717510540322.362879120586513-.236037822521212.635114093318407-.289084317829293.27066304030086-.05122779910198.623153767217445.003220377456273,1.055961939260669.166010883041963.400597199990443.165134761486115.876206423865369.365713336308545,1.427613637830291.600826376364239.551407213966741.235113040055694,1.056842225760192.505953436010714,1.516243344436589.811673530707594.45861515245997.306629442799931.822061955379468.628706533950208,1.089431060658171.965445307235314.267369105275066.336738773284196.318848414804961.704528257292623.153713653318846,1.105125457285794ZM131.578736551953625,55.223484392203318c.708641385081137-.051573629815721,1.394218074001401.036579147002158,2.059149656355657.262577943301039.663359649923223.227817492506801,1.246381689208647.557774411311584,1.747370803535887.9899941383037.500203148114451.433129075096076.91109858643722.962233228664445,1.232562933084409,1.58561714638563.319892414216156.625202613930924.506380556975273,1.290791436751533.557954186790084,1.99943282183267.05157362981663.708641385080227-.037134365504244,1.386589159568757-.26436698069665,2.034567598738249-.228989620460197.647254163898651-.558946539262251,1.230276203184076-.98999413830461,1.747370803535887-.431956947146318.516308634137204-.960444191267015.935680644053718-1.583889799934695,1.256297333541625-.625140922984428.32074007137544-1.290791436749714.506380556976183-1.999432821830851.557954186791903s-1.38652746862499-.036286708346779-2.03456759873734-.264366980699378c-.647192472955794-.228141963298185-1.230831421687981-.566575453695805-1.749098149990459-1.013728538761825-.518328419246245-.448000742225304-.937700429163669-.97648798634691-1.256297333540715-1.583889799932876-.319506252481006-.608187779801483-.504591519576934-1.266209379135034-.556165149393564-1.974850764215262s.035731489842874-1.394156383057634.26257794330013-2.059149656355657c.226122178188234-.66323626803387.564555668586763-1.246875216766057,1.013728538762734-1.74909814998864.449234561119738-.5013752760633.978338714689016-.912270714387887,1.58561714638563-1.2325629330835.608249470746159-.318658595322631,1.266209379135034-.504591519577843,1.974850764214352-.556165149393564Z"/>
  </g>
  <g>
    <path class="cls-3" d="M74.328187853780037,122.251923648839693c-11.479220344588612,1.763522173497222-23.060260914404353,2.802390381324585-34.670050119373627,3.110219724658236-2.945280513795296.078063971991469-5.414257169832126,3.361201589333177-4.97750246760188,6.192548902584349.496133337866922,3.214873752817766,3.037612149864799,5.061126429163778,6.192548902583439,4.977502467600971,11.609789204967456-.307829343334561,23.190829774783197-1.346697551161924,34.670050119371808-3.110219724659146,2.900521739678879-.445566987595157,5.454690528074934-3.099416330307577,4.97750246760188-6.19254890258253-.44787718320913-2.901466153361071-3.081425520593257-5.455451807019017-6.19254890258162-4.97750246760188Z"/>
    <path class="cls-3" d="M127.927996434556917,117.065102845932415c-11.482624422113076-.434098810876094-22.869629045369948,1.411094172728554-34.233259739849018,2.815010943203561-2.9151481793524.360147099061578-5.445259351121422,3.16075131920752-4.977502467603699,6.192548902580711.458996970413864,2.974942472812472,3.067566293608252,5.363556012617664,6.192548902583439,4.97750246760188,10.30612027234929-1.273247582702425,20.729198198743688-3.059254292024889,31.143099986957168-2.893507653970119.025858002012683.000958326045293.051676451736057.001553043646709.077352649526802.002531145838475,1.570444394550577.059345735462557,2.927388209020137-.056526446294811,4.242422806410104-1.031188611691505,1.084711249590327-.803961546926075,2.045041090077575-2.252493733149095,2.203454979357048-3.616969012707159.170273549651029-1.465147252386487-.074830532597844-3.062259970937703-1.030996919398603-4.242351680445609-.855844046824132-1.056027203068879-2.19407432537264-2.14976594509244-3.61712019798324-2.203576500410236Z"/>
    <path class="cls-3" d="M173.768793890214511,113.234968956934608c-10.679756230607381.840113470044344-21.359507517174279,1.680272391144172-32.03944555200178,2.52040563733317-2.932359019650903.230675079385946-5.431158991474149,3.253172750128215-4.977502467603699,6.19254890258162.476175658102875,3.085516571117296,3.050801303614207,5.224653768473217,6.19254890258162,4.97750246760279,10.67993803482932-.840133246189907,21.359689321398037-1.680292167288826,32.03944555200178-2.52040563733226,2.932359019650903-.230675079385946,5.43115899147233-3.253172750128215,4.977502467603699-6.19254890258253-.476175658101056-3.085516571115477-3.050619499395907-5.224673544619691-6.19254890258162-4.97750246760279Z"/>
    <path class="cls-3" d="M223.637146660657891,108.316078748797736c-11.424550473548152,1.060338330495142-22.848919142870727,2.120656884842901-34.273282868161914,3.181020890249783-2.927707806338731.271743057301137-5.435807272890088,3.223969577523349-4.97750246760188,6.19254890258253.470717679814697,3.050560890624183,3.055405326820619,5.268670166226912,6.19254890258162,4.977502467600971,11.424363725289368-1.060364005404153,22.848732394615581-2.120682559752822,34.273282868160095-3.181020890248874,2.92752600212043-.271723281158302,5.435625468669969-3.223949801376875,4.977502467607337-6.19254890258253-.470722623857-3.050606341678758-3.055592075083041-5.268695841134104-6.192548902585258-4.97750246760188Z"/>
    <path class="cls-3" d="M183.299824054107376,90.5259633178066c.132370460558377-1.140527941175606-.129166123078903-2.232551164845063-.690219507752772-3.123674598058642-.020567495854266-.278708633075439-.056404977676721-.560815014383479-.065394730416301-.809188699002334-.035888669312044-.991156958500142-.071772394594518-1.982268465943889-.107837924091655-2.973360197242073-.067312126477191-1.858399781023763-.134619308919355-3.716754110992952-.201926491361519-5.57510844096123s-.134796169106266-3.716688883790994-.202103351546612-5.575043213758363c-.034866584255724-.961467360858478-.071944483388506-1.922970114289456-.092143129008036-2.884883290474136-.010129771348147-.478699822158887-.016593794047367-.957522460914333-.01624701192668-1.436304149146054-.000104670078144-.195441242201014.001810282426959-.390918217789476.004108619521503-.586252941451676.000225175417654-.001312181842877.000141126798553-.002084849786115.000184497994269-.00337725548161.045689062853853-1.257568332616756-.043955312812614-2.340420256733523-.824834885170276-3.393886479340836-.643140787153243-.867845676589241-1.801933141712652-1.636140774839987-2.893697147193961-1.762870290538558-2.1695663879309-.251942472721566-5.065379428486267,1.205924839396175-5.156670811804361,3.718476693232333-.106276948832601,2.924402515410293-.034567770180729,5.851426877867198.075985489662344,8.777031211661779-12.37727207266289,2.117137658023239-24.741913995079813,4.020616895861167-37.272470543968666,4.96704219167168-2.119412101248599.160088699770313-4.240007634001813.299151257188896-6.360863632058681.430745964140442-.249198280429482-.966758035183375-.734441078750024-1.839086482540552-1.537345572260165-2.484535207843692-.859327220381601-.690634782115012-2.194165571421763-1.135931741398053-3.30174740741495-.96500236537031-1.149916374293753.17746593861466-2.307082152901785.687392059176091-3.017040115733835,1.652342109742676-.488629657100319.66420564321561-.865789600415155,1.463634214858757-.97350979091425,2.294689127185848-7.43081150899161.382813678646926-14.865019365741318.712419787873841-22.289328070613919,1.20913033321176-6.673716577422965.446473654451438-13.337907737606656,1.044778110544939-19.969743791754809,1.920233043867484-.164927024567078-1.551705270248021-.340221833796022-3.102328751207097-.497689941241333-4.654799392404129-.23755075803092-2.339412634716609-2.564830163271836-4.35070296050344-4.954039122065296-3.982001974080958-2.423401859419755.373984013976042-4.23650382147207,2.446955464193707-3.982001974081868,4.954039122065296.414279945060116,4.082481407127489.853663704798237,8.162370059215391,1.320671818137271,12.239161834940205.229822999664975,2.007937781994769.466195895345663,4.015209073776532.709098910887406,6.021632071120621.122145019782693,1.007895906756858.25419785617305,2.069670749470788.69039985051495,2.995116134996351.825448517443874,1.750683978923917,2.301000951605602,3.04650660749212,4.25358908061753,3.348310993837913,2.320992558414218.358766880929579,4.875492799523272-1.295964682367412,5.156670811804361-3.718476693235971.163363691453924-1.406909550618366-.289184913030113-2.797179707260511-1.187492215753082-3.788664401788083-.09503127417338-.787385423154774-.189512191645917-1.574784723692574-.282730367638578-2.362413359368475-.083409889004542-.705915616720631-.162456476693478-1.412305860954802-.244416875962997-2.118425137904524,12.071615787157498-1.592176413195375,24.238773578461405-2.226542278592206,36.392801264631998-2.831104765791679,2.210589780277587-.10994530566677,4.421659575611557-.222242268690934,6.63270734452999-.338123966326748.07413771899337.275686736558782.143829213175195.552776897882723.220644555123727.827712481690469.284191260707303,1.019563877078326,1.417680905016823,2.032144791472092,2.343754084098691,2.446852255047816,1.018527750069552.456296000787916,2.455883373151664.540190313422499,3.49182194563582.075919074390185,1.043135455664014-.467445515918371,2.013266230991576-1.250895275186849,2.44680680399324-2.343749140065484.111468368464557-.372125958440847.22294168096596-.744206465828938.334410049432336-1.116332424272514.021006473381931-.134962867173272.027105000597658-.268304090342099.036476003802818-.402001284144717,7.328598124116979-.468455745234678,14.646282476454871-1.077829879106503,21.930686678932034-2.040503385878765,6.778072489369151-.895823035843023,13.519568174424421-2.039962201885828,20.257612716546646-3.193843510209263.037078851621118,1.022391892026462.074152759199933,2.044738332995621.111231610819232,3.067130225023902.045896688208813,1.270876254900941.018025326073257,2.512985705715437.436379979244521,3.736034814247432.6293415998407,1.840217401877453,2.210944574697351,3.153799053859075,4.118599679781255,3.500823351447252,2.312453656521029.420630949458427,4.88064305692933-1.339938390553471,5.156852616022661-3.718496469380625ZM180.367255084813223,85.586640299023202c-.016672285604727-.006142507842924-.034144823508541-.011186211736458-.050797332969523-.017146915358353.014788845781368.00404794039332.02976443982152.008121555692014.044553285601069.012169496084425.002020747715505.001665731806497.004041495429192.003331463612994.006244047368455.004977419273928Z"/>
    <path class="cls-3" d="M130.852984972438207,92.552784407786021c-.176949832026366-6.077545913575705,8.63315236012204-12.899790572646452,8.456192511392146-18.977439602397681-.048590128133583-1.668721993879444-9.66813713042211-.296714034207071-13.466993474108676.148085730631465-3.987725535791469.466893824915132-14.023597988252732,1.556213951642349-13.971532347368338,3.344092733704201.176959848729894,6.077649029751228,11.350387691682045,12.005237283993665,11.527337523704773,18.082783197573008.048590128133583,1.668721993877625,2.55561392965501,3.420904275215435,3.590539613709552,3.141316803678819,3.509162268499495-.948007978708119,3.91653183026574-3.950856964955165,3.864456172670543-5.738838863189812Z"/>
    <path class="cls-3" d="M114.826795646951723,30.558697644256426c.707793727919125-.051511938871045,1.386589159568757.037134365505153,2.034629289681106.265214637857753.648040130114168.228080272353509,1.230214512241218.558098882102968,1.747370803537706.98999413830461s.935618953109952.959596534106822,1.257144990700908,1.5838281089882c.319830723272389.62435495677073.506380556975273,1.290791436751533.557892495844499,1.998585164672477.05157362981663.708641385080227-.037134365504244,1.386589159569667-.26436698069665,2.034567598738249-.228927929512793.648101821057935-.56713067219971,1.223202507254427-1.016303542373862,1.72542544047792-.44917287017779.502222933222583-.977429366586875.913056680601585-1.585678837333035,1.231715275924216-.608126088856807.320353909640289-1.266995345347823.505500867681803-1.974789073268767.557012806552848-.708641385081137.051573629815721-1.38652746862499-.03628670834587-2.034629289682925-.265214637858662-.647978439170402-.227232615194225-1.22252390686117-.55780644344668-1.722727054975621-.990935518541846-.5018984624312-.433005693207633-.912176991309025-.953633275184075-1.230835586629837-1.561882745930234-.319506252481006-.608187779801483-.504591519578753-1.266209379134125-.556165149395383-1.974850764215262-.051511938871045-.707793727920944.035731489844693-1.394156383057634.262639634247535-2.058301999195464.226060487242648-.664083925194063.556079096992107-1.246258307318385.989994138302791-1.747370803535887.432219726993935-.500989114328149.952847308968558-.911267643205065,1.56103508877095-1.23077389568607.608187779800573-.319506252481006,1.266147688189449-.505439176737127,1.974789073270586-.557012806552848ZM132.467844403150593,33.402613884599305c-2.374572959563011,5.191962419171432-4.608201709663263,10.412013786511125-6.703182457998992,15.663729803490241-2.094133091177355,5.251654326034441-4.045315830529944,10.58238041167624-5.85282394278147,15.990421251665794-.026025861505332.099038862993439-.081395252791481.216404086021612-.168651145337208.352280741919458-.147898672945303.204201145584193-.327098969833969.411532513283419-.537662581615223.621146445938393-.242063951302043.245140199653179-.551049516627245.43720484239293-.929376285563194.578074315373669-.378388459881535.140021815821456-.846002773096188.166384611949979-1.402966321535132.077393074065185-.559246113394693-.120354852773744-1.127971869560497-.265584201820275-1.70690154377553-.433931041877258-.578929674213214-.168346840056074-1.090497001698168-.406359354516098-1.533006668134476-.714160925265787-.443357323594682-.307739879806832-.772146279394292-.703919646732174-.984856625911561-1.191205654143232-.213434621786291-.485529002147814-.252135606866432-1.122674747200108-.115131916187238-1.909803611782991.100774508331597-.395061031032128.336755371055915-1.157011691268053.70800427912036-2.285004323547582.371310599008211-1.127144975120245.87025143282699-2.491101872351464,1.499427163880682-4.091208107370221.597675391532903-1.564579968018734,1.282220513872744-3.282051426066573,2.052849400806736-5.15150502603592.769842920719384-1.868544251865387,1.572358308912953-3.756509284705317,2.404278917831107-5.661953020421606.637705097497019-1.471200655876601,1.243544456452582-2.818225172642087,1.818304043083117-4.041982898398601.574821277574301-1.22291006859723,1.13643654353109-2.404808122762915,1.684784106919324-3.546541819656341.548470945277586-1.140038382573039,1.098052327561163-2.264818936281699,1.647958180634305-3.373432313022022.550815201178921-1.107827410524806,1.135547958143434-2.299929382735172,1.75510761899568-3.575519950417402.139956557137339-.301620027944409.30194093099999-.523037096559165.48576804874574-.666794177319389.15173952758596-.139717510540322.362879120586513-.236037822521212.635114093318407-.289084317829293.27066304030086-.05122779910198.623153767217445.003220377456273,1.055961939260669.166010883041963.400597199990443.165134761486115.876206423865369.365713336308545,1.427613637830291.600826376364239.551407213966741.235113040055694,1.056842225760192.505953436010714,1.516243344436589.811673530707594.45861515245997.306629442799931.822061955379468.628706533950208,1.089431060658171.965445307235314.267369105275066.336738773284196.318848414804961.704528257292623.153713653318846,1.105125457285794ZM131.578736551953625,55.223484392203318c.708641385081137-.051573629815721,1.394218074001401.036579147002158,2.059149656355657.262577943301039.663359649923223.227817492506801,1.246381689208647.557774411311584,1.747370803535887.9899941383037.500203148114451.433129075096076.91109858643722.962233228664445,1.232562933084409,1.58561714638563.319892414216156.625202613930924.506380556975273,1.290791436751533.557954186790084,1.99943282183267.05157362981663.708641385080227-.037134365504244,1.386589159568757-.26436698069665,2.034567598738249-.228989620460197.647254163898651-.558946539262251,1.230276203184076-.98999413830461,1.747370803535887-.431956947146318.516308634137204-.960444191267015.935680644053718-1.583889799934695,1.256297333541625-.625140922984428.32074007137544-1.290791436749714.506380556976183-1.999432821830851.557954186791903s-1.38652746862499-.036286708346779-2.03456759873734-.264366980699378c-.647192472955794-.228141963298185-1.230831421687981-.566575453695805-1.749098149990459-1.013728538761825-.518328419246245-.448000742225304-.937700429163669-.97648798634691-1.256297333540715-1.583889799932876-.319506252481006-.608187779801483-.504591519576934-1.266209379135034-.556165149393564-1.974850764215262s.035731489842874-1.394156383057634.26257794330013-2.059149656355657c.226122178188234-.66323626803387.564555668586763-1.246875216766057,1.013728538762734-1.74909814998864.449234561119738-.5013752760633.978338714689016-.912270714387887,1.58561714638563-1.2325629330835.608249470746159-.318658595322631,1.266209379135034-.504591519577843,1.974850764214352-.556165149393564Z"/>
  </g>
</svg>