<?xml version="1.0" encoding="UTF-8"?>
<svg id="Layer_1" xmlns="http://www.w3.org/2000/svg" viewBox="0 0 280.000000000009095 280">
  <defs>
    <style>
      .cls-1 {
        stroke: #665451;
        stroke-width: 50px;
      }

      .cls-1, .cls-2 {
        fill: none;
        stroke-linecap: round;
        stroke-linejoin: round;
      }

      .cls-3 {
        fill: #fff;
      }

      .cls-2 {
        stroke: #998675;
        stroke-width: 2px;
      }
    </style>
  </defs>
  <g>
    <path d="M73.494681010000932,128.177032792291357c-13.30230006003876,1.063588214475203-26.660847331526384,1.288228955605518-39.991369063061939.672699574474791-3.381809699727455-.156186597704618-6.485089869602234,3.400374874396221-6.220713509112102,6.681533073677201.300436795852875,3.725632875019983,3.05899307319487,6.053412509474583,6.681533073677201,6.220713509113921,13.330521731535555.615529381128908,26.689069003021359.390888639999503,39.99136906306012-.672699574475701,3.361167245062461-.268705839413997,6.509592668071491-3.096996008289352,6.220713509113921-6.681533073678111-.271274561520841-3.362442225009545-3.076315001550029-6.508964590586402-6.681533073677201-6.220713509112102Z"/>
    <path d="M135.352797522615219,126.703360295899074c-13.122910813533963-1.455174857736893-26.326343095985067-.290300532278707-39.466184606748357.3708196250318-3.370804823267463.169594529739697-6.503900097575752,3.168072657021185-6.22071350911574,6.681533073677201.277889648357814,3.447573705804643,3.068096767306997,6.402495865138917,6.68153307367902,6.220713509112102,11.917033585497848-.599573514361509,24.010867085704376-1.777015540195862,35.931400719160592-.718508662336717.029553406944615.003254904229834.059091813252962.006089813455219.088435222693079.009352218003187,1.79478354373714.198991668275994,3.359508758314405.17937636680017,4.947832404237488-.827909804675073,1.310135401517982-.830872717653619,2.53148915046404-2.410798908262223,2.826834528299514-3.961278651823704.317333021166633-1.664860934030003.169648679197053-3.51559876923875-.82769605701651-4.947734905805191-.892722556160152-1.281590619058989-2.335115651167143-2.646631686023284-3.961441775189087-2.826986401183603Z"/>
    <path d="M188.205914747331917,126.137322026894253c-12.309096223403685.07203801067044-24.618190571727609.144128520717459-36.927496792633974.216174031705123-3.379730008180559.019783818030191-6.495449364869273,3.275163874660393-6.220713509113921,6.681533073677201.288354148080543,3.575724670581621,3.060469046176877,6.241915278228589,6.681533073677201,6.220713509113011,12.309306220906365-.072045510987664,24.618400569232108-.144136021033773,36.927496792633974-.216174031705123,3.379730008180559-.019783818029282,6.495449364869273-3.275163874659484,6.220713509113921-6.681533073676292-.288354148078724-3.575724670581621-3.060259048676016-6.241922778547632-6.681533073677201-6.220713509113921Z"/>
    <path d="M245.765427067799465,124.659480413009987c-13.180999922362389.262297451780796-26.361789847218461.524587403242549-39.542577897000228.786929854081791-3.377824938706908.067235753383102-6.498340646319775,3.241309280477253-6.220713509112102,6.681533073678111.285014734015931,3.535210155997447,3.062074125735307,6.292742174266095,6.681533073677201,6.220713509112102,13.180788049779949-.262342450838332,26.361577974639658-.524632402300085,39.542577897000228-.786929854081791,3.377614941207867-.067228253065878,6.498130648818915-3.24130178015821,6.220713509112102-6.681533073676292-.285016609095692-3.535262655374027-3.062285998315929-6.292787173324541-6.681533073677201-6.220713509113921Z"/>
    <path d="M201.022520575959788,100.907670433027306c.246821444776288-1.296007657735572.038178942888408-2.569282201251553-.530466405327388-3.637305973243201-.000324993672621-.321116203295787-.017866043841423-.647399812129152-.007452970186932-.932786458619375.041537926179444-1.138861617474504.083077727431373-2.277670735575157.124407531184261-3.416472353356767.07785806504944-2.135344907961553.155718005175004-4.270637316546527.233577945302386-6.4059297251315.077859940125563-2.135292408586793.155509882748447-4.270577316852723.233369822875829-6.405869725438606.040233007726783-1.104752018172803.07793479493921-2.209729028778384.13501447989438-3.313768588031053.028316725123659-.549436059737673.06084465078311-1.098707129590366.10117436040855-1.647363221835803.016180624506887-.223984883532466.034678721862292-.447842273061724.053604314543918-.671504665727298.000367492777514-.001484983156843.000335616427037-.002377472545049.000493111698233-.003854955383758.157245979657091-1.437365813019824.14482745627538-2.685793530660703-.66219922012715-3.958196924455478-.664659174748522-1.048193820279266-1.928559252784908-2.025309819125141-3.169153795166494-2.26159962082329-2.465315516790724-.469677168481212-5.905516452841766.959520105399861-6.219693421608099,3.831296765759362-.365700447124254,3.342508695487595-.527647018323478,6.702866784971775-.644959739036494,10.064837268868359-14.360962529664903,1.393931361635623-28.689630913722795,2.544063042742891-43.128615771716795,2.583570566948765-2.442203616517872.006694655286083-4.884009784636874-.010805404181156-7.325491598227018-.036885362848807-.204950390248996-1.128691259865263-.688284192961873-2.168853026611032-1.554581765793046-2.975504311390978-.927189462507158-.863140498949178-2.419778022984246-1.484782756692766-3.703325773865799-1.38127399205041-1.332608413236812.107468812936531-2.701253163038928.595333198886692-3.595347439539182,1.641955059531028-.615368203812977.720427676411418-1.114269965997664,1.605118185209903-1.30703085839923,2.548524906414059-8.547656804887083-.181053789287944-17.094768109982397-.423366855456152-25.644472136582408-.473352190199876-7.685333609999361-.044954569872971-15.372414360494076.084883797325347-23.045531530100561.535035850867644-.05958839455343-1.792013700197458-.131148521855721-3.583652381620595-.18212514370498-5.375921095499507-.077117449069192-2.700785423173329-2.57643587300845-5.199833535534708-5.345226458941397-4.976570807289136-2.808416361292984.226465267202911-5.059129817274879,2.450875834547332-4.976570807291864,5.345226458941397.134270674452637,4.713086523966012.297526629554341,9.425295502115659.492698454951096,14.136259433112173.095907739272661,2.320269885010021.199377263736096,4.640322257933803.310401073063986,6.959947121265941.055915972909133,1.165238616737042.118692611011284,2.393048980481581.541395365555218,3.489992693518616.799952066197875,2.075133918032407,2.382862096244935,3.683216839474881,4.595361302392121,4.191939036491931,2.629940707482092.604727752841427,5.695415580810732-1.078543291067945,6.21969342160628-3.831296765760271.304557050465519-1.598696691422447-.098110726228697-3.229694129983727-1.044879381961437-4.440860476790476-.04323500353712-.910271655410725-.085838139490079-1.820513312401999-.126975043076527-2.730912470373369-.036711772780109-.815937783225309-.068383605488634-1.632055574091282-.10341727332343-2.448105859240059,13.966895804969681-.817817408233168,27.963397778297804-.530012943963811,41.942366897979809-.209148836521308,2.542511306874076.058374381046633,5.085768849781743.114093792029962,7.629300131480704.165703251070227.061968641899512.322121071914808.118724847814519.64547963930454.183824701462072.966963212686096.240648216218688,1.192125440775271,1.455176916513665,2.447083250824107,2.481870850515406,2.999577229181341,1.129178454821158.607865625107479,2.769394483793803.823889891672479,3.995304752757875.378235283443246,1.234422662448196-.448692088825737,2.411537788506394-1.265614713518517,2.999524729806581-2.481868975437465.158779814282752-.417160376347965.317561503645265-.834268253320261.476341317928018-1.251428629669135.035329910906512-.152915760796532.05344002656966-.305216495482455.075330097286496-.457652235899332,8.437662898391864.074382763531503,16.874571740863757-.013637551627653,25.302808020576776-.509315530849562,7.842403271788498-.461297249966265,15.663599986688496-1.210216058702827,23.481654216535389-1.970587225964664-.0427790919166,1.174756195554437-.085560058916599,2.349459891732295-.128339150835018,3.524216087286732-.053398412916067,1.460255341113225-.18893593066241,2.881391303910277.188492392369881,4.317901090535997.567745603428193,2.16138334858806,2.270708645866762,3.798663192145796,4.427942973528843,4.355459927985976,2.614995395213555.674911952130969,5.704985370819486-1.128507718965921,6.219903419107141-3.831304266078405ZM198.073748362376136,95.002605956184198c-.018594171531731-.008429864300524-.03819707882576-.015667240741095-.056783750040267-.02388710753803.016610440025033.005872398379324.033432752632507.011789795813456.050043192655721.017662194192781.002176853293349.002077471221128.004353706586699.004154942442256.006740557384546.00622491334525Z"/>
    <path d="M140.749266540675308,98.85613757518513c.304106542447698-6.979641175913457,10.969508075882914-14.063153109955238,11.273611739461558-21.042913292693811.083493640484448-1.916412199177103-11.054962264059213-1.146396104613814-15.445559228452112-.953494182177565-4.608884264591325.202469329117775-16.20087288972536.613801260424225-16.290321733788005,2.667057309225129-.304103663576825,6.979760182739483,12.00628823311672,14.704699493388034,11.702181690667203,21.684340669301491-.083493640486267,1.916412199176193,2.643422953426125,4.133513240201864,3.852769089195135,3.899422213696198,4.100576393622759-.793741435023549,4.817872477729907-4.201037661725422,4.907318442916221-6.254412717351443Z"/>
    <path class="cls-3" d="M127.55376671403792,26.474110784189179c.8154296875,0,1.5859375.158203125,2.3095703125.4736328125s1.36328125.7421875,1.919921875,1.2802734375.9921875,1.177734375,1.30859375,1.919921875c.314453125.7421875.47265625,1.521484375.47265625,2.3369140625,0,.81640625-.158203125,1.5859375-.47265625,2.3095703125-.31640625.7236328125-.751953125,1.3544921875-1.30859375,1.892578125s-1.1962890625.96484375-1.919921875,1.279296875c-.7236328125.31640625-1.494140625.4736328125-2.3095703125.4736328125-.81640625,0-1.5859375-.1572265625-2.3095703125-.4736328125-.7236328125-.314453125-1.3544921875-.7412109375-1.8916015625-1.279296875-.5390625-.5380859375-.9658203125-1.1689453125-1.2802734375-1.892578125-.3154296875-.7236328125-.47265625-1.4931640625-.47265625-2.3095703125,0-.8154296875.1572265625-1.5947265625.47265625-2.3369140625.314453125-.7421875.7412109375-1.3818359375,1.2802734375-1.919921875.537109375-.5380859375,1.16796875-.96484375,1.8916015625-1.2802734375s1.4931640625-.4736328125,2.3095703125-.4736328125ZM147.53325890153792,31.204579534189179c-3.154296875,5.751953125-6.1494140625,11.5478515625-8.98828125,17.3916015625-2.837890625,5.84375-5.5185546875,11.7900390625-8.041015625,17.8369140625-.0380859375.111328125-.111328125.2412109375-.22265625.3896484375-.1865234375.2216796875-.4091796875.4443359375-.66796875.6669921875-.2978515625.2607421875-.66796875.455078125-1.11328125.5849609375-.4453125.12890625-.9833984375.1201171875-1.6142578125-.0283203125-.630859375-.1845703125-1.2705078125-.3984375-1.919921875-.6396484375s-1.2158203125-.556640625-1.697265625-.9462890625c-.482421875-.3896484375-.826171875-.87109375-1.029296875-1.447265625-.2041015625-.57421875-.1953125-1.3076171875.02734375-2.1982421875.1484375-.4443359375.482421875-1.2978515625,1.001953125-2.5595703125.51953125-1.2607421875,1.205078125-2.7822265625,2.0595703125-4.5634765625.8154296875-1.7431640625,1.7431640625-3.654296875,2.7822265625-5.732421875,1.0380859375-2.0771484375,2.115234375-4.173828125,3.2275390625-6.2880859375.853515625-1.6328125,1.66015625-3.1259765625,2.4208984375-4.48046875.7607421875-1.353515625,1.5029296875-2.6611328125,2.2265625-3.923828125.7236328125-1.2607421875,1.447265625-2.50390625,2.169921875-3.728515625.7236328125-1.2236328125,1.4931640625-2.541015625,2.3095703125-3.951171875.185546875-.333984375.3896484375-.57421875.6123046875-.7236328125.185546875-.1474609375.435546875-.240234375.751953125-.2783203125.314453125-.0361328125.7138671875.0556640625,1.1962890625.2783203125.4453125.22265625.9736328125.4921875,1.5859375.8076171875s1.1689453125.66796875,1.669921875,1.056640625c.5.3896484375.8896484375.7890625,1.16796875,1.197265625s.306640625.833984375.083984375,1.279296875ZM144.69439171403792,56.137196721689179c.81640625,0,1.5947265625.158203125,2.337890625.47265625.7412109375.31640625,1.3818359375.7431640625,1.919921875,1.2802734375.537109375.5380859375.9638671875,1.1787109375,1.2802734375,1.919921875.314453125.7431640625.47265625,1.521484375.47265625,2.337890625s-.158203125,1.5859375-.47265625,2.3095703125c-.31640625.72265625-.7431640625,1.36328125-1.2802734375,1.919921875-.5380859375.5556640625-1.1787109375.9921875-1.919921875,1.3076171875-.7431640625.3154296875-1.521484375.47265625-2.337890625.47265625s-1.5859375-.1572265625-2.3095703125-.47265625c-.72265625-.3154296875-1.36328125-.751953125-1.919921875-1.3076171875-.556640625-.556640625-.9931640625-1.197265625-1.3076171875-1.919921875-.3154296875-.7236328125-.47265625-1.4931640625-.47265625-2.3095703125s.1572265625-1.5947265625.47265625-2.337890625c.314453125-.7412109375.7509765625-1.3818359375,1.3076171875-1.919921875.556640625-.537109375,1.197265625-.9638671875,1.919921875-1.2802734375.7236328125-.314453125,1.4931640625-.47265625,2.3095703125-.47265625Z"/>
  </g>
  <g>
    <path class="cls-1" d="M73.494681010000932,128.177032792291357c-13.30230006003876,1.063588214475203-26.660847331526384,1.288228955605518-39.991369063061939.672699574474791-3.381809699727455-.156186597704618-6.485089869602234,3.400374874396221-6.220713509112102,6.681533073677201.300436795852875,3.725632875019983,3.05899307319487,6.053412509474583,6.681533073677201,6.220713509113921,13.330521731535555.615529381128908,26.689069003021359.390888639999503,39.99136906306012-.672699574475701,3.361167245062461-.268705839413997,6.509592668071491-3.096996008289352,6.220713509113921-6.681533073678111-.271274561520841-3.362442225009545-3.076315001550029-6.508964590586402-6.681533073677201-6.220713509112102Z"/>
    <path class="cls-1" d="M135.352797522615219,126.703360295899074c-13.122910813533963-1.455174857736893-26.326343095985067-.290300532278707-39.466184606748357.3708196250318-3.370804823267463.169594529739697-6.503900097575752,3.168072657021185-6.22071350911574,6.681533073677201.277889648357814,3.447573705804643,3.068096767306997,6.402495865138917,6.68153307367902,6.220713509112102,11.917033585497848-.599573514361509,24.010867085704376-1.777015540195862,35.931400719160592-.718508662336717.029553406944615.003254904229834.059091813252962.006089813455219.088435222693079.009352218003187,1.79478354373714.198991668275994,3.359508758314405.17937636680017,4.947832404237488-.827909804675073,1.310135401517982-.830872717653619,2.53148915046404-2.410798908262223,2.826834528299514-3.961278651823704.317333021166633-1.664860934030003.169648679197053-3.51559876923875-.82769605701651-4.947734905805191-.892722556160152-1.281590619058989-2.335115651167143-2.646631686023284-3.961441775189087-2.826986401183603Z"/>
    <path class="cls-1" d="M188.205914747331917,126.137322026894253c-12.309096223403685.07203801067044-24.618190571727609.144128520717459-36.927496792633974.216174031705123-3.379730008180559.019783818030191-6.495449364869273,3.275163874660393-6.220713509113921,6.681533073677201.288354148080543,3.575724670581621,3.060469046176877,6.241915278228589,6.681533073677201,6.220713509113011,12.309306220906365-.072045510987664,24.618400569232108-.144136021033773,36.927496792633974-.216174031705123,3.379730008180559-.019783818029282,6.495449364869273-3.275163874659484,6.220713509113921-6.681533073676292-.288354148078724-3.575724670581621-3.060259048676016-6.241922778547632-6.681533073677201-6.220713509113921Z"/>
    <path class="cls-1" d="M245.765427067799465,124.659480413009987c-13.180999922362389.262297451780796-26.361789847218461.524587403242549-39.542577897000228.786929854081791-3.377824938706908.067235753383102-6.498340646319775,3.241309280477253-6.220713509112102,6.681533073678111.285014734015931,3.535210155997447,3.062074125735307,6.292742174266095,6.681533073677201,6.220713509112102,13.180788049779949-.262342450838332,26.361577974639658-.524632402300085,39.542577897000228-.786929854081791,3.377614941207867-.067228253065878,6.498130648818915-3.24130178015821,6.220713509112102-6.681533073676292-.285016609095692-3.535262655374027-3.062285998315929-6.292787173324541-6.681533073677201-6.220713509113921Z"/>
    <path class="cls-1" d="M201.022520575959788,100.907670433027306c.246821444776288-1.296007657735572.038178942888408-2.569282201251553-.530466405327388-3.637305973243201-.000324993672621-.321116203295787-.017866043841423-.647399812129152-.007452970186932-.932786458619375.041537926179444-1.138861617474504.083077727431373-2.277670735575157.124407531184261-3.416472353356767.07785806504944-2.135344907961553.155718005175004-4.270637316546527.233577945302386-6.4059297251315.077859940125563-2.135292408586793.155509882748447-4.270577316852723.233369822875829-6.405869725438606.040233007726783-1.104752018172803.07793479493921-2.209729028778384.13501447989438-3.313768588031053.028316725123659-.549436059737673.06084465078311-1.098707129590366.10117436040855-1.647363221835803.016180624506887-.223984883532466.034678721862292-.447842273061724.053604314543918-.671504665727298.000367492777514-.001484983156843.000335616427037-.002377472545049.000493111698233-.003854955383758.157245979657091-1.437365813019824.14482745627538-2.685793530660703-.66219922012715-3.958196924455478-.664659174748522-1.048193820279266-1.928559252784908-2.025309819125141-3.169153795166494-2.26159962082329-2.465315516790724-.469677168481212-5.905516452841766.959520105399861-6.219693421608099,3.831296765759362-.365700447124254,3.342508695487595-.527647018323478,6.702866784971775-.644959739036494,10.064837268868359-14.360962529664903,1.393931361635623-28.689630913722795,2.544063042742891-43.128615771716795,2.583570566948765-2.442203616517872.006694655286083-4.884009784636874-.010805404181156-7.325491598227018-.036885362848807-.204950390248996-1.128691259865263-.688284192961873-2.168853026611032-1.554581765793046-2.975504311390978-.927189462507158-.863140498949178-2.419778022984246-1.484782756692766-3.703325773865799-1.38127399205041-1.332608413236812.107468812936531-2.701253163038928.595333198886692-3.595347439539182,1.641955059531028-.615368203812977.720427676411418-1.114269965997664,1.605118185209903-1.30703085839923,2.548524906414059-8.547656804887083-.181053789287944-17.094768109982397-.423366855456152-25.644472136582408-.473352190199876-7.685333609999361-.044954569872971-15.372414360494076.084883797325347-23.045531530100561.535035850867644-.05958839455343-1.792013700197458-.131148521855721-3.583652381620595-.18212514370498-5.375921095499507-.077117449069192-2.700785423173329-2.57643587300845-5.199833535534708-5.345226458941397-4.976570807289136-2.808416361292984.226465267202911-5.059129817274879,2.450875834547332-4.976570807291864,5.345226458941397.134270674452637,4.713086523966012.297526629554341,9.425295502115659.492698454951096,14.136259433112173.095907739272661,2.320269885010021.199377263736096,4.640322257933803.310401073063986,6.959947121265941.055915972909133,1.165238616737042.118692611011284,2.393048980481581.541395365555218,3.489992693518616.799952066197875,2.075133918032407,2.382862096244935,3.683216839474881,4.595361302392121,4.191939036491931,2.629940707482092.604727752841427,5.695415580810732-1.078543291067945,6.21969342160628-3.831296765760271.304557050465519-1.598696691422447-.098110726228697-3.229694129983727-1.044879381961437-4.440860476790476-.04323500353712-.910271655410725-.085838139490079-1.820513312401999-.126975043076527-2.730912470373369-.036711772780109-.815937783225309-.068383605488634-1.632055574091282-.10341727332343-2.448105859240059,13.966895804969681-.817817408233168,27.963397778297804-.530012943963811,41.942366897979809-.209148836521308,2.542511306874076.058374381046633,5.085768849781743.114093792029962,7.629300131480704.165703251070227.061968641899512.322121071914808.118724847814519.64547963930454.183824701462072.966963212686096.240648216218688,1.192125440775271,1.455176916513665,2.447083250824107,2.481870850515406,2.999577229181341,1.129178454821158.607865625107479,2.769394483793803.823889891672479,3.995304752757875.378235283443246,1.234422662448196-.448692088825737,2.411537788506394-1.265614713518517,2.999524729806581-2.481868975437465.158779814282752-.417160376347965.317561503645265-.834268253320261.476341317928018-1.251428629669135.035329910906512-.152915760796532.05344002656966-.305216495482455.075330097286496-.457652235899332,8.437662898391864.074382763531503,16.874571740863757-.013637551627653,25.302808020576776-.509315530849562,7.842403271788498-.461297249966265,15.663599986688496-1.210216058702827,23.481654216535389-1.970587225964664-.0427790919166,1.174756195554437-.085560058916599,2.349459891732295-.128339150835018,3.524216087286732-.053398412916067,1.460255341113225-.18893593066241,2.881391303910277.188492392369881,4.317901090535997.567745603428193,2.16138334858806,2.270708645866762,3.798663192145796,4.427942973528843,4.355459927985976,2.614995395213555.674911952130969,5.704985370819486-1.128507718965921,6.219903419107141-3.831304266078405ZM198.073748362376136,95.002605956184198c-.018594171531731-.008429864300524-.03819707882576-.015667240741095-.056783750040267-.02388710753803.016610440025033.005872398379324.033432752632507.011789795813456.050043192655721.017662194192781.002176853293349.002077471221128.004353706586699.004154942442256.006740557384546.00622491334525Z"/>
    <path class="cls-1" d="M140.749266540675308,98.85613757518513c.304106542447698-6.979641175913457,10.969508075882914-14.063153109955238,11.273611739461558-21.042913292693811.083493640484448-1.916412199177103-11.054962264059213-1.146396104613814-15.445559228452112-.953494182177565-4.608884264591325.202469329117775-16.20087288972536.613801260424225-16.290321733788005,2.667057309225129-.304103663576825,6.979760182739483,12.00628823311672,14.704699493388034,11.702181690667203,21.684340669301491-.083493640486267,1.916412199176193,2.643422953426125,4.133513240201864,3.852769089195135,3.899422213696198,4.100576393622759-.793741435023549,4.817872477729907-4.201037661725422,4.907318442916221-6.254412717351443Z"/>
    <path class="cls-1" d="M127.55376671403792,26.474110784189179c.8154296875,0,1.5859375.158203125,2.3095703125.4736328125s1.36328125.7421875,1.919921875,1.2802734375.9921875,1.177734375,1.30859375,1.919921875c.314453125.7421875.47265625,1.521484375.47265625,2.3369140625,0,.81640625-.158203125,1.5859375-.47265625,2.3095703125-.31640625.7236328125-.751953125,1.3544921875-1.30859375,1.892578125s-1.1962890625.96484375-1.919921875,1.279296875c-.7236328125.31640625-1.494140625.4736328125-2.3095703125.4736328125-.81640625,0-1.5859375-.1572265625-2.3095703125-.4736328125-.7236328125-.314453125-1.3544921875-.7412109375-1.8916015625-1.279296875-.5390625-.5380859375-.9658203125-1.1689453125-1.2802734375-1.892578125-.3154296875-.7236328125-.47265625-1.4931640625-.47265625-2.3095703125,0-.8154296875.1572265625-1.5947265625.47265625-2.3369140625.314453125-.7421875.7412109375-1.3818359375,1.2802734375-1.919921875.537109375-.5380859375,1.16796875-.96484375,1.8916015625-1.2802734375s1.4931640625-.4736328125,2.3095703125-.4736328125ZM147.53325890153792,31.204579534189179c-3.154296875,5.751953125-6.1494140625,11.5478515625-8.98828125,17.3916015625-2.837890625,5.84375-5.5185546875,11.7900390625-8.041015625,17.8369140625-.0380859375.111328125-.111328125.2412109375-.22265625.3896484375-.1865234375.2216796875-.4091796875.4443359375-.66796875.6669921875-.2978515625.2607421875-.66796875.455078125-1.11328125.5849609375-.4453125.12890625-.9833984375.1201171875-1.6142578125-.0283203125-.630859375-.1845703125-1.2705078125-.3984375-1.919921875-.6396484375s-1.2158203125-.556640625-1.697265625-.9462890625c-.482421875-.3896484375-.826171875-.87109375-1.029296875-1.447265625-.2041015625-.57421875-.1953125-1.3076171875.02734375-2.1982421875.1484375-.4443359375.482421875-1.2978515625,1.001953125-2.5595703125.51953125-1.2607421875,1.205078125-2.7822265625,2.0595703125-4.5634765625.8154296875-1.7431640625,1.7431640625-3.654296875,2.7822265625-5.732421875,1.0380859375-2.0771484375,2.115234375-4.173828125,3.2275390625-6.2880859375.853515625-1.6328125,1.66015625-3.1259765625,2.4208984375-4.48046875.7607421875-1.353515625,1.5029296875-2.6611328125,2.2265625-3.923828125.7236328125-1.2607421875,1.447265625-2.50390625,2.169921875-3.728515625.7236328125-1.2236328125,1.4931640625-2.541015625,2.3095703125-3.951171875.185546875-.333984375.3896484375-.57421875.6123046875-.7236328125.185546875-.1474609375.435546875-.240234375.751953125-.2783203125.314453125-.0361328125.7138671875.0556640625,1.1962890625.2783203125.4453125.22265625.9736328125.4921875,1.5859375.8076171875s1.1689453125.66796875,1.669921875,1.056640625c.5.3896484375.8896484375.7890625,1.16796875,1.197265625s.306640625.833984375.083984375,1.279296875ZM144.69439171403792,56.137196721689179c.81640625,0,1.5947265625.158203125,2.337890625.47265625.7412109375.31640625,1.3818359375.7431640625,1.919921875,1.2802734375.537109375.5380859375.9638671875,1.1787109375,1.2802734375,1.919921875.314453125.7431640625.47265625,1.521484375.47265625,2.337890625s-.158203125,1.5859375-.47265625,2.3095703125c-.31640625.72265625-.7431640625,1.36328125-1.2802734375,1.919921875-.5380859375.5556640625-1.1787109375.9921875-1.919921875,1.3076171875-.7431640625.3154296875-1.521484375.47265625-2.337890625.47265625s-1.5859375-.1572265625-2.3095703125-.47265625c-.72265625-.3154296875-1.36328125-.751953125-1.919921875-1.3076171875-.556640625-.556640625-.9931640625-1.197265625-1.3076171875-1.919921875-.3154296875-.7236328125-.47265625-1.4931640625-.47265625-2.3095703125s.1572265625-1.5947265625.47265625-2.337890625c.314453125-.7412109375.7509765625-1.3818359375,1.3076171875-1.919921875.556640625-.537109375,1.197265625-.9638671875,1.919921875-1.2802734375.7236328125-.314453125,1.4931640625-.47265625,2.3095703125-.47265625Z"/>
  </g>
  <g>
    <path class="cls-2" d="M73.494681010000932,128.177032792291357c-13.30230006003876,1.063588214475203-26.660847331526384,1.288228955605518-39.991369063061939.672699574474791-3.381809699727455-.156186597704618-6.485089869602234,3.400374874396221-6.220713509112102,6.681533073677201.300436795852875,3.725632875019983,3.05899307319487,6.053412509474583,6.681533073677201,6.220713509113921,13.330521731535555.615529381128908,26.689069003021359.390888639999503,39.99136906306012-.672699574475701,3.361167245062461-.268705839413997,6.509592668071491-3.096996008289352,6.220713509113921-6.681533073678111-.271274561520841-3.362442225009545-3.076315001550029-6.508964590586402-6.681533073677201-6.220713509112102Z"/>
    <path class="cls-2" d="M135.352797522615219,126.703360295899074c-13.122910813533963-1.455174857736893-26.326343095985067-.290300532278707-39.466184606748357.3708196250318-3.370804823267463.169594529739697-6.503900097575752,3.168072657021185-6.22071350911574,6.681533073677201.277889648357814,3.447573705804643,3.068096767306997,6.402495865138917,6.68153307367902,6.220713509112102,11.917033585497848-.599573514361509,24.010867085704376-1.777015540195862,35.931400719160592-.718508662336717.029553406944615.003254904229834.059091813252962.006089813455219.088435222693079.009352218003187,1.79478354373714.198991668275994,3.359508758314405.17937636680017,4.947832404237488-.827909804675073,1.310135401517982-.830872717653619,2.53148915046404-2.410798908262223,2.826834528299514-3.961278651823704.317333021166633-1.664860934030003.169648679197053-3.51559876923875-.82769605701651-4.947734905805191-.892722556160152-1.281590619058989-2.335115651167143-2.646631686023284-3.961441775189087-2.826986401183603Z"/>
    <path class="cls-2" d="M188.205914747331917,126.137322026894253c-12.309096223403685.07203801067044-24.618190571727609.144128520717459-36.927496792633974.216174031705123-3.379730008180559.019783818030191-6.495449364869273,3.275163874660393-6.220713509113921,6.681533073677201.288354148080543,3.575724670581621,3.060469046176877,6.241915278228589,6.681533073677201,6.220713509113011,12.309306220906365-.072045510987664,24.618400569232108-.144136021033773,36.927496792633974-.216174031705123,3.379730008180559-.019783818029282,6.495449364869273-3.275163874659484,6.220713509113921-6.681533073676292-.288354148078724-3.575724670581621-3.060259048676016-6.241922778547632-6.681533073677201-6.220713509113921Z"/>
    <path class="cls-2" d="M245.765427067799465,124.659480413009987c-13.180999922362389.262297451780796-26.361789847218461.524587403242549-39.542577897000228.786929854081791-3.377824938706908.067235753383102-6.498340646319775,3.241309280477253-6.220713509112102,6.681533073678111.285014734015931,3.535210155997447,3.062074125735307,6.292742174266095,6.681533073677201,6.220713509112102,13.180788049779949-.262342450838332,26.361577974639658-.524632402300085,39.542577897000228-.786929854081791,3.377614941207867-.067228253065878,6.498130648818915-3.24130178015821,6.220713509112102-6.681533073676292-.285016609095692-3.535262655374027-3.062285998315929-6.292787173324541-6.681533073677201-6.220713509113921Z"/>
    <path class="cls-2" d="M201.022520575959788,100.907670433027306c.246821444776288-1.296007657735572.038178942888408-2.569282201251553-.530466405327388-3.637305973243201-.000324993672621-.321116203295787-.017866043841423-.647399812129152-.007452970186932-.932786458619375.041537926179444-1.138861617474504.083077727431373-2.277670735575157.124407531184261-3.416472353356767.07785806504944-2.135344907961553.155718005175004-4.270637316546527.233577945302386-6.4059297251315.077859940125563-2.135292408586793.155509882748447-4.270577316852723.233369822875829-6.405869725438606.040233007726783-1.104752018172803.07793479493921-2.209729028778384.13501447989438-3.313768588031053.028316725123659-.549436059737673.06084465078311-1.098707129590366.10117436040855-1.647363221835803.016180624506887-.223984883532466.034678721862292-.447842273061724.053604314543918-.671504665727298.000367492777514-.001484983156843.000335616427037-.002377472545049.000493111698233-.003854955383758.157245979657091-1.437365813019824.14482745627538-2.685793530660703-.66219922012715-3.958196924455478-.664659174748522-1.048193820279266-1.928559252784908-2.025309819125141-3.169153795166494-2.26159962082329-2.465315516790724-.469677168481212-5.905516452841766.959520105399861-6.219693421608099,3.831296765759362-.365700447124254,3.342508695487595-.527647018323478,6.702866784971775-.644959739036494,10.064837268868359-14.360962529664903,1.393931361635623-28.689630913722795,2.544063042742891-43.128615771716795,2.583570566948765-2.442203616517872.006694655286083-4.884009784636874-.010805404181156-7.325491598227018-.036885362848807-.204950390248996-1.128691259865263-.688284192961873-2.168853026611032-1.554581765793046-2.975504311390978-.927189462507158-.863140498949178-2.419778022984246-1.484782756692766-3.703325773865799-1.38127399205041-1.332608413236812.107468812936531-2.701253163038928.595333198886692-3.595347439539182,1.641955059531028-.615368203812977.720427676411418-1.114269965997664,1.605118185209903-1.30703085839923,2.548524906414059-8.547656804887083-.181053789287944-17.094768109982397-.423366855456152-25.644472136582408-.473352190199876-7.685333609999361-.044954569872971-15.372414360494076.084883797325347-23.045531530100561.535035850867644-.05958839455343-1.792013700197458-.131148521855721-3.583652381620595-.18212514370498-5.375921095499507-.077117449069192-2.700785423173329-2.57643587300845-5.199833535534708-5.345226458941397-4.976570807289136-2.808416361292984.226465267202911-5.059129817274879,2.450875834547332-4.976570807291864,5.345226458941397.134270674452637,4.713086523966012.297526629554341,9.425295502115659.492698454951096,14.136259433112173.095907739272661,2.320269885010021.199377263736096,4.640322257933803.310401073063986,6.959947121265941.055915972909133,1.165238616737042.118692611011284,2.393048980481581.541395365555218,3.489992693518616.799952066197875,2.075133918032407,2.382862096244935,3.683216839474881,4.595361302392121,4.191939036491931,2.629940707482092.604727752841427,5.695415580810732-1.078543291067945,6.21969342160628-3.831296765760271.304557050465519-1.598696691422447-.098110726228697-3.229694129983727-1.044879381961437-4.440860476790476-.04323500353712-.910271655410725-.085838139490079-1.820513312401999-.126975043076527-2.730912470373369-.036711772780109-.815937783225309-.068383605488634-1.632055574091282-.10341727332343-2.448105859240059,13.966895804969681-.817817408233168,27.963397778297804-.530012943963811,41.942366897979809-.209148836521308,2.542511306874076.058374381046633,5.085768849781743.114093792029962,7.629300131480704.165703251070227.061968641899512.322121071914808.118724847814519.64547963930454.183824701462072.966963212686096.240648216218688,1.192125440775271,1.455176916513665,2.447083250824107,2.481870850515406,2.999577229181341,1.129178454821158.607865625107479,2.769394483793803.823889891672479,3.995304752757875.378235283443246,1.234422662448196-.448692088825737,2.411537788506394-1.265614713518517,2.999524729806581-2.481868975437465.158779814282752-.417160376347965.317561503645265-.834268253320261.476341317928018-1.251428629669135.035329910906512-.152915760796532.05344002656966-.305216495482455.075330097286496-.457652235899332,8.437662898391864.074382763531503,16.874571740863757-.013637551627653,25.302808020576776-.509315530849562,7.842403271788498-.461297249966265,15.663599986688496-1.210216058702827,23.481654216535389-1.970587225964664-.0427790919166,1.174756195554437-.085560058916599,2.349459891732295-.128339150835018,3.524216087286732-.053398412916067,1.460255341113225-.18893593066241,2.881391303910277.188492392369881,4.317901090535997.567745603428193,2.16138334858806,2.270708645866762,3.798663192145796,4.427942973528843,4.355459927985976,2.614995395213555.674911952130969,5.704985370819486-1.128507718965921,6.219903419107141-3.831304266078405ZM198.073748362376136,95.002605956184198c-.018594171531731-.008429864300524-.03819707882576-.015667240741095-.056783750040267-.02388710753803.016610440025033.005872398379324.033432752632507.011789795813456.050043192655721.017662194192781.002176853293349.002077471221128.004353706586699.004154942442256.006740557384546.00622491334525Z"/>
    <path class="cls-2" d="M140.749266540675308,98.85613757518513c.304106542447698-6.979641175913457,10.969508075882914-14.063153109955238,11.273611739461558-21.042913292693811.083493640484448-1.916412199177103-11.054962264059213-1.146396104613814-15.445559228452112-.953494182177565-4.608884264591325.202469329117775-16.20087288972536.613801260424225-16.290321733788005,2.667057309225129-.304103663576825,6.979760182739483,12.00628823311672,14.704699493388034,11.702181690667203,21.684340669301491-.083493640486267,1.916412199176193,2.643422953426125,4.133513240201864,3.852769089195135,3.899422213696198,4.100576393622759-.793741435023549,4.817872477729907-4.201037661725422,4.907318442916221-6.254412717351443Z"/>
    <path class="cls-2" d="M127.55376671403792,26.474110784189179c.8154296875,0,1.5859375.158203125,2.3095703125.4736328125s1.36328125.7421875,1.919921875,1.2802734375.9921875,1.177734375,1.30859375,1.919921875c.314453125.7421875.47265625,1.521484375.47265625,2.3369140625,0,.81640625-.158203125,1.5859375-.47265625,2.3095703125-.31640625.7236328125-.751953125,1.3544921875-1.30859375,1.892578125s-1.1962890625.96484375-1.919921875,1.279296875c-.7236328125.31640625-1.494140625.4736328125-2.3095703125.4736328125-.81640625,0-1.5859375-.1572265625-2.3095703125-.4736328125-.7236328125-.314453125-1.3544921875-.7412109375-1.8916015625-1.279296875-.5390625-.5380859375-.9658203125-1.1689453125-1.2802734375-1.892578125-.3154296875-.7236328125-.47265625-1.4931640625-.47265625-2.3095703125,0-.8154296875.1572265625-1.5947265625.47265625-2.3369140625.314453125-.7421875.7412109375-1.3818359375,1.2802734375-1.919921875.537109375-.5380859375,1.16796875-.96484375,1.8916015625-1.2802734375s1.4931640625-.4736328125,2.3095703125-.4736328125ZM147.53325890153792,31.204579534189179c-3.154296875,5.751953125-6.1494140625,11.5478515625-8.98828125,17.3916015625-2.837890625,5.84375-5.5185546875,11.7900390625-8.041015625,17.8369140625-.0380859375.111328125-.111328125.2412109375-.22265625.3896484375-.1865234375.2216796875-.4091796875.4443359375-.66796875.6669921875-.2978515625.2607421875-.66796875.455078125-1.11328125.5849609375-.4453125.12890625-.9833984375.1201171875-1.6142578125-.0283203125-.630859375-.1845703125-1.2705078125-.3984375-1.919921875-.6396484375s-1.2158203125-.556640625-1.697265625-.9462890625c-.482421875-.3896484375-.826171875-.87109375-1.029296875-1.447265625-.2041015625-.57421875-.1953125-1.3076171875.02734375-2.1982421875.1484375-.4443359375.482421875-1.2978515625,1.001953125-2.5595703125.51953125-1.2607421875,1.205078125-2.7822265625,2.0595703125-4.5634765625.8154296875-1.7431640625,1.7431640625-3.654296875,2.7822265625-5.732421875,1.0380859375-2.0771484375,2.115234375-4.173828125,3.2275390625-6.2880859375.853515625-1.6328125,1.66015625-3.1259765625,2.4208984375-4.48046875.7607421875-1.353515625,1.5029296875-2.6611328125,2.2265625-3.923828125.7236328125-1.2607421875,1.447265625-2.50390625,2.169921875-3.728515625.7236328125-1.2236328125,1.4931640625-2.541015625,2.3095703125-3.951171875.185546875-.333984375.3896484375-.57421875.6123046875-.7236328125.185546875-.1474609375.435546875-.240234375.751953125-.2783203125.314453125-.0361328125.7138671875.0556640625,1.1962890625.2783203125.4453125.22265625.9736328125.4921875,1.5859375.8076171875s1.1689453125.66796875,1.669921875,1.056640625c.5.3896484375.8896484375.7890625,1.16796875,1.197265625s.306640625.833984375.083984375,1.279296875ZM144.69439171403792,56.137196721689179c.81640625,0,1.5947265625.158203125,2.337890625.47265625.7412109375.31640625,1.3818359375.7431640625,1.919921875,1.2802734375.537109375.5380859375.9638671875,1.1787109375,1.2802734375,1.919921875.314453125.7431640625.47265625,1.521484375.47265625,2.337890625s-.158203125,1.5859375-.47265625,2.3095703125c-.31640625.72265625-.7431640625,1.36328125-1.2802734375,1.919921875-.5380859375.5556640625-1.1787109375.9921875-1.919921875,1.3076171875-.7431640625.3154296875-1.521484375.47265625-2.337890625.47265625s-1.5859375-.1572265625-2.3095703125-.47265625c-.72265625-.3154296875-1.36328125-.751953125-1.919921875-1.3076171875-.556640625-.556640625-.9931640625-1.197265625-1.3076171875-1.919921875-.3154296875-.7236328125-.47265625-1.4931640625-.47265625-2.3095703125s.1572265625-1.5947265625.47265625-2.337890625c.314453125-.7412109375.7509765625-1.3818359375,1.3076171875-1.919921875.556640625-.537109375,1.197265625-.9638671875,1.919921875-1.2802734375.7236328125-.314453125,1.4931640625-.47265625,2.3095703125-.47265625Z"/>
  </g>
  <g>
    <path class="cls-3" d="M73.494681010000932,128.177032792291357c-13.30230006003876,1.063588214475203-26.660847331526384,1.288228955605518-39.991369063061939.672699574474791-3.381809699727455-.156186597704618-6.485089869602234,3.400374874396221-6.220713509112102,6.681533073677201.300436795852875,3.725632875019983,3.05899307319487,6.053412509474583,6.681533073677201,6.220713509113921,13.330521731535555.615529381128908,26.689069003021359.390888639999503,39.99136906306012-.672699574475701,3.361167245062461-.268705839413997,6.509592668071491-3.096996008289352,6.220713509113921-6.681533073678111-.271274561520841-3.362442225009545-3.076315001550029-6.508964590586402-6.681533073677201-6.220713509112102Z"/>
    <path class="cls-3" d="M135.352797522615219,126.703360295899074c-13.122910813533963-1.455174857736893-26.326343095985067-.290300532278707-39.466184606748357.3708196250318-3.370804823267463.169594529739697-6.503900097575752,3.168072657021185-6.22071350911574,6.681533073677201.277889648357814,3.447573705804643,3.068096767306997,6.402495865138917,6.68153307367902,6.220713509112102,11.917033585497848-.599573514361509,24.010867085704376-1.777015540195862,35.931400719160592-.718508662336717.029553406944615.003254904229834.059091813252962.006089813455219.088435222693079.009352218003187,1.79478354373714.198991668275994,3.359508758314405.17937636680017,4.947832404237488-.827909804675073,1.310135401517982-.830872717653619,2.53148915046404-2.410798908262223,2.826834528299514-3.961278651823704.317333021166633-1.664860934030003.169648679197053-3.51559876923875-.82769605701651-4.947734905805191-.892722556160152-1.281590619058989-2.335115651167143-2.646631686023284-3.961441775189087-2.826986401183603Z"/>
    <path class="cls-3" d="M188.205914747331917,126.137322026894253c-12.309096223403685.07203801067044-24.618190571727609.144128520717459-36.927496792633974.216174031705123-3.379730008180559.019783818030191-6.495449364869273,3.275163874660393-6.220713509113921,6.681533073677201.288354148080543,3.575724670581621,3.060469046176877,6.241915278228589,6.681533073677201,6.220713509113011,12.309306220906365-.072045510987664,24.618400569232108-.144136021033773,36.927496792633974-.216174031705123,3.379730008180559-.019783818029282,6.495449364869273-3.275163874659484,6.220713509113921-6.681533073676292-.288354148078724-3.575724670581621-3.060259048676016-6.241922778547632-6.681533073677201-6.220713509113921Z"/>
    <path class="cls-3" d="M245.765427067799465,124.659480413009987c-13.180999922362389.262297451780796-26.361789847218461.524587403242549-39.542577897000228.786929854081791-3.377824938706908.067235753383102-6.498340646319775,3.241309280477253-6.220713509112102,6.681533073678111.285014734015931,3.535210155997447,3.062074125735307,6.292742174266095,6.681533073677201,6.220713509112102,13.180788049779949-.262342450838332,26.361577974639658-.524632402300085,39.542577897000228-.786929854081791,3.377614941207867-.067228253065878,6.498130648818915-3.24130178015821,6.220713509112102-6.681533073676292-.285016609095692-3.535262655374027-3.062285998315929-6.292787173324541-6.681533073677201-6.220713509113921Z"/>
    <path class="cls-3" d="M201.022520575959788,100.907670433027306c.246821444776288-1.296007657735572.038178942888408-2.569282201251553-.530466405327388-3.637305973243201-.000324993672621-.321116203295787-.017866043841423-.647399812129152-.007452970186932-.932786458619375.041537926179444-1.138861617474504.083077727431373-2.277670735575157.124407531184261-3.416472353356767.07785806504944-2.135344907961553.155718005175004-4.270637316546527.233577945302386-6.4059297251315.077859940125563-2.135292408586793.155509882748447-4.270577316852723.233369822875829-6.405869725438606.040233007726783-1.104752018172803.07793479493921-2.209729028778384.13501447989438-3.313768588031053.028316725123659-.549436059737673.06084465078311-1.098707129590366.10117436040855-1.647363221835803.016180624506887-.223984883532466.034678721862292-.447842273061724.053604314543918-.671504665727298.000367492777514-.001484983156843.000335616427037-.002377472545049.000493111698233-.003854955383758.157245979657091-1.437365813019824.14482745627538-2.685793530660703-.66219922012715-3.958196924455478-.664659174748522-1.048193820279266-1.928559252784908-2.025309819125141-3.169153795166494-2.26159962082329-2.465315516790724-.469677168481212-5.905516452841766.959520105399861-6.219693421608099,3.831296765759362-.365700447124254,3.342508695487595-.527647018323478,6.702866784971775-.644959739036494,10.064837268868359-14.360962529664903,1.393931361635623-28.689630913722795,2.544063042742891-43.128615771716795,2.583570566948765-2.442203616517872.006694655286083-4.884009784636874-.010805404181156-7.325491598227018-.036885362848807-.204950390248996-1.128691259865263-.688284192961873-2.168853026611032-1.554581765793046-2.975504311390978-.927189462507158-.863140498949178-2.419778022984246-1.484782756692766-3.703325773865799-1.38127399205041-1.332608413236812.107468812936531-2.701253163038928.595333198886692-3.595347439539182,1.641955059531028-.615368203812977.720427676411418-1.114269965997664,1.605118185209903-1.30703085839923,2.548524906414059-8.547656804887083-.181053789287944-17.094768109982397-.423366855456152-25.644472136582408-.473352190199876-7.685333609999361-.044954569872971-15.372414360494076.084883797325347-23.045531530100561.535035850867644-.05958839455343-1.792013700197458-.131148521855721-3.583652381620595-.18212514370498-5.375921095499507-.077117449069192-2.700785423173329-2.57643587300845-5.199833535534708-5.345226458941397-4.976570807289136-2.808416361292984.226465267202911-5.059129817274879,2.450875834547332-4.976570807291864,5.345226458941397.134270674452637,4.713086523966012.297526629554341,9.425295502115659.492698454951096,14.136259433112173.095907739272661,2.320269885010021.199377263736096,4.640322257933803.310401073063986,6.959947121265941.055915972909133,1.165238616737042.118692611011284,2.393048980481581.541395365555218,3.489992693518616.799952066197875,2.075133918032407,2.382862096244935,3.683216839474881,4.595361302392121,4.191939036491931,2.629940707482092.604727752841427,5.695415580810732-1.078543291067945,6.21969342160628-3.831296765760271.304557050465519-1.598696691422447-.098110726228697-3.229694129983727-1.044879381961437-4.440860476790476-.04323500353712-.910271655410725-.085838139490079-1.820513312401999-.126975043076527-2.730912470373369-.036711772780109-.815937783225309-.068383605488634-1.632055574091282-.10341727332343-2.448105859240059,13.966895804969681-.817817408233168,27.963397778297804-.530012943963811,41.942366897979809-.209148836521308,2.542511306874076.058374381046633,5.085768849781743.114093792029962,7.629300131480704.165703251070227.061968641899512.322121071914808.118724847814519.64547963930454.183824701462072.966963212686096.240648216218688,1.192125440775271,1.455176916513665,2.447083250824107,2.481870850515406,2.999577229181341,1.129178454821158.607865625107479,2.769394483793803.823889891672479,3.995304752757875.378235283443246,1.234422662448196-.448692088825737,2.411537788506394-1.265614713518517,2.999524729806581-2.481868975437465.158779814282752-.417160376347965.317561503645265-.834268253320261.476341317928018-1.251428629669135.035329910906512-.152915760796532.05344002656966-.305216495482455.075330097286496-.457652235899332,8.437662898391864.074382763531503,16.874571740863757-.013637551627653,25.302808020576776-.509315530849562,7.842403271788498-.461297249966265,15.663599986688496-1.210216058702827,23.481654216535389-1.970587225964664-.0427790919166,1.174756195554437-.085560058916599,2.349459891732295-.128339150835018,3.524216087286732-.053398412916067,1.460255341113225-.18893593066241,2.881391303910277.188492392369881,4.317901090535997.567745603428193,2.16138334858806,2.270708645866762,3.798663192145796,4.427942973528843,4.355459927985976,2.614995395213555.674911952130969,5.704985370819486-1.128507718965921,6.219903419107141-3.831304266078405ZM198.073748362376136,95.002605956184198c-.018594171531731-.008429864300524-.03819707882576-.015667240741095-.056783750040267-.02388710753803.016610440025033.005872398379324.033432752632507.011789795813456.050043192655721.017662194192781.002176853293349.002077471221128.004353706586699.004154942442256.006740557384546.00622491334525Z"/>
    <path class="cls-3" d="M140.749266540675308,98.85613757518513c.304106542447698-6.979641175913457,10.969508075882914-14.063153109955238,11.273611739461558-21.042913292693811.083493640484448-1.916412199177103-11.054962264059213-1.146396104613814-15.445559228452112-.953494182177565-4.608884264591325.202469329117775-16.20087288972536.613801260424225-16.290321733788005,2.667057309225129-.304103663576825,6.979760182739483,12.00628823311672,14.704699493388034,11.702181690667203,21.684340669301491-.083493640486267,1.916412199176193,2.643422953426125,4.133513240201864,3.852769089195135,3.899422213696198,4.100576393622759-.793741435023549,4.817872477729907-4.201037661725422,4.907318442916221-6.254412717351443Z"/>
    <path class="cls-3" d="M127.55376671403792,26.474110784189179c.8154296875,0,1.5859375.158203125,2.3095703125.4736328125s1.36328125.7421875,1.919921875,1.2802734375.9921875,1.177734375,1.30859375,1.919921875c.314453125.7421875.47265625,1.521484375.47265625,2.3369140625,0,.81640625-.158203125,1.5859375-.47265625,2.3095703125-.31640625.7236328125-.751953125,1.3544921875-1.30859375,1.892578125s-1.1962890625.96484375-1.919921875,1.279296875c-.7236328125.31640625-1.494140625.4736328125-2.3095703125.4736328125-.81640625,0-1.5859375-.1572265625-2.3095703125-.4736328125-.7236328125-.314453125-1.3544921875-.7412109375-1.8916015625-1.279296875-.5390625-.5380859375-.9658203125-1.1689453125-1.2802734375-1.892578125-.3154296875-.7236328125-.47265625-1.4931640625-.47265625-2.3095703125,0-.8154296875.1572265625-1.5947265625.47265625-2.3369140625.314453125-.7421875.7412109375-1.3818359375,1.2802734375-1.919921875.537109375-.5380859375,1.16796875-.96484375,1.8916015625-1.2802734375s1.4931640625-.4736328125,2.3095703125-.4736328125ZM147.53325890153792,31.204579534189179c-3.154296875,5.751953125-6.1494140625,11.5478515625-8.98828125,17.3916015625-2.837890625,5.84375-5.5185546875,11.7900390625-8.041015625,17.8369140625-.0380859375.111328125-.111328125.2412109375-.22265625.3896484375-.1865234375.2216796875-.4091796875.4443359375-.66796875.6669921875-.2978515625.2607421875-.66796875.455078125-1.11328125.5849609375-.4453125.12890625-.9833984375.1201171875-1.6142578125-.0283203125-.630859375-.1845703125-1.2705078125-.3984375-1.919921875-.6396484375s-1.2158203125-.556640625-1.697265625-.9462890625c-.482421875-.3896484375-.826171875-.87109375-1.029296875-1.447265625-.2041015625-.57421875-.1953125-1.3076171875.02734375-2.1982421875.1484375-.4443359375.482421875-1.2978515625,1.001953125-2.5595703125.51953125-1.2607421875,1.205078125-2.7822265625,2.0595703125-4.5634765625.8154296875-1.7431640625,1.7431640625-3.654296875,2.7822265625-5.732421875,1.0380859375-2.0771484375,2.115234375-4.173828125,3.2275390625-6.2880859375.853515625-1.6328125,1.66015625-3.1259765625,2.4208984375-4.48046875.7607421875-1.353515625,1.5029296875-2.6611328125,2.2265625-3.923828125.7236328125-1.2607421875,1.447265625-2.50390625,2.169921875-3.728515625.7236328125-1.2236328125,1.4931640625-2.541015625,2.3095703125-3.951171875.185546875-.333984375.3896484375-.57421875.6123046875-.7236328125.185546875-.1474609375.435546875-.240234375.751953125-.2783203125.314453125-.0361328125.7138671875.0556640625,1.1962890625.2783203125.4453125.22265625.9736328125.4921875,1.5859375.8076171875s1.1689453125.66796875,1.669921875,1.056640625c.5.3896484375.8896484375.7890625,1.16796875,1.197265625s.306640625.833984375.083984375,1.279296875ZM144.69439171403792,56.137196721689179c.81640625,0,1.5947265625.158203125,2.337890625.47265625.7412109375.31640625,1.3818359375.7431640625,1.919921875,1.2802734375.537109375.5380859375.9638671875,1.1787109375,1.2802734375,1.919921875.314453125.7431640625.47265625,1.521484375.47265625,2.337890625s-.158203125,1.5859375-.47265625,2.3095703125c-.31640625.72265625-.7431640625,1.36328125-1.2802734375,1.919921875-.5380859375.5556640625-1.1787109375.9921875-1.919921875,1.3076171875-.7431640625.3154296875-1.521484375.47265625-2.337890625.47265625s-1.5859375-.1572265625-2.3095703125-.47265625c-.72265625-.3154296875-1.36328125-.751953125-1.919921875-1.3076171875-.556640625-.556640625-.9931640625-1.197265625-1.3076171875-1.919921875-.3154296875-.7236328125-.47265625-1.4931640625-.47265625-2.3095703125s.1572265625-1.5947265625.47265625-2.337890625c.314453125-.7412109375.7509765625-1.3818359375,1.3076171875-1.919921875.556640625-.537109375,1.197265625-.9638671875,1.919921875-1.2802734375.7236328125-.314453125,1.4931640625-.47265625,2.3095703125-.47265625Z"/>
  </g>
</svg>