<?xml version="1.0" encoding="UTF-8"?>
<svg id="Content" xmlns="http://www.w3.org/2000/svg" viewBox="0 0 280.000000000009095 280">
  <defs>
    <style>
      .cls-1 {
        stroke: #665451;
        stroke-width: 50px;
      }

      .cls-1, .cls-2 {
        fill: none;
        stroke-linecap: round;
        stroke-linejoin: round;
      }

      .cls-3 {
        fill: #fff;
      }

      .cls-2 {
        stroke: #998675;
        stroke-width: 2px;
      }
    </style>
  </defs>
  <g>
    <path d="M74.328187853778218,122.251923648839693c-11.479220344590431,1.763522173497222-23.060260914398896,2.802390381324585-34.670050119369989,3.110219724658236-2.945280513798934.078063971991469-5.414257169839402,3.361201589333177-4.977502467609156,6.192548902584349.49613333787056,3.214873752817766,3.037612149870256,5.061126429163778,6.192548902588896,4.977502467600971,11.609789204971094-.307829343334561,23.190829774781378-1.346697551161924,34.670050119369989-3.110219724659146,2.900521739680698-.445566987595157,5.454690528071296-3.099416330306667,4.97750246760188-6.19254890258253-.447877183210949-2.90146615336198-3.081425520591438-5.455451807019017-6.19254890258162-4.97750246760188Z"/>
    <path d="M127.927996434558736,117.065102845932415c-11.482624422118533-.434098810876094-22.869629045369948,1.411094172728554-34.233259739849018,2.815010943203561-2.915148179350581.360147099062488-5.445259351119603,3.160751319206611-4.977502467610975,6.192548902580711.458996970419321,2.974942472812472,3.067566293610071,5.363556012617664,6.192548902590715,4.97750246760188,10.30612027234929-1.273247582702425,20.72919819874005-3.059254292024889,31.143099986949892-2.893507653971028.025858002019959.000958326046202.051676451739695.001553043647618.07735264953044.002531145839384,1.570444394550577.059345735461648,2.927388209020137-.056526446294811,4.242422806408285-1.031188611691505,1.084711249590327-.803961546926075,2.045041090081213-2.252493733149095,2.203454979360686-3.616969012707159.170273549651029-1.465147252386487-.074830532599663-3.062259970936793-1.030996919398603-4.242351680445609-.855844046822313-1.056027203068879-2.194074325370821-2.14976594509244-3.617120197981421-2.203576500410236Z"/>
    <path d="M173.768793890209054,113.234968956934608c-10.679756230600105.840113470044344-21.359507517168822,1.680272391144172-32.039445551999961,2.52040563733317-2.932359019650903.230675079385946-5.431158991468692,3.253172750128215-4.977502467600061,6.19254890258162.476175658101056,3.085516571117296,3.050801303610569,5.224653768473217,6.192548902579802,4.97750246760279,10.679938034831139-.840133246189907,21.359689321399856-1.680292167288826,32.039445551999961-2.52040563733226,2.932359019650903-.230675079385946,5.431158991470511-3.253172750128215,4.977502467609156-6.19254890258253-.476175658110151-3.085516571115477-3.050619499397726-5.224673544619691-6.192548902588896-4.97750246760279Z"/>
    <path d="M223.637146660657891,108.316078748797736c-11.424550473548152,1.060338330495142-22.848919142868908,2.120656884842901-34.273282868158276,3.181020890249783-2.92770780634055.271743057301137-5.435807272890088,3.223969577523349-4.977502467610975,6.19254890258253.470717679820154,3.050560890624183,3.055405326820619,5.268670166226912,6.192548902590715,4.977502467600971,11.424363725280273-1.060364005404153,22.848732394610124-2.120682559752822,34.273282868160095-3.181020890248874,2.927526002118611-.271723281158302,5.435625468669969-3.223949801376875,4.977502467600061-6.19254890258253-.470722623849724-3.050606341678758-3.055592075081222-5.268695841135013-6.19254890258162-4.97750246760188Z"/>
    <path d="M183.299824054109195,90.5259633178066c.132370460560196-1.140527941175606-.129166123078903-2.232551164845063-.690219507760048-3.123674598058642-.020567495848809-.278708633076349-.056404977669445-.560815014383479-.065394730409025-.809188699002334-.035888669310225-.991156958500142-.071772394599975-1.982268465943889-.107837924089836-2.973360197242073-.067312126480829-1.858399781023763-.134619308921174-3.716754110992952-.201926491372433-5.57510844096123-.067307182438526-1.858354329970098-.134796169098991-3.716688883790994-.202103351537517-5.575043213758363-.034866584261181-.961467360859388-.071944483392144-1.922970114290365-.092143129011674-2.884883290474136-.010129771349966-.478699822158887-.016593794049186-.957522460915243-.016247011928499-1.436304149146054-.000104670070868-.195441242201014.001810282428778-.390918217789476.004108619528779-.586252941451676.000225175410378-.001312181842877.000141126789458-.002084849786115.000184497990631-.00337725548161.045689062848396-1.257568332616756-.043955312810795-2.340420256733523-.824834885170276-3.393886479340836-.643140787149605-.867845676589241-1.801933141709014-1.636140774839987-2.893697147190323-1.762870290538558-2.169566387939994-.251942472722476-5.065379428489905,1.205924839396175-5.156670811809818,3.718476693232333-.106276948830782,2.924402515410293-.034567770180729,5.851426877867198.075985489660525,8.777031211661779-12.377272072659252,2.117137658023239-24.741913995079813,4.020616895861167-37.272470543970485,4.96704219167168-2.119412101239504.160088699770313-4.240007633999994.299151257188896-6.360863632051405.430745964140442-.249198280427663-.966758035183375-.734441078748205-1.839086482540552-1.537345572258346-2.484535207843692-.859327220390696-.690634782115012-2.194165571429039-1.135931741398053-3.301747407420407-.96500236537031-1.149916374290115.17746593861466-2.307082152899966.687392059176091-3.017040115730197,1.652342109742676-.488629657100319.66420564321561-.865789600420612,1.463634214858757-.973509790919707,2.294689127185848-7.430811508989791.382813678646926-14.865019365741318.712419787873841-22.289328070610281,1.20913033321176-6.673716577419327.446473654451438-13.337907737610294,1.044778110544939-19.969743791758447,1.920233043867484-.164927024561621-1.551705270248021-.340221833790565-3.102328751207097-.497689941241333-4.654799392404129-.23755075803092-2.339412634716609-2.564830163270017-4.35070296050435-4.954039122059839-3.982001974080958-2.423401859419755.373984013976042-4.236503821470251,2.446955464193707-3.982001974080049,4.954039122065296.414279945060116,4.082481407127489.853663704790961,8.162370059215391,1.320671818129995,12.239161834939296.229822999668613,2.007937781995679.466195895349301,4.015209073777442.709098910889224,6.02163207112153.122145019780874,1.007895906756858.254197856171231,2.069670749470788.690399850511312,2.995116134995442.825448517449331,1.750683978924826,2.30100095160924,3.046506607493029,4.253589080619349,3.348310993838822,2.320992558419675.358766880929579,4.875492799530548-1.295964682367412,5.156670811809818-3.718476693235971.163363691450286-1.406909550618366-.289184913030113-2.797179707260511-1.187492215758539-3.788664401788083-.095031274171561-.787385423154774-.18951219164228-1.574784723692574-.282730367631302-2.362413359368475-.083409889009999-.705915616720631-.162456476700754-1.412305860954802-.244416875970273-2.118425137904524,12.071615787159317-1.592176413195375,24.238773578459586-2.226542278592206,36.39280126463018-2.831104765791679,2.210589780279406-.10994530566677,4.421659575618833-.222242268690934,6.63270734452999-.338123966326748.074137719000646.275686736558782.143829213180652.552776897882723.220644555129184.827712481690469.284191260710941,1.019563877078326,1.417680905011366,2.032144791472092,2.34375408410051,2.446852255047816,1.018527750071371.456296000787916,2.455883373149845.540190313422499,3.491821945630363.075919074390185,1.04313545567129-.467445515918371,2.013266230989757-1.250895275187759,2.446806804000516-2.343749140065484.111468368460919-.372125958440847.222941680960503-.744206465828938.334410049428698-1.116332424272514.021006473380112-.134962867173272.027105000601296-.268304090342099.036476003800999-.402001284144717,7.328598124118798-.468455745234678,14.646282476460328-1.077829879106503,21.930686678930215-2.040503385878765,6.778072489369151-.895823035843023,13.519568174429878-2.039962201885828,20.257612716550284-3.193843510209263.037078851619299,1.022391892026462.074152759199933,2.044738332995621.111231610819232,3.067130225024812.045896688210632,1.270876254899122.018025326069619,2.512985705714527.436379979240883,3.736034814246523.629341599838881,1.840217401877453,2.21094457469917,3.153799053859075,4.118599679779436,3.500823351447252,2.312453656530124.420630949458427,4.880643056931149-1.339938390553471,5.156852616029937-3.718496469380625ZM180.367255084809585,85.586640299023202c-.016672285601089-.006142507842924-.03414482351036-.011186211736458-.050797332969523-.017146915358353.014788845779549.00404794039332.029764439819701.008121555692014.04455328559925.012169496084425.002020747720962.001665731806497.004041495431011.003331463612994.006244047370274.004977419273928Z"/>
    <path d="M130.852984972440026,92.552784407786021c-.176949832031823-6.077545913575705,8.633152360118402-12.899790572646452,8.456192511388508-18.977439602397681-.048590128128126-1.668721993879444-9.668137130418472-.296714034207071-13.466993474110495.148085730631465-3.98772553578965.466893824915132-14.023597988249094,1.556213951642349-13.971532347368338,3.344092733704201.176959848729894,6.077649029751228,11.35038769168932,12.005237283993665,11.527337523708411,18.082783197573008.048590128131764,1.668721993877625,2.555613929651372,3.420904275214525,3.590539613711371,3.141316803678819,3.509162268499495-.948007978708119,3.916531830260283-3.950856964955165,3.864456172670543-5.738838863189812Z"/>
    <path class="cls-3" d="M114.826795646949904,30.558697644255517c.707793727919125-.051511938870135,1.386589159568757.037134365506063,2.034629289679287.265214637858662.648040130119625.228080272353509,1.230214512241218.558098882102968,1.747370803539525.98999413830461.517156291300125.431895256200733.935618953109952.959596534106822,1.257144990700908,1.5838281089882.31983072327057.62435495677073.50638055698073,1.290791436750624.557892495849956,1.998585164671567.051573629809354.708641385081137-.037134365509701,1.386589159570576-.264366980700288,2.034567598739159-.228927929510974.648101821057935-.56713067219971,1.223202507254427-1.016303542370224,1.72542544047792-.449172870179609.502222933222583-.977429366588694.913056680601585-1.585678837340311,1.231715275924216-.608126088849531.320353909640289-1.266995345349642.505500867681803-1.974789073268767.557012806552848-.708641385081137.051573629815721-1.386527468621352-.03628670834587-2.034629289681106-.265214637858662-.647978439168583-.227232615194225-1.222523906859351-.55780644344668-1.722727054979259-.990935518541846-.501898462429381-.433005693206724-.91217699129993-.953633275184075-1.230835586629837-1.561882745930234-.319506252481006-.608187779801483-.504591519569658-1.266209379134125-.556165149391745-1.974850764215262-.051511938869226-.707793727920944.035731489841055-1.394156383057634.262639634251173-2.058301999195464.226060487240829-.664083925194063.556079096990288-1.246258307318385.989994138299153-1.747370803535887.432219726990297-.500989114328149.952847308970377-.911267643205065,1.56103508877095-1.23077389568607s1.266147688189449-.505439176737127,1.974789073270586-.557012806553757ZM132.467844403148774,33.402613884599305c-2.374572959559373,5.191962419171432-4.608201709659625,10.412013786511125-6.703182458000811,15.663729803490241-2.094133091179174,5.251654326034441-4.045315830528125,10.58238041167624-5.852823942779651,15.990421251665794-.02602586150897.099038862993439-.081395252789662.216404086021612-.168651145339027.352280741919458-.147898672939846.204201145584193-.327098969830331.411532513283419-.537662581609766.621146445938393-.242063951300224.245140199653179-.551049516630883.43720484239293-.92937628557047.578074315373669-.378388459879716.140021815821456-.846002773088912.166384611949979-1.402966321529675.077393074065185-.55924611340015-.120354852773744-1.127971869560497-.265584201820275-1.706901543779168-.433931041877258-.578929674211395-.168346840056074-1.090497001690892-.406359354516098-1.533006668130838-.714160925265787-.443357323600139-.307739879806832-.772146279399749-.703919646732174-.984856625909742-1.191205654143232-.213434621789929-.485529002147814-.252135606871889-1.122674747200108-.115131916190876-1.909803611782991.100774508329778-.395061031032128.336755371059553-1.157011691268053.70800427912036-2.285004323547582.37131059901003-1.127144975120245.870251432828809-2.491101872351464,1.499427163878863-4.091208107370221.597675391531084-1.564579968018734,1.282220513870925-3.282051426066573,2.052849400810373-5.15150502603592.769842920719384-1.868544251865387,1.572358308911134-3.756509284705317,2.404278917831107-5.661953020422516.637705097498838-1.471200655875691,1.243544456450763-2.818225172641178,1.818304043079479-4.041982898397691.574821277579758-1.22291006859723,1.13643654353109-2.404808122762915,1.684784106919324-3.54654181965725.548470945281224-1.140038382572129,1.098052327561163-2.26481893628079,1.647958180641581-3.373432313022022.550815201168007-1.107827410523896,1.135547958139796-2.299929382734263,1.755107618988404-3.575519950416492.139956557140977-.301620027944409.30194093099999-.523037096559165.485768048751197-.666794177319389.151739527580503-.139717510540322.362879120579237-.236037822522121.635114093318407-.289084317829293.27066304030086-.05122779910198.623153767210169.003220377456273,1.055961939262488.166010883041963.400597199988624.165134761485206.876206423858093.365713336308545,1.427613637828472.600826376364239.551407213959465.235113040055694,1.056842225760192.505953436010714,1.516243344431132.811673530707594.45861515245997.306629442799931.822061955379468.628706533950208,1.08943106065999.965445307234404.267369105278704.336738773285106.318848414808599.704528257293532.153713653318846,1.105125457286704ZM131.578736551949987,55.223484392203318c.708641385079318-.051573629815721,1.394218073997763.036579147001248,2.059149656359295.262577943301039.663359649919585.227817492506801,1.246381689210466.557774411311584,1.74737080353043.9899941383037.500203148119908.433129075096076.911098586439039.962233228663536,1.232562933088047,1.58561714638563.319892414221613.625202613930924.506380556971635,1.290791436751533.557954186791903,1.99943282183267.051573629818449.708641385080227-.037134365500606,1.386589159568757-.264366980700288,2.034567598738249-.228989620460197.647254163898651-.558946539260432,1.230276203184076-.989994138300972,1.747370803534977-.431956947148137.516308634138113-.960444191270653.935680644054628-1.583889799938333,1.256297333542534-.62514092298079.320740071376349-1.290791436749714.506380556976183-1.999432821830851.557954186791903s-1.386527468621352-.036286708346779-2.034567598730064-.264366980699378c-.647192472959432-.228141963299095-1.2308314216898-.566575453695805-1.749098150001373-1.013728538761825-.518328419238969-.448000742226213-.937700429160031-.97648798634691-1.256297333538896-1.583889799932876-.319506252481006-.608187779802392-.504591519569658-1.266209379135034-.556165149389926-1.974850764215262s.035731489839236-1.394156383057634.26257794330013-2.059149656355657c.226122178190053-.66323626803387.564555668590401-1.246875216766057,1.013728538760915-1.74909814998864.449234561117919-.5013752760633.978338714689016-.912270714388796,1.585617146389268-1.2325629330835.608249470749797-.318658595322631,1.266209379129577-.504591519577843,1.974850764210714-.556165149393564Z"/>
  </g>
  <g>
    <path class="cls-1" d="M74.328187853778218,122.251923648839693c-11.479220344590431,1.763522173497222-23.060260914398896,2.802390381324585-34.670050119369989,3.110219724658236-2.945280513798934.078063971991469-5.414257169839402,3.361201589333177-4.977502467609156,6.192548902584349.49613333787056,3.214873752817766,3.037612149870256,5.061126429163778,6.192548902588896,4.977502467600971,11.609789204971094-.307829343334561,23.190829774781378-1.346697551161924,34.670050119369989-3.110219724659146,2.900521739680698-.445566987595157,5.454690528071296-3.099416330306667,4.97750246760188-6.19254890258253-.447877183210949-2.90146615336198-3.081425520591438-5.455451807019017-6.19254890258162-4.97750246760188Z"/>
    <path class="cls-1" d="M127.927996434558736,117.065102845932415c-11.482624422118533-.434098810876094-22.869629045369948,1.411094172728554-34.233259739849018,2.815010943203561-2.915148179350581.360147099062488-5.445259351119603,3.160751319206611-4.977502467610975,6.192548902580711.458996970419321,2.974942472812472,3.067566293610071,5.363556012617664,6.192548902590715,4.97750246760188,10.30612027234929-1.273247582702425,20.72919819874005-3.059254292024889,31.143099986949892-2.893507653971028.025858002019959.000958326046202.051676451739695.001553043647618.07735264953044.002531145839384,1.570444394550577.059345735461648,2.927388209020137-.056526446294811,4.242422806408285-1.031188611691505,1.084711249590327-.803961546926075,2.045041090081213-2.252493733149095,2.203454979360686-3.616969012707159.170273549651029-1.465147252386487-.074830532599663-3.062259970936793-1.030996919398603-4.242351680445609-.855844046822313-1.056027203068879-2.194074325370821-2.14976594509244-3.617120197981421-2.203576500410236Z"/>
    <path class="cls-1" d="M173.768793890209054,113.234968956934608c-10.679756230600105.840113470044344-21.359507517168822,1.680272391144172-32.039445551999961,2.52040563733317-2.932359019650903.230675079385946-5.431158991468692,3.253172750128215-4.977502467600061,6.19254890258162.476175658101056,3.085516571117296,3.050801303610569,5.224653768473217,6.192548902579802,4.97750246760279,10.679938034831139-.840133246189907,21.359689321399856-1.680292167288826,32.039445551999961-2.52040563733226,2.932359019650903-.230675079385946,5.431158991470511-3.253172750128215,4.977502467609156-6.19254890258253-.476175658110151-3.085516571115477-3.050619499397726-5.224673544619691-6.192548902588896-4.97750246760279Z"/>
    <path class="cls-1" d="M223.637146660657891,108.316078748797736c-11.424550473548152,1.060338330495142-22.848919142868908,2.120656884842901-34.273282868158276,3.181020890249783-2.92770780634055.271743057301137-5.435807272890088,3.223969577523349-4.977502467610975,6.19254890258253.470717679820154,3.050560890624183,3.055405326820619,5.268670166226912,6.192548902590715,4.977502467600971,11.424363725280273-1.060364005404153,22.848732394610124-2.120682559752822,34.273282868160095-3.181020890248874,2.927526002118611-.271723281158302,5.435625468669969-3.223949801376875,4.977502467600061-6.19254890258253-.470722623849724-3.050606341678758-3.055592075081222-5.268695841135013-6.19254890258162-4.97750246760188Z"/>
    <path class="cls-1" d="M183.299824054109195,90.5259633178066c.132370460560196-1.140527941175606-.129166123078903-2.232551164845063-.690219507760048-3.123674598058642-.020567495848809-.278708633076349-.056404977669445-.560815014383479-.065394730409025-.809188699002334-.035888669310225-.991156958500142-.071772394599975-1.982268465943889-.107837924089836-2.973360197242073-.067312126480829-1.858399781023763-.134619308921174-3.716754110992952-.201926491372433-5.57510844096123-.067307182438526-1.858354329970098-.134796169098991-3.716688883790994-.202103351537517-5.575043213758363-.034866584261181-.961467360859388-.071944483392144-1.922970114290365-.092143129011674-2.884883290474136-.010129771349966-.478699822158887-.016593794049186-.957522460915243-.016247011928499-1.436304149146054-.000104670070868-.195441242201014.001810282428778-.390918217789476.004108619528779-.586252941451676.000225175410378-.001312181842877.000141126789458-.002084849786115.000184497990631-.00337725548161.045689062848396-1.257568332616756-.043955312810795-2.340420256733523-.824834885170276-3.393886479340836-.643140787149605-.867845676589241-1.801933141709014-1.636140774839987-2.893697147190323-1.762870290538558-2.169566387939994-.251942472722476-5.065379428489905,1.205924839396175-5.156670811809818,3.718476693232333-.106276948830782,2.924402515410293-.034567770180729,5.851426877867198.075985489660525,8.777031211661779-12.377272072659252,2.117137658023239-24.741913995079813,4.020616895861167-37.272470543970485,4.96704219167168-2.119412101239504.160088699770313-4.240007633999994.299151257188896-6.360863632051405.430745964140442-.249198280427663-.966758035183375-.734441078748205-1.839086482540552-1.537345572258346-2.484535207843692-.859327220390696-.690634782115012-2.194165571429039-1.135931741398053-3.301747407420407-.96500236537031-1.149916374290115.17746593861466-2.307082152899966.687392059176091-3.017040115730197,1.652342109742676-.488629657100319.66420564321561-.865789600420612,1.463634214858757-.973509790919707,2.294689127185848-7.430811508989791.382813678646926-14.865019365741318.712419787873841-22.289328070610281,1.20913033321176-6.673716577419327.446473654451438-13.337907737610294,1.044778110544939-19.969743791758447,1.920233043867484-.164927024561621-1.551705270248021-.340221833790565-3.102328751207097-.497689941241333-4.654799392404129-.23755075803092-2.339412634716609-2.564830163270017-4.35070296050435-4.954039122059839-3.982001974080958-2.423401859419755.373984013976042-4.236503821470251,2.446955464193707-3.982001974080049,4.954039122065296.414279945060116,4.082481407127489.853663704790961,8.162370059215391,1.320671818129995,12.239161834939296.229822999668613,2.007937781995679.466195895349301,4.015209073777442.709098910889224,6.02163207112153.122145019780874,1.007895906756858.254197856171231,2.069670749470788.690399850511312,2.995116134995442.825448517449331,1.750683978924826,2.30100095160924,3.046506607493029,4.253589080619349,3.348310993838822,2.320992558419675.358766880929579,4.875492799530548-1.295964682367412,5.156670811809818-3.718476693235971.163363691450286-1.406909550618366-.289184913030113-2.797179707260511-1.187492215758539-3.788664401788083-.095031274171561-.787385423154774-.18951219164228-1.574784723692574-.282730367631302-2.362413359368475-.083409889009999-.705915616720631-.162456476700754-1.412305860954802-.244416875970273-2.118425137904524,12.071615787159317-1.592176413195375,24.238773578459586-2.226542278592206,36.39280126463018-2.831104765791679,2.210589780279406-.10994530566677,4.421659575618833-.222242268690934,6.63270734452999-.338123966326748.074137719000646.275686736558782.143829213180652.552776897882723.220644555129184.827712481690469.284191260710941,1.019563877078326,1.417680905011366,2.032144791472092,2.34375408410051,2.446852255047816,1.018527750071371.456296000787916,2.455883373149845.540190313422499,3.491821945630363.075919074390185,1.04313545567129-.467445515918371,2.013266230989757-1.250895275187759,2.446806804000516-2.343749140065484.111468368460919-.372125958440847.222941680960503-.744206465828938.334410049428698-1.116332424272514.021006473380112-.134962867173272.027105000601296-.268304090342099.036476003800999-.402001284144717,7.328598124118798-.468455745234678,14.646282476460328-1.077829879106503,21.930686678930215-2.040503385878765,6.778072489369151-.895823035843023,13.519568174429878-2.039962201885828,20.257612716550284-3.193843510209263.037078851619299,1.022391892026462.074152759199933,2.044738332995621.111231610819232,3.067130225024812.045896688210632,1.270876254899122.018025326069619,2.512985705714527.436379979240883,3.736034814246523.629341599838881,1.840217401877453,2.21094457469917,3.153799053859075,4.118599679779436,3.500823351447252,2.312453656530124.420630949458427,4.880643056931149-1.339938390553471,5.156852616029937-3.718496469380625ZM180.367255084809585,85.586640299023202c-.016672285601089-.006142507842924-.03414482351036-.011186211736458-.050797332969523-.017146915358353.014788845779549.00404794039332.029764439819701.008121555692014.04455328559925.012169496084425.002020747720962.001665731806497.004041495431011.003331463612994.006244047370274.004977419273928Z"/>
    <path class="cls-1" d="M130.852984972440026,92.552784407786021c-.176949832031823-6.077545913575705,8.633152360118402-12.899790572646452,8.456192511388508-18.977439602397681-.048590128128126-1.668721993879444-9.668137130418472-.296714034207071-13.466993474110495.148085730631465-3.98772553578965.466893824915132-14.023597988249094,1.556213951642349-13.971532347368338,3.344092733704201.176959848729894,6.077649029751228,11.35038769168932,12.005237283993665,11.527337523708411,18.082783197573008.048590128131764,1.668721993877625,2.555613929651372,3.420904275214525,3.590539613711371,3.141316803678819,3.509162268499495-.948007978708119,3.916531830260283-3.950856964955165,3.864456172670543-5.738838863189812Z"/>
    <path class="cls-1" d="M114.826795646949904,30.558697644255517c.707793727919125-.051511938870135,1.386589159568757.037134365506063,2.034629289679287.265214637858662.648040130119625.228080272353509,1.230214512241218.558098882102968,1.747370803539525.98999413830461.517156291300125.431895256200733.935618953109952.959596534106822,1.257144990700908,1.5838281089882.31983072327057.62435495677073.50638055698073,1.290791436750624.557892495849956,1.998585164671567.051573629809354.708641385081137-.037134365509701,1.386589159570576-.264366980700288,2.034567598739159-.228927929510974.648101821057935-.56713067219971,1.223202507254427-1.016303542370224,1.72542544047792-.449172870179609.502222933222583-.977429366588694.913056680601585-1.585678837340311,1.231715275924216-.608126088849531.320353909640289-1.266995345349642.505500867681803-1.974789073268767.557012806552848-.708641385081137.051573629815721-1.386527468621352-.03628670834587-2.034629289681106-.265214637858662-.647978439168583-.227232615194225-1.222523906859351-.55780644344668-1.722727054979259-.990935518541846-.501898462429381-.433005693206724-.91217699129993-.953633275184075-1.230835586629837-1.561882745930234-.319506252481006-.608187779801483-.504591519569658-1.266209379134125-.556165149391745-1.974850764215262-.051511938869226-.707793727920944.035731489841055-1.394156383057634.262639634251173-2.058301999195464.226060487240829-.664083925194063.556079096990288-1.246258307318385.989994138299153-1.747370803535887.432219726990297-.500989114328149.952847308970377-.911267643205065,1.56103508877095-1.23077389568607s1.266147688189449-.505439176737127,1.974789073270586-.557012806553757ZM132.467844403148774,33.402613884599305c-2.374572959559373,5.191962419171432-4.608201709659625,10.412013786511125-6.703182458000811,15.663729803490241-2.094133091179174,5.251654326034441-4.045315830528125,10.58238041167624-5.852823942779651,15.990421251665794-.02602586150897.099038862993439-.081395252789662.216404086021612-.168651145339027.352280741919458-.147898672939846.204201145584193-.327098969830331.411532513283419-.537662581609766.621146445938393-.242063951300224.245140199653179-.551049516630883.43720484239293-.92937628557047.578074315373669-.378388459879716.140021815821456-.846002773088912.166384611949979-1.402966321529675.077393074065185-.55924611340015-.120354852773744-1.127971869560497-.265584201820275-1.706901543779168-.433931041877258-.578929674211395-.168346840056074-1.090497001690892-.406359354516098-1.533006668130838-.714160925265787-.443357323600139-.307739879806832-.772146279399749-.703919646732174-.984856625909742-1.191205654143232-.213434621789929-.485529002147814-.252135606871889-1.122674747200108-.115131916190876-1.909803611782991.100774508329778-.395061031032128.336755371059553-1.157011691268053.70800427912036-2.285004323547582.37131059901003-1.127144975120245.870251432828809-2.491101872351464,1.499427163878863-4.091208107370221.597675391531084-1.564579968018734,1.282220513870925-3.282051426066573,2.052849400810373-5.15150502603592.769842920719384-1.868544251865387,1.572358308911134-3.756509284705317,2.404278917831107-5.661953020422516.637705097498838-1.471200655875691,1.243544456450763-2.818225172641178,1.818304043079479-4.041982898397691.574821277579758-1.22291006859723,1.13643654353109-2.404808122762915,1.684784106919324-3.54654181965725.548470945281224-1.140038382572129,1.098052327561163-2.26481893628079,1.647958180641581-3.373432313022022.550815201168007-1.107827410523896,1.135547958139796-2.299929382734263,1.755107618988404-3.575519950416492.139956557140977-.301620027944409.30194093099999-.523037096559165.485768048751197-.666794177319389.151739527580503-.139717510540322.362879120579237-.236037822522121.635114093318407-.289084317829293.27066304030086-.05122779910198.623153767210169.003220377456273,1.055961939262488.166010883041963.400597199988624.165134761485206.876206423858093.365713336308545,1.427613637828472.600826376364239.551407213959465.235113040055694,1.056842225760192.505953436010714,1.516243344431132.811673530707594.45861515245997.306629442799931.822061955379468.628706533950208,1.08943106065999.965445307234404.267369105278704.336738773285106.318848414808599.704528257293532.153713653318846,1.105125457286704ZM131.578736551949987,55.223484392203318c.708641385079318-.051573629815721,1.394218073997763.036579147001248,2.059149656359295.262577943301039.663359649919585.227817492506801,1.246381689210466.557774411311584,1.74737080353043.9899941383037.500203148119908.433129075096076.911098586439039.962233228663536,1.232562933088047,1.58561714638563.319892414221613.625202613930924.506380556971635,1.290791436751533.557954186791903,1.99943282183267.051573629818449.708641385080227-.037134365500606,1.386589159568757-.264366980700288,2.034567598738249-.228989620460197.647254163898651-.558946539260432,1.230276203184076-.989994138300972,1.747370803534977-.431956947148137.516308634138113-.960444191270653.935680644054628-1.583889799938333,1.256297333542534-.62514092298079.320740071376349-1.290791436749714.506380556976183-1.999432821830851.557954186791903s-1.386527468621352-.036286708346779-2.034567598730064-.264366980699378c-.647192472959432-.228141963299095-1.2308314216898-.566575453695805-1.749098150001373-1.013728538761825-.518328419238969-.448000742226213-.937700429160031-.97648798634691-1.256297333538896-1.583889799932876-.319506252481006-.608187779802392-.504591519569658-1.266209379135034-.556165149389926-1.974850764215262s.035731489839236-1.394156383057634.26257794330013-2.059149656355657c.226122178190053-.66323626803387.564555668590401-1.246875216766057,1.013728538760915-1.74909814998864.449234561117919-.5013752760633.978338714689016-.912270714388796,1.585617146389268-1.2325629330835.608249470749797-.318658595322631,1.266209379129577-.504591519577843,1.974850764210714-.556165149393564Z"/>
  </g>
  <g>
    <path class="cls-2" d="M74.328187853778218,122.251923648839693c-11.479220344590431,1.763522173497222-23.060260914398896,2.802390381324585-34.670050119369989,3.110219724658236-2.945280513798934.078063971991469-5.414257169839402,3.361201589333177-4.977502467609156,6.192548902584349.49613333787056,3.214873752817766,3.037612149870256,5.061126429163778,6.192548902588896,4.977502467600971,11.609789204971094-.307829343334561,23.190829774781378-1.346697551161924,34.670050119369989-3.110219724659146,2.900521739680698-.445566987595157,5.454690528071296-3.099416330306667,4.97750246760188-6.19254890258253-.447877183210949-2.90146615336198-3.081425520591438-5.455451807019017-6.19254890258162-4.97750246760188Z"/>
    <path class="cls-2" d="M127.927996434558736,117.065102845932415c-11.482624422118533-.434098810876094-22.869629045369948,1.411094172728554-34.233259739849018,2.815010943203561-2.915148179350581.360147099062488-5.445259351119603,3.160751319206611-4.977502467610975,6.192548902580711.458996970419321,2.974942472812472,3.067566293610071,5.363556012617664,6.192548902590715,4.97750246760188,10.30612027234929-1.273247582702425,20.72919819874005-3.059254292024889,31.143099986949892-2.893507653971028.025858002019959.000958326046202.051676451739695.001553043647618.07735264953044.002531145839384,1.570444394550577.059345735461648,2.927388209020137-.056526446294811,4.242422806408285-1.031188611691505,1.084711249590327-.803961546926075,2.045041090081213-2.252493733149095,2.203454979360686-3.616969012707159.170273549651029-1.465147252386487-.074830532599663-3.062259970936793-1.030996919398603-4.242351680445609-.855844046822313-1.056027203068879-2.194074325370821-2.14976594509244-3.617120197981421-2.203576500410236Z"/>
    <path class="cls-2" d="M173.768793890209054,113.234968956934608c-10.679756230600105.840113470044344-21.359507517168822,1.680272391144172-32.039445551999961,2.52040563733317-2.932359019650903.230675079385946-5.431158991468692,3.253172750128215-4.977502467600061,6.19254890258162.476175658101056,3.085516571117296,3.050801303610569,5.224653768473217,6.192548902579802,4.97750246760279,10.679938034831139-.840133246189907,21.359689321399856-1.680292167288826,32.039445551999961-2.52040563733226,2.932359019650903-.230675079385946,5.431158991470511-3.253172750128215,4.977502467609156-6.19254890258253-.476175658110151-3.085516571115477-3.050619499397726-5.224673544619691-6.192548902588896-4.97750246760279Z"/>
    <path class="cls-2" d="M223.637146660657891,108.316078748797736c-11.424550473548152,1.060338330495142-22.848919142868908,2.120656884842901-34.273282868158276,3.181020890249783-2.92770780634055.271743057301137-5.435807272890088,3.223969577523349-4.977502467610975,6.19254890258253.470717679820154,3.050560890624183,3.055405326820619,5.268670166226912,6.192548902590715,4.977502467600971,11.424363725280273-1.060364005404153,22.848732394610124-2.120682559752822,34.273282868160095-3.181020890248874,2.927526002118611-.271723281158302,5.435625468669969-3.223949801376875,4.977502467600061-6.19254890258253-.470722623849724-3.050606341678758-3.055592075081222-5.268695841135013-6.19254890258162-4.97750246760188Z"/>
    <path class="cls-2" d="M183.299824054109195,90.5259633178066c.132370460560196-1.140527941175606-.129166123078903-2.232551164845063-.690219507760048-3.123674598058642-.020567495848809-.278708633076349-.056404977669445-.560815014383479-.065394730409025-.809188699002334-.035888669310225-.991156958500142-.071772394599975-1.982268465943889-.107837924089836-2.973360197242073-.067312126480829-1.858399781023763-.134619308921174-3.716754110992952-.201926491372433-5.57510844096123-.067307182438526-1.858354329970098-.134796169098991-3.716688883790994-.202103351537517-5.575043213758363-.034866584261181-.961467360859388-.071944483392144-1.922970114290365-.092143129011674-2.884883290474136-.010129771349966-.478699822158887-.016593794049186-.957522460915243-.016247011928499-1.436304149146054-.000104670070868-.195441242201014.001810282428778-.390918217789476.004108619528779-.586252941451676.000225175410378-.001312181842877.000141126789458-.002084849786115.000184497990631-.00337725548161.045689062848396-1.257568332616756-.043955312810795-2.340420256733523-.824834885170276-3.393886479340836-.643140787149605-.867845676589241-1.801933141709014-1.636140774839987-2.893697147190323-1.762870290538558-2.169566387939994-.251942472722476-5.065379428489905,1.205924839396175-5.156670811809818,3.718476693232333-.106276948830782,2.924402515410293-.034567770180729,5.851426877867198.075985489660525,8.777031211661779-12.377272072659252,2.117137658023239-24.741913995079813,4.020616895861167-37.272470543970485,4.96704219167168-2.119412101239504.160088699770313-4.240007633999994.299151257188896-6.360863632051405.430745964140442-.249198280427663-.966758035183375-.734441078748205-1.839086482540552-1.537345572258346-2.484535207843692-.859327220390696-.690634782115012-2.194165571429039-1.135931741398053-3.301747407420407-.96500236537031-1.149916374290115.17746593861466-2.307082152899966.687392059176091-3.017040115730197,1.652342109742676-.488629657100319.66420564321561-.865789600420612,1.463634214858757-.973509790919707,2.294689127185848-7.430811508989791.382813678646926-14.865019365741318.712419787873841-22.289328070610281,1.20913033321176-6.673716577419327.446473654451438-13.337907737610294,1.044778110544939-19.969743791758447,1.920233043867484-.164927024561621-1.551705270248021-.340221833790565-3.102328751207097-.497689941241333-4.654799392404129-.23755075803092-2.339412634716609-2.564830163270017-4.35070296050435-4.954039122059839-3.982001974080958-2.423401859419755.373984013976042-4.236503821470251,2.446955464193707-3.982001974080049,4.954039122065296.414279945060116,4.082481407127489.853663704790961,8.162370059215391,1.320671818129995,12.239161834939296.229822999668613,2.007937781995679.466195895349301,4.015209073777442.709098910889224,6.02163207112153.122145019780874,1.007895906756858.254197856171231,2.069670749470788.690399850511312,2.995116134995442.825448517449331,1.750683978924826,2.30100095160924,3.046506607493029,4.253589080619349,3.348310993838822,2.320992558419675.358766880929579,4.875492799530548-1.295964682367412,5.156670811809818-3.718476693235971.163363691450286-1.406909550618366-.289184913030113-2.797179707260511-1.187492215758539-3.788664401788083-.095031274171561-.787385423154774-.18951219164228-1.574784723692574-.282730367631302-2.362413359368475-.083409889009999-.705915616720631-.162456476700754-1.412305860954802-.244416875970273-2.118425137904524,12.071615787159317-1.592176413195375,24.238773578459586-2.226542278592206,36.39280126463018-2.831104765791679,2.210589780279406-.10994530566677,4.421659575618833-.222242268690934,6.63270734452999-.338123966326748.074137719000646.275686736558782.143829213180652.552776897882723.220644555129184.827712481690469.284191260710941,1.019563877078326,1.417680905011366,2.032144791472092,2.34375408410051,2.446852255047816,1.018527750071371.456296000787916,2.455883373149845.540190313422499,3.491821945630363.075919074390185,1.04313545567129-.467445515918371,2.013266230989757-1.250895275187759,2.446806804000516-2.343749140065484.111468368460919-.372125958440847.222941680960503-.744206465828938.334410049428698-1.116332424272514.021006473380112-.134962867173272.027105000601296-.268304090342099.036476003800999-.402001284144717,7.328598124118798-.468455745234678,14.646282476460328-1.077829879106503,21.930686678930215-2.040503385878765,6.778072489369151-.895823035843023,13.519568174429878-2.039962201885828,20.257612716550284-3.193843510209263.037078851619299,1.022391892026462.074152759199933,2.044738332995621.111231610819232,3.067130225024812.045896688210632,1.270876254899122.018025326069619,2.512985705714527.436379979240883,3.736034814246523.629341599838881,1.840217401877453,2.21094457469917,3.153799053859075,4.118599679779436,3.500823351447252,2.312453656530124.420630949458427,4.880643056931149-1.339938390553471,5.156852616029937-3.718496469380625ZM180.367255084809585,85.586640299023202c-.016672285601089-.006142507842924-.03414482351036-.011186211736458-.050797332969523-.017146915358353.014788845779549.00404794039332.029764439819701.008121555692014.04455328559925.012169496084425.002020747720962.001665731806497.004041495431011.003331463612994.006244047370274.004977419273928Z"/>
    <path class="cls-2" d="M130.852984972440026,92.552784407786021c-.176949832031823-6.077545913575705,8.633152360118402-12.899790572646452,8.456192511388508-18.977439602397681-.048590128128126-1.668721993879444-9.668137130418472-.296714034207071-13.466993474110495.148085730631465-3.98772553578965.466893824915132-14.023597988249094,1.556213951642349-13.971532347368338,3.344092733704201.176959848729894,6.077649029751228,11.35038769168932,12.005237283993665,11.527337523708411,18.082783197573008.048590128131764,1.668721993877625,2.555613929651372,3.420904275214525,3.590539613711371,3.141316803678819,3.509162268499495-.948007978708119,3.916531830260283-3.950856964955165,3.864456172670543-5.738838863189812Z"/>
    <path class="cls-2" d="M114.826795646949904,30.558697644255517c.707793727919125-.051511938870135,1.386589159568757.037134365506063,2.034629289679287.265214637858662.648040130119625.228080272353509,1.230214512241218.558098882102968,1.747370803539525.98999413830461.517156291300125.431895256200733.935618953109952.959596534106822,1.257144990700908,1.5838281089882.31983072327057.62435495677073.50638055698073,1.290791436750624.557892495849956,1.998585164671567.051573629809354.708641385081137-.037134365509701,1.386589159570576-.264366980700288,2.034567598739159-.228927929510974.648101821057935-.56713067219971,1.223202507254427-1.016303542370224,1.72542544047792-.449172870179609.502222933222583-.977429366588694.913056680601585-1.585678837340311,1.231715275924216-.608126088849531.320353909640289-1.266995345349642.505500867681803-1.974789073268767.557012806552848-.708641385081137.051573629815721-1.386527468621352-.03628670834587-2.034629289681106-.265214637858662-.647978439168583-.227232615194225-1.222523906859351-.55780644344668-1.722727054979259-.990935518541846-.501898462429381-.433005693206724-.91217699129993-.953633275184075-1.230835586629837-1.561882745930234-.319506252481006-.608187779801483-.504591519569658-1.266209379134125-.556165149391745-1.974850764215262-.051511938869226-.707793727920944.035731489841055-1.394156383057634.262639634251173-2.058301999195464.226060487240829-.664083925194063.556079096990288-1.246258307318385.989994138299153-1.747370803535887.432219726990297-.500989114328149.952847308970377-.911267643205065,1.56103508877095-1.23077389568607s1.266147688189449-.505439176737127,1.974789073270586-.557012806553757ZM132.467844403148774,33.402613884599305c-2.374572959559373,5.191962419171432-4.608201709659625,10.412013786511125-6.703182458000811,15.663729803490241-2.094133091179174,5.251654326034441-4.045315830528125,10.58238041167624-5.852823942779651,15.990421251665794-.02602586150897.099038862993439-.081395252789662.216404086021612-.168651145339027.352280741919458-.147898672939846.204201145584193-.327098969830331.411532513283419-.537662581609766.621146445938393-.242063951300224.245140199653179-.551049516630883.43720484239293-.92937628557047.578074315373669-.378388459879716.140021815821456-.846002773088912.166384611949979-1.402966321529675.077393074065185-.55924611340015-.120354852773744-1.127971869560497-.265584201820275-1.706901543779168-.433931041877258-.578929674211395-.168346840056074-1.090497001690892-.406359354516098-1.533006668130838-.714160925265787-.443357323600139-.307739879806832-.772146279399749-.703919646732174-.984856625909742-1.191205654143232-.213434621789929-.485529002147814-.252135606871889-1.122674747200108-.115131916190876-1.909803611782991.100774508329778-.395061031032128.336755371059553-1.157011691268053.70800427912036-2.285004323547582.37131059901003-1.127144975120245.870251432828809-2.491101872351464,1.499427163878863-4.091208107370221.597675391531084-1.564579968018734,1.282220513870925-3.282051426066573,2.052849400810373-5.15150502603592.769842920719384-1.868544251865387,1.572358308911134-3.756509284705317,2.404278917831107-5.661953020422516.637705097498838-1.471200655875691,1.243544456450763-2.818225172641178,1.818304043079479-4.041982898397691.574821277579758-1.22291006859723,1.13643654353109-2.404808122762915,1.684784106919324-3.54654181965725.548470945281224-1.140038382572129,1.098052327561163-2.26481893628079,1.647958180641581-3.373432313022022.550815201168007-1.107827410523896,1.135547958139796-2.299929382734263,1.755107618988404-3.575519950416492.139956557140977-.301620027944409.30194093099999-.523037096559165.485768048751197-.666794177319389.151739527580503-.139717510540322.362879120579237-.236037822522121.635114093318407-.289084317829293.27066304030086-.05122779910198.623153767210169.003220377456273,1.055961939262488.166010883041963.400597199988624.165134761485206.876206423858093.365713336308545,1.427613637828472.600826376364239.551407213959465.235113040055694,1.056842225760192.505953436010714,1.516243344431132.811673530707594.45861515245997.306629442799931.822061955379468.628706533950208,1.08943106065999.965445307234404.267369105278704.336738773285106.318848414808599.704528257293532.153713653318846,1.105125457286704ZM131.578736551949987,55.223484392203318c.708641385079318-.051573629815721,1.394218073997763.036579147001248,2.059149656359295.262577943301039.663359649919585.227817492506801,1.246381689210466.557774411311584,1.74737080353043.9899941383037.500203148119908.433129075096076.911098586439039.962233228663536,1.232562933088047,1.58561714638563.319892414221613.625202613930924.506380556971635,1.290791436751533.557954186791903,1.99943282183267.051573629818449.708641385080227-.037134365500606,1.386589159568757-.264366980700288,2.034567598738249-.228989620460197.647254163898651-.558946539260432,1.230276203184076-.989994138300972,1.747370803534977-.431956947148137.516308634138113-.960444191270653.935680644054628-1.583889799938333,1.256297333542534-.62514092298079.320740071376349-1.290791436749714.506380556976183-1.999432821830851.557954186791903s-1.386527468621352-.036286708346779-2.034567598730064-.264366980699378c-.647192472959432-.228141963299095-1.2308314216898-.566575453695805-1.749098150001373-1.013728538761825-.518328419238969-.448000742226213-.937700429160031-.97648798634691-1.256297333538896-1.583889799932876-.319506252481006-.608187779802392-.504591519569658-1.266209379135034-.556165149389926-1.974850764215262s.035731489839236-1.394156383057634.26257794330013-2.059149656355657c.226122178190053-.66323626803387.564555668590401-1.246875216766057,1.013728538760915-1.74909814998864.449234561117919-.5013752760633.978338714689016-.912270714388796,1.585617146389268-1.2325629330835.608249470749797-.318658595322631,1.266209379129577-.504591519577843,1.974850764210714-.556165149393564Z"/>
  </g>
  <g>
    <path class="cls-3" d="M74.328187853778218,122.251923648839693c-11.479220344590431,1.763522173497222-23.060260914398896,2.802390381324585-34.670050119369989,3.110219724658236-2.945280513798934.078063971991469-5.414257169839402,3.361201589333177-4.977502467609156,6.192548902584349.49613333787056,3.214873752817766,3.037612149870256,5.061126429163778,6.192548902588896,4.977502467600971,11.609789204971094-.307829343334561,23.190829774781378-1.346697551161924,34.670050119369989-3.110219724659146,2.900521739680698-.445566987595157,5.454690528071296-3.099416330306667,4.97750246760188-6.19254890258253-.447877183210949-2.90146615336198-3.081425520591438-5.455451807019017-6.19254890258162-4.97750246760188Z"/>
    <path class="cls-3" d="M127.927996434558736,117.065102845932415c-11.482624422118533-.434098810876094-22.869629045369948,1.411094172728554-34.233259739849018,2.815010943203561-2.915148179350581.360147099062488-5.445259351119603,3.160751319206611-4.977502467610975,6.192548902580711.458996970419321,2.974942472812472,3.067566293610071,5.363556012617664,6.192548902590715,4.97750246760188,10.30612027234929-1.273247582702425,20.72919819874005-3.059254292024889,31.143099986949892-2.893507653971028.025858002019959.000958326046202.051676451739695.001553043647618.07735264953044.002531145839384,1.570444394550577.059345735461648,2.927388209020137-.056526446294811,4.242422806408285-1.031188611691505,1.084711249590327-.803961546926075,2.045041090081213-2.252493733149095,2.203454979360686-3.616969012707159.170273549651029-1.465147252386487-.074830532599663-3.062259970936793-1.030996919398603-4.242351680445609-.855844046822313-1.056027203068879-2.194074325370821-2.14976594509244-3.617120197981421-2.203576500410236Z"/>
    <path class="cls-3" d="M173.768793890209054,113.234968956934608c-10.679756230600105.840113470044344-21.359507517168822,1.680272391144172-32.039445551999961,2.52040563733317-2.932359019650903.230675079385946-5.431158991468692,3.253172750128215-4.977502467600061,6.19254890258162.476175658101056,3.085516571117296,3.050801303610569,5.224653768473217,6.192548902579802,4.97750246760279,10.679938034831139-.840133246189907,21.359689321399856-1.680292167288826,32.039445551999961-2.52040563733226,2.932359019650903-.230675079385946,5.431158991470511-3.253172750128215,4.977502467609156-6.19254890258253-.476175658110151-3.085516571115477-3.050619499397726-5.224673544619691-6.192548902588896-4.97750246760279Z"/>
    <path class="cls-3" d="M223.637146660657891,108.316078748797736c-11.424550473548152,1.060338330495142-22.848919142868908,2.120656884842901-34.273282868158276,3.181020890249783-2.92770780634055.271743057301137-5.435807272890088,3.223969577523349-4.977502467610975,6.19254890258253.470717679820154,3.050560890624183,3.055405326820619,5.268670166226912,6.192548902590715,4.977502467600971,11.424363725280273-1.060364005404153,22.848732394610124-2.120682559752822,34.273282868160095-3.181020890248874,2.927526002118611-.271723281158302,5.435625468669969-3.223949801376875,4.977502467600061-6.19254890258253-.470722623849724-3.050606341678758-3.055592075081222-5.268695841135013-6.19254890258162-4.97750246760188Z"/>
    <path class="cls-3" d="M183.299824054109195,90.5259633178066c.132370460560196-1.140527941175606-.129166123078903-2.232551164845063-.690219507760048-3.123674598058642-.020567495848809-.278708633076349-.056404977669445-.560815014383479-.065394730409025-.809188699002334-.035888669310225-.991156958500142-.071772394599975-1.982268465943889-.107837924089836-2.973360197242073-.067312126480829-1.858399781023763-.134619308921174-3.716754110992952-.201926491372433-5.57510844096123-.067307182438526-1.858354329970098-.134796169098991-3.716688883790994-.202103351537517-5.575043213758363-.034866584261181-.961467360859388-.071944483392144-1.922970114290365-.092143129011674-2.884883290474136-.010129771349966-.478699822158887-.016593794049186-.957522460915243-.016247011928499-1.436304149146054-.000104670070868-.195441242201014.001810282428778-.390918217789476.004108619528779-.586252941451676.000225175410378-.001312181842877.000141126789458-.002084849786115.000184497990631-.00337725548161.045689062848396-1.257568332616756-.043955312810795-2.340420256733523-.824834885170276-3.393886479340836-.643140787149605-.867845676589241-1.801933141709014-1.636140774839987-2.893697147190323-1.762870290538558-2.169566387939994-.251942472722476-5.065379428489905,1.205924839396175-5.156670811809818,3.718476693232333-.106276948830782,2.924402515410293-.034567770180729,5.851426877867198.075985489660525,8.777031211661779-12.377272072659252,2.117137658023239-24.741913995079813,4.020616895861167-37.272470543970485,4.96704219167168-2.119412101239504.160088699770313-4.240007633999994.299151257188896-6.360863632051405.430745964140442-.249198280427663-.966758035183375-.734441078748205-1.839086482540552-1.537345572258346-2.484535207843692-.859327220390696-.690634782115012-2.194165571429039-1.135931741398053-3.301747407420407-.96500236537031-1.149916374290115.17746593861466-2.307082152899966.687392059176091-3.017040115730197,1.652342109742676-.488629657100319.66420564321561-.865789600420612,1.463634214858757-.973509790919707,2.294689127185848-7.430811508989791.382813678646926-14.865019365741318.712419787873841-22.289328070610281,1.20913033321176-6.673716577419327.446473654451438-13.337907737610294,1.044778110544939-19.969743791758447,1.920233043867484-.164927024561621-1.551705270248021-.340221833790565-3.102328751207097-.497689941241333-4.654799392404129-.23755075803092-2.339412634716609-2.564830163270017-4.35070296050435-4.954039122059839-3.982001974080958-2.423401859419755.373984013976042-4.236503821470251,2.446955464193707-3.982001974080049,4.954039122065296.414279945060116,4.082481407127489.853663704790961,8.162370059215391,1.320671818129995,12.239161834939296.229822999668613,2.007937781995679.466195895349301,4.015209073777442.709098910889224,6.02163207112153.122145019780874,1.007895906756858.254197856171231,2.069670749470788.690399850511312,2.995116134995442.825448517449331,1.750683978924826,2.30100095160924,3.046506607493029,4.253589080619349,3.348310993838822,2.320992558419675.358766880929579,4.875492799530548-1.295964682367412,5.156670811809818-3.718476693235971.163363691450286-1.406909550618366-.289184913030113-2.797179707260511-1.187492215758539-3.788664401788083-.095031274171561-.787385423154774-.18951219164228-1.574784723692574-.282730367631302-2.362413359368475-.083409889009999-.705915616720631-.162456476700754-1.412305860954802-.244416875970273-2.118425137904524,12.071615787159317-1.592176413195375,24.238773578459586-2.226542278592206,36.39280126463018-2.831104765791679,2.210589780279406-.10994530566677,4.421659575618833-.222242268690934,6.63270734452999-.338123966326748.074137719000646.275686736558782.143829213180652.552776897882723.220644555129184.827712481690469.284191260710941,1.019563877078326,1.417680905011366,2.032144791472092,2.34375408410051,2.446852255047816,1.018527750071371.456296000787916,2.455883373149845.540190313422499,3.491821945630363.075919074390185,1.04313545567129-.467445515918371,2.013266230989757-1.250895275187759,2.446806804000516-2.343749140065484.111468368460919-.372125958440847.222941680960503-.744206465828938.334410049428698-1.116332424272514.021006473380112-.134962867173272.027105000601296-.268304090342099.036476003800999-.402001284144717,7.328598124118798-.468455745234678,14.646282476460328-1.077829879106503,21.930686678930215-2.040503385878765,6.778072489369151-.895823035843023,13.519568174429878-2.039962201885828,20.257612716550284-3.193843510209263.037078851619299,1.022391892026462.074152759199933,2.044738332995621.111231610819232,3.067130225024812.045896688210632,1.270876254899122.018025326069619,2.512985705714527.436379979240883,3.736034814246523.629341599838881,1.840217401877453,2.21094457469917,3.153799053859075,4.118599679779436,3.500823351447252,2.312453656530124.420630949458427,4.880643056931149-1.339938390553471,5.156852616029937-3.718496469380625ZM180.367255084809585,85.586640299023202c-.016672285601089-.006142507842924-.03414482351036-.011186211736458-.050797332969523-.017146915358353.014788845779549.00404794039332.029764439819701.008121555692014.04455328559925.012169496084425.002020747720962.001665731806497.004041495431011.003331463612994.006244047370274.004977419273928Z"/>
    <path class="cls-3" d="M130.852984972440026,92.552784407786021c-.176949832031823-6.077545913575705,8.633152360118402-12.899790572646452,8.456192511388508-18.977439602397681-.048590128128126-1.668721993879444-9.668137130418472-.296714034207071-13.466993474110495.148085730631465-3.98772553578965.466893824915132-14.023597988249094,1.556213951642349-13.971532347368338,3.344092733704201.176959848729894,6.077649029751228,11.35038769168932,12.005237283993665,11.527337523708411,18.082783197573008.048590128131764,1.668721993877625,2.555613929651372,3.420904275214525,3.590539613711371,3.141316803678819,3.509162268499495-.948007978708119,3.916531830260283-3.950856964955165,3.864456172670543-5.738838863189812Z"/>
    <path class="cls-3" d="M114.826795646949904,30.558697644255517c.707793727919125-.051511938870135,1.386589159568757.037134365506063,2.034629289679287.265214637858662.648040130119625.228080272353509,1.230214512241218.558098882102968,1.747370803539525.98999413830461.517156291300125.431895256200733.935618953109952.959596534106822,1.257144990700908,1.5838281089882.31983072327057.62435495677073.50638055698073,1.290791436750624.557892495849956,1.998585164671567.051573629809354.708641385081137-.037134365509701,1.386589159570576-.264366980700288,2.034567598739159-.228927929510974.648101821057935-.56713067219971,1.223202507254427-1.016303542370224,1.72542544047792-.449172870179609.502222933222583-.977429366588694.913056680601585-1.585678837340311,1.231715275924216-.608126088849531.320353909640289-1.266995345349642.505500867681803-1.974789073268767.557012806552848-.708641385081137.051573629815721-1.386527468621352-.03628670834587-2.034629289681106-.265214637858662-.647978439168583-.227232615194225-1.222523906859351-.55780644344668-1.722727054979259-.990935518541846-.501898462429381-.433005693206724-.91217699129993-.953633275184075-1.230835586629837-1.561882745930234-.319506252481006-.608187779801483-.504591519569658-1.266209379134125-.556165149391745-1.974850764215262-.051511938869226-.707793727920944.035731489841055-1.394156383057634.262639634251173-2.058301999195464.226060487240829-.664083925194063.556079096990288-1.246258307318385.989994138299153-1.747370803535887.432219726990297-.500989114328149.952847308970377-.911267643205065,1.56103508877095-1.23077389568607s1.266147688189449-.505439176737127,1.974789073270586-.557012806553757ZM132.467844403148774,33.402613884599305c-2.374572959559373,5.191962419171432-4.608201709659625,10.412013786511125-6.703182458000811,15.663729803490241-2.094133091179174,5.251654326034441-4.045315830528125,10.58238041167624-5.852823942779651,15.990421251665794-.02602586150897.099038862993439-.081395252789662.216404086021612-.168651145339027.352280741919458-.147898672939846.204201145584193-.327098969830331.411532513283419-.537662581609766.621146445938393-.242063951300224.245140199653179-.551049516630883.43720484239293-.92937628557047.578074315373669-.378388459879716.140021815821456-.846002773088912.166384611949979-1.402966321529675.077393074065185-.55924611340015-.120354852773744-1.127971869560497-.265584201820275-1.706901543779168-.433931041877258-.578929674211395-.168346840056074-1.090497001690892-.406359354516098-1.533006668130838-.714160925265787-.443357323600139-.307739879806832-.772146279399749-.703919646732174-.984856625909742-1.191205654143232-.213434621789929-.485529002147814-.252135606871889-1.122674747200108-.115131916190876-1.909803611782991.100774508329778-.395061031032128.336755371059553-1.157011691268053.70800427912036-2.285004323547582.37131059901003-1.127144975120245.870251432828809-2.491101872351464,1.499427163878863-4.091208107370221.597675391531084-1.564579968018734,1.282220513870925-3.282051426066573,2.052849400810373-5.15150502603592.769842920719384-1.868544251865387,1.572358308911134-3.756509284705317,2.404278917831107-5.661953020422516.637705097498838-1.471200655875691,1.243544456450763-2.818225172641178,1.818304043079479-4.041982898397691.574821277579758-1.22291006859723,1.13643654353109-2.404808122762915,1.684784106919324-3.54654181965725.548470945281224-1.140038382572129,1.098052327561163-2.26481893628079,1.647958180641581-3.373432313022022.550815201168007-1.107827410523896,1.135547958139796-2.299929382734263,1.755107618988404-3.575519950416492.139956557140977-.301620027944409.30194093099999-.523037096559165.485768048751197-.666794177319389.151739527580503-.139717510540322.362879120579237-.236037822522121.635114093318407-.289084317829293.27066304030086-.05122779910198.623153767210169.003220377456273,1.055961939262488.166010883041963.400597199988624.165134761485206.876206423858093.365713336308545,1.427613637828472.600826376364239.551407213959465.235113040055694,1.056842225760192.505953436010714,1.516243344431132.811673530707594.45861515245997.306629442799931.822061955379468.628706533950208,1.08943106065999.965445307234404.267369105278704.336738773285106.318848414808599.704528257293532.153713653318846,1.105125457286704ZM131.578736551949987,55.223484392203318c.708641385079318-.051573629815721,1.394218073997763.036579147001248,2.059149656359295.262577943301039.663359649919585.227817492506801,1.246381689210466.557774411311584,1.74737080353043.9899941383037.500203148119908.433129075096076.911098586439039.962233228663536,1.232562933088047,1.58561714638563.319892414221613.625202613930924.506380556971635,1.290791436751533.557954186791903,1.99943282183267.051573629818449.708641385080227-.037134365500606,1.386589159568757-.264366980700288,2.034567598738249-.228989620460197.647254163898651-.558946539260432,1.230276203184076-.989994138300972,1.747370803534977-.431956947148137.516308634138113-.960444191270653.935680644054628-1.583889799938333,1.256297333542534-.62514092298079.320740071376349-1.290791436749714.506380556976183-1.999432821830851.557954186791903s-1.386527468621352-.036286708346779-2.034567598730064-.264366980699378c-.647192472959432-.228141963299095-1.2308314216898-.566575453695805-1.749098150001373-1.013728538761825-.518328419238969-.448000742226213-.937700429160031-.97648798634691-1.256297333538896-1.583889799932876-.319506252481006-.608187779802392-.504591519569658-1.266209379135034-.556165149389926-1.974850764215262s.035731489839236-1.394156383057634.26257794330013-2.059149656355657c.226122178190053-.66323626803387.564555668590401-1.246875216766057,1.013728538760915-1.74909814998864.449234561117919-.5013752760633.978338714689016-.912270714388796,1.585617146389268-1.2325629330835.608249470749797-.318658595322631,1.266209379129577-.504591519577843,1.974850764210714-.556165149393564Z"/>
  </g>
</svg>