<?xml version="1.0" encoding="UTF-8"?>
<svg id="Content" xmlns="http://www.w3.org/2000/svg" xmlns:xlink="http://www.w3.org/1999/xlink" viewBox="0 0 280 280">
  <defs>
    <style>
      .cls-1 {
        stroke: #665451;
        stroke-width: 50px;
      }

      .cls-1, .cls-2 {
        fill: none;
        stroke-linecap: round;
        stroke-linejoin: round;
      }

      .cls-3 {
        fill: #fff;
      }

      .cls-2 {
        stroke: #998675;
        stroke-width: 2px;
      }
    </style>
  </defs>
  <a xlink:href="https://www.notion.so/congruence/Z-test-test-statistic-6bbb34269266429eb4c8bb4e445d7b90?pvs=4">
    <g>
      <g>
        <path class="cls-1" d="M116.88232421875,84.015625c.71337890625.2119140625,1.2685546875.958984375,1.666015625,2.23779296875.396484375,1.28173828125.59912109375,2.8779296875.61279296875,4.7890625.0107421875,1.9130859375-.11328125,3.93115234375-.3740234375,6.05419921875-.26123046875,2.125-.56982421875,4.12060546875-.92041015625,5.986328125-.35400390625,1.86865234375-.7724609375,3.509765625-1.2529296875,4.92919921875-.4833984375,1.419921875-.92822265625,2.2890625-1.3369140625,2.6083984375-7.6953125,6.4482421875-14.98193359375,13.1025390625-21.861328125,19.95751953125-6.88134765625,6.857421875-13.78857421875,13.9248046875-20.72021484375,21.2060546875l30.97802734375,3.6220703125c.818359375.3486328125,1.49462890625.8623046875,2.02880859375,1.54296875.53125.68359375.9697265625,1.62939453125,1.314453125,2.841796875.341796875,1.21484375.50830078125,2.8671875.5,4.95947265625-.13427734375,2.080078125-.29296875,4.123046875-.4765625,6.1337890625-.18603515625,2.01025390625-.50146484375,3.8203125-.9443359375,5.42919921875-.4462890625,1.609375-1.12890625,2.91162109375-2.05126953125,3.9072265625-.92529296875.99560546875-2.1357421875,1.58642578125-3.6376953125,1.77099609375-.7578125.15283203125-2.2958984375.1162109375-4.60791015625-.10400390625-2.31494140625-.2236328125-5.0810546875-.5322265625-8.296875-.92724609375-3.2177734375-.39501953125-6.76513671875-.86279296875-10.640625-1.39990234375-3.87939453125-.5400390625-7.8115234375-1.11572265625-11.802734375-1.72705078125-9.31982421875-1.39111328125-19.53173828125-3.015625-30.6396484375-4.87451171875-.501953125.0634765625-.9658203125-.17919921875-1.3896484375-.72509765625-.31982421875-.40869140625-.61328125-1.0283203125-.88037109375-1.8642578125-.267578125-.83251953125-.296875-2.09814453125-.087890625-3.7998046875.17626953125-2.4423828125.41162109375-5.37109375.71044921875-8.78515625.294921875-3.41259765625.8720703125-6.1142578125,1.7353515625-8.1044921875,6.55126953125-8.189453125,13.775390625-15.83642578125,21.6728515625-22.9384765625,7.8955078125-7.09912109375,16.22021484375-14.18017578125,24.974609375-21.23828125-5.462890625-.67138671875-10.837890625-1.29931640625-16.1259765625-1.888671875-5.2880859375-.58642578125-10.611328125-1.1484375-15.966796875-1.6845703125-.943359375-.36181640625-1.6796875-.88232421875-2.2109375-1.5654296875-.5341796875-.681640625-.97265625-1.62744140625-1.314453125-2.84228515625-.3447265625-1.21142578125-.5107421875-2.8642578125-.4990234375-4.9599609375.0234375-2.21435546875.140625-4.41845703125.349609375-6.61083984375.2060546875-2.19287109375.52197265625-4.24755859375.943359375-6.16943359375.42041015625-1.91796875,1.0810546875-3.53173828125,1.98046875-4.83935546875.89990234375-1.3046875,2.1005859375-2.05224609375,3.6025390625-2.23779296875.62109375-.044921875,2.56787109375.1630859375,5.83837890625.625,3.27001953125.46533203125,7.19873046875,1.0693359375,11.791015625,1.81884765625,4.58984375.74853515625,9.53955078125,1.57373046875,14.85400390625,2.47216796875,5.31005859375.900390625,10.2841796875,1.7890625,14.921875,2.66552734375,4.634765625.87841796875,8.578125,1.64013671875,11.82666015625,2.28466796875,3.24755859375.64697265625,5.158203125,1.1279296875,5.7373046875,1.4443359375Z"/>
        <path class="cls-1" d="M184.61083984375,87.9013671875c.33447265625.28955078125.5986328125.62841796875.79833984375,1.0224609375.2119140625.2744140625.31787109375.6572265625.3212890625,1.1484375-.00048828125.494140625-.2255859375,1.0810546875-.67919921875,1.76513671875-.45361328125.68359375-.98876953125,1.51318359375-1.5986328125,2.48388671875-.61376953125.97265625-1.24462890625,1.8515625-1.89453125,2.6318359375-.65087890625.7841796875-1.314453125,1.41015625-1.98779296875,1.8818359375-.67578125.47119140625-1.30078125.55029296875-1.876953125.23193359375-2.14306640625-1.61865234375-4.2353515625-3.13720703125-6.2783203125-4.5615234375-2.0439453125-1.4208984375-4.083984375-2.87255859375-6.11962890625-4.35595703125l-1.70068359375,13.83935546875c-.04443359375.36376953125-.15185546875.720703125-.3154296875,1.06982421875-.27490234375.21435546875-.58203125.4541015625-.9208984375.71875-.34130859375.26708984375-.9453125.40966796875-1.80810546875.4248046875-.86572265625.01806640625-1.85107421875.02099609375-2.9580078125.00634765625-1.10791015625-.01220703125-2.17529296875-.11083984375-3.1982421875-.30029296875-1.025390625-.1875-1.8857421875-.44580078125-2.583984375-.77978515625-.69873046875-.33203125-1.0654296875-.87060546875-1.09619140625-1.61376953125.0087890625-2.0927734375.119140625-4.236328125.328125-6.4287109375.20556640625-2.19287109375.32373046875-4.39697265625.35009765625-6.61181640625-1.72802734375,1.02099609375-3.38623046875,1.9873046875-4.9775390625,2.900390625-1.5908203125.9140625-3.24462890625,1.8193359375-4.95458984375,2.71826171875-.65380859375.28955078125-1.2822265625.3974609375-1.88818359375.32275390625-.60888671875-.07470703125-1.2314453125-.2724609375-1.8671875-.59912109375-.63916015625-.32421875-1.20947265625-.9482421875-1.71044921875-1.87353515625-.62451171875-.9375-1.18505859375-1.90185546875-1.6787109375-2.88720703125-.4970703125-.984375-.869140625-1.95458984375-1.12109375-2.91015625-.2529296875-.95458984375-.29443359375-1.88427734375-.1201171875-2.787109375.171875-.90283203125.7353515625-1.7265625,1.6904296875-2.47265625.55810546875-.54638671875,1.9521484375-1.35986328125,4.18212890625-2.44384765625,2.2265625-1.08056640625,4.8623046875-2.48095703125,7.91015625-4.203125-1.9013671875-1.5888671875-3.80810546875-3.11669921875-5.7216796875-4.5849609375-1.91650390625-1.46630859375-3.822265625-2.994140625-5.72119140625-4.58447265625-.42724609375-.5439453125-.73095703125-1.0751953125-.91357421875-1.59130859375-.18505859375-.51416015625-.26513671875-1.1103515625-.24267578125-1.78564453125.01904296875-.673828125.39306640625-1.4599609375,1.12158203125-2.3583984375,1.20849609375-1.82080078125,2.61669921875-3.49609375,4.22216796875-5.02587890625,1.60302734375-1.52734375,3.37744140625-1.67919921875,5.32421875-.455078125.57568359375.31982421875,1.67724609375,1.1298828125,3.3046875,2.43994140625,1.6240234375,1.30810546875,3.54638671875,2.96240234375,5.767578125,4.9599609375.25341796875-2.0634765625.5068359375-4.1259765625.7607421875-6.19140625.25341796875-2.0634765625.56689453125-4.1181640625.94287109375-6.1689453125.07421875-.6064453125.32373046875-1.1298828125.7470703125-1.57177734375.3017578125-.4541015625.8095703125-.8251953125,1.5224609375-1.10693359375.7109375-.28271484375,1.62255859375-.416015625,2.72998046875-.40380859375,2.19970703125.14892578125,4.3427734375.50439453125,6.4306640625,1.06787109375,2.08544921875.56494140625,3.1708984375,2.0244140625,3.25244140625,4.373046875.04443359375.62353515625-.08837890625,1.9619140625-.40185546875,4.017578125-.31640625,2.0576171875-.705078125,4.47314453125-1.16796875,7.24951171875,1.45361328125-.8056640625,2.84765625-1.619140625,4.18212890625-2.44287109375,1.33154296875-.8212890625,2.52099609375-1.47509765625,3.56884765625-1.96484375,1.181640625-.59423828125,2.17431640625-1.1484375,2.9775390625-1.6669921875.271484375-.21240234375.658203125-.35009765625,1.15966796875-.412109375.62060546875-.04541015625,1.47900390625.490234375,2.57470703125,1.60986328125.4091796875.66845703125.95654296875,1.47509765625,1.6435546875,2.42041015625.68310546875.947265625,1.25146484375,1.84912109375,1.70068359375,2.7041015625.44921875.8583984375.7451171875,1.6953125.8935546875,2.5126953125.14453125.82080078125-.048828125,1.38037109375-.57763671875,1.685546875-2.30419921875,1.689453125-4.68896484375,3.3056640625-7.1572265625,4.8505859375-2.4716796875,1.54443359375-4.97216796875,3.0859375-7.50048828125,4.62353515625,1.68701171875,1.31689453125,3.28955078125,2.56201171875,4.8095703125,3.7333984375,1.51953125,1.17431640625,2.8408203125,2.19775390625,3.96630859375,3.0751953125,1.2294921875,1.0146484375,2.41455078125,1.8994140625,3.55517578125,2.65478515625Z"/>
      </g>
      <g>
        <path class="cls-2" d="M116.88232421875,84.015625c.71337890625.2119140625,1.2685546875.958984375,1.666015625,2.23779296875.396484375,1.28173828125.59912109375,2.8779296875.61279296875,4.7890625.0107421875,1.9130859375-.11328125,3.93115234375-.3740234375,6.05419921875-.26123046875,2.125-.56982421875,4.12060546875-.92041015625,5.986328125-.35400390625,1.86865234375-.7724609375,3.509765625-1.2529296875,4.92919921875-.4833984375,1.419921875-.92822265625,2.2890625-1.3369140625,2.6083984375-7.6953125,6.4482421875-14.98193359375,13.1025390625-21.861328125,19.95751953125-6.88134765625,6.857421875-13.78857421875,13.9248046875-20.72021484375,21.2060546875l30.97802734375,3.6220703125c.818359375.3486328125,1.49462890625.8623046875,2.02880859375,1.54296875.53125.68359375.9697265625,1.62939453125,1.314453125,2.841796875.341796875,1.21484375.50830078125,2.8671875.5,4.95947265625-.13427734375,2.080078125-.29296875,4.123046875-.4765625,6.1337890625-.18603515625,2.01025390625-.50146484375,3.8203125-.9443359375,5.42919921875-.4462890625,1.609375-1.12890625,2.91162109375-2.05126953125,3.9072265625-.92529296875.99560546875-2.1357421875,1.58642578125-3.6376953125,1.77099609375-.7578125.15283203125-2.2958984375.1162109375-4.60791015625-.10400390625-2.31494140625-.2236328125-5.0810546875-.5322265625-8.296875-.92724609375-3.2177734375-.39501953125-6.76513671875-.86279296875-10.640625-1.39990234375-3.87939453125-.5400390625-7.8115234375-1.11572265625-11.802734375-1.72705078125-9.31982421875-1.39111328125-19.53173828125-3.015625-30.6396484375-4.87451171875-.501953125.0634765625-.9658203125-.17919921875-1.3896484375-.72509765625-.31982421875-.40869140625-.61328125-1.0283203125-.88037109375-1.8642578125-.267578125-.83251953125-.296875-2.09814453125-.087890625-3.7998046875.17626953125-2.4423828125.41162109375-5.37109375.71044921875-8.78515625.294921875-3.41259765625.8720703125-6.1142578125,1.7353515625-8.1044921875,6.55126953125-8.189453125,13.775390625-15.83642578125,21.6728515625-22.9384765625,7.8955078125-7.09912109375,16.22021484375-14.18017578125,24.974609375-21.23828125-5.462890625-.67138671875-10.837890625-1.29931640625-16.1259765625-1.888671875-5.2880859375-.58642578125-10.611328125-1.1484375-15.966796875-1.6845703125-.943359375-.36181640625-1.6796875-.88232421875-2.2109375-1.5654296875-.5341796875-.681640625-.97265625-1.62744140625-1.314453125-2.84228515625-.3447265625-1.21142578125-.5107421875-2.8642578125-.4990234375-4.9599609375.0234375-2.21435546875.140625-4.41845703125.349609375-6.61083984375.2060546875-2.19287109375.52197265625-4.24755859375.943359375-6.16943359375.42041015625-1.91796875,1.0810546875-3.53173828125,1.98046875-4.83935546875.89990234375-1.3046875,2.1005859375-2.05224609375,3.6025390625-2.23779296875.62109375-.044921875,2.56787109375.1630859375,5.83837890625.625,3.27001953125.46533203125,7.19873046875,1.0693359375,11.791015625,1.81884765625,4.58984375.74853515625,9.53955078125,1.57373046875,14.85400390625,2.47216796875,5.31005859375.900390625,10.2841796875,1.7890625,14.921875,2.66552734375,4.634765625.87841796875,8.578125,1.64013671875,11.82666015625,2.28466796875,3.24755859375.64697265625,5.158203125,1.1279296875,5.7373046875,1.4443359375Z"/>
        <path class="cls-2" d="M184.61083984375,87.9013671875c.33447265625.28955078125.5986328125.62841796875.79833984375,1.0224609375.2119140625.2744140625.31787109375.6572265625.3212890625,1.1484375-.00048828125.494140625-.2255859375,1.0810546875-.67919921875,1.76513671875-.45361328125.68359375-.98876953125,1.51318359375-1.5986328125,2.48388671875-.61376953125.97265625-1.24462890625,1.8515625-1.89453125,2.6318359375-.65087890625.7841796875-1.314453125,1.41015625-1.98779296875,1.8818359375-.67578125.47119140625-1.30078125.55029296875-1.876953125.23193359375-2.14306640625-1.61865234375-4.2353515625-3.13720703125-6.2783203125-4.5615234375-2.0439453125-1.4208984375-4.083984375-2.87255859375-6.11962890625-4.35595703125l-1.70068359375,13.83935546875c-.04443359375.36376953125-.15185546875.720703125-.3154296875,1.06982421875-.27490234375.21435546875-.58203125.4541015625-.9208984375.71875-.34130859375.26708984375-.9453125.40966796875-1.80810546875.4248046875-.86572265625.01806640625-1.85107421875.02099609375-2.9580078125.00634765625-1.10791015625-.01220703125-2.17529296875-.11083984375-3.1982421875-.30029296875-1.025390625-.1875-1.8857421875-.44580078125-2.583984375-.77978515625-.69873046875-.33203125-1.0654296875-.87060546875-1.09619140625-1.61376953125.0087890625-2.0927734375.119140625-4.236328125.328125-6.4287109375.20556640625-2.19287109375.32373046875-4.39697265625.35009765625-6.61181640625-1.72802734375,1.02099609375-3.38623046875,1.9873046875-4.9775390625,2.900390625-1.5908203125.9140625-3.24462890625,1.8193359375-4.95458984375,2.71826171875-.65380859375.28955078125-1.2822265625.3974609375-1.88818359375.32275390625-.60888671875-.07470703125-1.2314453125-.2724609375-1.8671875-.59912109375-.63916015625-.32421875-1.20947265625-.9482421875-1.71044921875-1.87353515625-.62451171875-.9375-1.18505859375-1.90185546875-1.6787109375-2.88720703125-.4970703125-.984375-.869140625-1.95458984375-1.12109375-2.91015625-.2529296875-.95458984375-.29443359375-1.88427734375-.1201171875-2.787109375.171875-.90283203125.7353515625-1.7265625,1.6904296875-2.47265625.55810546875-.54638671875,1.9521484375-1.35986328125,4.18212890625-2.44384765625,2.2265625-1.08056640625,4.8623046875-2.48095703125,7.91015625-4.203125-1.9013671875-1.5888671875-3.80810546875-3.11669921875-5.7216796875-4.5849609375-1.91650390625-1.46630859375-3.822265625-2.994140625-5.72119140625-4.58447265625-.42724609375-.5439453125-.73095703125-1.0751953125-.91357421875-1.59130859375-.18505859375-.51416015625-.26513671875-1.1103515625-.24267578125-1.78564453125.01904296875-.673828125.39306640625-1.4599609375,1.12158203125-2.3583984375,1.20849609375-1.82080078125,2.61669921875-3.49609375,4.22216796875-5.02587890625,1.60302734375-1.52734375,3.37744140625-1.67919921875,5.32421875-.455078125.57568359375.31982421875,1.67724609375,1.1298828125,3.3046875,2.43994140625,1.6240234375,1.30810546875,3.54638671875,2.96240234375,5.767578125,4.9599609375.25341796875-2.0634765625.5068359375-4.1259765625.7607421875-6.19140625.25341796875-2.0634765625.56689453125-4.1181640625.94287109375-6.1689453125.07421875-.6064453125.32373046875-1.1298828125.7470703125-1.57177734375.3017578125-.4541015625.8095703125-.8251953125,1.5224609375-1.10693359375.7109375-.28271484375,1.62255859375-.416015625,2.72998046875-.40380859375,2.19970703125.14892578125,4.3427734375.50439453125,6.4306640625,1.06787109375,2.08544921875.56494140625,3.1708984375,2.0244140625,3.25244140625,4.373046875.04443359375.62353515625-.08837890625,1.9619140625-.40185546875,4.017578125-.31640625,2.0576171875-.705078125,4.47314453125-1.16796875,7.24951171875,1.45361328125-.8056640625,2.84765625-1.619140625,4.18212890625-2.44287109375,1.33154296875-.8212890625,2.52099609375-1.47509765625,3.56884765625-1.96484375,1.181640625-.59423828125,2.17431640625-1.1484375,2.9775390625-1.6669921875.271484375-.21240234375.658203125-.35009765625,1.15966796875-.412109375.62060546875-.04541015625,1.47900390625.490234375,2.57470703125,1.60986328125.4091796875.66845703125.95654296875,1.47509765625,1.6435546875,2.42041015625.68310546875.947265625,1.25146484375,1.84912109375,1.70068359375,2.7041015625.44921875.8583984375.7451171875,1.6953125.8935546875,2.5126953125.14453125.82080078125-.048828125,1.38037109375-.57763671875,1.685546875-2.30419921875,1.689453125-4.68896484375,3.3056640625-7.1572265625,4.8505859375-2.4716796875,1.54443359375-4.97216796875,3.0859375-7.50048828125,4.62353515625,1.68701171875,1.31689453125,3.28955078125,2.56201171875,4.8095703125,3.7333984375,1.51953125,1.17431640625,2.8408203125,2.19775390625,3.96630859375,3.0751953125,1.2294921875,1.0146484375,2.41455078125,1.8994140625,3.55517578125,2.65478515625Z"/>
      </g>
      <g>
        <path class="cls-3" d="M116.88232421875,84.015625c.71337890625.2119140625,1.2685546875.958984375,1.666015625,2.23779296875.396484375,1.28173828125.59912109375,2.8779296875.61279296875,4.7890625.0107421875,1.9130859375-.11328125,3.93115234375-.3740234375,6.05419921875-.26123046875,2.125-.56982421875,4.12060546875-.92041015625,5.986328125-.35400390625,1.86865234375-.7724609375,3.509765625-1.2529296875,4.92919921875-.4833984375,1.419921875-.92822265625,2.2890625-1.3369140625,2.6083984375-7.6953125,6.4482421875-14.98193359375,13.1025390625-21.861328125,19.95751953125-6.88134765625,6.857421875-13.78857421875,13.9248046875-20.72021484375,21.2060546875l30.97802734375,3.6220703125c.818359375.3486328125,1.49462890625.8623046875,2.02880859375,1.54296875.53125.68359375.9697265625,1.62939453125,1.314453125,2.841796875.341796875,1.21484375.50830078125,2.8671875.5,4.95947265625-.13427734375,2.080078125-.29296875,4.123046875-.4765625,6.1337890625-.18603515625,2.01025390625-.50146484375,3.8203125-.9443359375,5.42919921875-.4462890625,1.609375-1.12890625,2.91162109375-2.05126953125,3.9072265625-.92529296875.99560546875-2.1357421875,1.58642578125-3.6376953125,1.77099609375-.7578125.15283203125-2.2958984375.1162109375-4.60791015625-.10400390625-2.31494140625-.2236328125-5.0810546875-.5322265625-8.296875-.92724609375-3.2177734375-.39501953125-6.76513671875-.86279296875-10.640625-1.39990234375-3.87939453125-.5400390625-7.8115234375-1.11572265625-11.802734375-1.72705078125-9.31982421875-1.39111328125-19.53173828125-3.015625-30.6396484375-4.87451171875-.501953125.0634765625-.9658203125-.17919921875-1.3896484375-.72509765625-.31982421875-.40869140625-.61328125-1.0283203125-.88037109375-1.8642578125-.267578125-.83251953125-.296875-2.09814453125-.087890625-3.7998046875.17626953125-2.4423828125.41162109375-5.37109375.71044921875-8.78515625.294921875-3.41259765625.8720703125-6.1142578125,1.7353515625-8.1044921875,6.55126953125-8.189453125,13.775390625-15.83642578125,21.6728515625-22.9384765625,7.8955078125-7.09912109375,16.22021484375-14.18017578125,24.974609375-21.23828125-5.462890625-.67138671875-10.837890625-1.29931640625-16.1259765625-1.888671875-5.2880859375-.58642578125-10.611328125-1.1484375-15.966796875-1.6845703125-.943359375-.36181640625-1.6796875-.88232421875-2.2109375-1.5654296875-.5341796875-.681640625-.97265625-1.62744140625-1.314453125-2.84228515625-.3447265625-1.21142578125-.5107421875-2.8642578125-.4990234375-4.9599609375.0234375-2.21435546875.140625-4.41845703125.349609375-6.61083984375.2060546875-2.19287109375.52197265625-4.24755859375.943359375-6.16943359375.42041015625-1.91796875,1.0810546875-3.53173828125,1.98046875-4.83935546875.89990234375-1.3046875,2.1005859375-2.05224609375,3.6025390625-2.23779296875.62109375-.044921875,2.56787109375.1630859375,5.83837890625.625,3.27001953125.46533203125,7.19873046875,1.0693359375,11.791015625,1.81884765625,4.58984375.74853515625,9.53955078125,1.57373046875,14.85400390625,2.47216796875,5.31005859375.900390625,10.2841796875,1.7890625,14.921875,2.66552734375,4.634765625.87841796875,8.578125,1.64013671875,11.82666015625,2.28466796875,3.24755859375.64697265625,5.158203125,1.1279296875,5.7373046875,1.4443359375Z"/>
        <path class="cls-3" d="M184.61083984375,87.9013671875c.33447265625.28955078125.5986328125.62841796875.79833984375,1.0224609375.2119140625.2744140625.31787109375.6572265625.3212890625,1.1484375-.00048828125.494140625-.2255859375,1.0810546875-.67919921875,1.76513671875-.45361328125.68359375-.98876953125,1.51318359375-1.5986328125,2.48388671875-.61376953125.97265625-1.24462890625,1.8515625-1.89453125,2.6318359375-.65087890625.7841796875-1.314453125,1.41015625-1.98779296875,1.8818359375-.67578125.47119140625-1.30078125.55029296875-1.876953125.23193359375-2.14306640625-1.61865234375-4.2353515625-3.13720703125-6.2783203125-4.5615234375-2.0439453125-1.4208984375-4.083984375-2.87255859375-6.11962890625-4.35595703125l-1.70068359375,13.83935546875c-.04443359375.36376953125-.15185546875.720703125-.3154296875,1.06982421875-.27490234375.21435546875-.58203125.4541015625-.9208984375.71875-.34130859375.26708984375-.9453125.40966796875-1.80810546875.4248046875-.86572265625.01806640625-1.85107421875.02099609375-2.9580078125.00634765625-1.10791015625-.01220703125-2.17529296875-.11083984375-3.1982421875-.30029296875-1.025390625-.1875-1.8857421875-.44580078125-2.583984375-.77978515625-.69873046875-.33203125-1.0654296875-.87060546875-1.09619140625-1.61376953125.0087890625-2.0927734375.119140625-4.236328125.328125-6.4287109375.20556640625-2.19287109375.32373046875-4.39697265625.35009765625-6.61181640625-1.72802734375,1.02099609375-3.38623046875,1.9873046875-4.9775390625,2.900390625-1.5908203125.9140625-3.24462890625,1.8193359375-4.95458984375,2.71826171875-.65380859375.28955078125-1.2822265625.3974609375-1.88818359375.32275390625-.60888671875-.07470703125-1.2314453125-.2724609375-1.8671875-.59912109375-.63916015625-.32421875-1.20947265625-.9482421875-1.71044921875-1.87353515625-.62451171875-.9375-1.18505859375-1.90185546875-1.6787109375-2.88720703125-.4970703125-.984375-.869140625-1.95458984375-1.12109375-2.91015625-.2529296875-.95458984375-.29443359375-1.88427734375-.1201171875-2.787109375.171875-.90283203125.7353515625-1.7265625,1.6904296875-2.47265625.55810546875-.54638671875,1.9521484375-1.35986328125,4.18212890625-2.44384765625,2.2265625-1.08056640625,4.8623046875-2.48095703125,7.91015625-4.203125-1.9013671875-1.5888671875-3.80810546875-3.11669921875-5.7216796875-4.5849609375-1.91650390625-1.46630859375-3.822265625-2.994140625-5.72119140625-4.58447265625-.42724609375-.5439453125-.73095703125-1.0751953125-.91357421875-1.59130859375-.18505859375-.51416015625-.26513671875-1.1103515625-.24267578125-1.78564453125.01904296875-.673828125.39306640625-1.4599609375,1.12158203125-2.3583984375,1.20849609375-1.82080078125,2.61669921875-3.49609375,4.22216796875-5.02587890625,1.60302734375-1.52734375,3.37744140625-1.67919921875,5.32421875-.455078125.57568359375.31982421875,1.67724609375,1.1298828125,3.3046875,2.43994140625,1.6240234375,1.30810546875,3.54638671875,2.96240234375,5.767578125,4.9599609375.25341796875-2.0634765625.5068359375-4.1259765625.7607421875-6.19140625.25341796875-2.0634765625.56689453125-4.1181640625.94287109375-6.1689453125.07421875-.6064453125.32373046875-1.1298828125.7470703125-1.57177734375.3017578125-.4541015625.8095703125-.8251953125,1.5224609375-1.10693359375.7109375-.28271484375,1.62255859375-.416015625,2.72998046875-.40380859375,2.19970703125.14892578125,4.3427734375.50439453125,6.4306640625,1.06787109375,2.08544921875.56494140625,3.1708984375,2.0244140625,3.25244140625,4.373046875.04443359375.62353515625-.08837890625,1.9619140625-.40185546875,4.017578125-.31640625,2.0576171875-.705078125,4.47314453125-1.16796875,7.24951171875,1.45361328125-.8056640625,2.84765625-1.619140625,4.18212890625-2.44287109375,1.33154296875-.8212890625,2.52099609375-1.47509765625,3.56884765625-1.96484375,1.181640625-.59423828125,2.17431640625-1.1484375,2.9775390625-1.6669921875.271484375-.21240234375.658203125-.35009765625,1.15966796875-.412109375.62060546875-.04541015625,1.47900390625.490234375,2.57470703125,1.60986328125.4091796875.66845703125.95654296875,1.47509765625,1.6435546875,2.42041015625.68310546875.947265625,1.25146484375,1.84912109375,1.70068359375,2.7041015625.44921875.8583984375.7451171875,1.6953125.8935546875,2.5126953125.14453125.82080078125-.048828125,1.38037109375-.57763671875,1.685546875-2.30419921875,1.689453125-4.68896484375,3.3056640625-7.1572265625,4.8505859375-2.4716796875,1.54443359375-4.97216796875,3.0859375-7.50048828125,4.62353515625,1.68701171875,1.31689453125,3.28955078125,2.56201171875,4.8095703125,3.7333984375,1.51953125,1.17431640625,2.8408203125,2.19775390625,3.96630859375,3.0751953125,1.2294921875,1.0146484375,2.41455078125,1.8994140625,3.55517578125,2.65478515625Z"/>
      </g>
    </g>
  </a>
</svg>