<?xml version="1.0" encoding="UTF-8"?>
<svg id="Content" xmlns="http://www.w3.org/2000/svg" xmlns:xlink="http://www.w3.org/1999/xlink" viewBox="0 0 280 280">
  <defs>
    <style>
      .cls-1 {
        stroke: #665451;
        stroke-width: 50px;
      }

      .cls-1, .cls-2 {
        fill: none;
        stroke-linecap: round;
        stroke-linejoin: round;
      }

      .cls-3 {
        fill: #fff;
      }

      .cls-2 {
        stroke: #998675;
        stroke-width: 2px;
      }
    </style>
  </defs>
  <a xlink:href="https://www.notion.so/congruence/T-test-test-statistic-c7bc2ceb557c4c53b78f34176d284f09?pvs=4">
    <g>
      <g>
        <path class="cls-1" d="M91.9384765625,152.060546875c.404296875,1.8076171875,1.0869140625,3.201171875,2.04296875,4.181640625.9560546875.982421875,2.095703125,1.6376953125,3.4189453125,1.9638671875,1.3232421875.3291015625,2.759765625.4482421875,4.3076171875.353515625,1.5498046875-.091796875,3.166015625-.30078125,4.857421875-.625,5.482421875-1.001953125,8.115234375,1.2353515625,7.8935546875,6.71484375-.044921875,2.650390625-.609375,5.208984375-1.6953125,7.6787109375-1.0888671875,2.47265625-2.4453125,4.283203125-4.0712890625,5.43359375-3.0234375,2.1396484375-6.2822265625,3.267578125-9.7744140625,3.3857421875-3.49609375.1162109375-6.7880859375-.3447265625-9.87890625-1.3837890625-4.16796875-1.3251953125-7.6357421875-3.2978515625-10.404296875-5.9169921875-2.7724609375-2.6201171875-4.9326171875-5.671875-6.4814453125-9.1552734375-1.55078125-3.4833984375-2.595703125-7.236328125-3.130859375-11.2626953125-.5380859375-4.0244140625-.666015625-8.0576171875-.3828125-12.0966796875.265625-3.939453125.7900390625-7.9111328125,1.5771484375-11.9140625.7880859375-4.00390625,1.6875-8.3701171875,2.7021484375-13.1015625-.49609375-.0849609375-.9140625-.1806640625-1.2529296875-.2900390625-.33984375-.109375-.7080078125-.1982421875-1.1025390625-.2666015625-2.052734375-.5537109375-3.353515625-1.3134765625-3.90234375-2.2763671875-.5517578125-.9609375-.8310546875-2.6181640625-.8369140625-4.970703125.0703125-1.62109375.236328125-3.3310546875.4951171875-5.1259765625.2529296875-1.7958984375.560546875-3.4296875.9150390625-4.900390625.3505859375-1.4736328125.734375-2.6572265625,1.1435546875-3.5595703125.4072265625-.900390625.8125-1.3173828125,1.2109375-1.2490234375,1.5048828125.15625,3.02734375.3642578125,4.56640625.6279296875s3.1015625.53125,4.689453125.802734375c1.1669921875-5.6240234375,2.2978515625-10.8955078125,3.3955078125-15.8173828125,1.0986328125-4.9208984375,2.2783203125-9.87890625,3.541015625-14.8740234375.337890625-1.3720703125,1.1181640625-2.361328125,2.34765625-2.9697265625,1.2275390625-.607421875,2.65234375-.873046875,4.2763671875-.8017578125,1.3037109375.123046875,2.880859375.31640625,4.7275390625.5791015625,1.8447265625.265625,3.5703125.63671875,5.1728515625,1.115234375,1.6044921875.48046875,2.9404296875,1.1923828125,4.001953125,2.1396484375,1.064453125.94921875,1.517578125,2.1767578125,1.3623046875,3.681640625-.833984375,5.4775390625-1.8720703125,10.791015625-3.111328125,15.943359375s-2.4404296875,10.2333984375-3.6025390625,15.24609375c3.158203125.6435546875,6.3466796875,1.2646484375,9.564453125,1.8662109375,3.216796875.6025390625,6.45703125,1.2333984375,9.7138671875,1.8916015625.5634765625.3017578125,1.041015625.791015625,1.435546875,1.4716796875.412109375.5830078125.677734375,1.41796875.7958984375,2.51171875.12109375,1.0927734375.0849609375,2.4931640625-.1044921875,4.1962890625-.19140625,1.7060546875-.439453125,3.4755859375-.75390625,5.3115234375-.314453125,1.837890625-.734375,3.5283203125-1.251953125,5.0732421875-.51953125,1.546875-1.1708984375,2.814453125-1.953125,3.8037109375-.783203125.9921875-1.7451171875,1.541015625-2.8876953125,1.6513671875-1.0283203125.0302734375-3.427734375-.4326171875-7.1953125-1.3837890625-3.7734375-.9521484375-8.0498046875-2.0908203125-12.8251953125-3.4208984375-.3232421875,1.88671875-.779296875,4.1083984375-1.37109375,6.6630859375-.5908203125,2.556640625-1.123046875,5.224609375-1.5986328125,8.001953125-.4755859375,2.7802734375-.810546875,5.4814453125-1.001953125,8.10546875-.1962890625,2.6240234375-.05859375,4.9462890625.416015625,6.966796875Z"/>
        <path class="cls-1" d="M179.21875,103.236328125c.2626953125.2509765625.466796875.5400390625.6162109375.8720703125.1630859375.2333984375.2353515625.552734375.220703125.95703125-.021484375.40625-.2294921875.880859375-.6279296875,1.42578125-.3984375.5439453125-.8740234375,1.2060546875-1.412109375,1.98046875-.54296875.7763671875-1.0947265625,1.474609375-1.66015625,2.0908203125-.56640625.6201171875-1.134765625,1.109375-1.70703125,1.470703125-.5751953125.361328125-1.0908203125.40234375-1.5546875.1171875-1.7001953125-1.4130859375-3.359375-2.744140625-4.9853515625-3.994140625-1.6259765625-1.248046875-3.2470703125-2.521484375-4.8642578125-3.8212890625l-1.9365234375,11.3173828125c-.05078125.2978515625-.150390625.5859375-.30078125.8671875-.2333984375.166015625-.49609375.3515625-.78515625.5556640625-.2919921875.2060546875-.79296875.2998046875-1.5029296875.279296875-.7119140625-.0185546875-1.5224609375-.0546875-2.435546875-.1103515625-.9091796875-.052734375-1.783203125-.17578125-2.6162109375-.3701171875-.8369140625-.1943359375-1.53515625-.4404296875-2.0966796875-.7421875-.5615234375-.2998046875-.8408203125-.7568359375-.8369140625-1.3701171875.0869140625-1.720703125.26171875-3.4794921875.5185546875-5.2744140625.2548828125-1.7958984375.4375-3.603515625.5439453125-5.4248046875-1.458984375.7724609375-2.8623046875,1.5029296875-4.205078125,2.1923828125-1.34375.6904296875-2.7392578125,1.37109375-4.1806640625,2.0439453125-.55078125.2119140625-1.0712890625.2763671875-1.5654296875.1923828125-.5-.0859375-1.00390625-.2734375-1.5126953125-.5654296875-.513671875-.2919921875-.9580078125-.8271484375-1.3359375-1.6083984375-.4765625-.794921875-.900390625-1.609375-1.2666015625-2.439453125-.37109375-.8291015625-.638671875-1.6416015625-.8095703125-2.4365234375-.171875-.7958984375-.1689453125-1.5615234375.0087890625-2.2978515625.17578125-.7353515625.671875-1.390625,1.486328125-1.966796875.4794921875-.4287109375,1.658203125-1.0439453125,3.53515625-1.8486328125,1.8740234375-.8017578125,4.095703125-1.8515625,6.669921875-3.1494140625-1.5048828125-1.380859375-3.01171875-2.7119140625-4.52734375-3.9931640625-1.5224609375-1.2802734375-3.029296875-2.611328125-4.529296875-3.9931640625-.3310546875-.4638671875-.560546875-.912109375-.689453125-1.3447265625-.1337890625-.4287109375-.17578125-.9228515625-.12890625-1.4775390625.0400390625-.5537109375.3779296875-1.185546875,1.013671875-1.8955078125,1.064453125-1.451171875,2.2880859375-2.7744140625,3.6669921875-3.970703125,1.3779296875-1.1943359375,2.8427734375-1.2490234375,4.39453125-.16796875.4638671875.28515625,1.337890625.9951171875,2.6259765625,2.1357421875,1.283203125,1.138671875,2.80078125,2.57421875,4.55078125,4.3037109375.2890625-1.6875.5771484375-3.3740234375.8662109375-5.0634765625.2890625-1.6865234375.6240234375-3.3642578125,1.0146484375-5.037109375.0849609375-.4951171875.3095703125-.9169921875.6748046875-1.263671875.2666015625-.361328125.697265625-.646484375,1.294921875-.8515625.5966796875-.2041015625,1.3505859375-.2783203125,2.2626953125-.2255859375,1.8037109375.2080078125,3.55078125.5830078125,5.248046875,1.1279296875,1.6923828125.5458984375,2.52734375,1.7880859375,2.50390625,3.72265625.01171875.515625-.1494140625,1.6103515625-.486328125,3.2890625-.33984375,1.6796875-.75390625,3.65234375-1.2421875,5.91796875,1.228515625-.6064453125,2.404296875-1.2216796875,3.53515625-1.84765625,1.1259765625-.6240234375,2.130859375-1.115234375,3.0107421875-1.4765625.994140625-.443359375,1.833984375-.8603515625,2.5126953125-1.2568359375.232421875-.1640625.5556640625-.26171875.96875-.29296875.5146484375-.013671875,1.19921875.4609375,2.05859375,1.423828125.30859375.5654296875.728515625,1.25,1.255859375,2.0546875.5263671875.8056640625.9580078125,1.5693359375,1.294921875,2.2900390625.3369140625.72265625.544921875,1.421875.6357421875,2.1005859375.0869140625.681640625-.0927734375,1.134765625-.5380859375,1.3642578125-1.9619140625,1.2998046875-3.986328125,2.5361328125-6.0771484375,3.7119140625-2.0927734375,1.173828125-4.208984375,2.3447265625-6.3486328125,3.51171875,1.337890625,1.1484375,2.607421875,2.234375,3.8115234375,3.2568359375,1.2041015625,1.025390625,2.2509765625,1.91796875,3.1416015625,2.6826171875.97265625.8828125,1.9140625,1.6572265625,2.8232421875,2.322265625Z"/>
      </g>
      <g>
        <path class="cls-2" d="M91.9384765625,152.060546875c.404296875,1.8076171875,1.0869140625,3.201171875,2.04296875,4.181640625.9560546875.982421875,2.095703125,1.6376953125,3.4189453125,1.9638671875,1.3232421875.3291015625,2.759765625.4482421875,4.3076171875.353515625,1.5498046875-.091796875,3.166015625-.30078125,4.857421875-.625,5.482421875-1.001953125,8.115234375,1.2353515625,7.8935546875,6.71484375-.044921875,2.650390625-.609375,5.208984375-1.6953125,7.6787109375-1.0888671875,2.47265625-2.4453125,4.283203125-4.0712890625,5.43359375-3.0234375,2.1396484375-6.2822265625,3.267578125-9.7744140625,3.3857421875-3.49609375.1162109375-6.7880859375-.3447265625-9.87890625-1.3837890625-4.16796875-1.3251953125-7.6357421875-3.2978515625-10.404296875-5.9169921875-2.7724609375-2.6201171875-4.9326171875-5.671875-6.4814453125-9.1552734375-1.55078125-3.4833984375-2.595703125-7.236328125-3.130859375-11.2626953125-.5380859375-4.0244140625-.666015625-8.0576171875-.3828125-12.0966796875.265625-3.939453125.7900390625-7.9111328125,1.5771484375-11.9140625.7880859375-4.00390625,1.6875-8.3701171875,2.7021484375-13.1015625-.49609375-.0849609375-.9140625-.1806640625-1.2529296875-.2900390625-.33984375-.109375-.7080078125-.1982421875-1.1025390625-.2666015625-2.052734375-.5537109375-3.353515625-1.3134765625-3.90234375-2.2763671875-.5517578125-.9609375-.8310546875-2.6181640625-.8369140625-4.970703125.0703125-1.62109375.236328125-3.3310546875.4951171875-5.1259765625.2529296875-1.7958984375.560546875-3.4296875.9150390625-4.900390625.3505859375-1.4736328125.734375-2.6572265625,1.1435546875-3.5595703125.4072265625-.900390625.8125-1.3173828125,1.2109375-1.2490234375,1.5048828125.15625,3.02734375.3642578125,4.56640625.6279296875s3.1015625.53125,4.689453125.802734375c1.1669921875-5.6240234375,2.2978515625-10.8955078125,3.3955078125-15.8173828125,1.0986328125-4.9208984375,2.2783203125-9.87890625,3.541015625-14.8740234375.337890625-1.3720703125,1.1181640625-2.361328125,2.34765625-2.9697265625,1.2275390625-.607421875,2.65234375-.873046875,4.2763671875-.8017578125,1.3037109375.123046875,2.880859375.31640625,4.7275390625.5791015625,1.8447265625.265625,3.5703125.63671875,5.1728515625,1.115234375,1.6044921875.48046875,2.9404296875,1.1923828125,4.001953125,2.1396484375,1.064453125.94921875,1.517578125,2.1767578125,1.3623046875,3.681640625-.833984375,5.4775390625-1.8720703125,10.791015625-3.111328125,15.943359375s-2.4404296875,10.2333984375-3.6025390625,15.24609375c3.158203125.6435546875,6.3466796875,1.2646484375,9.564453125,1.8662109375,3.216796875.6025390625,6.45703125,1.2333984375,9.7138671875,1.8916015625.5634765625.3017578125,1.041015625.791015625,1.435546875,1.4716796875.412109375.5830078125.677734375,1.41796875.7958984375,2.51171875.12109375,1.0927734375.0849609375,2.4931640625-.1044921875,4.1962890625-.19140625,1.7060546875-.439453125,3.4755859375-.75390625,5.3115234375-.314453125,1.837890625-.734375,3.5283203125-1.251953125,5.0732421875-.51953125,1.546875-1.1708984375,2.814453125-1.953125,3.8037109375-.783203125.9921875-1.7451171875,1.541015625-2.8876953125,1.6513671875-1.0283203125.0302734375-3.427734375-.4326171875-7.1953125-1.3837890625-3.7734375-.9521484375-8.0498046875-2.0908203125-12.8251953125-3.4208984375-.3232421875,1.88671875-.779296875,4.1083984375-1.37109375,6.6630859375-.5908203125,2.556640625-1.123046875,5.224609375-1.5986328125,8.001953125-.4755859375,2.7802734375-.810546875,5.4814453125-1.001953125,8.10546875-.1962890625,2.6240234375-.05859375,4.9462890625.416015625,6.966796875Z"/>
        <path class="cls-2" d="M179.21875,103.236328125c.2626953125.2509765625.466796875.5400390625.6162109375.8720703125.1630859375.2333984375.2353515625.552734375.220703125.95703125-.021484375.40625-.2294921875.880859375-.6279296875,1.42578125-.3984375.5439453125-.8740234375,1.2060546875-1.412109375,1.98046875-.54296875.7763671875-1.0947265625,1.474609375-1.66015625,2.0908203125-.56640625.6201171875-1.134765625,1.109375-1.70703125,1.470703125-.5751953125.361328125-1.0908203125.40234375-1.5546875.1171875-1.7001953125-1.4130859375-3.359375-2.744140625-4.9853515625-3.994140625-1.6259765625-1.248046875-3.2470703125-2.521484375-4.8642578125-3.8212890625l-1.9365234375,11.3173828125c-.05078125.2978515625-.150390625.5859375-.30078125.8671875-.2333984375.166015625-.49609375.3515625-.78515625.5556640625-.2919921875.2060546875-.79296875.2998046875-1.5029296875.279296875-.7119140625-.0185546875-1.5224609375-.0546875-2.435546875-.1103515625-.9091796875-.052734375-1.783203125-.17578125-2.6162109375-.3701171875-.8369140625-.1943359375-1.53515625-.4404296875-2.0966796875-.7421875-.5615234375-.2998046875-.8408203125-.7568359375-.8369140625-1.3701171875.0869140625-1.720703125.26171875-3.4794921875.5185546875-5.2744140625.2548828125-1.7958984375.4375-3.603515625.5439453125-5.4248046875-1.458984375.7724609375-2.8623046875,1.5029296875-4.205078125,2.1923828125-1.34375.6904296875-2.7392578125,1.37109375-4.1806640625,2.0439453125-.55078125.2119140625-1.0712890625.2763671875-1.5654296875.1923828125-.5-.0859375-1.00390625-.2734375-1.5126953125-.5654296875-.513671875-.2919921875-.9580078125-.8271484375-1.3359375-1.6083984375-.4765625-.794921875-.900390625-1.609375-1.2666015625-2.439453125-.37109375-.8291015625-.638671875-1.6416015625-.8095703125-2.4365234375-.171875-.7958984375-.1689453125-1.5615234375.0087890625-2.2978515625.17578125-.7353515625.671875-1.390625,1.486328125-1.966796875.4794921875-.4287109375,1.658203125-1.0439453125,3.53515625-1.8486328125,1.8740234375-.8017578125,4.095703125-1.8515625,6.669921875-3.1494140625-1.5048828125-1.380859375-3.01171875-2.7119140625-4.52734375-3.9931640625-1.5224609375-1.2802734375-3.029296875-2.611328125-4.529296875-3.9931640625-.3310546875-.4638671875-.560546875-.912109375-.689453125-1.3447265625-.1337890625-.4287109375-.17578125-.9228515625-.12890625-1.4775390625.0400390625-.5537109375.3779296875-1.185546875,1.013671875-1.8955078125,1.064453125-1.451171875,2.2880859375-2.7744140625,3.6669921875-3.970703125,1.3779296875-1.1943359375,2.8427734375-1.2490234375,4.39453125-.16796875.4638671875.28515625,1.337890625.9951171875,2.6259765625,2.1357421875,1.283203125,1.138671875,2.80078125,2.57421875,4.55078125,4.3037109375.2890625-1.6875.5771484375-3.3740234375.8662109375-5.0634765625.2890625-1.6865234375.6240234375-3.3642578125,1.0146484375-5.037109375.0849609375-.4951171875.3095703125-.9169921875.6748046875-1.263671875.2666015625-.361328125.697265625-.646484375,1.294921875-.8515625.5966796875-.2041015625,1.3505859375-.2783203125,2.2626953125-.2255859375,1.8037109375.2080078125,3.55078125.5830078125,5.248046875,1.1279296875,1.6923828125.5458984375,2.52734375,1.7880859375,2.50390625,3.72265625.01171875.515625-.1494140625,1.6103515625-.486328125,3.2890625-.33984375,1.6796875-.75390625,3.65234375-1.2421875,5.91796875,1.228515625-.6064453125,2.404296875-1.2216796875,3.53515625-1.84765625,1.1259765625-.6240234375,2.130859375-1.115234375,3.0107421875-1.4765625.994140625-.443359375,1.833984375-.8603515625,2.5126953125-1.2568359375.232421875-.1640625.5556640625-.26171875.96875-.29296875.5146484375-.013671875,1.19921875.4609375,2.05859375,1.423828125.30859375.5654296875.728515625,1.25,1.255859375,2.0546875.5263671875.8056640625.9580078125,1.5693359375,1.294921875,2.2900390625.3369140625.72265625.544921875,1.421875.6357421875,2.1005859375.0869140625.681640625-.0927734375,1.134765625-.5380859375,1.3642578125-1.9619140625,1.2998046875-3.986328125,2.5361328125-6.0771484375,3.7119140625-2.0927734375,1.173828125-4.208984375,2.3447265625-6.3486328125,3.51171875,1.337890625,1.1484375,2.607421875,2.234375,3.8115234375,3.2568359375,1.2041015625,1.025390625,2.2509765625,1.91796875,3.1416015625,2.6826171875.97265625.8828125,1.9140625,1.6572265625,2.8232421875,2.322265625Z"/>
      </g>
      <g>
        <path class="cls-3" d="M91.9384765625,152.060546875c.404296875,1.8076171875,1.0869140625,3.201171875,2.04296875,4.181640625.9560546875.982421875,2.095703125,1.6376953125,3.4189453125,1.9638671875,1.3232421875.3291015625,2.759765625.4482421875,4.3076171875.353515625,1.5498046875-.091796875,3.166015625-.30078125,4.857421875-.625,5.482421875-1.001953125,8.115234375,1.2353515625,7.8935546875,6.71484375-.044921875,2.650390625-.609375,5.208984375-1.6953125,7.6787109375-1.0888671875,2.47265625-2.4453125,4.283203125-4.0712890625,5.43359375-3.0234375,2.1396484375-6.2822265625,3.267578125-9.7744140625,3.3857421875-3.49609375.1162109375-6.7880859375-.3447265625-9.87890625-1.3837890625-4.16796875-1.3251953125-7.6357421875-3.2978515625-10.404296875-5.9169921875-2.7724609375-2.6201171875-4.9326171875-5.671875-6.4814453125-9.1552734375-1.55078125-3.4833984375-2.595703125-7.236328125-3.130859375-11.2626953125-.5380859375-4.0244140625-.666015625-8.0576171875-.3828125-12.0966796875.265625-3.939453125.7900390625-7.9111328125,1.5771484375-11.9140625.7880859375-4.00390625,1.6875-8.3701171875,2.7021484375-13.1015625-.49609375-.0849609375-.9140625-.1806640625-1.2529296875-.2900390625-.33984375-.109375-.7080078125-.1982421875-1.1025390625-.2666015625-2.052734375-.5537109375-3.353515625-1.3134765625-3.90234375-2.2763671875-.5517578125-.9609375-.8310546875-2.6181640625-.8369140625-4.970703125.0703125-1.62109375.236328125-3.3310546875.4951171875-5.1259765625.2529296875-1.7958984375.560546875-3.4296875.9150390625-4.900390625.3505859375-1.4736328125.734375-2.6572265625,1.1435546875-3.5595703125.4072265625-.900390625.8125-1.3173828125,1.2109375-1.2490234375,1.5048828125.15625,3.02734375.3642578125,4.56640625.6279296875s3.1015625.53125,4.689453125.802734375c1.1669921875-5.6240234375,2.2978515625-10.8955078125,3.3955078125-15.8173828125,1.0986328125-4.9208984375,2.2783203125-9.87890625,3.541015625-14.8740234375.337890625-1.3720703125,1.1181640625-2.361328125,2.34765625-2.9697265625,1.2275390625-.607421875,2.65234375-.873046875,4.2763671875-.8017578125,1.3037109375.123046875,2.880859375.31640625,4.7275390625.5791015625,1.8447265625.265625,3.5703125.63671875,5.1728515625,1.115234375,1.6044921875.48046875,2.9404296875,1.1923828125,4.001953125,2.1396484375,1.064453125.94921875,1.517578125,2.1767578125,1.3623046875,3.681640625-.833984375,5.4775390625-1.8720703125,10.791015625-3.111328125,15.943359375s-2.4404296875,10.2333984375-3.6025390625,15.24609375c3.158203125.6435546875,6.3466796875,1.2646484375,9.564453125,1.8662109375,3.216796875.6025390625,6.45703125,1.2333984375,9.7138671875,1.8916015625.5634765625.3017578125,1.041015625.791015625,1.435546875,1.4716796875.412109375.5830078125.677734375,1.41796875.7958984375,2.51171875.12109375,1.0927734375.0849609375,2.4931640625-.1044921875,4.1962890625-.19140625,1.7060546875-.439453125,3.4755859375-.75390625,5.3115234375-.314453125,1.837890625-.734375,3.5283203125-1.251953125,5.0732421875-.51953125,1.546875-1.1708984375,2.814453125-1.953125,3.8037109375-.783203125.9921875-1.7451171875,1.541015625-2.8876953125,1.6513671875-1.0283203125.0302734375-3.427734375-.4326171875-7.1953125-1.3837890625-3.7734375-.9521484375-8.0498046875-2.0908203125-12.8251953125-3.4208984375-.3232421875,1.88671875-.779296875,4.1083984375-1.37109375,6.6630859375-.5908203125,2.556640625-1.123046875,5.224609375-1.5986328125,8.001953125-.4755859375,2.7802734375-.810546875,5.4814453125-1.001953125,8.10546875-.1962890625,2.6240234375-.05859375,4.9462890625.416015625,6.966796875Z"/>
        <path class="cls-3" d="M179.21875,103.236328125c.2626953125.2509765625.466796875.5400390625.6162109375.8720703125.1630859375.2333984375.2353515625.552734375.220703125.95703125-.021484375.40625-.2294921875.880859375-.6279296875,1.42578125-.3984375.5439453125-.8740234375,1.2060546875-1.412109375,1.98046875-.54296875.7763671875-1.0947265625,1.474609375-1.66015625,2.0908203125-.56640625.6201171875-1.134765625,1.109375-1.70703125,1.470703125-.5751953125.361328125-1.0908203125.40234375-1.5546875.1171875-1.7001953125-1.4130859375-3.359375-2.744140625-4.9853515625-3.994140625-1.6259765625-1.248046875-3.2470703125-2.521484375-4.8642578125-3.8212890625l-1.9365234375,11.3173828125c-.05078125.2978515625-.150390625.5859375-.30078125.8671875-.2333984375.166015625-.49609375.3515625-.78515625.5556640625-.2919921875.2060546875-.79296875.2998046875-1.5029296875.279296875-.7119140625-.0185546875-1.5224609375-.0546875-2.435546875-.1103515625-.9091796875-.052734375-1.783203125-.17578125-2.6162109375-.3701171875-.8369140625-.1943359375-1.53515625-.4404296875-2.0966796875-.7421875-.5615234375-.2998046875-.8408203125-.7568359375-.8369140625-1.3701171875.0869140625-1.720703125.26171875-3.4794921875.5185546875-5.2744140625.2548828125-1.7958984375.4375-3.603515625.5439453125-5.4248046875-1.458984375.7724609375-2.8623046875,1.5029296875-4.205078125,2.1923828125-1.34375.6904296875-2.7392578125,1.37109375-4.1806640625,2.0439453125-.55078125.2119140625-1.0712890625.2763671875-1.5654296875.1923828125-.5-.0859375-1.00390625-.2734375-1.5126953125-.5654296875-.513671875-.2919921875-.9580078125-.8271484375-1.3359375-1.6083984375-.4765625-.794921875-.900390625-1.609375-1.2666015625-2.439453125-.37109375-.8291015625-.638671875-1.6416015625-.8095703125-2.4365234375-.171875-.7958984375-.1689453125-1.5615234375.0087890625-2.2978515625.17578125-.7353515625.671875-1.390625,1.486328125-1.966796875.4794921875-.4287109375,1.658203125-1.0439453125,3.53515625-1.8486328125,1.8740234375-.8017578125,4.095703125-1.8515625,6.669921875-3.1494140625-1.5048828125-1.380859375-3.01171875-2.7119140625-4.52734375-3.9931640625-1.5224609375-1.2802734375-3.029296875-2.611328125-4.529296875-3.9931640625-.3310546875-.4638671875-.560546875-.912109375-.689453125-1.3447265625-.1337890625-.4287109375-.17578125-.9228515625-.12890625-1.4775390625.0400390625-.5537109375.3779296875-1.185546875,1.013671875-1.8955078125,1.064453125-1.451171875,2.2880859375-2.7744140625,3.6669921875-3.970703125,1.3779296875-1.1943359375,2.8427734375-1.2490234375,4.39453125-.16796875.4638671875.28515625,1.337890625.9951171875,2.6259765625,2.1357421875,1.283203125,1.138671875,2.80078125,2.57421875,4.55078125,4.3037109375.2890625-1.6875.5771484375-3.3740234375.8662109375-5.0634765625.2890625-1.6865234375.6240234375-3.3642578125,1.0146484375-5.037109375.0849609375-.4951171875.3095703125-.9169921875.6748046875-1.263671875.2666015625-.361328125.697265625-.646484375,1.294921875-.8515625.5966796875-.2041015625,1.3505859375-.2783203125,2.2626953125-.2255859375,1.8037109375.2080078125,3.55078125.5830078125,5.248046875,1.1279296875,1.6923828125.5458984375,2.52734375,1.7880859375,2.50390625,3.72265625.01171875.515625-.1494140625,1.6103515625-.486328125,3.2890625-.33984375,1.6796875-.75390625,3.65234375-1.2421875,5.91796875,1.228515625-.6064453125,2.404296875-1.2216796875,3.53515625-1.84765625,1.1259765625-.6240234375,2.130859375-1.115234375,3.0107421875-1.4765625.994140625-.443359375,1.833984375-.8603515625,2.5126953125-1.2568359375.232421875-.1640625.5556640625-.26171875.96875-.29296875.5146484375-.013671875,1.19921875.4609375,2.05859375,1.423828125.30859375.5654296875.728515625,1.25,1.255859375,2.0546875.5263671875.8056640625.9580078125,1.5693359375,1.294921875,2.2900390625.3369140625.72265625.544921875,1.421875.6357421875,2.1005859375.0869140625.681640625-.0927734375,1.134765625-.5380859375,1.3642578125-1.9619140625,1.2998046875-3.986328125,2.5361328125-6.0771484375,3.7119140625-2.0927734375,1.173828125-4.208984375,2.3447265625-6.3486328125,3.51171875,1.337890625,1.1484375,2.607421875,2.234375,3.8115234375,3.2568359375,1.2041015625,1.025390625,2.2509765625,1.91796875,3.1416015625,2.6826171875.97265625.8828125,1.9140625,1.6572265625,2.8232421875,2.322265625Z"/>
      </g>
    </g>
  </a>
</svg>