<?xml version="1.0" encoding="UTF-8"?>
<svg id="Content" xmlns="http://www.w3.org/2000/svg" xmlns:xlink="http://www.w3.org/1999/xlink" viewBox="0 0 280 280.000000000001819">
  <defs>
    <style>
      .cls-1 {
        stroke: #665451;
        stroke-width: 50px;
      }

      .cls-1, .cls-2 {
        fill: none;
        stroke-linecap: round;
        stroke-linejoin: round;
      }

      .cls-3 {
        fill: #fff;
      }

      .cls-2 {
        stroke: #998675;
        stroke-width: 2px;
      }
    </style>
  </defs>
  <a xlink:href="https://www.notion.so/congruence/Degrees-of-freedom-c7a47ce93554473a928eaf701f0fe93d?pvs=4">
    <g>
      <g>
        <path d="M98.161132812498181,41.312718168219362c.98681640625,31.4755859375,3.01953125,62.97900390625,6.09716796875,94.50732421875-.02197265625,1.138671875-.23486328125,2.2421875-.638671875,3.30908203125-.41845703125.87939453125-1.05029296875,1.72607421875-1.896484375,2.537109375-.8486328125.814453125-2.06787109375,1.36376953125-3.658203125,1.6572265625-2.15283203125.4228515625-4.380859375.73095703125-6.68798828125.9287109375-2.3095703125.1953125-4.248046875-.1298828125-5.81640625-.97412109375-5.86376953125,1.60791015625-11.90380859375,2.330078125-18.11669921875,2.1630859375-6.21435546875-.16748046875-11.92822265625-1.73876953125-17.13916015625-4.71923828125-4.52197265625-2.5498046875-8.09765625-5.84619140625-10.72509765625-9.89208984375-2.62939453125-4.04345703125-4.37841796875-8.40576171875-5.248046875-13.08642578125-.87060546875-4.67919921875-.921875-9.50634765625-.15283203125-14.4814453125.76708984375-4.97265625,2.29150390625-9.6171875,4.5703125-13.93310546875,1.861328125-3.4345703125,4.22216796875-6.474609375,7.08349609375-9.123046875,2.859375-2.646484375,6.009765625-4.8388671875,9.44921875-6.576171875,3.439453125-1.736328125,7.1259765625-2.9462890625,11.06005859375-3.62646484375,3.9345703125-.6796875,7.86083984375-.72021484375,11.7841796875-.12060546875-.06103515625-3.87841796875-.0791015625-7.45361328125-.05224609375-10.72265625.02392578125-3.26904296875.052734375-6.13427734375.083984375-8.6005859375.00537109375-2.841796875.0263671875-5.447265625.06396484375-7.81787109375-.14990234375-.84228515625-.056640625-1.60546875.27880859375-2.291015625.24609375-.583984375.6826171875-1.15625,1.3095703125-1.71826171875.62548828125-.56005859375,1.5986328125-.884765625,2.92041015625-.97021484375,1.22509765625-.07861328125,2.71240234375-.150390625,4.46142578125-.21630859375,1.74755859375-.06396484375,3.40966796875-.0068359375,4.98388671875.17529296875,1.57421875.18310546875,2.94775390625.544921875,4.11865234375,1.08447265625,1.17138671875.541015625,1.7939453125,1.37548828125,1.86669921875,2.50732421875ZM78.627929687498181,90.876194730719362c-3.6708984375-1.0888671875-6.90380859375-1.306640625-9.70263671875-.65283203125-2.79931640625.65576171875-5.13916015625,1.8232421875-7.01904296875,3.50732421875-1.880859375,1.68359375-3.2880859375,3.74169921875-4.2197265625,6.16796875-.9326171875,2.4287109375-1.388671875,4.8974609375-1.369140625,7.40478515625.02001953125,2.509765625.5302734375,4.91552734375,1.53125,7.2177734375,1.0009765625,2.3037109375,2.47314453125,4.19775390625,4.41552734375,5.681640625,1.943359375,1.486328125,4.36669921875,2.37158203125,7.2744140625,2.65673828125,2.9072265625.28759765625,6.345703125-.3603515625,10.31689453125-1.9443359375-.29833984375-4.6201171875-.53173828125-9.34228515625-.7001953125-14.16162109375-.1689453125-4.8193359375-.34619140625-10.111328125-.52734375-15.87744140625Z"/>
        <path d="M164.968749999998181,44.106663480719362c1.556640625.65869140625,2.5009765625,1.70947265625,2.83154296875,3.15576171875.3291015625,1.4482421875.3583984375,3.0087890625.08935546875,4.68212890625-.27197265625,1.67578125-.75830078125,3.31640625-1.4580078125,4.92431640625-.7021484375,1.6083984375-1.35302734375,2.90673828125-1.951171875,3.89111328125-.51708984375.7919921875-1.11279296875,1.47021484375-1.78662109375,2.03271484375-.673828125.56494140625-1.5419921875.69287109375-2.603515625.3818359375-4.08935546875-1.7255859375-7.50390625-2.90185546875-10.244140625-3.53125-2.7392578125-.6259765625-4.88720703125-.51220703125-6.44091796875.34521484375-1.556640625.859375-2.60888671875,2.51220703125-3.1611328125,4.962890625s-.73681640625,5.85009765625-.55029296875,10.193359375c.06396484375,2.4599609375.1728515625,4.8681640625.32470703125,7.224609375.15185546875,2.3583984375.30712890625,4.763671875.46533203125,7.21484375,3.666015625-.4248046875,7.64111328125-.82275390625,11.92724609375-1.1953125,4.28515625-.36962890625,8.267578125-.67529296875,11.9462890625-.91259765625,1.2607421875.48681640625,2.29736328125,1.865234375,3.10791015625,4.13232421875.80810546875,2.26953125,1.32080078125,4.72314453125,1.5400390625,7.359375.21728515625,2.63818359375.06640625,5.087890625-.44921875,7.345703125-.51806640625,2.25927734375-1.427734375,3.57275390625-2.72900390625,3.9404296875-.55419921875.2265625-1.91650390625.408203125-4.0849609375.5478515625-2.1708984375.14013671875-4.48388671875.2431640625-6.94189453125.3056640625-1.79248046875.11572265625-3.6572265625.2138671875-5.5927734375.28955078125-1.9375.07861328125-3.9931640625.14013671875-6.16845703125.18505859375.75390625,5.8251953125,1.39501953125,10.9912109375,1.923828125,15.5029296875.52685546875,4.51220703125.9560546875,8.5830078125,1.28466796875,12.2060546875.32763671875,3.62451171875.59033203125,6.94580078125.78515625,9.96533203125.19482421875,3.017578125.3349609375,5.94580078125.42431640625,8.78125.0791015625,1.22412109375.07421875,2.62353515625-.01416015625,4.19140625-.08935546875,1.56884765625-.37060546875,3.05419921875-.8486328125,4.458984375-.4775390625,1.40234375-1.22998046875,2.6123046875-2.251953125,3.6259765625-1.02490234375,1.01171875-2.384765625,1.57470703125-4.08203125,1.68408203125-1.41455078125.09130859375-2.9775390625.0966796875-4.6875.01806640625-1.7099609375-.080078125-3.34228515625-.4013671875-4.89208984375-.962890625-1.552734375-.56396484375-2.88330078125-1.37646484375-3.99365234375-2.44140625-1.11181640625-1.06494140625-1.7265625-2.54150390625-1.84814453125-4.42724609375-.49267578125-7.64013671875-1.04931640625-15.89306640625-1.66796875-24.75390625-.62060546875-8.861328125-1.4541015625-17.7578125-2.50341796875-26.689453125l-4.66845703125.30126953125c-.36572265625.21435546875-.74755859375.1904296875-1.14111328125-.068359375-.29541015625-.169921875-.62841796875-.5498046875-.9970703125-1.1435546875-.37158203125-.5908203125-.69189453125-1.5400390625-.96533203125-2.849609375-.26904296875-1.212890625-.5771484375-2.6845703125-.92431640625-4.41552734375-.3486328125-1.7294921875-.59814453125-3.3935546875-.748046875-4.99560546875-.15234375-1.59912109375-.16943359375-2.97265625-.052734375-4.11669921875.11474609375-1.14404296875.453125-1.7802734375,1.013671875-1.91162109375,1.119140625-.26123046875,2.21728515625-.4736328125,3.296875-.63916015625,1.0771484375-.1630859375,2.1806640625-.3291015625,3.306640625-.49755859375-.1826171875-2.82958984375-.38330078125-5.9423828125-.6025390625-9.33740234375-.21875-3.3955078125-.25-6.80322265625-.091796875-10.22314453125.15771484375-3.419921875.5576171875-6.78369140625,1.1962890625-10.09326171875.63916015625-3.30859375,1.6962890625-6.35986328125,3.17431640625-9.15478515625,1.47607421875-2.7939453125,3.47607421875-5.19677734375,5.9990234375-7.20556640625,2.52099609375-2.009765625,5.74609375-3.42578125,9.67041015625-4.2470703125,2.0556640625-.41650390625,4.2880859375-.70263671875,6.693359375-.85791015625,2.40478515625-.1552734375,4.79638671875-.142578125,7.17626953125.0341796875,2.3779296875.1796875,4.69580078125.50341796875,6.953125.97216796875,2.25439453125.4716796875,4.26025390625,1.07470703125,6.0126953125,1.814453125Z"/>
      </g>
      <g>
        <g>
          <path class="cls-1" d="M98.161132812498181,41.312718168219362c.98681640625,31.4755859375,3.01953125,62.97900390625,6.09716796875,94.50732421875-.02197265625,1.138671875-.23486328125,2.2421875-.638671875,3.30908203125-.41845703125.87939453125-1.05029296875,1.72607421875-1.896484375,2.537109375-.8486328125.814453125-2.06787109375,1.36376953125-3.658203125,1.6572265625-2.15283203125.4228515625-4.380859375.73095703125-6.68798828125.9287109375-2.3095703125.1953125-4.248046875-.1298828125-5.81640625-.97412109375-5.86376953125,1.60791015625-11.90380859375,2.330078125-18.11669921875,2.1630859375-6.21435546875-.16748046875-11.92822265625-1.73876953125-17.13916015625-4.71923828125-4.52197265625-2.5498046875-8.09765625-5.84619140625-10.72509765625-9.89208984375-2.62939453125-4.04345703125-4.37841796875-8.40576171875-5.248046875-13.08642578125-.87060546875-4.67919921875-.921875-9.50634765625-.15283203125-14.4814453125.76708984375-4.97265625,2.29150390625-9.6171875,4.5703125-13.93310546875,1.861328125-3.4345703125,4.22216796875-6.474609375,7.08349609375-9.123046875,2.859375-2.646484375,6.009765625-4.8388671875,9.44921875-6.576171875,3.439453125-1.736328125,7.1259765625-2.9462890625,11.06005859375-3.62646484375,3.9345703125-.6796875,7.86083984375-.72021484375,11.7841796875-.12060546875-.06103515625-3.87841796875-.0791015625-7.45361328125-.05224609375-10.72265625.02392578125-3.26904296875.052734375-6.13427734375.083984375-8.6005859375.00537109375-2.841796875.0263671875-5.447265625.06396484375-7.81787109375-.14990234375-.84228515625-.056640625-1.60546875.27880859375-2.291015625.24609375-.583984375.6826171875-1.15625,1.3095703125-1.71826171875.62548828125-.56005859375,1.5986328125-.884765625,2.92041015625-.97021484375,1.22509765625-.07861328125,2.71240234375-.150390625,4.46142578125-.21630859375,1.74755859375-.06396484375,3.40966796875-.0068359375,4.98388671875.17529296875,1.57421875.18310546875,2.94775390625.544921875,4.11865234375,1.08447265625,1.17138671875.541015625,1.7939453125,1.37548828125,1.86669921875,2.50732421875ZM78.627929687498181,90.876194730719362c-3.6708984375-1.0888671875-6.90380859375-1.306640625-9.70263671875-.65283203125-2.79931640625.65576171875-5.13916015625,1.8232421875-7.01904296875,3.50732421875-1.880859375,1.68359375-3.2880859375,3.74169921875-4.2197265625,6.16796875-.9326171875,2.4287109375-1.388671875,4.8974609375-1.369140625,7.40478515625.02001953125,2.509765625.5302734375,4.91552734375,1.53125,7.2177734375,1.0009765625,2.3037109375,2.47314453125,4.19775390625,4.41552734375,5.681640625,1.943359375,1.486328125,4.36669921875,2.37158203125,7.2744140625,2.65673828125,2.9072265625.28759765625,6.345703125-.3603515625,10.31689453125-1.9443359375-.29833984375-4.6201171875-.53173828125-9.34228515625-.7001953125-14.16162109375-.1689453125-4.8193359375-.34619140625-10.111328125-.52734375-15.87744140625Z"/>
          <path class="cls-1" d="M164.968749999998181,44.106663480719362c1.556640625.65869140625,2.5009765625,1.70947265625,2.83154296875,3.15576171875.3291015625,1.4482421875.3583984375,3.0087890625.08935546875,4.68212890625-.27197265625,1.67578125-.75830078125,3.31640625-1.4580078125,4.92431640625-.7021484375,1.6083984375-1.35302734375,2.90673828125-1.951171875,3.89111328125-.51708984375.7919921875-1.11279296875,1.47021484375-1.78662109375,2.03271484375-.673828125.56494140625-1.5419921875.69287109375-2.603515625.3818359375-4.08935546875-1.7255859375-7.50390625-2.90185546875-10.244140625-3.53125-2.7392578125-.6259765625-4.88720703125-.51220703125-6.44091796875.34521484375-1.556640625.859375-2.60888671875,2.51220703125-3.1611328125,4.962890625s-.73681640625,5.85009765625-.55029296875,10.193359375c.06396484375,2.4599609375.1728515625,4.8681640625.32470703125,7.224609375.15185546875,2.3583984375.30712890625,4.763671875.46533203125,7.21484375,3.666015625-.4248046875,7.64111328125-.82275390625,11.92724609375-1.1953125,4.28515625-.36962890625,8.267578125-.67529296875,11.9462890625-.91259765625,1.2607421875.48681640625,2.29736328125,1.865234375,3.10791015625,4.13232421875.80810546875,2.26953125,1.32080078125,4.72314453125,1.5400390625,7.359375.21728515625,2.63818359375.06640625,5.087890625-.44921875,7.345703125-.51806640625,2.25927734375-1.427734375,3.57275390625-2.72900390625,3.9404296875-.55419921875.2265625-1.91650390625.408203125-4.0849609375.5478515625-2.1708984375.14013671875-4.48388671875.2431640625-6.94189453125.3056640625-1.79248046875.11572265625-3.6572265625.2138671875-5.5927734375.28955078125-1.9375.07861328125-3.9931640625.14013671875-6.16845703125.18505859375.75390625,5.8251953125,1.39501953125,10.9912109375,1.923828125,15.5029296875.52685546875,4.51220703125.9560546875,8.5830078125,1.28466796875,12.2060546875.32763671875,3.62451171875.59033203125,6.94580078125.78515625,9.96533203125.19482421875,3.017578125.3349609375,5.94580078125.42431640625,8.78125.0791015625,1.22412109375.07421875,2.62353515625-.01416015625,4.19140625-.08935546875,1.56884765625-.37060546875,3.05419921875-.8486328125,4.458984375-.4775390625,1.40234375-1.22998046875,2.6123046875-2.251953125,3.6259765625-1.02490234375,1.01171875-2.384765625,1.57470703125-4.08203125,1.68408203125-1.41455078125.09130859375-2.9775390625.0966796875-4.6875.01806640625-1.7099609375-.080078125-3.34228515625-.4013671875-4.89208984375-.962890625-1.552734375-.56396484375-2.88330078125-1.37646484375-3.99365234375-2.44140625-1.11181640625-1.06494140625-1.7265625-2.54150390625-1.84814453125-4.42724609375-.49267578125-7.64013671875-1.04931640625-15.89306640625-1.66796875-24.75390625-.62060546875-8.861328125-1.4541015625-17.7578125-2.50341796875-26.689453125l-4.66845703125.30126953125c-.36572265625.21435546875-.74755859375.1904296875-1.14111328125-.068359375-.29541015625-.169921875-.62841796875-.5498046875-.9970703125-1.1435546875-.37158203125-.5908203125-.69189453125-1.5400390625-.96533203125-2.849609375-.26904296875-1.212890625-.5771484375-2.6845703125-.92431640625-4.41552734375-.3486328125-1.7294921875-.59814453125-3.3935546875-.748046875-4.99560546875-.15234375-1.59912109375-.16943359375-2.97265625-.052734375-4.11669921875.11474609375-1.14404296875.453125-1.7802734375,1.013671875-1.91162109375,1.119140625-.26123046875,2.21728515625-.4736328125,3.296875-.63916015625,1.0771484375-.1630859375,2.1806640625-.3291015625,3.306640625-.49755859375-.1826171875-2.82958984375-.38330078125-5.9423828125-.6025390625-9.33740234375-.21875-3.3955078125-.25-6.80322265625-.091796875-10.22314453125.15771484375-3.419921875.5576171875-6.78369140625,1.1962890625-10.09326171875.63916015625-3.30859375,1.6962890625-6.35986328125,3.17431640625-9.15478515625,1.47607421875-2.7939453125,3.47607421875-5.19677734375,5.9990234375-7.20556640625,2.52099609375-2.009765625,5.74609375-3.42578125,9.67041015625-4.2470703125,2.0556640625-.41650390625,4.2880859375-.70263671875,6.693359375-.85791015625,2.40478515625-.1552734375,4.79638671875-.142578125,7.17626953125.0341796875,2.3779296875.1796875,4.69580078125.50341796875,6.953125.97216796875,2.25439453125.4716796875,4.26025390625,1.07470703125,6.0126953125,1.814453125Z"/>
        </g>
        <g>
          <path class="cls-1" d="M98.161132812498181,41.312718168219362c.98681640625,31.4755859375,3.01953125,62.97900390625,6.09716796875,94.50732421875-.02197265625,1.138671875-.23486328125,2.2421875-.638671875,3.30908203125-.41845703125.87939453125-1.05029296875,1.72607421875-1.896484375,2.537109375-.8486328125.814453125-2.06787109375,1.36376953125-3.658203125,1.6572265625-2.15283203125.4228515625-4.380859375.73095703125-6.68798828125.9287109375-2.3095703125.1953125-4.248046875-.1298828125-5.81640625-.97412109375-5.86376953125,1.60791015625-11.90380859375,2.330078125-18.11669921875,2.1630859375-6.21435546875-.16748046875-11.92822265625-1.73876953125-17.13916015625-4.71923828125-4.52197265625-2.5498046875-8.09765625-5.84619140625-10.72509765625-9.89208984375-2.62939453125-4.04345703125-4.37841796875-8.40576171875-5.248046875-13.08642578125-.87060546875-4.67919921875-.921875-9.50634765625-.15283203125-14.4814453125.76708984375-4.97265625,2.29150390625-9.6171875,4.5703125-13.93310546875,1.861328125-3.4345703125,4.22216796875-6.474609375,7.08349609375-9.123046875,2.859375-2.646484375,6.009765625-4.8388671875,9.44921875-6.576171875,3.439453125-1.736328125,7.1259765625-2.9462890625,11.06005859375-3.62646484375,3.9345703125-.6796875,7.86083984375-.72021484375,11.7841796875-.12060546875-.06103515625-3.87841796875-.0791015625-7.45361328125-.05224609375-10.72265625.02392578125-3.26904296875.052734375-6.13427734375.083984375-8.6005859375.00537109375-2.841796875.0263671875-5.447265625.06396484375-7.81787109375-.14990234375-.84228515625-.056640625-1.60546875.27880859375-2.291015625.24609375-.583984375.6826171875-1.15625,1.3095703125-1.71826171875.62548828125-.56005859375,1.5986328125-.884765625,2.92041015625-.97021484375,1.22509765625-.07861328125,2.71240234375-.150390625,4.46142578125-.21630859375,1.74755859375-.06396484375,3.40966796875-.0068359375,4.98388671875.17529296875,1.57421875.18310546875,2.94775390625.544921875,4.11865234375,1.08447265625,1.17138671875.541015625,1.7939453125,1.37548828125,1.86669921875,2.50732421875ZM78.627929687498181,90.876194730719362c-3.6708984375-1.0888671875-6.90380859375-1.306640625-9.70263671875-.65283203125-2.79931640625.65576171875-5.13916015625,1.8232421875-7.01904296875,3.50732421875-1.880859375,1.68359375-3.2880859375,3.74169921875-4.2197265625,6.16796875-.9326171875,2.4287109375-1.388671875,4.8974609375-1.369140625,7.40478515625.02001953125,2.509765625.5302734375,4.91552734375,1.53125,7.2177734375,1.0009765625,2.3037109375,2.47314453125,4.19775390625,4.41552734375,5.681640625,1.943359375,1.486328125,4.36669921875,2.37158203125,7.2744140625,2.65673828125,2.9072265625.28759765625,6.345703125-.3603515625,10.31689453125-1.9443359375-.29833984375-4.6201171875-.53173828125-9.34228515625-.7001953125-14.16162109375-.1689453125-4.8193359375-.34619140625-10.111328125-.52734375-15.87744140625Z"/>
          <path class="cls-1" d="M164.968749999998181,44.106663480719362c1.556640625.65869140625,2.5009765625,1.70947265625,2.83154296875,3.15576171875.3291015625,1.4482421875.3583984375,3.0087890625.08935546875,4.68212890625-.27197265625,1.67578125-.75830078125,3.31640625-1.4580078125,4.92431640625-.7021484375,1.6083984375-1.35302734375,2.90673828125-1.951171875,3.89111328125-.51708984375.7919921875-1.11279296875,1.47021484375-1.78662109375,2.03271484375-.673828125.56494140625-1.5419921875.69287109375-2.603515625.3818359375-4.08935546875-1.7255859375-7.50390625-2.90185546875-10.244140625-3.53125-2.7392578125-.6259765625-4.88720703125-.51220703125-6.44091796875.34521484375-1.556640625.859375-2.60888671875,2.51220703125-3.1611328125,4.962890625s-.73681640625,5.85009765625-.55029296875,10.193359375c.06396484375,2.4599609375.1728515625,4.8681640625.32470703125,7.224609375.15185546875,2.3583984375.30712890625,4.763671875.46533203125,7.21484375,3.666015625-.4248046875,7.64111328125-.82275390625,11.92724609375-1.1953125,4.28515625-.36962890625,8.267578125-.67529296875,11.9462890625-.91259765625,1.2607421875.48681640625,2.29736328125,1.865234375,3.10791015625,4.13232421875.80810546875,2.26953125,1.32080078125,4.72314453125,1.5400390625,7.359375.21728515625,2.63818359375.06640625,5.087890625-.44921875,7.345703125-.51806640625,2.25927734375-1.427734375,3.57275390625-2.72900390625,3.9404296875-.55419921875.2265625-1.91650390625.408203125-4.0849609375.5478515625-2.1708984375.14013671875-4.48388671875.2431640625-6.94189453125.3056640625-1.79248046875.11572265625-3.6572265625.2138671875-5.5927734375.28955078125-1.9375.07861328125-3.9931640625.14013671875-6.16845703125.18505859375.75390625,5.8251953125,1.39501953125,10.9912109375,1.923828125,15.5029296875.52685546875,4.51220703125.9560546875,8.5830078125,1.28466796875,12.2060546875.32763671875,3.62451171875.59033203125,6.94580078125.78515625,9.96533203125.19482421875,3.017578125.3349609375,5.94580078125.42431640625,8.78125.0791015625,1.22412109375.07421875,2.62353515625-.01416015625,4.19140625-.08935546875,1.56884765625-.37060546875,3.05419921875-.8486328125,4.458984375-.4775390625,1.40234375-1.22998046875,2.6123046875-2.251953125,3.6259765625-1.02490234375,1.01171875-2.384765625,1.57470703125-4.08203125,1.68408203125-1.41455078125.09130859375-2.9775390625.0966796875-4.6875.01806640625-1.7099609375-.080078125-3.34228515625-.4013671875-4.89208984375-.962890625-1.552734375-.56396484375-2.88330078125-1.37646484375-3.99365234375-2.44140625-1.11181640625-1.06494140625-1.7265625-2.54150390625-1.84814453125-4.42724609375-.49267578125-7.64013671875-1.04931640625-15.89306640625-1.66796875-24.75390625-.62060546875-8.861328125-1.4541015625-17.7578125-2.50341796875-26.689453125l-4.66845703125.30126953125c-.36572265625.21435546875-.74755859375.1904296875-1.14111328125-.068359375-.29541015625-.169921875-.62841796875-.5498046875-.9970703125-1.1435546875-.37158203125-.5908203125-.69189453125-1.5400390625-.96533203125-2.849609375-.26904296875-1.212890625-.5771484375-2.6845703125-.92431640625-4.41552734375-.3486328125-1.7294921875-.59814453125-3.3935546875-.748046875-4.99560546875-.15234375-1.59912109375-.16943359375-2.97265625-.052734375-4.11669921875.11474609375-1.14404296875.453125-1.7802734375,1.013671875-1.91162109375,1.119140625-.26123046875,2.21728515625-.4736328125,3.296875-.63916015625,1.0771484375-.1630859375,2.1806640625-.3291015625,3.306640625-.49755859375-.1826171875-2.82958984375-.38330078125-5.9423828125-.6025390625-9.33740234375-.21875-3.3955078125-.25-6.80322265625-.091796875-10.22314453125.15771484375-3.419921875.5576171875-6.78369140625,1.1962890625-10.09326171875.63916015625-3.30859375,1.6962890625-6.35986328125,3.17431640625-9.15478515625,1.47607421875-2.7939453125,3.47607421875-5.19677734375,5.9990234375-7.20556640625,2.52099609375-2.009765625,5.74609375-3.42578125,9.67041015625-4.2470703125,2.0556640625-.41650390625,4.2880859375-.70263671875,6.693359375-.85791015625,2.40478515625-.1552734375,4.79638671875-.142578125,7.17626953125.0341796875,2.3779296875.1796875,4.69580078125.50341796875,6.953125.97216796875,2.25439453125.4716796875,4.26025390625,1.07470703125,6.0126953125,1.814453125Z"/>
        </g>
        <g>
          <path class="cls-1" d="M98.161132812498181,41.312718168219362c.98681640625,31.4755859375,3.01953125,62.97900390625,6.09716796875,94.50732421875-.02197265625,1.138671875-.23486328125,2.2421875-.638671875,3.30908203125-.41845703125.87939453125-1.05029296875,1.72607421875-1.896484375,2.537109375-.8486328125.814453125-2.06787109375,1.36376953125-3.658203125,1.6572265625-2.15283203125.4228515625-4.380859375.73095703125-6.68798828125.9287109375-2.3095703125.1953125-4.248046875-.1298828125-5.81640625-.97412109375-5.86376953125,1.60791015625-11.90380859375,2.330078125-18.11669921875,2.1630859375-6.21435546875-.16748046875-11.92822265625-1.73876953125-17.13916015625-4.71923828125-4.52197265625-2.5498046875-8.09765625-5.84619140625-10.72509765625-9.89208984375-2.62939453125-4.04345703125-4.37841796875-8.40576171875-5.248046875-13.08642578125-.87060546875-4.67919921875-.921875-9.50634765625-.15283203125-14.4814453125.76708984375-4.97265625,2.29150390625-9.6171875,4.5703125-13.93310546875,1.861328125-3.4345703125,4.22216796875-6.474609375,7.08349609375-9.123046875,2.859375-2.646484375,6.009765625-4.8388671875,9.44921875-6.576171875,3.439453125-1.736328125,7.1259765625-2.9462890625,11.06005859375-3.62646484375,3.9345703125-.6796875,7.86083984375-.72021484375,11.7841796875-.12060546875-.06103515625-3.87841796875-.0791015625-7.45361328125-.05224609375-10.72265625.02392578125-3.26904296875.052734375-6.13427734375.083984375-8.6005859375.00537109375-2.841796875.0263671875-5.447265625.06396484375-7.81787109375-.14990234375-.84228515625-.056640625-1.60546875.27880859375-2.291015625.24609375-.583984375.6826171875-1.15625,1.3095703125-1.71826171875.62548828125-.56005859375,1.5986328125-.884765625,2.92041015625-.97021484375,1.22509765625-.07861328125,2.71240234375-.150390625,4.46142578125-.21630859375,1.74755859375-.06396484375,3.40966796875-.0068359375,4.98388671875.17529296875,1.57421875.18310546875,2.94775390625.544921875,4.11865234375,1.08447265625,1.17138671875.541015625,1.7939453125,1.37548828125,1.86669921875,2.50732421875ZM78.627929687498181,90.876194730719362c-3.6708984375-1.0888671875-6.90380859375-1.306640625-9.70263671875-.65283203125-2.79931640625.65576171875-5.13916015625,1.8232421875-7.01904296875,3.50732421875-1.880859375,1.68359375-3.2880859375,3.74169921875-4.2197265625,6.16796875-.9326171875,2.4287109375-1.388671875,4.8974609375-1.369140625,7.40478515625.02001953125,2.509765625.5302734375,4.91552734375,1.53125,7.2177734375,1.0009765625,2.3037109375,2.47314453125,4.19775390625,4.41552734375,5.681640625,1.943359375,1.486328125,4.36669921875,2.37158203125,7.2744140625,2.65673828125,2.9072265625.28759765625,6.345703125-.3603515625,10.31689453125-1.9443359375-.29833984375-4.6201171875-.53173828125-9.34228515625-.7001953125-14.16162109375-.1689453125-4.8193359375-.34619140625-10.111328125-.52734375-15.87744140625Z"/>
          <path class="cls-1" d="M164.968749999998181,44.106663480719362c1.556640625.65869140625,2.5009765625,1.70947265625,2.83154296875,3.15576171875.3291015625,1.4482421875.3583984375,3.0087890625.08935546875,4.68212890625-.27197265625,1.67578125-.75830078125,3.31640625-1.4580078125,4.92431640625-.7021484375,1.6083984375-1.35302734375,2.90673828125-1.951171875,3.89111328125-.51708984375.7919921875-1.11279296875,1.47021484375-1.78662109375,2.03271484375-.673828125.56494140625-1.5419921875.69287109375-2.603515625.3818359375-4.08935546875-1.7255859375-7.50390625-2.90185546875-10.244140625-3.53125-2.7392578125-.6259765625-4.88720703125-.51220703125-6.44091796875.34521484375-1.556640625.859375-2.60888671875,2.51220703125-3.1611328125,4.962890625s-.73681640625,5.85009765625-.55029296875,10.193359375c.06396484375,2.4599609375.1728515625,4.8681640625.32470703125,7.224609375.15185546875,2.3583984375.30712890625,4.763671875.46533203125,7.21484375,3.666015625-.4248046875,7.64111328125-.82275390625,11.92724609375-1.1953125,4.28515625-.36962890625,8.267578125-.67529296875,11.9462890625-.91259765625,1.2607421875.48681640625,2.29736328125,1.865234375,3.10791015625,4.13232421875.80810546875,2.26953125,1.32080078125,4.72314453125,1.5400390625,7.359375.21728515625,2.63818359375.06640625,5.087890625-.44921875,7.345703125-.51806640625,2.25927734375-1.427734375,3.57275390625-2.72900390625,3.9404296875-.55419921875.2265625-1.91650390625.408203125-4.0849609375.5478515625-2.1708984375.14013671875-4.48388671875.2431640625-6.94189453125.3056640625-1.79248046875.11572265625-3.6572265625.2138671875-5.5927734375.28955078125-1.9375.07861328125-3.9931640625.14013671875-6.16845703125.18505859375.75390625,5.8251953125,1.39501953125,10.9912109375,1.923828125,15.5029296875.52685546875,4.51220703125.9560546875,8.5830078125,1.28466796875,12.2060546875.32763671875,3.62451171875.59033203125,6.94580078125.78515625,9.96533203125.19482421875,3.017578125.3349609375,5.94580078125.42431640625,8.78125.0791015625,1.22412109375.07421875,2.62353515625-.01416015625,4.19140625-.08935546875,1.56884765625-.37060546875,3.05419921875-.8486328125,4.458984375-.4775390625,1.40234375-1.22998046875,2.6123046875-2.251953125,3.6259765625-1.02490234375,1.01171875-2.384765625,1.57470703125-4.08203125,1.68408203125-1.41455078125.09130859375-2.9775390625.0966796875-4.6875.01806640625-1.7099609375-.080078125-3.34228515625-.4013671875-4.89208984375-.962890625-1.552734375-.56396484375-2.88330078125-1.37646484375-3.99365234375-2.44140625-1.11181640625-1.06494140625-1.7265625-2.54150390625-1.84814453125-4.42724609375-.49267578125-7.64013671875-1.04931640625-15.89306640625-1.66796875-24.75390625-.62060546875-8.861328125-1.4541015625-17.7578125-2.50341796875-26.689453125l-4.66845703125.30126953125c-.36572265625.21435546875-.74755859375.1904296875-1.14111328125-.068359375-.29541015625-.169921875-.62841796875-.5498046875-.9970703125-1.1435546875-.37158203125-.5908203125-.69189453125-1.5400390625-.96533203125-2.849609375-.26904296875-1.212890625-.5771484375-2.6845703125-.92431640625-4.41552734375-.3486328125-1.7294921875-.59814453125-3.3935546875-.748046875-4.99560546875-.15234375-1.59912109375-.16943359375-2.97265625-.052734375-4.11669921875.11474609375-1.14404296875.453125-1.7802734375,1.013671875-1.91162109375,1.119140625-.26123046875,2.21728515625-.4736328125,3.296875-.63916015625,1.0771484375-.1630859375,2.1806640625-.3291015625,3.306640625-.49755859375-.1826171875-2.82958984375-.38330078125-5.9423828125-.6025390625-9.33740234375-.21875-3.3955078125-.25-6.80322265625-.091796875-10.22314453125.15771484375-3.419921875.5576171875-6.78369140625,1.1962890625-10.09326171875.63916015625-3.30859375,1.6962890625-6.35986328125,3.17431640625-9.15478515625,1.47607421875-2.7939453125,3.47607421875-5.19677734375,5.9990234375-7.20556640625,2.52099609375-2.009765625,5.74609375-3.42578125,9.67041015625-4.2470703125,2.0556640625-.41650390625,4.2880859375-.70263671875,6.693359375-.85791015625,2.40478515625-.1552734375,4.79638671875-.142578125,7.17626953125.0341796875,2.3779296875.1796875,4.69580078125.50341796875,6.953125.97216796875,2.25439453125.4716796875,4.26025390625,1.07470703125,6.0126953125,1.814453125Z"/>
        </g>
      </g>
      <g>
        <g>
          <path class="cls-2" d="M98.161132812498181,41.312718168219362c.98681640625,31.4755859375,3.01953125,62.97900390625,6.09716796875,94.50732421875-.02197265625,1.138671875-.23486328125,2.2421875-.638671875,3.30908203125-.41845703125.87939453125-1.05029296875,1.72607421875-1.896484375,2.537109375-.8486328125.814453125-2.06787109375,1.36376953125-3.658203125,1.6572265625-2.15283203125.4228515625-4.380859375.73095703125-6.68798828125.9287109375-2.3095703125.1953125-4.248046875-.1298828125-5.81640625-.97412109375-5.86376953125,1.60791015625-11.90380859375,2.330078125-18.11669921875,2.1630859375-6.21435546875-.16748046875-11.92822265625-1.73876953125-17.13916015625-4.71923828125-4.52197265625-2.5498046875-8.09765625-5.84619140625-10.72509765625-9.89208984375-2.62939453125-4.04345703125-4.37841796875-8.40576171875-5.248046875-13.08642578125-.87060546875-4.67919921875-.921875-9.50634765625-.15283203125-14.4814453125.76708984375-4.97265625,2.29150390625-9.6171875,4.5703125-13.93310546875,1.861328125-3.4345703125,4.22216796875-6.474609375,7.08349609375-9.123046875,2.859375-2.646484375,6.009765625-4.8388671875,9.44921875-6.576171875,3.439453125-1.736328125,7.1259765625-2.9462890625,11.06005859375-3.62646484375,3.9345703125-.6796875,7.86083984375-.72021484375,11.7841796875-.12060546875-.06103515625-3.87841796875-.0791015625-7.45361328125-.05224609375-10.72265625.02392578125-3.26904296875.052734375-6.13427734375.083984375-8.6005859375.00537109375-2.841796875.0263671875-5.447265625.06396484375-7.81787109375-.14990234375-.84228515625-.056640625-1.60546875.27880859375-2.291015625.24609375-.583984375.6826171875-1.15625,1.3095703125-1.71826171875.62548828125-.56005859375,1.5986328125-.884765625,2.92041015625-.97021484375,1.22509765625-.07861328125,2.71240234375-.150390625,4.46142578125-.21630859375,1.74755859375-.06396484375,3.40966796875-.0068359375,4.98388671875.17529296875,1.57421875.18310546875,2.94775390625.544921875,4.11865234375,1.08447265625,1.17138671875.541015625,1.7939453125,1.37548828125,1.86669921875,2.50732421875ZM78.627929687498181,90.876194730719362c-3.6708984375-1.0888671875-6.90380859375-1.306640625-9.70263671875-.65283203125-2.79931640625.65576171875-5.13916015625,1.8232421875-7.01904296875,3.50732421875-1.880859375,1.68359375-3.2880859375,3.74169921875-4.2197265625,6.16796875-.9326171875,2.4287109375-1.388671875,4.8974609375-1.369140625,7.40478515625.02001953125,2.509765625.5302734375,4.91552734375,1.53125,7.2177734375,1.0009765625,2.3037109375,2.47314453125,4.19775390625,4.41552734375,5.681640625,1.943359375,1.486328125,4.36669921875,2.37158203125,7.2744140625,2.65673828125,2.9072265625.28759765625,6.345703125-.3603515625,10.31689453125-1.9443359375-.29833984375-4.6201171875-.53173828125-9.34228515625-.7001953125-14.16162109375-.1689453125-4.8193359375-.34619140625-10.111328125-.52734375-15.87744140625Z"/>
          <path class="cls-2" d="M164.968749999998181,44.106663480719362c1.556640625.65869140625,2.5009765625,1.70947265625,2.83154296875,3.15576171875.3291015625,1.4482421875.3583984375,3.0087890625.08935546875,4.68212890625-.27197265625,1.67578125-.75830078125,3.31640625-1.4580078125,4.92431640625-.7021484375,1.6083984375-1.35302734375,2.90673828125-1.951171875,3.89111328125-.51708984375.7919921875-1.11279296875,1.47021484375-1.78662109375,2.03271484375-.673828125.56494140625-1.5419921875.69287109375-2.603515625.3818359375-4.08935546875-1.7255859375-7.50390625-2.90185546875-10.244140625-3.53125-2.7392578125-.6259765625-4.88720703125-.51220703125-6.44091796875.34521484375-1.556640625.859375-2.60888671875,2.51220703125-3.1611328125,4.962890625s-.73681640625,5.85009765625-.55029296875,10.193359375c.06396484375,2.4599609375.1728515625,4.8681640625.32470703125,7.224609375.15185546875,2.3583984375.30712890625,4.763671875.46533203125,7.21484375,3.666015625-.4248046875,7.64111328125-.82275390625,11.92724609375-1.1953125,4.28515625-.36962890625,8.267578125-.67529296875,11.9462890625-.91259765625,1.2607421875.48681640625,2.29736328125,1.865234375,3.10791015625,4.13232421875.80810546875,2.26953125,1.32080078125,4.72314453125,1.5400390625,7.359375.21728515625,2.63818359375.06640625,5.087890625-.44921875,7.345703125-.51806640625,2.25927734375-1.427734375,3.57275390625-2.72900390625,3.9404296875-.55419921875.2265625-1.91650390625.408203125-4.0849609375.5478515625-2.1708984375.14013671875-4.48388671875.2431640625-6.94189453125.3056640625-1.79248046875.11572265625-3.6572265625.2138671875-5.5927734375.28955078125-1.9375.07861328125-3.9931640625.14013671875-6.16845703125.18505859375.75390625,5.8251953125,1.39501953125,10.9912109375,1.923828125,15.5029296875.52685546875,4.51220703125.9560546875,8.5830078125,1.28466796875,12.2060546875.32763671875,3.62451171875.59033203125,6.94580078125.78515625,9.96533203125.19482421875,3.017578125.3349609375,5.94580078125.42431640625,8.78125.0791015625,1.22412109375.07421875,2.62353515625-.01416015625,4.19140625-.08935546875,1.56884765625-.37060546875,3.05419921875-.8486328125,4.458984375-.4775390625,1.40234375-1.22998046875,2.6123046875-2.251953125,3.6259765625-1.02490234375,1.01171875-2.384765625,1.57470703125-4.08203125,1.68408203125-1.41455078125.09130859375-2.9775390625.0966796875-4.6875.01806640625-1.7099609375-.080078125-3.34228515625-.4013671875-4.89208984375-.962890625-1.552734375-.56396484375-2.88330078125-1.37646484375-3.99365234375-2.44140625-1.11181640625-1.06494140625-1.7265625-2.54150390625-1.84814453125-4.42724609375-.49267578125-7.64013671875-1.04931640625-15.89306640625-1.66796875-24.75390625-.62060546875-8.861328125-1.4541015625-17.7578125-2.50341796875-26.689453125l-4.66845703125.30126953125c-.36572265625.21435546875-.74755859375.1904296875-1.14111328125-.068359375-.29541015625-.169921875-.62841796875-.5498046875-.9970703125-1.1435546875-.37158203125-.5908203125-.69189453125-1.5400390625-.96533203125-2.849609375-.26904296875-1.212890625-.5771484375-2.6845703125-.92431640625-4.41552734375-.3486328125-1.7294921875-.59814453125-3.3935546875-.748046875-4.99560546875-.15234375-1.59912109375-.16943359375-2.97265625-.052734375-4.11669921875.11474609375-1.14404296875.453125-1.7802734375,1.013671875-1.91162109375,1.119140625-.26123046875,2.21728515625-.4736328125,3.296875-.63916015625,1.0771484375-.1630859375,2.1806640625-.3291015625,3.306640625-.49755859375-.1826171875-2.82958984375-.38330078125-5.9423828125-.6025390625-9.33740234375-.21875-3.3955078125-.25-6.80322265625-.091796875-10.22314453125.15771484375-3.419921875.5576171875-6.78369140625,1.1962890625-10.09326171875.63916015625-3.30859375,1.6962890625-6.35986328125,3.17431640625-9.15478515625,1.47607421875-2.7939453125,3.47607421875-5.19677734375,5.9990234375-7.20556640625,2.52099609375-2.009765625,5.74609375-3.42578125,9.67041015625-4.2470703125,2.0556640625-.41650390625,4.2880859375-.70263671875,6.693359375-.85791015625,2.40478515625-.1552734375,4.79638671875-.142578125,7.17626953125.0341796875,2.3779296875.1796875,4.69580078125.50341796875,6.953125.97216796875,2.25439453125.4716796875,4.26025390625,1.07470703125,6.0126953125,1.814453125Z"/>
        </g>
        <g>
          <path class="cls-2" d="M98.161132812498181,41.312718168219362c.98681640625,31.4755859375,3.01953125,62.97900390625,6.09716796875,94.50732421875-.02197265625,1.138671875-.23486328125,2.2421875-.638671875,3.30908203125-.41845703125.87939453125-1.05029296875,1.72607421875-1.896484375,2.537109375-.8486328125.814453125-2.06787109375,1.36376953125-3.658203125,1.6572265625-2.15283203125.4228515625-4.380859375.73095703125-6.68798828125.9287109375-2.3095703125.1953125-4.248046875-.1298828125-5.81640625-.97412109375-5.86376953125,1.60791015625-11.90380859375,2.330078125-18.11669921875,2.1630859375-6.21435546875-.16748046875-11.92822265625-1.73876953125-17.13916015625-4.71923828125-4.52197265625-2.5498046875-8.09765625-5.84619140625-10.72509765625-9.89208984375-2.62939453125-4.04345703125-4.37841796875-8.40576171875-5.248046875-13.08642578125-.87060546875-4.67919921875-.921875-9.50634765625-.15283203125-14.4814453125.76708984375-4.97265625,2.29150390625-9.6171875,4.5703125-13.93310546875,1.861328125-3.4345703125,4.22216796875-6.474609375,7.08349609375-9.123046875,2.859375-2.646484375,6.009765625-4.8388671875,9.44921875-6.576171875,3.439453125-1.736328125,7.1259765625-2.9462890625,11.06005859375-3.62646484375,3.9345703125-.6796875,7.86083984375-.72021484375,11.7841796875-.12060546875-.06103515625-3.87841796875-.0791015625-7.45361328125-.05224609375-10.72265625.02392578125-3.26904296875.052734375-6.13427734375.083984375-8.6005859375.00537109375-2.841796875.0263671875-5.447265625.06396484375-7.81787109375-.14990234375-.84228515625-.056640625-1.60546875.27880859375-2.291015625.24609375-.583984375.6826171875-1.15625,1.3095703125-1.71826171875.62548828125-.56005859375,1.5986328125-.884765625,2.92041015625-.97021484375,1.22509765625-.07861328125,2.71240234375-.150390625,4.46142578125-.21630859375,1.74755859375-.06396484375,3.40966796875-.0068359375,4.98388671875.17529296875,1.57421875.18310546875,2.94775390625.544921875,4.11865234375,1.08447265625,1.17138671875.541015625,1.7939453125,1.37548828125,1.86669921875,2.50732421875ZM78.627929687498181,90.876194730719362c-3.6708984375-1.0888671875-6.90380859375-1.306640625-9.70263671875-.65283203125-2.79931640625.65576171875-5.13916015625,1.8232421875-7.01904296875,3.50732421875-1.880859375,1.68359375-3.2880859375,3.74169921875-4.2197265625,6.16796875-.9326171875,2.4287109375-1.388671875,4.8974609375-1.369140625,7.40478515625.02001953125,2.509765625.5302734375,4.91552734375,1.53125,7.2177734375,1.0009765625,2.3037109375,2.47314453125,4.19775390625,4.41552734375,5.681640625,1.943359375,1.486328125,4.36669921875,2.37158203125,7.2744140625,2.65673828125,2.9072265625.28759765625,6.345703125-.3603515625,10.31689453125-1.9443359375-.29833984375-4.6201171875-.53173828125-9.34228515625-.7001953125-14.16162109375-.1689453125-4.8193359375-.34619140625-10.111328125-.52734375-15.87744140625Z"/>
          <path class="cls-2" d="M164.968749999998181,44.106663480719362c1.556640625.65869140625,2.5009765625,1.70947265625,2.83154296875,3.15576171875.3291015625,1.4482421875.3583984375,3.0087890625.08935546875,4.68212890625-.27197265625,1.67578125-.75830078125,3.31640625-1.4580078125,4.92431640625-.7021484375,1.6083984375-1.35302734375,2.90673828125-1.951171875,3.89111328125-.51708984375.7919921875-1.11279296875,1.47021484375-1.78662109375,2.03271484375-.673828125.56494140625-1.5419921875.69287109375-2.603515625.3818359375-4.08935546875-1.7255859375-7.50390625-2.90185546875-10.244140625-3.53125-2.7392578125-.6259765625-4.88720703125-.51220703125-6.44091796875.34521484375-1.556640625.859375-2.60888671875,2.51220703125-3.1611328125,4.962890625s-.73681640625,5.85009765625-.55029296875,10.193359375c.06396484375,2.4599609375.1728515625,4.8681640625.32470703125,7.224609375.15185546875,2.3583984375.30712890625,4.763671875.46533203125,7.21484375,3.666015625-.4248046875,7.64111328125-.82275390625,11.92724609375-1.1953125,4.28515625-.36962890625,8.267578125-.67529296875,11.9462890625-.91259765625,1.2607421875.48681640625,2.29736328125,1.865234375,3.10791015625,4.13232421875.80810546875,2.26953125,1.32080078125,4.72314453125,1.5400390625,7.359375.21728515625,2.63818359375.06640625,5.087890625-.44921875,7.345703125-.51806640625,2.25927734375-1.427734375,3.57275390625-2.72900390625,3.9404296875-.55419921875.2265625-1.91650390625.408203125-4.0849609375.5478515625-2.1708984375.14013671875-4.48388671875.2431640625-6.94189453125.3056640625-1.79248046875.11572265625-3.6572265625.2138671875-5.5927734375.28955078125-1.9375.07861328125-3.9931640625.14013671875-6.16845703125.18505859375.75390625,5.8251953125,1.39501953125,10.9912109375,1.923828125,15.5029296875.52685546875,4.51220703125.9560546875,8.5830078125,1.28466796875,12.2060546875.32763671875,3.62451171875.59033203125,6.94580078125.78515625,9.96533203125.19482421875,3.017578125.3349609375,5.94580078125.42431640625,8.78125.0791015625,1.22412109375.07421875,2.62353515625-.01416015625,4.19140625-.08935546875,1.56884765625-.37060546875,3.05419921875-.8486328125,4.458984375-.4775390625,1.40234375-1.22998046875,2.6123046875-2.251953125,3.6259765625-1.02490234375,1.01171875-2.384765625,1.57470703125-4.08203125,1.68408203125-1.41455078125.09130859375-2.9775390625.0966796875-4.6875.01806640625-1.7099609375-.080078125-3.34228515625-.4013671875-4.89208984375-.962890625-1.552734375-.56396484375-2.88330078125-1.37646484375-3.99365234375-2.44140625-1.11181640625-1.06494140625-1.7265625-2.54150390625-1.84814453125-4.42724609375-.49267578125-7.64013671875-1.04931640625-15.89306640625-1.66796875-24.75390625-.62060546875-8.861328125-1.4541015625-17.7578125-2.50341796875-26.689453125l-4.66845703125.30126953125c-.36572265625.21435546875-.74755859375.1904296875-1.14111328125-.068359375-.29541015625-.169921875-.62841796875-.5498046875-.9970703125-1.1435546875-.37158203125-.5908203125-.69189453125-1.5400390625-.96533203125-2.849609375-.26904296875-1.212890625-.5771484375-2.6845703125-.92431640625-4.41552734375-.3486328125-1.7294921875-.59814453125-3.3935546875-.748046875-4.99560546875-.15234375-1.59912109375-.16943359375-2.97265625-.052734375-4.11669921875.11474609375-1.14404296875.453125-1.7802734375,1.013671875-1.91162109375,1.119140625-.26123046875,2.21728515625-.4736328125,3.296875-.63916015625,1.0771484375-.1630859375,2.1806640625-.3291015625,3.306640625-.49755859375-.1826171875-2.82958984375-.38330078125-5.9423828125-.6025390625-9.33740234375-.21875-3.3955078125-.25-6.80322265625-.091796875-10.22314453125.15771484375-3.419921875.5576171875-6.78369140625,1.1962890625-10.09326171875.63916015625-3.30859375,1.6962890625-6.35986328125,3.17431640625-9.15478515625,1.47607421875-2.7939453125,3.47607421875-5.19677734375,5.9990234375-7.20556640625,2.52099609375-2.009765625,5.74609375-3.42578125,9.67041015625-4.2470703125,2.0556640625-.41650390625,4.2880859375-.70263671875,6.693359375-.85791015625,2.40478515625-.1552734375,4.79638671875-.142578125,7.17626953125.0341796875,2.3779296875.1796875,4.69580078125.50341796875,6.953125.97216796875,2.25439453125.4716796875,4.26025390625,1.07470703125,6.0126953125,1.814453125Z"/>
        </g>
        <g>
          <path class="cls-2" d="M98.161132812498181,41.312718168219362c.98681640625,31.4755859375,3.01953125,62.97900390625,6.09716796875,94.50732421875-.02197265625,1.138671875-.23486328125,2.2421875-.638671875,3.30908203125-.41845703125.87939453125-1.05029296875,1.72607421875-1.896484375,2.537109375-.8486328125.814453125-2.06787109375,1.36376953125-3.658203125,1.6572265625-2.15283203125.4228515625-4.380859375.73095703125-6.68798828125.9287109375-2.3095703125.1953125-4.248046875-.1298828125-5.81640625-.97412109375-5.86376953125,1.60791015625-11.90380859375,2.330078125-18.11669921875,2.1630859375-6.21435546875-.16748046875-11.92822265625-1.73876953125-17.13916015625-4.71923828125-4.52197265625-2.5498046875-8.09765625-5.84619140625-10.72509765625-9.89208984375-2.62939453125-4.04345703125-4.37841796875-8.40576171875-5.248046875-13.08642578125-.87060546875-4.67919921875-.921875-9.50634765625-.15283203125-14.4814453125.76708984375-4.97265625,2.29150390625-9.6171875,4.5703125-13.93310546875,1.861328125-3.4345703125,4.22216796875-6.474609375,7.08349609375-9.123046875,2.859375-2.646484375,6.009765625-4.8388671875,9.44921875-6.576171875,3.439453125-1.736328125,7.1259765625-2.9462890625,11.06005859375-3.62646484375,3.9345703125-.6796875,7.86083984375-.72021484375,11.7841796875-.12060546875-.06103515625-3.87841796875-.0791015625-7.45361328125-.05224609375-10.72265625.02392578125-3.26904296875.052734375-6.13427734375.083984375-8.6005859375.00537109375-2.841796875.0263671875-5.447265625.06396484375-7.81787109375-.14990234375-.84228515625-.056640625-1.60546875.27880859375-2.291015625.24609375-.583984375.6826171875-1.15625,1.3095703125-1.71826171875.62548828125-.56005859375,1.5986328125-.884765625,2.92041015625-.97021484375,1.22509765625-.07861328125,2.71240234375-.150390625,4.46142578125-.21630859375,1.74755859375-.06396484375,3.40966796875-.0068359375,4.98388671875.17529296875,1.57421875.18310546875,2.94775390625.544921875,4.11865234375,1.08447265625,1.17138671875.541015625,1.7939453125,1.37548828125,1.86669921875,2.50732421875ZM78.627929687498181,90.876194730719362c-3.6708984375-1.0888671875-6.90380859375-1.306640625-9.70263671875-.65283203125-2.79931640625.65576171875-5.13916015625,1.8232421875-7.01904296875,3.50732421875-1.880859375,1.68359375-3.2880859375,3.74169921875-4.2197265625,6.16796875-.9326171875,2.4287109375-1.388671875,4.8974609375-1.369140625,7.40478515625.02001953125,2.509765625.5302734375,4.91552734375,1.53125,7.2177734375,1.0009765625,2.3037109375,2.47314453125,4.19775390625,4.41552734375,5.681640625,1.943359375,1.486328125,4.36669921875,2.37158203125,7.2744140625,2.65673828125,2.9072265625.28759765625,6.345703125-.3603515625,10.31689453125-1.9443359375-.29833984375-4.6201171875-.53173828125-9.34228515625-.7001953125-14.16162109375-.1689453125-4.8193359375-.34619140625-10.111328125-.52734375-15.87744140625Z"/>
          <path class="cls-2" d="M164.968749999998181,44.106663480719362c1.556640625.65869140625,2.5009765625,1.70947265625,2.83154296875,3.15576171875.3291015625,1.4482421875.3583984375,3.0087890625.08935546875,4.68212890625-.27197265625,1.67578125-.75830078125,3.31640625-1.4580078125,4.92431640625-.7021484375,1.6083984375-1.35302734375,2.90673828125-1.951171875,3.89111328125-.51708984375.7919921875-1.11279296875,1.47021484375-1.78662109375,2.03271484375-.673828125.56494140625-1.5419921875.69287109375-2.603515625.3818359375-4.08935546875-1.7255859375-7.50390625-2.90185546875-10.244140625-3.53125-2.7392578125-.6259765625-4.88720703125-.51220703125-6.44091796875.34521484375-1.556640625.859375-2.60888671875,2.51220703125-3.1611328125,4.962890625s-.73681640625,5.85009765625-.55029296875,10.193359375c.06396484375,2.4599609375.1728515625,4.8681640625.32470703125,7.224609375.15185546875,2.3583984375.30712890625,4.763671875.46533203125,7.21484375,3.666015625-.4248046875,7.64111328125-.82275390625,11.92724609375-1.1953125,4.28515625-.36962890625,8.267578125-.67529296875,11.9462890625-.91259765625,1.2607421875.48681640625,2.29736328125,1.865234375,3.10791015625,4.13232421875.80810546875,2.26953125,1.32080078125,4.72314453125,1.5400390625,7.359375.21728515625,2.63818359375.06640625,5.087890625-.44921875,7.345703125-.51806640625,2.25927734375-1.427734375,3.57275390625-2.72900390625,3.9404296875-.55419921875.2265625-1.91650390625.408203125-4.0849609375.5478515625-2.1708984375.14013671875-4.48388671875.2431640625-6.94189453125.3056640625-1.79248046875.11572265625-3.6572265625.2138671875-5.5927734375.28955078125-1.9375.07861328125-3.9931640625.14013671875-6.16845703125.18505859375.75390625,5.8251953125,1.39501953125,10.9912109375,1.923828125,15.5029296875.52685546875,4.51220703125.9560546875,8.5830078125,1.28466796875,12.2060546875.32763671875,3.62451171875.59033203125,6.94580078125.78515625,9.96533203125.19482421875,3.017578125.3349609375,5.94580078125.42431640625,8.78125.0791015625,1.22412109375.07421875,2.62353515625-.01416015625,4.19140625-.08935546875,1.56884765625-.37060546875,3.05419921875-.8486328125,4.458984375-.4775390625,1.40234375-1.22998046875,2.6123046875-2.251953125,3.6259765625-1.02490234375,1.01171875-2.384765625,1.57470703125-4.08203125,1.68408203125-1.41455078125.09130859375-2.9775390625.0966796875-4.6875.01806640625-1.7099609375-.080078125-3.34228515625-.4013671875-4.89208984375-.962890625-1.552734375-.56396484375-2.88330078125-1.37646484375-3.99365234375-2.44140625-1.11181640625-1.06494140625-1.7265625-2.54150390625-1.84814453125-4.42724609375-.49267578125-7.64013671875-1.04931640625-15.89306640625-1.66796875-24.75390625-.62060546875-8.861328125-1.4541015625-17.7578125-2.50341796875-26.689453125l-4.66845703125.30126953125c-.36572265625.21435546875-.74755859375.1904296875-1.14111328125-.068359375-.29541015625-.169921875-.62841796875-.5498046875-.9970703125-1.1435546875-.37158203125-.5908203125-.69189453125-1.5400390625-.96533203125-2.849609375-.26904296875-1.212890625-.5771484375-2.6845703125-.92431640625-4.41552734375-.3486328125-1.7294921875-.59814453125-3.3935546875-.748046875-4.99560546875-.15234375-1.59912109375-.16943359375-2.97265625-.052734375-4.11669921875.11474609375-1.14404296875.453125-1.7802734375,1.013671875-1.91162109375,1.119140625-.26123046875,2.21728515625-.4736328125,3.296875-.63916015625,1.0771484375-.1630859375,2.1806640625-.3291015625,3.306640625-.49755859375-.1826171875-2.82958984375-.38330078125-5.9423828125-.6025390625-9.33740234375-.21875-3.3955078125-.25-6.80322265625-.091796875-10.22314453125.15771484375-3.419921875.5576171875-6.78369140625,1.1962890625-10.09326171875.63916015625-3.30859375,1.6962890625-6.35986328125,3.17431640625-9.15478515625,1.47607421875-2.7939453125,3.47607421875-5.19677734375,5.9990234375-7.20556640625,2.52099609375-2.009765625,5.74609375-3.42578125,9.67041015625-4.2470703125,2.0556640625-.41650390625,4.2880859375-.70263671875,6.693359375-.85791015625,2.40478515625-.1552734375,4.79638671875-.142578125,7.17626953125.0341796875,2.3779296875.1796875,4.69580078125.50341796875,6.953125.97216796875,2.25439453125.4716796875,4.26025390625,1.07470703125,6.0126953125,1.814453125Z"/>
        </g>
      </g>
      <g>
        <g>
          <path class="cls-3" d="M98.161132812498181,41.312718168219362c.98681640625,31.4755859375,3.01953125,62.97900390625,6.09716796875,94.50732421875-.02197265625,1.138671875-.23486328125,2.2421875-.638671875,3.30908203125-.41845703125.87939453125-1.05029296875,1.72607421875-1.896484375,2.537109375-.8486328125.814453125-2.06787109375,1.36376953125-3.658203125,1.6572265625-2.15283203125.4228515625-4.380859375.73095703125-6.68798828125.9287109375-2.3095703125.1953125-4.248046875-.1298828125-5.81640625-.97412109375-5.86376953125,1.60791015625-11.90380859375,2.330078125-18.11669921875,2.1630859375-6.21435546875-.16748046875-11.92822265625-1.73876953125-17.13916015625-4.71923828125-4.52197265625-2.5498046875-8.09765625-5.84619140625-10.72509765625-9.89208984375-2.62939453125-4.04345703125-4.37841796875-8.40576171875-5.248046875-13.08642578125-.87060546875-4.67919921875-.921875-9.50634765625-.15283203125-14.4814453125.76708984375-4.97265625,2.29150390625-9.6171875,4.5703125-13.93310546875,1.861328125-3.4345703125,4.22216796875-6.474609375,7.08349609375-9.123046875,2.859375-2.646484375,6.009765625-4.8388671875,9.44921875-6.576171875,3.439453125-1.736328125,7.1259765625-2.9462890625,11.06005859375-3.62646484375,3.9345703125-.6796875,7.86083984375-.72021484375,11.7841796875-.12060546875-.06103515625-3.87841796875-.0791015625-7.45361328125-.05224609375-10.72265625.02392578125-3.26904296875.052734375-6.13427734375.083984375-8.6005859375.00537109375-2.841796875.0263671875-5.447265625.06396484375-7.81787109375-.14990234375-.84228515625-.056640625-1.60546875.27880859375-2.291015625.24609375-.583984375.6826171875-1.15625,1.3095703125-1.71826171875.62548828125-.56005859375,1.5986328125-.884765625,2.92041015625-.97021484375,1.22509765625-.07861328125,2.71240234375-.150390625,4.46142578125-.21630859375,1.74755859375-.06396484375,3.40966796875-.0068359375,4.98388671875.17529296875,1.57421875.18310546875,2.94775390625.544921875,4.11865234375,1.08447265625,1.17138671875.541015625,1.7939453125,1.37548828125,1.86669921875,2.50732421875ZM78.627929687498181,90.876194730719362c-3.6708984375-1.0888671875-6.90380859375-1.306640625-9.70263671875-.65283203125-2.79931640625.65576171875-5.13916015625,1.8232421875-7.01904296875,3.50732421875-1.880859375,1.68359375-3.2880859375,3.74169921875-4.2197265625,6.16796875-.9326171875,2.4287109375-1.388671875,4.8974609375-1.369140625,7.40478515625.02001953125,2.509765625.5302734375,4.91552734375,1.53125,7.2177734375,1.0009765625,2.3037109375,2.47314453125,4.19775390625,4.41552734375,5.681640625,1.943359375,1.486328125,4.36669921875,2.37158203125,7.2744140625,2.65673828125,2.9072265625.28759765625,6.345703125-.3603515625,10.31689453125-1.9443359375-.29833984375-4.6201171875-.53173828125-9.34228515625-.7001953125-14.16162109375-.1689453125-4.8193359375-.34619140625-10.111328125-.52734375-15.87744140625Z"/>
          <path class="cls-3" d="M164.968749999998181,44.106663480719362c1.556640625.65869140625,2.5009765625,1.70947265625,2.83154296875,3.15576171875.3291015625,1.4482421875.3583984375,3.0087890625.08935546875,4.68212890625-.27197265625,1.67578125-.75830078125,3.31640625-1.4580078125,4.92431640625-.7021484375,1.6083984375-1.35302734375,2.90673828125-1.951171875,3.89111328125-.51708984375.7919921875-1.11279296875,1.47021484375-1.78662109375,2.03271484375-.673828125.56494140625-1.5419921875.69287109375-2.603515625.3818359375-4.08935546875-1.7255859375-7.50390625-2.90185546875-10.244140625-3.53125-2.7392578125-.6259765625-4.88720703125-.51220703125-6.44091796875.34521484375-1.556640625.859375-2.60888671875,2.51220703125-3.1611328125,4.962890625s-.73681640625,5.85009765625-.55029296875,10.193359375c.06396484375,2.4599609375.1728515625,4.8681640625.32470703125,7.224609375.15185546875,2.3583984375.30712890625,4.763671875.46533203125,7.21484375,3.666015625-.4248046875,7.64111328125-.82275390625,11.92724609375-1.1953125,4.28515625-.36962890625,8.267578125-.67529296875,11.9462890625-.91259765625,1.2607421875.48681640625,2.29736328125,1.865234375,3.10791015625,4.13232421875.80810546875,2.26953125,1.32080078125,4.72314453125,1.5400390625,7.359375.21728515625,2.63818359375.06640625,5.087890625-.44921875,7.345703125-.51806640625,2.25927734375-1.427734375,3.57275390625-2.72900390625,3.9404296875-.55419921875.2265625-1.91650390625.408203125-4.0849609375.5478515625-2.1708984375.14013671875-4.48388671875.2431640625-6.94189453125.3056640625-1.79248046875.11572265625-3.6572265625.2138671875-5.5927734375.28955078125-1.9375.07861328125-3.9931640625.14013671875-6.16845703125.18505859375.75390625,5.8251953125,1.39501953125,10.9912109375,1.923828125,15.5029296875.52685546875,4.51220703125.9560546875,8.5830078125,1.28466796875,12.2060546875.32763671875,3.62451171875.59033203125,6.94580078125.78515625,9.96533203125.19482421875,3.017578125.3349609375,5.94580078125.42431640625,8.78125.0791015625,1.22412109375.07421875,2.62353515625-.01416015625,4.19140625-.08935546875,1.56884765625-.37060546875,3.05419921875-.8486328125,4.458984375-.4775390625,1.40234375-1.22998046875,2.6123046875-2.251953125,3.6259765625-1.02490234375,1.01171875-2.384765625,1.57470703125-4.08203125,1.68408203125-1.41455078125.09130859375-2.9775390625.0966796875-4.6875.01806640625-1.7099609375-.080078125-3.34228515625-.4013671875-4.89208984375-.962890625-1.552734375-.56396484375-2.88330078125-1.37646484375-3.99365234375-2.44140625-1.11181640625-1.06494140625-1.7265625-2.54150390625-1.84814453125-4.42724609375-.49267578125-7.64013671875-1.04931640625-15.89306640625-1.66796875-24.75390625-.62060546875-8.861328125-1.4541015625-17.7578125-2.50341796875-26.689453125l-4.66845703125.30126953125c-.36572265625.21435546875-.74755859375.1904296875-1.14111328125-.068359375-.29541015625-.169921875-.62841796875-.5498046875-.9970703125-1.1435546875-.37158203125-.5908203125-.69189453125-1.5400390625-.96533203125-2.849609375-.26904296875-1.212890625-.5771484375-2.6845703125-.92431640625-4.41552734375-.3486328125-1.7294921875-.59814453125-3.3935546875-.748046875-4.99560546875-.15234375-1.59912109375-.16943359375-2.97265625-.052734375-4.11669921875.11474609375-1.14404296875.453125-1.7802734375,1.013671875-1.91162109375,1.119140625-.26123046875,2.21728515625-.4736328125,3.296875-.63916015625,1.0771484375-.1630859375,2.1806640625-.3291015625,3.306640625-.49755859375-.1826171875-2.82958984375-.38330078125-5.9423828125-.6025390625-9.33740234375-.21875-3.3955078125-.25-6.80322265625-.091796875-10.22314453125.15771484375-3.419921875.5576171875-6.78369140625,1.1962890625-10.09326171875.63916015625-3.30859375,1.6962890625-6.35986328125,3.17431640625-9.15478515625,1.47607421875-2.7939453125,3.47607421875-5.19677734375,5.9990234375-7.20556640625,2.52099609375-2.009765625,5.74609375-3.42578125,9.67041015625-4.2470703125,2.0556640625-.41650390625,4.2880859375-.70263671875,6.693359375-.85791015625,2.40478515625-.1552734375,4.79638671875-.142578125,7.17626953125.0341796875,2.3779296875.1796875,4.69580078125.50341796875,6.953125.97216796875,2.25439453125.4716796875,4.26025390625,1.07470703125,6.0126953125,1.814453125Z"/>
        </g>
        <g>
          <path class="cls-3" d="M98.161132812498181,41.312718168219362c.98681640625,31.4755859375,3.01953125,62.97900390625,6.09716796875,94.50732421875-.02197265625,1.138671875-.23486328125,2.2421875-.638671875,3.30908203125-.41845703125.87939453125-1.05029296875,1.72607421875-1.896484375,2.537109375-.8486328125.814453125-2.06787109375,1.36376953125-3.658203125,1.6572265625-2.15283203125.4228515625-4.380859375.73095703125-6.68798828125.9287109375-2.3095703125.1953125-4.248046875-.1298828125-5.81640625-.97412109375-5.86376953125,1.60791015625-11.90380859375,2.330078125-18.11669921875,2.1630859375-6.21435546875-.16748046875-11.92822265625-1.73876953125-17.13916015625-4.71923828125-4.52197265625-2.5498046875-8.09765625-5.84619140625-10.72509765625-9.89208984375-2.62939453125-4.04345703125-4.37841796875-8.40576171875-5.248046875-13.08642578125-.87060546875-4.67919921875-.921875-9.50634765625-.15283203125-14.4814453125.76708984375-4.97265625,2.29150390625-9.6171875,4.5703125-13.93310546875,1.861328125-3.4345703125,4.22216796875-6.474609375,7.08349609375-9.123046875,2.859375-2.646484375,6.009765625-4.8388671875,9.44921875-6.576171875,3.439453125-1.736328125,7.1259765625-2.9462890625,11.06005859375-3.62646484375,3.9345703125-.6796875,7.86083984375-.72021484375,11.7841796875-.12060546875-.06103515625-3.87841796875-.0791015625-7.45361328125-.05224609375-10.72265625.02392578125-3.26904296875.052734375-6.13427734375.083984375-8.6005859375.00537109375-2.841796875.0263671875-5.447265625.06396484375-7.81787109375-.14990234375-.84228515625-.056640625-1.60546875.27880859375-2.291015625.24609375-.583984375.6826171875-1.15625,1.3095703125-1.71826171875.62548828125-.56005859375,1.5986328125-.884765625,2.92041015625-.97021484375,1.22509765625-.07861328125,2.71240234375-.150390625,4.46142578125-.21630859375,1.74755859375-.06396484375,3.40966796875-.0068359375,4.98388671875.17529296875,1.57421875.18310546875,2.94775390625.544921875,4.11865234375,1.08447265625,1.17138671875.541015625,1.7939453125,1.37548828125,1.86669921875,2.50732421875ZM78.627929687498181,90.876194730719362c-3.6708984375-1.0888671875-6.90380859375-1.306640625-9.70263671875-.65283203125-2.79931640625.65576171875-5.13916015625,1.8232421875-7.01904296875,3.50732421875-1.880859375,1.68359375-3.2880859375,3.74169921875-4.2197265625,6.16796875-.9326171875,2.4287109375-1.388671875,4.8974609375-1.369140625,7.40478515625.02001953125,2.509765625.5302734375,4.91552734375,1.53125,7.2177734375,1.0009765625,2.3037109375,2.47314453125,4.19775390625,4.41552734375,5.681640625,1.943359375,1.486328125,4.36669921875,2.37158203125,7.2744140625,2.65673828125,2.9072265625.28759765625,6.345703125-.3603515625,10.31689453125-1.9443359375-.29833984375-4.6201171875-.53173828125-9.34228515625-.7001953125-14.16162109375-.1689453125-4.8193359375-.34619140625-10.111328125-.52734375-15.87744140625Z"/>
          <path class="cls-3" d="M164.968749999998181,44.106663480719362c1.556640625.65869140625,2.5009765625,1.70947265625,2.83154296875,3.15576171875.3291015625,1.4482421875.3583984375,3.0087890625.08935546875,4.68212890625-.27197265625,1.67578125-.75830078125,3.31640625-1.4580078125,4.92431640625-.7021484375,1.6083984375-1.35302734375,2.90673828125-1.951171875,3.89111328125-.51708984375.7919921875-1.11279296875,1.47021484375-1.78662109375,2.03271484375-.673828125.56494140625-1.5419921875.69287109375-2.603515625.3818359375-4.08935546875-1.7255859375-7.50390625-2.90185546875-10.244140625-3.53125-2.7392578125-.6259765625-4.88720703125-.51220703125-6.44091796875.34521484375-1.556640625.859375-2.60888671875,2.51220703125-3.1611328125,4.962890625s-.73681640625,5.85009765625-.55029296875,10.193359375c.06396484375,2.4599609375.1728515625,4.8681640625.32470703125,7.224609375.15185546875,2.3583984375.30712890625,4.763671875.46533203125,7.21484375,3.666015625-.4248046875,7.64111328125-.82275390625,11.92724609375-1.1953125,4.28515625-.36962890625,8.267578125-.67529296875,11.9462890625-.91259765625,1.2607421875.48681640625,2.29736328125,1.865234375,3.10791015625,4.13232421875.80810546875,2.26953125,1.32080078125,4.72314453125,1.5400390625,7.359375.21728515625,2.63818359375.06640625,5.087890625-.44921875,7.345703125-.51806640625,2.25927734375-1.427734375,3.57275390625-2.72900390625,3.9404296875-.55419921875.2265625-1.91650390625.408203125-4.0849609375.5478515625-2.1708984375.14013671875-4.48388671875.2431640625-6.94189453125.3056640625-1.79248046875.11572265625-3.6572265625.2138671875-5.5927734375.28955078125-1.9375.07861328125-3.9931640625.14013671875-6.16845703125.18505859375.75390625,5.8251953125,1.39501953125,10.9912109375,1.923828125,15.5029296875.52685546875,4.51220703125.9560546875,8.5830078125,1.28466796875,12.2060546875.32763671875,3.62451171875.59033203125,6.94580078125.78515625,9.96533203125.19482421875,3.017578125.3349609375,5.94580078125.42431640625,8.78125.0791015625,1.22412109375.07421875,2.62353515625-.01416015625,4.19140625-.08935546875,1.56884765625-.37060546875,3.05419921875-.8486328125,4.458984375-.4775390625,1.40234375-1.22998046875,2.6123046875-2.251953125,3.6259765625-1.02490234375,1.01171875-2.384765625,1.57470703125-4.08203125,1.68408203125-1.41455078125.09130859375-2.9775390625.0966796875-4.6875.01806640625-1.7099609375-.080078125-3.34228515625-.4013671875-4.89208984375-.962890625-1.552734375-.56396484375-2.88330078125-1.37646484375-3.99365234375-2.44140625-1.11181640625-1.06494140625-1.7265625-2.54150390625-1.84814453125-4.42724609375-.49267578125-7.64013671875-1.04931640625-15.89306640625-1.66796875-24.75390625-.62060546875-8.861328125-1.4541015625-17.7578125-2.50341796875-26.689453125l-4.66845703125.30126953125c-.36572265625.21435546875-.74755859375.1904296875-1.14111328125-.068359375-.29541015625-.169921875-.62841796875-.5498046875-.9970703125-1.1435546875-.37158203125-.5908203125-.69189453125-1.5400390625-.96533203125-2.849609375-.26904296875-1.212890625-.5771484375-2.6845703125-.92431640625-4.41552734375-.3486328125-1.7294921875-.59814453125-3.3935546875-.748046875-4.99560546875-.15234375-1.59912109375-.16943359375-2.97265625-.052734375-4.11669921875.11474609375-1.14404296875.453125-1.7802734375,1.013671875-1.91162109375,1.119140625-.26123046875,2.21728515625-.4736328125,3.296875-.63916015625,1.0771484375-.1630859375,2.1806640625-.3291015625,3.306640625-.49755859375-.1826171875-2.82958984375-.38330078125-5.9423828125-.6025390625-9.33740234375-.21875-3.3955078125-.25-6.80322265625-.091796875-10.22314453125.15771484375-3.419921875.5576171875-6.78369140625,1.1962890625-10.09326171875.63916015625-3.30859375,1.6962890625-6.35986328125,3.17431640625-9.15478515625,1.47607421875-2.7939453125,3.47607421875-5.19677734375,5.9990234375-7.20556640625,2.52099609375-2.009765625,5.74609375-3.42578125,9.67041015625-4.2470703125,2.0556640625-.41650390625,4.2880859375-.70263671875,6.693359375-.85791015625,2.40478515625-.1552734375,4.79638671875-.142578125,7.17626953125.0341796875,2.3779296875.1796875,4.69580078125.50341796875,6.953125.97216796875,2.25439453125.4716796875,4.26025390625,1.07470703125,6.0126953125,1.814453125Z"/>
        </g>
        <g>
          <path class="cls-3" d="M98.161132812498181,41.312718168219362c.98681640625,31.4755859375,3.01953125,62.97900390625,6.09716796875,94.50732421875-.02197265625,1.138671875-.23486328125,2.2421875-.638671875,3.30908203125-.41845703125.87939453125-1.05029296875,1.72607421875-1.896484375,2.537109375-.8486328125.814453125-2.06787109375,1.36376953125-3.658203125,1.6572265625-2.15283203125.4228515625-4.380859375.73095703125-6.68798828125.9287109375-2.3095703125.1953125-4.248046875-.1298828125-5.81640625-.97412109375-5.86376953125,1.60791015625-11.90380859375,2.330078125-18.11669921875,2.1630859375-6.21435546875-.16748046875-11.92822265625-1.73876953125-17.13916015625-4.71923828125-4.52197265625-2.5498046875-8.09765625-5.84619140625-10.72509765625-9.89208984375-2.62939453125-4.04345703125-4.37841796875-8.40576171875-5.248046875-13.08642578125-.87060546875-4.67919921875-.921875-9.50634765625-.15283203125-14.4814453125.76708984375-4.97265625,2.29150390625-9.6171875,4.5703125-13.93310546875,1.861328125-3.4345703125,4.22216796875-6.474609375,7.08349609375-9.123046875,2.859375-2.646484375,6.009765625-4.8388671875,9.44921875-6.576171875,3.439453125-1.736328125,7.1259765625-2.9462890625,11.06005859375-3.62646484375,3.9345703125-.6796875,7.86083984375-.72021484375,11.7841796875-.12060546875-.06103515625-3.87841796875-.0791015625-7.45361328125-.05224609375-10.72265625.02392578125-3.26904296875.052734375-6.13427734375.083984375-8.6005859375.00537109375-2.841796875.0263671875-5.447265625.06396484375-7.81787109375-.14990234375-.84228515625-.056640625-1.60546875.27880859375-2.291015625.24609375-.583984375.6826171875-1.15625,1.3095703125-1.71826171875.62548828125-.56005859375,1.5986328125-.884765625,2.92041015625-.97021484375,1.22509765625-.07861328125,2.71240234375-.150390625,4.46142578125-.21630859375,1.74755859375-.06396484375,3.40966796875-.0068359375,4.98388671875.17529296875,1.57421875.18310546875,2.94775390625.544921875,4.11865234375,1.08447265625,1.17138671875.541015625,1.7939453125,1.37548828125,1.86669921875,2.50732421875ZM78.627929687498181,90.876194730719362c-3.6708984375-1.0888671875-6.90380859375-1.306640625-9.70263671875-.65283203125-2.79931640625.65576171875-5.13916015625,1.8232421875-7.01904296875,3.50732421875-1.880859375,1.68359375-3.2880859375,3.74169921875-4.2197265625,6.16796875-.9326171875,2.4287109375-1.388671875,4.8974609375-1.369140625,7.40478515625.02001953125,2.509765625.5302734375,4.91552734375,1.53125,7.2177734375,1.0009765625,2.3037109375,2.47314453125,4.19775390625,4.41552734375,5.681640625,1.943359375,1.486328125,4.36669921875,2.37158203125,7.2744140625,2.65673828125,2.9072265625.28759765625,6.345703125-.3603515625,10.31689453125-1.9443359375-.29833984375-4.6201171875-.53173828125-9.34228515625-.7001953125-14.16162109375-.1689453125-4.8193359375-.34619140625-10.111328125-.52734375-15.87744140625Z"/>
          <path class="cls-3" d="M164.968749999998181,44.106663480719362c1.556640625.65869140625,2.5009765625,1.70947265625,2.83154296875,3.15576171875.3291015625,1.4482421875.3583984375,3.0087890625.08935546875,4.68212890625-.27197265625,1.67578125-.75830078125,3.31640625-1.4580078125,4.92431640625-.7021484375,1.6083984375-1.35302734375,2.90673828125-1.951171875,3.89111328125-.51708984375.7919921875-1.11279296875,1.47021484375-1.78662109375,2.03271484375-.673828125.56494140625-1.5419921875.69287109375-2.603515625.3818359375-4.08935546875-1.7255859375-7.50390625-2.90185546875-10.244140625-3.53125-2.7392578125-.6259765625-4.88720703125-.51220703125-6.44091796875.34521484375-1.556640625.859375-2.60888671875,2.51220703125-3.1611328125,4.962890625s-.73681640625,5.85009765625-.55029296875,10.193359375c.06396484375,2.4599609375.1728515625,4.8681640625.32470703125,7.224609375.15185546875,2.3583984375.30712890625,4.763671875.46533203125,7.21484375,3.666015625-.4248046875,7.64111328125-.82275390625,11.92724609375-1.1953125,4.28515625-.36962890625,8.267578125-.67529296875,11.9462890625-.91259765625,1.2607421875.48681640625,2.29736328125,1.865234375,3.10791015625,4.13232421875.80810546875,2.26953125,1.32080078125,4.72314453125,1.5400390625,7.359375.21728515625,2.63818359375.06640625,5.087890625-.44921875,7.345703125-.51806640625,2.25927734375-1.427734375,3.57275390625-2.72900390625,3.9404296875-.55419921875.2265625-1.91650390625.408203125-4.0849609375.5478515625-2.1708984375.14013671875-4.48388671875.2431640625-6.94189453125.3056640625-1.79248046875.11572265625-3.6572265625.2138671875-5.5927734375.28955078125-1.9375.07861328125-3.9931640625.14013671875-6.16845703125.18505859375.75390625,5.8251953125,1.39501953125,10.9912109375,1.923828125,15.5029296875.52685546875,4.51220703125.9560546875,8.5830078125,1.28466796875,12.2060546875.32763671875,3.62451171875.59033203125,6.94580078125.78515625,9.96533203125.19482421875,3.017578125.3349609375,5.94580078125.42431640625,8.78125.0791015625,1.22412109375.07421875,2.62353515625-.01416015625,4.19140625-.08935546875,1.56884765625-.37060546875,3.05419921875-.8486328125,4.458984375-.4775390625,1.40234375-1.22998046875,2.6123046875-2.251953125,3.6259765625-1.02490234375,1.01171875-2.384765625,1.57470703125-4.08203125,1.68408203125-1.41455078125.09130859375-2.9775390625.0966796875-4.6875.01806640625-1.7099609375-.080078125-3.34228515625-.4013671875-4.89208984375-.962890625-1.552734375-.56396484375-2.88330078125-1.37646484375-3.99365234375-2.44140625-1.11181640625-1.06494140625-1.7265625-2.54150390625-1.84814453125-4.42724609375-.49267578125-7.64013671875-1.04931640625-15.89306640625-1.66796875-24.75390625-.62060546875-8.861328125-1.4541015625-17.7578125-2.50341796875-26.689453125l-4.66845703125.30126953125c-.36572265625.21435546875-.74755859375.1904296875-1.14111328125-.068359375-.29541015625-.169921875-.62841796875-.5498046875-.9970703125-1.1435546875-.37158203125-.5908203125-.69189453125-1.5400390625-.96533203125-2.849609375-.26904296875-1.212890625-.5771484375-2.6845703125-.92431640625-4.41552734375-.3486328125-1.7294921875-.59814453125-3.3935546875-.748046875-4.99560546875-.15234375-1.59912109375-.16943359375-2.97265625-.052734375-4.11669921875.11474609375-1.14404296875.453125-1.7802734375,1.013671875-1.91162109375,1.119140625-.26123046875,2.21728515625-.4736328125,3.296875-.63916015625,1.0771484375-.1630859375,2.1806640625-.3291015625,3.306640625-.49755859375-.1826171875-2.82958984375-.38330078125-5.9423828125-.6025390625-9.33740234375-.21875-3.3955078125-.25-6.80322265625-.091796875-10.22314453125.15771484375-3.419921875.5576171875-6.78369140625,1.1962890625-10.09326171875.63916015625-3.30859375,1.6962890625-6.35986328125,3.17431640625-9.15478515625,1.47607421875-2.7939453125,3.47607421875-5.19677734375,5.9990234375-7.20556640625,2.52099609375-2.009765625,5.74609375-3.42578125,9.67041015625-4.2470703125,2.0556640625-.41650390625,4.2880859375-.70263671875,6.693359375-.85791015625,2.40478515625-.1552734375,4.79638671875-.142578125,7.17626953125.0341796875,2.3779296875.1796875,4.69580078125.50341796875,6.953125.97216796875,2.25439453125.4716796875,4.26025390625,1.07470703125,6.0126953125,1.814453125Z"/>
        </g>
      </g>
    </g>
  </a>
</svg>