<?xml version="1.0" encoding="UTF-8"?>
<svg id="Content" xmlns="http://www.w3.org/2000/svg" xmlns:xlink="http://www.w3.org/1999/xlink" viewBox="0 0 280 280">
  <defs>
    <style>
      .cls-1 {
        stroke: #665451;
        stroke-width: 50px;
      }

      .cls-1, .cls-2 {
        fill: none;
        stroke-linecap: round;
        stroke-linejoin: round;
      }

      .cls-3 {
        fill: #fff;
      }

      .cls-2 {
        stroke: #998675;
        stroke-width: 2px;
      }
    </style>
  </defs>
  <a xlink:href="https://www.notion.so/congruence/Degrees-of-freedom-c7a47ce93554473a928eaf701f0fe93d?pvs=4">
    <g>
      <g>
        <path d="M98.143066406248181,41.262913480718453c.9873046875,31.4755859375,3.02001953125,62.978515625,6.09716796875,94.5068359375-.021484375,1.138671875-.23486328125,2.2421875-.638671875,3.30859375-.41845703125.8798828125-1.04931640625,1.72607421875-1.89599609375,2.53759765625-.8486328125.814453125-2.06787109375,1.36376953125-3.658203125,1.6572265625-2.15283203125.4228515625-4.380859375.73095703125-6.6884765625.9287109375-2.30908203125.1953125-4.248046875-.1298828125-5.81591796875-.97412109375-5.86328125,1.60791015625-11.9033203125,2.330078125-18.1162109375,2.1630859375-6.21533203125-.16748046875-11.92822265625-1.73876953125-17.1396484375-4.71923828125-4.52197265625-2.5498046875-8.09765625-5.84619140625-10.724609375-9.89208984375-2.6298828125-4.04345703125-4.37841796875-8.40576171875-5.24853515625-13.08642578125-.87060546875-4.6787109375-.921875-9.505859375-.15234375-14.48095703125.7666015625-4.97314453125,2.291015625-9.6171875,4.56982421875-13.93359375,1.861328125-3.4345703125,4.22216796875-6.47412109375,7.08349609375-9.123046875,2.859375-2.64599609375,6.009765625-4.83837890625,9.44921875-6.576171875,3.439453125-1.73583984375,7.1259765625-2.94580078125,11.06005859375-3.6259765625,3.93408203125-.6796875,7.86083984375-.72021484375,11.78369140625-.12109375-.06103515625-3.8779296875-.07861328125-7.453125-.05224609375-10.72216796875.02392578125-3.26953125.052734375-6.13427734375.08447265625-8.6005859375.00537109375-2.841796875.02587890625-5.447265625.0634765625-7.81787109375-.1494140625-.84228515625-.056640625-1.60546875.279296875-2.291015625.24560546875-.583984375.68212890625-1.15673828125,1.3095703125-1.71826171875.62548828125-.56005859375,1.5986328125-.884765625,2.92041015625-.97021484375,1.22509765625-.07861328125,2.71142578125-.150390625,4.46142578125-.21630859375,1.7470703125-.064453125,3.4091796875-.0068359375,4.98388671875.17529296875,1.57373046875.1826171875,2.947265625.54443359375,4.11865234375,1.08447265625,1.17138671875.541015625,1.79345703125,1.37548828125,1.8662109375,2.50732421875ZM78.610351562498181,90.825901761968453c-3.6708984375-1.08837890625-6.9033203125-1.306640625-9.70263671875-.65283203125-2.79931640625.65576171875-5.13916015625,1.8232421875-7.01904296875,3.50732421875-1.880859375,1.68408203125-3.28857421875,3.74169921875-4.21923828125,6.16796875-.93310546875,2.42822265625-1.38916015625,4.8974609375-1.36962890625,7.40478515625.0205078125,2.509765625.53076171875,4.91552734375,1.53125,7.2177734375,1.00146484375,2.3037109375,2.47314453125,4.19775390625,4.41552734375,5.681640625,1.94287109375,1.486328125,4.3662109375,2.37158203125,7.2744140625,2.65673828125,2.9072265625.28759765625,6.345703125-.3603515625,10.31689453125-1.9443359375-.2978515625-4.6201171875-.53173828125-9.34228515625-.7001953125-14.16162109375-.16943359375-4.8193359375-.34619140625-10.111328125-.52734375-15.87744140625Z"/>
        <path d="M164.950683593748181,44.056370511968453c1.556640625.658203125,2.5009765625,1.7099609375,2.83154296875,3.15576171875.3291015625,1.4482421875.3583984375,3.00927734375.08935546875,4.6826171875-.27197265625,1.67578125-.75830078125,3.31640625-1.4580078125,4.923828125-.7021484375,1.60791015625-1.35302734375,2.90673828125-1.951171875,3.89111328125-.51708984375.79248046875-1.11279296875,1.47021484375-1.787109375,2.03271484375-.67333984375.5654296875-1.5419921875.6923828125-2.60302734375.38134765625-4.08935546875-1.724609375-7.50390625-2.9013671875-10.244140625-3.5302734375-2.7392578125-.626953125-4.88720703125-.5126953125-6.44091796875.3447265625-1.55615234375.85986328125-2.60888671875,2.51220703125-3.1611328125,4.96337890625-.55224609375,2.45068359375-.736328125,5.849609375-.54931640625,10.193359375.06298828125,2.45947265625.171875,4.86767578125.32373046875,7.22412109375.15234375,2.3583984375.30712890625,4.763671875.46533203125,7.21484375,3.66650390625-.4248046875,7.64111328125-.82275390625,11.92724609375-1.1953125,4.28515625-.369140625,8.267578125-.67529296875,11.94580078125-.91259765625,1.26123046875.486328125,2.2978515625,1.865234375,3.1083984375,4.1328125.80810546875,2.26953125,1.32080078125,4.72216796875,1.5400390625,7.35888671875.21728515625,2.638671875.06640625,5.08740234375-.44921875,7.34521484375-.517578125,2.259765625-1.427734375,3.5732421875-2.7294921875,3.94091796875-.5537109375.2265625-1.916015625.408203125-4.08447265625.5478515625-2.1708984375.14013671875-4.48388671875.24267578125-6.94189453125.3056640625-1.79248046875.11572265625-3.6572265625.21337890625-5.5927734375.28955078125-1.9375.07861328125-3.9931640625.14013671875-6.16845703125.185546875.75390625,5.82470703125,1.39501953125,10.99072265625,1.92431640625,15.50244140625.5263671875,4.51220703125.95556640625,8.58251953125,1.28466796875,12.2060546875.3271484375,3.6240234375.58984375,6.94580078125.78466796875,9.96533203125.19482421875,3.017578125.33544921875,5.94482421875.42431640625,8.78076171875.0791015625,1.224609375.07421875,2.623046875-.01318359375,4.19189453125-.08984375,1.568359375-.37109375,3.05419921875-.849609375,4.458984375-.47705078125,1.40185546875-1.2294921875,2.61181640625-2.251953125,3.62548828125-1.02392578125,1.01171875-2.384765625,1.57470703125-4.08203125,1.68408203125-1.41455078125.09130859375-2.97705078125.09716796875-4.6865234375.01806640625-1.71044921875-.08056640625-3.34228515625-.4013671875-4.892578125-.96240234375-1.55322265625-.56396484375-2.8837890625-1.37744140625-3.99365234375-2.4423828125-1.11181640625-1.06396484375-1.72705078125-2.541015625-1.8486328125-4.4267578125-.49267578125-7.6396484375-1.04931640625-15.892578125-1.66796875-24.75390625-.6201171875-8.86083984375-1.45361328125-17.75732421875-2.5029296875-26.68896484375l-4.6689453125.30126953125c-.36572265625.21435546875-.74658203125.1904296875-1.14111328125-.068359375-.29541015625-.169921875-.62744140625-.5498046875-.9970703125-1.1435546875-.37060546875-.5908203125-.69140625-1.5400390625-.96533203125-2.849609375-.26904296875-1.212890625-.5771484375-2.6845703125-.92431640625-4.41552734375-.3486328125-1.7294921875-.59765625-3.3935546875-.748046875-4.99560546875-.15234375-1.59912109375-.16943359375-2.97216796875-.05224609375-4.1162109375.1142578125-1.14453125.453125-1.78076171875,1.01318359375-1.912109375,1.119140625-.26123046875,2.2177734375-.4736328125,3.29736328125-.63916015625,1.0771484375-.16259765625,2.1806640625-.32958984375,3.30615234375-.49755859375-.1826171875-2.82958984375-.38330078125-5.94189453125-.6025390625-9.33740234375-.21875-3.39501953125-.25-6.80322265625-.09130859375-10.22265625.1572265625-3.42041015625.55712890625-6.78466796875,1.1962890625-10.09326171875.638671875-3.30859375,1.69580078125-6.35986328125,3.173828125-9.15478515625,1.47607421875-2.79443359375,3.4765625-5.19677734375,5.9990234375-7.2060546875,2.52099609375-2.009765625,5.74609375-3.42529296875,9.67041015625-4.24658203125,2.0556640625-.4169921875,4.2880859375-.70263671875,6.693359375-.85791015625,2.40478515625-.1552734375,4.79638671875-.1435546875,7.17626953125.0341796875,2.3779296875.17919921875,4.69580078125.5029296875,6.953125.9716796875,2.25439453125.47119140625,4.26025390625,1.0751953125,6.0126953125,1.814453125Z"/>
      </g>
      <g>
        <g>
          <path class="cls-1" d="M98.143066406248181,41.262913480718453c.9873046875,31.4755859375,3.02001953125,62.978515625,6.09716796875,94.5068359375-.021484375,1.138671875-.23486328125,2.2421875-.638671875,3.30859375-.41845703125.8798828125-1.04931640625,1.72607421875-1.89599609375,2.53759765625-.8486328125.814453125-2.06787109375,1.36376953125-3.658203125,1.6572265625-2.15283203125.4228515625-4.380859375.73095703125-6.6884765625.9287109375-2.30908203125.1953125-4.248046875-.1298828125-5.81591796875-.97412109375-5.86328125,1.60791015625-11.9033203125,2.330078125-18.1162109375,2.1630859375-6.21533203125-.16748046875-11.92822265625-1.73876953125-17.1396484375-4.71923828125-4.52197265625-2.5498046875-8.09765625-5.84619140625-10.724609375-9.89208984375-2.6298828125-4.04345703125-4.37841796875-8.40576171875-5.24853515625-13.08642578125-.87060546875-4.6787109375-.921875-9.505859375-.15234375-14.48095703125.7666015625-4.97314453125,2.291015625-9.6171875,4.56982421875-13.93359375,1.861328125-3.4345703125,4.22216796875-6.47412109375,7.08349609375-9.123046875,2.859375-2.64599609375,6.009765625-4.83837890625,9.44921875-6.576171875,3.439453125-1.73583984375,7.1259765625-2.94580078125,11.06005859375-3.6259765625,3.93408203125-.6796875,7.86083984375-.72021484375,11.78369140625-.12109375-.06103515625-3.8779296875-.07861328125-7.453125-.05224609375-10.72216796875.02392578125-3.26953125.052734375-6.13427734375.08447265625-8.6005859375.00537109375-2.841796875.02587890625-5.447265625.0634765625-7.81787109375-.1494140625-.84228515625-.056640625-1.60546875.279296875-2.291015625.24560546875-.583984375.68212890625-1.15673828125,1.3095703125-1.71826171875.62548828125-.56005859375,1.5986328125-.884765625,2.92041015625-.97021484375,1.22509765625-.07861328125,2.71142578125-.150390625,4.46142578125-.21630859375,1.7470703125-.064453125,3.4091796875-.0068359375,4.98388671875.17529296875,1.57373046875.1826171875,2.947265625.54443359375,4.11865234375,1.08447265625,1.17138671875.541015625,1.79345703125,1.37548828125,1.8662109375,2.50732421875ZM78.610351562498181,90.825901761968453c-3.6708984375-1.08837890625-6.9033203125-1.306640625-9.70263671875-.65283203125-2.79931640625.65576171875-5.13916015625,1.8232421875-7.01904296875,3.50732421875-1.880859375,1.68408203125-3.28857421875,3.74169921875-4.21923828125,6.16796875-.93310546875,2.42822265625-1.38916015625,4.8974609375-1.36962890625,7.40478515625.0205078125,2.509765625.53076171875,4.91552734375,1.53125,7.2177734375,1.00146484375,2.3037109375,2.47314453125,4.19775390625,4.41552734375,5.681640625,1.94287109375,1.486328125,4.3662109375,2.37158203125,7.2744140625,2.65673828125,2.9072265625.28759765625,6.345703125-.3603515625,10.31689453125-1.9443359375-.2978515625-4.6201171875-.53173828125-9.34228515625-.7001953125-14.16162109375-.16943359375-4.8193359375-.34619140625-10.111328125-.52734375-15.87744140625Z"/>
          <path class="cls-1" d="M164.950683593748181,44.056370511968453c1.556640625.658203125,2.5009765625,1.7099609375,2.83154296875,3.15576171875.3291015625,1.4482421875.3583984375,3.00927734375.08935546875,4.6826171875-.27197265625,1.67578125-.75830078125,3.31640625-1.4580078125,4.923828125-.7021484375,1.60791015625-1.35302734375,2.90673828125-1.951171875,3.89111328125-.51708984375.79248046875-1.11279296875,1.47021484375-1.787109375,2.03271484375-.67333984375.5654296875-1.5419921875.6923828125-2.60302734375.38134765625-4.08935546875-1.724609375-7.50390625-2.9013671875-10.244140625-3.5302734375-2.7392578125-.626953125-4.88720703125-.5126953125-6.44091796875.3447265625-1.55615234375.85986328125-2.60888671875,2.51220703125-3.1611328125,4.96337890625-.55224609375,2.45068359375-.736328125,5.849609375-.54931640625,10.193359375.06298828125,2.45947265625.171875,4.86767578125.32373046875,7.22412109375.15234375,2.3583984375.30712890625,4.763671875.46533203125,7.21484375,3.66650390625-.4248046875,7.64111328125-.82275390625,11.92724609375-1.1953125,4.28515625-.369140625,8.267578125-.67529296875,11.94580078125-.91259765625,1.26123046875.486328125,2.2978515625,1.865234375,3.1083984375,4.1328125.80810546875,2.26953125,1.32080078125,4.72216796875,1.5400390625,7.35888671875.21728515625,2.638671875.06640625,5.08740234375-.44921875,7.34521484375-.517578125,2.259765625-1.427734375,3.5732421875-2.7294921875,3.94091796875-.5537109375.2265625-1.916015625.408203125-4.08447265625.5478515625-2.1708984375.14013671875-4.48388671875.24267578125-6.94189453125.3056640625-1.79248046875.11572265625-3.6572265625.21337890625-5.5927734375.28955078125-1.9375.07861328125-3.9931640625.14013671875-6.16845703125.185546875.75390625,5.82470703125,1.39501953125,10.99072265625,1.92431640625,15.50244140625.5263671875,4.51220703125.95556640625,8.58251953125,1.28466796875,12.2060546875.3271484375,3.6240234375.58984375,6.94580078125.78466796875,9.96533203125.19482421875,3.017578125.33544921875,5.94482421875.42431640625,8.78076171875.0791015625,1.224609375.07421875,2.623046875-.01318359375,4.19189453125-.08984375,1.568359375-.37109375,3.05419921875-.849609375,4.458984375-.47705078125,1.40185546875-1.2294921875,2.61181640625-2.251953125,3.62548828125-1.02392578125,1.01171875-2.384765625,1.57470703125-4.08203125,1.68408203125-1.41455078125.09130859375-2.97705078125.09716796875-4.6865234375.01806640625-1.71044921875-.08056640625-3.34228515625-.4013671875-4.892578125-.96240234375-1.55322265625-.56396484375-2.8837890625-1.37744140625-3.99365234375-2.4423828125-1.11181640625-1.06396484375-1.72705078125-2.541015625-1.8486328125-4.4267578125-.49267578125-7.6396484375-1.04931640625-15.892578125-1.66796875-24.75390625-.6201171875-8.86083984375-1.45361328125-17.75732421875-2.5029296875-26.68896484375l-4.6689453125.30126953125c-.36572265625.21435546875-.74658203125.1904296875-1.14111328125-.068359375-.29541015625-.169921875-.62744140625-.5498046875-.9970703125-1.1435546875-.37060546875-.5908203125-.69140625-1.5400390625-.96533203125-2.849609375-.26904296875-1.212890625-.5771484375-2.6845703125-.92431640625-4.41552734375-.3486328125-1.7294921875-.59765625-3.3935546875-.748046875-4.99560546875-.15234375-1.59912109375-.16943359375-2.97216796875-.05224609375-4.1162109375.1142578125-1.14453125.453125-1.78076171875,1.01318359375-1.912109375,1.119140625-.26123046875,2.2177734375-.4736328125,3.29736328125-.63916015625,1.0771484375-.16259765625,2.1806640625-.32958984375,3.30615234375-.49755859375-.1826171875-2.82958984375-.38330078125-5.94189453125-.6025390625-9.33740234375-.21875-3.39501953125-.25-6.80322265625-.09130859375-10.22265625.1572265625-3.42041015625.55712890625-6.78466796875,1.1962890625-10.09326171875.638671875-3.30859375,1.69580078125-6.35986328125,3.173828125-9.15478515625,1.47607421875-2.79443359375,3.4765625-5.19677734375,5.9990234375-7.2060546875,2.52099609375-2.009765625,5.74609375-3.42529296875,9.67041015625-4.24658203125,2.0556640625-.4169921875,4.2880859375-.70263671875,6.693359375-.85791015625,2.40478515625-.1552734375,4.79638671875-.1435546875,7.17626953125.0341796875,2.3779296875.17919921875,4.69580078125.5029296875,6.953125.9716796875,2.25439453125.47119140625,4.26025390625,1.0751953125,6.0126953125,1.814453125Z"/>
        </g>
        <g>
          <path class="cls-1" d="M98.143066406248181,41.262913480718453c.9873046875,31.4755859375,3.02001953125,62.978515625,6.09716796875,94.5068359375-.021484375,1.138671875-.23486328125,2.2421875-.638671875,3.30859375-.41845703125.8798828125-1.04931640625,1.72607421875-1.89599609375,2.53759765625-.8486328125.814453125-2.06787109375,1.36376953125-3.658203125,1.6572265625-2.15283203125.4228515625-4.380859375.73095703125-6.6884765625.9287109375-2.30908203125.1953125-4.248046875-.1298828125-5.81591796875-.97412109375-5.86328125,1.60791015625-11.9033203125,2.330078125-18.1162109375,2.1630859375-6.21533203125-.16748046875-11.92822265625-1.73876953125-17.1396484375-4.71923828125-4.52197265625-2.5498046875-8.09765625-5.84619140625-10.724609375-9.89208984375-2.6298828125-4.04345703125-4.37841796875-8.40576171875-5.24853515625-13.08642578125-.87060546875-4.6787109375-.921875-9.505859375-.15234375-14.48095703125.7666015625-4.97314453125,2.291015625-9.6171875,4.56982421875-13.93359375,1.861328125-3.4345703125,4.22216796875-6.47412109375,7.08349609375-9.123046875,2.859375-2.64599609375,6.009765625-4.83837890625,9.44921875-6.576171875,3.439453125-1.73583984375,7.1259765625-2.94580078125,11.06005859375-3.6259765625,3.93408203125-.6796875,7.86083984375-.72021484375,11.78369140625-.12109375-.06103515625-3.8779296875-.07861328125-7.453125-.05224609375-10.72216796875.02392578125-3.26953125.052734375-6.13427734375.08447265625-8.6005859375.00537109375-2.841796875.02587890625-5.447265625.0634765625-7.81787109375-.1494140625-.84228515625-.056640625-1.60546875.279296875-2.291015625.24560546875-.583984375.68212890625-1.15673828125,1.3095703125-1.71826171875.62548828125-.56005859375,1.5986328125-.884765625,2.92041015625-.97021484375,1.22509765625-.07861328125,2.71142578125-.150390625,4.46142578125-.21630859375,1.7470703125-.064453125,3.4091796875-.0068359375,4.98388671875.17529296875,1.57373046875.1826171875,2.947265625.54443359375,4.11865234375,1.08447265625,1.17138671875.541015625,1.79345703125,1.37548828125,1.8662109375,2.50732421875ZM78.610351562498181,90.825901761968453c-3.6708984375-1.08837890625-6.9033203125-1.306640625-9.70263671875-.65283203125-2.79931640625.65576171875-5.13916015625,1.8232421875-7.01904296875,3.50732421875-1.880859375,1.68408203125-3.28857421875,3.74169921875-4.21923828125,6.16796875-.93310546875,2.42822265625-1.38916015625,4.8974609375-1.36962890625,7.40478515625.0205078125,2.509765625.53076171875,4.91552734375,1.53125,7.2177734375,1.00146484375,2.3037109375,2.47314453125,4.19775390625,4.41552734375,5.681640625,1.94287109375,1.486328125,4.3662109375,2.37158203125,7.2744140625,2.65673828125,2.9072265625.28759765625,6.345703125-.3603515625,10.31689453125-1.9443359375-.2978515625-4.6201171875-.53173828125-9.34228515625-.7001953125-14.16162109375-.16943359375-4.8193359375-.34619140625-10.111328125-.52734375-15.87744140625Z"/>
          <path class="cls-1" d="M164.950683593748181,44.056370511968453c1.556640625.658203125,2.5009765625,1.7099609375,2.83154296875,3.15576171875.3291015625,1.4482421875.3583984375,3.00927734375.08935546875,4.6826171875-.27197265625,1.67578125-.75830078125,3.31640625-1.4580078125,4.923828125-.7021484375,1.60791015625-1.35302734375,2.90673828125-1.951171875,3.89111328125-.51708984375.79248046875-1.11279296875,1.47021484375-1.787109375,2.03271484375-.67333984375.5654296875-1.5419921875.6923828125-2.60302734375.38134765625-4.08935546875-1.724609375-7.50390625-2.9013671875-10.244140625-3.5302734375-2.7392578125-.626953125-4.88720703125-.5126953125-6.44091796875.3447265625-1.55615234375.85986328125-2.60888671875,2.51220703125-3.1611328125,4.96337890625-.55224609375,2.45068359375-.736328125,5.849609375-.54931640625,10.193359375.06298828125,2.45947265625.171875,4.86767578125.32373046875,7.22412109375.15234375,2.3583984375.30712890625,4.763671875.46533203125,7.21484375,3.66650390625-.4248046875,7.64111328125-.82275390625,11.92724609375-1.1953125,4.28515625-.369140625,8.267578125-.67529296875,11.94580078125-.91259765625,1.26123046875.486328125,2.2978515625,1.865234375,3.1083984375,4.1328125.80810546875,2.26953125,1.32080078125,4.72216796875,1.5400390625,7.35888671875.21728515625,2.638671875.06640625,5.08740234375-.44921875,7.34521484375-.517578125,2.259765625-1.427734375,3.5732421875-2.7294921875,3.94091796875-.5537109375.2265625-1.916015625.408203125-4.08447265625.5478515625-2.1708984375.14013671875-4.48388671875.24267578125-6.94189453125.3056640625-1.79248046875.11572265625-3.6572265625.21337890625-5.5927734375.28955078125-1.9375.07861328125-3.9931640625.14013671875-6.16845703125.185546875.75390625,5.82470703125,1.39501953125,10.99072265625,1.92431640625,15.50244140625.5263671875,4.51220703125.95556640625,8.58251953125,1.28466796875,12.2060546875.3271484375,3.6240234375.58984375,6.94580078125.78466796875,9.96533203125.19482421875,3.017578125.33544921875,5.94482421875.42431640625,8.78076171875.0791015625,1.224609375.07421875,2.623046875-.01318359375,4.19189453125-.08984375,1.568359375-.37109375,3.05419921875-.849609375,4.458984375-.47705078125,1.40185546875-1.2294921875,2.61181640625-2.251953125,3.62548828125-1.02392578125,1.01171875-2.384765625,1.57470703125-4.08203125,1.68408203125-1.41455078125.09130859375-2.97705078125.09716796875-4.6865234375.01806640625-1.71044921875-.08056640625-3.34228515625-.4013671875-4.892578125-.96240234375-1.55322265625-.56396484375-2.8837890625-1.37744140625-3.99365234375-2.4423828125-1.11181640625-1.06396484375-1.72705078125-2.541015625-1.8486328125-4.4267578125-.49267578125-7.6396484375-1.04931640625-15.892578125-1.66796875-24.75390625-.6201171875-8.86083984375-1.45361328125-17.75732421875-2.5029296875-26.68896484375l-4.6689453125.30126953125c-.36572265625.21435546875-.74658203125.1904296875-1.14111328125-.068359375-.29541015625-.169921875-.62744140625-.5498046875-.9970703125-1.1435546875-.37060546875-.5908203125-.69140625-1.5400390625-.96533203125-2.849609375-.26904296875-1.212890625-.5771484375-2.6845703125-.92431640625-4.41552734375-.3486328125-1.7294921875-.59765625-3.3935546875-.748046875-4.99560546875-.15234375-1.59912109375-.16943359375-2.97216796875-.05224609375-4.1162109375.1142578125-1.14453125.453125-1.78076171875,1.01318359375-1.912109375,1.119140625-.26123046875,2.2177734375-.4736328125,3.29736328125-.63916015625,1.0771484375-.16259765625,2.1806640625-.32958984375,3.30615234375-.49755859375-.1826171875-2.82958984375-.38330078125-5.94189453125-.6025390625-9.33740234375-.21875-3.39501953125-.25-6.80322265625-.09130859375-10.22265625.1572265625-3.42041015625.55712890625-6.78466796875,1.1962890625-10.09326171875.638671875-3.30859375,1.69580078125-6.35986328125,3.173828125-9.15478515625,1.47607421875-2.79443359375,3.4765625-5.19677734375,5.9990234375-7.2060546875,2.52099609375-2.009765625,5.74609375-3.42529296875,9.67041015625-4.24658203125,2.0556640625-.4169921875,4.2880859375-.70263671875,6.693359375-.85791015625,2.40478515625-.1552734375,4.79638671875-.1435546875,7.17626953125.0341796875,2.3779296875.17919921875,4.69580078125.5029296875,6.953125.9716796875,2.25439453125.47119140625,4.26025390625,1.0751953125,6.0126953125,1.814453125Z"/>
        </g>
        <g>
          <path class="cls-1" d="M98.143066406248181,41.262913480718453c.9873046875,31.4755859375,3.02001953125,62.978515625,6.09716796875,94.5068359375-.021484375,1.138671875-.23486328125,2.2421875-.638671875,3.30859375-.41845703125.8798828125-1.04931640625,1.72607421875-1.89599609375,2.53759765625-.8486328125.814453125-2.06787109375,1.36376953125-3.658203125,1.6572265625-2.15283203125.4228515625-4.380859375.73095703125-6.6884765625.9287109375-2.30908203125.1953125-4.248046875-.1298828125-5.81591796875-.97412109375-5.86328125,1.60791015625-11.9033203125,2.330078125-18.1162109375,2.1630859375-6.21533203125-.16748046875-11.92822265625-1.73876953125-17.1396484375-4.71923828125-4.52197265625-2.5498046875-8.09765625-5.84619140625-10.724609375-9.89208984375-2.6298828125-4.04345703125-4.37841796875-8.40576171875-5.24853515625-13.08642578125-.87060546875-4.6787109375-.921875-9.505859375-.15234375-14.48095703125.7666015625-4.97314453125,2.291015625-9.6171875,4.56982421875-13.93359375,1.861328125-3.4345703125,4.22216796875-6.47412109375,7.08349609375-9.123046875,2.859375-2.64599609375,6.009765625-4.83837890625,9.44921875-6.576171875,3.439453125-1.73583984375,7.1259765625-2.94580078125,11.06005859375-3.6259765625,3.93408203125-.6796875,7.86083984375-.72021484375,11.78369140625-.12109375-.06103515625-3.8779296875-.07861328125-7.453125-.05224609375-10.72216796875.02392578125-3.26953125.052734375-6.13427734375.08447265625-8.6005859375.00537109375-2.841796875.02587890625-5.447265625.0634765625-7.81787109375-.1494140625-.84228515625-.056640625-1.60546875.279296875-2.291015625.24560546875-.583984375.68212890625-1.15673828125,1.3095703125-1.71826171875.62548828125-.56005859375,1.5986328125-.884765625,2.92041015625-.97021484375,1.22509765625-.07861328125,2.71142578125-.150390625,4.46142578125-.21630859375,1.7470703125-.064453125,3.4091796875-.0068359375,4.98388671875.17529296875,1.57373046875.1826171875,2.947265625.54443359375,4.11865234375,1.08447265625,1.17138671875.541015625,1.79345703125,1.37548828125,1.8662109375,2.50732421875ZM78.610351562498181,90.825901761968453c-3.6708984375-1.08837890625-6.9033203125-1.306640625-9.70263671875-.65283203125-2.79931640625.65576171875-5.13916015625,1.8232421875-7.01904296875,3.50732421875-1.880859375,1.68408203125-3.28857421875,3.74169921875-4.21923828125,6.16796875-.93310546875,2.42822265625-1.38916015625,4.8974609375-1.36962890625,7.40478515625.0205078125,2.509765625.53076171875,4.91552734375,1.53125,7.2177734375,1.00146484375,2.3037109375,2.47314453125,4.19775390625,4.41552734375,5.681640625,1.94287109375,1.486328125,4.3662109375,2.37158203125,7.2744140625,2.65673828125,2.9072265625.28759765625,6.345703125-.3603515625,10.31689453125-1.9443359375-.2978515625-4.6201171875-.53173828125-9.34228515625-.7001953125-14.16162109375-.16943359375-4.8193359375-.34619140625-10.111328125-.52734375-15.87744140625Z"/>
          <path class="cls-1" d="M164.950683593748181,44.056370511968453c1.556640625.658203125,2.5009765625,1.7099609375,2.83154296875,3.15576171875.3291015625,1.4482421875.3583984375,3.00927734375.08935546875,4.6826171875-.27197265625,1.67578125-.75830078125,3.31640625-1.4580078125,4.923828125-.7021484375,1.60791015625-1.35302734375,2.90673828125-1.951171875,3.89111328125-.51708984375.79248046875-1.11279296875,1.47021484375-1.787109375,2.03271484375-.67333984375.5654296875-1.5419921875.6923828125-2.60302734375.38134765625-4.08935546875-1.724609375-7.50390625-2.9013671875-10.244140625-3.5302734375-2.7392578125-.626953125-4.88720703125-.5126953125-6.44091796875.3447265625-1.55615234375.85986328125-2.60888671875,2.51220703125-3.1611328125,4.96337890625-.55224609375,2.45068359375-.736328125,5.849609375-.54931640625,10.193359375.06298828125,2.45947265625.171875,4.86767578125.32373046875,7.22412109375.15234375,2.3583984375.30712890625,4.763671875.46533203125,7.21484375,3.66650390625-.4248046875,7.64111328125-.82275390625,11.92724609375-1.1953125,4.28515625-.369140625,8.267578125-.67529296875,11.94580078125-.91259765625,1.26123046875.486328125,2.2978515625,1.865234375,3.1083984375,4.1328125.80810546875,2.26953125,1.32080078125,4.72216796875,1.5400390625,7.35888671875.21728515625,2.638671875.06640625,5.08740234375-.44921875,7.34521484375-.517578125,2.259765625-1.427734375,3.5732421875-2.7294921875,3.94091796875-.5537109375.2265625-1.916015625.408203125-4.08447265625.5478515625-2.1708984375.14013671875-4.48388671875.24267578125-6.94189453125.3056640625-1.79248046875.11572265625-3.6572265625.21337890625-5.5927734375.28955078125-1.9375.07861328125-3.9931640625.14013671875-6.16845703125.185546875.75390625,5.82470703125,1.39501953125,10.99072265625,1.92431640625,15.50244140625.5263671875,4.51220703125.95556640625,8.58251953125,1.28466796875,12.2060546875.3271484375,3.6240234375.58984375,6.94580078125.78466796875,9.96533203125.19482421875,3.017578125.33544921875,5.94482421875.42431640625,8.78076171875.0791015625,1.224609375.07421875,2.623046875-.01318359375,4.19189453125-.08984375,1.568359375-.37109375,3.05419921875-.849609375,4.458984375-.47705078125,1.40185546875-1.2294921875,2.61181640625-2.251953125,3.62548828125-1.02392578125,1.01171875-2.384765625,1.57470703125-4.08203125,1.68408203125-1.41455078125.09130859375-2.97705078125.09716796875-4.6865234375.01806640625-1.71044921875-.08056640625-3.34228515625-.4013671875-4.892578125-.96240234375-1.55322265625-.56396484375-2.8837890625-1.37744140625-3.99365234375-2.4423828125-1.11181640625-1.06396484375-1.72705078125-2.541015625-1.8486328125-4.4267578125-.49267578125-7.6396484375-1.04931640625-15.892578125-1.66796875-24.75390625-.6201171875-8.86083984375-1.45361328125-17.75732421875-2.5029296875-26.68896484375l-4.6689453125.30126953125c-.36572265625.21435546875-.74658203125.1904296875-1.14111328125-.068359375-.29541015625-.169921875-.62744140625-.5498046875-.9970703125-1.1435546875-.37060546875-.5908203125-.69140625-1.5400390625-.96533203125-2.849609375-.26904296875-1.212890625-.5771484375-2.6845703125-.92431640625-4.41552734375-.3486328125-1.7294921875-.59765625-3.3935546875-.748046875-4.99560546875-.15234375-1.59912109375-.16943359375-2.97216796875-.05224609375-4.1162109375.1142578125-1.14453125.453125-1.78076171875,1.01318359375-1.912109375,1.119140625-.26123046875,2.2177734375-.4736328125,3.29736328125-.63916015625,1.0771484375-.16259765625,2.1806640625-.32958984375,3.30615234375-.49755859375-.1826171875-2.82958984375-.38330078125-5.94189453125-.6025390625-9.33740234375-.21875-3.39501953125-.25-6.80322265625-.09130859375-10.22265625.1572265625-3.42041015625.55712890625-6.78466796875,1.1962890625-10.09326171875.638671875-3.30859375,1.69580078125-6.35986328125,3.173828125-9.15478515625,1.47607421875-2.79443359375,3.4765625-5.19677734375,5.9990234375-7.2060546875,2.52099609375-2.009765625,5.74609375-3.42529296875,9.67041015625-4.24658203125,2.0556640625-.4169921875,4.2880859375-.70263671875,6.693359375-.85791015625,2.40478515625-.1552734375,4.79638671875-.1435546875,7.17626953125.0341796875,2.3779296875.17919921875,4.69580078125.5029296875,6.953125.9716796875,2.25439453125.47119140625,4.26025390625,1.0751953125,6.0126953125,1.814453125Z"/>
        </g>
      </g>
      <g>
        <g>
          <path class="cls-2" d="M98.143066406248181,41.262913480718453c.9873046875,31.4755859375,3.02001953125,62.978515625,6.09716796875,94.5068359375-.021484375,1.138671875-.23486328125,2.2421875-.638671875,3.30859375-.41845703125.8798828125-1.04931640625,1.72607421875-1.89599609375,2.53759765625-.8486328125.814453125-2.06787109375,1.36376953125-3.658203125,1.6572265625-2.15283203125.4228515625-4.380859375.73095703125-6.6884765625.9287109375-2.30908203125.1953125-4.248046875-.1298828125-5.81591796875-.97412109375-5.86328125,1.60791015625-11.9033203125,2.330078125-18.1162109375,2.1630859375-6.21533203125-.16748046875-11.92822265625-1.73876953125-17.1396484375-4.71923828125-4.52197265625-2.5498046875-8.09765625-5.84619140625-10.724609375-9.89208984375-2.6298828125-4.04345703125-4.37841796875-8.40576171875-5.24853515625-13.08642578125-.87060546875-4.6787109375-.921875-9.505859375-.15234375-14.48095703125.7666015625-4.97314453125,2.291015625-9.6171875,4.56982421875-13.93359375,1.861328125-3.4345703125,4.22216796875-6.47412109375,7.08349609375-9.123046875,2.859375-2.64599609375,6.009765625-4.83837890625,9.44921875-6.576171875,3.439453125-1.73583984375,7.1259765625-2.94580078125,11.06005859375-3.6259765625,3.93408203125-.6796875,7.86083984375-.72021484375,11.78369140625-.12109375-.06103515625-3.8779296875-.07861328125-7.453125-.05224609375-10.72216796875.02392578125-3.26953125.052734375-6.13427734375.08447265625-8.6005859375.00537109375-2.841796875.02587890625-5.447265625.0634765625-7.81787109375-.1494140625-.84228515625-.056640625-1.60546875.279296875-2.291015625.24560546875-.583984375.68212890625-1.15673828125,1.3095703125-1.71826171875.62548828125-.56005859375,1.5986328125-.884765625,2.92041015625-.97021484375,1.22509765625-.07861328125,2.71142578125-.150390625,4.46142578125-.21630859375,1.7470703125-.064453125,3.4091796875-.0068359375,4.98388671875.17529296875,1.57373046875.1826171875,2.947265625.54443359375,4.11865234375,1.08447265625,1.17138671875.541015625,1.79345703125,1.37548828125,1.8662109375,2.50732421875ZM78.610351562498181,90.825901761968453c-3.6708984375-1.08837890625-6.9033203125-1.306640625-9.70263671875-.65283203125-2.79931640625.65576171875-5.13916015625,1.8232421875-7.01904296875,3.50732421875-1.880859375,1.68408203125-3.28857421875,3.74169921875-4.21923828125,6.16796875-.93310546875,2.42822265625-1.38916015625,4.8974609375-1.36962890625,7.40478515625.0205078125,2.509765625.53076171875,4.91552734375,1.53125,7.2177734375,1.00146484375,2.3037109375,2.47314453125,4.19775390625,4.41552734375,5.681640625,1.94287109375,1.486328125,4.3662109375,2.37158203125,7.2744140625,2.65673828125,2.9072265625.28759765625,6.345703125-.3603515625,10.31689453125-1.9443359375-.2978515625-4.6201171875-.53173828125-9.34228515625-.7001953125-14.16162109375-.16943359375-4.8193359375-.34619140625-10.111328125-.52734375-15.87744140625Z"/>
          <path class="cls-2" d="M164.950683593748181,44.056370511968453c1.556640625.658203125,2.5009765625,1.7099609375,2.83154296875,3.15576171875.3291015625,1.4482421875.3583984375,3.00927734375.08935546875,4.6826171875-.27197265625,1.67578125-.75830078125,3.31640625-1.4580078125,4.923828125-.7021484375,1.60791015625-1.35302734375,2.90673828125-1.951171875,3.89111328125-.51708984375.79248046875-1.11279296875,1.47021484375-1.787109375,2.03271484375-.67333984375.5654296875-1.5419921875.6923828125-2.60302734375.38134765625-4.08935546875-1.724609375-7.50390625-2.9013671875-10.244140625-3.5302734375-2.7392578125-.626953125-4.88720703125-.5126953125-6.44091796875.3447265625-1.55615234375.85986328125-2.60888671875,2.51220703125-3.1611328125,4.96337890625-.55224609375,2.45068359375-.736328125,5.849609375-.54931640625,10.193359375.06298828125,2.45947265625.171875,4.86767578125.32373046875,7.22412109375.15234375,2.3583984375.30712890625,4.763671875.46533203125,7.21484375,3.66650390625-.4248046875,7.64111328125-.82275390625,11.92724609375-1.1953125,4.28515625-.369140625,8.267578125-.67529296875,11.94580078125-.91259765625,1.26123046875.486328125,2.2978515625,1.865234375,3.1083984375,4.1328125.80810546875,2.26953125,1.32080078125,4.72216796875,1.5400390625,7.35888671875.21728515625,2.638671875.06640625,5.08740234375-.44921875,7.34521484375-.517578125,2.259765625-1.427734375,3.5732421875-2.7294921875,3.94091796875-.5537109375.2265625-1.916015625.408203125-4.08447265625.5478515625-2.1708984375.14013671875-4.48388671875.24267578125-6.94189453125.3056640625-1.79248046875.11572265625-3.6572265625.21337890625-5.5927734375.28955078125-1.9375.07861328125-3.9931640625.14013671875-6.16845703125.185546875.75390625,5.82470703125,1.39501953125,10.99072265625,1.92431640625,15.50244140625.5263671875,4.51220703125.95556640625,8.58251953125,1.28466796875,12.2060546875.3271484375,3.6240234375.58984375,6.94580078125.78466796875,9.96533203125.19482421875,3.017578125.33544921875,5.94482421875.42431640625,8.78076171875.0791015625,1.224609375.07421875,2.623046875-.01318359375,4.19189453125-.08984375,1.568359375-.37109375,3.05419921875-.849609375,4.458984375-.47705078125,1.40185546875-1.2294921875,2.61181640625-2.251953125,3.62548828125-1.02392578125,1.01171875-2.384765625,1.57470703125-4.08203125,1.68408203125-1.41455078125.09130859375-2.97705078125.09716796875-4.6865234375.01806640625-1.71044921875-.08056640625-3.34228515625-.4013671875-4.892578125-.96240234375-1.55322265625-.56396484375-2.8837890625-1.37744140625-3.99365234375-2.4423828125-1.11181640625-1.06396484375-1.72705078125-2.541015625-1.8486328125-4.4267578125-.49267578125-7.6396484375-1.04931640625-15.892578125-1.66796875-24.75390625-.6201171875-8.86083984375-1.45361328125-17.75732421875-2.5029296875-26.68896484375l-4.6689453125.30126953125c-.36572265625.21435546875-.74658203125.1904296875-1.14111328125-.068359375-.29541015625-.169921875-.62744140625-.5498046875-.9970703125-1.1435546875-.37060546875-.5908203125-.69140625-1.5400390625-.96533203125-2.849609375-.26904296875-1.212890625-.5771484375-2.6845703125-.92431640625-4.41552734375-.3486328125-1.7294921875-.59765625-3.3935546875-.748046875-4.99560546875-.15234375-1.59912109375-.16943359375-2.97216796875-.05224609375-4.1162109375.1142578125-1.14453125.453125-1.78076171875,1.01318359375-1.912109375,1.119140625-.26123046875,2.2177734375-.4736328125,3.29736328125-.63916015625,1.0771484375-.16259765625,2.1806640625-.32958984375,3.30615234375-.49755859375-.1826171875-2.82958984375-.38330078125-5.94189453125-.6025390625-9.33740234375-.21875-3.39501953125-.25-6.80322265625-.09130859375-10.22265625.1572265625-3.42041015625.55712890625-6.78466796875,1.1962890625-10.09326171875.638671875-3.30859375,1.69580078125-6.35986328125,3.173828125-9.15478515625,1.47607421875-2.79443359375,3.4765625-5.19677734375,5.9990234375-7.2060546875,2.52099609375-2.009765625,5.74609375-3.42529296875,9.67041015625-4.24658203125,2.0556640625-.4169921875,4.2880859375-.70263671875,6.693359375-.85791015625,2.40478515625-.1552734375,4.79638671875-.1435546875,7.17626953125.0341796875,2.3779296875.17919921875,4.69580078125.5029296875,6.953125.9716796875,2.25439453125.47119140625,4.26025390625,1.0751953125,6.0126953125,1.814453125Z"/>
        </g>
        <g>
          <path class="cls-2" d="M98.143066406248181,41.262913480718453c.9873046875,31.4755859375,3.02001953125,62.978515625,6.09716796875,94.5068359375-.021484375,1.138671875-.23486328125,2.2421875-.638671875,3.30859375-.41845703125.8798828125-1.04931640625,1.72607421875-1.89599609375,2.53759765625-.8486328125.814453125-2.06787109375,1.36376953125-3.658203125,1.6572265625-2.15283203125.4228515625-4.380859375.73095703125-6.6884765625.9287109375-2.30908203125.1953125-4.248046875-.1298828125-5.81591796875-.97412109375-5.86328125,1.60791015625-11.9033203125,2.330078125-18.1162109375,2.1630859375-6.21533203125-.16748046875-11.92822265625-1.73876953125-17.1396484375-4.71923828125-4.52197265625-2.5498046875-8.09765625-5.84619140625-10.724609375-9.89208984375-2.6298828125-4.04345703125-4.37841796875-8.40576171875-5.24853515625-13.08642578125-.87060546875-4.6787109375-.921875-9.505859375-.15234375-14.48095703125.7666015625-4.97314453125,2.291015625-9.6171875,4.56982421875-13.93359375,1.861328125-3.4345703125,4.22216796875-6.47412109375,7.08349609375-9.123046875,2.859375-2.64599609375,6.009765625-4.83837890625,9.44921875-6.576171875,3.439453125-1.73583984375,7.1259765625-2.94580078125,11.06005859375-3.6259765625,3.93408203125-.6796875,7.86083984375-.72021484375,11.78369140625-.12109375-.06103515625-3.8779296875-.07861328125-7.453125-.05224609375-10.72216796875.02392578125-3.26953125.052734375-6.13427734375.08447265625-8.6005859375.00537109375-2.841796875.02587890625-5.447265625.0634765625-7.81787109375-.1494140625-.84228515625-.056640625-1.60546875.279296875-2.291015625.24560546875-.583984375.68212890625-1.15673828125,1.3095703125-1.71826171875.62548828125-.56005859375,1.5986328125-.884765625,2.92041015625-.97021484375,1.22509765625-.07861328125,2.71142578125-.150390625,4.46142578125-.21630859375,1.7470703125-.064453125,3.4091796875-.0068359375,4.98388671875.17529296875,1.57373046875.1826171875,2.947265625.54443359375,4.11865234375,1.08447265625,1.17138671875.541015625,1.79345703125,1.37548828125,1.8662109375,2.50732421875ZM78.610351562498181,90.825901761968453c-3.6708984375-1.08837890625-6.9033203125-1.306640625-9.70263671875-.65283203125-2.79931640625.65576171875-5.13916015625,1.8232421875-7.01904296875,3.50732421875-1.880859375,1.68408203125-3.28857421875,3.74169921875-4.21923828125,6.16796875-.93310546875,2.42822265625-1.38916015625,4.8974609375-1.36962890625,7.40478515625.0205078125,2.509765625.53076171875,4.91552734375,1.53125,7.2177734375,1.00146484375,2.3037109375,2.47314453125,4.19775390625,4.41552734375,5.681640625,1.94287109375,1.486328125,4.3662109375,2.37158203125,7.2744140625,2.65673828125,2.9072265625.28759765625,6.345703125-.3603515625,10.31689453125-1.9443359375-.2978515625-4.6201171875-.53173828125-9.34228515625-.7001953125-14.16162109375-.16943359375-4.8193359375-.34619140625-10.111328125-.52734375-15.87744140625Z"/>
          <path class="cls-2" d="M164.950683593748181,44.056370511968453c1.556640625.658203125,2.5009765625,1.7099609375,2.83154296875,3.15576171875.3291015625,1.4482421875.3583984375,3.00927734375.08935546875,4.6826171875-.27197265625,1.67578125-.75830078125,3.31640625-1.4580078125,4.923828125-.7021484375,1.60791015625-1.35302734375,2.90673828125-1.951171875,3.89111328125-.51708984375.79248046875-1.11279296875,1.47021484375-1.787109375,2.03271484375-.67333984375.5654296875-1.5419921875.6923828125-2.60302734375.38134765625-4.08935546875-1.724609375-7.50390625-2.9013671875-10.244140625-3.5302734375-2.7392578125-.626953125-4.88720703125-.5126953125-6.44091796875.3447265625-1.55615234375.85986328125-2.60888671875,2.51220703125-3.1611328125,4.96337890625-.55224609375,2.45068359375-.736328125,5.849609375-.54931640625,10.193359375.06298828125,2.45947265625.171875,4.86767578125.32373046875,7.22412109375.15234375,2.3583984375.30712890625,4.763671875.46533203125,7.21484375,3.66650390625-.4248046875,7.64111328125-.82275390625,11.92724609375-1.1953125,4.28515625-.369140625,8.267578125-.67529296875,11.94580078125-.91259765625,1.26123046875.486328125,2.2978515625,1.865234375,3.1083984375,4.1328125.80810546875,2.26953125,1.32080078125,4.72216796875,1.5400390625,7.35888671875.21728515625,2.638671875.06640625,5.08740234375-.44921875,7.34521484375-.517578125,2.259765625-1.427734375,3.5732421875-2.7294921875,3.94091796875-.5537109375.2265625-1.916015625.408203125-4.08447265625.5478515625-2.1708984375.14013671875-4.48388671875.24267578125-6.94189453125.3056640625-1.79248046875.11572265625-3.6572265625.21337890625-5.5927734375.28955078125-1.9375.07861328125-3.9931640625.14013671875-6.16845703125.185546875.75390625,5.82470703125,1.39501953125,10.99072265625,1.92431640625,15.50244140625.5263671875,4.51220703125.95556640625,8.58251953125,1.28466796875,12.2060546875.3271484375,3.6240234375.58984375,6.94580078125.78466796875,9.96533203125.19482421875,3.017578125.33544921875,5.94482421875.42431640625,8.78076171875.0791015625,1.224609375.07421875,2.623046875-.01318359375,4.19189453125-.08984375,1.568359375-.37109375,3.05419921875-.849609375,4.458984375-.47705078125,1.40185546875-1.2294921875,2.61181640625-2.251953125,3.62548828125-1.02392578125,1.01171875-2.384765625,1.57470703125-4.08203125,1.68408203125-1.41455078125.09130859375-2.97705078125.09716796875-4.6865234375.01806640625-1.71044921875-.08056640625-3.34228515625-.4013671875-4.892578125-.96240234375-1.55322265625-.56396484375-2.8837890625-1.37744140625-3.99365234375-2.4423828125-1.11181640625-1.06396484375-1.72705078125-2.541015625-1.8486328125-4.4267578125-.49267578125-7.6396484375-1.04931640625-15.892578125-1.66796875-24.75390625-.6201171875-8.86083984375-1.45361328125-17.75732421875-2.5029296875-26.68896484375l-4.6689453125.30126953125c-.36572265625.21435546875-.74658203125.1904296875-1.14111328125-.068359375-.29541015625-.169921875-.62744140625-.5498046875-.9970703125-1.1435546875-.37060546875-.5908203125-.69140625-1.5400390625-.96533203125-2.849609375-.26904296875-1.212890625-.5771484375-2.6845703125-.92431640625-4.41552734375-.3486328125-1.7294921875-.59765625-3.3935546875-.748046875-4.99560546875-.15234375-1.59912109375-.16943359375-2.97216796875-.05224609375-4.1162109375.1142578125-1.14453125.453125-1.78076171875,1.01318359375-1.912109375,1.119140625-.26123046875,2.2177734375-.4736328125,3.29736328125-.63916015625,1.0771484375-.16259765625,2.1806640625-.32958984375,3.30615234375-.49755859375-.1826171875-2.82958984375-.38330078125-5.94189453125-.6025390625-9.33740234375-.21875-3.39501953125-.25-6.80322265625-.09130859375-10.22265625.1572265625-3.42041015625.55712890625-6.78466796875,1.1962890625-10.09326171875.638671875-3.30859375,1.69580078125-6.35986328125,3.173828125-9.15478515625,1.47607421875-2.79443359375,3.4765625-5.19677734375,5.9990234375-7.2060546875,2.52099609375-2.009765625,5.74609375-3.42529296875,9.67041015625-4.24658203125,2.0556640625-.4169921875,4.2880859375-.70263671875,6.693359375-.85791015625,2.40478515625-.1552734375,4.79638671875-.1435546875,7.17626953125.0341796875,2.3779296875.17919921875,4.69580078125.5029296875,6.953125.9716796875,2.25439453125.47119140625,4.26025390625,1.0751953125,6.0126953125,1.814453125Z"/>
        </g>
        <g>
          <path class="cls-2" d="M98.143066406248181,41.262913480718453c.9873046875,31.4755859375,3.02001953125,62.978515625,6.09716796875,94.5068359375-.021484375,1.138671875-.23486328125,2.2421875-.638671875,3.30859375-.41845703125.8798828125-1.04931640625,1.72607421875-1.89599609375,2.53759765625-.8486328125.814453125-2.06787109375,1.36376953125-3.658203125,1.6572265625-2.15283203125.4228515625-4.380859375.73095703125-6.6884765625.9287109375-2.30908203125.1953125-4.248046875-.1298828125-5.81591796875-.97412109375-5.86328125,1.60791015625-11.9033203125,2.330078125-18.1162109375,2.1630859375-6.21533203125-.16748046875-11.92822265625-1.73876953125-17.1396484375-4.71923828125-4.52197265625-2.5498046875-8.09765625-5.84619140625-10.724609375-9.89208984375-2.6298828125-4.04345703125-4.37841796875-8.40576171875-5.24853515625-13.08642578125-.87060546875-4.6787109375-.921875-9.505859375-.15234375-14.48095703125.7666015625-4.97314453125,2.291015625-9.6171875,4.56982421875-13.93359375,1.861328125-3.4345703125,4.22216796875-6.47412109375,7.08349609375-9.123046875,2.859375-2.64599609375,6.009765625-4.83837890625,9.44921875-6.576171875,3.439453125-1.73583984375,7.1259765625-2.94580078125,11.06005859375-3.6259765625,3.93408203125-.6796875,7.86083984375-.72021484375,11.78369140625-.12109375-.06103515625-3.8779296875-.07861328125-7.453125-.05224609375-10.72216796875.02392578125-3.26953125.052734375-6.13427734375.08447265625-8.6005859375.00537109375-2.841796875.02587890625-5.447265625.0634765625-7.81787109375-.1494140625-.84228515625-.056640625-1.60546875.279296875-2.291015625.24560546875-.583984375.68212890625-1.15673828125,1.3095703125-1.71826171875.62548828125-.56005859375,1.5986328125-.884765625,2.92041015625-.97021484375,1.22509765625-.07861328125,2.71142578125-.150390625,4.46142578125-.21630859375,1.7470703125-.064453125,3.4091796875-.0068359375,4.98388671875.17529296875,1.57373046875.1826171875,2.947265625.54443359375,4.11865234375,1.08447265625,1.17138671875.541015625,1.79345703125,1.37548828125,1.8662109375,2.50732421875ZM78.610351562498181,90.825901761968453c-3.6708984375-1.08837890625-6.9033203125-1.306640625-9.70263671875-.65283203125-2.79931640625.65576171875-5.13916015625,1.8232421875-7.01904296875,3.50732421875-1.880859375,1.68408203125-3.28857421875,3.74169921875-4.21923828125,6.16796875-.93310546875,2.42822265625-1.38916015625,4.8974609375-1.36962890625,7.40478515625.0205078125,2.509765625.53076171875,4.91552734375,1.53125,7.2177734375,1.00146484375,2.3037109375,2.47314453125,4.19775390625,4.41552734375,5.681640625,1.94287109375,1.486328125,4.3662109375,2.37158203125,7.2744140625,2.65673828125,2.9072265625.28759765625,6.345703125-.3603515625,10.31689453125-1.9443359375-.2978515625-4.6201171875-.53173828125-9.34228515625-.7001953125-14.16162109375-.16943359375-4.8193359375-.34619140625-10.111328125-.52734375-15.87744140625Z"/>
          <path class="cls-2" d="M164.950683593748181,44.056370511968453c1.556640625.658203125,2.5009765625,1.7099609375,2.83154296875,3.15576171875.3291015625,1.4482421875.3583984375,3.00927734375.08935546875,4.6826171875-.27197265625,1.67578125-.75830078125,3.31640625-1.4580078125,4.923828125-.7021484375,1.60791015625-1.35302734375,2.90673828125-1.951171875,3.89111328125-.51708984375.79248046875-1.11279296875,1.47021484375-1.787109375,2.03271484375-.67333984375.5654296875-1.5419921875.6923828125-2.60302734375.38134765625-4.08935546875-1.724609375-7.50390625-2.9013671875-10.244140625-3.5302734375-2.7392578125-.626953125-4.88720703125-.5126953125-6.44091796875.3447265625-1.55615234375.85986328125-2.60888671875,2.51220703125-3.1611328125,4.96337890625-.55224609375,2.45068359375-.736328125,5.849609375-.54931640625,10.193359375.06298828125,2.45947265625.171875,4.86767578125.32373046875,7.22412109375.15234375,2.3583984375.30712890625,4.763671875.46533203125,7.21484375,3.66650390625-.4248046875,7.64111328125-.82275390625,11.92724609375-1.1953125,4.28515625-.369140625,8.267578125-.67529296875,11.94580078125-.91259765625,1.26123046875.486328125,2.2978515625,1.865234375,3.1083984375,4.1328125.80810546875,2.26953125,1.32080078125,4.72216796875,1.5400390625,7.35888671875.21728515625,2.638671875.06640625,5.08740234375-.44921875,7.34521484375-.517578125,2.259765625-1.427734375,3.5732421875-2.7294921875,3.94091796875-.5537109375.2265625-1.916015625.408203125-4.08447265625.5478515625-2.1708984375.14013671875-4.48388671875.24267578125-6.94189453125.3056640625-1.79248046875.11572265625-3.6572265625.21337890625-5.5927734375.28955078125-1.9375.07861328125-3.9931640625.14013671875-6.16845703125.185546875.75390625,5.82470703125,1.39501953125,10.99072265625,1.92431640625,15.50244140625.5263671875,4.51220703125.95556640625,8.58251953125,1.28466796875,12.2060546875.3271484375,3.6240234375.58984375,6.94580078125.78466796875,9.96533203125.19482421875,3.017578125.33544921875,5.94482421875.42431640625,8.78076171875.0791015625,1.224609375.07421875,2.623046875-.01318359375,4.19189453125-.08984375,1.568359375-.37109375,3.05419921875-.849609375,4.458984375-.47705078125,1.40185546875-1.2294921875,2.61181640625-2.251953125,3.62548828125-1.02392578125,1.01171875-2.384765625,1.57470703125-4.08203125,1.68408203125-1.41455078125.09130859375-2.97705078125.09716796875-4.6865234375.01806640625-1.71044921875-.08056640625-3.34228515625-.4013671875-4.892578125-.96240234375-1.55322265625-.56396484375-2.8837890625-1.37744140625-3.99365234375-2.4423828125-1.11181640625-1.06396484375-1.72705078125-2.541015625-1.8486328125-4.4267578125-.49267578125-7.6396484375-1.04931640625-15.892578125-1.66796875-24.75390625-.6201171875-8.86083984375-1.45361328125-17.75732421875-2.5029296875-26.68896484375l-4.6689453125.30126953125c-.36572265625.21435546875-.74658203125.1904296875-1.14111328125-.068359375-.29541015625-.169921875-.62744140625-.5498046875-.9970703125-1.1435546875-.37060546875-.5908203125-.69140625-1.5400390625-.96533203125-2.849609375-.26904296875-1.212890625-.5771484375-2.6845703125-.92431640625-4.41552734375-.3486328125-1.7294921875-.59765625-3.3935546875-.748046875-4.99560546875-.15234375-1.59912109375-.16943359375-2.97216796875-.05224609375-4.1162109375.1142578125-1.14453125.453125-1.78076171875,1.01318359375-1.912109375,1.119140625-.26123046875,2.2177734375-.4736328125,3.29736328125-.63916015625,1.0771484375-.16259765625,2.1806640625-.32958984375,3.30615234375-.49755859375-.1826171875-2.82958984375-.38330078125-5.94189453125-.6025390625-9.33740234375-.21875-3.39501953125-.25-6.80322265625-.09130859375-10.22265625.1572265625-3.42041015625.55712890625-6.78466796875,1.1962890625-10.09326171875.638671875-3.30859375,1.69580078125-6.35986328125,3.173828125-9.15478515625,1.47607421875-2.79443359375,3.4765625-5.19677734375,5.9990234375-7.2060546875,2.52099609375-2.009765625,5.74609375-3.42529296875,9.67041015625-4.24658203125,2.0556640625-.4169921875,4.2880859375-.70263671875,6.693359375-.85791015625,2.40478515625-.1552734375,4.79638671875-.1435546875,7.17626953125.0341796875,2.3779296875.17919921875,4.69580078125.5029296875,6.953125.9716796875,2.25439453125.47119140625,4.26025390625,1.0751953125,6.0126953125,1.814453125Z"/>
        </g>
      </g>
      <g>
        <g>
          <path class="cls-3" d="M98.143066406248181,41.262913480718453c.9873046875,31.4755859375,3.02001953125,62.978515625,6.09716796875,94.5068359375-.021484375,1.138671875-.23486328125,2.2421875-.638671875,3.30859375-.41845703125.8798828125-1.04931640625,1.72607421875-1.89599609375,2.53759765625-.8486328125.814453125-2.06787109375,1.36376953125-3.658203125,1.6572265625-2.15283203125.4228515625-4.380859375.73095703125-6.6884765625.9287109375-2.30908203125.1953125-4.248046875-.1298828125-5.81591796875-.97412109375-5.86328125,1.60791015625-11.9033203125,2.330078125-18.1162109375,2.1630859375-6.21533203125-.16748046875-11.92822265625-1.73876953125-17.1396484375-4.71923828125-4.52197265625-2.5498046875-8.09765625-5.84619140625-10.724609375-9.89208984375-2.6298828125-4.04345703125-4.37841796875-8.40576171875-5.24853515625-13.08642578125-.87060546875-4.6787109375-.921875-9.505859375-.15234375-14.48095703125.7666015625-4.97314453125,2.291015625-9.6171875,4.56982421875-13.93359375,1.861328125-3.4345703125,4.22216796875-6.47412109375,7.08349609375-9.123046875,2.859375-2.64599609375,6.009765625-4.83837890625,9.44921875-6.576171875,3.439453125-1.73583984375,7.1259765625-2.94580078125,11.06005859375-3.6259765625,3.93408203125-.6796875,7.86083984375-.72021484375,11.78369140625-.12109375-.06103515625-3.8779296875-.07861328125-7.453125-.05224609375-10.72216796875.02392578125-3.26953125.052734375-6.13427734375.08447265625-8.6005859375.00537109375-2.841796875.02587890625-5.447265625.0634765625-7.81787109375-.1494140625-.84228515625-.056640625-1.60546875.279296875-2.291015625.24560546875-.583984375.68212890625-1.15673828125,1.3095703125-1.71826171875.62548828125-.56005859375,1.5986328125-.884765625,2.92041015625-.97021484375,1.22509765625-.07861328125,2.71142578125-.150390625,4.46142578125-.21630859375,1.7470703125-.064453125,3.4091796875-.0068359375,4.98388671875.17529296875,1.57373046875.1826171875,2.947265625.54443359375,4.11865234375,1.08447265625,1.17138671875.541015625,1.79345703125,1.37548828125,1.8662109375,2.50732421875ZM78.610351562498181,90.825901761968453c-3.6708984375-1.08837890625-6.9033203125-1.306640625-9.70263671875-.65283203125-2.79931640625.65576171875-5.13916015625,1.8232421875-7.01904296875,3.50732421875-1.880859375,1.68408203125-3.28857421875,3.74169921875-4.21923828125,6.16796875-.93310546875,2.42822265625-1.38916015625,4.8974609375-1.36962890625,7.40478515625.0205078125,2.509765625.53076171875,4.91552734375,1.53125,7.2177734375,1.00146484375,2.3037109375,2.47314453125,4.19775390625,4.41552734375,5.681640625,1.94287109375,1.486328125,4.3662109375,2.37158203125,7.2744140625,2.65673828125,2.9072265625.28759765625,6.345703125-.3603515625,10.31689453125-1.9443359375-.2978515625-4.6201171875-.53173828125-9.34228515625-.7001953125-14.16162109375-.16943359375-4.8193359375-.34619140625-10.111328125-.52734375-15.87744140625Z"/>
          <path class="cls-3" d="M164.950683593748181,44.056370511968453c1.556640625.658203125,2.5009765625,1.7099609375,2.83154296875,3.15576171875.3291015625,1.4482421875.3583984375,3.00927734375.08935546875,4.6826171875-.27197265625,1.67578125-.75830078125,3.31640625-1.4580078125,4.923828125-.7021484375,1.60791015625-1.35302734375,2.90673828125-1.951171875,3.89111328125-.51708984375.79248046875-1.11279296875,1.47021484375-1.787109375,2.03271484375-.67333984375.5654296875-1.5419921875.6923828125-2.60302734375.38134765625-4.08935546875-1.724609375-7.50390625-2.9013671875-10.244140625-3.5302734375-2.7392578125-.626953125-4.88720703125-.5126953125-6.44091796875.3447265625-1.55615234375.85986328125-2.60888671875,2.51220703125-3.1611328125,4.96337890625-.55224609375,2.45068359375-.736328125,5.849609375-.54931640625,10.193359375.06298828125,2.45947265625.171875,4.86767578125.32373046875,7.22412109375.15234375,2.3583984375.30712890625,4.763671875.46533203125,7.21484375,3.66650390625-.4248046875,7.64111328125-.82275390625,11.92724609375-1.1953125,4.28515625-.369140625,8.267578125-.67529296875,11.94580078125-.91259765625,1.26123046875.486328125,2.2978515625,1.865234375,3.1083984375,4.1328125.80810546875,2.26953125,1.32080078125,4.72216796875,1.5400390625,7.35888671875.21728515625,2.638671875.06640625,5.08740234375-.44921875,7.34521484375-.517578125,2.259765625-1.427734375,3.5732421875-2.7294921875,3.94091796875-.5537109375.2265625-1.916015625.408203125-4.08447265625.5478515625-2.1708984375.14013671875-4.48388671875.24267578125-6.94189453125.3056640625-1.79248046875.11572265625-3.6572265625.21337890625-5.5927734375.28955078125-1.9375.07861328125-3.9931640625.14013671875-6.16845703125.185546875.75390625,5.82470703125,1.39501953125,10.99072265625,1.92431640625,15.50244140625.5263671875,4.51220703125.95556640625,8.58251953125,1.28466796875,12.2060546875.3271484375,3.6240234375.58984375,6.94580078125.78466796875,9.96533203125.19482421875,3.017578125.33544921875,5.94482421875.42431640625,8.78076171875.0791015625,1.224609375.07421875,2.623046875-.01318359375,4.19189453125-.08984375,1.568359375-.37109375,3.05419921875-.849609375,4.458984375-.47705078125,1.40185546875-1.2294921875,2.61181640625-2.251953125,3.62548828125-1.02392578125,1.01171875-2.384765625,1.57470703125-4.08203125,1.68408203125-1.41455078125.09130859375-2.97705078125.09716796875-4.6865234375.01806640625-1.71044921875-.08056640625-3.34228515625-.4013671875-4.892578125-.96240234375-1.55322265625-.56396484375-2.8837890625-1.37744140625-3.99365234375-2.4423828125-1.11181640625-1.06396484375-1.72705078125-2.541015625-1.8486328125-4.4267578125-.49267578125-7.6396484375-1.04931640625-15.892578125-1.66796875-24.75390625-.6201171875-8.86083984375-1.45361328125-17.75732421875-2.5029296875-26.68896484375l-4.6689453125.30126953125c-.36572265625.21435546875-.74658203125.1904296875-1.14111328125-.068359375-.29541015625-.169921875-.62744140625-.5498046875-.9970703125-1.1435546875-.37060546875-.5908203125-.69140625-1.5400390625-.96533203125-2.849609375-.26904296875-1.212890625-.5771484375-2.6845703125-.92431640625-4.41552734375-.3486328125-1.7294921875-.59765625-3.3935546875-.748046875-4.99560546875-.15234375-1.59912109375-.16943359375-2.97216796875-.05224609375-4.1162109375.1142578125-1.14453125.453125-1.78076171875,1.01318359375-1.912109375,1.119140625-.26123046875,2.2177734375-.4736328125,3.29736328125-.63916015625,1.0771484375-.16259765625,2.1806640625-.32958984375,3.30615234375-.49755859375-.1826171875-2.82958984375-.38330078125-5.94189453125-.6025390625-9.33740234375-.21875-3.39501953125-.25-6.80322265625-.09130859375-10.22265625.1572265625-3.42041015625.55712890625-6.78466796875,1.1962890625-10.09326171875.638671875-3.30859375,1.69580078125-6.35986328125,3.173828125-9.15478515625,1.47607421875-2.79443359375,3.4765625-5.19677734375,5.9990234375-7.2060546875,2.52099609375-2.009765625,5.74609375-3.42529296875,9.67041015625-4.24658203125,2.0556640625-.4169921875,4.2880859375-.70263671875,6.693359375-.85791015625,2.40478515625-.1552734375,4.79638671875-.1435546875,7.17626953125.0341796875,2.3779296875.17919921875,4.69580078125.5029296875,6.953125.9716796875,2.25439453125.47119140625,4.26025390625,1.0751953125,6.0126953125,1.814453125Z"/>
        </g>
        <g>
          <path class="cls-3" d="M98.143066406248181,41.262913480718453c.9873046875,31.4755859375,3.02001953125,62.978515625,6.09716796875,94.5068359375-.021484375,1.138671875-.23486328125,2.2421875-.638671875,3.30859375-.41845703125.8798828125-1.04931640625,1.72607421875-1.89599609375,2.53759765625-.8486328125.814453125-2.06787109375,1.36376953125-3.658203125,1.6572265625-2.15283203125.4228515625-4.380859375.73095703125-6.6884765625.9287109375-2.30908203125.1953125-4.248046875-.1298828125-5.81591796875-.97412109375-5.86328125,1.60791015625-11.9033203125,2.330078125-18.1162109375,2.1630859375-6.21533203125-.16748046875-11.92822265625-1.73876953125-17.1396484375-4.71923828125-4.52197265625-2.5498046875-8.09765625-5.84619140625-10.724609375-9.89208984375-2.6298828125-4.04345703125-4.37841796875-8.40576171875-5.24853515625-13.08642578125-.87060546875-4.6787109375-.921875-9.505859375-.15234375-14.48095703125.7666015625-4.97314453125,2.291015625-9.6171875,4.56982421875-13.93359375,1.861328125-3.4345703125,4.22216796875-6.47412109375,7.08349609375-9.123046875,2.859375-2.64599609375,6.009765625-4.83837890625,9.44921875-6.576171875,3.439453125-1.73583984375,7.1259765625-2.94580078125,11.06005859375-3.6259765625,3.93408203125-.6796875,7.86083984375-.72021484375,11.78369140625-.12109375-.06103515625-3.8779296875-.07861328125-7.453125-.05224609375-10.72216796875.02392578125-3.26953125.052734375-6.13427734375.08447265625-8.6005859375.00537109375-2.841796875.02587890625-5.447265625.0634765625-7.81787109375-.1494140625-.84228515625-.056640625-1.60546875.279296875-2.291015625.24560546875-.583984375.68212890625-1.15673828125,1.3095703125-1.71826171875.62548828125-.56005859375,1.5986328125-.884765625,2.92041015625-.97021484375,1.22509765625-.07861328125,2.71142578125-.150390625,4.46142578125-.21630859375,1.7470703125-.064453125,3.4091796875-.0068359375,4.98388671875.17529296875,1.57373046875.1826171875,2.947265625.54443359375,4.11865234375,1.08447265625,1.17138671875.541015625,1.79345703125,1.37548828125,1.8662109375,2.50732421875ZM78.610351562498181,90.825901761968453c-3.6708984375-1.08837890625-6.9033203125-1.306640625-9.70263671875-.65283203125-2.79931640625.65576171875-5.13916015625,1.8232421875-7.01904296875,3.50732421875-1.880859375,1.68408203125-3.28857421875,3.74169921875-4.21923828125,6.16796875-.93310546875,2.42822265625-1.38916015625,4.8974609375-1.36962890625,7.40478515625.0205078125,2.509765625.53076171875,4.91552734375,1.53125,7.2177734375,1.00146484375,2.3037109375,2.47314453125,4.19775390625,4.41552734375,5.681640625,1.94287109375,1.486328125,4.3662109375,2.37158203125,7.2744140625,2.65673828125,2.9072265625.28759765625,6.345703125-.3603515625,10.31689453125-1.9443359375-.2978515625-4.6201171875-.53173828125-9.34228515625-.7001953125-14.16162109375-.16943359375-4.8193359375-.34619140625-10.111328125-.52734375-15.87744140625Z"/>
          <path class="cls-3" d="M164.950683593748181,44.056370511968453c1.556640625.658203125,2.5009765625,1.7099609375,2.83154296875,3.15576171875.3291015625,1.4482421875.3583984375,3.00927734375.08935546875,4.6826171875-.27197265625,1.67578125-.75830078125,3.31640625-1.4580078125,4.923828125-.7021484375,1.60791015625-1.35302734375,2.90673828125-1.951171875,3.89111328125-.51708984375.79248046875-1.11279296875,1.47021484375-1.787109375,2.03271484375-.67333984375.5654296875-1.5419921875.6923828125-2.60302734375.38134765625-4.08935546875-1.724609375-7.50390625-2.9013671875-10.244140625-3.5302734375-2.7392578125-.626953125-4.88720703125-.5126953125-6.44091796875.3447265625-1.55615234375.85986328125-2.60888671875,2.51220703125-3.1611328125,4.96337890625-.55224609375,2.45068359375-.736328125,5.849609375-.54931640625,10.193359375.06298828125,2.45947265625.171875,4.86767578125.32373046875,7.22412109375.15234375,2.3583984375.30712890625,4.763671875.46533203125,7.21484375,3.66650390625-.4248046875,7.64111328125-.82275390625,11.92724609375-1.1953125,4.28515625-.369140625,8.267578125-.67529296875,11.94580078125-.91259765625,1.26123046875.486328125,2.2978515625,1.865234375,3.1083984375,4.1328125.80810546875,2.26953125,1.32080078125,4.72216796875,1.5400390625,7.35888671875.21728515625,2.638671875.06640625,5.08740234375-.44921875,7.34521484375-.517578125,2.259765625-1.427734375,3.5732421875-2.7294921875,3.94091796875-.5537109375.2265625-1.916015625.408203125-4.08447265625.5478515625-2.1708984375.14013671875-4.48388671875.24267578125-6.94189453125.3056640625-1.79248046875.11572265625-3.6572265625.21337890625-5.5927734375.28955078125-1.9375.07861328125-3.9931640625.14013671875-6.16845703125.185546875.75390625,5.82470703125,1.39501953125,10.99072265625,1.92431640625,15.50244140625.5263671875,4.51220703125.95556640625,8.58251953125,1.28466796875,12.2060546875.3271484375,3.6240234375.58984375,6.94580078125.78466796875,9.96533203125.19482421875,3.017578125.33544921875,5.94482421875.42431640625,8.78076171875.0791015625,1.224609375.07421875,2.623046875-.01318359375,4.19189453125-.08984375,1.568359375-.37109375,3.05419921875-.849609375,4.458984375-.47705078125,1.40185546875-1.2294921875,2.61181640625-2.251953125,3.62548828125-1.02392578125,1.01171875-2.384765625,1.57470703125-4.08203125,1.68408203125-1.41455078125.09130859375-2.97705078125.09716796875-4.6865234375.01806640625-1.71044921875-.08056640625-3.34228515625-.4013671875-4.892578125-.96240234375-1.55322265625-.56396484375-2.8837890625-1.37744140625-3.99365234375-2.4423828125-1.11181640625-1.06396484375-1.72705078125-2.541015625-1.8486328125-4.4267578125-.49267578125-7.6396484375-1.04931640625-15.892578125-1.66796875-24.75390625-.6201171875-8.86083984375-1.45361328125-17.75732421875-2.5029296875-26.68896484375l-4.6689453125.30126953125c-.36572265625.21435546875-.74658203125.1904296875-1.14111328125-.068359375-.29541015625-.169921875-.62744140625-.5498046875-.9970703125-1.1435546875-.37060546875-.5908203125-.69140625-1.5400390625-.96533203125-2.849609375-.26904296875-1.212890625-.5771484375-2.6845703125-.92431640625-4.41552734375-.3486328125-1.7294921875-.59765625-3.3935546875-.748046875-4.99560546875-.15234375-1.59912109375-.16943359375-2.97216796875-.05224609375-4.1162109375.1142578125-1.14453125.453125-1.78076171875,1.01318359375-1.912109375,1.119140625-.26123046875,2.2177734375-.4736328125,3.29736328125-.63916015625,1.0771484375-.16259765625,2.1806640625-.32958984375,3.30615234375-.49755859375-.1826171875-2.82958984375-.38330078125-5.94189453125-.6025390625-9.33740234375-.21875-3.39501953125-.25-6.80322265625-.09130859375-10.22265625.1572265625-3.42041015625.55712890625-6.78466796875,1.1962890625-10.09326171875.638671875-3.30859375,1.69580078125-6.35986328125,3.173828125-9.15478515625,1.47607421875-2.79443359375,3.4765625-5.19677734375,5.9990234375-7.2060546875,2.52099609375-2.009765625,5.74609375-3.42529296875,9.67041015625-4.24658203125,2.0556640625-.4169921875,4.2880859375-.70263671875,6.693359375-.85791015625,2.40478515625-.1552734375,4.79638671875-.1435546875,7.17626953125.0341796875,2.3779296875.17919921875,4.69580078125.5029296875,6.953125.9716796875,2.25439453125.47119140625,4.26025390625,1.0751953125,6.0126953125,1.814453125Z"/>
        </g>
        <g>
          <path class="cls-3" d="M98.143066406248181,41.262913480718453c.9873046875,31.4755859375,3.02001953125,62.978515625,6.09716796875,94.5068359375-.021484375,1.138671875-.23486328125,2.2421875-.638671875,3.30859375-.41845703125.8798828125-1.04931640625,1.72607421875-1.89599609375,2.53759765625-.8486328125.814453125-2.06787109375,1.36376953125-3.658203125,1.6572265625-2.15283203125.4228515625-4.380859375.73095703125-6.6884765625.9287109375-2.30908203125.1953125-4.248046875-.1298828125-5.81591796875-.97412109375-5.86328125,1.60791015625-11.9033203125,2.330078125-18.1162109375,2.1630859375-6.21533203125-.16748046875-11.92822265625-1.73876953125-17.1396484375-4.71923828125-4.52197265625-2.5498046875-8.09765625-5.84619140625-10.724609375-9.89208984375-2.6298828125-4.04345703125-4.37841796875-8.40576171875-5.24853515625-13.08642578125-.87060546875-4.6787109375-.921875-9.505859375-.15234375-14.48095703125.7666015625-4.97314453125,2.291015625-9.6171875,4.56982421875-13.93359375,1.861328125-3.4345703125,4.22216796875-6.47412109375,7.08349609375-9.123046875,2.859375-2.64599609375,6.009765625-4.83837890625,9.44921875-6.576171875,3.439453125-1.73583984375,7.1259765625-2.94580078125,11.06005859375-3.6259765625,3.93408203125-.6796875,7.86083984375-.72021484375,11.78369140625-.12109375-.06103515625-3.8779296875-.07861328125-7.453125-.05224609375-10.72216796875.02392578125-3.26953125.052734375-6.13427734375.08447265625-8.6005859375.00537109375-2.841796875.02587890625-5.447265625.0634765625-7.81787109375-.1494140625-.84228515625-.056640625-1.60546875.279296875-2.291015625.24560546875-.583984375.68212890625-1.15673828125,1.3095703125-1.71826171875.62548828125-.56005859375,1.5986328125-.884765625,2.92041015625-.97021484375,1.22509765625-.07861328125,2.71142578125-.150390625,4.46142578125-.21630859375,1.7470703125-.064453125,3.4091796875-.0068359375,4.98388671875.17529296875,1.57373046875.1826171875,2.947265625.54443359375,4.11865234375,1.08447265625,1.17138671875.541015625,1.79345703125,1.37548828125,1.8662109375,2.50732421875ZM78.610351562498181,90.825901761968453c-3.6708984375-1.08837890625-6.9033203125-1.306640625-9.70263671875-.65283203125-2.79931640625.65576171875-5.13916015625,1.8232421875-7.01904296875,3.50732421875-1.880859375,1.68408203125-3.28857421875,3.74169921875-4.21923828125,6.16796875-.93310546875,2.42822265625-1.38916015625,4.8974609375-1.36962890625,7.40478515625.0205078125,2.509765625.53076171875,4.91552734375,1.53125,7.2177734375,1.00146484375,2.3037109375,2.47314453125,4.19775390625,4.41552734375,5.681640625,1.94287109375,1.486328125,4.3662109375,2.37158203125,7.2744140625,2.65673828125,2.9072265625.28759765625,6.345703125-.3603515625,10.31689453125-1.9443359375-.2978515625-4.6201171875-.53173828125-9.34228515625-.7001953125-14.16162109375-.16943359375-4.8193359375-.34619140625-10.111328125-.52734375-15.87744140625Z"/>
          <path class="cls-3" d="M164.950683593748181,44.056370511968453c1.556640625.658203125,2.5009765625,1.7099609375,2.83154296875,3.15576171875.3291015625,1.4482421875.3583984375,3.00927734375.08935546875,4.6826171875-.27197265625,1.67578125-.75830078125,3.31640625-1.4580078125,4.923828125-.7021484375,1.60791015625-1.35302734375,2.90673828125-1.951171875,3.89111328125-.51708984375.79248046875-1.11279296875,1.47021484375-1.787109375,2.03271484375-.67333984375.5654296875-1.5419921875.6923828125-2.60302734375.38134765625-4.08935546875-1.724609375-7.50390625-2.9013671875-10.244140625-3.5302734375-2.7392578125-.626953125-4.88720703125-.5126953125-6.44091796875.3447265625-1.55615234375.85986328125-2.60888671875,2.51220703125-3.1611328125,4.96337890625-.55224609375,2.45068359375-.736328125,5.849609375-.54931640625,10.193359375.06298828125,2.45947265625.171875,4.86767578125.32373046875,7.22412109375.15234375,2.3583984375.30712890625,4.763671875.46533203125,7.21484375,3.66650390625-.4248046875,7.64111328125-.82275390625,11.92724609375-1.1953125,4.28515625-.369140625,8.267578125-.67529296875,11.94580078125-.91259765625,1.26123046875.486328125,2.2978515625,1.865234375,3.1083984375,4.1328125.80810546875,2.26953125,1.32080078125,4.72216796875,1.5400390625,7.35888671875.21728515625,2.638671875.06640625,5.08740234375-.44921875,7.34521484375-.517578125,2.259765625-1.427734375,3.5732421875-2.7294921875,3.94091796875-.5537109375.2265625-1.916015625.408203125-4.08447265625.5478515625-2.1708984375.14013671875-4.48388671875.24267578125-6.94189453125.3056640625-1.79248046875.11572265625-3.6572265625.21337890625-5.5927734375.28955078125-1.9375.07861328125-3.9931640625.14013671875-6.16845703125.185546875.75390625,5.82470703125,1.39501953125,10.99072265625,1.92431640625,15.50244140625.5263671875,4.51220703125.95556640625,8.58251953125,1.28466796875,12.2060546875.3271484375,3.6240234375.58984375,6.94580078125.78466796875,9.96533203125.19482421875,3.017578125.33544921875,5.94482421875.42431640625,8.78076171875.0791015625,1.224609375.07421875,2.623046875-.01318359375,4.19189453125-.08984375,1.568359375-.37109375,3.05419921875-.849609375,4.458984375-.47705078125,1.40185546875-1.2294921875,2.61181640625-2.251953125,3.62548828125-1.02392578125,1.01171875-2.384765625,1.57470703125-4.08203125,1.68408203125-1.41455078125.09130859375-2.97705078125.09716796875-4.6865234375.01806640625-1.71044921875-.08056640625-3.34228515625-.4013671875-4.892578125-.96240234375-1.55322265625-.56396484375-2.8837890625-1.37744140625-3.99365234375-2.4423828125-1.11181640625-1.06396484375-1.72705078125-2.541015625-1.8486328125-4.4267578125-.49267578125-7.6396484375-1.04931640625-15.892578125-1.66796875-24.75390625-.6201171875-8.86083984375-1.45361328125-17.75732421875-2.5029296875-26.68896484375l-4.6689453125.30126953125c-.36572265625.21435546875-.74658203125.1904296875-1.14111328125-.068359375-.29541015625-.169921875-.62744140625-.5498046875-.9970703125-1.1435546875-.37060546875-.5908203125-.69140625-1.5400390625-.96533203125-2.849609375-.26904296875-1.212890625-.5771484375-2.6845703125-.92431640625-4.41552734375-.3486328125-1.7294921875-.59765625-3.3935546875-.748046875-4.99560546875-.15234375-1.59912109375-.16943359375-2.97216796875-.05224609375-4.1162109375.1142578125-1.14453125.453125-1.78076171875,1.01318359375-1.912109375,1.119140625-.26123046875,2.2177734375-.4736328125,3.29736328125-.63916015625,1.0771484375-.16259765625,2.1806640625-.32958984375,3.30615234375-.49755859375-.1826171875-2.82958984375-.38330078125-5.94189453125-.6025390625-9.33740234375-.21875-3.39501953125-.25-6.80322265625-.09130859375-10.22265625.1572265625-3.42041015625.55712890625-6.78466796875,1.1962890625-10.09326171875.638671875-3.30859375,1.69580078125-6.35986328125,3.173828125-9.15478515625,1.47607421875-2.79443359375,3.4765625-5.19677734375,5.9990234375-7.2060546875,2.52099609375-2.009765625,5.74609375-3.42529296875,9.67041015625-4.24658203125,2.0556640625-.4169921875,4.2880859375-.70263671875,6.693359375-.85791015625,2.40478515625-.1552734375,4.79638671875-.1435546875,7.17626953125.0341796875,2.3779296875.17919921875,4.69580078125.5029296875,6.953125.9716796875,2.25439453125.47119140625,4.26025390625,1.0751953125,6.0126953125,1.814453125Z"/>
        </g>
      </g>
    </g>
  </a>
</svg>