<?xml version="1.0" encoding="UTF-8"?>
<svg id="Content" xmlns="http://www.w3.org/2000/svg" xmlns:xlink="http://www.w3.org/1999/xlink" viewBox="0 0 280 280">
  <defs>
    <style>
      .cls-1 {
        stroke: #665451;
        stroke-width: 50px;
      }

      .cls-1, .cls-2 {
        fill: none;
        stroke-linecap: round;
        stroke-linejoin: round;
      }

      .cls-3 {
        fill: #fff;
      }

      .cls-2 {
        stroke: #998675;
        stroke-width: 2px;
      }
    </style>
  </defs>
  <a xlink:href="https://www.notion.so/congruence/Event-b29ee46aaf324a31815d0a1307d5eeca?pvs=4">
    <g>
      <a xlink:href="https://www.notion.so/congruence/B-Event-1f1a5b08a72c49f5ab60f2e0793fd0a8?pvs=4">
        <g>
          <path class="cls-3" d="M84.234374999998181,58.37060546875c2.3046875,1.0966796875,4.314453125,2.5087890625,6.029296875,4.234375,1.71484375,1.728515625,3.1953125,3.6484375,4.447265625,5.7626953125,1.2490234375,2.1171875,2.2919921875,4.37890625,3.12890625,6.7890625s1.5302734375,4.8466796875,2.080078125,7.3095703125c1.208984375,4.8583984375,2.076171875,9.802734375,2.6015625,14.8330078125.5234375,5.0302734375.8466796875,10.107421875.970703125,15.2265625,0,1.4599609375-.01953125,2.6572265625-.05859375,3.591796875-.04296875.9365234375-.1982421875,1.7080078125-.46875,2.3125-.2724609375.60546875-.6845703125,1.1044921875-1.234375,1.4990234375-.552734375.39453125-1.3369140625.7783203125-2.3564453125,1.1533203125-.9755859375.1962890625-1.9970703125.365234375-3.0634765625.5107421875-1.068359375.1435546875-2.08984375-.064453125-3.068359375-.6259765625-.916015625-.5078125-1.720703125-1.435546875-2.412109375-2.7783203125s-1.171875-3.3173828125-1.44140625-5.9189453125l-.0703125-.869140625c-1.462890625-.0556640625-3.197265625-.060546875-5.205078125-.015625-2.0078125.046875-4.056640625.1396484375-6.14453125.279296875s-4.1015625.2880859375-6.0419921875.4453125c-1.94140625.1572265625-3.5771484375.2900390625-4.91015625.3984375-.0166015625.5263671875-.017578125,1.400390625-.005859375,2.625.0126953125,1.2236328125-.078125,2.4541015625-.2685546875,3.6943359375-.1923828125,1.2412109375-.494140625,2.3740234375-.90625,3.3974609375-.4130859375,1.0263671875-1.05078125,1.6005859375-1.916015625,1.7294921875-.806640625.1240234375-1.728515625.2568359375-2.765625.3994140625-1.0390625.140625-2.0625.109375-3.0703125-.1005859375-1.00390625-.15234375-1.8671875-.5498046875-2.587890625-1.1904296875-.724609375-.640625-1.17578125-1.7119140625-1.3544921875-3.2138671875-.1455078125-1.794921875-.283203125-3.85546875-.4130859375-6.1767578125-.130859375-2.3203125-.216796875-4.8505859375-.2646484375-7.587890625-.0673828125-2.26953125-.0791015625-4.76171875-.037109375-7.4755859375.0419921875-2.7158203125.1943359375-5.5107421875.4580078125-8.390625.26171875-2.876953125.6689453125-5.7685546875,1.220703125-8.6708984375.552734375-2.900390625,1.318359375-5.6748046875,2.2998046875-8.3203125.9814453125-2.64453125,2.1962890625-5.10546875,3.6455078125-7.3798828125,1.447265625-2.2734375,3.2421875-4.2275390625,5.384765625-5.8583984375,2.52734375-1.896484375,5.3857421875-2.9736328125,8.572265625-3.2314453125,3.185546875-.2587890625,6.26171875.2783203125,9.2265625,1.61328125ZM66.322265624998181,99.61962890625c3.626953125-.5849609375,7.244140625-1.09765625,10.853515625-1.53515625,3.607421875-.4375,7.2421875-.7470703125,10.90234375-.927734375-.16015625-4.1259765625-.6318359375-7.7900390625-1.416015625-10.9921875-.78515625-3.2021484375-1.73046875-5.880859375-2.837890625-8.037109375-1.1083984375-2.1533203125-2.34765625-3.7734375-3.7177734375-4.8583984375-1.3701171875-1.083984375-2.72265625-1.572265625-4.0537109375-1.46484375-1.16015625.09375-2.314453125.7861328125-3.462890625,2.0732421875-1.150390625,1.2900390625-2.1669921875,3.12109375-3.052734375,5.49609375-.8876953125,2.375-1.62890625,5.2783203125-2.224609375,8.7080078125-.59765625,3.4296875-.927734375,7.27734375-.990234375,11.5380859375Z"/>
          <path class="cls-3" d="M202.996093749998181,78.66259765625c2.708984375,1.7646484375,4.8037109375,4.0595703125,6.287109375,6.8818359375,1.4814453125,2.8251953125,2.1181640625,5.8203125,1.908203125,8.9853515625-.234375,3.576171875-1.384765625,6.6591796875-3.44921875,9.2451171875-2.064453125,2.5869140625-4.576171875,4.7001953125-7.533203125,6.3388671875-2.958984375,1.640625-6.19921875,2.8359375-9.724609375,3.587890625-3.525390625.7509765625-6.8662109375,1.0810546875-10.0224609375.986328125-.28125.138671875-.5361328125.232421875-.7646484375.28125-.2294921875.046875-.486328125.111328125-.771484375.193359375-1.0380859375.140625-2.111328125.2275390625-3.21484375.2607421875-1.10546875.0302734375-2.1201171875-.0771484375-3.04296875-.3232421875-.92578125-.244140625-1.734375-.703125-2.4296875-1.376953125-.697265625-.671875-1.15625-1.6689453125-1.380859375-2.9931640625-.16796875-.626953125-.30078125-1.9140625-.3994140625-3.859375-.1005859375-1.9453125-.2333984375-4.310546875-.3994140625-7.0966796875-.115234375-2.8466796875-.263671875-5.9404296875-.4453125-9.2783203125-.18359375-3.337890625-.3828125-6.689453125-.5966796875-10.0546875-.2998046875-4.40625-.6005859375-8.8427734375-.9033203125-13.3095703125-.3046875-4.46484375-.841796875-8.9404296875-1.6123046875-13.4267578125-.1591796875-.51171875-.138671875-.9794921875.0615234375-1.4033203125.0859375-.3583984375.3203125-.7109375.7001953125-1.0634765625.3798828125-.349609375.9697265625-.6171875,1.7724609375-.7998046875.57421875-.103515625,1.205078125-.2412109375,1.890625-.4150390625.685546875-.1728515625,1.40234375-.3173828125,2.150390625-.4365234375.748046875-.1181640625,1.47265625-.177734375,2.173828125-.17578125.69921875.001953125,1.31640625.0673828125,1.8515625.19921875,2.921875-.64453125,6.01953125-.91015625,9.294921875-.796875,3.275390625.115234375,6.392578125.6337890625,9.353515625,1.560546875,2.9619140625.9267578125,5.578125,2.2744140625,7.849609375,4.0439453125s3.869140625,4.015625,4.7890625,6.740234375c.3876953125,1.193359375.6650390625,2.453125.8310546875,3.78125.1650390625,1.3291015625.1328125,2.7158203125-.1005859375,4.162109375-.232421875,1.4482421875-.677734375,2.970703125-1.3349609375,4.568359375-.6572265625,1.599609375-1.5869140625,3.2646484375-2.7880859375,4.9931640625ZM179.988281249998181,75.36767578125c2.7890625-.109375,5.1123046875-.5908203125,6.9677734375-1.439453125,1.85546875-.8505859375,3.2158203125-1.8798828125,4.0791015625-3.0859375.865234375-1.20703125,1.228515625-2.4755859375,1.091796875-3.8056640625-.138671875-1.330078125-.740234375-2.4765625-1.8095703125-3.4404296875-1.0693359375-.962890625-2.611328125-1.638671875-4.6259765625-2.03125-2.013671875-.3896484375-4.51171875-.259765625-7.490234375.388671875.357421875,2.2451171875.66796875,4.4658203125.93359375,6.6591796875.265625,2.1962890625.548828125,4.4462890625.853515625,6.7548828125ZM182.290039062498181,100.54541015625c3.1572265625.0947265625,5.7802734375-.263671875,7.8720703125-1.07421875,2.0908203125-.8115234375,3.62890625-1.8095703125,4.611328125-2.9990234375.982421875-1.1865234375,1.435546875-2.4189453125,1.36328125-3.6962890625-.0751953125-1.2744140625-.6708984375-2.3359375-1.7890625-3.1787109375-1.1171875-.841796875-2.76171875-1.3349609375-4.9296875-1.48046875-2.169921875-.14453125-4.845703125.291015625-8.029296875,1.3056640625l.9013671875,11.123046875Z"/>
        </g>
      </a>
      <a xlink:href="https://www.notion.so/congruence/B-Event-1f1a5b08a72c49f5ab60f2e0793fd0a8?pvs=4">
        <g>
          <g>
            <path class="cls-1" d="M84.234374999998181,58.37060546875c2.3046875,1.0966796875,4.314453125,2.5087890625,6.029296875,4.234375,1.71484375,1.728515625,3.1953125,3.6484375,4.447265625,5.7626953125,1.2490234375,2.1171875,2.2919921875,4.37890625,3.12890625,6.7890625s1.5302734375,4.8466796875,2.080078125,7.3095703125c1.208984375,4.8583984375,2.076171875,9.802734375,2.6015625,14.8330078125.5234375,5.0302734375.8466796875,10.107421875.970703125,15.2265625,0,1.4599609375-.01953125,2.6572265625-.05859375,3.591796875-.04296875.9365234375-.1982421875,1.7080078125-.46875,2.3125-.2724609375.60546875-.6845703125,1.1044921875-1.234375,1.4990234375-.552734375.39453125-1.3369140625.7783203125-2.3564453125,1.1533203125-.9755859375.1962890625-1.9970703125.365234375-3.0634765625.5107421875-1.068359375.1435546875-2.08984375-.064453125-3.068359375-.6259765625-.916015625-.5078125-1.720703125-1.435546875-2.412109375-2.7783203125s-1.171875-3.3173828125-1.44140625-5.9189453125l-.0703125-.869140625c-1.462890625-.0556640625-3.197265625-.060546875-5.205078125-.015625-2.0078125.046875-4.056640625.1396484375-6.14453125.279296875s-4.1015625.2880859375-6.0419921875.4453125c-1.94140625.1572265625-3.5771484375.2900390625-4.91015625.3984375-.0166015625.5263671875-.017578125,1.400390625-.005859375,2.625.0126953125,1.2236328125-.078125,2.4541015625-.2685546875,3.6943359375-.1923828125,1.2412109375-.494140625,2.3740234375-.90625,3.3974609375-.4130859375,1.0263671875-1.05078125,1.6005859375-1.916015625,1.7294921875-.806640625.1240234375-1.728515625.2568359375-2.765625.3994140625-1.0390625.140625-2.0625.109375-3.0703125-.1005859375-1.00390625-.15234375-1.8671875-.5498046875-2.587890625-1.1904296875-.724609375-.640625-1.17578125-1.7119140625-1.3544921875-3.2138671875-.1455078125-1.794921875-.283203125-3.85546875-.4130859375-6.1767578125-.130859375-2.3203125-.216796875-4.8505859375-.2646484375-7.587890625-.0673828125-2.26953125-.0791015625-4.76171875-.037109375-7.4755859375.0419921875-2.7158203125.1943359375-5.5107421875.4580078125-8.390625.26171875-2.876953125.6689453125-5.7685546875,1.220703125-8.6708984375.552734375-2.900390625,1.318359375-5.6748046875,2.2998046875-8.3203125.9814453125-2.64453125,2.1962890625-5.10546875,3.6455078125-7.3798828125,1.447265625-2.2734375,3.2421875-4.2275390625,5.384765625-5.8583984375,2.52734375-1.896484375,5.3857421875-2.9736328125,8.572265625-3.2314453125,3.185546875-.2587890625,6.26171875.2783203125,9.2265625,1.61328125ZM66.322265624998181,99.61962890625c3.626953125-.5849609375,7.244140625-1.09765625,10.853515625-1.53515625,3.607421875-.4375,7.2421875-.7470703125,10.90234375-.927734375-.16015625-4.1259765625-.6318359375-7.7900390625-1.416015625-10.9921875-.78515625-3.2021484375-1.73046875-5.880859375-2.837890625-8.037109375-1.1083984375-2.1533203125-2.34765625-3.7734375-3.7177734375-4.8583984375-1.3701171875-1.083984375-2.72265625-1.572265625-4.0537109375-1.46484375-1.16015625.09375-2.314453125.7861328125-3.462890625,2.0732421875-1.150390625,1.2900390625-2.1669921875,3.12109375-3.052734375,5.49609375-.8876953125,2.375-1.62890625,5.2783203125-2.224609375,8.7080078125-.59765625,3.4296875-.927734375,7.27734375-.990234375,11.5380859375Z"/>
            <path class="cls-1" d="M202.996093749998181,78.66259765625c2.708984375,1.7646484375,4.8037109375,4.0595703125,6.287109375,6.8818359375,1.4814453125,2.8251953125,2.1181640625,5.8203125,1.908203125,8.9853515625-.234375,3.576171875-1.384765625,6.6591796875-3.44921875,9.2451171875-2.064453125,2.5869140625-4.576171875,4.7001953125-7.533203125,6.3388671875-2.958984375,1.640625-6.19921875,2.8359375-9.724609375,3.587890625-3.525390625.7509765625-6.8662109375,1.0810546875-10.0224609375.986328125-.28125.138671875-.5361328125.232421875-.7646484375.28125-.2294921875.046875-.486328125.111328125-.771484375.193359375-1.0380859375.140625-2.111328125.2275390625-3.21484375.2607421875-1.10546875.0302734375-2.1201171875-.0771484375-3.04296875-.3232421875-.92578125-.244140625-1.734375-.703125-2.4296875-1.376953125-.697265625-.671875-1.15625-1.6689453125-1.380859375-2.9931640625-.16796875-.626953125-.30078125-1.9140625-.3994140625-3.859375-.1005859375-1.9453125-.2333984375-4.310546875-.3994140625-7.0966796875-.115234375-2.8466796875-.263671875-5.9404296875-.4453125-9.2783203125-.18359375-3.337890625-.3828125-6.689453125-.5966796875-10.0546875-.2998046875-4.40625-.6005859375-8.8427734375-.9033203125-13.3095703125-.3046875-4.46484375-.841796875-8.9404296875-1.6123046875-13.4267578125-.1591796875-.51171875-.138671875-.9794921875.0615234375-1.4033203125.0859375-.3583984375.3203125-.7109375.7001953125-1.0634765625.3798828125-.349609375.9697265625-.6171875,1.7724609375-.7998046875.57421875-.103515625,1.205078125-.2412109375,1.890625-.4150390625.685546875-.1728515625,1.40234375-.3173828125,2.150390625-.4365234375.748046875-.1181640625,1.47265625-.177734375,2.173828125-.17578125.69921875.001953125,1.31640625.0673828125,1.8515625.19921875,2.921875-.64453125,6.01953125-.91015625,9.294921875-.796875,3.275390625.115234375,6.392578125.6337890625,9.353515625,1.560546875,2.9619140625.9267578125,5.578125,2.2744140625,7.849609375,4.0439453125s3.869140625,4.015625,4.7890625,6.740234375c.3876953125,1.193359375.6650390625,2.453125.8310546875,3.78125.1650390625,1.3291015625.1328125,2.7158203125-.1005859375,4.162109375-.232421875,1.4482421875-.677734375,2.970703125-1.3349609375,4.568359375-.6572265625,1.599609375-1.5869140625,3.2646484375-2.7880859375,4.9931640625ZM179.988281249998181,75.36767578125c2.7890625-.109375,5.1123046875-.5908203125,6.9677734375-1.439453125,1.85546875-.8505859375,3.2158203125-1.8798828125,4.0791015625-3.0859375.865234375-1.20703125,1.228515625-2.4755859375,1.091796875-3.8056640625-.138671875-1.330078125-.740234375-2.4765625-1.8095703125-3.4404296875-1.0693359375-.962890625-2.611328125-1.638671875-4.6259765625-2.03125-2.013671875-.3896484375-4.51171875-.259765625-7.490234375.388671875.357421875,2.2451171875.66796875,4.4658203125.93359375,6.6591796875.265625,2.1962890625.548828125,4.4462890625.853515625,6.7548828125ZM182.290039062498181,100.54541015625c3.1572265625.0947265625,5.7802734375-.263671875,7.8720703125-1.07421875,2.0908203125-.8115234375,3.62890625-1.8095703125,4.611328125-2.9990234375.982421875-1.1865234375,1.435546875-2.4189453125,1.36328125-3.6962890625-.0751953125-1.2744140625-.6708984375-2.3359375-1.7890625-3.1787109375-1.1171875-.841796875-2.76171875-1.3349609375-4.9296875-1.48046875-2.169921875-.14453125-4.845703125.291015625-8.029296875,1.3056640625l.9013671875,11.123046875Z"/>
          </g>
          <g>
            <path class="cls-1" d="M84.234374999998181,58.37060546875c2.3046875,1.0966796875,4.314453125,2.5087890625,6.029296875,4.234375,1.71484375,1.728515625,3.1953125,3.6484375,4.447265625,5.7626953125,1.2490234375,2.1171875,2.2919921875,4.37890625,3.12890625,6.7890625s1.5302734375,4.8466796875,2.080078125,7.3095703125c1.208984375,4.8583984375,2.076171875,9.802734375,2.6015625,14.8330078125.5234375,5.0302734375.8466796875,10.107421875.970703125,15.2265625,0,1.4599609375-.01953125,2.6572265625-.05859375,3.591796875-.04296875.9365234375-.1982421875,1.7080078125-.46875,2.3125-.2724609375.60546875-.6845703125,1.1044921875-1.234375,1.4990234375-.552734375.39453125-1.3369140625.7783203125-2.3564453125,1.1533203125-.9755859375.1962890625-1.9970703125.365234375-3.0634765625.5107421875-1.068359375.1435546875-2.08984375-.064453125-3.068359375-.6259765625-.916015625-.5078125-1.720703125-1.435546875-2.412109375-2.7783203125s-1.171875-3.3173828125-1.44140625-5.9189453125l-.0703125-.869140625c-1.462890625-.0556640625-3.197265625-.060546875-5.205078125-.015625-2.0078125.046875-4.056640625.1396484375-6.14453125.279296875s-4.1015625.2880859375-6.0419921875.4453125c-1.94140625.1572265625-3.5771484375.2900390625-4.91015625.3984375-.0166015625.5263671875-.017578125,1.400390625-.005859375,2.625.0126953125,1.2236328125-.078125,2.4541015625-.2685546875,3.6943359375-.1923828125,1.2412109375-.494140625,2.3740234375-.90625,3.3974609375-.4130859375,1.0263671875-1.05078125,1.6005859375-1.916015625,1.7294921875-.806640625.1240234375-1.728515625.2568359375-2.765625.3994140625-1.0390625.140625-2.0625.109375-3.0703125-.1005859375-1.00390625-.15234375-1.8671875-.5498046875-2.587890625-1.1904296875-.724609375-.640625-1.17578125-1.7119140625-1.3544921875-3.2138671875-.1455078125-1.794921875-.283203125-3.85546875-.4130859375-6.1767578125-.130859375-2.3203125-.216796875-4.8505859375-.2646484375-7.587890625-.0673828125-2.26953125-.0791015625-4.76171875-.037109375-7.4755859375.0419921875-2.7158203125.1943359375-5.5107421875.4580078125-8.390625.26171875-2.876953125.6689453125-5.7685546875,1.220703125-8.6708984375.552734375-2.900390625,1.318359375-5.6748046875,2.2998046875-8.3203125.9814453125-2.64453125,2.1962890625-5.10546875,3.6455078125-7.3798828125,1.447265625-2.2734375,3.2421875-4.2275390625,5.384765625-5.8583984375,2.52734375-1.896484375,5.3857421875-2.9736328125,8.572265625-3.2314453125,3.185546875-.2587890625,6.26171875.2783203125,9.2265625,1.61328125ZM66.322265624998181,99.61962890625c3.626953125-.5849609375,7.244140625-1.09765625,10.853515625-1.53515625,3.607421875-.4375,7.2421875-.7470703125,10.90234375-.927734375-.16015625-4.1259765625-.6318359375-7.7900390625-1.416015625-10.9921875-.78515625-3.2021484375-1.73046875-5.880859375-2.837890625-8.037109375-1.1083984375-2.1533203125-2.34765625-3.7734375-3.7177734375-4.8583984375-1.3701171875-1.083984375-2.72265625-1.572265625-4.0537109375-1.46484375-1.16015625.09375-2.314453125.7861328125-3.462890625,2.0732421875-1.150390625,1.2900390625-2.1669921875,3.12109375-3.052734375,5.49609375-.8876953125,2.375-1.62890625,5.2783203125-2.224609375,8.7080078125-.59765625,3.4296875-.927734375,7.27734375-.990234375,11.5380859375Z"/>
            <path class="cls-1" d="M202.996093749998181,78.66259765625c2.708984375,1.7646484375,4.8037109375,4.0595703125,6.287109375,6.8818359375,1.4814453125,2.8251953125,2.1181640625,5.8203125,1.908203125,8.9853515625-.234375,3.576171875-1.384765625,6.6591796875-3.44921875,9.2451171875-2.064453125,2.5869140625-4.576171875,4.7001953125-7.533203125,6.3388671875-2.958984375,1.640625-6.19921875,2.8359375-9.724609375,3.587890625-3.525390625.7509765625-6.8662109375,1.0810546875-10.0224609375.986328125-.28125.138671875-.5361328125.232421875-.7646484375.28125-.2294921875.046875-.486328125.111328125-.771484375.193359375-1.0380859375.140625-2.111328125.2275390625-3.21484375.2607421875-1.10546875.0302734375-2.1201171875-.0771484375-3.04296875-.3232421875-.92578125-.244140625-1.734375-.703125-2.4296875-1.376953125-.697265625-.671875-1.15625-1.6689453125-1.380859375-2.9931640625-.16796875-.626953125-.30078125-1.9140625-.3994140625-3.859375-.1005859375-1.9453125-.2333984375-4.310546875-.3994140625-7.0966796875-.115234375-2.8466796875-.263671875-5.9404296875-.4453125-9.2783203125-.18359375-3.337890625-.3828125-6.689453125-.5966796875-10.0546875-.2998046875-4.40625-.6005859375-8.8427734375-.9033203125-13.3095703125-.3046875-4.46484375-.841796875-8.9404296875-1.6123046875-13.4267578125-.1591796875-.51171875-.138671875-.9794921875.0615234375-1.4033203125.0859375-.3583984375.3203125-.7109375.7001953125-1.0634765625.3798828125-.349609375.9697265625-.6171875,1.7724609375-.7998046875.57421875-.103515625,1.205078125-.2412109375,1.890625-.4150390625.685546875-.1728515625,1.40234375-.3173828125,2.150390625-.4365234375.748046875-.1181640625,1.47265625-.177734375,2.173828125-.17578125.69921875.001953125,1.31640625.0673828125,1.8515625.19921875,2.921875-.64453125,6.01953125-.91015625,9.294921875-.796875,3.275390625.115234375,6.392578125.6337890625,9.353515625,1.560546875,2.9619140625.9267578125,5.578125,2.2744140625,7.849609375,4.0439453125s3.869140625,4.015625,4.7890625,6.740234375c.3876953125,1.193359375.6650390625,2.453125.8310546875,3.78125.1650390625,1.3291015625.1328125,2.7158203125-.1005859375,4.162109375-.232421875,1.4482421875-.677734375,2.970703125-1.3349609375,4.568359375-.6572265625,1.599609375-1.5869140625,3.2646484375-2.7880859375,4.9931640625ZM179.988281249998181,75.36767578125c2.7890625-.109375,5.1123046875-.5908203125,6.9677734375-1.439453125,1.85546875-.8505859375,3.2158203125-1.8798828125,4.0791015625-3.0859375.865234375-1.20703125,1.228515625-2.4755859375,1.091796875-3.8056640625-.138671875-1.330078125-.740234375-2.4765625-1.8095703125-3.4404296875-1.0693359375-.962890625-2.611328125-1.638671875-4.6259765625-2.03125-2.013671875-.3896484375-4.51171875-.259765625-7.490234375.388671875.357421875,2.2451171875.66796875,4.4658203125.93359375,6.6591796875.265625,2.1962890625.548828125,4.4462890625.853515625,6.7548828125ZM182.290039062498181,100.54541015625c3.1572265625.0947265625,5.7802734375-.263671875,7.8720703125-1.07421875,2.0908203125-.8115234375,3.62890625-1.8095703125,4.611328125-2.9990234375.982421875-1.1865234375,1.435546875-2.4189453125,1.36328125-3.6962890625-.0751953125-1.2744140625-.6708984375-2.3359375-1.7890625-3.1787109375-1.1171875-.841796875-2.76171875-1.3349609375-4.9296875-1.48046875-2.169921875-.14453125-4.845703125.291015625-8.029296875,1.3056640625l.9013671875,11.123046875Z"/>
          </g>
          <g>
            <path class="cls-1" d="M84.234374999998181,58.37060546875c2.3046875,1.0966796875,4.314453125,2.5087890625,6.029296875,4.234375,1.71484375,1.728515625,3.1953125,3.6484375,4.447265625,5.7626953125,1.2490234375,2.1171875,2.2919921875,4.37890625,3.12890625,6.7890625s1.5302734375,4.8466796875,2.080078125,7.3095703125c1.208984375,4.8583984375,2.076171875,9.802734375,2.6015625,14.8330078125.5234375,5.0302734375.8466796875,10.107421875.970703125,15.2265625,0,1.4599609375-.01953125,2.6572265625-.05859375,3.591796875-.04296875.9365234375-.1982421875,1.7080078125-.46875,2.3125-.2724609375.60546875-.6845703125,1.1044921875-1.234375,1.4990234375-.552734375.39453125-1.3369140625.7783203125-2.3564453125,1.1533203125-.9755859375.1962890625-1.9970703125.365234375-3.0634765625.5107421875-1.068359375.1435546875-2.08984375-.064453125-3.068359375-.6259765625-.916015625-.5078125-1.720703125-1.435546875-2.412109375-2.7783203125s-1.171875-3.3173828125-1.44140625-5.9189453125l-.0703125-.869140625c-1.462890625-.0556640625-3.197265625-.060546875-5.205078125-.015625-2.0078125.046875-4.056640625.1396484375-6.14453125.279296875s-4.1015625.2880859375-6.0419921875.4453125c-1.94140625.1572265625-3.5771484375.2900390625-4.91015625.3984375-.0166015625.5263671875-.017578125,1.400390625-.005859375,2.625.0126953125,1.2236328125-.078125,2.4541015625-.2685546875,3.6943359375-.1923828125,1.2412109375-.494140625,2.3740234375-.90625,3.3974609375-.4130859375,1.0263671875-1.05078125,1.6005859375-1.916015625,1.7294921875-.806640625.1240234375-1.728515625.2568359375-2.765625.3994140625-1.0390625.140625-2.0625.109375-3.0703125-.1005859375-1.00390625-.15234375-1.8671875-.5498046875-2.587890625-1.1904296875-.724609375-.640625-1.17578125-1.7119140625-1.3544921875-3.2138671875-.1455078125-1.794921875-.283203125-3.85546875-.4130859375-6.1767578125-.130859375-2.3203125-.216796875-4.8505859375-.2646484375-7.587890625-.0673828125-2.26953125-.0791015625-4.76171875-.037109375-7.4755859375.0419921875-2.7158203125.1943359375-5.5107421875.4580078125-8.390625.26171875-2.876953125.6689453125-5.7685546875,1.220703125-8.6708984375.552734375-2.900390625,1.318359375-5.6748046875,2.2998046875-8.3203125.9814453125-2.64453125,2.1962890625-5.10546875,3.6455078125-7.3798828125,1.447265625-2.2734375,3.2421875-4.2275390625,5.384765625-5.8583984375,2.52734375-1.896484375,5.3857421875-2.9736328125,8.572265625-3.2314453125,3.185546875-.2587890625,6.26171875.2783203125,9.2265625,1.61328125ZM66.322265624998181,99.61962890625c3.626953125-.5849609375,7.244140625-1.09765625,10.853515625-1.53515625,3.607421875-.4375,7.2421875-.7470703125,10.90234375-.927734375-.16015625-4.1259765625-.6318359375-7.7900390625-1.416015625-10.9921875-.78515625-3.2021484375-1.73046875-5.880859375-2.837890625-8.037109375-1.1083984375-2.1533203125-2.34765625-3.7734375-3.7177734375-4.8583984375-1.3701171875-1.083984375-2.72265625-1.572265625-4.0537109375-1.46484375-1.16015625.09375-2.314453125.7861328125-3.462890625,2.0732421875-1.150390625,1.2900390625-2.1669921875,3.12109375-3.052734375,5.49609375-.8876953125,2.375-1.62890625,5.2783203125-2.224609375,8.7080078125-.59765625,3.4296875-.927734375,7.27734375-.990234375,11.5380859375Z"/>
            <path class="cls-1" d="M202.996093749998181,78.66259765625c2.708984375,1.7646484375,4.8037109375,4.0595703125,6.287109375,6.8818359375,1.4814453125,2.8251953125,2.1181640625,5.8203125,1.908203125,8.9853515625-.234375,3.576171875-1.384765625,6.6591796875-3.44921875,9.2451171875-2.064453125,2.5869140625-4.576171875,4.7001953125-7.533203125,6.3388671875-2.958984375,1.640625-6.19921875,2.8359375-9.724609375,3.587890625-3.525390625.7509765625-6.8662109375,1.0810546875-10.0224609375.986328125-.28125.138671875-.5361328125.232421875-.7646484375.28125-.2294921875.046875-.486328125.111328125-.771484375.193359375-1.0380859375.140625-2.111328125.2275390625-3.21484375.2607421875-1.10546875.0302734375-2.1201171875-.0771484375-3.04296875-.3232421875-.92578125-.244140625-1.734375-.703125-2.4296875-1.376953125-.697265625-.671875-1.15625-1.6689453125-1.380859375-2.9931640625-.16796875-.626953125-.30078125-1.9140625-.3994140625-3.859375-.1005859375-1.9453125-.2333984375-4.310546875-.3994140625-7.0966796875-.115234375-2.8466796875-.263671875-5.9404296875-.4453125-9.2783203125-.18359375-3.337890625-.3828125-6.689453125-.5966796875-10.0546875-.2998046875-4.40625-.6005859375-8.8427734375-.9033203125-13.3095703125-.3046875-4.46484375-.841796875-8.9404296875-1.6123046875-13.4267578125-.1591796875-.51171875-.138671875-.9794921875.0615234375-1.4033203125.0859375-.3583984375.3203125-.7109375.7001953125-1.0634765625.3798828125-.349609375.9697265625-.6171875,1.7724609375-.7998046875.57421875-.103515625,1.205078125-.2412109375,1.890625-.4150390625.685546875-.1728515625,1.40234375-.3173828125,2.150390625-.4365234375.748046875-.1181640625,1.47265625-.177734375,2.173828125-.17578125.69921875.001953125,1.31640625.0673828125,1.8515625.19921875,2.921875-.64453125,6.01953125-.91015625,9.294921875-.796875,3.275390625.115234375,6.392578125.6337890625,9.353515625,1.560546875,2.9619140625.9267578125,5.578125,2.2744140625,7.849609375,4.0439453125s3.869140625,4.015625,4.7890625,6.740234375c.3876953125,1.193359375.6650390625,2.453125.8310546875,3.78125.1650390625,1.3291015625.1328125,2.7158203125-.1005859375,4.162109375-.232421875,1.4482421875-.677734375,2.970703125-1.3349609375,4.568359375-.6572265625,1.599609375-1.5869140625,3.2646484375-2.7880859375,4.9931640625ZM179.988281249998181,75.36767578125c2.7890625-.109375,5.1123046875-.5908203125,6.9677734375-1.439453125,1.85546875-.8505859375,3.2158203125-1.8798828125,4.0791015625-3.0859375.865234375-1.20703125,1.228515625-2.4755859375,1.091796875-3.8056640625-.138671875-1.330078125-.740234375-2.4765625-1.8095703125-3.4404296875-1.0693359375-.962890625-2.611328125-1.638671875-4.6259765625-2.03125-2.013671875-.3896484375-4.51171875-.259765625-7.490234375.388671875.357421875,2.2451171875.66796875,4.4658203125.93359375,6.6591796875.265625,2.1962890625.548828125,4.4462890625.853515625,6.7548828125ZM182.290039062498181,100.54541015625c3.1572265625.0947265625,5.7802734375-.263671875,7.8720703125-1.07421875,2.0908203125-.8115234375,3.62890625-1.8095703125,4.611328125-2.9990234375.982421875-1.1865234375,1.435546875-2.4189453125,1.36328125-3.6962890625-.0751953125-1.2744140625-.6708984375-2.3359375-1.7890625-3.1787109375-1.1171875-.841796875-2.76171875-1.3349609375-4.9296875-1.48046875-2.169921875-.14453125-4.845703125.291015625-8.029296875,1.3056640625l.9013671875,11.123046875Z"/>
          </g>
        </g>
      </a>
      <a xlink:href="https://www.notion.so/congruence/B-Event-1f1a5b08a72c49f5ab60f2e0793fd0a8?pvs=4">
        <g>
          <g>
            <path class="cls-2" d="M84.234374999998181,58.37060546875c2.3046875,1.0966796875,4.314453125,2.5087890625,6.029296875,4.234375,1.71484375,1.728515625,3.1953125,3.6484375,4.447265625,5.7626953125,1.2490234375,2.1171875,2.2919921875,4.37890625,3.12890625,6.7890625s1.5302734375,4.8466796875,2.080078125,7.3095703125c1.208984375,4.8583984375,2.076171875,9.802734375,2.6015625,14.8330078125.5234375,5.0302734375.8466796875,10.107421875.970703125,15.2265625,0,1.4599609375-.01953125,2.6572265625-.05859375,3.591796875-.04296875.9365234375-.1982421875,1.7080078125-.46875,2.3125-.2724609375.60546875-.6845703125,1.1044921875-1.234375,1.4990234375-.552734375.39453125-1.3369140625.7783203125-2.3564453125,1.1533203125-.9755859375.1962890625-1.9970703125.365234375-3.0634765625.5107421875-1.068359375.1435546875-2.08984375-.064453125-3.068359375-.6259765625-.916015625-.5078125-1.720703125-1.435546875-2.412109375-2.7783203125s-1.171875-3.3173828125-1.44140625-5.9189453125l-.0703125-.869140625c-1.462890625-.0556640625-3.197265625-.060546875-5.205078125-.015625-2.0078125.046875-4.056640625.1396484375-6.14453125.279296875s-4.1015625.2880859375-6.0419921875.4453125c-1.94140625.1572265625-3.5771484375.2900390625-4.91015625.3984375-.0166015625.5263671875-.017578125,1.400390625-.005859375,2.625.0126953125,1.2236328125-.078125,2.4541015625-.2685546875,3.6943359375-.1923828125,1.2412109375-.494140625,2.3740234375-.90625,3.3974609375-.4130859375,1.0263671875-1.05078125,1.6005859375-1.916015625,1.7294921875-.806640625.1240234375-1.728515625.2568359375-2.765625.3994140625-1.0390625.140625-2.0625.109375-3.0703125-.1005859375-1.00390625-.15234375-1.8671875-.5498046875-2.587890625-1.1904296875-.724609375-.640625-1.17578125-1.7119140625-1.3544921875-3.2138671875-.1455078125-1.794921875-.283203125-3.85546875-.4130859375-6.1767578125-.130859375-2.3203125-.216796875-4.8505859375-.2646484375-7.587890625-.0673828125-2.26953125-.0791015625-4.76171875-.037109375-7.4755859375.0419921875-2.7158203125.1943359375-5.5107421875.4580078125-8.390625.26171875-2.876953125.6689453125-5.7685546875,1.220703125-8.6708984375.552734375-2.900390625,1.318359375-5.6748046875,2.2998046875-8.3203125.9814453125-2.64453125,2.1962890625-5.10546875,3.6455078125-7.3798828125,1.447265625-2.2734375,3.2421875-4.2275390625,5.384765625-5.8583984375,2.52734375-1.896484375,5.3857421875-2.9736328125,8.572265625-3.2314453125,3.185546875-.2587890625,6.26171875.2783203125,9.2265625,1.61328125ZM66.322265624998181,99.61962890625c3.626953125-.5849609375,7.244140625-1.09765625,10.853515625-1.53515625,3.607421875-.4375,7.2421875-.7470703125,10.90234375-.927734375-.16015625-4.1259765625-.6318359375-7.7900390625-1.416015625-10.9921875-.78515625-3.2021484375-1.73046875-5.880859375-2.837890625-8.037109375-1.1083984375-2.1533203125-2.34765625-3.7734375-3.7177734375-4.8583984375-1.3701171875-1.083984375-2.72265625-1.572265625-4.0537109375-1.46484375-1.16015625.09375-2.314453125.7861328125-3.462890625,2.0732421875-1.150390625,1.2900390625-2.1669921875,3.12109375-3.052734375,5.49609375-.8876953125,2.375-1.62890625,5.2783203125-2.224609375,8.7080078125-.59765625,3.4296875-.927734375,7.27734375-.990234375,11.5380859375Z"/>
            <path class="cls-2" d="M202.996093749998181,78.66259765625c2.708984375,1.7646484375,4.8037109375,4.0595703125,6.287109375,6.8818359375,1.4814453125,2.8251953125,2.1181640625,5.8203125,1.908203125,8.9853515625-.234375,3.576171875-1.384765625,6.6591796875-3.44921875,9.2451171875-2.064453125,2.5869140625-4.576171875,4.7001953125-7.533203125,6.3388671875-2.958984375,1.640625-6.19921875,2.8359375-9.724609375,3.587890625-3.525390625.7509765625-6.8662109375,1.0810546875-10.0224609375.986328125-.28125.138671875-.5361328125.232421875-.7646484375.28125-.2294921875.046875-.486328125.111328125-.771484375.193359375-1.0380859375.140625-2.111328125.2275390625-3.21484375.2607421875-1.10546875.0302734375-2.1201171875-.0771484375-3.04296875-.3232421875-.92578125-.244140625-1.734375-.703125-2.4296875-1.376953125-.697265625-.671875-1.15625-1.6689453125-1.380859375-2.9931640625-.16796875-.626953125-.30078125-1.9140625-.3994140625-3.859375-.1005859375-1.9453125-.2333984375-4.310546875-.3994140625-7.0966796875-.115234375-2.8466796875-.263671875-5.9404296875-.4453125-9.2783203125-.18359375-3.337890625-.3828125-6.689453125-.5966796875-10.0546875-.2998046875-4.40625-.6005859375-8.8427734375-.9033203125-13.3095703125-.3046875-4.46484375-.841796875-8.9404296875-1.6123046875-13.4267578125-.1591796875-.51171875-.138671875-.9794921875.0615234375-1.4033203125.0859375-.3583984375.3203125-.7109375.7001953125-1.0634765625.3798828125-.349609375.9697265625-.6171875,1.7724609375-.7998046875.57421875-.103515625,1.205078125-.2412109375,1.890625-.4150390625.685546875-.1728515625,1.40234375-.3173828125,2.150390625-.4365234375.748046875-.1181640625,1.47265625-.177734375,2.173828125-.17578125.69921875.001953125,1.31640625.0673828125,1.8515625.19921875,2.921875-.64453125,6.01953125-.91015625,9.294921875-.796875,3.275390625.115234375,6.392578125.6337890625,9.353515625,1.560546875,2.9619140625.9267578125,5.578125,2.2744140625,7.849609375,4.0439453125s3.869140625,4.015625,4.7890625,6.740234375c.3876953125,1.193359375.6650390625,2.453125.8310546875,3.78125.1650390625,1.3291015625.1328125,2.7158203125-.1005859375,4.162109375-.232421875,1.4482421875-.677734375,2.970703125-1.3349609375,4.568359375-.6572265625,1.599609375-1.5869140625,3.2646484375-2.7880859375,4.9931640625ZM179.988281249998181,75.36767578125c2.7890625-.109375,5.1123046875-.5908203125,6.9677734375-1.439453125,1.85546875-.8505859375,3.2158203125-1.8798828125,4.0791015625-3.0859375.865234375-1.20703125,1.228515625-2.4755859375,1.091796875-3.8056640625-.138671875-1.330078125-.740234375-2.4765625-1.8095703125-3.4404296875-1.0693359375-.962890625-2.611328125-1.638671875-4.6259765625-2.03125-2.013671875-.3896484375-4.51171875-.259765625-7.490234375.388671875.357421875,2.2451171875.66796875,4.4658203125.93359375,6.6591796875.265625,2.1962890625.548828125,4.4462890625.853515625,6.7548828125ZM182.290039062498181,100.54541015625c3.1572265625.0947265625,5.7802734375-.263671875,7.8720703125-1.07421875,2.0908203125-.8115234375,3.62890625-1.8095703125,4.611328125-2.9990234375.982421875-1.1865234375,1.435546875-2.4189453125,1.36328125-3.6962890625-.0751953125-1.2744140625-.6708984375-2.3359375-1.7890625-3.1787109375-1.1171875-.841796875-2.76171875-1.3349609375-4.9296875-1.48046875-2.169921875-.14453125-4.845703125.291015625-8.029296875,1.3056640625l.9013671875,11.123046875Z"/>
          </g>
          <g>
            <path class="cls-2" d="M84.234374999998181,58.37060546875c2.3046875,1.0966796875,4.314453125,2.5087890625,6.029296875,4.234375,1.71484375,1.728515625,3.1953125,3.6484375,4.447265625,5.7626953125,1.2490234375,2.1171875,2.2919921875,4.37890625,3.12890625,6.7890625s1.5302734375,4.8466796875,2.080078125,7.3095703125c1.208984375,4.8583984375,2.076171875,9.802734375,2.6015625,14.8330078125.5234375,5.0302734375.8466796875,10.107421875.970703125,15.2265625,0,1.4599609375-.01953125,2.6572265625-.05859375,3.591796875-.04296875.9365234375-.1982421875,1.7080078125-.46875,2.3125-.2724609375.60546875-.6845703125,1.1044921875-1.234375,1.4990234375-.552734375.39453125-1.3369140625.7783203125-2.3564453125,1.1533203125-.9755859375.1962890625-1.9970703125.365234375-3.0634765625.5107421875-1.068359375.1435546875-2.08984375-.064453125-3.068359375-.6259765625-.916015625-.5078125-1.720703125-1.435546875-2.412109375-2.7783203125s-1.171875-3.3173828125-1.44140625-5.9189453125l-.0703125-.869140625c-1.462890625-.0556640625-3.197265625-.060546875-5.205078125-.015625-2.0078125.046875-4.056640625.1396484375-6.14453125.279296875s-4.1015625.2880859375-6.0419921875.4453125c-1.94140625.1572265625-3.5771484375.2900390625-4.91015625.3984375-.0166015625.5263671875-.017578125,1.400390625-.005859375,2.625.0126953125,1.2236328125-.078125,2.4541015625-.2685546875,3.6943359375-.1923828125,1.2412109375-.494140625,2.3740234375-.90625,3.3974609375-.4130859375,1.0263671875-1.05078125,1.6005859375-1.916015625,1.7294921875-.806640625.1240234375-1.728515625.2568359375-2.765625.3994140625-1.0390625.140625-2.0625.109375-3.0703125-.1005859375-1.00390625-.15234375-1.8671875-.5498046875-2.587890625-1.1904296875-.724609375-.640625-1.17578125-1.7119140625-1.3544921875-3.2138671875-.1455078125-1.794921875-.283203125-3.85546875-.4130859375-6.1767578125-.130859375-2.3203125-.216796875-4.8505859375-.2646484375-7.587890625-.0673828125-2.26953125-.0791015625-4.76171875-.037109375-7.4755859375.0419921875-2.7158203125.1943359375-5.5107421875.4580078125-8.390625.26171875-2.876953125.6689453125-5.7685546875,1.220703125-8.6708984375.552734375-2.900390625,1.318359375-5.6748046875,2.2998046875-8.3203125.9814453125-2.64453125,2.1962890625-5.10546875,3.6455078125-7.3798828125,1.447265625-2.2734375,3.2421875-4.2275390625,5.384765625-5.8583984375,2.52734375-1.896484375,5.3857421875-2.9736328125,8.572265625-3.2314453125,3.185546875-.2587890625,6.26171875.2783203125,9.2265625,1.61328125ZM66.322265624998181,99.61962890625c3.626953125-.5849609375,7.244140625-1.09765625,10.853515625-1.53515625,3.607421875-.4375,7.2421875-.7470703125,10.90234375-.927734375-.16015625-4.1259765625-.6318359375-7.7900390625-1.416015625-10.9921875-.78515625-3.2021484375-1.73046875-5.880859375-2.837890625-8.037109375-1.1083984375-2.1533203125-2.34765625-3.7734375-3.7177734375-4.8583984375-1.3701171875-1.083984375-2.72265625-1.572265625-4.0537109375-1.46484375-1.16015625.09375-2.314453125.7861328125-3.462890625,2.0732421875-1.150390625,1.2900390625-2.1669921875,3.12109375-3.052734375,5.49609375-.8876953125,2.375-1.62890625,5.2783203125-2.224609375,8.7080078125-.59765625,3.4296875-.927734375,7.27734375-.990234375,11.5380859375Z"/>
            <path class="cls-2" d="M202.996093749998181,78.66259765625c2.708984375,1.7646484375,4.8037109375,4.0595703125,6.287109375,6.8818359375,1.4814453125,2.8251953125,2.1181640625,5.8203125,1.908203125,8.9853515625-.234375,3.576171875-1.384765625,6.6591796875-3.44921875,9.2451171875-2.064453125,2.5869140625-4.576171875,4.7001953125-7.533203125,6.3388671875-2.958984375,1.640625-6.19921875,2.8359375-9.724609375,3.587890625-3.525390625.7509765625-6.8662109375,1.0810546875-10.0224609375.986328125-.28125.138671875-.5361328125.232421875-.7646484375.28125-.2294921875.046875-.486328125.111328125-.771484375.193359375-1.0380859375.140625-2.111328125.2275390625-3.21484375.2607421875-1.10546875.0302734375-2.1201171875-.0771484375-3.04296875-.3232421875-.92578125-.244140625-1.734375-.703125-2.4296875-1.376953125-.697265625-.671875-1.15625-1.6689453125-1.380859375-2.9931640625-.16796875-.626953125-.30078125-1.9140625-.3994140625-3.859375-.1005859375-1.9453125-.2333984375-4.310546875-.3994140625-7.0966796875-.115234375-2.8466796875-.263671875-5.9404296875-.4453125-9.2783203125-.18359375-3.337890625-.3828125-6.689453125-.5966796875-10.0546875-.2998046875-4.40625-.6005859375-8.8427734375-.9033203125-13.3095703125-.3046875-4.46484375-.841796875-8.9404296875-1.6123046875-13.4267578125-.1591796875-.51171875-.138671875-.9794921875.0615234375-1.4033203125.0859375-.3583984375.3203125-.7109375.7001953125-1.0634765625.3798828125-.349609375.9697265625-.6171875,1.7724609375-.7998046875.57421875-.103515625,1.205078125-.2412109375,1.890625-.4150390625.685546875-.1728515625,1.40234375-.3173828125,2.150390625-.4365234375.748046875-.1181640625,1.47265625-.177734375,2.173828125-.17578125.69921875.001953125,1.31640625.0673828125,1.8515625.19921875,2.921875-.64453125,6.01953125-.91015625,9.294921875-.796875,3.275390625.115234375,6.392578125.6337890625,9.353515625,1.560546875,2.9619140625.9267578125,5.578125,2.2744140625,7.849609375,4.0439453125s3.869140625,4.015625,4.7890625,6.740234375c.3876953125,1.193359375.6650390625,2.453125.8310546875,3.78125.1650390625,1.3291015625.1328125,2.7158203125-.1005859375,4.162109375-.232421875,1.4482421875-.677734375,2.970703125-1.3349609375,4.568359375-.6572265625,1.599609375-1.5869140625,3.2646484375-2.7880859375,4.9931640625ZM179.988281249998181,75.36767578125c2.7890625-.109375,5.1123046875-.5908203125,6.9677734375-1.439453125,1.85546875-.8505859375,3.2158203125-1.8798828125,4.0791015625-3.0859375.865234375-1.20703125,1.228515625-2.4755859375,1.091796875-3.8056640625-.138671875-1.330078125-.740234375-2.4765625-1.8095703125-3.4404296875-1.0693359375-.962890625-2.611328125-1.638671875-4.6259765625-2.03125-2.013671875-.3896484375-4.51171875-.259765625-7.490234375.388671875.357421875,2.2451171875.66796875,4.4658203125.93359375,6.6591796875.265625,2.1962890625.548828125,4.4462890625.853515625,6.7548828125ZM182.290039062498181,100.54541015625c3.1572265625.0947265625,5.7802734375-.263671875,7.8720703125-1.07421875,2.0908203125-.8115234375,3.62890625-1.8095703125,4.611328125-2.9990234375.982421875-1.1865234375,1.435546875-2.4189453125,1.36328125-3.6962890625-.0751953125-1.2744140625-.6708984375-2.3359375-1.7890625-3.1787109375-1.1171875-.841796875-2.76171875-1.3349609375-4.9296875-1.48046875-2.169921875-.14453125-4.845703125.291015625-8.029296875,1.3056640625l.9013671875,11.123046875Z"/>
          </g>
          <g>
            <path class="cls-2" d="M84.234374999998181,58.37060546875c2.3046875,1.0966796875,4.314453125,2.5087890625,6.029296875,4.234375,1.71484375,1.728515625,3.1953125,3.6484375,4.447265625,5.7626953125,1.2490234375,2.1171875,2.2919921875,4.37890625,3.12890625,6.7890625s1.5302734375,4.8466796875,2.080078125,7.3095703125c1.208984375,4.8583984375,2.076171875,9.802734375,2.6015625,14.8330078125.5234375,5.0302734375.8466796875,10.107421875.970703125,15.2265625,0,1.4599609375-.01953125,2.6572265625-.05859375,3.591796875-.04296875.9365234375-.1982421875,1.7080078125-.46875,2.3125-.2724609375.60546875-.6845703125,1.1044921875-1.234375,1.4990234375-.552734375.39453125-1.3369140625.7783203125-2.3564453125,1.1533203125-.9755859375.1962890625-1.9970703125.365234375-3.0634765625.5107421875-1.068359375.1435546875-2.08984375-.064453125-3.068359375-.6259765625-.916015625-.5078125-1.720703125-1.435546875-2.412109375-2.7783203125s-1.171875-3.3173828125-1.44140625-5.9189453125l-.0703125-.869140625c-1.462890625-.0556640625-3.197265625-.060546875-5.205078125-.015625-2.0078125.046875-4.056640625.1396484375-6.14453125.279296875s-4.1015625.2880859375-6.0419921875.4453125c-1.94140625.1572265625-3.5771484375.2900390625-4.91015625.3984375-.0166015625.5263671875-.017578125,1.400390625-.005859375,2.625.0126953125,1.2236328125-.078125,2.4541015625-.2685546875,3.6943359375-.1923828125,1.2412109375-.494140625,2.3740234375-.90625,3.3974609375-.4130859375,1.0263671875-1.05078125,1.6005859375-1.916015625,1.7294921875-.806640625.1240234375-1.728515625.2568359375-2.765625.3994140625-1.0390625.140625-2.0625.109375-3.0703125-.1005859375-1.00390625-.15234375-1.8671875-.5498046875-2.587890625-1.1904296875-.724609375-.640625-1.17578125-1.7119140625-1.3544921875-3.2138671875-.1455078125-1.794921875-.283203125-3.85546875-.4130859375-6.1767578125-.130859375-2.3203125-.216796875-4.8505859375-.2646484375-7.587890625-.0673828125-2.26953125-.0791015625-4.76171875-.037109375-7.4755859375.0419921875-2.7158203125.1943359375-5.5107421875.4580078125-8.390625.26171875-2.876953125.6689453125-5.7685546875,1.220703125-8.6708984375.552734375-2.900390625,1.318359375-5.6748046875,2.2998046875-8.3203125.9814453125-2.64453125,2.1962890625-5.10546875,3.6455078125-7.3798828125,1.447265625-2.2734375,3.2421875-4.2275390625,5.384765625-5.8583984375,2.52734375-1.896484375,5.3857421875-2.9736328125,8.572265625-3.2314453125,3.185546875-.2587890625,6.26171875.2783203125,9.2265625,1.61328125ZM66.322265624998181,99.61962890625c3.626953125-.5849609375,7.244140625-1.09765625,10.853515625-1.53515625,3.607421875-.4375,7.2421875-.7470703125,10.90234375-.927734375-.16015625-4.1259765625-.6318359375-7.7900390625-1.416015625-10.9921875-.78515625-3.2021484375-1.73046875-5.880859375-2.837890625-8.037109375-1.1083984375-2.1533203125-2.34765625-3.7734375-3.7177734375-4.8583984375-1.3701171875-1.083984375-2.72265625-1.572265625-4.0537109375-1.46484375-1.16015625.09375-2.314453125.7861328125-3.462890625,2.0732421875-1.150390625,1.2900390625-2.1669921875,3.12109375-3.052734375,5.49609375-.8876953125,2.375-1.62890625,5.2783203125-2.224609375,8.7080078125-.59765625,3.4296875-.927734375,7.27734375-.990234375,11.5380859375Z"/>
            <path class="cls-2" d="M202.996093749998181,78.66259765625c2.708984375,1.7646484375,4.8037109375,4.0595703125,6.287109375,6.8818359375,1.4814453125,2.8251953125,2.1181640625,5.8203125,1.908203125,8.9853515625-.234375,3.576171875-1.384765625,6.6591796875-3.44921875,9.2451171875-2.064453125,2.5869140625-4.576171875,4.7001953125-7.533203125,6.3388671875-2.958984375,1.640625-6.19921875,2.8359375-9.724609375,3.587890625-3.525390625.7509765625-6.8662109375,1.0810546875-10.0224609375.986328125-.28125.138671875-.5361328125.232421875-.7646484375.28125-.2294921875.046875-.486328125.111328125-.771484375.193359375-1.0380859375.140625-2.111328125.2275390625-3.21484375.2607421875-1.10546875.0302734375-2.1201171875-.0771484375-3.04296875-.3232421875-.92578125-.244140625-1.734375-.703125-2.4296875-1.376953125-.697265625-.671875-1.15625-1.6689453125-1.380859375-2.9931640625-.16796875-.626953125-.30078125-1.9140625-.3994140625-3.859375-.1005859375-1.9453125-.2333984375-4.310546875-.3994140625-7.0966796875-.115234375-2.8466796875-.263671875-5.9404296875-.4453125-9.2783203125-.18359375-3.337890625-.3828125-6.689453125-.5966796875-10.0546875-.2998046875-4.40625-.6005859375-8.8427734375-.9033203125-13.3095703125-.3046875-4.46484375-.841796875-8.9404296875-1.6123046875-13.4267578125-.1591796875-.51171875-.138671875-.9794921875.0615234375-1.4033203125.0859375-.3583984375.3203125-.7109375.7001953125-1.0634765625.3798828125-.349609375.9697265625-.6171875,1.7724609375-.7998046875.57421875-.103515625,1.205078125-.2412109375,1.890625-.4150390625.685546875-.1728515625,1.40234375-.3173828125,2.150390625-.4365234375.748046875-.1181640625,1.47265625-.177734375,2.173828125-.17578125.69921875.001953125,1.31640625.0673828125,1.8515625.19921875,2.921875-.64453125,6.01953125-.91015625,9.294921875-.796875,3.275390625.115234375,6.392578125.6337890625,9.353515625,1.560546875,2.9619140625.9267578125,5.578125,2.2744140625,7.849609375,4.0439453125s3.869140625,4.015625,4.7890625,6.740234375c.3876953125,1.193359375.6650390625,2.453125.8310546875,3.78125.1650390625,1.3291015625.1328125,2.7158203125-.1005859375,4.162109375-.232421875,1.4482421875-.677734375,2.970703125-1.3349609375,4.568359375-.6572265625,1.599609375-1.5869140625,3.2646484375-2.7880859375,4.9931640625ZM179.988281249998181,75.36767578125c2.7890625-.109375,5.1123046875-.5908203125,6.9677734375-1.439453125,1.85546875-.8505859375,3.2158203125-1.8798828125,4.0791015625-3.0859375.865234375-1.20703125,1.228515625-2.4755859375,1.091796875-3.8056640625-.138671875-1.330078125-.740234375-2.4765625-1.8095703125-3.4404296875-1.0693359375-.962890625-2.611328125-1.638671875-4.6259765625-2.03125-2.013671875-.3896484375-4.51171875-.259765625-7.490234375.388671875.357421875,2.2451171875.66796875,4.4658203125.93359375,6.6591796875.265625,2.1962890625.548828125,4.4462890625.853515625,6.7548828125ZM182.290039062498181,100.54541015625c3.1572265625.0947265625,5.7802734375-.263671875,7.8720703125-1.07421875,2.0908203125-.8115234375,3.62890625-1.8095703125,4.611328125-2.9990234375.982421875-1.1865234375,1.435546875-2.4189453125,1.36328125-3.6962890625-.0751953125-1.2744140625-.6708984375-2.3359375-1.7890625-3.1787109375-1.1171875-.841796875-2.76171875-1.3349609375-4.9296875-1.48046875-2.169921875-.14453125-4.845703125.291015625-8.029296875,1.3056640625l.9013671875,11.123046875Z"/>
          </g>
        </g>
      </a>
      <a xlink:href="https://www.notion.so/congruence/B-Event-1f1a5b08a72c49f5ab60f2e0793fd0a8?pvs=4">
        <g>
          <g>
            <path class="cls-3" d="M84.234374999998181,58.37060546875c2.3046875,1.0966796875,4.314453125,2.5087890625,6.029296875,4.234375,1.71484375,1.728515625,3.1953125,3.6484375,4.447265625,5.7626953125,1.2490234375,2.1171875,2.2919921875,4.37890625,3.12890625,6.7890625s1.5302734375,4.8466796875,2.080078125,7.3095703125c1.208984375,4.8583984375,2.076171875,9.802734375,2.6015625,14.8330078125.5234375,5.0302734375.8466796875,10.107421875.970703125,15.2265625,0,1.4599609375-.01953125,2.6572265625-.05859375,3.591796875-.04296875.9365234375-.1982421875,1.7080078125-.46875,2.3125-.2724609375.60546875-.6845703125,1.1044921875-1.234375,1.4990234375-.552734375.39453125-1.3369140625.7783203125-2.3564453125,1.1533203125-.9755859375.1962890625-1.9970703125.365234375-3.0634765625.5107421875-1.068359375.1435546875-2.08984375-.064453125-3.068359375-.6259765625-.916015625-.5078125-1.720703125-1.435546875-2.412109375-2.7783203125s-1.171875-3.3173828125-1.44140625-5.9189453125l-.0703125-.869140625c-1.462890625-.0556640625-3.197265625-.060546875-5.205078125-.015625-2.0078125.046875-4.056640625.1396484375-6.14453125.279296875s-4.1015625.2880859375-6.0419921875.4453125c-1.94140625.1572265625-3.5771484375.2900390625-4.91015625.3984375-.0166015625.5263671875-.017578125,1.400390625-.005859375,2.625.0126953125,1.2236328125-.078125,2.4541015625-.2685546875,3.6943359375-.1923828125,1.2412109375-.494140625,2.3740234375-.90625,3.3974609375-.4130859375,1.0263671875-1.05078125,1.6005859375-1.916015625,1.7294921875-.806640625.1240234375-1.728515625.2568359375-2.765625.3994140625-1.0390625.140625-2.0625.109375-3.0703125-.1005859375-1.00390625-.15234375-1.8671875-.5498046875-2.587890625-1.1904296875-.724609375-.640625-1.17578125-1.7119140625-1.3544921875-3.2138671875-.1455078125-1.794921875-.283203125-3.85546875-.4130859375-6.1767578125-.130859375-2.3203125-.216796875-4.8505859375-.2646484375-7.587890625-.0673828125-2.26953125-.0791015625-4.76171875-.037109375-7.4755859375.0419921875-2.7158203125.1943359375-5.5107421875.4580078125-8.390625.26171875-2.876953125.6689453125-5.7685546875,1.220703125-8.6708984375.552734375-2.900390625,1.318359375-5.6748046875,2.2998046875-8.3203125.9814453125-2.64453125,2.1962890625-5.10546875,3.6455078125-7.3798828125,1.447265625-2.2734375,3.2421875-4.2275390625,5.384765625-5.8583984375,2.52734375-1.896484375,5.3857421875-2.9736328125,8.572265625-3.2314453125,3.185546875-.2587890625,6.26171875.2783203125,9.2265625,1.61328125ZM66.322265624998181,99.61962890625c3.626953125-.5849609375,7.244140625-1.09765625,10.853515625-1.53515625,3.607421875-.4375,7.2421875-.7470703125,10.90234375-.927734375-.16015625-4.1259765625-.6318359375-7.7900390625-1.416015625-10.9921875-.78515625-3.2021484375-1.73046875-5.880859375-2.837890625-8.037109375-1.1083984375-2.1533203125-2.34765625-3.7734375-3.7177734375-4.8583984375-1.3701171875-1.083984375-2.72265625-1.572265625-4.0537109375-1.46484375-1.16015625.09375-2.314453125.7861328125-3.462890625,2.0732421875-1.150390625,1.2900390625-2.1669921875,3.12109375-3.052734375,5.49609375-.8876953125,2.375-1.62890625,5.2783203125-2.224609375,8.7080078125-.59765625,3.4296875-.927734375,7.27734375-.990234375,11.5380859375Z"/>
            <path class="cls-3" d="M202.996093749998181,78.66259765625c2.708984375,1.7646484375,4.8037109375,4.0595703125,6.287109375,6.8818359375,1.4814453125,2.8251953125,2.1181640625,5.8203125,1.908203125,8.9853515625-.234375,3.576171875-1.384765625,6.6591796875-3.44921875,9.2451171875-2.064453125,2.5869140625-4.576171875,4.7001953125-7.533203125,6.3388671875-2.958984375,1.640625-6.19921875,2.8359375-9.724609375,3.587890625-3.525390625.7509765625-6.8662109375,1.0810546875-10.0224609375.986328125-.28125.138671875-.5361328125.232421875-.7646484375.28125-.2294921875.046875-.486328125.111328125-.771484375.193359375-1.0380859375.140625-2.111328125.2275390625-3.21484375.2607421875-1.10546875.0302734375-2.1201171875-.0771484375-3.04296875-.3232421875-.92578125-.244140625-1.734375-.703125-2.4296875-1.376953125-.697265625-.671875-1.15625-1.6689453125-1.380859375-2.9931640625-.16796875-.626953125-.30078125-1.9140625-.3994140625-3.859375-.1005859375-1.9453125-.2333984375-4.310546875-.3994140625-7.0966796875-.115234375-2.8466796875-.263671875-5.9404296875-.4453125-9.2783203125-.18359375-3.337890625-.3828125-6.689453125-.5966796875-10.0546875-.2998046875-4.40625-.6005859375-8.8427734375-.9033203125-13.3095703125-.3046875-4.46484375-.841796875-8.9404296875-1.6123046875-13.4267578125-.1591796875-.51171875-.138671875-.9794921875.0615234375-1.4033203125.0859375-.3583984375.3203125-.7109375.7001953125-1.0634765625.3798828125-.349609375.9697265625-.6171875,1.7724609375-.7998046875.57421875-.103515625,1.205078125-.2412109375,1.890625-.4150390625.685546875-.1728515625,1.40234375-.3173828125,2.150390625-.4365234375.748046875-.1181640625,1.47265625-.177734375,2.173828125-.17578125.69921875.001953125,1.31640625.0673828125,1.8515625.19921875,2.921875-.64453125,6.01953125-.91015625,9.294921875-.796875,3.275390625.115234375,6.392578125.6337890625,9.353515625,1.560546875,2.9619140625.9267578125,5.578125,2.2744140625,7.849609375,4.0439453125s3.869140625,4.015625,4.7890625,6.740234375c.3876953125,1.193359375.6650390625,2.453125.8310546875,3.78125.1650390625,1.3291015625.1328125,2.7158203125-.1005859375,4.162109375-.232421875,1.4482421875-.677734375,2.970703125-1.3349609375,4.568359375-.6572265625,1.599609375-1.5869140625,3.2646484375-2.7880859375,4.9931640625ZM179.988281249998181,75.36767578125c2.7890625-.109375,5.1123046875-.5908203125,6.9677734375-1.439453125,1.85546875-.8505859375,3.2158203125-1.8798828125,4.0791015625-3.0859375.865234375-1.20703125,1.228515625-2.4755859375,1.091796875-3.8056640625-.138671875-1.330078125-.740234375-2.4765625-1.8095703125-3.4404296875-1.0693359375-.962890625-2.611328125-1.638671875-4.6259765625-2.03125-2.013671875-.3896484375-4.51171875-.259765625-7.490234375.388671875.357421875,2.2451171875.66796875,4.4658203125.93359375,6.6591796875.265625,2.1962890625.548828125,4.4462890625.853515625,6.7548828125ZM182.290039062498181,100.54541015625c3.1572265625.0947265625,5.7802734375-.263671875,7.8720703125-1.07421875,2.0908203125-.8115234375,3.62890625-1.8095703125,4.611328125-2.9990234375.982421875-1.1865234375,1.435546875-2.4189453125,1.36328125-3.6962890625-.0751953125-1.2744140625-.6708984375-2.3359375-1.7890625-3.1787109375-1.1171875-.841796875-2.76171875-1.3349609375-4.9296875-1.48046875-2.169921875-.14453125-4.845703125.291015625-8.029296875,1.3056640625l.9013671875,11.123046875Z"/>
          </g>
          <g>
            <path class="cls-3" d="M84.234374999998181,58.37060546875c2.3046875,1.0966796875,4.314453125,2.5087890625,6.029296875,4.234375,1.71484375,1.728515625,3.1953125,3.6484375,4.447265625,5.7626953125,1.2490234375,2.1171875,2.2919921875,4.37890625,3.12890625,6.7890625s1.5302734375,4.8466796875,2.080078125,7.3095703125c1.208984375,4.8583984375,2.076171875,9.802734375,2.6015625,14.8330078125.5234375,5.0302734375.8466796875,10.107421875.970703125,15.2265625,0,1.4599609375-.01953125,2.6572265625-.05859375,3.591796875-.04296875.9365234375-.1982421875,1.7080078125-.46875,2.3125-.2724609375.60546875-.6845703125,1.1044921875-1.234375,1.4990234375-.552734375.39453125-1.3369140625.7783203125-2.3564453125,1.1533203125-.9755859375.1962890625-1.9970703125.365234375-3.0634765625.5107421875-1.068359375.1435546875-2.08984375-.064453125-3.068359375-.6259765625-.916015625-.5078125-1.720703125-1.435546875-2.412109375-2.7783203125s-1.171875-3.3173828125-1.44140625-5.9189453125l-.0703125-.869140625c-1.462890625-.0556640625-3.197265625-.060546875-5.205078125-.015625-2.0078125.046875-4.056640625.1396484375-6.14453125.279296875s-4.1015625.2880859375-6.0419921875.4453125c-1.94140625.1572265625-3.5771484375.2900390625-4.91015625.3984375-.0166015625.5263671875-.017578125,1.400390625-.005859375,2.625.0126953125,1.2236328125-.078125,2.4541015625-.2685546875,3.6943359375-.1923828125,1.2412109375-.494140625,2.3740234375-.90625,3.3974609375-.4130859375,1.0263671875-1.05078125,1.6005859375-1.916015625,1.7294921875-.806640625.1240234375-1.728515625.2568359375-2.765625.3994140625-1.0390625.140625-2.0625.109375-3.0703125-.1005859375-1.00390625-.15234375-1.8671875-.5498046875-2.587890625-1.1904296875-.724609375-.640625-1.17578125-1.7119140625-1.3544921875-3.2138671875-.1455078125-1.794921875-.283203125-3.85546875-.4130859375-6.1767578125-.130859375-2.3203125-.216796875-4.8505859375-.2646484375-7.587890625-.0673828125-2.26953125-.0791015625-4.76171875-.037109375-7.4755859375.0419921875-2.7158203125.1943359375-5.5107421875.4580078125-8.390625.26171875-2.876953125.6689453125-5.7685546875,1.220703125-8.6708984375.552734375-2.900390625,1.318359375-5.6748046875,2.2998046875-8.3203125.9814453125-2.64453125,2.1962890625-5.10546875,3.6455078125-7.3798828125,1.447265625-2.2734375,3.2421875-4.2275390625,5.384765625-5.8583984375,2.52734375-1.896484375,5.3857421875-2.9736328125,8.572265625-3.2314453125,3.185546875-.2587890625,6.26171875.2783203125,9.2265625,1.61328125ZM66.322265624998181,99.61962890625c3.626953125-.5849609375,7.244140625-1.09765625,10.853515625-1.53515625,3.607421875-.4375,7.2421875-.7470703125,10.90234375-.927734375-.16015625-4.1259765625-.6318359375-7.7900390625-1.416015625-10.9921875-.78515625-3.2021484375-1.73046875-5.880859375-2.837890625-8.037109375-1.1083984375-2.1533203125-2.34765625-3.7734375-3.7177734375-4.8583984375-1.3701171875-1.083984375-2.72265625-1.572265625-4.0537109375-1.46484375-1.16015625.09375-2.314453125.7861328125-3.462890625,2.0732421875-1.150390625,1.2900390625-2.1669921875,3.12109375-3.052734375,5.49609375-.8876953125,2.375-1.62890625,5.2783203125-2.224609375,8.7080078125-.59765625,3.4296875-.927734375,7.27734375-.990234375,11.5380859375Z"/>
            <path class="cls-3" d="M202.996093749998181,78.66259765625c2.708984375,1.7646484375,4.8037109375,4.0595703125,6.287109375,6.8818359375,1.4814453125,2.8251953125,2.1181640625,5.8203125,1.908203125,8.9853515625-.234375,3.576171875-1.384765625,6.6591796875-3.44921875,9.2451171875-2.064453125,2.5869140625-4.576171875,4.7001953125-7.533203125,6.3388671875-2.958984375,1.640625-6.19921875,2.8359375-9.724609375,3.587890625-3.525390625.7509765625-6.8662109375,1.0810546875-10.0224609375.986328125-.28125.138671875-.5361328125.232421875-.7646484375.28125-.2294921875.046875-.486328125.111328125-.771484375.193359375-1.0380859375.140625-2.111328125.2275390625-3.21484375.2607421875-1.10546875.0302734375-2.1201171875-.0771484375-3.04296875-.3232421875-.92578125-.244140625-1.734375-.703125-2.4296875-1.376953125-.697265625-.671875-1.15625-1.6689453125-1.380859375-2.9931640625-.16796875-.626953125-.30078125-1.9140625-.3994140625-3.859375-.1005859375-1.9453125-.2333984375-4.310546875-.3994140625-7.0966796875-.115234375-2.8466796875-.263671875-5.9404296875-.4453125-9.2783203125-.18359375-3.337890625-.3828125-6.689453125-.5966796875-10.0546875-.2998046875-4.40625-.6005859375-8.8427734375-.9033203125-13.3095703125-.3046875-4.46484375-.841796875-8.9404296875-1.6123046875-13.4267578125-.1591796875-.51171875-.138671875-.9794921875.0615234375-1.4033203125.0859375-.3583984375.3203125-.7109375.7001953125-1.0634765625.3798828125-.349609375.9697265625-.6171875,1.7724609375-.7998046875.57421875-.103515625,1.205078125-.2412109375,1.890625-.4150390625.685546875-.1728515625,1.40234375-.3173828125,2.150390625-.4365234375.748046875-.1181640625,1.47265625-.177734375,2.173828125-.17578125.69921875.001953125,1.31640625.0673828125,1.8515625.19921875,2.921875-.64453125,6.01953125-.91015625,9.294921875-.796875,3.275390625.115234375,6.392578125.6337890625,9.353515625,1.560546875,2.9619140625.9267578125,5.578125,2.2744140625,7.849609375,4.0439453125s3.869140625,4.015625,4.7890625,6.740234375c.3876953125,1.193359375.6650390625,2.453125.8310546875,3.78125.1650390625,1.3291015625.1328125,2.7158203125-.1005859375,4.162109375-.232421875,1.4482421875-.677734375,2.970703125-1.3349609375,4.568359375-.6572265625,1.599609375-1.5869140625,3.2646484375-2.7880859375,4.9931640625ZM179.988281249998181,75.36767578125c2.7890625-.109375,5.1123046875-.5908203125,6.9677734375-1.439453125,1.85546875-.8505859375,3.2158203125-1.8798828125,4.0791015625-3.0859375.865234375-1.20703125,1.228515625-2.4755859375,1.091796875-3.8056640625-.138671875-1.330078125-.740234375-2.4765625-1.8095703125-3.4404296875-1.0693359375-.962890625-2.611328125-1.638671875-4.6259765625-2.03125-2.013671875-.3896484375-4.51171875-.259765625-7.490234375.388671875.357421875,2.2451171875.66796875,4.4658203125.93359375,6.6591796875.265625,2.1962890625.548828125,4.4462890625.853515625,6.7548828125ZM182.290039062498181,100.54541015625c3.1572265625.0947265625,5.7802734375-.263671875,7.8720703125-1.07421875,2.0908203125-.8115234375,3.62890625-1.8095703125,4.611328125-2.9990234375.982421875-1.1865234375,1.435546875-2.4189453125,1.36328125-3.6962890625-.0751953125-1.2744140625-.6708984375-2.3359375-1.7890625-3.1787109375-1.1171875-.841796875-2.76171875-1.3349609375-4.9296875-1.48046875-2.169921875-.14453125-4.845703125.291015625-8.029296875,1.3056640625l.9013671875,11.123046875Z"/>
          </g>
          <g>
            <path class="cls-3" d="M84.234374999998181,58.37060546875c2.3046875,1.0966796875,4.314453125,2.5087890625,6.029296875,4.234375,1.71484375,1.728515625,3.1953125,3.6484375,4.447265625,5.7626953125,1.2490234375,2.1171875,2.2919921875,4.37890625,3.12890625,6.7890625s1.5302734375,4.8466796875,2.080078125,7.3095703125c1.208984375,4.8583984375,2.076171875,9.802734375,2.6015625,14.8330078125.5234375,5.0302734375.8466796875,10.107421875.970703125,15.2265625,0,1.4599609375-.01953125,2.6572265625-.05859375,3.591796875-.04296875.9365234375-.1982421875,1.7080078125-.46875,2.3125-.2724609375.60546875-.6845703125,1.1044921875-1.234375,1.4990234375-.552734375.39453125-1.3369140625.7783203125-2.3564453125,1.1533203125-.9755859375.1962890625-1.9970703125.365234375-3.0634765625.5107421875-1.068359375.1435546875-2.08984375-.064453125-3.068359375-.6259765625-.916015625-.5078125-1.720703125-1.435546875-2.412109375-2.7783203125s-1.171875-3.3173828125-1.44140625-5.9189453125l-.0703125-.869140625c-1.462890625-.0556640625-3.197265625-.060546875-5.205078125-.015625-2.0078125.046875-4.056640625.1396484375-6.14453125.279296875s-4.1015625.2880859375-6.0419921875.4453125c-1.94140625.1572265625-3.5771484375.2900390625-4.91015625.3984375-.0166015625.5263671875-.017578125,1.400390625-.005859375,2.625.0126953125,1.2236328125-.078125,2.4541015625-.2685546875,3.6943359375-.1923828125,1.2412109375-.494140625,2.3740234375-.90625,3.3974609375-.4130859375,1.0263671875-1.05078125,1.6005859375-1.916015625,1.7294921875-.806640625.1240234375-1.728515625.2568359375-2.765625.3994140625-1.0390625.140625-2.0625.109375-3.0703125-.1005859375-1.00390625-.15234375-1.8671875-.5498046875-2.587890625-1.1904296875-.724609375-.640625-1.17578125-1.7119140625-1.3544921875-3.2138671875-.1455078125-1.794921875-.283203125-3.85546875-.4130859375-6.1767578125-.130859375-2.3203125-.216796875-4.8505859375-.2646484375-7.587890625-.0673828125-2.26953125-.0791015625-4.76171875-.037109375-7.4755859375.0419921875-2.7158203125.1943359375-5.5107421875.4580078125-8.390625.26171875-2.876953125.6689453125-5.7685546875,1.220703125-8.6708984375.552734375-2.900390625,1.318359375-5.6748046875,2.2998046875-8.3203125.9814453125-2.64453125,2.1962890625-5.10546875,3.6455078125-7.3798828125,1.447265625-2.2734375,3.2421875-4.2275390625,5.384765625-5.8583984375,2.52734375-1.896484375,5.3857421875-2.9736328125,8.572265625-3.2314453125,3.185546875-.2587890625,6.26171875.2783203125,9.2265625,1.61328125ZM66.322265624998181,99.61962890625c3.626953125-.5849609375,7.244140625-1.09765625,10.853515625-1.53515625,3.607421875-.4375,7.2421875-.7470703125,10.90234375-.927734375-.16015625-4.1259765625-.6318359375-7.7900390625-1.416015625-10.9921875-.78515625-3.2021484375-1.73046875-5.880859375-2.837890625-8.037109375-1.1083984375-2.1533203125-2.34765625-3.7734375-3.7177734375-4.8583984375-1.3701171875-1.083984375-2.72265625-1.572265625-4.0537109375-1.46484375-1.16015625.09375-2.314453125.7861328125-3.462890625,2.0732421875-1.150390625,1.2900390625-2.1669921875,3.12109375-3.052734375,5.49609375-.8876953125,2.375-1.62890625,5.2783203125-2.224609375,8.7080078125-.59765625,3.4296875-.927734375,7.27734375-.990234375,11.5380859375Z"/>
            <path class="cls-3" d="M202.996093749998181,78.66259765625c2.708984375,1.7646484375,4.8037109375,4.0595703125,6.287109375,6.8818359375,1.4814453125,2.8251953125,2.1181640625,5.8203125,1.908203125,8.9853515625-.234375,3.576171875-1.384765625,6.6591796875-3.44921875,9.2451171875-2.064453125,2.5869140625-4.576171875,4.7001953125-7.533203125,6.3388671875-2.958984375,1.640625-6.19921875,2.8359375-9.724609375,3.587890625-3.525390625.7509765625-6.8662109375,1.0810546875-10.0224609375.986328125-.28125.138671875-.5361328125.232421875-.7646484375.28125-.2294921875.046875-.486328125.111328125-.771484375.193359375-1.0380859375.140625-2.111328125.2275390625-3.21484375.2607421875-1.10546875.0302734375-2.1201171875-.0771484375-3.04296875-.3232421875-.92578125-.244140625-1.734375-.703125-2.4296875-1.376953125-.697265625-.671875-1.15625-1.6689453125-1.380859375-2.9931640625-.16796875-.626953125-.30078125-1.9140625-.3994140625-3.859375-.1005859375-1.9453125-.2333984375-4.310546875-.3994140625-7.0966796875-.115234375-2.8466796875-.263671875-5.9404296875-.4453125-9.2783203125-.18359375-3.337890625-.3828125-6.689453125-.5966796875-10.0546875-.2998046875-4.40625-.6005859375-8.8427734375-.9033203125-13.3095703125-.3046875-4.46484375-.841796875-8.9404296875-1.6123046875-13.4267578125-.1591796875-.51171875-.138671875-.9794921875.0615234375-1.4033203125.0859375-.3583984375.3203125-.7109375.7001953125-1.0634765625.3798828125-.349609375.9697265625-.6171875,1.7724609375-.7998046875.57421875-.103515625,1.205078125-.2412109375,1.890625-.4150390625.685546875-.1728515625,1.40234375-.3173828125,2.150390625-.4365234375.748046875-.1181640625,1.47265625-.177734375,2.173828125-.17578125.69921875.001953125,1.31640625.0673828125,1.8515625.19921875,2.921875-.64453125,6.01953125-.91015625,9.294921875-.796875,3.275390625.115234375,6.392578125.6337890625,9.353515625,1.560546875,2.9619140625.9267578125,5.578125,2.2744140625,7.849609375,4.0439453125s3.869140625,4.015625,4.7890625,6.740234375c.3876953125,1.193359375.6650390625,2.453125.8310546875,3.78125.1650390625,1.3291015625.1328125,2.7158203125-.1005859375,4.162109375-.232421875,1.4482421875-.677734375,2.970703125-1.3349609375,4.568359375-.6572265625,1.599609375-1.5869140625,3.2646484375-2.7880859375,4.9931640625ZM179.988281249998181,75.36767578125c2.7890625-.109375,5.1123046875-.5908203125,6.9677734375-1.439453125,1.85546875-.8505859375,3.2158203125-1.8798828125,4.0791015625-3.0859375.865234375-1.20703125,1.228515625-2.4755859375,1.091796875-3.8056640625-.138671875-1.330078125-.740234375-2.4765625-1.8095703125-3.4404296875-1.0693359375-.962890625-2.611328125-1.638671875-4.6259765625-2.03125-2.013671875-.3896484375-4.51171875-.259765625-7.490234375.388671875.357421875,2.2451171875.66796875,4.4658203125.93359375,6.6591796875.265625,2.1962890625.548828125,4.4462890625.853515625,6.7548828125ZM182.290039062498181,100.54541015625c3.1572265625.0947265625,5.7802734375-.263671875,7.8720703125-1.07421875,2.0908203125-.8115234375,3.62890625-1.8095703125,4.611328125-2.9990234375.982421875-1.1865234375,1.435546875-2.4189453125,1.36328125-3.6962890625-.0751953125-1.2744140625-.6708984375-2.3359375-1.7890625-3.1787109375-1.1171875-.841796875-2.76171875-1.3349609375-4.9296875-1.48046875-2.169921875-.14453125-4.845703125.291015625-8.029296875,1.3056640625l.9013671875,11.123046875Z"/>
          </g>
        </g>
      </a>
    </g>
  </a>
</svg>