<?xml version="1.0" encoding="UTF-8"?>
<svg id="Content" xmlns="http://www.w3.org/2000/svg" xmlns:xlink="http://www.w3.org/1999/xlink" viewBox="0 0 280 280">
  <defs>
    <style>
      .cls-1 {
        stroke: #665451;
        stroke-width: 50px;
      }

      .cls-1, .cls-2 {
        fill: none;
        stroke-linecap: round;
        stroke-linejoin: round;
      }

      .cls-3 {
        fill: #fff;
      }

      .cls-2 {
        stroke: #998675;
        stroke-width: 2px;
      }
    </style>
  </defs>
  <a xlink:href="https://www.notion.so/congruence/Event-B-eb4d0f4b4c024193b6f4a9f67825fed3?pvs=4">
    <g>
      <path d="M106.58642578125,96.7685546875c5.376953125,3.501953125,9.5361328125,8.056640625,12.4814453125,13.662109375,2.9423828125,5.609375,4.2060546875,11.5556640625,3.78955078125,17.8408203125-.466796875,7.1005859375-2.74951171875,13.2197265625-6.8486328125,18.3544921875-4.0986328125,5.13671875-9.08544921875,9.33203125-14.95654296875,12.5859375-5.8740234375,3.2548828125-12.3076171875,5.6298828125-19.306640625,7.1220703125s-13.6318359375,2.1455078125-19.8984375,1.958984375c-.55859375.2763671875-1.064453125.4609375-1.51806640625.5576171875-.45654296875.09375-.96630859375.2216796875-1.53125.3828125-2.06103515625.2822265625-4.19091796875.455078125-6.38330078125.517578125-2.1962890625.0615234375-4.21044921875-.15234375-6.04296875-.638671875-1.8359375-.486328125-3.44287109375-1.3974609375-4.82421875-2.734375-1.3828125-1.3349609375-2.294921875-3.3154296875-2.73876953125-5.943359375-.33447265625-1.24609375-.59814453125-3.798828125-.79443359375-7.6640625-.19873046875-3.8603515625-.46240234375-8.5576171875-.7939453125-14.087890625-.22705078125-5.65234375-.521484375-11.79296875-.884765625-18.421875-.36328125-6.6279296875-.75830078125-13.2822265625-1.18310546875-19.9619140625-.59423828125-8.7490234375-1.19140625-17.556640625-1.79345703125-26.423828125-.60400390625-8.865234375-1.6708984375-17.751953125-3.20166015625-26.658203125-.3154296875-1.015625-.27392578125-1.9443359375.12158203125-2.7880859375.17333984375-.708984375.63720703125-1.4111328125,1.3916015625-2.109375.7529296875-.6962890625,1.92529296875-1.224609375,3.5185546875-1.587890625,1.13916015625-.2060546875,2.392578125-.48046875,3.75341796875-.8251953125,1.36181640625-.3408203125,2.78466796875-.6298828125,4.271484375-.8671875,1.48388671875-.2333984375,2.923828125-.349609375,4.31298828125-.349609375,1.3896484375.0048828125,2.61572265625.13671875,3.6787109375.3974609375,5.80126953125-1.2783203125,11.94970703125-1.806640625,18.453125-1.5830078125,6.5009765625.228515625,12.69189453125,1.259765625,18.572265625,3.09765625,5.87890625,1.8408203125,11.072265625,4.5166015625,15.583984375,8.029296875,4.509765625,3.513671875,7.67919921875,7.97265625,9.5068359375,13.3818359375.77001953125,2.369140625,1.3203125,4.8720703125,1.64990234375,7.5078125.328125,2.6376953125.263671875,5.3916015625-.1982421875,8.263671875-.4619140625,2.8759765625-1.34619140625,5.8994140625-2.65185546875,9.0712890625-1.30517578125,3.17578125-3.1513671875,6.48046875-5.53515625,9.9130859375ZM60.90576171875,90.224609375c5.53955078125-.2158203125,10.15087890625-1.1708984375,13.83447265625-2.8583984375,3.68408203125-1.6875,6.38330078125-3.7294921875,8.099609375-6.1259765625s2.4375-4.9140625,2.16650390625-7.556640625c-.2734375-2.638671875-1.470703125-4.9169921875-3.5927734375-6.828125-2.1240234375-1.912109375-5.185546875-3.25390625-9.18212890625-4.0322265625-4-.7734375-8.95849609375-.5166015625-14.87255859375.7705078125.708984375,4.4580078125,1.326171875,8.8662109375,1.8525390625,13.22265625.52685546875,4.3583984375,1.08935546875,8.8271484375,1.6943359375,13.408203125ZM65.47607421875,140.212890625c6.267578125.1875,11.4765625-.521484375,15.6298828125-2.1337890625,4.1513671875-1.6083984375,7.20361328125-3.5927734375,9.15625-5.951171875,1.94970703125-2.35546875,2.8505859375-4.8037109375,2.705078125-7.33984375-.14892578125-2.5322265625-1.3310546875-4.6376953125-3.55078125-6.3095703125-2.21923828125-1.671875-5.48388671875-2.65234375-9.7890625-2.94140625-4.3076171875-.2861328125-9.62109375.5791015625-15.9404296875,2.59375l1.7890625,22.08203125Z"/>
      <path class="cls-1" d="M106.58642578125,96.7685546875c5.376953125,3.501953125,9.5361328125,8.056640625,12.4814453125,13.662109375,2.9423828125,5.609375,4.2060546875,11.5556640625,3.78955078125,17.8408203125-.466796875,7.1005859375-2.74951171875,13.2197265625-6.8486328125,18.3544921875-4.0986328125,5.13671875-9.08544921875,9.33203125-14.95654296875,12.5859375-5.8740234375,3.2548828125-12.3076171875,5.6298828125-19.306640625,7.1220703125s-13.6318359375,2.1455078125-19.8984375,1.958984375c-.55859375.2763671875-1.064453125.4609375-1.51806640625.5576171875-.45654296875.09375-.96630859375.2216796875-1.53125.3828125-2.06103515625.2822265625-4.19091796875.455078125-6.38330078125.517578125-2.1962890625.0615234375-4.21044921875-.15234375-6.04296875-.638671875-1.8359375-.486328125-3.44287109375-1.3974609375-4.82421875-2.734375-1.3828125-1.3349609375-2.294921875-3.3154296875-2.73876953125-5.943359375-.33447265625-1.24609375-.59814453125-3.798828125-.79443359375-7.6640625-.19873046875-3.8603515625-.46240234375-8.5576171875-.7939453125-14.087890625-.22705078125-5.65234375-.521484375-11.79296875-.884765625-18.421875-.36328125-6.6279296875-.75830078125-13.2822265625-1.18310546875-19.9619140625-.59423828125-8.7490234375-1.19140625-17.556640625-1.79345703125-26.423828125-.60400390625-8.865234375-1.6708984375-17.751953125-3.20166015625-26.658203125-.3154296875-1.015625-.27392578125-1.9443359375.12158203125-2.7880859375.17333984375-.708984375.63720703125-1.4111328125,1.3916015625-2.109375.7529296875-.6962890625,1.92529296875-1.224609375,3.5185546875-1.587890625,1.13916015625-.2060546875,2.392578125-.48046875,3.75341796875-.8251953125,1.36181640625-.3408203125,2.78466796875-.6298828125,4.271484375-.8671875,1.48388671875-.2333984375,2.923828125-.349609375,4.31298828125-.349609375,1.3896484375.0048828125,2.61572265625.13671875,3.6787109375.3974609375,5.80126953125-1.2783203125,11.94970703125-1.806640625,18.453125-1.5830078125,6.5009765625.228515625,12.69189453125,1.259765625,18.572265625,3.09765625,5.87890625,1.8408203125,11.072265625,4.5166015625,15.583984375,8.029296875,4.509765625,3.513671875,7.67919921875,7.97265625,9.5068359375,13.3818359375.77001953125,2.369140625,1.3203125,4.8720703125,1.64990234375,7.5078125.328125,2.6376953125.263671875,5.3916015625-.1982421875,8.263671875-.4619140625,2.8759765625-1.34619140625,5.8994140625-2.65185546875,9.0712890625-1.30517578125,3.17578125-3.1513671875,6.48046875-5.53515625,9.9130859375ZM60.90576171875,90.224609375c5.53955078125-.2158203125,10.15087890625-1.1708984375,13.83447265625-2.8583984375,3.68408203125-1.6875,6.38330078125-3.7294921875,8.099609375-6.1259765625s2.4375-4.9140625,2.16650390625-7.556640625c-.2734375-2.638671875-1.470703125-4.9169921875-3.5927734375-6.828125-2.1240234375-1.912109375-5.185546875-3.25390625-9.18212890625-4.0322265625-4-.7734375-8.95849609375-.5166015625-14.87255859375.7705078125.708984375,4.4580078125,1.326171875,8.8662109375,1.8525390625,13.22265625.52685546875,4.3583984375,1.08935546875,8.8271484375,1.6943359375,13.408203125ZM65.47607421875,140.212890625c6.267578125.1875,11.4765625-.521484375,15.6298828125-2.1337890625,4.1513671875-1.6083984375,7.20361328125-3.5927734375,9.15625-5.951171875,1.94970703125-2.35546875,2.8505859375-4.8037109375,2.705078125-7.33984375-.14892578125-2.5322265625-1.3310546875-4.6376953125-3.55078125-6.3095703125-2.21923828125-1.671875-5.48388671875-2.65234375-9.7890625-2.94140625-4.3076171875-.2861328125-9.62109375.5791015625-15.9404296875,2.59375l1.7890625,22.08203125Z"/>
      <path class="cls-2" d="M106.58642578125,96.7685546875c5.376953125,3.501953125,9.5361328125,8.056640625,12.4814453125,13.662109375,2.9423828125,5.609375,4.2060546875,11.5556640625,3.78955078125,17.8408203125-.466796875,7.1005859375-2.74951171875,13.2197265625-6.8486328125,18.3544921875-4.0986328125,5.13671875-9.08544921875,9.33203125-14.95654296875,12.5859375-5.8740234375,3.2548828125-12.3076171875,5.6298828125-19.306640625,7.1220703125s-13.6318359375,2.1455078125-19.8984375,1.958984375c-.55859375.2763671875-1.064453125.4609375-1.51806640625.5576171875-.45654296875.09375-.96630859375.2216796875-1.53125.3828125-2.06103515625.2822265625-4.19091796875.455078125-6.38330078125.517578125-2.1962890625.0615234375-4.21044921875-.15234375-6.04296875-.638671875-1.8359375-.486328125-3.44287109375-1.3974609375-4.82421875-2.734375-1.3828125-1.3349609375-2.294921875-3.3154296875-2.73876953125-5.943359375-.33447265625-1.24609375-.59814453125-3.798828125-.79443359375-7.6640625-.19873046875-3.8603515625-.46240234375-8.5576171875-.7939453125-14.087890625-.22705078125-5.65234375-.521484375-11.79296875-.884765625-18.421875-.36328125-6.6279296875-.75830078125-13.2822265625-1.18310546875-19.9619140625-.59423828125-8.7490234375-1.19140625-17.556640625-1.79345703125-26.423828125-.60400390625-8.865234375-1.6708984375-17.751953125-3.20166015625-26.658203125-.3154296875-1.015625-.27392578125-1.9443359375.12158203125-2.7880859375.17333984375-.708984375.63720703125-1.4111328125,1.3916015625-2.109375.7529296875-.6962890625,1.92529296875-1.224609375,3.5185546875-1.587890625,1.13916015625-.2060546875,2.392578125-.48046875,3.75341796875-.8251953125,1.36181640625-.3408203125,2.78466796875-.6298828125,4.271484375-.8671875,1.48388671875-.2333984375,2.923828125-.349609375,4.31298828125-.349609375,1.3896484375.0048828125,2.61572265625.13671875,3.6787109375.3974609375,5.80126953125-1.2783203125,11.94970703125-1.806640625,18.453125-1.5830078125,6.5009765625.228515625,12.69189453125,1.259765625,18.572265625,3.09765625,5.87890625,1.8408203125,11.072265625,4.5166015625,15.583984375,8.029296875,4.509765625,3.513671875,7.67919921875,7.97265625,9.5068359375,13.3818359375.77001953125,2.369140625,1.3203125,4.8720703125,1.64990234375,7.5078125.328125,2.6376953125.263671875,5.3916015625-.1982421875,8.263671875-.4619140625,2.8759765625-1.34619140625,5.8994140625-2.65185546875,9.0712890625-1.30517578125,3.17578125-3.1513671875,6.48046875-5.53515625,9.9130859375ZM60.90576171875,90.224609375c5.53955078125-.2158203125,10.15087890625-1.1708984375,13.83447265625-2.8583984375,3.68408203125-1.6875,6.38330078125-3.7294921875,8.099609375-6.1259765625s2.4375-4.9140625,2.16650390625-7.556640625c-.2734375-2.638671875-1.470703125-4.9169921875-3.5927734375-6.828125-2.1240234375-1.912109375-5.185546875-3.25390625-9.18212890625-4.0322265625-4-.7734375-8.95849609375-.5166015625-14.87255859375.7705078125.708984375,4.4580078125,1.326171875,8.8662109375,1.8525390625,13.22265625.52685546875,4.3583984375,1.08935546875,8.8271484375,1.6943359375,13.408203125ZM65.47607421875,140.212890625c6.267578125.1875,11.4765625-.521484375,15.6298828125-2.1337890625,4.1513671875-1.6083984375,7.20361328125-3.5927734375,9.15625-5.951171875,1.94970703125-2.35546875,2.8505859375-4.8037109375,2.705078125-7.33984375-.14892578125-2.5322265625-1.3310546875-4.6376953125-3.55078125-6.3095703125-2.21923828125-1.671875-5.48388671875-2.65234375-9.7890625-2.94140625-4.3076171875-.2861328125-9.62109375.5791015625-15.9404296875,2.59375l1.7890625,22.08203125Z"/>
      <path class="cls-3" d="M106.58642578125,96.7685546875c5.376953125,3.501953125,9.5361328125,8.056640625,12.4814453125,13.662109375,2.9423828125,5.609375,4.2060546875,11.5556640625,3.78955078125,17.8408203125-.466796875,7.1005859375-2.74951171875,13.2197265625-6.8486328125,18.3544921875-4.0986328125,5.13671875-9.08544921875,9.33203125-14.95654296875,12.5859375-5.8740234375,3.2548828125-12.3076171875,5.6298828125-19.306640625,7.1220703125s-13.6318359375,2.1455078125-19.8984375,1.958984375c-.55859375.2763671875-1.064453125.4609375-1.51806640625.5576171875-.45654296875.09375-.96630859375.2216796875-1.53125.3828125-2.06103515625.2822265625-4.19091796875.455078125-6.38330078125.517578125-2.1962890625.0615234375-4.21044921875-.15234375-6.04296875-.638671875-1.8359375-.486328125-3.44287109375-1.3974609375-4.82421875-2.734375-1.3828125-1.3349609375-2.294921875-3.3154296875-2.73876953125-5.943359375-.33447265625-1.24609375-.59814453125-3.798828125-.79443359375-7.6640625-.19873046875-3.8603515625-.46240234375-8.5576171875-.7939453125-14.087890625-.22705078125-5.65234375-.521484375-11.79296875-.884765625-18.421875-.36328125-6.6279296875-.75830078125-13.2822265625-1.18310546875-19.9619140625-.59423828125-8.7490234375-1.19140625-17.556640625-1.79345703125-26.423828125-.60400390625-8.865234375-1.6708984375-17.751953125-3.20166015625-26.658203125-.3154296875-1.015625-.27392578125-1.9443359375.12158203125-2.7880859375.17333984375-.708984375.63720703125-1.4111328125,1.3916015625-2.109375.7529296875-.6962890625,1.92529296875-1.224609375,3.5185546875-1.587890625,1.13916015625-.2060546875,2.392578125-.48046875,3.75341796875-.8251953125,1.36181640625-.3408203125,2.78466796875-.6298828125,4.271484375-.8671875,1.48388671875-.2333984375,2.923828125-.349609375,4.31298828125-.349609375,1.3896484375.0048828125,2.61572265625.13671875,3.6787109375.3974609375,5.80126953125-1.2783203125,11.94970703125-1.806640625,18.453125-1.5830078125,6.5009765625.228515625,12.69189453125,1.259765625,18.572265625,3.09765625,5.87890625,1.8408203125,11.072265625,4.5166015625,15.583984375,8.029296875,4.509765625,3.513671875,7.67919921875,7.97265625,9.5068359375,13.3818359375.77001953125,2.369140625,1.3203125,4.8720703125,1.64990234375,7.5078125.328125,2.6376953125.263671875,5.3916015625-.1982421875,8.263671875-.4619140625,2.8759765625-1.34619140625,5.8994140625-2.65185546875,9.0712890625-1.30517578125,3.17578125-3.1513671875,6.48046875-5.53515625,9.9130859375ZM60.90576171875,90.224609375c5.53955078125-.2158203125,10.15087890625-1.1708984375,13.83447265625-2.8583984375,3.68408203125-1.6875,6.38330078125-3.7294921875,8.099609375-6.1259765625s2.4375-4.9140625,2.16650390625-7.556640625c-.2734375-2.638671875-1.470703125-4.9169921875-3.5927734375-6.828125-2.1240234375-1.912109375-5.185546875-3.25390625-9.18212890625-4.0322265625-4-.7734375-8.95849609375-.5166015625-14.87255859375.7705078125.708984375,4.4580078125,1.326171875,8.8662109375,1.8525390625,13.22265625.52685546875,4.3583984375,1.08935546875,8.8271484375,1.6943359375,13.408203125ZM65.47607421875,140.212890625c6.267578125.1875,11.4765625-.521484375,15.6298828125-2.1337890625,4.1513671875-1.6083984375,7.20361328125-3.5927734375,9.15625-5.951171875,1.94970703125-2.35546875,2.8505859375-4.8037109375,2.705078125-7.33984375-.14892578125-2.5322265625-1.3310546875-4.6376953125-3.55078125-6.3095703125-2.21923828125-1.671875-5.48388671875-2.65234375-9.7890625-2.94140625-4.3076171875-.2861328125-9.62109375.5791015625-15.9404296875,2.59375l1.7890625,22.08203125Z"/>
    </g>
  </a>
</svg>