<?xml version="1.0" encoding="UTF-8"?>
<svg id="Content" xmlns="http://www.w3.org/2000/svg" xmlns:xlink="http://www.w3.org/1999/xlink" viewBox="0 0 280 280">
  <defs>
    <style>
      .cls-1 {
        stroke: #665451;
        stroke-width: 50px;
      }

      .cls-1, .cls-2 {
        fill: none;
        stroke-linecap: round;
        stroke-linejoin: round;
      }

      .cls-3 {
        fill: #fff;
      }

      .cls-2 {
        stroke: #998675;
        stroke-width: 2px;
      }
    </style>
  </defs>
  <a xlink:href="https://www.notion.so/congruence/Event-b29ee46aaf324a31815d0a1307d5eeca?pvs=4">
    <g>
      <a xlink:href="https://www.notion.so/congruence/B-Event-1f1a5b08a72c49f5ab60f2e0793fd0a8?pvs=4">
        <g>
          <path class="cls-3" d="M70.5986328125,69.990234375c3.2041015625,1.5244140625,5.99951171875,3.4873046875,8.3828125,5.8876953125,2.38427734375,2.404296875,4.44384765625,5.07421875,6.18310546875,8.013671875,1.73828125,2.94140625,3.1884765625,6.0869140625,4.3525390625,9.4365234375,1.1630859375,3.3544921875,2.126953125,6.7421875,2.8916015625,10.166015625,1.68212890625,6.755859375,2.88623046875,13.6298828125,3.61669921875,20.6259765625.728515625,6.994140625,1.177734375,14.0546875,1.35009765625,21.1748046875.00146484375,2.0263671875-.02490234375,3.6923828125-.08154296875,4.9921875-.05810546875,1.302734375-.27490234375,2.375-.65185546875,3.2158203125-.37841796875.841796875-.951171875,1.537109375-1.71630859375,2.083984375-.76708984375.5498046875-1.85791015625,1.08203125-3.275390625,1.6044921875-1.35791015625.2705078125-2.77783203125.5078125-4.26025390625.7099609375-1.48486328125.1982421875-2.90771484375-.08984375-4.2666015625-.8701171875-1.2734375-.7080078125-2.392578125-1.9970703125-3.353515625-3.865234375-.96240234375-1.8671875-1.63134765625-4.6103515625-2.00390625-8.2294921875l-.09814453125-1.208984375c-2.0341796875-.0771484375-4.44580078125-.083984375-7.23828125-.01953125-2.79296875.0634765625-5.64013671875.193359375-8.54296875.3876953125-2.9033203125.1953125-5.705078125.400390625-8.40234375.619140625-2.7001953125.21875-4.97509765625.4033203125-6.82763671875.5537109375-.02197265625.73046875-.0244140625,1.947265625-.0078125,3.6494140625.01611328125,1.701171875-.109375,3.4130859375-.37451171875,5.138671875-.26708984375,1.7236328125-.68701171875,3.298828125-1.25927734375,4.72265625-.57421875,1.4267578125-1.4619140625,2.2255859375-2.6630859375,2.40625-1.123046875.169921875-2.404296875.3544921875-3.8466796875.5537109375-1.4443359375.197265625-2.86767578125.150390625-4.2685546875-.140625-1.396484375-.208984375-2.59716796875-.7626953125-3.6005859375-1.654296875-1.00537109375-.8916015625-1.63330078125-2.3798828125-1.88232421875-4.46875-.2021484375-2.49609375-.39453125-5.359375-.57421875-8.58984375-.181640625-3.2265625-.30322265625-6.7431640625-.3681640625-10.5498046875-.09423828125-3.1552734375-.11083984375-6.6201171875-.0517578125-10.3955078125.05908203125-3.7744140625.2705078125-7.662109375.6357421875-11.666015625.3642578125-4.001953125.931640625-8.021484375,1.69921875-12.056640625.767578125-4.0341796875,1.83349609375-7.8916015625,3.19775390625-11.5712890625,1.36279296875-3.6767578125,3.052734375-7.09765625,5.06787109375-10.2607421875,2.01318359375-3.162109375,4.509765625-5.8779296875,7.48876953125-8.1474609375,3.51416015625-2.6357421875,7.48779296875-4.1337890625,11.9189453125-4.4931640625,4.4296875-.3583984375,8.70751953125.388671875,12.83056640625,2.2451171875ZM45.69189453125,127.345703125c5.04150390625-.8134765625,10.07177734375-1.5244140625,15.0908203125-2.134765625,5.01708984375-.607421875,10.0712890625-1.0390625,15.158203125-1.2880859375-.22119140625-5.7392578125-.87744140625-10.833984375-1.96728515625-15.287109375-1.09033203125-4.451171875-2.40771484375-8.1767578125-3.94677734375-11.173828125-1.53955078125-2.99609375-3.26318359375-5.248046875-5.16845703125-6.7568359375-1.90625-1.5068359375-3.78564453125-2.185546875-5.63818359375-2.0361328125-1.61181640625.130859375-3.21630859375,1.0927734375-4.81396484375,2.8828125-1.5986328125,1.79296875-3.01416015625,4.33984375-4.24560546875,7.640625-1.2333984375,3.3056640625-2.263671875,7.3408203125-3.0927734375,12.1103515625-.83056640625,4.76953125-1.2900390625,10.1181640625-1.3759765625,16.04296875Z"/>
          <path class="cls-3" d="M235.736328125,98.20703125c3.76611328125,2.451171875,6.67919921875,5.642578125,8.74169921875,9.5673828125,2.060546875,3.9296875,2.9453125,8.0927734375,2.654296875,12.49609375-.3271484375,4.9716796875-1.92529296875,9.2578125-4.79638671875,12.853515625-2.87060546875,3.5986328125-6.36279296875,6.5361328125-10.4755859375,8.8154296875-4.11376953125,2.2783203125-8.61962890625,3.9423828125-13.521484375,4.98828125-4.90185546875,1.044921875-9.546875,1.501953125-13.93603515625,1.3720703125-.3916015625.1923828125-.74560546875.3212890625-1.0634765625.3896484375-.3193359375.06640625-.6767578125.15625-1.07275390625.2685546875-1.443359375.197265625-2.93505859375.318359375-4.470703125.3623046875-1.537109375.0439453125-2.9482421875-.1064453125-4.23193359375-.447265625-1.28515625-.3388671875-2.4111328125-.978515625-3.3779296875-1.916015625-.96923828125-.93359375-1.60791015625-2.3212890625-1.9189453125-4.1611328125-.234375-.8720703125-.41845703125-2.66015625-.55615234375-5.3671875-.13916015625-2.7041015625-.32421875-5.994140625-.55615234375-9.8671875-.15966796875-3.9599609375-.365234375-8.259765625-.61962890625-12.90234375-.25390625-4.640625-.53125-9.3017578125-.82861328125-13.98046875-.41650390625-6.1279296875-.833984375-12.296875-1.25634765625-18.505859375-.42333984375-6.208984375-1.17041015625-12.4326171875-2.24169921875-18.669921875-.2216796875-.712890625-.1923828125-1.36328125.08447265625-1.953125.12158203125-.4970703125.44677734375-.9892578125.97509765625-1.478515625.52685546875-.4873046875,1.3486328125-.857421875,2.4638671875-1.111328125.79833984375-.14453125,1.67578125-.3369140625,2.62890625-.578125.9541015625-.23828125,1.9501953125-.4404296875,2.99169921875-.607421875,1.03955078125-.1630859375,2.0478515625-.2451171875,3.02099609375-.2451171875.97265625.00390625,1.83154296875.0947265625,2.57666015625.279296875,4.0625-.8955078125,8.36865234375-1.2666015625,12.92333984375-1.1083984375,4.55322265625.1591796875,8.88916015625.8818359375,13.0068359375,2.1689453125,4.11865234375,1.2900390625,7.7548828125,3.1630859375,10.91552734375,5.6220703125,3.158203125,2.4619140625,5.3779296875,5.5849609375,6.65771484375,9.3720703125.5390625,1.66015625.9248046875,3.4140625,1.15576171875,5.2587890625.2294921875,1.84765625.1845703125,3.7763671875-.1396484375,5.7880859375-.32275390625,2.0146484375-.94140625,4.1328125-1.8564453125,6.3544921875-.9140625,2.2216796875-2.20751953125,4.537109375-3.876953125,6.9423828125ZM203.7431640625,93.6220703125c3.8798828125-.150390625,7.109375-.818359375,9.689453125-2.0009765625,2.57958984375-1.181640625,4.470703125-2.6123046875,5.67236328125-4.291015625,1.2021484375-1.6767578125,1.70751953125-3.44140625,1.517578125-5.2919921875-.19189453125-1.84765625-1.02978515625-3.443359375-2.51611328125-4.7822265625-1.48779296875-1.337890625-3.6318359375-2.2783203125-6.431640625-2.8232421875-2.80078125-.54296875-6.27392578125-.3623046875-10.41552734375.5390625.49609375,3.123046875.9287109375,6.208984375,1.29736328125,9.2607421875.36962890625,3.052734375.763671875,6.181640625,1.1865234375,9.3896484375ZM206.9443359375,128.6337890625c4.38916015625.130859375,8.037109375-.3662109375,10.94677734375-1.494140625,2.9072265625-1.126953125,5.044921875-2.5166015625,6.412109375-4.169921875,1.36572265625-1.6494140625,1.99658203125-3.36328125,1.89453125-5.138671875-.103515625-1.7734375-.93212890625-3.248046875-2.486328125-4.4208984375-1.55419921875-1.169921875-3.8408203125-1.857421875-6.85595703125-2.05859375-3.01708984375-.201171875-6.73876953125.404296875-11.1640625,1.81640625l1.2529296875,15.4658203125Z"/>
        </g>
      </a>
      <a xlink:href="https://www.notion.so/congruence/B-Event-1f1a5b08a72c49f5ab60f2e0793fd0a8?pvs=4">
        <g>
          <g>
            <path class="cls-1" d="M70.5986328125,69.990234375c3.2041015625,1.5244140625,5.99951171875,3.4873046875,8.3828125,5.8876953125,2.38427734375,2.404296875,4.44384765625,5.07421875,6.18310546875,8.013671875,1.73828125,2.94140625,3.1884765625,6.0869140625,4.3525390625,9.4365234375,1.1630859375,3.3544921875,2.126953125,6.7421875,2.8916015625,10.166015625,1.68212890625,6.755859375,2.88623046875,13.6298828125,3.61669921875,20.6259765625.728515625,6.994140625,1.177734375,14.0546875,1.35009765625,21.1748046875.00146484375,2.0263671875-.02490234375,3.6923828125-.08154296875,4.9921875-.05810546875,1.302734375-.27490234375,2.375-.65185546875,3.2158203125-.37841796875.841796875-.951171875,1.537109375-1.71630859375,2.083984375-.76708984375.5498046875-1.85791015625,1.08203125-3.275390625,1.6044921875-1.35791015625.2705078125-2.77783203125.5078125-4.26025390625.7099609375-1.48486328125.1982421875-2.90771484375-.08984375-4.2666015625-.8701171875-1.2734375-.7080078125-2.392578125-1.9970703125-3.353515625-3.865234375-.96240234375-1.8671875-1.63134765625-4.6103515625-2.00390625-8.2294921875l-.09814453125-1.208984375c-2.0341796875-.0771484375-4.44580078125-.083984375-7.23828125-.01953125-2.79296875.0634765625-5.64013671875.193359375-8.54296875.3876953125-2.9033203125.1953125-5.705078125.400390625-8.40234375.619140625-2.7001953125.21875-4.97509765625.4033203125-6.82763671875.5537109375-.02197265625.73046875-.0244140625,1.947265625-.0078125,3.6494140625.01611328125,1.701171875-.109375,3.4130859375-.37451171875,5.138671875-.26708984375,1.7236328125-.68701171875,3.298828125-1.25927734375,4.72265625-.57421875,1.4267578125-1.4619140625,2.2255859375-2.6630859375,2.40625-1.123046875.169921875-2.404296875.3544921875-3.8466796875.5537109375-1.4443359375.197265625-2.86767578125.150390625-4.2685546875-.140625-1.396484375-.208984375-2.59716796875-.7626953125-3.6005859375-1.654296875-1.00537109375-.8916015625-1.63330078125-2.3798828125-1.88232421875-4.46875-.2021484375-2.49609375-.39453125-5.359375-.57421875-8.58984375-.181640625-3.2265625-.30322265625-6.7431640625-.3681640625-10.5498046875-.09423828125-3.1552734375-.11083984375-6.6201171875-.0517578125-10.3955078125.05908203125-3.7744140625.2705078125-7.662109375.6357421875-11.666015625.3642578125-4.001953125.931640625-8.021484375,1.69921875-12.056640625.767578125-4.0341796875,1.83349609375-7.8916015625,3.19775390625-11.5712890625,1.36279296875-3.6767578125,3.052734375-7.09765625,5.06787109375-10.2607421875,2.01318359375-3.162109375,4.509765625-5.8779296875,7.48876953125-8.1474609375,3.51416015625-2.6357421875,7.48779296875-4.1337890625,11.9189453125-4.4931640625,4.4296875-.3583984375,8.70751953125.388671875,12.83056640625,2.2451171875ZM45.69189453125,127.345703125c5.04150390625-.8134765625,10.07177734375-1.5244140625,15.0908203125-2.134765625,5.01708984375-.607421875,10.0712890625-1.0390625,15.158203125-1.2880859375-.22119140625-5.7392578125-.87744140625-10.833984375-1.96728515625-15.287109375-1.09033203125-4.451171875-2.40771484375-8.1767578125-3.94677734375-11.173828125-1.53955078125-2.99609375-3.26318359375-5.248046875-5.16845703125-6.7568359375-1.90625-1.5068359375-3.78564453125-2.185546875-5.63818359375-2.0361328125-1.61181640625.130859375-3.21630859375,1.0927734375-4.81396484375,2.8828125-1.5986328125,1.79296875-3.01416015625,4.33984375-4.24560546875,7.640625-1.2333984375,3.3056640625-2.263671875,7.3408203125-3.0927734375,12.1103515625-.83056640625,4.76953125-1.2900390625,10.1181640625-1.3759765625,16.04296875Z"/>
            <path class="cls-1" d="M235.736328125,98.20703125c3.76611328125,2.451171875,6.67919921875,5.642578125,8.74169921875,9.5673828125,2.060546875,3.9296875,2.9453125,8.0927734375,2.654296875,12.49609375-.3271484375,4.9716796875-1.92529296875,9.2578125-4.79638671875,12.853515625-2.87060546875,3.5986328125-6.36279296875,6.5361328125-10.4755859375,8.8154296875-4.11376953125,2.2783203125-8.61962890625,3.9423828125-13.521484375,4.98828125-4.90185546875,1.044921875-9.546875,1.501953125-13.93603515625,1.3720703125-.3916015625.1923828125-.74560546875.3212890625-1.0634765625.3896484375-.3193359375.06640625-.6767578125.15625-1.07275390625.2685546875-1.443359375.197265625-2.93505859375.318359375-4.470703125.3623046875-1.537109375.0439453125-2.9482421875-.1064453125-4.23193359375-.447265625-1.28515625-.3388671875-2.4111328125-.978515625-3.3779296875-1.916015625-.96923828125-.93359375-1.60791015625-2.3212890625-1.9189453125-4.1611328125-.234375-.8720703125-.41845703125-2.66015625-.55615234375-5.3671875-.13916015625-2.7041015625-.32421875-5.994140625-.55615234375-9.8671875-.15966796875-3.9599609375-.365234375-8.259765625-.61962890625-12.90234375-.25390625-4.640625-.53125-9.3017578125-.82861328125-13.98046875-.41650390625-6.1279296875-.833984375-12.296875-1.25634765625-18.505859375-.42333984375-6.208984375-1.17041015625-12.4326171875-2.24169921875-18.669921875-.2216796875-.712890625-.1923828125-1.36328125.08447265625-1.953125.12158203125-.4970703125.44677734375-.9892578125.97509765625-1.478515625.52685546875-.4873046875,1.3486328125-.857421875,2.4638671875-1.111328125.79833984375-.14453125,1.67578125-.3369140625,2.62890625-.578125.9541015625-.23828125,1.9501953125-.4404296875,2.99169921875-.607421875,1.03955078125-.1630859375,2.0478515625-.2451171875,3.02099609375-.2451171875.97265625.00390625,1.83154296875.0947265625,2.57666015625.279296875,4.0625-.8955078125,8.36865234375-1.2666015625,12.92333984375-1.1083984375,4.55322265625.1591796875,8.88916015625.8818359375,13.0068359375,2.1689453125,4.11865234375,1.2900390625,7.7548828125,3.1630859375,10.91552734375,5.6220703125,3.158203125,2.4619140625,5.3779296875,5.5849609375,6.65771484375,9.3720703125.5390625,1.66015625.9248046875,3.4140625,1.15576171875,5.2587890625.2294921875,1.84765625.1845703125,3.7763671875-.1396484375,5.7880859375-.32275390625,2.0146484375-.94140625,4.1328125-1.8564453125,6.3544921875-.9140625,2.2216796875-2.20751953125,4.537109375-3.876953125,6.9423828125ZM203.7431640625,93.6220703125c3.8798828125-.150390625,7.109375-.818359375,9.689453125-2.0009765625,2.57958984375-1.181640625,4.470703125-2.6123046875,5.67236328125-4.291015625,1.2021484375-1.6767578125,1.70751953125-3.44140625,1.517578125-5.2919921875-.19189453125-1.84765625-1.02978515625-3.443359375-2.51611328125-4.7822265625-1.48779296875-1.337890625-3.6318359375-2.2783203125-6.431640625-2.8232421875-2.80078125-.54296875-6.27392578125-.3623046875-10.41552734375.5390625.49609375,3.123046875.9287109375,6.208984375,1.29736328125,9.2607421875.36962890625,3.052734375.763671875,6.181640625,1.1865234375,9.3896484375ZM206.9443359375,128.6337890625c4.38916015625.130859375,8.037109375-.3662109375,10.94677734375-1.494140625,2.9072265625-1.126953125,5.044921875-2.5166015625,6.412109375-4.169921875,1.36572265625-1.6494140625,1.99658203125-3.36328125,1.89453125-5.138671875-.103515625-1.7734375-.93212890625-3.248046875-2.486328125-4.4208984375-1.55419921875-1.169921875-3.8408203125-1.857421875-6.85595703125-2.05859375-3.01708984375-.201171875-6.73876953125.404296875-11.1640625,1.81640625l1.2529296875,15.4658203125Z"/>
          </g>
          <g>
            <path class="cls-1" d="M70.5986328125,69.990234375c3.2041015625,1.5244140625,5.99951171875,3.4873046875,8.3828125,5.8876953125,2.38427734375,2.404296875,4.44384765625,5.07421875,6.18310546875,8.013671875,1.73828125,2.94140625,3.1884765625,6.0869140625,4.3525390625,9.4365234375,1.1630859375,3.3544921875,2.126953125,6.7421875,2.8916015625,10.166015625,1.68212890625,6.755859375,2.88623046875,13.6298828125,3.61669921875,20.6259765625.728515625,6.994140625,1.177734375,14.0546875,1.35009765625,21.1748046875.00146484375,2.0263671875-.02490234375,3.6923828125-.08154296875,4.9921875-.05810546875,1.302734375-.27490234375,2.375-.65185546875,3.2158203125-.37841796875.841796875-.951171875,1.537109375-1.71630859375,2.083984375-.76708984375.5498046875-1.85791015625,1.08203125-3.275390625,1.6044921875-1.35791015625.2705078125-2.77783203125.5078125-4.26025390625.7099609375-1.48486328125.1982421875-2.90771484375-.08984375-4.2666015625-.8701171875-1.2734375-.7080078125-2.392578125-1.9970703125-3.353515625-3.865234375-.96240234375-1.8671875-1.63134765625-4.6103515625-2.00390625-8.2294921875l-.09814453125-1.208984375c-2.0341796875-.0771484375-4.44580078125-.083984375-7.23828125-.01953125-2.79296875.0634765625-5.64013671875.193359375-8.54296875.3876953125-2.9033203125.1953125-5.705078125.400390625-8.40234375.619140625-2.7001953125.21875-4.97509765625.4033203125-6.82763671875.5537109375-.02197265625.73046875-.0244140625,1.947265625-.0078125,3.6494140625.01611328125,1.701171875-.109375,3.4130859375-.37451171875,5.138671875-.26708984375,1.7236328125-.68701171875,3.298828125-1.25927734375,4.72265625-.57421875,1.4267578125-1.4619140625,2.2255859375-2.6630859375,2.40625-1.123046875.169921875-2.404296875.3544921875-3.8466796875.5537109375-1.4443359375.197265625-2.86767578125.150390625-4.2685546875-.140625-1.396484375-.208984375-2.59716796875-.7626953125-3.6005859375-1.654296875-1.00537109375-.8916015625-1.63330078125-2.3798828125-1.88232421875-4.46875-.2021484375-2.49609375-.39453125-5.359375-.57421875-8.58984375-.181640625-3.2265625-.30322265625-6.7431640625-.3681640625-10.5498046875-.09423828125-3.1552734375-.11083984375-6.6201171875-.0517578125-10.3955078125.05908203125-3.7744140625.2705078125-7.662109375.6357421875-11.666015625.3642578125-4.001953125.931640625-8.021484375,1.69921875-12.056640625.767578125-4.0341796875,1.83349609375-7.8916015625,3.19775390625-11.5712890625,1.36279296875-3.6767578125,3.052734375-7.09765625,5.06787109375-10.2607421875,2.01318359375-3.162109375,4.509765625-5.8779296875,7.48876953125-8.1474609375,3.51416015625-2.6357421875,7.48779296875-4.1337890625,11.9189453125-4.4931640625,4.4296875-.3583984375,8.70751953125.388671875,12.83056640625,2.2451171875ZM45.69189453125,127.345703125c5.04150390625-.8134765625,10.07177734375-1.5244140625,15.0908203125-2.134765625,5.01708984375-.607421875,10.0712890625-1.0390625,15.158203125-1.2880859375-.22119140625-5.7392578125-.87744140625-10.833984375-1.96728515625-15.287109375-1.09033203125-4.451171875-2.40771484375-8.1767578125-3.94677734375-11.173828125-1.53955078125-2.99609375-3.26318359375-5.248046875-5.16845703125-6.7568359375-1.90625-1.5068359375-3.78564453125-2.185546875-5.63818359375-2.0361328125-1.61181640625.130859375-3.21630859375,1.0927734375-4.81396484375,2.8828125-1.5986328125,1.79296875-3.01416015625,4.33984375-4.24560546875,7.640625-1.2333984375,3.3056640625-2.263671875,7.3408203125-3.0927734375,12.1103515625-.83056640625,4.76953125-1.2900390625,10.1181640625-1.3759765625,16.04296875Z"/>
            <path class="cls-1" d="M235.736328125,98.20703125c3.76611328125,2.451171875,6.67919921875,5.642578125,8.74169921875,9.5673828125,2.060546875,3.9296875,2.9453125,8.0927734375,2.654296875,12.49609375-.3271484375,4.9716796875-1.92529296875,9.2578125-4.79638671875,12.853515625-2.87060546875,3.5986328125-6.36279296875,6.5361328125-10.4755859375,8.8154296875-4.11376953125,2.2783203125-8.61962890625,3.9423828125-13.521484375,4.98828125-4.90185546875,1.044921875-9.546875,1.501953125-13.93603515625,1.3720703125-.3916015625.1923828125-.74560546875.3212890625-1.0634765625.3896484375-.3193359375.06640625-.6767578125.15625-1.07275390625.2685546875-1.443359375.197265625-2.93505859375.318359375-4.470703125.3623046875-1.537109375.0439453125-2.9482421875-.1064453125-4.23193359375-.447265625-1.28515625-.3388671875-2.4111328125-.978515625-3.3779296875-1.916015625-.96923828125-.93359375-1.60791015625-2.3212890625-1.9189453125-4.1611328125-.234375-.8720703125-.41845703125-2.66015625-.55615234375-5.3671875-.13916015625-2.7041015625-.32421875-5.994140625-.55615234375-9.8671875-.15966796875-3.9599609375-.365234375-8.259765625-.61962890625-12.90234375-.25390625-4.640625-.53125-9.3017578125-.82861328125-13.98046875-.41650390625-6.1279296875-.833984375-12.296875-1.25634765625-18.505859375-.42333984375-6.208984375-1.17041015625-12.4326171875-2.24169921875-18.669921875-.2216796875-.712890625-.1923828125-1.36328125.08447265625-1.953125.12158203125-.4970703125.44677734375-.9892578125.97509765625-1.478515625.52685546875-.4873046875,1.3486328125-.857421875,2.4638671875-1.111328125.79833984375-.14453125,1.67578125-.3369140625,2.62890625-.578125.9541015625-.23828125,1.9501953125-.4404296875,2.99169921875-.607421875,1.03955078125-.1630859375,2.0478515625-.2451171875,3.02099609375-.2451171875.97265625.00390625,1.83154296875.0947265625,2.57666015625.279296875,4.0625-.8955078125,8.36865234375-1.2666015625,12.92333984375-1.1083984375,4.55322265625.1591796875,8.88916015625.8818359375,13.0068359375,2.1689453125,4.11865234375,1.2900390625,7.7548828125,3.1630859375,10.91552734375,5.6220703125,3.158203125,2.4619140625,5.3779296875,5.5849609375,6.65771484375,9.3720703125.5390625,1.66015625.9248046875,3.4140625,1.15576171875,5.2587890625.2294921875,1.84765625.1845703125,3.7763671875-.1396484375,5.7880859375-.32275390625,2.0146484375-.94140625,4.1328125-1.8564453125,6.3544921875-.9140625,2.2216796875-2.20751953125,4.537109375-3.876953125,6.9423828125ZM203.7431640625,93.6220703125c3.8798828125-.150390625,7.109375-.818359375,9.689453125-2.0009765625,2.57958984375-1.181640625,4.470703125-2.6123046875,5.67236328125-4.291015625,1.2021484375-1.6767578125,1.70751953125-3.44140625,1.517578125-5.2919921875-.19189453125-1.84765625-1.02978515625-3.443359375-2.51611328125-4.7822265625-1.48779296875-1.337890625-3.6318359375-2.2783203125-6.431640625-2.8232421875-2.80078125-.54296875-6.27392578125-.3623046875-10.41552734375.5390625.49609375,3.123046875.9287109375,6.208984375,1.29736328125,9.2607421875.36962890625,3.052734375.763671875,6.181640625,1.1865234375,9.3896484375ZM206.9443359375,128.6337890625c4.38916015625.130859375,8.037109375-.3662109375,10.94677734375-1.494140625,2.9072265625-1.126953125,5.044921875-2.5166015625,6.412109375-4.169921875,1.36572265625-1.6494140625,1.99658203125-3.36328125,1.89453125-5.138671875-.103515625-1.7734375-.93212890625-3.248046875-2.486328125-4.4208984375-1.55419921875-1.169921875-3.8408203125-1.857421875-6.85595703125-2.05859375-3.01708984375-.201171875-6.73876953125.404296875-11.1640625,1.81640625l1.2529296875,15.4658203125Z"/>
          </g>
          <g>
            <path class="cls-1" d="M70.5986328125,69.990234375c3.2041015625,1.5244140625,5.99951171875,3.4873046875,8.3828125,5.8876953125,2.38427734375,2.404296875,4.44384765625,5.07421875,6.18310546875,8.013671875,1.73828125,2.94140625,3.1884765625,6.0869140625,4.3525390625,9.4365234375,1.1630859375,3.3544921875,2.126953125,6.7421875,2.8916015625,10.166015625,1.68212890625,6.755859375,2.88623046875,13.6298828125,3.61669921875,20.6259765625.728515625,6.994140625,1.177734375,14.0546875,1.35009765625,21.1748046875.00146484375,2.0263671875-.02490234375,3.6923828125-.08154296875,4.9921875-.05810546875,1.302734375-.27490234375,2.375-.65185546875,3.2158203125-.37841796875.841796875-.951171875,1.537109375-1.71630859375,2.083984375-.76708984375.5498046875-1.85791015625,1.08203125-3.275390625,1.6044921875-1.35791015625.2705078125-2.77783203125.5078125-4.26025390625.7099609375-1.48486328125.1982421875-2.90771484375-.08984375-4.2666015625-.8701171875-1.2734375-.7080078125-2.392578125-1.9970703125-3.353515625-3.865234375-.96240234375-1.8671875-1.63134765625-4.6103515625-2.00390625-8.2294921875l-.09814453125-1.208984375c-2.0341796875-.0771484375-4.44580078125-.083984375-7.23828125-.01953125-2.79296875.0634765625-5.64013671875.193359375-8.54296875.3876953125-2.9033203125.1953125-5.705078125.400390625-8.40234375.619140625-2.7001953125.21875-4.97509765625.4033203125-6.82763671875.5537109375-.02197265625.73046875-.0244140625,1.947265625-.0078125,3.6494140625.01611328125,1.701171875-.109375,3.4130859375-.37451171875,5.138671875-.26708984375,1.7236328125-.68701171875,3.298828125-1.25927734375,4.72265625-.57421875,1.4267578125-1.4619140625,2.2255859375-2.6630859375,2.40625-1.123046875.169921875-2.404296875.3544921875-3.8466796875.5537109375-1.4443359375.197265625-2.86767578125.150390625-4.2685546875-.140625-1.396484375-.208984375-2.59716796875-.7626953125-3.6005859375-1.654296875-1.00537109375-.8916015625-1.63330078125-2.3798828125-1.88232421875-4.46875-.2021484375-2.49609375-.39453125-5.359375-.57421875-8.58984375-.181640625-3.2265625-.30322265625-6.7431640625-.3681640625-10.5498046875-.09423828125-3.1552734375-.11083984375-6.6201171875-.0517578125-10.3955078125.05908203125-3.7744140625.2705078125-7.662109375.6357421875-11.666015625.3642578125-4.001953125.931640625-8.021484375,1.69921875-12.056640625.767578125-4.0341796875,1.83349609375-7.8916015625,3.19775390625-11.5712890625,1.36279296875-3.6767578125,3.052734375-7.09765625,5.06787109375-10.2607421875,2.01318359375-3.162109375,4.509765625-5.8779296875,7.48876953125-8.1474609375,3.51416015625-2.6357421875,7.48779296875-4.1337890625,11.9189453125-4.4931640625,4.4296875-.3583984375,8.70751953125.388671875,12.83056640625,2.2451171875ZM45.69189453125,127.345703125c5.04150390625-.8134765625,10.07177734375-1.5244140625,15.0908203125-2.134765625,5.01708984375-.607421875,10.0712890625-1.0390625,15.158203125-1.2880859375-.22119140625-5.7392578125-.87744140625-10.833984375-1.96728515625-15.287109375-1.09033203125-4.451171875-2.40771484375-8.1767578125-3.94677734375-11.173828125-1.53955078125-2.99609375-3.26318359375-5.248046875-5.16845703125-6.7568359375-1.90625-1.5068359375-3.78564453125-2.185546875-5.63818359375-2.0361328125-1.61181640625.130859375-3.21630859375,1.0927734375-4.81396484375,2.8828125-1.5986328125,1.79296875-3.01416015625,4.33984375-4.24560546875,7.640625-1.2333984375,3.3056640625-2.263671875,7.3408203125-3.0927734375,12.1103515625-.83056640625,4.76953125-1.2900390625,10.1181640625-1.3759765625,16.04296875Z"/>
            <path class="cls-1" d="M235.736328125,98.20703125c3.76611328125,2.451171875,6.67919921875,5.642578125,8.74169921875,9.5673828125,2.060546875,3.9296875,2.9453125,8.0927734375,2.654296875,12.49609375-.3271484375,4.9716796875-1.92529296875,9.2578125-4.79638671875,12.853515625-2.87060546875,3.5986328125-6.36279296875,6.5361328125-10.4755859375,8.8154296875-4.11376953125,2.2783203125-8.61962890625,3.9423828125-13.521484375,4.98828125-4.90185546875,1.044921875-9.546875,1.501953125-13.93603515625,1.3720703125-.3916015625.1923828125-.74560546875.3212890625-1.0634765625.3896484375-.3193359375.06640625-.6767578125.15625-1.07275390625.2685546875-1.443359375.197265625-2.93505859375.318359375-4.470703125.3623046875-1.537109375.0439453125-2.9482421875-.1064453125-4.23193359375-.447265625-1.28515625-.3388671875-2.4111328125-.978515625-3.3779296875-1.916015625-.96923828125-.93359375-1.60791015625-2.3212890625-1.9189453125-4.1611328125-.234375-.8720703125-.41845703125-2.66015625-.55615234375-5.3671875-.13916015625-2.7041015625-.32421875-5.994140625-.55615234375-9.8671875-.15966796875-3.9599609375-.365234375-8.259765625-.61962890625-12.90234375-.25390625-4.640625-.53125-9.3017578125-.82861328125-13.98046875-.41650390625-6.1279296875-.833984375-12.296875-1.25634765625-18.505859375-.42333984375-6.208984375-1.17041015625-12.4326171875-2.24169921875-18.669921875-.2216796875-.712890625-.1923828125-1.36328125.08447265625-1.953125.12158203125-.4970703125.44677734375-.9892578125.97509765625-1.478515625.52685546875-.4873046875,1.3486328125-.857421875,2.4638671875-1.111328125.79833984375-.14453125,1.67578125-.3369140625,2.62890625-.578125.9541015625-.23828125,1.9501953125-.4404296875,2.99169921875-.607421875,1.03955078125-.1630859375,2.0478515625-.2451171875,3.02099609375-.2451171875.97265625.00390625,1.83154296875.0947265625,2.57666015625.279296875,4.0625-.8955078125,8.36865234375-1.2666015625,12.92333984375-1.1083984375,4.55322265625.1591796875,8.88916015625.8818359375,13.0068359375,2.1689453125,4.11865234375,1.2900390625,7.7548828125,3.1630859375,10.91552734375,5.6220703125,3.158203125,2.4619140625,5.3779296875,5.5849609375,6.65771484375,9.3720703125.5390625,1.66015625.9248046875,3.4140625,1.15576171875,5.2587890625.2294921875,1.84765625.1845703125,3.7763671875-.1396484375,5.7880859375-.32275390625,2.0146484375-.94140625,4.1328125-1.8564453125,6.3544921875-.9140625,2.2216796875-2.20751953125,4.537109375-3.876953125,6.9423828125ZM203.7431640625,93.6220703125c3.8798828125-.150390625,7.109375-.818359375,9.689453125-2.0009765625,2.57958984375-1.181640625,4.470703125-2.6123046875,5.67236328125-4.291015625,1.2021484375-1.6767578125,1.70751953125-3.44140625,1.517578125-5.2919921875-.19189453125-1.84765625-1.02978515625-3.443359375-2.51611328125-4.7822265625-1.48779296875-1.337890625-3.6318359375-2.2783203125-6.431640625-2.8232421875-2.80078125-.54296875-6.27392578125-.3623046875-10.41552734375.5390625.49609375,3.123046875.9287109375,6.208984375,1.29736328125,9.2607421875.36962890625,3.052734375.763671875,6.181640625,1.1865234375,9.3896484375ZM206.9443359375,128.6337890625c4.38916015625.130859375,8.037109375-.3662109375,10.94677734375-1.494140625,2.9072265625-1.126953125,5.044921875-2.5166015625,6.412109375-4.169921875,1.36572265625-1.6494140625,1.99658203125-3.36328125,1.89453125-5.138671875-.103515625-1.7734375-.93212890625-3.248046875-2.486328125-4.4208984375-1.55419921875-1.169921875-3.8408203125-1.857421875-6.85595703125-2.05859375-3.01708984375-.201171875-6.73876953125.404296875-11.1640625,1.81640625l1.2529296875,15.4658203125Z"/>
          </g>
        </g>
      </a>
      <a xlink:href="https://www.notion.so/congruence/B-Event-1f1a5b08a72c49f5ab60f2e0793fd0a8?pvs=4">
        <g>
          <g>
            <path class="cls-2" d="M70.5986328125,69.990234375c3.2041015625,1.5244140625,5.99951171875,3.4873046875,8.3828125,5.8876953125,2.38427734375,2.404296875,4.44384765625,5.07421875,6.18310546875,8.013671875,1.73828125,2.94140625,3.1884765625,6.0869140625,4.3525390625,9.4365234375,1.1630859375,3.3544921875,2.126953125,6.7421875,2.8916015625,10.166015625,1.68212890625,6.755859375,2.88623046875,13.6298828125,3.61669921875,20.6259765625.728515625,6.994140625,1.177734375,14.0546875,1.35009765625,21.1748046875.00146484375,2.0263671875-.02490234375,3.6923828125-.08154296875,4.9921875-.05810546875,1.302734375-.27490234375,2.375-.65185546875,3.2158203125-.37841796875.841796875-.951171875,1.537109375-1.71630859375,2.083984375-.76708984375.5498046875-1.85791015625,1.08203125-3.275390625,1.6044921875-1.35791015625.2705078125-2.77783203125.5078125-4.26025390625.7099609375-1.48486328125.1982421875-2.90771484375-.08984375-4.2666015625-.8701171875-1.2734375-.7080078125-2.392578125-1.9970703125-3.353515625-3.865234375-.96240234375-1.8671875-1.63134765625-4.6103515625-2.00390625-8.2294921875l-.09814453125-1.208984375c-2.0341796875-.0771484375-4.44580078125-.083984375-7.23828125-.01953125-2.79296875.0634765625-5.64013671875.193359375-8.54296875.3876953125-2.9033203125.1953125-5.705078125.400390625-8.40234375.619140625-2.7001953125.21875-4.97509765625.4033203125-6.82763671875.5537109375-.02197265625.73046875-.0244140625,1.947265625-.0078125,3.6494140625.01611328125,1.701171875-.109375,3.4130859375-.37451171875,5.138671875-.26708984375,1.7236328125-.68701171875,3.298828125-1.25927734375,4.72265625-.57421875,1.4267578125-1.4619140625,2.2255859375-2.6630859375,2.40625-1.123046875.169921875-2.404296875.3544921875-3.8466796875.5537109375-1.4443359375.197265625-2.86767578125.150390625-4.2685546875-.140625-1.396484375-.208984375-2.59716796875-.7626953125-3.6005859375-1.654296875-1.00537109375-.8916015625-1.63330078125-2.3798828125-1.88232421875-4.46875-.2021484375-2.49609375-.39453125-5.359375-.57421875-8.58984375-.181640625-3.2265625-.30322265625-6.7431640625-.3681640625-10.5498046875-.09423828125-3.1552734375-.11083984375-6.6201171875-.0517578125-10.3955078125.05908203125-3.7744140625.2705078125-7.662109375.6357421875-11.666015625.3642578125-4.001953125.931640625-8.021484375,1.69921875-12.056640625.767578125-4.0341796875,1.83349609375-7.8916015625,3.19775390625-11.5712890625,1.36279296875-3.6767578125,3.052734375-7.09765625,5.06787109375-10.2607421875,2.01318359375-3.162109375,4.509765625-5.8779296875,7.48876953125-8.1474609375,3.51416015625-2.6357421875,7.48779296875-4.1337890625,11.9189453125-4.4931640625,4.4296875-.3583984375,8.70751953125.388671875,12.83056640625,2.2451171875ZM45.69189453125,127.345703125c5.04150390625-.8134765625,10.07177734375-1.5244140625,15.0908203125-2.134765625,5.01708984375-.607421875,10.0712890625-1.0390625,15.158203125-1.2880859375-.22119140625-5.7392578125-.87744140625-10.833984375-1.96728515625-15.287109375-1.09033203125-4.451171875-2.40771484375-8.1767578125-3.94677734375-11.173828125-1.53955078125-2.99609375-3.26318359375-5.248046875-5.16845703125-6.7568359375-1.90625-1.5068359375-3.78564453125-2.185546875-5.63818359375-2.0361328125-1.61181640625.130859375-3.21630859375,1.0927734375-4.81396484375,2.8828125-1.5986328125,1.79296875-3.01416015625,4.33984375-4.24560546875,7.640625-1.2333984375,3.3056640625-2.263671875,7.3408203125-3.0927734375,12.1103515625-.83056640625,4.76953125-1.2900390625,10.1181640625-1.3759765625,16.04296875Z"/>
            <path class="cls-2" d="M235.736328125,98.20703125c3.76611328125,2.451171875,6.67919921875,5.642578125,8.74169921875,9.5673828125,2.060546875,3.9296875,2.9453125,8.0927734375,2.654296875,12.49609375-.3271484375,4.9716796875-1.92529296875,9.2578125-4.79638671875,12.853515625-2.87060546875,3.5986328125-6.36279296875,6.5361328125-10.4755859375,8.8154296875-4.11376953125,2.2783203125-8.61962890625,3.9423828125-13.521484375,4.98828125-4.90185546875,1.044921875-9.546875,1.501953125-13.93603515625,1.3720703125-.3916015625.1923828125-.74560546875.3212890625-1.0634765625.3896484375-.3193359375.06640625-.6767578125.15625-1.07275390625.2685546875-1.443359375.197265625-2.93505859375.318359375-4.470703125.3623046875-1.537109375.0439453125-2.9482421875-.1064453125-4.23193359375-.447265625-1.28515625-.3388671875-2.4111328125-.978515625-3.3779296875-1.916015625-.96923828125-.93359375-1.60791015625-2.3212890625-1.9189453125-4.1611328125-.234375-.8720703125-.41845703125-2.66015625-.55615234375-5.3671875-.13916015625-2.7041015625-.32421875-5.994140625-.55615234375-9.8671875-.15966796875-3.9599609375-.365234375-8.259765625-.61962890625-12.90234375-.25390625-4.640625-.53125-9.3017578125-.82861328125-13.98046875-.41650390625-6.1279296875-.833984375-12.296875-1.25634765625-18.505859375-.42333984375-6.208984375-1.17041015625-12.4326171875-2.24169921875-18.669921875-.2216796875-.712890625-.1923828125-1.36328125.08447265625-1.953125.12158203125-.4970703125.44677734375-.9892578125.97509765625-1.478515625.52685546875-.4873046875,1.3486328125-.857421875,2.4638671875-1.111328125.79833984375-.14453125,1.67578125-.3369140625,2.62890625-.578125.9541015625-.23828125,1.9501953125-.4404296875,2.99169921875-.607421875,1.03955078125-.1630859375,2.0478515625-.2451171875,3.02099609375-.2451171875.97265625.00390625,1.83154296875.0947265625,2.57666015625.279296875,4.0625-.8955078125,8.36865234375-1.2666015625,12.92333984375-1.1083984375,4.55322265625.1591796875,8.88916015625.8818359375,13.0068359375,2.1689453125,4.11865234375,1.2900390625,7.7548828125,3.1630859375,10.91552734375,5.6220703125,3.158203125,2.4619140625,5.3779296875,5.5849609375,6.65771484375,9.3720703125.5390625,1.66015625.9248046875,3.4140625,1.15576171875,5.2587890625.2294921875,1.84765625.1845703125,3.7763671875-.1396484375,5.7880859375-.32275390625,2.0146484375-.94140625,4.1328125-1.8564453125,6.3544921875-.9140625,2.2216796875-2.20751953125,4.537109375-3.876953125,6.9423828125ZM203.7431640625,93.6220703125c3.8798828125-.150390625,7.109375-.818359375,9.689453125-2.0009765625,2.57958984375-1.181640625,4.470703125-2.6123046875,5.67236328125-4.291015625,1.2021484375-1.6767578125,1.70751953125-3.44140625,1.517578125-5.2919921875-.19189453125-1.84765625-1.02978515625-3.443359375-2.51611328125-4.7822265625-1.48779296875-1.337890625-3.6318359375-2.2783203125-6.431640625-2.8232421875-2.80078125-.54296875-6.27392578125-.3623046875-10.41552734375.5390625.49609375,3.123046875.9287109375,6.208984375,1.29736328125,9.2607421875.36962890625,3.052734375.763671875,6.181640625,1.1865234375,9.3896484375ZM206.9443359375,128.6337890625c4.38916015625.130859375,8.037109375-.3662109375,10.94677734375-1.494140625,2.9072265625-1.126953125,5.044921875-2.5166015625,6.412109375-4.169921875,1.36572265625-1.6494140625,1.99658203125-3.36328125,1.89453125-5.138671875-.103515625-1.7734375-.93212890625-3.248046875-2.486328125-4.4208984375-1.55419921875-1.169921875-3.8408203125-1.857421875-6.85595703125-2.05859375-3.01708984375-.201171875-6.73876953125.404296875-11.1640625,1.81640625l1.2529296875,15.4658203125Z"/>
          </g>
          <g>
            <path class="cls-2" d="M70.5986328125,69.990234375c3.2041015625,1.5244140625,5.99951171875,3.4873046875,8.3828125,5.8876953125,2.38427734375,2.404296875,4.44384765625,5.07421875,6.18310546875,8.013671875,1.73828125,2.94140625,3.1884765625,6.0869140625,4.3525390625,9.4365234375,1.1630859375,3.3544921875,2.126953125,6.7421875,2.8916015625,10.166015625,1.68212890625,6.755859375,2.88623046875,13.6298828125,3.61669921875,20.6259765625.728515625,6.994140625,1.177734375,14.0546875,1.35009765625,21.1748046875.00146484375,2.0263671875-.02490234375,3.6923828125-.08154296875,4.9921875-.05810546875,1.302734375-.27490234375,2.375-.65185546875,3.2158203125-.37841796875.841796875-.951171875,1.537109375-1.71630859375,2.083984375-.76708984375.5498046875-1.85791015625,1.08203125-3.275390625,1.6044921875-1.35791015625.2705078125-2.77783203125.5078125-4.26025390625.7099609375-1.48486328125.1982421875-2.90771484375-.08984375-4.2666015625-.8701171875-1.2734375-.7080078125-2.392578125-1.9970703125-3.353515625-3.865234375-.96240234375-1.8671875-1.63134765625-4.6103515625-2.00390625-8.2294921875l-.09814453125-1.208984375c-2.0341796875-.0771484375-4.44580078125-.083984375-7.23828125-.01953125-2.79296875.0634765625-5.64013671875.193359375-8.54296875.3876953125-2.9033203125.1953125-5.705078125.400390625-8.40234375.619140625-2.7001953125.21875-4.97509765625.4033203125-6.82763671875.5537109375-.02197265625.73046875-.0244140625,1.947265625-.0078125,3.6494140625.01611328125,1.701171875-.109375,3.4130859375-.37451171875,5.138671875-.26708984375,1.7236328125-.68701171875,3.298828125-1.25927734375,4.72265625-.57421875,1.4267578125-1.4619140625,2.2255859375-2.6630859375,2.40625-1.123046875.169921875-2.404296875.3544921875-3.8466796875.5537109375-1.4443359375.197265625-2.86767578125.150390625-4.2685546875-.140625-1.396484375-.208984375-2.59716796875-.7626953125-3.6005859375-1.654296875-1.00537109375-.8916015625-1.63330078125-2.3798828125-1.88232421875-4.46875-.2021484375-2.49609375-.39453125-5.359375-.57421875-8.58984375-.181640625-3.2265625-.30322265625-6.7431640625-.3681640625-10.5498046875-.09423828125-3.1552734375-.11083984375-6.6201171875-.0517578125-10.3955078125.05908203125-3.7744140625.2705078125-7.662109375.6357421875-11.666015625.3642578125-4.001953125.931640625-8.021484375,1.69921875-12.056640625.767578125-4.0341796875,1.83349609375-7.8916015625,3.19775390625-11.5712890625,1.36279296875-3.6767578125,3.052734375-7.09765625,5.06787109375-10.2607421875,2.01318359375-3.162109375,4.509765625-5.8779296875,7.48876953125-8.1474609375,3.51416015625-2.6357421875,7.48779296875-4.1337890625,11.9189453125-4.4931640625,4.4296875-.3583984375,8.70751953125.388671875,12.83056640625,2.2451171875ZM45.69189453125,127.345703125c5.04150390625-.8134765625,10.07177734375-1.5244140625,15.0908203125-2.134765625,5.01708984375-.607421875,10.0712890625-1.0390625,15.158203125-1.2880859375-.22119140625-5.7392578125-.87744140625-10.833984375-1.96728515625-15.287109375-1.09033203125-4.451171875-2.40771484375-8.1767578125-3.94677734375-11.173828125-1.53955078125-2.99609375-3.26318359375-5.248046875-5.16845703125-6.7568359375-1.90625-1.5068359375-3.78564453125-2.185546875-5.63818359375-2.0361328125-1.61181640625.130859375-3.21630859375,1.0927734375-4.81396484375,2.8828125-1.5986328125,1.79296875-3.01416015625,4.33984375-4.24560546875,7.640625-1.2333984375,3.3056640625-2.263671875,7.3408203125-3.0927734375,12.1103515625-.83056640625,4.76953125-1.2900390625,10.1181640625-1.3759765625,16.04296875Z"/>
            <path class="cls-2" d="M235.736328125,98.20703125c3.76611328125,2.451171875,6.67919921875,5.642578125,8.74169921875,9.5673828125,2.060546875,3.9296875,2.9453125,8.0927734375,2.654296875,12.49609375-.3271484375,4.9716796875-1.92529296875,9.2578125-4.79638671875,12.853515625-2.87060546875,3.5986328125-6.36279296875,6.5361328125-10.4755859375,8.8154296875-4.11376953125,2.2783203125-8.61962890625,3.9423828125-13.521484375,4.98828125-4.90185546875,1.044921875-9.546875,1.501953125-13.93603515625,1.3720703125-.3916015625.1923828125-.74560546875.3212890625-1.0634765625.3896484375-.3193359375.06640625-.6767578125.15625-1.07275390625.2685546875-1.443359375.197265625-2.93505859375.318359375-4.470703125.3623046875-1.537109375.0439453125-2.9482421875-.1064453125-4.23193359375-.447265625-1.28515625-.3388671875-2.4111328125-.978515625-3.3779296875-1.916015625-.96923828125-.93359375-1.60791015625-2.3212890625-1.9189453125-4.1611328125-.234375-.8720703125-.41845703125-2.66015625-.55615234375-5.3671875-.13916015625-2.7041015625-.32421875-5.994140625-.55615234375-9.8671875-.15966796875-3.9599609375-.365234375-8.259765625-.61962890625-12.90234375-.25390625-4.640625-.53125-9.3017578125-.82861328125-13.98046875-.41650390625-6.1279296875-.833984375-12.296875-1.25634765625-18.505859375-.42333984375-6.208984375-1.17041015625-12.4326171875-2.24169921875-18.669921875-.2216796875-.712890625-.1923828125-1.36328125.08447265625-1.953125.12158203125-.4970703125.44677734375-.9892578125.97509765625-1.478515625.52685546875-.4873046875,1.3486328125-.857421875,2.4638671875-1.111328125.79833984375-.14453125,1.67578125-.3369140625,2.62890625-.578125.9541015625-.23828125,1.9501953125-.4404296875,2.99169921875-.607421875,1.03955078125-.1630859375,2.0478515625-.2451171875,3.02099609375-.2451171875.97265625.00390625,1.83154296875.0947265625,2.57666015625.279296875,4.0625-.8955078125,8.36865234375-1.2666015625,12.92333984375-1.1083984375,4.55322265625.1591796875,8.88916015625.8818359375,13.0068359375,2.1689453125,4.11865234375,1.2900390625,7.7548828125,3.1630859375,10.91552734375,5.6220703125,3.158203125,2.4619140625,5.3779296875,5.5849609375,6.65771484375,9.3720703125.5390625,1.66015625.9248046875,3.4140625,1.15576171875,5.2587890625.2294921875,1.84765625.1845703125,3.7763671875-.1396484375,5.7880859375-.32275390625,2.0146484375-.94140625,4.1328125-1.8564453125,6.3544921875-.9140625,2.2216796875-2.20751953125,4.537109375-3.876953125,6.9423828125ZM203.7431640625,93.6220703125c3.8798828125-.150390625,7.109375-.818359375,9.689453125-2.0009765625,2.57958984375-1.181640625,4.470703125-2.6123046875,5.67236328125-4.291015625,1.2021484375-1.6767578125,1.70751953125-3.44140625,1.517578125-5.2919921875-.19189453125-1.84765625-1.02978515625-3.443359375-2.51611328125-4.7822265625-1.48779296875-1.337890625-3.6318359375-2.2783203125-6.431640625-2.8232421875-2.80078125-.54296875-6.27392578125-.3623046875-10.41552734375.5390625.49609375,3.123046875.9287109375,6.208984375,1.29736328125,9.2607421875.36962890625,3.052734375.763671875,6.181640625,1.1865234375,9.3896484375ZM206.9443359375,128.6337890625c4.38916015625.130859375,8.037109375-.3662109375,10.94677734375-1.494140625,2.9072265625-1.126953125,5.044921875-2.5166015625,6.412109375-4.169921875,1.36572265625-1.6494140625,1.99658203125-3.36328125,1.89453125-5.138671875-.103515625-1.7734375-.93212890625-3.248046875-2.486328125-4.4208984375-1.55419921875-1.169921875-3.8408203125-1.857421875-6.85595703125-2.05859375-3.01708984375-.201171875-6.73876953125.404296875-11.1640625,1.81640625l1.2529296875,15.4658203125Z"/>
          </g>
          <g>
            <path class="cls-2" d="M70.5986328125,69.990234375c3.2041015625,1.5244140625,5.99951171875,3.4873046875,8.3828125,5.8876953125,2.38427734375,2.404296875,4.44384765625,5.07421875,6.18310546875,8.013671875,1.73828125,2.94140625,3.1884765625,6.0869140625,4.3525390625,9.4365234375,1.1630859375,3.3544921875,2.126953125,6.7421875,2.8916015625,10.166015625,1.68212890625,6.755859375,2.88623046875,13.6298828125,3.61669921875,20.6259765625.728515625,6.994140625,1.177734375,14.0546875,1.35009765625,21.1748046875.00146484375,2.0263671875-.02490234375,3.6923828125-.08154296875,4.9921875-.05810546875,1.302734375-.27490234375,2.375-.65185546875,3.2158203125-.37841796875.841796875-.951171875,1.537109375-1.71630859375,2.083984375-.76708984375.5498046875-1.85791015625,1.08203125-3.275390625,1.6044921875-1.35791015625.2705078125-2.77783203125.5078125-4.26025390625.7099609375-1.48486328125.1982421875-2.90771484375-.08984375-4.2666015625-.8701171875-1.2734375-.7080078125-2.392578125-1.9970703125-3.353515625-3.865234375-.96240234375-1.8671875-1.63134765625-4.6103515625-2.00390625-8.2294921875l-.09814453125-1.208984375c-2.0341796875-.0771484375-4.44580078125-.083984375-7.23828125-.01953125-2.79296875.0634765625-5.64013671875.193359375-8.54296875.3876953125-2.9033203125.1953125-5.705078125.400390625-8.40234375.619140625-2.7001953125.21875-4.97509765625.4033203125-6.82763671875.5537109375-.02197265625.73046875-.0244140625,1.947265625-.0078125,3.6494140625.01611328125,1.701171875-.109375,3.4130859375-.37451171875,5.138671875-.26708984375,1.7236328125-.68701171875,3.298828125-1.25927734375,4.72265625-.57421875,1.4267578125-1.4619140625,2.2255859375-2.6630859375,2.40625-1.123046875.169921875-2.404296875.3544921875-3.8466796875.5537109375-1.4443359375.197265625-2.86767578125.150390625-4.2685546875-.140625-1.396484375-.208984375-2.59716796875-.7626953125-3.6005859375-1.654296875-1.00537109375-.8916015625-1.63330078125-2.3798828125-1.88232421875-4.46875-.2021484375-2.49609375-.39453125-5.359375-.57421875-8.58984375-.181640625-3.2265625-.30322265625-6.7431640625-.3681640625-10.5498046875-.09423828125-3.1552734375-.11083984375-6.6201171875-.0517578125-10.3955078125.05908203125-3.7744140625.2705078125-7.662109375.6357421875-11.666015625.3642578125-4.001953125.931640625-8.021484375,1.69921875-12.056640625.767578125-4.0341796875,1.83349609375-7.8916015625,3.19775390625-11.5712890625,1.36279296875-3.6767578125,3.052734375-7.09765625,5.06787109375-10.2607421875,2.01318359375-3.162109375,4.509765625-5.8779296875,7.48876953125-8.1474609375,3.51416015625-2.6357421875,7.48779296875-4.1337890625,11.9189453125-4.4931640625,4.4296875-.3583984375,8.70751953125.388671875,12.83056640625,2.2451171875ZM45.69189453125,127.345703125c5.04150390625-.8134765625,10.07177734375-1.5244140625,15.0908203125-2.134765625,5.01708984375-.607421875,10.0712890625-1.0390625,15.158203125-1.2880859375-.22119140625-5.7392578125-.87744140625-10.833984375-1.96728515625-15.287109375-1.09033203125-4.451171875-2.40771484375-8.1767578125-3.94677734375-11.173828125-1.53955078125-2.99609375-3.26318359375-5.248046875-5.16845703125-6.7568359375-1.90625-1.5068359375-3.78564453125-2.185546875-5.63818359375-2.0361328125-1.61181640625.130859375-3.21630859375,1.0927734375-4.81396484375,2.8828125-1.5986328125,1.79296875-3.01416015625,4.33984375-4.24560546875,7.640625-1.2333984375,3.3056640625-2.263671875,7.3408203125-3.0927734375,12.1103515625-.83056640625,4.76953125-1.2900390625,10.1181640625-1.3759765625,16.04296875Z"/>
            <path class="cls-2" d="M235.736328125,98.20703125c3.76611328125,2.451171875,6.67919921875,5.642578125,8.74169921875,9.5673828125,2.060546875,3.9296875,2.9453125,8.0927734375,2.654296875,12.49609375-.3271484375,4.9716796875-1.92529296875,9.2578125-4.79638671875,12.853515625-2.87060546875,3.5986328125-6.36279296875,6.5361328125-10.4755859375,8.8154296875-4.11376953125,2.2783203125-8.61962890625,3.9423828125-13.521484375,4.98828125-4.90185546875,1.044921875-9.546875,1.501953125-13.93603515625,1.3720703125-.3916015625.1923828125-.74560546875.3212890625-1.0634765625.3896484375-.3193359375.06640625-.6767578125.15625-1.07275390625.2685546875-1.443359375.197265625-2.93505859375.318359375-4.470703125.3623046875-1.537109375.0439453125-2.9482421875-.1064453125-4.23193359375-.447265625-1.28515625-.3388671875-2.4111328125-.978515625-3.3779296875-1.916015625-.96923828125-.93359375-1.60791015625-2.3212890625-1.9189453125-4.1611328125-.234375-.8720703125-.41845703125-2.66015625-.55615234375-5.3671875-.13916015625-2.7041015625-.32421875-5.994140625-.55615234375-9.8671875-.15966796875-3.9599609375-.365234375-8.259765625-.61962890625-12.90234375-.25390625-4.640625-.53125-9.3017578125-.82861328125-13.98046875-.41650390625-6.1279296875-.833984375-12.296875-1.25634765625-18.505859375-.42333984375-6.208984375-1.17041015625-12.4326171875-2.24169921875-18.669921875-.2216796875-.712890625-.1923828125-1.36328125.08447265625-1.953125.12158203125-.4970703125.44677734375-.9892578125.97509765625-1.478515625.52685546875-.4873046875,1.3486328125-.857421875,2.4638671875-1.111328125.79833984375-.14453125,1.67578125-.3369140625,2.62890625-.578125.9541015625-.23828125,1.9501953125-.4404296875,2.99169921875-.607421875,1.03955078125-.1630859375,2.0478515625-.2451171875,3.02099609375-.2451171875.97265625.00390625,1.83154296875.0947265625,2.57666015625.279296875,4.0625-.8955078125,8.36865234375-1.2666015625,12.92333984375-1.1083984375,4.55322265625.1591796875,8.88916015625.8818359375,13.0068359375,2.1689453125,4.11865234375,1.2900390625,7.7548828125,3.1630859375,10.91552734375,5.6220703125,3.158203125,2.4619140625,5.3779296875,5.5849609375,6.65771484375,9.3720703125.5390625,1.66015625.9248046875,3.4140625,1.15576171875,5.2587890625.2294921875,1.84765625.1845703125,3.7763671875-.1396484375,5.7880859375-.32275390625,2.0146484375-.94140625,4.1328125-1.8564453125,6.3544921875-.9140625,2.2216796875-2.20751953125,4.537109375-3.876953125,6.9423828125ZM203.7431640625,93.6220703125c3.8798828125-.150390625,7.109375-.818359375,9.689453125-2.0009765625,2.57958984375-1.181640625,4.470703125-2.6123046875,5.67236328125-4.291015625,1.2021484375-1.6767578125,1.70751953125-3.44140625,1.517578125-5.2919921875-.19189453125-1.84765625-1.02978515625-3.443359375-2.51611328125-4.7822265625-1.48779296875-1.337890625-3.6318359375-2.2783203125-6.431640625-2.8232421875-2.80078125-.54296875-6.27392578125-.3623046875-10.41552734375.5390625.49609375,3.123046875.9287109375,6.208984375,1.29736328125,9.2607421875.36962890625,3.052734375.763671875,6.181640625,1.1865234375,9.3896484375ZM206.9443359375,128.6337890625c4.38916015625.130859375,8.037109375-.3662109375,10.94677734375-1.494140625,2.9072265625-1.126953125,5.044921875-2.5166015625,6.412109375-4.169921875,1.36572265625-1.6494140625,1.99658203125-3.36328125,1.89453125-5.138671875-.103515625-1.7734375-.93212890625-3.248046875-2.486328125-4.4208984375-1.55419921875-1.169921875-3.8408203125-1.857421875-6.85595703125-2.05859375-3.01708984375-.201171875-6.73876953125.404296875-11.1640625,1.81640625l1.2529296875,15.4658203125Z"/>
          </g>
        </g>
      </a>
      <a xlink:href="https://www.notion.so/congruence/B-Event-1f1a5b08a72c49f5ab60f2e0793fd0a8?pvs=4">
        <g>
          <g>
            <path class="cls-3" d="M70.5986328125,69.990234375c3.2041015625,1.5244140625,5.99951171875,3.4873046875,8.3828125,5.8876953125,2.38427734375,2.404296875,4.44384765625,5.07421875,6.18310546875,8.013671875,1.73828125,2.94140625,3.1884765625,6.0869140625,4.3525390625,9.4365234375,1.1630859375,3.3544921875,2.126953125,6.7421875,2.8916015625,10.166015625,1.68212890625,6.755859375,2.88623046875,13.6298828125,3.61669921875,20.6259765625.728515625,6.994140625,1.177734375,14.0546875,1.35009765625,21.1748046875.00146484375,2.0263671875-.02490234375,3.6923828125-.08154296875,4.9921875-.05810546875,1.302734375-.27490234375,2.375-.65185546875,3.2158203125-.37841796875.841796875-.951171875,1.537109375-1.71630859375,2.083984375-.76708984375.5498046875-1.85791015625,1.08203125-3.275390625,1.6044921875-1.35791015625.2705078125-2.77783203125.5078125-4.26025390625.7099609375-1.48486328125.1982421875-2.90771484375-.08984375-4.2666015625-.8701171875-1.2734375-.7080078125-2.392578125-1.9970703125-3.353515625-3.865234375-.96240234375-1.8671875-1.63134765625-4.6103515625-2.00390625-8.2294921875l-.09814453125-1.208984375c-2.0341796875-.0771484375-4.44580078125-.083984375-7.23828125-.01953125-2.79296875.0634765625-5.64013671875.193359375-8.54296875.3876953125-2.9033203125.1953125-5.705078125.400390625-8.40234375.619140625-2.7001953125.21875-4.97509765625.4033203125-6.82763671875.5537109375-.02197265625.73046875-.0244140625,1.947265625-.0078125,3.6494140625.01611328125,1.701171875-.109375,3.4130859375-.37451171875,5.138671875-.26708984375,1.7236328125-.68701171875,3.298828125-1.25927734375,4.72265625-.57421875,1.4267578125-1.4619140625,2.2255859375-2.6630859375,2.40625-1.123046875.169921875-2.404296875.3544921875-3.8466796875.5537109375-1.4443359375.197265625-2.86767578125.150390625-4.2685546875-.140625-1.396484375-.208984375-2.59716796875-.7626953125-3.6005859375-1.654296875-1.00537109375-.8916015625-1.63330078125-2.3798828125-1.88232421875-4.46875-.2021484375-2.49609375-.39453125-5.359375-.57421875-8.58984375-.181640625-3.2265625-.30322265625-6.7431640625-.3681640625-10.5498046875-.09423828125-3.1552734375-.11083984375-6.6201171875-.0517578125-10.3955078125.05908203125-3.7744140625.2705078125-7.662109375.6357421875-11.666015625.3642578125-4.001953125.931640625-8.021484375,1.69921875-12.056640625.767578125-4.0341796875,1.83349609375-7.8916015625,3.19775390625-11.5712890625,1.36279296875-3.6767578125,3.052734375-7.09765625,5.06787109375-10.2607421875,2.01318359375-3.162109375,4.509765625-5.8779296875,7.48876953125-8.1474609375,3.51416015625-2.6357421875,7.48779296875-4.1337890625,11.9189453125-4.4931640625,4.4296875-.3583984375,8.70751953125.388671875,12.83056640625,2.2451171875ZM45.69189453125,127.345703125c5.04150390625-.8134765625,10.07177734375-1.5244140625,15.0908203125-2.134765625,5.01708984375-.607421875,10.0712890625-1.0390625,15.158203125-1.2880859375-.22119140625-5.7392578125-.87744140625-10.833984375-1.96728515625-15.287109375-1.09033203125-4.451171875-2.40771484375-8.1767578125-3.94677734375-11.173828125-1.53955078125-2.99609375-3.26318359375-5.248046875-5.16845703125-6.7568359375-1.90625-1.5068359375-3.78564453125-2.185546875-5.63818359375-2.0361328125-1.61181640625.130859375-3.21630859375,1.0927734375-4.81396484375,2.8828125-1.5986328125,1.79296875-3.01416015625,4.33984375-4.24560546875,7.640625-1.2333984375,3.3056640625-2.263671875,7.3408203125-3.0927734375,12.1103515625-.83056640625,4.76953125-1.2900390625,10.1181640625-1.3759765625,16.04296875Z"/>
            <path class="cls-3" d="M235.736328125,98.20703125c3.76611328125,2.451171875,6.67919921875,5.642578125,8.74169921875,9.5673828125,2.060546875,3.9296875,2.9453125,8.0927734375,2.654296875,12.49609375-.3271484375,4.9716796875-1.92529296875,9.2578125-4.79638671875,12.853515625-2.87060546875,3.5986328125-6.36279296875,6.5361328125-10.4755859375,8.8154296875-4.11376953125,2.2783203125-8.61962890625,3.9423828125-13.521484375,4.98828125-4.90185546875,1.044921875-9.546875,1.501953125-13.93603515625,1.3720703125-.3916015625.1923828125-.74560546875.3212890625-1.0634765625.3896484375-.3193359375.06640625-.6767578125.15625-1.07275390625.2685546875-1.443359375.197265625-2.93505859375.318359375-4.470703125.3623046875-1.537109375.0439453125-2.9482421875-.1064453125-4.23193359375-.447265625-1.28515625-.3388671875-2.4111328125-.978515625-3.3779296875-1.916015625-.96923828125-.93359375-1.60791015625-2.3212890625-1.9189453125-4.1611328125-.234375-.8720703125-.41845703125-2.66015625-.55615234375-5.3671875-.13916015625-2.7041015625-.32421875-5.994140625-.55615234375-9.8671875-.15966796875-3.9599609375-.365234375-8.259765625-.61962890625-12.90234375-.25390625-4.640625-.53125-9.3017578125-.82861328125-13.98046875-.41650390625-6.1279296875-.833984375-12.296875-1.25634765625-18.505859375-.42333984375-6.208984375-1.17041015625-12.4326171875-2.24169921875-18.669921875-.2216796875-.712890625-.1923828125-1.36328125.08447265625-1.953125.12158203125-.4970703125.44677734375-.9892578125.97509765625-1.478515625.52685546875-.4873046875,1.3486328125-.857421875,2.4638671875-1.111328125.79833984375-.14453125,1.67578125-.3369140625,2.62890625-.578125.9541015625-.23828125,1.9501953125-.4404296875,2.99169921875-.607421875,1.03955078125-.1630859375,2.0478515625-.2451171875,3.02099609375-.2451171875.97265625.00390625,1.83154296875.0947265625,2.57666015625.279296875,4.0625-.8955078125,8.36865234375-1.2666015625,12.92333984375-1.1083984375,4.55322265625.1591796875,8.88916015625.8818359375,13.0068359375,2.1689453125,4.11865234375,1.2900390625,7.7548828125,3.1630859375,10.91552734375,5.6220703125,3.158203125,2.4619140625,5.3779296875,5.5849609375,6.65771484375,9.3720703125.5390625,1.66015625.9248046875,3.4140625,1.15576171875,5.2587890625.2294921875,1.84765625.1845703125,3.7763671875-.1396484375,5.7880859375-.32275390625,2.0146484375-.94140625,4.1328125-1.8564453125,6.3544921875-.9140625,2.2216796875-2.20751953125,4.537109375-3.876953125,6.9423828125ZM203.7431640625,93.6220703125c3.8798828125-.150390625,7.109375-.818359375,9.689453125-2.0009765625,2.57958984375-1.181640625,4.470703125-2.6123046875,5.67236328125-4.291015625,1.2021484375-1.6767578125,1.70751953125-3.44140625,1.517578125-5.2919921875-.19189453125-1.84765625-1.02978515625-3.443359375-2.51611328125-4.7822265625-1.48779296875-1.337890625-3.6318359375-2.2783203125-6.431640625-2.8232421875-2.80078125-.54296875-6.27392578125-.3623046875-10.41552734375.5390625.49609375,3.123046875.9287109375,6.208984375,1.29736328125,9.2607421875.36962890625,3.052734375.763671875,6.181640625,1.1865234375,9.3896484375ZM206.9443359375,128.6337890625c4.38916015625.130859375,8.037109375-.3662109375,10.94677734375-1.494140625,2.9072265625-1.126953125,5.044921875-2.5166015625,6.412109375-4.169921875,1.36572265625-1.6494140625,1.99658203125-3.36328125,1.89453125-5.138671875-.103515625-1.7734375-.93212890625-3.248046875-2.486328125-4.4208984375-1.55419921875-1.169921875-3.8408203125-1.857421875-6.85595703125-2.05859375-3.01708984375-.201171875-6.73876953125.404296875-11.1640625,1.81640625l1.2529296875,15.4658203125Z"/>
          </g>
          <g>
            <path class="cls-3" d="M70.5986328125,69.990234375c3.2041015625,1.5244140625,5.99951171875,3.4873046875,8.3828125,5.8876953125,2.38427734375,2.404296875,4.44384765625,5.07421875,6.18310546875,8.013671875,1.73828125,2.94140625,3.1884765625,6.0869140625,4.3525390625,9.4365234375,1.1630859375,3.3544921875,2.126953125,6.7421875,2.8916015625,10.166015625,1.68212890625,6.755859375,2.88623046875,13.6298828125,3.61669921875,20.6259765625.728515625,6.994140625,1.177734375,14.0546875,1.35009765625,21.1748046875.00146484375,2.0263671875-.02490234375,3.6923828125-.08154296875,4.9921875-.05810546875,1.302734375-.27490234375,2.375-.65185546875,3.2158203125-.37841796875.841796875-.951171875,1.537109375-1.71630859375,2.083984375-.76708984375.5498046875-1.85791015625,1.08203125-3.275390625,1.6044921875-1.35791015625.2705078125-2.77783203125.5078125-4.26025390625.7099609375-1.48486328125.1982421875-2.90771484375-.08984375-4.2666015625-.8701171875-1.2734375-.7080078125-2.392578125-1.9970703125-3.353515625-3.865234375-.96240234375-1.8671875-1.63134765625-4.6103515625-2.00390625-8.2294921875l-.09814453125-1.208984375c-2.0341796875-.0771484375-4.44580078125-.083984375-7.23828125-.01953125-2.79296875.0634765625-5.64013671875.193359375-8.54296875.3876953125-2.9033203125.1953125-5.705078125.400390625-8.40234375.619140625-2.7001953125.21875-4.97509765625.4033203125-6.82763671875.5537109375-.02197265625.73046875-.0244140625,1.947265625-.0078125,3.6494140625.01611328125,1.701171875-.109375,3.4130859375-.37451171875,5.138671875-.26708984375,1.7236328125-.68701171875,3.298828125-1.25927734375,4.72265625-.57421875,1.4267578125-1.4619140625,2.2255859375-2.6630859375,2.40625-1.123046875.169921875-2.404296875.3544921875-3.8466796875.5537109375-1.4443359375.197265625-2.86767578125.150390625-4.2685546875-.140625-1.396484375-.208984375-2.59716796875-.7626953125-3.6005859375-1.654296875-1.00537109375-.8916015625-1.63330078125-2.3798828125-1.88232421875-4.46875-.2021484375-2.49609375-.39453125-5.359375-.57421875-8.58984375-.181640625-3.2265625-.30322265625-6.7431640625-.3681640625-10.5498046875-.09423828125-3.1552734375-.11083984375-6.6201171875-.0517578125-10.3955078125.05908203125-3.7744140625.2705078125-7.662109375.6357421875-11.666015625.3642578125-4.001953125.931640625-8.021484375,1.69921875-12.056640625.767578125-4.0341796875,1.83349609375-7.8916015625,3.19775390625-11.5712890625,1.36279296875-3.6767578125,3.052734375-7.09765625,5.06787109375-10.2607421875,2.01318359375-3.162109375,4.509765625-5.8779296875,7.48876953125-8.1474609375,3.51416015625-2.6357421875,7.48779296875-4.1337890625,11.9189453125-4.4931640625,4.4296875-.3583984375,8.70751953125.388671875,12.83056640625,2.2451171875ZM45.69189453125,127.345703125c5.04150390625-.8134765625,10.07177734375-1.5244140625,15.0908203125-2.134765625,5.01708984375-.607421875,10.0712890625-1.0390625,15.158203125-1.2880859375-.22119140625-5.7392578125-.87744140625-10.833984375-1.96728515625-15.287109375-1.09033203125-4.451171875-2.40771484375-8.1767578125-3.94677734375-11.173828125-1.53955078125-2.99609375-3.26318359375-5.248046875-5.16845703125-6.7568359375-1.90625-1.5068359375-3.78564453125-2.185546875-5.63818359375-2.0361328125-1.61181640625.130859375-3.21630859375,1.0927734375-4.81396484375,2.8828125-1.5986328125,1.79296875-3.01416015625,4.33984375-4.24560546875,7.640625-1.2333984375,3.3056640625-2.263671875,7.3408203125-3.0927734375,12.1103515625-.83056640625,4.76953125-1.2900390625,10.1181640625-1.3759765625,16.04296875Z"/>
            <path class="cls-3" d="M235.736328125,98.20703125c3.76611328125,2.451171875,6.67919921875,5.642578125,8.74169921875,9.5673828125,2.060546875,3.9296875,2.9453125,8.0927734375,2.654296875,12.49609375-.3271484375,4.9716796875-1.92529296875,9.2578125-4.79638671875,12.853515625-2.87060546875,3.5986328125-6.36279296875,6.5361328125-10.4755859375,8.8154296875-4.11376953125,2.2783203125-8.61962890625,3.9423828125-13.521484375,4.98828125-4.90185546875,1.044921875-9.546875,1.501953125-13.93603515625,1.3720703125-.3916015625.1923828125-.74560546875.3212890625-1.0634765625.3896484375-.3193359375.06640625-.6767578125.15625-1.07275390625.2685546875-1.443359375.197265625-2.93505859375.318359375-4.470703125.3623046875-1.537109375.0439453125-2.9482421875-.1064453125-4.23193359375-.447265625-1.28515625-.3388671875-2.4111328125-.978515625-3.3779296875-1.916015625-.96923828125-.93359375-1.60791015625-2.3212890625-1.9189453125-4.1611328125-.234375-.8720703125-.41845703125-2.66015625-.55615234375-5.3671875-.13916015625-2.7041015625-.32421875-5.994140625-.55615234375-9.8671875-.15966796875-3.9599609375-.365234375-8.259765625-.61962890625-12.90234375-.25390625-4.640625-.53125-9.3017578125-.82861328125-13.98046875-.41650390625-6.1279296875-.833984375-12.296875-1.25634765625-18.505859375-.42333984375-6.208984375-1.17041015625-12.4326171875-2.24169921875-18.669921875-.2216796875-.712890625-.1923828125-1.36328125.08447265625-1.953125.12158203125-.4970703125.44677734375-.9892578125.97509765625-1.478515625.52685546875-.4873046875,1.3486328125-.857421875,2.4638671875-1.111328125.79833984375-.14453125,1.67578125-.3369140625,2.62890625-.578125.9541015625-.23828125,1.9501953125-.4404296875,2.99169921875-.607421875,1.03955078125-.1630859375,2.0478515625-.2451171875,3.02099609375-.2451171875.97265625.00390625,1.83154296875.0947265625,2.57666015625.279296875,4.0625-.8955078125,8.36865234375-1.2666015625,12.92333984375-1.1083984375,4.55322265625.1591796875,8.88916015625.8818359375,13.0068359375,2.1689453125,4.11865234375,1.2900390625,7.7548828125,3.1630859375,10.91552734375,5.6220703125,3.158203125,2.4619140625,5.3779296875,5.5849609375,6.65771484375,9.3720703125.5390625,1.66015625.9248046875,3.4140625,1.15576171875,5.2587890625.2294921875,1.84765625.1845703125,3.7763671875-.1396484375,5.7880859375-.32275390625,2.0146484375-.94140625,4.1328125-1.8564453125,6.3544921875-.9140625,2.2216796875-2.20751953125,4.537109375-3.876953125,6.9423828125ZM203.7431640625,93.6220703125c3.8798828125-.150390625,7.109375-.818359375,9.689453125-2.0009765625,2.57958984375-1.181640625,4.470703125-2.6123046875,5.67236328125-4.291015625,1.2021484375-1.6767578125,1.70751953125-3.44140625,1.517578125-5.2919921875-.19189453125-1.84765625-1.02978515625-3.443359375-2.51611328125-4.7822265625-1.48779296875-1.337890625-3.6318359375-2.2783203125-6.431640625-2.8232421875-2.80078125-.54296875-6.27392578125-.3623046875-10.41552734375.5390625.49609375,3.123046875.9287109375,6.208984375,1.29736328125,9.2607421875.36962890625,3.052734375.763671875,6.181640625,1.1865234375,9.3896484375ZM206.9443359375,128.6337890625c4.38916015625.130859375,8.037109375-.3662109375,10.94677734375-1.494140625,2.9072265625-1.126953125,5.044921875-2.5166015625,6.412109375-4.169921875,1.36572265625-1.6494140625,1.99658203125-3.36328125,1.89453125-5.138671875-.103515625-1.7734375-.93212890625-3.248046875-2.486328125-4.4208984375-1.55419921875-1.169921875-3.8408203125-1.857421875-6.85595703125-2.05859375-3.01708984375-.201171875-6.73876953125.404296875-11.1640625,1.81640625l1.2529296875,15.4658203125Z"/>
          </g>
          <g>
            <path class="cls-3" d="M70.5986328125,69.990234375c3.2041015625,1.5244140625,5.99951171875,3.4873046875,8.3828125,5.8876953125,2.38427734375,2.404296875,4.44384765625,5.07421875,6.18310546875,8.013671875,1.73828125,2.94140625,3.1884765625,6.0869140625,4.3525390625,9.4365234375,1.1630859375,3.3544921875,2.126953125,6.7421875,2.8916015625,10.166015625,1.68212890625,6.755859375,2.88623046875,13.6298828125,3.61669921875,20.6259765625.728515625,6.994140625,1.177734375,14.0546875,1.35009765625,21.1748046875.00146484375,2.0263671875-.02490234375,3.6923828125-.08154296875,4.9921875-.05810546875,1.302734375-.27490234375,2.375-.65185546875,3.2158203125-.37841796875.841796875-.951171875,1.537109375-1.71630859375,2.083984375-.76708984375.5498046875-1.85791015625,1.08203125-3.275390625,1.6044921875-1.35791015625.2705078125-2.77783203125.5078125-4.26025390625.7099609375-1.48486328125.1982421875-2.90771484375-.08984375-4.2666015625-.8701171875-1.2734375-.7080078125-2.392578125-1.9970703125-3.353515625-3.865234375-.96240234375-1.8671875-1.63134765625-4.6103515625-2.00390625-8.2294921875l-.09814453125-1.208984375c-2.0341796875-.0771484375-4.44580078125-.083984375-7.23828125-.01953125-2.79296875.0634765625-5.64013671875.193359375-8.54296875.3876953125-2.9033203125.1953125-5.705078125.400390625-8.40234375.619140625-2.7001953125.21875-4.97509765625.4033203125-6.82763671875.5537109375-.02197265625.73046875-.0244140625,1.947265625-.0078125,3.6494140625.01611328125,1.701171875-.109375,3.4130859375-.37451171875,5.138671875-.26708984375,1.7236328125-.68701171875,3.298828125-1.25927734375,4.72265625-.57421875,1.4267578125-1.4619140625,2.2255859375-2.6630859375,2.40625-1.123046875.169921875-2.404296875.3544921875-3.8466796875.5537109375-1.4443359375.197265625-2.86767578125.150390625-4.2685546875-.140625-1.396484375-.208984375-2.59716796875-.7626953125-3.6005859375-1.654296875-1.00537109375-.8916015625-1.63330078125-2.3798828125-1.88232421875-4.46875-.2021484375-2.49609375-.39453125-5.359375-.57421875-8.58984375-.181640625-3.2265625-.30322265625-6.7431640625-.3681640625-10.5498046875-.09423828125-3.1552734375-.11083984375-6.6201171875-.0517578125-10.3955078125.05908203125-3.7744140625.2705078125-7.662109375.6357421875-11.666015625.3642578125-4.001953125.931640625-8.021484375,1.69921875-12.056640625.767578125-4.0341796875,1.83349609375-7.8916015625,3.19775390625-11.5712890625,1.36279296875-3.6767578125,3.052734375-7.09765625,5.06787109375-10.2607421875,2.01318359375-3.162109375,4.509765625-5.8779296875,7.48876953125-8.1474609375,3.51416015625-2.6357421875,7.48779296875-4.1337890625,11.9189453125-4.4931640625,4.4296875-.3583984375,8.70751953125.388671875,12.83056640625,2.2451171875ZM45.69189453125,127.345703125c5.04150390625-.8134765625,10.07177734375-1.5244140625,15.0908203125-2.134765625,5.01708984375-.607421875,10.0712890625-1.0390625,15.158203125-1.2880859375-.22119140625-5.7392578125-.87744140625-10.833984375-1.96728515625-15.287109375-1.09033203125-4.451171875-2.40771484375-8.1767578125-3.94677734375-11.173828125-1.53955078125-2.99609375-3.26318359375-5.248046875-5.16845703125-6.7568359375-1.90625-1.5068359375-3.78564453125-2.185546875-5.63818359375-2.0361328125-1.61181640625.130859375-3.21630859375,1.0927734375-4.81396484375,2.8828125-1.5986328125,1.79296875-3.01416015625,4.33984375-4.24560546875,7.640625-1.2333984375,3.3056640625-2.263671875,7.3408203125-3.0927734375,12.1103515625-.83056640625,4.76953125-1.2900390625,10.1181640625-1.3759765625,16.04296875Z"/>
            <path class="cls-3" d="M235.736328125,98.20703125c3.76611328125,2.451171875,6.67919921875,5.642578125,8.74169921875,9.5673828125,2.060546875,3.9296875,2.9453125,8.0927734375,2.654296875,12.49609375-.3271484375,4.9716796875-1.92529296875,9.2578125-4.79638671875,12.853515625-2.87060546875,3.5986328125-6.36279296875,6.5361328125-10.4755859375,8.8154296875-4.11376953125,2.2783203125-8.61962890625,3.9423828125-13.521484375,4.98828125-4.90185546875,1.044921875-9.546875,1.501953125-13.93603515625,1.3720703125-.3916015625.1923828125-.74560546875.3212890625-1.0634765625.3896484375-.3193359375.06640625-.6767578125.15625-1.07275390625.2685546875-1.443359375.197265625-2.93505859375.318359375-4.470703125.3623046875-1.537109375.0439453125-2.9482421875-.1064453125-4.23193359375-.447265625-1.28515625-.3388671875-2.4111328125-.978515625-3.3779296875-1.916015625-.96923828125-.93359375-1.60791015625-2.3212890625-1.9189453125-4.1611328125-.234375-.8720703125-.41845703125-2.66015625-.55615234375-5.3671875-.13916015625-2.7041015625-.32421875-5.994140625-.55615234375-9.8671875-.15966796875-3.9599609375-.365234375-8.259765625-.61962890625-12.90234375-.25390625-4.640625-.53125-9.3017578125-.82861328125-13.98046875-.41650390625-6.1279296875-.833984375-12.296875-1.25634765625-18.505859375-.42333984375-6.208984375-1.17041015625-12.4326171875-2.24169921875-18.669921875-.2216796875-.712890625-.1923828125-1.36328125.08447265625-1.953125.12158203125-.4970703125.44677734375-.9892578125.97509765625-1.478515625.52685546875-.4873046875,1.3486328125-.857421875,2.4638671875-1.111328125.79833984375-.14453125,1.67578125-.3369140625,2.62890625-.578125.9541015625-.23828125,1.9501953125-.4404296875,2.99169921875-.607421875,1.03955078125-.1630859375,2.0478515625-.2451171875,3.02099609375-.2451171875.97265625.00390625,1.83154296875.0947265625,2.57666015625.279296875,4.0625-.8955078125,8.36865234375-1.2666015625,12.92333984375-1.1083984375,4.55322265625.1591796875,8.88916015625.8818359375,13.0068359375,2.1689453125,4.11865234375,1.2900390625,7.7548828125,3.1630859375,10.91552734375,5.6220703125,3.158203125,2.4619140625,5.3779296875,5.5849609375,6.65771484375,9.3720703125.5390625,1.66015625.9248046875,3.4140625,1.15576171875,5.2587890625.2294921875,1.84765625.1845703125,3.7763671875-.1396484375,5.7880859375-.32275390625,2.0146484375-.94140625,4.1328125-1.8564453125,6.3544921875-.9140625,2.2216796875-2.20751953125,4.537109375-3.876953125,6.9423828125ZM203.7431640625,93.6220703125c3.8798828125-.150390625,7.109375-.818359375,9.689453125-2.0009765625,2.57958984375-1.181640625,4.470703125-2.6123046875,5.67236328125-4.291015625,1.2021484375-1.6767578125,1.70751953125-3.44140625,1.517578125-5.2919921875-.19189453125-1.84765625-1.02978515625-3.443359375-2.51611328125-4.7822265625-1.48779296875-1.337890625-3.6318359375-2.2783203125-6.431640625-2.8232421875-2.80078125-.54296875-6.27392578125-.3623046875-10.41552734375.5390625.49609375,3.123046875.9287109375,6.208984375,1.29736328125,9.2607421875.36962890625,3.052734375.763671875,6.181640625,1.1865234375,9.3896484375ZM206.9443359375,128.6337890625c4.38916015625.130859375,8.037109375-.3662109375,10.94677734375-1.494140625,2.9072265625-1.126953125,5.044921875-2.5166015625,6.412109375-4.169921875,1.36572265625-1.6494140625,1.99658203125-3.36328125,1.89453125-5.138671875-.103515625-1.7734375-.93212890625-3.248046875-2.486328125-4.4208984375-1.55419921875-1.169921875-3.8408203125-1.857421875-6.85595703125-2.05859375-3.01708984375-.201171875-6.73876953125.404296875-11.1640625,1.81640625l1.2529296875,15.4658203125Z"/>
          </g>
        </g>
      </a>
    </g>
  </a>
</svg>