<?xml version="1.0" encoding="UTF-8"?>
<svg id="Content" xmlns="http://www.w3.org/2000/svg" xmlns:xlink="http://www.w3.org/1999/xlink" viewBox="0 0 280 280">
  <defs>
    <style>
      .cls-1 {
        stroke: #665451;
        stroke-width: 50px;
      }

      .cls-1, .cls-2 {
        fill: none;
        stroke-linecap: round;
        stroke-linejoin: round;
      }

      .cls-3 {
        fill: #fff;
      }

      .cls-2 {
        stroke: #998675;
        stroke-width: 2px;
      }
    </style>
  </defs>
  <a xlink:href="https://www.notion.so/congruence/Event-b29ee46aaf324a31815d0a1307d5eeca?pvs=4">
    <g>
      <a xlink:href="https://www.notion.so/congruence/B-Event-1f1a5b08a72c49f5ab60f2e0793fd0a8?pvs=4">
        <g>
          <path class="cls-3" d="M84.23486328125,58.37109375c2.3046875,1.0966796875,4.314453125,2.5087890625,6.02880859375,4.234375,1.71435546875,1.728515625,3.19580078125,3.6484375,4.44677734375,5.7626953125,1.24951171875,2.1171875,2.29248046875,4.37890625,3.1298828125,6.7890625.83642578125,2.41015625,1.52978515625,4.8466796875,2.0791015625,7.3095703125,1.20947265625,4.8583984375,2.076171875,9.802734375,2.6015625,14.8330078125.5234375,5.0302734375.84716796875,10.107421875.970703125,15.2265625.0009765625,1.4599609375-.0185546875,2.6572265625-.05859375,3.591796875-.0419921875.9365234375-.19775390625,1.7080078125-.46875,2.3125-.27197265625.60546875-.68408203125,1.1044921875-1.234375,1.4990234375-.5517578125.39453125-1.33642578125.7783203125-2.35595703125,1.1533203125-.97607421875.1962890625-1.99658203125.365234375-3.06298828125.5107421875-1.068359375.1435546875-2.0908203125-.064453125-3.06884765625-.6259765625-.91552734375-.5078125-1.72021484375-1.435546875-2.41162109375-2.7783203125-.6923828125-1.3427734375-1.1728515625-3.3173828125-1.44189453125-5.9189453125l-.0703125-.869140625c-1.46240234375-.0556640625-3.197265625-.060546875-5.205078125-.015625-2.00830078125.046875-4.05615234375.1396484375-6.14404296875.279296875s-4.10205078125.2880859375-6.04248046875.4453125c-1.94140625.1572265625-3.57763671875.2900390625-4.91015625.3984375-.01611328125.5263671875-.017578125,1.400390625-.005859375,2.625.01220703125,1.2236328125-.078125,2.4541015625-.26904296875,3.6943359375-.19189453125,1.2412109375-.494140625,2.3740234375-.9052734375,3.3974609375-.41357421875,1.0263671875-1.0517578125,1.6005859375-1.916015625,1.7294921875-.806640625.1240234375-1.728515625.2568359375-2.76611328125.3994140625-1.03857421875.140625-2.06201171875.109375-3.06982421875-.1005859375-1.00439453125-.15234375-1.8671875-.5498046875-2.5888671875-1.1904296875-.7236328125-.640625-1.1748046875-1.7119140625-1.35400390625-3.2138671875-.1455078125-1.794921875-.283203125-3.85546875-.41259765625-6.1767578125-.130859375-2.3203125-.2177734375-4.8505859375-.26513671875-7.587890625-.0673828125-2.26953125-.07958984375-4.76171875-.037109375-7.4755859375.04248046875-2.7158203125.1943359375-5.5107421875.45751953125-8.390625.26171875-2.876953125.66943359375-5.7685546875,1.2216796875-8.6708984375.55224609375-2.900390625,1.31787109375-5.6748046875,2.29931640625-8.3203125.98095703125-2.64453125,2.19580078125-5.10546875,3.64501953125-7.3798828125,1.447265625-2.2734375,3.2431640625-4.2275390625,5.38525390625-5.8583984375,2.52783203125-1.896484375,5.3857421875-2.9736328125,8.57275390625-3.2314453125,3.18505859375-.2587890625,6.26123046875.2783203125,9.2265625,1.61328125ZM66.32275390625,99.6201171875c3.62646484375-.5849609375,7.2431640625-1.09765625,10.8525390625-1.53515625,3.6083984375-.4375,7.24267578125-.7470703125,10.90234375-.927734375-.15966796875-4.1259765625-.63134765625-7.7900390625-1.416015625-10.9921875-.7841796875-3.2021484375-1.73046875-5.880859375-2.83740234375-8.037109375-1.1083984375-2.1533203125-2.34814453125-3.7734375-3.7177734375-4.8583984375-1.37060546875-1.083984375-2.72265625-1.572265625-4.05419921875-1.46484375-1.15966796875.09375-2.3134765625.7861328125-3.46240234375,2.0732421875-1.14990234375,1.2900390625-2.1669921875,3.12109375-3.05322265625,5.49609375-.88720703125,2.375-1.6279296875,5.2783203125-2.224609375,8.7080078125s-.927734375,7.27734375-.9892578125,11.5380859375Z"/>
          <path class="cls-3" d="M202.99658203125,78.6630859375c2.7080078125,1.7646484375,4.80322265625,4.0595703125,6.28662109375,6.8818359375,1.4814453125,2.8251953125,2.1181640625,5.8203125,1.90869140625,8.9853515625-.2353515625,3.576171875-1.384765625,6.6591796875-3.44921875,9.2451171875-2.06494140625,2.5869140625-4.57666015625,4.7001953125-7.53369140625,6.3388671875-2.95849609375,1.640625-6.19970703125,2.8359375-9.724609375,3.587890625-3.525390625.7509765625-6.8662109375,1.0810546875-10.0224609375.986328125-.28125.138671875-.5361328125.232421875-.76416015625.28125-.22998046875.046875-.4873046875.111328125-.771484375.193359375-1.03857421875.140625-2.111328125.2275390625-3.21533203125.2607421875-1.10595703125.0302734375-2.1201171875-.0771484375-3.04345703125-.3232421875-.9248046875-.244140625-1.73388671875-.703125-2.4296875-1.376953125-.697265625-.671875-1.15625-1.6689453125-1.3798828125-2.9931640625-.16845703125-.626953125-.30078125-1.9140625-.39990234375-3.859375-.10009765625-1.9453125-.2333984375-4.310546875-.39990234375-7.0966796875-.11474609375-2.8466796875-.2626953125-5.9404296875-.4453125-9.2783203125-.18359375-3.337890625-.38232421875-6.689453125-.59619140625-10.0546875-.2998046875-4.40625-.60009765625-8.8427734375-.90380859375-13.3095703125-.30419921875-4.46484375-.841796875-8.9404296875-1.61181640625-13.4267578125-.1591796875-.51171875-.138671875-.9794921875.06103515625-1.4033203125.0869140625-.3583984375.32080078125-.7109375.70068359375-1.0634765625.37939453125-.349609375.9697265625-.6171875,1.77197265625-.7998046875.57421875-.103515625,1.205078125-.2412109375,1.890625-.4150390625.6865234375-.1728515625,1.40283203125-.3173828125,2.1513671875-.4365234375.748046875-.1181640625,1.47265625-.177734375,2.1728515625-.17578125.69970703125.001953125,1.3173828125.0673828125,1.8525390625.19921875,2.921875-.64453125,6.0185546875-.91015625,9.294921875-.796875,3.2744140625.115234375,6.39208984375.6337890625,9.353515625,1.560546875s5.5771484375,2.2744140625,7.849609375,4.0439453125c2.271484375,1.76953125,3.8681640625,4.015625,4.78857421875,6.740234375.3876953125,1.193359375.6650390625,2.453125.8310546875,3.78125.1650390625,1.3291015625.1328125,2.7158203125-.10009765625,4.162109375-.23291015625,1.4482421875-.677734375,2.970703125-1.33544921875,4.568359375-.6572265625,1.599609375-1.5869140625,3.2646484375-2.78759765625,4.9931640625ZM179.98779296875,75.3681640625c2.7900390625-.109375,5.11279296875-.5908203125,6.96826171875-1.439453125,1.85546875-.8505859375,3.21533203125-1.8798828125,4.07958984375-3.0859375.8642578125-1.20703125,1.2275390625-2.4755859375,1.09130859375-3.8056640625-.13818359375-1.330078125-.740234375-2.4765625-1.8095703125-3.4404296875-1.06982421875-.962890625-2.611328125-1.638671875-4.62548828125-2.03125-2.0146484375-.3896484375-4.51171875-.259765625-7.49072265625.388671875.35693359375,2.2451171875.66796875,4.4658203125.93310546875,6.6591796875.265625,2.1962890625.54931640625,4.4462890625.853515625,6.7548828125ZM182.2900390625,100.5458984375c3.15673828125.0947265625,5.7802734375-.263671875,7.87255859375-1.07421875,2.09033203125-.8115234375,3.6279296875-1.8095703125,4.611328125-2.9990234375.982421875-1.1865234375,1.435546875-2.4189453125,1.3623046875-3.6962890625-.07470703125-1.2744140625-.67041015625-2.3359375-1.7880859375-3.1787109375-1.11767578125-.841796875-2.76171875-1.3349609375-4.9306640625-1.48046875-2.16943359375-.14453125-4.845703125.291015625-8.0283203125,1.3056640625l.90087890625,11.123046875Z"/>
        </g>
      </a>
      <a xlink:href="https://www.notion.so/congruence/B-Event-1f1a5b08a72c49f5ab60f2e0793fd0a8?pvs=4">
        <g>
          <g>
            <path class="cls-1" d="M84.23486328125,58.37109375c2.3046875,1.0966796875,4.314453125,2.5087890625,6.02880859375,4.234375,1.71435546875,1.728515625,3.19580078125,3.6484375,4.44677734375,5.7626953125,1.24951171875,2.1171875,2.29248046875,4.37890625,3.1298828125,6.7890625.83642578125,2.41015625,1.52978515625,4.8466796875,2.0791015625,7.3095703125,1.20947265625,4.8583984375,2.076171875,9.802734375,2.6015625,14.8330078125.5234375,5.0302734375.84716796875,10.107421875.970703125,15.2265625.0009765625,1.4599609375-.0185546875,2.6572265625-.05859375,3.591796875-.0419921875.9365234375-.19775390625,1.7080078125-.46875,2.3125-.27197265625.60546875-.68408203125,1.1044921875-1.234375,1.4990234375-.5517578125.39453125-1.33642578125.7783203125-2.35595703125,1.1533203125-.97607421875.1962890625-1.99658203125.365234375-3.06298828125.5107421875-1.068359375.1435546875-2.0908203125-.064453125-3.06884765625-.6259765625-.91552734375-.5078125-1.72021484375-1.435546875-2.41162109375-2.7783203125-.6923828125-1.3427734375-1.1728515625-3.3173828125-1.44189453125-5.9189453125l-.0703125-.869140625c-1.46240234375-.0556640625-3.197265625-.060546875-5.205078125-.015625-2.00830078125.046875-4.05615234375.1396484375-6.14404296875.279296875s-4.10205078125.2880859375-6.04248046875.4453125c-1.94140625.1572265625-3.57763671875.2900390625-4.91015625.3984375-.01611328125.5263671875-.017578125,1.400390625-.005859375,2.625.01220703125,1.2236328125-.078125,2.4541015625-.26904296875,3.6943359375-.19189453125,1.2412109375-.494140625,2.3740234375-.9052734375,3.3974609375-.41357421875,1.0263671875-1.0517578125,1.6005859375-1.916015625,1.7294921875-.806640625.1240234375-1.728515625.2568359375-2.76611328125.3994140625-1.03857421875.140625-2.06201171875.109375-3.06982421875-.1005859375-1.00439453125-.15234375-1.8671875-.5498046875-2.5888671875-1.1904296875-.7236328125-.640625-1.1748046875-1.7119140625-1.35400390625-3.2138671875-.1455078125-1.794921875-.283203125-3.85546875-.41259765625-6.1767578125-.130859375-2.3203125-.2177734375-4.8505859375-.26513671875-7.587890625-.0673828125-2.26953125-.07958984375-4.76171875-.037109375-7.4755859375.04248046875-2.7158203125.1943359375-5.5107421875.45751953125-8.390625.26171875-2.876953125.66943359375-5.7685546875,1.2216796875-8.6708984375.55224609375-2.900390625,1.31787109375-5.6748046875,2.29931640625-8.3203125.98095703125-2.64453125,2.19580078125-5.10546875,3.64501953125-7.3798828125,1.447265625-2.2734375,3.2431640625-4.2275390625,5.38525390625-5.8583984375,2.52783203125-1.896484375,5.3857421875-2.9736328125,8.57275390625-3.2314453125,3.18505859375-.2587890625,6.26123046875.2783203125,9.2265625,1.61328125ZM66.32275390625,99.6201171875c3.62646484375-.5849609375,7.2431640625-1.09765625,10.8525390625-1.53515625,3.6083984375-.4375,7.24267578125-.7470703125,10.90234375-.927734375-.15966796875-4.1259765625-.63134765625-7.7900390625-1.416015625-10.9921875-.7841796875-3.2021484375-1.73046875-5.880859375-2.83740234375-8.037109375-1.1083984375-2.1533203125-2.34814453125-3.7734375-3.7177734375-4.8583984375-1.37060546875-1.083984375-2.72265625-1.572265625-4.05419921875-1.46484375-1.15966796875.09375-2.3134765625.7861328125-3.46240234375,2.0732421875-1.14990234375,1.2900390625-2.1669921875,3.12109375-3.05322265625,5.49609375-.88720703125,2.375-1.6279296875,5.2783203125-2.224609375,8.7080078125s-.927734375,7.27734375-.9892578125,11.5380859375Z"/>
            <path class="cls-1" d="M202.99658203125,78.6630859375c2.7080078125,1.7646484375,4.80322265625,4.0595703125,6.28662109375,6.8818359375,1.4814453125,2.8251953125,2.1181640625,5.8203125,1.90869140625,8.9853515625-.2353515625,3.576171875-1.384765625,6.6591796875-3.44921875,9.2451171875-2.06494140625,2.5869140625-4.57666015625,4.7001953125-7.53369140625,6.3388671875-2.95849609375,1.640625-6.19970703125,2.8359375-9.724609375,3.587890625-3.525390625.7509765625-6.8662109375,1.0810546875-10.0224609375.986328125-.28125.138671875-.5361328125.232421875-.76416015625.28125-.22998046875.046875-.4873046875.111328125-.771484375.193359375-1.03857421875.140625-2.111328125.2275390625-3.21533203125.2607421875-1.10595703125.0302734375-2.1201171875-.0771484375-3.04345703125-.3232421875-.9248046875-.244140625-1.73388671875-.703125-2.4296875-1.376953125-.697265625-.671875-1.15625-1.6689453125-1.3798828125-2.9931640625-.16845703125-.626953125-.30078125-1.9140625-.39990234375-3.859375-.10009765625-1.9453125-.2333984375-4.310546875-.39990234375-7.0966796875-.11474609375-2.8466796875-.2626953125-5.9404296875-.4453125-9.2783203125-.18359375-3.337890625-.38232421875-6.689453125-.59619140625-10.0546875-.2998046875-4.40625-.60009765625-8.8427734375-.90380859375-13.3095703125-.30419921875-4.46484375-.841796875-8.9404296875-1.61181640625-13.4267578125-.1591796875-.51171875-.138671875-.9794921875.06103515625-1.4033203125.0869140625-.3583984375.32080078125-.7109375.70068359375-1.0634765625.37939453125-.349609375.9697265625-.6171875,1.77197265625-.7998046875.57421875-.103515625,1.205078125-.2412109375,1.890625-.4150390625.6865234375-.1728515625,1.40283203125-.3173828125,2.1513671875-.4365234375.748046875-.1181640625,1.47265625-.177734375,2.1728515625-.17578125.69970703125.001953125,1.3173828125.0673828125,1.8525390625.19921875,2.921875-.64453125,6.0185546875-.91015625,9.294921875-.796875,3.2744140625.115234375,6.39208984375.6337890625,9.353515625,1.560546875s5.5771484375,2.2744140625,7.849609375,4.0439453125c2.271484375,1.76953125,3.8681640625,4.015625,4.78857421875,6.740234375.3876953125,1.193359375.6650390625,2.453125.8310546875,3.78125.1650390625,1.3291015625.1328125,2.7158203125-.10009765625,4.162109375-.23291015625,1.4482421875-.677734375,2.970703125-1.33544921875,4.568359375-.6572265625,1.599609375-1.5869140625,3.2646484375-2.78759765625,4.9931640625ZM179.98779296875,75.3681640625c2.7900390625-.109375,5.11279296875-.5908203125,6.96826171875-1.439453125,1.85546875-.8505859375,3.21533203125-1.8798828125,4.07958984375-3.0859375.8642578125-1.20703125,1.2275390625-2.4755859375,1.09130859375-3.8056640625-.13818359375-1.330078125-.740234375-2.4765625-1.8095703125-3.4404296875-1.06982421875-.962890625-2.611328125-1.638671875-4.62548828125-2.03125-2.0146484375-.3896484375-4.51171875-.259765625-7.49072265625.388671875.35693359375,2.2451171875.66796875,4.4658203125.93310546875,6.6591796875.265625,2.1962890625.54931640625,4.4462890625.853515625,6.7548828125ZM182.2900390625,100.5458984375c3.15673828125.0947265625,5.7802734375-.263671875,7.87255859375-1.07421875,2.09033203125-.8115234375,3.6279296875-1.8095703125,4.611328125-2.9990234375.982421875-1.1865234375,1.435546875-2.4189453125,1.3623046875-3.6962890625-.07470703125-1.2744140625-.67041015625-2.3359375-1.7880859375-3.1787109375-1.11767578125-.841796875-2.76171875-1.3349609375-4.9306640625-1.48046875-2.16943359375-.14453125-4.845703125.291015625-8.0283203125,1.3056640625l.90087890625,11.123046875Z"/>
          </g>
          <g>
            <path class="cls-1" d="M84.23486328125,58.37109375c2.3046875,1.0966796875,4.314453125,2.5087890625,6.02880859375,4.234375,1.71435546875,1.728515625,3.19580078125,3.6484375,4.44677734375,5.7626953125,1.24951171875,2.1171875,2.29248046875,4.37890625,3.1298828125,6.7890625.83642578125,2.41015625,1.52978515625,4.8466796875,2.0791015625,7.3095703125,1.20947265625,4.8583984375,2.076171875,9.802734375,2.6015625,14.8330078125.5234375,5.0302734375.84716796875,10.107421875.970703125,15.2265625.0009765625,1.4599609375-.0185546875,2.6572265625-.05859375,3.591796875-.0419921875.9365234375-.19775390625,1.7080078125-.46875,2.3125-.27197265625.60546875-.68408203125,1.1044921875-1.234375,1.4990234375-.5517578125.39453125-1.33642578125.7783203125-2.35595703125,1.1533203125-.97607421875.1962890625-1.99658203125.365234375-3.06298828125.5107421875-1.068359375.1435546875-2.0908203125-.064453125-3.06884765625-.6259765625-.91552734375-.5078125-1.72021484375-1.435546875-2.41162109375-2.7783203125-.6923828125-1.3427734375-1.1728515625-3.3173828125-1.44189453125-5.9189453125l-.0703125-.869140625c-1.46240234375-.0556640625-3.197265625-.060546875-5.205078125-.015625-2.00830078125.046875-4.05615234375.1396484375-6.14404296875.279296875s-4.10205078125.2880859375-6.04248046875.4453125c-1.94140625.1572265625-3.57763671875.2900390625-4.91015625.3984375-.01611328125.5263671875-.017578125,1.400390625-.005859375,2.625.01220703125,1.2236328125-.078125,2.4541015625-.26904296875,3.6943359375-.19189453125,1.2412109375-.494140625,2.3740234375-.9052734375,3.3974609375-.41357421875,1.0263671875-1.0517578125,1.6005859375-1.916015625,1.7294921875-.806640625.1240234375-1.728515625.2568359375-2.76611328125.3994140625-1.03857421875.140625-2.06201171875.109375-3.06982421875-.1005859375-1.00439453125-.15234375-1.8671875-.5498046875-2.5888671875-1.1904296875-.7236328125-.640625-1.1748046875-1.7119140625-1.35400390625-3.2138671875-.1455078125-1.794921875-.283203125-3.85546875-.41259765625-6.1767578125-.130859375-2.3203125-.2177734375-4.8505859375-.26513671875-7.587890625-.0673828125-2.26953125-.07958984375-4.76171875-.037109375-7.4755859375.04248046875-2.7158203125.1943359375-5.5107421875.45751953125-8.390625.26171875-2.876953125.66943359375-5.7685546875,1.2216796875-8.6708984375.55224609375-2.900390625,1.31787109375-5.6748046875,2.29931640625-8.3203125.98095703125-2.64453125,2.19580078125-5.10546875,3.64501953125-7.3798828125,1.447265625-2.2734375,3.2431640625-4.2275390625,5.38525390625-5.8583984375,2.52783203125-1.896484375,5.3857421875-2.9736328125,8.57275390625-3.2314453125,3.18505859375-.2587890625,6.26123046875.2783203125,9.2265625,1.61328125ZM66.32275390625,99.6201171875c3.62646484375-.5849609375,7.2431640625-1.09765625,10.8525390625-1.53515625,3.6083984375-.4375,7.24267578125-.7470703125,10.90234375-.927734375-.15966796875-4.1259765625-.63134765625-7.7900390625-1.416015625-10.9921875-.7841796875-3.2021484375-1.73046875-5.880859375-2.83740234375-8.037109375-1.1083984375-2.1533203125-2.34814453125-3.7734375-3.7177734375-4.8583984375-1.37060546875-1.083984375-2.72265625-1.572265625-4.05419921875-1.46484375-1.15966796875.09375-2.3134765625.7861328125-3.46240234375,2.0732421875-1.14990234375,1.2900390625-2.1669921875,3.12109375-3.05322265625,5.49609375-.88720703125,2.375-1.6279296875,5.2783203125-2.224609375,8.7080078125s-.927734375,7.27734375-.9892578125,11.5380859375Z"/>
            <path class="cls-1" d="M202.99658203125,78.6630859375c2.7080078125,1.7646484375,4.80322265625,4.0595703125,6.28662109375,6.8818359375,1.4814453125,2.8251953125,2.1181640625,5.8203125,1.90869140625,8.9853515625-.2353515625,3.576171875-1.384765625,6.6591796875-3.44921875,9.2451171875-2.06494140625,2.5869140625-4.57666015625,4.7001953125-7.53369140625,6.3388671875-2.95849609375,1.640625-6.19970703125,2.8359375-9.724609375,3.587890625-3.525390625.7509765625-6.8662109375,1.0810546875-10.0224609375.986328125-.28125.138671875-.5361328125.232421875-.76416015625.28125-.22998046875.046875-.4873046875.111328125-.771484375.193359375-1.03857421875.140625-2.111328125.2275390625-3.21533203125.2607421875-1.10595703125.0302734375-2.1201171875-.0771484375-3.04345703125-.3232421875-.9248046875-.244140625-1.73388671875-.703125-2.4296875-1.376953125-.697265625-.671875-1.15625-1.6689453125-1.3798828125-2.9931640625-.16845703125-.626953125-.30078125-1.9140625-.39990234375-3.859375-.10009765625-1.9453125-.2333984375-4.310546875-.39990234375-7.0966796875-.11474609375-2.8466796875-.2626953125-5.9404296875-.4453125-9.2783203125-.18359375-3.337890625-.38232421875-6.689453125-.59619140625-10.0546875-.2998046875-4.40625-.60009765625-8.8427734375-.90380859375-13.3095703125-.30419921875-4.46484375-.841796875-8.9404296875-1.61181640625-13.4267578125-.1591796875-.51171875-.138671875-.9794921875.06103515625-1.4033203125.0869140625-.3583984375.32080078125-.7109375.70068359375-1.0634765625.37939453125-.349609375.9697265625-.6171875,1.77197265625-.7998046875.57421875-.103515625,1.205078125-.2412109375,1.890625-.4150390625.6865234375-.1728515625,1.40283203125-.3173828125,2.1513671875-.4365234375.748046875-.1181640625,1.47265625-.177734375,2.1728515625-.17578125.69970703125.001953125,1.3173828125.0673828125,1.8525390625.19921875,2.921875-.64453125,6.0185546875-.91015625,9.294921875-.796875,3.2744140625.115234375,6.39208984375.6337890625,9.353515625,1.560546875s5.5771484375,2.2744140625,7.849609375,4.0439453125c2.271484375,1.76953125,3.8681640625,4.015625,4.78857421875,6.740234375.3876953125,1.193359375.6650390625,2.453125.8310546875,3.78125.1650390625,1.3291015625.1328125,2.7158203125-.10009765625,4.162109375-.23291015625,1.4482421875-.677734375,2.970703125-1.33544921875,4.568359375-.6572265625,1.599609375-1.5869140625,3.2646484375-2.78759765625,4.9931640625ZM179.98779296875,75.3681640625c2.7900390625-.109375,5.11279296875-.5908203125,6.96826171875-1.439453125,1.85546875-.8505859375,3.21533203125-1.8798828125,4.07958984375-3.0859375.8642578125-1.20703125,1.2275390625-2.4755859375,1.09130859375-3.8056640625-.13818359375-1.330078125-.740234375-2.4765625-1.8095703125-3.4404296875-1.06982421875-.962890625-2.611328125-1.638671875-4.62548828125-2.03125-2.0146484375-.3896484375-4.51171875-.259765625-7.49072265625.388671875.35693359375,2.2451171875.66796875,4.4658203125.93310546875,6.6591796875.265625,2.1962890625.54931640625,4.4462890625.853515625,6.7548828125ZM182.2900390625,100.5458984375c3.15673828125.0947265625,5.7802734375-.263671875,7.87255859375-1.07421875,2.09033203125-.8115234375,3.6279296875-1.8095703125,4.611328125-2.9990234375.982421875-1.1865234375,1.435546875-2.4189453125,1.3623046875-3.6962890625-.07470703125-1.2744140625-.67041015625-2.3359375-1.7880859375-3.1787109375-1.11767578125-.841796875-2.76171875-1.3349609375-4.9306640625-1.48046875-2.16943359375-.14453125-4.845703125.291015625-8.0283203125,1.3056640625l.90087890625,11.123046875Z"/>
          </g>
          <g>
            <path class="cls-1" d="M84.23486328125,58.37109375c2.3046875,1.0966796875,4.314453125,2.5087890625,6.02880859375,4.234375,1.71435546875,1.728515625,3.19580078125,3.6484375,4.44677734375,5.7626953125,1.24951171875,2.1171875,2.29248046875,4.37890625,3.1298828125,6.7890625.83642578125,2.41015625,1.52978515625,4.8466796875,2.0791015625,7.3095703125,1.20947265625,4.8583984375,2.076171875,9.802734375,2.6015625,14.8330078125.5234375,5.0302734375.84716796875,10.107421875.970703125,15.2265625.0009765625,1.4599609375-.0185546875,2.6572265625-.05859375,3.591796875-.0419921875.9365234375-.19775390625,1.7080078125-.46875,2.3125-.27197265625.60546875-.68408203125,1.1044921875-1.234375,1.4990234375-.5517578125.39453125-1.33642578125.7783203125-2.35595703125,1.1533203125-.97607421875.1962890625-1.99658203125.365234375-3.06298828125.5107421875-1.068359375.1435546875-2.0908203125-.064453125-3.06884765625-.6259765625-.91552734375-.5078125-1.72021484375-1.435546875-2.41162109375-2.7783203125-.6923828125-1.3427734375-1.1728515625-3.3173828125-1.44189453125-5.9189453125l-.0703125-.869140625c-1.46240234375-.0556640625-3.197265625-.060546875-5.205078125-.015625-2.00830078125.046875-4.05615234375.1396484375-6.14404296875.279296875s-4.10205078125.2880859375-6.04248046875.4453125c-1.94140625.1572265625-3.57763671875.2900390625-4.91015625.3984375-.01611328125.5263671875-.017578125,1.400390625-.005859375,2.625.01220703125,1.2236328125-.078125,2.4541015625-.26904296875,3.6943359375-.19189453125,1.2412109375-.494140625,2.3740234375-.9052734375,3.3974609375-.41357421875,1.0263671875-1.0517578125,1.6005859375-1.916015625,1.7294921875-.806640625.1240234375-1.728515625.2568359375-2.76611328125.3994140625-1.03857421875.140625-2.06201171875.109375-3.06982421875-.1005859375-1.00439453125-.15234375-1.8671875-.5498046875-2.5888671875-1.1904296875-.7236328125-.640625-1.1748046875-1.7119140625-1.35400390625-3.2138671875-.1455078125-1.794921875-.283203125-3.85546875-.41259765625-6.1767578125-.130859375-2.3203125-.2177734375-4.8505859375-.26513671875-7.587890625-.0673828125-2.26953125-.07958984375-4.76171875-.037109375-7.4755859375.04248046875-2.7158203125.1943359375-5.5107421875.45751953125-8.390625.26171875-2.876953125.66943359375-5.7685546875,1.2216796875-8.6708984375.55224609375-2.900390625,1.31787109375-5.6748046875,2.29931640625-8.3203125.98095703125-2.64453125,2.19580078125-5.10546875,3.64501953125-7.3798828125,1.447265625-2.2734375,3.2431640625-4.2275390625,5.38525390625-5.8583984375,2.52783203125-1.896484375,5.3857421875-2.9736328125,8.57275390625-3.2314453125,3.18505859375-.2587890625,6.26123046875.2783203125,9.2265625,1.61328125ZM66.32275390625,99.6201171875c3.62646484375-.5849609375,7.2431640625-1.09765625,10.8525390625-1.53515625,3.6083984375-.4375,7.24267578125-.7470703125,10.90234375-.927734375-.15966796875-4.1259765625-.63134765625-7.7900390625-1.416015625-10.9921875-.7841796875-3.2021484375-1.73046875-5.880859375-2.83740234375-8.037109375-1.1083984375-2.1533203125-2.34814453125-3.7734375-3.7177734375-4.8583984375-1.37060546875-1.083984375-2.72265625-1.572265625-4.05419921875-1.46484375-1.15966796875.09375-2.3134765625.7861328125-3.46240234375,2.0732421875-1.14990234375,1.2900390625-2.1669921875,3.12109375-3.05322265625,5.49609375-.88720703125,2.375-1.6279296875,5.2783203125-2.224609375,8.7080078125s-.927734375,7.27734375-.9892578125,11.5380859375Z"/>
            <path class="cls-1" d="M202.99658203125,78.6630859375c2.7080078125,1.7646484375,4.80322265625,4.0595703125,6.28662109375,6.8818359375,1.4814453125,2.8251953125,2.1181640625,5.8203125,1.90869140625,8.9853515625-.2353515625,3.576171875-1.384765625,6.6591796875-3.44921875,9.2451171875-2.06494140625,2.5869140625-4.57666015625,4.7001953125-7.53369140625,6.3388671875-2.95849609375,1.640625-6.19970703125,2.8359375-9.724609375,3.587890625-3.525390625.7509765625-6.8662109375,1.0810546875-10.0224609375.986328125-.28125.138671875-.5361328125.232421875-.76416015625.28125-.22998046875.046875-.4873046875.111328125-.771484375.193359375-1.03857421875.140625-2.111328125.2275390625-3.21533203125.2607421875-1.10595703125.0302734375-2.1201171875-.0771484375-3.04345703125-.3232421875-.9248046875-.244140625-1.73388671875-.703125-2.4296875-1.376953125-.697265625-.671875-1.15625-1.6689453125-1.3798828125-2.9931640625-.16845703125-.626953125-.30078125-1.9140625-.39990234375-3.859375-.10009765625-1.9453125-.2333984375-4.310546875-.39990234375-7.0966796875-.11474609375-2.8466796875-.2626953125-5.9404296875-.4453125-9.2783203125-.18359375-3.337890625-.38232421875-6.689453125-.59619140625-10.0546875-.2998046875-4.40625-.60009765625-8.8427734375-.90380859375-13.3095703125-.30419921875-4.46484375-.841796875-8.9404296875-1.61181640625-13.4267578125-.1591796875-.51171875-.138671875-.9794921875.06103515625-1.4033203125.0869140625-.3583984375.32080078125-.7109375.70068359375-1.0634765625.37939453125-.349609375.9697265625-.6171875,1.77197265625-.7998046875.57421875-.103515625,1.205078125-.2412109375,1.890625-.4150390625.6865234375-.1728515625,1.40283203125-.3173828125,2.1513671875-.4365234375.748046875-.1181640625,1.47265625-.177734375,2.1728515625-.17578125.69970703125.001953125,1.3173828125.0673828125,1.8525390625.19921875,2.921875-.64453125,6.0185546875-.91015625,9.294921875-.796875,3.2744140625.115234375,6.39208984375.6337890625,9.353515625,1.560546875s5.5771484375,2.2744140625,7.849609375,4.0439453125c2.271484375,1.76953125,3.8681640625,4.015625,4.78857421875,6.740234375.3876953125,1.193359375.6650390625,2.453125.8310546875,3.78125.1650390625,1.3291015625.1328125,2.7158203125-.10009765625,4.162109375-.23291015625,1.4482421875-.677734375,2.970703125-1.33544921875,4.568359375-.6572265625,1.599609375-1.5869140625,3.2646484375-2.78759765625,4.9931640625ZM179.98779296875,75.3681640625c2.7900390625-.109375,5.11279296875-.5908203125,6.96826171875-1.439453125,1.85546875-.8505859375,3.21533203125-1.8798828125,4.07958984375-3.0859375.8642578125-1.20703125,1.2275390625-2.4755859375,1.09130859375-3.8056640625-.13818359375-1.330078125-.740234375-2.4765625-1.8095703125-3.4404296875-1.06982421875-.962890625-2.611328125-1.638671875-4.62548828125-2.03125-2.0146484375-.3896484375-4.51171875-.259765625-7.49072265625.388671875.35693359375,2.2451171875.66796875,4.4658203125.93310546875,6.6591796875.265625,2.1962890625.54931640625,4.4462890625.853515625,6.7548828125ZM182.2900390625,100.5458984375c3.15673828125.0947265625,5.7802734375-.263671875,7.87255859375-1.07421875,2.09033203125-.8115234375,3.6279296875-1.8095703125,4.611328125-2.9990234375.982421875-1.1865234375,1.435546875-2.4189453125,1.3623046875-3.6962890625-.07470703125-1.2744140625-.67041015625-2.3359375-1.7880859375-3.1787109375-1.11767578125-.841796875-2.76171875-1.3349609375-4.9306640625-1.48046875-2.16943359375-.14453125-4.845703125.291015625-8.0283203125,1.3056640625l.90087890625,11.123046875Z"/>
          </g>
        </g>
      </a>
      <a xlink:href="https://www.notion.so/congruence/B-Event-1f1a5b08a72c49f5ab60f2e0793fd0a8?pvs=4">
        <g>
          <g>
            <path class="cls-2" d="M84.23486328125,58.37109375c2.3046875,1.0966796875,4.314453125,2.5087890625,6.02880859375,4.234375,1.71435546875,1.728515625,3.19580078125,3.6484375,4.44677734375,5.7626953125,1.24951171875,2.1171875,2.29248046875,4.37890625,3.1298828125,6.7890625.83642578125,2.41015625,1.52978515625,4.8466796875,2.0791015625,7.3095703125,1.20947265625,4.8583984375,2.076171875,9.802734375,2.6015625,14.8330078125.5234375,5.0302734375.84716796875,10.107421875.970703125,15.2265625.0009765625,1.4599609375-.0185546875,2.6572265625-.05859375,3.591796875-.0419921875.9365234375-.19775390625,1.7080078125-.46875,2.3125-.27197265625.60546875-.68408203125,1.1044921875-1.234375,1.4990234375-.5517578125.39453125-1.33642578125.7783203125-2.35595703125,1.1533203125-.97607421875.1962890625-1.99658203125.365234375-3.06298828125.5107421875-1.068359375.1435546875-2.0908203125-.064453125-3.06884765625-.6259765625-.91552734375-.5078125-1.72021484375-1.435546875-2.41162109375-2.7783203125-.6923828125-1.3427734375-1.1728515625-3.3173828125-1.44189453125-5.9189453125l-.0703125-.869140625c-1.46240234375-.0556640625-3.197265625-.060546875-5.205078125-.015625-2.00830078125.046875-4.05615234375.1396484375-6.14404296875.279296875s-4.10205078125.2880859375-6.04248046875.4453125c-1.94140625.1572265625-3.57763671875.2900390625-4.91015625.3984375-.01611328125.5263671875-.017578125,1.400390625-.005859375,2.625.01220703125,1.2236328125-.078125,2.4541015625-.26904296875,3.6943359375-.19189453125,1.2412109375-.494140625,2.3740234375-.9052734375,3.3974609375-.41357421875,1.0263671875-1.0517578125,1.6005859375-1.916015625,1.7294921875-.806640625.1240234375-1.728515625.2568359375-2.76611328125.3994140625-1.03857421875.140625-2.06201171875.109375-3.06982421875-.1005859375-1.00439453125-.15234375-1.8671875-.5498046875-2.5888671875-1.1904296875-.7236328125-.640625-1.1748046875-1.7119140625-1.35400390625-3.2138671875-.1455078125-1.794921875-.283203125-3.85546875-.41259765625-6.1767578125-.130859375-2.3203125-.2177734375-4.8505859375-.26513671875-7.587890625-.0673828125-2.26953125-.07958984375-4.76171875-.037109375-7.4755859375.04248046875-2.7158203125.1943359375-5.5107421875.45751953125-8.390625.26171875-2.876953125.66943359375-5.7685546875,1.2216796875-8.6708984375.55224609375-2.900390625,1.31787109375-5.6748046875,2.29931640625-8.3203125.98095703125-2.64453125,2.19580078125-5.10546875,3.64501953125-7.3798828125,1.447265625-2.2734375,3.2431640625-4.2275390625,5.38525390625-5.8583984375,2.52783203125-1.896484375,5.3857421875-2.9736328125,8.57275390625-3.2314453125,3.18505859375-.2587890625,6.26123046875.2783203125,9.2265625,1.61328125ZM66.32275390625,99.6201171875c3.62646484375-.5849609375,7.2431640625-1.09765625,10.8525390625-1.53515625,3.6083984375-.4375,7.24267578125-.7470703125,10.90234375-.927734375-.15966796875-4.1259765625-.63134765625-7.7900390625-1.416015625-10.9921875-.7841796875-3.2021484375-1.73046875-5.880859375-2.83740234375-8.037109375-1.1083984375-2.1533203125-2.34814453125-3.7734375-3.7177734375-4.8583984375-1.37060546875-1.083984375-2.72265625-1.572265625-4.05419921875-1.46484375-1.15966796875.09375-2.3134765625.7861328125-3.46240234375,2.0732421875-1.14990234375,1.2900390625-2.1669921875,3.12109375-3.05322265625,5.49609375-.88720703125,2.375-1.6279296875,5.2783203125-2.224609375,8.7080078125s-.927734375,7.27734375-.9892578125,11.5380859375Z"/>
            <path class="cls-2" d="M202.99658203125,78.6630859375c2.7080078125,1.7646484375,4.80322265625,4.0595703125,6.28662109375,6.8818359375,1.4814453125,2.8251953125,2.1181640625,5.8203125,1.90869140625,8.9853515625-.2353515625,3.576171875-1.384765625,6.6591796875-3.44921875,9.2451171875-2.06494140625,2.5869140625-4.57666015625,4.7001953125-7.53369140625,6.3388671875-2.95849609375,1.640625-6.19970703125,2.8359375-9.724609375,3.587890625-3.525390625.7509765625-6.8662109375,1.0810546875-10.0224609375.986328125-.28125.138671875-.5361328125.232421875-.76416015625.28125-.22998046875.046875-.4873046875.111328125-.771484375.193359375-1.03857421875.140625-2.111328125.2275390625-3.21533203125.2607421875-1.10595703125.0302734375-2.1201171875-.0771484375-3.04345703125-.3232421875-.9248046875-.244140625-1.73388671875-.703125-2.4296875-1.376953125-.697265625-.671875-1.15625-1.6689453125-1.3798828125-2.9931640625-.16845703125-.626953125-.30078125-1.9140625-.39990234375-3.859375-.10009765625-1.9453125-.2333984375-4.310546875-.39990234375-7.0966796875-.11474609375-2.8466796875-.2626953125-5.9404296875-.4453125-9.2783203125-.18359375-3.337890625-.38232421875-6.689453125-.59619140625-10.0546875-.2998046875-4.40625-.60009765625-8.8427734375-.90380859375-13.3095703125-.30419921875-4.46484375-.841796875-8.9404296875-1.61181640625-13.4267578125-.1591796875-.51171875-.138671875-.9794921875.06103515625-1.4033203125.0869140625-.3583984375.32080078125-.7109375.70068359375-1.0634765625.37939453125-.349609375.9697265625-.6171875,1.77197265625-.7998046875.57421875-.103515625,1.205078125-.2412109375,1.890625-.4150390625.6865234375-.1728515625,1.40283203125-.3173828125,2.1513671875-.4365234375.748046875-.1181640625,1.47265625-.177734375,2.1728515625-.17578125.69970703125.001953125,1.3173828125.0673828125,1.8525390625.19921875,2.921875-.64453125,6.0185546875-.91015625,9.294921875-.796875,3.2744140625.115234375,6.39208984375.6337890625,9.353515625,1.560546875s5.5771484375,2.2744140625,7.849609375,4.0439453125c2.271484375,1.76953125,3.8681640625,4.015625,4.78857421875,6.740234375.3876953125,1.193359375.6650390625,2.453125.8310546875,3.78125.1650390625,1.3291015625.1328125,2.7158203125-.10009765625,4.162109375-.23291015625,1.4482421875-.677734375,2.970703125-1.33544921875,4.568359375-.6572265625,1.599609375-1.5869140625,3.2646484375-2.78759765625,4.9931640625ZM179.98779296875,75.3681640625c2.7900390625-.109375,5.11279296875-.5908203125,6.96826171875-1.439453125,1.85546875-.8505859375,3.21533203125-1.8798828125,4.07958984375-3.0859375.8642578125-1.20703125,1.2275390625-2.4755859375,1.09130859375-3.8056640625-.13818359375-1.330078125-.740234375-2.4765625-1.8095703125-3.4404296875-1.06982421875-.962890625-2.611328125-1.638671875-4.62548828125-2.03125-2.0146484375-.3896484375-4.51171875-.259765625-7.49072265625.388671875.35693359375,2.2451171875.66796875,4.4658203125.93310546875,6.6591796875.265625,2.1962890625.54931640625,4.4462890625.853515625,6.7548828125ZM182.2900390625,100.5458984375c3.15673828125.0947265625,5.7802734375-.263671875,7.87255859375-1.07421875,2.09033203125-.8115234375,3.6279296875-1.8095703125,4.611328125-2.9990234375.982421875-1.1865234375,1.435546875-2.4189453125,1.3623046875-3.6962890625-.07470703125-1.2744140625-.67041015625-2.3359375-1.7880859375-3.1787109375-1.11767578125-.841796875-2.76171875-1.3349609375-4.9306640625-1.48046875-2.16943359375-.14453125-4.845703125.291015625-8.0283203125,1.3056640625l.90087890625,11.123046875Z"/>
          </g>
          <g>
            <path class="cls-2" d="M84.23486328125,58.37109375c2.3046875,1.0966796875,4.314453125,2.5087890625,6.02880859375,4.234375,1.71435546875,1.728515625,3.19580078125,3.6484375,4.44677734375,5.7626953125,1.24951171875,2.1171875,2.29248046875,4.37890625,3.1298828125,6.7890625.83642578125,2.41015625,1.52978515625,4.8466796875,2.0791015625,7.3095703125,1.20947265625,4.8583984375,2.076171875,9.802734375,2.6015625,14.8330078125.5234375,5.0302734375.84716796875,10.107421875.970703125,15.2265625.0009765625,1.4599609375-.0185546875,2.6572265625-.05859375,3.591796875-.0419921875.9365234375-.19775390625,1.7080078125-.46875,2.3125-.27197265625.60546875-.68408203125,1.1044921875-1.234375,1.4990234375-.5517578125.39453125-1.33642578125.7783203125-2.35595703125,1.1533203125-.97607421875.1962890625-1.99658203125.365234375-3.06298828125.5107421875-1.068359375.1435546875-2.0908203125-.064453125-3.06884765625-.6259765625-.91552734375-.5078125-1.72021484375-1.435546875-2.41162109375-2.7783203125-.6923828125-1.3427734375-1.1728515625-3.3173828125-1.44189453125-5.9189453125l-.0703125-.869140625c-1.46240234375-.0556640625-3.197265625-.060546875-5.205078125-.015625-2.00830078125.046875-4.05615234375.1396484375-6.14404296875.279296875s-4.10205078125.2880859375-6.04248046875.4453125c-1.94140625.1572265625-3.57763671875.2900390625-4.91015625.3984375-.01611328125.5263671875-.017578125,1.400390625-.005859375,2.625.01220703125,1.2236328125-.078125,2.4541015625-.26904296875,3.6943359375-.19189453125,1.2412109375-.494140625,2.3740234375-.9052734375,3.3974609375-.41357421875,1.0263671875-1.0517578125,1.6005859375-1.916015625,1.7294921875-.806640625.1240234375-1.728515625.2568359375-2.76611328125.3994140625-1.03857421875.140625-2.06201171875.109375-3.06982421875-.1005859375-1.00439453125-.15234375-1.8671875-.5498046875-2.5888671875-1.1904296875-.7236328125-.640625-1.1748046875-1.7119140625-1.35400390625-3.2138671875-.1455078125-1.794921875-.283203125-3.85546875-.41259765625-6.1767578125-.130859375-2.3203125-.2177734375-4.8505859375-.26513671875-7.587890625-.0673828125-2.26953125-.07958984375-4.76171875-.037109375-7.4755859375.04248046875-2.7158203125.1943359375-5.5107421875.45751953125-8.390625.26171875-2.876953125.66943359375-5.7685546875,1.2216796875-8.6708984375.55224609375-2.900390625,1.31787109375-5.6748046875,2.29931640625-8.3203125.98095703125-2.64453125,2.19580078125-5.10546875,3.64501953125-7.3798828125,1.447265625-2.2734375,3.2431640625-4.2275390625,5.38525390625-5.8583984375,2.52783203125-1.896484375,5.3857421875-2.9736328125,8.57275390625-3.2314453125,3.18505859375-.2587890625,6.26123046875.2783203125,9.2265625,1.61328125ZM66.32275390625,99.6201171875c3.62646484375-.5849609375,7.2431640625-1.09765625,10.8525390625-1.53515625,3.6083984375-.4375,7.24267578125-.7470703125,10.90234375-.927734375-.15966796875-4.1259765625-.63134765625-7.7900390625-1.416015625-10.9921875-.7841796875-3.2021484375-1.73046875-5.880859375-2.83740234375-8.037109375-1.1083984375-2.1533203125-2.34814453125-3.7734375-3.7177734375-4.8583984375-1.37060546875-1.083984375-2.72265625-1.572265625-4.05419921875-1.46484375-1.15966796875.09375-2.3134765625.7861328125-3.46240234375,2.0732421875-1.14990234375,1.2900390625-2.1669921875,3.12109375-3.05322265625,5.49609375-.88720703125,2.375-1.6279296875,5.2783203125-2.224609375,8.7080078125s-.927734375,7.27734375-.9892578125,11.5380859375Z"/>
            <path class="cls-2" d="M202.99658203125,78.6630859375c2.7080078125,1.7646484375,4.80322265625,4.0595703125,6.28662109375,6.8818359375,1.4814453125,2.8251953125,2.1181640625,5.8203125,1.90869140625,8.9853515625-.2353515625,3.576171875-1.384765625,6.6591796875-3.44921875,9.2451171875-2.06494140625,2.5869140625-4.57666015625,4.7001953125-7.53369140625,6.3388671875-2.95849609375,1.640625-6.19970703125,2.8359375-9.724609375,3.587890625-3.525390625.7509765625-6.8662109375,1.0810546875-10.0224609375.986328125-.28125.138671875-.5361328125.232421875-.76416015625.28125-.22998046875.046875-.4873046875.111328125-.771484375.193359375-1.03857421875.140625-2.111328125.2275390625-3.21533203125.2607421875-1.10595703125.0302734375-2.1201171875-.0771484375-3.04345703125-.3232421875-.9248046875-.244140625-1.73388671875-.703125-2.4296875-1.376953125-.697265625-.671875-1.15625-1.6689453125-1.3798828125-2.9931640625-.16845703125-.626953125-.30078125-1.9140625-.39990234375-3.859375-.10009765625-1.9453125-.2333984375-4.310546875-.39990234375-7.0966796875-.11474609375-2.8466796875-.2626953125-5.9404296875-.4453125-9.2783203125-.18359375-3.337890625-.38232421875-6.689453125-.59619140625-10.0546875-.2998046875-4.40625-.60009765625-8.8427734375-.90380859375-13.3095703125-.30419921875-4.46484375-.841796875-8.9404296875-1.61181640625-13.4267578125-.1591796875-.51171875-.138671875-.9794921875.06103515625-1.4033203125.0869140625-.3583984375.32080078125-.7109375.70068359375-1.0634765625.37939453125-.349609375.9697265625-.6171875,1.77197265625-.7998046875.57421875-.103515625,1.205078125-.2412109375,1.890625-.4150390625.6865234375-.1728515625,1.40283203125-.3173828125,2.1513671875-.4365234375.748046875-.1181640625,1.47265625-.177734375,2.1728515625-.17578125.69970703125.001953125,1.3173828125.0673828125,1.8525390625.19921875,2.921875-.64453125,6.0185546875-.91015625,9.294921875-.796875,3.2744140625.115234375,6.39208984375.6337890625,9.353515625,1.560546875s5.5771484375,2.2744140625,7.849609375,4.0439453125c2.271484375,1.76953125,3.8681640625,4.015625,4.78857421875,6.740234375.3876953125,1.193359375.6650390625,2.453125.8310546875,3.78125.1650390625,1.3291015625.1328125,2.7158203125-.10009765625,4.162109375-.23291015625,1.4482421875-.677734375,2.970703125-1.33544921875,4.568359375-.6572265625,1.599609375-1.5869140625,3.2646484375-2.78759765625,4.9931640625ZM179.98779296875,75.3681640625c2.7900390625-.109375,5.11279296875-.5908203125,6.96826171875-1.439453125,1.85546875-.8505859375,3.21533203125-1.8798828125,4.07958984375-3.0859375.8642578125-1.20703125,1.2275390625-2.4755859375,1.09130859375-3.8056640625-.13818359375-1.330078125-.740234375-2.4765625-1.8095703125-3.4404296875-1.06982421875-.962890625-2.611328125-1.638671875-4.62548828125-2.03125-2.0146484375-.3896484375-4.51171875-.259765625-7.49072265625.388671875.35693359375,2.2451171875.66796875,4.4658203125.93310546875,6.6591796875.265625,2.1962890625.54931640625,4.4462890625.853515625,6.7548828125ZM182.2900390625,100.5458984375c3.15673828125.0947265625,5.7802734375-.263671875,7.87255859375-1.07421875,2.09033203125-.8115234375,3.6279296875-1.8095703125,4.611328125-2.9990234375.982421875-1.1865234375,1.435546875-2.4189453125,1.3623046875-3.6962890625-.07470703125-1.2744140625-.67041015625-2.3359375-1.7880859375-3.1787109375-1.11767578125-.841796875-2.76171875-1.3349609375-4.9306640625-1.48046875-2.16943359375-.14453125-4.845703125.291015625-8.0283203125,1.3056640625l.90087890625,11.123046875Z"/>
          </g>
          <g>
            <path class="cls-2" d="M84.23486328125,58.37109375c2.3046875,1.0966796875,4.314453125,2.5087890625,6.02880859375,4.234375,1.71435546875,1.728515625,3.19580078125,3.6484375,4.44677734375,5.7626953125,1.24951171875,2.1171875,2.29248046875,4.37890625,3.1298828125,6.7890625.83642578125,2.41015625,1.52978515625,4.8466796875,2.0791015625,7.3095703125,1.20947265625,4.8583984375,2.076171875,9.802734375,2.6015625,14.8330078125.5234375,5.0302734375.84716796875,10.107421875.970703125,15.2265625.0009765625,1.4599609375-.0185546875,2.6572265625-.05859375,3.591796875-.0419921875.9365234375-.19775390625,1.7080078125-.46875,2.3125-.27197265625.60546875-.68408203125,1.1044921875-1.234375,1.4990234375-.5517578125.39453125-1.33642578125.7783203125-2.35595703125,1.1533203125-.97607421875.1962890625-1.99658203125.365234375-3.06298828125.5107421875-1.068359375.1435546875-2.0908203125-.064453125-3.06884765625-.6259765625-.91552734375-.5078125-1.72021484375-1.435546875-2.41162109375-2.7783203125-.6923828125-1.3427734375-1.1728515625-3.3173828125-1.44189453125-5.9189453125l-.0703125-.869140625c-1.46240234375-.0556640625-3.197265625-.060546875-5.205078125-.015625-2.00830078125.046875-4.05615234375.1396484375-6.14404296875.279296875s-4.10205078125.2880859375-6.04248046875.4453125c-1.94140625.1572265625-3.57763671875.2900390625-4.91015625.3984375-.01611328125.5263671875-.017578125,1.400390625-.005859375,2.625.01220703125,1.2236328125-.078125,2.4541015625-.26904296875,3.6943359375-.19189453125,1.2412109375-.494140625,2.3740234375-.9052734375,3.3974609375-.41357421875,1.0263671875-1.0517578125,1.6005859375-1.916015625,1.7294921875-.806640625.1240234375-1.728515625.2568359375-2.76611328125.3994140625-1.03857421875.140625-2.06201171875.109375-3.06982421875-.1005859375-1.00439453125-.15234375-1.8671875-.5498046875-2.5888671875-1.1904296875-.7236328125-.640625-1.1748046875-1.7119140625-1.35400390625-3.2138671875-.1455078125-1.794921875-.283203125-3.85546875-.41259765625-6.1767578125-.130859375-2.3203125-.2177734375-4.8505859375-.26513671875-7.587890625-.0673828125-2.26953125-.07958984375-4.76171875-.037109375-7.4755859375.04248046875-2.7158203125.1943359375-5.5107421875.45751953125-8.390625.26171875-2.876953125.66943359375-5.7685546875,1.2216796875-8.6708984375.55224609375-2.900390625,1.31787109375-5.6748046875,2.29931640625-8.3203125.98095703125-2.64453125,2.19580078125-5.10546875,3.64501953125-7.3798828125,1.447265625-2.2734375,3.2431640625-4.2275390625,5.38525390625-5.8583984375,2.52783203125-1.896484375,5.3857421875-2.9736328125,8.57275390625-3.2314453125,3.18505859375-.2587890625,6.26123046875.2783203125,9.2265625,1.61328125ZM66.32275390625,99.6201171875c3.62646484375-.5849609375,7.2431640625-1.09765625,10.8525390625-1.53515625,3.6083984375-.4375,7.24267578125-.7470703125,10.90234375-.927734375-.15966796875-4.1259765625-.63134765625-7.7900390625-1.416015625-10.9921875-.7841796875-3.2021484375-1.73046875-5.880859375-2.83740234375-8.037109375-1.1083984375-2.1533203125-2.34814453125-3.7734375-3.7177734375-4.8583984375-1.37060546875-1.083984375-2.72265625-1.572265625-4.05419921875-1.46484375-1.15966796875.09375-2.3134765625.7861328125-3.46240234375,2.0732421875-1.14990234375,1.2900390625-2.1669921875,3.12109375-3.05322265625,5.49609375-.88720703125,2.375-1.6279296875,5.2783203125-2.224609375,8.7080078125s-.927734375,7.27734375-.9892578125,11.5380859375Z"/>
            <path class="cls-2" d="M202.99658203125,78.6630859375c2.7080078125,1.7646484375,4.80322265625,4.0595703125,6.28662109375,6.8818359375,1.4814453125,2.8251953125,2.1181640625,5.8203125,1.90869140625,8.9853515625-.2353515625,3.576171875-1.384765625,6.6591796875-3.44921875,9.2451171875-2.06494140625,2.5869140625-4.57666015625,4.7001953125-7.53369140625,6.3388671875-2.95849609375,1.640625-6.19970703125,2.8359375-9.724609375,3.587890625-3.525390625.7509765625-6.8662109375,1.0810546875-10.0224609375.986328125-.28125.138671875-.5361328125.232421875-.76416015625.28125-.22998046875.046875-.4873046875.111328125-.771484375.193359375-1.03857421875.140625-2.111328125.2275390625-3.21533203125.2607421875-1.10595703125.0302734375-2.1201171875-.0771484375-3.04345703125-.3232421875-.9248046875-.244140625-1.73388671875-.703125-2.4296875-1.376953125-.697265625-.671875-1.15625-1.6689453125-1.3798828125-2.9931640625-.16845703125-.626953125-.30078125-1.9140625-.39990234375-3.859375-.10009765625-1.9453125-.2333984375-4.310546875-.39990234375-7.0966796875-.11474609375-2.8466796875-.2626953125-5.9404296875-.4453125-9.2783203125-.18359375-3.337890625-.38232421875-6.689453125-.59619140625-10.0546875-.2998046875-4.40625-.60009765625-8.8427734375-.90380859375-13.3095703125-.30419921875-4.46484375-.841796875-8.9404296875-1.61181640625-13.4267578125-.1591796875-.51171875-.138671875-.9794921875.06103515625-1.4033203125.0869140625-.3583984375.32080078125-.7109375.70068359375-1.0634765625.37939453125-.349609375.9697265625-.6171875,1.77197265625-.7998046875.57421875-.103515625,1.205078125-.2412109375,1.890625-.4150390625.6865234375-.1728515625,1.40283203125-.3173828125,2.1513671875-.4365234375.748046875-.1181640625,1.47265625-.177734375,2.1728515625-.17578125.69970703125.001953125,1.3173828125.0673828125,1.8525390625.19921875,2.921875-.64453125,6.0185546875-.91015625,9.294921875-.796875,3.2744140625.115234375,6.39208984375.6337890625,9.353515625,1.560546875s5.5771484375,2.2744140625,7.849609375,4.0439453125c2.271484375,1.76953125,3.8681640625,4.015625,4.78857421875,6.740234375.3876953125,1.193359375.6650390625,2.453125.8310546875,3.78125.1650390625,1.3291015625.1328125,2.7158203125-.10009765625,4.162109375-.23291015625,1.4482421875-.677734375,2.970703125-1.33544921875,4.568359375-.6572265625,1.599609375-1.5869140625,3.2646484375-2.78759765625,4.9931640625ZM179.98779296875,75.3681640625c2.7900390625-.109375,5.11279296875-.5908203125,6.96826171875-1.439453125,1.85546875-.8505859375,3.21533203125-1.8798828125,4.07958984375-3.0859375.8642578125-1.20703125,1.2275390625-2.4755859375,1.09130859375-3.8056640625-.13818359375-1.330078125-.740234375-2.4765625-1.8095703125-3.4404296875-1.06982421875-.962890625-2.611328125-1.638671875-4.62548828125-2.03125-2.0146484375-.3896484375-4.51171875-.259765625-7.49072265625.388671875.35693359375,2.2451171875.66796875,4.4658203125.93310546875,6.6591796875.265625,2.1962890625.54931640625,4.4462890625.853515625,6.7548828125ZM182.2900390625,100.5458984375c3.15673828125.0947265625,5.7802734375-.263671875,7.87255859375-1.07421875,2.09033203125-.8115234375,3.6279296875-1.8095703125,4.611328125-2.9990234375.982421875-1.1865234375,1.435546875-2.4189453125,1.3623046875-3.6962890625-.07470703125-1.2744140625-.67041015625-2.3359375-1.7880859375-3.1787109375-1.11767578125-.841796875-2.76171875-1.3349609375-4.9306640625-1.48046875-2.16943359375-.14453125-4.845703125.291015625-8.0283203125,1.3056640625l.90087890625,11.123046875Z"/>
          </g>
        </g>
      </a>
      <a xlink:href="https://www.notion.so/congruence/B-Event-1f1a5b08a72c49f5ab60f2e0793fd0a8?pvs=4">
        <g>
          <g>
            <path class="cls-3" d="M84.23486328125,58.37109375c2.3046875,1.0966796875,4.314453125,2.5087890625,6.02880859375,4.234375,1.71435546875,1.728515625,3.19580078125,3.6484375,4.44677734375,5.7626953125,1.24951171875,2.1171875,2.29248046875,4.37890625,3.1298828125,6.7890625.83642578125,2.41015625,1.52978515625,4.8466796875,2.0791015625,7.3095703125,1.20947265625,4.8583984375,2.076171875,9.802734375,2.6015625,14.8330078125.5234375,5.0302734375.84716796875,10.107421875.970703125,15.2265625.0009765625,1.4599609375-.0185546875,2.6572265625-.05859375,3.591796875-.0419921875.9365234375-.19775390625,1.7080078125-.46875,2.3125-.27197265625.60546875-.68408203125,1.1044921875-1.234375,1.4990234375-.5517578125.39453125-1.33642578125.7783203125-2.35595703125,1.1533203125-.97607421875.1962890625-1.99658203125.365234375-3.06298828125.5107421875-1.068359375.1435546875-2.0908203125-.064453125-3.06884765625-.6259765625-.91552734375-.5078125-1.72021484375-1.435546875-2.41162109375-2.7783203125-.6923828125-1.3427734375-1.1728515625-3.3173828125-1.44189453125-5.9189453125l-.0703125-.869140625c-1.46240234375-.0556640625-3.197265625-.060546875-5.205078125-.015625-2.00830078125.046875-4.05615234375.1396484375-6.14404296875.279296875s-4.10205078125.2880859375-6.04248046875.4453125c-1.94140625.1572265625-3.57763671875.2900390625-4.91015625.3984375-.01611328125.5263671875-.017578125,1.400390625-.005859375,2.625.01220703125,1.2236328125-.078125,2.4541015625-.26904296875,3.6943359375-.19189453125,1.2412109375-.494140625,2.3740234375-.9052734375,3.3974609375-.41357421875,1.0263671875-1.0517578125,1.6005859375-1.916015625,1.7294921875-.806640625.1240234375-1.728515625.2568359375-2.76611328125.3994140625-1.03857421875.140625-2.06201171875.109375-3.06982421875-.1005859375-1.00439453125-.15234375-1.8671875-.5498046875-2.5888671875-1.1904296875-.7236328125-.640625-1.1748046875-1.7119140625-1.35400390625-3.2138671875-.1455078125-1.794921875-.283203125-3.85546875-.41259765625-6.1767578125-.130859375-2.3203125-.2177734375-4.8505859375-.26513671875-7.587890625-.0673828125-2.26953125-.07958984375-4.76171875-.037109375-7.4755859375.04248046875-2.7158203125.1943359375-5.5107421875.45751953125-8.390625.26171875-2.876953125.66943359375-5.7685546875,1.2216796875-8.6708984375.55224609375-2.900390625,1.31787109375-5.6748046875,2.29931640625-8.3203125.98095703125-2.64453125,2.19580078125-5.10546875,3.64501953125-7.3798828125,1.447265625-2.2734375,3.2431640625-4.2275390625,5.38525390625-5.8583984375,2.52783203125-1.896484375,5.3857421875-2.9736328125,8.57275390625-3.2314453125,3.18505859375-.2587890625,6.26123046875.2783203125,9.2265625,1.61328125ZM66.32275390625,99.6201171875c3.62646484375-.5849609375,7.2431640625-1.09765625,10.8525390625-1.53515625,3.6083984375-.4375,7.24267578125-.7470703125,10.90234375-.927734375-.15966796875-4.1259765625-.63134765625-7.7900390625-1.416015625-10.9921875-.7841796875-3.2021484375-1.73046875-5.880859375-2.83740234375-8.037109375-1.1083984375-2.1533203125-2.34814453125-3.7734375-3.7177734375-4.8583984375-1.37060546875-1.083984375-2.72265625-1.572265625-4.05419921875-1.46484375-1.15966796875.09375-2.3134765625.7861328125-3.46240234375,2.0732421875-1.14990234375,1.2900390625-2.1669921875,3.12109375-3.05322265625,5.49609375-.88720703125,2.375-1.6279296875,5.2783203125-2.224609375,8.7080078125s-.927734375,7.27734375-.9892578125,11.5380859375Z"/>
            <path class="cls-3" d="M202.99658203125,78.6630859375c2.7080078125,1.7646484375,4.80322265625,4.0595703125,6.28662109375,6.8818359375,1.4814453125,2.8251953125,2.1181640625,5.8203125,1.90869140625,8.9853515625-.2353515625,3.576171875-1.384765625,6.6591796875-3.44921875,9.2451171875-2.06494140625,2.5869140625-4.57666015625,4.7001953125-7.53369140625,6.3388671875-2.95849609375,1.640625-6.19970703125,2.8359375-9.724609375,3.587890625-3.525390625.7509765625-6.8662109375,1.0810546875-10.0224609375.986328125-.28125.138671875-.5361328125.232421875-.76416015625.28125-.22998046875.046875-.4873046875.111328125-.771484375.193359375-1.03857421875.140625-2.111328125.2275390625-3.21533203125.2607421875-1.10595703125.0302734375-2.1201171875-.0771484375-3.04345703125-.3232421875-.9248046875-.244140625-1.73388671875-.703125-2.4296875-1.376953125-.697265625-.671875-1.15625-1.6689453125-1.3798828125-2.9931640625-.16845703125-.626953125-.30078125-1.9140625-.39990234375-3.859375-.10009765625-1.9453125-.2333984375-4.310546875-.39990234375-7.0966796875-.11474609375-2.8466796875-.2626953125-5.9404296875-.4453125-9.2783203125-.18359375-3.337890625-.38232421875-6.689453125-.59619140625-10.0546875-.2998046875-4.40625-.60009765625-8.8427734375-.90380859375-13.3095703125-.30419921875-4.46484375-.841796875-8.9404296875-1.61181640625-13.4267578125-.1591796875-.51171875-.138671875-.9794921875.06103515625-1.4033203125.0869140625-.3583984375.32080078125-.7109375.70068359375-1.0634765625.37939453125-.349609375.9697265625-.6171875,1.77197265625-.7998046875.57421875-.103515625,1.205078125-.2412109375,1.890625-.4150390625.6865234375-.1728515625,1.40283203125-.3173828125,2.1513671875-.4365234375.748046875-.1181640625,1.47265625-.177734375,2.1728515625-.17578125.69970703125.001953125,1.3173828125.0673828125,1.8525390625.19921875,2.921875-.64453125,6.0185546875-.91015625,9.294921875-.796875,3.2744140625.115234375,6.39208984375.6337890625,9.353515625,1.560546875s5.5771484375,2.2744140625,7.849609375,4.0439453125c2.271484375,1.76953125,3.8681640625,4.015625,4.78857421875,6.740234375.3876953125,1.193359375.6650390625,2.453125.8310546875,3.78125.1650390625,1.3291015625.1328125,2.7158203125-.10009765625,4.162109375-.23291015625,1.4482421875-.677734375,2.970703125-1.33544921875,4.568359375-.6572265625,1.599609375-1.5869140625,3.2646484375-2.78759765625,4.9931640625ZM179.98779296875,75.3681640625c2.7900390625-.109375,5.11279296875-.5908203125,6.96826171875-1.439453125,1.85546875-.8505859375,3.21533203125-1.8798828125,4.07958984375-3.0859375.8642578125-1.20703125,1.2275390625-2.4755859375,1.09130859375-3.8056640625-.13818359375-1.330078125-.740234375-2.4765625-1.8095703125-3.4404296875-1.06982421875-.962890625-2.611328125-1.638671875-4.62548828125-2.03125-2.0146484375-.3896484375-4.51171875-.259765625-7.49072265625.388671875.35693359375,2.2451171875.66796875,4.4658203125.93310546875,6.6591796875.265625,2.1962890625.54931640625,4.4462890625.853515625,6.7548828125ZM182.2900390625,100.5458984375c3.15673828125.0947265625,5.7802734375-.263671875,7.87255859375-1.07421875,2.09033203125-.8115234375,3.6279296875-1.8095703125,4.611328125-2.9990234375.982421875-1.1865234375,1.435546875-2.4189453125,1.3623046875-3.6962890625-.07470703125-1.2744140625-.67041015625-2.3359375-1.7880859375-3.1787109375-1.11767578125-.841796875-2.76171875-1.3349609375-4.9306640625-1.48046875-2.16943359375-.14453125-4.845703125.291015625-8.0283203125,1.3056640625l.90087890625,11.123046875Z"/>
          </g>
          <g>
            <path class="cls-3" d="M84.23486328125,58.37109375c2.3046875,1.0966796875,4.314453125,2.5087890625,6.02880859375,4.234375,1.71435546875,1.728515625,3.19580078125,3.6484375,4.44677734375,5.7626953125,1.24951171875,2.1171875,2.29248046875,4.37890625,3.1298828125,6.7890625.83642578125,2.41015625,1.52978515625,4.8466796875,2.0791015625,7.3095703125,1.20947265625,4.8583984375,2.076171875,9.802734375,2.6015625,14.8330078125.5234375,5.0302734375.84716796875,10.107421875.970703125,15.2265625.0009765625,1.4599609375-.0185546875,2.6572265625-.05859375,3.591796875-.0419921875.9365234375-.19775390625,1.7080078125-.46875,2.3125-.27197265625.60546875-.68408203125,1.1044921875-1.234375,1.4990234375-.5517578125.39453125-1.33642578125.7783203125-2.35595703125,1.1533203125-.97607421875.1962890625-1.99658203125.365234375-3.06298828125.5107421875-1.068359375.1435546875-2.0908203125-.064453125-3.06884765625-.6259765625-.91552734375-.5078125-1.72021484375-1.435546875-2.41162109375-2.7783203125-.6923828125-1.3427734375-1.1728515625-3.3173828125-1.44189453125-5.9189453125l-.0703125-.869140625c-1.46240234375-.0556640625-3.197265625-.060546875-5.205078125-.015625-2.00830078125.046875-4.05615234375.1396484375-6.14404296875.279296875s-4.10205078125.2880859375-6.04248046875.4453125c-1.94140625.1572265625-3.57763671875.2900390625-4.91015625.3984375-.01611328125.5263671875-.017578125,1.400390625-.005859375,2.625.01220703125,1.2236328125-.078125,2.4541015625-.26904296875,3.6943359375-.19189453125,1.2412109375-.494140625,2.3740234375-.9052734375,3.3974609375-.41357421875,1.0263671875-1.0517578125,1.6005859375-1.916015625,1.7294921875-.806640625.1240234375-1.728515625.2568359375-2.76611328125.3994140625-1.03857421875.140625-2.06201171875.109375-3.06982421875-.1005859375-1.00439453125-.15234375-1.8671875-.5498046875-2.5888671875-1.1904296875-.7236328125-.640625-1.1748046875-1.7119140625-1.35400390625-3.2138671875-.1455078125-1.794921875-.283203125-3.85546875-.41259765625-6.1767578125-.130859375-2.3203125-.2177734375-4.8505859375-.26513671875-7.587890625-.0673828125-2.26953125-.07958984375-4.76171875-.037109375-7.4755859375.04248046875-2.7158203125.1943359375-5.5107421875.45751953125-8.390625.26171875-2.876953125.66943359375-5.7685546875,1.2216796875-8.6708984375.55224609375-2.900390625,1.31787109375-5.6748046875,2.29931640625-8.3203125.98095703125-2.64453125,2.19580078125-5.10546875,3.64501953125-7.3798828125,1.447265625-2.2734375,3.2431640625-4.2275390625,5.38525390625-5.8583984375,2.52783203125-1.896484375,5.3857421875-2.9736328125,8.57275390625-3.2314453125,3.18505859375-.2587890625,6.26123046875.2783203125,9.2265625,1.61328125ZM66.32275390625,99.6201171875c3.62646484375-.5849609375,7.2431640625-1.09765625,10.8525390625-1.53515625,3.6083984375-.4375,7.24267578125-.7470703125,10.90234375-.927734375-.15966796875-4.1259765625-.63134765625-7.7900390625-1.416015625-10.9921875-.7841796875-3.2021484375-1.73046875-5.880859375-2.83740234375-8.037109375-1.1083984375-2.1533203125-2.34814453125-3.7734375-3.7177734375-4.8583984375-1.37060546875-1.083984375-2.72265625-1.572265625-4.05419921875-1.46484375-1.15966796875.09375-2.3134765625.7861328125-3.46240234375,2.0732421875-1.14990234375,1.2900390625-2.1669921875,3.12109375-3.05322265625,5.49609375-.88720703125,2.375-1.6279296875,5.2783203125-2.224609375,8.7080078125s-.927734375,7.27734375-.9892578125,11.5380859375Z"/>
            <path class="cls-3" d="M202.99658203125,78.6630859375c2.7080078125,1.7646484375,4.80322265625,4.0595703125,6.28662109375,6.8818359375,1.4814453125,2.8251953125,2.1181640625,5.8203125,1.90869140625,8.9853515625-.2353515625,3.576171875-1.384765625,6.6591796875-3.44921875,9.2451171875-2.06494140625,2.5869140625-4.57666015625,4.7001953125-7.53369140625,6.3388671875-2.95849609375,1.640625-6.19970703125,2.8359375-9.724609375,3.587890625-3.525390625.7509765625-6.8662109375,1.0810546875-10.0224609375.986328125-.28125.138671875-.5361328125.232421875-.76416015625.28125-.22998046875.046875-.4873046875.111328125-.771484375.193359375-1.03857421875.140625-2.111328125.2275390625-3.21533203125.2607421875-1.10595703125.0302734375-2.1201171875-.0771484375-3.04345703125-.3232421875-.9248046875-.244140625-1.73388671875-.703125-2.4296875-1.376953125-.697265625-.671875-1.15625-1.6689453125-1.3798828125-2.9931640625-.16845703125-.626953125-.30078125-1.9140625-.39990234375-3.859375-.10009765625-1.9453125-.2333984375-4.310546875-.39990234375-7.0966796875-.11474609375-2.8466796875-.2626953125-5.9404296875-.4453125-9.2783203125-.18359375-3.337890625-.38232421875-6.689453125-.59619140625-10.0546875-.2998046875-4.40625-.60009765625-8.8427734375-.90380859375-13.3095703125-.30419921875-4.46484375-.841796875-8.9404296875-1.61181640625-13.4267578125-.1591796875-.51171875-.138671875-.9794921875.06103515625-1.4033203125.0869140625-.3583984375.32080078125-.7109375.70068359375-1.0634765625.37939453125-.349609375.9697265625-.6171875,1.77197265625-.7998046875.57421875-.103515625,1.205078125-.2412109375,1.890625-.4150390625.6865234375-.1728515625,1.40283203125-.3173828125,2.1513671875-.4365234375.748046875-.1181640625,1.47265625-.177734375,2.1728515625-.17578125.69970703125.001953125,1.3173828125.0673828125,1.8525390625.19921875,2.921875-.64453125,6.0185546875-.91015625,9.294921875-.796875,3.2744140625.115234375,6.39208984375.6337890625,9.353515625,1.560546875s5.5771484375,2.2744140625,7.849609375,4.0439453125c2.271484375,1.76953125,3.8681640625,4.015625,4.78857421875,6.740234375.3876953125,1.193359375.6650390625,2.453125.8310546875,3.78125.1650390625,1.3291015625.1328125,2.7158203125-.10009765625,4.162109375-.23291015625,1.4482421875-.677734375,2.970703125-1.33544921875,4.568359375-.6572265625,1.599609375-1.5869140625,3.2646484375-2.78759765625,4.9931640625ZM179.98779296875,75.3681640625c2.7900390625-.109375,5.11279296875-.5908203125,6.96826171875-1.439453125,1.85546875-.8505859375,3.21533203125-1.8798828125,4.07958984375-3.0859375.8642578125-1.20703125,1.2275390625-2.4755859375,1.09130859375-3.8056640625-.13818359375-1.330078125-.740234375-2.4765625-1.8095703125-3.4404296875-1.06982421875-.962890625-2.611328125-1.638671875-4.62548828125-2.03125-2.0146484375-.3896484375-4.51171875-.259765625-7.49072265625.388671875.35693359375,2.2451171875.66796875,4.4658203125.93310546875,6.6591796875.265625,2.1962890625.54931640625,4.4462890625.853515625,6.7548828125ZM182.2900390625,100.5458984375c3.15673828125.0947265625,5.7802734375-.263671875,7.87255859375-1.07421875,2.09033203125-.8115234375,3.6279296875-1.8095703125,4.611328125-2.9990234375.982421875-1.1865234375,1.435546875-2.4189453125,1.3623046875-3.6962890625-.07470703125-1.2744140625-.67041015625-2.3359375-1.7880859375-3.1787109375-1.11767578125-.841796875-2.76171875-1.3349609375-4.9306640625-1.48046875-2.16943359375-.14453125-4.845703125.291015625-8.0283203125,1.3056640625l.90087890625,11.123046875Z"/>
          </g>
          <g>
            <path class="cls-3" d="M84.23486328125,58.37109375c2.3046875,1.0966796875,4.314453125,2.5087890625,6.02880859375,4.234375,1.71435546875,1.728515625,3.19580078125,3.6484375,4.44677734375,5.7626953125,1.24951171875,2.1171875,2.29248046875,4.37890625,3.1298828125,6.7890625.83642578125,2.41015625,1.52978515625,4.8466796875,2.0791015625,7.3095703125,1.20947265625,4.8583984375,2.076171875,9.802734375,2.6015625,14.8330078125.5234375,5.0302734375.84716796875,10.107421875.970703125,15.2265625.0009765625,1.4599609375-.0185546875,2.6572265625-.05859375,3.591796875-.0419921875.9365234375-.19775390625,1.7080078125-.46875,2.3125-.27197265625.60546875-.68408203125,1.1044921875-1.234375,1.4990234375-.5517578125.39453125-1.33642578125.7783203125-2.35595703125,1.1533203125-.97607421875.1962890625-1.99658203125.365234375-3.06298828125.5107421875-1.068359375.1435546875-2.0908203125-.064453125-3.06884765625-.6259765625-.91552734375-.5078125-1.72021484375-1.435546875-2.41162109375-2.7783203125-.6923828125-1.3427734375-1.1728515625-3.3173828125-1.44189453125-5.9189453125l-.0703125-.869140625c-1.46240234375-.0556640625-3.197265625-.060546875-5.205078125-.015625-2.00830078125.046875-4.05615234375.1396484375-6.14404296875.279296875s-4.10205078125.2880859375-6.04248046875.4453125c-1.94140625.1572265625-3.57763671875.2900390625-4.91015625.3984375-.01611328125.5263671875-.017578125,1.400390625-.005859375,2.625.01220703125,1.2236328125-.078125,2.4541015625-.26904296875,3.6943359375-.19189453125,1.2412109375-.494140625,2.3740234375-.9052734375,3.3974609375-.41357421875,1.0263671875-1.0517578125,1.6005859375-1.916015625,1.7294921875-.806640625.1240234375-1.728515625.2568359375-2.76611328125.3994140625-1.03857421875.140625-2.06201171875.109375-3.06982421875-.1005859375-1.00439453125-.15234375-1.8671875-.5498046875-2.5888671875-1.1904296875-.7236328125-.640625-1.1748046875-1.7119140625-1.35400390625-3.2138671875-.1455078125-1.794921875-.283203125-3.85546875-.41259765625-6.1767578125-.130859375-2.3203125-.2177734375-4.8505859375-.26513671875-7.587890625-.0673828125-2.26953125-.07958984375-4.76171875-.037109375-7.4755859375.04248046875-2.7158203125.1943359375-5.5107421875.45751953125-8.390625.26171875-2.876953125.66943359375-5.7685546875,1.2216796875-8.6708984375.55224609375-2.900390625,1.31787109375-5.6748046875,2.29931640625-8.3203125.98095703125-2.64453125,2.19580078125-5.10546875,3.64501953125-7.3798828125,1.447265625-2.2734375,3.2431640625-4.2275390625,5.38525390625-5.8583984375,2.52783203125-1.896484375,5.3857421875-2.9736328125,8.57275390625-3.2314453125,3.18505859375-.2587890625,6.26123046875.2783203125,9.2265625,1.61328125ZM66.32275390625,99.6201171875c3.62646484375-.5849609375,7.2431640625-1.09765625,10.8525390625-1.53515625,3.6083984375-.4375,7.24267578125-.7470703125,10.90234375-.927734375-.15966796875-4.1259765625-.63134765625-7.7900390625-1.416015625-10.9921875-.7841796875-3.2021484375-1.73046875-5.880859375-2.83740234375-8.037109375-1.1083984375-2.1533203125-2.34814453125-3.7734375-3.7177734375-4.8583984375-1.37060546875-1.083984375-2.72265625-1.572265625-4.05419921875-1.46484375-1.15966796875.09375-2.3134765625.7861328125-3.46240234375,2.0732421875-1.14990234375,1.2900390625-2.1669921875,3.12109375-3.05322265625,5.49609375-.88720703125,2.375-1.6279296875,5.2783203125-2.224609375,8.7080078125s-.927734375,7.27734375-.9892578125,11.5380859375Z"/>
            <path class="cls-3" d="M202.99658203125,78.6630859375c2.7080078125,1.7646484375,4.80322265625,4.0595703125,6.28662109375,6.8818359375,1.4814453125,2.8251953125,2.1181640625,5.8203125,1.90869140625,8.9853515625-.2353515625,3.576171875-1.384765625,6.6591796875-3.44921875,9.2451171875-2.06494140625,2.5869140625-4.57666015625,4.7001953125-7.53369140625,6.3388671875-2.95849609375,1.640625-6.19970703125,2.8359375-9.724609375,3.587890625-3.525390625.7509765625-6.8662109375,1.0810546875-10.0224609375.986328125-.28125.138671875-.5361328125.232421875-.76416015625.28125-.22998046875.046875-.4873046875.111328125-.771484375.193359375-1.03857421875.140625-2.111328125.2275390625-3.21533203125.2607421875-1.10595703125.0302734375-2.1201171875-.0771484375-3.04345703125-.3232421875-.9248046875-.244140625-1.73388671875-.703125-2.4296875-1.376953125-.697265625-.671875-1.15625-1.6689453125-1.3798828125-2.9931640625-.16845703125-.626953125-.30078125-1.9140625-.39990234375-3.859375-.10009765625-1.9453125-.2333984375-4.310546875-.39990234375-7.0966796875-.11474609375-2.8466796875-.2626953125-5.9404296875-.4453125-9.2783203125-.18359375-3.337890625-.38232421875-6.689453125-.59619140625-10.0546875-.2998046875-4.40625-.60009765625-8.8427734375-.90380859375-13.3095703125-.30419921875-4.46484375-.841796875-8.9404296875-1.61181640625-13.4267578125-.1591796875-.51171875-.138671875-.9794921875.06103515625-1.4033203125.0869140625-.3583984375.32080078125-.7109375.70068359375-1.0634765625.37939453125-.349609375.9697265625-.6171875,1.77197265625-.7998046875.57421875-.103515625,1.205078125-.2412109375,1.890625-.4150390625.6865234375-.1728515625,1.40283203125-.3173828125,2.1513671875-.4365234375.748046875-.1181640625,1.47265625-.177734375,2.1728515625-.17578125.69970703125.001953125,1.3173828125.0673828125,1.8525390625.19921875,2.921875-.64453125,6.0185546875-.91015625,9.294921875-.796875,3.2744140625.115234375,6.39208984375.6337890625,9.353515625,1.560546875s5.5771484375,2.2744140625,7.849609375,4.0439453125c2.271484375,1.76953125,3.8681640625,4.015625,4.78857421875,6.740234375.3876953125,1.193359375.6650390625,2.453125.8310546875,3.78125.1650390625,1.3291015625.1328125,2.7158203125-.10009765625,4.162109375-.23291015625,1.4482421875-.677734375,2.970703125-1.33544921875,4.568359375-.6572265625,1.599609375-1.5869140625,3.2646484375-2.78759765625,4.9931640625ZM179.98779296875,75.3681640625c2.7900390625-.109375,5.11279296875-.5908203125,6.96826171875-1.439453125,1.85546875-.8505859375,3.21533203125-1.8798828125,4.07958984375-3.0859375.8642578125-1.20703125,1.2275390625-2.4755859375,1.09130859375-3.8056640625-.13818359375-1.330078125-.740234375-2.4765625-1.8095703125-3.4404296875-1.06982421875-.962890625-2.611328125-1.638671875-4.62548828125-2.03125-2.0146484375-.3896484375-4.51171875-.259765625-7.49072265625.388671875.35693359375,2.2451171875.66796875,4.4658203125.93310546875,6.6591796875.265625,2.1962890625.54931640625,4.4462890625.853515625,6.7548828125ZM182.2900390625,100.5458984375c3.15673828125.0947265625,5.7802734375-.263671875,7.87255859375-1.07421875,2.09033203125-.8115234375,3.6279296875-1.8095703125,4.611328125-2.9990234375.982421875-1.1865234375,1.435546875-2.4189453125,1.3623046875-3.6962890625-.07470703125-1.2744140625-.67041015625-2.3359375-1.7880859375-3.1787109375-1.11767578125-.841796875-2.76171875-1.3349609375-4.9306640625-1.48046875-2.16943359375-.14453125-4.845703125.291015625-8.0283203125,1.3056640625l.90087890625,11.123046875Z"/>
          </g>
        </g>
      </a>
    </g>
  </a>
</svg>