<?xml version="1.0" encoding="UTF-8"?>
<svg id="Content" xmlns="http://www.w3.org/2000/svg" xmlns:xlink="http://www.w3.org/1999/xlink" viewBox="0 0 280 280">
  <defs>
    <style>
      .cls-1 {
        stroke: #665451;
        stroke-width: 50px;
      }

      .cls-1, .cls-2 {
        fill: none;
        stroke-linecap: round;
        stroke-linejoin: round;
      }

      .cls-3 {
        fill: #fff;
      }

      .cls-2 {
        stroke: #998675;
        stroke-width: 2px;
      }
    </style>
  </defs>
  <a xlink:href="https://www.notion.so/congruence/Five-number-summary-62192beba6904d26bdce2801567328e8?pvs=4">
    <g>
      <g>
        <path d="M74.41639781756021,119.617857606890539c-13.302300060040579,1.063588214476113-26.660847331530022,1.288228955605518-39.991369063069214.672699574473882-3.381809699720179-.156186597703709-6.485089869600415,3.400374874396221-6.220713509110283,6.68153307367902.300436795858332,3.725632875019073,3.058993073198508,6.053412509474583,6.68153307367902,6.220713509112102,13.330521731541012.615529381129818,26.68906900301954.390888640000412,39.99136906306012-.672699574475701,3.361167245060642-.268705839413087,6.509592668069672-3.096996008287533,6.220713509110283-6.681533073677201-.271274561520841-3.362442225008635-3.076315001550029-6.508964590586402-6.681533073669925-6.220713509112102Z"/>
        <path d="M136.274514330170859,118.144185110497347c-13.122910813530325-1.455174857735983-26.326343095981429-.290300532276888-39.466184606750176.370819625033619-3.370804823260187.169594529739697-6.503900097570295,3.168072657019366-6.220713509110283,6.681533073675382.277889648348719,3.447573705805553,3.068096767299721,6.402495865138917,6.68153307367902,6.220713509112102,11.917033585490572-.5995735143606,24.010867085700738-1.777015540195862,35.931400719160592-.718508662335807.029553406939158.003254904229834.059091813249324.006089813454309.088435222689441.009352218003187,1.794783543740778.198991668275994,3.359508758310767.179376366799261,4.947832404241126-.827909804675073,1.310135401519801-.830872717653619,2.531489150460402-2.410798908262223,2.826834528299514-3.961278651824614.317333021159357-1.664860934030003.169648679189777-3.51559876923784-.827696057020148-4.947734905803372-.892722556160152-1.281590619058989-2.335115651168962-2.646631686024193-3.961441775189087-2.826986401185422Z"/>
        <path d="M189.127631554889376,117.578146841493435c-12.309096223409142.07203801067044-24.618190571729428.144128520718368-36.927496792639431.216174031706032-3.379730008180559.019783818028372-6.495449364869273,3.275163874659484-6.220713509110283,6.681533073675382.288354148080543,3.57572467058344,3.060469046180515,6.241915278229499,6.681533073680839,6.220713509113921,12.309306220899089-.072045510987664,24.61840056922847-.144136021033773,36.927496792630336-.216174031704213,3.37973000817874-.019783818030191,6.495449364869273-3.275163874659484,6.220713509108464-6.681533073677201-.288354148069629-3.575724670581621-3.06025904866874-6.241922778548542-6.681533073669925-6.220713509113921Z"/>
        <path d="M246.687143875360562,116.100305227610079c-13.180999922369665.262297451779887-26.36178984722028.52458740324073-39.542577897011142.786929854080881-3.377824938699632.067235753382192-6.498340646308861,3.241309280476344-6.220713509110283,6.681533073677201.285014734021388,3.535210155998357,3.062074125740764,6.292742174267914,6.681533073680839,6.220713509112102,13.180788049779949-.262342450838332,26.361577974639658-.524632402299176,39.542577897000228-.786929854080881,3.377614941209686-.067228253066787,6.498130648818915-3.241301780157301,6.220713509110283-6.681533073677201-.285016609090235-3.535262655372208-3.062285998310472-6.292787173322722-6.681533073669925-6.220713509112102Z"/>
        <path d="M201.944237383520885,92.348495247626488c.246821444769012-1.296007657734663.038178942879313-2.569282201251553-.530466405331026-3.637305973243201-.000324993668983-.321116203294878-.017866043839604-.647399812129152-.00745297019057-.932786458619375.041537926181263-1.138861617475413.083077727431373-2.277670735575157.124407531191537-3.416472353355857.077858065038527-2.135344907961553.155718005169547-4.270637316547436.233577945298748-6.405929725133319.077859940120106-2.135292408585883.155509882750266-4.270577316852723.233369822870372-6.405869725436787.040233007730421-1.104752018174622.077934794941029-2.209729028778384.135014479899837-3.313768588031962.028316725120021-.549436059736763.060844650779472-1.098707129589457.101174360410369-1.647363221836713.016180624499611-.223984883530647.034678721860473-.447842273060814.05360431454028-.671504665726388.000367492779333-.001484983156843.000335616428856-.002377472545049.000493111700052-.003854955382849.15724597965891-1.437365813020733.144827456269923-2.685793530661613-.662199220130788-3.958196924457297-.664659174750341-1.048193820279266-1.928559252779451-2.025309819124232-3.169153795159218-2.261599620822381-2.465315516799819-.469677168481212-5.905516452850861.959520105399861-6.219693421609918,3.831296765758452-.365700447129711,3.342508695488505-.527647018330754,6.702866784973594-.644959739040132,10.064837268870178-14.360962529659446,1.393931361635623-28.689630913720976,2.544063042741982-43.128615771720433,2.583570566948765-2.442203616510596.006694655285173-4.884009784629598-.010805404181156-7.325491598219742-.036885362849716-.204950390250815-1.128691259866173-.688284192970968-2.168853026611032-1.554581765800322-2.975504311390978-.927189462499882-.863140498950088-2.419778022980609-1.484782756691857-3.703325773860342-1.38127399205041-1.332608413238631.107468812937441-2.701253163038928.595333198885783-3.595347439539182,1.641955059531028-.615368203811158.720427676411418-1.114269966001302,1.605118185208994-1.307030858401049,2.548524906414968-8.547656804888902-.181053789288853-17.094768109978759-.423366855457061-25.64447213657877-.473352190201695-7.68533361000118-.044954569872061-15.372414360501352.084883797326256-23.045531530100561.535035850869463-.059588394560706-1.792013700198368-.131148521859359-3.583652381621505-.182125143710437-5.375921095499507-.077117449069192-2.700785423174239-2.576435873010269-5.199833535534708-5.345226458939578-4.976570807290045-2.808416361289346.226465267203821-5.059129817269422,2.450875834547332-4.976570807290045,5.345226458941397.134270674450818,4.713086523966922.297526629550703,9.42529550211475.492698454949277,14.136259433111263.095907739270842,2.32026988501093.199377263741553,4.640322257935622.310401073060348,6.95994712126776.055915972910952,1.165238616737042.118692611011284,2.393048980480671.541395365560675,3.489992693517706.799952066199694,2.075133918031497,2.382862096239478,3.68321683947579,4.595361302390302,4.19193903649284,2.629940707478454.604727752841427,5.695415580808913-1.078543291068854,6.219693421609918-3.83129676576209.304557050460062-1.598696691420628-.098110726230516-3.229694129982818-1.044879381959618-4.440860476788657-.043235003540758-.910271655411634-.085838139490079-1.820513312402909-.126975043080165-2.730912470375188-.036711772780109-.81593778322349-.068383605490453-1.632055574089463-.103417273319792-2.448105859239149,13.966895804969681-.817817408233168,27.963397778288709-.530012943963811,41.942366897979809-.209148836522218,2.542511306868619.058374381047543,5.085768849779924.114093792031781,7.629300131478885.165703251070227.061968641899512.322121071916627.118724847810881.64547963930454.183824701460253.966963212686096.240648216220507,1.192125440775271,1.455176916510027,2.447083250825017,2.481870850509949,2.99957722918225,1.129178454819339.607865625106569,2.76939448379926.823889891673389,3.995304752759694.378235283444155,1.234422662450015-.448692088826647,2.411537788510032-1.265614713520335,2.999524729810219-2.481868975439284.158779814280933-.417160376346146.317561503639809-.834268253318442.476341317929837-1.251428629668226.035329910901055-.152915760796532.05344002656966-.305216495482455.075330097281039-.457652235898422,8.437662898390045.074382763530593,16.874571740869214-.013637551628563,25.302808020580414-.509315530849562,7.842403271788498-.461297249967174,15.663599986688496-1.210216058703736,23.481654216528113-1.970587225965573-.042779091909324,1.174756195554437-.085560058909323,2.349459891731385-.128339150829561,3.524216087287641-.053398412919705,1.460255341113225-.188935930658772,2.881391303908458.188492392369881,4.317901090535088.567745603430012,2.16138334858806,2.2707086458704,3.798663192146705,4.427942973530662,4.355459927986885,2.614995395209917.67491195213006,5.704985370819486-1.128507718967739,6.219903419110778-3.831304266079314ZM198.995465169929957,86.44343077078338c-.018594171529912-.008429864299615-.038197078820303-.015667240741095-.056783750040267-.02388710753803.01661044003049.005872398380234.033432752630688.011789795813456.050043192659359.017662194191871.00217685329153.002077471221128.004353706581242.004154942442256.006740557380908.006224913346159Z"/>
        <path d="M245.14346933942943,85.235335242105066c.086915536499873-6.97438709871858,5.775808157901338-13.937512086413335,5.862720815521243-20.912018191957031.023861618239607-1.914969638299226-5.990984493220822-1.268899013979535-8.363167314710154-1.124824637001439-2.49012088651034.151214230889309-8.75421089772135.433658732088588-8.779772726291412,2.485369287282083-.086912657608991,6.974506105545515,6.656058881249919,14.834127127360262,6.569143344750046,21.80851422608248-.023861618248702,1.914969638297407,1.475417209951047,4.161768518601093,2.126801017671824,3.941175183355881,2.208672096559894-.74797429481805,2.558715913379274-4.146386305741544,2.584274863058454-6.198215867761974Z"/>
        <path d="M39.469609400759509,85.235335242105066c.086915536499873-6.97438709871858,5.775808157899519-13.937512086413335,5.862720815510329-20.912018191957031.023861618250521-1.914969638299226-5.990984493209908-1.268899013979535-8.36316731469924-1.124824637001439-2.490120886521254.151214230889309-8.75421089772135.433658732088588-8.779772726291412,2.485369287282083-.086912657608991,6.974506105545515,6.656058881240824,14.834127127360262,6.569143344750046,21.80851422608248-.023861618248702,1.914969638297407,1.475417209951047,4.161768518601093,2.126801017670005,3.941175183355881,2.208672096561713-.74797429481805,2.558715913381093-4.146386305741544,2.584274863060273-6.198215867761974Z"/>
        <path d="M141.968996020270424,87.786256910041629c.338387888308716-6.980470477461495,11.789279697739403-14.082984241378654,12.127664707189979-21.063573725665265.092905936218813-1.916639892437161-11.854258591500184-1.127060291939415-16.563441277379752-.926451448278385-4.943309071220938.210559414348609-17.376251189400136.642234888655366-17.475783935709842,2.695734877581344-.338385009450576,6.98058948428843,12.850766401348665,14.684270684812873,12.512378513039948,21.664741162274368-.092905936220632,1.916639892437161,2.827780536219507,4.129053437794937,4.125195233869817,3.892831940827818,4.399193849099902-.800965303043995,5.174456891549198-4.209663810990605,5.273986758989849-6.26328280673988Z"/>
      </g>
      <g>
        <path class="cls-1" d="M74.41639781756021,119.617857606890539c-13.302300060040579,1.063588214476113-26.660847331530022,1.288228955605518-39.991369063069214.672699574473882-3.381809699720179-.156186597703709-6.485089869600415,3.400374874396221-6.220713509110283,6.68153307367902.300436795858332,3.725632875019073,3.058993073198508,6.053412509474583,6.68153307367902,6.220713509112102,13.330521731541012.615529381129818,26.68906900301954.390888640000412,39.99136906306012-.672699574475701,3.361167245060642-.268705839413087,6.509592668069672-3.096996008287533,6.220713509110283-6.681533073677201-.271274561520841-3.362442225008635-3.076315001550029-6.508964590586402-6.681533073669925-6.220713509112102Z"/>
        <path class="cls-1" d="M136.274514330170859,118.144185110497347c-13.122910813530325-1.455174857735983-26.326343095981429-.290300532276888-39.466184606750176.370819625033619-3.370804823260187.169594529739697-6.503900097570295,3.168072657019366-6.220713509110283,6.681533073675382.277889648348719,3.447573705805553,3.068096767299721,6.402495865138917,6.68153307367902,6.220713509112102,11.917033585490572-.5995735143606,24.010867085700738-1.777015540195862,35.931400719160592-.718508662335807.029553406939158.003254904229834.059091813249324.006089813454309.088435222689441.009352218003187,1.794783543740778.198991668275994,3.359508758310767.179376366799261,4.947832404241126-.827909804675073,1.310135401519801-.830872717653619,2.531489150460402-2.410798908262223,2.826834528299514-3.961278651824614.317333021159357-1.664860934030003.169648679189777-3.51559876923784-.827696057020148-4.947734905803372-.892722556160152-1.281590619058989-2.335115651168962-2.646631686024193-3.961441775189087-2.826986401185422Z"/>
        <path class="cls-1" d="M189.127631554889376,117.578146841493435c-12.309096223409142.07203801067044-24.618190571729428.144128520718368-36.927496792639431.216174031706032-3.379730008180559.019783818028372-6.495449364869273,3.275163874659484-6.220713509110283,6.681533073675382.288354148080543,3.57572467058344,3.060469046180515,6.241915278229499,6.681533073680839,6.220713509113921,12.309306220899089-.072045510987664,24.61840056922847-.144136021033773,36.927496792630336-.216174031704213,3.37973000817874-.019783818030191,6.495449364869273-3.275163874659484,6.220713509108464-6.681533073677201-.288354148069629-3.575724670581621-3.06025904866874-6.241922778548542-6.681533073669925-6.220713509113921Z"/>
        <path class="cls-1" d="M246.687143875360562,116.100305227610079c-13.180999922369665.262297451779887-26.36178984722028.52458740324073-39.542577897011142.786929854080881-3.377824938699632.067235753382192-6.498340646308861,3.241309280476344-6.220713509110283,6.681533073677201.285014734021388,3.535210155998357,3.062074125740764,6.292742174267914,6.681533073680839,6.220713509112102,13.180788049779949-.262342450838332,26.361577974639658-.524632402299176,39.542577897000228-.786929854080881,3.377614941209686-.067228253066787,6.498130648818915-3.241301780157301,6.220713509110283-6.681533073677201-.285016609090235-3.535262655372208-3.062285998310472-6.292787173322722-6.681533073669925-6.220713509112102Z"/>
        <path class="cls-1" d="M201.944237383520885,92.348495247626488c.246821444769012-1.296007657734663.038178942879313-2.569282201251553-.530466405331026-3.637305973243201-.000324993668983-.321116203294878-.017866043839604-.647399812129152-.00745297019057-.932786458619375.041537926181263-1.138861617475413.083077727431373-2.277670735575157.124407531191537-3.416472353355857.077858065038527-2.135344907961553.155718005169547-4.270637316547436.233577945298748-6.405929725133319.077859940120106-2.135292408585883.155509882750266-4.270577316852723.233369822870372-6.405869725436787.040233007730421-1.104752018174622.077934794941029-2.209729028778384.135014479899837-3.313768588031962.028316725120021-.549436059736763.060844650779472-1.098707129589457.101174360410369-1.647363221836713.016180624499611-.223984883530647.034678721860473-.447842273060814.05360431454028-.671504665726388.000367492779333-.001484983156843.000335616428856-.002377472545049.000493111700052-.003854955382849.15724597965891-1.437365813020733.144827456269923-2.685793530661613-.662199220130788-3.958196924457297-.664659174750341-1.048193820279266-1.928559252779451-2.025309819124232-3.169153795159218-2.261599620822381-2.465315516799819-.469677168481212-5.905516452850861.959520105399861-6.219693421609918,3.831296765758452-.365700447129711,3.342508695488505-.527647018330754,6.702866784973594-.644959739040132,10.064837268870178-14.360962529659446,1.393931361635623-28.689630913720976,2.544063042741982-43.128615771720433,2.583570566948765-2.442203616510596.006694655285173-4.884009784629598-.010805404181156-7.325491598219742-.036885362849716-.204950390250815-1.128691259866173-.688284192970968-2.168853026611032-1.554581765800322-2.975504311390978-.927189462499882-.863140498950088-2.419778022980609-1.484782756691857-3.703325773860342-1.38127399205041-1.332608413238631.107468812937441-2.701253163038928.595333198885783-3.595347439539182,1.641955059531028-.615368203811158.720427676411418-1.114269966001302,1.605118185208994-1.307030858401049,2.548524906414968-8.547656804888902-.181053789288853-17.094768109978759-.423366855457061-25.64447213657877-.473352190201695-7.68533361000118-.044954569872061-15.372414360501352.084883797326256-23.045531530100561.535035850869463-.059588394560706-1.792013700198368-.131148521859359-3.583652381621505-.182125143710437-5.375921095499507-.077117449069192-2.700785423174239-2.576435873010269-5.199833535534708-5.345226458939578-4.976570807290045-2.808416361289346.226465267203821-5.059129817269422,2.450875834547332-4.976570807290045,5.345226458941397.134270674450818,4.713086523966922.297526629550703,9.42529550211475.492698454949277,14.136259433111263.095907739270842,2.32026988501093.199377263741553,4.640322257935622.310401073060348,6.95994712126776.055915972910952,1.165238616737042.118692611011284,2.393048980480671.541395365560675,3.489992693517706.799952066199694,2.075133918031497,2.382862096239478,3.68321683947579,4.595361302390302,4.19193903649284,2.629940707478454.604727752841427,5.695415580808913-1.078543291068854,6.219693421609918-3.83129676576209.304557050460062-1.598696691420628-.098110726230516-3.229694129982818-1.044879381959618-4.440860476788657-.043235003540758-.910271655411634-.085838139490079-1.820513312402909-.126975043080165-2.730912470375188-.036711772780109-.81593778322349-.068383605490453-1.632055574089463-.103417273319792-2.448105859239149,13.966895804969681-.817817408233168,27.963397778288709-.530012943963811,41.942366897979809-.209148836522218,2.542511306868619.058374381047543,5.085768849779924.114093792031781,7.629300131478885.165703251070227.061968641899512.322121071916627.118724847810881.64547963930454.183824701460253.966963212686096.240648216220507,1.192125440775271,1.455176916510027,2.447083250825017,2.481870850509949,2.99957722918225,1.129178454819339.607865625106569,2.76939448379926.823889891673389,3.995304752759694.378235283444155,1.234422662450015-.448692088826647,2.411537788510032-1.265614713520335,2.999524729810219-2.481868975439284.158779814280933-.417160376346146.317561503639809-.834268253318442.476341317929837-1.251428629668226.035329910901055-.152915760796532.05344002656966-.305216495482455.075330097281039-.457652235898422,8.437662898390045.074382763530593,16.874571740869214-.013637551628563,25.302808020580414-.509315530849562,7.842403271788498-.461297249967174,15.663599986688496-1.210216058703736,23.481654216528113-1.970587225965573-.042779091909324,1.174756195554437-.085560058909323,2.349459891731385-.128339150829561,3.524216087287641-.053398412919705,1.460255341113225-.188935930658772,2.881391303908458.188492392369881,4.317901090535088.567745603430012,2.16138334858806,2.2707086458704,3.798663192146705,4.427942973530662,4.355459927986885,2.614995395209917.67491195213006,5.704985370819486-1.128507718967739,6.219903419110778-3.831304266079314ZM198.995465169929957,86.44343077078338c-.018594171529912-.008429864299615-.038197078820303-.015667240741095-.056783750040267-.02388710753803.01661044003049.005872398380234.033432752630688.011789795813456.050043192659359.017662194191871.00217685329153.002077471221128.004353706581242.004154942442256.006740557380908.006224913346159Z"/>
        <path class="cls-1" d="M245.14346933942943,85.235335242105066c.086915536499873-6.97438709871858,5.775808157901338-13.937512086413335,5.862720815521243-20.912018191957031.023861618239607-1.914969638299226-5.990984493220822-1.268899013979535-8.363167314710154-1.124824637001439-2.49012088651034.151214230889309-8.75421089772135.433658732088588-8.779772726291412,2.485369287282083-.086912657608991,6.974506105545515,6.656058881249919,14.834127127360262,6.569143344750046,21.80851422608248-.023861618248702,1.914969638297407,1.475417209951047,4.161768518601093,2.126801017671824,3.941175183355881,2.208672096559894-.74797429481805,2.558715913379274-4.146386305741544,2.584274863058454-6.198215867761974Z"/>
        <path class="cls-1" d="M39.469609400759509,85.235335242105066c.086915536499873-6.97438709871858,5.775808157899519-13.937512086413335,5.862720815510329-20.912018191957031.023861618250521-1.914969638299226-5.990984493209908-1.268899013979535-8.36316731469924-1.124824637001439-2.490120886521254.151214230889309-8.75421089772135.433658732088588-8.779772726291412,2.485369287282083-.086912657608991,6.974506105545515,6.656058881240824,14.834127127360262,6.569143344750046,21.80851422608248-.023861618248702,1.914969638297407,1.475417209951047,4.161768518601093,2.126801017670005,3.941175183355881,2.208672096561713-.74797429481805,2.558715913381093-4.146386305741544,2.584274863060273-6.198215867761974Z"/>
        <path class="cls-1" d="M141.968996020270424,87.786256910041629c.338387888308716-6.980470477461495,11.789279697739403-14.082984241378654,12.127664707189979-21.063573725665265.092905936218813-1.916639892437161-11.854258591500184-1.127060291939415-16.563441277379752-.926451448278385-4.943309071220938.210559414348609-17.376251189400136.642234888655366-17.475783935709842,2.695734877581344-.338385009450576,6.98058948428843,12.850766401348665,14.684270684812873,12.512378513039948,21.664741162274368-.092905936220632,1.916639892437161,2.827780536219507,4.129053437794937,4.125195233869817,3.892831940827818,4.399193849099902-.800965303043995,5.174456891549198-4.209663810990605,5.273986758989849-6.26328280673988Z"/>
      </g>
      <g>
        <path class="cls-2" d="M74.41639781756021,119.617857606890539c-13.302300060040579,1.063588214476113-26.660847331530022,1.288228955605518-39.991369063069214.672699574473882-3.381809699720179-.156186597703709-6.485089869600415,3.400374874396221-6.220713509110283,6.68153307367902.300436795858332,3.725632875019073,3.058993073198508,6.053412509474583,6.68153307367902,6.220713509112102,13.330521731541012.615529381129818,26.68906900301954.390888640000412,39.99136906306012-.672699574475701,3.361167245060642-.268705839413087,6.509592668069672-3.096996008287533,6.220713509110283-6.681533073677201-.271274561520841-3.362442225008635-3.076315001550029-6.508964590586402-6.681533073669925-6.220713509112102Z"/>
        <path class="cls-2" d="M136.274514330170859,118.144185110497347c-13.122910813530325-1.455174857735983-26.326343095981429-.290300532276888-39.466184606750176.370819625033619-3.370804823260187.169594529739697-6.503900097570295,3.168072657019366-6.220713509110283,6.681533073675382.277889648348719,3.447573705805553,3.068096767299721,6.402495865138917,6.68153307367902,6.220713509112102,11.917033585490572-.5995735143606,24.010867085700738-1.777015540195862,35.931400719160592-.718508662335807.029553406939158.003254904229834.059091813249324.006089813454309.088435222689441.009352218003187,1.794783543740778.198991668275994,3.359508758310767.179376366799261,4.947832404241126-.827909804675073,1.310135401519801-.830872717653619,2.531489150460402-2.410798908262223,2.826834528299514-3.961278651824614.317333021159357-1.664860934030003.169648679189777-3.51559876923784-.827696057020148-4.947734905803372-.892722556160152-1.281590619058989-2.335115651168962-2.646631686024193-3.961441775189087-2.826986401185422Z"/>
        <path class="cls-2" d="M189.127631554889376,117.578146841493435c-12.309096223409142.07203801067044-24.618190571729428.144128520718368-36.927496792639431.216174031706032-3.379730008180559.019783818028372-6.495449364869273,3.275163874659484-6.220713509110283,6.681533073675382.288354148080543,3.57572467058344,3.060469046180515,6.241915278229499,6.681533073680839,6.220713509113921,12.309306220899089-.072045510987664,24.61840056922847-.144136021033773,36.927496792630336-.216174031704213,3.37973000817874-.019783818030191,6.495449364869273-3.275163874659484,6.220713509108464-6.681533073677201-.288354148069629-3.575724670581621-3.06025904866874-6.241922778548542-6.681533073669925-6.220713509113921Z"/>
        <path class="cls-2" d="M246.687143875360562,116.100305227610079c-13.180999922369665.262297451779887-26.36178984722028.52458740324073-39.542577897011142.786929854080881-3.377824938699632.067235753382192-6.498340646308861,3.241309280476344-6.220713509110283,6.681533073677201.285014734021388,3.535210155998357,3.062074125740764,6.292742174267914,6.681533073680839,6.220713509112102,13.180788049779949-.262342450838332,26.361577974639658-.524632402299176,39.542577897000228-.786929854080881,3.377614941209686-.067228253066787,6.498130648818915-3.241301780157301,6.220713509110283-6.681533073677201-.285016609090235-3.535262655372208-3.062285998310472-6.292787173322722-6.681533073669925-6.220713509112102Z"/>
        <path class="cls-2" d="M201.944237383520885,92.348495247626488c.246821444769012-1.296007657734663.038178942879313-2.569282201251553-.530466405331026-3.637305973243201-.000324993668983-.321116203294878-.017866043839604-.647399812129152-.00745297019057-.932786458619375.041537926181263-1.138861617475413.083077727431373-2.277670735575157.124407531191537-3.416472353355857.077858065038527-2.135344907961553.155718005169547-4.270637316547436.233577945298748-6.405929725133319.077859940120106-2.135292408585883.155509882750266-4.270577316852723.233369822870372-6.405869725436787.040233007730421-1.104752018174622.077934794941029-2.209729028778384.135014479899837-3.313768588031962.028316725120021-.549436059736763.060844650779472-1.098707129589457.101174360410369-1.647363221836713.016180624499611-.223984883530647.034678721860473-.447842273060814.05360431454028-.671504665726388.000367492779333-.001484983156843.000335616428856-.002377472545049.000493111700052-.003854955382849.15724597965891-1.437365813020733.144827456269923-2.685793530661613-.662199220130788-3.958196924457297-.664659174750341-1.048193820279266-1.928559252779451-2.025309819124232-3.169153795159218-2.261599620822381-2.465315516799819-.469677168481212-5.905516452850861.959520105399861-6.219693421609918,3.831296765758452-.365700447129711,3.342508695488505-.527647018330754,6.702866784973594-.644959739040132,10.064837268870178-14.360962529659446,1.393931361635623-28.689630913720976,2.544063042741982-43.128615771720433,2.583570566948765-2.442203616510596.006694655285173-4.884009784629598-.010805404181156-7.325491598219742-.036885362849716-.204950390250815-1.128691259866173-.688284192970968-2.168853026611032-1.554581765800322-2.975504311390978-.927189462499882-.863140498950088-2.419778022980609-1.484782756691857-3.703325773860342-1.38127399205041-1.332608413238631.107468812937441-2.701253163038928.595333198885783-3.595347439539182,1.641955059531028-.615368203811158.720427676411418-1.114269966001302,1.605118185208994-1.307030858401049,2.548524906414968-8.547656804888902-.181053789288853-17.094768109978759-.423366855457061-25.64447213657877-.473352190201695-7.68533361000118-.044954569872061-15.372414360501352.084883797326256-23.045531530100561.535035850869463-.059588394560706-1.792013700198368-.131148521859359-3.583652381621505-.182125143710437-5.375921095499507-.077117449069192-2.700785423174239-2.576435873010269-5.199833535534708-5.345226458939578-4.976570807290045-2.808416361289346.226465267203821-5.059129817269422,2.450875834547332-4.976570807290045,5.345226458941397.134270674450818,4.713086523966922.297526629550703,9.42529550211475.492698454949277,14.136259433111263.095907739270842,2.32026988501093.199377263741553,4.640322257935622.310401073060348,6.95994712126776.055915972910952,1.165238616737042.118692611011284,2.393048980480671.541395365560675,3.489992693517706.799952066199694,2.075133918031497,2.382862096239478,3.68321683947579,4.595361302390302,4.19193903649284,2.629940707478454.604727752841427,5.695415580808913-1.078543291068854,6.219693421609918-3.83129676576209.304557050460062-1.598696691420628-.098110726230516-3.229694129982818-1.044879381959618-4.440860476788657-.043235003540758-.910271655411634-.085838139490079-1.820513312402909-.126975043080165-2.730912470375188-.036711772780109-.81593778322349-.068383605490453-1.632055574089463-.103417273319792-2.448105859239149,13.966895804969681-.817817408233168,27.963397778288709-.530012943963811,41.942366897979809-.209148836522218,2.542511306868619.058374381047543,5.085768849779924.114093792031781,7.629300131478885.165703251070227.061968641899512.322121071916627.118724847810881.64547963930454.183824701460253.966963212686096.240648216220507,1.192125440775271,1.455176916510027,2.447083250825017,2.481870850509949,2.99957722918225,1.129178454819339.607865625106569,2.76939448379926.823889891673389,3.995304752759694.378235283444155,1.234422662450015-.448692088826647,2.411537788510032-1.265614713520335,2.999524729810219-2.481868975439284.158779814280933-.417160376346146.317561503639809-.834268253318442.476341317929837-1.251428629668226.035329910901055-.152915760796532.05344002656966-.305216495482455.075330097281039-.457652235898422,8.437662898390045.074382763530593,16.874571740869214-.013637551628563,25.302808020580414-.509315530849562,7.842403271788498-.461297249967174,15.663599986688496-1.210216058703736,23.481654216528113-1.970587225965573-.042779091909324,1.174756195554437-.085560058909323,2.349459891731385-.128339150829561,3.524216087287641-.053398412919705,1.460255341113225-.188935930658772,2.881391303908458.188492392369881,4.317901090535088.567745603430012,2.16138334858806,2.2707086458704,3.798663192146705,4.427942973530662,4.355459927986885,2.614995395209917.67491195213006,5.704985370819486-1.128507718967739,6.219903419110778-3.831304266079314ZM198.995465169929957,86.44343077078338c-.018594171529912-.008429864299615-.038197078820303-.015667240741095-.056783750040267-.02388710753803.01661044003049.005872398380234.033432752630688.011789795813456.050043192659359.017662194191871.00217685329153.002077471221128.004353706581242.004154942442256.006740557380908.006224913346159Z"/>
        <path class="cls-2" d="M245.14346933942943,85.235335242105066c.086915536499873-6.97438709871858,5.775808157901338-13.937512086413335,5.862720815521243-20.912018191957031.023861618239607-1.914969638299226-5.990984493220822-1.268899013979535-8.363167314710154-1.124824637001439-2.49012088651034.151214230889309-8.75421089772135.433658732088588-8.779772726291412,2.485369287282083-.086912657608991,6.974506105545515,6.656058881249919,14.834127127360262,6.569143344750046,21.80851422608248-.023861618248702,1.914969638297407,1.475417209951047,4.161768518601093,2.126801017671824,3.941175183355881,2.208672096559894-.74797429481805,2.558715913379274-4.146386305741544,2.584274863058454-6.198215867761974Z"/>
        <path class="cls-2" d="M39.469609400759509,85.235335242105066c.086915536499873-6.97438709871858,5.775808157899519-13.937512086413335,5.862720815510329-20.912018191957031.023861618250521-1.914969638299226-5.990984493209908-1.268899013979535-8.36316731469924-1.124824637001439-2.490120886521254.151214230889309-8.75421089772135.433658732088588-8.779772726291412,2.485369287282083-.086912657608991,6.974506105545515,6.656058881240824,14.834127127360262,6.569143344750046,21.80851422608248-.023861618248702,1.914969638297407,1.475417209951047,4.161768518601093,2.126801017670005,3.941175183355881,2.208672096561713-.74797429481805,2.558715913381093-4.146386305741544,2.584274863060273-6.198215867761974Z"/>
        <path class="cls-2" d="M141.968996020270424,87.786256910041629c.338387888308716-6.980470477461495,11.789279697739403-14.082984241378654,12.127664707189979-21.063573725665265.092905936218813-1.916639892437161-11.854258591500184-1.127060291939415-16.563441277379752-.926451448278385-4.943309071220938.210559414348609-17.376251189400136.642234888655366-17.475783935709842,2.695734877581344-.338385009450576,6.98058948428843,12.850766401348665,14.684270684812873,12.512378513039948,21.664741162274368-.092905936220632,1.916639892437161,2.827780536219507,4.129053437794937,4.125195233869817,3.892831940827818,4.399193849099902-.800965303043995,5.174456891549198-4.209663810990605,5.273986758989849-6.26328280673988Z"/>
      </g>
      <g>
        <path class="cls-3" d="M74.41639781756021,119.617857606890539c-13.302300060040579,1.063588214476113-26.660847331530022,1.288228955605518-39.991369063069214.672699574473882-3.381809699720179-.156186597703709-6.485089869600415,3.400374874396221-6.220713509110283,6.68153307367902.300436795858332,3.725632875019073,3.058993073198508,6.053412509474583,6.68153307367902,6.220713509112102,13.330521731541012.615529381129818,26.68906900301954.390888640000412,39.99136906306012-.672699574475701,3.361167245060642-.268705839413087,6.509592668069672-3.096996008287533,6.220713509110283-6.681533073677201-.271274561520841-3.362442225008635-3.076315001550029-6.508964590586402-6.681533073669925-6.220713509112102Z"/>
        <path class="cls-3" d="M136.274514330170859,118.144185110497347c-13.122910813530325-1.455174857735983-26.326343095981429-.290300532276888-39.466184606750176.370819625033619-3.370804823260187.169594529739697-6.503900097570295,3.168072657019366-6.220713509110283,6.681533073675382.277889648348719,3.447573705805553,3.068096767299721,6.402495865138917,6.68153307367902,6.220713509112102,11.917033585490572-.5995735143606,24.010867085700738-1.777015540195862,35.931400719160592-.718508662335807.029553406939158.003254904229834.059091813249324.006089813454309.088435222689441.009352218003187,1.794783543740778.198991668275994,3.359508758310767.179376366799261,4.947832404241126-.827909804675073,1.310135401519801-.830872717653619,2.531489150460402-2.410798908262223,2.826834528299514-3.961278651824614.317333021159357-1.664860934030003.169648679189777-3.51559876923784-.827696057020148-4.947734905803372-.892722556160152-1.281590619058989-2.335115651168962-2.646631686024193-3.961441775189087-2.826986401185422Z"/>
        <path class="cls-3" d="M189.127631554889376,117.578146841493435c-12.309096223409142.07203801067044-24.618190571729428.144128520718368-36.927496792639431.216174031706032-3.379730008180559.019783818028372-6.495449364869273,3.275163874659484-6.220713509110283,6.681533073675382.288354148080543,3.57572467058344,3.060469046180515,6.241915278229499,6.681533073680839,6.220713509113921,12.309306220899089-.072045510987664,24.61840056922847-.144136021033773,36.927496792630336-.216174031704213,3.37973000817874-.019783818030191,6.495449364869273-3.275163874659484,6.220713509108464-6.681533073677201-.288354148069629-3.575724670581621-3.06025904866874-6.241922778548542-6.681533073669925-6.220713509113921Z"/>
        <path class="cls-3" d="M246.687143875360562,116.100305227610079c-13.180999922369665.262297451779887-26.36178984722028.52458740324073-39.542577897011142.786929854080881-3.377824938699632.067235753382192-6.498340646308861,3.241309280476344-6.220713509110283,6.681533073677201.285014734021388,3.535210155998357,3.062074125740764,6.292742174267914,6.681533073680839,6.220713509112102,13.180788049779949-.262342450838332,26.361577974639658-.524632402299176,39.542577897000228-.786929854080881,3.377614941209686-.067228253066787,6.498130648818915-3.241301780157301,6.220713509110283-6.681533073677201-.285016609090235-3.535262655372208-3.062285998310472-6.292787173322722-6.681533073669925-6.220713509112102Z"/>
        <path class="cls-3" d="M201.944237383520885,92.348495247626488c.246821444769012-1.296007657734663.038178942879313-2.569282201251553-.530466405331026-3.637305973243201-.000324993668983-.321116203294878-.017866043839604-.647399812129152-.00745297019057-.932786458619375.041537926181263-1.138861617475413.083077727431373-2.277670735575157.124407531191537-3.416472353355857.077858065038527-2.135344907961553.155718005169547-4.270637316547436.233577945298748-6.405929725133319.077859940120106-2.135292408585883.155509882750266-4.270577316852723.233369822870372-6.405869725436787.040233007730421-1.104752018174622.077934794941029-2.209729028778384.135014479899837-3.313768588031962.028316725120021-.549436059736763.060844650779472-1.098707129589457.101174360410369-1.647363221836713.016180624499611-.223984883530647.034678721860473-.447842273060814.05360431454028-.671504665726388.000367492779333-.001484983156843.000335616428856-.002377472545049.000493111700052-.003854955382849.15724597965891-1.437365813020733.144827456269923-2.685793530661613-.662199220130788-3.958196924457297-.664659174750341-1.048193820279266-1.928559252779451-2.025309819124232-3.169153795159218-2.261599620822381-2.465315516799819-.469677168481212-5.905516452850861.959520105399861-6.219693421609918,3.831296765758452-.365700447129711,3.342508695488505-.527647018330754,6.702866784973594-.644959739040132,10.064837268870178-14.360962529659446,1.393931361635623-28.689630913720976,2.544063042741982-43.128615771720433,2.583570566948765-2.442203616510596.006694655285173-4.884009784629598-.010805404181156-7.325491598219742-.036885362849716-.204950390250815-1.128691259866173-.688284192970968-2.168853026611032-1.554581765800322-2.975504311390978-.927189462499882-.863140498950088-2.419778022980609-1.484782756691857-3.703325773860342-1.38127399205041-1.332608413238631.107468812937441-2.701253163038928.595333198885783-3.595347439539182,1.641955059531028-.615368203811158.720427676411418-1.114269966001302,1.605118185208994-1.307030858401049,2.548524906414968-8.547656804888902-.181053789288853-17.094768109978759-.423366855457061-25.64447213657877-.473352190201695-7.68533361000118-.044954569872061-15.372414360501352.084883797326256-23.045531530100561.535035850869463-.059588394560706-1.792013700198368-.131148521859359-3.583652381621505-.182125143710437-5.375921095499507-.077117449069192-2.700785423174239-2.576435873010269-5.199833535534708-5.345226458939578-4.976570807290045-2.808416361289346.226465267203821-5.059129817269422,2.450875834547332-4.976570807290045,5.345226458941397.134270674450818,4.713086523966922.297526629550703,9.42529550211475.492698454949277,14.136259433111263.095907739270842,2.32026988501093.199377263741553,4.640322257935622.310401073060348,6.95994712126776.055915972910952,1.165238616737042.118692611011284,2.393048980480671.541395365560675,3.489992693517706.799952066199694,2.075133918031497,2.382862096239478,3.68321683947579,4.595361302390302,4.19193903649284,2.629940707478454.604727752841427,5.695415580808913-1.078543291068854,6.219693421609918-3.83129676576209.304557050460062-1.598696691420628-.098110726230516-3.229694129982818-1.044879381959618-4.440860476788657-.043235003540758-.910271655411634-.085838139490079-1.820513312402909-.126975043080165-2.730912470375188-.036711772780109-.81593778322349-.068383605490453-1.632055574089463-.103417273319792-2.448105859239149,13.966895804969681-.817817408233168,27.963397778288709-.530012943963811,41.942366897979809-.209148836522218,2.542511306868619.058374381047543,5.085768849779924.114093792031781,7.629300131478885.165703251070227.061968641899512.322121071916627.118724847810881.64547963930454.183824701460253.966963212686096.240648216220507,1.192125440775271,1.455176916510027,2.447083250825017,2.481870850509949,2.99957722918225,1.129178454819339.607865625106569,2.76939448379926.823889891673389,3.995304752759694.378235283444155,1.234422662450015-.448692088826647,2.411537788510032-1.265614713520335,2.999524729810219-2.481868975439284.158779814280933-.417160376346146.317561503639809-.834268253318442.476341317929837-1.251428629668226.035329910901055-.152915760796532.05344002656966-.305216495482455.075330097281039-.457652235898422,8.437662898390045.074382763530593,16.874571740869214-.013637551628563,25.302808020580414-.509315530849562,7.842403271788498-.461297249967174,15.663599986688496-1.210216058703736,23.481654216528113-1.970587225965573-.042779091909324,1.174756195554437-.085560058909323,2.349459891731385-.128339150829561,3.524216087287641-.053398412919705,1.460255341113225-.188935930658772,2.881391303908458.188492392369881,4.317901090535088.567745603430012,2.16138334858806,2.2707086458704,3.798663192146705,4.427942973530662,4.355459927986885,2.614995395209917.67491195213006,5.704985370819486-1.128507718967739,6.219903419110778-3.831304266079314ZM198.995465169929957,86.44343077078338c-.018594171529912-.008429864299615-.038197078820303-.015667240741095-.056783750040267-.02388710753803.01661044003049.005872398380234.033432752630688.011789795813456.050043192659359.017662194191871.00217685329153.002077471221128.004353706581242.004154942442256.006740557380908.006224913346159Z"/>
        <path class="cls-3" d="M245.14346933942943,85.235335242105066c.086915536499873-6.97438709871858,5.775808157901338-13.937512086413335,5.862720815521243-20.912018191957031.023861618239607-1.914969638299226-5.990984493220822-1.268899013979535-8.363167314710154-1.124824637001439-2.49012088651034.151214230889309-8.75421089772135.433658732088588-8.779772726291412,2.485369287282083-.086912657608991,6.974506105545515,6.656058881249919,14.834127127360262,6.569143344750046,21.80851422608248-.023861618248702,1.914969638297407,1.475417209951047,4.161768518601093,2.126801017671824,3.941175183355881,2.208672096559894-.74797429481805,2.558715913379274-4.146386305741544,2.584274863058454-6.198215867761974Z"/>
        <path class="cls-3" d="M39.469609400759509,85.235335242105066c.086915536499873-6.97438709871858,5.775808157899519-13.937512086413335,5.862720815510329-20.912018191957031.023861618250521-1.914969638299226-5.990984493209908-1.268899013979535-8.36316731469924-1.124824637001439-2.490120886521254.151214230889309-8.75421089772135.433658732088588-8.779772726291412,2.485369287282083-.086912657608991,6.974506105545515,6.656058881240824,14.834127127360262,6.569143344750046,21.80851422608248-.023861618248702,1.914969638297407,1.475417209951047,4.161768518601093,2.126801017670005,3.941175183355881,2.208672096561713-.74797429481805,2.558715913381093-4.146386305741544,2.584274863060273-6.198215867761974Z"/>
        <path class="cls-3" d="M141.968996020270424,87.786256910041629c.338387888308716-6.980470477461495,11.789279697739403-14.082984241378654,12.127664707189979-21.063573725665265.092905936218813-1.916639892437161-11.854258591500184-1.127060291939415-16.563441277379752-.926451448278385-4.943309071220938.210559414348609-17.376251189400136.642234888655366-17.475783935709842,2.695734877581344-.338385009450576,6.98058948428843,12.850766401348665,14.684270684812873,12.512378513039948,21.664741162274368-.092905936220632,1.916639892437161,2.827780536219507,4.129053437794937,4.125195233869817,3.892831940827818,4.399193849099902-.800965303043995,5.174456891549198-4.209663810990605,5.273986758989849-6.26328280673988Z"/>
      </g>
    </g>
  </a>
</svg>