<?xml version="1.0" encoding="UTF-8"?>
<svg id="Content" xmlns="http://www.w3.org/2000/svg" xmlns:xlink="http://www.w3.org/1999/xlink" viewBox="0 0 280 280">
  <defs>
    <style>
      .cls-1, .cls-2, .cls-3, .cls-4, .cls-5, .cls-6 {
        fill: none;
        stroke-linecap: round;
        stroke-linejoin: round;
      }

      .cls-1, .cls-2, .cls-5 {
        stroke: #665451;
        stroke-width: 50px;
      }

      .cls-1, .cls-3, .cls-7, .cls-8, .cls-5, .cls-6, .cls-9, .cls-10 {
        font-family: Hey-Comic, 'Hey Comic';
      }

      .cls-1, .cls-7, .cls-8, .cls-6 {
        font-size: 101.459373474121094px;
      }

      .cls-11, .cls-8, .cls-10 {
        fill: #fff;
      }

      .cls-3, .cls-4, .cls-6 {
        stroke: #998675;
        stroke-width: 2px;
      }

      .cls-3, .cls-5, .cls-9, .cls-10 {
        font-size: 42.950553894042969px;
      }
    </style>
  </defs>
  <a xlink:href="https://www.notion.so/congruence/Fourth-quartile-123f9339b29b8030a167e4d20c0447b9?pvs=4">
    <g>
      <g>
        <path d="M77.122009076369068,148.890565923902614c-12.067161951199523,5.697895157065432-24.483546396430029,10.630911067783018-37.170755477429338,14.768109611335603-3.218620031439059,1.049531415301317-4.864065515659604,5.473555203214346-3.456717669529098,8.449335105813589,1.598222358359635,3.378799769288889,5.001602505899427,4.580962126523445,8.449335105809951,3.45671766952546,12.687209081010224-4.137198543552586,25.10359352623891-9.070214454271991,37.170755477429338-14.768109611337422,3.049091007720563-1.439684723849496,4.994244728890408-5.198432510627754,3.456717669530917-8.449335105809951-1.442538315101046-3.049375479293303-5.178865100169787-5.000968936570644-8.44933510581177-3.456717669527279Z"/>
        <path d="M134.464099009290294,125.642275422449529c-12.789861102119175,3.27837994674519-24.728731033470467,9.036065331833015-36.786218219189323,14.300048382379828-3.093146730021544,1.350381711848968-4.963790820971553,5.262906186235341-3.456717669530917,8.44933510581177,1.478824213150801,3.126670123341682,5.133535858440155,4.90428187064208,8.449335105809951,3.456717669523641,10.93541213710887-4.774090412689475,21.831901767869567-10.151235768889819,33.356798365770373-13.375567843037061.028795508569601-.007403846993839.057428497029832-.015195260806649.086030222179033-.02251784775035,1.749223197641186-.448401447070864,3.205958051479683-1.01995487658678,4.335578533489752-2.52373511388214.931769170971165-1.240407374725692,1.515664408891098-3.150103187930654,1.243766851601322-4.704866207090163-.291769156019654-1.669530753109939-1.084239575729953-3.348528023334438-2.523500700450313-4.335562901833327-1.288170793439349-.88320104396189-3.12001619486-1.6501282767058-4.705072489679878-1.243851244122197Z"/>
        <path d="M183.703655909299414,106.426697471675652c-11.488662949019272,4.419237825233722-22.977305583019188,8.838524096317997-34.466162315438851,13.257843181600037-3.154460723289958,1.21340177719685-4.918024015680203,5.360093342344044-3.456717669530917,8.449335105809951,1.533920353869689,3.242844951968436,5.069627869950637,4.756768901628675,8.449335105809951,3.456717669529098,11.488856732430577-4.419319085282041,22.977499366430493-8.838605356368134,34.46616231544067-13.257843181601856,3.154460723279044-1.213401777195031,4.918024015680203-5.360093342344044,3.456717669529098-8.449335105809951-1.533920353878784-3.242844951968436-5.069434086539331-4.756850161676994-8.449335105809951-3.456717669527279Z"/>
        <path d="M238.968580611059224,57.327332512486464c-2.19977139583898-6.635830515444468,6.519413889611315-17.691237906041351,4.31959645913048-24.327178201836432-.604000784898744-1.822009247400274-12.104120503589002,3.543020309974963-16.677242227649913,5.554661541253154-4.800491951289587,2.111632454056235-16.909768843319398,7.331379200717492-16.262631459809199,9.283488512195618,2.199817430479015,6.635940295793262,18.007936156300275,8.704065953474128,20.207707552139254,15.339896468920415.604000784900563,1.822009247400274,4.2884720594393,2.751932574741659,5.482722960869069,2.029091148671796,4.049392402761441-2.450966187754602,3.577030133470544-5.927740377375812,2.929846715320309-7.87995946920455Z"/>
        <path d="M237.023286532910788,84.694268602195734c-12.236990281420731,4.905469168072159-24.473786779430156,9.810857076090542-36.71056296243114,14.716293429968573-3.135902168698522,1.257115568041627-4.932697780950548,5.32944740185485-3.456717669529098,8.449335105809951,1.516472798628456,3.206127648223628,5.089099018499837,4.80374574715097,8.449335105809951,3.45671766952546,12.236776182999165-4.905436353876212,24.47357268101041-9.810824261894595,36.710562962438416-14.716293429966754,3.135708385290854-1.257034307996946,4.932503997541062-5.329366141804712,3.456717669520003-8.449335105809951-1.516493113627803-3.206176094077819-5.08931311690867-4.803712932956842-8.449335105808132-3.456717669527279Z"/>
        <g>
          <text class="cls-7" transform="translate(38.913847427698784 253.743595694657415) rotate(-4.631696847107841)"><tspan x="0" y="0">Q</tspan></text>
          <text class="cls-1" transform="translate(38.913847427698784 253.743595694657415) rotate(-4.631696847107841)"><tspan x="0" y="0">Q</tspan></text>
          <text class="cls-6" transform="translate(38.913847427698784 253.743595694657415) rotate(-4.631696847107841)"><tspan x="0" y="0">Q</tspan></text>
          <text class="cls-8" transform="translate(38.913847427698784 253.743595694657415) rotate(-4.631696847107841)"><tspan x="0" y="0">Q</tspan></text>
        </g>
        <g>
          <text class="cls-9" transform="translate(105.212647655993351 234.441051102534402) rotate(8.287803816258268)"><tspan x="0" y="0">4</tspan></text>
          <text class="cls-5" transform="translate(105.212647655993351 234.441051102534402) rotate(8.287803816258268)"><tspan x="0" y="0">4</tspan></text>
          <text class="cls-3" transform="translate(105.212647655993351 234.441051102534402) rotate(8.287803816258268)"><tspan x="0" y="0">4</tspan></text>
          <text class="cls-10" transform="translate(105.212647655993351 234.441051102534402) rotate(8.287803816258268)"><tspan x="0" y="0">4</tspan></text>
        </g>
      </g>
      <g>
        <path class="cls-2" d="M77.122009076369068,148.890565923902614c-12.067161951199523,5.697895157065432-24.483546396430029,10.630911067783018-37.170755477429338,14.768109611335603-3.218620031439059,1.049531415301317-4.864065515659604,5.473555203214346-3.456717669529098,8.449335105813589,1.598222358359635,3.378799769288889,5.001602505899427,4.580962126523445,8.449335105809951,3.45671766952546,12.687209081010224-4.137198543552586,25.10359352623891-9.070214454271991,37.170755477429338-14.768109611337422,3.049091007720563-1.439684723849496,4.994244728890408-5.198432510627754,3.456717669530917-8.449335105809951-1.442538315101046-3.049375479293303-5.178865100169787-5.000968936570644-8.44933510581177-3.456717669527279Z"/>
        <path class="cls-2" d="M134.464099009290294,125.642275422449529c-12.789861102119175,3.27837994674519-24.728731033470467,9.036065331833015-36.786218219189323,14.300048382379828-3.093146730021544,1.350381711848968-4.963790820971553,5.262906186235341-3.456717669530917,8.44933510581177,1.478824213150801,3.126670123341682,5.133535858440155,4.90428187064208,8.449335105809951,3.456717669523641,10.93541213710887-4.774090412689475,21.831901767869567-10.151235768889819,33.356798365770373-13.375567843037061.028795508569601-.007403846993839.057428497029832-.015195260806649.086030222179033-.02251784775035,1.749223197641186-.448401447070864,3.205958051479683-1.01995487658678,4.335578533489752-2.52373511388214.931769170971165-1.240407374725692,1.515664408891098-3.150103187930654,1.243766851601322-4.704866207090163-.291769156019654-1.669530753109939-1.084239575729953-3.348528023334438-2.523500700450313-4.335562901833327-1.288170793439349-.88320104396189-3.12001619486-1.6501282767058-4.705072489679878-1.243851244122197Z"/>
        <path class="cls-2" d="M183.703655909299414,106.426697471675652c-11.488662949019272,4.419237825233722-22.977305583019188,8.838524096317997-34.466162315438851,13.257843181600037-3.154460723289958,1.21340177719685-4.918024015680203,5.360093342344044-3.456717669530917,8.449335105809951,1.533920353869689,3.242844951968436,5.069627869950637,4.756768901628675,8.449335105809951,3.456717669529098,11.488856732430577-4.419319085282041,22.977499366430493-8.838605356368134,34.46616231544067-13.257843181601856,3.154460723279044-1.213401777195031,4.918024015680203-5.360093342344044,3.456717669529098-8.449335105809951-1.533920353878784-3.242844951968436-5.069434086539331-4.756850161676994-8.449335105809951-3.456717669527279Z"/>
        <path class="cls-2" d="M238.968580611059224,57.327332512486464c-2.19977139583898-6.635830515444468,6.519413889611315-17.691237906041351,4.31959645913048-24.327178201836432-.604000784898744-1.822009247400274-12.104120503589002,3.543020309974963-16.677242227649913,5.554661541253154-4.800491951289587,2.111632454056235-16.909768843319398,7.331379200717492-16.262631459809199,9.283488512195618,2.199817430479015,6.635940295793262,18.007936156300275,8.704065953474128,20.207707552139254,15.339896468920415.604000784900563,1.822009247400274,4.2884720594393,2.751932574741659,5.482722960869069,2.029091148671796,4.049392402761441-2.450966187754602,3.577030133470544-5.927740377375812,2.929846715320309-7.87995946920455Z"/>
        <path class="cls-2" d="M237.023286532910788,84.694268602195734c-12.236990281420731,4.905469168072159-24.473786779430156,9.810857076090542-36.71056296243114,14.716293429968573-3.135902168698522,1.257115568041627-4.932697780950548,5.32944740185485-3.456717669529098,8.449335105809951,1.516472798628456,3.206127648223628,5.089099018499837,4.80374574715097,8.449335105809951,3.45671766952546,12.236776182999165-4.905436353876212,24.47357268101041-9.810824261894595,36.710562962438416-14.716293429966754,3.135708385290854-1.257034307996946,4.932503997541062-5.329366141804712,3.456717669520003-8.449335105809951-1.516493113627803-3.206176094077819-5.08931311690867-4.803712932956842-8.449335105808132-3.456717669527279Z"/>
        <g>
          <text class="cls-1" transform="translate(38.913847427698784 253.743595694657415) rotate(-4.631696847107841)"><tspan x="0" y="0">Q</tspan></text>
          <text class="cls-1" transform="translate(38.913847427698784 253.743595694657415) rotate(-4.631696847107841)"><tspan x="0" y="0">Q</tspan></text>
          <text class="cls-1" transform="translate(38.913847427698784 253.743595694657415) rotate(-4.631696847107841)"><tspan x="0" y="0">Q</tspan></text>
          <text class="cls-1" transform="translate(38.913847427698784 253.743595694657415) rotate(-4.631696847107841)"><tspan x="0" y="0">Q</tspan></text>
          <text class="cls-1" transform="translate(38.913847427698784 253.743595694657415) rotate(-4.631696847107841)"><tspan x="0" y="0">Q</tspan></text>
        </g>
        <g>
          <text class="cls-5" transform="translate(105.212647655993351 234.441051102534402) rotate(8.287803816258268)"><tspan x="0" y="0">4</tspan></text>
          <text class="cls-5" transform="translate(105.212647655993351 234.441051102534402) rotate(8.287803816258268)"><tspan x="0" y="0">4</tspan></text>
          <text class="cls-5" transform="translate(105.212647655993351 234.441051102534402) rotate(8.287803816258268)"><tspan x="0" y="0">4</tspan></text>
          <text class="cls-5" transform="translate(105.212647655993351 234.441051102534402) rotate(8.287803816258268)"><tspan x="0" y="0">4</tspan></text>
          <text class="cls-5" transform="translate(105.212647655993351 234.441051102534402) rotate(8.287803816258268)"><tspan x="0" y="0">4</tspan></text>
        </g>
      </g>
      <g>
        <path class="cls-4" d="M77.122009076369068,148.890565923902614c-12.067161951199523,5.697895157065432-24.483546396430029,10.630911067783018-37.170755477429338,14.768109611335603-3.218620031439059,1.049531415301317-4.864065515659604,5.473555203214346-3.456717669529098,8.449335105813589,1.598222358359635,3.378799769288889,5.001602505899427,4.580962126523445,8.449335105809951,3.45671766952546,12.687209081010224-4.137198543552586,25.10359352623891-9.070214454271991,37.170755477429338-14.768109611337422,3.049091007720563-1.439684723849496,4.994244728890408-5.198432510627754,3.456717669530917-8.449335105809951-1.442538315101046-3.049375479293303-5.178865100169787-5.000968936570644-8.44933510581177-3.456717669527279Z"/>
        <path class="cls-4" d="M134.464099009290294,125.642275422449529c-12.789861102119175,3.27837994674519-24.728731033470467,9.036065331833015-36.786218219189323,14.300048382379828-3.093146730021544,1.350381711848968-4.963790820971553,5.262906186235341-3.456717669530917,8.44933510581177,1.478824213150801,3.126670123341682,5.133535858440155,4.90428187064208,8.449335105809951,3.456717669523641,10.93541213710887-4.774090412689475,21.831901767869567-10.151235768889819,33.356798365770373-13.375567843037061.028795508569601-.007403846993839.057428497029832-.015195260806649.086030222179033-.02251784775035,1.749223197641186-.448401447070864,3.205958051479683-1.01995487658678,4.335578533489752-2.52373511388214.931769170971165-1.240407374725692,1.515664408891098-3.150103187930654,1.243766851601322-4.704866207090163-.291769156019654-1.669530753109939-1.084239575729953-3.348528023334438-2.523500700450313-4.335562901833327-1.288170793439349-.88320104396189-3.12001619486-1.6501282767058-4.705072489679878-1.243851244122197Z"/>
        <path class="cls-4" d="M183.703655909299414,106.426697471675652c-11.488662949019272,4.419237825233722-22.977305583019188,8.838524096317997-34.466162315438851,13.257843181600037-3.154460723289958,1.21340177719685-4.918024015680203,5.360093342344044-3.456717669530917,8.449335105809951,1.533920353869689,3.242844951968436,5.069627869950637,4.756768901628675,8.449335105809951,3.456717669529098,11.488856732430577-4.419319085282041,22.977499366430493-8.838605356368134,34.46616231544067-13.257843181601856,3.154460723279044-1.213401777195031,4.918024015680203-5.360093342344044,3.456717669529098-8.449335105809951-1.533920353878784-3.242844951968436-5.069434086539331-4.756850161676994-8.449335105809951-3.456717669527279Z"/>
        <path class="cls-4" d="M238.968580611059224,57.327332512486464c-2.19977139583898-6.635830515444468,6.519413889611315-17.691237906041351,4.31959645913048-24.327178201836432-.604000784898744-1.822009247400274-12.104120503589002,3.543020309974963-16.677242227649913,5.554661541253154-4.800491951289587,2.111632454056235-16.909768843319398,7.331379200717492-16.262631459809199,9.283488512195618,2.199817430479015,6.635940295793262,18.007936156300275,8.704065953474128,20.207707552139254,15.339896468920415.604000784900563,1.822009247400274,4.2884720594393,2.751932574741659,5.482722960869069,2.029091148671796,4.049392402761441-2.450966187754602,3.577030133470544-5.927740377375812,2.929846715320309-7.87995946920455Z"/>
        <path class="cls-4" d="M237.023286532910788,84.694268602195734c-12.236990281420731,4.905469168072159-24.473786779430156,9.810857076090542-36.71056296243114,14.716293429968573-3.135902168698522,1.257115568041627-4.932697780950548,5.32944740185485-3.456717669529098,8.449335105809951,1.516472798628456,3.206127648223628,5.089099018499837,4.80374574715097,8.449335105809951,3.45671766952546,12.236776182999165-4.905436353876212,24.47357268101041-9.810824261894595,36.710562962438416-14.716293429966754,3.135708385290854-1.257034307996946,4.932503997541062-5.329366141804712,3.456717669520003-8.449335105809951-1.516493113627803-3.206176094077819-5.08931311690867-4.803712932956842-8.449335105808132-3.456717669527279Z"/>
        <g>
          <text class="cls-6" transform="translate(38.913847427698784 253.743595694657415) rotate(-4.631696847107841)"><tspan x="0" y="0">Q</tspan></text>
          <text class="cls-6" transform="translate(38.913847427698784 253.743595694657415) rotate(-4.631696847107841)"><tspan x="0" y="0">Q</tspan></text>
          <text class="cls-6" transform="translate(38.913847427698784 253.743595694657415) rotate(-4.631696847107841)"><tspan x="0" y="0">Q</tspan></text>
          <text class="cls-6" transform="translate(38.913847427698784 253.743595694657415) rotate(-4.631696847107841)"><tspan x="0" y="0">Q</tspan></text>
          <text class="cls-6" transform="translate(38.913847427698784 253.743595694657415) rotate(-4.631696847107841)"><tspan x="0" y="0">Q</tspan></text>
        </g>
        <g>
          <text class="cls-3" transform="translate(105.212647655993351 234.441051102534402) rotate(8.287803816258268)"><tspan x="0" y="0">4</tspan></text>
          <text class="cls-3" transform="translate(105.212647655993351 234.441051102534402) rotate(8.287803816258268)"><tspan x="0" y="0">4</tspan></text>
          <text class="cls-3" transform="translate(105.212647655993351 234.441051102534402) rotate(8.287803816258268)"><tspan x="0" y="0">4</tspan></text>
          <text class="cls-3" transform="translate(105.212647655993351 234.441051102534402) rotate(8.287803816258268)"><tspan x="0" y="0">4</tspan></text>
          <text class="cls-3" transform="translate(105.212647655993351 234.441051102534402) rotate(8.287803816258268)"><tspan x="0" y="0">4</tspan></text>
        </g>
      </g>
      <g>
        <path class="cls-11" d="M77.122009076369068,148.890565923902614c-12.067161951199523,5.697895157065432-24.483546396430029,10.630911067783018-37.170755477429338,14.768109611335603-3.218620031439059,1.049531415301317-4.864065515659604,5.473555203214346-3.456717669529098,8.449335105813589,1.598222358359635,3.378799769288889,5.001602505899427,4.580962126523445,8.449335105809951,3.45671766952546,12.687209081010224-4.137198543552586,25.10359352623891-9.070214454271991,37.170755477429338-14.768109611337422,3.049091007720563-1.439684723849496,4.994244728890408-5.198432510627754,3.456717669530917-8.449335105809951-1.442538315101046-3.049375479293303-5.178865100169787-5.000968936570644-8.44933510581177-3.456717669527279Z"/>
        <path class="cls-11" d="M134.464099009290294,125.642275422449529c-12.789861102119175,3.27837994674519-24.728731033470467,9.036065331833015-36.786218219189323,14.300048382379828-3.093146730021544,1.350381711848968-4.963790820971553,5.262906186235341-3.456717669530917,8.44933510581177,1.478824213150801,3.126670123341682,5.133535858440155,4.90428187064208,8.449335105809951,3.456717669523641,10.93541213710887-4.774090412689475,21.831901767869567-10.151235768889819,33.356798365770373-13.375567843037061.028795508569601-.007403846993839.057428497029832-.015195260806649.086030222179033-.02251784775035,1.749223197641186-.448401447070864,3.205958051479683-1.01995487658678,4.335578533489752-2.52373511388214.931769170971165-1.240407374725692,1.515664408891098-3.150103187930654,1.243766851601322-4.704866207090163-.291769156019654-1.669530753109939-1.084239575729953-3.348528023334438-2.523500700450313-4.335562901833327-1.288170793439349-.88320104396189-3.12001619486-1.6501282767058-4.705072489679878-1.243851244122197Z"/>
        <path class="cls-11" d="M183.703655909299414,106.426697471675652c-11.488662949019272,4.419237825233722-22.977305583019188,8.838524096317997-34.466162315438851,13.257843181600037-3.154460723289958,1.21340177719685-4.918024015680203,5.360093342344044-3.456717669530917,8.449335105809951,1.533920353869689,3.242844951968436,5.069627869950637,4.756768901628675,8.449335105809951,3.456717669529098,11.488856732430577-4.419319085282041,22.977499366430493-8.838605356368134,34.46616231544067-13.257843181601856,3.154460723279044-1.213401777195031,4.918024015680203-5.360093342344044,3.456717669529098-8.449335105809951-1.533920353878784-3.242844951968436-5.069434086539331-4.756850161676994-8.449335105809951-3.456717669527279Z"/>
        <path class="cls-11" d="M238.968580611059224,57.327332512486464c-2.19977139583898-6.635830515444468,6.519413889611315-17.691237906041351,4.31959645913048-24.327178201836432-.604000784898744-1.822009247400274-12.104120503589002,3.543020309974963-16.677242227649913,5.554661541253154-4.800491951289587,2.111632454056235-16.909768843319398,7.331379200717492-16.262631459809199,9.283488512195618,2.199817430479015,6.635940295793262,18.007936156300275,8.704065953474128,20.207707552139254,15.339896468920415.604000784900563,1.822009247400274,4.2884720594393,2.751932574741659,5.482722960869069,2.029091148671796,4.049392402761441-2.450966187754602,3.577030133470544-5.927740377375812,2.929846715320309-7.87995946920455Z"/>
        <path class="cls-11" d="M237.023286532910788,84.694268602195734c-12.236990281420731,4.905469168072159-24.473786779430156,9.810857076090542-36.71056296243114,14.716293429968573-3.135902168698522,1.257115568041627-4.932697780950548,5.32944740185485-3.456717669529098,8.449335105809951,1.516472798628456,3.206127648223628,5.089099018499837,4.80374574715097,8.449335105809951,3.45671766952546,12.236776182999165-4.905436353876212,24.47357268101041-9.810824261894595,36.710562962438416-14.716293429966754,3.135708385290854-1.257034307996946,4.932503997541062-5.329366141804712,3.456717669520003-8.449335105809951-1.516493113627803-3.206176094077819-5.08931311690867-4.803712932956842-8.449335105808132-3.456717669527279Z"/>
        <g>
          <text class="cls-8" transform="translate(38.913847427698784 253.743595694657415) rotate(-4.631696847107841)"><tspan x="0" y="0">Q</tspan></text>
          <text class="cls-8" transform="translate(38.913847427698784 253.743595694657415) rotate(-4.631696847107841)"><tspan x="0" y="0">Q</tspan></text>
          <text class="cls-8" transform="translate(38.913847427698784 253.743595694657415) rotate(-4.631696847107841)"><tspan x="0" y="0">Q</tspan></text>
          <text class="cls-8" transform="translate(38.913847427698784 253.743595694657415) rotate(-4.631696847107841)"><tspan x="0" y="0">Q</tspan></text>
          <text class="cls-8" transform="translate(38.913847427698784 253.743595694657415) rotate(-4.631696847107841)"><tspan x="0" y="0">Q</tspan></text>
        </g>
        <g>
          <text class="cls-10" transform="translate(105.212647655993351 234.441051102534402) rotate(8.287803816258268)"><tspan x="0" y="0">4</tspan></text>
          <text class="cls-10" transform="translate(105.212647655993351 234.441051102534402) rotate(8.287803816258268)"><tspan x="0" y="0">4</tspan></text>
          <text class="cls-10" transform="translate(105.212647655993351 234.441051102534402) rotate(8.287803816258268)"><tspan x="0" y="0">4</tspan></text>
          <text class="cls-10" transform="translate(105.212647655993351 234.441051102534402) rotate(8.287803816258268)"><tspan x="0" y="0">4</tspan></text>
          <text class="cls-10" transform="translate(105.212647655993351 234.441051102534402) rotate(8.287803816258268)"><tspan x="0" y="0">4</tspan></text>
        </g>
      </g>
    </g>
  </a>
</svg>