<?xml version="1.0" encoding="UTF-8"?>
<svg id="Layer_1" xmlns="http://www.w3.org/2000/svg" xmlns:xlink="http://www.w3.org/1999/xlink" viewBox="0 0 280 280">
  <defs>
    <style>
      .cls-1 {
        fill: #665451;
      }

      .cls-2 {
        fill: url(#linear-gradient);
      }
    </style>
    <linearGradient id="linear-gradient" x1="939.124894664677413" y1="159.219829268044123" x2="939.124894664677413" y2="40.899379962025705" gradientTransform="translate(1070.198696386833035) rotate(-180) scale(1 -1)" gradientUnits="userSpaceOnUse">
      <stop offset=".033113946447839" stop-color="#d4c0a3" stop-opacity="0"/>
      <stop offset=".07744552998155" stop-color="#d4c0a3" stop-opacity=".067075563153591"/>
      <stop offset=".702797202797203" stop-color="#d4c0a3"/>
    </linearGradient>
  </defs>
  <path class="cls-2" d="M241.404463010312611,159.219828650665477c-42.244657798577464-111.622517951842383-81.796216259888752-37.229364967829497-100.771466311834956-53.302517954471114C87.896826487718499,61.246672395955102,36.194698832619906-38.435029734025193,20.74313976812482,159.219828640758351"/>
  <path class="cls-1" d="M252.975811412949042,156.029753304148471c-5.350064895617834-14.104832359181273-11.345791293895672-28.265014550775049-19.625548650225028-40.937862352143384-5.889600491263991-9.014516660877234-12.81825832793038-17.258180649202586-21.783640875486526-23.332262509163229-6.683277246076614-4.527946562252509-14.571523831491504-7.004771362947395-22.61197343135791-7.38562339415239-3.655833078653814-.173165870447519-7.363587258543703.3307926973348-10.949042837144589.973029987788323-2.582541849531481.462592449847762-5.114934651877775,1.1754067730526-7.592975765823212,2.032082602612718-5.64494697211012,1.951496931566908-11.042918396282403,4.547475506819865-16.509518127359115,6.936554093647828-.514063697282836.224662245610489-1.029317452563191.44655780003086-1.546109817827528.664872853305496l2.866554430358519-1.209700180866093c-2.919244614615309,1.228973506476905-5.937952086153018,2.402787241429905-9.095095756172668,2.82957564872595l3.190075346516096-.428651597363569c-1.193634261015177.15432461290402-2.398208769620396.1887425661007-3.5932577509775.029746380808319l3.190075346516096.428651597362659c-.866437774942824-.122919763865866-1.709130463459587-.347239114230433-2.517110434169808-.684389234851551l2.866554430358519,1.209700180866093c-.777708024133972-.333615273369105-1.502395867410087-.763887945030547-2.175203491080538-1.276660766445275l2.428651597363569,1.876366847532154c-5.474859140987974-4.255282070530484-10.442570683908343-9.339660080327121-15.351170735189953-14.221325020914264-5.168213096110776-5.139853402842164-10.210023180230564-10.404445464753735-15.276135508358493-15.644345272103237-4.884515671494228-5.052073674708481-9.786355870783154-10.092663678391546-14.879143535610638-14.936335866163063-5.210050513767783-4.955199083739899-10.659201549558929-9.629192158793558-16.471747855281137-13.869442736232486-4.921895180455977-3.590520880748954-10.266164990973266-6.541322455331283-16.06335818113439-8.480091424868078-5.836045305939479-1.951762374103964-12.545570877688078-2.331340001706849-18.485276706122022-.589102985066347-6.36893472392876,1.868138617148361-12.057424097287367,5.911394746142832-16.170847833711377,11.084755183905145-2.575321914810047,3.23892440027339-4.881652086191025,6.536217450937329-6.772461869506515,10.218840353576525-2.231127723534883,4.345440840164883-4.09204081151438,8.909177664043455-5.728703661907275,13.50905819892705-3.625088632697953,10.188399299696357-5.987703688357215,20.816790316804145-7.926937048559921,31.439167339722189-2.971387972875164,16.276124357683329-4.932922450700062,32.751173566332-6.473464273085483,49.218830473661001-.427994890782429,4.575061135684336-.816621123743971,9.153682131275673-1.175858649845395,13.734636934501395-.229173932581034,2.922399111878804,1.50279170437534,6.473354452852618,3.514718625761816,8.485281374238184,2.081307336437021,2.081307336437931,5.496075058545102,3.648605543037775,8.485281374238184,3.514718625761816,3.103484767403643-.139005463135618,6.32226969282965-1.158449558050052,8.485281374238184-3.514718625761816,2.248057525650438-2.448913455092224,3.254186388779999-5.163004842193004,3.514718625761816-8.485281374238184,1.046529661913155-13.345223516833357,2.344205597944892-26.67451428786444,4.119019661580751-39.943876840735356l-.428651597365388,3.190075346517006c2.157328046097973-16.040950698840788,4.82965415466424-32.22061324754668,9.810078839778726-47.66035369569363.99891110471799-3.096709450035632,2.107514517218078-6.158551999600604,3.37241920175984-9.156965223180123l-1.209700180865184,2.866554430358519c1.89036635125558-4.453633251762767,4.124229716513582-8.814967183385306,7.090744908673514-12.655974325437455l-1.876366847533063,2.428651597362659c1.443964405007137-1.85488578118111,3.062611184273919-3.574196139403284,4.920246512856465-5.020640719630137l-2.42865159736175,1.876366847532154c1.31465823417966-1.012786194743057,2.735273379228602-1.875142100914672,4.262043687609548-2.528891593030494l-2.866554430358519,1.209700180866093c1.39373322900974-.587056233766816,2.852111711643374-.989334742343999,4.350310542424268-1.196217594440895l-3.190075346516096.428651597362659c1.672051171819476-.22099289043399,3.36020744561938-.196149787943796,5.030799807753283.025501653915853l-3.190075346517915-.428651597363569c2.393943806418974.329401008250898,4.711370859320596,1.047774796654267,6.93493282163945,1.9825112400531l-2.866554430358519-1.209700180865184c4.66331138543319,1.978157822365574,8.910647912007335,4.842922044887018,12.907014157884987,7.926560470310505l-2.428651597363569-1.876366847532154c5.926694645375392,4.586706693694396,11.384247784419131,9.759384329804561,16.699086577340495,15.032392739955867,5.932508189933287,5.885816446675562,11.685118645345938,11.949328402232823,17.506805922541389,17.943848951916152,5.874188423156738,6.048580340834633,11.809194186389504,12.049788658750913,18.058965104297386,17.713316033203228,1.502845063889254,1.361874582396922,3.022713659987858,2.705980663658011,4.569728980804939,4.017574274221261,2.789837770149461,2.365285814948038,4.772413683382183,3.594063441603794,8.128037275932002,4.904578618708911,4.158483698523924,1.624066540942295,8.55673121347354,1.289601345494702,12.84571833687005.603979579072075,2.656531276130409-.424663356102428,5.204140423211356-1.332413687773624,7.688090334715525-2.342796951037599,3.832182817135617-1.558796883250579,7.588170488364995-3.276514006763136,11.373684475513073-4.941180799084577.756307674522759-.33258370589374,1.514569980552551-.660652735174153,2.275637932809332-.98220224031229l-2.866554430358519,1.209700180866093c4.712856582360473-1.985059610248754,9.577001280817058-3.697067882484589,14.66267280748616-4.400834863202363l-3.190075346516096.428651597362659c2.907562372711254-.390671716480028,5.846946963249138-.436963423860107,8.758002796672372-.054066995061476l-3.190075346516096-.428651597362659c2.65400611032419.363139790062633,5.237471864500549,1.078140274051293,7.710334109173345,2.106216970944843l-2.866554430358519-1.209700180865184c3.035342124649105,1.281111736814637,5.848679810147587,3.00642184438675,8.453747112858764,5.017127540255387l-2.428651597363569-1.876366847532154c4.062851030061211,3.165934314194601,7.575357611798609,6.96684895368071,10.72875233070954,11.026204155016785l-1.876366847533063-2.428651597363569c7.89817263157056,10.236336854623914,13.69070924258267,22.009353467061374,18.713941750806043,33.866483358021469l-1.209700180865184-2.866554430358519c1.477662678596971,3.50452599455366,2.88358786367462,7.038036128718886,4.232418402811163,10.594073112690239,1.136798639736298,2.997039204657995,2.660077483113128,5.501067021427843,5.514718625759997,7.171572875254242,2.572163534339779,1.505202940194067,6.363000977880802,2.142906468854562,9.246705123394349,1.209700180865184,2.903636309099966-.93965661002494,5.705057238024892-2.739043699826652,7.171572875253332-5.514718625760906,1.427269129279011-2.701393039484174,2.339262252768094-6.268744299676655,1.209700180865184-9.24670512339253h0Z"/>
</svg>