<?xml version="1.0" encoding="UTF-8"?>
<svg id="Layer_1" xmlns="http://www.w3.org/2000/svg" xmlns:xlink="http://www.w3.org/1999/xlink" viewBox="0 0 280 280">
  <defs>
    <style>
      .cls-1 {
        fill: #665451;
      }

      .cls-2 {
        fill: url(#linear-gradient);
      }
    </style>
    <linearGradient id="linear-gradient" x1="139.865503628876468" y1="154.997008295115847" x2="139.865503628876468" y2="36.961013691736298" gradientUnits="userSpaceOnUse">
      <stop offset=".033113946447839" stop-color="#d4c0a3" stop-opacity="0"/>
      <stop offset=".07744552998155" stop-color="#d4c0a3" stop-opacity=".067075563153591"/>
      <stop offset=".702797202797203" stop-color="#d4c0a3"/>
    </linearGradient>
  </defs>
  <path class="cls-2" d="M29.534842535165808,154.997008295115847q-.000395507811845-157.174433898925599,220.661323242187791,0"/>
  <path class="cls-1" d="M41.534842535165808,154.997008295115847c-.000029836728572-12.762084484646948-.016985245028991-25.525341541267153.156107421707929-38.286539091163831.138941588771559-10.243421027790646.382153531940276-20.495135709357783,1.086870178412937-30.717332553343113.323634392840177-4.694446322029762.750412413191953-9.383686735591255,1.373147589558357-14.048521677194003l-.42865159736175,3.190075346517915c.759410574824869-5.645326313680016,1.77705925135524-11.303612224259268,3.560227987909457-16.724920755321364.419741934441845-1.276127426077437.885926748966085-2.53659086054904,1.408034338033758-3.774456591941089l-1.209700180865184,2.86655443035761c1.039473081287724-2.446595780872485,2.305291805738307-4.805217680099304,3.930713113697493-6.915271873812344l-1.876366847533063,2.428651597362659c1.056971122578034-1.360991317726075,2.258705777150681-2.602162203388616,3.619863105172044-3.661240494686353l-2.428651597363569,1.876366847533063c1.225823236696669-.944519011335615,2.563160756855723-1.727027698634629,3.988094291615198-2.330793730746336l-2.866554430358519,1.209700180865184c1.630887601249924-.681827127890756,3.346854877094302-1.119891387760617,5.096887672742014-1.358006422708968l-3.190075346516096.428651597362659c2.66645024430909-.351692524945065,5.368180657504126-.247022835695134,8.028154901257949.110371714670691l-3.190075346517915-.428651597363569c4.629478748205656.635182559797613,9.138593985642729,2.000556817934921,13.50718921293992,3.629630096258552,1.482873671815469.55297177884313,2.952054888915882,1.141770512916082,4.410811732761431,1.755403347883657l-2.866554430358519-1.209700180866093c7.301848052333298,3.08255984313837,14.33863138509696,6.774384474226281,21.23790677141551,10.66512315968339,8.976323897561088,5.062057779384304,17.736120180088619,10.504194001659016,26.399368594778934,16.081995429620292,10.860679926183366,6.99260982729993,21.56909686167819,14.22030998954051,32.215551848357791,21.53396904566398,13.000477010296891,8.930771467051272,25.905962899591032,17.999349121833802,38.781028617573611,27.109693985310514,15.235367861345367,10.78048519355707,30.425868167267254,21.624264593043335,45.614770966767537,32.470059870050136,2.082259777180298,1.486859423287569,4.16443453734064,2.973837902100058,6.246594897484101,4.460836541778008,2.399477046285028,1.713613980969058,6.513031177317316,1.962496360985824,9.246705123394349,1.209700180865184,2.783508669284856-.766519612398042,5.800002091653369-2.918745874744673,7.171572875253332-5.514718625760906,1.471421692731383-2.784960619790581,2.209000586473849-6.158763304571039,1.209700180865184-9.24670512339253l-1.209700180865184-2.866554430358519c-1.06681631507854-1.803195981518911-2.501822463376811-3.238202129817182-4.305018444894813-4.305018444895722-19.610567435907797-14.005111065739584-39.214671953486686-28.020000110845103-58.907753786486865-41.909019185641228-15.641984027824947-11.031885022995084-31.334591117552918-21.997580648202529-47.231627681081591-32.659909254475679-12.143504014720747-8.144790365116933-24.402363324348698-16.144889361434252-37.006394602733053-23.563190687192218-9.961927868998828-5.8632497084036-20.13995470568625-11.216280579902559-30.819800437180675-15.65187749557299-7.466651974129491-3.101080230884691-15.234504059291794-5.377047303414656-23.351214985865226-5.839011189204939-6.722214845416602-.382595920835229-14.299178626482899,1.131170554194796-19.840559388820111,5.133940341461312-3.78245169136062,2.732222166516294-6.448632317915326,5.465060753594116-9.13011381915021,9.312141178382262-2.144301740112496,3.076396852047765-3.598762658941268,6.619730421419263-4.942482688871678,10.094702304010752-3.01250332381278,7.790584432238575-4.138491564635842,16.235441616870958-5.137380924266836,24.47387493898259-1.228627930142466,10.133223647444538-1.672968171726097,20.357051161474374-1.953032852894466,30.554443086774882-.360433000621924,13.123670413681793-.383478333465973,26.255424526249953-.394579759393309,39.383140064894178-.003109845385552,3.677470431622169-.003020689953701,7.354942667092473-.003012092320205,11.032414119352325.00000719345735,3.076862873828759,1.338582013830091,6.30914476230646,3.514718625761816,8.485281374238184,2.081307336437021,2.081307336437931,5.496075058545102,3.648605543037775,8.485281374238184,3.514718625761816,6.501611379497263-.29120797061023,12.000015728111975-5.272604069203226,12-12h0Z"/>
</svg>