<?xml version="1.0" encoding="UTF-8"?>
<svg id="Layer_1" xmlns="http://www.w3.org/2000/svg" xmlns:xlink="http://www.w3.org/1999/xlink" viewBox="0 0 280 280">
  <defs>
    <style>
      .cls-1 {
        fill: #665451;
      }

      .cls-2 {
        fill: url(#linear-gradient);
      }
    </style>
    <linearGradient id="linear-gradient" x1="139.865503628874649" y1="154.919694594364046" x2="139.865503628874649" y2="37.038869170170074" gradientUnits="userSpaceOnUse">
      <stop offset=".033113946447839" stop-color="#d4c0a3" stop-opacity="0"/>
      <stop offset=".07744552998155" stop-color="#d4c0a3" stop-opacity=".067075563153591"/>
      <stop offset=".702797202797203" stop-color="#d4c0a3"/>
    </linearGradient>
  </defs>
  <path class="cls-2" d="M29.534842007780753,154.919694594364046c-.000395507811845-157.174433898925599,220.660927734374127-157.174433898925599,220.661323242187791,0"/>
  <path class="cls-1" d="M41.534842007780753,154.919694594364046c.005897415487198-6.848826637931779.424847922369736-13.692741144801403,1.329451008199612-20.482620271628548l-.428651597363569,3.190075346517006c1.176483749733961-8.70588663585022,3.149041659064096-17.306291151509868,6.064415424127219-25.59801414823869.77297689583429-2.198452349378385,1.61293316370211-4.372540138486329,2.514795900286117-6.521291198298968l-1.209700180865184,2.866554430358519c3.612490238163446-8.557616096260062,8.266147077591086-16.652771614145422,13.932739142670471-24.0167140590911l-1.876366847533063,2.428651597362659c5.397822215705673-6.984440336545049,11.670091101397702-13.259185390912535,18.652654932899168-18.659394555578729l-2.42865159736175,1.876366847533063c5.634727195218147-4.339801062154038,11.702033875615598-8.104277838834605,18.089566608501627-11.232108381487706,1.806760244155157-.884729693176268,3.638519493853892-1.717011291601921,5.490852047540102-2.50174104782127l-2.866554430358519,1.209700180865184c7.17390939539473-3.023379368450151,14.657601357350359-5.289949864992195,22.300539516034405-6.769369743835341,2.165859551505491-.419238728452001,4.34358808172874-.773789627284714,6.529697506486627-1.069448596917937l-3.190075346517915.428651597362659c7.972191935305091-1.06385311570557,16.048106434869624-1.306912379609457,24.069159322203632-.707942333939172,2.267216458314579.169303801465503,4.528646009044678.407222352899225,6.78215166910195.707942333939172l-3.190075346516096-.428651597362659c7.707726760796504,1.042425861854099,15.308102701081225,2.85139292650274,22.643217062621261,5.442122773392839,2.0859396620599.736744633409216,4.148519639435108,1.537573201344458,6.187059410513029,2.396695567360439l-2.866554430358519-1.209700180865184c6.523928484963108,2.763817913913044,12.77984113038292,6.149862358554856,18.634024277649587,10.143130955858396,1.683568745040247,1.14839970527828,3.331919918586209,2.347220690010545,4.946463497071818,3.590718473450579l-2.42865159736175-1.876366847533063c6.982592349730112,5.40021020137192,13.254891347767625,11.674954055658418,18.652748840489949,18.659394555578729l-1.876366847533063-2.428651597362659c5.666626452704804,7.363938971216157,10.320325154467355,15.459094287640255,13.932860012177116,24.0167140590911l-1.209700180865184-2.866554430358519c3.307027045033465,7.87912880091335,5.731553828944016,16.108808077057802,7.34044607218857,24.498514340018119.484817608066805,2.528122899382652.894191316578144,5.069869975160145,1.238926899839498,7.620791006519539l-.428651597363569-3.190075346517006c.904636933066286,6.789876692312646,1.323622205794891,13.633791280732112,1.329554091584214,20.482620271628548.002666367112397,3.078530678401876,1.3367299579877,6.307292706464978,3.514718625761816,8.485281374238184,2.081307336437021,2.081307336437021,5.496075058545102,3.648605543037775,8.485281374238184,3.514718625761816,6.496968101670063-.290999997627296,12.005826620952575-5.272707549417646,12-12-.013040774116234-15.056600039877594-1.906163014569756-30.374832598206012-6.346057607917828-44.789690718296697-3.871602230787175-12.569802206082386-9.572851705392168-24.784276513035365-17.31107052742118-35.448666265514476-3.916237040139094-5.397143595921079-8.148818980647775-10.575634816634192-12.897147796027639-15.263996560521264-4.64006879329645-4.58146894735728-9.742962100126533-8.702178152207125-15.048592229934002-12.485603683161571-9.678223145818265-6.90150569268917-20.601670306306914-12.117144548037686-31.882913649926195-15.813518801497594-11.237360900666317-3.681995879785063-23.169678741322059-5.621612857859873-34.978200392915824-6.014966681371334-11.773525038264779-.392188050855111-23.756282993843342.959042896269239-35.175258428305824,3.834960857236183-11.454207074142687,2.884791200596737-22.671081068949206,7.518054646977362-32.781164853875453,13.630035240743382-10.289505225966423,6.220448573762042-19.809341586636947,14.082372656572261-27.625493155168442,23.232612392569536-4.392336446180707,5.142035838396623-8.457916277307959,10.622176654626855-11.947429923360687,16.419318500125883-3.654615806912261,6.071426672147027-6.60784317980324,12.502144190085346-9.220294690638184,19.083329460649111-5.378110454705165,13.548324690877962-8.071411516735679,28.071550977679181-9.072983454474524,42.577850228181887-.25366410211609,3.673952150373225-.371545574191259,7.355817498026227-.37471653222201,11.038336030856954-.002648001182024,3.075194730626208,1.340432511493418,6.310995259970696,3.514718625761816,8.485281374238184,2.081307336437021,2.081307336437931,5.496075058543283,3.648605543037775,8.485281374238184,3.514718625761816,6.506252735794988-.291415857527682,11.994207060934059-5.272504629551804,12-12h0Z"/>
</svg>