<?xml version="1.0" encoding="UTF-8"?>
<svg id="Layer_1" xmlns="http://www.w3.org/2000/svg" xmlns:xlink="http://www.w3.org/1999/xlink" viewBox="0 0 280 280">
  <defs>
    <style>
      .cls-1 {
        fill: #665451;
      }

      .cls-2 {
        fill: url(#linear-gradient);
      }
    </style>
    <linearGradient id="linear-gradient" x1="141.814086696140293" y1="149.816169130410344" x2="141.814086696140293" y2="31.692694960558583" gradientTransform="translate(-5.588601421787644 9.390744463320459) rotate(-3.719431974336864)" gradientUnits="userSpaceOnUse">
      <stop offset=".033113946447839" stop-color="#d4c0a3" stop-opacity="0"/>
      <stop offset=".07744552998155" stop-color="#d4c0a3" stop-opacity=".067075563153591"/>
      <stop offset=".702797202797203" stop-color="#d4c0a3"/>
    </linearGradient>
  </defs>
  <path class="cls-2" d="M257.919689019612633,142.393079474766637c-12.994731304623201-.699423999747523-26.092380030888307-1.994128024435668-37.812880199880965-8.031917783185236-18.105452767365932-9.07129573842667-30.933141988301941-25.928020924745397-39.11861152612255-44.420342646932113-6.912749934799649-14.873244757697648-10.61191406362741-31.754592520221195-20.373455062794164-45.10781812478308-13.257598898462675-18.211288345820321-34.134368363955218-16.099340938975729-48.478902523374927-.397869387069477-17.666905818108717,19.297871880690764-18.203918179633547,47.517288822838964-30.51718146877829,70.017713666107738-11.34957157046847,21.558579152014318-25.369748552671808,31.957228198085431-48.491124955808118,38.788674530333083"/>
  <path class="cls-1" d="M257.919689019612633,130.393079474766637c-4.929961564432233-.26799066563035-9.855442058140397-.623558726649208-14.750757381478252-1.27919785503218l3.190075346516096.428651597362659c-6.640869055087023-.915908500792284-13.188734494695382-2.420243810204738-19.382151875845011-5.026606298714796l2.866554430358519,1.209700180865184c-5.269207778168493-2.266275616064377-10.218537961396578-5.221451446054743-14.772624004559475-8.703138801912246l2.428651597363569,1.876366847532154c-5.597993737068464-4.326891669988072-10.534119616977478-9.417860010705226-14.860045269722832-15.008982307296719l1.876366847533063,2.428651597362659c-6.248692352975922-8.145702300375888-11.037354431624408-17.205454117995941-15.022875727659994-26.641668529273375l1.209700180865184,2.86655443035761c-5.220037033701374-12.456978816925584-8.947393866075799-25.631706817803206-15.649321007400431-37.429602580076789-3.307735838914596-5.822850922387261-7.376287457795115-11.614378141949601-12.646048950595286-15.819529093519122-5.254214908838549-4.192745127809758-11.195987276747474-7.618998436823858-17.939375777474197-8.67256546664612-6.630016094131861-1.035854061087775-13.328536841278037-.860167494536654-19.729279128456255,1.391175086765543-6.745554684886883,2.372623957540782-12.590177849553584,5.978364499721465-17.89983129360553,10.765213273736663-9.91916681190196,8.942495398832762-16.036485220760369,21.188019424025697-20.579976442550105,33.527986339550807-4.495066959945689,12.208448274926013-7.334305755412061,24.978521286376235-12.386625015333266,36.989400801061493l1.209700180865184-2.86655443035761c-3.190065540200521,7.506998774216299-7.253293502546512,14.763141423823981-12.219308881340112,21.243635462952625l1.876366847533063-2.428651597363569c-3.472455083294335,4.489596829880611-7.443017430687178,8.5483036347905-11.932116807302009,12.026539873603724l2.428651597363569-1.876366847532154c-4.986181971933547,3.823825091120852-10.492654551930173,6.856798639491899-16.273222300686029,9.299902698850929l2.866554430358519-1.209700180866093c-3.881003474507452,1.623316687338047-7.859516447888382,2.988885446241511-11.891292678024911,4.185877650423208-2.930853372597994.870139719654617-5.616666168398297,2.857618892645405-7.171572875253332,5.514718625761816-1.505202940194067,2.572163534339779-2.142906468854562,6.363000977878983-1.209700180865184,9.24670512339253.93965661002585,2.903636309101785,2.739043699826652,5.705057238024892,5.514718625759997,7.171572875253332,2.825379522049843,1.492776841940213,6.107904376651277,2.141577301486905,9.246705123394349,1.209700180865184,15.564636763485396-4.620977902382947,30.508230856099544-11.928886047988271,41.599141308410253-24.071199431380592,12.124297053551345-13.273663601431508,19.363058707243908-29.734278164279203,24.65488629245192-46.716426484680596,2.788916736037208-8.949988808597482,5.282752159131633-18.015252799807968,8.930714877860737-26.668092848289234l-1.209700180865184,2.86655443035761c2.44018927995603-5.728745187154345,5.40302594575769-11.218226717704965,9.203553076866228-16.165135219047443l-1.876366847533063,2.428651597362659c2.550803000900487-3.274862204158126,5.416617078142735-6.277379801602365,8.694432611602679-8.832066804163333l-2.428651597363569,1.876366847533063c2.553533388130745-1.955061545652825,5.303667219914132-3.611387650122197,8.263113868608343-4.875881548844518l-2.866554430358519,1.209700180866093c2.484395299356038-1.032449749146508,5.063350273079777-1.766639600828057,7.729081551608033-2.140703475904957l-3.190075346516096.428651597363569c2.380576889108852-.306766133224301,4.76799564292196-.316735024997797,7.148524950349383-.004449507462596l-3.190075346517915-.428651597363569c2.191902022635986.314669445198888,4.31509175930114.895164736706647,6.364807306816147,1.732732800670419l-2.866554430358519-1.209700180865184c2.260145457334147.955998322440792,4.359875129805005,2.19868094125286,6.312219080278737,3.683660872152359l-2.42865159736175-1.876366847532154c2.349981499817659,1.830214475343382,4.413464303113869,3.96111297184143,6.246231440163683,6.305959472651011l-1.876366847533063-2.428651597363569c4.161494773594313,5.43373526110372,7.260905651142821,11.578333655248571,9.923480172783457,17.858802285568345l-1.209700180865184-2.866554430358519c3.757689213318372,8.934410657790067,6.819907043520288,18.137208356963129,10.606026435531021,27.06309912494271,3.210133064489128,7.567985612070515,6.90887123178436,14.922375867533447,11.531839034871155,21.733632741002111,4.963957666244823,7.313654823909019,10.691644991689827,14.25999475979188,17.456418291580121,19.982609460318599,7.894047038194913,6.677916261900464,16.526057823948577,11.893272749661264,26.305290878071901,15.334233608724389,10.769793892566668,3.789503638927272,22.448565130416682,4.743735124764498,33.775016017660164,5.359436296635977,2.97025403754742.161461777381191,6.423888826744587-1.453326078268219,8.485281374238184-3.514718625761816,2.081307336437021-2.081307336437021,3.648605543037775-5.496075058545102,3.514718625761816-8.485281374238184-.139005463135618-3.103484767403643-1.158449558051871-6.32226969283056-3.514718625761816-8.485281374238184-2.418897999270484-2.22050388907337-5.180793710611397-3.33508804711164-8.485281374238184-3.514718625761816h0Z"/>
</svg>