<?xml version="1.0" encoding="UTF-8"?>
<svg id="Layer_1" xmlns="http://www.w3.org/2000/svg" xmlns:xlink="http://www.w3.org/1999/xlink" viewBox="0 0 280 280">
  <defs>
    <style>
      .cls-1 {
        fill: #665451;
      }

      .cls-2 {
        fill: url(#linear-gradient);
      }
    </style>
    <linearGradient id="linear-gradient" x1="139.863623700606695" y1="144.422033709700372" x2="139.863623700606695" y2="28.241103116262821" gradientUnits="userSpaceOnUse">
      <stop offset=".033113946447839" stop-color="#d4c0a3" stop-opacity="0"/>
      <stop offset=".07744552998155" stop-color="#d4c0a3" stop-opacity=".067075563153591"/>
      <stop offset=".702797202797203" stop-color="#d4c0a3"/>
    </linearGradient>
  </defs>
  <path class="cls-2" d="M29.532801574670884,144.422033709700372c222.28652374918056-152.624678221362956,220.660927734374127-157.174433898925599,220.661323242187791,0"/>
  <path class="cls-1" d="M35.5894313515455,154.783681931471619c15.731696462506079-10.801821551090143,31.447775103199092-21.626384138857247,47.184213215623458-32.421300042742587,13.277525888588571-9.108145970199075,26.568064178787608-18.198022973760089,39.927822838351858-27.185290894140962,11.059332050183002-7.439743687609734,22.164156355120213-14.814966523273142,33.397773459229938-21.989589491558945,8.951126883030156-5.716855037149799,17.983152269074708-11.318238000097153,27.209550568375562-16.58197070110873,7.092254094330201-4.046186668858354,14.30633785178361-7.920523148172833,21.773049611763781-11.235824261161724.780616731928603-.346602306794011,1.564336695017118-.686097992579562,2.350928034493336-1.018914107631645l-2.866554430358519,1.209700180866093c4.700955947086186-1.982221612674039,9.535616166682303-3.747294478162075,14.532526790044358-4.821502614676319,1.167960477376255-.251081666751816,2.344493051434256-.460369012037518,3.52851887570796-.619676021807209l-3.190075346516096.428651597363569c2.551689371579414-.336050633891318,5.14245537041279-.432494447314639,7.699213206033164-.093430916111174l-3.190075346516096-.428651597362659c1.669641731506999.228439901347883,3.306932408006105.645843167121711,4.863679781388782,1.294961628124838l-2.866554430358519-1.209700180865184c1.356530807222953.573386145094446,2.630346491107048,1.315849500158038,3.79852344162282,2.212621809085249l-2.428651597363569-1.876366847533063c1.297495678843916,1.005995078549859,2.443461919412584,2.185542950561285,3.451298862011754,3.479912361317474l-1.876366847533063-2.428651597363569c1.55759394452798,2.017114748291533,2.768084694527715,4.274327072626875,3.760573670320809,6.616051512984086l-1.209700180865184-2.86655443035761c1.931114860104572,4.59041853223971,3.075543359060248,9.487930633472388,3.927473513091172,14.381030424215169.289502568110038,1.662771236276058.540922326696091,3.331891557052586.766129436497067,5.004529984727014l-.428651597365388-3.190075346517006c1.168295341563862,8.745200469641532,1.652344076896043,17.575627714009897,1.964864192883397,26.387646765848331.401966055103912,11.334094525587716.475448249122564,22.678623877926839.508527456015145,34.018813561705429.021947284862108,7.523952257239216.016683660607669,15.047956442641407.016656288735248,22.571931002929887-.000011193442333,3.076851331877151,1.338594824133907,6.309157572611184,3.514718625761816,8.485281374238184,2.081307336437021,2.081307336437931,5.496075058546921,3.648605543037775,8.485281374238184,3.514718625761816,6.501643503041123-.29120940942812,11.999975526043272-5.272603367228839,12-12,.00005050281834-13.882204887793705.038572341496547-27.766223176279709-.166800193819654-41.64732917139554-.159683807714828-10.793010161746679-.433416689593287-21.604164251728434-1.355110502108801-32.362954517910111-.750277347104202-8.757872201535065-1.728928050457398-17.706147880966455-4.203405777852822-26.172102617309065-2.0498635931217-7.013218265366959-5.222358603517932-14.032711376700718-10.471557638127706-19.256777924988455-5.60821011263215-5.581358727686165-12.91614807307451-8.273678850522629-20.719815090116754-8.702573718344865-3.835188969947922-.210784604564651-7.76051881433159.380545740975322-11.508061554646702,1.101729858691215-3.450663233274099.664052071416336-6.825773098218633,1.693512041325448-10.126852117207818,2.888515749474209-9.949814712354055,3.601872420579639-19.470017936837394,8.374955802840304-28.707823904982433,13.505984024513964-11.88824437891526,6.603182360046048-23.427859963947412,13.828775224049423-34.855034128364423,21.194243446700966-15.130815280144816,9.752677042039977-30.059651194658727,19.817199432067355-44.944493674585829,29.939932366971334-18.75518498675774,12.754836271979912-37.431272515634191,25.625706099448507-56.122124522169543,38.474482386008276-5.178115691622224,3.559626392864629-10.356803243554168,7.118420899613739-15.536873915079923,10.675201895816826-2.605985557649547,1.789342365302218-4.653604534685655,4.044557598691426-5.514718625761816,7.171572875254242-.791012610903636,2.872451564642688-.433873911120827,6.697394730831547,1.209700180865184,9.24670512339253,1.651929396370178,2.562270115157844,4.111777910418823,4.817795085034959,7.171572875255151,5.514718625760906,3.01778446780736.687354891627365,6.600933218771388.606960599917329,9.246705123390711-1.209700180865184h0Z"/>
</svg>