<?xml version="1.0" encoding="UTF-8"?>
<svg id="Layer_1" xmlns="http://www.w3.org/2000/svg" xmlns:xlink="http://www.w3.org/1999/xlink" viewBox="0 0 280 280">
  <defs>
    <style>
      .cls-1 {
        fill: #665451;
      }

      .cls-2 {
        fill: url(#linear-gradient);
      }
    </style>
    <linearGradient id="linear-gradient" x1="139.863623700606695" y1="160.407817677027197" x2="139.863623700606695" y2="42.087368371008779" gradientUnits="userSpaceOnUse">
      <stop offset=".033113946447839" stop-color="#d4c0a3" stop-opacity="0"/>
      <stop offset=".07744552998155" stop-color="#d4c0a3" stop-opacity=".067075563153591"/>
      <stop offset=".702797202797203" stop-color="#d4c0a3"/>
    </linearGradient>
  </defs>
  <path class="cls-2" d="M29.532962079512799,160.407817677027197c42.244657803586961-111.622517949946086,81.796216261558584-37.229364964156957,100.771466314228746-53.302517949946377,52.736170212763682-44.670638297871847,104.438297872336989-144.352340425531111,119.889856927959045,53.302517949946377"/>
  <path class="cls-1" d="M41.104310482149231,163.597893023544202c1.348830411809104-3.556036647790279,2.754755633150126-7.089546901290305,4.232418403285919-10.594073112500155l-1.209700180865184,2.866554430358519c5.023236609273226-11.857139569864557,10.815765447314334-23.630141742539308,18.713941752324899-33.866483357181096l-1.876366847533063,2.428651597362659c3.153394719101925-4.059355201197832,6.66590130100667-7.860269840503861,10.728752331204305-11.026204154534753l-2.42865159736175,1.876366847533063c2.605066931388137-2.010705409056754,5.418402767234511-3.736014865727157,8.4537471130825-5.017127539877038l-2.866554430358519,1.209700180866093c2.472866426473047-1.028078435320822,5.056340498667851-1.743078890955076,7.710334109269752-2.106216970599235l-3.190075346516096.428651597363569c2.91105050965416-.382895728421317,5.850439491605357-.336604846434966,8.758002796668734.054066995454377l-3.190075346516096-.428651597363569c5.085668335774244.703766539386379,9.949817823178819,2.415775926558126,14.662672807289709,4.400834863860837l-2.866554430358519-1.209700180865184c2.987641247289503,1.262271735227841,5.923824408453584,2.641156489877176,8.902349477293683,3.924184259597496,3.445977278552164,1.484387218514712,6.952594081867574,3.096677534258561,10.620668818406557,3.981266389097982,4.382913201476185,1.056978510043336,8.74718549753743,1.311697723418547,13.153069062318536.251636578682337,4.794524150505822-1.153568560022904,8.35314673796529-4.237763711226762,11.953131641650543-7.405626892617875,6.293526494413527-5.53808735207258,12.239264901360002-11.460241186788153,18.097263046602166-17.452626674887142,5.877213640316768-6.012041802587191,11.657386839291576-12.118917579952722,17.584739709149289-18.081933652828411,5.383111995255604-5.415500655113647,10.881844280978839-10.753492059063319,16.816719306167215-15.567672439794478.666476592567051-.540624448287417,1.339140734937246-1.073508304086317,2.017813881484471-1.598737770094885l-2.428651597363569,1.876366847532154c3.996369012271316-3.083640559701962,8.243700673507192-5.948401757091233,12.90701415823969-7.926560469731157l-2.866554430358519,1.209700180865184c2.223561766415514-.934736360919487,4.540988149499753-1.653110112469221,6.93493282172858-1.982511239741143l-3.190075346516096.428651597362659c1.670592045691592-.221651399797338,3.358746672640336-.246494803691348,5.030799807755102-.025501653689389l-3.190075346517915-.428651597362659c1.498196661339534.206882552590287,2.956574839112363.609160318613249,4.350310542371517,1.196217594635527l-2.866554430358519-1.209700180866093c1.526768132085635.653748560328495,2.947384380395306,1.516104571834148,4.262043687496771,2.528891593222397l-2.428651597363569-1.876366847532154c1.857633511039239,1.446443165142227,3.476282473146057,3.165755408024779,4.920246512630911,5.020640719851144l-1.876366847533063-2.428651597363569c2.966513497507549,3.84100494816812,5.200379915189842,8.20234427363539,7.090744908105989,12.655974325756688l-1.209700180865184-2.866554430358519c5.436582130700117,12.887231704386068,8.349483198497182,26.830404616678607,10.712226162519073,40.560089132148278.929687765063136,5.402331064608006,1.739639822320896,10.824568405743776,2.47027187646745,16.257229787317556l-.42865159736175-3.190075346517915c1.77481406131119,13.269362539882422,3.072489999578465,26.598653338100121,4.119019659785408,39.943876840920893.252718347976042,3.222634737691806,1.16802122914487,6.138583977621238,3.514718625761816,8.485281374238184,2.081307336437021,2.081307336437931,5.496075058545102,3.648605543037775,8.485281374238184,3.514718625761816,3.103484767401824-.139005463135618,6.32226969282965-1.158449558050052,8.485281374238184-3.514718625761816,2.056603037619425-2.240353190763926,3.761619622724538-5.336828814483852,3.514718625761816-8.485281374238184-1.393150211042666-17.765288119690922-3.247923199172874-35.508240877381468-5.991201346381786-53.119633310113386-1.828466681750797-11.738453978955476-4.069133555150984-23.475251578742245-7.491818226897522-34.864384354493268-1.541164626014506-5.128292623589914-3.427548534225934-10.090912255274816-5.532788662132589-15.012716780635856-1.382979450256244-3.233243764701001-2.943259563475294-6.40106674485196-4.835749150346601-9.369282585037581-1.998957917818188-3.135202749167547-4.285046281340328-6.213347192915535-6.962407354942115-8.805852966751445-2.304107495094286-2.231081957331298-4.955788088005647-4.352896556148153-7.855026031482339-5.769019692159418-3.988645349476428-1.948240562126557-7.309407209400888-2.828569346334916-11.700350667138991-3.276127609553441-3.061965332459295-.312098732179038-6.231251630209954.148259739751666-9.220347020071131.752334668362892-3.206681844047125.648047604165185-6.256791377702029,1.985486367340854-9.219494151133404,3.325158872453358-2.316200093957377,1.047337454853732-4.527870477661054,2.317629001683599-6.657477723976626,3.702436095416488-5.816897742235597,3.782519650469112-11.217482599920913,8.276257594400704-16.341289496212994,12.945310171347955-5.064482469068025,4.614993383186629-9.89574674506548,9.480711798790253-14.677064155159314,14.386047174796659-5.072319150838666,5.203885129331866-10.083028633553113,10.467641258191179-15.183352352705697,15.644257633041889-5.044613569174544,5.120072890455049-10.173072340487124,10.166445146809565-15.551847140217433,14.937066053519629-1.166247879362345,1.034385473058137-2.323572133835114,2.102729525749965-3.55489237713482,3.059761445460026l2.42865159736175-1.876366847533063c-.672804079107664.512770119925335-1.397495157987578.9430453604582-2.175203491136926,1.276660766347959l2.866554430358519-1.209700180866093c-.80796976585043.337145862342368-1.650667078280094.561468679151403-2.517110434200731.684389234738774l3.190075346516096-.428651597363569c-1.195048999823484.158996187697085-2.399628635630506.124577566708467-3.5932577509775-.0297463809693l3.190075346517915.428651597363569c-3.157133873444764-.426787083121781-6.175855178304118-1.600603841993689-9.095095756045339-2.829575649134313l2.866554430358519,1.209700180866093c-5.435973819965511-2.296386312987124-10.745009168302204-4.884549768876241-16.275273686433138-6.95905351629608-5.820191435779634-2.183260656816856-12.041513545980706-3.569735961484184-18.274467624971294-3.677482355900793-7.844022586208666-.135596242275824-15.699947106844775,2.085570982570061-22.457340064018354,6.027353273717381-8.939903163214694,5.214903468934608-15.843342107460558,13.093797408303544-21.757879278919063,21.442634594277479-8.308714876582599,11.728408448258051-14.226599601959606,25.044530600675898-19.558784831609955,38.326041692124818-.785045098673436,1.955405661329678-1.547780501108718,3.919587750100618-2.29506402169136,5.889715026455633-1.043662207704983,2.751495685461123-.221907614883094,6.800304528914239,1.209700180865184,9.24670512339253,1.456655487998432,2.48920330160945,4.310803619260696,4.863126783169719,7.171572875255151,5.514718625760906,3.071861203252411.69967184435427,6.519980196837423.548255405215968,9.246705123390711-1.209700180865184l2.428651597363569-1.876366847533063c1.487234789270587-1.497279738196085,2.515923798737276-3.262348414103144,3.086067028398247-5.295206027721179h0Z"/>
</svg>