<?xml version="1.0" encoding="UTF-8"?>
<svg xmlns="http://www.w3.org/2000/svg" xmlns:xlink="http://www.w3.org/1999/xlink" viewBox="0 0 280 280">
  <defs>
    <style>
      .cls-1 {
        fill: #e11f26;
      }

      .cls-2 {
        fill: #ec1940;
      }

      .cls-3 {
        fill: #665451;
      }

      .cls-4 {
        fill: url(#linear-gradient);
      }
    </style>
    <linearGradient id="linear-gradient" x1="139.863623700606695" y1="144.422033709700372" x2="139.863623700606695" y2="28.241103116262821" gradientUnits="userSpaceOnUse">
      <stop offset=".033113946447839" stop-color="#d4c0a3" stop-opacity="0"/>
      <stop offset=".07744552998155" stop-color="#d4c0a3" stop-opacity=".067075563153591"/>
      <stop offset=".702797202797203" stop-color="#d4c0a3"/>
    </linearGradient>
  </defs>
  <g id="Layer_1">
    <g>
      <path class="cls-4" d="M29.532801574670884,144.422033709700372c222.28652374918056-152.624678221362956,220.660927734374127-157.174433898925599,220.661323242187791,0"/>
      <path class="cls-3" d="M35.5894313515455,154.783681931471619c15.731696462506079-10.801821551090143,31.447775103199092-21.626384138857247,47.184213215623458-32.421300042742587,13.277525888588571-9.108145970199075,26.568064178787608-18.198022973760089,39.927822838351858-27.185290894140962,11.059332050183002-7.439743687609734,22.164156355120213-14.814966523273142,33.397773459229938-21.989589491558945,8.951126883030156-5.716855037149799,17.983152269074708-11.318238000097153,27.209550568375562-16.58197070110873,7.092254094330201-4.046186668858354,14.30633785178361-7.920523148172833,21.773049611763781-11.235824261161724.780616731928603-.346602306794011,1.564336695017118-.686097992579562,2.350928034493336-1.018914107631645l-2.866554430358519,1.209700180866093c4.700955947086186-1.982221612674039,9.535616166682303-3.747294478162075,14.532526790044358-4.821502614676319,1.167960477376255-.251081666751816,2.344493051434256-.460369012037518,3.52851887570796-.619676021807209l-3.190075346516096.428651597363569c2.551689371579414-.336050633891318,5.14245537041279-.432494447314639,7.699213206033164-.093430916111174l-3.190075346516096-.428651597362659c1.669641731506999.228439901347883,3.306932408006105.645843167121711,4.863679781388782,1.294961628124838l-2.866554430358519-1.209700180865184c1.356530807222953.573386145094446,2.630346491107048,1.315849500158038,3.79852344162282,2.212621809085249l-2.428651597363569-1.876366847533063c1.297495678843916,1.005995078549859,2.443461919412584,2.185542950561285,3.451298862011754,3.479912361317474l-1.876366847533063-2.428651597363569c1.55759394452798,2.017114748291533,2.768084694527715,4.274327072626875,3.760573670320809,6.616051512984086l-1.209700180865184-2.86655443035761c1.931114860104572,4.59041853223971,3.075543359060248,9.487930633472388,3.927473513091172,14.381030424215169.289502568110038,1.662771236276058.540922326696091,3.331891557052586.766129436497067,5.004529984727014l-.428651597365388-3.190075346517006c1.168295341563862,8.745200469641532,1.652344076896043,17.575627714009897,1.964864192883397,26.387646765848331.401966055103912,11.334094525587716.475448249122564,22.678623877926839.508527456015145,34.018813561705429.021947284862108,7.523952257239216.016683660607669,15.047956442641407.016656288735248,22.571931002929887-.000011193442333,3.076851331877151,1.338594824133907,6.309157572611184,3.514718625761816,8.485281374238184,2.081307336437021,2.081307336437931,5.496075058546921,3.648605543037775,8.485281374238184,3.514718625761816,6.501643503041123-.29120940942812,11.999975526043272-5.272603367228839,12-12,.00005050281834-13.882204887793705.038572341496547-27.766223176279709-.166800193819654-41.64732917139554-.159683807714828-10.793010161746679-.433416689593287-21.604164251728434-1.355110502108801-32.362954517910111-.750277347104202-8.757872201535065-1.728928050457398-17.706147880966455-4.203405777852822-26.172102617309065-2.0498635931217-7.013218265366959-5.222358603517932-14.032711376700718-10.471557638127706-19.256777924988455-5.60821011263215-5.581358727686165-12.91614807307451-8.273678850522629-20.719815090116754-8.702573718344865-3.835188969947922-.210784604564651-7.76051881433159.380545740975322-11.508061554646702,1.101729858691215-3.450663233274099.664052071416336-6.825773098218633,1.693512041325448-10.126852117207818,2.888515749474209-9.949814712354055,3.601872420579639-19.470017936837394,8.374955802840304-28.707823904982433,13.505984024513964-11.88824437891526,6.603182360046048-23.427859963947412,13.828775224049423-34.855034128364423,21.194243446700966-15.130815280144816,9.752677042039977-30.059651194658727,19.817199432067355-44.944493674585829,29.939932366971334-18.75518498675774,12.754836271979912-37.431272515634191,25.625706099448507-56.122124522169543,38.474482386008276-5.178115691622224,3.559626392864629-10.356803243554168,7.118420899613739-15.536873915079923,10.675201895816826-2.605985557649547,1.789342365302218-4.653604534685655,4.044557598691426-5.514718625761816,7.171572875254242-.791012610903636,2.872451564642688-.433873911120827,6.697394730831547,1.209700180865184,9.24670512339253,1.651929396370178,2.562270115157844,4.111777910418823,4.817795085034959,7.171572875255151,5.514718625760906,3.01778446780736.687354891627365,6.600933218771388.606960599917329,9.246705123390711-1.209700180865184h0Z"/>
    </g>
  </g>
  <g id="Arrows">
    <g>
      <g>
        <path class="cls-2" d="M216.239088667200122,177.011143461189931c9.647506713869006,0,18.182769775388806.61407470703125,26.093521118169519,1.8773193359375,2.437667846670593.3892822265625,5.08108520506903.5784912109375,8.081329345699487.5784912109375,2.584625244140625,0,5.178833007810681-.1383056640625,7.407546997070312-.26800537109375,2.849182128900793-.16571044921875,5.877426147459119-.242919921875,9.530044555658606-.242919921875,2.790802001960401,0,5.633453369140625.04583740234375,8.382537841800513.09014892578125,1.278045654300513.0206298828125,2.555831909179688.04119873046875,3.833175659179688.05755615234375,8.607666015621362.10992431640625,16.209320068361194,1.57861328125,23.239379882810681,4.48992919921875,13.068466186530713,5.4119873046875,21.741531372070312,15.214721679686591,25.778244018560144,29.135925292967841,2.879089355470569,9.92889404296875,3.709594726560681,20.678466796875,2.61358642578125,33.82952880859375-.037872314460401.45465087890625-.039764404300513.89862060546875-.041564941409888,1.32794189453125-.001922607421875.45135498046875-.003753662111194.87762451171875-.045989990230737,1.28741455078125-.898101806640625,8.7159423828125.101776123039599,17.4200439453125,1.068725585930224,25.8375244140625.19546508789972,1.70166015625.390960693359375,3.4033203125.57147216796875,5.105712890625.127838134771082,1.20587158203125.168823242191138,2.45648193359375.20849609375,3.6658935546875.05709838868097,1.74139404296875.116088867191138,3.54095458984375.42919921875,5.3289794921875v13.2296142578125c-.347808837890625,1.520874023436591-.4228515625,3.052612304686591-.495452880859375,4.535034179686591-.026824951170056.54779052734375-.053497314449487,1.09466552734375-.094207763670056,1.6385498046875-.482177734369543,6.444580078125-3.044708251949487,12.39947509765625-8.064422607420056,18.74041748046875-8.244659423829944,10.41455078125-19.4307708740198,15.663818359375-34.197494506839575,16.04779052734375-.439514160148974.01141357421875-.878860473629175.0172119140625-1.315567016601562.0172119140625-7.625320434568494,0-14.220581054678405-1.7264404296875-20.162689208978918-5.27801513671875-6.481842041021082-3.8741455078125-11.447128295900256-9.30035400390625-14.760757446290881-16.13360595703125-.79608154296875-1.6416015625-1.234603881839575-2.54583740234375-2.297241210939319-2.54608154296875-.7685546875-.00006103515625-1.339584350580481.544921875-2.376205444330481,1.5343017578125l-.076110839849207.0726318359375c-1.821868896478918,1.73828125-3.6470794677698,3.47314453125-5.472290039060681,5.20806884765625-7.718582153320312,7.33660888671875-15.699951171878638,14.92303466796875-23.292846679689319,22.65997314453125-1.186782836908606,1.20928955078125-2.346527099611194,2.4732666015625-3.468078613279431,3.6956787109375-1.527786254879175,1.66510009765625-3.107604980470569,3.38690185546875-4.756286621090112,4.96868896484375-4.759872436530713,4.56695556640625-9.583160400390625,7.76416015625-14.745468139650256,9.7742919921875-3.338058471679688,1.2998046875-6.819686889650256,1.43402099609375-10.505737304689319,1.5760498046875l-.18603515625.00787353515625-3.377685546871362-.00006103515625-3.421493530280713.00103759765625c-.44089508055913.01983642578125-.878974914548962.02960205078125-1.312286376949487.02960205078125-7.575714111328125,0-14.701583862308325-3.02203369140625-21.784790039058862-9.2388916015625-4.392814636230469-3.85552978515625-7.836921691899988-7.76263427734375-10.529159545900256-11.94464111328125-3.431709289548962-5.33074951171875-5.024971008298962-11.15118408203125-4.870582580570044-17.81707763671875l-.001182556150525-6.0845947265625c-.432762145999732-8.91302490234375,2.935287475589575-17.052490234375,10.0106353759802-24.192199707030341,4.933311462400525-4.978271484375,10.113632202141162-9.88677978515625,15.123390197750268-14.63372802734375,4.50994873046875-4.27337646484375,9.173477172849744-8.6922607421875,13.654029846189587-13.15869140625,2.377258300779431-2.36981201171875,4.842391967780713-4.75006103515625,7.226364135740369-7.05194091796875,1.079559326179151-1.04241943359375,2.159057617191138-2.08477783203125,3.234603881839575-3.12982177734375.90234375-.8768310546875,1.695922851560681-1.74737548828125,1.498260498050513-2.7569580078125-.198486328130457-1.01385498046875-1.2357330322302-1.50927734375-2.469253540039062-2.00823974609375-8.082794189460401-3.2691650390625-14.294792175300245-8.67144775390625-18.463478088380725-16.056640625-2.380683898931238-4.21771240234375-3.804626464840112-9.00274658203125-4.353179931640625-14.62860107421875-.82434844970885-8.4537353515625.548263549799231-16.679443359375,4.079681396480737-24.4486083984375,4.827789306638806-10.621398925780341,12.893165588380725-18.153930664061591,23.972023010259363-22.388366699217841,4.607742309570312-1.7611083984375,9.335510253898974-2.1168212890625,13.758193969719287-2.2388916015625,2.465881347659888-.06805419921875,4.869171142581763-.10260009765625,7.143096923831763-.10260009765625M216.239088667200122,176.011143461189931c-2.389114379880994,0-4.780014038080481.0369873046875-7.17071533203125.10296630859375-4.747711181640625.13104248046875-9.4990234375.5506591796875-14.087600708009631,2.304443359375-11.32763671875,4.3294677734375-19.530921936029699,11.92059326171875-24.525367736810949,22.908630371092841-3.598472595218482,7.916748046875-5.016395568847656,16.22412109375-4.164604187018995,24.95947265625.521316528320312,5.346435546875,1.850708007819776,10.36920166015625,4.477630615239832,15.0230712890625,4.361473083490637,7.726806640625,10.740997314451306,13.16815185546875,18.959365844721106,16.4921875,2.319473266608838.9381103515625,2.426956176757812,1.3934326171875.649078369147901,3.12091064453125-3.493072509769263,3.39410400390625-7.028106689458582,6.7596435546875-10.470077514648438,10.19073486328125-9.450416564941406,9.42071533203125-19.39668273926145,18.32623291015625-28.78176116944087,27.7967529296875-6.7236862182599,6.784912109374091-10.781234741209119,15.015441894530341-10.299133300779431,24.944641113280341v6.03607177734375c-.153625488279431,6.62188720703125,1.397636413579676,12.71630859375,5.029739379890088,18.35833740234375,2.974235534658874,4.62005615234375,6.646316528318494,8.5880126953125,10.710342407221106,12.15496826171875,6.435569763189051,5.6484375,13.703018188478381,9.4873046875,22.444435119628906,9.4873046875.448150634769263,0,.901191711429419-.0101318359375,1.357170104980469-.03057861328125,1.125144958499732,0,2.250648498538794-.00006103515625,3.376625061038794-.00006103515625s2.252426147460938.00006103515625,3.379486083980737.00006103515625c3.746307373050513-.1448974609375,7.48759460448855-.2637939453125,11.0528411865198-1.652099609375,5.751174926759631-2.23944091796875,10.653305053710938-5.74212646484375,15.074935913089575-9.9844970703125,2.884750366210938-2.76776123046875,5.451538085941138-5.83831787109375,8.245742797851562-8.685546875,9.34521484375-9.52252197265625,19.0901031494177-18.63629150390625,28.741744995119006-27.844970703125.903274536130994-.86181640625,1.383209228510168-1.3304443359375,1.761856079099744-1.33038330078125.436889648441138.00006103515625.738906860349744.62408447265625,1.400375366210938,1.98809814453125,3.405151367189319,7.02203369140625,8.453079223629175,12.55035400390625,15.144729614259631,16.54986572265625,6.389572143549231,3.81903076171875,13.334060668939856,5.419677734375,20.675720214838293,5.419677734375.445343017581763,0,.893356323242188-.00592041015625,1.341567993171338-.017578125,14.059722900390625-.36553955078125,26.058792114250537-5.1884765625,34.955551147460938-16.4267578125,4.466857910148974-5.64251708984375,7.723114013668237-11.87579345703125,8.277587890617724-19.2864990234375.152496337890625-2.038330078125.112701416021082-4.11798095703125.592437744140625-6.133056640624091v-13.43280029296875c-.536254882808862-2.9808349609375-.325469970699487-6.01458740234375-.643280029289599-9.01220703125-1.083099365239832-10.21563720703125-2.704559326179151-20.4029541015625-1.639862060550513-30.7353515625.089721679691138-.8707275390625.016235351560681-1.757080078125.08935546875-2.63482666015625.961791992191138-11.54083251953125.586029052730737-23.0322265625-2.649688720699487-34.1910400390625-4.055786132819776-13.98687744140625-12.746917724609375-24.145385742186591-26.356094360358838-29.781311035155341-7.546844482421875-3.1253662109375-15.480606079101562-4.462158203125-23.609207153320312-4.56597900390625-4.073989868160425-.05206298828125-8.152923583980737-.1478271484375-12.228469848630994-.14776611328125-3.199874877929688,0-6.397918701170056.05902099609375-9.588134765619543.24462890625-2.460159301759631.14312744140625-4.908111572269263.26629638671875-7.349487304691138.26629638671875-2.64697265625,0-5.286163330078125-.144775390625-7.92362976073855-.56597900390625-8.710098266601562-1.390869140625-17.47247314453125-1.88983154296875-26.251205444339575-1.88983154296875h0Z"/>
        <path class="cls-2" d="M215.418776167200122,206.144383207282772c6.575668334959119,0,13.25566101073855,1.05926513671875,19.000717163089575,2.0521240234375,5.113983154289599.88372802734375,10.489562988279431,1.29534912109375,16.917312622070312,1.29534912109375,4.036087036129175,0,8.003982543938037-.16802978515625,11.009902954099744-.3143310546875,3.233718872068494-.157470703125,6.681381225580481-.31121826171875,10.153396606439856-.31121826171875,4.914291381839575,0,8.987365722659888.30816650390625,12.818206787109375.96990966796875,10.220581054691138,1.76544189453125,14.563751220710401,6.50469970703125,15.490661621101026,16.9033203125.747955322258349,8.39080810546875.770416259758349,17.2764892578125.066741943359375,26.4100341796875-.737182617191138,9.56866455078125.67742919921875,19.03558349609375,2.045501708980737,28.19085693359375.161148071289062,1.07861328125.322357177738013,2.15740966796875.480255126949487,3.2366943359375.869674682620825,5.94488525390625,1.502197265628638,12.2994384765625.252395629890088,18.48895263671875-1.188980102539062,5.888305664061591-7.102142333991651,10.500793457030341-13.461853027351026,10.500793457030341-1.778366088859912,0-3.471923828119543-.3604736328125-5.033645629879175-1.07147216796875-3.461761474609375-1.57586669921875-4.482284545900256-4.69110107421875-4.949539184570312-8.8837890625-.599777221679688-5.381835937499091-.293594360349744-10.883056640624091.002502441409888-16.203063964842841.169296264641162-3.0418701171875.344375610351562-6.18731689453125.351272583000537-9.29620361328125.016128540039062-7.27154541015625-.326522827141162-15.7420654296875-4.623413085930224-24.25189208984375l-.654281616210938-1.2957763671875-.977600097659888,1.07305908203125c-.678207397459119.74444580078125-1.346939086910425,1.49835205078125-2.015686035159888,2.2523193359375-1.415496826168237,1.595947265625-2.87919616698855,3.2462158203125-4.40432739256903,4.76068115234375-9.1064453125,9.04266357421875-17.379470825200769,17.17999267578125-25.291793823251282,24.876953125-8.338317871090112,8.111328125-16.836853027340112,16.338134765625-25.055572509758349,24.294067382811591-5.7088775634802,5.5263671875-11.41778564453125,11.052734375-17.120361328130457,16.5855712890625-1.470062255861194,1.42633056640625-2.818084716791418,2.98468017578125-4.121719360349744,4.49169921875-1.765426635740369,2.0408935546875-3.590957641601562,4.1512451171875-5.692947387691675,5.88555908203125-2.562408447269263,2.11431884765625-4.751708984378638,3.09906005859375-6.889846801757812,3.09906005859375-2.08711242676145,0-4.20972442627135-.9337158203125-6.679962158210401-2.9383544921875-.696205139160156-.56494140625-1.428939819330481-1.17755126953125-2.070884704589844-1.82891845703125-5.559120178220837-5.64044189453125-5.597717285150793-10.6097412109375-.125175476070581-16.112548828125,1.767913818359375-1.77764892578125,3.729232788089575-3.45147705078125,5.6259765625-5.07025146484375,1.931106567379175-1.6480712890625,3.927932739259631-3.35223388671875,5.756484985349744-5.1920166015625,14.893676757810681-14.985473632811591,29.863250732420056-29.350708007811591,45.166320800779431-43.971984863280341,6.083419799811963-5.8123779296875,12.290634155280713-11.70037841796875,18.293487548831763-17.39453125,3.229049682619006-3.06298828125,6.458099365238013-6.12591552734375,9.684066772459119-9.19219970703125,1.2840728759802-1.220458984375,1.991394042970569-1.89276123046875,1.777526855470569-2.82769775390625-.215301513671875-.9410400390625-1.165893554691138-1.24578857421875-2.891571044921875-1.79888916015625-9.333816528318494-2.99169921875-18.852996826168237-3.3753662109375-26.103271484378638-3.3753662109375-1.340225219719287,0-2.75382995605105.01458740234375-4.321609497070312.04461669921875-1.684860229490369.03228759765625-3.394882202141162.0877685546875-5.048599243160425.14141845703125-2.568771362299231.0833740234375-5.225021362299231.16961669921875-7.828079223629175.16961669921875-3.746658325200769,0-6.832641601569776-.1778564453125-9.711761474609375-.559814453125-1.794418334960938-.23797607421875-3.31591796875-.71148681640625-4.651428222659888-1.44744873046875-2.199569702152075-1.21221923828125-3.27734375-2.90386962890625-3.39179992676145-5.3238525390625-.248764038078662-5.25970458984375.984054565429688-9.38140869140625,3.664215087890625-12.25067138671875,2.857238769538526-3.058837890625,7.324203491220032-4.6728515625,13.276779174810144-4.797119140625.427703857420056-.0089111328125.855880737299231-.01324462890625,1.283004760740369-.01324462890625M215.418776167200122,205.144383207282772c-.434097290040881,0-.869232177730737.00439453125-1.303878784179688.01348876953125-12.20158386230105.25469970703125-18.459793090820312,6.66070556640625-17.919006347650793,18.09478759765625.133972167959655,2.83258056640625,1.488265991209119,4.81884765625,3.908020019529431,6.15240478515625,1.55792236328125.85858154296875,3.252532958980737,1.33087158203125,5.002624511720569,1.56298828125,3.278213500969287.43487548828125,6.559555053709119.5684814453125,9.843231201170056.5684814453125,4.296951293939856,0,8.597473144529431-.22894287109375,12.895828247070312-.31121826171875,1.435440063469287-.0274658203125,2.869827270509631-.04443359375,4.302459716789599-.04443359375,8.719787597659888,0,17.374221801759631.62762451171875,25.798049926759631,3.32763671875,2.840042114259631.91033935546875,2.838623046880457.94561767578125.730331420900256,2.94952392578125-9.325561523441138,8.86383056640625-18.677001953121362,17.70050048828125-27.979446411129175,26.5885009765625-15.198944091800513,14.52178955078125-30.363815307620825,29.0777587890625-45.184783935550513,43.990051269530341-3.595718383790881,3.61785888671875-7.785278320310681,6.64532470703125-11.3822174072302,10.2620849609375-5.928359985351562,5.96112060546875-5.774635314941406,11.5367431640625.122001647949219,17.5196533203125.670959472659888.6807861328125,1.4095611572302,1.3001708984375,2.152961730960669,1.9034423828125,2.601409912109375,2.111083984375,4.95654296875,3.161865234375,7.310104370120825,3.161865234375,2.421737670898438,0,4.841796875-1.11273193359375,7.526290893549231-3.32769775390625,3.726303100589575-3.0745849609375,6.436843872068494-7.09552001953125,9.874557495119006-10.430908203125,14.052124023441138-13.6339111328125,28.142623901370825-27.228332519530341,42.176879882810681-40.880554199217841,8.478683471679688-8.2479248046875,16.905670166021082-16.54949951171875,25.299133300779431-24.8841552734375,2.258148193359375-2.24237060546875,4.308731079101562-4.6937255859375,6.454605102540881-7.04913330078125,4.039688110349744,8.00042724609375,4.533645629890088,15.8782958984375,4.516082763670056,23.7989501953125-.018951416010168,8.53741455078125-1.300750732420056,17.059814453125-.347610473629175,25.612243652342841.448028564449487,4.02020263671875,1.432250976558862,7.81817626953125,5.529052734378638,9.68316650390625,1.743423461910425.793701171875,3.597412109371362,1.16131591796875,5.447952270500537,1.16131591796875,6.571502685550513,0,13.09619140625-4.637451171875,14.442092895509631-11.302856445311591,1.267074584959119-6.275146484375.672973632810681-12.5692138671875-.2431640625-18.8316650390625-1.513732910150793-10.34771728515625-3.331573486329944-20.64776611328125-2.5181732177698-31.2059326171875.681549072260168-8.846435546875.722320556638806-17.7127685546875-.067718505861194-26.57568359375-.965911865238013-10.8360595703125-5.55622863769895-15.9412841796875-16.3165130615198-17.7999267578125-4.314483642578125-.7452392578125-8.648147583007812-.9844970703125-12.988418579108838-.9844970703125-3.399291992180224,0-6.80303955078125.1468505859375-10.202041625969287.3123779296875-3.660766601560681.17828369140625-7.312927246101026.31317138671875-10.961257934570312.31317138671875-5.590316772460938,0-11.170181274421338-.3170166015625-16.747009277351026-1.28076171875-6.333282470699487-1.094482421875-12.720275878898974-2.06671142578125-19.171020507808862-2.06671142578125h0Z"/>
      </g>
      <path class="cls-1" d="M279.731001509000635,279.730992094001522c-69.716348767382442.440577951147134-210.016401672541178,1.330698934176326-279.731265606802481,1.531175585940218.000365795991456.000257519553998-1.526859698358749.007093457006704-1.526859698358749.007093457006704l-.004287719741114-1.538330078103172c-.064482580379263-34.904889664445363-.30436021919013-104.981273361629974-.285200212420023-139.865683708812867C-1.816773759561329,139.865513578375612-1.997685777379957.000096097905043-1.997685777379957.000096097905043l-.002586364749732-2.00030517578125c47.593461552100052.061588990722157,165.706460777139.208737488239422,211.798461936909007.271000175613153,17.377564136240835.057227081453675,52.544893820810103.067277353244208,69.932688836210218.190932785619225.000031325149394-.00014096895211,1.545471999188521.005901511358388,1.545471999188521.005901511358388l-.006912231528986,1.532470703190484c-.324877765760903,69.719190645657363-.970720794699446,210.04253395878095-1.538436889648438,279.730895996096478h0ZM279.731001509000635,279.730992094001522c-.578864574872568-69.742892426609615-1.234180971321621-210.023048388050483-1.538471455811305-279.73124924730746.000049824950111.000353251210981,1.538379903069654,1.538683329335981,1.538379903069654,1.538683329335981-38.949254562849092.064972187628882-100.445701974080293.316593994770301-139.865435554449505.281565584895361C139.865500105188403,1.820286527583448.000101698209619,1.997654691662319.000101698209619,1.997654691662319L1.997683180139575.000096097905043c.100235052059361,79.280994930932138-.35477218350934,201.347947800109068-.465795694190092,279.730682550881284-.00047475249994.000152409946168-1.531789602498975-1.53115862501727-1.531789602498975-1.53115862501727,69.708466019588741.186233415071911,210.024447781957861,1.073926737230067,279.730903625550127,1.531372070232464h0Z"/>
    </g>
  </g>
</svg>