<?xml version="1.0" encoding="UTF-8"?>
<svg id="Layer_1" xmlns="http://www.w3.org/2000/svg" xmlns:xlink="http://www.w3.org/1999/xlink" viewBox="0 0 280 280">
  <defs>
    <style>
      .cls-1 {
        fill: #665451;
      }

      .cls-2 {
        fill: url(#linear-gradient);
      }
    </style>
    <linearGradient id="linear-gradient" x1="140.585994573728385" y1="139.865503647710284" x2="140.585994573728385" y2="78.381295940652308" gradientUnits="userSpaceOnUse">
      <stop offset=".033113946447839" stop-color="#d4c0a3" stop-opacity="0"/>
      <stop offset=".07744552998155" stop-color="#d4c0a3" stop-opacity=".067075563153591"/>
      <stop offset=".702797202797203" stop-color="#d4c0a3"/>
    </linearGradient>
  </defs>
  <path class="cls-2" d="M30.25533295263449,139.865503647710284c8.446523749193148-114.434039923487944,55.165030891585047-34.054463113319798,110.330360058069346-34.054465455402351,55.165332454596864-.000002342081643,110.330765430207975-77.48425531914927,110.330963184118445,34.054465455402351"/>
  <path class="cls-1" d="M42.25533295263449,139.865503647710284c.427037024888705-5.738557044020126.978315691201715-11.467770279800789,1.737762034366824-17.172380498104758l-.428651597363569,3.190075346517006c1.288907785452466-9.559897245702814,3.018707581202762-19.305542641749526,6.7626321580683-28.249920758978078l-1.209700180865184,2.86655443035761c1.267055221886039-2.993103255918868,2.787533817927397-5.891720709329093,4.772802774125012-8.475081677313028l-1.876366847533063,2.428651597363569c1.13463078541281-1.45751585306607,2.411294134952186-2.793732416403145,3.86812648790692-3.932560217122955l-2.428651597363569,1.876366847533063c1.198693000367712-.922278166212891,2.497407345170359-1.693097594803476,3.890279714720236-2.283863133012346l-2.866554430358519,1.209700180866093c1.433525408017886-.594516002773162,2.932500211860315-.985818369607841,4.469515097091062-1.194887382511297l-3.190075346516096.428651597363569c2.074720140086356-.267497398756859,4.167964185508026-.203808936768837,6.238725726743723.068249281607677l-3.190075346516096-.428651597363569c4.734175450998009.644976886611403,9.283431700623623,2.288453291543192,13.668368209557229,4.131811155409196l-2.866554430358519-1.209700180866093c7.499541777458944,3.167010793535155,14.687799504004943,7.02369536977767,22.009098928056119,10.571100623280472,8.801178188725316,4.264454154290434,17.842648805764838,8.330800994174751,27.282832290968145,10.965595932695578,9.509132503262663,2.654038899624538,19.604205941544933,3.865043713991327,29.435336020134855,2.67293062585486,5.626942537657669-.682317474360389,11.141380978777306-1.660487546149852,16.593063074451493-3.219250804390867,4.486009337737414-1.282654859376635,8.887104959172575-2.848356996648363,13.225188639740736-4.562229490975369,9.341734581343189-3.690694584796802,18.413140486614793-7.990931654327142,27.618019547428048-11.998196944247866.941434353662771-.409845385610424,1.884934905090631-.814892040070845,2.83084791993133-1.214293504046509l-2.866554430358519,1.209700180866093c6.234818767678007-2.625924640875382,12.698657410926899-5.17230902272513,19.444046117279868-6.082494428444079l-3.190075346516096.428651597362659c2.347199058431215-.306314820724765,4.722888488437093-.388349799988646,7.074049054002899-.076396542887778l-3.190075346517915-.428651597362659c1.594595605507493.222648062576809,3.151219463579764.628120037245026,4.637219715776155,1.250849760353049l-2.866554430358519-1.209700180866093c1.326124531949972.568543495778613,2.565005781869331,1.298904434855103,3.709482982125337,2.177233888930459l-2.428651597363569-1.876366847532154c1.320510987157832,1.030784867979492,2.482358015848149,2.234519804154843,3.510532892947595,3.555216797703906l-1.876366847533063-2.428651597362659c1.588900371172713,2.070827166040544,2.827118733071984,4.374906520468357,3.849894344348286,6.770993780045501l-1.209700180865184-2.866554430358519c2.467297660094118,5.860247113719197,3.718603676805287,12.181058672478684,4.576243502157013,18.455344121808594l-.428651597365388-3.190075346517006c1.237312066221421,9.220761684566241,1.564333686659666,18.547273693472562,1.570515564013476,27.842229414344729.002047207173746,3.078142601767468,1.337161080653459,6.307723829129827,3.514718625761816,8.485281374238184,2.081307336437021,2.081307336437021,5.496075058546921,3.648605543037775,8.485281374238184,3.514718625761816,6.498048789631866-.291048401773878,12.004474195380681-5.272683108039018,12-12-.004884080441116-7.343612437935008-.21985314959602-14.696285241743681-.906885467975371-22.010379211933468-.605954564874992-6.450946353740619-1.434074866152514-12.956470717437696-2.995049456778361-19.255142816331499-1.201052560067183-4.846354511362733-2.944712531880214-9.668311669399372-5.303795216166691-14.071484876661998-1.227261000474755-2.290654240992808-2.785826487988743-4.31202826068693-4.405114396000499-6.344614828274644-.888554152083088-1.115344112164166-1.860877498764239-2.156763174938533-2.960932202811819-3.067073837510179-3.578742033711023-2.961459116437254-7.353319067686243-5.283446430275944-11.915075157239698-6.451870329366102-3.547584789239409-.908659465876553-7.395183170065138-1.263330686746485-11.05519615751291-.930488964692813-7.701545276673642.700378824105428-14.852341317486207,2.906876894538982-21.977402372764118,5.818204858279387-8.307040324283662,3.394289340733849-16.416903660694516,7.228220592923208-24.647670280743114,10.797252952552299-.966397877349664.419050309134036-1.934746842103777.833551589417766-2.905119457182082,1.243313340758505l2.866554430358519-1.209700180866093c-7.69953739925586,3.243940562112584-15.57502002259389,6.179555011653974-23.74263066124513,8.009650090088144-2.294943716166017.514222014986444-4.609564588885405.935233364304622-6.940218553978411,1.250834933702208l3.190075346517915-.428651597363569c-5.591920727889374.739815692360025-11.215054628468351.777441092709523-16.808229389855114.031564789204822l3.190075346517915.428651597362659c-8.354341181120617-1.141545929372114-16.400477390501692-3.818500209566082-24.148246221020599-7.080150852797487l2.866554430358519,1.209700180865184c-7.706071455888377-3.256333284398352-15.130966049191557-7.111478101153807-22.635819456754689-10.795825375398636-7.245624899969698-3.557084582557763-14.71069138456005-7.242712946590473-22.577823352157793-9.195830716164892-8.531691433185188-2.118103294989851-17.238298198060875-1.956106714966154-25.146996536152074,2.174907915848053-4.485416537487254,2.342904046853619-7.789190023602714,5.967476794665345-10.790829714813299,9.923120217427822-2.963519861357781,3.905408061509661-4.901951924621244,8.459472805549012-6.652953190401604,13.00775794693709-1.952928448139573,5.072797842274667-3.271589573210804,10.381190832477841-4.319597169520421,15.707143166231617-1.604616140624785,8.154625127755025-2.627345364702705,16.442143292554647-3.396693564071029,24.713840002549659-.202136494161095,2.17328353416633-.380330248579412,4.348644586269984-.542304820795835,6.525271595553932-.218065320441383,2.930378884580932,1.494621394105707,6.465184142582075,3.514718625761816,8.485281374238184,2.081307336437021,2.081307336437931,5.496075058546921,3.648605543037775,8.485281374238184,3.514718625761816,3.103484767401824-.139005463135618,6.322269692831469-1.158449558050052,8.485281374238184-3.514718625761816,2.243538704999082-2.443990893919363,3.26769101510763-5.1657049614887,3.514718625761816-8.485281374238184h0Z"/>
</svg>