<?xml version="1.0" encoding="UTF-8"?>
<svg id="Layer_1" xmlns="http://www.w3.org/2000/svg" viewBox="0 0 280 280">
  <defs>
    <style>
      .cls-1 {
        stroke: #665451;
        stroke-width: 50px;
      }

      .cls-1, .cls-2 {
        fill: none;
        stroke-linecap: round;
        stroke-linejoin: round;
      }

      .cls-3 {
        fill: #fff;
      }

      .cls-2 {
        stroke: #998675;
        stroke-width: 2px;
      }
    </style>
  </defs>
  <path class="cls-1" d="M78.759765625,87.728515625c5.509765625-2.08935546875,10.9560546875-3.24755859375,16.3359375-3.466796875,5.3779296875-.21923828125,10.4287109375.4931640625,15.1552734375,2.13818359375,4.72265625,1.64501953125,8.9609375,4.19921875,12.7119140625,7.6630859375,3.7470703125,3.46337890625,6.734375,7.73388671875,8.9541015625,12.80615234375,2.216796875,5.07568359375,3.529296875,11.03271484375,3.93359375,17.8701171875.4052734375,6.84033203125-.3720703125,14.42529296875-2.3291015625,22.7568359375l-6.8154296875,35.8193359375c-.4921875,1.6279296875-1.2099609375,3.02734375-2.15625,4.1962890625-.787109375.9345703125-1.916015625,1.7841796875-3.3935546875,2.5537109375s-3.3056640625,1.0009765625-5.4794921875.6943359375c-2.318359375-.19921875-4.6953125-.466796875-7.1240234375-.8095703125-2.4296875-.3427734375-4.591796875-.974609375-6.4833984375-1.892578125-1.8935546875-.91796875-3.4287109375-2.275390625-4.609375-4.07421875-1.1826171875-1.796875-1.68359375-4.2490234375-1.5048828125-7.353515625.84765625-6.009765625,1.96875-11.8828125,3.3662109375-17.6220703125,1.396484375-5.7373046875,2.7197265625-11.6494140625,3.9697265625-17.7333984375,1.55859375-6.43115234375,1.9189453125-11.76025390625,1.08203125-15.98779296875-.8408203125-4.22705078125-2.31640625-7.400390625-4.427734375-9.5263671875-2.115234375-2.123046875-4.6259765625-3.26025390625-7.5400390625-3.41162109375-2.9140625-.14794921875-5.8037109375.68212890625-8.6669921875,2.49462890625-2.8671875,1.81494140625-5.4052734375,4.55322265625-7.615234375,8.21875-2.2138671875,3.6669921875-3.5732421875,8.201171875-4.0732421875,13.609375-1.3671875,12.45947265625-2.49609375,24.62646484375-3.388671875,36.49853515625-.3427734375,2.4306640625-1.4453125,4.4609375-3.3046875,6.087890625-1.8623046875,1.6298828125-4.09765625,2.4541015625-6.7080078125,2.4775390625-2.3564453125.05859375-4.740234375.080078125-7.1513671875.06640625-2.4111328125-.015625-4.6083984375-.3896484375-6.5908203125-1.125-1.9833984375-.73828125-3.6787109375-1.888671875-5.0869140625-3.45703125-1.412109375-1.568359375-2.1650390625-3.857421875-2.2587890625-6.8720703125,1.4423828125-20.4033203125,3.6943359375-40.98681640625,6.755859375-61.75146484375,3.0576171875-20.7626953125,6.8466796875-41.5869140625,11.3583984375-62.47119140625.32421875-1.38818359375.7373046875-2.69921875,1.2392578125-3.93359375.4970703125-1.232421875,1.1728515625-2.31103515625,2.0224609375-3.23681640625.8447265625-.92236328125,1.9169921875-1.587890625,3.21484375-1.9912109375,1.294921875-.40478515625,2.9033203125-.47119140625,4.822265625-.2001953125,1.6416015625.3623046875,3.638671875.7763671875,5.9873046875,1.23583984375,2.34765625.462890625,4.55078125,1.033203125,6.6064453125,1.71484375,2.0556640625.68115234375,3.7587890625,1.5419921875,5.11328125,2.57958984375,1.3515625,1.041015625,1.9228515625,2.32568359375,1.70703125,3.8603515625-2.8642578125,13.81396484375-5.4072265625,27.67333984375-7.6279296875,41.57470703125Z"/>
  <path class="cls-2" d="M78.759765625,87.728515625c5.509765625-2.08935546875,10.9560546875-3.24755859375,16.3359375-3.466796875,5.3779296875-.21923828125,10.4287109375.4931640625,15.1552734375,2.13818359375,4.72265625,1.64501953125,8.9609375,4.19921875,12.7119140625,7.6630859375,3.7470703125,3.46337890625,6.734375,7.73388671875,8.9541015625,12.80615234375,2.216796875,5.07568359375,3.529296875,11.03271484375,3.93359375,17.8701171875.4052734375,6.84033203125-.3720703125,14.42529296875-2.3291015625,22.7568359375l-6.8154296875,35.8193359375c-.4921875,1.6279296875-1.2099609375,3.02734375-2.15625,4.1962890625-.787109375.9345703125-1.916015625,1.7841796875-3.3935546875,2.5537109375s-3.3056640625,1.0009765625-5.4794921875.6943359375c-2.318359375-.19921875-4.6953125-.466796875-7.1240234375-.8095703125-2.4296875-.3427734375-4.591796875-.974609375-6.4833984375-1.892578125-1.8935546875-.91796875-3.4287109375-2.275390625-4.609375-4.07421875-1.1826171875-1.796875-1.68359375-4.2490234375-1.5048828125-7.353515625.84765625-6.009765625,1.96875-11.8828125,3.3662109375-17.6220703125,1.396484375-5.7373046875,2.7197265625-11.6494140625,3.9697265625-17.7333984375,1.55859375-6.43115234375,1.9189453125-11.76025390625,1.08203125-15.98779296875-.8408203125-4.22705078125-2.31640625-7.400390625-4.427734375-9.5263671875-2.115234375-2.123046875-4.6259765625-3.26025390625-7.5400390625-3.41162109375-2.9140625-.14794921875-5.8037109375.68212890625-8.6669921875,2.49462890625-2.8671875,1.81494140625-5.4052734375,4.55322265625-7.615234375,8.21875-2.2138671875,3.6669921875-3.5732421875,8.201171875-4.0732421875,13.609375-1.3671875,12.45947265625-2.49609375,24.62646484375-3.388671875,36.49853515625-.3427734375,2.4306640625-1.4453125,4.4609375-3.3046875,6.087890625-1.8623046875,1.6298828125-4.09765625,2.4541015625-6.7080078125,2.4775390625-2.3564453125.05859375-4.740234375.080078125-7.1513671875.06640625-2.4111328125-.015625-4.6083984375-.3896484375-6.5908203125-1.125-1.9833984375-.73828125-3.6787109375-1.888671875-5.0869140625-3.45703125-1.412109375-1.568359375-2.1650390625-3.857421875-2.2587890625-6.8720703125,1.4423828125-20.4033203125,3.6943359375-40.98681640625,6.755859375-61.75146484375,3.0576171875-20.7626953125,6.8466796875-41.5869140625,11.3583984375-62.47119140625.32421875-1.38818359375.7373046875-2.69921875,1.2392578125-3.93359375.4970703125-1.232421875,1.1728515625-2.31103515625,2.0224609375-3.23681640625.8447265625-.92236328125,1.9169921875-1.587890625,3.21484375-1.9912109375,1.294921875-.40478515625,2.9033203125-.47119140625,4.822265625-.2001953125,1.6416015625.3623046875,3.638671875.7763671875,5.9873046875,1.23583984375,2.34765625.462890625,4.55078125,1.033203125,6.6064453125,1.71484375,2.0556640625.68115234375,3.7587890625,1.5419921875,5.11328125,2.57958984375,1.3515625,1.041015625,1.9228515625,2.32568359375,1.70703125,3.8603515625-2.8642578125,13.81396484375-5.4072265625,27.67333984375-7.6279296875,41.57470703125Z"/>
  <path class="cls-3" d="M78.759765625,87.728515625c5.509765625-2.08935546875,10.9560546875-3.24755859375,16.3359375-3.466796875,5.3779296875-.21923828125,10.4287109375.4931640625,15.1552734375,2.13818359375,4.72265625,1.64501953125,8.9609375,4.19921875,12.7119140625,7.6630859375,3.7470703125,3.46337890625,6.734375,7.73388671875,8.9541015625,12.80615234375,2.216796875,5.07568359375,3.529296875,11.03271484375,3.93359375,17.8701171875.4052734375,6.84033203125-.3720703125,14.42529296875-2.3291015625,22.7568359375l-6.8154296875,35.8193359375c-.4921875,1.6279296875-1.2099609375,3.02734375-2.15625,4.1962890625-.787109375.9345703125-1.916015625,1.7841796875-3.3935546875,2.5537109375s-3.3056640625,1.0009765625-5.4794921875.6943359375c-2.318359375-.19921875-4.6953125-.466796875-7.1240234375-.8095703125-2.4296875-.3427734375-4.591796875-.974609375-6.4833984375-1.892578125-1.8935546875-.91796875-3.4287109375-2.275390625-4.609375-4.07421875-1.1826171875-1.796875-1.68359375-4.2490234375-1.5048828125-7.353515625.84765625-6.009765625,1.96875-11.8828125,3.3662109375-17.6220703125,1.396484375-5.7373046875,2.7197265625-11.6494140625,3.9697265625-17.7333984375,1.55859375-6.43115234375,1.9189453125-11.76025390625,1.08203125-15.98779296875-.8408203125-4.22705078125-2.31640625-7.400390625-4.427734375-9.5263671875-2.115234375-2.123046875-4.6259765625-3.26025390625-7.5400390625-3.41162109375-2.9140625-.14794921875-5.8037109375.68212890625-8.6669921875,2.49462890625-2.8671875,1.81494140625-5.4052734375,4.55322265625-7.615234375,8.21875-2.2138671875,3.6669921875-3.5732421875,8.201171875-4.0732421875,13.609375-1.3671875,12.45947265625-2.49609375,24.62646484375-3.388671875,36.49853515625-.3427734375,2.4306640625-1.4453125,4.4609375-3.3046875,6.087890625-1.8623046875,1.6298828125-4.09765625,2.4541015625-6.7080078125,2.4775390625-2.3564453125.05859375-4.740234375.080078125-7.1513671875.06640625-2.4111328125-.015625-4.6083984375-.3896484375-6.5908203125-1.125-1.9833984375-.73828125-3.6787109375-1.888671875-5.0869140625-3.45703125-1.412109375-1.568359375-2.1650390625-3.857421875-2.2587890625-6.8720703125,1.4423828125-20.4033203125,3.6943359375-40.98681640625,6.755859375-61.75146484375,3.0576171875-20.7626953125,6.8466796875-41.5869140625,11.3583984375-62.47119140625.32421875-1.38818359375.7373046875-2.69921875,1.2392578125-3.93359375.4970703125-1.232421875,1.1728515625-2.31103515625,2.0224609375-3.23681640625.8447265625-.92236328125,1.9169921875-1.587890625,3.21484375-1.9912109375,1.294921875-.40478515625,2.9033203125-.47119140625,4.822265625-.2001953125,1.6416015625.3623046875,3.638671875.7763671875,5.9873046875,1.23583984375,2.34765625.462890625,4.55078125,1.033203125,6.6064453125,1.71484375,2.0556640625.68115234375,3.7587890625,1.5419921875,5.11328125,2.57958984375,1.3515625,1.041015625,1.9228515625,2.32568359375,1.70703125,3.8603515625-2.8642578125,13.81396484375-5.4072265625,27.67333984375-7.6279296875,41.57470703125Z"/>
</svg>