<?xml version="1.0" encoding="UTF-8"?>
<svg id="Content" xmlns="http://www.w3.org/2000/svg" viewBox="0 0 280 280">
  <defs>
    <style>
      .cls-1 {
        stroke: #665451;
        stroke-width: 50px;
      }

      .cls-1, .cls-2 {
        fill: none;
        stroke-linecap: round;
        stroke-linejoin: round;
      }

      .cls-3 {
        fill: #fff;
      }

      .cls-2 {
        stroke: #998675;
        stroke-width: 2px;
      }
    </style>
  </defs>
  <path class="cls-1" d="M88.6708984375,87.7353515625c5.509765625-2.08984375,10.955078125-3.24755859375,16.3369140625-3.46630859375,5.376953125-.22021484375,10.427734375.49267578125,15.154296875,2.13818359375,4.72265625,1.64453125,8.9599609375,4.19873046875,12.7109375,7.6630859375,3.748046875,3.46337890625,6.734375,7.7333984375,8.9541015625,12.8056640625,2.2177734375,5.076171875,3.5302734375,11.033203125,3.9345703125,17.8701171875.404296875,6.8408203125-.373046875,14.42578125-2.330078125,22.7578125l-6.814453125,35.8193359375c-.4931640625,1.626953125-1.2109375,3.02734375-2.1572265625,4.1953125-.7861328125.935546875-1.9150390625,1.78515625-3.3935546875,2.5537109375-1.4775390625.7705078125-3.3046875,1.0009765625-5.478515625.6943359375-2.3193359375-.19921875-4.6962890625-.466796875-7.1240234375-.80859375-2.4306640625-.34375-4.591796875-.9755859375-6.4833984375-1.8935546875-1.8935546875-.91796875-3.4296875-2.275390625-4.609375-4.07421875-1.1826171875-1.7958984375-1.6845703125-4.2490234375-1.5048828125-7.353515625.84765625-6.0087890625,1.9697265625-11.8818359375,3.3662109375-17.6220703125,1.3955078125-5.736328125,2.71875-11.6484375,3.96875-17.732421875,1.55859375-6.4326171875,1.919921875-11.76171875,1.08203125-15.98828125-.8408203125-4.2275390625-2.3154296875-7.40087890625-4.4267578125-9.5263671875-2.115234375-2.1240234375-4.626953125-3.2607421875-7.541015625-3.41162109375-2.912109375-.14892578125-5.8037109375.68212890625-8.666015625,2.494140625-2.8671875,1.81494140625-5.40625,4.5537109375-7.6162109375,8.21875-2.2138671875,3.66748046875-3.572265625,8.20166015625-4.0712890625,13.60986328125-1.3681640625,12.458984375-2.4970703125,24.6259765625-3.390625,36.498046875-.3427734375,2.431640625-1.4453125,4.4609375-3.3046875,6.087890625-1.861328125,1.6298828125-4.0966796875,2.455078125-6.70703125,2.4775390625-2.35546875.0595703125-4.740234375.080078125-7.150390625.0673828125-2.412109375-.015625-4.6103515625-.390625-6.591796875-1.125-1.9833984375-.7392578125-3.6796875-1.8896484375-5.087890625-3.4580078125-1.4111328125-1.568359375-2.1640625-3.8564453125-2.2587890625-6.8720703125,1.443359375-20.4033203125,3.6953125-40.986328125,6.7568359375-61.751953125,3.05859375-20.76171875,6.845703125-41.5859375,11.3583984375-62.470703125.3232421875-1.388671875.7373046875-2.69921875,1.2392578125-3.93359375.498046875-1.23193359375,1.171875-2.310546875,2.021484375-3.236328125.845703125-.92333984375,1.9169921875-1.58837890625,3.216796875-1.9921875,1.294921875-.40380859375,2.90234375-.47021484375,4.8203125-.19970703125,1.6435546875.36279296875,3.638671875.7763671875,5.9892578125,1.23583984375,2.345703125.46240234375,4.548828125,1.033203125,6.60546875,1.71435546875,2.0556640625.68212890625,3.7587890625,1.54248046875,5.11328125,2.580078125,1.3515625,1.04150390625,1.9228515625,2.326171875,1.7060546875,3.8603515625-2.86328125,13.814453125-5.4052734375,27.67333984375-7.626953125,41.57470703125Z"/>
  <path class="cls-2" d="M88.6708984375,87.7353515625c5.509765625-2.08984375,10.955078125-3.24755859375,16.3369140625-3.46630859375,5.376953125-.22021484375,10.427734375.49267578125,15.154296875,2.13818359375,4.72265625,1.64453125,8.9599609375,4.19873046875,12.7109375,7.6630859375,3.748046875,3.46337890625,6.734375,7.7333984375,8.9541015625,12.8056640625,2.2177734375,5.076171875,3.5302734375,11.033203125,3.9345703125,17.8701171875.404296875,6.8408203125-.373046875,14.42578125-2.330078125,22.7578125l-6.814453125,35.8193359375c-.4931640625,1.626953125-1.2109375,3.02734375-2.1572265625,4.1953125-.7861328125.935546875-1.9150390625,1.78515625-3.3935546875,2.5537109375-1.4775390625.7705078125-3.3046875,1.0009765625-5.478515625.6943359375-2.3193359375-.19921875-4.6962890625-.466796875-7.1240234375-.80859375-2.4306640625-.34375-4.591796875-.9755859375-6.4833984375-1.8935546875-1.8935546875-.91796875-3.4296875-2.275390625-4.609375-4.07421875-1.1826171875-1.7958984375-1.6845703125-4.2490234375-1.5048828125-7.353515625.84765625-6.0087890625,1.9697265625-11.8818359375,3.3662109375-17.6220703125,1.3955078125-5.736328125,2.71875-11.6484375,3.96875-17.732421875,1.55859375-6.4326171875,1.919921875-11.76171875,1.08203125-15.98828125-.8408203125-4.2275390625-2.3154296875-7.40087890625-4.4267578125-9.5263671875-2.115234375-2.1240234375-4.626953125-3.2607421875-7.541015625-3.41162109375-2.912109375-.14892578125-5.8037109375.68212890625-8.666015625,2.494140625-2.8671875,1.81494140625-5.40625,4.5537109375-7.6162109375,8.21875-2.2138671875,3.66748046875-3.572265625,8.20166015625-4.0712890625,13.60986328125-1.3681640625,12.458984375-2.4970703125,24.6259765625-3.390625,36.498046875-.3427734375,2.431640625-1.4453125,4.4609375-3.3046875,6.087890625-1.861328125,1.6298828125-4.0966796875,2.455078125-6.70703125,2.4775390625-2.35546875.0595703125-4.740234375.080078125-7.150390625.0673828125-2.412109375-.015625-4.6103515625-.390625-6.591796875-1.125-1.9833984375-.7392578125-3.6796875-1.8896484375-5.087890625-3.4580078125-1.4111328125-1.568359375-2.1640625-3.8564453125-2.2587890625-6.8720703125,1.443359375-20.4033203125,3.6953125-40.986328125,6.7568359375-61.751953125,3.05859375-20.76171875,6.845703125-41.5859375,11.3583984375-62.470703125.3232421875-1.388671875.7373046875-2.69921875,1.2392578125-3.93359375.498046875-1.23193359375,1.171875-2.310546875,2.021484375-3.236328125.845703125-.92333984375,1.9169921875-1.58837890625,3.216796875-1.9921875,1.294921875-.40380859375,2.90234375-.47021484375,4.8203125-.19970703125,1.6435546875.36279296875,3.638671875.7763671875,5.9892578125,1.23583984375,2.345703125.46240234375,4.548828125,1.033203125,6.60546875,1.71435546875,2.0556640625.68212890625,3.7587890625,1.54248046875,5.11328125,2.580078125,1.3515625,1.04150390625,1.9228515625,2.326171875,1.7060546875,3.8603515625-2.86328125,13.814453125-5.4052734375,27.67333984375-7.626953125,41.57470703125Z"/>
  <path class="cls-3" d="M88.6708984375,87.7353515625c5.509765625-2.08984375,10.955078125-3.24755859375,16.3369140625-3.46630859375,5.376953125-.22021484375,10.427734375.49267578125,15.154296875,2.13818359375,4.72265625,1.64453125,8.9599609375,4.19873046875,12.7109375,7.6630859375,3.748046875,3.46337890625,6.734375,7.7333984375,8.9541015625,12.8056640625,2.2177734375,5.076171875,3.5302734375,11.033203125,3.9345703125,17.8701171875.404296875,6.8408203125-.373046875,14.42578125-2.330078125,22.7578125l-6.814453125,35.8193359375c-.4931640625,1.626953125-1.2109375,3.02734375-2.1572265625,4.1953125-.7861328125.935546875-1.9150390625,1.78515625-3.3935546875,2.5537109375-1.4775390625.7705078125-3.3046875,1.0009765625-5.478515625.6943359375-2.3193359375-.19921875-4.6962890625-.466796875-7.1240234375-.80859375-2.4306640625-.34375-4.591796875-.9755859375-6.4833984375-1.8935546875-1.8935546875-.91796875-3.4296875-2.275390625-4.609375-4.07421875-1.1826171875-1.7958984375-1.6845703125-4.2490234375-1.5048828125-7.353515625.84765625-6.0087890625,1.9697265625-11.8818359375,3.3662109375-17.6220703125,1.3955078125-5.736328125,2.71875-11.6484375,3.96875-17.732421875,1.55859375-6.4326171875,1.919921875-11.76171875,1.08203125-15.98828125-.8408203125-4.2275390625-2.3154296875-7.40087890625-4.4267578125-9.5263671875-2.115234375-2.1240234375-4.626953125-3.2607421875-7.541015625-3.41162109375-2.912109375-.14892578125-5.8037109375.68212890625-8.666015625,2.494140625-2.8671875,1.81494140625-5.40625,4.5537109375-7.6162109375,8.21875-2.2138671875,3.66748046875-3.572265625,8.20166015625-4.0712890625,13.60986328125-1.3681640625,12.458984375-2.4970703125,24.6259765625-3.390625,36.498046875-.3427734375,2.431640625-1.4453125,4.4609375-3.3046875,6.087890625-1.861328125,1.6298828125-4.0966796875,2.455078125-6.70703125,2.4775390625-2.35546875.0595703125-4.740234375.080078125-7.150390625.0673828125-2.412109375-.015625-4.6103515625-.390625-6.591796875-1.125-1.9833984375-.7392578125-3.6796875-1.8896484375-5.087890625-3.4580078125-1.4111328125-1.568359375-2.1640625-3.8564453125-2.2587890625-6.8720703125,1.443359375-20.4033203125,3.6953125-40.986328125,6.7568359375-61.751953125,3.05859375-20.76171875,6.845703125-41.5859375,11.3583984375-62.470703125.3232421875-1.388671875.7373046875-2.69921875,1.2392578125-3.93359375.498046875-1.23193359375,1.171875-2.310546875,2.021484375-3.236328125.845703125-.92333984375,1.9169921875-1.58837890625,3.216796875-1.9921875,1.294921875-.40380859375,2.90234375-.47021484375,4.8203125-.19970703125,1.6435546875.36279296875,3.638671875.7763671875,5.9892578125,1.23583984375,2.345703125.46240234375,4.548828125,1.033203125,6.60546875,1.71435546875,2.0556640625.68212890625,3.7587890625,1.54248046875,5.11328125,2.580078125,1.3515625,1.04150390625,1.9228515625,2.326171875,1.7060546875,3.8603515625-2.86328125,13.814453125-5.4052734375,27.67333984375-7.626953125,41.57470703125Z"/>
</svg>