<?xml version="1.0" encoding="UTF-8"?>
<svg id="Layer_1" xmlns="http://www.w3.org/2000/svg" viewBox="0 0 280 280">
  <defs>
    <style>
      .cls-1 {
        stroke: #665451;
        stroke-width: 50px;
      }

      .cls-1, .cls-2 {
        fill: none;
        stroke-linecap: round;
        stroke-linejoin: round;
      }

      .cls-3 {
        fill: #fff;
      }

      .cls-2 {
        stroke: #998675;
        stroke-width: 2px;
      }
    </style>
  </defs>
  <g>
    <path d="M81.1142578125,81.59716796875c5.1669921875-1.9248046875,10.2666015625-2.9775390625,15.302734375-3.15234375,5.0322265625-.1748046875,9.7529296875.51953125,14.1650390625,2.0849609375,4.4091796875,1.564453125,8.3583984375,3.978515625,11.8486328125,7.2392578125,3.48828125,3.26171875,6.2578125,7.2724609375,8.3056640625,12.0302734375,2.046875,4.7607421875,3.2412109375,10.3408203125,3.5810546875,16.7392578125.3408203125,6.4013671875-.427734375,13.4931640625-2.306640625,21.2763671875l-6.57421875,33.47216796875c-.470703125,1.51953125-1.1494140625,2.826171875-2.0419921875,3.9140625-.740234375.869140625-1.80078125,1.658203125-3.1875,2.369140625-1.3876953125.7109375-3.09765625.91796875-5.12890625.619140625-2.1689453125-.19921875-4.3916015625-.462890625-6.6611328125-.796875-2.2724609375-.333984375-4.2900390625-.9375-6.0537109375-1.806640625-1.7666015625-.869140625-3.197265625-2.1484375-4.2900390625-3.837890625-1.0966796875-1.685546875-1.5517578125-3.982421875-1.3671875-6.88671875.8271484375-5.6171875,1.9091796875-11.10546875,3.2470703125-16.466796875,1.3388671875-5.359375,2.6083984375-10.88330078125,3.8125-16.56787109375,1.4931640625-6.0087890625,1.8603515625-10.9921875,1.1005859375-14.951171875-.7626953125-3.958984375-2.125-6.935546875-4.0888671875-8.9365234375-1.9658203125-1.998046875-4.3095703125-3.076171875-7.03515625-3.2333984375-2.7236328125-.1552734375-5.4326171875.60546875-8.12109375,2.28515625-2.6923828125,1.681640625-5.0830078125,4.2294921875-7.169921875,7.646484375-2.0927734375,3.4189453125-3.3876953125,7.6533203125-3.88671875,12.708984375-1.3486328125,11.6484375-2.47265625,23.02490234375-3.373046875,34.12646484375-.333984375,2.271484375-1.376953125,4.166015625-3.125,5.677734375-1.751953125,1.513671875-3.8466796875,2.271484375-6.2890625,2.279296875-2.205078125.04296875-4.4365234375.048828125-6.6904296875.0234375-2.2578125-.029296875-4.310546875-.390625-6.16015625-1.08984375-1.8505859375-.701171875-3.4306640625-1.7890625-4.740234375-3.263671875-1.310546875-1.474609375-2.0029296875-3.619140625-2.07421875-6.44140625,1.4619140625-19.07958984375,3.6845703125-38.32177734375,6.6640625-57.73095703125,2.9755859375-19.40625,6.6357421875-38.8671875,10.9736328125-58.37890625.3115234375-1.296875.705078125-2.521484375,1.1806640625-3.673828125.4736328125-1.1494140625,1.111328125-2.154296875,1.9091796875-3.015625.796875-.859375,1.8037109375-1.474609375,3.0205078125-1.8466796875,1.212890625-.3701171875,2.71875-.423828125,4.51171875-.16015625,1.5341796875.349609375,3.3984375.7470703125,5.595703125,1.1904296875,2.1923828125.4462890625,4.25.9921875,6.169921875,1.640625,1.919921875.6494140625,3.5078125,1.4638671875,4.76953125,2.4423828125,1.2578125.9814453125,1.7841796875,2.1865234375,1.5732421875,3.62109375-2.7548828125,12.90625-5.2099609375,25.8583984375-7.3662109375,38.8505859375Z"/>
    <path d="M199.0166015625,45.9580078125c4.857421875,1.27490234375,9.3681640625,3.318359375,13.5341796875,6.12548828125,4.1630859375,2.80908203125,7.26171875,6.51318359375,9.296875,11.1083984375,1.111328125,2.5947265625,1.8359375,5.29443359375,2.171875,8.09814453125.3330078125,2.806640625.255859375,5.5517578125-.2314453125,8.2353515625-.4892578125,2.6845703125-1.42578125,5.2333984375-2.806640625,7.6455078125-1.384765625,2.41259765625-3.1962890625,4.57421875-5.439453125,6.486328125-2.4677734375,2.15966796875-5.0234375,3.97998046875-7.6708984375,5.45849609375-2.6484375,1.48095703125-5.349609375,2.85693359375-8.10546875,4.1328125-2.7587890625,1.27587890625-5.5595703125,2.544921875-8.41015625,3.8076171875-2.8486328125,1.26318359375-5.66796875,2.8095703125-8.4609375,4.6416015625-1.9658203125,1.30029296875-3.419921875,2.60400390625-4.3603515625,3.91259765625-.94140625,1.3115234375-1.517578125,2.6982421875-1.732421875,4.15966796875-.3212890625,1.54296875-1.001953125,2.35302734375-2.0390625,2.43310546875-1.0419921875.0810546875-2.201171875.0263671875-3.4814453125-.16162109375-2.103515625-.31005859375-3.9775390625-.91162109375-5.619140625-1.80859375-1.64453125-.89404296875-2.9501953125-2.02197265625-3.9169921875-3.37939453125-.970703125-1.35546875-1.5546875-2.9375-1.7548828125-4.7431640625-.203125-1.80322265625.0927734375-3.81640625.888671875-6.0361328125,1.7431640625-4.22802734375,4.1611328125-7.49169921875,7.2568359375-9.79296875,3.09375-2.2998046875,6.5595703125-4.4306640625,10.400390625-6.3876953125,1.4931640625-.62109375,3.3720703125-1.4873046875,5.6376953125-2.6044921875,2.267578125-1.11376953125,4.572265625-2.34033203125,6.919921875-3.6767578125,2.34375-1.3359375,4.5400390625-2.7646484375,6.5859375-4.28564453125,2.046875-1.52099609375,3.5615234375-3.09619140625,4.5498046875-4.7265625,1.3291015625-2.046875,1.9052734375-3.8994140625,1.7294921875-5.56201171875-.1767578125-1.6591796875-.8271484375-3.1103515625-1.9521484375-4.35107421875-1.126953125-1.23876953125-2.615234375-2.22900390625-4.46875-2.9697265625-1.853515625-.7392578125-3.8623046875-1.22119140625-6.0234375-1.447265625-2.1630859375-.22412109375-4.3203125-.16748046875-6.470703125.1689453125-2.1533203125.33740234375-4.087890625.939453125-5.8037109375,1.80859375-1.7158203125.86865234375-3.3095703125,1.849609375-4.7763671875,2.9404296875-1.4716796875,1.09375-2.654296875,2.32080078125-3.5556640625,3.681640625-.9013671875,1.36279296875-1.4619140625,2.93798828125-1.677734375,4.72802734375-.2158203125,1.79052734375.1220703125,3.7802734375,1.0146484375,5.96630859375.6708984375,1.77978515625.421875,3.47314453125-.74609375,5.0751953125-1.1708984375,1.603515625-2.7314453125,2.84521484375-4.6826171875,3.72509765625-1.9521484375.8828125-4.0390625,1.251953125-6.259765625,1.111328125-2.2216796875-.138671875-4.0478515625-1.06201171875-5.4794921875-2.7685546875-1.8359375-2.1376953125-3.0009765625-4.52783203125-3.5-7.171875-.4990234375-2.642578125-.50390625-5.3056640625-.0146484375-7.99072265625.4873046875-2.68310546875,1.3681640625-5.33447265625,2.640625-7.9501953125,1.2734375-2.61572265625,2.763671875-4.96533203125,4.4716796875-7.0498046875,2.40625-3.01025390625,5.330078125-5.42822265625,8.7763671875-7.2578125,3.4453125-1.8271484375,7.1220703125-3.15625,11.02734375-3.9833984375,3.9052734375-.82666015625,7.8095703125-1.1630859375,11.7109375-1.00927734375s7.509765625.708984375,10.8271484375,1.6640625ZM176.2548828125,137.7685546875c-.390625,2.6533203125-1.84765625,4.7734375-4.369140625,6.365234375-2.5263671875,1.58984375-5.294921875,2.1640625-8.3115234375,1.7197265625-3.203125-.4716796875-5.736328125-1.8251953125-7.6015625-4.0615234375-1.8671875-2.2373046875-2.6044921875-4.6806640625-2.21484375-7.333984375.4169921875-2.833984375,1.841796875-5.0546875,4.2734375-6.65869140625,2.431640625-1.6044921875,5.24609375-2.1708984375,8.44921875-1.69970703125,3.0166015625.4443359375,5.50390625,1.791015625,7.4638671875,4.04150390625,1.95703125,2.25,2.7275390625,4.79345703125,2.310546875,7.62744140625Z"/>
  </g>
  <g>
    <path class="cls-1" d="M81.1142578125,81.59716796875c5.1669921875-1.9248046875,10.2666015625-2.9775390625,15.302734375-3.15234375,5.0322265625-.1748046875,9.7529296875.51953125,14.1650390625,2.0849609375,4.4091796875,1.564453125,8.3583984375,3.978515625,11.8486328125,7.2392578125,3.48828125,3.26171875,6.2578125,7.2724609375,8.3056640625,12.0302734375,2.046875,4.7607421875,3.2412109375,10.3408203125,3.5810546875,16.7392578125.3408203125,6.4013671875-.427734375,13.4931640625-2.306640625,21.2763671875l-6.57421875,33.47216796875c-.470703125,1.51953125-1.1494140625,2.826171875-2.0419921875,3.9140625-.740234375.869140625-1.80078125,1.658203125-3.1875,2.369140625-1.3876953125.7109375-3.09765625.91796875-5.12890625.619140625-2.1689453125-.19921875-4.3916015625-.462890625-6.6611328125-.796875-2.2724609375-.333984375-4.2900390625-.9375-6.0537109375-1.806640625-1.7666015625-.869140625-3.197265625-2.1484375-4.2900390625-3.837890625-1.0966796875-1.685546875-1.5517578125-3.982421875-1.3671875-6.88671875.8271484375-5.6171875,1.9091796875-11.10546875,3.2470703125-16.466796875,1.3388671875-5.359375,2.6083984375-10.88330078125,3.8125-16.56787109375,1.4931640625-6.0087890625,1.8603515625-10.9921875,1.1005859375-14.951171875-.7626953125-3.958984375-2.125-6.935546875-4.0888671875-8.9365234375-1.9658203125-1.998046875-4.3095703125-3.076171875-7.03515625-3.2333984375-2.7236328125-.1552734375-5.4326171875.60546875-8.12109375,2.28515625-2.6923828125,1.681640625-5.0830078125,4.2294921875-7.169921875,7.646484375-2.0927734375,3.4189453125-3.3876953125,7.6533203125-3.88671875,12.708984375-1.3486328125,11.6484375-2.47265625,23.02490234375-3.373046875,34.12646484375-.333984375,2.271484375-1.376953125,4.166015625-3.125,5.677734375-1.751953125,1.513671875-3.8466796875,2.271484375-6.2890625,2.279296875-2.205078125.04296875-4.4365234375.048828125-6.6904296875.0234375-2.2578125-.029296875-4.310546875-.390625-6.16015625-1.08984375-1.8505859375-.701171875-3.4306640625-1.7890625-4.740234375-3.263671875-1.310546875-1.474609375-2.0029296875-3.619140625-2.07421875-6.44140625,1.4619140625-19.07958984375,3.6845703125-38.32177734375,6.6640625-57.73095703125,2.9755859375-19.40625,6.6357421875-38.8671875,10.9736328125-58.37890625.3115234375-1.296875.705078125-2.521484375,1.1806640625-3.673828125.4736328125-1.1494140625,1.111328125-2.154296875,1.9091796875-3.015625.796875-.859375,1.8037109375-1.474609375,3.0205078125-1.8466796875,1.212890625-.3701171875,2.71875-.423828125,4.51171875-.16015625,1.5341796875.349609375,3.3984375.7470703125,5.595703125,1.1904296875,2.1923828125.4462890625,4.25.9921875,6.169921875,1.640625,1.919921875.6494140625,3.5078125,1.4638671875,4.76953125,2.4423828125,1.2578125.9814453125,1.7841796875,2.1865234375,1.5732421875,3.62109375-2.7548828125,12.90625-5.2099609375,25.8583984375-7.3662109375,38.8505859375Z"/>
    <path class="cls-1" d="M199.0166015625,45.9580078125c4.857421875,1.27490234375,9.3681640625,3.318359375,13.5341796875,6.12548828125,4.1630859375,2.80908203125,7.26171875,6.51318359375,9.296875,11.1083984375,1.111328125,2.5947265625,1.8359375,5.29443359375,2.171875,8.09814453125.3330078125,2.806640625.255859375,5.5517578125-.2314453125,8.2353515625-.4892578125,2.6845703125-1.42578125,5.2333984375-2.806640625,7.6455078125-1.384765625,2.41259765625-3.1962890625,4.57421875-5.439453125,6.486328125-2.4677734375,2.15966796875-5.0234375,3.97998046875-7.6708984375,5.45849609375-2.6484375,1.48095703125-5.349609375,2.85693359375-8.10546875,4.1328125-2.7587890625,1.27587890625-5.5595703125,2.544921875-8.41015625,3.8076171875-2.8486328125,1.26318359375-5.66796875,2.8095703125-8.4609375,4.6416015625-1.9658203125,1.30029296875-3.419921875,2.60400390625-4.3603515625,3.91259765625-.94140625,1.3115234375-1.517578125,2.6982421875-1.732421875,4.15966796875-.3212890625,1.54296875-1.001953125,2.35302734375-2.0390625,2.43310546875-1.0419921875.0810546875-2.201171875.0263671875-3.4814453125-.16162109375-2.103515625-.31005859375-3.9775390625-.91162109375-5.619140625-1.80859375-1.64453125-.89404296875-2.9501953125-2.02197265625-3.9169921875-3.37939453125-.970703125-1.35546875-1.5546875-2.9375-1.7548828125-4.7431640625-.203125-1.80322265625.0927734375-3.81640625.888671875-6.0361328125,1.7431640625-4.22802734375,4.1611328125-7.49169921875,7.2568359375-9.79296875,3.09375-2.2998046875,6.5595703125-4.4306640625,10.400390625-6.3876953125,1.4931640625-.62109375,3.3720703125-1.4873046875,5.6376953125-2.6044921875,2.267578125-1.11376953125,4.572265625-2.34033203125,6.919921875-3.6767578125,2.34375-1.3359375,4.5400390625-2.7646484375,6.5859375-4.28564453125,2.046875-1.52099609375,3.5615234375-3.09619140625,4.5498046875-4.7265625,1.3291015625-2.046875,1.9052734375-3.8994140625,1.7294921875-5.56201171875-.1767578125-1.6591796875-.8271484375-3.1103515625-1.9521484375-4.35107421875-1.126953125-1.23876953125-2.615234375-2.22900390625-4.46875-2.9697265625-1.853515625-.7392578125-3.8623046875-1.22119140625-6.0234375-1.447265625-2.1630859375-.22412109375-4.3203125-.16748046875-6.470703125.1689453125-2.1533203125.33740234375-4.087890625.939453125-5.8037109375,1.80859375-1.7158203125.86865234375-3.3095703125,1.849609375-4.7763671875,2.9404296875-1.4716796875,1.09375-2.654296875,2.32080078125-3.5556640625,3.681640625-.9013671875,1.36279296875-1.4619140625,2.93798828125-1.677734375,4.72802734375-.2158203125,1.79052734375.1220703125,3.7802734375,1.0146484375,5.96630859375.6708984375,1.77978515625.421875,3.47314453125-.74609375,5.0751953125-1.1708984375,1.603515625-2.7314453125,2.84521484375-4.6826171875,3.72509765625-1.9521484375.8828125-4.0390625,1.251953125-6.259765625,1.111328125-2.2216796875-.138671875-4.0478515625-1.06201171875-5.4794921875-2.7685546875-1.8359375-2.1376953125-3.0009765625-4.52783203125-3.5-7.171875-.4990234375-2.642578125-.50390625-5.3056640625-.0146484375-7.99072265625.4873046875-2.68310546875,1.3681640625-5.33447265625,2.640625-7.9501953125,1.2734375-2.61572265625,2.763671875-4.96533203125,4.4716796875-7.0498046875,2.40625-3.01025390625,5.330078125-5.42822265625,8.7763671875-7.2578125,3.4453125-1.8271484375,7.1220703125-3.15625,11.02734375-3.9833984375,3.9052734375-.82666015625,7.8095703125-1.1630859375,11.7109375-1.00927734375s7.509765625.708984375,10.8271484375,1.6640625ZM176.2548828125,137.7685546875c-.390625,2.6533203125-1.84765625,4.7734375-4.369140625,6.365234375-2.5263671875,1.58984375-5.294921875,2.1640625-8.3115234375,1.7197265625-3.203125-.4716796875-5.736328125-1.8251953125-7.6015625-4.0615234375-1.8671875-2.2373046875-2.6044921875-4.6806640625-2.21484375-7.333984375.4169921875-2.833984375,1.841796875-5.0546875,4.2734375-6.65869140625,2.431640625-1.6044921875,5.24609375-2.1708984375,8.44921875-1.69970703125,3.0166015625.4443359375,5.50390625,1.791015625,7.4638671875,4.04150390625,1.95703125,2.25,2.7275390625,4.79345703125,2.310546875,7.62744140625Z"/>
  </g>
  <g>
    <path class="cls-2" d="M81.1142578125,81.59716796875c5.1669921875-1.9248046875,10.2666015625-2.9775390625,15.302734375-3.15234375,5.0322265625-.1748046875,9.7529296875.51953125,14.1650390625,2.0849609375,4.4091796875,1.564453125,8.3583984375,3.978515625,11.8486328125,7.2392578125,3.48828125,3.26171875,6.2578125,7.2724609375,8.3056640625,12.0302734375,2.046875,4.7607421875,3.2412109375,10.3408203125,3.5810546875,16.7392578125.3408203125,6.4013671875-.427734375,13.4931640625-2.306640625,21.2763671875l-6.57421875,33.47216796875c-.470703125,1.51953125-1.1494140625,2.826171875-2.0419921875,3.9140625-.740234375.869140625-1.80078125,1.658203125-3.1875,2.369140625-1.3876953125.7109375-3.09765625.91796875-5.12890625.619140625-2.1689453125-.19921875-4.3916015625-.462890625-6.6611328125-.796875-2.2724609375-.333984375-4.2900390625-.9375-6.0537109375-1.806640625-1.7666015625-.869140625-3.197265625-2.1484375-4.2900390625-3.837890625-1.0966796875-1.685546875-1.5517578125-3.982421875-1.3671875-6.88671875.8271484375-5.6171875,1.9091796875-11.10546875,3.2470703125-16.466796875,1.3388671875-5.359375,2.6083984375-10.88330078125,3.8125-16.56787109375,1.4931640625-6.0087890625,1.8603515625-10.9921875,1.1005859375-14.951171875-.7626953125-3.958984375-2.125-6.935546875-4.0888671875-8.9365234375-1.9658203125-1.998046875-4.3095703125-3.076171875-7.03515625-3.2333984375-2.7236328125-.1552734375-5.4326171875.60546875-8.12109375,2.28515625-2.6923828125,1.681640625-5.0830078125,4.2294921875-7.169921875,7.646484375-2.0927734375,3.4189453125-3.3876953125,7.6533203125-3.88671875,12.708984375-1.3486328125,11.6484375-2.47265625,23.02490234375-3.373046875,34.12646484375-.333984375,2.271484375-1.376953125,4.166015625-3.125,5.677734375-1.751953125,1.513671875-3.8466796875,2.271484375-6.2890625,2.279296875-2.205078125.04296875-4.4365234375.048828125-6.6904296875.0234375-2.2578125-.029296875-4.310546875-.390625-6.16015625-1.08984375-1.8505859375-.701171875-3.4306640625-1.7890625-4.740234375-3.263671875-1.310546875-1.474609375-2.0029296875-3.619140625-2.07421875-6.44140625,1.4619140625-19.07958984375,3.6845703125-38.32177734375,6.6640625-57.73095703125,2.9755859375-19.40625,6.6357421875-38.8671875,10.9736328125-58.37890625.3115234375-1.296875.705078125-2.521484375,1.1806640625-3.673828125.4736328125-1.1494140625,1.111328125-2.154296875,1.9091796875-3.015625.796875-.859375,1.8037109375-1.474609375,3.0205078125-1.8466796875,1.212890625-.3701171875,2.71875-.423828125,4.51171875-.16015625,1.5341796875.349609375,3.3984375.7470703125,5.595703125,1.1904296875,2.1923828125.4462890625,4.25.9921875,6.169921875,1.640625,1.919921875.6494140625,3.5078125,1.4638671875,4.76953125,2.4423828125,1.2578125.9814453125,1.7841796875,2.1865234375,1.5732421875,3.62109375-2.7548828125,12.90625-5.2099609375,25.8583984375-7.3662109375,38.8505859375Z"/>
    <path class="cls-2" d="M199.0166015625,45.9580078125c4.857421875,1.27490234375,9.3681640625,3.318359375,13.5341796875,6.12548828125,4.1630859375,2.80908203125,7.26171875,6.51318359375,9.296875,11.1083984375,1.111328125,2.5947265625,1.8359375,5.29443359375,2.171875,8.09814453125.3330078125,2.806640625.255859375,5.5517578125-.2314453125,8.2353515625-.4892578125,2.6845703125-1.42578125,5.2333984375-2.806640625,7.6455078125-1.384765625,2.41259765625-3.1962890625,4.57421875-5.439453125,6.486328125-2.4677734375,2.15966796875-5.0234375,3.97998046875-7.6708984375,5.45849609375-2.6484375,1.48095703125-5.349609375,2.85693359375-8.10546875,4.1328125-2.7587890625,1.27587890625-5.5595703125,2.544921875-8.41015625,3.8076171875-2.8486328125,1.26318359375-5.66796875,2.8095703125-8.4609375,4.6416015625-1.9658203125,1.30029296875-3.419921875,2.60400390625-4.3603515625,3.91259765625-.94140625,1.3115234375-1.517578125,2.6982421875-1.732421875,4.15966796875-.3212890625,1.54296875-1.001953125,2.35302734375-2.0390625,2.43310546875-1.0419921875.0810546875-2.201171875.0263671875-3.4814453125-.16162109375-2.103515625-.31005859375-3.9775390625-.91162109375-5.619140625-1.80859375-1.64453125-.89404296875-2.9501953125-2.02197265625-3.9169921875-3.37939453125-.970703125-1.35546875-1.5546875-2.9375-1.7548828125-4.7431640625-.203125-1.80322265625.0927734375-3.81640625.888671875-6.0361328125,1.7431640625-4.22802734375,4.1611328125-7.49169921875,7.2568359375-9.79296875,3.09375-2.2998046875,6.5595703125-4.4306640625,10.400390625-6.3876953125,1.4931640625-.62109375,3.3720703125-1.4873046875,5.6376953125-2.6044921875,2.267578125-1.11376953125,4.572265625-2.34033203125,6.919921875-3.6767578125,2.34375-1.3359375,4.5400390625-2.7646484375,6.5859375-4.28564453125,2.046875-1.52099609375,3.5615234375-3.09619140625,4.5498046875-4.7265625,1.3291015625-2.046875,1.9052734375-3.8994140625,1.7294921875-5.56201171875-.1767578125-1.6591796875-.8271484375-3.1103515625-1.9521484375-4.35107421875-1.126953125-1.23876953125-2.615234375-2.22900390625-4.46875-2.9697265625-1.853515625-.7392578125-3.8623046875-1.22119140625-6.0234375-1.447265625-2.1630859375-.22412109375-4.3203125-.16748046875-6.470703125.1689453125-2.1533203125.33740234375-4.087890625.939453125-5.8037109375,1.80859375-1.7158203125.86865234375-3.3095703125,1.849609375-4.7763671875,2.9404296875-1.4716796875,1.09375-2.654296875,2.32080078125-3.5556640625,3.681640625-.9013671875,1.36279296875-1.4619140625,2.93798828125-1.677734375,4.72802734375-.2158203125,1.79052734375.1220703125,3.7802734375,1.0146484375,5.96630859375.6708984375,1.77978515625.421875,3.47314453125-.74609375,5.0751953125-1.1708984375,1.603515625-2.7314453125,2.84521484375-4.6826171875,3.72509765625-1.9521484375.8828125-4.0390625,1.251953125-6.259765625,1.111328125-2.2216796875-.138671875-4.0478515625-1.06201171875-5.4794921875-2.7685546875-1.8359375-2.1376953125-3.0009765625-4.52783203125-3.5-7.171875-.4990234375-2.642578125-.50390625-5.3056640625-.0146484375-7.99072265625.4873046875-2.68310546875,1.3681640625-5.33447265625,2.640625-7.9501953125,1.2734375-2.61572265625,2.763671875-4.96533203125,4.4716796875-7.0498046875,2.40625-3.01025390625,5.330078125-5.42822265625,8.7763671875-7.2578125,3.4453125-1.8271484375,7.1220703125-3.15625,11.02734375-3.9833984375,3.9052734375-.82666015625,7.8095703125-1.1630859375,11.7109375-1.00927734375s7.509765625.708984375,10.8271484375,1.6640625ZM176.2548828125,137.7685546875c-.390625,2.6533203125-1.84765625,4.7734375-4.369140625,6.365234375-2.5263671875,1.58984375-5.294921875,2.1640625-8.3115234375,1.7197265625-3.203125-.4716796875-5.736328125-1.8251953125-7.6015625-4.0615234375-1.8671875-2.2373046875-2.6044921875-4.6806640625-2.21484375-7.333984375.4169921875-2.833984375,1.841796875-5.0546875,4.2734375-6.65869140625,2.431640625-1.6044921875,5.24609375-2.1708984375,8.44921875-1.69970703125,3.0166015625.4443359375,5.50390625,1.791015625,7.4638671875,4.04150390625,1.95703125,2.25,2.7275390625,4.79345703125,2.310546875,7.62744140625Z"/>
  </g>
  <g>
    <path class="cls-3" d="M81.1142578125,81.59716796875c5.1669921875-1.9248046875,10.2666015625-2.9775390625,15.302734375-3.15234375,5.0322265625-.1748046875,9.7529296875.51953125,14.1650390625,2.0849609375,4.4091796875,1.564453125,8.3583984375,3.978515625,11.8486328125,7.2392578125,3.48828125,3.26171875,6.2578125,7.2724609375,8.3056640625,12.0302734375,2.046875,4.7607421875,3.2412109375,10.3408203125,3.5810546875,16.7392578125.3408203125,6.4013671875-.427734375,13.4931640625-2.306640625,21.2763671875l-6.57421875,33.47216796875c-.470703125,1.51953125-1.1494140625,2.826171875-2.0419921875,3.9140625-.740234375.869140625-1.80078125,1.658203125-3.1875,2.369140625-1.3876953125.7109375-3.09765625.91796875-5.12890625.619140625-2.1689453125-.19921875-4.3916015625-.462890625-6.6611328125-.796875-2.2724609375-.333984375-4.2900390625-.9375-6.0537109375-1.806640625-1.7666015625-.869140625-3.197265625-2.1484375-4.2900390625-3.837890625-1.0966796875-1.685546875-1.5517578125-3.982421875-1.3671875-6.88671875.8271484375-5.6171875,1.9091796875-11.10546875,3.2470703125-16.466796875,1.3388671875-5.359375,2.6083984375-10.88330078125,3.8125-16.56787109375,1.4931640625-6.0087890625,1.8603515625-10.9921875,1.1005859375-14.951171875-.7626953125-3.958984375-2.125-6.935546875-4.0888671875-8.9365234375-1.9658203125-1.998046875-4.3095703125-3.076171875-7.03515625-3.2333984375-2.7236328125-.1552734375-5.4326171875.60546875-8.12109375,2.28515625-2.6923828125,1.681640625-5.0830078125,4.2294921875-7.169921875,7.646484375-2.0927734375,3.4189453125-3.3876953125,7.6533203125-3.88671875,12.708984375-1.3486328125,11.6484375-2.47265625,23.02490234375-3.373046875,34.12646484375-.333984375,2.271484375-1.376953125,4.166015625-3.125,5.677734375-1.751953125,1.513671875-3.8466796875,2.271484375-6.2890625,2.279296875-2.205078125.04296875-4.4365234375.048828125-6.6904296875.0234375-2.2578125-.029296875-4.310546875-.390625-6.16015625-1.08984375-1.8505859375-.701171875-3.4306640625-1.7890625-4.740234375-3.263671875-1.310546875-1.474609375-2.0029296875-3.619140625-2.07421875-6.44140625,1.4619140625-19.07958984375,3.6845703125-38.32177734375,6.6640625-57.73095703125,2.9755859375-19.40625,6.6357421875-38.8671875,10.9736328125-58.37890625.3115234375-1.296875.705078125-2.521484375,1.1806640625-3.673828125.4736328125-1.1494140625,1.111328125-2.154296875,1.9091796875-3.015625.796875-.859375,1.8037109375-1.474609375,3.0205078125-1.8466796875,1.212890625-.3701171875,2.71875-.423828125,4.51171875-.16015625,1.5341796875.349609375,3.3984375.7470703125,5.595703125,1.1904296875,2.1923828125.4462890625,4.25.9921875,6.169921875,1.640625,1.919921875.6494140625,3.5078125,1.4638671875,4.76953125,2.4423828125,1.2578125.9814453125,1.7841796875,2.1865234375,1.5732421875,3.62109375-2.7548828125,12.90625-5.2099609375,25.8583984375-7.3662109375,38.8505859375Z"/>
    <path class="cls-3" d="M199.0166015625,45.9580078125c4.857421875,1.27490234375,9.3681640625,3.318359375,13.5341796875,6.12548828125,4.1630859375,2.80908203125,7.26171875,6.51318359375,9.296875,11.1083984375,1.111328125,2.5947265625,1.8359375,5.29443359375,2.171875,8.09814453125.3330078125,2.806640625.255859375,5.5517578125-.2314453125,8.2353515625-.4892578125,2.6845703125-1.42578125,5.2333984375-2.806640625,7.6455078125-1.384765625,2.41259765625-3.1962890625,4.57421875-5.439453125,6.486328125-2.4677734375,2.15966796875-5.0234375,3.97998046875-7.6708984375,5.45849609375-2.6484375,1.48095703125-5.349609375,2.85693359375-8.10546875,4.1328125-2.7587890625,1.27587890625-5.5595703125,2.544921875-8.41015625,3.8076171875-2.8486328125,1.26318359375-5.66796875,2.8095703125-8.4609375,4.6416015625-1.9658203125,1.30029296875-3.419921875,2.60400390625-4.3603515625,3.91259765625-.94140625,1.3115234375-1.517578125,2.6982421875-1.732421875,4.15966796875-.3212890625,1.54296875-1.001953125,2.35302734375-2.0390625,2.43310546875-1.0419921875.0810546875-2.201171875.0263671875-3.4814453125-.16162109375-2.103515625-.31005859375-3.9775390625-.91162109375-5.619140625-1.80859375-1.64453125-.89404296875-2.9501953125-2.02197265625-3.9169921875-3.37939453125-.970703125-1.35546875-1.5546875-2.9375-1.7548828125-4.7431640625-.203125-1.80322265625.0927734375-3.81640625.888671875-6.0361328125,1.7431640625-4.22802734375,4.1611328125-7.49169921875,7.2568359375-9.79296875,3.09375-2.2998046875,6.5595703125-4.4306640625,10.400390625-6.3876953125,1.4931640625-.62109375,3.3720703125-1.4873046875,5.6376953125-2.6044921875,2.267578125-1.11376953125,4.572265625-2.34033203125,6.919921875-3.6767578125,2.34375-1.3359375,4.5400390625-2.7646484375,6.5859375-4.28564453125,2.046875-1.52099609375,3.5615234375-3.09619140625,4.5498046875-4.7265625,1.3291015625-2.046875,1.9052734375-3.8994140625,1.7294921875-5.56201171875-.1767578125-1.6591796875-.8271484375-3.1103515625-1.9521484375-4.35107421875-1.126953125-1.23876953125-2.615234375-2.22900390625-4.46875-2.9697265625-1.853515625-.7392578125-3.8623046875-1.22119140625-6.0234375-1.447265625-2.1630859375-.22412109375-4.3203125-.16748046875-6.470703125.1689453125-2.1533203125.33740234375-4.087890625.939453125-5.8037109375,1.80859375-1.7158203125.86865234375-3.3095703125,1.849609375-4.7763671875,2.9404296875-1.4716796875,1.09375-2.654296875,2.32080078125-3.5556640625,3.681640625-.9013671875,1.36279296875-1.4619140625,2.93798828125-1.677734375,4.72802734375-.2158203125,1.79052734375.1220703125,3.7802734375,1.0146484375,5.96630859375.6708984375,1.77978515625.421875,3.47314453125-.74609375,5.0751953125-1.1708984375,1.603515625-2.7314453125,2.84521484375-4.6826171875,3.72509765625-1.9521484375.8828125-4.0390625,1.251953125-6.259765625,1.111328125-2.2216796875-.138671875-4.0478515625-1.06201171875-5.4794921875-2.7685546875-1.8359375-2.1376953125-3.0009765625-4.52783203125-3.5-7.171875-.4990234375-2.642578125-.50390625-5.3056640625-.0146484375-7.99072265625.4873046875-2.68310546875,1.3681640625-5.33447265625,2.640625-7.9501953125,1.2734375-2.61572265625,2.763671875-4.96533203125,4.4716796875-7.0498046875,2.40625-3.01025390625,5.330078125-5.42822265625,8.7763671875-7.2578125,3.4453125-1.8271484375,7.1220703125-3.15625,11.02734375-3.9833984375,3.9052734375-.82666015625,7.8095703125-1.1630859375,11.7109375-1.00927734375s7.509765625.708984375,10.8271484375,1.6640625ZM176.2548828125,137.7685546875c-.390625,2.6533203125-1.84765625,4.7734375-4.369140625,6.365234375-2.5263671875,1.58984375-5.294921875,2.1640625-8.3115234375,1.7197265625-3.203125-.4716796875-5.736328125-1.8251953125-7.6015625-4.0615234375-1.8671875-2.2373046875-2.6044921875-4.6806640625-2.21484375-7.333984375.4169921875-2.833984375,1.841796875-5.0546875,4.2734375-6.65869140625,2.431640625-1.6044921875,5.24609375-2.1708984375,8.44921875-1.69970703125,3.0166015625.4443359375,5.50390625,1.791015625,7.4638671875,4.04150390625,1.95703125,2.25,2.7275390625,4.79345703125,2.310546875,7.62744140625Z"/>
  </g>
</svg>