<?xml version="1.0" encoding="UTF-8"?>
<svg id="Content" xmlns="http://www.w3.org/2000/svg" viewBox="0 0 280 280">
  <defs>
    <style>
      .cls-1 {
        stroke: #665451;
        stroke-width: 50px;
      }

      .cls-1, .cls-2 {
        fill: none;
        stroke-linecap: round;
        stroke-linejoin: round;
      }

      .cls-3 {
        fill: #fff;
      }

      .cls-2 {
        stroke: #998675;
        stroke-width: 2px;
      }
    </style>
  </defs>
  <path class="cls-1" d="M72.259765625,73.49609375c4.697265625-1.78125,9.33984375-2.7685546875,13.9267578125-2.955078125,4.5830078125-.1875,8.888671875.419921875,12.91796875,1.82275390625,4.0263671875,1.40185546875,7.6376953125,3.5791015625,10.8359375,6.5322265625,3.1953125,2.95263671875,5.740234375,6.59228515625,7.6328125,10.9169921875,1.890625,4.32666015625,3.0087890625,9.404296875,3.3544921875,15.23291015625.34375,5.8310546875-.318359375,12.296875-1.9873046875,19.3994140625l-5.80859375,30.5341796875c-.419921875,1.38720703125-1.0322265625,2.5810546875-1.8388671875,3.5771484375-.669921875.7958984375-1.6328125,1.5205078125-2.892578125,2.17626953125-1.2607421875.65625-2.8173828125.853515625-4.669921875.59228515625-1.9775390625-.169921875-4.00390625-.3984375-6.0732421875-.6904296875-2.072265625-.2919921875-3.9140625-.83056640625-5.5263671875-1.61328125-1.6142578125-.783203125-2.923828125-1.93994140625-3.9296875-3.47314453125-1.0087890625-1.53125-1.435546875-3.62158203125-1.283203125-6.26806640625.72265625-5.123046875,1.6796875-10.1298828125,2.8701171875-15.0224609375,1.1904296875-4.89013671875,2.318359375-9.9296875,3.3837890625-15.1162109375,1.328125-5.48291015625,1.6357421875-10.0263671875.921875-13.62939453125-.716796875-3.60302734375-1.9736328125-6.30810546875-3.7744140625-8.12109375-1.8037109375-1.8095703125-3.943359375-2.7783203125-6.427734375-2.90771484375-2.4833984375-.12646484375-4.947265625.58203125-7.3876953125,2.12646484375-2.443359375,1.546875-4.607421875,3.88134765625-6.4921875,7.00634765625-1.8876953125,3.1259765625-3.044921875,6.9912109375-3.4716796875,11.60107421875-1.1650390625,10.62158203125-2.1279296875,20.99267578125-2.888671875,31.11328125-.2919921875,2.072265625-1.232421875,3.802734375-2.8173828125,5.189453125-1.5869140625,1.38916015625-3.4921875,2.09228515625-5.7177734375,2.11181640625-2.0078125.05029296875-4.041015625.068359375-6.095703125.0576171875-2.056640625-.01416015625-3.9296875-.33349609375-5.6181640625-.95947265625-1.6904296875-.62939453125-3.13671875-1.61083984375-4.337890625-2.94677734375-1.2021484375-1.33740234375-1.8447265625-3.28857421875-1.9248046875-5.8583984375,1.2294921875-17.3935546875,3.1494140625-34.939453125,5.759765625-52.64013671875,2.6064453125-17.69921875,5.8359375-35.451171875,9.681640625-53.25390625.2763671875-1.18310546875.6298828125-2.30029296875,1.056640625-3.35302734375.4248046875-1.0498046875,1-1.9697265625,1.7236328125-2.7587890625.720703125-.787109375,1.634765625-1.353515625,2.7412109375-1.6982421875,1.103515625-.34423828125,2.474609375-.4013671875,4.109375-.17041015625,1.4013671875.31005859375,3.1025390625.66162109375,5.10546875,1.05419921875,2,.39404296875,3.8779296875.880859375,5.630859375,1.46142578125,1.751953125.58056640625,3.2041015625,1.31494140625,4.359375,2.19921875,1.15234375.88720703125,1.638671875,1.98291015625,1.4541015625,3.29052734375-2.44140625,11.77587890625-4.6083984375,23.58984375-6.501953125,35.4404296875Z"/>
  <path class="cls-2" d="M72.259765625,73.49609375c4.697265625-1.78125,9.33984375-2.7685546875,13.9267578125-2.955078125,4.5830078125-.1875,8.888671875.419921875,12.91796875,1.82275390625,4.0263671875,1.40185546875,7.6376953125,3.5791015625,10.8359375,6.5322265625,3.1953125,2.95263671875,5.740234375,6.59228515625,7.6328125,10.9169921875,1.890625,4.32666015625,3.0087890625,9.404296875,3.3544921875,15.23291015625.34375,5.8310546875-.318359375,12.296875-1.9873046875,19.3994140625l-5.80859375,30.5341796875c-.419921875,1.38720703125-1.0322265625,2.5810546875-1.8388671875,3.5771484375-.669921875.7958984375-1.6328125,1.5205078125-2.892578125,2.17626953125-1.2607421875.65625-2.8173828125.853515625-4.669921875.59228515625-1.9775390625-.169921875-4.00390625-.3984375-6.0732421875-.6904296875-2.072265625-.2919921875-3.9140625-.83056640625-5.5263671875-1.61328125-1.6142578125-.783203125-2.923828125-1.93994140625-3.9296875-3.47314453125-1.0087890625-1.53125-1.435546875-3.62158203125-1.283203125-6.26806640625.72265625-5.123046875,1.6796875-10.1298828125,2.8701171875-15.0224609375,1.1904296875-4.89013671875,2.318359375-9.9296875,3.3837890625-15.1162109375,1.328125-5.48291015625,1.6357421875-10.0263671875.921875-13.62939453125-.716796875-3.60302734375-1.9736328125-6.30810546875-3.7744140625-8.12109375-1.8037109375-1.8095703125-3.943359375-2.7783203125-6.427734375-2.90771484375-2.4833984375-.12646484375-4.947265625.58203125-7.3876953125,2.12646484375-2.443359375,1.546875-4.607421875,3.88134765625-6.4921875,7.00634765625-1.8876953125,3.1259765625-3.044921875,6.9912109375-3.4716796875,11.60107421875-1.1650390625,10.62158203125-2.1279296875,20.99267578125-2.888671875,31.11328125-.2919921875,2.072265625-1.232421875,3.802734375-2.8173828125,5.189453125-1.5869140625,1.38916015625-3.4921875,2.09228515625-5.7177734375,2.11181640625-2.0078125.05029296875-4.041015625.068359375-6.095703125.0576171875-2.056640625-.01416015625-3.9296875-.33349609375-5.6181640625-.95947265625-1.6904296875-.62939453125-3.13671875-1.61083984375-4.337890625-2.94677734375-1.2021484375-1.33740234375-1.8447265625-3.28857421875-1.9248046875-5.8583984375,1.2294921875-17.3935546875,3.1494140625-34.939453125,5.759765625-52.64013671875,2.6064453125-17.69921875,5.8359375-35.451171875,9.681640625-53.25390625.2763671875-1.18310546875.6298828125-2.30029296875,1.056640625-3.35302734375.4248046875-1.0498046875,1-1.9697265625,1.7236328125-2.7587890625.720703125-.787109375,1.634765625-1.353515625,2.7412109375-1.6982421875,1.103515625-.34423828125,2.474609375-.4013671875,4.109375-.17041015625,1.4013671875.31005859375,3.1025390625.66162109375,5.10546875,1.05419921875,2,.39404296875,3.8779296875.880859375,5.630859375,1.46142578125,1.751953125.58056640625,3.2041015625,1.31494140625,4.359375,2.19921875,1.15234375.88720703125,1.638671875,1.98291015625,1.4541015625,3.29052734375-2.44140625,11.77587890625-4.6083984375,23.58984375-6.501953125,35.4404296875Z"/>
  <path class="cls-3" d="M72.259765625,73.49609375c4.697265625-1.78125,9.33984375-2.7685546875,13.9267578125-2.955078125,4.5830078125-.1875,8.888671875.419921875,12.91796875,1.82275390625,4.0263671875,1.40185546875,7.6376953125,3.5791015625,10.8359375,6.5322265625,3.1953125,2.95263671875,5.740234375,6.59228515625,7.6328125,10.9169921875,1.890625,4.32666015625,3.0087890625,9.404296875,3.3544921875,15.23291015625.34375,5.8310546875-.318359375,12.296875-1.9873046875,19.3994140625l-5.80859375,30.5341796875c-.419921875,1.38720703125-1.0322265625,2.5810546875-1.8388671875,3.5771484375-.669921875.7958984375-1.6328125,1.5205078125-2.892578125,2.17626953125-1.2607421875.65625-2.8173828125.853515625-4.669921875.59228515625-1.9775390625-.169921875-4.00390625-.3984375-6.0732421875-.6904296875-2.072265625-.2919921875-3.9140625-.83056640625-5.5263671875-1.61328125-1.6142578125-.783203125-2.923828125-1.93994140625-3.9296875-3.47314453125-1.0087890625-1.53125-1.435546875-3.62158203125-1.283203125-6.26806640625.72265625-5.123046875,1.6796875-10.1298828125,2.8701171875-15.0224609375,1.1904296875-4.89013671875,2.318359375-9.9296875,3.3837890625-15.1162109375,1.328125-5.48291015625,1.6357421875-10.0263671875.921875-13.62939453125-.716796875-3.60302734375-1.9736328125-6.30810546875-3.7744140625-8.12109375-1.8037109375-1.8095703125-3.943359375-2.7783203125-6.427734375-2.90771484375-2.4833984375-.12646484375-4.947265625.58203125-7.3876953125,2.12646484375-2.443359375,1.546875-4.607421875,3.88134765625-6.4921875,7.00634765625-1.8876953125,3.1259765625-3.044921875,6.9912109375-3.4716796875,11.60107421875-1.1650390625,10.62158203125-2.1279296875,20.99267578125-2.888671875,31.11328125-.2919921875,2.072265625-1.232421875,3.802734375-2.8173828125,5.189453125-1.5869140625,1.38916015625-3.4921875,2.09228515625-5.7177734375,2.11181640625-2.0078125.05029296875-4.041015625.068359375-6.095703125.0576171875-2.056640625-.01416015625-3.9296875-.33349609375-5.6181640625-.95947265625-1.6904296875-.62939453125-3.13671875-1.61083984375-4.337890625-2.94677734375-1.2021484375-1.33740234375-1.8447265625-3.28857421875-1.9248046875-5.8583984375,1.2294921875-17.3935546875,3.1494140625-34.939453125,5.759765625-52.64013671875,2.6064453125-17.69921875,5.8359375-35.451171875,9.681640625-53.25390625.2763671875-1.18310546875.6298828125-2.30029296875,1.056640625-3.35302734375.4248046875-1.0498046875,1-1.9697265625,1.7236328125-2.7587890625.720703125-.787109375,1.634765625-1.353515625,2.7412109375-1.6982421875,1.103515625-.34423828125,2.474609375-.4013671875,4.109375-.17041015625,1.4013671875.31005859375,3.1025390625.66162109375,5.10546875,1.05419921875,2,.39404296875,3.8779296875.880859375,5.630859375,1.46142578125,1.751953125.58056640625,3.2041015625,1.31494140625,4.359375,2.19921875,1.15234375.88720703125,1.638671875,1.98291015625,1.4541015625,3.29052734375-2.44140625,11.77587890625-4.6083984375,23.58984375-6.501953125,35.4404296875Z"/>
</svg>