<?xml version="1.0" encoding="UTF-8"?>
<svg xmlns="http://www.w3.org/2000/svg" xmlns:xlink="http://www.w3.org/1999/xlink" viewBox="0 0 280 280">
  <defs>
    <style>
      .cls-1 {
        stroke: #665451;
        stroke-width: 50px;
      }

      .cls-1, .cls-2 {
        fill: none;
        stroke-linecap: round;
        stroke-linejoin: round;
      }

      .cls-3 {
        fill: #fff;
      }

      .cls-4 {
        fill: #e11f26;
      }

      .cls-5 {
        fill: #ec1940;
      }

      .cls-2 {
        stroke: #998675;
        stroke-width: 2px;
      }
    </style>
  </defs>
  <g id="Layer_1">
    <g>
      <g>
        <path d="M69.07958984375,78.03076171875c5.33642578125-2.0439453125,10.61376953125-3.1845703125,15.8310546875-3.4140625,5.212890625-.2294921875,10.11328125.4443359375,14.7021484375,2.0244140625,4.58544921875,1.580078125,8.703125,4.04296875,12.35205078125,7.390625,3.64599609375,3.345703125,6.55517578125,7.4775390625,8.7236328125,12.388671875,2.16796875,4.916015625,3.458984375,10.6875,3.87353515625,17.31640625.4140625,6.6328125-.3154296875,13.990234375-2.1875,22.076171875l-6.4912109375,34.75732421875c-.4736328125,1.5791015625-1.1640625,2.9384765625-2.0791015625,4.0751953125-.759765625.908203125-1.85205078125,1.736328125-3.28173828125,2.4873046875-1.43212890625.7509765625-3.2021484375.9814453125-5.310546875.69140625-2.25-.1865234375-4.5556640625-.4384765625-6.9111328125-.7626953125-2.3583984375-.3251953125-4.4560546875-.9306640625-6.29296875-1.814453125-1.83935546875-.884765625-3.33349609375-2.1953125-4.48291015625-3.9365234375-1.15283203125-1.7373046875-1.646484375-4.11328125-1.4833984375-7.1259765625.802734375-5.830078125,1.87109375-11.5283203125,3.20703125-17.099609375,1.3349609375-5.5673828125,2.599609375-11.30322265625,3.7919921875-17.20751953125,1.490234375-6.2421875,1.82275390625-11.4111328125.998046875-15.5078125-.8291015625-4.0966796875-2.27001953125-7.1689453125-4.32421875-9.2236328125-2.05908203125-2.052734375-4.49755859375-3.146484375-7.32275390625-3.2841796875-2.826171875-.134765625-5.62646484375.6796875-8.39697265625,2.447265625-2.77392578125,1.76953125-5.2265625,4.4326171875-7.35791015625,7.994140625-2.13671875,3.564453125-3.43798828125,7.9658203125-3.90576171875,13.2109375-1.28515625,12.0859375-2.34130859375,23.88818359375-3.1689453125,35.40380859375-.32470703125,2.3583984375-1.38720703125,4.330078125-3.1845703125,5.9140625-1.80029296875,1.5859375-3.96533203125,2.3935546875-6.4970703125,2.423828125-2.28369140625.0654296875-4.59619140625.09375-6.93310546875.0888671875-2.34033203125-.0078125-4.47119140625-.3642578125-6.39501953125-1.0703125-1.9267578125-.7099609375-3.57568359375-1.8203125-4.9462890625-3.3359375-1.373046875-1.5166015625-2.11083984375-3.7333984375-2.2119140625-6.658203125,1.33251953125-19.78955078125,3.451171875-39.75634765625,6.3525390625-59.90185546875,2.89892578125-20.1435546875,6.50439453125-40.3505859375,10.8115234375-60.6162109375.31103515625-1.34765625.7080078125-2.6201171875,1.19091796875-3.8193359375.47802734375-1.1953125,1.12890625-2.244140625,1.9501953125-3.14453125.81640625-.8984375,1.85400390625-1.5458984375,3.111328125-1.9423828125,1.25390625-.3955078125,2.814453125-.46484375,4.6748046875-.208984375,1.59326171875.3466796875,3.5302734375.7412109375,5.81103515625,1.1796875,2.27685546875.44140625,4.416015625.986328125,6.41162109375,1.640625s3.650390625,1.4833984375,4.96728515625,2.486328125c1.3134765625,1.00390625,1.87060546875,2.248046875,1.66552734375,3.7373046875-2.73046875,13.4052734375-5.1513671875,26.8525390625-7.26123046875,40.33984375Z"/>
        <a xlink:href="https://www.notion.so/congruence/hypothesis-f8e01f142f324c2b8a2aaf7e4944f125?pvs=4">
          <path d="M159.7509765625,130.974609375c1.54296875,1.2890625,2.7998046875,2.76171875,3.7685546875,4.4150390625.96875,1.65625,1.7216796875,3.4130859375,2.26171875,5.271484375.537109375,1.859375.888671875,3.7900390625,1.0556640625,5.7939453125.1630859375,2.00390625.2138671875,4,.1484375,5.9853515625-.0302734375,3.9462890625-.3408203125,7.888671875-.927734375,11.830078125-.58984375,3.9423828125-1.33984375,7.8798828125-2.25,11.810546875-.287109375,1.1123046875-.5361328125,2.0224609375-.7509765625,2.728515625-.2158203125.70703125-.486328125,1.2646484375-.8115234375,1.6728515625-.3271484375.408203125-.7392578125.7080078125-1.236328125.9013671875-.4990234375.1923828125-1.1728515625.3310546875-2.0244140625.4169921875-.783203125-.04296875-1.595703125-.1142578125-2.4375-.2119140625-.84375-.1005859375-1.5830078125-.4599609375-2.21875-1.0810546875-.5986328125-.5673828125-1.03125-1.4326171875-1.2939453125-2.59375-.265625-1.1611328125-.244140625-2.7607421875.0615234375-4.798828125l.1171875-.6767578125c-1.10546875-.3310546875-2.427734375-.6748046875-3.96875-1.03515625-1.541015625-.3583984375-3.1220703125-.6904296875-4.7421875-.994140625-1.6220703125-.302734375-3.1884765625-.5859375-4.69873046875-.8466796875-1.5126953125-.26171875-2.7861328125-.4814453125-3.82421875-.6611328125-.1162109375.3984375-.2890625,1.0654296875-.52001953125,2.001953125-.23193359375.935546875-.54248046875,1.8583984375-.93115234375,2.7666015625-.39111328125.908203125-.8427734375,1.7138671875-1.359375,2.4140625-.5166015625.701171875-1.11669921875,1.015625-1.80029296875.943359375-.640625-.064453125-1.3701171875-.1435546875-2.1904296875-.23828125-.81884765625-.0966796875-1.59375-.322265625-2.322265625-.6806640625-.73681640625-.3115234375-1.31689453125-.78515625-1.74169921875-1.4169921875-.4248046875-.6298828125-.56005859375-1.5361328125-.4013671875-2.7177734375.2421875-1.3974609375.54052734375-2.9970703125.8974609375-4.7939453125.357421875-1.796875.78662109375-3.744140625,1.2890625-5.841796875.39404296875-1.7451171875.875-3.6484375,1.4404296875-5.7119140625.56591796875-2.0634765625,1.2314453125-4.1669921875,1.99609375-6.3125.76611328125-2.14453125,1.6455078125-4.26953125,2.63671875-6.3759765625.99072265625-2.10546875,2.12060546875-4.0712890625,3.3896484375-5.8974609375,1.26708984375-1.8251953125,2.677734375-3.4638671875,4.22998046875-4.9150390625,1.55078125-1.451171875,3.3056640625-2.5888671875,5.259765625-3.4130859375,2.3017578125-.9501953125,4.6943359375-1.2099609375,7.17578125-.78125,2.482421875.4287109375,4.7236328125,1.443359375,6.7236328125,3.0439453125ZM137.98046875,158.9306640625c2.8818359375.265625,5.7431640625.5859375,8.5830078125.9599609375,2.8388671875.375,5.6728515625.853515625,8.5009765625,1.4345703125.6884765625-3.1806640625,1.048828125-6.068359375,1.0791015625-8.6669921875.0302734375-2.5966796875-.166015625-4.826171875-.5869140625-6.6884765625-.4228515625-1.861328125-1.0498046875-3.341796875-1.8818359375-4.4384765625-.833984375-1.095703125-1.7685546875-1.734375-2.806640625-1.9140625-.9033203125-.15625-1.919921875.1455078125-3.0478515625.90234375-1.130859375.7578125-2.2685546875,1.955078125-3.41015625,3.59375-1.1435546875,1.638671875-2.279296875,3.7080078125-3.408203125,6.20703125-1.12890625,2.5009765625-2.13671875,5.37109375-3.021484375,8.6103515625Z"/>
        </a>
      </g>
      <g>
        <path class="cls-1" d="M69.07958984375,78.03076171875c5.33642578125-2.0439453125,10.61376953125-3.1845703125,15.8310546875-3.4140625,5.212890625-.2294921875,10.11328125.4443359375,14.7021484375,2.0244140625,4.58544921875,1.580078125,8.703125,4.04296875,12.35205078125,7.390625,3.64599609375,3.345703125,6.55517578125,7.4775390625,8.7236328125,12.388671875,2.16796875,4.916015625,3.458984375,10.6875,3.87353515625,17.31640625.4140625,6.6328125-.3154296875,13.990234375-2.1875,22.076171875l-6.4912109375,34.75732421875c-.4736328125,1.5791015625-1.1640625,2.9384765625-2.0791015625,4.0751953125-.759765625.908203125-1.85205078125,1.736328125-3.28173828125,2.4873046875-1.43212890625.7509765625-3.2021484375.9814453125-5.310546875.69140625-2.25-.1865234375-4.5556640625-.4384765625-6.9111328125-.7626953125-2.3583984375-.3251953125-4.4560546875-.9306640625-6.29296875-1.814453125-1.83935546875-.884765625-3.33349609375-2.1953125-4.48291015625-3.9365234375-1.15283203125-1.7373046875-1.646484375-4.11328125-1.4833984375-7.1259765625.802734375-5.830078125,1.87109375-11.5283203125,3.20703125-17.099609375,1.3349609375-5.5673828125,2.599609375-11.30322265625,3.7919921875-17.20751953125,1.490234375-6.2421875,1.82275390625-11.4111328125.998046875-15.5078125-.8291015625-4.0966796875-2.27001953125-7.1689453125-4.32421875-9.2236328125-2.05908203125-2.052734375-4.49755859375-3.146484375-7.32275390625-3.2841796875-2.826171875-.134765625-5.62646484375.6796875-8.39697265625,2.447265625-2.77392578125,1.76953125-5.2265625,4.4326171875-7.35791015625,7.994140625-2.13671875,3.564453125-3.43798828125,7.9658203125-3.90576171875,13.2109375-1.28515625,12.0859375-2.34130859375,23.88818359375-3.1689453125,35.40380859375-.32470703125,2.3583984375-1.38720703125,4.330078125-3.1845703125,5.9140625-1.80029296875,1.5859375-3.96533203125,2.3935546875-6.4970703125,2.423828125-2.28369140625.0654296875-4.59619140625.09375-6.93310546875.0888671875-2.34033203125-.0078125-4.47119140625-.3642578125-6.39501953125-1.0703125-1.9267578125-.7099609375-3.57568359375-1.8203125-4.9462890625-3.3359375-1.373046875-1.5166015625-2.11083984375-3.7333984375-2.2119140625-6.658203125,1.33251953125-19.78955078125,3.451171875-39.75634765625,6.3525390625-59.90185546875,2.89892578125-20.1435546875,6.50439453125-40.3505859375,10.8115234375-60.6162109375.31103515625-1.34765625.7080078125-2.6201171875,1.19091796875-3.8193359375.47802734375-1.1953125,1.12890625-2.244140625,1.9501953125-3.14453125.81640625-.8984375,1.85400390625-1.5458984375,3.111328125-1.9423828125,1.25390625-.3955078125,2.814453125-.46484375,4.6748046875-.208984375,1.59326171875.3466796875,3.5302734375.7412109375,5.81103515625,1.1796875,2.27685546875.44140625,4.416015625.986328125,6.41162109375,1.640625s3.650390625,1.4833984375,4.96728515625,2.486328125c1.3134765625,1.00390625,1.87060546875,2.248046875,1.66552734375,3.7373046875-2.73046875,13.4052734375-5.1513671875,26.8525390625-7.26123046875,40.33984375Z"/>
        <a xlink:href="https://www.notion.so/congruence/hypothesis-f8e01f142f324c2b8a2aaf7e4944f125?pvs=4">
          <path class="cls-1" d="M159.7509765625,130.974609375c1.54296875,1.2890625,2.7998046875,2.76171875,3.7685546875,4.4150390625.96875,1.65625,1.7216796875,3.4130859375,2.26171875,5.271484375.537109375,1.859375.888671875,3.7900390625,1.0556640625,5.7939453125.1630859375,2.00390625.2138671875,4,.1484375,5.9853515625-.0302734375,3.9462890625-.3408203125,7.888671875-.927734375,11.830078125-.58984375,3.9423828125-1.33984375,7.8798828125-2.25,11.810546875-.287109375,1.1123046875-.5361328125,2.0224609375-.7509765625,2.728515625-.2158203125.70703125-.486328125,1.2646484375-.8115234375,1.6728515625-.3271484375.408203125-.7392578125.7080078125-1.236328125.9013671875-.4990234375.1923828125-1.1728515625.3310546875-2.0244140625.4169921875-.783203125-.04296875-1.595703125-.1142578125-2.4375-.2119140625-.84375-.1005859375-1.5830078125-.4599609375-2.21875-1.0810546875-.5986328125-.5673828125-1.03125-1.4326171875-1.2939453125-2.59375-.265625-1.1611328125-.244140625-2.7607421875.0615234375-4.798828125l.1171875-.6767578125c-1.10546875-.3310546875-2.427734375-.6748046875-3.96875-1.03515625-1.541015625-.3583984375-3.1220703125-.6904296875-4.7421875-.994140625-1.6220703125-.302734375-3.1884765625-.5859375-4.69873046875-.8466796875-1.5126953125-.26171875-2.7861328125-.4814453125-3.82421875-.6611328125-.1162109375.3984375-.2890625,1.0654296875-.52001953125,2.001953125-.23193359375.935546875-.54248046875,1.8583984375-.93115234375,2.7666015625-.39111328125.908203125-.8427734375,1.7138671875-1.359375,2.4140625-.5166015625.701171875-1.11669921875,1.015625-1.80029296875.943359375-.640625-.064453125-1.3701171875-.1435546875-2.1904296875-.23828125-.81884765625-.0966796875-1.59375-.322265625-2.322265625-.6806640625-.73681640625-.3115234375-1.31689453125-.78515625-1.74169921875-1.4169921875-.4248046875-.6298828125-.56005859375-1.5361328125-.4013671875-2.7177734375.2421875-1.3974609375.54052734375-2.9970703125.8974609375-4.7939453125.357421875-1.796875.78662109375-3.744140625,1.2890625-5.841796875.39404296875-1.7451171875.875-3.6484375,1.4404296875-5.7119140625.56591796875-2.0634765625,1.2314453125-4.1669921875,1.99609375-6.3125.76611328125-2.14453125,1.6455078125-4.26953125,2.63671875-6.3759765625.99072265625-2.10546875,2.12060546875-4.0712890625,3.3896484375-5.8974609375,1.26708984375-1.8251953125,2.677734375-3.4638671875,4.22998046875-4.9150390625,1.55078125-1.451171875,3.3056640625-2.5888671875,5.259765625-3.4130859375,2.3017578125-.9501953125,4.6943359375-1.2099609375,7.17578125-.78125,2.482421875.4287109375,4.7236328125,1.443359375,6.7236328125,3.0439453125ZM137.98046875,158.9306640625c2.8818359375.265625,5.7431640625.5859375,8.5830078125.9599609375,2.8388671875.375,5.6728515625.853515625,8.5009765625,1.4345703125.6884765625-3.1806640625,1.048828125-6.068359375,1.0791015625-8.6669921875.0302734375-2.5966796875-.166015625-4.826171875-.5869140625-6.6884765625-.4228515625-1.861328125-1.0498046875-3.341796875-1.8818359375-4.4384765625-.833984375-1.095703125-1.7685546875-1.734375-2.806640625-1.9140625-.9033203125-.15625-1.919921875.1455078125-3.0478515625.90234375-1.130859375.7578125-2.2685546875,1.955078125-3.41015625,3.59375-1.1435546875,1.638671875-2.279296875,3.7080078125-3.408203125,6.20703125-1.12890625,2.5009765625-2.13671875,5.37109375-3.021484375,8.6103515625Z"/>
        </a>
      </g>
      <g>
        <path class="cls-2" d="M69.07958984375,78.03076171875c5.33642578125-2.0439453125,10.61376953125-3.1845703125,15.8310546875-3.4140625,5.212890625-.2294921875,10.11328125.4443359375,14.7021484375,2.0244140625,4.58544921875,1.580078125,8.703125,4.04296875,12.35205078125,7.390625,3.64599609375,3.345703125,6.55517578125,7.4775390625,8.7236328125,12.388671875,2.16796875,4.916015625,3.458984375,10.6875,3.87353515625,17.31640625.4140625,6.6328125-.3154296875,13.990234375-2.1875,22.076171875l-6.4912109375,34.75732421875c-.4736328125,1.5791015625-1.1640625,2.9384765625-2.0791015625,4.0751953125-.759765625.908203125-1.85205078125,1.736328125-3.28173828125,2.4873046875-1.43212890625.7509765625-3.2021484375.9814453125-5.310546875.69140625-2.25-.1865234375-4.5556640625-.4384765625-6.9111328125-.7626953125-2.3583984375-.3251953125-4.4560546875-.9306640625-6.29296875-1.814453125-1.83935546875-.884765625-3.33349609375-2.1953125-4.48291015625-3.9365234375-1.15283203125-1.7373046875-1.646484375-4.11328125-1.4833984375-7.1259765625.802734375-5.830078125,1.87109375-11.5283203125,3.20703125-17.099609375,1.3349609375-5.5673828125,2.599609375-11.30322265625,3.7919921875-17.20751953125,1.490234375-6.2421875,1.82275390625-11.4111328125.998046875-15.5078125-.8291015625-4.0966796875-2.27001953125-7.1689453125-4.32421875-9.2236328125-2.05908203125-2.052734375-4.49755859375-3.146484375-7.32275390625-3.2841796875-2.826171875-.134765625-5.62646484375.6796875-8.39697265625,2.447265625-2.77392578125,1.76953125-5.2265625,4.4326171875-7.35791015625,7.994140625-2.13671875,3.564453125-3.43798828125,7.9658203125-3.90576171875,13.2109375-1.28515625,12.0859375-2.34130859375,23.88818359375-3.1689453125,35.40380859375-.32470703125,2.3583984375-1.38720703125,4.330078125-3.1845703125,5.9140625-1.80029296875,1.5859375-3.96533203125,2.3935546875-6.4970703125,2.423828125-2.28369140625.0654296875-4.59619140625.09375-6.93310546875.0888671875-2.34033203125-.0078125-4.47119140625-.3642578125-6.39501953125-1.0703125-1.9267578125-.7099609375-3.57568359375-1.8203125-4.9462890625-3.3359375-1.373046875-1.5166015625-2.11083984375-3.7333984375-2.2119140625-6.658203125,1.33251953125-19.78955078125,3.451171875-39.75634765625,6.3525390625-59.90185546875,2.89892578125-20.1435546875,6.50439453125-40.3505859375,10.8115234375-60.6162109375.31103515625-1.34765625.7080078125-2.6201171875,1.19091796875-3.8193359375.47802734375-1.1953125,1.12890625-2.244140625,1.9501953125-3.14453125.81640625-.8984375,1.85400390625-1.5458984375,3.111328125-1.9423828125,1.25390625-.3955078125,2.814453125-.46484375,4.6748046875-.208984375,1.59326171875.3466796875,3.5302734375.7412109375,5.81103515625,1.1796875,2.27685546875.44140625,4.416015625.986328125,6.41162109375,1.640625s3.650390625,1.4833984375,4.96728515625,2.486328125c1.3134765625,1.00390625,1.87060546875,2.248046875,1.66552734375,3.7373046875-2.73046875,13.4052734375-5.1513671875,26.8525390625-7.26123046875,40.33984375Z"/>
        <a xlink:href="https://www.notion.so/congruence/hypothesis-f8e01f142f324c2b8a2aaf7e4944f125?pvs=4">
          <path class="cls-2" d="M159.7509765625,130.974609375c1.54296875,1.2890625,2.7998046875,2.76171875,3.7685546875,4.4150390625.96875,1.65625,1.7216796875,3.4130859375,2.26171875,5.271484375.537109375,1.859375.888671875,3.7900390625,1.0556640625,5.7939453125.1630859375,2.00390625.2138671875,4,.1484375,5.9853515625-.0302734375,3.9462890625-.3408203125,7.888671875-.927734375,11.830078125-.58984375,3.9423828125-1.33984375,7.8798828125-2.25,11.810546875-.287109375,1.1123046875-.5361328125,2.0224609375-.7509765625,2.728515625-.2158203125.70703125-.486328125,1.2646484375-.8115234375,1.6728515625-.3271484375.408203125-.7392578125.7080078125-1.236328125.9013671875-.4990234375.1923828125-1.1728515625.3310546875-2.0244140625.4169921875-.783203125-.04296875-1.595703125-.1142578125-2.4375-.2119140625-.84375-.1005859375-1.5830078125-.4599609375-2.21875-1.0810546875-.5986328125-.5673828125-1.03125-1.4326171875-1.2939453125-2.59375-.265625-1.1611328125-.244140625-2.7607421875.0615234375-4.798828125l.1171875-.6767578125c-1.10546875-.3310546875-2.427734375-.6748046875-3.96875-1.03515625-1.541015625-.3583984375-3.1220703125-.6904296875-4.7421875-.994140625-1.6220703125-.302734375-3.1884765625-.5859375-4.69873046875-.8466796875-1.5126953125-.26171875-2.7861328125-.4814453125-3.82421875-.6611328125-.1162109375.3984375-.2890625,1.0654296875-.52001953125,2.001953125-.23193359375.935546875-.54248046875,1.8583984375-.93115234375,2.7666015625-.39111328125.908203125-.8427734375,1.7138671875-1.359375,2.4140625-.5166015625.701171875-1.11669921875,1.015625-1.80029296875.943359375-.640625-.064453125-1.3701171875-.1435546875-2.1904296875-.23828125-.81884765625-.0966796875-1.59375-.322265625-2.322265625-.6806640625-.73681640625-.3115234375-1.31689453125-.78515625-1.74169921875-1.4169921875-.4248046875-.6298828125-.56005859375-1.5361328125-.4013671875-2.7177734375.2421875-1.3974609375.54052734375-2.9970703125.8974609375-4.7939453125.357421875-1.796875.78662109375-3.744140625,1.2890625-5.841796875.39404296875-1.7451171875.875-3.6484375,1.4404296875-5.7119140625.56591796875-2.0634765625,1.2314453125-4.1669921875,1.99609375-6.3125.76611328125-2.14453125,1.6455078125-4.26953125,2.63671875-6.3759765625.99072265625-2.10546875,2.12060546875-4.0712890625,3.3896484375-5.8974609375,1.26708984375-1.8251953125,2.677734375-3.4638671875,4.22998046875-4.9150390625,1.55078125-1.451171875,3.3056640625-2.5888671875,5.259765625-3.4130859375,2.3017578125-.9501953125,4.6943359375-1.2099609375,7.17578125-.78125,2.482421875.4287109375,4.7236328125,1.443359375,6.7236328125,3.0439453125ZM137.98046875,158.9306640625c2.8818359375.265625,5.7431640625.5859375,8.5830078125.9599609375,2.8388671875.375,5.6728515625.853515625,8.5009765625,1.4345703125.6884765625-3.1806640625,1.048828125-6.068359375,1.0791015625-8.6669921875.0302734375-2.5966796875-.166015625-4.826171875-.5869140625-6.6884765625-.4228515625-1.861328125-1.0498046875-3.341796875-1.8818359375-4.4384765625-.833984375-1.095703125-1.7685546875-1.734375-2.806640625-1.9140625-.9033203125-.15625-1.919921875.1455078125-3.0478515625.90234375-1.130859375.7578125-2.2685546875,1.955078125-3.41015625,3.59375-1.1435546875,1.638671875-2.279296875,3.7080078125-3.408203125,6.20703125-1.12890625,2.5009765625-2.13671875,5.37109375-3.021484375,8.6103515625Z"/>
        </a>
      </g>
      <g>
        <path class="cls-3" d="M69.07958984375,78.03076171875c5.33642578125-2.0439453125,10.61376953125-3.1845703125,15.8310546875-3.4140625,5.212890625-.2294921875,10.11328125.4443359375,14.7021484375,2.0244140625,4.58544921875,1.580078125,8.703125,4.04296875,12.35205078125,7.390625,3.64599609375,3.345703125,6.55517578125,7.4775390625,8.7236328125,12.388671875,2.16796875,4.916015625,3.458984375,10.6875,3.87353515625,17.31640625.4140625,6.6328125-.3154296875,13.990234375-2.1875,22.076171875l-6.4912109375,34.75732421875c-.4736328125,1.5791015625-1.1640625,2.9384765625-2.0791015625,4.0751953125-.759765625.908203125-1.85205078125,1.736328125-3.28173828125,2.4873046875-1.43212890625.7509765625-3.2021484375.9814453125-5.310546875.69140625-2.25-.1865234375-4.5556640625-.4384765625-6.9111328125-.7626953125-2.3583984375-.3251953125-4.4560546875-.9306640625-6.29296875-1.814453125-1.83935546875-.884765625-3.33349609375-2.1953125-4.48291015625-3.9365234375-1.15283203125-1.7373046875-1.646484375-4.11328125-1.4833984375-7.1259765625.802734375-5.830078125,1.87109375-11.5283203125,3.20703125-17.099609375,1.3349609375-5.5673828125,2.599609375-11.30322265625,3.7919921875-17.20751953125,1.490234375-6.2421875,1.82275390625-11.4111328125.998046875-15.5078125-.8291015625-4.0966796875-2.27001953125-7.1689453125-4.32421875-9.2236328125-2.05908203125-2.052734375-4.49755859375-3.146484375-7.32275390625-3.2841796875-2.826171875-.134765625-5.62646484375.6796875-8.39697265625,2.447265625-2.77392578125,1.76953125-5.2265625,4.4326171875-7.35791015625,7.994140625-2.13671875,3.564453125-3.43798828125,7.9658203125-3.90576171875,13.2109375-1.28515625,12.0859375-2.34130859375,23.88818359375-3.1689453125,35.40380859375-.32470703125,2.3583984375-1.38720703125,4.330078125-3.1845703125,5.9140625-1.80029296875,1.5859375-3.96533203125,2.3935546875-6.4970703125,2.423828125-2.28369140625.0654296875-4.59619140625.09375-6.93310546875.0888671875-2.34033203125-.0078125-4.47119140625-.3642578125-6.39501953125-1.0703125-1.9267578125-.7099609375-3.57568359375-1.8203125-4.9462890625-3.3359375-1.373046875-1.5166015625-2.11083984375-3.7333984375-2.2119140625-6.658203125,1.33251953125-19.78955078125,3.451171875-39.75634765625,6.3525390625-59.90185546875,2.89892578125-20.1435546875,6.50439453125-40.3505859375,10.8115234375-60.6162109375.31103515625-1.34765625.7080078125-2.6201171875,1.19091796875-3.8193359375.47802734375-1.1953125,1.12890625-2.244140625,1.9501953125-3.14453125.81640625-.8984375,1.85400390625-1.5458984375,3.111328125-1.9423828125,1.25390625-.3955078125,2.814453125-.46484375,4.6748046875-.208984375,1.59326171875.3466796875,3.5302734375.7412109375,5.81103515625,1.1796875,2.27685546875.44140625,4.416015625.986328125,6.41162109375,1.640625s3.650390625,1.4833984375,4.96728515625,2.486328125c1.3134765625,1.00390625,1.87060546875,2.248046875,1.66552734375,3.7373046875-2.73046875,13.4052734375-5.1513671875,26.8525390625-7.26123046875,40.33984375Z"/>
        <a xlink:href="https://www.notion.so/congruence/hypothesis-f8e01f142f324c2b8a2aaf7e4944f125?pvs=4">
          <path class="cls-3" d="M159.7509765625,130.974609375c1.54296875,1.2890625,2.7998046875,2.76171875,3.7685546875,4.4150390625.96875,1.65625,1.7216796875,3.4130859375,2.26171875,5.271484375.537109375,1.859375.888671875,3.7900390625,1.0556640625,5.7939453125.1630859375,2.00390625.2138671875,4,.1484375,5.9853515625-.0302734375,3.9462890625-.3408203125,7.888671875-.927734375,11.830078125-.58984375,3.9423828125-1.33984375,7.8798828125-2.25,11.810546875-.287109375,1.1123046875-.5361328125,2.0224609375-.7509765625,2.728515625-.2158203125.70703125-.486328125,1.2646484375-.8115234375,1.6728515625-.3271484375.408203125-.7392578125.7080078125-1.236328125.9013671875-.4990234375.1923828125-1.1728515625.3310546875-2.0244140625.4169921875-.783203125-.04296875-1.595703125-.1142578125-2.4375-.2119140625-.84375-.1005859375-1.5830078125-.4599609375-2.21875-1.0810546875-.5986328125-.5673828125-1.03125-1.4326171875-1.2939453125-2.59375-.265625-1.1611328125-.244140625-2.7607421875.0615234375-4.798828125l.1171875-.6767578125c-1.10546875-.3310546875-2.427734375-.6748046875-3.96875-1.03515625-1.541015625-.3583984375-3.1220703125-.6904296875-4.7421875-.994140625-1.6220703125-.302734375-3.1884765625-.5859375-4.69873046875-.8466796875-1.5126953125-.26171875-2.7861328125-.4814453125-3.82421875-.6611328125-.1162109375.3984375-.2890625,1.0654296875-.52001953125,2.001953125-.23193359375.935546875-.54248046875,1.8583984375-.93115234375,2.7666015625-.39111328125.908203125-.8427734375,1.7138671875-1.359375,2.4140625-.5166015625.701171875-1.11669921875,1.015625-1.80029296875.943359375-.640625-.064453125-1.3701171875-.1435546875-2.1904296875-.23828125-.81884765625-.0966796875-1.59375-.322265625-2.322265625-.6806640625-.73681640625-.3115234375-1.31689453125-.78515625-1.74169921875-1.4169921875-.4248046875-.6298828125-.56005859375-1.5361328125-.4013671875-2.7177734375.2421875-1.3974609375.54052734375-2.9970703125.8974609375-4.7939453125.357421875-1.796875.78662109375-3.744140625,1.2890625-5.841796875.39404296875-1.7451171875.875-3.6484375,1.4404296875-5.7119140625.56591796875-2.0634765625,1.2314453125-4.1669921875,1.99609375-6.3125.76611328125-2.14453125,1.6455078125-4.26953125,2.63671875-6.3759765625.99072265625-2.10546875,2.12060546875-4.0712890625,3.3896484375-5.8974609375,1.26708984375-1.8251953125,2.677734375-3.4638671875,4.22998046875-4.9150390625,1.55078125-1.451171875,3.3056640625-2.5888671875,5.259765625-3.4130859375,2.3017578125-.9501953125,4.6943359375-1.2099609375,7.17578125-.78125,2.482421875.4287109375,4.7236328125,1.443359375,6.7236328125,3.0439453125ZM137.98046875,158.9306640625c2.8818359375.265625,5.7431640625.5859375,8.5830078125.9599609375,2.8388671875.375,5.6728515625.853515625,8.5009765625,1.4345703125.6884765625-3.1806640625,1.048828125-6.068359375,1.0791015625-8.6669921875.0302734375-2.5966796875-.166015625-4.826171875-.5869140625-6.6884765625-.4228515625-1.861328125-1.0498046875-3.341796875-1.8818359375-4.4384765625-.833984375-1.095703125-1.7685546875-1.734375-2.806640625-1.9140625-.9033203125-.15625-1.919921875.1455078125-3.0478515625.90234375-1.130859375.7578125-2.2685546875,1.955078125-3.41015625,3.59375-1.1435546875,1.638671875-2.279296875,3.7080078125-3.408203125,6.20703125-1.12890625,2.5009765625-2.13671875,5.37109375-3.021484375,8.6103515625Z"/>
        </a>
      </g>
    </g>
  </g>
  <g id="Arrows">
    <g>
      <g>
        <path class="cls-5" d="M216.239019150099921,177.011137345280076c9.6474609375,0,18.182739257810681.61407470703125,26.093597412109375,1.87738037109375,2.437591552741651.38922119140625,5.0809478759802.57843017578125,8.081146240241651.57843017578125,2.584777832029431,0,5.179016113279431-.1383056640625,7.407730102528149-.26800537109375,2.849182128909888-.16571044921875,5.877426147471851-.242919921875,9.530044555671338-.242919921875,2.790802001949487,0,5.63348388671875.04583740234375,8.382553100578662.09014892578125,1.27803039551145.0206298828125,2.555816650401539.04119873046875,3.833145141610657.05755615234375,8.607620239250537.10992431640625,16.209304809570312,1.57861328125,23.239395141599744,4.48992919921875,13.0684661865198,5.41204833984375,21.74151611328125,15.21478271484375,25.778259277340112,29.13592529296875,2.879043579099744,9.9288330078125,3.709548950200769,20.67840576171875,2.613571166990369,33.82952880859375-.037857055660425.45465087890625-.039764404289599.89862060546875-.041595458980737,1.3280029296875-.001922607420056.45135498046875-.003738403318494.87762451171875-.045959472659888,1.287353515625-.89813232421875,8.7158203125.101745605470569,17.4197998046875,1.06866455078125,25.83721923828125.19549560546875,1.7017822265625.391006469728381,3.40350341796875.571502685548694,5.10601806640625.127838134771082,1.20587158203125.1688385009802,2.45648193359375.208526611329944,3.6658935546875.057098388670056,1.74139404296875.1161041259802,3.5408935546875.429214477540881,5.3289794921875v13.2296142578125c-.347839355470569,1.52093505859375-.422882080079944,3.0526123046875-.495513916019263,4.53515625-.026809692380994.5477294921875-.053497314451306,1.09454345703125-.094177246090112,1.638427734375-.482208251951306,6.4447021484375-3.04473876953125,12.39959716796875-8.064422607420056,18.74041748046875-8.244689941411707,10.41461181640625-19.430786132821595,15.66387939453125-34.197494506841394,16.04779052734375-.439529418939856.01141357421875-.878875732420056.0172119140625-1.315582275388806.0172119140625-7.625289916990369,0-14.220550537111194-1.7264404296875-20.162658691409888-5.27801513671875-6.481842041010168-3.8741455078125-11.447128295891162-9.30035400390625-14.760681152340112-16.1334228515625-.796127319341394-1.6417236328125-1.23468017578125-2.5460205078125-2.297348022460938-2.5462646484375-.768569946289062-.00006103515625-1.339675903320312.54498291015625-2.376449584959119,1.5345458984375l-.075836181640625.0723876953125c-1.821975708009631,1.73834228515625-3.647277832029431,3.473388671875-5.472595214849207,5.2083740234375-7.718505859371362,7.33648681640625-15.699768066400793,14.9228515625-23.292541503900793,22.65966796875-1.186767578130457,1.20928955078125-2.346466064460401,2.47320556640625-3.467987060550513,3.695556640625-1.52783203125,1.6651611328125-3.107666015619543,3.38702392578125-4.756408691409888,4.96881103515625-4.759887695308862,4.56695556640625-9.583160400388806,7.76416015625-14.745452880848461,9.7742919921875-3.338043212901539,1.2998046875-6.819641113290345,1.43402099609375-10.505676269540345,1.5760498046875l-.18603515625.00787353515625-3.37774658203125-.00006103515625-3.421478271478918.00103759765625c-.440887451170056.01983642578125-.878967285159888.02960205078125-1.312286376949487.02960205078125-7.575714111331763,0-14.701568603521082-3.02203369140625-21.784790039071595-9.2388916015625-4.392913818359375-3.8555908203125-7.837066650388806-7.76275634765625-10.529174804678405-11.94464111328125-3.431701660161707-5.33074951171875-5.024963378911707-11.15118408203125-4.87057495118097-17.81707763671875l-.001159667970569-6.0845947265625c-.432800292959655-8.91302490234375,2.935241699220569-17.05242919921875,10.010620117191138-24.19219970703125,4.933349609378638-4.97833251953125,10.113708496099207-9.88690185546875,15.12353515625-14.6339111328125,4.509918212888806-4.2733154296875,9.173370361329944-8.69207763671875,13.653900146489832-13.15850830078125,2.377655029289599-2.37017822265625,4.843170166010168-4.7508544921875,7.227508544920056-7.0531005859375,1.079162597648974-1.04205322265625,2.158294677728918-2.083984375,3.233459472648974-3.128662109375.90234375-.8768310546875,1.695922851569776-1.74737548828125,1.498260498050513-2.7569580078125-.198516845699487-1.01385498046875-1.235748291010168-1.50927734375-2.469268798829944-2.00823974609375-8.082794189449487-3.2691650390625-14.294799804680224-8.67144775390625-18.463470458980737-16.056640625-2.380676269529431-4.2176513671875-3.804626464838293-9.002685546875-4.353179931638806-14.6285400390625-.824340820310681-8.4537353515625.548248291010168-16.67950439453125,4.079650878898974-24.44866943359375,4.827819824220569-10.6214599609375,12.893188476569776-18.1539306640625,23.972045898441138-22.38836669921875,4.607727050779431-1.7611083984375,9.335479736329944-2.1168212890625,13.758148193359375-2.2388916015625,2.465911865239832-.06805419921875,4.869171142579944-.10260009765625,7.14306640625-.10260009765625M216.239019150099921,176.011137345280076c-2.389099121090112,0-4.779968261720569.0369873046875-7.170654296869543.10296630859375-4.747680664069776.13104248046875-9.4990234375.5506591796875-14.087585449220569,2.304443359375-11.32763671875,4.3294677734375-19.530914306640625,11.92059326171875-24.525390625,22.90863037109375-3.598449707029431,7.916748046875-5.016357421880457,16.22412109375-4.164581298829944,24.95953369140625.521331787109375,5.34637451171875,1.850708007810681,10.369140625,4.477630615230737,15.02301025390625,4.361480712888806,7.726806640625,10.740997314458582,13.16815185546875,18.959381103519263,16.4921875,2.319458007810681.9381103515625,2.426940917970569,1.3934326171875.649078369140625,3.12091064453125-3.493103027340112,3.39410400390625-7.02813720703125,6.7596435546875-10.470092773441138,10.19073486328125-9.450408935539599,9.42071533203125-19.396697998039599,18.32623291015625-28.781768798829944,27.7967529296875-6.72366333006903,6.784912109375-10.78125,15.01544189453125-10.299133300779431,24.94464111328125v6.03607177734375c-.153625488279431,6.62188720703125,1.397644042970569,12.71630859375,5.029724121099207,18.35833740234375,2.974243164060681,4.6201171875,6.646331787111194,8.5880126953125,10.710357666010168,12.15496826171875,6.435577392579944,5.6484375,13.703033447271082,9.4873046875,22.444458007821595,9.4873046875.448150634758349,0,.901184082029431-.0101318359375,1.357147216789599-.03057861328125,1.125152587888806,0,2.250640869138806-.00006103515625,3.376617431638806-.00006103515625s2.25244140625.00006103515625,3.379516601571595.00006103515625c3.746276855459655-.1448974609375,7.487579345699487-.2637939453125,11.052825927728918-1.652099609375,5.751190185550513-2.23944091796875,10.653289794920056-5.74212646484375,15.074920654300513-9.9844970703125,2.884765625-2.76776123046875,5.451538085930224-5.83831787109375,8.245758056638806-8.685546875,9.345184326170056-9.52252197265625,19.090118408201306-18.63629150390625,28.741744995109912-27.844970703125.903259277351026-.86181640625,1.3831939697302-1.3304443359375,1.761840820321595-1.33038330078125.436889648428405.00006103515625.738922119138806.62408447265625,1.400390625,1.9881591796875,3.405151367178405,7.02197265625,8.453079223629175,12.55029296875,15.14471435546875,16.54986572265625,6.38957214355105,3.8189697265625,13.334075927730737,5.41961669921875,20.67570495605105,5.41961669921875.445343017579944,0,.893371582029431-.00592041015625,1.341583251949487-.017578125,14.059738159179688-.365478515625,26.058792114259631-5.18841552734375,34.955551147459119-16.4267578125,4.466857910159888-5.6424560546875,7.723098754890088-11.87579345703125,8.277572631841394-19.2864990234375.152496337888806-2.038330078125.112747192379175-4.11798095703125.592483520509631-6.133056640625v-13.43280029296875c-.536270141599744-2.9808349609375-.325500488279431-6.0145263671875-.643325805669519-9.01220703125-1.083068847650793-10.21563720703125-2.704544067380994-20.4029541015625-1.639831542959655-30.7353515625.089706420889343-.8707275390625.016235351558862-1.757080078125.08935546875-2.63482666015625.961761474609375-11.540771484375.586029052728918-23.0322265625-2.649673461921338-34.1910400390625-4.055801391599744-13.98687744140625-12.746948242189319-24.1453857421875-26.356109619140625-29.78131103515625-7.546875-3.1253662109375-15.480636596679688-4.462158203125-23.609237670898438-4.56597900390625-4.073974609371362-.05206298828125-8.152893066400793-.1478271484375-12.22843933105105-.14776611328125-3.199874877929688,0-6.397918701170056.05902099609375-9.588134765628638.24462890625-2.46015930176145.14312744140625-4.908294677730737.26629638671875-7.349670410150793.26629638671875-2.64697265625,0-5.285995483400256-.144775390625-7.923446655280713-.56591796875-8.710113525388806-1.39093017578125-17.472564697260168-1.889892578125-26.251281738279431-1.889892578125h0Z"/>
        <path class="cls-5" d="M215.418737167679865,206.144377091373826c6.575714111329944,0,13.255676269529431,1.05926513671875,19.000762939449487,2.0521240234375,5.113952636720569.88372802734375,10.489532470710401,1.29534912109375,16.917312622070312,1.29534912109375,4.036071777351026,0,8.003967285159888-.16802978515625,11.009887695319776-.3143310546875,3.233718872070312-.157470703125,6.681381225580481-.31121826171875,10.153411865230737-.31121826171875,4.914291381839575,0,8.987350463869006.30816650390625,12.818176269529431.96990966796875,10.2205963134802,1.76544189453125,14.56378173828125,6.504638671875,15.490692138670056,16.9033203125.7479400634802,8.39080810546875.7704010009802,17.27642822265625.066741943361194,26.4100341796875-.737182617180224,9.56866455078125.677444458009631,19.03570556640625,2.04548645019895,28.19097900390625.161178588870825,1.07861328125.322357177730737,2.1573486328125.480255126949487,3.23663330078125.869689941409888,5.94488525390625,1.502197265630457,12.29931640625.252426147460938,18.4888916015625-1.188980102540881,5.8883056640625-7.102142333980737,10.50079345703125-13.461883544920056,10.50079345703125-1.778366088870825,0-3.471923828119543-.3604736328125-5.033645629880994-1.07147216796875-3.461730957029431-1.57586669921875-4.482254028318494-4.69110107421875-4.94950866698855-8.8837890625-.59980773926145-5.3818359375-.293624877929688-10.88299560546875.00247192381903-16.2030029296875.1693267822302-3.0418701171875.344375610360657-6.1873779296875.351287841800513-9.2962646484375.01611328125-7.27154541015625-.326522827150256-15.74212646484375-4.623413085939319-24.25189208984375l-.654266357421875-1.2957763671875-.977600097659888,1.07305908203125c-.678283691398974.7445068359375-1.347106933590112,1.49853515625-2.015899658199487,2.2525634765625-1.415451049799231,1.59588623046875-2.87908935546875,3.24603271484375-4.404129028320312,4.76043701171875-9.105804443359375,9.0419921875-17.378814697258349,17.1793212890625-25.291809082029431,24.876953125-8.338317871090112,8.111328125-16.836853027340112,16.338134765625-25.055572509769263,24.2940673828125-5.708862304680224,5.5263671875-11.41778564453125,11.052734375-17.120361328121362,16.5855712890625-1.470031738279431,1.42626953125-2.818023681638806,2.984619140625-4.121643066409888,4.49163818359375-1.765441894529431,2.0408935546875-3.59100341796875,4.15130615234375-5.693023681638806,5.8856201171875-2.562408447260168,2.11431884765625-4.751708984371362,3.09906005859375-6.889862060539599,3.09906005859375-2.087097167970569,0-4.209716796880457-.9337158203125-6.679962158210401-2.9383544921875-.696136474611194-.56488037109375-1.428802490230737-1.17742919921875-2.070861816400793-1.82891845703125-5.559173583989832-5.64044189453125-5.597747802739832-10.6097412109375-.125152587888806-16.11248779296875,1.767944335928405-1.7777099609375,3.729309082029431-3.45159912109375,5.626098632808862-5.0704345703125,1.931060791010168-1.64801025390625,3.927856445310681-3.35211181640625,5.756317138670056-5.19189453125,14.891510009771082-14.98333740234375,29.862030029300513-29.34942626953125,45.166320800779431-43.97198486328125,6.083435058590112-5.8123779296875,12.290649414060681-11.70037841796875,18.293518066409888-17.39453125,3.229034423831763-3.06298828125,6.458099365230737-6.12591552734375,9.684051513670056-9.19219970703125,1.284088134760168-1.220458984375,1.99140930176145-1.89276123046875,1.777526855470569-2.82769775390625-.215301513670056-.9410400390625-1.165878295900256-1.24578857421875-2.891555786129175-1.79888916015625-9.333831787111194-2.99169921875-18.853012084970032-3.3753662109375-26.103286743171338-3.3753662109375-1.340209960939319,0-2.753814697258349.01458740234375-4.321594238279431.04461669921875-1.684936523439319.03228759765625-3.395080566409888.0877685546875-5.048950195310681.1414794921875-2.568878173829944.0833740234375-5.225219726569776.16961669921875-7.828216552739832.16961669921875-3.746429443359375,0-6.832244873039599-.17791748046875-9.711212158199487-.559814453125-1.794494628909888-.238037109375-3.316040039060681-.7115478515625-4.651519775390625-1.44757080078125-2.199554443359375-1.21209716796875-3.277313232420056-2.90374755859375-3.391754150388806-5.32379150390625-.248779296880457-5.25970458984375.984039306638806-9.38140869140625,3.664215087888806-12.25067138671875,2.85723876953125-3.05889892578125,7.324157714840112-4.6728515625,13.276733398441138-4.797119140625.427703857420056-.0089111328125.855865478510168-.01324462890625,1.282989501949487-.01324462890625M215.418767685259809,205.144377091373826c-.434112548829944,0-.869232177739832.00439453125-1.303894042970569.01348876953125-12.201568603519263.25469970703125-18.459747314449487,6.66070556640625-17.918975830079944,18.09478759765625.133972167970569,2.83258056640625,1.488250732420056,4.81890869140625,3.90802001953125,6.15240478515625,1.557922363279431.85858154296875,3.252532958989832,1.33087158203125,5.00262451171875,1.56304931640625,3.278198242191138.43487548828125,6.559051513670056.5684814453125,9.842742919920056.5684814453125,4.296936035159888,0,8.59796142578125-.22900390625,12.89630126953125-.311279296875,1.435424804689319-.0274658203125,2.869842529298694-.04443359375,4.302459716798694-.04443359375,8.719787597659888,0,17.37422180176145.62762451171875,25.798065185550513,3.32763671875,2.840042114259631.91033935546875,2.838607788080481.94561767578125.730316162109375,2.94952392578125-9.325561523439319,8.86383056640625-18.677001953128638,17.70050048828125-27.979431152349207,26.5885009765625-15.198944091789599,14.5218505859375-30.363830566400793,29.0777587890625-45.184783935539599,43.9901123046875-3.595733642579944,3.61785888671875-7.785278320319776,6.645263671875-11.382232666021082,10.2620849609375-5.928375244138806,5.9610595703125-5.774627685548694,11.5367431640625.122009277340112,17.51959228515625.670959472659888.6807861328125,1.409545898441138,1.3001708984375,2.152954101569776,1.9034423828125,2.601409912111194,2.111083984375,4.95654296875,3.161865234375,7.310089111331763,3.161865234375,2.421752929678405,0,4.84182739256903-1.11273193359375,7.526306152338293-3.32769775390625,3.726318359371362-3.0745849609375,6.436859130861194-7.09552001953125,9.874572753911707-10.430908203125,14.052124023428405-13.6339111328125,28.14260864256903-27.22833251953125,42.176879882808862-40.88055419921875,8.478668212890625-8.2479248046875,16.905670166010168-16.54949951171875,25.299133300779431-24.8841552734375,2.258148193361194-2.24237060546875,4.308715820310681-4.6937255859375,6.454620361329944-7.04913330078125,4.039688110351562,8.00042724609375,4.53361511230105,15.8782958984375,4.516067504880994,23.7989501953125-.018951416021082,8.53741455078125-1.300765991210938,17.059814453125-.347610473630994,25.61224365234375.448043823240369,4.02020263671875,1.432250976560681,7.81817626953125,5.529037475580481,9.68316650390625,1.743438720710401.793701171875,3.597427368169519,1.16131591796875,5.447967529300513,1.16131591796875,6.571502685550513,0,13.096206665039062-4.637451171875,14.442092895509631-11.3028564453125,1.267059326170056-6.275146484375.672973632810681-12.5692138671875-.243179321289062-18.83160400390625-1.513732910159888-10.3477783203125-3.331558227540881-20.6478271484375-2.518157958991651-31.20599365234375.681549072271082-8.846435546875.722305297860657-17.7127685546875-.067718505848461-26.57568359375-.965911865241651-10.8360595703125-5.556243896491651-15.9412841796875-16.316543579110657-17.7999267578125-4.314468383790881-.7452392578125-8.648132324209655-.9844970703125-12.9883880615198-.9844970703125-3.399291992189319,0-6.803039550779431.1468505859375-10.2020416259802.3123779296875-3.660797119140625.17828369140625-7.312957763670056.31317138671875-10.961273193359375.31317138671875-5.59033203125,0-11.170166015621362-.3170166015625-16.747009277340112-1.28076171875-6.333282470701306-1.094482421875-12.720245361329944-2.06671142578125-19.171020507810681-2.06671142578125h0Z"/>
      </g>
      <path class="cls-4" d="M279.731008285840289,279.730985978092576c-69.716351184770247.440578179877775-210.016410129730502,1.330698880577984-279.731277051299912,1.531175586202153.000365796358892.000257519355728-1.526855883221288.007154491859183-1.526855883221288.007154491859183l-.004302978559281-1.538391113217585c-.064466009100215-34.904889679753978-.304332171810529-104.981273403907835-.285177332809326-139.865683708776487C-1.816766982730769,139.865507462473033-1.997675185819389.000089981995188-1.997675185819389.000089981995188l-.002593994140625-2.000305175766698c47.593448544559578.061678103189479,165.706463488089867.208744173558443,211.798450492720804.2710002239819,17.377564021579019.057256412161223,52.544894306029164.067305907798072,69.932688834898727.190932715224335.000031326670069-.000140947033287,1.545487259270885.005932051020864,1.545487259270885.005932051020864l-.006912231439856,1.532440185543237c-.324877767639919,69.719190650677774-.970720793331566,210.042533955160252-1.538436889650256,279.73089599609375h0ZM279.731008285840289,279.730985978092576c-.578875428040192-69.742890748202626-1.234200297491043-210.023047358901749-1.538486707469929-279.731249249096436.000049818088883.000353252795321,1.538379895759135,1.538713848854968,1.538379895759135,1.538713848854968-38.949250925439628.064877984557825-100.445683312958863.316583179728696-139.865412666009433.281504515698543C139.865514511429865,1.820249894093649.000097030959296,1.997679093337865.000097030959296,1.997679093337865L1.99768614228924.000089981998826c.100233861439847,79.280994943896076-.354767540999092,201.347947819946057-.465803323948421,279.730682550889469-.000474752221635.000152410046212-1.531785787381523-1.5311586251064-1.531785787381523-1.5311586251064,69.708467800581275.186233468544742,210.024453468809952,1.073926733639382,279.730911254880994,1.531372070310681h0Z"/>
    </g>
  </g>
</svg>