<?xml version="1.0" encoding="UTF-8"?>
<svg id="Layer_1" xmlns="http://www.w3.org/2000/svg" xmlns:xlink="http://www.w3.org/1999/xlink" viewBox="0 0 280 280">
  <defs>
    <style>
      .cls-1 {
        stroke: #665451;
        stroke-width: 50px;
      }

      .cls-1, .cls-2 {
        fill: none;
        stroke-linecap: round;
        stroke-linejoin: round;
      }

      .cls-3 {
        fill: #fff;
      }

      .cls-2 {
        stroke: #998675;
        stroke-width: 2px;
      }
    </style>
  </defs>
  <g>
    <path d="M69.07958984375,78.03076171875c5.33642578125-2.0439453125,10.61376953125-3.1845703125,15.8310546875-3.4140625,5.212890625-.2294921875,10.11328125.4443359375,14.7021484375,2.0244140625,4.58544921875,1.580078125,8.703125,4.04296875,12.35205078125,7.390625,3.64599609375,3.345703125,6.55517578125,7.4775390625,8.7236328125,12.388671875,2.16796875,4.916015625,3.458984375,10.6875,3.87353515625,17.31640625.4140625,6.6328125-.3154296875,13.990234375-2.1875,22.076171875l-6.4912109375,34.75732421875c-.4736328125,1.5791015625-1.1640625,2.9384765625-2.0791015625,4.0751953125-.759765625.908203125-1.85205078125,1.736328125-3.28173828125,2.4873046875-1.43212890625.7509765625-3.2021484375.9814453125-5.310546875.69140625-2.25-.1865234375-4.5556640625-.4384765625-6.9111328125-.7626953125-2.3583984375-.3251953125-4.4560546875-.9306640625-6.29296875-1.814453125-1.83935546875-.884765625-3.33349609375-2.1953125-4.48291015625-3.9365234375-1.15283203125-1.7373046875-1.646484375-4.11328125-1.4833984375-7.1259765625.802734375-5.830078125,1.87109375-11.5283203125,3.20703125-17.099609375,1.3349609375-5.5673828125,2.599609375-11.30322265625,3.7919921875-17.20751953125,1.490234375-6.2421875,1.82275390625-11.4111328125.998046875-15.5078125-.8291015625-4.0966796875-2.27001953125-7.1689453125-4.32421875-9.2236328125-2.05908203125-2.052734375-4.49755859375-3.146484375-7.32275390625-3.2841796875-2.826171875-.134765625-5.62646484375.6796875-8.39697265625,2.447265625-2.77392578125,1.76953125-5.2265625,4.4326171875-7.35791015625,7.994140625-2.13671875,3.564453125-3.43798828125,7.9658203125-3.90576171875,13.2109375-1.28515625,12.0859375-2.34130859375,23.88818359375-3.1689453125,35.40380859375-.32470703125,2.3583984375-1.38720703125,4.330078125-3.1845703125,5.9140625-1.80029296875,1.5859375-3.96533203125,2.3935546875-6.4970703125,2.423828125-2.28369140625.0654296875-4.59619140625.09375-6.93310546875.0888671875-2.34033203125-.0078125-4.47119140625-.3642578125-6.39501953125-1.0703125-1.9267578125-.7099609375-3.57568359375-1.8203125-4.9462890625-3.3359375-1.373046875-1.5166015625-2.11083984375-3.7333984375-2.2119140625-6.658203125,1.33251953125-19.78955078125,3.451171875-39.75634765625,6.3525390625-59.90185546875,2.89892578125-20.1435546875,6.50439453125-40.3505859375,10.8115234375-60.6162109375.31103515625-1.34765625.7080078125-2.6201171875,1.19091796875-3.8193359375.47802734375-1.1953125,1.12890625-2.244140625,1.9501953125-3.14453125.81640625-.8984375,1.85400390625-1.5458984375,3.111328125-1.9423828125,1.25390625-.3955078125,2.814453125-.46484375,4.6748046875-.208984375,1.59326171875.3466796875,3.5302734375.7412109375,5.81103515625,1.1796875,2.27685546875.44140625,4.416015625.986328125,6.41162109375,1.640625s3.650390625,1.4833984375,4.96728515625,2.486328125c1.3134765625,1.00390625,1.87060546875,2.248046875,1.66552734375,3.7373046875-2.73046875,13.4052734375-5.1513671875,26.8525390625-7.26123046875,40.33984375Z"/>
    <a xlink:href="https://www.notion.so/congruence/hypothesis-f8e01f142f324c2b8a2aaf7e4944f125?pvs=4">
      <path d="M159.7509765625,130.974609375c1.54296875,1.2890625,2.7998046875,2.76171875,3.7685546875,4.4150390625.96875,1.65625,1.7216796875,3.4130859375,2.26171875,5.271484375.537109375,1.859375.888671875,3.7900390625,1.0556640625,5.7939453125.1630859375,2.00390625.2138671875,4,.1484375,5.9853515625-.0302734375,3.9462890625-.3408203125,7.888671875-.927734375,11.830078125-.58984375,3.9423828125-1.33984375,7.8798828125-2.25,11.810546875-.287109375,1.1123046875-.5361328125,2.0224609375-.7509765625,2.728515625-.2158203125.70703125-.486328125,1.2646484375-.8115234375,1.6728515625-.3271484375.408203125-.7392578125.7080078125-1.236328125.9013671875-.4990234375.1923828125-1.1728515625.3310546875-2.0244140625.4169921875-.783203125-.04296875-1.595703125-.1142578125-2.4375-.2119140625-.84375-.1005859375-1.5830078125-.4599609375-2.21875-1.0810546875-.5986328125-.5673828125-1.03125-1.4326171875-1.2939453125-2.59375-.265625-1.1611328125-.244140625-2.7607421875.0615234375-4.798828125l.1171875-.6767578125c-1.10546875-.3310546875-2.427734375-.6748046875-3.96875-1.03515625-1.541015625-.3583984375-3.1220703125-.6904296875-4.7421875-.994140625-1.6220703125-.302734375-3.1884765625-.5859375-4.69873046875-.8466796875-1.5126953125-.26171875-2.7861328125-.4814453125-3.82421875-.6611328125-.1162109375.3984375-.2890625,1.0654296875-.52001953125,2.001953125-.23193359375.935546875-.54248046875,1.8583984375-.93115234375,2.7666015625-.39111328125.908203125-.8427734375,1.7138671875-1.359375,2.4140625-.5166015625.701171875-1.11669921875,1.015625-1.80029296875.943359375-.640625-.064453125-1.3701171875-.1435546875-2.1904296875-.23828125-.81884765625-.0966796875-1.59375-.322265625-2.322265625-.6806640625-.73681640625-.3115234375-1.31689453125-.78515625-1.74169921875-1.4169921875-.4248046875-.6298828125-.56005859375-1.5361328125-.4013671875-2.7177734375.2421875-1.3974609375.54052734375-2.9970703125.8974609375-4.7939453125.357421875-1.796875.78662109375-3.744140625,1.2890625-5.841796875.39404296875-1.7451171875.875-3.6484375,1.4404296875-5.7119140625.56591796875-2.0634765625,1.2314453125-4.1669921875,1.99609375-6.3125.76611328125-2.14453125,1.6455078125-4.26953125,2.63671875-6.3759765625.99072265625-2.10546875,2.12060546875-4.0712890625,3.3896484375-5.8974609375,1.26708984375-1.8251953125,2.677734375-3.4638671875,4.22998046875-4.9150390625,1.55078125-1.451171875,3.3056640625-2.5888671875,5.259765625-3.4130859375,2.3017578125-.9501953125,4.6943359375-1.2099609375,7.17578125-.78125,2.482421875.4287109375,4.7236328125,1.443359375,6.7236328125,3.0439453125ZM137.98046875,158.9306640625c2.8818359375.265625,5.7431640625.5859375,8.5830078125.9599609375,2.8388671875.375,5.6728515625.853515625,8.5009765625,1.4345703125.6884765625-3.1806640625,1.048828125-6.068359375,1.0791015625-8.6669921875.0302734375-2.5966796875-.166015625-4.826171875-.5869140625-6.6884765625-.4228515625-1.861328125-1.0498046875-3.341796875-1.8818359375-4.4384765625-.833984375-1.095703125-1.7685546875-1.734375-2.806640625-1.9140625-.9033203125-.15625-1.919921875.1455078125-3.0478515625.90234375-1.130859375.7578125-2.2685546875,1.955078125-3.41015625,3.59375-1.1435546875,1.638671875-2.279296875,3.7080078125-3.408203125,6.20703125-1.12890625,2.5009765625-2.13671875,5.37109375-3.021484375,8.6103515625Z"/>
    </a>
  </g>
  <g>
    <path class="cls-1" d="M69.07958984375,78.03076171875c5.33642578125-2.0439453125,10.61376953125-3.1845703125,15.8310546875-3.4140625,5.212890625-.2294921875,10.11328125.4443359375,14.7021484375,2.0244140625,4.58544921875,1.580078125,8.703125,4.04296875,12.35205078125,7.390625,3.64599609375,3.345703125,6.55517578125,7.4775390625,8.7236328125,12.388671875,2.16796875,4.916015625,3.458984375,10.6875,3.87353515625,17.31640625.4140625,6.6328125-.3154296875,13.990234375-2.1875,22.076171875l-6.4912109375,34.75732421875c-.4736328125,1.5791015625-1.1640625,2.9384765625-2.0791015625,4.0751953125-.759765625.908203125-1.85205078125,1.736328125-3.28173828125,2.4873046875-1.43212890625.7509765625-3.2021484375.9814453125-5.310546875.69140625-2.25-.1865234375-4.5556640625-.4384765625-6.9111328125-.7626953125-2.3583984375-.3251953125-4.4560546875-.9306640625-6.29296875-1.814453125-1.83935546875-.884765625-3.33349609375-2.1953125-4.48291015625-3.9365234375-1.15283203125-1.7373046875-1.646484375-4.11328125-1.4833984375-7.1259765625.802734375-5.830078125,1.87109375-11.5283203125,3.20703125-17.099609375,1.3349609375-5.5673828125,2.599609375-11.30322265625,3.7919921875-17.20751953125,1.490234375-6.2421875,1.82275390625-11.4111328125.998046875-15.5078125-.8291015625-4.0966796875-2.27001953125-7.1689453125-4.32421875-9.2236328125-2.05908203125-2.052734375-4.49755859375-3.146484375-7.32275390625-3.2841796875-2.826171875-.134765625-5.62646484375.6796875-8.39697265625,2.447265625-2.77392578125,1.76953125-5.2265625,4.4326171875-7.35791015625,7.994140625-2.13671875,3.564453125-3.43798828125,7.9658203125-3.90576171875,13.2109375-1.28515625,12.0859375-2.34130859375,23.88818359375-3.1689453125,35.40380859375-.32470703125,2.3583984375-1.38720703125,4.330078125-3.1845703125,5.9140625-1.80029296875,1.5859375-3.96533203125,2.3935546875-6.4970703125,2.423828125-2.28369140625.0654296875-4.59619140625.09375-6.93310546875.0888671875-2.34033203125-.0078125-4.47119140625-.3642578125-6.39501953125-1.0703125-1.9267578125-.7099609375-3.57568359375-1.8203125-4.9462890625-3.3359375-1.373046875-1.5166015625-2.11083984375-3.7333984375-2.2119140625-6.658203125,1.33251953125-19.78955078125,3.451171875-39.75634765625,6.3525390625-59.90185546875,2.89892578125-20.1435546875,6.50439453125-40.3505859375,10.8115234375-60.6162109375.31103515625-1.34765625.7080078125-2.6201171875,1.19091796875-3.8193359375.47802734375-1.1953125,1.12890625-2.244140625,1.9501953125-3.14453125.81640625-.8984375,1.85400390625-1.5458984375,3.111328125-1.9423828125,1.25390625-.3955078125,2.814453125-.46484375,4.6748046875-.208984375,1.59326171875.3466796875,3.5302734375.7412109375,5.81103515625,1.1796875,2.27685546875.44140625,4.416015625.986328125,6.41162109375,1.640625s3.650390625,1.4833984375,4.96728515625,2.486328125c1.3134765625,1.00390625,1.87060546875,2.248046875,1.66552734375,3.7373046875-2.73046875,13.4052734375-5.1513671875,26.8525390625-7.26123046875,40.33984375Z"/>
    <a xlink:href="https://www.notion.so/congruence/hypothesis-f8e01f142f324c2b8a2aaf7e4944f125?pvs=4">
      <path class="cls-1" d="M159.7509765625,130.974609375c1.54296875,1.2890625,2.7998046875,2.76171875,3.7685546875,4.4150390625.96875,1.65625,1.7216796875,3.4130859375,2.26171875,5.271484375.537109375,1.859375.888671875,3.7900390625,1.0556640625,5.7939453125.1630859375,2.00390625.2138671875,4,.1484375,5.9853515625-.0302734375,3.9462890625-.3408203125,7.888671875-.927734375,11.830078125-.58984375,3.9423828125-1.33984375,7.8798828125-2.25,11.810546875-.287109375,1.1123046875-.5361328125,2.0224609375-.7509765625,2.728515625-.2158203125.70703125-.486328125,1.2646484375-.8115234375,1.6728515625-.3271484375.408203125-.7392578125.7080078125-1.236328125.9013671875-.4990234375.1923828125-1.1728515625.3310546875-2.0244140625.4169921875-.783203125-.04296875-1.595703125-.1142578125-2.4375-.2119140625-.84375-.1005859375-1.5830078125-.4599609375-2.21875-1.0810546875-.5986328125-.5673828125-1.03125-1.4326171875-1.2939453125-2.59375-.265625-1.1611328125-.244140625-2.7607421875.0615234375-4.798828125l.1171875-.6767578125c-1.10546875-.3310546875-2.427734375-.6748046875-3.96875-1.03515625-1.541015625-.3583984375-3.1220703125-.6904296875-4.7421875-.994140625-1.6220703125-.302734375-3.1884765625-.5859375-4.69873046875-.8466796875-1.5126953125-.26171875-2.7861328125-.4814453125-3.82421875-.6611328125-.1162109375.3984375-.2890625,1.0654296875-.52001953125,2.001953125-.23193359375.935546875-.54248046875,1.8583984375-.93115234375,2.7666015625-.39111328125.908203125-.8427734375,1.7138671875-1.359375,2.4140625-.5166015625.701171875-1.11669921875,1.015625-1.80029296875.943359375-.640625-.064453125-1.3701171875-.1435546875-2.1904296875-.23828125-.81884765625-.0966796875-1.59375-.322265625-2.322265625-.6806640625-.73681640625-.3115234375-1.31689453125-.78515625-1.74169921875-1.4169921875-.4248046875-.6298828125-.56005859375-1.5361328125-.4013671875-2.7177734375.2421875-1.3974609375.54052734375-2.9970703125.8974609375-4.7939453125.357421875-1.796875.78662109375-3.744140625,1.2890625-5.841796875.39404296875-1.7451171875.875-3.6484375,1.4404296875-5.7119140625.56591796875-2.0634765625,1.2314453125-4.1669921875,1.99609375-6.3125.76611328125-2.14453125,1.6455078125-4.26953125,2.63671875-6.3759765625.99072265625-2.10546875,2.12060546875-4.0712890625,3.3896484375-5.8974609375,1.26708984375-1.8251953125,2.677734375-3.4638671875,4.22998046875-4.9150390625,1.55078125-1.451171875,3.3056640625-2.5888671875,5.259765625-3.4130859375,2.3017578125-.9501953125,4.6943359375-1.2099609375,7.17578125-.78125,2.482421875.4287109375,4.7236328125,1.443359375,6.7236328125,3.0439453125ZM137.98046875,158.9306640625c2.8818359375.265625,5.7431640625.5859375,8.5830078125.9599609375,2.8388671875.375,5.6728515625.853515625,8.5009765625,1.4345703125.6884765625-3.1806640625,1.048828125-6.068359375,1.0791015625-8.6669921875.0302734375-2.5966796875-.166015625-4.826171875-.5869140625-6.6884765625-.4228515625-1.861328125-1.0498046875-3.341796875-1.8818359375-4.4384765625-.833984375-1.095703125-1.7685546875-1.734375-2.806640625-1.9140625-.9033203125-.15625-1.919921875.1455078125-3.0478515625.90234375-1.130859375.7578125-2.2685546875,1.955078125-3.41015625,3.59375-1.1435546875,1.638671875-2.279296875,3.7080078125-3.408203125,6.20703125-1.12890625,2.5009765625-2.13671875,5.37109375-3.021484375,8.6103515625Z"/>
    </a>
  </g>
  <g>
    <path class="cls-2" d="M69.07958984375,78.03076171875c5.33642578125-2.0439453125,10.61376953125-3.1845703125,15.8310546875-3.4140625,5.212890625-.2294921875,10.11328125.4443359375,14.7021484375,2.0244140625,4.58544921875,1.580078125,8.703125,4.04296875,12.35205078125,7.390625,3.64599609375,3.345703125,6.55517578125,7.4775390625,8.7236328125,12.388671875,2.16796875,4.916015625,3.458984375,10.6875,3.87353515625,17.31640625.4140625,6.6328125-.3154296875,13.990234375-2.1875,22.076171875l-6.4912109375,34.75732421875c-.4736328125,1.5791015625-1.1640625,2.9384765625-2.0791015625,4.0751953125-.759765625.908203125-1.85205078125,1.736328125-3.28173828125,2.4873046875-1.43212890625.7509765625-3.2021484375.9814453125-5.310546875.69140625-2.25-.1865234375-4.5556640625-.4384765625-6.9111328125-.7626953125-2.3583984375-.3251953125-4.4560546875-.9306640625-6.29296875-1.814453125-1.83935546875-.884765625-3.33349609375-2.1953125-4.48291015625-3.9365234375-1.15283203125-1.7373046875-1.646484375-4.11328125-1.4833984375-7.1259765625.802734375-5.830078125,1.87109375-11.5283203125,3.20703125-17.099609375,1.3349609375-5.5673828125,2.599609375-11.30322265625,3.7919921875-17.20751953125,1.490234375-6.2421875,1.82275390625-11.4111328125.998046875-15.5078125-.8291015625-4.0966796875-2.27001953125-7.1689453125-4.32421875-9.2236328125-2.05908203125-2.052734375-4.49755859375-3.146484375-7.32275390625-3.2841796875-2.826171875-.134765625-5.62646484375.6796875-8.39697265625,2.447265625-2.77392578125,1.76953125-5.2265625,4.4326171875-7.35791015625,7.994140625-2.13671875,3.564453125-3.43798828125,7.9658203125-3.90576171875,13.2109375-1.28515625,12.0859375-2.34130859375,23.88818359375-3.1689453125,35.40380859375-.32470703125,2.3583984375-1.38720703125,4.330078125-3.1845703125,5.9140625-1.80029296875,1.5859375-3.96533203125,2.3935546875-6.4970703125,2.423828125-2.28369140625.0654296875-4.59619140625.09375-6.93310546875.0888671875-2.34033203125-.0078125-4.47119140625-.3642578125-6.39501953125-1.0703125-1.9267578125-.7099609375-3.57568359375-1.8203125-4.9462890625-3.3359375-1.373046875-1.5166015625-2.11083984375-3.7333984375-2.2119140625-6.658203125,1.33251953125-19.78955078125,3.451171875-39.75634765625,6.3525390625-59.90185546875,2.89892578125-20.1435546875,6.50439453125-40.3505859375,10.8115234375-60.6162109375.31103515625-1.34765625.7080078125-2.6201171875,1.19091796875-3.8193359375.47802734375-1.1953125,1.12890625-2.244140625,1.9501953125-3.14453125.81640625-.8984375,1.85400390625-1.5458984375,3.111328125-1.9423828125,1.25390625-.3955078125,2.814453125-.46484375,4.6748046875-.208984375,1.59326171875.3466796875,3.5302734375.7412109375,5.81103515625,1.1796875,2.27685546875.44140625,4.416015625.986328125,6.41162109375,1.640625s3.650390625,1.4833984375,4.96728515625,2.486328125c1.3134765625,1.00390625,1.87060546875,2.248046875,1.66552734375,3.7373046875-2.73046875,13.4052734375-5.1513671875,26.8525390625-7.26123046875,40.33984375Z"/>
    <a xlink:href="https://www.notion.so/congruence/hypothesis-f8e01f142f324c2b8a2aaf7e4944f125?pvs=4">
      <path class="cls-2" d="M159.7509765625,130.974609375c1.54296875,1.2890625,2.7998046875,2.76171875,3.7685546875,4.4150390625.96875,1.65625,1.7216796875,3.4130859375,2.26171875,5.271484375.537109375,1.859375.888671875,3.7900390625,1.0556640625,5.7939453125.1630859375,2.00390625.2138671875,4,.1484375,5.9853515625-.0302734375,3.9462890625-.3408203125,7.888671875-.927734375,11.830078125-.58984375,3.9423828125-1.33984375,7.8798828125-2.25,11.810546875-.287109375,1.1123046875-.5361328125,2.0224609375-.7509765625,2.728515625-.2158203125.70703125-.486328125,1.2646484375-.8115234375,1.6728515625-.3271484375.408203125-.7392578125.7080078125-1.236328125.9013671875-.4990234375.1923828125-1.1728515625.3310546875-2.0244140625.4169921875-.783203125-.04296875-1.595703125-.1142578125-2.4375-.2119140625-.84375-.1005859375-1.5830078125-.4599609375-2.21875-1.0810546875-.5986328125-.5673828125-1.03125-1.4326171875-1.2939453125-2.59375-.265625-1.1611328125-.244140625-2.7607421875.0615234375-4.798828125l.1171875-.6767578125c-1.10546875-.3310546875-2.427734375-.6748046875-3.96875-1.03515625-1.541015625-.3583984375-3.1220703125-.6904296875-4.7421875-.994140625-1.6220703125-.302734375-3.1884765625-.5859375-4.69873046875-.8466796875-1.5126953125-.26171875-2.7861328125-.4814453125-3.82421875-.6611328125-.1162109375.3984375-.2890625,1.0654296875-.52001953125,2.001953125-.23193359375.935546875-.54248046875,1.8583984375-.93115234375,2.7666015625-.39111328125.908203125-.8427734375,1.7138671875-1.359375,2.4140625-.5166015625.701171875-1.11669921875,1.015625-1.80029296875.943359375-.640625-.064453125-1.3701171875-.1435546875-2.1904296875-.23828125-.81884765625-.0966796875-1.59375-.322265625-2.322265625-.6806640625-.73681640625-.3115234375-1.31689453125-.78515625-1.74169921875-1.4169921875-.4248046875-.6298828125-.56005859375-1.5361328125-.4013671875-2.7177734375.2421875-1.3974609375.54052734375-2.9970703125.8974609375-4.7939453125.357421875-1.796875.78662109375-3.744140625,1.2890625-5.841796875.39404296875-1.7451171875.875-3.6484375,1.4404296875-5.7119140625.56591796875-2.0634765625,1.2314453125-4.1669921875,1.99609375-6.3125.76611328125-2.14453125,1.6455078125-4.26953125,2.63671875-6.3759765625.99072265625-2.10546875,2.12060546875-4.0712890625,3.3896484375-5.8974609375,1.26708984375-1.8251953125,2.677734375-3.4638671875,4.22998046875-4.9150390625,1.55078125-1.451171875,3.3056640625-2.5888671875,5.259765625-3.4130859375,2.3017578125-.9501953125,4.6943359375-1.2099609375,7.17578125-.78125,2.482421875.4287109375,4.7236328125,1.443359375,6.7236328125,3.0439453125ZM137.98046875,158.9306640625c2.8818359375.265625,5.7431640625.5859375,8.5830078125.9599609375,2.8388671875.375,5.6728515625.853515625,8.5009765625,1.4345703125.6884765625-3.1806640625,1.048828125-6.068359375,1.0791015625-8.6669921875.0302734375-2.5966796875-.166015625-4.826171875-.5869140625-6.6884765625-.4228515625-1.861328125-1.0498046875-3.341796875-1.8818359375-4.4384765625-.833984375-1.095703125-1.7685546875-1.734375-2.806640625-1.9140625-.9033203125-.15625-1.919921875.1455078125-3.0478515625.90234375-1.130859375.7578125-2.2685546875,1.955078125-3.41015625,3.59375-1.1435546875,1.638671875-2.279296875,3.7080078125-3.408203125,6.20703125-1.12890625,2.5009765625-2.13671875,5.37109375-3.021484375,8.6103515625Z"/>
    </a>
  </g>
  <g>
    <path class="cls-3" d="M69.07958984375,78.03076171875c5.33642578125-2.0439453125,10.61376953125-3.1845703125,15.8310546875-3.4140625,5.212890625-.2294921875,10.11328125.4443359375,14.7021484375,2.0244140625,4.58544921875,1.580078125,8.703125,4.04296875,12.35205078125,7.390625,3.64599609375,3.345703125,6.55517578125,7.4775390625,8.7236328125,12.388671875,2.16796875,4.916015625,3.458984375,10.6875,3.87353515625,17.31640625.4140625,6.6328125-.3154296875,13.990234375-2.1875,22.076171875l-6.4912109375,34.75732421875c-.4736328125,1.5791015625-1.1640625,2.9384765625-2.0791015625,4.0751953125-.759765625.908203125-1.85205078125,1.736328125-3.28173828125,2.4873046875-1.43212890625.7509765625-3.2021484375.9814453125-5.310546875.69140625-2.25-.1865234375-4.5556640625-.4384765625-6.9111328125-.7626953125-2.3583984375-.3251953125-4.4560546875-.9306640625-6.29296875-1.814453125-1.83935546875-.884765625-3.33349609375-2.1953125-4.48291015625-3.9365234375-1.15283203125-1.7373046875-1.646484375-4.11328125-1.4833984375-7.1259765625.802734375-5.830078125,1.87109375-11.5283203125,3.20703125-17.099609375,1.3349609375-5.5673828125,2.599609375-11.30322265625,3.7919921875-17.20751953125,1.490234375-6.2421875,1.82275390625-11.4111328125.998046875-15.5078125-.8291015625-4.0966796875-2.27001953125-7.1689453125-4.32421875-9.2236328125-2.05908203125-2.052734375-4.49755859375-3.146484375-7.32275390625-3.2841796875-2.826171875-.134765625-5.62646484375.6796875-8.39697265625,2.447265625-2.77392578125,1.76953125-5.2265625,4.4326171875-7.35791015625,7.994140625-2.13671875,3.564453125-3.43798828125,7.9658203125-3.90576171875,13.2109375-1.28515625,12.0859375-2.34130859375,23.88818359375-3.1689453125,35.40380859375-.32470703125,2.3583984375-1.38720703125,4.330078125-3.1845703125,5.9140625-1.80029296875,1.5859375-3.96533203125,2.3935546875-6.4970703125,2.423828125-2.28369140625.0654296875-4.59619140625.09375-6.93310546875.0888671875-2.34033203125-.0078125-4.47119140625-.3642578125-6.39501953125-1.0703125-1.9267578125-.7099609375-3.57568359375-1.8203125-4.9462890625-3.3359375-1.373046875-1.5166015625-2.11083984375-3.7333984375-2.2119140625-6.658203125,1.33251953125-19.78955078125,3.451171875-39.75634765625,6.3525390625-59.90185546875,2.89892578125-20.1435546875,6.50439453125-40.3505859375,10.8115234375-60.6162109375.31103515625-1.34765625.7080078125-2.6201171875,1.19091796875-3.8193359375.47802734375-1.1953125,1.12890625-2.244140625,1.9501953125-3.14453125.81640625-.8984375,1.85400390625-1.5458984375,3.111328125-1.9423828125,1.25390625-.3955078125,2.814453125-.46484375,4.6748046875-.208984375,1.59326171875.3466796875,3.5302734375.7412109375,5.81103515625,1.1796875,2.27685546875.44140625,4.416015625.986328125,6.41162109375,1.640625s3.650390625,1.4833984375,4.96728515625,2.486328125c1.3134765625,1.00390625,1.87060546875,2.248046875,1.66552734375,3.7373046875-2.73046875,13.4052734375-5.1513671875,26.8525390625-7.26123046875,40.33984375Z"/>
    <a xlink:href="https://www.notion.so/congruence/hypothesis-f8e01f142f324c2b8a2aaf7e4944f125?pvs=4">
      <path class="cls-3" d="M159.7509765625,130.974609375c1.54296875,1.2890625,2.7998046875,2.76171875,3.7685546875,4.4150390625.96875,1.65625,1.7216796875,3.4130859375,2.26171875,5.271484375.537109375,1.859375.888671875,3.7900390625,1.0556640625,5.7939453125.1630859375,2.00390625.2138671875,4,.1484375,5.9853515625-.0302734375,3.9462890625-.3408203125,7.888671875-.927734375,11.830078125-.58984375,3.9423828125-1.33984375,7.8798828125-2.25,11.810546875-.287109375,1.1123046875-.5361328125,2.0224609375-.7509765625,2.728515625-.2158203125.70703125-.486328125,1.2646484375-.8115234375,1.6728515625-.3271484375.408203125-.7392578125.7080078125-1.236328125.9013671875-.4990234375.1923828125-1.1728515625.3310546875-2.0244140625.4169921875-.783203125-.04296875-1.595703125-.1142578125-2.4375-.2119140625-.84375-.1005859375-1.5830078125-.4599609375-2.21875-1.0810546875-.5986328125-.5673828125-1.03125-1.4326171875-1.2939453125-2.59375-.265625-1.1611328125-.244140625-2.7607421875.0615234375-4.798828125l.1171875-.6767578125c-1.10546875-.3310546875-2.427734375-.6748046875-3.96875-1.03515625-1.541015625-.3583984375-3.1220703125-.6904296875-4.7421875-.994140625-1.6220703125-.302734375-3.1884765625-.5859375-4.69873046875-.8466796875-1.5126953125-.26171875-2.7861328125-.4814453125-3.82421875-.6611328125-.1162109375.3984375-.2890625,1.0654296875-.52001953125,2.001953125-.23193359375.935546875-.54248046875,1.8583984375-.93115234375,2.7666015625-.39111328125.908203125-.8427734375,1.7138671875-1.359375,2.4140625-.5166015625.701171875-1.11669921875,1.015625-1.80029296875.943359375-.640625-.064453125-1.3701171875-.1435546875-2.1904296875-.23828125-.81884765625-.0966796875-1.59375-.322265625-2.322265625-.6806640625-.73681640625-.3115234375-1.31689453125-.78515625-1.74169921875-1.4169921875-.4248046875-.6298828125-.56005859375-1.5361328125-.4013671875-2.7177734375.2421875-1.3974609375.54052734375-2.9970703125.8974609375-4.7939453125.357421875-1.796875.78662109375-3.744140625,1.2890625-5.841796875.39404296875-1.7451171875.875-3.6484375,1.4404296875-5.7119140625.56591796875-2.0634765625,1.2314453125-4.1669921875,1.99609375-6.3125.76611328125-2.14453125,1.6455078125-4.26953125,2.63671875-6.3759765625.99072265625-2.10546875,2.12060546875-4.0712890625,3.3896484375-5.8974609375,1.26708984375-1.8251953125,2.677734375-3.4638671875,4.22998046875-4.9150390625,1.55078125-1.451171875,3.3056640625-2.5888671875,5.259765625-3.4130859375,2.3017578125-.9501953125,4.6943359375-1.2099609375,7.17578125-.78125,2.482421875.4287109375,4.7236328125,1.443359375,6.7236328125,3.0439453125ZM137.98046875,158.9306640625c2.8818359375.265625,5.7431640625.5859375,8.5830078125.9599609375,2.8388671875.375,5.6728515625.853515625,8.5009765625,1.4345703125.6884765625-3.1806640625,1.048828125-6.068359375,1.0791015625-8.6669921875.0302734375-2.5966796875-.166015625-4.826171875-.5869140625-6.6884765625-.4228515625-1.861328125-1.0498046875-3.341796875-1.8818359375-4.4384765625-.833984375-1.095703125-1.7685546875-1.734375-2.806640625-1.9140625-.9033203125-.15625-1.919921875.1455078125-3.0478515625.90234375-1.130859375.7578125-2.2685546875,1.955078125-3.41015625,3.59375-1.1435546875,1.638671875-2.279296875,3.7080078125-3.408203125,6.20703125-1.12890625,2.5009765625-2.13671875,5.37109375-3.021484375,8.6103515625Z"/>
    </a>
  </g>
</svg>