<?xml version="1.0" encoding="UTF-8"?>
<svg id="Content" xmlns="http://www.w3.org/2000/svg" xmlns:xlink="http://www.w3.org/1999/xlink" viewBox="0 0 280 280">
  <defs>
    <style>
      .cls-1 {
        stroke: #665451;
        stroke-width: 50px;
      }

      .cls-1, .cls-2 {
        fill: none;
        stroke-linecap: round;
        stroke-linejoin: round;
      }

      .cls-3 {
        fill: #fff;
      }

      .cls-2 {
        stroke: #998675;
        stroke-width: 2px;
      }
    </style>
  </defs>
  <a xlink:href="https://www.notion.so/congruence/Independent-bcf910d99ae645eea1765b259c874330?pvs=4">
    <g>
      <g>
        <a xlink:href="https://www.notion.so/congruence/B-Event-1f1a5b08a72c49f5ab60f2e0793fd0a8?pvs=4">
          <path class="cls-3" d="M79.2421875,51.72705078125c2.61328125,1.244140625,4.892578125,2.845703125,6.837890625,4.8037109375,1.9453125,1.9609375,3.625,4.138671875,5.04296875,6.537109375s2.6015625,4.96484375,3.55078125,7.697265625c.94921875,2.736328125,1.734375,5.4990234375,2.3583984375,8.2919921875,1.3720703125,5.5107421875,2.3544921875,11.119140625,2.9501953125,16.8251953125.59375,5.7060546875.9609375,11.4638671875,1.1015625,17.2724609375.0009765625,1.6533203125-.0205078125,3.01171875-.06640625,4.072265625-.046875,1.0634765625-.224609375,1.9375-.53125,2.623046875-.30859375.6875-.7763671875,1.2529296875-1.400390625,1.701171875-.6259765625.4462890625-1.515625.8818359375-2.671875,1.3076171875-1.107421875.2216796875-2.265625.4140625-3.474609375.5791015625-1.2119140625.1630859375-2.3720703125-.0732421875-3.48046875-.7109375-1.0390625-.576171875-1.9521484375-1.626953125-2.736328125-3.1513671875-.78515625-1.5234375-1.330078125-3.76171875-1.634765625-6.712890625l-.080078125-.984375c-1.658203125-.0654296875-3.6259765625-.0693359375-5.904296875-.0185546875-2.27734375.052734375-4.599609375.158203125-6.96875.31640625-2.3671875.1591796875-4.65234375.3271484375-6.853515625.505859375-2.2021484375.1787109375-4.05859375.3291015625-5.568359375.451171875-.0185546875.595703125-.021484375,1.5888671875-.0078125,2.9765625s-.0888671875,2.78515625-.3046875,4.19140625c-.21875,1.4072265625-.560546875,2.6923828125-1.02734375,3.853515625-.46875,1.1630859375-1.1923828125,1.8154296875-2.171875,1.9619140625-.916015625.138671875-1.9609375.291015625-3.138671875.453125-1.177734375.16015625-2.337890625.1220703125-3.482421875-.1142578125-1.138671875-.171875-2.1171875-.6240234375-2.935546875-1.3505859375-.8203125-.7275390625-1.33203125-1.9404296875-1.5361328125-3.6455078125-.1650390625-2.0361328125-.3212890625-4.3720703125-.46875-7.005859375-.1474609375-2.6318359375-.2470703125-5.501953125-.2998046875-8.6064453125-.0771484375-2.57421875-.08984375-5.3994140625-.0419921875-8.4794921875.0478515625-3.0791015625.220703125-6.2509765625.5185546875-9.515625.296875-3.265625.759765625-6.544921875,1.3857421875-9.8359375s1.4951171875-6.4365234375,2.6083984375-9.4375c1.111328125-3,2.490234375-5.7900390625,4.1337890625-8.37109375,1.6416015625-2.5791015625,3.6787109375-4.794921875,6.1083984375-6.646484375,2.8671875-2.1484375,6.109375-3.3720703125,9.72265625-3.6640625,3.61328125-.29296875,7.1025390625.3173828125,10.466796875,1.830078125ZM58.9248046875,98.51318359375c4.11328125-.6630859375,8.2158203125-1.2431640625,12.3095703125-1.740234375,4.0927734375-.4970703125,8.21484375-.84765625,12.365234375-1.0517578125-.1796875-4.6806640625-.7158203125-8.8359375-1.60546875-12.4697265625-.888671875-3.630859375-1.962890625-6.6689453125-3.21875-9.115234375-1.255859375-2.443359375-2.662109375-4.28125-4.216796875-5.5107421875s-3.087890625-1.783203125-4.59765625-1.6611328125c-1.3154296875.1064453125-2.6240234375.890625-3.927734375,2.3515625-1.3046875,1.4619140625-2.4580078125,3.541015625-3.462890625,6.2333984375-1.005859375,2.6943359375-1.8466796875,5.9873046875-2.5234375,9.876953125-.67578125,3.8916015625-1.0517578125,8.2548828125-1.1220703125,13.0869140625Z"/>
        </a>
        <a xlink:href="https://www.notion.so/congruence/B-Event-1f1a5b08a72c49f5ab60f2e0793fd0a8?pvs=4">
          <path class="cls-3" d="M217.125,76.515625c3.0712890625,2,5.4482421875,4.603515625,7.1298828125,7.8056640625,1.681640625,3.2041015625,2.4033203125,6.6005859375,2.1650390625,10.19140625-.2666015625,4.0576171875-1.5703125,7.552734375-3.912109375,10.4853515625-2.341796875,2.935546875-5.1904296875,5.3330078125-8.544921875,7.19140625-3.35546875,1.859375-7.03125,3.216796875-11.029296875,4.068359375-3.9990234375.8525390625-7.7880859375,1.2265625-11.369140625,1.119140625-.318359375.158203125-.607421875.263671875-.8662109375.318359375-.2607421875.0537109375-.552734375.126953125-.8759765625.220703125-1.1767578125.16015625-2.3935546875.2587890625-3.646484375.294921875-1.25390625.03515625-2.404296875-.0869140625-3.451171875-.3662109375-1.048828125-.27734375-1.9677734375-.7978515625-2.7568359375-1.5615234375-.7900390625-.7626953125-1.3115234375-1.8935546875-1.564453125-3.3955078125-.1904296875-.7119140625-.341796875-2.1708984375-.4541015625-4.37890625-.11328125-2.205078125-.263671875-4.888671875-.453125-8.048828125-.130859375-3.228515625-.2978515625-6.7373046875-.505859375-10.5244140625-.20703125-3.7861328125-.43359375-7.5869140625-.67578125-11.4033203125-.33984375-4.9990234375-.681640625-10.0302734375-1.0244140625-15.095703125-.345703125-5.064453125-.955078125-10.1416015625-1.8291015625-15.2294921875-.1796875-.5810546875-.15625-1.111328125.0693359375-1.59375.0986328125-.404296875.3642578125-.8056640625.7958984375-1.205078125.4296875-.3974609375,1.099609375-.7001953125,2.009765625-.90625.650390625-.119140625,1.3662109375-.2763671875,2.14453125-.4716796875.77734375-.1953125,1.58984375-.3603515625,2.439453125-.4951171875.84765625-.1337890625,1.669921875-.2001953125,2.4638671875-.2001953125.7939453125.001953125,1.4951171875.078125,2.1025390625.2255859375,3.314453125-.7294921875,6.826171875-1.03125,10.541015625-.90234375s7.251953125.71875,10.6103515625,1.76953125c3.359375,1.05078125,6.3271484375,2.5791015625,8.9033203125,4.5859375,2.5771484375,2.0087890625,4.388671875,4.556640625,5.431640625,7.6455078125.439453125,1.353515625.75390625,2.783203125.9423828125,4.2880859375.1875,1.5078125.1513671875,3.0810546875-.1123046875,4.72265625-.265625,1.642578125-.76953125,3.37109375-1.515625,5.181640625-.74609375,1.814453125-1.80078125,3.703125-3.162109375,5.6640625ZM191.02734375,72.7763671875c3.1650390625-.123046875,5.798828125-.6689453125,7.904296875-1.6318359375,2.103515625-.96484375,3.646484375-2.130859375,4.626953125-3.5.98046875-1.3701171875,1.392578125-2.8076171875,1.23828125-4.3173828125-.1572265625-1.5078125-.83984375-2.8095703125-2.0537109375-3.9013671875s-2.9619140625-1.8583984375-5.2451171875-2.302734375c-2.28515625-.443359375-5.1181640625-.2958984375-8.4970703125.4404296875.4052734375,2.5458984375.7578125,5.064453125,1.05859375,7.552734375.30078125,2.490234375.6220703125,5.0439453125.9677734375,7.66015625ZM193.638671875,101.3349609375c3.580078125.107421875,6.556640625-.298828125,8.9296875-1.21875,2.37109375-.9189453125,4.115234375-2.052734375,5.23046875-3.400390625,1.1142578125-1.345703125,1.62890625-2.7431640625,1.544921875-4.193359375-.0849609375-1.447265625-.759765625-2.6494140625-2.02734375-3.60546875-1.2685546875-.955078125-3.1337890625-1.5146484375-5.59375-1.6796875-2.4609375-.1630859375-5.49609375.330078125-9.10546875,1.482421875l1.021484375,12.615234375Z"/>
        </a>
      </g>
      <g>
        <a xlink:href="https://www.notion.so/congruence/B-Event-1f1a5b08a72c49f5ab60f2e0793fd0a8?pvs=4">
          <g>
            <path class="cls-1" d="M79.2421875,51.72705078125c2.61328125,1.244140625,4.892578125,2.845703125,6.837890625,4.8037109375,1.9453125,1.9609375,3.625,4.138671875,5.04296875,6.537109375s2.6015625,4.96484375,3.55078125,7.697265625c.94921875,2.736328125,1.734375,5.4990234375,2.3583984375,8.2919921875,1.3720703125,5.5107421875,2.3544921875,11.119140625,2.9501953125,16.8251953125.59375,5.7060546875.9609375,11.4638671875,1.1015625,17.2724609375.0009765625,1.6533203125-.0205078125,3.01171875-.06640625,4.072265625-.046875,1.0634765625-.224609375,1.9375-.53125,2.623046875-.30859375.6875-.7763671875,1.2529296875-1.400390625,1.701171875-.6259765625.4462890625-1.515625.8818359375-2.671875,1.3076171875-1.107421875.2216796875-2.265625.4140625-3.474609375.5791015625-1.2119140625.1630859375-2.3720703125-.0732421875-3.48046875-.7109375-1.0390625-.576171875-1.9521484375-1.626953125-2.736328125-3.1513671875-.78515625-1.5234375-1.330078125-3.76171875-1.634765625-6.712890625l-.080078125-.984375c-1.658203125-.0654296875-3.6259765625-.0693359375-5.904296875-.0185546875-2.27734375.052734375-4.599609375.158203125-6.96875.31640625-2.3671875.1591796875-4.65234375.3271484375-6.853515625.505859375-2.2021484375.1787109375-4.05859375.3291015625-5.568359375.451171875-.0185546875.595703125-.021484375,1.5888671875-.0078125,2.9765625s-.0888671875,2.78515625-.3046875,4.19140625c-.21875,1.4072265625-.560546875,2.6923828125-1.02734375,3.853515625-.46875,1.1630859375-1.1923828125,1.8154296875-2.171875,1.9619140625-.916015625.138671875-1.9609375.291015625-3.138671875.453125-1.177734375.16015625-2.337890625.1220703125-3.482421875-.1142578125-1.138671875-.171875-2.1171875-.6240234375-2.935546875-1.3505859375-.8203125-.7275390625-1.33203125-1.9404296875-1.5361328125-3.6455078125-.1650390625-2.0361328125-.3212890625-4.3720703125-.46875-7.005859375-.1474609375-2.6318359375-.2470703125-5.501953125-.2998046875-8.6064453125-.0771484375-2.57421875-.08984375-5.3994140625-.0419921875-8.4794921875.0478515625-3.0791015625.220703125-6.2509765625.5185546875-9.515625.296875-3.265625.759765625-6.544921875,1.3857421875-9.8359375s1.4951171875-6.4365234375,2.6083984375-9.4375c1.111328125-3,2.490234375-5.7900390625,4.1337890625-8.37109375,1.6416015625-2.5791015625,3.6787109375-4.794921875,6.1083984375-6.646484375,2.8671875-2.1484375,6.109375-3.3720703125,9.72265625-3.6640625,3.61328125-.29296875,7.1025390625.3173828125,10.466796875,1.830078125ZM58.9248046875,98.51318359375c4.11328125-.6630859375,8.2158203125-1.2431640625,12.3095703125-1.740234375,4.0927734375-.4970703125,8.21484375-.84765625,12.365234375-1.0517578125-.1796875-4.6806640625-.7158203125-8.8359375-1.60546875-12.4697265625-.888671875-3.630859375-1.962890625-6.6689453125-3.21875-9.115234375-1.255859375-2.443359375-2.662109375-4.28125-4.216796875-5.5107421875s-3.087890625-1.783203125-4.59765625-1.6611328125c-1.3154296875.1064453125-2.6240234375.890625-3.927734375,2.3515625-1.3046875,1.4619140625-2.4580078125,3.541015625-3.462890625,6.2333984375-1.005859375,2.6943359375-1.8466796875,5.9873046875-2.5234375,9.876953125-.67578125,3.8916015625-1.0517578125,8.2548828125-1.1220703125,13.0869140625Z"/>
            <path class="cls-1" d="M79.2421875,51.72705078125c2.61328125,1.244140625,4.892578125,2.845703125,6.837890625,4.8037109375,1.9453125,1.9609375,3.625,4.138671875,5.04296875,6.537109375s2.6015625,4.96484375,3.55078125,7.697265625c.94921875,2.736328125,1.734375,5.4990234375,2.3583984375,8.2919921875,1.3720703125,5.5107421875,2.3544921875,11.119140625,2.9501953125,16.8251953125.59375,5.7060546875.9609375,11.4638671875,1.1015625,17.2724609375.0009765625,1.6533203125-.0205078125,3.01171875-.06640625,4.072265625-.046875,1.0634765625-.224609375,1.9375-.53125,2.623046875-.30859375.6875-.7763671875,1.2529296875-1.400390625,1.701171875-.6259765625.4462890625-1.515625.8818359375-2.671875,1.3076171875-1.107421875.2216796875-2.265625.4140625-3.474609375.5791015625-1.2119140625.1630859375-2.3720703125-.0732421875-3.48046875-.7109375-1.0390625-.576171875-1.9521484375-1.626953125-2.736328125-3.1513671875-.78515625-1.5234375-1.330078125-3.76171875-1.634765625-6.712890625l-.080078125-.984375c-1.658203125-.0654296875-3.6259765625-.0693359375-5.904296875-.0185546875-2.27734375.052734375-4.599609375.158203125-6.96875.31640625-2.3671875.1591796875-4.65234375.3271484375-6.853515625.505859375-2.2021484375.1787109375-4.05859375.3291015625-5.568359375.451171875-.0185546875.595703125-.021484375,1.5888671875-.0078125,2.9765625s-.0888671875,2.78515625-.3046875,4.19140625c-.21875,1.4072265625-.560546875,2.6923828125-1.02734375,3.853515625-.46875,1.1630859375-1.1923828125,1.8154296875-2.171875,1.9619140625-.916015625.138671875-1.9609375.291015625-3.138671875.453125-1.177734375.16015625-2.337890625.1220703125-3.482421875-.1142578125-1.138671875-.171875-2.1171875-.6240234375-2.935546875-1.3505859375-.8203125-.7275390625-1.33203125-1.9404296875-1.5361328125-3.6455078125-.1650390625-2.0361328125-.3212890625-4.3720703125-.46875-7.005859375-.1474609375-2.6318359375-.2470703125-5.501953125-.2998046875-8.6064453125-.0771484375-2.57421875-.08984375-5.3994140625-.0419921875-8.4794921875.0478515625-3.0791015625.220703125-6.2509765625.5185546875-9.515625.296875-3.265625.759765625-6.544921875,1.3857421875-9.8359375s1.4951171875-6.4365234375,2.6083984375-9.4375c1.111328125-3,2.490234375-5.7900390625,4.1337890625-8.37109375,1.6416015625-2.5791015625,3.6787109375-4.794921875,6.1083984375-6.646484375,2.8671875-2.1484375,6.109375-3.3720703125,9.72265625-3.6640625,3.61328125-.29296875,7.1025390625.3173828125,10.466796875,1.830078125ZM58.9248046875,98.51318359375c4.11328125-.6630859375,8.2158203125-1.2431640625,12.3095703125-1.740234375,4.0927734375-.4970703125,8.21484375-.84765625,12.365234375-1.0517578125-.1796875-4.6806640625-.7158203125-8.8359375-1.60546875-12.4697265625-.888671875-3.630859375-1.962890625-6.6689453125-3.21875-9.115234375-1.255859375-2.443359375-2.662109375-4.28125-4.216796875-5.5107421875s-3.087890625-1.783203125-4.59765625-1.6611328125c-1.3154296875.1064453125-2.6240234375.890625-3.927734375,2.3515625-1.3046875,1.4619140625-2.4580078125,3.541015625-3.462890625,6.2333984375-1.005859375,2.6943359375-1.8466796875,5.9873046875-2.5234375,9.876953125-.67578125,3.8916015625-1.0517578125,8.2548828125-1.1220703125,13.0869140625Z"/>
            <path class="cls-1" d="M79.2421875,51.72705078125c2.61328125,1.244140625,4.892578125,2.845703125,6.837890625,4.8037109375,1.9453125,1.9609375,3.625,4.138671875,5.04296875,6.537109375s2.6015625,4.96484375,3.55078125,7.697265625c.94921875,2.736328125,1.734375,5.4990234375,2.3583984375,8.2919921875,1.3720703125,5.5107421875,2.3544921875,11.119140625,2.9501953125,16.8251953125.59375,5.7060546875.9609375,11.4638671875,1.1015625,17.2724609375.0009765625,1.6533203125-.0205078125,3.01171875-.06640625,4.072265625-.046875,1.0634765625-.224609375,1.9375-.53125,2.623046875-.30859375.6875-.7763671875,1.2529296875-1.400390625,1.701171875-.6259765625.4462890625-1.515625.8818359375-2.671875,1.3076171875-1.107421875.2216796875-2.265625.4140625-3.474609375.5791015625-1.2119140625.1630859375-2.3720703125-.0732421875-3.48046875-.7109375-1.0390625-.576171875-1.9521484375-1.626953125-2.736328125-3.1513671875-.78515625-1.5234375-1.330078125-3.76171875-1.634765625-6.712890625l-.080078125-.984375c-1.658203125-.0654296875-3.6259765625-.0693359375-5.904296875-.0185546875-2.27734375.052734375-4.599609375.158203125-6.96875.31640625-2.3671875.1591796875-4.65234375.3271484375-6.853515625.505859375-2.2021484375.1787109375-4.05859375.3291015625-5.568359375.451171875-.0185546875.595703125-.021484375,1.5888671875-.0078125,2.9765625s-.0888671875,2.78515625-.3046875,4.19140625c-.21875,1.4072265625-.560546875,2.6923828125-1.02734375,3.853515625-.46875,1.1630859375-1.1923828125,1.8154296875-2.171875,1.9619140625-.916015625.138671875-1.9609375.291015625-3.138671875.453125-1.177734375.16015625-2.337890625.1220703125-3.482421875-.1142578125-1.138671875-.171875-2.1171875-.6240234375-2.935546875-1.3505859375-.8203125-.7275390625-1.33203125-1.9404296875-1.5361328125-3.6455078125-.1650390625-2.0361328125-.3212890625-4.3720703125-.46875-7.005859375-.1474609375-2.6318359375-.2470703125-5.501953125-.2998046875-8.6064453125-.0771484375-2.57421875-.08984375-5.3994140625-.0419921875-8.4794921875.0478515625-3.0791015625.220703125-6.2509765625.5185546875-9.515625.296875-3.265625.759765625-6.544921875,1.3857421875-9.8359375s1.4951171875-6.4365234375,2.6083984375-9.4375c1.111328125-3,2.490234375-5.7900390625,4.1337890625-8.37109375,1.6416015625-2.5791015625,3.6787109375-4.794921875,6.1083984375-6.646484375,2.8671875-2.1484375,6.109375-3.3720703125,9.72265625-3.6640625,3.61328125-.29296875,7.1025390625.3173828125,10.466796875,1.830078125ZM58.9248046875,98.51318359375c4.11328125-.6630859375,8.2158203125-1.2431640625,12.3095703125-1.740234375,4.0927734375-.4970703125,8.21484375-.84765625,12.365234375-1.0517578125-.1796875-4.6806640625-.7158203125-8.8359375-1.60546875-12.4697265625-.888671875-3.630859375-1.962890625-6.6689453125-3.21875-9.115234375-1.255859375-2.443359375-2.662109375-4.28125-4.216796875-5.5107421875s-3.087890625-1.783203125-4.59765625-1.6611328125c-1.3154296875.1064453125-2.6240234375.890625-3.927734375,2.3515625-1.3046875,1.4619140625-2.4580078125,3.541015625-3.462890625,6.2333984375-1.005859375,2.6943359375-1.8466796875,5.9873046875-2.5234375,9.876953125-.67578125,3.8916015625-1.0517578125,8.2548828125-1.1220703125,13.0869140625Z"/>
          </g>
        </a>
        <a xlink:href="https://www.notion.so/congruence/B-Event-1f1a5b08a72c49f5ab60f2e0793fd0a8?pvs=4">
          <g>
            <path class="cls-1" d="M217.125,76.515625c3.0712890625,2,5.4482421875,4.603515625,7.1298828125,7.8056640625,1.681640625,3.2041015625,2.4033203125,6.6005859375,2.1650390625,10.19140625-.2666015625,4.0576171875-1.5703125,7.552734375-3.912109375,10.4853515625-2.341796875,2.935546875-5.1904296875,5.3330078125-8.544921875,7.19140625-3.35546875,1.859375-7.03125,3.216796875-11.029296875,4.068359375-3.9990234375.8525390625-7.7880859375,1.2265625-11.369140625,1.119140625-.318359375.158203125-.607421875.263671875-.8662109375.318359375-.2607421875.0537109375-.552734375.126953125-.8759765625.220703125-1.1767578125.16015625-2.3935546875.2587890625-3.646484375.294921875-1.25390625.03515625-2.404296875-.0869140625-3.451171875-.3662109375-1.048828125-.27734375-1.9677734375-.7978515625-2.7568359375-1.5615234375-.7900390625-.7626953125-1.3115234375-1.8935546875-1.564453125-3.3955078125-.1904296875-.7119140625-.341796875-2.1708984375-.4541015625-4.37890625-.11328125-2.205078125-.263671875-4.888671875-.453125-8.048828125-.130859375-3.228515625-.2978515625-6.7373046875-.505859375-10.5244140625-.20703125-3.7861328125-.43359375-7.5869140625-.67578125-11.4033203125-.33984375-4.9990234375-.681640625-10.0302734375-1.0244140625-15.095703125-.345703125-5.064453125-.955078125-10.1416015625-1.8291015625-15.2294921875-.1796875-.5810546875-.15625-1.111328125.0693359375-1.59375.0986328125-.404296875.3642578125-.8056640625.7958984375-1.205078125.4296875-.3974609375,1.099609375-.7001953125,2.009765625-.90625.650390625-.119140625,1.3662109375-.2763671875,2.14453125-.4716796875.77734375-.1953125,1.58984375-.3603515625,2.439453125-.4951171875.84765625-.1337890625,1.669921875-.2001953125,2.4638671875-.2001953125.7939453125.001953125,1.4951171875.078125,2.1025390625.2255859375,3.314453125-.7294921875,6.826171875-1.03125,10.541015625-.90234375s7.251953125.71875,10.6103515625,1.76953125c3.359375,1.05078125,6.3271484375,2.5791015625,8.9033203125,4.5859375,2.5771484375,2.0087890625,4.388671875,4.556640625,5.431640625,7.6455078125.439453125,1.353515625.75390625,2.783203125.9423828125,4.2880859375.1875,1.5078125.1513671875,3.0810546875-.1123046875,4.72265625-.265625,1.642578125-.76953125,3.37109375-1.515625,5.181640625-.74609375,1.814453125-1.80078125,3.703125-3.162109375,5.6640625ZM191.02734375,72.7763671875c3.1650390625-.123046875,5.798828125-.6689453125,7.904296875-1.6318359375,2.103515625-.96484375,3.646484375-2.130859375,4.626953125-3.5.98046875-1.3701171875,1.392578125-2.8076171875,1.23828125-4.3173828125-.1572265625-1.5078125-.83984375-2.8095703125-2.0537109375-3.9013671875s-2.9619140625-1.8583984375-5.2451171875-2.302734375c-2.28515625-.443359375-5.1181640625-.2958984375-8.4970703125.4404296875.4052734375,2.5458984375.7578125,5.064453125,1.05859375,7.552734375.30078125,2.490234375.6220703125,5.0439453125.9677734375,7.66015625ZM193.638671875,101.3349609375c3.580078125.107421875,6.556640625-.298828125,8.9296875-1.21875,2.37109375-.9189453125,4.115234375-2.052734375,5.23046875-3.400390625,1.1142578125-1.345703125,1.62890625-2.7431640625,1.544921875-4.193359375-.0849609375-1.447265625-.759765625-2.6494140625-2.02734375-3.60546875-1.2685546875-.955078125-3.1337890625-1.5146484375-5.59375-1.6796875-2.4609375-.1630859375-5.49609375.330078125-9.10546875,1.482421875l1.021484375,12.615234375Z"/>
            <path class="cls-1" d="M217.125,76.515625c3.0712890625,2,5.4482421875,4.603515625,7.1298828125,7.8056640625,1.681640625,3.2041015625,2.4033203125,6.6005859375,2.1650390625,10.19140625-.2666015625,4.0576171875-1.5703125,7.552734375-3.912109375,10.4853515625-2.341796875,2.935546875-5.1904296875,5.3330078125-8.544921875,7.19140625-3.35546875,1.859375-7.03125,3.216796875-11.029296875,4.068359375-3.9990234375.8525390625-7.7880859375,1.2265625-11.369140625,1.119140625-.318359375.158203125-.607421875.263671875-.8662109375.318359375-.2607421875.0537109375-.552734375.126953125-.8759765625.220703125-1.1767578125.16015625-2.3935546875.2587890625-3.646484375.294921875-1.25390625.03515625-2.404296875-.0869140625-3.451171875-.3662109375-1.048828125-.27734375-1.9677734375-.7978515625-2.7568359375-1.5615234375-.7900390625-.7626953125-1.3115234375-1.8935546875-1.564453125-3.3955078125-.1904296875-.7119140625-.341796875-2.1708984375-.4541015625-4.37890625-.11328125-2.205078125-.263671875-4.888671875-.453125-8.048828125-.130859375-3.228515625-.2978515625-6.7373046875-.505859375-10.5244140625-.20703125-3.7861328125-.43359375-7.5869140625-.67578125-11.4033203125-.33984375-4.9990234375-.681640625-10.0302734375-1.0244140625-15.095703125-.345703125-5.064453125-.955078125-10.1416015625-1.8291015625-15.2294921875-.1796875-.5810546875-.15625-1.111328125.0693359375-1.59375.0986328125-.404296875.3642578125-.8056640625.7958984375-1.205078125.4296875-.3974609375,1.099609375-.7001953125,2.009765625-.90625.650390625-.119140625,1.3662109375-.2763671875,2.14453125-.4716796875.77734375-.1953125,1.58984375-.3603515625,2.439453125-.4951171875.84765625-.1337890625,1.669921875-.2001953125,2.4638671875-.2001953125.7939453125.001953125,1.4951171875.078125,2.1025390625.2255859375,3.314453125-.7294921875,6.826171875-1.03125,10.541015625-.90234375s7.251953125.71875,10.6103515625,1.76953125c3.359375,1.05078125,6.3271484375,2.5791015625,8.9033203125,4.5859375,2.5771484375,2.0087890625,4.388671875,4.556640625,5.431640625,7.6455078125.439453125,1.353515625.75390625,2.783203125.9423828125,4.2880859375.1875,1.5078125.1513671875,3.0810546875-.1123046875,4.72265625-.265625,1.642578125-.76953125,3.37109375-1.515625,5.181640625-.74609375,1.814453125-1.80078125,3.703125-3.162109375,5.6640625ZM191.02734375,72.7763671875c3.1650390625-.123046875,5.798828125-.6689453125,7.904296875-1.6318359375,2.103515625-.96484375,3.646484375-2.130859375,4.626953125-3.5.98046875-1.3701171875,1.392578125-2.8076171875,1.23828125-4.3173828125-.1572265625-1.5078125-.83984375-2.8095703125-2.0537109375-3.9013671875s-2.9619140625-1.8583984375-5.2451171875-2.302734375c-2.28515625-.443359375-5.1181640625-.2958984375-8.4970703125.4404296875.4052734375,2.5458984375.7578125,5.064453125,1.05859375,7.552734375.30078125,2.490234375.6220703125,5.0439453125.9677734375,7.66015625ZM193.638671875,101.3349609375c3.580078125.107421875,6.556640625-.298828125,8.9296875-1.21875,2.37109375-.9189453125,4.115234375-2.052734375,5.23046875-3.400390625,1.1142578125-1.345703125,1.62890625-2.7431640625,1.544921875-4.193359375-.0849609375-1.447265625-.759765625-2.6494140625-2.02734375-3.60546875-1.2685546875-.955078125-3.1337890625-1.5146484375-5.59375-1.6796875-2.4609375-.1630859375-5.49609375.330078125-9.10546875,1.482421875l1.021484375,12.615234375Z"/>
            <path class="cls-1" d="M217.125,76.515625c3.0712890625,2,5.4482421875,4.603515625,7.1298828125,7.8056640625,1.681640625,3.2041015625,2.4033203125,6.6005859375,2.1650390625,10.19140625-.2666015625,4.0576171875-1.5703125,7.552734375-3.912109375,10.4853515625-2.341796875,2.935546875-5.1904296875,5.3330078125-8.544921875,7.19140625-3.35546875,1.859375-7.03125,3.216796875-11.029296875,4.068359375-3.9990234375.8525390625-7.7880859375,1.2265625-11.369140625,1.119140625-.318359375.158203125-.607421875.263671875-.8662109375.318359375-.2607421875.0537109375-.552734375.126953125-.8759765625.220703125-1.1767578125.16015625-2.3935546875.2587890625-3.646484375.294921875-1.25390625.03515625-2.404296875-.0869140625-3.451171875-.3662109375-1.048828125-.27734375-1.9677734375-.7978515625-2.7568359375-1.5615234375-.7900390625-.7626953125-1.3115234375-1.8935546875-1.564453125-3.3955078125-.1904296875-.7119140625-.341796875-2.1708984375-.4541015625-4.37890625-.11328125-2.205078125-.263671875-4.888671875-.453125-8.048828125-.130859375-3.228515625-.2978515625-6.7373046875-.505859375-10.5244140625-.20703125-3.7861328125-.43359375-7.5869140625-.67578125-11.4033203125-.33984375-4.9990234375-.681640625-10.0302734375-1.0244140625-15.095703125-.345703125-5.064453125-.955078125-10.1416015625-1.8291015625-15.2294921875-.1796875-.5810546875-.15625-1.111328125.0693359375-1.59375.0986328125-.404296875.3642578125-.8056640625.7958984375-1.205078125.4296875-.3974609375,1.099609375-.7001953125,2.009765625-.90625.650390625-.119140625,1.3662109375-.2763671875,2.14453125-.4716796875.77734375-.1953125,1.58984375-.3603515625,2.439453125-.4951171875.84765625-.1337890625,1.669921875-.2001953125,2.4638671875-.2001953125.7939453125.001953125,1.4951171875.078125,2.1025390625.2255859375,3.314453125-.7294921875,6.826171875-1.03125,10.541015625-.90234375s7.251953125.71875,10.6103515625,1.76953125c3.359375,1.05078125,6.3271484375,2.5791015625,8.9033203125,4.5859375,2.5771484375,2.0087890625,4.388671875,4.556640625,5.431640625,7.6455078125.439453125,1.353515625.75390625,2.783203125.9423828125,4.2880859375.1875,1.5078125.1513671875,3.0810546875-.1123046875,4.72265625-.265625,1.642578125-.76953125,3.37109375-1.515625,5.181640625-.74609375,1.814453125-1.80078125,3.703125-3.162109375,5.6640625ZM191.02734375,72.7763671875c3.1650390625-.123046875,5.798828125-.6689453125,7.904296875-1.6318359375,2.103515625-.96484375,3.646484375-2.130859375,4.626953125-3.5.98046875-1.3701171875,1.392578125-2.8076171875,1.23828125-4.3173828125-.1572265625-1.5078125-.83984375-2.8095703125-2.0537109375-3.9013671875s-2.9619140625-1.8583984375-5.2451171875-2.302734375c-2.28515625-.443359375-5.1181640625-.2958984375-8.4970703125.4404296875.4052734375,2.5458984375.7578125,5.064453125,1.05859375,7.552734375.30078125,2.490234375.6220703125,5.0439453125.9677734375,7.66015625ZM193.638671875,101.3349609375c3.580078125.107421875,6.556640625-.298828125,8.9296875-1.21875,2.37109375-.9189453125,4.115234375-2.052734375,5.23046875-3.400390625,1.1142578125-1.345703125,1.62890625-2.7431640625,1.544921875-4.193359375-.0849609375-1.447265625-.759765625-2.6494140625-2.02734375-3.60546875-1.2685546875-.955078125-3.1337890625-1.5146484375-5.59375-1.6796875-2.4609375-.1630859375-5.49609375.330078125-9.10546875,1.482421875l1.021484375,12.615234375Z"/>
          </g>
        </a>
        <path class="cls-1" d="M166.72265625,108.9619140625c-8.685546875.4306640625-17.2958984375.8701171875-25.8291015625,1.31640625-8.533203125.44580078125-17.1376953125.95654296875-25.81640625,1.533203125-.6142578125-.060546875-1.1845703125-.1962890625-1.7060546875-.40771484375-.421875-.21923828125-.849609375-.55908203125-1.28515625-1.01953125-.435546875-.4619140625-.728515625-1.1025390625-.880859375-1.92236328125-.154296875-.8681640625-.271484375-1.7509765625-.3515625-2.64794921875-.080078125-.89892578125-.0302734375-1.74267578125.150390625-2.5341796875.181640625-.791015625.546875-1.48388671875,1.09765625-2.07763671875.548828125-.59521484375,1.40234375-1,2.5625-1.216796875.5517578125-.13232421875,1.7158203125-.25146484375,3.494140625-.359375,1.775390625-.10791015625,3.923828125-.20166015625,6.439453125-.2822265625,2.517578125-.07958984375,5.2900390625-.16259765625,8.31640625-.2490234375,3.025390625-.087890625,6.06640625-.1494140625,9.1220703125-.18896484375,3.0517578125-.0888671875,6.0029296875-.13427734375,8.8564453125-.13720703125s5.400390625-.0234375,7.640625-.06201171875c2.59765625-.01171875,5.04296875-.013671875,7.3359375-.0068359375.4541015625-.07666015625.865234375-.0283203125,1.232421875.14453125.3125.126953125.59375.34033203125.8408203125.6435546875.2490234375.3017578125.41796875.79052734375.5107421875,1.46875.041015625.6796875.08984375,1.46875.14453125,2.369140625.0546875.8984375.0419921875,1.763671875-.033203125,2.5986328125-.078125.8330078125-.2509765625,1.53955078125-.521484375,2.11669921875-.271484375.57666015625-.7109375.8837890625-1.3203125.9208984375Z"/>
        <path class="cls-1" d="M144.8115234375,52.361328125c.232421875,8.69384765625.4736328125,17.3115234375.7255859375,25.8525390625s.56640625,17.1552734375.9453125,25.8447265625c-.07421875.61328125-.22265625,1.1796875-.447265625,1.6962890625-.228515625.4169921875-.578125.83642578125-1.0478515625,1.26123046875-.4716796875.42578125-1.1181640625.703125-1.9423828125.8369140625-.87109375.13427734375-1.7568359375.2314453125-2.6552734375.2919921875-.8994140625.05908203125-1.7431640625-.01025390625-2.5283203125-.20947265625-.787109375-.19873046875-1.47265625-.580078125-2.0537109375-1.1435546875-.58203125-.56201171875-.9677734375-1.42578125-1.1572265625-2.58984375-.1201171875-.5546875-.212890625-1.72119140625-.279296875-3.5009765625-.068359375-1.7783203125-.11328125-3.927734375-.1357421875-6.44580078125-.0224609375-2.5185546875-.0419921875-5.291015625-.0595703125-8.3193359375-.0185546875-3.02685546875-.0107421875-6.06884765625.01953125-9.1240234375-.01953125-3.05224609375.001953125-6.0048828125.0654296875-8.85791015625.060546875-2.8515625.0986328125-5.3984375.1123046875-7.63818359375.046875-2.59765625.1005859375-5.04296875.1591796875-7.3349609375-.06640625-.4560546875-.0087890625-.86474609375.1728515625-1.22900390625.134765625-.31005859375.353515625-.5859375.662109375-.82568359375.30859375-.2412109375.80078125-.39990234375,1.48046875-.47705078125.6806640625-.02587890625,1.470703125-.0556640625,2.37109375-.08984375s1.765625-.00244140625,2.59765625.0927734375c.83203125.095703125,1.533203125.28466796875,2.103515625.56884765625.572265625.283203125.869140625.73046875.8916015625,1.34033203125Z"/>
      </g>
      <g>
        <a xlink:href="https://www.notion.so/congruence/B-Event-1f1a5b08a72c49f5ab60f2e0793fd0a8?pvs=4">
          <g>
            <path class="cls-2" d="M79.2421875,51.72705078125c2.61328125,1.244140625,4.892578125,2.845703125,6.837890625,4.8037109375,1.9453125,1.9609375,3.625,4.138671875,5.04296875,6.537109375s2.6015625,4.96484375,3.55078125,7.697265625c.94921875,2.736328125,1.734375,5.4990234375,2.3583984375,8.2919921875,1.3720703125,5.5107421875,2.3544921875,11.119140625,2.9501953125,16.8251953125.59375,5.7060546875.9609375,11.4638671875,1.1015625,17.2724609375.0009765625,1.6533203125-.0205078125,3.01171875-.06640625,4.072265625-.046875,1.0634765625-.224609375,1.9375-.53125,2.623046875-.30859375.6875-.7763671875,1.2529296875-1.400390625,1.701171875-.6259765625.4462890625-1.515625.8818359375-2.671875,1.3076171875-1.107421875.2216796875-2.265625.4140625-3.474609375.5791015625-1.2119140625.1630859375-2.3720703125-.0732421875-3.48046875-.7109375-1.0390625-.576171875-1.9521484375-1.626953125-2.736328125-3.1513671875-.78515625-1.5234375-1.330078125-3.76171875-1.634765625-6.712890625l-.080078125-.984375c-1.658203125-.0654296875-3.6259765625-.0693359375-5.904296875-.0185546875-2.27734375.052734375-4.599609375.158203125-6.96875.31640625-2.3671875.1591796875-4.65234375.3271484375-6.853515625.505859375-2.2021484375.1787109375-4.05859375.3291015625-5.568359375.451171875-.0185546875.595703125-.021484375,1.5888671875-.0078125,2.9765625s-.0888671875,2.78515625-.3046875,4.19140625c-.21875,1.4072265625-.560546875,2.6923828125-1.02734375,3.853515625-.46875,1.1630859375-1.1923828125,1.8154296875-2.171875,1.9619140625-.916015625.138671875-1.9609375.291015625-3.138671875.453125-1.177734375.16015625-2.337890625.1220703125-3.482421875-.1142578125-1.138671875-.171875-2.1171875-.6240234375-2.935546875-1.3505859375-.8203125-.7275390625-1.33203125-1.9404296875-1.5361328125-3.6455078125-.1650390625-2.0361328125-.3212890625-4.3720703125-.46875-7.005859375-.1474609375-2.6318359375-.2470703125-5.501953125-.2998046875-8.6064453125-.0771484375-2.57421875-.08984375-5.3994140625-.0419921875-8.4794921875.0478515625-3.0791015625.220703125-6.2509765625.5185546875-9.515625.296875-3.265625.759765625-6.544921875,1.3857421875-9.8359375s1.4951171875-6.4365234375,2.6083984375-9.4375c1.111328125-3,2.490234375-5.7900390625,4.1337890625-8.37109375,1.6416015625-2.5791015625,3.6787109375-4.794921875,6.1083984375-6.646484375,2.8671875-2.1484375,6.109375-3.3720703125,9.72265625-3.6640625,3.61328125-.29296875,7.1025390625.3173828125,10.466796875,1.830078125ZM58.9248046875,98.51318359375c4.11328125-.6630859375,8.2158203125-1.2431640625,12.3095703125-1.740234375,4.0927734375-.4970703125,8.21484375-.84765625,12.365234375-1.0517578125-.1796875-4.6806640625-.7158203125-8.8359375-1.60546875-12.4697265625-.888671875-3.630859375-1.962890625-6.6689453125-3.21875-9.115234375-1.255859375-2.443359375-2.662109375-4.28125-4.216796875-5.5107421875s-3.087890625-1.783203125-4.59765625-1.6611328125c-1.3154296875.1064453125-2.6240234375.890625-3.927734375,2.3515625-1.3046875,1.4619140625-2.4580078125,3.541015625-3.462890625,6.2333984375-1.005859375,2.6943359375-1.8466796875,5.9873046875-2.5234375,9.876953125-.67578125,3.8916015625-1.0517578125,8.2548828125-1.1220703125,13.0869140625Z"/>
            <path class="cls-2" d="M79.2421875,51.72705078125c2.61328125,1.244140625,4.892578125,2.845703125,6.837890625,4.8037109375,1.9453125,1.9609375,3.625,4.138671875,5.04296875,6.537109375s2.6015625,4.96484375,3.55078125,7.697265625c.94921875,2.736328125,1.734375,5.4990234375,2.3583984375,8.2919921875,1.3720703125,5.5107421875,2.3544921875,11.119140625,2.9501953125,16.8251953125.59375,5.7060546875.9609375,11.4638671875,1.1015625,17.2724609375.0009765625,1.6533203125-.0205078125,3.01171875-.06640625,4.072265625-.046875,1.0634765625-.224609375,1.9375-.53125,2.623046875-.30859375.6875-.7763671875,1.2529296875-1.400390625,1.701171875-.6259765625.4462890625-1.515625.8818359375-2.671875,1.3076171875-1.107421875.2216796875-2.265625.4140625-3.474609375.5791015625-1.2119140625.1630859375-2.3720703125-.0732421875-3.48046875-.7109375-1.0390625-.576171875-1.9521484375-1.626953125-2.736328125-3.1513671875-.78515625-1.5234375-1.330078125-3.76171875-1.634765625-6.712890625l-.080078125-.984375c-1.658203125-.0654296875-3.6259765625-.0693359375-5.904296875-.0185546875-2.27734375.052734375-4.599609375.158203125-6.96875.31640625-2.3671875.1591796875-4.65234375.3271484375-6.853515625.505859375-2.2021484375.1787109375-4.05859375.3291015625-5.568359375.451171875-.0185546875.595703125-.021484375,1.5888671875-.0078125,2.9765625s-.0888671875,2.78515625-.3046875,4.19140625c-.21875,1.4072265625-.560546875,2.6923828125-1.02734375,3.853515625-.46875,1.1630859375-1.1923828125,1.8154296875-2.171875,1.9619140625-.916015625.138671875-1.9609375.291015625-3.138671875.453125-1.177734375.16015625-2.337890625.1220703125-3.482421875-.1142578125-1.138671875-.171875-2.1171875-.6240234375-2.935546875-1.3505859375-.8203125-.7275390625-1.33203125-1.9404296875-1.5361328125-3.6455078125-.1650390625-2.0361328125-.3212890625-4.3720703125-.46875-7.005859375-.1474609375-2.6318359375-.2470703125-5.501953125-.2998046875-8.6064453125-.0771484375-2.57421875-.08984375-5.3994140625-.0419921875-8.4794921875.0478515625-3.0791015625.220703125-6.2509765625.5185546875-9.515625.296875-3.265625.759765625-6.544921875,1.3857421875-9.8359375s1.4951171875-6.4365234375,2.6083984375-9.4375c1.111328125-3,2.490234375-5.7900390625,4.1337890625-8.37109375,1.6416015625-2.5791015625,3.6787109375-4.794921875,6.1083984375-6.646484375,2.8671875-2.1484375,6.109375-3.3720703125,9.72265625-3.6640625,3.61328125-.29296875,7.1025390625.3173828125,10.466796875,1.830078125ZM58.9248046875,98.51318359375c4.11328125-.6630859375,8.2158203125-1.2431640625,12.3095703125-1.740234375,4.0927734375-.4970703125,8.21484375-.84765625,12.365234375-1.0517578125-.1796875-4.6806640625-.7158203125-8.8359375-1.60546875-12.4697265625-.888671875-3.630859375-1.962890625-6.6689453125-3.21875-9.115234375-1.255859375-2.443359375-2.662109375-4.28125-4.216796875-5.5107421875s-3.087890625-1.783203125-4.59765625-1.6611328125c-1.3154296875.1064453125-2.6240234375.890625-3.927734375,2.3515625-1.3046875,1.4619140625-2.4580078125,3.541015625-3.462890625,6.2333984375-1.005859375,2.6943359375-1.8466796875,5.9873046875-2.5234375,9.876953125-.67578125,3.8916015625-1.0517578125,8.2548828125-1.1220703125,13.0869140625Z"/>
            <path class="cls-2" d="M79.2421875,51.72705078125c2.61328125,1.244140625,4.892578125,2.845703125,6.837890625,4.8037109375,1.9453125,1.9609375,3.625,4.138671875,5.04296875,6.537109375s2.6015625,4.96484375,3.55078125,7.697265625c.94921875,2.736328125,1.734375,5.4990234375,2.3583984375,8.2919921875,1.3720703125,5.5107421875,2.3544921875,11.119140625,2.9501953125,16.8251953125.59375,5.7060546875.9609375,11.4638671875,1.1015625,17.2724609375.0009765625,1.6533203125-.0205078125,3.01171875-.06640625,4.072265625-.046875,1.0634765625-.224609375,1.9375-.53125,2.623046875-.30859375.6875-.7763671875,1.2529296875-1.400390625,1.701171875-.6259765625.4462890625-1.515625.8818359375-2.671875,1.3076171875-1.107421875.2216796875-2.265625.4140625-3.474609375.5791015625-1.2119140625.1630859375-2.3720703125-.0732421875-3.48046875-.7109375-1.0390625-.576171875-1.9521484375-1.626953125-2.736328125-3.1513671875-.78515625-1.5234375-1.330078125-3.76171875-1.634765625-6.712890625l-.080078125-.984375c-1.658203125-.0654296875-3.6259765625-.0693359375-5.904296875-.0185546875-2.27734375.052734375-4.599609375.158203125-6.96875.31640625-2.3671875.1591796875-4.65234375.3271484375-6.853515625.505859375-2.2021484375.1787109375-4.05859375.3291015625-5.568359375.451171875-.0185546875.595703125-.021484375,1.5888671875-.0078125,2.9765625s-.0888671875,2.78515625-.3046875,4.19140625c-.21875,1.4072265625-.560546875,2.6923828125-1.02734375,3.853515625-.46875,1.1630859375-1.1923828125,1.8154296875-2.171875,1.9619140625-.916015625.138671875-1.9609375.291015625-3.138671875.453125-1.177734375.16015625-2.337890625.1220703125-3.482421875-.1142578125-1.138671875-.171875-2.1171875-.6240234375-2.935546875-1.3505859375-.8203125-.7275390625-1.33203125-1.9404296875-1.5361328125-3.6455078125-.1650390625-2.0361328125-.3212890625-4.3720703125-.46875-7.005859375-.1474609375-2.6318359375-.2470703125-5.501953125-.2998046875-8.6064453125-.0771484375-2.57421875-.08984375-5.3994140625-.0419921875-8.4794921875.0478515625-3.0791015625.220703125-6.2509765625.5185546875-9.515625.296875-3.265625.759765625-6.544921875,1.3857421875-9.8359375s1.4951171875-6.4365234375,2.6083984375-9.4375c1.111328125-3,2.490234375-5.7900390625,4.1337890625-8.37109375,1.6416015625-2.5791015625,3.6787109375-4.794921875,6.1083984375-6.646484375,2.8671875-2.1484375,6.109375-3.3720703125,9.72265625-3.6640625,3.61328125-.29296875,7.1025390625.3173828125,10.466796875,1.830078125ZM58.9248046875,98.51318359375c4.11328125-.6630859375,8.2158203125-1.2431640625,12.3095703125-1.740234375,4.0927734375-.4970703125,8.21484375-.84765625,12.365234375-1.0517578125-.1796875-4.6806640625-.7158203125-8.8359375-1.60546875-12.4697265625-.888671875-3.630859375-1.962890625-6.6689453125-3.21875-9.115234375-1.255859375-2.443359375-2.662109375-4.28125-4.216796875-5.5107421875s-3.087890625-1.783203125-4.59765625-1.6611328125c-1.3154296875.1064453125-2.6240234375.890625-3.927734375,2.3515625-1.3046875,1.4619140625-2.4580078125,3.541015625-3.462890625,6.2333984375-1.005859375,2.6943359375-1.8466796875,5.9873046875-2.5234375,9.876953125-.67578125,3.8916015625-1.0517578125,8.2548828125-1.1220703125,13.0869140625Z"/>
          </g>
        </a>
        <a xlink:href="https://www.notion.so/congruence/B-Event-1f1a5b08a72c49f5ab60f2e0793fd0a8?pvs=4">
          <g>
            <path class="cls-2" d="M217.125,76.515625c3.0712890625,2,5.4482421875,4.603515625,7.1298828125,7.8056640625,1.681640625,3.2041015625,2.4033203125,6.6005859375,2.1650390625,10.19140625-.2666015625,4.0576171875-1.5703125,7.552734375-3.912109375,10.4853515625-2.341796875,2.935546875-5.1904296875,5.3330078125-8.544921875,7.19140625-3.35546875,1.859375-7.03125,3.216796875-11.029296875,4.068359375-3.9990234375.8525390625-7.7880859375,1.2265625-11.369140625,1.119140625-.318359375.158203125-.607421875.263671875-.8662109375.318359375-.2607421875.0537109375-.552734375.126953125-.8759765625.220703125-1.1767578125.16015625-2.3935546875.2587890625-3.646484375.294921875-1.25390625.03515625-2.404296875-.0869140625-3.451171875-.3662109375-1.048828125-.27734375-1.9677734375-.7978515625-2.7568359375-1.5615234375-.7900390625-.7626953125-1.3115234375-1.8935546875-1.564453125-3.3955078125-.1904296875-.7119140625-.341796875-2.1708984375-.4541015625-4.37890625-.11328125-2.205078125-.263671875-4.888671875-.453125-8.048828125-.130859375-3.228515625-.2978515625-6.7373046875-.505859375-10.5244140625-.20703125-3.7861328125-.43359375-7.5869140625-.67578125-11.4033203125-.33984375-4.9990234375-.681640625-10.0302734375-1.0244140625-15.095703125-.345703125-5.064453125-.955078125-10.1416015625-1.8291015625-15.2294921875-.1796875-.5810546875-.15625-1.111328125.0693359375-1.59375.0986328125-.404296875.3642578125-.8056640625.7958984375-1.205078125.4296875-.3974609375,1.099609375-.7001953125,2.009765625-.90625.650390625-.119140625,1.3662109375-.2763671875,2.14453125-.4716796875.77734375-.1953125,1.58984375-.3603515625,2.439453125-.4951171875.84765625-.1337890625,1.669921875-.2001953125,2.4638671875-.2001953125.7939453125.001953125,1.4951171875.078125,2.1025390625.2255859375,3.314453125-.7294921875,6.826171875-1.03125,10.541015625-.90234375s7.251953125.71875,10.6103515625,1.76953125c3.359375,1.05078125,6.3271484375,2.5791015625,8.9033203125,4.5859375,2.5771484375,2.0087890625,4.388671875,4.556640625,5.431640625,7.6455078125.439453125,1.353515625.75390625,2.783203125.9423828125,4.2880859375.1875,1.5078125.1513671875,3.0810546875-.1123046875,4.72265625-.265625,1.642578125-.76953125,3.37109375-1.515625,5.181640625-.74609375,1.814453125-1.80078125,3.703125-3.162109375,5.6640625ZM191.02734375,72.7763671875c3.1650390625-.123046875,5.798828125-.6689453125,7.904296875-1.6318359375,2.103515625-.96484375,3.646484375-2.130859375,4.626953125-3.5.98046875-1.3701171875,1.392578125-2.8076171875,1.23828125-4.3173828125-.1572265625-1.5078125-.83984375-2.8095703125-2.0537109375-3.9013671875s-2.9619140625-1.8583984375-5.2451171875-2.302734375c-2.28515625-.443359375-5.1181640625-.2958984375-8.4970703125.4404296875.4052734375,2.5458984375.7578125,5.064453125,1.05859375,7.552734375.30078125,2.490234375.6220703125,5.0439453125.9677734375,7.66015625ZM193.638671875,101.3349609375c3.580078125.107421875,6.556640625-.298828125,8.9296875-1.21875,2.37109375-.9189453125,4.115234375-2.052734375,5.23046875-3.400390625,1.1142578125-1.345703125,1.62890625-2.7431640625,1.544921875-4.193359375-.0849609375-1.447265625-.759765625-2.6494140625-2.02734375-3.60546875-1.2685546875-.955078125-3.1337890625-1.5146484375-5.59375-1.6796875-2.4609375-.1630859375-5.49609375.330078125-9.10546875,1.482421875l1.021484375,12.615234375Z"/>
            <path class="cls-2" d="M217.125,76.515625c3.0712890625,2,5.4482421875,4.603515625,7.1298828125,7.8056640625,1.681640625,3.2041015625,2.4033203125,6.6005859375,2.1650390625,10.19140625-.2666015625,4.0576171875-1.5703125,7.552734375-3.912109375,10.4853515625-2.341796875,2.935546875-5.1904296875,5.3330078125-8.544921875,7.19140625-3.35546875,1.859375-7.03125,3.216796875-11.029296875,4.068359375-3.9990234375.8525390625-7.7880859375,1.2265625-11.369140625,1.119140625-.318359375.158203125-.607421875.263671875-.8662109375.318359375-.2607421875.0537109375-.552734375.126953125-.8759765625.220703125-1.1767578125.16015625-2.3935546875.2587890625-3.646484375.294921875-1.25390625.03515625-2.404296875-.0869140625-3.451171875-.3662109375-1.048828125-.27734375-1.9677734375-.7978515625-2.7568359375-1.5615234375-.7900390625-.7626953125-1.3115234375-1.8935546875-1.564453125-3.3955078125-.1904296875-.7119140625-.341796875-2.1708984375-.4541015625-4.37890625-.11328125-2.205078125-.263671875-4.888671875-.453125-8.048828125-.130859375-3.228515625-.2978515625-6.7373046875-.505859375-10.5244140625-.20703125-3.7861328125-.43359375-7.5869140625-.67578125-11.4033203125-.33984375-4.9990234375-.681640625-10.0302734375-1.0244140625-15.095703125-.345703125-5.064453125-.955078125-10.1416015625-1.8291015625-15.2294921875-.1796875-.5810546875-.15625-1.111328125.0693359375-1.59375.0986328125-.404296875.3642578125-.8056640625.7958984375-1.205078125.4296875-.3974609375,1.099609375-.7001953125,2.009765625-.90625.650390625-.119140625,1.3662109375-.2763671875,2.14453125-.4716796875.77734375-.1953125,1.58984375-.3603515625,2.439453125-.4951171875.84765625-.1337890625,1.669921875-.2001953125,2.4638671875-.2001953125.7939453125.001953125,1.4951171875.078125,2.1025390625.2255859375,3.314453125-.7294921875,6.826171875-1.03125,10.541015625-.90234375s7.251953125.71875,10.6103515625,1.76953125c3.359375,1.05078125,6.3271484375,2.5791015625,8.9033203125,4.5859375,2.5771484375,2.0087890625,4.388671875,4.556640625,5.431640625,7.6455078125.439453125,1.353515625.75390625,2.783203125.9423828125,4.2880859375.1875,1.5078125.1513671875,3.0810546875-.1123046875,4.72265625-.265625,1.642578125-.76953125,3.37109375-1.515625,5.181640625-.74609375,1.814453125-1.80078125,3.703125-3.162109375,5.6640625ZM191.02734375,72.7763671875c3.1650390625-.123046875,5.798828125-.6689453125,7.904296875-1.6318359375,2.103515625-.96484375,3.646484375-2.130859375,4.626953125-3.5.98046875-1.3701171875,1.392578125-2.8076171875,1.23828125-4.3173828125-.1572265625-1.5078125-.83984375-2.8095703125-2.0537109375-3.9013671875s-2.9619140625-1.8583984375-5.2451171875-2.302734375c-2.28515625-.443359375-5.1181640625-.2958984375-8.4970703125.4404296875.4052734375,2.5458984375.7578125,5.064453125,1.05859375,7.552734375.30078125,2.490234375.6220703125,5.0439453125.9677734375,7.66015625ZM193.638671875,101.3349609375c3.580078125.107421875,6.556640625-.298828125,8.9296875-1.21875,2.37109375-.9189453125,4.115234375-2.052734375,5.23046875-3.400390625,1.1142578125-1.345703125,1.62890625-2.7431640625,1.544921875-4.193359375-.0849609375-1.447265625-.759765625-2.6494140625-2.02734375-3.60546875-1.2685546875-.955078125-3.1337890625-1.5146484375-5.59375-1.6796875-2.4609375-.1630859375-5.49609375.330078125-9.10546875,1.482421875l1.021484375,12.615234375Z"/>
            <path class="cls-2" d="M217.125,76.515625c3.0712890625,2,5.4482421875,4.603515625,7.1298828125,7.8056640625,1.681640625,3.2041015625,2.4033203125,6.6005859375,2.1650390625,10.19140625-.2666015625,4.0576171875-1.5703125,7.552734375-3.912109375,10.4853515625-2.341796875,2.935546875-5.1904296875,5.3330078125-8.544921875,7.19140625-3.35546875,1.859375-7.03125,3.216796875-11.029296875,4.068359375-3.9990234375.8525390625-7.7880859375,1.2265625-11.369140625,1.119140625-.318359375.158203125-.607421875.263671875-.8662109375.318359375-.2607421875.0537109375-.552734375.126953125-.8759765625.220703125-1.1767578125.16015625-2.3935546875.2587890625-3.646484375.294921875-1.25390625.03515625-2.404296875-.0869140625-3.451171875-.3662109375-1.048828125-.27734375-1.9677734375-.7978515625-2.7568359375-1.5615234375-.7900390625-.7626953125-1.3115234375-1.8935546875-1.564453125-3.3955078125-.1904296875-.7119140625-.341796875-2.1708984375-.4541015625-4.37890625-.11328125-2.205078125-.263671875-4.888671875-.453125-8.048828125-.130859375-3.228515625-.2978515625-6.7373046875-.505859375-10.5244140625-.20703125-3.7861328125-.43359375-7.5869140625-.67578125-11.4033203125-.33984375-4.9990234375-.681640625-10.0302734375-1.0244140625-15.095703125-.345703125-5.064453125-.955078125-10.1416015625-1.8291015625-15.2294921875-.1796875-.5810546875-.15625-1.111328125.0693359375-1.59375.0986328125-.404296875.3642578125-.8056640625.7958984375-1.205078125.4296875-.3974609375,1.099609375-.7001953125,2.009765625-.90625.650390625-.119140625,1.3662109375-.2763671875,2.14453125-.4716796875.77734375-.1953125,1.58984375-.3603515625,2.439453125-.4951171875.84765625-.1337890625,1.669921875-.2001953125,2.4638671875-.2001953125.7939453125.001953125,1.4951171875.078125,2.1025390625.2255859375,3.314453125-.7294921875,6.826171875-1.03125,10.541015625-.90234375s7.251953125.71875,10.6103515625,1.76953125c3.359375,1.05078125,6.3271484375,2.5791015625,8.9033203125,4.5859375,2.5771484375,2.0087890625,4.388671875,4.556640625,5.431640625,7.6455078125.439453125,1.353515625.75390625,2.783203125.9423828125,4.2880859375.1875,1.5078125.1513671875,3.0810546875-.1123046875,4.72265625-.265625,1.642578125-.76953125,3.37109375-1.515625,5.181640625-.74609375,1.814453125-1.80078125,3.703125-3.162109375,5.6640625ZM191.02734375,72.7763671875c3.1650390625-.123046875,5.798828125-.6689453125,7.904296875-1.6318359375,2.103515625-.96484375,3.646484375-2.130859375,4.626953125-3.5.98046875-1.3701171875,1.392578125-2.8076171875,1.23828125-4.3173828125-.1572265625-1.5078125-.83984375-2.8095703125-2.0537109375-3.9013671875s-2.9619140625-1.8583984375-5.2451171875-2.302734375c-2.28515625-.443359375-5.1181640625-.2958984375-8.4970703125.4404296875.4052734375,2.5458984375.7578125,5.064453125,1.05859375,7.552734375.30078125,2.490234375.6220703125,5.0439453125.9677734375,7.66015625ZM193.638671875,101.3349609375c3.580078125.107421875,6.556640625-.298828125,8.9296875-1.21875,2.37109375-.9189453125,4.115234375-2.052734375,5.23046875-3.400390625,1.1142578125-1.345703125,1.62890625-2.7431640625,1.544921875-4.193359375-.0849609375-1.447265625-.759765625-2.6494140625-2.02734375-3.60546875-1.2685546875-.955078125-3.1337890625-1.5146484375-5.59375-1.6796875-2.4609375-.1630859375-5.49609375.330078125-9.10546875,1.482421875l1.021484375,12.615234375Z"/>
          </g>
        </a>
        <path class="cls-2" d="M166.72265625,108.9619140625c-8.685546875.4306640625-17.2958984375.8701171875-25.8291015625,1.31640625-8.533203125.44580078125-17.1376953125.95654296875-25.81640625,1.533203125-.6142578125-.060546875-1.1845703125-.1962890625-1.7060546875-.40771484375-.421875-.21923828125-.849609375-.55908203125-1.28515625-1.01953125-.435546875-.4619140625-.728515625-1.1025390625-.880859375-1.92236328125-.154296875-.8681640625-.271484375-1.7509765625-.3515625-2.64794921875-.080078125-.89892578125-.0302734375-1.74267578125.150390625-2.5341796875.181640625-.791015625.546875-1.48388671875,1.09765625-2.07763671875.548828125-.59521484375,1.40234375-1,2.5625-1.216796875.5517578125-.13232421875,1.7158203125-.25146484375,3.494140625-.359375,1.775390625-.10791015625,3.923828125-.20166015625,6.439453125-.2822265625,2.517578125-.07958984375,5.2900390625-.16259765625,8.31640625-.2490234375,3.025390625-.087890625,6.06640625-.1494140625,9.1220703125-.18896484375,3.0517578125-.0888671875,6.0029296875-.13427734375,8.8564453125-.13720703125s5.400390625-.0234375,7.640625-.06201171875c2.59765625-.01171875,5.04296875-.013671875,7.3359375-.0068359375.4541015625-.07666015625.865234375-.0283203125,1.232421875.14453125.3125.126953125.59375.34033203125.8408203125.6435546875.2490234375.3017578125.41796875.79052734375.5107421875,1.46875.041015625.6796875.08984375,1.46875.14453125,2.369140625.0546875.8984375.0419921875,1.763671875-.033203125,2.5986328125-.078125.8330078125-.2509765625,1.53955078125-.521484375,2.11669921875-.271484375.57666015625-.7109375.8837890625-1.3203125.9208984375Z"/>
        <path class="cls-2" d="M144.8115234375,52.361328125c.232421875,8.69384765625.4736328125,17.3115234375.7255859375,25.8525390625s.56640625,17.1552734375.9453125,25.8447265625c-.07421875.61328125-.22265625,1.1796875-.447265625,1.6962890625-.228515625.4169921875-.578125.83642578125-1.0478515625,1.26123046875-.4716796875.42578125-1.1181640625.703125-1.9423828125.8369140625-.87109375.13427734375-1.7568359375.2314453125-2.6552734375.2919921875-.8994140625.05908203125-1.7431640625-.01025390625-2.5283203125-.20947265625-.787109375-.19873046875-1.47265625-.580078125-2.0537109375-1.1435546875-.58203125-.56201171875-.9677734375-1.42578125-1.1572265625-2.58984375-.1201171875-.5546875-.212890625-1.72119140625-.279296875-3.5009765625-.068359375-1.7783203125-.11328125-3.927734375-.1357421875-6.44580078125-.0224609375-2.5185546875-.0419921875-5.291015625-.0595703125-8.3193359375-.0185546875-3.02685546875-.0107421875-6.06884765625.01953125-9.1240234375-.01953125-3.05224609375.001953125-6.0048828125.0654296875-8.85791015625.060546875-2.8515625.0986328125-5.3984375.1123046875-7.63818359375.046875-2.59765625.1005859375-5.04296875.1591796875-7.3349609375-.06640625-.4560546875-.0087890625-.86474609375.1728515625-1.22900390625.134765625-.31005859375.353515625-.5859375.662109375-.82568359375.30859375-.2412109375.80078125-.39990234375,1.48046875-.47705078125.6806640625-.02587890625,1.470703125-.0556640625,2.37109375-.08984375s1.765625-.00244140625,2.59765625.0927734375c.83203125.095703125,1.533203125.28466796875,2.103515625.56884765625.572265625.283203125.869140625.73046875.8916015625,1.34033203125Z"/>
      </g>
      <g>
        <a xlink:href="https://www.notion.so/congruence/B-Event-1f1a5b08a72c49f5ab60f2e0793fd0a8?pvs=4">
          <g>
            <path class="cls-3" d="M79.2421875,51.72705078125c2.61328125,1.244140625,4.892578125,2.845703125,6.837890625,4.8037109375,1.9453125,1.9609375,3.625,4.138671875,5.04296875,6.537109375s2.6015625,4.96484375,3.55078125,7.697265625c.94921875,2.736328125,1.734375,5.4990234375,2.3583984375,8.2919921875,1.3720703125,5.5107421875,2.3544921875,11.119140625,2.9501953125,16.8251953125.59375,5.7060546875.9609375,11.4638671875,1.1015625,17.2724609375.0009765625,1.6533203125-.0205078125,3.01171875-.06640625,4.072265625-.046875,1.0634765625-.224609375,1.9375-.53125,2.623046875-.30859375.6875-.7763671875,1.2529296875-1.400390625,1.701171875-.6259765625.4462890625-1.515625.8818359375-2.671875,1.3076171875-1.107421875.2216796875-2.265625.4140625-3.474609375.5791015625-1.2119140625.1630859375-2.3720703125-.0732421875-3.48046875-.7109375-1.0390625-.576171875-1.9521484375-1.626953125-2.736328125-3.1513671875-.78515625-1.5234375-1.330078125-3.76171875-1.634765625-6.712890625l-.080078125-.984375c-1.658203125-.0654296875-3.6259765625-.0693359375-5.904296875-.0185546875-2.27734375.052734375-4.599609375.158203125-6.96875.31640625-2.3671875.1591796875-4.65234375.3271484375-6.853515625.505859375-2.2021484375.1787109375-4.05859375.3291015625-5.568359375.451171875-.0185546875.595703125-.021484375,1.5888671875-.0078125,2.9765625s-.0888671875,2.78515625-.3046875,4.19140625c-.21875,1.4072265625-.560546875,2.6923828125-1.02734375,3.853515625-.46875,1.1630859375-1.1923828125,1.8154296875-2.171875,1.9619140625-.916015625.138671875-1.9609375.291015625-3.138671875.453125-1.177734375.16015625-2.337890625.1220703125-3.482421875-.1142578125-1.138671875-.171875-2.1171875-.6240234375-2.935546875-1.3505859375-.8203125-.7275390625-1.33203125-1.9404296875-1.5361328125-3.6455078125-.1650390625-2.0361328125-.3212890625-4.3720703125-.46875-7.005859375-.1474609375-2.6318359375-.2470703125-5.501953125-.2998046875-8.6064453125-.0771484375-2.57421875-.08984375-5.3994140625-.0419921875-8.4794921875.0478515625-3.0791015625.220703125-6.2509765625.5185546875-9.515625.296875-3.265625.759765625-6.544921875,1.3857421875-9.8359375s1.4951171875-6.4365234375,2.6083984375-9.4375c1.111328125-3,2.490234375-5.7900390625,4.1337890625-8.37109375,1.6416015625-2.5791015625,3.6787109375-4.794921875,6.1083984375-6.646484375,2.8671875-2.1484375,6.109375-3.3720703125,9.72265625-3.6640625,3.61328125-.29296875,7.1025390625.3173828125,10.466796875,1.830078125ZM58.9248046875,98.51318359375c4.11328125-.6630859375,8.2158203125-1.2431640625,12.3095703125-1.740234375,4.0927734375-.4970703125,8.21484375-.84765625,12.365234375-1.0517578125-.1796875-4.6806640625-.7158203125-8.8359375-1.60546875-12.4697265625-.888671875-3.630859375-1.962890625-6.6689453125-3.21875-9.115234375-1.255859375-2.443359375-2.662109375-4.28125-4.216796875-5.5107421875s-3.087890625-1.783203125-4.59765625-1.6611328125c-1.3154296875.1064453125-2.6240234375.890625-3.927734375,2.3515625-1.3046875,1.4619140625-2.4580078125,3.541015625-3.462890625,6.2333984375-1.005859375,2.6943359375-1.8466796875,5.9873046875-2.5234375,9.876953125-.67578125,3.8916015625-1.0517578125,8.2548828125-1.1220703125,13.0869140625Z"/>
            <path class="cls-3" d="M79.2421875,51.72705078125c2.61328125,1.244140625,4.892578125,2.845703125,6.837890625,4.8037109375,1.9453125,1.9609375,3.625,4.138671875,5.04296875,6.537109375s2.6015625,4.96484375,3.55078125,7.697265625c.94921875,2.736328125,1.734375,5.4990234375,2.3583984375,8.2919921875,1.3720703125,5.5107421875,2.3544921875,11.119140625,2.9501953125,16.8251953125.59375,5.7060546875.9609375,11.4638671875,1.1015625,17.2724609375.0009765625,1.6533203125-.0205078125,3.01171875-.06640625,4.072265625-.046875,1.0634765625-.224609375,1.9375-.53125,2.623046875-.30859375.6875-.7763671875,1.2529296875-1.400390625,1.701171875-.6259765625.4462890625-1.515625.8818359375-2.671875,1.3076171875-1.107421875.2216796875-2.265625.4140625-3.474609375.5791015625-1.2119140625.1630859375-2.3720703125-.0732421875-3.48046875-.7109375-1.0390625-.576171875-1.9521484375-1.626953125-2.736328125-3.1513671875-.78515625-1.5234375-1.330078125-3.76171875-1.634765625-6.712890625l-.080078125-.984375c-1.658203125-.0654296875-3.6259765625-.0693359375-5.904296875-.0185546875-2.27734375.052734375-4.599609375.158203125-6.96875.31640625-2.3671875.1591796875-4.65234375.3271484375-6.853515625.505859375-2.2021484375.1787109375-4.05859375.3291015625-5.568359375.451171875-.0185546875.595703125-.021484375,1.5888671875-.0078125,2.9765625s-.0888671875,2.78515625-.3046875,4.19140625c-.21875,1.4072265625-.560546875,2.6923828125-1.02734375,3.853515625-.46875,1.1630859375-1.1923828125,1.8154296875-2.171875,1.9619140625-.916015625.138671875-1.9609375.291015625-3.138671875.453125-1.177734375.16015625-2.337890625.1220703125-3.482421875-.1142578125-1.138671875-.171875-2.1171875-.6240234375-2.935546875-1.3505859375-.8203125-.7275390625-1.33203125-1.9404296875-1.5361328125-3.6455078125-.1650390625-2.0361328125-.3212890625-4.3720703125-.46875-7.005859375-.1474609375-2.6318359375-.2470703125-5.501953125-.2998046875-8.6064453125-.0771484375-2.57421875-.08984375-5.3994140625-.0419921875-8.4794921875.0478515625-3.0791015625.220703125-6.2509765625.5185546875-9.515625.296875-3.265625.759765625-6.544921875,1.3857421875-9.8359375s1.4951171875-6.4365234375,2.6083984375-9.4375c1.111328125-3,2.490234375-5.7900390625,4.1337890625-8.37109375,1.6416015625-2.5791015625,3.6787109375-4.794921875,6.1083984375-6.646484375,2.8671875-2.1484375,6.109375-3.3720703125,9.72265625-3.6640625,3.61328125-.29296875,7.1025390625.3173828125,10.466796875,1.830078125ZM58.9248046875,98.51318359375c4.11328125-.6630859375,8.2158203125-1.2431640625,12.3095703125-1.740234375,4.0927734375-.4970703125,8.21484375-.84765625,12.365234375-1.0517578125-.1796875-4.6806640625-.7158203125-8.8359375-1.60546875-12.4697265625-.888671875-3.630859375-1.962890625-6.6689453125-3.21875-9.115234375-1.255859375-2.443359375-2.662109375-4.28125-4.216796875-5.5107421875s-3.087890625-1.783203125-4.59765625-1.6611328125c-1.3154296875.1064453125-2.6240234375.890625-3.927734375,2.3515625-1.3046875,1.4619140625-2.4580078125,3.541015625-3.462890625,6.2333984375-1.005859375,2.6943359375-1.8466796875,5.9873046875-2.5234375,9.876953125-.67578125,3.8916015625-1.0517578125,8.2548828125-1.1220703125,13.0869140625Z"/>
            <path class="cls-3" d="M79.2421875,51.72705078125c2.61328125,1.244140625,4.892578125,2.845703125,6.837890625,4.8037109375,1.9453125,1.9609375,3.625,4.138671875,5.04296875,6.537109375s2.6015625,4.96484375,3.55078125,7.697265625c.94921875,2.736328125,1.734375,5.4990234375,2.3583984375,8.2919921875,1.3720703125,5.5107421875,2.3544921875,11.119140625,2.9501953125,16.8251953125.59375,5.7060546875.9609375,11.4638671875,1.1015625,17.2724609375.0009765625,1.6533203125-.0205078125,3.01171875-.06640625,4.072265625-.046875,1.0634765625-.224609375,1.9375-.53125,2.623046875-.30859375.6875-.7763671875,1.2529296875-1.400390625,1.701171875-.6259765625.4462890625-1.515625.8818359375-2.671875,1.3076171875-1.107421875.2216796875-2.265625.4140625-3.474609375.5791015625-1.2119140625.1630859375-2.3720703125-.0732421875-3.48046875-.7109375-1.0390625-.576171875-1.9521484375-1.626953125-2.736328125-3.1513671875-.78515625-1.5234375-1.330078125-3.76171875-1.634765625-6.712890625l-.080078125-.984375c-1.658203125-.0654296875-3.6259765625-.0693359375-5.904296875-.0185546875-2.27734375.052734375-4.599609375.158203125-6.96875.31640625-2.3671875.1591796875-4.65234375.3271484375-6.853515625.505859375-2.2021484375.1787109375-4.05859375.3291015625-5.568359375.451171875-.0185546875.595703125-.021484375,1.5888671875-.0078125,2.9765625s-.0888671875,2.78515625-.3046875,4.19140625c-.21875,1.4072265625-.560546875,2.6923828125-1.02734375,3.853515625-.46875,1.1630859375-1.1923828125,1.8154296875-2.171875,1.9619140625-.916015625.138671875-1.9609375.291015625-3.138671875.453125-1.177734375.16015625-2.337890625.1220703125-3.482421875-.1142578125-1.138671875-.171875-2.1171875-.6240234375-2.935546875-1.3505859375-.8203125-.7275390625-1.33203125-1.9404296875-1.5361328125-3.6455078125-.1650390625-2.0361328125-.3212890625-4.3720703125-.46875-7.005859375-.1474609375-2.6318359375-.2470703125-5.501953125-.2998046875-8.6064453125-.0771484375-2.57421875-.08984375-5.3994140625-.0419921875-8.4794921875.0478515625-3.0791015625.220703125-6.2509765625.5185546875-9.515625.296875-3.265625.759765625-6.544921875,1.3857421875-9.8359375s1.4951171875-6.4365234375,2.6083984375-9.4375c1.111328125-3,2.490234375-5.7900390625,4.1337890625-8.37109375,1.6416015625-2.5791015625,3.6787109375-4.794921875,6.1083984375-6.646484375,2.8671875-2.1484375,6.109375-3.3720703125,9.72265625-3.6640625,3.61328125-.29296875,7.1025390625.3173828125,10.466796875,1.830078125ZM58.9248046875,98.51318359375c4.11328125-.6630859375,8.2158203125-1.2431640625,12.3095703125-1.740234375,4.0927734375-.4970703125,8.21484375-.84765625,12.365234375-1.0517578125-.1796875-4.6806640625-.7158203125-8.8359375-1.60546875-12.4697265625-.888671875-3.630859375-1.962890625-6.6689453125-3.21875-9.115234375-1.255859375-2.443359375-2.662109375-4.28125-4.216796875-5.5107421875s-3.087890625-1.783203125-4.59765625-1.6611328125c-1.3154296875.1064453125-2.6240234375.890625-3.927734375,2.3515625-1.3046875,1.4619140625-2.4580078125,3.541015625-3.462890625,6.2333984375-1.005859375,2.6943359375-1.8466796875,5.9873046875-2.5234375,9.876953125-.67578125,3.8916015625-1.0517578125,8.2548828125-1.1220703125,13.0869140625Z"/>
          </g>
        </a>
        <a xlink:href="https://www.notion.so/congruence/B-Event-1f1a5b08a72c49f5ab60f2e0793fd0a8?pvs=4">
          <g>
            <path class="cls-3" d="M217.125,76.515625c3.0712890625,2,5.4482421875,4.603515625,7.1298828125,7.8056640625,1.681640625,3.2041015625,2.4033203125,6.6005859375,2.1650390625,10.19140625-.2666015625,4.0576171875-1.5703125,7.552734375-3.912109375,10.4853515625-2.341796875,2.935546875-5.1904296875,5.3330078125-8.544921875,7.19140625-3.35546875,1.859375-7.03125,3.216796875-11.029296875,4.068359375-3.9990234375.8525390625-7.7880859375,1.2265625-11.369140625,1.119140625-.318359375.158203125-.607421875.263671875-.8662109375.318359375-.2607421875.0537109375-.552734375.126953125-.8759765625.220703125-1.1767578125.16015625-2.3935546875.2587890625-3.646484375.294921875-1.25390625.03515625-2.404296875-.0869140625-3.451171875-.3662109375-1.048828125-.27734375-1.9677734375-.7978515625-2.7568359375-1.5615234375-.7900390625-.7626953125-1.3115234375-1.8935546875-1.564453125-3.3955078125-.1904296875-.7119140625-.341796875-2.1708984375-.4541015625-4.37890625-.11328125-2.205078125-.263671875-4.888671875-.453125-8.048828125-.130859375-3.228515625-.2978515625-6.7373046875-.505859375-10.5244140625-.20703125-3.7861328125-.43359375-7.5869140625-.67578125-11.4033203125-.33984375-4.9990234375-.681640625-10.0302734375-1.0244140625-15.095703125-.345703125-5.064453125-.955078125-10.1416015625-1.8291015625-15.2294921875-.1796875-.5810546875-.15625-1.111328125.0693359375-1.59375.0986328125-.404296875.3642578125-.8056640625.7958984375-1.205078125.4296875-.3974609375,1.099609375-.7001953125,2.009765625-.90625.650390625-.119140625,1.3662109375-.2763671875,2.14453125-.4716796875.77734375-.1953125,1.58984375-.3603515625,2.439453125-.4951171875.84765625-.1337890625,1.669921875-.2001953125,2.4638671875-.2001953125.7939453125.001953125,1.4951171875.078125,2.1025390625.2255859375,3.314453125-.7294921875,6.826171875-1.03125,10.541015625-.90234375s7.251953125.71875,10.6103515625,1.76953125c3.359375,1.05078125,6.3271484375,2.5791015625,8.9033203125,4.5859375,2.5771484375,2.0087890625,4.388671875,4.556640625,5.431640625,7.6455078125.439453125,1.353515625.75390625,2.783203125.9423828125,4.2880859375.1875,1.5078125.1513671875,3.0810546875-.1123046875,4.72265625-.265625,1.642578125-.76953125,3.37109375-1.515625,5.181640625-.74609375,1.814453125-1.80078125,3.703125-3.162109375,5.6640625ZM191.02734375,72.7763671875c3.1650390625-.123046875,5.798828125-.6689453125,7.904296875-1.6318359375,2.103515625-.96484375,3.646484375-2.130859375,4.626953125-3.5.98046875-1.3701171875,1.392578125-2.8076171875,1.23828125-4.3173828125-.1572265625-1.5078125-.83984375-2.8095703125-2.0537109375-3.9013671875s-2.9619140625-1.8583984375-5.2451171875-2.302734375c-2.28515625-.443359375-5.1181640625-.2958984375-8.4970703125.4404296875.4052734375,2.5458984375.7578125,5.064453125,1.05859375,7.552734375.30078125,2.490234375.6220703125,5.0439453125.9677734375,7.66015625ZM193.638671875,101.3349609375c3.580078125.107421875,6.556640625-.298828125,8.9296875-1.21875,2.37109375-.9189453125,4.115234375-2.052734375,5.23046875-3.400390625,1.1142578125-1.345703125,1.62890625-2.7431640625,1.544921875-4.193359375-.0849609375-1.447265625-.759765625-2.6494140625-2.02734375-3.60546875-1.2685546875-.955078125-3.1337890625-1.5146484375-5.59375-1.6796875-2.4609375-.1630859375-5.49609375.330078125-9.10546875,1.482421875l1.021484375,12.615234375Z"/>
            <path class="cls-3" d="M217.125,76.515625c3.0712890625,2,5.4482421875,4.603515625,7.1298828125,7.8056640625,1.681640625,3.2041015625,2.4033203125,6.6005859375,2.1650390625,10.19140625-.2666015625,4.0576171875-1.5703125,7.552734375-3.912109375,10.4853515625-2.341796875,2.935546875-5.1904296875,5.3330078125-8.544921875,7.19140625-3.35546875,1.859375-7.03125,3.216796875-11.029296875,4.068359375-3.9990234375.8525390625-7.7880859375,1.2265625-11.369140625,1.119140625-.318359375.158203125-.607421875.263671875-.8662109375.318359375-.2607421875.0537109375-.552734375.126953125-.8759765625.220703125-1.1767578125.16015625-2.3935546875.2587890625-3.646484375.294921875-1.25390625.03515625-2.404296875-.0869140625-3.451171875-.3662109375-1.048828125-.27734375-1.9677734375-.7978515625-2.7568359375-1.5615234375-.7900390625-.7626953125-1.3115234375-1.8935546875-1.564453125-3.3955078125-.1904296875-.7119140625-.341796875-2.1708984375-.4541015625-4.37890625-.11328125-2.205078125-.263671875-4.888671875-.453125-8.048828125-.130859375-3.228515625-.2978515625-6.7373046875-.505859375-10.5244140625-.20703125-3.7861328125-.43359375-7.5869140625-.67578125-11.4033203125-.33984375-4.9990234375-.681640625-10.0302734375-1.0244140625-15.095703125-.345703125-5.064453125-.955078125-10.1416015625-1.8291015625-15.2294921875-.1796875-.5810546875-.15625-1.111328125.0693359375-1.59375.0986328125-.404296875.3642578125-.8056640625.7958984375-1.205078125.4296875-.3974609375,1.099609375-.7001953125,2.009765625-.90625.650390625-.119140625,1.3662109375-.2763671875,2.14453125-.4716796875.77734375-.1953125,1.58984375-.3603515625,2.439453125-.4951171875.84765625-.1337890625,1.669921875-.2001953125,2.4638671875-.2001953125.7939453125.001953125,1.4951171875.078125,2.1025390625.2255859375,3.314453125-.7294921875,6.826171875-1.03125,10.541015625-.90234375s7.251953125.71875,10.6103515625,1.76953125c3.359375,1.05078125,6.3271484375,2.5791015625,8.9033203125,4.5859375,2.5771484375,2.0087890625,4.388671875,4.556640625,5.431640625,7.6455078125.439453125,1.353515625.75390625,2.783203125.9423828125,4.2880859375.1875,1.5078125.1513671875,3.0810546875-.1123046875,4.72265625-.265625,1.642578125-.76953125,3.37109375-1.515625,5.181640625-.74609375,1.814453125-1.80078125,3.703125-3.162109375,5.6640625ZM191.02734375,72.7763671875c3.1650390625-.123046875,5.798828125-.6689453125,7.904296875-1.6318359375,2.103515625-.96484375,3.646484375-2.130859375,4.626953125-3.5.98046875-1.3701171875,1.392578125-2.8076171875,1.23828125-4.3173828125-.1572265625-1.5078125-.83984375-2.8095703125-2.0537109375-3.9013671875s-2.9619140625-1.8583984375-5.2451171875-2.302734375c-2.28515625-.443359375-5.1181640625-.2958984375-8.4970703125.4404296875.4052734375,2.5458984375.7578125,5.064453125,1.05859375,7.552734375.30078125,2.490234375.6220703125,5.0439453125.9677734375,7.66015625ZM193.638671875,101.3349609375c3.580078125.107421875,6.556640625-.298828125,8.9296875-1.21875,2.37109375-.9189453125,4.115234375-2.052734375,5.23046875-3.400390625,1.1142578125-1.345703125,1.62890625-2.7431640625,1.544921875-4.193359375-.0849609375-1.447265625-.759765625-2.6494140625-2.02734375-3.60546875-1.2685546875-.955078125-3.1337890625-1.5146484375-5.59375-1.6796875-2.4609375-.1630859375-5.49609375.330078125-9.10546875,1.482421875l1.021484375,12.615234375Z"/>
            <path class="cls-3" d="M217.125,76.515625c3.0712890625,2,5.4482421875,4.603515625,7.1298828125,7.8056640625,1.681640625,3.2041015625,2.4033203125,6.6005859375,2.1650390625,10.19140625-.2666015625,4.0576171875-1.5703125,7.552734375-3.912109375,10.4853515625-2.341796875,2.935546875-5.1904296875,5.3330078125-8.544921875,7.19140625-3.35546875,1.859375-7.03125,3.216796875-11.029296875,4.068359375-3.9990234375.8525390625-7.7880859375,1.2265625-11.369140625,1.119140625-.318359375.158203125-.607421875.263671875-.8662109375.318359375-.2607421875.0537109375-.552734375.126953125-.8759765625.220703125-1.1767578125.16015625-2.3935546875.2587890625-3.646484375.294921875-1.25390625.03515625-2.404296875-.0869140625-3.451171875-.3662109375-1.048828125-.27734375-1.9677734375-.7978515625-2.7568359375-1.5615234375-.7900390625-.7626953125-1.3115234375-1.8935546875-1.564453125-3.3955078125-.1904296875-.7119140625-.341796875-2.1708984375-.4541015625-4.37890625-.11328125-2.205078125-.263671875-4.888671875-.453125-8.048828125-.130859375-3.228515625-.2978515625-6.7373046875-.505859375-10.5244140625-.20703125-3.7861328125-.43359375-7.5869140625-.67578125-11.4033203125-.33984375-4.9990234375-.681640625-10.0302734375-1.0244140625-15.095703125-.345703125-5.064453125-.955078125-10.1416015625-1.8291015625-15.2294921875-.1796875-.5810546875-.15625-1.111328125.0693359375-1.59375.0986328125-.404296875.3642578125-.8056640625.7958984375-1.205078125.4296875-.3974609375,1.099609375-.7001953125,2.009765625-.90625.650390625-.119140625,1.3662109375-.2763671875,2.14453125-.4716796875.77734375-.1953125,1.58984375-.3603515625,2.439453125-.4951171875.84765625-.1337890625,1.669921875-.2001953125,2.4638671875-.2001953125.7939453125.001953125,1.4951171875.078125,2.1025390625.2255859375,3.314453125-.7294921875,6.826171875-1.03125,10.541015625-.90234375s7.251953125.71875,10.6103515625,1.76953125c3.359375,1.05078125,6.3271484375,2.5791015625,8.9033203125,4.5859375,2.5771484375,2.0087890625,4.388671875,4.556640625,5.431640625,7.6455078125.439453125,1.353515625.75390625,2.783203125.9423828125,4.2880859375.1875,1.5078125.1513671875,3.0810546875-.1123046875,4.72265625-.265625,1.642578125-.76953125,3.37109375-1.515625,5.181640625-.74609375,1.814453125-1.80078125,3.703125-3.162109375,5.6640625ZM191.02734375,72.7763671875c3.1650390625-.123046875,5.798828125-.6689453125,7.904296875-1.6318359375,2.103515625-.96484375,3.646484375-2.130859375,4.626953125-3.5.98046875-1.3701171875,1.392578125-2.8076171875,1.23828125-4.3173828125-.1572265625-1.5078125-.83984375-2.8095703125-2.0537109375-3.9013671875s-2.9619140625-1.8583984375-5.2451171875-2.302734375c-2.28515625-.443359375-5.1181640625-.2958984375-8.4970703125.4404296875.4052734375,2.5458984375.7578125,5.064453125,1.05859375,7.552734375.30078125,2.490234375.6220703125,5.0439453125.9677734375,7.66015625ZM193.638671875,101.3349609375c3.580078125.107421875,6.556640625-.298828125,8.9296875-1.21875,2.37109375-.9189453125,4.115234375-2.052734375,5.23046875-3.400390625,1.1142578125-1.345703125,1.62890625-2.7431640625,1.544921875-4.193359375-.0849609375-1.447265625-.759765625-2.6494140625-2.02734375-3.60546875-1.2685546875-.955078125-3.1337890625-1.5146484375-5.59375-1.6796875-2.4609375-.1630859375-5.49609375.330078125-9.10546875,1.482421875l1.021484375,12.615234375Z"/>
          </g>
        </a>
        <path class="cls-3" d="M166.72265625,108.9619140625c-8.685546875.4306640625-17.2958984375.8701171875-25.8291015625,1.31640625-8.533203125.44580078125-17.1376953125.95654296875-25.81640625,1.533203125-.6142578125-.060546875-1.1845703125-.1962890625-1.7060546875-.40771484375-.421875-.21923828125-.849609375-.55908203125-1.28515625-1.01953125-.435546875-.4619140625-.728515625-1.1025390625-.880859375-1.92236328125-.154296875-.8681640625-.271484375-1.7509765625-.3515625-2.64794921875-.080078125-.89892578125-.0302734375-1.74267578125.150390625-2.5341796875.181640625-.791015625.546875-1.48388671875,1.09765625-2.07763671875.548828125-.59521484375,1.40234375-1,2.5625-1.216796875.5517578125-.13232421875,1.7158203125-.25146484375,3.494140625-.359375,1.775390625-.10791015625,3.923828125-.20166015625,6.439453125-.2822265625,2.517578125-.07958984375,5.2900390625-.16259765625,8.31640625-.2490234375,3.025390625-.087890625,6.06640625-.1494140625,9.1220703125-.18896484375,3.0517578125-.0888671875,6.0029296875-.13427734375,8.8564453125-.13720703125s5.400390625-.0234375,7.640625-.06201171875c2.59765625-.01171875,5.04296875-.013671875,7.3359375-.0068359375.4541015625-.07666015625.865234375-.0283203125,1.232421875.14453125.3125.126953125.59375.34033203125.8408203125.6435546875.2490234375.3017578125.41796875.79052734375.5107421875,1.46875.041015625.6796875.08984375,1.46875.14453125,2.369140625.0546875.8984375.0419921875,1.763671875-.033203125,2.5986328125-.078125.8330078125-.2509765625,1.53955078125-.521484375,2.11669921875-.271484375.57666015625-.7109375.8837890625-1.3203125.9208984375Z"/>
        <path class="cls-3" d="M144.8115234375,52.361328125c.232421875,8.69384765625.4736328125,17.3115234375.7255859375,25.8525390625s.56640625,17.1552734375.9453125,25.8447265625c-.07421875.61328125-.22265625,1.1796875-.447265625,1.6962890625-.228515625.4169921875-.578125.83642578125-1.0478515625,1.26123046875-.4716796875.42578125-1.1181640625.703125-1.9423828125.8369140625-.87109375.13427734375-1.7568359375.2314453125-2.6552734375.2919921875-.8994140625.05908203125-1.7431640625-.01025390625-2.5283203125-.20947265625-.787109375-.19873046875-1.47265625-.580078125-2.0537109375-1.1435546875-.58203125-.56201171875-.9677734375-1.42578125-1.1572265625-2.58984375-.1201171875-.5546875-.212890625-1.72119140625-.279296875-3.5009765625-.068359375-1.7783203125-.11328125-3.927734375-.1357421875-6.44580078125-.0224609375-2.5185546875-.0419921875-5.291015625-.0595703125-8.3193359375-.0185546875-3.02685546875-.0107421875-6.06884765625.01953125-9.1240234375-.01953125-3.05224609375.001953125-6.0048828125.0654296875-8.85791015625.060546875-2.8515625.0986328125-5.3984375.1123046875-7.63818359375.046875-2.59765625.1005859375-5.04296875.1591796875-7.3349609375-.06640625-.4560546875-.0087890625-.86474609375.1728515625-1.22900390625.134765625-.31005859375.353515625-.5859375.662109375-.82568359375.30859375-.2412109375.80078125-.39990234375,1.48046875-.47705078125.6806640625-.02587890625,1.470703125-.0556640625,2.37109375-.08984375s1.765625-.00244140625,2.59765625.0927734375c.83203125.095703125,1.533203125.28466796875,2.103515625.56884765625.572265625.283203125.869140625.73046875.8916015625,1.34033203125Z"/>
      </g>
    </g>
  </a>
</svg>