<?xml version="1.0" encoding="UTF-8"?>
<svg id="Content" xmlns="http://www.w3.org/2000/svg" xmlns:xlink="http://www.w3.org/1999/xlink" viewBox="0 0 280 280">
  <defs>
    <style>
      .cls-1 {
        stroke: #665451;
        stroke-width: 50px;
      }

      .cls-1, .cls-2 {
        fill: none;
        stroke-linecap: round;
        stroke-linejoin: round;
      }

      .cls-3 {
        fill: #fff;
      }

      .cls-2 {
        stroke: #998675;
        stroke-width: 2px;
      }
    </style>
  </defs>
  <a xlink:href="https://www.notion.so/congruence/Intersection-of-A-B-d71da5b7b3d34d8e903f0e2f24a07f7b?pvs=4">
    <g>
      <a xlink:href="https://www.notion.so/congruence/B-Event-1f1a5b08a72c49f5ab60f2e0793fd0a8?pvs=4">
        <g>
          <path class="cls-3" d="M73.175781249998181,54.67041015625c3.205078125,1.5244140625,6,3.4873046875,8.3828125,5.8876953125,2.384765625,2.404296875,4.4443359375,5.07421875,6.18359375,8.013671875,1.73828125,2.94140625,3.1884765625,6.0869140625,4.3525390625,9.4365234375,1.1630859375,3.3544921875,2.126953125,6.7421875,2.8916015625,10.166015625,1.681640625,6.755859375,2.88671875,13.6298828125,3.6171875,20.6259765625.728515625,6.994140625,1.177734375,14.0546875,1.349609375,21.1748046875.001953125,2.0263671875-.025390625,3.6923828125-.08203125,4.9921875-.0576171875,1.302734375-.2744140625,2.375-.6513671875,3.2158203125-.3779296875.841796875-.951171875,1.537109375-1.7158203125,2.083984375-.767578125.5498046875-1.8583984375,1.08251953125-3.275390625,1.60400390625-1.3583984375.271484375-2.7783203125.5078125-4.2607421875.7109375-1.4853515625.197265625-2.9072265625-.08984375-4.2666015625-.87109375-1.2734375-.70703125-2.392578125-1.99658203125-3.353515625-3.86474609375-.962890625-1.8671875-1.630859375-4.6103515625-2.00390625-8.2294921875l-.09765625-1.208984375c-2.03515625-.0771484375-4.4462890625-.083984375-7.23828125-.01953125-2.79296875.0634765625-5.640625.193359375-8.54296875.3876953125-2.904296875.1953125-5.705078125.400390625-8.40234375.619140625-2.701171875.21875-4.9755859375.4033203125-6.828125.5537109375-.021484375.73046875-.0244140625,1.947265625-.0078125,3.6494140625.015625,1.701171875-.109375,3.4130859375-.375,5.138671875-.2666015625,1.7236328125-.6865234375,3.29833984375-1.2587890625,4.72216796875-.57421875,1.427734375-1.4619140625,2.2265625-2.6630859375,2.40625-1.123046875.169921875-2.404296875.35546875-3.8466796875.5546875-1.4443359375.197265625-2.8681640625.150390625-4.2685546875-.140625-1.396484375-.208984375-2.59765625-.763671875-3.6005859375-1.654296875-1.0048828125-.892578125-1.6337890625-2.380859375-1.8818359375-4.46923828125-.203125-2.49609375-.39453125-5.359375-.57421875-8.58984375-.181640625-3.2265625-.3037109375-6.7431640625-.369140625-10.5498046875-.09375-3.1552734375-.1103515625-6.6201171875-.05078125-10.3955078125.05859375-3.7744140625.26953125-7.662109375.634765625-11.666015625.365234375-4.001953125.931640625-8.021484375,1.69921875-12.056640625.767578125-4.0341796875,1.833984375-7.8916015625,3.1982421875-11.5712890625,1.3623046875-3.6767578125,3.052734375-7.09765625,5.0673828125-10.2607421875,2.013671875-3.162109375,4.509765625-5.8779296875,7.4892578125-8.1474609375,3.5146484375-2.6357421875,7.4873046875-4.1337890625,11.9189453125-4.4931640625,4.4296875-.3583984375,8.70703125.388671875,12.830078125,2.2451171875ZM48.269531249998181,112.02587890625c5.041015625-.8134765625,10.072265625-1.5244140625,15.0908203125-2.134765625,5.0166015625-.607421875,10.0712890625-1.0390625,15.158203125-1.2880859375-.2216796875-5.7392578125-.8779296875-10.833984375-1.9677734375-15.287109375-1.08984375-4.451171875-2.4072265625-8.1767578125-3.9462890625-11.173828125-1.5400390625-2.99609375-3.2626953125-5.248046875-5.1689453125-6.7568359375-1.90625-1.5068359375-3.78515625-2.185546875-5.6376953125-2.0361328125-1.6123046875.130859375-3.2158203125,1.0927734375-4.8134765625,2.8828125-1.599609375,1.79296875-3.0146484375,4.33984375-4.24609375,7.640625-1.2333984375,3.3056640625-2.263671875,7.3408203125-3.0927734375,12.1103515625-.8310546875,4.76953125-1.2900390625,10.1181640625-1.3759765625,16.04296875Z"/>
          <path class="cls-3" d="M238.314453124998181,82.88720703125c3.765625,2.451171875,6.6787109375,5.642578125,8.7412109375,9.5673828125,2.060546875,3.9296875,2.9453125,8.0927734375,2.654296875,12.49609375-.3271484375,4.9716796875-1.9248046875,9.2578125-4.7958984375,12.853515625-2.87109375,3.5986328125-6.36328125,6.5361328125-10.4765625,8.8154296875-4.11328125,2.2783203125-8.619140625,3.9423828125-13.521484375,4.98828125-4.9013671875,1.044921875-9.546875,1.501953125-13.935546875,1.3720703125-.3916015625.1923828125-.74609375.3212890625-1.0634765625.3896484375-.3193359375.06640625-.6767578125.15625-1.0732421875.2685546875-1.443359375.197265625-2.9345703125.318359375-4.470703125.3623046875-1.537109375.0439453125-2.947265625-.1064453125-4.2314453125-.447265625-1.28515625-.3388671875-2.4111328125-.978515625-3.3779296875-1.916015625-.96875-.93359375-1.607421875-2.3212890625-1.9189453125-4.1611328125-.234375-.8720703125-.4189453125-2.66015625-.5556640625-5.3671875-.1396484375-2.7041015625-.32421875-5.994140625-.556640625-9.8671875-.16015625-3.9599609375-.365234375-8.259765625-.619140625-12.90234375-.25390625-4.640625-.53125-9.3017578125-.8291015625-13.98046875-.4169921875-6.1279296875-.833984375-12.296875-1.2568359375-18.505859375s-1.169921875-12.4326171875-2.2412109375-18.669921875c-.2216796875-.712890625-.1923828125-1.36328125.0849609375-1.953125.12109375-.4970703125.4462890625-.9892578125.974609375-1.478515625.52734375-.4873046875,1.3486328125-.857421875,2.4638671875-1.111328125.7978515625-.14453125,1.67578125-.3369140625,2.62890625-.578125.9541015625-.23828125,1.9501953125-.4404296875,2.9912109375-.607421875,1.0400390625-.1630859375,2.048828125-.2451171875,3.021484375-.2451171875.97265625.00390625,1.83203125.0947265625,2.576171875.279296875,4.0625-.8955078125,8.369140625-1.2666015625,12.923828125-1.1083984375,4.552734375.1591796875,8.888671875.8818359375,13.0068359375,2.1689453125,4.1181640625,1.2900390625,7.7548828125,3.1630859375,10.9150390625,5.6220703125,3.158203125,2.4619140625,5.37890625,5.5849609375,6.658203125,9.3720703125.5390625,1.66015625.9248046875,3.4140625,1.15625,5.2587890625.228515625,1.84765625.18359375,3.7763671875-.140625,5.7880859375-.322265625,2.0146484375-.94140625,4.1328125-1.85546875,6.3544921875s-2.2080078125,4.537109375-3.876953125,6.9423828125ZM206.320312499998181,78.30224609375c3.880859375-.150390625,7.109375-.818359375,9.689453125-2.0009765625,2.580078125-1.181640625,4.470703125-2.6123046875,5.6728515625-4.291015625,1.2021484375-1.6767578125,1.7080078125-3.44140625,1.517578125-5.2919921875-.1923828125-1.84765625-1.0302734375-3.443359375-2.5166015625-4.7822265625-1.4873046875-1.337890625-3.630859375-2.2783203125-6.431640625-2.8232421875-2.80078125-.54296875-6.2734375-.3623046875-10.4150390625.5390625.49609375,3.123046875.9287109375,6.208984375,1.2978515625,9.2607421875.369140625,3.052734375.763671875,6.181640625,1.185546875,9.3896484375ZM209.521484374998181,113.31396484375c4.3896484375.130859375,8.037109375-.3662109375,10.947265625-1.494140625,2.9072265625-1.126953125,5.044921875-2.5166015625,6.412109375-4.169921875,1.365234375-1.6494140625,1.99609375-3.36328125,1.89453125-5.138671875-.103515625-1.7734375-.931640625-3.248046875-2.486328125-4.4208984375-1.5546875-1.169921875-3.8408203125-1.857421875-6.85546875-2.05859375-3.017578125-.201171875-6.7392578125.404296875-11.1640625,1.81640625l1.251953125,15.4658203125Z"/>
        </g>
      </a>
      <g>
        <a xlink:href="https://www.notion.so/congruence/B-Event-1f1a5b08a72c49f5ab60f2e0793fd0a8?pvs=4">
          <g>
            <g>
              <path class="cls-1" d="M73.175781249998181,54.67041015625c3.205078125,1.5244140625,6,3.4873046875,8.3828125,5.8876953125,2.384765625,2.404296875,4.4443359375,5.07421875,6.18359375,8.013671875,1.73828125,2.94140625,3.1884765625,6.0869140625,4.3525390625,9.4365234375,1.1630859375,3.3544921875,2.126953125,6.7421875,2.8916015625,10.166015625,1.681640625,6.755859375,2.88671875,13.6298828125,3.6171875,20.6259765625.728515625,6.994140625,1.177734375,14.0546875,1.349609375,21.1748046875.001953125,2.0263671875-.025390625,3.6923828125-.08203125,4.9921875-.0576171875,1.302734375-.2744140625,2.375-.6513671875,3.2158203125-.3779296875.841796875-.951171875,1.537109375-1.7158203125,2.083984375-.767578125.5498046875-1.8583984375,1.08251953125-3.275390625,1.60400390625-1.3583984375.271484375-2.7783203125.5078125-4.2607421875.7109375-1.4853515625.197265625-2.9072265625-.08984375-4.2666015625-.87109375-1.2734375-.70703125-2.392578125-1.99658203125-3.353515625-3.86474609375-.962890625-1.8671875-1.630859375-4.6103515625-2.00390625-8.2294921875l-.09765625-1.208984375c-2.03515625-.0771484375-4.4462890625-.083984375-7.23828125-.01953125-2.79296875.0634765625-5.640625.193359375-8.54296875.3876953125-2.904296875.1953125-5.705078125.400390625-8.40234375.619140625-2.701171875.21875-4.9755859375.4033203125-6.828125.5537109375-.021484375.73046875-.0244140625,1.947265625-.0078125,3.6494140625.015625,1.701171875-.109375,3.4130859375-.375,5.138671875-.2666015625,1.7236328125-.6865234375,3.29833984375-1.2587890625,4.72216796875-.57421875,1.427734375-1.4619140625,2.2265625-2.6630859375,2.40625-1.123046875.169921875-2.404296875.35546875-3.8466796875.5546875-1.4443359375.197265625-2.8681640625.150390625-4.2685546875-.140625-1.396484375-.208984375-2.59765625-.763671875-3.6005859375-1.654296875-1.0048828125-.892578125-1.6337890625-2.380859375-1.8818359375-4.46923828125-.203125-2.49609375-.39453125-5.359375-.57421875-8.58984375-.181640625-3.2265625-.3037109375-6.7431640625-.369140625-10.5498046875-.09375-3.1552734375-.1103515625-6.6201171875-.05078125-10.3955078125.05859375-3.7744140625.26953125-7.662109375.634765625-11.666015625.365234375-4.001953125.931640625-8.021484375,1.69921875-12.056640625.767578125-4.0341796875,1.833984375-7.8916015625,3.1982421875-11.5712890625,1.3623046875-3.6767578125,3.052734375-7.09765625,5.0673828125-10.2607421875,2.013671875-3.162109375,4.509765625-5.8779296875,7.4892578125-8.1474609375,3.5146484375-2.6357421875,7.4873046875-4.1337890625,11.9189453125-4.4931640625,4.4296875-.3583984375,8.70703125.388671875,12.830078125,2.2451171875ZM48.269531249998181,112.02587890625c5.041015625-.8134765625,10.072265625-1.5244140625,15.0908203125-2.134765625,5.0166015625-.607421875,10.0712890625-1.0390625,15.158203125-1.2880859375-.2216796875-5.7392578125-.8779296875-10.833984375-1.9677734375-15.287109375-1.08984375-4.451171875-2.4072265625-8.1767578125-3.9462890625-11.173828125-1.5400390625-2.99609375-3.2626953125-5.248046875-5.1689453125-6.7568359375-1.90625-1.5068359375-3.78515625-2.185546875-5.6376953125-2.0361328125-1.6123046875.130859375-3.2158203125,1.0927734375-4.8134765625,2.8828125-1.599609375,1.79296875-3.0146484375,4.33984375-4.24609375,7.640625-1.2333984375,3.3056640625-2.263671875,7.3408203125-3.0927734375,12.1103515625-.8310546875,4.76953125-1.2900390625,10.1181640625-1.3759765625,16.04296875Z"/>
              <path class="cls-1" d="M238.314453124998181,82.88720703125c3.765625,2.451171875,6.6787109375,5.642578125,8.7412109375,9.5673828125,2.060546875,3.9296875,2.9453125,8.0927734375,2.654296875,12.49609375-.3271484375,4.9716796875-1.9248046875,9.2578125-4.7958984375,12.853515625-2.87109375,3.5986328125-6.36328125,6.5361328125-10.4765625,8.8154296875-4.11328125,2.2783203125-8.619140625,3.9423828125-13.521484375,4.98828125-4.9013671875,1.044921875-9.546875,1.501953125-13.935546875,1.3720703125-.3916015625.1923828125-.74609375.3212890625-1.0634765625.3896484375-.3193359375.06640625-.6767578125.15625-1.0732421875.2685546875-1.443359375.197265625-2.9345703125.318359375-4.470703125.3623046875-1.537109375.0439453125-2.947265625-.1064453125-4.2314453125-.447265625-1.28515625-.3388671875-2.4111328125-.978515625-3.3779296875-1.916015625-.96875-.93359375-1.607421875-2.3212890625-1.9189453125-4.1611328125-.234375-.8720703125-.4189453125-2.66015625-.5556640625-5.3671875-.1396484375-2.7041015625-.32421875-5.994140625-.556640625-9.8671875-.16015625-3.9599609375-.365234375-8.259765625-.619140625-12.90234375-.25390625-4.640625-.53125-9.3017578125-.8291015625-13.98046875-.4169921875-6.1279296875-.833984375-12.296875-1.2568359375-18.505859375s-1.169921875-12.4326171875-2.2412109375-18.669921875c-.2216796875-.712890625-.1923828125-1.36328125.0849609375-1.953125.12109375-.4970703125.4462890625-.9892578125.974609375-1.478515625.52734375-.4873046875,1.3486328125-.857421875,2.4638671875-1.111328125.7978515625-.14453125,1.67578125-.3369140625,2.62890625-.578125.9541015625-.23828125,1.9501953125-.4404296875,2.9912109375-.607421875,1.0400390625-.1630859375,2.048828125-.2451171875,3.021484375-.2451171875.97265625.00390625,1.83203125.0947265625,2.576171875.279296875,4.0625-.8955078125,8.369140625-1.2666015625,12.923828125-1.1083984375,4.552734375.1591796875,8.888671875.8818359375,13.0068359375,2.1689453125,4.1181640625,1.2900390625,7.7548828125,3.1630859375,10.9150390625,5.6220703125,3.158203125,2.4619140625,5.37890625,5.5849609375,6.658203125,9.3720703125.5390625,1.66015625.9248046875,3.4140625,1.15625,5.2587890625.228515625,1.84765625.18359375,3.7763671875-.140625,5.7880859375-.322265625,2.0146484375-.94140625,4.1328125-1.85546875,6.3544921875s-2.2080078125,4.537109375-3.876953125,6.9423828125ZM206.320312499998181,78.30224609375c3.880859375-.150390625,7.109375-.818359375,9.689453125-2.0009765625,2.580078125-1.181640625,4.470703125-2.6123046875,5.6728515625-4.291015625,1.2021484375-1.6767578125,1.7080078125-3.44140625,1.517578125-5.2919921875-.1923828125-1.84765625-1.0302734375-3.443359375-2.5166015625-4.7822265625-1.4873046875-1.337890625-3.630859375-2.2783203125-6.431640625-2.8232421875-2.80078125-.54296875-6.2734375-.3623046875-10.4150390625.5390625.49609375,3.123046875.9287109375,6.208984375,1.2978515625,9.2607421875.369140625,3.052734375.763671875,6.181640625,1.185546875,9.3896484375ZM209.521484374998181,113.31396484375c4.3896484375.130859375,8.037109375-.3662109375,10.947265625-1.494140625,2.9072265625-1.126953125,5.044921875-2.5166015625,6.412109375-4.169921875,1.365234375-1.6494140625,1.99609375-3.36328125,1.89453125-5.138671875-.103515625-1.7734375-.931640625-3.248046875-2.486328125-4.4208984375-1.5546875-1.169921875-3.8408203125-1.857421875-6.85546875-2.05859375-3.017578125-.201171875-6.7392578125.404296875-11.1640625,1.81640625l1.251953125,15.4658203125Z"/>
            </g>
            <g>
              <path class="cls-1" d="M73.175781249998181,54.67041015625c3.205078125,1.5244140625,6,3.4873046875,8.3828125,5.8876953125,2.384765625,2.404296875,4.4443359375,5.07421875,6.18359375,8.013671875,1.73828125,2.94140625,3.1884765625,6.0869140625,4.3525390625,9.4365234375,1.1630859375,3.3544921875,2.126953125,6.7421875,2.8916015625,10.166015625,1.681640625,6.755859375,2.88671875,13.6298828125,3.6171875,20.6259765625.728515625,6.994140625,1.177734375,14.0546875,1.349609375,21.1748046875.001953125,2.0263671875-.025390625,3.6923828125-.08203125,4.9921875-.0576171875,1.302734375-.2744140625,2.375-.6513671875,3.2158203125-.3779296875.841796875-.951171875,1.537109375-1.7158203125,2.083984375-.767578125.5498046875-1.8583984375,1.08251953125-3.275390625,1.60400390625-1.3583984375.271484375-2.7783203125.5078125-4.2607421875.7109375-1.4853515625.197265625-2.9072265625-.08984375-4.2666015625-.87109375-1.2734375-.70703125-2.392578125-1.99658203125-3.353515625-3.86474609375-.962890625-1.8671875-1.630859375-4.6103515625-2.00390625-8.2294921875l-.09765625-1.208984375c-2.03515625-.0771484375-4.4462890625-.083984375-7.23828125-.01953125-2.79296875.0634765625-5.640625.193359375-8.54296875.3876953125-2.904296875.1953125-5.705078125.400390625-8.40234375.619140625-2.701171875.21875-4.9755859375.4033203125-6.828125.5537109375-.021484375.73046875-.0244140625,1.947265625-.0078125,3.6494140625.015625,1.701171875-.109375,3.4130859375-.375,5.138671875-.2666015625,1.7236328125-.6865234375,3.29833984375-1.2587890625,4.72216796875-.57421875,1.427734375-1.4619140625,2.2265625-2.6630859375,2.40625-1.123046875.169921875-2.404296875.35546875-3.8466796875.5546875-1.4443359375.197265625-2.8681640625.150390625-4.2685546875-.140625-1.396484375-.208984375-2.59765625-.763671875-3.6005859375-1.654296875-1.0048828125-.892578125-1.6337890625-2.380859375-1.8818359375-4.46923828125-.203125-2.49609375-.39453125-5.359375-.57421875-8.58984375-.181640625-3.2265625-.3037109375-6.7431640625-.369140625-10.5498046875-.09375-3.1552734375-.1103515625-6.6201171875-.05078125-10.3955078125.05859375-3.7744140625.26953125-7.662109375.634765625-11.666015625.365234375-4.001953125.931640625-8.021484375,1.69921875-12.056640625.767578125-4.0341796875,1.833984375-7.8916015625,3.1982421875-11.5712890625,1.3623046875-3.6767578125,3.052734375-7.09765625,5.0673828125-10.2607421875,2.013671875-3.162109375,4.509765625-5.8779296875,7.4892578125-8.1474609375,3.5146484375-2.6357421875,7.4873046875-4.1337890625,11.9189453125-4.4931640625,4.4296875-.3583984375,8.70703125.388671875,12.830078125,2.2451171875ZM48.269531249998181,112.02587890625c5.041015625-.8134765625,10.072265625-1.5244140625,15.0908203125-2.134765625,5.0166015625-.607421875,10.0712890625-1.0390625,15.158203125-1.2880859375-.2216796875-5.7392578125-.8779296875-10.833984375-1.9677734375-15.287109375-1.08984375-4.451171875-2.4072265625-8.1767578125-3.9462890625-11.173828125-1.5400390625-2.99609375-3.2626953125-5.248046875-5.1689453125-6.7568359375-1.90625-1.5068359375-3.78515625-2.185546875-5.6376953125-2.0361328125-1.6123046875.130859375-3.2158203125,1.0927734375-4.8134765625,2.8828125-1.599609375,1.79296875-3.0146484375,4.33984375-4.24609375,7.640625-1.2333984375,3.3056640625-2.263671875,7.3408203125-3.0927734375,12.1103515625-.8310546875,4.76953125-1.2900390625,10.1181640625-1.3759765625,16.04296875Z"/>
              <path class="cls-1" d="M238.314453124998181,82.88720703125c3.765625,2.451171875,6.6787109375,5.642578125,8.7412109375,9.5673828125,2.060546875,3.9296875,2.9453125,8.0927734375,2.654296875,12.49609375-.3271484375,4.9716796875-1.9248046875,9.2578125-4.7958984375,12.853515625-2.87109375,3.5986328125-6.36328125,6.5361328125-10.4765625,8.8154296875-4.11328125,2.2783203125-8.619140625,3.9423828125-13.521484375,4.98828125-4.9013671875,1.044921875-9.546875,1.501953125-13.935546875,1.3720703125-.3916015625.1923828125-.74609375.3212890625-1.0634765625.3896484375-.3193359375.06640625-.6767578125.15625-1.0732421875.2685546875-1.443359375.197265625-2.9345703125.318359375-4.470703125.3623046875-1.537109375.0439453125-2.947265625-.1064453125-4.2314453125-.447265625-1.28515625-.3388671875-2.4111328125-.978515625-3.3779296875-1.916015625-.96875-.93359375-1.607421875-2.3212890625-1.9189453125-4.1611328125-.234375-.8720703125-.4189453125-2.66015625-.5556640625-5.3671875-.1396484375-2.7041015625-.32421875-5.994140625-.556640625-9.8671875-.16015625-3.9599609375-.365234375-8.259765625-.619140625-12.90234375-.25390625-4.640625-.53125-9.3017578125-.8291015625-13.98046875-.4169921875-6.1279296875-.833984375-12.296875-1.2568359375-18.505859375s-1.169921875-12.4326171875-2.2412109375-18.669921875c-.2216796875-.712890625-.1923828125-1.36328125.0849609375-1.953125.12109375-.4970703125.4462890625-.9892578125.974609375-1.478515625.52734375-.4873046875,1.3486328125-.857421875,2.4638671875-1.111328125.7978515625-.14453125,1.67578125-.3369140625,2.62890625-.578125.9541015625-.23828125,1.9501953125-.4404296875,2.9912109375-.607421875,1.0400390625-.1630859375,2.048828125-.2451171875,3.021484375-.2451171875.97265625.00390625,1.83203125.0947265625,2.576171875.279296875,4.0625-.8955078125,8.369140625-1.2666015625,12.923828125-1.1083984375,4.552734375.1591796875,8.888671875.8818359375,13.0068359375,2.1689453125,4.1181640625,1.2900390625,7.7548828125,3.1630859375,10.9150390625,5.6220703125,3.158203125,2.4619140625,5.37890625,5.5849609375,6.658203125,9.3720703125.5390625,1.66015625.9248046875,3.4140625,1.15625,5.2587890625.228515625,1.84765625.18359375,3.7763671875-.140625,5.7880859375-.322265625,2.0146484375-.94140625,4.1328125-1.85546875,6.3544921875s-2.2080078125,4.537109375-3.876953125,6.9423828125ZM206.320312499998181,78.30224609375c3.880859375-.150390625,7.109375-.818359375,9.689453125-2.0009765625,2.580078125-1.181640625,4.470703125-2.6123046875,5.6728515625-4.291015625,1.2021484375-1.6767578125,1.7080078125-3.44140625,1.517578125-5.2919921875-.1923828125-1.84765625-1.0302734375-3.443359375-2.5166015625-4.7822265625-1.4873046875-1.337890625-3.630859375-2.2783203125-6.431640625-2.8232421875-2.80078125-.54296875-6.2734375-.3623046875-10.4150390625.5390625.49609375,3.123046875.9287109375,6.208984375,1.2978515625,9.2607421875.369140625,3.052734375.763671875,6.181640625,1.185546875,9.3896484375ZM209.521484374998181,113.31396484375c4.3896484375.130859375,8.037109375-.3662109375,10.947265625-1.494140625,2.9072265625-1.126953125,5.044921875-2.5166015625,6.412109375-4.169921875,1.365234375-1.6494140625,1.99609375-3.36328125,1.89453125-5.138671875-.103515625-1.7734375-.931640625-3.248046875-2.486328125-4.4208984375-1.5546875-1.169921875-3.8408203125-1.857421875-6.85546875-2.05859375-3.017578125-.201171875-6.7392578125.404296875-11.1640625,1.81640625l1.251953125,15.4658203125Z"/>
            </g>
            <g>
              <path class="cls-1" d="M73.175781249998181,54.67041015625c3.205078125,1.5244140625,6,3.4873046875,8.3828125,5.8876953125,2.384765625,2.404296875,4.4443359375,5.07421875,6.18359375,8.013671875,1.73828125,2.94140625,3.1884765625,6.0869140625,4.3525390625,9.4365234375,1.1630859375,3.3544921875,2.126953125,6.7421875,2.8916015625,10.166015625,1.681640625,6.755859375,2.88671875,13.6298828125,3.6171875,20.6259765625.728515625,6.994140625,1.177734375,14.0546875,1.349609375,21.1748046875.001953125,2.0263671875-.025390625,3.6923828125-.08203125,4.9921875-.0576171875,1.302734375-.2744140625,2.375-.6513671875,3.2158203125-.3779296875.841796875-.951171875,1.537109375-1.7158203125,2.083984375-.767578125.5498046875-1.8583984375,1.08251953125-3.275390625,1.60400390625-1.3583984375.271484375-2.7783203125.5078125-4.2607421875.7109375-1.4853515625.197265625-2.9072265625-.08984375-4.2666015625-.87109375-1.2734375-.70703125-2.392578125-1.99658203125-3.353515625-3.86474609375-.962890625-1.8671875-1.630859375-4.6103515625-2.00390625-8.2294921875l-.09765625-1.208984375c-2.03515625-.0771484375-4.4462890625-.083984375-7.23828125-.01953125-2.79296875.0634765625-5.640625.193359375-8.54296875.3876953125-2.904296875.1953125-5.705078125.400390625-8.40234375.619140625-2.701171875.21875-4.9755859375.4033203125-6.828125.5537109375-.021484375.73046875-.0244140625,1.947265625-.0078125,3.6494140625.015625,1.701171875-.109375,3.4130859375-.375,5.138671875-.2666015625,1.7236328125-.6865234375,3.29833984375-1.2587890625,4.72216796875-.57421875,1.427734375-1.4619140625,2.2265625-2.6630859375,2.40625-1.123046875.169921875-2.404296875.35546875-3.8466796875.5546875-1.4443359375.197265625-2.8681640625.150390625-4.2685546875-.140625-1.396484375-.208984375-2.59765625-.763671875-3.6005859375-1.654296875-1.0048828125-.892578125-1.6337890625-2.380859375-1.8818359375-4.46923828125-.203125-2.49609375-.39453125-5.359375-.57421875-8.58984375-.181640625-3.2265625-.3037109375-6.7431640625-.369140625-10.5498046875-.09375-3.1552734375-.1103515625-6.6201171875-.05078125-10.3955078125.05859375-3.7744140625.26953125-7.662109375.634765625-11.666015625.365234375-4.001953125.931640625-8.021484375,1.69921875-12.056640625.767578125-4.0341796875,1.833984375-7.8916015625,3.1982421875-11.5712890625,1.3623046875-3.6767578125,3.052734375-7.09765625,5.0673828125-10.2607421875,2.013671875-3.162109375,4.509765625-5.8779296875,7.4892578125-8.1474609375,3.5146484375-2.6357421875,7.4873046875-4.1337890625,11.9189453125-4.4931640625,4.4296875-.3583984375,8.70703125.388671875,12.830078125,2.2451171875ZM48.269531249998181,112.02587890625c5.041015625-.8134765625,10.072265625-1.5244140625,15.0908203125-2.134765625,5.0166015625-.607421875,10.0712890625-1.0390625,15.158203125-1.2880859375-.2216796875-5.7392578125-.8779296875-10.833984375-1.9677734375-15.287109375-1.08984375-4.451171875-2.4072265625-8.1767578125-3.9462890625-11.173828125-1.5400390625-2.99609375-3.2626953125-5.248046875-5.1689453125-6.7568359375-1.90625-1.5068359375-3.78515625-2.185546875-5.6376953125-2.0361328125-1.6123046875.130859375-3.2158203125,1.0927734375-4.8134765625,2.8828125-1.599609375,1.79296875-3.0146484375,4.33984375-4.24609375,7.640625-1.2333984375,3.3056640625-2.263671875,7.3408203125-3.0927734375,12.1103515625-.8310546875,4.76953125-1.2900390625,10.1181640625-1.3759765625,16.04296875Z"/>
              <path class="cls-1" d="M238.314453124998181,82.88720703125c3.765625,2.451171875,6.6787109375,5.642578125,8.7412109375,9.5673828125,2.060546875,3.9296875,2.9453125,8.0927734375,2.654296875,12.49609375-.3271484375,4.9716796875-1.9248046875,9.2578125-4.7958984375,12.853515625-2.87109375,3.5986328125-6.36328125,6.5361328125-10.4765625,8.8154296875-4.11328125,2.2783203125-8.619140625,3.9423828125-13.521484375,4.98828125-4.9013671875,1.044921875-9.546875,1.501953125-13.935546875,1.3720703125-.3916015625.1923828125-.74609375.3212890625-1.0634765625.3896484375-.3193359375.06640625-.6767578125.15625-1.0732421875.2685546875-1.443359375.197265625-2.9345703125.318359375-4.470703125.3623046875-1.537109375.0439453125-2.947265625-.1064453125-4.2314453125-.447265625-1.28515625-.3388671875-2.4111328125-.978515625-3.3779296875-1.916015625-.96875-.93359375-1.607421875-2.3212890625-1.9189453125-4.1611328125-.234375-.8720703125-.4189453125-2.66015625-.5556640625-5.3671875-.1396484375-2.7041015625-.32421875-5.994140625-.556640625-9.8671875-.16015625-3.9599609375-.365234375-8.259765625-.619140625-12.90234375-.25390625-4.640625-.53125-9.3017578125-.8291015625-13.98046875-.4169921875-6.1279296875-.833984375-12.296875-1.2568359375-18.505859375s-1.169921875-12.4326171875-2.2412109375-18.669921875c-.2216796875-.712890625-.1923828125-1.36328125.0849609375-1.953125.12109375-.4970703125.4462890625-.9892578125.974609375-1.478515625.52734375-.4873046875,1.3486328125-.857421875,2.4638671875-1.111328125.7978515625-.14453125,1.67578125-.3369140625,2.62890625-.578125.9541015625-.23828125,1.9501953125-.4404296875,2.9912109375-.607421875,1.0400390625-.1630859375,2.048828125-.2451171875,3.021484375-.2451171875.97265625.00390625,1.83203125.0947265625,2.576171875.279296875,4.0625-.8955078125,8.369140625-1.2666015625,12.923828125-1.1083984375,4.552734375.1591796875,8.888671875.8818359375,13.0068359375,2.1689453125,4.1181640625,1.2900390625,7.7548828125,3.1630859375,10.9150390625,5.6220703125,3.158203125,2.4619140625,5.37890625,5.5849609375,6.658203125,9.3720703125.5390625,1.66015625.9248046875,3.4140625,1.15625,5.2587890625.228515625,1.84765625.18359375,3.7763671875-.140625,5.7880859375-.322265625,2.0146484375-.94140625,4.1328125-1.85546875,6.3544921875s-2.2080078125,4.537109375-3.876953125,6.9423828125ZM206.320312499998181,78.30224609375c3.880859375-.150390625,7.109375-.818359375,9.689453125-2.0009765625,2.580078125-1.181640625,4.470703125-2.6123046875,5.6728515625-4.291015625,1.2021484375-1.6767578125,1.7080078125-3.44140625,1.517578125-5.2919921875-.1923828125-1.84765625-1.0302734375-3.443359375-2.5166015625-4.7822265625-1.4873046875-1.337890625-3.630859375-2.2783203125-6.431640625-2.8232421875-2.80078125-.54296875-6.2734375-.3623046875-10.4150390625.5390625.49609375,3.123046875.9287109375,6.208984375,1.2978515625,9.2607421875.369140625,3.052734375.763671875,6.181640625,1.185546875,9.3896484375ZM209.521484374998181,113.31396484375c4.3896484375.130859375,8.037109375-.3662109375,10.947265625-1.494140625,2.9072265625-1.126953125,5.044921875-2.5166015625,6.412109375-4.169921875,1.365234375-1.6494140625,1.99609375-3.36328125,1.89453125-5.138671875-.103515625-1.7734375-.931640625-3.248046875-2.486328125-4.4208984375-1.5546875-1.169921875-3.8408203125-1.857421875-6.85546875-2.05859375-3.017578125-.201171875-6.7392578125.404296875-11.1640625,1.81640625l1.251953125,15.4658203125Z"/>
            </g>
          </g>
        </a>
        <path class="cls-1" d="M157.098632812498181,104.4873046875c.1455078125-3.1884765625.216796875-6.1669921875.216796875-8.9365234375,0-2.7685546875-.361328125-5.4111328125-1.0849609375-7.9287109375-.72265625-2.7412109375-1.845703125-4.978515625-3.365234375-6.7119140625-1.51953125-1.734375-3.23828125-3.0078125-5.15625-3.8173828125-1.916015625-.8115234375-3.908203125-1.1474609375-5.970703125-1.0068359375-2.0625.138671875-4.0517578125.6708984375-5.9697265625,1.59375-1.9169921875.9228515625-3.63671875,2.2236328125-5.15625,3.9013671875-1.5205078125,1.6787109375-2.6416015625,3.7197265625-3.365234375,6.125-.72265625,2.236328125-1.2294921875,4.82421875-1.51953125,7.76171875-.2880859375,2.9365234375-.4345703125,5.9150390625-.4345703125,8.935546875s.146484375,5.9423828125.4345703125,8.767578125c.2900390625,2.82421875.580078125,5.244140625.8681640625,7.2578125.216796875,1.4541015625-.361328125,2.62890625-1.736328125,3.5234375-1.3740234375.89453125-2.9853515625,1.439453125-4.8310546875,1.63671875-1.8447265625.1953125-3.6533203125,0-5.4267578125-.587890625-1.7734375-.5869140625-2.9482421875-1.6357421875-3.5283203125-3.146484375-1.0126953125-2.5732421875-1.75390625-5.341796875-2.2255859375-8.3056640625-.4697265625-2.9658203125-.7412109375-5.9443359375-.814453125-8.935546875-.0703125-2.9931640625.037109375-5.9296875.326171875-8.810546875.2900390625-2.880859375.6884765625-5.5517578125,1.193359375-8.0126953125.7978515625-3.30078125,2.0625-6.4892578125,3.7998046875-9.564453125,1.7373046875-3.0771484375,3.9619140625-5.7900390625,6.67578125-8.138671875,2.7138671875-2.349609375,5.9345703125-4.224609375,9.6611328125-5.6220703125,3.728515625-1.3984375,7.943359375-2.041015625,12.646484375-1.9296875,2.9677734375.056640625,5.7529296875.447265625,8.357421875,1.1748046875,2.60546875.7265625,5.0126953125,1.69140625,7.21875,2.89453125,2.208984375,1.2021484375,4.1796875,2.6142578125,5.916015625,4.2373046875,1.7373046875,1.62109375,3.220703125,3.3564453125,4.451171875,5.2021484375,2.244140625,3.4677734375,3.7822265625,7.3828125,4.61328125,11.74609375.8330078125,4.36328125,1.248046875,8.6552734375,1.248046875,12.87890625,0,4.22265625-.234375,8.1103515625-.705078125,11.6630859375-.470703125,3.5517578125-.9228515625,6.3056640625-1.357421875,8.2646484375-.14453125,1.0615234375-.6865234375,1.9423828125-1.6279296875,2.642578125-.939453125.69921875-2.0439453125,1.216796875-3.310546875,1.552734375-1.265625.3349609375-2.6220703125.5029296875-4.0712890625.5029296875-1.4462890625,0-2.767578125-.1826171875-3.9619140625-.544921875-1.1943359375-.365234375-2.1708984375-.9228515625-2.9306640625-1.6787109375-.759765625-.7548828125-1.1025390625-1.6650390625-1.03125-2.7265625l1.9541015625-15.857421875Z"/>
      </g>
      <g>
        <a xlink:href="https://www.notion.so/congruence/B-Event-1f1a5b08a72c49f5ab60f2e0793fd0a8?pvs=4">
          <g>
            <g>
              <path class="cls-2" d="M73.175781249998181,54.67041015625c3.205078125,1.5244140625,6,3.4873046875,8.3828125,5.8876953125,2.384765625,2.404296875,4.4443359375,5.07421875,6.18359375,8.013671875,1.73828125,2.94140625,3.1884765625,6.0869140625,4.3525390625,9.4365234375,1.1630859375,3.3544921875,2.126953125,6.7421875,2.8916015625,10.166015625,1.681640625,6.755859375,2.88671875,13.6298828125,3.6171875,20.6259765625.728515625,6.994140625,1.177734375,14.0546875,1.349609375,21.1748046875.001953125,2.0263671875-.025390625,3.6923828125-.08203125,4.9921875-.0576171875,1.302734375-.2744140625,2.375-.6513671875,3.2158203125-.3779296875.841796875-.951171875,1.537109375-1.7158203125,2.083984375-.767578125.5498046875-1.8583984375,1.08251953125-3.275390625,1.60400390625-1.3583984375.271484375-2.7783203125.5078125-4.2607421875.7109375-1.4853515625.197265625-2.9072265625-.08984375-4.2666015625-.87109375-1.2734375-.70703125-2.392578125-1.99658203125-3.353515625-3.86474609375-.962890625-1.8671875-1.630859375-4.6103515625-2.00390625-8.2294921875l-.09765625-1.208984375c-2.03515625-.0771484375-4.4462890625-.083984375-7.23828125-.01953125-2.79296875.0634765625-5.640625.193359375-8.54296875.3876953125-2.904296875.1953125-5.705078125.400390625-8.40234375.619140625-2.701171875.21875-4.9755859375.4033203125-6.828125.5537109375-.021484375.73046875-.0244140625,1.947265625-.0078125,3.6494140625.015625,1.701171875-.109375,3.4130859375-.375,5.138671875-.2666015625,1.7236328125-.6865234375,3.29833984375-1.2587890625,4.72216796875-.57421875,1.427734375-1.4619140625,2.2265625-2.6630859375,2.40625-1.123046875.169921875-2.404296875.35546875-3.8466796875.5546875-1.4443359375.197265625-2.8681640625.150390625-4.2685546875-.140625-1.396484375-.208984375-2.59765625-.763671875-3.6005859375-1.654296875-1.0048828125-.892578125-1.6337890625-2.380859375-1.8818359375-4.46923828125-.203125-2.49609375-.39453125-5.359375-.57421875-8.58984375-.181640625-3.2265625-.3037109375-6.7431640625-.369140625-10.5498046875-.09375-3.1552734375-.1103515625-6.6201171875-.05078125-10.3955078125.05859375-3.7744140625.26953125-7.662109375.634765625-11.666015625.365234375-4.001953125.931640625-8.021484375,1.69921875-12.056640625.767578125-4.0341796875,1.833984375-7.8916015625,3.1982421875-11.5712890625,1.3623046875-3.6767578125,3.052734375-7.09765625,5.0673828125-10.2607421875,2.013671875-3.162109375,4.509765625-5.8779296875,7.4892578125-8.1474609375,3.5146484375-2.6357421875,7.4873046875-4.1337890625,11.9189453125-4.4931640625,4.4296875-.3583984375,8.70703125.388671875,12.830078125,2.2451171875ZM48.269531249998181,112.02587890625c5.041015625-.8134765625,10.072265625-1.5244140625,15.0908203125-2.134765625,5.0166015625-.607421875,10.0712890625-1.0390625,15.158203125-1.2880859375-.2216796875-5.7392578125-.8779296875-10.833984375-1.9677734375-15.287109375-1.08984375-4.451171875-2.4072265625-8.1767578125-3.9462890625-11.173828125-1.5400390625-2.99609375-3.2626953125-5.248046875-5.1689453125-6.7568359375-1.90625-1.5068359375-3.78515625-2.185546875-5.6376953125-2.0361328125-1.6123046875.130859375-3.2158203125,1.0927734375-4.8134765625,2.8828125-1.599609375,1.79296875-3.0146484375,4.33984375-4.24609375,7.640625-1.2333984375,3.3056640625-2.263671875,7.3408203125-3.0927734375,12.1103515625-.8310546875,4.76953125-1.2900390625,10.1181640625-1.3759765625,16.04296875Z"/>
              <path class="cls-2" d="M238.314453124998181,82.88720703125c3.765625,2.451171875,6.6787109375,5.642578125,8.7412109375,9.5673828125,2.060546875,3.9296875,2.9453125,8.0927734375,2.654296875,12.49609375-.3271484375,4.9716796875-1.9248046875,9.2578125-4.7958984375,12.853515625-2.87109375,3.5986328125-6.36328125,6.5361328125-10.4765625,8.8154296875-4.11328125,2.2783203125-8.619140625,3.9423828125-13.521484375,4.98828125-4.9013671875,1.044921875-9.546875,1.501953125-13.935546875,1.3720703125-.3916015625.1923828125-.74609375.3212890625-1.0634765625.3896484375-.3193359375.06640625-.6767578125.15625-1.0732421875.2685546875-1.443359375.197265625-2.9345703125.318359375-4.470703125.3623046875-1.537109375.0439453125-2.947265625-.1064453125-4.2314453125-.447265625-1.28515625-.3388671875-2.4111328125-.978515625-3.3779296875-1.916015625-.96875-.93359375-1.607421875-2.3212890625-1.9189453125-4.1611328125-.234375-.8720703125-.4189453125-2.66015625-.5556640625-5.3671875-.1396484375-2.7041015625-.32421875-5.994140625-.556640625-9.8671875-.16015625-3.9599609375-.365234375-8.259765625-.619140625-12.90234375-.25390625-4.640625-.53125-9.3017578125-.8291015625-13.98046875-.4169921875-6.1279296875-.833984375-12.296875-1.2568359375-18.505859375s-1.169921875-12.4326171875-2.2412109375-18.669921875c-.2216796875-.712890625-.1923828125-1.36328125.0849609375-1.953125.12109375-.4970703125.4462890625-.9892578125.974609375-1.478515625.52734375-.4873046875,1.3486328125-.857421875,2.4638671875-1.111328125.7978515625-.14453125,1.67578125-.3369140625,2.62890625-.578125.9541015625-.23828125,1.9501953125-.4404296875,2.9912109375-.607421875,1.0400390625-.1630859375,2.048828125-.2451171875,3.021484375-.2451171875.97265625.00390625,1.83203125.0947265625,2.576171875.279296875,4.0625-.8955078125,8.369140625-1.2666015625,12.923828125-1.1083984375,4.552734375.1591796875,8.888671875.8818359375,13.0068359375,2.1689453125,4.1181640625,1.2900390625,7.7548828125,3.1630859375,10.9150390625,5.6220703125,3.158203125,2.4619140625,5.37890625,5.5849609375,6.658203125,9.3720703125.5390625,1.66015625.9248046875,3.4140625,1.15625,5.2587890625.228515625,1.84765625.18359375,3.7763671875-.140625,5.7880859375-.322265625,2.0146484375-.94140625,4.1328125-1.85546875,6.3544921875s-2.2080078125,4.537109375-3.876953125,6.9423828125ZM206.320312499998181,78.30224609375c3.880859375-.150390625,7.109375-.818359375,9.689453125-2.0009765625,2.580078125-1.181640625,4.470703125-2.6123046875,5.6728515625-4.291015625,1.2021484375-1.6767578125,1.7080078125-3.44140625,1.517578125-5.2919921875-.1923828125-1.84765625-1.0302734375-3.443359375-2.5166015625-4.7822265625-1.4873046875-1.337890625-3.630859375-2.2783203125-6.431640625-2.8232421875-2.80078125-.54296875-6.2734375-.3623046875-10.4150390625.5390625.49609375,3.123046875.9287109375,6.208984375,1.2978515625,9.2607421875.369140625,3.052734375.763671875,6.181640625,1.185546875,9.3896484375ZM209.521484374998181,113.31396484375c4.3896484375.130859375,8.037109375-.3662109375,10.947265625-1.494140625,2.9072265625-1.126953125,5.044921875-2.5166015625,6.412109375-4.169921875,1.365234375-1.6494140625,1.99609375-3.36328125,1.89453125-5.138671875-.103515625-1.7734375-.931640625-3.248046875-2.486328125-4.4208984375-1.5546875-1.169921875-3.8408203125-1.857421875-6.85546875-2.05859375-3.017578125-.201171875-6.7392578125.404296875-11.1640625,1.81640625l1.251953125,15.4658203125Z"/>
            </g>
            <g>
              <path class="cls-2" d="M73.175781249998181,54.67041015625c3.205078125,1.5244140625,6,3.4873046875,8.3828125,5.8876953125,2.384765625,2.404296875,4.4443359375,5.07421875,6.18359375,8.013671875,1.73828125,2.94140625,3.1884765625,6.0869140625,4.3525390625,9.4365234375,1.1630859375,3.3544921875,2.126953125,6.7421875,2.8916015625,10.166015625,1.681640625,6.755859375,2.88671875,13.6298828125,3.6171875,20.6259765625.728515625,6.994140625,1.177734375,14.0546875,1.349609375,21.1748046875.001953125,2.0263671875-.025390625,3.6923828125-.08203125,4.9921875-.0576171875,1.302734375-.2744140625,2.375-.6513671875,3.2158203125-.3779296875.841796875-.951171875,1.537109375-1.7158203125,2.083984375-.767578125.5498046875-1.8583984375,1.08251953125-3.275390625,1.60400390625-1.3583984375.271484375-2.7783203125.5078125-4.2607421875.7109375-1.4853515625.197265625-2.9072265625-.08984375-4.2666015625-.87109375-1.2734375-.70703125-2.392578125-1.99658203125-3.353515625-3.86474609375-.962890625-1.8671875-1.630859375-4.6103515625-2.00390625-8.2294921875l-.09765625-1.208984375c-2.03515625-.0771484375-4.4462890625-.083984375-7.23828125-.01953125-2.79296875.0634765625-5.640625.193359375-8.54296875.3876953125-2.904296875.1953125-5.705078125.400390625-8.40234375.619140625-2.701171875.21875-4.9755859375.4033203125-6.828125.5537109375-.021484375.73046875-.0244140625,1.947265625-.0078125,3.6494140625.015625,1.701171875-.109375,3.4130859375-.375,5.138671875-.2666015625,1.7236328125-.6865234375,3.29833984375-1.2587890625,4.72216796875-.57421875,1.427734375-1.4619140625,2.2265625-2.6630859375,2.40625-1.123046875.169921875-2.404296875.35546875-3.8466796875.5546875-1.4443359375.197265625-2.8681640625.150390625-4.2685546875-.140625-1.396484375-.208984375-2.59765625-.763671875-3.6005859375-1.654296875-1.0048828125-.892578125-1.6337890625-2.380859375-1.8818359375-4.46923828125-.203125-2.49609375-.39453125-5.359375-.57421875-8.58984375-.181640625-3.2265625-.3037109375-6.7431640625-.369140625-10.5498046875-.09375-3.1552734375-.1103515625-6.6201171875-.05078125-10.3955078125.05859375-3.7744140625.26953125-7.662109375.634765625-11.666015625.365234375-4.001953125.931640625-8.021484375,1.69921875-12.056640625.767578125-4.0341796875,1.833984375-7.8916015625,3.1982421875-11.5712890625,1.3623046875-3.6767578125,3.052734375-7.09765625,5.0673828125-10.2607421875,2.013671875-3.162109375,4.509765625-5.8779296875,7.4892578125-8.1474609375,3.5146484375-2.6357421875,7.4873046875-4.1337890625,11.9189453125-4.4931640625,4.4296875-.3583984375,8.70703125.388671875,12.830078125,2.2451171875ZM48.269531249998181,112.02587890625c5.041015625-.8134765625,10.072265625-1.5244140625,15.0908203125-2.134765625,5.0166015625-.607421875,10.0712890625-1.0390625,15.158203125-1.2880859375-.2216796875-5.7392578125-.8779296875-10.833984375-1.9677734375-15.287109375-1.08984375-4.451171875-2.4072265625-8.1767578125-3.9462890625-11.173828125-1.5400390625-2.99609375-3.2626953125-5.248046875-5.1689453125-6.7568359375-1.90625-1.5068359375-3.78515625-2.185546875-5.6376953125-2.0361328125-1.6123046875.130859375-3.2158203125,1.0927734375-4.8134765625,2.8828125-1.599609375,1.79296875-3.0146484375,4.33984375-4.24609375,7.640625-1.2333984375,3.3056640625-2.263671875,7.3408203125-3.0927734375,12.1103515625-.8310546875,4.76953125-1.2900390625,10.1181640625-1.3759765625,16.04296875Z"/>
              <path class="cls-2" d="M238.314453124998181,82.88720703125c3.765625,2.451171875,6.6787109375,5.642578125,8.7412109375,9.5673828125,2.060546875,3.9296875,2.9453125,8.0927734375,2.654296875,12.49609375-.3271484375,4.9716796875-1.9248046875,9.2578125-4.7958984375,12.853515625-2.87109375,3.5986328125-6.36328125,6.5361328125-10.4765625,8.8154296875-4.11328125,2.2783203125-8.619140625,3.9423828125-13.521484375,4.98828125-4.9013671875,1.044921875-9.546875,1.501953125-13.935546875,1.3720703125-.3916015625.1923828125-.74609375.3212890625-1.0634765625.3896484375-.3193359375.06640625-.6767578125.15625-1.0732421875.2685546875-1.443359375.197265625-2.9345703125.318359375-4.470703125.3623046875-1.537109375.0439453125-2.947265625-.1064453125-4.2314453125-.447265625-1.28515625-.3388671875-2.4111328125-.978515625-3.3779296875-1.916015625-.96875-.93359375-1.607421875-2.3212890625-1.9189453125-4.1611328125-.234375-.8720703125-.4189453125-2.66015625-.5556640625-5.3671875-.1396484375-2.7041015625-.32421875-5.994140625-.556640625-9.8671875-.16015625-3.9599609375-.365234375-8.259765625-.619140625-12.90234375-.25390625-4.640625-.53125-9.3017578125-.8291015625-13.98046875-.4169921875-6.1279296875-.833984375-12.296875-1.2568359375-18.505859375s-1.169921875-12.4326171875-2.2412109375-18.669921875c-.2216796875-.712890625-.1923828125-1.36328125.0849609375-1.953125.12109375-.4970703125.4462890625-.9892578125.974609375-1.478515625.52734375-.4873046875,1.3486328125-.857421875,2.4638671875-1.111328125.7978515625-.14453125,1.67578125-.3369140625,2.62890625-.578125.9541015625-.23828125,1.9501953125-.4404296875,2.9912109375-.607421875,1.0400390625-.1630859375,2.048828125-.2451171875,3.021484375-.2451171875.97265625.00390625,1.83203125.0947265625,2.576171875.279296875,4.0625-.8955078125,8.369140625-1.2666015625,12.923828125-1.1083984375,4.552734375.1591796875,8.888671875.8818359375,13.0068359375,2.1689453125,4.1181640625,1.2900390625,7.7548828125,3.1630859375,10.9150390625,5.6220703125,3.158203125,2.4619140625,5.37890625,5.5849609375,6.658203125,9.3720703125.5390625,1.66015625.9248046875,3.4140625,1.15625,5.2587890625.228515625,1.84765625.18359375,3.7763671875-.140625,5.7880859375-.322265625,2.0146484375-.94140625,4.1328125-1.85546875,6.3544921875s-2.2080078125,4.537109375-3.876953125,6.9423828125ZM206.320312499998181,78.30224609375c3.880859375-.150390625,7.109375-.818359375,9.689453125-2.0009765625,2.580078125-1.181640625,4.470703125-2.6123046875,5.6728515625-4.291015625,1.2021484375-1.6767578125,1.7080078125-3.44140625,1.517578125-5.2919921875-.1923828125-1.84765625-1.0302734375-3.443359375-2.5166015625-4.7822265625-1.4873046875-1.337890625-3.630859375-2.2783203125-6.431640625-2.8232421875-2.80078125-.54296875-6.2734375-.3623046875-10.4150390625.5390625.49609375,3.123046875.9287109375,6.208984375,1.2978515625,9.2607421875.369140625,3.052734375.763671875,6.181640625,1.185546875,9.3896484375ZM209.521484374998181,113.31396484375c4.3896484375.130859375,8.037109375-.3662109375,10.947265625-1.494140625,2.9072265625-1.126953125,5.044921875-2.5166015625,6.412109375-4.169921875,1.365234375-1.6494140625,1.99609375-3.36328125,1.89453125-5.138671875-.103515625-1.7734375-.931640625-3.248046875-2.486328125-4.4208984375-1.5546875-1.169921875-3.8408203125-1.857421875-6.85546875-2.05859375-3.017578125-.201171875-6.7392578125.404296875-11.1640625,1.81640625l1.251953125,15.4658203125Z"/>
            </g>
            <g>
              <path class="cls-2" d="M73.175781249998181,54.67041015625c3.205078125,1.5244140625,6,3.4873046875,8.3828125,5.8876953125,2.384765625,2.404296875,4.4443359375,5.07421875,6.18359375,8.013671875,1.73828125,2.94140625,3.1884765625,6.0869140625,4.3525390625,9.4365234375,1.1630859375,3.3544921875,2.126953125,6.7421875,2.8916015625,10.166015625,1.681640625,6.755859375,2.88671875,13.6298828125,3.6171875,20.6259765625.728515625,6.994140625,1.177734375,14.0546875,1.349609375,21.1748046875.001953125,2.0263671875-.025390625,3.6923828125-.08203125,4.9921875-.0576171875,1.302734375-.2744140625,2.375-.6513671875,3.2158203125-.3779296875.841796875-.951171875,1.537109375-1.7158203125,2.083984375-.767578125.5498046875-1.8583984375,1.08251953125-3.275390625,1.60400390625-1.3583984375.271484375-2.7783203125.5078125-4.2607421875.7109375-1.4853515625.197265625-2.9072265625-.08984375-4.2666015625-.87109375-1.2734375-.70703125-2.392578125-1.99658203125-3.353515625-3.86474609375-.962890625-1.8671875-1.630859375-4.6103515625-2.00390625-8.2294921875l-.09765625-1.208984375c-2.03515625-.0771484375-4.4462890625-.083984375-7.23828125-.01953125-2.79296875.0634765625-5.640625.193359375-8.54296875.3876953125-2.904296875.1953125-5.705078125.400390625-8.40234375.619140625-2.701171875.21875-4.9755859375.4033203125-6.828125.5537109375-.021484375.73046875-.0244140625,1.947265625-.0078125,3.6494140625.015625,1.701171875-.109375,3.4130859375-.375,5.138671875-.2666015625,1.7236328125-.6865234375,3.29833984375-1.2587890625,4.72216796875-.57421875,1.427734375-1.4619140625,2.2265625-2.6630859375,2.40625-1.123046875.169921875-2.404296875.35546875-3.8466796875.5546875-1.4443359375.197265625-2.8681640625.150390625-4.2685546875-.140625-1.396484375-.208984375-2.59765625-.763671875-3.6005859375-1.654296875-1.0048828125-.892578125-1.6337890625-2.380859375-1.8818359375-4.46923828125-.203125-2.49609375-.39453125-5.359375-.57421875-8.58984375-.181640625-3.2265625-.3037109375-6.7431640625-.369140625-10.5498046875-.09375-3.1552734375-.1103515625-6.6201171875-.05078125-10.3955078125.05859375-3.7744140625.26953125-7.662109375.634765625-11.666015625.365234375-4.001953125.931640625-8.021484375,1.69921875-12.056640625.767578125-4.0341796875,1.833984375-7.8916015625,3.1982421875-11.5712890625,1.3623046875-3.6767578125,3.052734375-7.09765625,5.0673828125-10.2607421875,2.013671875-3.162109375,4.509765625-5.8779296875,7.4892578125-8.1474609375,3.5146484375-2.6357421875,7.4873046875-4.1337890625,11.9189453125-4.4931640625,4.4296875-.3583984375,8.70703125.388671875,12.830078125,2.2451171875ZM48.269531249998181,112.02587890625c5.041015625-.8134765625,10.072265625-1.5244140625,15.0908203125-2.134765625,5.0166015625-.607421875,10.0712890625-1.0390625,15.158203125-1.2880859375-.2216796875-5.7392578125-.8779296875-10.833984375-1.9677734375-15.287109375-1.08984375-4.451171875-2.4072265625-8.1767578125-3.9462890625-11.173828125-1.5400390625-2.99609375-3.2626953125-5.248046875-5.1689453125-6.7568359375-1.90625-1.5068359375-3.78515625-2.185546875-5.6376953125-2.0361328125-1.6123046875.130859375-3.2158203125,1.0927734375-4.8134765625,2.8828125-1.599609375,1.79296875-3.0146484375,4.33984375-4.24609375,7.640625-1.2333984375,3.3056640625-2.263671875,7.3408203125-3.0927734375,12.1103515625-.8310546875,4.76953125-1.2900390625,10.1181640625-1.3759765625,16.04296875Z"/>
              <path class="cls-2" d="M238.314453124998181,82.88720703125c3.765625,2.451171875,6.6787109375,5.642578125,8.7412109375,9.5673828125,2.060546875,3.9296875,2.9453125,8.0927734375,2.654296875,12.49609375-.3271484375,4.9716796875-1.9248046875,9.2578125-4.7958984375,12.853515625-2.87109375,3.5986328125-6.36328125,6.5361328125-10.4765625,8.8154296875-4.11328125,2.2783203125-8.619140625,3.9423828125-13.521484375,4.98828125-4.9013671875,1.044921875-9.546875,1.501953125-13.935546875,1.3720703125-.3916015625.1923828125-.74609375.3212890625-1.0634765625.3896484375-.3193359375.06640625-.6767578125.15625-1.0732421875.2685546875-1.443359375.197265625-2.9345703125.318359375-4.470703125.3623046875-1.537109375.0439453125-2.947265625-.1064453125-4.2314453125-.447265625-1.28515625-.3388671875-2.4111328125-.978515625-3.3779296875-1.916015625-.96875-.93359375-1.607421875-2.3212890625-1.9189453125-4.1611328125-.234375-.8720703125-.4189453125-2.66015625-.5556640625-5.3671875-.1396484375-2.7041015625-.32421875-5.994140625-.556640625-9.8671875-.16015625-3.9599609375-.365234375-8.259765625-.619140625-12.90234375-.25390625-4.640625-.53125-9.3017578125-.8291015625-13.98046875-.4169921875-6.1279296875-.833984375-12.296875-1.2568359375-18.505859375s-1.169921875-12.4326171875-2.2412109375-18.669921875c-.2216796875-.712890625-.1923828125-1.36328125.0849609375-1.953125.12109375-.4970703125.4462890625-.9892578125.974609375-1.478515625.52734375-.4873046875,1.3486328125-.857421875,2.4638671875-1.111328125.7978515625-.14453125,1.67578125-.3369140625,2.62890625-.578125.9541015625-.23828125,1.9501953125-.4404296875,2.9912109375-.607421875,1.0400390625-.1630859375,2.048828125-.2451171875,3.021484375-.2451171875.97265625.00390625,1.83203125.0947265625,2.576171875.279296875,4.0625-.8955078125,8.369140625-1.2666015625,12.923828125-1.1083984375,4.552734375.1591796875,8.888671875.8818359375,13.0068359375,2.1689453125,4.1181640625,1.2900390625,7.7548828125,3.1630859375,10.9150390625,5.6220703125,3.158203125,2.4619140625,5.37890625,5.5849609375,6.658203125,9.3720703125.5390625,1.66015625.9248046875,3.4140625,1.15625,5.2587890625.228515625,1.84765625.18359375,3.7763671875-.140625,5.7880859375-.322265625,2.0146484375-.94140625,4.1328125-1.85546875,6.3544921875s-2.2080078125,4.537109375-3.876953125,6.9423828125ZM206.320312499998181,78.30224609375c3.880859375-.150390625,7.109375-.818359375,9.689453125-2.0009765625,2.580078125-1.181640625,4.470703125-2.6123046875,5.6728515625-4.291015625,1.2021484375-1.6767578125,1.7080078125-3.44140625,1.517578125-5.2919921875-.1923828125-1.84765625-1.0302734375-3.443359375-2.5166015625-4.7822265625-1.4873046875-1.337890625-3.630859375-2.2783203125-6.431640625-2.8232421875-2.80078125-.54296875-6.2734375-.3623046875-10.4150390625.5390625.49609375,3.123046875.9287109375,6.208984375,1.2978515625,9.2607421875.369140625,3.052734375.763671875,6.181640625,1.185546875,9.3896484375ZM209.521484374998181,113.31396484375c4.3896484375.130859375,8.037109375-.3662109375,10.947265625-1.494140625,2.9072265625-1.126953125,5.044921875-2.5166015625,6.412109375-4.169921875,1.365234375-1.6494140625,1.99609375-3.36328125,1.89453125-5.138671875-.103515625-1.7734375-.931640625-3.248046875-2.486328125-4.4208984375-1.5546875-1.169921875-3.8408203125-1.857421875-6.85546875-2.05859375-3.017578125-.201171875-6.7392578125.404296875-11.1640625,1.81640625l1.251953125,15.4658203125Z"/>
            </g>
          </g>
        </a>
        <path class="cls-2" d="M157.098632812498181,104.4873046875c.1455078125-3.1884765625.216796875-6.1669921875.216796875-8.9365234375,0-2.7685546875-.361328125-5.4111328125-1.0849609375-7.9287109375-.72265625-2.7412109375-1.845703125-4.978515625-3.365234375-6.7119140625-1.51953125-1.734375-3.23828125-3.0078125-5.15625-3.8173828125-1.916015625-.8115234375-3.908203125-1.1474609375-5.970703125-1.0068359375-2.0625.138671875-4.0517578125.6708984375-5.9697265625,1.59375-1.9169921875.9228515625-3.63671875,2.2236328125-5.15625,3.9013671875-1.5205078125,1.6787109375-2.6416015625,3.7197265625-3.365234375,6.125-.72265625,2.236328125-1.2294921875,4.82421875-1.51953125,7.76171875-.2880859375,2.9365234375-.4345703125,5.9150390625-.4345703125,8.935546875s.146484375,5.9423828125.4345703125,8.767578125c.2900390625,2.82421875.580078125,5.244140625.8681640625,7.2578125.216796875,1.4541015625-.361328125,2.62890625-1.736328125,3.5234375-1.3740234375.89453125-2.9853515625,1.439453125-4.8310546875,1.63671875-1.8447265625.1953125-3.6533203125,0-5.4267578125-.587890625-1.7734375-.5869140625-2.9482421875-1.6357421875-3.5283203125-3.146484375-1.0126953125-2.5732421875-1.75390625-5.341796875-2.2255859375-8.3056640625-.4697265625-2.9658203125-.7412109375-5.9443359375-.814453125-8.935546875-.0703125-2.9931640625.037109375-5.9296875.326171875-8.810546875.2900390625-2.880859375.6884765625-5.5517578125,1.193359375-8.0126953125.7978515625-3.30078125,2.0625-6.4892578125,3.7998046875-9.564453125,1.7373046875-3.0771484375,3.9619140625-5.7900390625,6.67578125-8.138671875,2.7138671875-2.349609375,5.9345703125-4.224609375,9.6611328125-5.6220703125,3.728515625-1.3984375,7.943359375-2.041015625,12.646484375-1.9296875,2.9677734375.056640625,5.7529296875.447265625,8.357421875,1.1748046875,2.60546875.7265625,5.0126953125,1.69140625,7.21875,2.89453125,2.208984375,1.2021484375,4.1796875,2.6142578125,5.916015625,4.2373046875,1.7373046875,1.62109375,3.220703125,3.3564453125,4.451171875,5.2021484375,2.244140625,3.4677734375,3.7822265625,7.3828125,4.61328125,11.74609375.8330078125,4.36328125,1.248046875,8.6552734375,1.248046875,12.87890625,0,4.22265625-.234375,8.1103515625-.705078125,11.6630859375-.470703125,3.5517578125-.9228515625,6.3056640625-1.357421875,8.2646484375-.14453125,1.0615234375-.6865234375,1.9423828125-1.6279296875,2.642578125-.939453125.69921875-2.0439453125,1.216796875-3.310546875,1.552734375-1.265625.3349609375-2.6220703125.5029296875-4.0712890625.5029296875-1.4462890625,0-2.767578125-.1826171875-3.9619140625-.544921875-1.1943359375-.365234375-2.1708984375-.9228515625-2.9306640625-1.6787109375-.759765625-.7548828125-1.1025390625-1.6650390625-1.03125-2.7265625l1.9541015625-15.857421875Z"/>
      </g>
      <g>
        <a xlink:href="https://www.notion.so/congruence/B-Event-1f1a5b08a72c49f5ab60f2e0793fd0a8?pvs=4">
          <g>
            <g>
              <path class="cls-3" d="M73.175781249998181,54.67041015625c3.205078125,1.5244140625,6,3.4873046875,8.3828125,5.8876953125,2.384765625,2.404296875,4.4443359375,5.07421875,6.18359375,8.013671875,1.73828125,2.94140625,3.1884765625,6.0869140625,4.3525390625,9.4365234375,1.1630859375,3.3544921875,2.126953125,6.7421875,2.8916015625,10.166015625,1.681640625,6.755859375,2.88671875,13.6298828125,3.6171875,20.6259765625.728515625,6.994140625,1.177734375,14.0546875,1.349609375,21.1748046875.001953125,2.0263671875-.025390625,3.6923828125-.08203125,4.9921875-.0576171875,1.302734375-.2744140625,2.375-.6513671875,3.2158203125-.3779296875.841796875-.951171875,1.537109375-1.7158203125,2.083984375-.767578125.5498046875-1.8583984375,1.08251953125-3.275390625,1.60400390625-1.3583984375.271484375-2.7783203125.5078125-4.2607421875.7109375-1.4853515625.197265625-2.9072265625-.08984375-4.2666015625-.87109375-1.2734375-.70703125-2.392578125-1.99658203125-3.353515625-3.86474609375-.962890625-1.8671875-1.630859375-4.6103515625-2.00390625-8.2294921875l-.09765625-1.208984375c-2.03515625-.0771484375-4.4462890625-.083984375-7.23828125-.01953125-2.79296875.0634765625-5.640625.193359375-8.54296875.3876953125-2.904296875.1953125-5.705078125.400390625-8.40234375.619140625-2.701171875.21875-4.9755859375.4033203125-6.828125.5537109375-.021484375.73046875-.0244140625,1.947265625-.0078125,3.6494140625.015625,1.701171875-.109375,3.4130859375-.375,5.138671875-.2666015625,1.7236328125-.6865234375,3.29833984375-1.2587890625,4.72216796875-.57421875,1.427734375-1.4619140625,2.2265625-2.6630859375,2.40625-1.123046875.169921875-2.404296875.35546875-3.8466796875.5546875-1.4443359375.197265625-2.8681640625.150390625-4.2685546875-.140625-1.396484375-.208984375-2.59765625-.763671875-3.6005859375-1.654296875-1.0048828125-.892578125-1.6337890625-2.380859375-1.8818359375-4.46923828125-.203125-2.49609375-.39453125-5.359375-.57421875-8.58984375-.181640625-3.2265625-.3037109375-6.7431640625-.369140625-10.5498046875-.09375-3.1552734375-.1103515625-6.6201171875-.05078125-10.3955078125.05859375-3.7744140625.26953125-7.662109375.634765625-11.666015625.365234375-4.001953125.931640625-8.021484375,1.69921875-12.056640625.767578125-4.0341796875,1.833984375-7.8916015625,3.1982421875-11.5712890625,1.3623046875-3.6767578125,3.052734375-7.09765625,5.0673828125-10.2607421875,2.013671875-3.162109375,4.509765625-5.8779296875,7.4892578125-8.1474609375,3.5146484375-2.6357421875,7.4873046875-4.1337890625,11.9189453125-4.4931640625,4.4296875-.3583984375,8.70703125.388671875,12.830078125,2.2451171875ZM48.269531249998181,112.02587890625c5.041015625-.8134765625,10.072265625-1.5244140625,15.0908203125-2.134765625,5.0166015625-.607421875,10.0712890625-1.0390625,15.158203125-1.2880859375-.2216796875-5.7392578125-.8779296875-10.833984375-1.9677734375-15.287109375-1.08984375-4.451171875-2.4072265625-8.1767578125-3.9462890625-11.173828125-1.5400390625-2.99609375-3.2626953125-5.248046875-5.1689453125-6.7568359375-1.90625-1.5068359375-3.78515625-2.185546875-5.6376953125-2.0361328125-1.6123046875.130859375-3.2158203125,1.0927734375-4.8134765625,2.8828125-1.599609375,1.79296875-3.0146484375,4.33984375-4.24609375,7.640625-1.2333984375,3.3056640625-2.263671875,7.3408203125-3.0927734375,12.1103515625-.8310546875,4.76953125-1.2900390625,10.1181640625-1.3759765625,16.04296875Z"/>
              <path class="cls-3" d="M238.314453124998181,82.88720703125c3.765625,2.451171875,6.6787109375,5.642578125,8.7412109375,9.5673828125,2.060546875,3.9296875,2.9453125,8.0927734375,2.654296875,12.49609375-.3271484375,4.9716796875-1.9248046875,9.2578125-4.7958984375,12.853515625-2.87109375,3.5986328125-6.36328125,6.5361328125-10.4765625,8.8154296875-4.11328125,2.2783203125-8.619140625,3.9423828125-13.521484375,4.98828125-4.9013671875,1.044921875-9.546875,1.501953125-13.935546875,1.3720703125-.3916015625.1923828125-.74609375.3212890625-1.0634765625.3896484375-.3193359375.06640625-.6767578125.15625-1.0732421875.2685546875-1.443359375.197265625-2.9345703125.318359375-4.470703125.3623046875-1.537109375.0439453125-2.947265625-.1064453125-4.2314453125-.447265625-1.28515625-.3388671875-2.4111328125-.978515625-3.3779296875-1.916015625-.96875-.93359375-1.607421875-2.3212890625-1.9189453125-4.1611328125-.234375-.8720703125-.4189453125-2.66015625-.5556640625-5.3671875-.1396484375-2.7041015625-.32421875-5.994140625-.556640625-9.8671875-.16015625-3.9599609375-.365234375-8.259765625-.619140625-12.90234375-.25390625-4.640625-.53125-9.3017578125-.8291015625-13.98046875-.4169921875-6.1279296875-.833984375-12.296875-1.2568359375-18.505859375s-1.169921875-12.4326171875-2.2412109375-18.669921875c-.2216796875-.712890625-.1923828125-1.36328125.0849609375-1.953125.12109375-.4970703125.4462890625-.9892578125.974609375-1.478515625.52734375-.4873046875,1.3486328125-.857421875,2.4638671875-1.111328125.7978515625-.14453125,1.67578125-.3369140625,2.62890625-.578125.9541015625-.23828125,1.9501953125-.4404296875,2.9912109375-.607421875,1.0400390625-.1630859375,2.048828125-.2451171875,3.021484375-.2451171875.97265625.00390625,1.83203125.0947265625,2.576171875.279296875,4.0625-.8955078125,8.369140625-1.2666015625,12.923828125-1.1083984375,4.552734375.1591796875,8.888671875.8818359375,13.0068359375,2.1689453125,4.1181640625,1.2900390625,7.7548828125,3.1630859375,10.9150390625,5.6220703125,3.158203125,2.4619140625,5.37890625,5.5849609375,6.658203125,9.3720703125.5390625,1.66015625.9248046875,3.4140625,1.15625,5.2587890625.228515625,1.84765625.18359375,3.7763671875-.140625,5.7880859375-.322265625,2.0146484375-.94140625,4.1328125-1.85546875,6.3544921875s-2.2080078125,4.537109375-3.876953125,6.9423828125ZM206.320312499998181,78.30224609375c3.880859375-.150390625,7.109375-.818359375,9.689453125-2.0009765625,2.580078125-1.181640625,4.470703125-2.6123046875,5.6728515625-4.291015625,1.2021484375-1.6767578125,1.7080078125-3.44140625,1.517578125-5.2919921875-.1923828125-1.84765625-1.0302734375-3.443359375-2.5166015625-4.7822265625-1.4873046875-1.337890625-3.630859375-2.2783203125-6.431640625-2.8232421875-2.80078125-.54296875-6.2734375-.3623046875-10.4150390625.5390625.49609375,3.123046875.9287109375,6.208984375,1.2978515625,9.2607421875.369140625,3.052734375.763671875,6.181640625,1.185546875,9.3896484375ZM209.521484374998181,113.31396484375c4.3896484375.130859375,8.037109375-.3662109375,10.947265625-1.494140625,2.9072265625-1.126953125,5.044921875-2.5166015625,6.412109375-4.169921875,1.365234375-1.6494140625,1.99609375-3.36328125,1.89453125-5.138671875-.103515625-1.7734375-.931640625-3.248046875-2.486328125-4.4208984375-1.5546875-1.169921875-3.8408203125-1.857421875-6.85546875-2.05859375-3.017578125-.201171875-6.7392578125.404296875-11.1640625,1.81640625l1.251953125,15.4658203125Z"/>
            </g>
            <g>
              <path class="cls-3" d="M73.175781249998181,54.67041015625c3.205078125,1.5244140625,6,3.4873046875,8.3828125,5.8876953125,2.384765625,2.404296875,4.4443359375,5.07421875,6.18359375,8.013671875,1.73828125,2.94140625,3.1884765625,6.0869140625,4.3525390625,9.4365234375,1.1630859375,3.3544921875,2.126953125,6.7421875,2.8916015625,10.166015625,1.681640625,6.755859375,2.88671875,13.6298828125,3.6171875,20.6259765625.728515625,6.994140625,1.177734375,14.0546875,1.349609375,21.1748046875.001953125,2.0263671875-.025390625,3.6923828125-.08203125,4.9921875-.0576171875,1.302734375-.2744140625,2.375-.6513671875,3.2158203125-.3779296875.841796875-.951171875,1.537109375-1.7158203125,2.083984375-.767578125.5498046875-1.8583984375,1.08251953125-3.275390625,1.60400390625-1.3583984375.271484375-2.7783203125.5078125-4.2607421875.7109375-1.4853515625.197265625-2.9072265625-.08984375-4.2666015625-.87109375-1.2734375-.70703125-2.392578125-1.99658203125-3.353515625-3.86474609375-.962890625-1.8671875-1.630859375-4.6103515625-2.00390625-8.2294921875l-.09765625-1.208984375c-2.03515625-.0771484375-4.4462890625-.083984375-7.23828125-.01953125-2.79296875.0634765625-5.640625.193359375-8.54296875.3876953125-2.904296875.1953125-5.705078125.400390625-8.40234375.619140625-2.701171875.21875-4.9755859375.4033203125-6.828125.5537109375-.021484375.73046875-.0244140625,1.947265625-.0078125,3.6494140625.015625,1.701171875-.109375,3.4130859375-.375,5.138671875-.2666015625,1.7236328125-.6865234375,3.29833984375-1.2587890625,4.72216796875-.57421875,1.427734375-1.4619140625,2.2265625-2.6630859375,2.40625-1.123046875.169921875-2.404296875.35546875-3.8466796875.5546875-1.4443359375.197265625-2.8681640625.150390625-4.2685546875-.140625-1.396484375-.208984375-2.59765625-.763671875-3.6005859375-1.654296875-1.0048828125-.892578125-1.6337890625-2.380859375-1.8818359375-4.46923828125-.203125-2.49609375-.39453125-5.359375-.57421875-8.58984375-.181640625-3.2265625-.3037109375-6.7431640625-.369140625-10.5498046875-.09375-3.1552734375-.1103515625-6.6201171875-.05078125-10.3955078125.05859375-3.7744140625.26953125-7.662109375.634765625-11.666015625.365234375-4.001953125.931640625-8.021484375,1.69921875-12.056640625.767578125-4.0341796875,1.833984375-7.8916015625,3.1982421875-11.5712890625,1.3623046875-3.6767578125,3.052734375-7.09765625,5.0673828125-10.2607421875,2.013671875-3.162109375,4.509765625-5.8779296875,7.4892578125-8.1474609375,3.5146484375-2.6357421875,7.4873046875-4.1337890625,11.9189453125-4.4931640625,4.4296875-.3583984375,8.70703125.388671875,12.830078125,2.2451171875ZM48.269531249998181,112.02587890625c5.041015625-.8134765625,10.072265625-1.5244140625,15.0908203125-2.134765625,5.0166015625-.607421875,10.0712890625-1.0390625,15.158203125-1.2880859375-.2216796875-5.7392578125-.8779296875-10.833984375-1.9677734375-15.287109375-1.08984375-4.451171875-2.4072265625-8.1767578125-3.9462890625-11.173828125-1.5400390625-2.99609375-3.2626953125-5.248046875-5.1689453125-6.7568359375-1.90625-1.5068359375-3.78515625-2.185546875-5.6376953125-2.0361328125-1.6123046875.130859375-3.2158203125,1.0927734375-4.8134765625,2.8828125-1.599609375,1.79296875-3.0146484375,4.33984375-4.24609375,7.640625-1.2333984375,3.3056640625-2.263671875,7.3408203125-3.0927734375,12.1103515625-.8310546875,4.76953125-1.2900390625,10.1181640625-1.3759765625,16.04296875Z"/>
              <path class="cls-3" d="M238.314453124998181,82.88720703125c3.765625,2.451171875,6.6787109375,5.642578125,8.7412109375,9.5673828125,2.060546875,3.9296875,2.9453125,8.0927734375,2.654296875,12.49609375-.3271484375,4.9716796875-1.9248046875,9.2578125-4.7958984375,12.853515625-2.87109375,3.5986328125-6.36328125,6.5361328125-10.4765625,8.8154296875-4.11328125,2.2783203125-8.619140625,3.9423828125-13.521484375,4.98828125-4.9013671875,1.044921875-9.546875,1.501953125-13.935546875,1.3720703125-.3916015625.1923828125-.74609375.3212890625-1.0634765625.3896484375-.3193359375.06640625-.6767578125.15625-1.0732421875.2685546875-1.443359375.197265625-2.9345703125.318359375-4.470703125.3623046875-1.537109375.0439453125-2.947265625-.1064453125-4.2314453125-.447265625-1.28515625-.3388671875-2.4111328125-.978515625-3.3779296875-1.916015625-.96875-.93359375-1.607421875-2.3212890625-1.9189453125-4.1611328125-.234375-.8720703125-.4189453125-2.66015625-.5556640625-5.3671875-.1396484375-2.7041015625-.32421875-5.994140625-.556640625-9.8671875-.16015625-3.9599609375-.365234375-8.259765625-.619140625-12.90234375-.25390625-4.640625-.53125-9.3017578125-.8291015625-13.98046875-.4169921875-6.1279296875-.833984375-12.296875-1.2568359375-18.505859375s-1.169921875-12.4326171875-2.2412109375-18.669921875c-.2216796875-.712890625-.1923828125-1.36328125.0849609375-1.953125.12109375-.4970703125.4462890625-.9892578125.974609375-1.478515625.52734375-.4873046875,1.3486328125-.857421875,2.4638671875-1.111328125.7978515625-.14453125,1.67578125-.3369140625,2.62890625-.578125.9541015625-.23828125,1.9501953125-.4404296875,2.9912109375-.607421875,1.0400390625-.1630859375,2.048828125-.2451171875,3.021484375-.2451171875.97265625.00390625,1.83203125.0947265625,2.576171875.279296875,4.0625-.8955078125,8.369140625-1.2666015625,12.923828125-1.1083984375,4.552734375.1591796875,8.888671875.8818359375,13.0068359375,2.1689453125,4.1181640625,1.2900390625,7.7548828125,3.1630859375,10.9150390625,5.6220703125,3.158203125,2.4619140625,5.37890625,5.5849609375,6.658203125,9.3720703125.5390625,1.66015625.9248046875,3.4140625,1.15625,5.2587890625.228515625,1.84765625.18359375,3.7763671875-.140625,5.7880859375-.322265625,2.0146484375-.94140625,4.1328125-1.85546875,6.3544921875s-2.2080078125,4.537109375-3.876953125,6.9423828125ZM206.320312499998181,78.30224609375c3.880859375-.150390625,7.109375-.818359375,9.689453125-2.0009765625,2.580078125-1.181640625,4.470703125-2.6123046875,5.6728515625-4.291015625,1.2021484375-1.6767578125,1.7080078125-3.44140625,1.517578125-5.2919921875-.1923828125-1.84765625-1.0302734375-3.443359375-2.5166015625-4.7822265625-1.4873046875-1.337890625-3.630859375-2.2783203125-6.431640625-2.8232421875-2.80078125-.54296875-6.2734375-.3623046875-10.4150390625.5390625.49609375,3.123046875.9287109375,6.208984375,1.2978515625,9.2607421875.369140625,3.052734375.763671875,6.181640625,1.185546875,9.3896484375ZM209.521484374998181,113.31396484375c4.3896484375.130859375,8.037109375-.3662109375,10.947265625-1.494140625,2.9072265625-1.126953125,5.044921875-2.5166015625,6.412109375-4.169921875,1.365234375-1.6494140625,1.99609375-3.36328125,1.89453125-5.138671875-.103515625-1.7734375-.931640625-3.248046875-2.486328125-4.4208984375-1.5546875-1.169921875-3.8408203125-1.857421875-6.85546875-2.05859375-3.017578125-.201171875-6.7392578125.404296875-11.1640625,1.81640625l1.251953125,15.4658203125Z"/>
            </g>
            <g>
              <path class="cls-3" d="M73.175781249998181,54.67041015625c3.205078125,1.5244140625,6,3.4873046875,8.3828125,5.8876953125,2.384765625,2.404296875,4.4443359375,5.07421875,6.18359375,8.013671875,1.73828125,2.94140625,3.1884765625,6.0869140625,4.3525390625,9.4365234375,1.1630859375,3.3544921875,2.126953125,6.7421875,2.8916015625,10.166015625,1.681640625,6.755859375,2.88671875,13.6298828125,3.6171875,20.6259765625.728515625,6.994140625,1.177734375,14.0546875,1.349609375,21.1748046875.001953125,2.0263671875-.025390625,3.6923828125-.08203125,4.9921875-.0576171875,1.302734375-.2744140625,2.375-.6513671875,3.2158203125-.3779296875.841796875-.951171875,1.537109375-1.7158203125,2.083984375-.767578125.5498046875-1.8583984375,1.08251953125-3.275390625,1.60400390625-1.3583984375.271484375-2.7783203125.5078125-4.2607421875.7109375-1.4853515625.197265625-2.9072265625-.08984375-4.2666015625-.87109375-1.2734375-.70703125-2.392578125-1.99658203125-3.353515625-3.86474609375-.962890625-1.8671875-1.630859375-4.6103515625-2.00390625-8.2294921875l-.09765625-1.208984375c-2.03515625-.0771484375-4.4462890625-.083984375-7.23828125-.01953125-2.79296875.0634765625-5.640625.193359375-8.54296875.3876953125-2.904296875.1953125-5.705078125.400390625-8.40234375.619140625-2.701171875.21875-4.9755859375.4033203125-6.828125.5537109375-.021484375.73046875-.0244140625,1.947265625-.0078125,3.6494140625.015625,1.701171875-.109375,3.4130859375-.375,5.138671875-.2666015625,1.7236328125-.6865234375,3.29833984375-1.2587890625,4.72216796875-.57421875,1.427734375-1.4619140625,2.2265625-2.6630859375,2.40625-1.123046875.169921875-2.404296875.35546875-3.8466796875.5546875-1.4443359375.197265625-2.8681640625.150390625-4.2685546875-.140625-1.396484375-.208984375-2.59765625-.763671875-3.6005859375-1.654296875-1.0048828125-.892578125-1.6337890625-2.380859375-1.8818359375-4.46923828125-.203125-2.49609375-.39453125-5.359375-.57421875-8.58984375-.181640625-3.2265625-.3037109375-6.7431640625-.369140625-10.5498046875-.09375-3.1552734375-.1103515625-6.6201171875-.05078125-10.3955078125.05859375-3.7744140625.26953125-7.662109375.634765625-11.666015625.365234375-4.001953125.931640625-8.021484375,1.69921875-12.056640625.767578125-4.0341796875,1.833984375-7.8916015625,3.1982421875-11.5712890625,1.3623046875-3.6767578125,3.052734375-7.09765625,5.0673828125-10.2607421875,2.013671875-3.162109375,4.509765625-5.8779296875,7.4892578125-8.1474609375,3.5146484375-2.6357421875,7.4873046875-4.1337890625,11.9189453125-4.4931640625,4.4296875-.3583984375,8.70703125.388671875,12.830078125,2.2451171875ZM48.269531249998181,112.02587890625c5.041015625-.8134765625,10.072265625-1.5244140625,15.0908203125-2.134765625,5.0166015625-.607421875,10.0712890625-1.0390625,15.158203125-1.2880859375-.2216796875-5.7392578125-.8779296875-10.833984375-1.9677734375-15.287109375-1.08984375-4.451171875-2.4072265625-8.1767578125-3.9462890625-11.173828125-1.5400390625-2.99609375-3.2626953125-5.248046875-5.1689453125-6.7568359375-1.90625-1.5068359375-3.78515625-2.185546875-5.6376953125-2.0361328125-1.6123046875.130859375-3.2158203125,1.0927734375-4.8134765625,2.8828125-1.599609375,1.79296875-3.0146484375,4.33984375-4.24609375,7.640625-1.2333984375,3.3056640625-2.263671875,7.3408203125-3.0927734375,12.1103515625-.8310546875,4.76953125-1.2900390625,10.1181640625-1.3759765625,16.04296875Z"/>
              <path class="cls-3" d="M238.314453124998181,82.88720703125c3.765625,2.451171875,6.6787109375,5.642578125,8.7412109375,9.5673828125,2.060546875,3.9296875,2.9453125,8.0927734375,2.654296875,12.49609375-.3271484375,4.9716796875-1.9248046875,9.2578125-4.7958984375,12.853515625-2.87109375,3.5986328125-6.36328125,6.5361328125-10.4765625,8.8154296875-4.11328125,2.2783203125-8.619140625,3.9423828125-13.521484375,4.98828125-4.9013671875,1.044921875-9.546875,1.501953125-13.935546875,1.3720703125-.3916015625.1923828125-.74609375.3212890625-1.0634765625.3896484375-.3193359375.06640625-.6767578125.15625-1.0732421875.2685546875-1.443359375.197265625-2.9345703125.318359375-4.470703125.3623046875-1.537109375.0439453125-2.947265625-.1064453125-4.2314453125-.447265625-1.28515625-.3388671875-2.4111328125-.978515625-3.3779296875-1.916015625-.96875-.93359375-1.607421875-2.3212890625-1.9189453125-4.1611328125-.234375-.8720703125-.4189453125-2.66015625-.5556640625-5.3671875-.1396484375-2.7041015625-.32421875-5.994140625-.556640625-9.8671875-.16015625-3.9599609375-.365234375-8.259765625-.619140625-12.90234375-.25390625-4.640625-.53125-9.3017578125-.8291015625-13.98046875-.4169921875-6.1279296875-.833984375-12.296875-1.2568359375-18.505859375s-1.169921875-12.4326171875-2.2412109375-18.669921875c-.2216796875-.712890625-.1923828125-1.36328125.0849609375-1.953125.12109375-.4970703125.4462890625-.9892578125.974609375-1.478515625.52734375-.4873046875,1.3486328125-.857421875,2.4638671875-1.111328125.7978515625-.14453125,1.67578125-.3369140625,2.62890625-.578125.9541015625-.23828125,1.9501953125-.4404296875,2.9912109375-.607421875,1.0400390625-.1630859375,2.048828125-.2451171875,3.021484375-.2451171875.97265625.00390625,1.83203125.0947265625,2.576171875.279296875,4.0625-.8955078125,8.369140625-1.2666015625,12.923828125-1.1083984375,4.552734375.1591796875,8.888671875.8818359375,13.0068359375,2.1689453125,4.1181640625,1.2900390625,7.7548828125,3.1630859375,10.9150390625,5.6220703125,3.158203125,2.4619140625,5.37890625,5.5849609375,6.658203125,9.3720703125.5390625,1.66015625.9248046875,3.4140625,1.15625,5.2587890625.228515625,1.84765625.18359375,3.7763671875-.140625,5.7880859375-.322265625,2.0146484375-.94140625,4.1328125-1.85546875,6.3544921875s-2.2080078125,4.537109375-3.876953125,6.9423828125ZM206.320312499998181,78.30224609375c3.880859375-.150390625,7.109375-.818359375,9.689453125-2.0009765625,2.580078125-1.181640625,4.470703125-2.6123046875,5.6728515625-4.291015625,1.2021484375-1.6767578125,1.7080078125-3.44140625,1.517578125-5.2919921875-.1923828125-1.84765625-1.0302734375-3.443359375-2.5166015625-4.7822265625-1.4873046875-1.337890625-3.630859375-2.2783203125-6.431640625-2.8232421875-2.80078125-.54296875-6.2734375-.3623046875-10.4150390625.5390625.49609375,3.123046875.9287109375,6.208984375,1.2978515625,9.2607421875.369140625,3.052734375.763671875,6.181640625,1.185546875,9.3896484375ZM209.521484374998181,113.31396484375c4.3896484375.130859375,8.037109375-.3662109375,10.947265625-1.494140625,2.9072265625-1.126953125,5.044921875-2.5166015625,6.412109375-4.169921875,1.365234375-1.6494140625,1.99609375-3.36328125,1.89453125-5.138671875-.103515625-1.7734375-.931640625-3.248046875-2.486328125-4.4208984375-1.5546875-1.169921875-3.8408203125-1.857421875-6.85546875-2.05859375-3.017578125-.201171875-6.7392578125.404296875-11.1640625,1.81640625l1.251953125,15.4658203125Z"/>
            </g>
          </g>
        </a>
        <path class="cls-3" d="M157.098632812498181,104.4873046875c.1455078125-3.1884765625.216796875-6.1669921875.216796875-8.9365234375,0-2.7685546875-.361328125-5.4111328125-1.0849609375-7.9287109375-.72265625-2.7412109375-1.845703125-4.978515625-3.365234375-6.7119140625-1.51953125-1.734375-3.23828125-3.0078125-5.15625-3.8173828125-1.916015625-.8115234375-3.908203125-1.1474609375-5.970703125-1.0068359375-2.0625.138671875-4.0517578125.6708984375-5.9697265625,1.59375-1.9169921875.9228515625-3.63671875,2.2236328125-5.15625,3.9013671875-1.5205078125,1.6787109375-2.6416015625,3.7197265625-3.365234375,6.125-.72265625,2.236328125-1.2294921875,4.82421875-1.51953125,7.76171875-.2880859375,2.9365234375-.4345703125,5.9150390625-.4345703125,8.935546875s.146484375,5.9423828125.4345703125,8.767578125c.2900390625,2.82421875.580078125,5.244140625.8681640625,7.2578125.216796875,1.4541015625-.361328125,2.62890625-1.736328125,3.5234375-1.3740234375.89453125-2.9853515625,1.439453125-4.8310546875,1.63671875-1.8447265625.1953125-3.6533203125,0-5.4267578125-.587890625-1.7734375-.5869140625-2.9482421875-1.6357421875-3.5283203125-3.146484375-1.0126953125-2.5732421875-1.75390625-5.341796875-2.2255859375-8.3056640625-.4697265625-2.9658203125-.7412109375-5.9443359375-.814453125-8.935546875-.0703125-2.9931640625.037109375-5.9296875.326171875-8.810546875.2900390625-2.880859375.6884765625-5.5517578125,1.193359375-8.0126953125.7978515625-3.30078125,2.0625-6.4892578125,3.7998046875-9.564453125,1.7373046875-3.0771484375,3.9619140625-5.7900390625,6.67578125-8.138671875,2.7138671875-2.349609375,5.9345703125-4.224609375,9.6611328125-5.6220703125,3.728515625-1.3984375,7.943359375-2.041015625,12.646484375-1.9296875,2.9677734375.056640625,5.7529296875.447265625,8.357421875,1.1748046875,2.60546875.7265625,5.0126953125,1.69140625,7.21875,2.89453125,2.208984375,1.2021484375,4.1796875,2.6142578125,5.916015625,4.2373046875,1.7373046875,1.62109375,3.220703125,3.3564453125,4.451171875,5.2021484375,2.244140625,3.4677734375,3.7822265625,7.3828125,4.61328125,11.74609375.8330078125,4.36328125,1.248046875,8.6552734375,1.248046875,12.87890625,0,4.22265625-.234375,8.1103515625-.705078125,11.6630859375-.470703125,3.5517578125-.9228515625,6.3056640625-1.357421875,8.2646484375-.14453125,1.0615234375-.6865234375,1.9423828125-1.6279296875,2.642578125-.939453125.69921875-2.0439453125,1.216796875-3.310546875,1.552734375-1.265625.3349609375-2.6220703125.5029296875-4.0712890625.5029296875-1.4462890625,0-2.767578125-.1826171875-3.9619140625-.544921875-1.1943359375-.365234375-2.1708984375-.9228515625-2.9306640625-1.6787109375-.759765625-.7548828125-1.1025390625-1.6650390625-1.03125-2.7265625l1.9541015625-15.857421875Z"/>
      </g>
    </g>
  </a>
</svg>