<?xml version="1.0" encoding="UTF-8"?>
<svg id="Content" xmlns="http://www.w3.org/2000/svg" xmlns:xlink="http://www.w3.org/1999/xlink" viewBox="0 0 279.999999999998181 280">
  <defs>
    <style>
      .cls-1 {
        stroke: #665451;
        stroke-width: 50px;
      }

      .cls-1, .cls-2 {
        fill: none;
        stroke-linecap: round;
        stroke-linejoin: round;
      }

      .cls-3 {
        fill: #fff;
      }

      .cls-2 {
        stroke: #998675;
        stroke-width: 2px;
      }
    </style>
  </defs>
  <a xlink:href="https://www.notion.so/congruence/A-and-B-d71da5b7b3d34d8e903f0e2f24a07f7b?pvs=4">
    <g>
      <a xlink:href="https://www.notion.so/congruence/B-Event-1f1a5b08a72c49f5ab60f2e0793fd0a8?pvs=4">
        <g>
          <path class="cls-3" d="M73.154296874998181,54.63330078125c3.203125,1.5244140625,6,3.48828125,8.3828125,5.888671875,2.384765625,2.40234375,4.443359375,5.0732421875,6.1826171875,8.013671875s3.1884765625,6.0859375,4.3525390625,9.4365234375c1.1630859375,3.353515625,2.1279296875,6.7421875,2.892578125,10.1640625,1.681640625,6.7568359375,2.88671875,13.630859375,3.6171875,20.6259765625.7265625,6.99609375,1.1767578125,14.0556640625,1.349609375,21.1748046875.0009765625,2.0283203125-.025390625,3.693359375-.08203125,4.9931640625-.05859375,1.302734375-.275390625,2.3759765625-.65234375,3.21484375-.3779296875.8427734375-.9501953125,1.537109375-1.71484375,2.0859375-.7685546875.548828125-1.859375,1.08056640625-3.2763671875,1.60205078125-1.357421875.271484375-2.7783203125.5087890625-4.2607421875.7099609375-1.484375.2001953125-2.90625-.08984375-4.2666015625-.8701171875-1.2724609375-.70654296875-2.392578125-1.99560546875-3.3525390625-3.86279296875-.962890625-1.8681640625-1.6318359375-4.611328125-2.00390625-8.2294921875l-.09765625-1.208984375c-2.03515625-.078125-4.447265625-.0849609375-7.2392578125-.021484375-2.7919921875.0654296875-5.6396484375.1953125-8.5439453125.3876953125-2.90234375.1962890625-5.7041015625.4013671875-8.4013671875.6201171875-2.7001953125.21875-4.9755859375.40234375-6.8271484375.552734375-.021484375.732421875-.0244140625,1.9482421875-.0078125,3.6494140625.015625,1.701171875-.109375,3.4150390625-.375,5.138671875-.2666015625,1.724609375-.6875,3.29931640625-1.259765625,4.72412109375-.57421875,1.4248046875-1.4609375,2.2255859375-2.662109375,2.404296875-1.123046875.1708984375-2.404296875.3564453125-3.84765625.5546875-1.443359375.1962890625-2.8671875.150390625-4.267578125-.140625-1.396484375-.2099609375-2.59765625-.7626953125-3.6005859375-1.654296875-1.0048828125-.8916015625-1.6337890625-2.3798828125-1.8818359375-4.46826171875-.203125-2.49609375-.39453125-5.3603515625-.57421875-8.5888671875-.1826171875-3.2275390625-.3037109375-6.744140625-.369140625-10.55078125-.09375-3.1552734375-.1103515625-6.6201171875-.05078125-10.3955078125.05859375-3.775390625.26953125-7.6630859375.634765625-11.666015625.3642578125-4.001953125.931640625-8.0205078125,1.69921875-12.056640625.767578125-4.0341796875,1.833984375-7.890625,3.197265625-11.5703125,1.36328125-3.6767578125,3.0537109375-7.09765625,5.068359375-10.2607421875,2.013671875-3.162109375,4.509765625-5.87890625,7.48828125-8.1484375,3.515625-2.634765625,7.48828125-4.1337890625,11.919921875-4.4921875,4.4296875-.359375,8.70703125.388671875,12.830078125,2.244140625ZM48.248046874998181,111.98876953125c5.041015625-.8125,10.0712890625-1.5234375,15.08984375-2.134765625,5.017578125-.607421875,10.072265625-1.0380859375,15.1591796875-1.2880859375-.2216796875-5.73828125-.8779296875-10.8330078125-1.9677734375-15.287109375-1.0908203125-4.4521484375-2.4072265625-8.17578125-3.9462890625-11.173828125-1.5400390625-2.9951171875-3.2626953125-5.2470703125-5.1689453125-6.7568359375-1.90625-1.505859375-3.78515625-2.185546875-5.638671875-2.03515625-1.611328125.1298828125-3.21484375,1.091796875-4.8134765625,2.8818359375-1.5986328125,1.79296875-3.0146484375,4.33984375-4.2451171875,7.6416015625-1.234375,3.3037109375-2.263671875,7.33984375-3.09375,12.109375-.830078125,4.7705078125-1.2890625,10.1181640625-1.375,16.04296875Z"/>
          <path class="cls-3" d="M238.291015624998181,82.84912109375c3.765625,2.4521484375,6.6796875,5.64453125,8.7421875,9.5693359375,2.060546875,3.927734375,2.9453125,8.0927734375,2.654296875,12.494140625-.3271484375,4.9736328125-1.92578125,9.2587890625-4.796875,12.85546875-2.87109375,3.59765625-6.36328125,6.5361328125-10.474609375,8.814453125-4.115234375,2.279296875-8.62109375,3.9423828125-13.5224609375,4.9873046875s-9.5458984375,1.5029296875-13.9365234375,1.3720703125c-.390625.1943359375-.744140625.3232421875-1.0625.3896484375-.3193359375.06640625-.677734375.15625-1.072265625.2705078125-1.443359375.197265625-2.935546875.318359375-4.470703125.3623046875-1.5380859375.04296875-2.94921875-.107421875-4.232421875-.44921875-1.28515625-.3388671875-2.4111328125-.9775390625-3.37890625-1.9140625-.96875-.9345703125-1.607421875-2.3212890625-1.91796875-4.1630859375-.234375-.87109375-.41796875-2.66015625-.5556640625-5.3671875-.1396484375-2.703125-.3251953125-5.9931640625-.556640625-9.8671875-.1591796875-3.9580078125-.365234375-8.2587890625-.6201171875-12.9013671875-.25390625-4.6416015625-.53125-9.30078125-.828125-13.9814453125-.416015625-6.1259765625-.833984375-12.294921875-1.255859375-18.5048828125-.423828125-6.208984375-1.169921875-12.4326171875-2.2421875-18.6708984375-.220703125-.7109375-.1923828125-1.361328125.0849609375-1.9521484375.1220703125-.49609375.4462890625-.98828125.9755859375-1.4775390625.5263671875-.48828125,1.34765625-.8583984375,2.462890625-1.1123046875.798828125-.1435546875,1.67578125-.337890625,2.62890625-.5771484375.9541015625-.2392578125,1.9501953125-.44140625,2.9912109375-.6083984375,1.0400390625-.1630859375,2.0478515625-.2451171875,3.0205078125-.244140625.974609375.00390625,1.83203125.09375,2.578125.2783203125,4.0615234375-.896484375,8.3681640625-1.2666015625,12.9228515625-1.107421875,4.5537109375.1591796875,8.8896484375.880859375,13.0068359375,2.16796875,4.119140625,1.2900390625,7.7548828125,3.1630859375,10.9150390625,5.6220703125,3.158203125,2.4619140625,5.3779296875,5.5849609375,6.6572265625,9.373046875.5400390625,1.6591796875.92578125,3.4140625,1.15625,5.2578125.23046875,1.84765625.1845703125,3.77734375-.138671875,5.7890625-.32421875,2.013671875-.9423828125,4.130859375-1.857421875,6.3525390625-.9140625,2.2236328125-2.20703125,4.5390625-3.876953125,6.9423828125ZM206.298828124998181,78.26513671875c3.87890625-.1494140625,7.109375-.818359375,9.689453125-2,2.5791015625-1.1826171875,4.470703125-2.6123046875,5.671875-4.2919921875,1.201171875-1.677734375,1.70703125-3.4404296875,1.517578125-5.291015625-.19140625-1.849609375-1.029296875-3.443359375-2.515625-4.783203125-1.48828125-1.337890625-3.6328125-2.2783203125-6.431640625-2.822265625-2.8017578125-.54296875-6.2744140625-.36328125-10.416015625.5390625.49609375,3.123046875.9287109375,6.208984375,1.296875,9.2607421875.369140625,3.052734375.763671875,6.181640625,1.1875,9.388671875ZM209.499999999998181,113.27587890625c4.388671875.1328125,8.037109375-.365234375,10.947265625-1.494140625,2.90625-1.126953125,5.0439453125-2.515625,6.412109375-4.16796875,1.365234375-1.650390625,1.99609375-3.3642578125,1.8935546875-5.140625-.1044921875-1.7734375-.9326171875-3.2470703125-2.4873046875-4.4189453125-1.552734375-1.1708984375-3.83984375-1.857421875-6.85546875-2.060546875-3.0166015625-.19921875-6.73828125.4052734375-11.1630859375,1.81640625l1.2529296875,15.4658203125Z"/>
        </g>
      </a>
      <g>
        <a xlink:href="https://www.notion.so/congruence/B-Event-1f1a5b08a72c49f5ab60f2e0793fd0a8?pvs=4">
          <g>
            <g>
              <path class="cls-1" d="M73.154296874998181,54.63330078125c3.203125,1.5244140625,6,3.48828125,8.3828125,5.888671875,2.384765625,2.40234375,4.443359375,5.0732421875,6.1826171875,8.013671875s3.1884765625,6.0859375,4.3525390625,9.4365234375c1.1630859375,3.353515625,2.1279296875,6.7421875,2.892578125,10.1640625,1.681640625,6.7568359375,2.88671875,13.630859375,3.6171875,20.6259765625.7265625,6.99609375,1.1767578125,14.0556640625,1.349609375,21.1748046875.0009765625,2.0283203125-.025390625,3.693359375-.08203125,4.9931640625-.05859375,1.302734375-.275390625,2.3759765625-.65234375,3.21484375-.3779296875.8427734375-.9501953125,1.537109375-1.71484375,2.0859375-.7685546875.548828125-1.859375,1.08056640625-3.2763671875,1.60205078125-1.357421875.271484375-2.7783203125.5087890625-4.2607421875.7099609375-1.484375.2001953125-2.90625-.08984375-4.2666015625-.8701171875-1.2724609375-.70654296875-2.392578125-1.99560546875-3.3525390625-3.86279296875-.962890625-1.8681640625-1.6318359375-4.611328125-2.00390625-8.2294921875l-.09765625-1.208984375c-2.03515625-.078125-4.447265625-.0849609375-7.2392578125-.021484375-2.7919921875.0654296875-5.6396484375.1953125-8.5439453125.3876953125-2.90234375.1962890625-5.7041015625.4013671875-8.4013671875.6201171875-2.7001953125.21875-4.9755859375.40234375-6.8271484375.552734375-.021484375.732421875-.0244140625,1.9482421875-.0078125,3.6494140625.015625,1.701171875-.109375,3.4150390625-.375,5.138671875-.2666015625,1.724609375-.6875,3.29931640625-1.259765625,4.72412109375-.57421875,1.4248046875-1.4609375,2.2255859375-2.662109375,2.404296875-1.123046875.1708984375-2.404296875.3564453125-3.84765625.5546875-1.443359375.1962890625-2.8671875.150390625-4.267578125-.140625-1.396484375-.2099609375-2.59765625-.7626953125-3.6005859375-1.654296875-1.0048828125-.8916015625-1.6337890625-2.3798828125-1.8818359375-4.46826171875-.203125-2.49609375-.39453125-5.3603515625-.57421875-8.5888671875-.1826171875-3.2275390625-.3037109375-6.744140625-.369140625-10.55078125-.09375-3.1552734375-.1103515625-6.6201171875-.05078125-10.3955078125.05859375-3.775390625.26953125-7.6630859375.634765625-11.666015625.3642578125-4.001953125.931640625-8.0205078125,1.69921875-12.056640625.767578125-4.0341796875,1.833984375-7.890625,3.197265625-11.5703125,1.36328125-3.6767578125,3.0537109375-7.09765625,5.068359375-10.2607421875,2.013671875-3.162109375,4.509765625-5.87890625,7.48828125-8.1484375,3.515625-2.634765625,7.48828125-4.1337890625,11.919921875-4.4921875,4.4296875-.359375,8.70703125.388671875,12.830078125,2.244140625ZM48.248046874998181,111.98876953125c5.041015625-.8125,10.0712890625-1.5234375,15.08984375-2.134765625,5.017578125-.607421875,10.072265625-1.0380859375,15.1591796875-1.2880859375-.2216796875-5.73828125-.8779296875-10.8330078125-1.9677734375-15.287109375-1.0908203125-4.4521484375-2.4072265625-8.17578125-3.9462890625-11.173828125-1.5400390625-2.9951171875-3.2626953125-5.2470703125-5.1689453125-6.7568359375-1.90625-1.505859375-3.78515625-2.185546875-5.638671875-2.03515625-1.611328125.1298828125-3.21484375,1.091796875-4.8134765625,2.8818359375-1.5986328125,1.79296875-3.0146484375,4.33984375-4.2451171875,7.6416015625-1.234375,3.3037109375-2.263671875,7.33984375-3.09375,12.109375-.830078125,4.7705078125-1.2890625,10.1181640625-1.375,16.04296875Z"/>
              <path class="cls-1" d="M238.291015624998181,82.84912109375c3.765625,2.4521484375,6.6796875,5.64453125,8.7421875,9.5693359375,2.060546875,3.927734375,2.9453125,8.0927734375,2.654296875,12.494140625-.3271484375,4.9736328125-1.92578125,9.2587890625-4.796875,12.85546875-2.87109375,3.59765625-6.36328125,6.5361328125-10.474609375,8.814453125-4.115234375,2.279296875-8.62109375,3.9423828125-13.5224609375,4.9873046875s-9.5458984375,1.5029296875-13.9365234375,1.3720703125c-.390625.1943359375-.744140625.3232421875-1.0625.3896484375-.3193359375.06640625-.677734375.15625-1.072265625.2705078125-1.443359375.197265625-2.935546875.318359375-4.470703125.3623046875-1.5380859375.04296875-2.94921875-.107421875-4.232421875-.44921875-1.28515625-.3388671875-2.4111328125-.9775390625-3.37890625-1.9140625-.96875-.9345703125-1.607421875-2.3212890625-1.91796875-4.1630859375-.234375-.87109375-.41796875-2.66015625-.5556640625-5.3671875-.1396484375-2.703125-.3251953125-5.9931640625-.556640625-9.8671875-.1591796875-3.9580078125-.365234375-8.2587890625-.6201171875-12.9013671875-.25390625-4.6416015625-.53125-9.30078125-.828125-13.9814453125-.416015625-6.1259765625-.833984375-12.294921875-1.255859375-18.5048828125-.423828125-6.208984375-1.169921875-12.4326171875-2.2421875-18.6708984375-.220703125-.7109375-.1923828125-1.361328125.0849609375-1.9521484375.1220703125-.49609375.4462890625-.98828125.9755859375-1.4775390625.5263671875-.48828125,1.34765625-.8583984375,2.462890625-1.1123046875.798828125-.1435546875,1.67578125-.337890625,2.62890625-.5771484375.9541015625-.2392578125,1.9501953125-.44140625,2.9912109375-.6083984375,1.0400390625-.1630859375,2.0478515625-.2451171875,3.0205078125-.244140625.974609375.00390625,1.83203125.09375,2.578125.2783203125,4.0615234375-.896484375,8.3681640625-1.2666015625,12.9228515625-1.107421875,4.5537109375.1591796875,8.8896484375.880859375,13.0068359375,2.16796875,4.119140625,1.2900390625,7.7548828125,3.1630859375,10.9150390625,5.6220703125,3.158203125,2.4619140625,5.3779296875,5.5849609375,6.6572265625,9.373046875.5400390625,1.6591796875.92578125,3.4140625,1.15625,5.2578125.23046875,1.84765625.1845703125,3.77734375-.138671875,5.7890625-.32421875,2.013671875-.9423828125,4.130859375-1.857421875,6.3525390625-.9140625,2.2236328125-2.20703125,4.5390625-3.876953125,6.9423828125ZM206.298828124998181,78.26513671875c3.87890625-.1494140625,7.109375-.818359375,9.689453125-2,2.5791015625-1.1826171875,4.470703125-2.6123046875,5.671875-4.2919921875,1.201171875-1.677734375,1.70703125-3.4404296875,1.517578125-5.291015625-.19140625-1.849609375-1.029296875-3.443359375-2.515625-4.783203125-1.48828125-1.337890625-3.6328125-2.2783203125-6.431640625-2.822265625-2.8017578125-.54296875-6.2744140625-.36328125-10.416015625.5390625.49609375,3.123046875.9287109375,6.208984375,1.296875,9.2607421875.369140625,3.052734375.763671875,6.181640625,1.1875,9.388671875ZM209.499999999998181,113.27587890625c4.388671875.1328125,8.037109375-.365234375,10.947265625-1.494140625,2.90625-1.126953125,5.0439453125-2.515625,6.412109375-4.16796875,1.365234375-1.650390625,1.99609375-3.3642578125,1.8935546875-5.140625-.1044921875-1.7734375-.9326171875-3.2470703125-2.4873046875-4.4189453125-1.552734375-1.1708984375-3.83984375-1.857421875-6.85546875-2.060546875-3.0166015625-.19921875-6.73828125.4052734375-11.1630859375,1.81640625l1.2529296875,15.4658203125Z"/>
            </g>
            <g>
              <path class="cls-1" d="M73.154296874998181,54.63330078125c3.203125,1.5244140625,6,3.48828125,8.3828125,5.888671875,2.384765625,2.40234375,4.443359375,5.0732421875,6.1826171875,8.013671875s3.1884765625,6.0859375,4.3525390625,9.4365234375c1.1630859375,3.353515625,2.1279296875,6.7421875,2.892578125,10.1640625,1.681640625,6.7568359375,2.88671875,13.630859375,3.6171875,20.6259765625.7265625,6.99609375,1.1767578125,14.0556640625,1.349609375,21.1748046875.0009765625,2.0283203125-.025390625,3.693359375-.08203125,4.9931640625-.05859375,1.302734375-.275390625,2.3759765625-.65234375,3.21484375-.3779296875.8427734375-.9501953125,1.537109375-1.71484375,2.0859375-.7685546875.548828125-1.859375,1.08056640625-3.2763671875,1.60205078125-1.357421875.271484375-2.7783203125.5087890625-4.2607421875.7099609375-1.484375.2001953125-2.90625-.08984375-4.2666015625-.8701171875-1.2724609375-.70654296875-2.392578125-1.99560546875-3.3525390625-3.86279296875-.962890625-1.8681640625-1.6318359375-4.611328125-2.00390625-8.2294921875l-.09765625-1.208984375c-2.03515625-.078125-4.447265625-.0849609375-7.2392578125-.021484375-2.7919921875.0654296875-5.6396484375.1953125-8.5439453125.3876953125-2.90234375.1962890625-5.7041015625.4013671875-8.4013671875.6201171875-2.7001953125.21875-4.9755859375.40234375-6.8271484375.552734375-.021484375.732421875-.0244140625,1.9482421875-.0078125,3.6494140625.015625,1.701171875-.109375,3.4150390625-.375,5.138671875-.2666015625,1.724609375-.6875,3.29931640625-1.259765625,4.72412109375-.57421875,1.4248046875-1.4609375,2.2255859375-2.662109375,2.404296875-1.123046875.1708984375-2.404296875.3564453125-3.84765625.5546875-1.443359375.1962890625-2.8671875.150390625-4.267578125-.140625-1.396484375-.2099609375-2.59765625-.7626953125-3.6005859375-1.654296875-1.0048828125-.8916015625-1.6337890625-2.3798828125-1.8818359375-4.46826171875-.203125-2.49609375-.39453125-5.3603515625-.57421875-8.5888671875-.1826171875-3.2275390625-.3037109375-6.744140625-.369140625-10.55078125-.09375-3.1552734375-.1103515625-6.6201171875-.05078125-10.3955078125.05859375-3.775390625.26953125-7.6630859375.634765625-11.666015625.3642578125-4.001953125.931640625-8.0205078125,1.69921875-12.056640625.767578125-4.0341796875,1.833984375-7.890625,3.197265625-11.5703125,1.36328125-3.6767578125,3.0537109375-7.09765625,5.068359375-10.2607421875,2.013671875-3.162109375,4.509765625-5.87890625,7.48828125-8.1484375,3.515625-2.634765625,7.48828125-4.1337890625,11.919921875-4.4921875,4.4296875-.359375,8.70703125.388671875,12.830078125,2.244140625ZM48.248046874998181,111.98876953125c5.041015625-.8125,10.0712890625-1.5234375,15.08984375-2.134765625,5.017578125-.607421875,10.072265625-1.0380859375,15.1591796875-1.2880859375-.2216796875-5.73828125-.8779296875-10.8330078125-1.9677734375-15.287109375-1.0908203125-4.4521484375-2.4072265625-8.17578125-3.9462890625-11.173828125-1.5400390625-2.9951171875-3.2626953125-5.2470703125-5.1689453125-6.7568359375-1.90625-1.505859375-3.78515625-2.185546875-5.638671875-2.03515625-1.611328125.1298828125-3.21484375,1.091796875-4.8134765625,2.8818359375-1.5986328125,1.79296875-3.0146484375,4.33984375-4.2451171875,7.6416015625-1.234375,3.3037109375-2.263671875,7.33984375-3.09375,12.109375-.830078125,4.7705078125-1.2890625,10.1181640625-1.375,16.04296875Z"/>
              <path class="cls-1" d="M238.291015624998181,82.84912109375c3.765625,2.4521484375,6.6796875,5.64453125,8.7421875,9.5693359375,2.060546875,3.927734375,2.9453125,8.0927734375,2.654296875,12.494140625-.3271484375,4.9736328125-1.92578125,9.2587890625-4.796875,12.85546875-2.87109375,3.59765625-6.36328125,6.5361328125-10.474609375,8.814453125-4.115234375,2.279296875-8.62109375,3.9423828125-13.5224609375,4.9873046875s-9.5458984375,1.5029296875-13.9365234375,1.3720703125c-.390625.1943359375-.744140625.3232421875-1.0625.3896484375-.3193359375.06640625-.677734375.15625-1.072265625.2705078125-1.443359375.197265625-2.935546875.318359375-4.470703125.3623046875-1.5380859375.04296875-2.94921875-.107421875-4.232421875-.44921875-1.28515625-.3388671875-2.4111328125-.9775390625-3.37890625-1.9140625-.96875-.9345703125-1.607421875-2.3212890625-1.91796875-4.1630859375-.234375-.87109375-.41796875-2.66015625-.5556640625-5.3671875-.1396484375-2.703125-.3251953125-5.9931640625-.556640625-9.8671875-.1591796875-3.9580078125-.365234375-8.2587890625-.6201171875-12.9013671875-.25390625-4.6416015625-.53125-9.30078125-.828125-13.9814453125-.416015625-6.1259765625-.833984375-12.294921875-1.255859375-18.5048828125-.423828125-6.208984375-1.169921875-12.4326171875-2.2421875-18.6708984375-.220703125-.7109375-.1923828125-1.361328125.0849609375-1.9521484375.1220703125-.49609375.4462890625-.98828125.9755859375-1.4775390625.5263671875-.48828125,1.34765625-.8583984375,2.462890625-1.1123046875.798828125-.1435546875,1.67578125-.337890625,2.62890625-.5771484375.9541015625-.2392578125,1.9501953125-.44140625,2.9912109375-.6083984375,1.0400390625-.1630859375,2.0478515625-.2451171875,3.0205078125-.244140625.974609375.00390625,1.83203125.09375,2.578125.2783203125,4.0615234375-.896484375,8.3681640625-1.2666015625,12.9228515625-1.107421875,4.5537109375.1591796875,8.8896484375.880859375,13.0068359375,2.16796875,4.119140625,1.2900390625,7.7548828125,3.1630859375,10.9150390625,5.6220703125,3.158203125,2.4619140625,5.3779296875,5.5849609375,6.6572265625,9.373046875.5400390625,1.6591796875.92578125,3.4140625,1.15625,5.2578125.23046875,1.84765625.1845703125,3.77734375-.138671875,5.7890625-.32421875,2.013671875-.9423828125,4.130859375-1.857421875,6.3525390625-.9140625,2.2236328125-2.20703125,4.5390625-3.876953125,6.9423828125ZM206.298828124998181,78.26513671875c3.87890625-.1494140625,7.109375-.818359375,9.689453125-2,2.5791015625-1.1826171875,4.470703125-2.6123046875,5.671875-4.2919921875,1.201171875-1.677734375,1.70703125-3.4404296875,1.517578125-5.291015625-.19140625-1.849609375-1.029296875-3.443359375-2.515625-4.783203125-1.48828125-1.337890625-3.6328125-2.2783203125-6.431640625-2.822265625-2.8017578125-.54296875-6.2744140625-.36328125-10.416015625.5390625.49609375,3.123046875.9287109375,6.208984375,1.296875,9.2607421875.369140625,3.052734375.763671875,6.181640625,1.1875,9.388671875ZM209.499999999998181,113.27587890625c4.388671875.1328125,8.037109375-.365234375,10.947265625-1.494140625,2.90625-1.126953125,5.0439453125-2.515625,6.412109375-4.16796875,1.365234375-1.650390625,1.99609375-3.3642578125,1.8935546875-5.140625-.1044921875-1.7734375-.9326171875-3.2470703125-2.4873046875-4.4189453125-1.552734375-1.1708984375-3.83984375-1.857421875-6.85546875-2.060546875-3.0166015625-.19921875-6.73828125.4052734375-11.1630859375,1.81640625l1.2529296875,15.4658203125Z"/>
            </g>
            <g>
              <path class="cls-1" d="M73.154296874998181,54.63330078125c3.203125,1.5244140625,6,3.48828125,8.3828125,5.888671875,2.384765625,2.40234375,4.443359375,5.0732421875,6.1826171875,8.013671875s3.1884765625,6.0859375,4.3525390625,9.4365234375c1.1630859375,3.353515625,2.1279296875,6.7421875,2.892578125,10.1640625,1.681640625,6.7568359375,2.88671875,13.630859375,3.6171875,20.6259765625.7265625,6.99609375,1.1767578125,14.0556640625,1.349609375,21.1748046875.0009765625,2.0283203125-.025390625,3.693359375-.08203125,4.9931640625-.05859375,1.302734375-.275390625,2.3759765625-.65234375,3.21484375-.3779296875.8427734375-.9501953125,1.537109375-1.71484375,2.0859375-.7685546875.548828125-1.859375,1.08056640625-3.2763671875,1.60205078125-1.357421875.271484375-2.7783203125.5087890625-4.2607421875.7099609375-1.484375.2001953125-2.90625-.08984375-4.2666015625-.8701171875-1.2724609375-.70654296875-2.392578125-1.99560546875-3.3525390625-3.86279296875-.962890625-1.8681640625-1.6318359375-4.611328125-2.00390625-8.2294921875l-.09765625-1.208984375c-2.03515625-.078125-4.447265625-.0849609375-7.2392578125-.021484375-2.7919921875.0654296875-5.6396484375.1953125-8.5439453125.3876953125-2.90234375.1962890625-5.7041015625.4013671875-8.4013671875.6201171875-2.7001953125.21875-4.9755859375.40234375-6.8271484375.552734375-.021484375.732421875-.0244140625,1.9482421875-.0078125,3.6494140625.015625,1.701171875-.109375,3.4150390625-.375,5.138671875-.2666015625,1.724609375-.6875,3.29931640625-1.259765625,4.72412109375-.57421875,1.4248046875-1.4609375,2.2255859375-2.662109375,2.404296875-1.123046875.1708984375-2.404296875.3564453125-3.84765625.5546875-1.443359375.1962890625-2.8671875.150390625-4.267578125-.140625-1.396484375-.2099609375-2.59765625-.7626953125-3.6005859375-1.654296875-1.0048828125-.8916015625-1.6337890625-2.3798828125-1.8818359375-4.46826171875-.203125-2.49609375-.39453125-5.3603515625-.57421875-8.5888671875-.1826171875-3.2275390625-.3037109375-6.744140625-.369140625-10.55078125-.09375-3.1552734375-.1103515625-6.6201171875-.05078125-10.3955078125.05859375-3.775390625.26953125-7.6630859375.634765625-11.666015625.3642578125-4.001953125.931640625-8.0205078125,1.69921875-12.056640625.767578125-4.0341796875,1.833984375-7.890625,3.197265625-11.5703125,1.36328125-3.6767578125,3.0537109375-7.09765625,5.068359375-10.2607421875,2.013671875-3.162109375,4.509765625-5.87890625,7.48828125-8.1484375,3.515625-2.634765625,7.48828125-4.1337890625,11.919921875-4.4921875,4.4296875-.359375,8.70703125.388671875,12.830078125,2.244140625ZM48.248046874998181,111.98876953125c5.041015625-.8125,10.0712890625-1.5234375,15.08984375-2.134765625,5.017578125-.607421875,10.072265625-1.0380859375,15.1591796875-1.2880859375-.2216796875-5.73828125-.8779296875-10.8330078125-1.9677734375-15.287109375-1.0908203125-4.4521484375-2.4072265625-8.17578125-3.9462890625-11.173828125-1.5400390625-2.9951171875-3.2626953125-5.2470703125-5.1689453125-6.7568359375-1.90625-1.505859375-3.78515625-2.185546875-5.638671875-2.03515625-1.611328125.1298828125-3.21484375,1.091796875-4.8134765625,2.8818359375-1.5986328125,1.79296875-3.0146484375,4.33984375-4.2451171875,7.6416015625-1.234375,3.3037109375-2.263671875,7.33984375-3.09375,12.109375-.830078125,4.7705078125-1.2890625,10.1181640625-1.375,16.04296875Z"/>
              <path class="cls-1" d="M238.291015624998181,82.84912109375c3.765625,2.4521484375,6.6796875,5.64453125,8.7421875,9.5693359375,2.060546875,3.927734375,2.9453125,8.0927734375,2.654296875,12.494140625-.3271484375,4.9736328125-1.92578125,9.2587890625-4.796875,12.85546875-2.87109375,3.59765625-6.36328125,6.5361328125-10.474609375,8.814453125-4.115234375,2.279296875-8.62109375,3.9423828125-13.5224609375,4.9873046875s-9.5458984375,1.5029296875-13.9365234375,1.3720703125c-.390625.1943359375-.744140625.3232421875-1.0625.3896484375-.3193359375.06640625-.677734375.15625-1.072265625.2705078125-1.443359375.197265625-2.935546875.318359375-4.470703125.3623046875-1.5380859375.04296875-2.94921875-.107421875-4.232421875-.44921875-1.28515625-.3388671875-2.4111328125-.9775390625-3.37890625-1.9140625-.96875-.9345703125-1.607421875-2.3212890625-1.91796875-4.1630859375-.234375-.87109375-.41796875-2.66015625-.5556640625-5.3671875-.1396484375-2.703125-.3251953125-5.9931640625-.556640625-9.8671875-.1591796875-3.9580078125-.365234375-8.2587890625-.6201171875-12.9013671875-.25390625-4.6416015625-.53125-9.30078125-.828125-13.9814453125-.416015625-6.1259765625-.833984375-12.294921875-1.255859375-18.5048828125-.423828125-6.208984375-1.169921875-12.4326171875-2.2421875-18.6708984375-.220703125-.7109375-.1923828125-1.361328125.0849609375-1.9521484375.1220703125-.49609375.4462890625-.98828125.9755859375-1.4775390625.5263671875-.48828125,1.34765625-.8583984375,2.462890625-1.1123046875.798828125-.1435546875,1.67578125-.337890625,2.62890625-.5771484375.9541015625-.2392578125,1.9501953125-.44140625,2.9912109375-.6083984375,1.0400390625-.1630859375,2.0478515625-.2451171875,3.0205078125-.244140625.974609375.00390625,1.83203125.09375,2.578125.2783203125,4.0615234375-.896484375,8.3681640625-1.2666015625,12.9228515625-1.107421875,4.5537109375.1591796875,8.8896484375.880859375,13.0068359375,2.16796875,4.119140625,1.2900390625,7.7548828125,3.1630859375,10.9150390625,5.6220703125,3.158203125,2.4619140625,5.3779296875,5.5849609375,6.6572265625,9.373046875.5400390625,1.6591796875.92578125,3.4140625,1.15625,5.2578125.23046875,1.84765625.1845703125,3.77734375-.138671875,5.7890625-.32421875,2.013671875-.9423828125,4.130859375-1.857421875,6.3525390625-.9140625,2.2236328125-2.20703125,4.5390625-3.876953125,6.9423828125ZM206.298828124998181,78.26513671875c3.87890625-.1494140625,7.109375-.818359375,9.689453125-2,2.5791015625-1.1826171875,4.470703125-2.6123046875,5.671875-4.2919921875,1.201171875-1.677734375,1.70703125-3.4404296875,1.517578125-5.291015625-.19140625-1.849609375-1.029296875-3.443359375-2.515625-4.783203125-1.48828125-1.337890625-3.6328125-2.2783203125-6.431640625-2.822265625-2.8017578125-.54296875-6.2744140625-.36328125-10.416015625.5390625.49609375,3.123046875.9287109375,6.208984375,1.296875,9.2607421875.369140625,3.052734375.763671875,6.181640625,1.1875,9.388671875ZM209.499999999998181,113.27587890625c4.388671875.1328125,8.037109375-.365234375,10.947265625-1.494140625,2.90625-1.126953125,5.0439453125-2.515625,6.412109375-4.16796875,1.365234375-1.650390625,1.99609375-3.3642578125,1.8935546875-5.140625-.1044921875-1.7734375-.9326171875-3.2470703125-2.4873046875-4.4189453125-1.552734375-1.1708984375-3.83984375-1.857421875-6.85546875-2.060546875-3.0166015625-.19921875-6.73828125.4052734375-11.1630859375,1.81640625l1.2529296875,15.4658203125Z"/>
            </g>
          </g>
        </a>
        <path class="cls-1" d="M157.098632812498181,104.4873046875c.1455078125-3.1884765625.216796875-6.1669921875.216796875-8.9365234375,0-2.7685546875-.3603515625-5.4111328125-1.0849609375-7.9287109375-.72265625-2.7412109375-1.845703125-4.978515625-3.365234375-6.7119140625-1.51953125-1.734375-3.23828125-3.0078125-5.15625-3.8173828125-1.916015625-.8115234375-3.908203125-1.1474609375-5.970703125-1.0068359375-2.0625.138671875-4.0517578125.6708984375-5.9697265625,1.59375-1.9169921875.9228515625-3.63671875,2.2236328125-5.15625,3.9013671875-1.51953125,1.6787109375-2.640625,3.7197265625-3.365234375,6.125-.7216796875,2.236328125-1.2294921875,4.82421875-1.51953125,7.76171875-.2880859375,2.9365234375-.4345703125,5.9150390625-.4345703125,8.935546875s.146484375,5.9423828125.4345703125,8.767578125c.2900390625,2.82421875.580078125,5.244140625.8681640625,7.2578125.216796875,1.4541015625-.361328125,2.62890625-1.736328125,3.5234375-1.3740234375.89453125-2.9853515625,1.439453125-4.830078125,1.63671875-1.845703125.1953125-3.654296875,0-5.427734375-.587890625-1.7734375-.5869140625-2.9482421875-1.6357421875-3.5283203125-3.146484375-1.0126953125-2.5732421875-1.75390625-5.341796875-2.2255859375-8.3056640625-.46875-2.9658203125-.740234375-5.9443359375-.814453125-8.935546875-.0703125-2.9931640625.0380859375-5.9296875.326171875-8.810546875.2900390625-2.880859375.689453125-5.5517578125,1.1943359375-8.0126953125.796875-3.30078125,2.0625-6.4892578125,3.7998046875-9.564453125,1.736328125-3.0771484375,3.9609375-5.7900390625,6.67578125-8.138671875,2.712890625-2.349609375,5.93359375-4.224609375,9.66015625-5.6220703125,3.728515625-1.3984375,7.943359375-2.041015625,12.646484375-1.9296875,2.9677734375.056640625,5.7529296875.447265625,8.3583984375,1.1748046875,2.6044921875.7265625,5.01171875,1.69140625,7.2177734375,2.89453125,2.208984375,1.2021484375,4.1796875,2.6142578125,5.916015625,4.2373046875,1.7373046875,1.62109375,3.220703125,3.3564453125,4.451171875,5.2021484375,2.244140625,3.4677734375,3.7822265625,7.3828125,4.61328125,11.74609375.8330078125,4.36328125,1.248046875,8.6552734375,1.248046875,12.87890625,0,4.22265625-.234375,8.1103515625-.705078125,11.6630859375-.470703125,3.5517578125-.9228515625,6.3056640625-1.357421875,8.2646484375-.14453125,1.0615234375-.6865234375,1.9423828125-1.6279296875,2.642578125-.939453125.69921875-2.0439453125,1.216796875-3.310546875,1.552734375-1.265625.3349609375-2.6220703125.5029296875-4.0712890625.5029296875-1.4462890625,0-2.767578125-.1826171875-3.9609375-.544921875-1.1953125-.365234375-2.171875-.9228515625-2.931640625-1.6787109375-.759765625-.7548828125-1.1025390625-1.6650390625-1.03125-2.7265625l1.9541015625-15.857421875Z"/>
      </g>
      <g>
        <a xlink:href="https://www.notion.so/congruence/B-Event-1f1a5b08a72c49f5ab60f2e0793fd0a8?pvs=4">
          <g>
            <g>
              <path class="cls-2" d="M73.154296874998181,54.63330078125c3.203125,1.5244140625,6,3.48828125,8.3828125,5.888671875,2.384765625,2.40234375,4.443359375,5.0732421875,6.1826171875,8.013671875s3.1884765625,6.0859375,4.3525390625,9.4365234375c1.1630859375,3.353515625,2.1279296875,6.7421875,2.892578125,10.1640625,1.681640625,6.7568359375,2.88671875,13.630859375,3.6171875,20.6259765625.7265625,6.99609375,1.1767578125,14.0556640625,1.349609375,21.1748046875.0009765625,2.0283203125-.025390625,3.693359375-.08203125,4.9931640625-.05859375,1.302734375-.275390625,2.3759765625-.65234375,3.21484375-.3779296875.8427734375-.9501953125,1.537109375-1.71484375,2.0859375-.7685546875.548828125-1.859375,1.08056640625-3.2763671875,1.60205078125-1.357421875.271484375-2.7783203125.5087890625-4.2607421875.7099609375-1.484375.2001953125-2.90625-.08984375-4.2666015625-.8701171875-1.2724609375-.70654296875-2.392578125-1.99560546875-3.3525390625-3.86279296875-.962890625-1.8681640625-1.6318359375-4.611328125-2.00390625-8.2294921875l-.09765625-1.208984375c-2.03515625-.078125-4.447265625-.0849609375-7.2392578125-.021484375-2.7919921875.0654296875-5.6396484375.1953125-8.5439453125.3876953125-2.90234375.1962890625-5.7041015625.4013671875-8.4013671875.6201171875-2.7001953125.21875-4.9755859375.40234375-6.8271484375.552734375-.021484375.732421875-.0244140625,1.9482421875-.0078125,3.6494140625.015625,1.701171875-.109375,3.4150390625-.375,5.138671875-.2666015625,1.724609375-.6875,3.29931640625-1.259765625,4.72412109375-.57421875,1.4248046875-1.4609375,2.2255859375-2.662109375,2.404296875-1.123046875.1708984375-2.404296875.3564453125-3.84765625.5546875-1.443359375.1962890625-2.8671875.150390625-4.267578125-.140625-1.396484375-.2099609375-2.59765625-.7626953125-3.6005859375-1.654296875-1.0048828125-.8916015625-1.6337890625-2.3798828125-1.8818359375-4.46826171875-.203125-2.49609375-.39453125-5.3603515625-.57421875-8.5888671875-.1826171875-3.2275390625-.3037109375-6.744140625-.369140625-10.55078125-.09375-3.1552734375-.1103515625-6.6201171875-.05078125-10.3955078125.05859375-3.775390625.26953125-7.6630859375.634765625-11.666015625.3642578125-4.001953125.931640625-8.0205078125,1.69921875-12.056640625.767578125-4.0341796875,1.833984375-7.890625,3.197265625-11.5703125,1.36328125-3.6767578125,3.0537109375-7.09765625,5.068359375-10.2607421875,2.013671875-3.162109375,4.509765625-5.87890625,7.48828125-8.1484375,3.515625-2.634765625,7.48828125-4.1337890625,11.919921875-4.4921875,4.4296875-.359375,8.70703125.388671875,12.830078125,2.244140625ZM48.248046874998181,111.98876953125c5.041015625-.8125,10.0712890625-1.5234375,15.08984375-2.134765625,5.017578125-.607421875,10.072265625-1.0380859375,15.1591796875-1.2880859375-.2216796875-5.73828125-.8779296875-10.8330078125-1.9677734375-15.287109375-1.0908203125-4.4521484375-2.4072265625-8.17578125-3.9462890625-11.173828125-1.5400390625-2.9951171875-3.2626953125-5.2470703125-5.1689453125-6.7568359375-1.90625-1.505859375-3.78515625-2.185546875-5.638671875-2.03515625-1.611328125.1298828125-3.21484375,1.091796875-4.8134765625,2.8818359375-1.5986328125,1.79296875-3.0146484375,4.33984375-4.2451171875,7.6416015625-1.234375,3.3037109375-2.263671875,7.33984375-3.09375,12.109375-.830078125,4.7705078125-1.2890625,10.1181640625-1.375,16.04296875Z"/>
              <path class="cls-2" d="M238.291015624998181,82.84912109375c3.765625,2.4521484375,6.6796875,5.64453125,8.7421875,9.5693359375,2.060546875,3.927734375,2.9453125,8.0927734375,2.654296875,12.494140625-.3271484375,4.9736328125-1.92578125,9.2587890625-4.796875,12.85546875-2.87109375,3.59765625-6.36328125,6.5361328125-10.474609375,8.814453125-4.115234375,2.279296875-8.62109375,3.9423828125-13.5224609375,4.9873046875s-9.5458984375,1.5029296875-13.9365234375,1.3720703125c-.390625.1943359375-.744140625.3232421875-1.0625.3896484375-.3193359375.06640625-.677734375.15625-1.072265625.2705078125-1.443359375.197265625-2.935546875.318359375-4.470703125.3623046875-1.5380859375.04296875-2.94921875-.107421875-4.232421875-.44921875-1.28515625-.3388671875-2.4111328125-.9775390625-3.37890625-1.9140625-.96875-.9345703125-1.607421875-2.3212890625-1.91796875-4.1630859375-.234375-.87109375-.41796875-2.66015625-.5556640625-5.3671875-.1396484375-2.703125-.3251953125-5.9931640625-.556640625-9.8671875-.1591796875-3.9580078125-.365234375-8.2587890625-.6201171875-12.9013671875-.25390625-4.6416015625-.53125-9.30078125-.828125-13.9814453125-.416015625-6.1259765625-.833984375-12.294921875-1.255859375-18.5048828125-.423828125-6.208984375-1.169921875-12.4326171875-2.2421875-18.6708984375-.220703125-.7109375-.1923828125-1.361328125.0849609375-1.9521484375.1220703125-.49609375.4462890625-.98828125.9755859375-1.4775390625.5263671875-.48828125,1.34765625-.8583984375,2.462890625-1.1123046875.798828125-.1435546875,1.67578125-.337890625,2.62890625-.5771484375.9541015625-.2392578125,1.9501953125-.44140625,2.9912109375-.6083984375,1.0400390625-.1630859375,2.0478515625-.2451171875,3.0205078125-.244140625.974609375.00390625,1.83203125.09375,2.578125.2783203125,4.0615234375-.896484375,8.3681640625-1.2666015625,12.9228515625-1.107421875,4.5537109375.1591796875,8.8896484375.880859375,13.0068359375,2.16796875,4.119140625,1.2900390625,7.7548828125,3.1630859375,10.9150390625,5.6220703125,3.158203125,2.4619140625,5.3779296875,5.5849609375,6.6572265625,9.373046875.5400390625,1.6591796875.92578125,3.4140625,1.15625,5.2578125.23046875,1.84765625.1845703125,3.77734375-.138671875,5.7890625-.32421875,2.013671875-.9423828125,4.130859375-1.857421875,6.3525390625-.9140625,2.2236328125-2.20703125,4.5390625-3.876953125,6.9423828125ZM206.298828124998181,78.26513671875c3.87890625-.1494140625,7.109375-.818359375,9.689453125-2,2.5791015625-1.1826171875,4.470703125-2.6123046875,5.671875-4.2919921875,1.201171875-1.677734375,1.70703125-3.4404296875,1.517578125-5.291015625-.19140625-1.849609375-1.029296875-3.443359375-2.515625-4.783203125-1.48828125-1.337890625-3.6328125-2.2783203125-6.431640625-2.822265625-2.8017578125-.54296875-6.2744140625-.36328125-10.416015625.5390625.49609375,3.123046875.9287109375,6.208984375,1.296875,9.2607421875.369140625,3.052734375.763671875,6.181640625,1.1875,9.388671875ZM209.499999999998181,113.27587890625c4.388671875.1328125,8.037109375-.365234375,10.947265625-1.494140625,2.90625-1.126953125,5.0439453125-2.515625,6.412109375-4.16796875,1.365234375-1.650390625,1.99609375-3.3642578125,1.8935546875-5.140625-.1044921875-1.7734375-.9326171875-3.2470703125-2.4873046875-4.4189453125-1.552734375-1.1708984375-3.83984375-1.857421875-6.85546875-2.060546875-3.0166015625-.19921875-6.73828125.4052734375-11.1630859375,1.81640625l1.2529296875,15.4658203125Z"/>
            </g>
            <g>
              <path class="cls-2" d="M73.154296874998181,54.63330078125c3.203125,1.5244140625,6,3.48828125,8.3828125,5.888671875,2.384765625,2.40234375,4.443359375,5.0732421875,6.1826171875,8.013671875s3.1884765625,6.0859375,4.3525390625,9.4365234375c1.1630859375,3.353515625,2.1279296875,6.7421875,2.892578125,10.1640625,1.681640625,6.7568359375,2.88671875,13.630859375,3.6171875,20.6259765625.7265625,6.99609375,1.1767578125,14.0556640625,1.349609375,21.1748046875.0009765625,2.0283203125-.025390625,3.693359375-.08203125,4.9931640625-.05859375,1.302734375-.275390625,2.3759765625-.65234375,3.21484375-.3779296875.8427734375-.9501953125,1.537109375-1.71484375,2.0859375-.7685546875.548828125-1.859375,1.08056640625-3.2763671875,1.60205078125-1.357421875.271484375-2.7783203125.5087890625-4.2607421875.7099609375-1.484375.2001953125-2.90625-.08984375-4.2666015625-.8701171875-1.2724609375-.70654296875-2.392578125-1.99560546875-3.3525390625-3.86279296875-.962890625-1.8681640625-1.6318359375-4.611328125-2.00390625-8.2294921875l-.09765625-1.208984375c-2.03515625-.078125-4.447265625-.0849609375-7.2392578125-.021484375-2.7919921875.0654296875-5.6396484375.1953125-8.5439453125.3876953125-2.90234375.1962890625-5.7041015625.4013671875-8.4013671875.6201171875-2.7001953125.21875-4.9755859375.40234375-6.8271484375.552734375-.021484375.732421875-.0244140625,1.9482421875-.0078125,3.6494140625.015625,1.701171875-.109375,3.4150390625-.375,5.138671875-.2666015625,1.724609375-.6875,3.29931640625-1.259765625,4.72412109375-.57421875,1.4248046875-1.4609375,2.2255859375-2.662109375,2.404296875-1.123046875.1708984375-2.404296875.3564453125-3.84765625.5546875-1.443359375.1962890625-2.8671875.150390625-4.267578125-.140625-1.396484375-.2099609375-2.59765625-.7626953125-3.6005859375-1.654296875-1.0048828125-.8916015625-1.6337890625-2.3798828125-1.8818359375-4.46826171875-.203125-2.49609375-.39453125-5.3603515625-.57421875-8.5888671875-.1826171875-3.2275390625-.3037109375-6.744140625-.369140625-10.55078125-.09375-3.1552734375-.1103515625-6.6201171875-.05078125-10.3955078125.05859375-3.775390625.26953125-7.6630859375.634765625-11.666015625.3642578125-4.001953125.931640625-8.0205078125,1.69921875-12.056640625.767578125-4.0341796875,1.833984375-7.890625,3.197265625-11.5703125,1.36328125-3.6767578125,3.0537109375-7.09765625,5.068359375-10.2607421875,2.013671875-3.162109375,4.509765625-5.87890625,7.48828125-8.1484375,3.515625-2.634765625,7.48828125-4.1337890625,11.919921875-4.4921875,4.4296875-.359375,8.70703125.388671875,12.830078125,2.244140625ZM48.248046874998181,111.98876953125c5.041015625-.8125,10.0712890625-1.5234375,15.08984375-2.134765625,5.017578125-.607421875,10.072265625-1.0380859375,15.1591796875-1.2880859375-.2216796875-5.73828125-.8779296875-10.8330078125-1.9677734375-15.287109375-1.0908203125-4.4521484375-2.4072265625-8.17578125-3.9462890625-11.173828125-1.5400390625-2.9951171875-3.2626953125-5.2470703125-5.1689453125-6.7568359375-1.90625-1.505859375-3.78515625-2.185546875-5.638671875-2.03515625-1.611328125.1298828125-3.21484375,1.091796875-4.8134765625,2.8818359375-1.5986328125,1.79296875-3.0146484375,4.33984375-4.2451171875,7.6416015625-1.234375,3.3037109375-2.263671875,7.33984375-3.09375,12.109375-.830078125,4.7705078125-1.2890625,10.1181640625-1.375,16.04296875Z"/>
              <path class="cls-2" d="M238.291015624998181,82.84912109375c3.765625,2.4521484375,6.6796875,5.64453125,8.7421875,9.5693359375,2.060546875,3.927734375,2.9453125,8.0927734375,2.654296875,12.494140625-.3271484375,4.9736328125-1.92578125,9.2587890625-4.796875,12.85546875-2.87109375,3.59765625-6.36328125,6.5361328125-10.474609375,8.814453125-4.115234375,2.279296875-8.62109375,3.9423828125-13.5224609375,4.9873046875s-9.5458984375,1.5029296875-13.9365234375,1.3720703125c-.390625.1943359375-.744140625.3232421875-1.0625.3896484375-.3193359375.06640625-.677734375.15625-1.072265625.2705078125-1.443359375.197265625-2.935546875.318359375-4.470703125.3623046875-1.5380859375.04296875-2.94921875-.107421875-4.232421875-.44921875-1.28515625-.3388671875-2.4111328125-.9775390625-3.37890625-1.9140625-.96875-.9345703125-1.607421875-2.3212890625-1.91796875-4.1630859375-.234375-.87109375-.41796875-2.66015625-.5556640625-5.3671875-.1396484375-2.703125-.3251953125-5.9931640625-.556640625-9.8671875-.1591796875-3.9580078125-.365234375-8.2587890625-.6201171875-12.9013671875-.25390625-4.6416015625-.53125-9.30078125-.828125-13.9814453125-.416015625-6.1259765625-.833984375-12.294921875-1.255859375-18.5048828125-.423828125-6.208984375-1.169921875-12.4326171875-2.2421875-18.6708984375-.220703125-.7109375-.1923828125-1.361328125.0849609375-1.9521484375.1220703125-.49609375.4462890625-.98828125.9755859375-1.4775390625.5263671875-.48828125,1.34765625-.8583984375,2.462890625-1.1123046875.798828125-.1435546875,1.67578125-.337890625,2.62890625-.5771484375.9541015625-.2392578125,1.9501953125-.44140625,2.9912109375-.6083984375,1.0400390625-.1630859375,2.0478515625-.2451171875,3.0205078125-.244140625.974609375.00390625,1.83203125.09375,2.578125.2783203125,4.0615234375-.896484375,8.3681640625-1.2666015625,12.9228515625-1.107421875,4.5537109375.1591796875,8.8896484375.880859375,13.0068359375,2.16796875,4.119140625,1.2900390625,7.7548828125,3.1630859375,10.9150390625,5.6220703125,3.158203125,2.4619140625,5.3779296875,5.5849609375,6.6572265625,9.373046875.5400390625,1.6591796875.92578125,3.4140625,1.15625,5.2578125.23046875,1.84765625.1845703125,3.77734375-.138671875,5.7890625-.32421875,2.013671875-.9423828125,4.130859375-1.857421875,6.3525390625-.9140625,2.2236328125-2.20703125,4.5390625-3.876953125,6.9423828125ZM206.298828124998181,78.26513671875c3.87890625-.1494140625,7.109375-.818359375,9.689453125-2,2.5791015625-1.1826171875,4.470703125-2.6123046875,5.671875-4.2919921875,1.201171875-1.677734375,1.70703125-3.4404296875,1.517578125-5.291015625-.19140625-1.849609375-1.029296875-3.443359375-2.515625-4.783203125-1.48828125-1.337890625-3.6328125-2.2783203125-6.431640625-2.822265625-2.8017578125-.54296875-6.2744140625-.36328125-10.416015625.5390625.49609375,3.123046875.9287109375,6.208984375,1.296875,9.2607421875.369140625,3.052734375.763671875,6.181640625,1.1875,9.388671875ZM209.499999999998181,113.27587890625c4.388671875.1328125,8.037109375-.365234375,10.947265625-1.494140625,2.90625-1.126953125,5.0439453125-2.515625,6.412109375-4.16796875,1.365234375-1.650390625,1.99609375-3.3642578125,1.8935546875-5.140625-.1044921875-1.7734375-.9326171875-3.2470703125-2.4873046875-4.4189453125-1.552734375-1.1708984375-3.83984375-1.857421875-6.85546875-2.060546875-3.0166015625-.19921875-6.73828125.4052734375-11.1630859375,1.81640625l1.2529296875,15.4658203125Z"/>
            </g>
            <g>
              <path class="cls-2" d="M73.154296874998181,54.63330078125c3.203125,1.5244140625,6,3.48828125,8.3828125,5.888671875,2.384765625,2.40234375,4.443359375,5.0732421875,6.1826171875,8.013671875s3.1884765625,6.0859375,4.3525390625,9.4365234375c1.1630859375,3.353515625,2.1279296875,6.7421875,2.892578125,10.1640625,1.681640625,6.7568359375,2.88671875,13.630859375,3.6171875,20.6259765625.7265625,6.99609375,1.1767578125,14.0556640625,1.349609375,21.1748046875.0009765625,2.0283203125-.025390625,3.693359375-.08203125,4.9931640625-.05859375,1.302734375-.275390625,2.3759765625-.65234375,3.21484375-.3779296875.8427734375-.9501953125,1.537109375-1.71484375,2.0859375-.7685546875.548828125-1.859375,1.08056640625-3.2763671875,1.60205078125-1.357421875.271484375-2.7783203125.5087890625-4.2607421875.7099609375-1.484375.2001953125-2.90625-.08984375-4.2666015625-.8701171875-1.2724609375-.70654296875-2.392578125-1.99560546875-3.3525390625-3.86279296875-.962890625-1.8681640625-1.6318359375-4.611328125-2.00390625-8.2294921875l-.09765625-1.208984375c-2.03515625-.078125-4.447265625-.0849609375-7.2392578125-.021484375-2.7919921875.0654296875-5.6396484375.1953125-8.5439453125.3876953125-2.90234375.1962890625-5.7041015625.4013671875-8.4013671875.6201171875-2.7001953125.21875-4.9755859375.40234375-6.8271484375.552734375-.021484375.732421875-.0244140625,1.9482421875-.0078125,3.6494140625.015625,1.701171875-.109375,3.4150390625-.375,5.138671875-.2666015625,1.724609375-.6875,3.29931640625-1.259765625,4.72412109375-.57421875,1.4248046875-1.4609375,2.2255859375-2.662109375,2.404296875-1.123046875.1708984375-2.404296875.3564453125-3.84765625.5546875-1.443359375.1962890625-2.8671875.150390625-4.267578125-.140625-1.396484375-.2099609375-2.59765625-.7626953125-3.6005859375-1.654296875-1.0048828125-.8916015625-1.6337890625-2.3798828125-1.8818359375-4.46826171875-.203125-2.49609375-.39453125-5.3603515625-.57421875-8.5888671875-.1826171875-3.2275390625-.3037109375-6.744140625-.369140625-10.55078125-.09375-3.1552734375-.1103515625-6.6201171875-.05078125-10.3955078125.05859375-3.775390625.26953125-7.6630859375.634765625-11.666015625.3642578125-4.001953125.931640625-8.0205078125,1.69921875-12.056640625.767578125-4.0341796875,1.833984375-7.890625,3.197265625-11.5703125,1.36328125-3.6767578125,3.0537109375-7.09765625,5.068359375-10.2607421875,2.013671875-3.162109375,4.509765625-5.87890625,7.48828125-8.1484375,3.515625-2.634765625,7.48828125-4.1337890625,11.919921875-4.4921875,4.4296875-.359375,8.70703125.388671875,12.830078125,2.244140625ZM48.248046874998181,111.98876953125c5.041015625-.8125,10.0712890625-1.5234375,15.08984375-2.134765625,5.017578125-.607421875,10.072265625-1.0380859375,15.1591796875-1.2880859375-.2216796875-5.73828125-.8779296875-10.8330078125-1.9677734375-15.287109375-1.0908203125-4.4521484375-2.4072265625-8.17578125-3.9462890625-11.173828125-1.5400390625-2.9951171875-3.2626953125-5.2470703125-5.1689453125-6.7568359375-1.90625-1.505859375-3.78515625-2.185546875-5.638671875-2.03515625-1.611328125.1298828125-3.21484375,1.091796875-4.8134765625,2.8818359375-1.5986328125,1.79296875-3.0146484375,4.33984375-4.2451171875,7.6416015625-1.234375,3.3037109375-2.263671875,7.33984375-3.09375,12.109375-.830078125,4.7705078125-1.2890625,10.1181640625-1.375,16.04296875Z"/>
              <path class="cls-2" d="M238.291015624998181,82.84912109375c3.765625,2.4521484375,6.6796875,5.64453125,8.7421875,9.5693359375,2.060546875,3.927734375,2.9453125,8.0927734375,2.654296875,12.494140625-.3271484375,4.9736328125-1.92578125,9.2587890625-4.796875,12.85546875-2.87109375,3.59765625-6.36328125,6.5361328125-10.474609375,8.814453125-4.115234375,2.279296875-8.62109375,3.9423828125-13.5224609375,4.9873046875s-9.5458984375,1.5029296875-13.9365234375,1.3720703125c-.390625.1943359375-.744140625.3232421875-1.0625.3896484375-.3193359375.06640625-.677734375.15625-1.072265625.2705078125-1.443359375.197265625-2.935546875.318359375-4.470703125.3623046875-1.5380859375.04296875-2.94921875-.107421875-4.232421875-.44921875-1.28515625-.3388671875-2.4111328125-.9775390625-3.37890625-1.9140625-.96875-.9345703125-1.607421875-2.3212890625-1.91796875-4.1630859375-.234375-.87109375-.41796875-2.66015625-.5556640625-5.3671875-.1396484375-2.703125-.3251953125-5.9931640625-.556640625-9.8671875-.1591796875-3.9580078125-.365234375-8.2587890625-.6201171875-12.9013671875-.25390625-4.6416015625-.53125-9.30078125-.828125-13.9814453125-.416015625-6.1259765625-.833984375-12.294921875-1.255859375-18.5048828125-.423828125-6.208984375-1.169921875-12.4326171875-2.2421875-18.6708984375-.220703125-.7109375-.1923828125-1.361328125.0849609375-1.9521484375.1220703125-.49609375.4462890625-.98828125.9755859375-1.4775390625.5263671875-.48828125,1.34765625-.8583984375,2.462890625-1.1123046875.798828125-.1435546875,1.67578125-.337890625,2.62890625-.5771484375.9541015625-.2392578125,1.9501953125-.44140625,2.9912109375-.6083984375,1.0400390625-.1630859375,2.0478515625-.2451171875,3.0205078125-.244140625.974609375.00390625,1.83203125.09375,2.578125.2783203125,4.0615234375-.896484375,8.3681640625-1.2666015625,12.9228515625-1.107421875,4.5537109375.1591796875,8.8896484375.880859375,13.0068359375,2.16796875,4.119140625,1.2900390625,7.7548828125,3.1630859375,10.9150390625,5.6220703125,3.158203125,2.4619140625,5.3779296875,5.5849609375,6.6572265625,9.373046875.5400390625,1.6591796875.92578125,3.4140625,1.15625,5.2578125.23046875,1.84765625.1845703125,3.77734375-.138671875,5.7890625-.32421875,2.013671875-.9423828125,4.130859375-1.857421875,6.3525390625-.9140625,2.2236328125-2.20703125,4.5390625-3.876953125,6.9423828125ZM206.298828124998181,78.26513671875c3.87890625-.1494140625,7.109375-.818359375,9.689453125-2,2.5791015625-1.1826171875,4.470703125-2.6123046875,5.671875-4.2919921875,1.201171875-1.677734375,1.70703125-3.4404296875,1.517578125-5.291015625-.19140625-1.849609375-1.029296875-3.443359375-2.515625-4.783203125-1.48828125-1.337890625-3.6328125-2.2783203125-6.431640625-2.822265625-2.8017578125-.54296875-6.2744140625-.36328125-10.416015625.5390625.49609375,3.123046875.9287109375,6.208984375,1.296875,9.2607421875.369140625,3.052734375.763671875,6.181640625,1.1875,9.388671875ZM209.499999999998181,113.27587890625c4.388671875.1328125,8.037109375-.365234375,10.947265625-1.494140625,2.90625-1.126953125,5.0439453125-2.515625,6.412109375-4.16796875,1.365234375-1.650390625,1.99609375-3.3642578125,1.8935546875-5.140625-.1044921875-1.7734375-.9326171875-3.2470703125-2.4873046875-4.4189453125-1.552734375-1.1708984375-3.83984375-1.857421875-6.85546875-2.060546875-3.0166015625-.19921875-6.73828125.4052734375-11.1630859375,1.81640625l1.2529296875,15.4658203125Z"/>
            </g>
          </g>
        </a>
        <path class="cls-2" d="M157.098632812498181,104.4873046875c.1455078125-3.1884765625.216796875-6.1669921875.216796875-8.9365234375,0-2.7685546875-.3603515625-5.4111328125-1.0849609375-7.9287109375-.72265625-2.7412109375-1.845703125-4.978515625-3.365234375-6.7119140625-1.51953125-1.734375-3.23828125-3.0078125-5.15625-3.8173828125-1.916015625-.8115234375-3.908203125-1.1474609375-5.970703125-1.0068359375-2.0625.138671875-4.0517578125.6708984375-5.9697265625,1.59375-1.9169921875.9228515625-3.63671875,2.2236328125-5.15625,3.9013671875-1.51953125,1.6787109375-2.640625,3.7197265625-3.365234375,6.125-.7216796875,2.236328125-1.2294921875,4.82421875-1.51953125,7.76171875-.2880859375,2.9365234375-.4345703125,5.9150390625-.4345703125,8.935546875s.146484375,5.9423828125.4345703125,8.767578125c.2900390625,2.82421875.580078125,5.244140625.8681640625,7.2578125.216796875,1.4541015625-.361328125,2.62890625-1.736328125,3.5234375-1.3740234375.89453125-2.9853515625,1.439453125-4.830078125,1.63671875-1.845703125.1953125-3.654296875,0-5.427734375-.587890625-1.7734375-.5869140625-2.9482421875-1.6357421875-3.5283203125-3.146484375-1.0126953125-2.5732421875-1.75390625-5.341796875-2.2255859375-8.3056640625-.46875-2.9658203125-.740234375-5.9443359375-.814453125-8.935546875-.0703125-2.9931640625.0380859375-5.9296875.326171875-8.810546875.2900390625-2.880859375.689453125-5.5517578125,1.1943359375-8.0126953125.796875-3.30078125,2.0625-6.4892578125,3.7998046875-9.564453125,1.736328125-3.0771484375,3.9609375-5.7900390625,6.67578125-8.138671875,2.712890625-2.349609375,5.93359375-4.224609375,9.66015625-5.6220703125,3.728515625-1.3984375,7.943359375-2.041015625,12.646484375-1.9296875,2.9677734375.056640625,5.7529296875.447265625,8.3583984375,1.1748046875,2.6044921875.7265625,5.01171875,1.69140625,7.2177734375,2.89453125,2.208984375,1.2021484375,4.1796875,2.6142578125,5.916015625,4.2373046875,1.7373046875,1.62109375,3.220703125,3.3564453125,4.451171875,5.2021484375,2.244140625,3.4677734375,3.7822265625,7.3828125,4.61328125,11.74609375.8330078125,4.36328125,1.248046875,8.6552734375,1.248046875,12.87890625,0,4.22265625-.234375,8.1103515625-.705078125,11.6630859375-.470703125,3.5517578125-.9228515625,6.3056640625-1.357421875,8.2646484375-.14453125,1.0615234375-.6865234375,1.9423828125-1.6279296875,2.642578125-.939453125.69921875-2.0439453125,1.216796875-3.310546875,1.552734375-1.265625.3349609375-2.6220703125.5029296875-4.0712890625.5029296875-1.4462890625,0-2.767578125-.1826171875-3.9609375-.544921875-1.1953125-.365234375-2.171875-.9228515625-2.931640625-1.6787109375-.759765625-.7548828125-1.1025390625-1.6650390625-1.03125-2.7265625l1.9541015625-15.857421875Z"/>
      </g>
      <g>
        <a xlink:href="https://www.notion.so/congruence/B-Event-1f1a5b08a72c49f5ab60f2e0793fd0a8?pvs=4">
          <g>
            <g>
              <path class="cls-3" d="M73.154296874998181,54.63330078125c3.203125,1.5244140625,6,3.48828125,8.3828125,5.888671875,2.384765625,2.40234375,4.443359375,5.0732421875,6.1826171875,8.013671875s3.1884765625,6.0859375,4.3525390625,9.4365234375c1.1630859375,3.353515625,2.1279296875,6.7421875,2.892578125,10.1640625,1.681640625,6.7568359375,2.88671875,13.630859375,3.6171875,20.6259765625.7265625,6.99609375,1.1767578125,14.0556640625,1.349609375,21.1748046875.0009765625,2.0283203125-.025390625,3.693359375-.08203125,4.9931640625-.05859375,1.302734375-.275390625,2.3759765625-.65234375,3.21484375-.3779296875.8427734375-.9501953125,1.537109375-1.71484375,2.0859375-.7685546875.548828125-1.859375,1.08056640625-3.2763671875,1.60205078125-1.357421875.271484375-2.7783203125.5087890625-4.2607421875.7099609375-1.484375.2001953125-2.90625-.08984375-4.2666015625-.8701171875-1.2724609375-.70654296875-2.392578125-1.99560546875-3.3525390625-3.86279296875-.962890625-1.8681640625-1.6318359375-4.611328125-2.00390625-8.2294921875l-.09765625-1.208984375c-2.03515625-.078125-4.447265625-.0849609375-7.2392578125-.021484375-2.7919921875.0654296875-5.6396484375.1953125-8.5439453125.3876953125-2.90234375.1962890625-5.7041015625.4013671875-8.4013671875.6201171875-2.7001953125.21875-4.9755859375.40234375-6.8271484375.552734375-.021484375.732421875-.0244140625,1.9482421875-.0078125,3.6494140625.015625,1.701171875-.109375,3.4150390625-.375,5.138671875-.2666015625,1.724609375-.6875,3.29931640625-1.259765625,4.72412109375-.57421875,1.4248046875-1.4609375,2.2255859375-2.662109375,2.404296875-1.123046875.1708984375-2.404296875.3564453125-3.84765625.5546875-1.443359375.1962890625-2.8671875.150390625-4.267578125-.140625-1.396484375-.2099609375-2.59765625-.7626953125-3.6005859375-1.654296875-1.0048828125-.8916015625-1.6337890625-2.3798828125-1.8818359375-4.46826171875-.203125-2.49609375-.39453125-5.3603515625-.57421875-8.5888671875-.1826171875-3.2275390625-.3037109375-6.744140625-.369140625-10.55078125-.09375-3.1552734375-.1103515625-6.6201171875-.05078125-10.3955078125.05859375-3.775390625.26953125-7.6630859375.634765625-11.666015625.3642578125-4.001953125.931640625-8.0205078125,1.69921875-12.056640625.767578125-4.0341796875,1.833984375-7.890625,3.197265625-11.5703125,1.36328125-3.6767578125,3.0537109375-7.09765625,5.068359375-10.2607421875,2.013671875-3.162109375,4.509765625-5.87890625,7.48828125-8.1484375,3.515625-2.634765625,7.48828125-4.1337890625,11.919921875-4.4921875,4.4296875-.359375,8.70703125.388671875,12.830078125,2.244140625ZM48.248046874998181,111.98876953125c5.041015625-.8125,10.0712890625-1.5234375,15.08984375-2.134765625,5.017578125-.607421875,10.072265625-1.0380859375,15.1591796875-1.2880859375-.2216796875-5.73828125-.8779296875-10.8330078125-1.9677734375-15.287109375-1.0908203125-4.4521484375-2.4072265625-8.17578125-3.9462890625-11.173828125-1.5400390625-2.9951171875-3.2626953125-5.2470703125-5.1689453125-6.7568359375-1.90625-1.505859375-3.78515625-2.185546875-5.638671875-2.03515625-1.611328125.1298828125-3.21484375,1.091796875-4.8134765625,2.8818359375-1.5986328125,1.79296875-3.0146484375,4.33984375-4.2451171875,7.6416015625-1.234375,3.3037109375-2.263671875,7.33984375-3.09375,12.109375-.830078125,4.7705078125-1.2890625,10.1181640625-1.375,16.04296875Z"/>
              <path class="cls-3" d="M238.291015624998181,82.84912109375c3.765625,2.4521484375,6.6796875,5.64453125,8.7421875,9.5693359375,2.060546875,3.927734375,2.9453125,8.0927734375,2.654296875,12.494140625-.3271484375,4.9736328125-1.92578125,9.2587890625-4.796875,12.85546875-2.87109375,3.59765625-6.36328125,6.5361328125-10.474609375,8.814453125-4.115234375,2.279296875-8.62109375,3.9423828125-13.5224609375,4.9873046875s-9.5458984375,1.5029296875-13.9365234375,1.3720703125c-.390625.1943359375-.744140625.3232421875-1.0625.3896484375-.3193359375.06640625-.677734375.15625-1.072265625.2705078125-1.443359375.197265625-2.935546875.318359375-4.470703125.3623046875-1.5380859375.04296875-2.94921875-.107421875-4.232421875-.44921875-1.28515625-.3388671875-2.4111328125-.9775390625-3.37890625-1.9140625-.96875-.9345703125-1.607421875-2.3212890625-1.91796875-4.1630859375-.234375-.87109375-.41796875-2.66015625-.5556640625-5.3671875-.1396484375-2.703125-.3251953125-5.9931640625-.556640625-9.8671875-.1591796875-3.9580078125-.365234375-8.2587890625-.6201171875-12.9013671875-.25390625-4.6416015625-.53125-9.30078125-.828125-13.9814453125-.416015625-6.1259765625-.833984375-12.294921875-1.255859375-18.5048828125-.423828125-6.208984375-1.169921875-12.4326171875-2.2421875-18.6708984375-.220703125-.7109375-.1923828125-1.361328125.0849609375-1.9521484375.1220703125-.49609375.4462890625-.98828125.9755859375-1.4775390625.5263671875-.48828125,1.34765625-.8583984375,2.462890625-1.1123046875.798828125-.1435546875,1.67578125-.337890625,2.62890625-.5771484375.9541015625-.2392578125,1.9501953125-.44140625,2.9912109375-.6083984375,1.0400390625-.1630859375,2.0478515625-.2451171875,3.0205078125-.244140625.974609375.00390625,1.83203125.09375,2.578125.2783203125,4.0615234375-.896484375,8.3681640625-1.2666015625,12.9228515625-1.107421875,4.5537109375.1591796875,8.8896484375.880859375,13.0068359375,2.16796875,4.119140625,1.2900390625,7.7548828125,3.1630859375,10.9150390625,5.6220703125,3.158203125,2.4619140625,5.3779296875,5.5849609375,6.6572265625,9.373046875.5400390625,1.6591796875.92578125,3.4140625,1.15625,5.2578125.23046875,1.84765625.1845703125,3.77734375-.138671875,5.7890625-.32421875,2.013671875-.9423828125,4.130859375-1.857421875,6.3525390625-.9140625,2.2236328125-2.20703125,4.5390625-3.876953125,6.9423828125ZM206.298828124998181,78.26513671875c3.87890625-.1494140625,7.109375-.818359375,9.689453125-2,2.5791015625-1.1826171875,4.470703125-2.6123046875,5.671875-4.2919921875,1.201171875-1.677734375,1.70703125-3.4404296875,1.517578125-5.291015625-.19140625-1.849609375-1.029296875-3.443359375-2.515625-4.783203125-1.48828125-1.337890625-3.6328125-2.2783203125-6.431640625-2.822265625-2.8017578125-.54296875-6.2744140625-.36328125-10.416015625.5390625.49609375,3.123046875.9287109375,6.208984375,1.296875,9.2607421875.369140625,3.052734375.763671875,6.181640625,1.1875,9.388671875ZM209.499999999998181,113.27587890625c4.388671875.1328125,8.037109375-.365234375,10.947265625-1.494140625,2.90625-1.126953125,5.0439453125-2.515625,6.412109375-4.16796875,1.365234375-1.650390625,1.99609375-3.3642578125,1.8935546875-5.140625-.1044921875-1.7734375-.9326171875-3.2470703125-2.4873046875-4.4189453125-1.552734375-1.1708984375-3.83984375-1.857421875-6.85546875-2.060546875-3.0166015625-.19921875-6.73828125.4052734375-11.1630859375,1.81640625l1.2529296875,15.4658203125Z"/>
            </g>
            <g>
              <path class="cls-3" d="M73.154296874998181,54.63330078125c3.203125,1.5244140625,6,3.48828125,8.3828125,5.888671875,2.384765625,2.40234375,4.443359375,5.0732421875,6.1826171875,8.013671875s3.1884765625,6.0859375,4.3525390625,9.4365234375c1.1630859375,3.353515625,2.1279296875,6.7421875,2.892578125,10.1640625,1.681640625,6.7568359375,2.88671875,13.630859375,3.6171875,20.6259765625.7265625,6.99609375,1.1767578125,14.0556640625,1.349609375,21.1748046875.0009765625,2.0283203125-.025390625,3.693359375-.08203125,4.9931640625-.05859375,1.302734375-.275390625,2.3759765625-.65234375,3.21484375-.3779296875.8427734375-.9501953125,1.537109375-1.71484375,2.0859375-.7685546875.548828125-1.859375,1.08056640625-3.2763671875,1.60205078125-1.357421875.271484375-2.7783203125.5087890625-4.2607421875.7099609375-1.484375.2001953125-2.90625-.08984375-4.2666015625-.8701171875-1.2724609375-.70654296875-2.392578125-1.99560546875-3.3525390625-3.86279296875-.962890625-1.8681640625-1.6318359375-4.611328125-2.00390625-8.2294921875l-.09765625-1.208984375c-2.03515625-.078125-4.447265625-.0849609375-7.2392578125-.021484375-2.7919921875.0654296875-5.6396484375.1953125-8.5439453125.3876953125-2.90234375.1962890625-5.7041015625.4013671875-8.4013671875.6201171875-2.7001953125.21875-4.9755859375.40234375-6.8271484375.552734375-.021484375.732421875-.0244140625,1.9482421875-.0078125,3.6494140625.015625,1.701171875-.109375,3.4150390625-.375,5.138671875-.2666015625,1.724609375-.6875,3.29931640625-1.259765625,4.72412109375-.57421875,1.4248046875-1.4609375,2.2255859375-2.662109375,2.404296875-1.123046875.1708984375-2.404296875.3564453125-3.84765625.5546875-1.443359375.1962890625-2.8671875.150390625-4.267578125-.140625-1.396484375-.2099609375-2.59765625-.7626953125-3.6005859375-1.654296875-1.0048828125-.8916015625-1.6337890625-2.3798828125-1.8818359375-4.46826171875-.203125-2.49609375-.39453125-5.3603515625-.57421875-8.5888671875-.1826171875-3.2275390625-.3037109375-6.744140625-.369140625-10.55078125-.09375-3.1552734375-.1103515625-6.6201171875-.05078125-10.3955078125.05859375-3.775390625.26953125-7.6630859375.634765625-11.666015625.3642578125-4.001953125.931640625-8.0205078125,1.69921875-12.056640625.767578125-4.0341796875,1.833984375-7.890625,3.197265625-11.5703125,1.36328125-3.6767578125,3.0537109375-7.09765625,5.068359375-10.2607421875,2.013671875-3.162109375,4.509765625-5.87890625,7.48828125-8.1484375,3.515625-2.634765625,7.48828125-4.1337890625,11.919921875-4.4921875,4.4296875-.359375,8.70703125.388671875,12.830078125,2.244140625ZM48.248046874998181,111.98876953125c5.041015625-.8125,10.0712890625-1.5234375,15.08984375-2.134765625,5.017578125-.607421875,10.072265625-1.0380859375,15.1591796875-1.2880859375-.2216796875-5.73828125-.8779296875-10.8330078125-1.9677734375-15.287109375-1.0908203125-4.4521484375-2.4072265625-8.17578125-3.9462890625-11.173828125-1.5400390625-2.9951171875-3.2626953125-5.2470703125-5.1689453125-6.7568359375-1.90625-1.505859375-3.78515625-2.185546875-5.638671875-2.03515625-1.611328125.1298828125-3.21484375,1.091796875-4.8134765625,2.8818359375-1.5986328125,1.79296875-3.0146484375,4.33984375-4.2451171875,7.6416015625-1.234375,3.3037109375-2.263671875,7.33984375-3.09375,12.109375-.830078125,4.7705078125-1.2890625,10.1181640625-1.375,16.04296875Z"/>
              <path class="cls-3" d="M238.291015624998181,82.84912109375c3.765625,2.4521484375,6.6796875,5.64453125,8.7421875,9.5693359375,2.060546875,3.927734375,2.9453125,8.0927734375,2.654296875,12.494140625-.3271484375,4.9736328125-1.92578125,9.2587890625-4.796875,12.85546875-2.87109375,3.59765625-6.36328125,6.5361328125-10.474609375,8.814453125-4.115234375,2.279296875-8.62109375,3.9423828125-13.5224609375,4.9873046875s-9.5458984375,1.5029296875-13.9365234375,1.3720703125c-.390625.1943359375-.744140625.3232421875-1.0625.3896484375-.3193359375.06640625-.677734375.15625-1.072265625.2705078125-1.443359375.197265625-2.935546875.318359375-4.470703125.3623046875-1.5380859375.04296875-2.94921875-.107421875-4.232421875-.44921875-1.28515625-.3388671875-2.4111328125-.9775390625-3.37890625-1.9140625-.96875-.9345703125-1.607421875-2.3212890625-1.91796875-4.1630859375-.234375-.87109375-.41796875-2.66015625-.5556640625-5.3671875-.1396484375-2.703125-.3251953125-5.9931640625-.556640625-9.8671875-.1591796875-3.9580078125-.365234375-8.2587890625-.6201171875-12.9013671875-.25390625-4.6416015625-.53125-9.30078125-.828125-13.9814453125-.416015625-6.1259765625-.833984375-12.294921875-1.255859375-18.5048828125-.423828125-6.208984375-1.169921875-12.4326171875-2.2421875-18.6708984375-.220703125-.7109375-.1923828125-1.361328125.0849609375-1.9521484375.1220703125-.49609375.4462890625-.98828125.9755859375-1.4775390625.5263671875-.48828125,1.34765625-.8583984375,2.462890625-1.1123046875.798828125-.1435546875,1.67578125-.337890625,2.62890625-.5771484375.9541015625-.2392578125,1.9501953125-.44140625,2.9912109375-.6083984375,1.0400390625-.1630859375,2.0478515625-.2451171875,3.0205078125-.244140625.974609375.00390625,1.83203125.09375,2.578125.2783203125,4.0615234375-.896484375,8.3681640625-1.2666015625,12.9228515625-1.107421875,4.5537109375.1591796875,8.8896484375.880859375,13.0068359375,2.16796875,4.119140625,1.2900390625,7.7548828125,3.1630859375,10.9150390625,5.6220703125,3.158203125,2.4619140625,5.3779296875,5.5849609375,6.6572265625,9.373046875.5400390625,1.6591796875.92578125,3.4140625,1.15625,5.2578125.23046875,1.84765625.1845703125,3.77734375-.138671875,5.7890625-.32421875,2.013671875-.9423828125,4.130859375-1.857421875,6.3525390625-.9140625,2.2236328125-2.20703125,4.5390625-3.876953125,6.9423828125ZM206.298828124998181,78.26513671875c3.87890625-.1494140625,7.109375-.818359375,9.689453125-2,2.5791015625-1.1826171875,4.470703125-2.6123046875,5.671875-4.2919921875,1.201171875-1.677734375,1.70703125-3.4404296875,1.517578125-5.291015625-.19140625-1.849609375-1.029296875-3.443359375-2.515625-4.783203125-1.48828125-1.337890625-3.6328125-2.2783203125-6.431640625-2.822265625-2.8017578125-.54296875-6.2744140625-.36328125-10.416015625.5390625.49609375,3.123046875.9287109375,6.208984375,1.296875,9.2607421875.369140625,3.052734375.763671875,6.181640625,1.1875,9.388671875ZM209.499999999998181,113.27587890625c4.388671875.1328125,8.037109375-.365234375,10.947265625-1.494140625,2.90625-1.126953125,5.0439453125-2.515625,6.412109375-4.16796875,1.365234375-1.650390625,1.99609375-3.3642578125,1.8935546875-5.140625-.1044921875-1.7734375-.9326171875-3.2470703125-2.4873046875-4.4189453125-1.552734375-1.1708984375-3.83984375-1.857421875-6.85546875-2.060546875-3.0166015625-.19921875-6.73828125.4052734375-11.1630859375,1.81640625l1.2529296875,15.4658203125Z"/>
            </g>
            <g>
              <path class="cls-3" d="M73.154296874998181,54.63330078125c3.203125,1.5244140625,6,3.48828125,8.3828125,5.888671875,2.384765625,2.40234375,4.443359375,5.0732421875,6.1826171875,8.013671875s3.1884765625,6.0859375,4.3525390625,9.4365234375c1.1630859375,3.353515625,2.1279296875,6.7421875,2.892578125,10.1640625,1.681640625,6.7568359375,2.88671875,13.630859375,3.6171875,20.6259765625.7265625,6.99609375,1.1767578125,14.0556640625,1.349609375,21.1748046875.0009765625,2.0283203125-.025390625,3.693359375-.08203125,4.9931640625-.05859375,1.302734375-.275390625,2.3759765625-.65234375,3.21484375-.3779296875.8427734375-.9501953125,1.537109375-1.71484375,2.0859375-.7685546875.548828125-1.859375,1.08056640625-3.2763671875,1.60205078125-1.357421875.271484375-2.7783203125.5087890625-4.2607421875.7099609375-1.484375.2001953125-2.90625-.08984375-4.2666015625-.8701171875-1.2724609375-.70654296875-2.392578125-1.99560546875-3.3525390625-3.86279296875-.962890625-1.8681640625-1.6318359375-4.611328125-2.00390625-8.2294921875l-.09765625-1.208984375c-2.03515625-.078125-4.447265625-.0849609375-7.2392578125-.021484375-2.7919921875.0654296875-5.6396484375.1953125-8.5439453125.3876953125-2.90234375.1962890625-5.7041015625.4013671875-8.4013671875.6201171875-2.7001953125.21875-4.9755859375.40234375-6.8271484375.552734375-.021484375.732421875-.0244140625,1.9482421875-.0078125,3.6494140625.015625,1.701171875-.109375,3.4150390625-.375,5.138671875-.2666015625,1.724609375-.6875,3.29931640625-1.259765625,4.72412109375-.57421875,1.4248046875-1.4609375,2.2255859375-2.662109375,2.404296875-1.123046875.1708984375-2.404296875.3564453125-3.84765625.5546875-1.443359375.1962890625-2.8671875.150390625-4.267578125-.140625-1.396484375-.2099609375-2.59765625-.7626953125-3.6005859375-1.654296875-1.0048828125-.8916015625-1.6337890625-2.3798828125-1.8818359375-4.46826171875-.203125-2.49609375-.39453125-5.3603515625-.57421875-8.5888671875-.1826171875-3.2275390625-.3037109375-6.744140625-.369140625-10.55078125-.09375-3.1552734375-.1103515625-6.6201171875-.05078125-10.3955078125.05859375-3.775390625.26953125-7.6630859375.634765625-11.666015625.3642578125-4.001953125.931640625-8.0205078125,1.69921875-12.056640625.767578125-4.0341796875,1.833984375-7.890625,3.197265625-11.5703125,1.36328125-3.6767578125,3.0537109375-7.09765625,5.068359375-10.2607421875,2.013671875-3.162109375,4.509765625-5.87890625,7.48828125-8.1484375,3.515625-2.634765625,7.48828125-4.1337890625,11.919921875-4.4921875,4.4296875-.359375,8.70703125.388671875,12.830078125,2.244140625ZM48.248046874998181,111.98876953125c5.041015625-.8125,10.0712890625-1.5234375,15.08984375-2.134765625,5.017578125-.607421875,10.072265625-1.0380859375,15.1591796875-1.2880859375-.2216796875-5.73828125-.8779296875-10.8330078125-1.9677734375-15.287109375-1.0908203125-4.4521484375-2.4072265625-8.17578125-3.9462890625-11.173828125-1.5400390625-2.9951171875-3.2626953125-5.2470703125-5.1689453125-6.7568359375-1.90625-1.505859375-3.78515625-2.185546875-5.638671875-2.03515625-1.611328125.1298828125-3.21484375,1.091796875-4.8134765625,2.8818359375-1.5986328125,1.79296875-3.0146484375,4.33984375-4.2451171875,7.6416015625-1.234375,3.3037109375-2.263671875,7.33984375-3.09375,12.109375-.830078125,4.7705078125-1.2890625,10.1181640625-1.375,16.04296875Z"/>
              <path class="cls-3" d="M238.291015624998181,82.84912109375c3.765625,2.4521484375,6.6796875,5.64453125,8.7421875,9.5693359375,2.060546875,3.927734375,2.9453125,8.0927734375,2.654296875,12.494140625-.3271484375,4.9736328125-1.92578125,9.2587890625-4.796875,12.85546875-2.87109375,3.59765625-6.36328125,6.5361328125-10.474609375,8.814453125-4.115234375,2.279296875-8.62109375,3.9423828125-13.5224609375,4.9873046875s-9.5458984375,1.5029296875-13.9365234375,1.3720703125c-.390625.1943359375-.744140625.3232421875-1.0625.3896484375-.3193359375.06640625-.677734375.15625-1.072265625.2705078125-1.443359375.197265625-2.935546875.318359375-4.470703125.3623046875-1.5380859375.04296875-2.94921875-.107421875-4.232421875-.44921875-1.28515625-.3388671875-2.4111328125-.9775390625-3.37890625-1.9140625-.96875-.9345703125-1.607421875-2.3212890625-1.91796875-4.1630859375-.234375-.87109375-.41796875-2.66015625-.5556640625-5.3671875-.1396484375-2.703125-.3251953125-5.9931640625-.556640625-9.8671875-.1591796875-3.9580078125-.365234375-8.2587890625-.6201171875-12.9013671875-.25390625-4.6416015625-.53125-9.30078125-.828125-13.9814453125-.416015625-6.1259765625-.833984375-12.294921875-1.255859375-18.5048828125-.423828125-6.208984375-1.169921875-12.4326171875-2.2421875-18.6708984375-.220703125-.7109375-.1923828125-1.361328125.0849609375-1.9521484375.1220703125-.49609375.4462890625-.98828125.9755859375-1.4775390625.5263671875-.48828125,1.34765625-.8583984375,2.462890625-1.1123046875.798828125-.1435546875,1.67578125-.337890625,2.62890625-.5771484375.9541015625-.2392578125,1.9501953125-.44140625,2.9912109375-.6083984375,1.0400390625-.1630859375,2.0478515625-.2451171875,3.0205078125-.244140625.974609375.00390625,1.83203125.09375,2.578125.2783203125,4.0615234375-.896484375,8.3681640625-1.2666015625,12.9228515625-1.107421875,4.5537109375.1591796875,8.8896484375.880859375,13.0068359375,2.16796875,4.119140625,1.2900390625,7.7548828125,3.1630859375,10.9150390625,5.6220703125,3.158203125,2.4619140625,5.3779296875,5.5849609375,6.6572265625,9.373046875.5400390625,1.6591796875.92578125,3.4140625,1.15625,5.2578125.23046875,1.84765625.1845703125,3.77734375-.138671875,5.7890625-.32421875,2.013671875-.9423828125,4.130859375-1.857421875,6.3525390625-.9140625,2.2236328125-2.20703125,4.5390625-3.876953125,6.9423828125ZM206.298828124998181,78.26513671875c3.87890625-.1494140625,7.109375-.818359375,9.689453125-2,2.5791015625-1.1826171875,4.470703125-2.6123046875,5.671875-4.2919921875,1.201171875-1.677734375,1.70703125-3.4404296875,1.517578125-5.291015625-.19140625-1.849609375-1.029296875-3.443359375-2.515625-4.783203125-1.48828125-1.337890625-3.6328125-2.2783203125-6.431640625-2.822265625-2.8017578125-.54296875-6.2744140625-.36328125-10.416015625.5390625.49609375,3.123046875.9287109375,6.208984375,1.296875,9.2607421875.369140625,3.052734375.763671875,6.181640625,1.1875,9.388671875ZM209.499999999998181,113.27587890625c4.388671875.1328125,8.037109375-.365234375,10.947265625-1.494140625,2.90625-1.126953125,5.0439453125-2.515625,6.412109375-4.16796875,1.365234375-1.650390625,1.99609375-3.3642578125,1.8935546875-5.140625-.1044921875-1.7734375-.9326171875-3.2470703125-2.4873046875-4.4189453125-1.552734375-1.1708984375-3.83984375-1.857421875-6.85546875-2.060546875-3.0166015625-.19921875-6.73828125.4052734375-11.1630859375,1.81640625l1.2529296875,15.4658203125Z"/>
            </g>
          </g>
        </a>
        <path class="cls-3" d="M157.098632812498181,104.4873046875c.1455078125-3.1884765625.216796875-6.1669921875.216796875-8.9365234375,0-2.7685546875-.3603515625-5.4111328125-1.0849609375-7.9287109375-.72265625-2.7412109375-1.845703125-4.978515625-3.365234375-6.7119140625-1.51953125-1.734375-3.23828125-3.0078125-5.15625-3.8173828125-1.916015625-.8115234375-3.908203125-1.1474609375-5.970703125-1.0068359375-2.0625.138671875-4.0517578125.6708984375-5.9697265625,1.59375-1.9169921875.9228515625-3.63671875,2.2236328125-5.15625,3.9013671875-1.51953125,1.6787109375-2.640625,3.7197265625-3.365234375,6.125-.7216796875,2.236328125-1.2294921875,4.82421875-1.51953125,7.76171875-.2880859375,2.9365234375-.4345703125,5.9150390625-.4345703125,8.935546875s.146484375,5.9423828125.4345703125,8.767578125c.2900390625,2.82421875.580078125,5.244140625.8681640625,7.2578125.216796875,1.4541015625-.361328125,2.62890625-1.736328125,3.5234375-1.3740234375.89453125-2.9853515625,1.439453125-4.830078125,1.63671875-1.845703125.1953125-3.654296875,0-5.427734375-.587890625-1.7734375-.5869140625-2.9482421875-1.6357421875-3.5283203125-3.146484375-1.0126953125-2.5732421875-1.75390625-5.341796875-2.2255859375-8.3056640625-.46875-2.9658203125-.740234375-5.9443359375-.814453125-8.935546875-.0703125-2.9931640625.0380859375-5.9296875.326171875-8.810546875.2900390625-2.880859375.689453125-5.5517578125,1.1943359375-8.0126953125.796875-3.30078125,2.0625-6.4892578125,3.7998046875-9.564453125,1.736328125-3.0771484375,3.9609375-5.7900390625,6.67578125-8.138671875,2.712890625-2.349609375,5.93359375-4.224609375,9.66015625-5.6220703125,3.728515625-1.3984375,7.943359375-2.041015625,12.646484375-1.9296875,2.9677734375.056640625,5.7529296875.447265625,8.3583984375,1.1748046875,2.6044921875.7265625,5.01171875,1.69140625,7.2177734375,2.89453125,2.208984375,1.2021484375,4.1796875,2.6142578125,5.916015625,4.2373046875,1.7373046875,1.62109375,3.220703125,3.3564453125,4.451171875,5.2021484375,2.244140625,3.4677734375,3.7822265625,7.3828125,4.61328125,11.74609375.8330078125,4.36328125,1.248046875,8.6552734375,1.248046875,12.87890625,0,4.22265625-.234375,8.1103515625-.705078125,11.6630859375-.470703125,3.5517578125-.9228515625,6.3056640625-1.357421875,8.2646484375-.14453125,1.0615234375-.6865234375,1.9423828125-1.6279296875,2.642578125-.939453125.69921875-2.0439453125,1.216796875-3.310546875,1.552734375-1.265625.3349609375-2.6220703125.5029296875-4.0712890625.5029296875-1.4462890625,0-2.767578125-.1826171875-3.9609375-.544921875-1.1953125-.365234375-2.171875-.9228515625-2.931640625-1.6787109375-.759765625-.7548828125-1.1025390625-1.6650390625-1.03125-2.7265625l1.9541015625-15.857421875Z"/>
      </g>
    </g>
  </a>
</svg>