<?xml version="1.0" encoding="UTF-8"?>
<svg xmlns="http://www.w3.org/2000/svg" xmlns:xlink="http://www.w3.org/1999/xlink" viewBox="0 0 280 280">
  <defs>
    <style>
      .cls-1 {
        stroke: #665451;
        stroke-width: 50px;
      }

      .cls-1, .cls-2 {
        fill: none;
        stroke-linecap: round;
        stroke-linejoin: round;
      }

      .cls-3 {
        fill: #fff;
      }

      .cls-4 {
        fill: #e11f26;
      }

      .cls-5 {
        fill: #ec1940;
      }

      .cls-2 {
        stroke: #998675;
        stroke-width: 2px;
      }
    </style>
  </defs>
  <g id="Content">
    <a xlink:href="https://www.notion.so/congruence/Intersection-of-A-B-d71da5b7b3d34d8e903f0e2f24a07f7b?pvs=4">
      <g>
        <a xlink:href="https://www.notion.so/congruence/B-Event-1f1a5b08a72c49f5ab60f2e0793fd0a8?pvs=4">
          <g>
            <path class="cls-3" d="M73.17626953125,54.6708984375c3.2041015625,1.5244140625,5.99951171875,3.4873046875,8.3828125,5.8876953125,2.38427734375,2.404296875,4.44384765625,5.07421875,6.18310546875,8.013671875,1.73828125,2.94140625,3.1884765625,6.0869140625,4.3525390625,9.4365234375,1.1630859375,3.3544921875,2.126953125,6.7421875,2.8916015625,10.166015625,1.68212890625,6.755859375,2.88623046875,13.6298828125,3.61669921875,20.6259765625.728515625,6.994140625,1.177734375,14.0546875,1.35009765625,21.1748046875.00146484375,2.0263671875-.02490234375,3.6923828125-.08154296875,4.9921875-.05810546875,1.302734375-.27490234375,2.375-.65185546875,3.2158203125-.37841796875.841796875-.951171875,1.537109375-1.71630859375,2.083984375-.76708984375.5498046875-1.85791015625,1.08203125-3.275390625,1.6044921875-1.35791015625.2705078125-2.77783203125.5078125-4.26025390625.7099609375-1.48486328125.1982421875-2.90771484375-.08984375-4.2666015625-.8701171875-1.2734375-.7080078125-2.392578125-1.9970703125-3.353515625-3.865234375-.96240234375-1.8671875-1.63134765625-4.6103515625-2.00390625-8.2294921875l-.09814453125-1.208984375c-2.0341796875-.0771484375-4.44580078125-.083984375-7.23828125-.01953125-2.79296875.0634765625-5.64013671875.193359375-8.54296875.3876953125-2.9033203125.1953125-5.705078125.400390625-8.40234375.619140625-2.7001953125.21875-4.97509765625.4033203125-6.82763671875.5537109375-.02197265625.73046875-.0244140625,1.947265625-.0078125,3.6494140625.01611328125,1.701171875-.109375,3.4130859375-.37451171875,5.138671875-.26708984375,1.7236328125-.68701171875,3.298828125-1.25927734375,4.72265625-.57421875,1.4267578125-1.4619140625,2.2255859375-2.6630859375,2.40625-1.123046875.169921875-2.404296875.3544921875-3.8466796875.5537109375-1.4443359375.197265625-2.86767578125.150390625-4.2685546875-.140625-1.396484375-.208984375-2.59716796875-.7626953125-3.6005859375-1.654296875-1.00537109375-.8916015625-1.63330078125-2.3798828125-1.88232421875-4.46875-.2021484375-2.49609375-.39453125-5.359375-.57421875-8.58984375-.181640625-3.2265625-.30322265625-6.7431640625-.3681640625-10.5498046875-.09423828125-3.1552734375-.11083984375-6.6201171875-.0517578125-10.3955078125.05908203125-3.7744140625.2705078125-7.662109375.6357421875-11.666015625.3642578125-4.001953125.931640625-8.021484375,1.69921875-12.056640625.767578125-4.0341796875,1.83349609375-7.8916015625,3.19775390625-11.5712890625,1.36279296875-3.6767578125,3.052734375-7.09765625,5.06787109375-10.2607421875,2.01318359375-3.162109375,4.509765625-5.8779296875,7.48876953125-8.1474609375,3.51416015625-2.6357421875,7.48779296875-4.1337890625,11.9189453125-4.4931640625,4.4296875-.3583984375,8.70751953125.388671875,12.83056640625,2.2451171875ZM48.26953125,112.0263671875c5.04150390625-.8134765625,10.07177734375-1.5244140625,15.0908203125-2.134765625,5.01708984375-.607421875,10.0712890625-1.0390625,15.158203125-1.2880859375-.22119140625-5.7392578125-.87744140625-10.833984375-1.96728515625-15.287109375-1.09033203125-4.451171875-2.40771484375-8.1767578125-3.94677734375-11.173828125-1.53955078125-2.99609375-3.26318359375-5.248046875-5.16845703125-6.7568359375-1.90625-1.5068359375-3.78564453125-2.185546875-5.63818359375-2.0361328125-1.61181640625.130859375-3.21630859375,1.0927734375-4.81396484375,2.8828125-1.5986328125,1.79296875-3.01416015625,4.33984375-4.24560546875,7.640625-1.2333984375,3.3056640625-2.263671875,7.3408203125-3.0927734375,12.1103515625-.83056640625,4.76953125-1.2900390625,10.1181640625-1.3759765625,16.04296875Z"/>
            <path class="cls-3" d="M238.31396484375,82.8876953125c3.76611328125,2.451171875,6.67919921875,5.642578125,8.74169921875,9.5673828125,2.060546875,3.9296875,2.9453125,8.0927734375,2.654296875,12.49609375-.3271484375,4.9716796875-1.92529296875,9.2578125-4.79638671875,12.853515625-2.87060546875,3.5986328125-6.36279296875,6.5361328125-10.4755859375,8.8154296875-4.11376953125,2.2783203125-8.61962890625,3.9423828125-13.521484375,4.98828125-4.90185546875,1.044921875-9.546875,1.501953125-13.93603515625,1.3720703125-.3916015625.1923828125-.74560546875.3212890625-1.0634765625.3896484375-.3193359375.06640625-.6767578125.15625-1.07275390625.2685546875-1.443359375.197265625-2.93505859375.318359375-4.470703125.3623046875-1.537109375.0439453125-2.9482421875-.1064453125-4.23193359375-.447265625-1.28515625-.3388671875-2.4111328125-.978515625-3.3779296875-1.916015625-.96923828125-.93359375-1.60791015625-2.3212890625-1.9189453125-4.1611328125-.234375-.8720703125-.41845703125-2.66015625-.55615234375-5.3671875-.13916015625-2.7041015625-.32421875-5.994140625-.55615234375-9.8671875-.15966796875-3.9599609375-.365234375-8.259765625-.61962890625-12.90234375-.25390625-4.640625-.53125-9.3017578125-.82861328125-13.98046875-.41650390625-6.1279296875-.833984375-12.296875-1.25634765625-18.505859375-.42333984375-6.208984375-1.17041015625-12.4326171875-2.24169921875-18.669921875-.2216796875-.712890625-.1923828125-1.36328125.08447265625-1.953125.12158203125-.4970703125.44677734375-.9892578125.97509765625-1.478515625.52685546875-.4873046875,1.3486328125-.857421875,2.4638671875-1.111328125.79833984375-.14453125,1.67578125-.3369140625,2.62890625-.578125.9541015625-.23828125,1.9501953125-.4404296875,2.99169921875-.607421875,1.03955078125-.1630859375,2.0478515625-.2451171875,3.02099609375-.2451171875.97265625.00390625,1.83154296875.0947265625,2.57666015625.279296875,4.0625-.8955078125,8.36865234375-1.2666015625,12.92333984375-1.1083984375,4.55322265625.1591796875,8.88916015625.8818359375,13.0068359375,2.1689453125,4.11865234375,1.2900390625,7.7548828125,3.1630859375,10.91552734375,5.6220703125,3.158203125,2.4619140625,5.3779296875,5.5849609375,6.65771484375,9.3720703125.5390625,1.66015625.9248046875,3.4140625,1.15576171875,5.2587890625.2294921875,1.84765625.1845703125,3.7763671875-.1396484375,5.7880859375-.32275390625,2.0146484375-.94140625,4.1328125-1.8564453125,6.3544921875-.9140625,2.2216796875-2.20751953125,4.537109375-3.876953125,6.9423828125ZM206.32080078125,78.302734375c3.8798828125-.150390625,7.109375-.818359375,9.689453125-2.0009765625,2.57958984375-1.181640625,4.470703125-2.6123046875,5.67236328125-4.291015625,1.2021484375-1.6767578125,1.70751953125-3.44140625,1.517578125-5.2919921875-.19189453125-1.84765625-1.02978515625-3.443359375-2.51611328125-4.7822265625-1.48779296875-1.337890625-3.6318359375-2.2783203125-6.431640625-2.8232421875-2.80078125-.54296875-6.27392578125-.3623046875-10.41552734375.5390625.49609375,3.123046875.9287109375,6.208984375,1.29736328125,9.2607421875.36962890625,3.052734375.763671875,6.181640625,1.1865234375,9.3896484375ZM209.52197265625,113.314453125c4.38916015625.130859375,8.037109375-.3662109375,10.94677734375-1.494140625,2.9072265625-1.126953125,5.044921875-2.5166015625,6.412109375-4.169921875,1.36572265625-1.6494140625,1.99658203125-3.36328125,1.89453125-5.138671875-.103515625-1.7734375-.93212890625-3.248046875-2.486328125-4.4208984375-1.55419921875-1.169921875-3.8408203125-1.857421875-6.85595703125-2.05859375-3.01708984375-.201171875-6.73876953125.404296875-11.1640625,1.81640625l1.2529296875,15.4658203125Z"/>
          </g>
        </a>
        <g>
          <a xlink:href="https://www.notion.so/congruence/B-Event-1f1a5b08a72c49f5ab60f2e0793fd0a8?pvs=4">
            <g>
              <g>
                <path class="cls-1" d="M73.17626953125,54.6708984375c3.2041015625,1.5244140625,5.99951171875,3.4873046875,8.3828125,5.8876953125,2.38427734375,2.404296875,4.44384765625,5.07421875,6.18310546875,8.013671875,1.73828125,2.94140625,3.1884765625,6.0869140625,4.3525390625,9.4365234375,1.1630859375,3.3544921875,2.126953125,6.7421875,2.8916015625,10.166015625,1.68212890625,6.755859375,2.88623046875,13.6298828125,3.61669921875,20.6259765625.728515625,6.994140625,1.177734375,14.0546875,1.35009765625,21.1748046875.00146484375,2.0263671875-.02490234375,3.6923828125-.08154296875,4.9921875-.05810546875,1.302734375-.27490234375,2.375-.65185546875,3.2158203125-.37841796875.841796875-.951171875,1.537109375-1.71630859375,2.083984375-.76708984375.5498046875-1.85791015625,1.08203125-3.275390625,1.6044921875-1.35791015625.2705078125-2.77783203125.5078125-4.26025390625.7099609375-1.48486328125.1982421875-2.90771484375-.08984375-4.2666015625-.8701171875-1.2734375-.7080078125-2.392578125-1.9970703125-3.353515625-3.865234375-.96240234375-1.8671875-1.63134765625-4.6103515625-2.00390625-8.2294921875l-.09814453125-1.208984375c-2.0341796875-.0771484375-4.44580078125-.083984375-7.23828125-.01953125-2.79296875.0634765625-5.64013671875.193359375-8.54296875.3876953125-2.9033203125.1953125-5.705078125.400390625-8.40234375.619140625-2.7001953125.21875-4.97509765625.4033203125-6.82763671875.5537109375-.02197265625.73046875-.0244140625,1.947265625-.0078125,3.6494140625.01611328125,1.701171875-.109375,3.4130859375-.37451171875,5.138671875-.26708984375,1.7236328125-.68701171875,3.298828125-1.25927734375,4.72265625-.57421875,1.4267578125-1.4619140625,2.2255859375-2.6630859375,2.40625-1.123046875.169921875-2.404296875.3544921875-3.8466796875.5537109375-1.4443359375.197265625-2.86767578125.150390625-4.2685546875-.140625-1.396484375-.208984375-2.59716796875-.7626953125-3.6005859375-1.654296875-1.00537109375-.8916015625-1.63330078125-2.3798828125-1.88232421875-4.46875-.2021484375-2.49609375-.39453125-5.359375-.57421875-8.58984375-.181640625-3.2265625-.30322265625-6.7431640625-.3681640625-10.5498046875-.09423828125-3.1552734375-.11083984375-6.6201171875-.0517578125-10.3955078125.05908203125-3.7744140625.2705078125-7.662109375.6357421875-11.666015625.3642578125-4.001953125.931640625-8.021484375,1.69921875-12.056640625.767578125-4.0341796875,1.83349609375-7.8916015625,3.19775390625-11.5712890625,1.36279296875-3.6767578125,3.052734375-7.09765625,5.06787109375-10.2607421875,2.01318359375-3.162109375,4.509765625-5.8779296875,7.48876953125-8.1474609375,3.51416015625-2.6357421875,7.48779296875-4.1337890625,11.9189453125-4.4931640625,4.4296875-.3583984375,8.70751953125.388671875,12.83056640625,2.2451171875ZM48.26953125,112.0263671875c5.04150390625-.8134765625,10.07177734375-1.5244140625,15.0908203125-2.134765625,5.01708984375-.607421875,10.0712890625-1.0390625,15.158203125-1.2880859375-.22119140625-5.7392578125-.87744140625-10.833984375-1.96728515625-15.287109375-1.09033203125-4.451171875-2.40771484375-8.1767578125-3.94677734375-11.173828125-1.53955078125-2.99609375-3.26318359375-5.248046875-5.16845703125-6.7568359375-1.90625-1.5068359375-3.78564453125-2.185546875-5.63818359375-2.0361328125-1.61181640625.130859375-3.21630859375,1.0927734375-4.81396484375,2.8828125-1.5986328125,1.79296875-3.01416015625,4.33984375-4.24560546875,7.640625-1.2333984375,3.3056640625-2.263671875,7.3408203125-3.0927734375,12.1103515625-.83056640625,4.76953125-1.2900390625,10.1181640625-1.3759765625,16.04296875Z"/>
                <path class="cls-1" d="M238.31396484375,82.8876953125c3.76611328125,2.451171875,6.67919921875,5.642578125,8.74169921875,9.5673828125,2.060546875,3.9296875,2.9453125,8.0927734375,2.654296875,12.49609375-.3271484375,4.9716796875-1.92529296875,9.2578125-4.79638671875,12.853515625-2.87060546875,3.5986328125-6.36279296875,6.5361328125-10.4755859375,8.8154296875-4.11376953125,2.2783203125-8.61962890625,3.9423828125-13.521484375,4.98828125-4.90185546875,1.044921875-9.546875,1.501953125-13.93603515625,1.3720703125-.3916015625.1923828125-.74560546875.3212890625-1.0634765625.3896484375-.3193359375.06640625-.6767578125.15625-1.07275390625.2685546875-1.443359375.197265625-2.93505859375.318359375-4.470703125.3623046875-1.537109375.0439453125-2.9482421875-.1064453125-4.23193359375-.447265625-1.28515625-.3388671875-2.4111328125-.978515625-3.3779296875-1.916015625-.96923828125-.93359375-1.60791015625-2.3212890625-1.9189453125-4.1611328125-.234375-.8720703125-.41845703125-2.66015625-.55615234375-5.3671875-.13916015625-2.7041015625-.32421875-5.994140625-.55615234375-9.8671875-.15966796875-3.9599609375-.365234375-8.259765625-.61962890625-12.90234375-.25390625-4.640625-.53125-9.3017578125-.82861328125-13.98046875-.41650390625-6.1279296875-.833984375-12.296875-1.25634765625-18.505859375-.42333984375-6.208984375-1.17041015625-12.4326171875-2.24169921875-18.669921875-.2216796875-.712890625-.1923828125-1.36328125.08447265625-1.953125.12158203125-.4970703125.44677734375-.9892578125.97509765625-1.478515625.52685546875-.4873046875,1.3486328125-.857421875,2.4638671875-1.111328125.79833984375-.14453125,1.67578125-.3369140625,2.62890625-.578125.9541015625-.23828125,1.9501953125-.4404296875,2.99169921875-.607421875,1.03955078125-.1630859375,2.0478515625-.2451171875,3.02099609375-.2451171875.97265625.00390625,1.83154296875.0947265625,2.57666015625.279296875,4.0625-.8955078125,8.36865234375-1.2666015625,12.92333984375-1.1083984375,4.55322265625.1591796875,8.88916015625.8818359375,13.0068359375,2.1689453125,4.11865234375,1.2900390625,7.7548828125,3.1630859375,10.91552734375,5.6220703125,3.158203125,2.4619140625,5.3779296875,5.5849609375,6.65771484375,9.3720703125.5390625,1.66015625.9248046875,3.4140625,1.15576171875,5.2587890625.2294921875,1.84765625.1845703125,3.7763671875-.1396484375,5.7880859375-.32275390625,2.0146484375-.94140625,4.1328125-1.8564453125,6.3544921875-.9140625,2.2216796875-2.20751953125,4.537109375-3.876953125,6.9423828125ZM206.32080078125,78.302734375c3.8798828125-.150390625,7.109375-.818359375,9.689453125-2.0009765625,2.57958984375-1.181640625,4.470703125-2.6123046875,5.67236328125-4.291015625,1.2021484375-1.6767578125,1.70751953125-3.44140625,1.517578125-5.2919921875-.19189453125-1.84765625-1.02978515625-3.443359375-2.51611328125-4.7822265625-1.48779296875-1.337890625-3.6318359375-2.2783203125-6.431640625-2.8232421875-2.80078125-.54296875-6.27392578125-.3623046875-10.41552734375.5390625.49609375,3.123046875.9287109375,6.208984375,1.29736328125,9.2607421875.36962890625,3.052734375.763671875,6.181640625,1.1865234375,9.3896484375ZM209.52197265625,113.314453125c4.38916015625.130859375,8.037109375-.3662109375,10.94677734375-1.494140625,2.9072265625-1.126953125,5.044921875-2.5166015625,6.412109375-4.169921875,1.36572265625-1.6494140625,1.99658203125-3.36328125,1.89453125-5.138671875-.103515625-1.7734375-.93212890625-3.248046875-2.486328125-4.4208984375-1.55419921875-1.169921875-3.8408203125-1.857421875-6.85595703125-2.05859375-3.01708984375-.201171875-6.73876953125.404296875-11.1640625,1.81640625l1.2529296875,15.4658203125Z"/>
              </g>
              <g>
                <path class="cls-1" d="M73.17626953125,54.6708984375c3.2041015625,1.5244140625,5.99951171875,3.4873046875,8.3828125,5.8876953125,2.38427734375,2.404296875,4.44384765625,5.07421875,6.18310546875,8.013671875,1.73828125,2.94140625,3.1884765625,6.0869140625,4.3525390625,9.4365234375,1.1630859375,3.3544921875,2.126953125,6.7421875,2.8916015625,10.166015625,1.68212890625,6.755859375,2.88623046875,13.6298828125,3.61669921875,20.6259765625.728515625,6.994140625,1.177734375,14.0546875,1.35009765625,21.1748046875.00146484375,2.0263671875-.02490234375,3.6923828125-.08154296875,4.9921875-.05810546875,1.302734375-.27490234375,2.375-.65185546875,3.2158203125-.37841796875.841796875-.951171875,1.537109375-1.71630859375,2.083984375-.76708984375.5498046875-1.85791015625,1.08203125-3.275390625,1.6044921875-1.35791015625.2705078125-2.77783203125.5078125-4.26025390625.7099609375-1.48486328125.1982421875-2.90771484375-.08984375-4.2666015625-.8701171875-1.2734375-.7080078125-2.392578125-1.9970703125-3.353515625-3.865234375-.96240234375-1.8671875-1.63134765625-4.6103515625-2.00390625-8.2294921875l-.09814453125-1.208984375c-2.0341796875-.0771484375-4.44580078125-.083984375-7.23828125-.01953125-2.79296875.0634765625-5.64013671875.193359375-8.54296875.3876953125-2.9033203125.1953125-5.705078125.400390625-8.40234375.619140625-2.7001953125.21875-4.97509765625.4033203125-6.82763671875.5537109375-.02197265625.73046875-.0244140625,1.947265625-.0078125,3.6494140625.01611328125,1.701171875-.109375,3.4130859375-.37451171875,5.138671875-.26708984375,1.7236328125-.68701171875,3.298828125-1.25927734375,4.72265625-.57421875,1.4267578125-1.4619140625,2.2255859375-2.6630859375,2.40625-1.123046875.169921875-2.404296875.3544921875-3.8466796875.5537109375-1.4443359375.197265625-2.86767578125.150390625-4.2685546875-.140625-1.396484375-.208984375-2.59716796875-.7626953125-3.6005859375-1.654296875-1.00537109375-.8916015625-1.63330078125-2.3798828125-1.88232421875-4.46875-.2021484375-2.49609375-.39453125-5.359375-.57421875-8.58984375-.181640625-3.2265625-.30322265625-6.7431640625-.3681640625-10.5498046875-.09423828125-3.1552734375-.11083984375-6.6201171875-.0517578125-10.3955078125.05908203125-3.7744140625.2705078125-7.662109375.6357421875-11.666015625.3642578125-4.001953125.931640625-8.021484375,1.69921875-12.056640625.767578125-4.0341796875,1.83349609375-7.8916015625,3.19775390625-11.5712890625,1.36279296875-3.6767578125,3.052734375-7.09765625,5.06787109375-10.2607421875,2.01318359375-3.162109375,4.509765625-5.8779296875,7.48876953125-8.1474609375,3.51416015625-2.6357421875,7.48779296875-4.1337890625,11.9189453125-4.4931640625,4.4296875-.3583984375,8.70751953125.388671875,12.83056640625,2.2451171875ZM48.26953125,112.0263671875c5.04150390625-.8134765625,10.07177734375-1.5244140625,15.0908203125-2.134765625,5.01708984375-.607421875,10.0712890625-1.0390625,15.158203125-1.2880859375-.22119140625-5.7392578125-.87744140625-10.833984375-1.96728515625-15.287109375-1.09033203125-4.451171875-2.40771484375-8.1767578125-3.94677734375-11.173828125-1.53955078125-2.99609375-3.26318359375-5.248046875-5.16845703125-6.7568359375-1.90625-1.5068359375-3.78564453125-2.185546875-5.63818359375-2.0361328125-1.61181640625.130859375-3.21630859375,1.0927734375-4.81396484375,2.8828125-1.5986328125,1.79296875-3.01416015625,4.33984375-4.24560546875,7.640625-1.2333984375,3.3056640625-2.263671875,7.3408203125-3.0927734375,12.1103515625-.83056640625,4.76953125-1.2900390625,10.1181640625-1.3759765625,16.04296875Z"/>
                <path class="cls-1" d="M238.31396484375,82.8876953125c3.76611328125,2.451171875,6.67919921875,5.642578125,8.74169921875,9.5673828125,2.060546875,3.9296875,2.9453125,8.0927734375,2.654296875,12.49609375-.3271484375,4.9716796875-1.92529296875,9.2578125-4.79638671875,12.853515625-2.87060546875,3.5986328125-6.36279296875,6.5361328125-10.4755859375,8.8154296875-4.11376953125,2.2783203125-8.61962890625,3.9423828125-13.521484375,4.98828125-4.90185546875,1.044921875-9.546875,1.501953125-13.93603515625,1.3720703125-.3916015625.1923828125-.74560546875.3212890625-1.0634765625.3896484375-.3193359375.06640625-.6767578125.15625-1.07275390625.2685546875-1.443359375.197265625-2.93505859375.318359375-4.470703125.3623046875-1.537109375.0439453125-2.9482421875-.1064453125-4.23193359375-.447265625-1.28515625-.3388671875-2.4111328125-.978515625-3.3779296875-1.916015625-.96923828125-.93359375-1.60791015625-2.3212890625-1.9189453125-4.1611328125-.234375-.8720703125-.41845703125-2.66015625-.55615234375-5.3671875-.13916015625-2.7041015625-.32421875-5.994140625-.55615234375-9.8671875-.15966796875-3.9599609375-.365234375-8.259765625-.61962890625-12.90234375-.25390625-4.640625-.53125-9.3017578125-.82861328125-13.98046875-.41650390625-6.1279296875-.833984375-12.296875-1.25634765625-18.505859375-.42333984375-6.208984375-1.17041015625-12.4326171875-2.24169921875-18.669921875-.2216796875-.712890625-.1923828125-1.36328125.08447265625-1.953125.12158203125-.4970703125.44677734375-.9892578125.97509765625-1.478515625.52685546875-.4873046875,1.3486328125-.857421875,2.4638671875-1.111328125.79833984375-.14453125,1.67578125-.3369140625,2.62890625-.578125.9541015625-.23828125,1.9501953125-.4404296875,2.99169921875-.607421875,1.03955078125-.1630859375,2.0478515625-.2451171875,3.02099609375-.2451171875.97265625.00390625,1.83154296875.0947265625,2.57666015625.279296875,4.0625-.8955078125,8.36865234375-1.2666015625,12.92333984375-1.1083984375,4.55322265625.1591796875,8.88916015625.8818359375,13.0068359375,2.1689453125,4.11865234375,1.2900390625,7.7548828125,3.1630859375,10.91552734375,5.6220703125,3.158203125,2.4619140625,5.3779296875,5.5849609375,6.65771484375,9.3720703125.5390625,1.66015625.9248046875,3.4140625,1.15576171875,5.2587890625.2294921875,1.84765625.1845703125,3.7763671875-.1396484375,5.7880859375-.32275390625,2.0146484375-.94140625,4.1328125-1.8564453125,6.3544921875-.9140625,2.2216796875-2.20751953125,4.537109375-3.876953125,6.9423828125ZM206.32080078125,78.302734375c3.8798828125-.150390625,7.109375-.818359375,9.689453125-2.0009765625,2.57958984375-1.181640625,4.470703125-2.6123046875,5.67236328125-4.291015625,1.2021484375-1.6767578125,1.70751953125-3.44140625,1.517578125-5.2919921875-.19189453125-1.84765625-1.02978515625-3.443359375-2.51611328125-4.7822265625-1.48779296875-1.337890625-3.6318359375-2.2783203125-6.431640625-2.8232421875-2.80078125-.54296875-6.27392578125-.3623046875-10.41552734375.5390625.49609375,3.123046875.9287109375,6.208984375,1.29736328125,9.2607421875.36962890625,3.052734375.763671875,6.181640625,1.1865234375,9.3896484375ZM209.52197265625,113.314453125c4.38916015625.130859375,8.037109375-.3662109375,10.94677734375-1.494140625,2.9072265625-1.126953125,5.044921875-2.5166015625,6.412109375-4.169921875,1.36572265625-1.6494140625,1.99658203125-3.36328125,1.89453125-5.138671875-.103515625-1.7734375-.93212890625-3.248046875-2.486328125-4.4208984375-1.55419921875-1.169921875-3.8408203125-1.857421875-6.85595703125-2.05859375-3.01708984375-.201171875-6.73876953125.404296875-11.1640625,1.81640625l1.2529296875,15.4658203125Z"/>
              </g>
              <g>
                <path class="cls-1" d="M73.17626953125,54.6708984375c3.2041015625,1.5244140625,5.99951171875,3.4873046875,8.3828125,5.8876953125,2.38427734375,2.404296875,4.44384765625,5.07421875,6.18310546875,8.013671875,1.73828125,2.94140625,3.1884765625,6.0869140625,4.3525390625,9.4365234375,1.1630859375,3.3544921875,2.126953125,6.7421875,2.8916015625,10.166015625,1.68212890625,6.755859375,2.88623046875,13.6298828125,3.61669921875,20.6259765625.728515625,6.994140625,1.177734375,14.0546875,1.35009765625,21.1748046875.00146484375,2.0263671875-.02490234375,3.6923828125-.08154296875,4.9921875-.05810546875,1.302734375-.27490234375,2.375-.65185546875,3.2158203125-.37841796875.841796875-.951171875,1.537109375-1.71630859375,2.083984375-.76708984375.5498046875-1.85791015625,1.08203125-3.275390625,1.6044921875-1.35791015625.2705078125-2.77783203125.5078125-4.26025390625.7099609375-1.48486328125.1982421875-2.90771484375-.08984375-4.2666015625-.8701171875-1.2734375-.7080078125-2.392578125-1.9970703125-3.353515625-3.865234375-.96240234375-1.8671875-1.63134765625-4.6103515625-2.00390625-8.2294921875l-.09814453125-1.208984375c-2.0341796875-.0771484375-4.44580078125-.083984375-7.23828125-.01953125-2.79296875.0634765625-5.64013671875.193359375-8.54296875.3876953125-2.9033203125.1953125-5.705078125.400390625-8.40234375.619140625-2.7001953125.21875-4.97509765625.4033203125-6.82763671875.5537109375-.02197265625.73046875-.0244140625,1.947265625-.0078125,3.6494140625.01611328125,1.701171875-.109375,3.4130859375-.37451171875,5.138671875-.26708984375,1.7236328125-.68701171875,3.298828125-1.25927734375,4.72265625-.57421875,1.4267578125-1.4619140625,2.2255859375-2.6630859375,2.40625-1.123046875.169921875-2.404296875.3544921875-3.8466796875.5537109375-1.4443359375.197265625-2.86767578125.150390625-4.2685546875-.140625-1.396484375-.208984375-2.59716796875-.7626953125-3.6005859375-1.654296875-1.00537109375-.8916015625-1.63330078125-2.3798828125-1.88232421875-4.46875-.2021484375-2.49609375-.39453125-5.359375-.57421875-8.58984375-.181640625-3.2265625-.30322265625-6.7431640625-.3681640625-10.5498046875-.09423828125-3.1552734375-.11083984375-6.6201171875-.0517578125-10.3955078125.05908203125-3.7744140625.2705078125-7.662109375.6357421875-11.666015625.3642578125-4.001953125.931640625-8.021484375,1.69921875-12.056640625.767578125-4.0341796875,1.83349609375-7.8916015625,3.19775390625-11.5712890625,1.36279296875-3.6767578125,3.052734375-7.09765625,5.06787109375-10.2607421875,2.01318359375-3.162109375,4.509765625-5.8779296875,7.48876953125-8.1474609375,3.51416015625-2.6357421875,7.48779296875-4.1337890625,11.9189453125-4.4931640625,4.4296875-.3583984375,8.70751953125.388671875,12.83056640625,2.2451171875ZM48.26953125,112.0263671875c5.04150390625-.8134765625,10.07177734375-1.5244140625,15.0908203125-2.134765625,5.01708984375-.607421875,10.0712890625-1.0390625,15.158203125-1.2880859375-.22119140625-5.7392578125-.87744140625-10.833984375-1.96728515625-15.287109375-1.09033203125-4.451171875-2.40771484375-8.1767578125-3.94677734375-11.173828125-1.53955078125-2.99609375-3.26318359375-5.248046875-5.16845703125-6.7568359375-1.90625-1.5068359375-3.78564453125-2.185546875-5.63818359375-2.0361328125-1.61181640625.130859375-3.21630859375,1.0927734375-4.81396484375,2.8828125-1.5986328125,1.79296875-3.01416015625,4.33984375-4.24560546875,7.640625-1.2333984375,3.3056640625-2.263671875,7.3408203125-3.0927734375,12.1103515625-.83056640625,4.76953125-1.2900390625,10.1181640625-1.3759765625,16.04296875Z"/>
                <path class="cls-1" d="M238.31396484375,82.8876953125c3.76611328125,2.451171875,6.67919921875,5.642578125,8.74169921875,9.5673828125,2.060546875,3.9296875,2.9453125,8.0927734375,2.654296875,12.49609375-.3271484375,4.9716796875-1.92529296875,9.2578125-4.79638671875,12.853515625-2.87060546875,3.5986328125-6.36279296875,6.5361328125-10.4755859375,8.8154296875-4.11376953125,2.2783203125-8.61962890625,3.9423828125-13.521484375,4.98828125-4.90185546875,1.044921875-9.546875,1.501953125-13.93603515625,1.3720703125-.3916015625.1923828125-.74560546875.3212890625-1.0634765625.3896484375-.3193359375.06640625-.6767578125.15625-1.07275390625.2685546875-1.443359375.197265625-2.93505859375.318359375-4.470703125.3623046875-1.537109375.0439453125-2.9482421875-.1064453125-4.23193359375-.447265625-1.28515625-.3388671875-2.4111328125-.978515625-3.3779296875-1.916015625-.96923828125-.93359375-1.60791015625-2.3212890625-1.9189453125-4.1611328125-.234375-.8720703125-.41845703125-2.66015625-.55615234375-5.3671875-.13916015625-2.7041015625-.32421875-5.994140625-.55615234375-9.8671875-.15966796875-3.9599609375-.365234375-8.259765625-.61962890625-12.90234375-.25390625-4.640625-.53125-9.3017578125-.82861328125-13.98046875-.41650390625-6.1279296875-.833984375-12.296875-1.25634765625-18.505859375-.42333984375-6.208984375-1.17041015625-12.4326171875-2.24169921875-18.669921875-.2216796875-.712890625-.1923828125-1.36328125.08447265625-1.953125.12158203125-.4970703125.44677734375-.9892578125.97509765625-1.478515625.52685546875-.4873046875,1.3486328125-.857421875,2.4638671875-1.111328125.79833984375-.14453125,1.67578125-.3369140625,2.62890625-.578125.9541015625-.23828125,1.9501953125-.4404296875,2.99169921875-.607421875,1.03955078125-.1630859375,2.0478515625-.2451171875,3.02099609375-.2451171875.97265625.00390625,1.83154296875.0947265625,2.57666015625.279296875,4.0625-.8955078125,8.36865234375-1.2666015625,12.92333984375-1.1083984375,4.55322265625.1591796875,8.88916015625.8818359375,13.0068359375,2.1689453125,4.11865234375,1.2900390625,7.7548828125,3.1630859375,10.91552734375,5.6220703125,3.158203125,2.4619140625,5.3779296875,5.5849609375,6.65771484375,9.3720703125.5390625,1.66015625.9248046875,3.4140625,1.15576171875,5.2587890625.2294921875,1.84765625.1845703125,3.7763671875-.1396484375,5.7880859375-.32275390625,2.0146484375-.94140625,4.1328125-1.8564453125,6.3544921875-.9140625,2.2216796875-2.20751953125,4.537109375-3.876953125,6.9423828125ZM206.32080078125,78.302734375c3.8798828125-.150390625,7.109375-.818359375,9.689453125-2.0009765625,2.57958984375-1.181640625,4.470703125-2.6123046875,5.67236328125-4.291015625,1.2021484375-1.6767578125,1.70751953125-3.44140625,1.517578125-5.2919921875-.19189453125-1.84765625-1.02978515625-3.443359375-2.51611328125-4.7822265625-1.48779296875-1.337890625-3.6318359375-2.2783203125-6.431640625-2.8232421875-2.80078125-.54296875-6.27392578125-.3623046875-10.41552734375.5390625.49609375,3.123046875.9287109375,6.208984375,1.29736328125,9.2607421875.36962890625,3.052734375.763671875,6.181640625,1.1865234375,9.3896484375ZM209.52197265625,113.314453125c4.38916015625.130859375,8.037109375-.3662109375,10.94677734375-1.494140625,2.9072265625-1.126953125,5.044921875-2.5166015625,6.412109375-4.169921875,1.36572265625-1.6494140625,1.99658203125-3.36328125,1.89453125-5.138671875-.103515625-1.7734375-.93212890625-3.248046875-2.486328125-4.4208984375-1.55419921875-1.169921875-3.8408203125-1.857421875-6.85595703125-2.05859375-3.01708984375-.201171875-6.73876953125.404296875-11.1640625,1.81640625l1.2529296875,15.4658203125Z"/>
              </g>
            </g>
          </a>
          <path class="cls-1" d="M157.0986328125,104.4873046875c.1455078125-3.1884765625.216796875-6.1669921875.216796875-8.9365234375,0-2.7685546875-.361328125-5.4111328125-1.08544921875-7.9287109375-.72265625-2.7412109375-1.84521484375-4.978515625-3.36474609375-6.7119140625-1.52001953125-1.734375-3.23828125-3.0078125-5.15625-3.8173828125-1.91650390625-.8115234375-3.90771484375-1.1474609375-5.97021484375-1.0068359375-2.0625.138671875-4.05224609375.6708984375-5.97021484375,1.59375-1.9169921875.9228515625-3.63671875,2.2236328125-5.15625,3.9013671875-1.52001953125,1.6787109375-2.64111328125,3.7197265625-3.365234375,6.125-.72265625,2.236328125-1.2294921875,4.82421875-1.51953125,7.76171875-.28857421875,2.9365234375-.4345703125,5.9150390625-.4345703125,8.935546875s.14599609375,5.9423828125.4345703125,8.767578125c.2900390625,2.82421875.580078125,5.244140625.8681640625,7.2578125.21728515625,1.4541015625-.361328125,2.62890625-1.73681640625,3.5234375-1.37353515625.89453125-2.98486328125,1.439453125-4.83056640625,1.63671875-1.84521484375.1953125-3.6533203125,0-5.42724609375-.587890625-1.7724609375-.5869140625-2.94775390625-1.6357421875-3.52783203125-3.146484375-1.0126953125-2.5732421875-1.75390625-5.341796875-2.2255859375-8.3056640625-.4697265625-2.9658203125-.7412109375-5.9443359375-.81396484375-8.935546875-.0712890625-2.9931640625.037109375-5.9296875.32568359375-8.810546875.2900390625-2.880859375.6884765625-5.5517578125,1.19384765625-8.0126953125.79736328125-3.30078125,2.0625-6.4892578125,3.79931640625-9.564453125,1.73681640625-3.0771484375,3.96240234375-5.7900390625,6.67578125-8.138671875,2.7138671875-2.349609375,5.93505859375-4.224609375,9.6611328125-5.6220703125,3.72802734375-1.3984375,7.94287109375-2.041015625,12.64599609375-1.9296875,2.96826171875.056640625,5.75341796875.447265625,8.3583984375,1.1748046875,2.60546875.7265625,5.01220703125,1.69140625,7.21875,2.89453125,2.20849609375,1.2021484375,4.17919921875,2.6142578125,5.916015625,4.2373046875,1.73681640625,1.62109375,3.220703125,3.3564453125,4.45068359375,5.2021484375,2.24365234375,3.4677734375,3.7822265625,7.3828125,4.61328125,11.74609375.8330078125,4.36328125,1.24853515625,8.6552734375,1.24853515625,12.87890625,0,4.22265625-.234375,8.1103515625-.70556640625,11.6630859375-.47021484375,3.5517578125-.9228515625,6.3056640625-1.35693359375,8.2646484375-.14453125,1.0615234375-.68701171875,1.9423828125-1.62841796875,2.642578125-.939453125.69921875-2.0439453125,1.216796875-3.310546875,1.552734375-1.265625.3349609375-2.62255859375.5029296875-4.07080078125.5029296875-1.44677734375,0-2.76806640625-.1826171875-3.96240234375-.544921875-1.19384765625-.365234375-2.1708984375-.9228515625-2.9306640625-1.6787109375-.759765625-.7548828125-1.1025390625-1.6650390625-1.03125-2.7265625l1.9541015625-15.857421875Z"/>
        </g>
        <g>
          <a xlink:href="https://www.notion.so/congruence/B-Event-1f1a5b08a72c49f5ab60f2e0793fd0a8?pvs=4">
            <g>
              <g>
                <path class="cls-2" d="M73.17626953125,54.6708984375c3.2041015625,1.5244140625,5.99951171875,3.4873046875,8.3828125,5.8876953125,2.38427734375,2.404296875,4.44384765625,5.07421875,6.18310546875,8.013671875,1.73828125,2.94140625,3.1884765625,6.0869140625,4.3525390625,9.4365234375,1.1630859375,3.3544921875,2.126953125,6.7421875,2.8916015625,10.166015625,1.68212890625,6.755859375,2.88623046875,13.6298828125,3.61669921875,20.6259765625.728515625,6.994140625,1.177734375,14.0546875,1.35009765625,21.1748046875.00146484375,2.0263671875-.02490234375,3.6923828125-.08154296875,4.9921875-.05810546875,1.302734375-.27490234375,2.375-.65185546875,3.2158203125-.37841796875.841796875-.951171875,1.537109375-1.71630859375,2.083984375-.76708984375.5498046875-1.85791015625,1.08203125-3.275390625,1.6044921875-1.35791015625.2705078125-2.77783203125.5078125-4.26025390625.7099609375-1.48486328125.1982421875-2.90771484375-.08984375-4.2666015625-.8701171875-1.2734375-.7080078125-2.392578125-1.9970703125-3.353515625-3.865234375-.96240234375-1.8671875-1.63134765625-4.6103515625-2.00390625-8.2294921875l-.09814453125-1.208984375c-2.0341796875-.0771484375-4.44580078125-.083984375-7.23828125-.01953125-2.79296875.0634765625-5.64013671875.193359375-8.54296875.3876953125-2.9033203125.1953125-5.705078125.400390625-8.40234375.619140625-2.7001953125.21875-4.97509765625.4033203125-6.82763671875.5537109375-.02197265625.73046875-.0244140625,1.947265625-.0078125,3.6494140625.01611328125,1.701171875-.109375,3.4130859375-.37451171875,5.138671875-.26708984375,1.7236328125-.68701171875,3.298828125-1.25927734375,4.72265625-.57421875,1.4267578125-1.4619140625,2.2255859375-2.6630859375,2.40625-1.123046875.169921875-2.404296875.3544921875-3.8466796875.5537109375-1.4443359375.197265625-2.86767578125.150390625-4.2685546875-.140625-1.396484375-.208984375-2.59716796875-.7626953125-3.6005859375-1.654296875-1.00537109375-.8916015625-1.63330078125-2.3798828125-1.88232421875-4.46875-.2021484375-2.49609375-.39453125-5.359375-.57421875-8.58984375-.181640625-3.2265625-.30322265625-6.7431640625-.3681640625-10.5498046875-.09423828125-3.1552734375-.11083984375-6.6201171875-.0517578125-10.3955078125.05908203125-3.7744140625.2705078125-7.662109375.6357421875-11.666015625.3642578125-4.001953125.931640625-8.021484375,1.69921875-12.056640625.767578125-4.0341796875,1.83349609375-7.8916015625,3.19775390625-11.5712890625,1.36279296875-3.6767578125,3.052734375-7.09765625,5.06787109375-10.2607421875,2.01318359375-3.162109375,4.509765625-5.8779296875,7.48876953125-8.1474609375,3.51416015625-2.6357421875,7.48779296875-4.1337890625,11.9189453125-4.4931640625,4.4296875-.3583984375,8.70751953125.388671875,12.83056640625,2.2451171875ZM48.26953125,112.0263671875c5.04150390625-.8134765625,10.07177734375-1.5244140625,15.0908203125-2.134765625,5.01708984375-.607421875,10.0712890625-1.0390625,15.158203125-1.2880859375-.22119140625-5.7392578125-.87744140625-10.833984375-1.96728515625-15.287109375-1.09033203125-4.451171875-2.40771484375-8.1767578125-3.94677734375-11.173828125-1.53955078125-2.99609375-3.26318359375-5.248046875-5.16845703125-6.7568359375-1.90625-1.5068359375-3.78564453125-2.185546875-5.63818359375-2.0361328125-1.61181640625.130859375-3.21630859375,1.0927734375-4.81396484375,2.8828125-1.5986328125,1.79296875-3.01416015625,4.33984375-4.24560546875,7.640625-1.2333984375,3.3056640625-2.263671875,7.3408203125-3.0927734375,12.1103515625-.83056640625,4.76953125-1.2900390625,10.1181640625-1.3759765625,16.04296875Z"/>
                <path class="cls-2" d="M238.31396484375,82.8876953125c3.76611328125,2.451171875,6.67919921875,5.642578125,8.74169921875,9.5673828125,2.060546875,3.9296875,2.9453125,8.0927734375,2.654296875,12.49609375-.3271484375,4.9716796875-1.92529296875,9.2578125-4.79638671875,12.853515625-2.87060546875,3.5986328125-6.36279296875,6.5361328125-10.4755859375,8.8154296875-4.11376953125,2.2783203125-8.61962890625,3.9423828125-13.521484375,4.98828125-4.90185546875,1.044921875-9.546875,1.501953125-13.93603515625,1.3720703125-.3916015625.1923828125-.74560546875.3212890625-1.0634765625.3896484375-.3193359375.06640625-.6767578125.15625-1.07275390625.2685546875-1.443359375.197265625-2.93505859375.318359375-4.470703125.3623046875-1.537109375.0439453125-2.9482421875-.1064453125-4.23193359375-.447265625-1.28515625-.3388671875-2.4111328125-.978515625-3.3779296875-1.916015625-.96923828125-.93359375-1.60791015625-2.3212890625-1.9189453125-4.1611328125-.234375-.8720703125-.41845703125-2.66015625-.55615234375-5.3671875-.13916015625-2.7041015625-.32421875-5.994140625-.55615234375-9.8671875-.15966796875-3.9599609375-.365234375-8.259765625-.61962890625-12.90234375-.25390625-4.640625-.53125-9.3017578125-.82861328125-13.98046875-.41650390625-6.1279296875-.833984375-12.296875-1.25634765625-18.505859375-.42333984375-6.208984375-1.17041015625-12.4326171875-2.24169921875-18.669921875-.2216796875-.712890625-.1923828125-1.36328125.08447265625-1.953125.12158203125-.4970703125.44677734375-.9892578125.97509765625-1.478515625.52685546875-.4873046875,1.3486328125-.857421875,2.4638671875-1.111328125.79833984375-.14453125,1.67578125-.3369140625,2.62890625-.578125.9541015625-.23828125,1.9501953125-.4404296875,2.99169921875-.607421875,1.03955078125-.1630859375,2.0478515625-.2451171875,3.02099609375-.2451171875.97265625.00390625,1.83154296875.0947265625,2.57666015625.279296875,4.0625-.8955078125,8.36865234375-1.2666015625,12.92333984375-1.1083984375,4.55322265625.1591796875,8.88916015625.8818359375,13.0068359375,2.1689453125,4.11865234375,1.2900390625,7.7548828125,3.1630859375,10.91552734375,5.6220703125,3.158203125,2.4619140625,5.3779296875,5.5849609375,6.65771484375,9.3720703125.5390625,1.66015625.9248046875,3.4140625,1.15576171875,5.2587890625.2294921875,1.84765625.1845703125,3.7763671875-.1396484375,5.7880859375-.32275390625,2.0146484375-.94140625,4.1328125-1.8564453125,6.3544921875-.9140625,2.2216796875-2.20751953125,4.537109375-3.876953125,6.9423828125ZM206.32080078125,78.302734375c3.8798828125-.150390625,7.109375-.818359375,9.689453125-2.0009765625,2.57958984375-1.181640625,4.470703125-2.6123046875,5.67236328125-4.291015625,1.2021484375-1.6767578125,1.70751953125-3.44140625,1.517578125-5.2919921875-.19189453125-1.84765625-1.02978515625-3.443359375-2.51611328125-4.7822265625-1.48779296875-1.337890625-3.6318359375-2.2783203125-6.431640625-2.8232421875-2.80078125-.54296875-6.27392578125-.3623046875-10.41552734375.5390625.49609375,3.123046875.9287109375,6.208984375,1.29736328125,9.2607421875.36962890625,3.052734375.763671875,6.181640625,1.1865234375,9.3896484375ZM209.52197265625,113.314453125c4.38916015625.130859375,8.037109375-.3662109375,10.94677734375-1.494140625,2.9072265625-1.126953125,5.044921875-2.5166015625,6.412109375-4.169921875,1.36572265625-1.6494140625,1.99658203125-3.36328125,1.89453125-5.138671875-.103515625-1.7734375-.93212890625-3.248046875-2.486328125-4.4208984375-1.55419921875-1.169921875-3.8408203125-1.857421875-6.85595703125-2.05859375-3.01708984375-.201171875-6.73876953125.404296875-11.1640625,1.81640625l1.2529296875,15.4658203125Z"/>
              </g>
              <g>
                <path class="cls-2" d="M73.17626953125,54.6708984375c3.2041015625,1.5244140625,5.99951171875,3.4873046875,8.3828125,5.8876953125,2.38427734375,2.404296875,4.44384765625,5.07421875,6.18310546875,8.013671875,1.73828125,2.94140625,3.1884765625,6.0869140625,4.3525390625,9.4365234375,1.1630859375,3.3544921875,2.126953125,6.7421875,2.8916015625,10.166015625,1.68212890625,6.755859375,2.88623046875,13.6298828125,3.61669921875,20.6259765625.728515625,6.994140625,1.177734375,14.0546875,1.35009765625,21.1748046875.00146484375,2.0263671875-.02490234375,3.6923828125-.08154296875,4.9921875-.05810546875,1.302734375-.27490234375,2.375-.65185546875,3.2158203125-.37841796875.841796875-.951171875,1.537109375-1.71630859375,2.083984375-.76708984375.5498046875-1.85791015625,1.08203125-3.275390625,1.6044921875-1.35791015625.2705078125-2.77783203125.5078125-4.26025390625.7099609375-1.48486328125.1982421875-2.90771484375-.08984375-4.2666015625-.8701171875-1.2734375-.7080078125-2.392578125-1.9970703125-3.353515625-3.865234375-.96240234375-1.8671875-1.63134765625-4.6103515625-2.00390625-8.2294921875l-.09814453125-1.208984375c-2.0341796875-.0771484375-4.44580078125-.083984375-7.23828125-.01953125-2.79296875.0634765625-5.64013671875.193359375-8.54296875.3876953125-2.9033203125.1953125-5.705078125.400390625-8.40234375.619140625-2.7001953125.21875-4.97509765625.4033203125-6.82763671875.5537109375-.02197265625.73046875-.0244140625,1.947265625-.0078125,3.6494140625.01611328125,1.701171875-.109375,3.4130859375-.37451171875,5.138671875-.26708984375,1.7236328125-.68701171875,3.298828125-1.25927734375,4.72265625-.57421875,1.4267578125-1.4619140625,2.2255859375-2.6630859375,2.40625-1.123046875.169921875-2.404296875.3544921875-3.8466796875.5537109375-1.4443359375.197265625-2.86767578125.150390625-4.2685546875-.140625-1.396484375-.208984375-2.59716796875-.7626953125-3.6005859375-1.654296875-1.00537109375-.8916015625-1.63330078125-2.3798828125-1.88232421875-4.46875-.2021484375-2.49609375-.39453125-5.359375-.57421875-8.58984375-.181640625-3.2265625-.30322265625-6.7431640625-.3681640625-10.5498046875-.09423828125-3.1552734375-.11083984375-6.6201171875-.0517578125-10.3955078125.05908203125-3.7744140625.2705078125-7.662109375.6357421875-11.666015625.3642578125-4.001953125.931640625-8.021484375,1.69921875-12.056640625.767578125-4.0341796875,1.83349609375-7.8916015625,3.19775390625-11.5712890625,1.36279296875-3.6767578125,3.052734375-7.09765625,5.06787109375-10.2607421875,2.01318359375-3.162109375,4.509765625-5.8779296875,7.48876953125-8.1474609375,3.51416015625-2.6357421875,7.48779296875-4.1337890625,11.9189453125-4.4931640625,4.4296875-.3583984375,8.70751953125.388671875,12.83056640625,2.2451171875ZM48.26953125,112.0263671875c5.04150390625-.8134765625,10.07177734375-1.5244140625,15.0908203125-2.134765625,5.01708984375-.607421875,10.0712890625-1.0390625,15.158203125-1.2880859375-.22119140625-5.7392578125-.87744140625-10.833984375-1.96728515625-15.287109375-1.09033203125-4.451171875-2.40771484375-8.1767578125-3.94677734375-11.173828125-1.53955078125-2.99609375-3.26318359375-5.248046875-5.16845703125-6.7568359375-1.90625-1.5068359375-3.78564453125-2.185546875-5.63818359375-2.0361328125-1.61181640625.130859375-3.21630859375,1.0927734375-4.81396484375,2.8828125-1.5986328125,1.79296875-3.01416015625,4.33984375-4.24560546875,7.640625-1.2333984375,3.3056640625-2.263671875,7.3408203125-3.0927734375,12.1103515625-.83056640625,4.76953125-1.2900390625,10.1181640625-1.3759765625,16.04296875Z"/>
                <path class="cls-2" d="M238.31396484375,82.8876953125c3.76611328125,2.451171875,6.67919921875,5.642578125,8.74169921875,9.5673828125,2.060546875,3.9296875,2.9453125,8.0927734375,2.654296875,12.49609375-.3271484375,4.9716796875-1.92529296875,9.2578125-4.79638671875,12.853515625-2.87060546875,3.5986328125-6.36279296875,6.5361328125-10.4755859375,8.8154296875-4.11376953125,2.2783203125-8.61962890625,3.9423828125-13.521484375,4.98828125-4.90185546875,1.044921875-9.546875,1.501953125-13.93603515625,1.3720703125-.3916015625.1923828125-.74560546875.3212890625-1.0634765625.3896484375-.3193359375.06640625-.6767578125.15625-1.07275390625.2685546875-1.443359375.197265625-2.93505859375.318359375-4.470703125.3623046875-1.537109375.0439453125-2.9482421875-.1064453125-4.23193359375-.447265625-1.28515625-.3388671875-2.4111328125-.978515625-3.3779296875-1.916015625-.96923828125-.93359375-1.60791015625-2.3212890625-1.9189453125-4.1611328125-.234375-.8720703125-.41845703125-2.66015625-.55615234375-5.3671875-.13916015625-2.7041015625-.32421875-5.994140625-.55615234375-9.8671875-.15966796875-3.9599609375-.365234375-8.259765625-.61962890625-12.90234375-.25390625-4.640625-.53125-9.3017578125-.82861328125-13.98046875-.41650390625-6.1279296875-.833984375-12.296875-1.25634765625-18.505859375-.42333984375-6.208984375-1.17041015625-12.4326171875-2.24169921875-18.669921875-.2216796875-.712890625-.1923828125-1.36328125.08447265625-1.953125.12158203125-.4970703125.44677734375-.9892578125.97509765625-1.478515625.52685546875-.4873046875,1.3486328125-.857421875,2.4638671875-1.111328125.79833984375-.14453125,1.67578125-.3369140625,2.62890625-.578125.9541015625-.23828125,1.9501953125-.4404296875,2.99169921875-.607421875,1.03955078125-.1630859375,2.0478515625-.2451171875,3.02099609375-.2451171875.97265625.00390625,1.83154296875.0947265625,2.57666015625.279296875,4.0625-.8955078125,8.36865234375-1.2666015625,12.92333984375-1.1083984375,4.55322265625.1591796875,8.88916015625.8818359375,13.0068359375,2.1689453125,4.11865234375,1.2900390625,7.7548828125,3.1630859375,10.91552734375,5.6220703125,3.158203125,2.4619140625,5.3779296875,5.5849609375,6.65771484375,9.3720703125.5390625,1.66015625.9248046875,3.4140625,1.15576171875,5.2587890625.2294921875,1.84765625.1845703125,3.7763671875-.1396484375,5.7880859375-.32275390625,2.0146484375-.94140625,4.1328125-1.8564453125,6.3544921875-.9140625,2.2216796875-2.20751953125,4.537109375-3.876953125,6.9423828125ZM206.32080078125,78.302734375c3.8798828125-.150390625,7.109375-.818359375,9.689453125-2.0009765625,2.57958984375-1.181640625,4.470703125-2.6123046875,5.67236328125-4.291015625,1.2021484375-1.6767578125,1.70751953125-3.44140625,1.517578125-5.2919921875-.19189453125-1.84765625-1.02978515625-3.443359375-2.51611328125-4.7822265625-1.48779296875-1.337890625-3.6318359375-2.2783203125-6.431640625-2.8232421875-2.80078125-.54296875-6.27392578125-.3623046875-10.41552734375.5390625.49609375,3.123046875.9287109375,6.208984375,1.29736328125,9.2607421875.36962890625,3.052734375.763671875,6.181640625,1.1865234375,9.3896484375ZM209.52197265625,113.314453125c4.38916015625.130859375,8.037109375-.3662109375,10.94677734375-1.494140625,2.9072265625-1.126953125,5.044921875-2.5166015625,6.412109375-4.169921875,1.36572265625-1.6494140625,1.99658203125-3.36328125,1.89453125-5.138671875-.103515625-1.7734375-.93212890625-3.248046875-2.486328125-4.4208984375-1.55419921875-1.169921875-3.8408203125-1.857421875-6.85595703125-2.05859375-3.01708984375-.201171875-6.73876953125.404296875-11.1640625,1.81640625l1.2529296875,15.4658203125Z"/>
              </g>
              <g>
                <path class="cls-2" d="M73.17626953125,54.6708984375c3.2041015625,1.5244140625,5.99951171875,3.4873046875,8.3828125,5.8876953125,2.38427734375,2.404296875,4.44384765625,5.07421875,6.18310546875,8.013671875,1.73828125,2.94140625,3.1884765625,6.0869140625,4.3525390625,9.4365234375,1.1630859375,3.3544921875,2.126953125,6.7421875,2.8916015625,10.166015625,1.68212890625,6.755859375,2.88623046875,13.6298828125,3.61669921875,20.6259765625.728515625,6.994140625,1.177734375,14.0546875,1.35009765625,21.1748046875.00146484375,2.0263671875-.02490234375,3.6923828125-.08154296875,4.9921875-.05810546875,1.302734375-.27490234375,2.375-.65185546875,3.2158203125-.37841796875.841796875-.951171875,1.537109375-1.71630859375,2.083984375-.76708984375.5498046875-1.85791015625,1.08203125-3.275390625,1.6044921875-1.35791015625.2705078125-2.77783203125.5078125-4.26025390625.7099609375-1.48486328125.1982421875-2.90771484375-.08984375-4.2666015625-.8701171875-1.2734375-.7080078125-2.392578125-1.9970703125-3.353515625-3.865234375-.96240234375-1.8671875-1.63134765625-4.6103515625-2.00390625-8.2294921875l-.09814453125-1.208984375c-2.0341796875-.0771484375-4.44580078125-.083984375-7.23828125-.01953125-2.79296875.0634765625-5.64013671875.193359375-8.54296875.3876953125-2.9033203125.1953125-5.705078125.400390625-8.40234375.619140625-2.7001953125.21875-4.97509765625.4033203125-6.82763671875.5537109375-.02197265625.73046875-.0244140625,1.947265625-.0078125,3.6494140625.01611328125,1.701171875-.109375,3.4130859375-.37451171875,5.138671875-.26708984375,1.7236328125-.68701171875,3.298828125-1.25927734375,4.72265625-.57421875,1.4267578125-1.4619140625,2.2255859375-2.6630859375,2.40625-1.123046875.169921875-2.404296875.3544921875-3.8466796875.5537109375-1.4443359375.197265625-2.86767578125.150390625-4.2685546875-.140625-1.396484375-.208984375-2.59716796875-.7626953125-3.6005859375-1.654296875-1.00537109375-.8916015625-1.63330078125-2.3798828125-1.88232421875-4.46875-.2021484375-2.49609375-.39453125-5.359375-.57421875-8.58984375-.181640625-3.2265625-.30322265625-6.7431640625-.3681640625-10.5498046875-.09423828125-3.1552734375-.11083984375-6.6201171875-.0517578125-10.3955078125.05908203125-3.7744140625.2705078125-7.662109375.6357421875-11.666015625.3642578125-4.001953125.931640625-8.021484375,1.69921875-12.056640625.767578125-4.0341796875,1.83349609375-7.8916015625,3.19775390625-11.5712890625,1.36279296875-3.6767578125,3.052734375-7.09765625,5.06787109375-10.2607421875,2.01318359375-3.162109375,4.509765625-5.8779296875,7.48876953125-8.1474609375,3.51416015625-2.6357421875,7.48779296875-4.1337890625,11.9189453125-4.4931640625,4.4296875-.3583984375,8.70751953125.388671875,12.83056640625,2.2451171875ZM48.26953125,112.0263671875c5.04150390625-.8134765625,10.07177734375-1.5244140625,15.0908203125-2.134765625,5.01708984375-.607421875,10.0712890625-1.0390625,15.158203125-1.2880859375-.22119140625-5.7392578125-.87744140625-10.833984375-1.96728515625-15.287109375-1.09033203125-4.451171875-2.40771484375-8.1767578125-3.94677734375-11.173828125-1.53955078125-2.99609375-3.26318359375-5.248046875-5.16845703125-6.7568359375-1.90625-1.5068359375-3.78564453125-2.185546875-5.63818359375-2.0361328125-1.61181640625.130859375-3.21630859375,1.0927734375-4.81396484375,2.8828125-1.5986328125,1.79296875-3.01416015625,4.33984375-4.24560546875,7.640625-1.2333984375,3.3056640625-2.263671875,7.3408203125-3.0927734375,12.1103515625-.83056640625,4.76953125-1.2900390625,10.1181640625-1.3759765625,16.04296875Z"/>
                <path class="cls-2" d="M238.31396484375,82.8876953125c3.76611328125,2.451171875,6.67919921875,5.642578125,8.74169921875,9.5673828125,2.060546875,3.9296875,2.9453125,8.0927734375,2.654296875,12.49609375-.3271484375,4.9716796875-1.92529296875,9.2578125-4.79638671875,12.853515625-2.87060546875,3.5986328125-6.36279296875,6.5361328125-10.4755859375,8.8154296875-4.11376953125,2.2783203125-8.61962890625,3.9423828125-13.521484375,4.98828125-4.90185546875,1.044921875-9.546875,1.501953125-13.93603515625,1.3720703125-.3916015625.1923828125-.74560546875.3212890625-1.0634765625.3896484375-.3193359375.06640625-.6767578125.15625-1.07275390625.2685546875-1.443359375.197265625-2.93505859375.318359375-4.470703125.3623046875-1.537109375.0439453125-2.9482421875-.1064453125-4.23193359375-.447265625-1.28515625-.3388671875-2.4111328125-.978515625-3.3779296875-1.916015625-.96923828125-.93359375-1.60791015625-2.3212890625-1.9189453125-4.1611328125-.234375-.8720703125-.41845703125-2.66015625-.55615234375-5.3671875-.13916015625-2.7041015625-.32421875-5.994140625-.55615234375-9.8671875-.15966796875-3.9599609375-.365234375-8.259765625-.61962890625-12.90234375-.25390625-4.640625-.53125-9.3017578125-.82861328125-13.98046875-.41650390625-6.1279296875-.833984375-12.296875-1.25634765625-18.505859375-.42333984375-6.208984375-1.17041015625-12.4326171875-2.24169921875-18.669921875-.2216796875-.712890625-.1923828125-1.36328125.08447265625-1.953125.12158203125-.4970703125.44677734375-.9892578125.97509765625-1.478515625.52685546875-.4873046875,1.3486328125-.857421875,2.4638671875-1.111328125.79833984375-.14453125,1.67578125-.3369140625,2.62890625-.578125.9541015625-.23828125,1.9501953125-.4404296875,2.99169921875-.607421875,1.03955078125-.1630859375,2.0478515625-.2451171875,3.02099609375-.2451171875.97265625.00390625,1.83154296875.0947265625,2.57666015625.279296875,4.0625-.8955078125,8.36865234375-1.2666015625,12.92333984375-1.1083984375,4.55322265625.1591796875,8.88916015625.8818359375,13.0068359375,2.1689453125,4.11865234375,1.2900390625,7.7548828125,3.1630859375,10.91552734375,5.6220703125,3.158203125,2.4619140625,5.3779296875,5.5849609375,6.65771484375,9.3720703125.5390625,1.66015625.9248046875,3.4140625,1.15576171875,5.2587890625.2294921875,1.84765625.1845703125,3.7763671875-.1396484375,5.7880859375-.32275390625,2.0146484375-.94140625,4.1328125-1.8564453125,6.3544921875-.9140625,2.2216796875-2.20751953125,4.537109375-3.876953125,6.9423828125ZM206.32080078125,78.302734375c3.8798828125-.150390625,7.109375-.818359375,9.689453125-2.0009765625,2.57958984375-1.181640625,4.470703125-2.6123046875,5.67236328125-4.291015625,1.2021484375-1.6767578125,1.70751953125-3.44140625,1.517578125-5.2919921875-.19189453125-1.84765625-1.02978515625-3.443359375-2.51611328125-4.7822265625-1.48779296875-1.337890625-3.6318359375-2.2783203125-6.431640625-2.8232421875-2.80078125-.54296875-6.27392578125-.3623046875-10.41552734375.5390625.49609375,3.123046875.9287109375,6.208984375,1.29736328125,9.2607421875.36962890625,3.052734375.763671875,6.181640625,1.1865234375,9.3896484375ZM209.52197265625,113.314453125c4.38916015625.130859375,8.037109375-.3662109375,10.94677734375-1.494140625,2.9072265625-1.126953125,5.044921875-2.5166015625,6.412109375-4.169921875,1.36572265625-1.6494140625,1.99658203125-3.36328125,1.89453125-5.138671875-.103515625-1.7734375-.93212890625-3.248046875-2.486328125-4.4208984375-1.55419921875-1.169921875-3.8408203125-1.857421875-6.85595703125-2.05859375-3.01708984375-.201171875-6.73876953125.404296875-11.1640625,1.81640625l1.2529296875,15.4658203125Z"/>
              </g>
            </g>
          </a>
          <path class="cls-2" d="M157.0986328125,104.4873046875c.1455078125-3.1884765625.216796875-6.1669921875.216796875-8.9365234375,0-2.7685546875-.361328125-5.4111328125-1.08544921875-7.9287109375-.72265625-2.7412109375-1.84521484375-4.978515625-3.36474609375-6.7119140625-1.52001953125-1.734375-3.23828125-3.0078125-5.15625-3.8173828125-1.91650390625-.8115234375-3.90771484375-1.1474609375-5.97021484375-1.0068359375-2.0625.138671875-4.05224609375.6708984375-5.97021484375,1.59375-1.9169921875.9228515625-3.63671875,2.2236328125-5.15625,3.9013671875-1.52001953125,1.6787109375-2.64111328125,3.7197265625-3.365234375,6.125-.72265625,2.236328125-1.2294921875,4.82421875-1.51953125,7.76171875-.28857421875,2.9365234375-.4345703125,5.9150390625-.4345703125,8.935546875s.14599609375,5.9423828125.4345703125,8.767578125c.2900390625,2.82421875.580078125,5.244140625.8681640625,7.2578125.21728515625,1.4541015625-.361328125,2.62890625-1.73681640625,3.5234375-1.37353515625.89453125-2.98486328125,1.439453125-4.83056640625,1.63671875-1.84521484375.1953125-3.6533203125,0-5.42724609375-.587890625-1.7724609375-.5869140625-2.94775390625-1.6357421875-3.52783203125-3.146484375-1.0126953125-2.5732421875-1.75390625-5.341796875-2.2255859375-8.3056640625-.4697265625-2.9658203125-.7412109375-5.9443359375-.81396484375-8.935546875-.0712890625-2.9931640625.037109375-5.9296875.32568359375-8.810546875.2900390625-2.880859375.6884765625-5.5517578125,1.19384765625-8.0126953125.79736328125-3.30078125,2.0625-6.4892578125,3.79931640625-9.564453125,1.73681640625-3.0771484375,3.96240234375-5.7900390625,6.67578125-8.138671875,2.7138671875-2.349609375,5.93505859375-4.224609375,9.6611328125-5.6220703125,3.72802734375-1.3984375,7.94287109375-2.041015625,12.64599609375-1.9296875,2.96826171875.056640625,5.75341796875.447265625,8.3583984375,1.1748046875,2.60546875.7265625,5.01220703125,1.69140625,7.21875,2.89453125,2.20849609375,1.2021484375,4.17919921875,2.6142578125,5.916015625,4.2373046875,1.73681640625,1.62109375,3.220703125,3.3564453125,4.45068359375,5.2021484375,2.24365234375,3.4677734375,3.7822265625,7.3828125,4.61328125,11.74609375.8330078125,4.36328125,1.24853515625,8.6552734375,1.24853515625,12.87890625,0,4.22265625-.234375,8.1103515625-.70556640625,11.6630859375-.47021484375,3.5517578125-.9228515625,6.3056640625-1.35693359375,8.2646484375-.14453125,1.0615234375-.68701171875,1.9423828125-1.62841796875,2.642578125-.939453125.69921875-2.0439453125,1.216796875-3.310546875,1.552734375-1.265625.3349609375-2.62255859375.5029296875-4.07080078125.5029296875-1.44677734375,0-2.76806640625-.1826171875-3.96240234375-.544921875-1.19384765625-.365234375-2.1708984375-.9228515625-2.9306640625-1.6787109375-.759765625-.7548828125-1.1025390625-1.6650390625-1.03125-2.7265625l1.9541015625-15.857421875Z"/>
        </g>
        <g>
          <a xlink:href="https://www.notion.so/congruence/B-Event-1f1a5b08a72c49f5ab60f2e0793fd0a8?pvs=4">
            <g>
              <g>
                <path class="cls-3" d="M73.17626953125,54.6708984375c3.2041015625,1.5244140625,5.99951171875,3.4873046875,8.3828125,5.8876953125,2.38427734375,2.404296875,4.44384765625,5.07421875,6.18310546875,8.013671875,1.73828125,2.94140625,3.1884765625,6.0869140625,4.3525390625,9.4365234375,1.1630859375,3.3544921875,2.126953125,6.7421875,2.8916015625,10.166015625,1.68212890625,6.755859375,2.88623046875,13.6298828125,3.61669921875,20.6259765625.728515625,6.994140625,1.177734375,14.0546875,1.35009765625,21.1748046875.00146484375,2.0263671875-.02490234375,3.6923828125-.08154296875,4.9921875-.05810546875,1.302734375-.27490234375,2.375-.65185546875,3.2158203125-.37841796875.841796875-.951171875,1.537109375-1.71630859375,2.083984375-.76708984375.5498046875-1.85791015625,1.08203125-3.275390625,1.6044921875-1.35791015625.2705078125-2.77783203125.5078125-4.26025390625.7099609375-1.48486328125.1982421875-2.90771484375-.08984375-4.2666015625-.8701171875-1.2734375-.7080078125-2.392578125-1.9970703125-3.353515625-3.865234375-.96240234375-1.8671875-1.63134765625-4.6103515625-2.00390625-8.2294921875l-.09814453125-1.208984375c-2.0341796875-.0771484375-4.44580078125-.083984375-7.23828125-.01953125-2.79296875.0634765625-5.64013671875.193359375-8.54296875.3876953125-2.9033203125.1953125-5.705078125.400390625-8.40234375.619140625-2.7001953125.21875-4.97509765625.4033203125-6.82763671875.5537109375-.02197265625.73046875-.0244140625,1.947265625-.0078125,3.6494140625.01611328125,1.701171875-.109375,3.4130859375-.37451171875,5.138671875-.26708984375,1.7236328125-.68701171875,3.298828125-1.25927734375,4.72265625-.57421875,1.4267578125-1.4619140625,2.2255859375-2.6630859375,2.40625-1.123046875.169921875-2.404296875.3544921875-3.8466796875.5537109375-1.4443359375.197265625-2.86767578125.150390625-4.2685546875-.140625-1.396484375-.208984375-2.59716796875-.7626953125-3.6005859375-1.654296875-1.00537109375-.8916015625-1.63330078125-2.3798828125-1.88232421875-4.46875-.2021484375-2.49609375-.39453125-5.359375-.57421875-8.58984375-.181640625-3.2265625-.30322265625-6.7431640625-.3681640625-10.5498046875-.09423828125-3.1552734375-.11083984375-6.6201171875-.0517578125-10.3955078125.05908203125-3.7744140625.2705078125-7.662109375.6357421875-11.666015625.3642578125-4.001953125.931640625-8.021484375,1.69921875-12.056640625.767578125-4.0341796875,1.83349609375-7.8916015625,3.19775390625-11.5712890625,1.36279296875-3.6767578125,3.052734375-7.09765625,5.06787109375-10.2607421875,2.01318359375-3.162109375,4.509765625-5.8779296875,7.48876953125-8.1474609375,3.51416015625-2.6357421875,7.48779296875-4.1337890625,11.9189453125-4.4931640625,4.4296875-.3583984375,8.70751953125.388671875,12.83056640625,2.2451171875ZM48.26953125,112.0263671875c5.04150390625-.8134765625,10.07177734375-1.5244140625,15.0908203125-2.134765625,5.01708984375-.607421875,10.0712890625-1.0390625,15.158203125-1.2880859375-.22119140625-5.7392578125-.87744140625-10.833984375-1.96728515625-15.287109375-1.09033203125-4.451171875-2.40771484375-8.1767578125-3.94677734375-11.173828125-1.53955078125-2.99609375-3.26318359375-5.248046875-5.16845703125-6.7568359375-1.90625-1.5068359375-3.78564453125-2.185546875-5.63818359375-2.0361328125-1.61181640625.130859375-3.21630859375,1.0927734375-4.81396484375,2.8828125-1.5986328125,1.79296875-3.01416015625,4.33984375-4.24560546875,7.640625-1.2333984375,3.3056640625-2.263671875,7.3408203125-3.0927734375,12.1103515625-.83056640625,4.76953125-1.2900390625,10.1181640625-1.3759765625,16.04296875Z"/>
                <path class="cls-3" d="M238.31396484375,82.8876953125c3.76611328125,2.451171875,6.67919921875,5.642578125,8.74169921875,9.5673828125,2.060546875,3.9296875,2.9453125,8.0927734375,2.654296875,12.49609375-.3271484375,4.9716796875-1.92529296875,9.2578125-4.79638671875,12.853515625-2.87060546875,3.5986328125-6.36279296875,6.5361328125-10.4755859375,8.8154296875-4.11376953125,2.2783203125-8.61962890625,3.9423828125-13.521484375,4.98828125-4.90185546875,1.044921875-9.546875,1.501953125-13.93603515625,1.3720703125-.3916015625.1923828125-.74560546875.3212890625-1.0634765625.3896484375-.3193359375.06640625-.6767578125.15625-1.07275390625.2685546875-1.443359375.197265625-2.93505859375.318359375-4.470703125.3623046875-1.537109375.0439453125-2.9482421875-.1064453125-4.23193359375-.447265625-1.28515625-.3388671875-2.4111328125-.978515625-3.3779296875-1.916015625-.96923828125-.93359375-1.60791015625-2.3212890625-1.9189453125-4.1611328125-.234375-.8720703125-.41845703125-2.66015625-.55615234375-5.3671875-.13916015625-2.7041015625-.32421875-5.994140625-.55615234375-9.8671875-.15966796875-3.9599609375-.365234375-8.259765625-.61962890625-12.90234375-.25390625-4.640625-.53125-9.3017578125-.82861328125-13.98046875-.41650390625-6.1279296875-.833984375-12.296875-1.25634765625-18.505859375-.42333984375-6.208984375-1.17041015625-12.4326171875-2.24169921875-18.669921875-.2216796875-.712890625-.1923828125-1.36328125.08447265625-1.953125.12158203125-.4970703125.44677734375-.9892578125.97509765625-1.478515625.52685546875-.4873046875,1.3486328125-.857421875,2.4638671875-1.111328125.79833984375-.14453125,1.67578125-.3369140625,2.62890625-.578125.9541015625-.23828125,1.9501953125-.4404296875,2.99169921875-.607421875,1.03955078125-.1630859375,2.0478515625-.2451171875,3.02099609375-.2451171875.97265625.00390625,1.83154296875.0947265625,2.57666015625.279296875,4.0625-.8955078125,8.36865234375-1.2666015625,12.92333984375-1.1083984375,4.55322265625.1591796875,8.88916015625.8818359375,13.0068359375,2.1689453125,4.11865234375,1.2900390625,7.7548828125,3.1630859375,10.91552734375,5.6220703125,3.158203125,2.4619140625,5.3779296875,5.5849609375,6.65771484375,9.3720703125.5390625,1.66015625.9248046875,3.4140625,1.15576171875,5.2587890625.2294921875,1.84765625.1845703125,3.7763671875-.1396484375,5.7880859375-.32275390625,2.0146484375-.94140625,4.1328125-1.8564453125,6.3544921875-.9140625,2.2216796875-2.20751953125,4.537109375-3.876953125,6.9423828125ZM206.32080078125,78.302734375c3.8798828125-.150390625,7.109375-.818359375,9.689453125-2.0009765625,2.57958984375-1.181640625,4.470703125-2.6123046875,5.67236328125-4.291015625,1.2021484375-1.6767578125,1.70751953125-3.44140625,1.517578125-5.2919921875-.19189453125-1.84765625-1.02978515625-3.443359375-2.51611328125-4.7822265625-1.48779296875-1.337890625-3.6318359375-2.2783203125-6.431640625-2.8232421875-2.80078125-.54296875-6.27392578125-.3623046875-10.41552734375.5390625.49609375,3.123046875.9287109375,6.208984375,1.29736328125,9.2607421875.36962890625,3.052734375.763671875,6.181640625,1.1865234375,9.3896484375ZM209.52197265625,113.314453125c4.38916015625.130859375,8.037109375-.3662109375,10.94677734375-1.494140625,2.9072265625-1.126953125,5.044921875-2.5166015625,6.412109375-4.169921875,1.36572265625-1.6494140625,1.99658203125-3.36328125,1.89453125-5.138671875-.103515625-1.7734375-.93212890625-3.248046875-2.486328125-4.4208984375-1.55419921875-1.169921875-3.8408203125-1.857421875-6.85595703125-2.05859375-3.01708984375-.201171875-6.73876953125.404296875-11.1640625,1.81640625l1.2529296875,15.4658203125Z"/>
              </g>
              <g>
                <path class="cls-3" d="M73.17626953125,54.6708984375c3.2041015625,1.5244140625,5.99951171875,3.4873046875,8.3828125,5.8876953125,2.38427734375,2.404296875,4.44384765625,5.07421875,6.18310546875,8.013671875,1.73828125,2.94140625,3.1884765625,6.0869140625,4.3525390625,9.4365234375,1.1630859375,3.3544921875,2.126953125,6.7421875,2.8916015625,10.166015625,1.68212890625,6.755859375,2.88623046875,13.6298828125,3.61669921875,20.6259765625.728515625,6.994140625,1.177734375,14.0546875,1.35009765625,21.1748046875.00146484375,2.0263671875-.02490234375,3.6923828125-.08154296875,4.9921875-.05810546875,1.302734375-.27490234375,2.375-.65185546875,3.2158203125-.37841796875.841796875-.951171875,1.537109375-1.71630859375,2.083984375-.76708984375.5498046875-1.85791015625,1.08203125-3.275390625,1.6044921875-1.35791015625.2705078125-2.77783203125.5078125-4.26025390625.7099609375-1.48486328125.1982421875-2.90771484375-.08984375-4.2666015625-.8701171875-1.2734375-.7080078125-2.392578125-1.9970703125-3.353515625-3.865234375-.96240234375-1.8671875-1.63134765625-4.6103515625-2.00390625-8.2294921875l-.09814453125-1.208984375c-2.0341796875-.0771484375-4.44580078125-.083984375-7.23828125-.01953125-2.79296875.0634765625-5.64013671875.193359375-8.54296875.3876953125-2.9033203125.1953125-5.705078125.400390625-8.40234375.619140625-2.7001953125.21875-4.97509765625.4033203125-6.82763671875.5537109375-.02197265625.73046875-.0244140625,1.947265625-.0078125,3.6494140625.01611328125,1.701171875-.109375,3.4130859375-.37451171875,5.138671875-.26708984375,1.7236328125-.68701171875,3.298828125-1.25927734375,4.72265625-.57421875,1.4267578125-1.4619140625,2.2255859375-2.6630859375,2.40625-1.123046875.169921875-2.404296875.3544921875-3.8466796875.5537109375-1.4443359375.197265625-2.86767578125.150390625-4.2685546875-.140625-1.396484375-.208984375-2.59716796875-.7626953125-3.6005859375-1.654296875-1.00537109375-.8916015625-1.63330078125-2.3798828125-1.88232421875-4.46875-.2021484375-2.49609375-.39453125-5.359375-.57421875-8.58984375-.181640625-3.2265625-.30322265625-6.7431640625-.3681640625-10.5498046875-.09423828125-3.1552734375-.11083984375-6.6201171875-.0517578125-10.3955078125.05908203125-3.7744140625.2705078125-7.662109375.6357421875-11.666015625.3642578125-4.001953125.931640625-8.021484375,1.69921875-12.056640625.767578125-4.0341796875,1.83349609375-7.8916015625,3.19775390625-11.5712890625,1.36279296875-3.6767578125,3.052734375-7.09765625,5.06787109375-10.2607421875,2.01318359375-3.162109375,4.509765625-5.8779296875,7.48876953125-8.1474609375,3.51416015625-2.6357421875,7.48779296875-4.1337890625,11.9189453125-4.4931640625,4.4296875-.3583984375,8.70751953125.388671875,12.83056640625,2.2451171875ZM48.26953125,112.0263671875c5.04150390625-.8134765625,10.07177734375-1.5244140625,15.0908203125-2.134765625,5.01708984375-.607421875,10.0712890625-1.0390625,15.158203125-1.2880859375-.22119140625-5.7392578125-.87744140625-10.833984375-1.96728515625-15.287109375-1.09033203125-4.451171875-2.40771484375-8.1767578125-3.94677734375-11.173828125-1.53955078125-2.99609375-3.26318359375-5.248046875-5.16845703125-6.7568359375-1.90625-1.5068359375-3.78564453125-2.185546875-5.63818359375-2.0361328125-1.61181640625.130859375-3.21630859375,1.0927734375-4.81396484375,2.8828125-1.5986328125,1.79296875-3.01416015625,4.33984375-4.24560546875,7.640625-1.2333984375,3.3056640625-2.263671875,7.3408203125-3.0927734375,12.1103515625-.83056640625,4.76953125-1.2900390625,10.1181640625-1.3759765625,16.04296875Z"/>
                <path class="cls-3" d="M238.31396484375,82.8876953125c3.76611328125,2.451171875,6.67919921875,5.642578125,8.74169921875,9.5673828125,2.060546875,3.9296875,2.9453125,8.0927734375,2.654296875,12.49609375-.3271484375,4.9716796875-1.92529296875,9.2578125-4.79638671875,12.853515625-2.87060546875,3.5986328125-6.36279296875,6.5361328125-10.4755859375,8.8154296875-4.11376953125,2.2783203125-8.61962890625,3.9423828125-13.521484375,4.98828125-4.90185546875,1.044921875-9.546875,1.501953125-13.93603515625,1.3720703125-.3916015625.1923828125-.74560546875.3212890625-1.0634765625.3896484375-.3193359375.06640625-.6767578125.15625-1.07275390625.2685546875-1.443359375.197265625-2.93505859375.318359375-4.470703125.3623046875-1.537109375.0439453125-2.9482421875-.1064453125-4.23193359375-.447265625-1.28515625-.3388671875-2.4111328125-.978515625-3.3779296875-1.916015625-.96923828125-.93359375-1.60791015625-2.3212890625-1.9189453125-4.1611328125-.234375-.8720703125-.41845703125-2.66015625-.55615234375-5.3671875-.13916015625-2.7041015625-.32421875-5.994140625-.55615234375-9.8671875-.15966796875-3.9599609375-.365234375-8.259765625-.61962890625-12.90234375-.25390625-4.640625-.53125-9.3017578125-.82861328125-13.98046875-.41650390625-6.1279296875-.833984375-12.296875-1.25634765625-18.505859375-.42333984375-6.208984375-1.17041015625-12.4326171875-2.24169921875-18.669921875-.2216796875-.712890625-.1923828125-1.36328125.08447265625-1.953125.12158203125-.4970703125.44677734375-.9892578125.97509765625-1.478515625.52685546875-.4873046875,1.3486328125-.857421875,2.4638671875-1.111328125.79833984375-.14453125,1.67578125-.3369140625,2.62890625-.578125.9541015625-.23828125,1.9501953125-.4404296875,2.99169921875-.607421875,1.03955078125-.1630859375,2.0478515625-.2451171875,3.02099609375-.2451171875.97265625.00390625,1.83154296875.0947265625,2.57666015625.279296875,4.0625-.8955078125,8.36865234375-1.2666015625,12.92333984375-1.1083984375,4.55322265625.1591796875,8.88916015625.8818359375,13.0068359375,2.1689453125,4.11865234375,1.2900390625,7.7548828125,3.1630859375,10.91552734375,5.6220703125,3.158203125,2.4619140625,5.3779296875,5.5849609375,6.65771484375,9.3720703125.5390625,1.66015625.9248046875,3.4140625,1.15576171875,5.2587890625.2294921875,1.84765625.1845703125,3.7763671875-.1396484375,5.7880859375-.32275390625,2.0146484375-.94140625,4.1328125-1.8564453125,6.3544921875-.9140625,2.2216796875-2.20751953125,4.537109375-3.876953125,6.9423828125ZM206.32080078125,78.302734375c3.8798828125-.150390625,7.109375-.818359375,9.689453125-2.0009765625,2.57958984375-1.181640625,4.470703125-2.6123046875,5.67236328125-4.291015625,1.2021484375-1.6767578125,1.70751953125-3.44140625,1.517578125-5.2919921875-.19189453125-1.84765625-1.02978515625-3.443359375-2.51611328125-4.7822265625-1.48779296875-1.337890625-3.6318359375-2.2783203125-6.431640625-2.8232421875-2.80078125-.54296875-6.27392578125-.3623046875-10.41552734375.5390625.49609375,3.123046875.9287109375,6.208984375,1.29736328125,9.2607421875.36962890625,3.052734375.763671875,6.181640625,1.1865234375,9.3896484375ZM209.52197265625,113.314453125c4.38916015625.130859375,8.037109375-.3662109375,10.94677734375-1.494140625,2.9072265625-1.126953125,5.044921875-2.5166015625,6.412109375-4.169921875,1.36572265625-1.6494140625,1.99658203125-3.36328125,1.89453125-5.138671875-.103515625-1.7734375-.93212890625-3.248046875-2.486328125-4.4208984375-1.55419921875-1.169921875-3.8408203125-1.857421875-6.85595703125-2.05859375-3.01708984375-.201171875-6.73876953125.404296875-11.1640625,1.81640625l1.2529296875,15.4658203125Z"/>
              </g>
              <g>
                <path class="cls-3" d="M73.17626953125,54.6708984375c3.2041015625,1.5244140625,5.99951171875,3.4873046875,8.3828125,5.8876953125,2.38427734375,2.404296875,4.44384765625,5.07421875,6.18310546875,8.013671875,1.73828125,2.94140625,3.1884765625,6.0869140625,4.3525390625,9.4365234375,1.1630859375,3.3544921875,2.126953125,6.7421875,2.8916015625,10.166015625,1.68212890625,6.755859375,2.88623046875,13.6298828125,3.61669921875,20.6259765625.728515625,6.994140625,1.177734375,14.0546875,1.35009765625,21.1748046875.00146484375,2.0263671875-.02490234375,3.6923828125-.08154296875,4.9921875-.05810546875,1.302734375-.27490234375,2.375-.65185546875,3.2158203125-.37841796875.841796875-.951171875,1.537109375-1.71630859375,2.083984375-.76708984375.5498046875-1.85791015625,1.08203125-3.275390625,1.6044921875-1.35791015625.2705078125-2.77783203125.5078125-4.26025390625.7099609375-1.48486328125.1982421875-2.90771484375-.08984375-4.2666015625-.8701171875-1.2734375-.7080078125-2.392578125-1.9970703125-3.353515625-3.865234375-.96240234375-1.8671875-1.63134765625-4.6103515625-2.00390625-8.2294921875l-.09814453125-1.208984375c-2.0341796875-.0771484375-4.44580078125-.083984375-7.23828125-.01953125-2.79296875.0634765625-5.64013671875.193359375-8.54296875.3876953125-2.9033203125.1953125-5.705078125.400390625-8.40234375.619140625-2.7001953125.21875-4.97509765625.4033203125-6.82763671875.5537109375-.02197265625.73046875-.0244140625,1.947265625-.0078125,3.6494140625.01611328125,1.701171875-.109375,3.4130859375-.37451171875,5.138671875-.26708984375,1.7236328125-.68701171875,3.298828125-1.25927734375,4.72265625-.57421875,1.4267578125-1.4619140625,2.2255859375-2.6630859375,2.40625-1.123046875.169921875-2.404296875.3544921875-3.8466796875.5537109375-1.4443359375.197265625-2.86767578125.150390625-4.2685546875-.140625-1.396484375-.208984375-2.59716796875-.7626953125-3.6005859375-1.654296875-1.00537109375-.8916015625-1.63330078125-2.3798828125-1.88232421875-4.46875-.2021484375-2.49609375-.39453125-5.359375-.57421875-8.58984375-.181640625-3.2265625-.30322265625-6.7431640625-.3681640625-10.5498046875-.09423828125-3.1552734375-.11083984375-6.6201171875-.0517578125-10.3955078125.05908203125-3.7744140625.2705078125-7.662109375.6357421875-11.666015625.3642578125-4.001953125.931640625-8.021484375,1.69921875-12.056640625.767578125-4.0341796875,1.83349609375-7.8916015625,3.19775390625-11.5712890625,1.36279296875-3.6767578125,3.052734375-7.09765625,5.06787109375-10.2607421875,2.01318359375-3.162109375,4.509765625-5.8779296875,7.48876953125-8.1474609375,3.51416015625-2.6357421875,7.48779296875-4.1337890625,11.9189453125-4.4931640625,4.4296875-.3583984375,8.70751953125.388671875,12.83056640625,2.2451171875ZM48.26953125,112.0263671875c5.04150390625-.8134765625,10.07177734375-1.5244140625,15.0908203125-2.134765625,5.01708984375-.607421875,10.0712890625-1.0390625,15.158203125-1.2880859375-.22119140625-5.7392578125-.87744140625-10.833984375-1.96728515625-15.287109375-1.09033203125-4.451171875-2.40771484375-8.1767578125-3.94677734375-11.173828125-1.53955078125-2.99609375-3.26318359375-5.248046875-5.16845703125-6.7568359375-1.90625-1.5068359375-3.78564453125-2.185546875-5.63818359375-2.0361328125-1.61181640625.130859375-3.21630859375,1.0927734375-4.81396484375,2.8828125-1.5986328125,1.79296875-3.01416015625,4.33984375-4.24560546875,7.640625-1.2333984375,3.3056640625-2.263671875,7.3408203125-3.0927734375,12.1103515625-.83056640625,4.76953125-1.2900390625,10.1181640625-1.3759765625,16.04296875Z"/>
                <path class="cls-3" d="M238.31396484375,82.8876953125c3.76611328125,2.451171875,6.67919921875,5.642578125,8.74169921875,9.5673828125,2.060546875,3.9296875,2.9453125,8.0927734375,2.654296875,12.49609375-.3271484375,4.9716796875-1.92529296875,9.2578125-4.79638671875,12.853515625-2.87060546875,3.5986328125-6.36279296875,6.5361328125-10.4755859375,8.8154296875-4.11376953125,2.2783203125-8.61962890625,3.9423828125-13.521484375,4.98828125-4.90185546875,1.044921875-9.546875,1.501953125-13.93603515625,1.3720703125-.3916015625.1923828125-.74560546875.3212890625-1.0634765625.3896484375-.3193359375.06640625-.6767578125.15625-1.07275390625.2685546875-1.443359375.197265625-2.93505859375.318359375-4.470703125.3623046875-1.537109375.0439453125-2.9482421875-.1064453125-4.23193359375-.447265625-1.28515625-.3388671875-2.4111328125-.978515625-3.3779296875-1.916015625-.96923828125-.93359375-1.60791015625-2.3212890625-1.9189453125-4.1611328125-.234375-.8720703125-.41845703125-2.66015625-.55615234375-5.3671875-.13916015625-2.7041015625-.32421875-5.994140625-.55615234375-9.8671875-.15966796875-3.9599609375-.365234375-8.259765625-.61962890625-12.90234375-.25390625-4.640625-.53125-9.3017578125-.82861328125-13.98046875-.41650390625-6.1279296875-.833984375-12.296875-1.25634765625-18.505859375-.42333984375-6.208984375-1.17041015625-12.4326171875-2.24169921875-18.669921875-.2216796875-.712890625-.1923828125-1.36328125.08447265625-1.953125.12158203125-.4970703125.44677734375-.9892578125.97509765625-1.478515625.52685546875-.4873046875,1.3486328125-.857421875,2.4638671875-1.111328125.79833984375-.14453125,1.67578125-.3369140625,2.62890625-.578125.9541015625-.23828125,1.9501953125-.4404296875,2.99169921875-.607421875,1.03955078125-.1630859375,2.0478515625-.2451171875,3.02099609375-.2451171875.97265625.00390625,1.83154296875.0947265625,2.57666015625.279296875,4.0625-.8955078125,8.36865234375-1.2666015625,12.92333984375-1.1083984375,4.55322265625.1591796875,8.88916015625.8818359375,13.0068359375,2.1689453125,4.11865234375,1.2900390625,7.7548828125,3.1630859375,10.91552734375,5.6220703125,3.158203125,2.4619140625,5.3779296875,5.5849609375,6.65771484375,9.3720703125.5390625,1.66015625.9248046875,3.4140625,1.15576171875,5.2587890625.2294921875,1.84765625.1845703125,3.7763671875-.1396484375,5.7880859375-.32275390625,2.0146484375-.94140625,4.1328125-1.8564453125,6.3544921875-.9140625,2.2216796875-2.20751953125,4.537109375-3.876953125,6.9423828125ZM206.32080078125,78.302734375c3.8798828125-.150390625,7.109375-.818359375,9.689453125-2.0009765625,2.57958984375-1.181640625,4.470703125-2.6123046875,5.67236328125-4.291015625,1.2021484375-1.6767578125,1.70751953125-3.44140625,1.517578125-5.2919921875-.19189453125-1.84765625-1.02978515625-3.443359375-2.51611328125-4.7822265625-1.48779296875-1.337890625-3.6318359375-2.2783203125-6.431640625-2.8232421875-2.80078125-.54296875-6.27392578125-.3623046875-10.41552734375.5390625.49609375,3.123046875.9287109375,6.208984375,1.29736328125,9.2607421875.36962890625,3.052734375.763671875,6.181640625,1.1865234375,9.3896484375ZM209.52197265625,113.314453125c4.38916015625.130859375,8.037109375-.3662109375,10.94677734375-1.494140625,2.9072265625-1.126953125,5.044921875-2.5166015625,6.412109375-4.169921875,1.36572265625-1.6494140625,1.99658203125-3.36328125,1.89453125-5.138671875-.103515625-1.7734375-.93212890625-3.248046875-2.486328125-4.4208984375-1.55419921875-1.169921875-3.8408203125-1.857421875-6.85595703125-2.05859375-3.01708984375-.201171875-6.73876953125.404296875-11.1640625,1.81640625l1.2529296875,15.4658203125Z"/>
              </g>
            </g>
          </a>
          <path class="cls-3" d="M157.0986328125,104.4873046875c.1455078125-3.1884765625.216796875-6.1669921875.216796875-8.9365234375,0-2.7685546875-.361328125-5.4111328125-1.08544921875-7.9287109375-.72265625-2.7412109375-1.84521484375-4.978515625-3.36474609375-6.7119140625-1.52001953125-1.734375-3.23828125-3.0078125-5.15625-3.8173828125-1.91650390625-.8115234375-3.90771484375-1.1474609375-5.97021484375-1.0068359375-2.0625.138671875-4.05224609375.6708984375-5.97021484375,1.59375-1.9169921875.9228515625-3.63671875,2.2236328125-5.15625,3.9013671875-1.52001953125,1.6787109375-2.64111328125,3.7197265625-3.365234375,6.125-.72265625,2.236328125-1.2294921875,4.82421875-1.51953125,7.76171875-.28857421875,2.9365234375-.4345703125,5.9150390625-.4345703125,8.935546875s.14599609375,5.9423828125.4345703125,8.767578125c.2900390625,2.82421875.580078125,5.244140625.8681640625,7.2578125.21728515625,1.4541015625-.361328125,2.62890625-1.73681640625,3.5234375-1.37353515625.89453125-2.98486328125,1.439453125-4.83056640625,1.63671875-1.84521484375.1953125-3.6533203125,0-5.42724609375-.587890625-1.7724609375-.5869140625-2.94775390625-1.6357421875-3.52783203125-3.146484375-1.0126953125-2.5732421875-1.75390625-5.341796875-2.2255859375-8.3056640625-.4697265625-2.9658203125-.7412109375-5.9443359375-.81396484375-8.935546875-.0712890625-2.9931640625.037109375-5.9296875.32568359375-8.810546875.2900390625-2.880859375.6884765625-5.5517578125,1.19384765625-8.0126953125.79736328125-3.30078125,2.0625-6.4892578125,3.79931640625-9.564453125,1.73681640625-3.0771484375,3.96240234375-5.7900390625,6.67578125-8.138671875,2.7138671875-2.349609375,5.93505859375-4.224609375,9.6611328125-5.6220703125,3.72802734375-1.3984375,7.94287109375-2.041015625,12.64599609375-1.9296875,2.96826171875.056640625,5.75341796875.447265625,8.3583984375,1.1748046875,2.60546875.7265625,5.01220703125,1.69140625,7.21875,2.89453125,2.20849609375,1.2021484375,4.17919921875,2.6142578125,5.916015625,4.2373046875,1.73681640625,1.62109375,3.220703125,3.3564453125,4.45068359375,5.2021484375,2.24365234375,3.4677734375,3.7822265625,7.3828125,4.61328125,11.74609375.8330078125,4.36328125,1.24853515625,8.6552734375,1.24853515625,12.87890625,0,4.22265625-.234375,8.1103515625-.70556640625,11.6630859375-.47021484375,3.5517578125-.9228515625,6.3056640625-1.35693359375,8.2646484375-.14453125,1.0615234375-.68701171875,1.9423828125-1.62841796875,2.642578125-.939453125.69921875-2.0439453125,1.216796875-3.310546875,1.552734375-1.265625.3349609375-2.62255859375.5029296875-4.07080078125.5029296875-1.44677734375,0-2.76806640625-.1826171875-3.96240234375-.544921875-1.19384765625-.365234375-2.1708984375-.9228515625-2.9306640625-1.6787109375-.759765625-.7548828125-1.1025390625-1.6650390625-1.03125-2.7265625l1.9541015625-15.857421875Z"/>
        </g>
      </g>
    </a>
  </g>
  <g id="Arrows">
    <g>
      <g>
        <path class="cls-5" d="M216.238850045710024,177.011138916015625c9.6475830078125,0,18.182861328125.61407470703125,26.09375,1.877349853515625,2.4375.389251708984375,5.0809326171875.5784912109375,8.081298828125.5784912109375,2.5850830078125,0,5.1790771484375-.1383056640625,7.4075927734375-.267974853515625,2.8494873046875-.165802001953125,5.8779296875-.243011474609375,9.5308837890625-.243011474609375,2.790771484375,0,5.6337890625.04583740234375,8.383056640625.090179443359375,1.277587890625.0206298828125,2.5550537109375.04119873046875,3.831787109375.057525634765625,8.6077880859375.109954833984375,16.2093505859375,1.578643798828125,23.2393798828125,4.489990234375,13.0684814453125,5.4119873046875,21.7415771484375,15.2147216796875,25.7783203125,29.135894775390625,2.8790283203125,9.9288330078125,3.7095947265625,20.67840576171875,2.613525390625,33.829559326171875-.037841796875.454620361328125-.0396728515625.8985595703125-.04150390625,1.327911376953125-.001953125.45135498046875-.0037841796875.87762451171875-.0460205078125,1.287384033203125-.8980712890625,8.716064453125.101806640625,17.420257568359375,1.0687255859375,25.83782958984375.195556640625,1.701568603515625.3909912109375,3.40313720703125.571533203125,5.105438232421875.1278076171875,1.205810546875.1688232421875,2.45635986328125.2083740234375,3.66571044921875.05712890625,1.741424560546875.1160888671875,3.541015625.42919921875,5.329193115234375v13.229583740234375c-.3477783203125,1.52093505859375-.4228515625,3.052703857421875-.4954833984375,4.53521728515625-.0267333984375.547760009765625-.053466796875,1.094573974609375-.0941162109375,1.63836669921875-.482177734375,6.444732666015625-3.044677734375,12.399627685546875-8.064453125,18.740447998046875-8.24462890625,10.41455078125-19.4307861328125,15.663818359375-34.197509765625,16.04779052734375-.4395751953125.01141357421875-.8787841796875.0172119140625-1.3155517578125.0172119140625-7.625244140625,0-14.220458984375-1.7264404296875-20.16259765625-5.27801513671875-6.48193359375-3.8741455078125-11.447265625-9.30035400390625-14.7607421875-16.133392333984375-.796142578125-1.6417236328125-1.2347412109375-2.54608154296875-2.29736328125-2.5462646484375-.7686767578125-.000091552734375-1.3397216796875.545013427734375-2.3765869140625,1.534637451171875l-.07568359375.072265625c-1.8226318359375,1.739013671875-3.648681640625,3.47467041015625-5.474609375,5.21026611328125-7.7178955078125,7.3359375-15.698486328125,14.92156982421875-23.29052734375,22.65771484375-1.1868896484375,1.20941162109375-2.3466796875,2.4735107421875-3.4683837890625,3.6959228515625-1.5277099609375,1.6650390625-3.107421875,3.38677978515625-4.7559814453125,4.968505859375-4.7601318359375,4.5670166015625-9.5833740234375,7.76416015625-14.745361328125,9.7742919921875-3.338134765625,1.29974365234375-6.81982421875,1.4339599609375-10.505859375,1.5760498046875l-.1842041015625.0078125-6.801025390625.0009765625c-.4407958984375.01983642578125-.8790283203125.0296630859375-1.3123779296875.0296630859375-7.57568359375,0-14.7015380859375-3.0220947265625-21.78466796875-9.23895263671875-4.3927001953125-3.85540771484375-7.8369140625-7.76251220703125-10.5291748046875-11.9447021484375-3.431640625-5.3306884765625-5.02490234375-11.15106201171875-4.87060546875-17.8170166015625l-.001220703125-6.0845947265625c-.4327392578125-8.9130859375,2.9354248046875-17.052520751953125,10.0107421875-24.192169189453125,4.9334716796875-4.978515625,10.1141357421875-9.8873291015625,15.1241455078125-14.634521484375,4.509765625-4.27313232421875,9.1729736328125-8.69171142578125,13.6533203125-13.157928466796875,2.3785400390625-2.37115478515625,4.8450927734375-4.752777099609375,7.23046875-7.055999755859375,1.078125-1.041046142578125,2.15625-2.08203125,3.23046875-3.125762939453125.90234375-.876800537109375,1.6959228515625-1.747406005859375,1.498291015625-2.75689697265625-.1986083984375-1.013885498046875-1.23583984375-1.50933837890625-2.46923828125-2.00823974609375-8.082763671875-3.2691650390625-14.2947998046875-8.671417236328125-18.463623046875-16.056732177734375-2.3807373046875-4.217864990234375-3.8046875-9.00286865234375-4.3531494140625-14.628509521484375-.8243408203125-8.453857421875.54833984375-16.6795654296875,4.0797119140625-24.44866943359375,4.827880859375-10.62139892578125,12.8931884765625-18.153900146484375,23.9720458984375-22.3883056640625,4.6075439453125-1.761077880859375,9.3353271484375-2.1168212890625,13.758056640625-2.238922119140625,2.4659423828125-.068084716796875,4.869140625-.10260009765625,7.1429443359375-.10260009765625M216.238850045710024,176.011138916015625c-2.38916015625,0-4.77978515625.036956787109375-7.1705322265625.10296630859375-4.7476806640625.131072998046875-9.4990234375.5506591796875-14.0875244140625,2.304443359375-11.32763671875,4.329498291015625-19.5308837890625,11.920623779296875-24.525390625,22.90863037109375-3.5985107421875,7.916748046875-5.016357421875,16.22412109375-4.16455078125,24.959503173828125.521240234375,5.34637451171875,1.8507080078125,10.369140625,4.4775390625,15.02301025390625,4.361572265625,7.726837158203125,10.7410888671875,13.168212890625,18.95947265625,16.492218017578125,2.3194580078125.9381103515625,2.4268798828125,1.3934326171875.6490478515625,3.12091064453125-3.4931640625,3.39410400390625-7.0281982421875,6.759613037109375-10.4700927734375,10.19073486328125-9.450439453125,9.42071533203125-19.396728515625,18.32623291015625-28.78173828125,27.796783447265625-6.7237548828125,6.784881591796875-10.78125,15.015380859375-10.2991943359375,24.944580078125v6.03607177734375c-.153564453125,6.6219482421875,1.397705078125,12.71630859375,5.02978515625,18.35833740234375,2.9742431640625,4.6201171875,6.646240234375,8.5880126953125,10.7103271484375,12.15496826171875,6.435546875,5.6484375,13.702880859375,9.4873046875,22.4443359375,9.4873046875.4481201171875,0,.9013671875-.01007080078125,1.3572998046875-.03057861328125h6.756103515625c3.746337890625-.1448974609375,7.487548828125-.2637939453125,11.0528564453125-1.65203857421875,5.7510986328125-2.23944091796875,10.6531982421875-5.7421875,15.0748291015625-9.9844970703125,2.884765625-2.767822265625,5.4515380859375-5.83831787109375,8.245849609375-8.68560791015625,9.3450927734375-9.5224609375,19.090087890625-18.63623046875,28.74169921875-27.84490966796875.9031982421875-.86181640625,1.3831787109375-1.330474853515625,1.7618408203125-1.330413818359375.4368896484375.00006103515625.7388916015625.624114990234375,1.400390625,1.988128662109375,3.4051513671875,7.02197265625,8.453125,12.55035400390625,15.144775390625,16.54986572265625,6.3895263671875,3.81903076171875,13.3341064453125,5.419677734375,20.6756591796875,5.419677734375.4453125,0,.893310546875-.00592041015625,1.341552734375-.017578125,14.0596923828125-.36553955078125,26.058837890625-5.1884765625,34.95556640625-16.4267578125,4.4669189453125-5.64251708984375,7.72314453125-11.875823974609375,8.277587890625-19.2864990234375.1524658203125-2.038360595703125.1126708984375-4.118011474609375.5924072265625-6.133087158203125v-13.432769775390625c-.5362548828125-2.98089599609375-.325439453125-6.01458740234375-.6431884765625-9.012237548828125-1.0831298828125-10.215606689453125-2.70458984375-20.402923583984375-1.639892578125-30.735382080078125.0897216796875-.870697021484375.0162353515625-1.75701904296875.08935546875-2.634765625.9617919921875-11.54083251953125.5860595703125-23.03228759765625-2.649658203125-34.191070556640625-4.0557861328125-13.986846923828125-12.7469482421875-24.145355224609375-26.356201171875-29.78131103515625-7.5467529296875-3.1253662109375-15.4805908203125-4.462158203125-23.609130859375-4.566009521484375-4.0736083984375-.052032470703125-8.152587890625-.14776611328125-12.227783203125-.14776611328125-3.2001953125,0-6.398193359375.059051513671875-9.5888671875.24468994140625-2.4600830078125.14312744140625-4.908203125.26629638671875-7.3494873046875.26629638671875-2.64697265625,0-5.2861328125-.144805908203125-7.923583984375-.56597900390625-8.7100830078125-1.390899658203125-17.47265625-1.889862060546875-26.25146484375-1.889862060546875h0Z"/>
        <path class="cls-5" d="M215.419025826960024,206.1444091796875c6.5753173828125,0,13.25537109375,1.0592041015625,19.00048828125,2.05206298828125,5.1138916015625.883758544921875,10.489501953125,1.295379638671875,16.91748046875,1.295379638671875,4.03564453125,0,8.003662109375-.167999267578125,11.0096435546875-.314361572265625,3.2335205078125-.157440185546875,6.6810302734375-.3111572265625,10.153564453125-.3111572265625,4.914306640625,0,8.9874267578125.308197021484375,12.818115234375.969879150390625,10.2205810546875,1.765411376953125,14.5638427734375,6.504638671875,15.4906005859375,16.903289794921875.748046875,8.39068603515625.7703857421875,17.27630615234375.0667724609375,26.41009521484375-.7371826171875,9.56903076171875.6776123046875,19.036407470703125,2.045654296875,28.19207763671875.1611328125,1.07818603515625.322265625,2.15655517578125.4801025390625,3.2354736328125.8697509765625,5.9449462890625,1.502197265625,12.2994384765625.25244140625,18.488922119140625-1.1890869140625,5.8883056640625-7.1021728515625,10.500823974609375-13.4619140625,10.500823974609375-1.7783203125,0-3.4718017578125-.3604736328125-5.0335693359375-1.071441650390625-3.4617919921875-1.57598876953125-4.4822998046875-4.69122314453125-4.949462890625-8.88385009765625-.599853515625-5.3818359375-.293701171875-10.883026123046875.0023193359375-16.203094482421875.1693115234375-3.0418701171875.3443603515625-6.187286376953125.351318359375-9.296173095703125.01611328125-7.2716064453125-.3265380859375-15.74212646484375-4.623291015625-24.25189208984375l-.654296875-1.2957763671875-.9776611328125,1.07305908203125c-.677978515625.744171142578125-1.346435546875,1.49786376953125-2.0150146484375,2.2515869140625-1.415771484375,1.59619140625-2.879638671875,3.246734619140625-4.405029296875,4.761383056640625-9.106689453125,9.042938232421875-17.3797607421875,17.1802978515625-25.291748046875,24.876983642578125-8.3380126953125,8.110992431640625-16.836181640625,16.33746337890625-25.0545654296875,24.2930908203125-5.709228515625,5.526702880859375-11.41845703125,11.05340576171875-17.121337890625,16.586578369140625-1.4700927734375,1.42626953125-2.8182373046875,2.98468017578125-4.121826171875,4.49176025390625-1.7655029296875,2.04083251953125-3.5909423828125,4.15118408203125-5.6929931640625,5.885498046875-2.5623779296875,2.1142578125-4.7515869140625,3.0989990234375-6.8897705078125,3.0989990234375-2.0870361328125,0-4.2095947265625-.93365478515625-6.679931640625-2.9383544921875-.8046875-.65301513671875-1.46484375-1.21392822265625-2.0709228515625-1.82891845703125-5.5592041015625-5.64044189453125-5.5977783203125-10.60968017578125-.1251220703125-16.112457275390625,1.767822265625-1.77764892578125,3.7291259765625-3.4515380859375,5.6259765625-5.070281982421875,1.9310302734375-1.6480712890625,3.9278564453125-3.352264404296875,5.75634765625-5.192047119140625,14.895263671875-14.9869384765625,29.8641357421875-29.35150146484375,45.1663818359375-43.971954345703125,6.0850830078125-5.813873291015625,12.2938232421875-11.703399658203125,18.2982177734375-17.39898681640625,3.2275390625-3.061492919921875,6.455078125-6.123016357421875,9.679443359375-9.187744140625,1.2840576171875-1.220489501953125,1.9913330078125-1.892822265625,1.7774658203125-2.827728271484375-.21533203125-.9410400390625-1.1658935546875-1.2457275390625-2.8914794921875-1.798858642578125-9.333251953125-2.9915771484375-18.8526611328125-3.37530517578125-26.1031494140625-3.3753662109375-1.3387451171875,0-2.75244140625.01458740234375-4.3218994140625.04461669921875-1.6849365234375.032257080078125-3.3951416015625.0877685546875-5.0489501953125.141448974609375-2.5687255859375.083343505859375-5.2249755859375.1695556640625-7.8280029296875.1695556640625-3.74658203125,0-6.8323974609375-.1778564453125-9.71142578125-.55975341796875-1.79443359375-.238067626953125-3.31591796875-.7115478515625-4.6513671875-1.447540283203125-2.1995849609375-1.212127685546875-3.27734375-2.903839111328125-3.391845703125-5.323822021484375-.248779296875-5.25970458984375.9840087890625-9.381439208984375,3.6641845703125-12.250701904296875,2.8572998046875-3.058837890625,7.32421875-4.672821044921875,13.2767333984375-4.797027587890625.427734375-.008941650390625.856201171875-.013275146484375,1.2833251953125-.013275146484375M215.419025826960024,205.1444091796875c-.43408203125,0-.8695068359375.004425048828125-1.30419921875.01348876953125-12.2015380859375.254638671875-18.459716796875,6.66064453125-17.9189453125,18.094757080078125.134033203125,2.832611083984375,1.48828125,4.818878173828125,3.9080810546875,6.15240478515625,1.557861328125.858551025390625,3.25244140625,1.33087158203125,5.0025634765625,1.563018798828125,3.2781982421875.434844970703125,6.5592041015625.568450927734375,9.8428955078125.568450927734375,4.2969970703125,0,8.5977783203125-.228912353515625,12.8961181640625-.311187744140625,1.43603515625-.027496337890625,2.869384765625-.04443359375,4.302734375-.04443359375,8.7191162109375.000091552734375,17.3746337890625.62774658203125,25.7978515625,3.32763671875,2.8399658203125.910308837890625,2.838623046875.945556640625.7303466796875,2.949493408203125-9.3255615234375,8.863800048828125-18.677001953125,17.700531005859375-27.9794921875,26.588531494140625-15.198974609375,14.52178955078125-30.36376953125,29.077728271484375-45.184814453125,43.99005126953125-3.595703125,3.61785888671875-7.7852783203125,6.64532470703125-11.3822021484375,10.2620849609375-5.9283447265625,5.9610595703125-5.774658203125,11.5367431640625.1220703125,17.51959228515625.6708984375.6807861328125,1.4095458984375,1.3001708984375,2.1529541015625,1.9034423828125,2.6014404296875,2.111083984375,4.95654296875,3.161865234375,7.31005859375,3.161865234375,2.4217529296875,0,4.841796875-1.1126708984375,7.5262451171875-3.32769775390625,3.726318359375-3.07452392578125,6.4368896484375-7.09552001953125,9.8746337890625-10.43084716796875,14.0521240234375-13.6339111328125,28.142578125-27.228363037109375,42.1768798828125-40.880584716796875,8.4786376953125-8.247894287109375,16.9056396484375-16.549530029296875,25.299072265625-24.884185791015625,2.2581787109375-2.2423095703125,4.308837890625-4.693695068359375,6.4547119140625-7.049102783203125,4.0396728515625,8.000457763671875,4.5335693359375,15.8782958984375,4.5159912109375,23.798919677734375-.0189208984375,8.537445068359375-1.30078125,17.059844970703125-.3475341796875,25.612274169921875.447998046875,4.020233154296875,1.4322509765625,7.818145751953125,5.529052734375,9.683197021484375,1.743408203125.793670654296875,3.597412109375,1.16131591796875,5.4478759765625,1.16131591796875,6.571533203125,0,13.09619140625-4.637481689453125,14.442138671875-11.302886962890625,1.26708984375-6.275146484375.6729736328125-12.569183349609375-.2431640625-18.831634521484375-1.5137939453125-10.3477783203125-3.33154296875-20.6478271484375-2.5181884765625-31.205963134765625.6815185546875-8.846466064453125.7222900390625-17.7127685546875-.0677490234375-26.57568359375-.9658203125-10.8360595703125-5.55615234375-15.9412841796875-16.3165283203125-17.7999267578125-4.314453125-.7452392578125-8.6480712890625-.984466552734375-12.98828125-.984466552734375-3.3992919921875,0-6.8031005859375.1468505859375-10.2021484375.312347412109375-3.6607666015625.178253173828125-7.312744140625.31317138671875-10.9610595703125.31317138671875-5.59033203125,0-11.17041015625-.3170166015625-16.7471923828125-1.280792236328125-6.3333740234375-1.094482421875-12.719970703125-2.066650390625-19.1707763671875-2.066650390625h0Z"/>
      </g>
      <path class="cls-4" d="M279.731037545710024,279.73101806640625c-69.716361433098427.440556625124373-210.016444216205855,1.330661365151173-279.731322828814882,1.531145080794886.000365797564882.000257507097558-1.526855882122618.007123962173864-1.526855882122618.007123962173864.000000007298695-.000000009837095-.004272466198927-1.538391106190829-.004272460921129-1.538391113303078-.064511024379499-34.904880159190725-.30440650514538-104.98125015162077-.285238346553342-139.86565319145484C-1.816814018229707,139.865509033534181-1.997722218877243.00010681128515-1.997722219918614.000106811523438c-.000000000118234-.000000000105501-.002563476471551-2.000335693282977-.002563476558862-2.000335693359375,47.593426613562769.061715364439806,165.706488233900018.208722790090178,211.798450492555276.271015522544985,17.377571567823907.0572610275849,52.544918794066689.067300555285328,69.932719348345927.190917413743591.00003133102291-.000140944137456,1.545441487188327.005947312760327,1.545441487223798.005947312734861.000000000003638-.000000000003638-.006835937502728,1.532455444337756-.0068359375,1.532455444335938-.324931922381438,69.71919358642117-.970783436352576,210.042544784015263-1.5384521484375,279.730911254882812h0ZM279.731037545710024,279.73101806640625c-.57894426409257-69.742895709872755-1.234276642522673-210.023059236054905-1.538501915871166-279.731264506664957.000049767434575.000353251782144,1.538379845557756,1.538683329907144,1.538379845558666,1.538683329907144-38.949252221369534.064899809516646-100.445652456952303.316599198964468-139.865382148377648.281535039950541C139.865559030085933,1.820266723632812.000080514460024,1.9976806640625.000080514460024,1.9976806640625c.000000000206455.000000000176442,1.997558593600843-1.997573852666392,1.99755859375-1.997573852539062.100248134770482,79.280980378091044-.354823109742938,201.347916366608843-.465711766636559,279.730636774378581-.000474756800941.000152410191731-1.531846827113441-1.531158624964519-1.531846827113441-1.531158624964519,69.708477746931749.186220387002322,210.024487402555678,1.073943754721768,279.73095703125,1.53143310546875h0Z"/>
    </g>
  </g>
</svg>