<?xml version="1.0" encoding="UTF-8"?>
<svg id="Content" xmlns="http://www.w3.org/2000/svg" xmlns:xlink="http://www.w3.org/1999/xlink" viewBox="0 0 280 280">
  <defs>
    <style>
      .cls-1, .cls-2 {
        stroke: #665451;
        stroke-width: 50px;
      }

      .cls-1, .cls-2, .cls-3, .cls-4 {
        fill: none;
        stroke-linecap: round;
        stroke-linejoin: round;
      }

      .cls-5, .cls-6 {
        fill: #fff;
      }

      .cls-2, .cls-6, .cls-4, .cls-7 {
        font-family: Hey-Comic, 'Hey Comic';
        font-size: 75.45086669921875px;
      }

      .cls-3, .cls-4 {
        stroke: #998675;
        stroke-width: 2px;
      }
    </style>
  </defs>
  <a xlink:href="https://www.notion.so/congruence/Interquartile-range-70e75e52085149a4ba3c5d36f08901b9?pvs=4">
    <g>
      <g>
        <path d="M74.416397817558391,119.617857606890539c-13.30230006003876,1.063588214476113-26.660847331526384,1.288228955605518-39.991369063061939.672699574473882-3.381809699727455-.156186597703709-6.485089869602234,3.400374874396221-6.220713509112102,6.68153307367902.300436795852875,3.725632875019073,3.05899307319487,6.053412509474583,6.681533073675382,6.220713509112102,13.330521731537374.615529381129818,26.689069003023178.390888640000412,39.991369063061939-.672699574475701,3.361167245062461-.268705839413087,6.509592668071491-3.096996008287533,6.220713509113921-6.681533073677201-.271274561520841-3.362442225008635-3.076315001550029-6.508964590586402-6.681533073677201-6.220713509112102Z"/>
        <path d="M136.274514330172678,118.144185110497347c-13.122910813533963-1.455174857735983-26.326343095985067-.290300532276888-39.466184606748357.370819625033619-3.370804823267463.169594529739697-6.503900097575752,3.168072657019366-6.22071350911574,6.681533073675382.277889648357814,3.447573705805553,3.068096767306997,6.402495865138917,6.68153307367902,6.220713509112102,11.917033585497848-.5995735143606,24.010867085704376-1.777015540195862,35.931400719160592-.718508662335807.029553406944615.003254904229834.059091813252962.006089813454309.088435222693079.009352218003187,1.79478354373714.198991668275994,3.359508758314405.179376366799261,4.947832404237488-.827909804675073,1.310135401517982-.830872717653619,2.53148915046404-2.410798908262223,2.826834528299514-3.961278651824614.317333021166633-1.664860934030003.169648679197053-3.51559876923784-.82769605701651-4.947734905803372-.892722556160152-1.281590619058989-2.335115651167143-2.646631686024193-3.961441775189087-2.826986401185422Z"/>
        <path d="M189.127631554889376,117.578146841493435c-12.309096223403685.07203801067044-24.618190571727609.144128520718368-36.927496792633974.216174031706032-3.379730008180559.019783818028372-6.495449364869273,3.275163874659484-6.220713509113921,6.681533073675382.288354148080543,3.57572467058344,3.060469046176877,6.241915278229499,6.681533073677201,6.220713509113921,12.309306220906365-.072045510987664,24.618400569232108-.144136021033773,36.927496792633974-.216174031704213,3.379730008180559-.019783818030191,6.495449364869273-3.275163874659484,6.220713509113921-6.681533073677201-.288354148078724-3.575724670581621-3.060259048676016-6.241922778548542-6.681533073677201-6.220713509113921Z"/>
        <path d="M246.687143875356924,116.100305227610079c-13.180999922362389.262297451779887-26.361789847218461.52458740324073-39.542577897000228.786929854080881-3.377824938706908.067235753382192-6.498340646319775,3.241309280476344-6.220713509112102,6.681533073677201.285014734014112,3.535210155998357,3.062074125735307,6.292742174267914,6.681533073677201,6.220713509112102,13.180788049779949-.262342450838332,26.361577974639658-.524632402299176,39.542577897000228-.786929854080881,3.377614941207867-.067228253066787,6.498130648818915-3.241301780157301,6.220713509112102-6.681533073677201-.285016609095692-3.535262655372208-3.062285998315929-6.292787173322722-6.681533073677201-6.220713509112102Z"/>
        <path d="M201.944237383517248,92.348495247626488c.246821444776288-1.296007657734663.038178942888408-2.569282201251553-.530466405327388-3.637305973243201-.000324993672621-.321116203294878-.017866043841423-.647399812129152-.007452970186932-.932786458619375.041537926179444-1.138861617476323.083077727431373-2.277670735575157.124407531184261-3.416472353355857.07785806504944-2.135344907962462.155718005175004-4.270637316547436.233577945302386-6.405929725133319.077859940125563-2.135292408585883.155509882748447-4.270577316852723.233369822875829-6.405869725436787.040233007726783-1.104752018174622.07793479493921-2.209729028778384.13501447989438-3.313768588031962.028316725123659-.549436059736763.06084465078311-1.098707129588547.10117436040855-1.647363221836713.016180624506887-.223984883530647.034678721862292-.447842273060814.053604314543918-.671504665726388.000367492777514-.001484983156843.000335616427037-.002377472545049.000493111698233-.003854955382849.157245979657091-1.437365813020733.14482745627538-2.685793530661613-.66219922012715-3.958196924457297-.664659174748522-1.048193820280176-1.928559252784908-2.025309819125141-3.169153795166494-2.261599620822381-2.465315516790724-.469677168481212-5.905516452841766.959520105399861-6.219693421608099,3.831296765758452-.365700447124254,3.342508695488505-.527647018323478,6.702866784973594-.644959739036494,10.064837268870178-14.360962529664903,1.393931361635623-28.689630913722795,2.544063042741982-43.128615771716795,2.583570566948765-2.442203616517872.006694655285173-4.884009784636874-.010805404181156-7.325491598227018-.036885362849716-.204950390248996-1.128691259866173-.688284192961873-2.168853026611032-1.554581765793046-2.975504311390978-.927189462507158-.863140498950088-2.419778022984246-1.484782756691857-3.703325773865799-1.38127399205041-1.332608413236812.107468812937441-2.701253163038928.595333198885783-3.595347439539182,1.641955059531028-.615368203812977.720427676411418-1.114269965997664,1.605118185208994-1.30703085839923,2.548524906414968-8.547656804887083-.181053789288853-17.094768109982397-.423366855457061-25.644472136582408-.473352190201695-7.685333609999361-.044954569872061-15.372414360494076.084883797326256-23.045531530100561.535035850869463-.05958839455343-1.792013700198368-.131148521855721-3.583652381621505-.18212514370498-5.375921095499507-.077117449069192-2.700785423174239-2.57643587300845-5.199833535534708-5.345226458941397-4.976570807290045-2.808416361292984.226465267203821-5.059129817274879,2.450875834547332-4.976570807291864,5.345226458941397.134270674452637,4.713086523966922.297526629554341,9.42529550211475.492698454951096,14.136259433112173.095907739272661,2.320269885010021.199377263736096,4.640322257934713.310401073063986,6.95994712126685.055915972909133,1.165238616737042.118692611011284,2.393048980480671.541395365555218,3.489992693517706.799952066197875,2.075133918031497,2.382862096244935,3.68321683947579,4.595361302392121,4.19193903649284,2.629940707482092.604727752841427,5.695415580810732-1.078543291068854,6.21969342160628-3.83129676576209.304557050465519-1.598696691420628-.098110726228697-3.229694129982818-1.044879381961437-4.440860476788657-.04323500353712-.910271655411634-.085838139490079-1.820513312402909-.126975043076527-2.730912470375188-.036711772780109-.81593778322349-.068383605488634-1.632055574089463-.10341727332343-2.448105859239149,13.966895804969681-.817817408233168,27.963397778297804-.530012943963811,41.942366897979809-.209148836521308,2.542511306874076.058374381046633,5.085768849781743.114093792030872,7.629300131480704.165703251069317.061968641899512.322121071916627.118724847814519.64547963930454.183824701462072.966963212686096.240648216218688,1.192125440775271,1.455176916511846,2.447083250825017,2.481870850515406,2.99957722918225,1.129178454821158.607865625106569,2.769394483793803.823889891673389,3.995304752757875.378235283444155,1.234422662448196-.448692088826647,2.411537788504575-1.265614713520335,2.999524729806581-2.481868975439284.158779814282752-.417160376346146.317561503645265-.834268253317532.476341317928018-1.251428629668226.035329910906512-.152915760796532.05344002656966-.305216495482455.075330097286496-.457652235898422,8.437662898391864.074382763530593,16.874571740863757-.013637551628563,25.302808020576776-.509315530849562,7.842403271788498-.461297249967174,15.663599986688496-1.210216058703736,23.481654216535389-1.970587225965573-.0427790919166,1.174756195554437-.085560058916599,2.349459891731385-.128339150835018,3.524216087287641-.053398412916067,1.460255341113225-.18893593066241,2.881391303908458.188492392369881,4.317901090535088.567745603428193,2.16138334858806,2.270708645866762,3.798663192146705,4.427942973528843,4.355459927986885,2.614995395213555.67491195213006,5.704985370819486-1.128507718967739,6.219903419107141-3.831304266079314ZM198.995465169933595,86.44343077078338c-.018594171531731-.008429864299615-.03819707882576-.015667240741095-.056783750040267-.02388710753803.016610440025033.005872398380234.033432752632507.011789795813456.050043192655721.017662194191871.002176853293349.002077471221128.004353706586699.004154942441346.006740557384546.006224913346159Z"/>
        <g>
          <text class="cls-7" transform="translate(35.46014742704574 232.198612143867649) rotate(-4.631696847107841)"><tspan x="0" y="0">IQR</tspan></text>
          <text class="cls-2" transform="translate(35.46014742704574 232.198612143867649) rotate(-4.631696847107841)"><tspan x="0" y="0">IQR</tspan></text>
          <text class="cls-4" transform="translate(35.46014742704574 232.198612143867649) rotate(-4.631696847107841)"><tspan x="0" y="0">IQR</tspan></text>
          <text class="cls-6" transform="translate(35.46014742704574 232.198612143867649) rotate(-4.631696847107841)"><tspan x="0" y="0">IQR</tspan></text>
        </g>
      </g>
      <g>
        <path class="cls-1" d="M74.416397817558391,119.617857606890539c-13.30230006003876,1.063588214476113-26.660847331526384,1.288228955605518-39.991369063061939.672699574473882-3.381809699727455-.156186597703709-6.485089869602234,3.400374874396221-6.220713509112102,6.68153307367902.300436795852875,3.725632875019073,3.05899307319487,6.053412509474583,6.681533073675382,6.220713509112102,13.330521731537374.615529381129818,26.689069003023178.390888640000412,39.991369063061939-.672699574475701,3.361167245062461-.268705839413087,6.509592668071491-3.096996008287533,6.220713509113921-6.681533073677201-.271274561520841-3.362442225008635-3.076315001550029-6.508964590586402-6.681533073677201-6.220713509112102Z"/>
        <path class="cls-1" d="M136.274514330172678,118.144185110497347c-13.122910813533963-1.455174857735983-26.326343095985067-.290300532276888-39.466184606748357.370819625033619-3.370804823267463.169594529739697-6.503900097575752,3.168072657019366-6.22071350911574,6.681533073675382.277889648357814,3.447573705805553,3.068096767306997,6.402495865138917,6.68153307367902,6.220713509112102,11.917033585497848-.5995735143606,24.010867085704376-1.777015540195862,35.931400719160592-.718508662335807.029553406944615.003254904229834.059091813252962.006089813454309.088435222693079.009352218003187,1.79478354373714.198991668275994,3.359508758314405.179376366799261,4.947832404237488-.827909804675073,1.310135401517982-.830872717653619,2.53148915046404-2.410798908262223,2.826834528299514-3.961278651824614.317333021166633-1.664860934030003.169648679197053-3.51559876923784-.82769605701651-4.947734905803372-.892722556160152-1.281590619058989-2.335115651167143-2.646631686024193-3.961441775189087-2.826986401185422Z"/>
        <path class="cls-1" d="M189.127631554889376,117.578146841493435c-12.309096223403685.07203801067044-24.618190571727609.144128520718368-36.927496792633974.216174031706032-3.379730008180559.019783818028372-6.495449364869273,3.275163874659484-6.220713509113921,6.681533073675382.288354148080543,3.57572467058344,3.060469046176877,6.241915278229499,6.681533073677201,6.220713509113921,12.309306220906365-.072045510987664,24.618400569232108-.144136021033773,36.927496792633974-.216174031704213,3.379730008180559-.019783818030191,6.495449364869273-3.275163874659484,6.220713509113921-6.681533073677201-.288354148078724-3.575724670581621-3.060259048676016-6.241922778548542-6.681533073677201-6.220713509113921Z"/>
        <path class="cls-1" d="M246.687143875356924,116.100305227610079c-13.180999922362389.262297451779887-26.361789847218461.52458740324073-39.542577897000228.786929854080881-3.377824938706908.067235753382192-6.498340646319775,3.241309280476344-6.220713509112102,6.681533073677201.285014734014112,3.535210155998357,3.062074125735307,6.292742174267914,6.681533073677201,6.220713509112102,13.180788049779949-.262342450838332,26.361577974639658-.524632402299176,39.542577897000228-.786929854080881,3.377614941207867-.067228253066787,6.498130648818915-3.241301780157301,6.220713509112102-6.681533073677201-.285016609095692-3.535262655372208-3.062285998315929-6.292787173322722-6.681533073677201-6.220713509112102Z"/>
        <path class="cls-1" d="M201.944237383517248,92.348495247626488c.246821444776288-1.296007657734663.038178942888408-2.569282201251553-.530466405327388-3.637305973243201-.000324993672621-.321116203294878-.017866043841423-.647399812129152-.007452970186932-.932786458619375.041537926179444-1.138861617476323.083077727431373-2.277670735575157.124407531184261-3.416472353355857.07785806504944-2.135344907962462.155718005175004-4.270637316547436.233577945302386-6.405929725133319.077859940125563-2.135292408585883.155509882748447-4.270577316852723.233369822875829-6.405869725436787.040233007726783-1.104752018174622.07793479493921-2.209729028778384.13501447989438-3.313768588031962.028316725123659-.549436059736763.06084465078311-1.098707129588547.10117436040855-1.647363221836713.016180624506887-.223984883530647.034678721862292-.447842273060814.053604314543918-.671504665726388.000367492777514-.001484983156843.000335616427037-.002377472545049.000493111698233-.003854955382849.157245979657091-1.437365813020733.14482745627538-2.685793530661613-.66219922012715-3.958196924457297-.664659174748522-1.048193820280176-1.928559252784908-2.025309819125141-3.169153795166494-2.261599620822381-2.465315516790724-.469677168481212-5.905516452841766.959520105399861-6.219693421608099,3.831296765758452-.365700447124254,3.342508695488505-.527647018323478,6.702866784973594-.644959739036494,10.064837268870178-14.360962529664903,1.393931361635623-28.689630913722795,2.544063042741982-43.128615771716795,2.583570566948765-2.442203616517872.006694655285173-4.884009784636874-.010805404181156-7.325491598227018-.036885362849716-.204950390248996-1.128691259866173-.688284192961873-2.168853026611032-1.554581765793046-2.975504311390978-.927189462507158-.863140498950088-2.419778022984246-1.484782756691857-3.703325773865799-1.38127399205041-1.332608413236812.107468812937441-2.701253163038928.595333198885783-3.595347439539182,1.641955059531028-.615368203812977.720427676411418-1.114269965997664,1.605118185208994-1.30703085839923,2.548524906414968-8.547656804887083-.181053789288853-17.094768109982397-.423366855457061-25.644472136582408-.473352190201695-7.685333609999361-.044954569872061-15.372414360494076.084883797326256-23.045531530100561.535035850869463-.05958839455343-1.792013700198368-.131148521855721-3.583652381621505-.18212514370498-5.375921095499507-.077117449069192-2.700785423174239-2.57643587300845-5.199833535534708-5.345226458941397-4.976570807290045-2.808416361292984.226465267203821-5.059129817274879,2.450875834547332-4.976570807291864,5.345226458941397.134270674452637,4.713086523966922.297526629554341,9.42529550211475.492698454951096,14.136259433112173.095907739272661,2.320269885010021.199377263736096,4.640322257934713.310401073063986,6.95994712126685.055915972909133,1.165238616737042.118692611011284,2.393048980480671.541395365555218,3.489992693517706.799952066197875,2.075133918031497,2.382862096244935,3.68321683947579,4.595361302392121,4.19193903649284,2.629940707482092.604727752841427,5.695415580810732-1.078543291068854,6.21969342160628-3.83129676576209.304557050465519-1.598696691420628-.098110726228697-3.229694129982818-1.044879381961437-4.440860476788657-.04323500353712-.910271655411634-.085838139490079-1.820513312402909-.126975043076527-2.730912470375188-.036711772780109-.81593778322349-.068383605488634-1.632055574089463-.10341727332343-2.448105859239149,13.966895804969681-.817817408233168,27.963397778297804-.530012943963811,41.942366897979809-.209148836521308,2.542511306874076.058374381046633,5.085768849781743.114093792030872,7.629300131480704.165703251069317.061968641899512.322121071916627.118724847814519.64547963930454.183824701462072.966963212686096.240648216218688,1.192125440775271,1.455176916511846,2.447083250825017,2.481870850515406,2.99957722918225,1.129178454821158.607865625106569,2.769394483793803.823889891673389,3.995304752757875.378235283444155,1.234422662448196-.448692088826647,2.411537788504575-1.265614713520335,2.999524729806581-2.481868975439284.158779814282752-.417160376346146.317561503645265-.834268253317532.476341317928018-1.251428629668226.035329910906512-.152915760796532.05344002656966-.305216495482455.075330097286496-.457652235898422,8.437662898391864.074382763530593,16.874571740863757-.013637551628563,25.302808020576776-.509315530849562,7.842403271788498-.461297249967174,15.663599986688496-1.210216058703736,23.481654216535389-1.970587225965573-.0427790919166,1.174756195554437-.085560058916599,2.349459891731385-.128339150835018,3.524216087287641-.053398412916067,1.460255341113225-.18893593066241,2.881391303908458.188492392369881,4.317901090535088.567745603428193,2.16138334858806,2.270708645866762,3.798663192146705,4.427942973528843,4.355459927986885,2.614995395213555.67491195213006,5.704985370819486-1.128507718967739,6.219903419107141-3.831304266079314ZM198.995465169933595,86.44343077078338c-.018594171531731-.008429864299615-.03819707882576-.015667240741095-.056783750040267-.02388710753803.016610440025033.005872398380234.033432752632507.011789795813456.050043192655721.017662194191871.002176853293349.002077471221128.004353706586699.004154942441346.006740557384546.006224913346159Z"/>
        <g>
          <text class="cls-2" transform="translate(35.46014742704574 232.198612143867649) rotate(-4.631696847107841)"><tspan x="0" y="0">IQR</tspan></text>
          <text class="cls-2" transform="translate(35.46014742704574 232.198612143867649) rotate(-4.631696847107841)"><tspan x="0" y="0">IQR</tspan></text>
          <text class="cls-2" transform="translate(35.46014742704574 232.198612143867649) rotate(-4.631696847107841)"><tspan x="0" y="0">IQR</tspan></text>
          <text class="cls-2" transform="translate(35.46014742704574 232.198612143867649) rotate(-4.631696847107841)"><tspan x="0" y="0">IQR</tspan></text>
          <text class="cls-2" transform="translate(35.46014742704574 232.198612143867649) rotate(-4.631696847107841)"><tspan x="0" y="0">IQR</tspan></text>
        </g>
      </g>
      <g>
        <path class="cls-3" d="M74.416397817558391,119.617857606890539c-13.30230006003876,1.063588214476113-26.660847331526384,1.288228955605518-39.991369063061939.672699574473882-3.381809699727455-.156186597703709-6.485089869602234,3.400374874396221-6.220713509112102,6.68153307367902.300436795852875,3.725632875019073,3.05899307319487,6.053412509474583,6.681533073675382,6.220713509112102,13.330521731537374.615529381129818,26.689069003023178.390888640000412,39.991369063061939-.672699574475701,3.361167245062461-.268705839413087,6.509592668071491-3.096996008287533,6.220713509113921-6.681533073677201-.271274561520841-3.362442225008635-3.076315001550029-6.508964590586402-6.681533073677201-6.220713509112102Z"/>
        <path class="cls-3" d="M136.274514330172678,118.144185110497347c-13.122910813533963-1.455174857735983-26.326343095985067-.290300532276888-39.466184606748357.370819625033619-3.370804823267463.169594529739697-6.503900097575752,3.168072657019366-6.22071350911574,6.681533073675382.277889648357814,3.447573705805553,3.068096767306997,6.402495865138917,6.68153307367902,6.220713509112102,11.917033585497848-.5995735143606,24.010867085704376-1.777015540195862,35.931400719160592-.718508662335807.029553406944615.003254904229834.059091813252962.006089813454309.088435222693079.009352218003187,1.79478354373714.198991668275994,3.359508758314405.179376366799261,4.947832404237488-.827909804675073,1.310135401517982-.830872717653619,2.53148915046404-2.410798908262223,2.826834528299514-3.961278651824614.317333021166633-1.664860934030003.169648679197053-3.51559876923784-.82769605701651-4.947734905803372-.892722556160152-1.281590619058989-2.335115651167143-2.646631686024193-3.961441775189087-2.826986401185422Z"/>
        <path class="cls-3" d="M189.127631554889376,117.578146841493435c-12.309096223403685.07203801067044-24.618190571727609.144128520718368-36.927496792633974.216174031706032-3.379730008180559.019783818028372-6.495449364869273,3.275163874659484-6.220713509113921,6.681533073675382.288354148080543,3.57572467058344,3.060469046176877,6.241915278229499,6.681533073677201,6.220713509113921,12.309306220906365-.072045510987664,24.618400569232108-.144136021033773,36.927496792633974-.216174031704213,3.379730008180559-.019783818030191,6.495449364869273-3.275163874659484,6.220713509113921-6.681533073677201-.288354148078724-3.575724670581621-3.060259048676016-6.241922778548542-6.681533073677201-6.220713509113921Z"/>
        <path class="cls-3" d="M246.687143875356924,116.100305227610079c-13.180999922362389.262297451779887-26.361789847218461.52458740324073-39.542577897000228.786929854080881-3.377824938706908.067235753382192-6.498340646319775,3.241309280476344-6.220713509112102,6.681533073677201.285014734014112,3.535210155998357,3.062074125735307,6.292742174267914,6.681533073677201,6.220713509112102,13.180788049779949-.262342450838332,26.361577974639658-.524632402299176,39.542577897000228-.786929854080881,3.377614941207867-.067228253066787,6.498130648818915-3.241301780157301,6.220713509112102-6.681533073677201-.285016609095692-3.535262655372208-3.062285998315929-6.292787173322722-6.681533073677201-6.220713509112102Z"/>
        <path class="cls-3" d="M201.944237383517248,92.348495247626488c.246821444776288-1.296007657734663.038178942888408-2.569282201251553-.530466405327388-3.637305973243201-.000324993672621-.321116203294878-.017866043841423-.647399812129152-.007452970186932-.932786458619375.041537926179444-1.138861617476323.083077727431373-2.277670735575157.124407531184261-3.416472353355857.07785806504944-2.135344907962462.155718005175004-4.270637316547436.233577945302386-6.405929725133319.077859940125563-2.135292408585883.155509882748447-4.270577316852723.233369822875829-6.405869725436787.040233007726783-1.104752018174622.07793479493921-2.209729028778384.13501447989438-3.313768588031962.028316725123659-.549436059736763.06084465078311-1.098707129588547.10117436040855-1.647363221836713.016180624506887-.223984883530647.034678721862292-.447842273060814.053604314543918-.671504665726388.000367492777514-.001484983156843.000335616427037-.002377472545049.000493111698233-.003854955382849.157245979657091-1.437365813020733.14482745627538-2.685793530661613-.66219922012715-3.958196924457297-.664659174748522-1.048193820280176-1.928559252784908-2.025309819125141-3.169153795166494-2.261599620822381-2.465315516790724-.469677168481212-5.905516452841766.959520105399861-6.219693421608099,3.831296765758452-.365700447124254,3.342508695488505-.527647018323478,6.702866784973594-.644959739036494,10.064837268870178-14.360962529664903,1.393931361635623-28.689630913722795,2.544063042741982-43.128615771716795,2.583570566948765-2.442203616517872.006694655285173-4.884009784636874-.010805404181156-7.325491598227018-.036885362849716-.204950390248996-1.128691259866173-.688284192961873-2.168853026611032-1.554581765793046-2.975504311390978-.927189462507158-.863140498950088-2.419778022984246-1.484782756691857-3.703325773865799-1.38127399205041-1.332608413236812.107468812937441-2.701253163038928.595333198885783-3.595347439539182,1.641955059531028-.615368203812977.720427676411418-1.114269965997664,1.605118185208994-1.30703085839923,2.548524906414968-8.547656804887083-.181053789288853-17.094768109982397-.423366855457061-25.644472136582408-.473352190201695-7.685333609999361-.044954569872061-15.372414360494076.084883797326256-23.045531530100561.535035850869463-.05958839455343-1.792013700198368-.131148521855721-3.583652381621505-.18212514370498-5.375921095499507-.077117449069192-2.700785423174239-2.57643587300845-5.199833535534708-5.345226458941397-4.976570807290045-2.808416361292984.226465267203821-5.059129817274879,2.450875834547332-4.976570807291864,5.345226458941397.134270674452637,4.713086523966922.297526629554341,9.42529550211475.492698454951096,14.136259433112173.095907739272661,2.320269885010021.199377263736096,4.640322257934713.310401073063986,6.95994712126685.055915972909133,1.165238616737042.118692611011284,2.393048980480671.541395365555218,3.489992693517706.799952066197875,2.075133918031497,2.382862096244935,3.68321683947579,4.595361302392121,4.19193903649284,2.629940707482092.604727752841427,5.695415580810732-1.078543291068854,6.21969342160628-3.83129676576209.304557050465519-1.598696691420628-.098110726228697-3.229694129982818-1.044879381961437-4.440860476788657-.04323500353712-.910271655411634-.085838139490079-1.820513312402909-.126975043076527-2.730912470375188-.036711772780109-.81593778322349-.068383605488634-1.632055574089463-.10341727332343-2.448105859239149,13.966895804969681-.817817408233168,27.963397778297804-.530012943963811,41.942366897979809-.209148836521308,2.542511306874076.058374381046633,5.085768849781743.114093792030872,7.629300131480704.165703251069317.061968641899512.322121071916627.118724847814519.64547963930454.183824701462072.966963212686096.240648216218688,1.192125440775271,1.455176916511846,2.447083250825017,2.481870850515406,2.99957722918225,1.129178454821158.607865625106569,2.769394483793803.823889891673389,3.995304752757875.378235283444155,1.234422662448196-.448692088826647,2.411537788504575-1.265614713520335,2.999524729806581-2.481868975439284.158779814282752-.417160376346146.317561503645265-.834268253317532.476341317928018-1.251428629668226.035329910906512-.152915760796532.05344002656966-.305216495482455.075330097286496-.457652235898422,8.437662898391864.074382763530593,16.874571740863757-.013637551628563,25.302808020576776-.509315530849562,7.842403271788498-.461297249967174,15.663599986688496-1.210216058703736,23.481654216535389-1.970587225965573-.0427790919166,1.174756195554437-.085560058916599,2.349459891731385-.128339150835018,3.524216087287641-.053398412916067,1.460255341113225-.18893593066241,2.881391303908458.188492392369881,4.317901090535088.567745603428193,2.16138334858806,2.270708645866762,3.798663192146705,4.427942973528843,4.355459927986885,2.614995395213555.67491195213006,5.704985370819486-1.128507718967739,6.219903419107141-3.831304266079314ZM198.995465169933595,86.44343077078338c-.018594171531731-.008429864299615-.03819707882576-.015667240741095-.056783750040267-.02388710753803.016610440025033.005872398380234.033432752632507.011789795813456.050043192655721.017662194191871.002176853293349.002077471221128.004353706586699.004154942441346.006740557384546.006224913346159Z"/>
        <g>
          <text class="cls-4" transform="translate(35.46014742704574 232.198612143867649) rotate(-4.631696847107841)"><tspan x="0" y="0">IQR</tspan></text>
          <text class="cls-4" transform="translate(35.46014742704574 232.198612143867649) rotate(-4.631696847107841)"><tspan x="0" y="0">IQR</tspan></text>
          <text class="cls-4" transform="translate(35.46014742704574 232.198612143867649) rotate(-4.631696847107841)"><tspan x="0" y="0">IQR</tspan></text>
          <text class="cls-4" transform="translate(35.46014742704574 232.198612143867649) rotate(-4.631696847107841)"><tspan x="0" y="0">IQR</tspan></text>
          <text class="cls-4" transform="translate(35.46014742704574 232.198612143867649) rotate(-4.631696847107841)"><tspan x="0" y="0">IQR</tspan></text>
        </g>
      </g>
      <g>
        <path class="cls-5" d="M74.416397817558391,119.617857606890539c-13.30230006003876,1.063588214476113-26.660847331526384,1.288228955605518-39.991369063061939.672699574473882-3.381809699727455-.156186597703709-6.485089869602234,3.400374874396221-6.220713509112102,6.68153307367902.300436795852875,3.725632875019073,3.05899307319487,6.053412509474583,6.681533073675382,6.220713509112102,13.330521731537374.615529381129818,26.689069003023178.390888640000412,39.991369063061939-.672699574475701,3.361167245062461-.268705839413087,6.509592668071491-3.096996008287533,6.220713509113921-6.681533073677201-.271274561520841-3.362442225008635-3.076315001550029-6.508964590586402-6.681533073677201-6.220713509112102Z"/>
        <path class="cls-5" d="M136.274514330172678,118.144185110497347c-13.122910813533963-1.455174857735983-26.326343095985067-.290300532276888-39.466184606748357.370819625033619-3.370804823267463.169594529739697-6.503900097575752,3.168072657019366-6.22071350911574,6.681533073675382.277889648357814,3.447573705805553,3.068096767306997,6.402495865138917,6.68153307367902,6.220713509112102,11.917033585497848-.5995735143606,24.010867085704376-1.777015540195862,35.931400719160592-.718508662335807.029553406944615.003254904229834.059091813252962.006089813454309.088435222693079.009352218003187,1.79478354373714.198991668275994,3.359508758314405.179376366799261,4.947832404237488-.827909804675073,1.310135401517982-.830872717653619,2.53148915046404-2.410798908262223,2.826834528299514-3.961278651824614.317333021166633-1.664860934030003.169648679197053-3.51559876923784-.82769605701651-4.947734905803372-.892722556160152-1.281590619058989-2.335115651167143-2.646631686024193-3.961441775189087-2.826986401185422Z"/>
        <path class="cls-5" d="M189.127631554889376,117.578146841493435c-12.309096223403685.07203801067044-24.618190571727609.144128520718368-36.927496792633974.216174031706032-3.379730008180559.019783818028372-6.495449364869273,3.275163874659484-6.220713509113921,6.681533073675382.288354148080543,3.57572467058344,3.060469046176877,6.241915278229499,6.681533073677201,6.220713509113921,12.309306220906365-.072045510987664,24.618400569232108-.144136021033773,36.927496792633974-.216174031704213,3.379730008180559-.019783818030191,6.495449364869273-3.275163874659484,6.220713509113921-6.681533073677201-.288354148078724-3.575724670581621-3.060259048676016-6.241922778548542-6.681533073677201-6.220713509113921Z"/>
        <path class="cls-5" d="M246.687143875356924,116.100305227610079c-13.180999922362389.262297451779887-26.361789847218461.52458740324073-39.542577897000228.786929854080881-3.377824938706908.067235753382192-6.498340646319775,3.241309280476344-6.220713509112102,6.681533073677201.285014734014112,3.535210155998357,3.062074125735307,6.292742174267914,6.681533073677201,6.220713509112102,13.180788049779949-.262342450838332,26.361577974639658-.524632402299176,39.542577897000228-.786929854080881,3.377614941207867-.067228253066787,6.498130648818915-3.241301780157301,6.220713509112102-6.681533073677201-.285016609095692-3.535262655372208-3.062285998315929-6.292787173322722-6.681533073677201-6.220713509112102Z"/>
        <path class="cls-5" d="M201.944237383517248,92.348495247626488c.246821444776288-1.296007657734663.038178942888408-2.569282201251553-.530466405327388-3.637305973243201-.000324993672621-.321116203294878-.017866043841423-.647399812129152-.007452970186932-.932786458619375.041537926179444-1.138861617476323.083077727431373-2.277670735575157.124407531184261-3.416472353355857.07785806504944-2.135344907962462.155718005175004-4.270637316547436.233577945302386-6.405929725133319.077859940125563-2.135292408585883.155509882748447-4.270577316852723.233369822875829-6.405869725436787.040233007726783-1.104752018174622.07793479493921-2.209729028778384.13501447989438-3.313768588031962.028316725123659-.549436059736763.06084465078311-1.098707129588547.10117436040855-1.647363221836713.016180624506887-.223984883530647.034678721862292-.447842273060814.053604314543918-.671504665726388.000367492777514-.001484983156843.000335616427037-.002377472545049.000493111698233-.003854955382849.157245979657091-1.437365813020733.14482745627538-2.685793530661613-.66219922012715-3.958196924457297-.664659174748522-1.048193820280176-1.928559252784908-2.025309819125141-3.169153795166494-2.261599620822381-2.465315516790724-.469677168481212-5.905516452841766.959520105399861-6.219693421608099,3.831296765758452-.365700447124254,3.342508695488505-.527647018323478,6.702866784973594-.644959739036494,10.064837268870178-14.360962529664903,1.393931361635623-28.689630913722795,2.544063042741982-43.128615771716795,2.583570566948765-2.442203616517872.006694655285173-4.884009784636874-.010805404181156-7.325491598227018-.036885362849716-.204950390248996-1.128691259866173-.688284192961873-2.168853026611032-1.554581765793046-2.975504311390978-.927189462507158-.863140498950088-2.419778022984246-1.484782756691857-3.703325773865799-1.38127399205041-1.332608413236812.107468812937441-2.701253163038928.595333198885783-3.595347439539182,1.641955059531028-.615368203812977.720427676411418-1.114269965997664,1.605118185208994-1.30703085839923,2.548524906414968-8.547656804887083-.181053789288853-17.094768109982397-.423366855457061-25.644472136582408-.473352190201695-7.685333609999361-.044954569872061-15.372414360494076.084883797326256-23.045531530100561.535035850869463-.05958839455343-1.792013700198368-.131148521855721-3.583652381621505-.18212514370498-5.375921095499507-.077117449069192-2.700785423174239-2.57643587300845-5.199833535534708-5.345226458941397-4.976570807290045-2.808416361292984.226465267203821-5.059129817274879,2.450875834547332-4.976570807291864,5.345226458941397.134270674452637,4.713086523966922.297526629554341,9.42529550211475.492698454951096,14.136259433112173.095907739272661,2.320269885010021.199377263736096,4.640322257934713.310401073063986,6.95994712126685.055915972909133,1.165238616737042.118692611011284,2.393048980480671.541395365555218,3.489992693517706.799952066197875,2.075133918031497,2.382862096244935,3.68321683947579,4.595361302392121,4.19193903649284,2.629940707482092.604727752841427,5.695415580810732-1.078543291068854,6.21969342160628-3.83129676576209.304557050465519-1.598696691420628-.098110726228697-3.229694129982818-1.044879381961437-4.440860476788657-.04323500353712-.910271655411634-.085838139490079-1.820513312402909-.126975043076527-2.730912470375188-.036711772780109-.81593778322349-.068383605488634-1.632055574089463-.10341727332343-2.448105859239149,13.966895804969681-.817817408233168,27.963397778297804-.530012943963811,41.942366897979809-.209148836521308,2.542511306874076.058374381046633,5.085768849781743.114093792030872,7.629300131480704.165703251069317.061968641899512.322121071916627.118724847814519.64547963930454.183824701462072.966963212686096.240648216218688,1.192125440775271,1.455176916511846,2.447083250825017,2.481870850515406,2.99957722918225,1.129178454821158.607865625106569,2.769394483793803.823889891673389,3.995304752757875.378235283444155,1.234422662448196-.448692088826647,2.411537788504575-1.265614713520335,2.999524729806581-2.481868975439284.158779814282752-.417160376346146.317561503645265-.834268253317532.476341317928018-1.251428629668226.035329910906512-.152915760796532.05344002656966-.305216495482455.075330097286496-.457652235898422,8.437662898391864.074382763530593,16.874571740863757-.013637551628563,25.302808020576776-.509315530849562,7.842403271788498-.461297249967174,15.663599986688496-1.210216058703736,23.481654216535389-1.970587225965573-.0427790919166,1.174756195554437-.085560058916599,2.349459891731385-.128339150835018,3.524216087287641-.053398412916067,1.460255341113225-.18893593066241,2.881391303908458.188492392369881,4.317901090535088.567745603428193,2.16138334858806,2.270708645866762,3.798663192146705,4.427942973528843,4.355459927986885,2.614995395213555.67491195213006,5.704985370819486-1.128507718967739,6.219903419107141-3.831304266079314ZM198.995465169933595,86.44343077078338c-.018594171531731-.008429864299615-.03819707882576-.015667240741095-.056783750040267-.02388710753803.016610440025033.005872398380234.033432752632507.011789795813456.050043192655721.017662194191871.002176853293349.002077471221128.004353706586699.004154942441346.006740557384546.006224913346159Z"/>
        <g>
          <text class="cls-6" transform="translate(35.46014742704574 232.198612143867649) rotate(-4.631696847107841)"><tspan x="0" y="0">IQR</tspan></text>
          <text class="cls-6" transform="translate(35.46014742704574 232.198612143867649) rotate(-4.631696847107841)"><tspan x="0" y="0">IQR</tspan></text>
          <text class="cls-6" transform="translate(35.46014742704574 232.198612143867649) rotate(-4.631696847107841)"><tspan x="0" y="0">IQR</tspan></text>
          <text class="cls-6" transform="translate(35.46014742704574 232.198612143867649) rotate(-4.631696847107841)"><tspan x="0" y="0">IQR</tspan></text>
          <text class="cls-6" transform="translate(35.46014742704574 232.198612143867649) rotate(-4.631696847107841)"><tspan x="0" y="0">IQR</tspan></text>
        </g>
      </g>
    </g>
  </a>
</svg>