<?xml version="1.0" encoding="UTF-8"?>
<svg id="Content" xmlns="http://www.w3.org/2000/svg" viewBox="0 0 280 280">
  <defs>
    <style>
      .cls-1 {
        stroke: #665451;
        stroke-width: 50px;
      }

      .cls-1, .cls-2 {
        fill: none;
        stroke-linecap: round;
        stroke-linejoin: round;
      }

      .cls-3 {
        fill: #fff;
      }

      .cls-2 {
        stroke: #998675;
        stroke-width: 2px;
      }
    </style>
  </defs>
  <g>
    <path d="M225.399482850920322,68.200963076197695c-.942947681280202-5.881148529708298,7.900603251719076-13.986605407013485,6.957631861680056-19.867852549868076-.258911912331314-1.61479604710803-10.663370425971152,1.325170042059653-14.784144305360314,2.391836056282955-4.325650458660675,1.119678191336789-15.22253035787071,3.854207911992489-14.945124108669916,5.58430912797121.942971390029925,5.881247142852772,13.954340969268742,9.781100195734325,14.897288650548944,15.662248725443533.258911912331314,1.614796047108939,3.230314040931262,2.900416430637051,4.333431722570822,2.455762640985085,3.740383493970512-1.507704683759584,3.818346137190019-4.496104171692423,3.540916179230408-6.226304000814707Z"/>
    <path d="M225.615243398740859,89.747448688440272c-10.961326983240724,2.452778262041647-166.985138403810197,36.965399711093596-177.946280853251665,39.418179640357266-2.808998047268688.628575652788641-4.876638076138988,3.807670898169818-4.061816659010219,6.633115544739667.83708707643018,2.903503722242931,3.623171888109937,4.735343666054177,6.633115544740576,4.061816659002943,10.961142449439649-2.45277992926458,166.984953870010941-36.965401378315619,177.94628085326076-39.418179640356357,2.80882397610003-.628533802220772,4.87646400497033-3.807629047601949,4.061816658999305-6.633115544736938-.837097539069873-2.90354724003555-3.623356421909193-4.735345333279838-6.633115544738757-4.061816659006581Z"/>
  </g>
  <g>
    <path class="cls-1" d="M225.399482850920322,68.200963076197695c-.942947681280202-5.881148529708298,7.900603251719076-13.986605407013485,6.957631861680056-19.867852549868076-.258911912331314-1.61479604710803-10.663370425971152,1.325170042059653-14.784144305360314,2.391836056282955-4.325650458660675,1.119678191336789-15.22253035787071,3.854207911992489-14.945124108669916,5.58430912797121.942971390029925,5.881247142852772,13.954340969268742,9.781100195734325,14.897288650548944,15.662248725443533.258911912331314,1.614796047108939,3.230314040931262,2.900416430637051,4.333431722570822,2.455762640985085,3.740383493970512-1.507704683759584,3.818346137190019-4.496104171692423,3.540916179230408-6.226304000814707Z"/>
    <path class="cls-1" d="M225.615243398740859,89.747448688440272c-10.961326983240724,2.452778262041647-166.985138403810197,36.965399711093596-177.946280853251665,39.418179640357266-2.808998047268688.628575652788641-4.876638076138988,3.807670898169818-4.061816659010219,6.633115544739667.83708707643018,2.903503722242931,3.623171888109937,4.735343666054177,6.633115544740576,4.061816659002943,10.961142449439649-2.45277992926458,166.984953870010941-36.965401378315619,177.94628085326076-39.418179640356357,2.80882397610003-.628533802220772,4.87646400497033-3.807629047601949,4.061816658999305-6.633115544736938-.837097539069873-2.90354724003555-3.623356421909193-4.735345333279838-6.633115544738757-4.061816659006581Z"/>
  </g>
  <g>
    <path class="cls-2" d="M225.399482850920322,68.200963076197695c-.942947681280202-5.881148529708298,7.900603251719076-13.986605407013485,6.957631861680056-19.867852549868076-.258911912331314-1.61479604710803-10.663370425971152,1.325170042059653-14.784144305360314,2.391836056282955-4.325650458660675,1.119678191336789-15.22253035787071,3.854207911992489-14.945124108669916,5.58430912797121.942971390029925,5.881247142852772,13.954340969268742,9.781100195734325,14.897288650548944,15.662248725443533.258911912331314,1.614796047108939,3.230314040931262,2.900416430637051,4.333431722570822,2.455762640985085,3.740383493970512-1.507704683759584,3.818346137190019-4.496104171692423,3.540916179230408-6.226304000814707Z"/>
    <path class="cls-2" d="M225.615243398740859,89.747448688440272c-10.961326983240724,2.452778262041647-166.985138403810197,36.965399711093596-177.946280853251665,39.418179640357266-2.808998047268688.628575652788641-4.876638076138988,3.807670898169818-4.061816659010219,6.633115544739667.83708707643018,2.903503722242931,3.623171888109937,4.735343666054177,6.633115544740576,4.061816659002943,10.961142449439649-2.45277992926458,166.984953870010941-36.965401378315619,177.94628085326076-39.418179640356357,2.80882397610003-.628533802220772,4.87646400497033-3.807629047601949,4.061816658999305-6.633115544736938-.837097539069873-2.90354724003555-3.623356421909193-4.735345333279838-6.633115544738757-4.061816659006581Z"/>
  </g>
  <g>
    <path class="cls-3" d="M225.399482850920322,68.200963076197695c-.942947681280202-5.881148529708298,7.900603251719076-13.986605407013485,6.957631861680056-19.867852549868076-.258911912331314-1.61479604710803-10.663370425971152,1.325170042059653-14.784144305360314,2.391836056282955-4.325650458660675,1.119678191336789-15.22253035787071,3.854207911992489-14.945124108669916,5.58430912797121.942971390029925,5.881247142852772,13.954340969268742,9.781100195734325,14.897288650548944,15.662248725443533.258911912331314,1.614796047108939,3.230314040931262,2.900416430637051,4.333431722570822,2.455762640985085,3.740383493970512-1.507704683759584,3.818346137190019-4.496104171692423,3.540916179230408-6.226304000814707Z"/>
    <path class="cls-3" d="M225.615243398740859,89.747448688440272c-10.961326983240724,2.452778262041647-166.985138403810197,36.965399711093596-177.946280853251665,39.418179640357266-2.808998047268688.628575652788641-4.876638076138988,3.807670898169818-4.061816659010219,6.633115544739667.83708707643018,2.903503722242931,3.623171888109937,4.735343666054177,6.633115544740576,4.061816659002943,10.961142449439649-2.45277992926458,166.984953870010941-36.965401378315619,177.94628085326076-39.418179640356357,2.80882397610003-.628533802220772,4.87646400497033-3.807629047601949,4.061816658999305-6.633115544736938-.837097539069873-2.90354724003555-3.623356421909193-4.735345333279838-6.633115544738757-4.061816659006581Z"/>
  </g>
</svg>