<?xml version="1.0" encoding="UTF-8"?>
<svg id="Content" xmlns="http://www.w3.org/2000/svg" viewBox="0 0 280 280">
  <defs>
    <style>
      .cls-1 {
        stroke: #665451;
        stroke-width: 50px;
      }

      .cls-1, .cls-2 {
        fill: none;
        stroke-linecap: round;
        stroke-linejoin: round;
      }

      .cls-3 {
        fill: #fff;
      }

      .cls-2 {
        stroke: #998675;
        stroke-width: 2px;
      }
    </style>
  </defs>
  <g>
    <path d="M225.39948285092305,68.200963076197695c-.94294768128475-5.881148529708298,7.900603251713619-13.986605407013485,6.957631861680056-19.867852549868076-.258911912329495-1.61479604710803-10.663370425977519,1.325170042059653-14.784144305360314,2.391836056282955-4.325650458663404,1.119678191336789-15.222530357875257,3.854207911992489-14.945124108675373,5.58430912797121.942971390036291,5.881247142852772,13.954340969267832,9.781100195734325,14.897288650551673,15.662248725443533.258911912327676,1.614796047108939,3.23031404093399,2.900416430637051,4.33343172257355,2.455762640985085,3.740383493965965-1.507704683759584,3.818346137186381-4.496104171692423,3.540916179230408-6.226304000814707Z"/>
    <path d="M225.615243398741768,89.747448688440272c-10.961326983242543,2.452778262041647-166.985138403813835,36.965399711093596-177.946280853252574,39.418179640358176-2.808998047269597.628575652787731-4.87663807613535,3.807670898168908-4.061816659004762,6.633115544738757.837087076427451,2.903503722242931,3.623171888109937,4.735343666054177,6.633115544737848,4.061816659002943,10.96114244943783-2.45277992926458,166.984953870010941-36.965401378315619,177.946280853252574-39.418179640356357,2.808823976110034-.628533802220772,4.876464004973059-3.807629047601949,4.061816659003853-6.633115544736938-.837097539068054-2.90354724003555-3.623356421911922-4.735345333279838-6.633115544736938-4.061816659006581Z"/>
  </g>
  <g>
    <path class="cls-1" d="M225.39948285092305,68.200963076197695c-.94294768128475-5.881148529708298,7.900603251713619-13.986605407013485,6.957631861680056-19.867852549868076-.258911912329495-1.61479604710803-10.663370425977519,1.325170042059653-14.784144305360314,2.391836056282955-4.325650458663404,1.119678191336789-15.222530357875257,3.854207911992489-14.945124108675373,5.58430912797121.942971390036291,5.881247142852772,13.954340969267832,9.781100195734325,14.897288650551673,15.662248725443533.258911912327676,1.614796047108939,3.23031404093399,2.900416430637051,4.33343172257355,2.455762640985085,3.740383493965965-1.507704683759584,3.818346137186381-4.496104171692423,3.540916179230408-6.226304000814707Z"/>
    <path class="cls-1" d="M225.615243398741768,89.747448688440272c-10.961326983242543,2.452778262041647-166.985138403813835,36.965399711093596-177.946280853252574,39.418179640358176-2.808998047269597.628575652787731-4.87663807613535,3.807670898168908-4.061816659004762,6.633115544738757.837087076427451,2.903503722242931,3.623171888109937,4.735343666054177,6.633115544737848,4.061816659002943,10.96114244943783-2.45277992926458,166.984953870010941-36.965401378315619,177.946280853252574-39.418179640356357,2.808823976110034-.628533802220772,4.876464004973059-3.807629047601949,4.061816659003853-6.633115544736938-.837097539068054-2.90354724003555-3.623356421911922-4.735345333279838-6.633115544736938-4.061816659006581Z"/>
  </g>
  <g>
    <path class="cls-2" d="M225.39948285092305,68.200963076197695c-.94294768128475-5.881148529708298,7.900603251713619-13.986605407013485,6.957631861680056-19.867852549868076-.258911912329495-1.61479604710803-10.663370425977519,1.325170042059653-14.784144305360314,2.391836056282955-4.325650458663404,1.119678191336789-15.222530357875257,3.854207911992489-14.945124108675373,5.58430912797121.942971390036291,5.881247142852772,13.954340969267832,9.781100195734325,14.897288650551673,15.662248725443533.258911912327676,1.614796047108939,3.23031404093399,2.900416430637051,4.33343172257355,2.455762640985085,3.740383493965965-1.507704683759584,3.818346137186381-4.496104171692423,3.540916179230408-6.226304000814707Z"/>
    <path class="cls-2" d="M225.615243398741768,89.747448688440272c-10.961326983242543,2.452778262041647-166.985138403813835,36.965399711093596-177.946280853252574,39.418179640358176-2.808998047269597.628575652787731-4.87663807613535,3.807670898168908-4.061816659004762,6.633115544738757.837087076427451,2.903503722242931,3.623171888109937,4.735343666054177,6.633115544737848,4.061816659002943,10.96114244943783-2.45277992926458,166.984953870010941-36.965401378315619,177.946280853252574-39.418179640356357,2.808823976110034-.628533802220772,4.876464004973059-3.807629047601949,4.061816659003853-6.633115544736938-.837097539068054-2.90354724003555-3.623356421911922-4.735345333279838-6.633115544736938-4.061816659006581Z"/>
  </g>
  <g>
    <path class="cls-3" d="M225.39948285092305,68.200963076197695c-.94294768128475-5.881148529708298,7.900603251713619-13.986605407013485,6.957631861680056-19.867852549868076-.258911912329495-1.61479604710803-10.663370425977519,1.325170042059653-14.784144305360314,2.391836056282955-4.325650458663404,1.119678191336789-15.222530357875257,3.854207911992489-14.945124108675373,5.58430912797121.942971390036291,5.881247142852772,13.954340969267832,9.781100195734325,14.897288650551673,15.662248725443533.258911912327676,1.614796047108939,3.23031404093399,2.900416430637051,4.33343172257355,2.455762640985085,3.740383493965965-1.507704683759584,3.818346137186381-4.496104171692423,3.540916179230408-6.226304000814707Z"/>
    <path class="cls-3" d="M225.615243398741768,89.747448688440272c-10.961326983242543,2.452778262041647-166.985138403813835,36.965399711093596-177.946280853252574,39.418179640358176-2.808998047269597.628575652787731-4.87663807613535,3.807670898168908-4.061816659004762,6.633115544738757.837087076427451,2.903503722242931,3.623171888109937,4.735343666054177,6.633115544737848,4.061816659002943,10.96114244943783-2.45277992926458,166.984953870010941-36.965401378315619,177.946280853252574-39.418179640356357,2.808823976110034-.628533802220772,4.876464004973059-3.807629047601949,4.061816659003853-6.633115544736938-.837097539068054-2.90354724003555-3.623356421911922-4.735345333279838-6.633115544736938-4.061816659006581Z"/>
  </g>
</svg>