<?xml version="1.0" encoding="UTF-8"?>
<svg id="Content" xmlns="http://www.w3.org/2000/svg" viewBox="0 0 280 280">
  <defs>
    <style>
      .cls-1 {
        stroke: #665451;
        stroke-width: 50px;
      }

      .cls-1, .cls-2 {
        fill: none;
        stroke-linecap: round;
        stroke-linejoin: round;
      }

      .cls-3 {
        fill: #fff;
      }

      .cls-2 {
        stroke: #998675;
        stroke-width: 2px;
      }
    </style>
  </defs>
  <path d="M104.523193359375,60.5c3.597900390625-6.17626953125,8.199951171875-10.9716796875,13.803955078125-14.38671875,5.60205078125-3.41357421875,11.362060546875-5.1982421875,17.275146484375-5.357421875,5.9130859375-.1572265625,11.53466796875,1.48046875,16.867431640625,4.9130859375,5.330322265625,3.43359375,9.4794921875,8.9716796875,12.44140625,16.609375,3.41162109375,8.5712890625,5.7265625,18.02587890625,6.9501953125,28.35986328125,1.22119140625,10.33740234375,2.1630859375,20.626953125,2.82373046875,30.86865234375.22802734375,3.4892578125-.505859375,5.89111328125-2.203125,7.20654296875-1.7001953125,1.31640625-3.99951171875,2.21728515625-6.90380859375,2.70361328125-1.9453125.25048828125-3.92236328125.4765625-5.927734375.68017578125-2.0087890625.2021484375-3.893798828125.06201171875-5.65869140625-.42431640625-1.767578125-.4853515625-3.31005859375-1.38623046875-4.633056640625-2.7001953125-1.322998046875-1.3115234375-2.214111328125-3.3115234375-2.668701171875-6.0009765625-.69140625-3.6455078125-1.13720703125-7.3251953125-1.33984375-11.03564453125-.20458984375-3.70654296875-.3828125-7.44921875-.5390625-11.220703125-.15625-3.77001953125-.42431640625-7.5517578125-.80322265625-11.35009765625-.380615234375-3.7958984375-1.1435546875-7.60009765625-2.29345703125-11.4072265625-1.7666015625-6.03564453125-4.170654296875-9.98193359375-7.21240234375-11.84375-3.04150390625-1.85986328125-6.0400390625-1.88427734375-8.99267578125-.0771484375-2.955078125,1.80908203125-5.46240234375,5.37451171875-7.52197265625,10.693359375-2.0625,5.32080078125-2.94287109375,12.1376953125-2.639892578125,20.44775390625.151611328125,4.5947265625.476318359375,9.2509765625.975341796875,13.9658203125.496826171875,4.71533203125,1.22216796875,9.484375,2.173095703125,14.306640625.60302734375,2.12158203125.582275390625,3.88037109375-.061279296875,5.28271484375-.64306640625,1.4013671875-1.6455078125,2.57568359375-3.00732421875,3.5185546875-1.36181640625.94482421875-2.891357421875,1.6650390625-4.58447265625,2.15625-1.6953125.49365234375-3.29931640625.8369140625-4.8115234375,1.0322265625-4.10888671875.529296875-7.34912109375-.31494140625-9.7216796875-2.5380859375-2.37451171875-2.220703125-4.05029296875-5.412109375-5.02392578125-9.5712890625-.8115234375-3.740234375-1.256103515625-7.6103515625-1.33154296875-11.61376953125-.07763671875-3.99951171875-.25830078125-7.95947265625-.5419921875-11.87890625-.14208984375-5.36474609375-.94970703125-9.931640625-2.423828125-13.69775390625-1.47412109375-3.765625-3.23486328125-6.5595703125-5.283203125-8.38330078125-2.0478515625-1.8232421875-4.2099609375-2.61572265625-6.48681640625-2.37890625-2.27685546875.23974609375-4.29052734375,1.6806640625-6.0361328125,4.32177734375-1.748046875,2.6435546875-3.08544921875,6.552734375-4.0107421875,11.72412109375-.92724609375,5.1748046875-1.092529296875,11.7890625-.49267578125,19.841796875l3.51513671875,23.4453125c-.092041015625,1.00146484375-.35107421875,1.96923828125-.779296875,2.90283203125-.44482421875.82666015625-1.109375,1.625-1.998291015625,2.39990234375-.889404296875.77392578125-2.239990234375,1.3857421875-4.048583984375,1.83984375-1.91748046875.4658203125-3.87353515625.8544921875-5.864990234375,1.16796875-1.994140625.3115234375-3.8759765625.4169921875-5.645751953125.3154296875-1.77197265625-.1015625-3.364013671875-.52685546875-4.77978515625-1.279296875-1.4150390625-.7509765625-2.4033203125-2.0234375-2.96435546875-3.82080078125-.1923828125-.63525390625-.5517578125-3.00439453125-1.0810546875-7.11279296875-.529296875-4.1064453125-1.14111328125-9.05419921875-1.83056640625-14.84423828125-.69140625-5.7890625-1.4150390625-12.041015625-2.16943359375-18.7578125-.7568359375-6.7138671875-1.427734375-13.00146484375-2.01806640625-18.85888671875-.589599609375-5.85693359375-1.068115234375-10.8486328125-1.43505859375-14.97900390625-.367431640625-4.126953125-.546142578125-6.5751953125-.53466796875-7.34716796875-.3154296875-.7265625-.289794921875-1.38916015625.0732421875-1.98681640625.14599609375-.56787109375.5732421875-1.08935546875,1.28173828125-1.56689453125.7060546875-.47412109375,1.8095703125-.86376953125,3.310546875-1.16748046875,1.3896484375-.2880859375,3.08154296875-.58837890625,5.07568359375-.90087890625,1.991943359375-.3115234375,3.9130859375-.5302734375,5.765625-.66162109375,1.850830078125-.12744140625,3.4541015625-.0576171875,4.80615234375.20458984375,1.352783203125.2666015625,2.14501953125.87744140625,2.37939453125,1.8359375l1.52001953125,10.51806640625c3.1630859375-3.59326171875,6.68505859375-6.51904296875,10.57080078125-8.77880859375,3.8837890625-2.2568359375,7.906494140625-3.65576171875,12.068603515625-4.19189453125,4.159423828125-.5361328125,8.334716796875-.11083984375,12.524658203125,1.2705078125,4.18798828125,1.38427734375,8.222412109375,3.9130859375,12.102783203125,7.587890625Z"/>
  <path class="cls-1" d="M104.523193359375,60.5c3.597900390625-6.17626953125,8.199951171875-10.9716796875,13.803955078125-14.38671875,5.60205078125-3.41357421875,11.362060546875-5.1982421875,17.275146484375-5.357421875,5.9130859375-.1572265625,11.53466796875,1.48046875,16.867431640625,4.9130859375,5.330322265625,3.43359375,9.4794921875,8.9716796875,12.44140625,16.609375,3.41162109375,8.5712890625,5.7265625,18.02587890625,6.9501953125,28.35986328125,1.22119140625,10.33740234375,2.1630859375,20.626953125,2.82373046875,30.86865234375.22802734375,3.4892578125-.505859375,5.89111328125-2.203125,7.20654296875-1.7001953125,1.31640625-3.99951171875,2.21728515625-6.90380859375,2.70361328125-1.9453125.25048828125-3.92236328125.4765625-5.927734375.68017578125-2.0087890625.2021484375-3.893798828125.06201171875-5.65869140625-.42431640625-1.767578125-.4853515625-3.31005859375-1.38623046875-4.633056640625-2.7001953125-1.322998046875-1.3115234375-2.214111328125-3.3115234375-2.668701171875-6.0009765625-.69140625-3.6455078125-1.13720703125-7.3251953125-1.33984375-11.03564453125-.20458984375-3.70654296875-.3828125-7.44921875-.5390625-11.220703125-.15625-3.77001953125-.42431640625-7.5517578125-.80322265625-11.35009765625-.380615234375-3.7958984375-1.1435546875-7.60009765625-2.29345703125-11.4072265625-1.7666015625-6.03564453125-4.170654296875-9.98193359375-7.21240234375-11.84375-3.04150390625-1.85986328125-6.0400390625-1.88427734375-8.99267578125-.0771484375-2.955078125,1.80908203125-5.46240234375,5.37451171875-7.52197265625,10.693359375-2.0625,5.32080078125-2.94287109375,12.1376953125-2.639892578125,20.44775390625.151611328125,4.5947265625.476318359375,9.2509765625.975341796875,13.9658203125.496826171875,4.71533203125,1.22216796875,9.484375,2.173095703125,14.306640625.60302734375,2.12158203125.582275390625,3.88037109375-.061279296875,5.28271484375-.64306640625,1.4013671875-1.6455078125,2.57568359375-3.00732421875,3.5185546875-1.36181640625.94482421875-2.891357421875,1.6650390625-4.58447265625,2.15625-1.6953125.49365234375-3.29931640625.8369140625-4.8115234375,1.0322265625-4.10888671875.529296875-7.34912109375-.31494140625-9.7216796875-2.5380859375-2.37451171875-2.220703125-4.05029296875-5.412109375-5.02392578125-9.5712890625-.8115234375-3.740234375-1.256103515625-7.6103515625-1.33154296875-11.61376953125-.07763671875-3.99951171875-.25830078125-7.95947265625-.5419921875-11.87890625-.14208984375-5.36474609375-.94970703125-9.931640625-2.423828125-13.69775390625-1.47412109375-3.765625-3.23486328125-6.5595703125-5.283203125-8.38330078125-2.0478515625-1.8232421875-4.2099609375-2.61572265625-6.48681640625-2.37890625-2.27685546875.23974609375-4.29052734375,1.6806640625-6.0361328125,4.32177734375-1.748046875,2.6435546875-3.08544921875,6.552734375-4.0107421875,11.72412109375-.92724609375,5.1748046875-1.092529296875,11.7890625-.49267578125,19.841796875l3.51513671875,23.4453125c-.092041015625,1.00146484375-.35107421875,1.96923828125-.779296875,2.90283203125-.44482421875.82666015625-1.109375,1.625-1.998291015625,2.39990234375-.889404296875.77392578125-2.239990234375,1.3857421875-4.048583984375,1.83984375-1.91748046875.4658203125-3.87353515625.8544921875-5.864990234375,1.16796875-1.994140625.3115234375-3.8759765625.4169921875-5.645751953125.3154296875-1.77197265625-.1015625-3.364013671875-.52685546875-4.77978515625-1.279296875-1.4150390625-.7509765625-2.4033203125-2.0234375-2.96435546875-3.82080078125-.1923828125-.63525390625-.5517578125-3.00439453125-1.0810546875-7.11279296875-.529296875-4.1064453125-1.14111328125-9.05419921875-1.83056640625-14.84423828125-.69140625-5.7890625-1.4150390625-12.041015625-2.16943359375-18.7578125-.7568359375-6.7138671875-1.427734375-13.00146484375-2.01806640625-18.85888671875-.589599609375-5.85693359375-1.068115234375-10.8486328125-1.43505859375-14.97900390625-.367431640625-4.126953125-.546142578125-6.5751953125-.53466796875-7.34716796875-.3154296875-.7265625-.289794921875-1.38916015625.0732421875-1.98681640625.14599609375-.56787109375.5732421875-1.08935546875,1.28173828125-1.56689453125.7060546875-.47412109375,1.8095703125-.86376953125,3.310546875-1.16748046875,1.3896484375-.2880859375,3.08154296875-.58837890625,5.07568359375-.90087890625,1.991943359375-.3115234375,3.9130859375-.5302734375,5.765625-.66162109375,1.850830078125-.12744140625,3.4541015625-.0576171875,4.80615234375.20458984375,1.352783203125.2666015625,2.14501953125.87744140625,2.37939453125,1.8359375l1.52001953125,10.51806640625c3.1630859375-3.59326171875,6.68505859375-6.51904296875,10.57080078125-8.77880859375,3.8837890625-2.2568359375,7.906494140625-3.65576171875,12.068603515625-4.19189453125,4.159423828125-.5361328125,8.334716796875-.11083984375,12.524658203125,1.2705078125,4.18798828125,1.38427734375,8.222412109375,3.9130859375,12.102783203125,7.587890625Z"/>
  <path class="cls-2" d="M104.523193359375,60.5c3.597900390625-6.17626953125,8.199951171875-10.9716796875,13.803955078125-14.38671875,5.60205078125-3.41357421875,11.362060546875-5.1982421875,17.275146484375-5.357421875,5.9130859375-.1572265625,11.53466796875,1.48046875,16.867431640625,4.9130859375,5.330322265625,3.43359375,9.4794921875,8.9716796875,12.44140625,16.609375,3.41162109375,8.5712890625,5.7265625,18.02587890625,6.9501953125,28.35986328125,1.22119140625,10.33740234375,2.1630859375,20.626953125,2.82373046875,30.86865234375.22802734375,3.4892578125-.505859375,5.89111328125-2.203125,7.20654296875-1.7001953125,1.31640625-3.99951171875,2.21728515625-6.90380859375,2.70361328125-1.9453125.25048828125-3.92236328125.4765625-5.927734375.68017578125-2.0087890625.2021484375-3.893798828125.06201171875-5.65869140625-.42431640625-1.767578125-.4853515625-3.31005859375-1.38623046875-4.633056640625-2.7001953125-1.322998046875-1.3115234375-2.214111328125-3.3115234375-2.668701171875-6.0009765625-.69140625-3.6455078125-1.13720703125-7.3251953125-1.33984375-11.03564453125-.20458984375-3.70654296875-.3828125-7.44921875-.5390625-11.220703125-.15625-3.77001953125-.42431640625-7.5517578125-.80322265625-11.35009765625-.380615234375-3.7958984375-1.1435546875-7.60009765625-2.29345703125-11.4072265625-1.7666015625-6.03564453125-4.170654296875-9.98193359375-7.21240234375-11.84375-3.04150390625-1.85986328125-6.0400390625-1.88427734375-8.99267578125-.0771484375-2.955078125,1.80908203125-5.46240234375,5.37451171875-7.52197265625,10.693359375-2.0625,5.32080078125-2.94287109375,12.1376953125-2.639892578125,20.44775390625.151611328125,4.5947265625.476318359375,9.2509765625.975341796875,13.9658203125.496826171875,4.71533203125,1.22216796875,9.484375,2.173095703125,14.306640625.60302734375,2.12158203125.582275390625,3.88037109375-.061279296875,5.28271484375-.64306640625,1.4013671875-1.6455078125,2.57568359375-3.00732421875,3.5185546875-1.36181640625.94482421875-2.891357421875,1.6650390625-4.58447265625,2.15625-1.6953125.49365234375-3.29931640625.8369140625-4.8115234375,1.0322265625-4.10888671875.529296875-7.34912109375-.31494140625-9.7216796875-2.5380859375-2.37451171875-2.220703125-4.05029296875-5.412109375-5.02392578125-9.5712890625-.8115234375-3.740234375-1.256103515625-7.6103515625-1.33154296875-11.61376953125-.07763671875-3.99951171875-.25830078125-7.95947265625-.5419921875-11.87890625-.14208984375-5.36474609375-.94970703125-9.931640625-2.423828125-13.69775390625-1.47412109375-3.765625-3.23486328125-6.5595703125-5.283203125-8.38330078125-2.0478515625-1.8232421875-4.2099609375-2.61572265625-6.48681640625-2.37890625-2.27685546875.23974609375-4.29052734375,1.6806640625-6.0361328125,4.32177734375-1.748046875,2.6435546875-3.08544921875,6.552734375-4.0107421875,11.72412109375-.92724609375,5.1748046875-1.092529296875,11.7890625-.49267578125,19.841796875l3.51513671875,23.4453125c-.092041015625,1.00146484375-.35107421875,1.96923828125-.779296875,2.90283203125-.44482421875.82666015625-1.109375,1.625-1.998291015625,2.39990234375-.889404296875.77392578125-2.239990234375,1.3857421875-4.048583984375,1.83984375-1.91748046875.4658203125-3.87353515625.8544921875-5.864990234375,1.16796875-1.994140625.3115234375-3.8759765625.4169921875-5.645751953125.3154296875-1.77197265625-.1015625-3.364013671875-.52685546875-4.77978515625-1.279296875-1.4150390625-.7509765625-2.4033203125-2.0234375-2.96435546875-3.82080078125-.1923828125-.63525390625-.5517578125-3.00439453125-1.0810546875-7.11279296875-.529296875-4.1064453125-1.14111328125-9.05419921875-1.83056640625-14.84423828125-.69140625-5.7890625-1.4150390625-12.041015625-2.16943359375-18.7578125-.7568359375-6.7138671875-1.427734375-13.00146484375-2.01806640625-18.85888671875-.589599609375-5.85693359375-1.068115234375-10.8486328125-1.43505859375-14.97900390625-.367431640625-4.126953125-.546142578125-6.5751953125-.53466796875-7.34716796875-.3154296875-.7265625-.289794921875-1.38916015625.0732421875-1.98681640625.14599609375-.56787109375.5732421875-1.08935546875,1.28173828125-1.56689453125.7060546875-.47412109375,1.8095703125-.86376953125,3.310546875-1.16748046875,1.3896484375-.2880859375,3.08154296875-.58837890625,5.07568359375-.90087890625,1.991943359375-.3115234375,3.9130859375-.5302734375,5.765625-.66162109375,1.850830078125-.12744140625,3.4541015625-.0576171875,4.80615234375.20458984375,1.352783203125.2666015625,2.14501953125.87744140625,2.37939453125,1.8359375l1.52001953125,10.51806640625c3.1630859375-3.59326171875,6.68505859375-6.51904296875,10.57080078125-8.77880859375,3.8837890625-2.2568359375,7.906494140625-3.65576171875,12.068603515625-4.19189453125,4.159423828125-.5361328125,8.334716796875-.11083984375,12.524658203125,1.2705078125,4.18798828125,1.38427734375,8.222412109375,3.9130859375,12.102783203125,7.587890625Z"/>
  <path class="cls-3" d="M104.523193359375,60.5c3.597900390625-6.17626953125,8.199951171875-10.9716796875,13.803955078125-14.38671875,5.60205078125-3.41357421875,11.362060546875-5.1982421875,17.275146484375-5.357421875,5.9130859375-.1572265625,11.53466796875,1.48046875,16.867431640625,4.9130859375,5.330322265625,3.43359375,9.4794921875,8.9716796875,12.44140625,16.609375,3.41162109375,8.5712890625,5.7265625,18.02587890625,6.9501953125,28.35986328125,1.22119140625,10.33740234375,2.1630859375,20.626953125,2.82373046875,30.86865234375.22802734375,3.4892578125-.505859375,5.89111328125-2.203125,7.20654296875-1.7001953125,1.31640625-3.99951171875,2.21728515625-6.90380859375,2.70361328125-1.9453125.25048828125-3.92236328125.4765625-5.927734375.68017578125-2.0087890625.2021484375-3.893798828125.06201171875-5.65869140625-.42431640625-1.767578125-.4853515625-3.31005859375-1.38623046875-4.633056640625-2.7001953125-1.322998046875-1.3115234375-2.214111328125-3.3115234375-2.668701171875-6.0009765625-.69140625-3.6455078125-1.13720703125-7.3251953125-1.33984375-11.03564453125-.20458984375-3.70654296875-.3828125-7.44921875-.5390625-11.220703125-.15625-3.77001953125-.42431640625-7.5517578125-.80322265625-11.35009765625-.380615234375-3.7958984375-1.1435546875-7.60009765625-2.29345703125-11.4072265625-1.7666015625-6.03564453125-4.170654296875-9.98193359375-7.21240234375-11.84375-3.04150390625-1.85986328125-6.0400390625-1.88427734375-8.99267578125-.0771484375-2.955078125,1.80908203125-5.46240234375,5.37451171875-7.52197265625,10.693359375-2.0625,5.32080078125-2.94287109375,12.1376953125-2.639892578125,20.44775390625.151611328125,4.5947265625.476318359375,9.2509765625.975341796875,13.9658203125.496826171875,4.71533203125,1.22216796875,9.484375,2.173095703125,14.306640625.60302734375,2.12158203125.582275390625,3.88037109375-.061279296875,5.28271484375-.64306640625,1.4013671875-1.6455078125,2.57568359375-3.00732421875,3.5185546875-1.36181640625.94482421875-2.891357421875,1.6650390625-4.58447265625,2.15625-1.6953125.49365234375-3.29931640625.8369140625-4.8115234375,1.0322265625-4.10888671875.529296875-7.34912109375-.31494140625-9.7216796875-2.5380859375-2.37451171875-2.220703125-4.05029296875-5.412109375-5.02392578125-9.5712890625-.8115234375-3.740234375-1.256103515625-7.6103515625-1.33154296875-11.61376953125-.07763671875-3.99951171875-.25830078125-7.95947265625-.5419921875-11.87890625-.14208984375-5.36474609375-.94970703125-9.931640625-2.423828125-13.69775390625-1.47412109375-3.765625-3.23486328125-6.5595703125-5.283203125-8.38330078125-2.0478515625-1.8232421875-4.2099609375-2.61572265625-6.48681640625-2.37890625-2.27685546875.23974609375-4.29052734375,1.6806640625-6.0361328125,4.32177734375-1.748046875,2.6435546875-3.08544921875,6.552734375-4.0107421875,11.72412109375-.92724609375,5.1748046875-1.092529296875,11.7890625-.49267578125,19.841796875l3.51513671875,23.4453125c-.092041015625,1.00146484375-.35107421875,1.96923828125-.779296875,2.90283203125-.44482421875.82666015625-1.109375,1.625-1.998291015625,2.39990234375-.889404296875.77392578125-2.239990234375,1.3857421875-4.048583984375,1.83984375-1.91748046875.4658203125-3.87353515625.8544921875-5.864990234375,1.16796875-1.994140625.3115234375-3.8759765625.4169921875-5.645751953125.3154296875-1.77197265625-.1015625-3.364013671875-.52685546875-4.77978515625-1.279296875-1.4150390625-.7509765625-2.4033203125-2.0234375-2.96435546875-3.82080078125-.1923828125-.63525390625-.5517578125-3.00439453125-1.0810546875-7.11279296875-.529296875-4.1064453125-1.14111328125-9.05419921875-1.83056640625-14.84423828125-.69140625-5.7890625-1.4150390625-12.041015625-2.16943359375-18.7578125-.7568359375-6.7138671875-1.427734375-13.00146484375-2.01806640625-18.85888671875-.589599609375-5.85693359375-1.068115234375-10.8486328125-1.43505859375-14.97900390625-.367431640625-4.126953125-.546142578125-6.5751953125-.53466796875-7.34716796875-.3154296875-.7265625-.289794921875-1.38916015625.0732421875-1.98681640625.14599609375-.56787109375.5732421875-1.08935546875,1.28173828125-1.56689453125.7060546875-.47412109375,1.8095703125-.86376953125,3.310546875-1.16748046875,1.3896484375-.2880859375,3.08154296875-.58837890625,5.07568359375-.90087890625,1.991943359375-.3115234375,3.9130859375-.5302734375,5.765625-.66162109375,1.850830078125-.12744140625,3.4541015625-.0576171875,4.80615234375.20458984375,1.352783203125.2666015625,2.14501953125.87744140625,2.37939453125,1.8359375l1.52001953125,10.51806640625c3.1630859375-3.59326171875,6.68505859375-6.51904296875,10.57080078125-8.77880859375,3.8837890625-2.2568359375,7.906494140625-3.65576171875,12.068603515625-4.19189453125,4.159423828125-.5361328125,8.334716796875-.11083984375,12.524658203125,1.2705078125,4.18798828125,1.38427734375,8.222412109375,3.9130859375,12.102783203125,7.587890625Z"/>
</svg>