<?xml version="1.0" encoding="UTF-8"?>
<svg xmlns="http://www.w3.org/2000/svg" xmlns:xlink="http://www.w3.org/1999/xlink" viewBox="0 0 280 280">
  <defs>
    <style>
      .cls-1 {
        fill: #e11f26;
      }

      .cls-2 {
        fill: #ec1940;
      }

      .cls-3 {
        fill: #665451;
      }

      .cls-4 {
        fill: url(#linear-gradient);
      }
    </style>
    <linearGradient id="linear-gradient" x1="139.863623700606695" y1="144.422033709699463" x2="139.863623700606695" y2="28.24110311626373" gradientUnits="userSpaceOnUse">
      <stop offset=".033113946447839" stop-color="#d4c0a3" stop-opacity="0"/>
      <stop offset=".077445529981579" stop-color="#d4c0a3" stop-opacity=".067075563153634"/>
      <stop offset=".702797202797203" stop-color="#d4c0a3"/>
    </linearGradient>
  </defs>
  <g id="Content">
    <a xlink:href="https://www.notion.so/congruence/Negatively-skewed-unimodal-distribution-3c2f758338184da0a1a455cbe1c1ab9e?pvs=4">
      <g>
        <path class="cls-4" d="M29.532801574669065,144.422033709699463c222.28652374918056-152.624678221362046,220.660927734370489-157.17443389892469,220.661323242191429,0"/>
        <path class="cls-3" d="M35.5894313515455,154.78368193147071c15.731696462502441-10.801821551091052,31.447775103197273-21.626384138857247,47.184213215621639-32.421300042742587,13.277525888588571-9.108145970198166,26.568064178787608-18.198022973760089,39.927822838350039-27.185290894140962,11.05933205018664-7.439743687608825,22.164156355120213-14.814966523279509,33.397773459229938-21.989589491558945,8.951126883035613-5.716855037144342,17.983152269072889-11.318238000100791,27.209550568375562-16.581970701107821,7.09225409433202-4.046186668854716,14.306337851779972-7.92052314817829,21.7730496117656-11.235824261161724.780616731928603-.346602306794921,1.564336695015299-.686097992579562,2.350928034491517-1.018914107631645l-2.866554430358519,1.209700180866093c4.700955947080729-1.982221612684043,9.535616166685941-3.747294478163894,14.532526790044358-4.821502614676319,1.167960477376255-.251081666751816,2.344493051437894-.460369012037518,3.528518875709779-.619676021807209l-3.190075346517915.428651597363569c2.551689371583052-.336050633889499,5.14245537041279-.432494447313729,7.699213206034983-.093430916111174l-3.190075346517915-.428651597363569c1.669641731506999.228439901348793,3.306932408007924.645843167121711,4.863679781388782,1.294961628125748l-2.866554430358519-1.209700180865184c1.356530807224772.573386145093536,2.630346491110686,1.315849500158038,3.79852344162282,2.212621809084339l-2.42865159736175-1.876366847532154c1.297495678845735,1.005995078553497,2.443461919399851,2.185542950566742,3.451298862011754,3.479912361317474l-1.876366847533063-2.428651597363569c1.557593944529799,2.017114748291533,2.768084694529534,4.274327072625965,3.760573670320809,6.616051512984086l-1.209700180865184-2.866554430358519c1.931114860104572,4.590418532240619,3.075543359060248,9.487930633473297,3.927473513091172,14.381030424215169.289502568110038,1.662771236276967.540922326686996,3.331891557053495.766129436495248,5.004529984727924l-.42865159736175-3.190075346517006c1.168295341562043,8.745200469641532,1.652344076894224,17.575627714008988,1.964864192883397,26.387646765847421.401966055102093,11.334094525587716.47544824912984,22.678623877925929.508527456015145,34.018813561705429.021947284854832,7.523952257239216.016683660607669,15.047956442641407.016656288737067,22.571931002929887-.000011193442333,3.076851331877151,1.338594824133907,6.309157572610275,3.514718625761816,8.485281374238184,2.081307336437021,2.081307336437021,5.496075058545102,3.648605543037775,8.485281374238184,3.514718625761816,6.501643503041123-.29120940942812,11.999975526041453-5.272603367228839,12-12,.00005050281834-13.882204887793705.038572341492909-27.7662231762788-.166800193821473-41.647329171394631-.159683807716647-10.793010161747588-.433416689595106-21.604164251728434-1.35511050211062-32.362954517910111-.750277347102383-8.757872201530517-1.728928050444665-17.706147880973731-4.203405777852822-26.172102617309974-2.049863593130794-7.013218265370597-5.222358603516113-14.032711376690713-10.471557638129525-19.256777924988455-5.608210112626693-5.581358727687075-12.916148073078148-8.273678850522629-20.719815090116754-8.702573718344865-3.835188969947922-.210784604563742-7.76051881433159.380545740976231-11.508061554644883,1.101729858692124-3.450663233275918.664052071416336-6.825773098216814,1.693512041326358-10.126852117207818,2.888515749474209-9.949814712352236,3.601872420575091-19.470017936842851,8.374955802837576-28.707823904982433,13.505984024513964-11.888244378913441,6.603182360050596-23.427859963949231,13.828775224043966-34.855034128364423,21.194243446700966-15.130815280139359,9.752677042044525-30.059651194658727,19.817199432067355-44.944493674585829,29.939932366971334-18.75518498675774,12.754836271978093-37.43127251563601,25.625706099445779-56.122124522169543,38.474482386007367-5.178115691624043,3.559626392865539-10.356803243552349,7.118420899613739-15.536873915081742,10.675201895816826-2.605985557647728,1.789342365302218-4.653604534683836,4.044557598691426-5.514718625759997,7.171572875254242-.791012610903636,2.872451564642688-.433873911120827,6.697394730831547,1.209700180865184,9.24670512339253,1.651929396371997,2.562270115158753,4.111777910418823,4.817795085034959,7.171572875253332,5.514718625760906,3.017784467810998.687354891627365,6.600933218771388.606960599917329,9.246705123394349-1.209700180865184h0Z"/>
      </g>
    </a>
  </g>
  <g id="Arrows">
    <g>
      <g>
        <path class="cls-2" d="M216.239088667200122,177.011143461189931c9.647506713869006,0,18.182769775390625.61407470703125,26.093521118169519,1.8773193359375,2.437667846670593.3892822265625,5.081085205070849.5784912109375,8.081329345699487.5784912109375,2.584625244140625,0,5.178833007810681-.1383056640625,7.407546997070312-.26800537109375,2.849182128900793-.16571044921875,5.877426147460938-.242919921875,9.530044555660425-.242919921875,2.790802001960401,0,5.633453369140625.04583740234375,8.382537841800513.09014892578125,1.278045654300513.0206298828125,2.555831909179688.04119873046875,3.833175659179688.05755615234375,8.607666015619543.10992431640625,16.209320068359375,1.57861328125,23.239379882810681,4.48992919921875,13.068466186528894,5.4119873046875,21.741531372068494,15.2147216796875,25.778244018560144,29.13592529296875,2.87908935546875,9.92889404296875,3.709594726558862,20.678466796875,2.613586425779431,33.82952880859375-.037872314460401.45465087890625-.039764404300513.89862060546875-.041564941409888,1.32794189453125-.001922607420056.45135498046875-.003753662111194.87762451171875-.045989990230737,1.28741455078125-.898101806638806,8.7159423828125.101776123039599,17.4200439453125,1.068725585930224,25.8375244140625.19546508789972,1.70166015625.390960693359375,3.4033203125.571472167970569,5.105712890625.127838134769263,1.20587158203125.168823242189319,2.45648193359375.20849609375,3.6658935546875.057098388679151,1.74139404296875.116088867189319,3.54095458984375.42919921875,5.3289794921875v13.2296142578125c-.347808837890625,1.520874023435681-.4228515625,3.052612304685681-.495452880861194,4.535034179685681-.026824951170056.54779052734375-.053497314449487,1.09466552734375-.094207763670056,1.6385498046875-.482177734369543,6.444580078125-3.044708251949487,12.39947509765625-8.064422607418237,18.74041748046875-8.244659423831763,10.41455078125-19.430770874021619,15.663818359375-34.197494506841394,16.04779052734375-.439514160148974.01141357421875-.878860473629175.0172119140625-1.315567016599744.0172119140625-7.625320434570312,0-14.220581054680224-1.7264404296875-20.162689208980737-5.27801513671875-6.481842041019263-3.8741455078125-11.447128295898438-9.30035400390625-14.760757446289062-16.13360595703125-.796081542970569-1.6416015625-1.234603881839575-2.54583740234375-2.297241210939319-2.54608154296875-.7685546875-.00006103515625-1.339584350580481.544921875-2.376205444330481,1.5343017578125l-.076110839851026.0726318359375c-1.821868896478918,1.73828125-3.6470794677698,3.47314453125-5.472290039058862,5.20806884765625-7.718582153320312,7.33660888671875-15.699951171880457,14.92303466796875-23.292846679691138,22.65997314453125-1.186782836908606,1.20928955078125-2.346527099609375,2.4732666015625-3.468078613279431,3.6956787109375-1.527786254879175,1.66510009765625-3.107604980470569,3.38690185546875-4.756286621090112,4.96868896484375-4.759872436528894,4.56695556640625-9.583160400388806,7.76416015625-14.745468139650256,9.7742919921875-3.338058471679688,1.2998046875-6.819686889648438,1.43402099609375-10.505737304689319,1.5760498046875l-.18603515625.00787353515625-3.377685546869543-.00006103515625-3.421493530280713.00103759765625c-.44089508055913.01983642578125-.878974914550781.02960205078125-1.312286376949487.02960205078125-7.575714111329944,0-14.701583862310144-3.02203369140625-21.784790039060681-9.2388916015625-4.392814636230469-3.85552978515625-7.836921691899988-7.76263427734375-10.529159545900256-11.94464111328125-3.431709289548962-5.33074951171875-5.024971008298962-11.15118408203125-4.870582580570044-17.81707763671875l-.001182556148706-6.0845947265625c-.432762145999732-8.91302490234375,2.935287475589575-17.052490234375,10.0106353759802-24.192199707029431,4.933311462398706-4.978271484375,10.113632202139343-9.88677978515625,15.123390197748449-14.63372802734375,4.509948730470569-4.27337646484375,9.173477172849744-8.6922607421875,13.654029846191406-13.15869140625,2.377258300779431-2.36981201171875,4.842391967778894-4.75006103515625,7.22636413573855-7.05194091796875,1.07955932618097-1.04241943359375,2.159057617191138-2.08477783203125,3.234603881841394-3.12982177734375.90234375-.8768310546875,1.695922851558862-1.74737548828125,1.498260498048694-2.7569580078125-.198486328128638-1.01385498046875-1.235733032228381-1.50927734375-2.469253540039062-2.00823974609375-8.082794189460401-3.2691650390625-14.294792175300245-8.67144775390625-18.463478088380725-16.056640625-2.380683898929419-4.21771240234375-3.804626464840112-9.00274658203125-4.353179931640625-14.62860107421875-.82434844970885-8.4537353515625.54826354980105-16.679443359375,4.079681396480737-24.4486083984375,4.827789306640625-10.62139892578125,12.893165588380725-18.1539306640625,23.972023010261182-22.38836669921875,4.607742309568494-1.7611083984375,9.335510253898974-2.1168212890625,13.758193969719287-2.2388916015625,2.465881347659888-.06805419921875,4.869171142579944-.10260009765625,7.143096923829944-.10260009765625M216.239088667200122,176.011143461189931c-2.389114379880994,0-4.780014038080481.0369873046875-7.170715332029431.10296630859375-4.747711181640625.13104248046875-9.4990234375.5506591796875-14.08760070801145,2.304443359375-11.32763671875,4.3294677734375-19.530921936029699,11.92059326171875-24.52536773680913,22.90863037109375-3.598472595220301,7.916748046875-5.016395568849475,16.22412109375-4.164604187020814,24.95947265625.521316528320312,5.346435546875,1.850708007821595,10.36920166015625,4.477630615239832,15.0230712890625,4.361473083490637,7.726806640625,10.740997314451306,13.16815185546875,18.959365844721106,16.4921875,2.319473266610657.9381103515625,2.426956176759631,1.3934326171875.64907836914972,3.12091064453125-3.493072509769263,3.39410400390625-7.028106689460401,6.7596435546875-10.470077514650256,10.19073486328125-9.450416564939587,9.42071533203125-19.396682739259631,18.32623291015625-28.781761169439051,27.7967529296875-6.7236862182599,6.784912109373181-10.781234741210938,15.015441894529431-10.29913330078125,24.944641113279431v6.03607177734375c-.153625488279431,6.62188720703125,1.397636413581495,12.71630859375,5.029739379890088,18.35833740234375,2.974235534660693,4.62005615234375,6.646316528320312,8.5880126953125,10.710342407221106,12.15496826171875,6.435569763189051,5.6484375,13.703018188478381,9.4873046875,22.444435119628906,9.4873046875.448150634771082,0,.901191711431238-.0101318359375,1.357170104980469-.03057861328125,1.125144958499732,0,2.250648498540613-.00006103515625,3.376625061040613-.00006103515625s2.252426147459119.00006103515625,3.379486083978918.00006103515625c3.746307373050513-.1448974609375,7.487594604490369-.2637939453125,11.0528411865198-1.652099609375,5.75117492676145-2.23944091796875,10.653305053710938-5.74212646484375,15.074935913091394-9.9844970703125,2.884750366209119-2.76776123046875,5.451538085939319-5.83831787109375,8.245742797849744-8.685546875,9.34521484375-9.52252197265625,19.090103149419519-18.63629150390625,28.741744995119006-27.844970703125.903274536130994-.86181640625,1.383209228510168-1.3304443359375,1.761856079101562-1.33038330078125.436889648439319.00006103515625.738906860349744.62408447265625,1.400375366209119,1.98809814453125,3.405151367189319,7.02203369140625,8.453079223629175,12.55035400390625,15.144729614259631,16.54986572265625,6.38957214355105,3.81903076171875,13.334060668939856,5.419677734375,20.675720214840112,5.419677734375.445343017579944,0,.893356323240369-.00592041015625,1.341567993169519-.017578125,14.059722900390625-.36553955078125,26.058792114250537-5.1884765625,34.955551147460938-16.4267578125,4.466857910148974-5.64251708984375,7.723114013670056-11.87579345703125,8.277587890619543-19.2864990234375.152496337890625-2.038330078125.112701416019263-4.11798095703125.592437744140625-6.133056640623181v-13.43280029296875c-.536254882810681-2.9808349609375-.325469970699487-6.01458740234375-.643280029289599-9.01220703125-1.083099365241651-10.21563720703125-2.70455932618097-20.4029541015625-1.639862060550513-30.7353515625.089721679689319-.8707275390625.016235351558862-1.757080078125.08935546875-2.63482666015625.961791992189319-11.54083251953125.586029052728918-23.0322265625-2.649688720699487-34.1910400390625-4.055786132821595-13.98687744140625-12.746917724611194-24.1453857421875-26.356094360360657-29.78131103515625-7.546844482420056-3.1253662109375-15.480606079099744-4.462158203125-23.609207153320312-4.56597900390625-4.073989868160425-.05206298828125-8.152923583978918-.1478271484375-12.228469848629175-.14776611328125-3.199874877931506,0-6.397918701170056.05902099609375-9.588134765621362.24462890625-2.460159301759631.14312744140625-4.908111572269263.26629638671875-7.349487304689319.26629638671875-2.64697265625,0-5.286163330079944-.144775390625-7.923629760740369-.56597900390625-8.710098266599744-1.390869140625-17.472473144529431-1.88983154296875-26.251205444339575-1.88983154296875h0Z"/>
        <path class="cls-2" d="M215.418776167200122,206.144383207283681c6.575668334959119,0,13.255661010740369,1.05926513671875,19.000717163089575,2.0521240234375,5.113983154289599.88372802734375,10.489562988279431,1.29534912109375,16.917312622070312,1.29534912109375,4.036087036130994,0,8.003982543939856-.16802978515625,11.009902954099744-.3143310546875,3.233718872070312-.157470703125,6.681381225580481-.31121826171875,10.153396606439856-.31121826171875,4.914291381841394,0,8.987365722659888.30816650390625,12.818206787111194.96990966796875,10.220581054689319,1.76544189453125,14.563751220708582,6.50469970703125,15.490661621099207,16.9033203125.747955322260168,8.39080810546875.770416259760168,17.2764892578125.066741943359375,26.4100341796875-.737182617189319,9.56866455078125.677429199220569,19.03558349609375,2.045501708980737,28.19085693359375.161148071290881,1.07861328125.322357177739832,2.15740966796875.480255126949487,3.2366943359375.869674682620825,5.94488525390625,1.502197265630457,12.2994384765625.252395629890088,18.48895263671875-1.188980102539062,5.888305664060681-7.102142333989832,10.500793457029431-13.461853027349207,10.500793457029431-1.778366088859912,0-3.471923828121362-.3604736328125-5.033645629880994-1.07147216796875-3.461761474609375-1.57586669921875-4.482284545900256-4.69110107421875-4.949539184568494-8.8837890625-.599777221681506-5.381835937498181-.293594360351562-10.883056640623181.002502441409888-16.203063964841931.169296264639343-3.0418701171875.344375610349744-6.18731689453125.351272582998718-9.29620361328125.016128540040881-7.27154541015625-.326522827139343-15.7420654296875-4.623413085930224-24.25189208984375l-.654281616209119-1.2957763671875-.977600097659888,1.07305908203125c-.678207397460938.74444580078125-1.346939086910425,1.49835205078125-2.015686035159888,2.2523193359375-1.415496826170056,1.595947265625-2.879196166990369,3.2462158203125-4.404327392570849,4.76068115234375-9.1064453125,9.04266357421875-17.37947082519895,17.17999267578125-25.291793823249463,24.876953125-8.338317871090112,8.111328125-16.836853027340112,16.338134765625-25.055572509760168,24.294067382810681-5.7088775634802,5.5263671875-11.417785644529431,11.052734375-17.120361328130457,16.5855712890625-1.470062255859375,1.42633056640625-2.818084716789599,2.98468017578125-4.121719360349744,4.49169921875-1.765426635740369,2.0408935546875-3.590957641599744,4.1512451171875-5.692947387689856,5.88555908203125-2.562408447269263,2.11431884765625-4.751708984380457,3.09906005859375-6.889846801759631,3.09906005859375-2.087112426759631,0-4.20972442627135-.9337158203125-6.679962158210401-2.9383544921875-.696205139160156-.56494140625-1.428939819330481-1.17755126953125-2.070884704589844-1.82891845703125-5.559120178220837-5.64044189453125-5.597717285150793-10.6097412109375-.125175476070581-16.112548828125,1.767913818361194-1.77764892578125,3.729232788091394-3.45147705078125,5.6259765625-5.07025146484375,1.931106567380994-1.6480712890625,3.927932739259631-3.35223388671875,5.756484985349744-5.1920166015625,14.893676757810681-14.985473632810681,29.863250732420056-29.350708007810681,45.16632080078125-43.971984863279431,6.083419799810144-5.8123779296875,12.290634155278894-11.70037841796875,18.293487548829944-17.39453125,3.229049682619006-3.06298828125,6.458099365239832-6.12591552734375,9.684066772459119-9.19219970703125,1.2840728759802-1.220458984375,1.991394042970569-1.89276123046875,1.777526855470569-2.82769775390625-.215301513670056-.9410400390625-1.165893554689319-1.24578857421875-2.891571044920056-1.79888916015625-9.333816528320312-2.99169921875-18.852996826170056-3.3753662109375-26.103271484380457-3.3753662109375-1.340225219719287,0-2.753829956049231.01458740234375-4.321609497070312.04461669921875-1.68486022948855.03228759765625-3.394882202139343.0877685546875-5.048599243158606.14141845703125-2.56877136230105.0833740234375-5.22502136230105.16961669921875-7.828079223630994.16961669921875-3.74665832519895,0-6.832641601569776-.1778564453125-9.711761474609375-.559814453125-1.794418334960938-.23797607421875-3.31591796875-.71148681640625-4.651428222659888-1.44744873046875-2.199569702150256-1.21221923828125-3.27734375-2.90386962890625-3.391799926759631-5.3238525390625-.248764038080481-5.25970458984375.984054565429688-9.38140869140625,3.664215087888806-12.25067138671875,2.857238769540345-3.058837890625,7.324203491220032-4.6728515625,13.276779174810144-4.797119140625.427703857420056-.0089111328125.85588073730105-.01324462890625,1.283004760740369-.01324462890625M215.418776167200122,205.144383207283681c-.434097290040881,0-.869232177730737.00439453125-1.303878784179688.01348876953125-12.20158386230105.25469970703125-18.459793090820312,6.66070556640625-17.919006347650793,18.09478759765625.133972167959655,2.83258056640625,1.488265991210938,4.81884765625,3.90802001953125,6.15240478515625,1.557922363279431.85858154296875,3.252532958978918,1.33087158203125,5.00262451171875,1.56298828125,3.278213500971106.43487548828125,6.559555053710938.5684814453125,9.843231201170056.5684814453125,4.296951293939856,0,8.597473144529431-.22894287109375,12.895828247070312-.31121826171875,1.435440063469287-.0274658203125,2.869827270509631-.04443359375,4.302459716789599-.04443359375,8.719787597659888,0,17.374221801759631.62762451171875,25.798049926759631,3.32763671875,2.84004211426145.91033935546875,2.838623046880457.94561767578125.730331420900256,2.94952392578125-9.325561523439319,8.86383056640625-18.677001953119543,17.70050048828125-27.979446411129175,26.5885009765625-15.198944091800513,14.52178955078125-30.363815307620825,29.0777587890625-45.184783935550513,43.990051269529431-3.595718383789062,3.61785888671875-7.785278320310681,6.64532470703125-11.3822174072302,10.2620849609375-5.928359985349744,5.96112060546875-5.774635314939587,11.5367431640625.122001647951038,17.5196533203125.670959472659888.6807861328125,1.4095611572302,1.3001708984375,2.15296173095885,1.9034423828125,2.601409912111194,2.111083984375,4.95654296875,3.161865234375,7.310104370120825,3.161865234375,2.421737670900256,0,4.841796875-1.11273193359375,7.526290893549231-3.32769775390625,3.726303100589575-3.0745849609375,6.436843872070312-7.09552001953125,9.874557495120825-10.430908203125,14.052124023439319-13.6339111328125,28.142623901369006-27.228332519529431,42.176879882808862-40.880554199216931,8.478683471681506-8.2479248046875,16.905670166021082-16.54949951171875,25.29913330078125-24.8841552734375,2.258148193359375-2.24237060546875,4.308731079099744-4.6937255859375,6.454605102539062-7.04913330078125,4.039688110349744,8.00042724609375,4.533645629890088,15.8782958984375,4.516082763670056,23.7989501953125-.018951416010168,8.53741455078125-1.300750732420056,17.059814453125-.347610473629175,25.612243652341931.448028564449487,4.02020263671875,1.432250976558862,7.81817626953125,5.529052734380457,9.68316650390625,1.743423461908606.793701171875,3.597412109369543,1.16131591796875,5.447952270498718,1.16131591796875,6.571502685550513,0,13.09619140625-4.637451171875,14.442092895509631-11.302856445310681,1.267074584960938-6.275146484375.672973632810681-12.5692138671875-.2431640625-18.8316650390625-1.513732910148974-10.34771728515625-3.331573486329944-20.64776611328125-2.5181732177698-31.2059326171875.681549072260168-8.846435546875.722320556640625-17.7127685546875-.067718505859375-26.57568359375-.965911865239832-10.8360595703125-5.556228637700769-15.9412841796875-16.3165130615198-17.7999267578125-4.314483642579944-.7452392578125-8.648147583009631-.9844970703125-12.988418579110657-.9844970703125-3.399291992180224,0-6.803039550779431.1468505859375-10.202041625969287.3123779296875-3.660766601560681.17828369140625-7.312927246101026.31317138671875-10.961257934570312.31317138671875-5.590316772459119,0-11.170181274419519-.3170166015625-16.747009277349207-1.28076171875-6.333282470701306-1.094482421875-12.720275878900793-2.06671142578125-19.171020507810681-2.06671142578125h0Z"/>
      </g>
      <path class="cls-1" d="M279.731001509000635,279.730992094002431c-69.716348767380623.440577951147134-210.016401672541178,1.330698934176326-279.731265606800662,1.531175585940218.000365795989637.000257519553998-1.526859698360568.007093457006704-1.526859698360568.007093457006704l-.004287719739295-1.538330078103172c-.064482580379263-34.904889664445363-.30436021919013-104.981273361630883-.285200212420023-139.865683708812867C-1.81677375955951,139.865513578375612-1.997685777379957.000096097905043-1.997685777379957.000096097905043l-.002586364749732-2.00030517578125c47.593461552100052.061588990722157,165.706460777139.208737488239422,211.798461936909007.271000175613153,17.377564136240835.057227081453675,52.544893820810103.067277353244208,69.932688836210218.190932785619225.000031325151213-.00014096895211,1.54547199919034.005901511358388,1.54547199919034.005901511358388l-.006912231528986,1.532470703190484c-.324877765760903,69.719190645657363-.970720794701265,210.04253395878186-1.538436889650256,279.730895996097388h0ZM279.731001509000635,279.730992094002431c-.578864574870749-69.742892426609615-1.234180971319802-210.023048388051393-1.538471455811305-279.731249247308369.000049824950111.000353251210981,1.538379903071473,1.538683329335981,1.538379903071473,1.538683329335981-38.949254562850911.064972187628882-100.445701974080293.316593994770301-139.865435554451324.281565584895361C139.865500105190222,1.820286527583448.000101698209619,1.997654691662319.000101698209619,1.997654691662319L1.997683180139575.000096097905043c.10023505206118,79.280994930932138-.35477218350934,201.347947800109978-.465795694190092,279.730682550882193-.00047475249994.000152409946168-1.531789602498975-1.53115862501727-1.531789602498975-1.53115862501727,69.708466019588741.186233415071911,210.02444778195968,1.073926737230067,279.730903625550127,1.531372070232464h0Z"/>
    </g>
  </g>
</svg>