<?xml version="1.0" encoding="UTF-8"?>
<svg id="Content" xmlns="http://www.w3.org/2000/svg" xmlns:xlink="http://www.w3.org/1999/xlink" viewBox="0 0 280 280">
  <defs>
    <style>
      .cls-1 {
        fill: #665451;
      }

      .cls-2 {
        fill: url(#linear-gradient);
      }
    </style>
    <linearGradient id="linear-gradient" x1="134.999551788616373" y1="132.627229722633274" x2="134.999551788616373" y2="14.306730405998678" gradientTransform="translate(.848115323362435 .44784854603131)" gradientUnits="userSpaceOnUse">
      <stop offset=".033113946447839" stop-color="#d4c0a3" stop-opacity="0"/>
      <stop offset=".077445529981579" stop-color="#d4c0a3" stop-opacity=".067075563153634"/>
      <stop offset=".702797202797203" stop-color="#d4c0a3"/>
    </linearGradient>
  </defs>
  <a xlink:href="https://www.notion.so/congruence/Negatively-skewed-bimodal-distribution-122f9339b29b806495b9fc7616adc8c1?pvs=4">
    <g>
      <path class="cls-2" d="M25.517005490886731,133.075078268664583c42.244626853054797-111.622529663480236,81.796205938650019-37.229387644494636,100.771451534579683-53.302545891712725,52.736157826546332-44.670652920482098,104.438257846521083-144.352369384029771,119.889871707602651,53.302484707054646"/>
      <path class="cls-1" d="M37.088353893523163,136.265153615181589c1.348829425798613-3.556037021791781,2.754753667370096-7.089547665123973,4.232415465776285-10.594074286058458l-1.209700180865184,2.866554430358519c5.023233321559019-11.857140962699305,10.815758895179897-23.630144741511685,18.713932361875777-33.866488546155779l-1.876366847533063,2.428651597363569c3.153393593524015-4.059356075556934,6.665899121511757-7.860271688842658,10.728749273876019-11.02620712938733l-2.428651597363569,1.876366847532154c2.605066373846057-2.010706131395636,5.418401731321865-3.736016368136916,8.453745721939413-5.017129883919552l-2.866554430358519,1.209700180866093c2.472866141411941-1.028079120987059,5.056340015344176-1.743080292970262,7.710333525259557-2.106219108509322l-3.190075346517915.428651597362659c2.911050403488844-.382896535591499,5.850439398273011-.336606468635182,8.758002811662664.054064567048044l-3.190075346517915-.428651597362659c5.085668530919065.703765129243948,9.94981849301621,2.415773167690531,14.662674027547837,4.400830798214884l-2.866554430358519-1.209700180865184c2.98764159728853,1.262270906821868,5.923825140789631,2.641154847327016,8.90235056538404,3.92418179116703,3.445978047337121,1.484386416885172,6.952594263206265,3.096676318840764,10.620669586902295,3.98126423904796,4.382913119747172,1.056977204366376,8.747185940030249,1.311697048133283,13.153069132091332.25163470069765,4.794524035500217-1.153569938728651,8.353146097875651-4.237764276882444,11.953130443931514-7.405628738717496,6.293524958819035-5.538089097130069,12.239261723680102-11.460244580473045,18.097258207360937-17.452631692870455,5.87721197330211-6.012043432214341,11.657383478976044-12.118920812294164,17.584734695414227-18.081938528700448,5.383110493650747-5.415502147736333,10.881841299262305-10.75349507636929,16.816714989585307-15.567677102710149.666476442662315-.540624633085827,1.339140437279639-1.073508675397534,2.017813438187659-1.59873832959056l-2.428651597363569,1.876366847532154c3.996368157242614-3.08364166780666,8.243699024142188-5.948404042902439,12.907011960376622-7.926564048570071l-2.866554430358519,1.209700180866093c2.223561507224076-.93473697747595,4.540987691128976-1.6531113715846,6.934932272017249-1.982513162650321l-3.190075346517915.428651597362659c1.670591984235216-.221651863015722,3.358746604293628-.246495734995733,5.030799800686509-.02550304862234l-3.190075346516096-.428651597362659c1.498196718701365.206882137174034,2.956575008018262.609159498819281,4.35031087405514,1.196216388388166l-2.866554430358519-1.209700180866093c1.526768313353386.653748136992363,2.94738480077649,1.516103754584947,4.262044388702634,2.528890411448629l-2.42865159736175-1.876366847533063c1.85763391211367,1.446442650056269,3.476283350933954,3.165754444134109,4.920247904748976,5.020639355572712l-1.876366847533063-2.428651597362659c2.966514562522207,3.841004125632026,5.200382189523225,8.202342831672468,7.090748417333089,12.655972359643783l-1.209700180865184-2.866554430358519c5.436585704041136,12.887230196961355,8.349490637965573,26.830402301532558,10.712237408963119,40.560086161875915.929689263026376,5.402330806823556,1.739642823735267,10.824567923379618,2.470276384254248,16.257229102363453l-.428651597365388-3.190075346517006c1.774817740544677,13.269362047779396,3.072497374812883,26.598652486155515,4.119030735368142,39.943875698802913.252719285690546,3.222635230547894,1.168020616823924,6.138583365301201,3.514718625761816,8.485281374238184,2.081307336437021,2.081307336437021,5.496075058546921,3.648605543037775,8.485281374238184,3.514718625761816,3.103484767403643-.139005463135618,6.322269692827831-1.158449558049142,8.485281374238184-3.514718625761816,2.056602681679578-2.240352803022688,3.761620468741967-5.336829227030648,3.514718625761816-8.485281374238184-1.393155124591431-17.765287575390175-3.247932182612203-35.508240238886174-5.991215190779258-53.119631767735882-1.828469936577676-11.738453471958564-4.069140064331805-23.475250450458589-7.491827894044036-34.864382277170989-1.541165988906869-5.128291999677458-3.427550896183675-10.090911683201739-5.532792030004202-15.012715581936391-1.38298014159227-3.23324342442811-2.943261367283412-6.401065974121593-4.835751748249095-9.369281244187732-1.998958801343178-3.135202217171354-4.285047294799369-6.213346490224467-6.962409123201724-8.805851556499874-2.304108186044687-2.231081388478742-4.955788669903995-4.352895804243417-7.855027110832452-5.769018187543224-3.988645725556125-1.94823937599358-7.30940744745385-2.828568900147729-11.70035112126061-3.276126044669581-3.061965067601705-.312097909717522-6.231252176634371.148260677720828-9.220346930320375.752336340427064-3.206681261483027.648048411891978-6.256791629130021,1.985487518339141-9.219493564560253,3.325160633987252-2.3161998035539,1.047338097087959-4.527869835032106,2.317630257166456-6.657476697371749,3.702437941393327-5.816896782205731,3.78252132110083-11.217480745934154,8.276259958978699-16.341286427030354,12.945314029023393-5.064481189432627,4.614994787456453-9.89574411626927,9.480714542666647-14.677060166215597,14.386051244432565-5.07231770791077,5.20388653577993-10.083025731097223,10.46764405400063-15.183348014888907,15.644261843060121-5.044612149489694,5.120074289215154-10.173069521544676,10.166447967587374-15.5518429984877,14.937070365713225-1.166247592551372,1.034385796434435-2.323571550794441,2.102730170022369-3.554891528727239,3.059762431154923l2.428651597363569-1.876366847532154c-.672803936926357.512770306479979-1.397494896500575.943045747957513-2.175203137147037,1.276661369484827l2.866554430358519-1.209700180866093c-.807969672367108.33714608637456-1.650666922596429.561469136844607-2.517110244436481.684389932679551l3.190075346517915-.428651597363569c-1.195048955740276.158996519057837-2.399628601086079.124578232072963-3.593257759224798-.029745384636044l3.190075346517915.428651597363569c-3.157133991782757-.426786207719488-6.175855622121162-1.600602129556137-9.0950965406264-2.829573127259209l2.866554430358519,1.209700180866093c-5.435974415671808-2.296384788373871-10.745010253896908-4.884547609349283-16.275275280604546-6.959049798345404-5.820191646300373-2.183258894882783-12.041514873442793-3.569733515060761-18.274468525803968-3.677478173322015-7.844022512665106-.135594065375699-15.699946852066205,2.085573580167875-22.457338847041683,6.027357821282749-8.939901627702056,5.214905895557422-15.843339587201626,13.093800490024478-21.757874527023887,21.442639433581462-8.308711376253996,11.728410401598921-14.226593591827623,25.044534557076986-19.558774999453817,38.326046779931858-.785044556479988,1.95540587900723-1.547779414289835,3.919588179265702-2.295062388599035,5.889715662827257-1.043661614809025,2.751496423120443-.221908020390401,6.800303835964769,1.209700180865184,9.24670512339253,1.456655487996613,2.48920330160945,4.310803619260696,4.863126783169719,7.171572875253332,5.514718625760906,3.07186120325423.69967184435427,6.519980196837423.548255405215968,9.246705123394349-1.209700180865184l2.42865159736175-1.876366847533063c1.487234789270587-1.497279738196085,2.515923798735457-3.262348414103144,3.086067028398247-5.295206027721179h0Z"/>
    </g>
  </a>
</svg>