<?xml version="1.0" encoding="UTF-8"?>
<svg id="Content" xmlns="http://www.w3.org/2000/svg" xmlns:xlink="http://www.w3.org/1999/xlink" viewBox="0 0 280 280">
  <defs>
    <style>
      .cls-1 {
        fill: #665451;
      }

      .cls-2 {
        fill: url(#linear-gradient);
      }
    </style>
    <linearGradient id="linear-gradient" x1="140.000000000009095" y1="133.550199784476717" x2="140.000000000009095" y2="17.369269191040075" gradientUnits="userSpaceOnUse">
      <stop offset=".033113946447839" stop-color="#d4c0a3" stop-opacity="0"/>
      <stop offset=".077445529981579" stop-color="#d4c0a3" stop-opacity=".067075563153634"/>
      <stop offset=".702797202797203" stop-color="#d4c0a3"/>
    </linearGradient>
  </defs>
  <a xlink:href="https://www.notion.so/congruence/Negatively-skewed-unimodal-distribution-3c2f758338184da0a1a455cbe1c1ab9e?pvs=4">
    <g>
      <path class="cls-2" d="M29.669177874071465,133.550199784476717c222.28652374918056-152.624678221362046,220.660927734370489-157.17443389892469,220.661323242191429,0"/>
      <path class="cls-1" d="M35.7258076509479,143.911848006247965c15.731696462502441-10.801821551091052,31.447775103197273-21.626384138857247,47.184213215621639-32.421300042742587,13.277525888588571-9.108145970198166,26.568064178787608-18.198022973760089,39.927822838350039-27.185290894140962,11.05933205018664-7.439743687608825,22.164156355120213-14.814966523279509,33.397773459229938-21.989589491558945,8.951126883035613-5.716855037144342,17.983152269072889-11.318238000100791,27.209550568375562-16.581970701107821,7.09225409433202-4.046186668854716,14.306337851779972-7.92052314817829,21.7730496117656-11.235824261161724.780616731928603-.346602306794921,1.564336695015299-.686097992579562,2.350928034491517-1.018914107631645l-2.866554430358519,1.209700180866093c4.700955947080729-1.982221612684043,9.535616166685941-3.747294478163894,14.532526790044358-4.821502614676319,1.167960477376255-.251081666751816,2.344493051437894-.460369012037518,3.528518875709779-.619676021807209l-3.190075346517915.428651597363569c2.551689371583052-.336050633889499,5.14245537041279-.432494447313729,7.699213206034983-.093430916111174l-3.190075346517915-.428651597363569c1.669641731506999.228439901348793,3.306932408007924.645843167121711,4.863679781388782,1.294961628125748l-2.866554430358519-1.209700180865184c1.356530807224772.573386145093536,2.630346491110686,1.315849500158038,3.79852344162282,2.212621809084339l-2.42865159736175-1.876366847532154c1.297495678845735,1.005995078553497,2.443461919399851,2.185542950566742,3.451298862011754,3.479912361317474l-1.876366847533063-2.428651597363569c1.557593944529799,2.017114748291533,2.768084694529534,4.274327072625965,3.760573670320809,6.616051512984086l-1.209700180865184-2.866554430358519c1.931114860104572,4.590418532240619,3.075543359060248,9.487930633473297,3.927473513091172,14.381030424215169.289502568110038,1.662771236276967.540922326686996,3.331891557053495.766129436495248,5.004529984727924l-.42865159736175-3.190075346517006c1.168295341562043,8.745200469641532,1.652344076894224,17.575627714008988,1.964864192883397,26.387646765847421.401966055102093,11.334094525587716.47544824912984,22.678623877925929.508527456015145,34.018813561705429.021947284854832,7.523952257239216.016683660607669,15.047956442641407.016656288737067,22.571931002929887-.000011193442333,3.076851331877151,1.338594824133907,6.309157572610275,3.514718625761816,8.485281374238184,2.081307336437021,2.081307336437021,5.496075058545102,3.648605543037775,8.485281374238184,3.514718625761816,6.501643503041123-.29120940942812,11.999975526041453-5.272603367228839,12-12,.00005050281834-13.882204887793705.038572341492909-27.7662231762788-.166800193821473-41.647329171394631-.159683807716647-10.793010161747588-.433416689595106-21.604164251728434-1.35511050211062-32.362954517910111-.750277347102383-8.757872201530517-1.728928050444665-17.706147880973731-4.203405777852822-26.172102617309974-2.049863593130794-7.013218265370597-5.222358603516113-14.032711376690713-10.471557638129525-19.256777924988455-5.608210112626693-5.581358727687075-12.916148073078148-8.273678850522629-20.719815090116754-8.702573718344865-3.835188969947922-.210784604563742-7.76051881433159.380545740976231-11.508061554644883,1.101729858692124-3.450663233275918.664052071416336-6.825773098216814,1.693512041326358-10.126852117207818,2.888515749474209-9.949814712352236,3.601872420575091-19.470017936842851,8.374955802837576-28.707823904982433,13.505984024513964-11.888244378913441,6.603182360050596-23.427859963949231,13.828775224043966-34.855034128364423,21.194243446700966-15.130815280139359,9.752677042044525-30.059651194658727,19.817199432067355-44.944493674585829,29.939932366971334-18.75518498675774,12.754836271978093-37.43127251563601,25.625706099445779-56.122124522169543,38.474482386007367-5.178115691624043,3.559626392865539-10.356803243552349,7.118420899613739-15.536873915081742,10.675201895816826-2.605985557647728,1.789342365302218-4.653604534683836,4.044557598691426-5.514718625759997,7.171572875254242-.791012610903636,2.872451564642688-.433873911120827,6.697394730831547,1.209700180865184,9.24670512339253,1.651929396371997,2.562270115157844,4.111777910418823,4.817795085035868,7.171572875253332,5.514718625760906,3.017784467810998.687354891628274,6.600933218771388.60696059991642,9.246705123394349-1.209700180865184h0Z"/>
    </g>
  </a>
</svg>