<?xml version="1.0" encoding="UTF-8"?>
<svg id="Content" xmlns="http://www.w3.org/2000/svg" xmlns:xlink="http://www.w3.org/1999/xlink" viewBox="0 0 280 280">
  <defs>
    <style>
      .cls-1 {
        fill: #665451;
      }

      .cls-2 {
        fill: url(#linear-gradient);
      }
    </style>
    <linearGradient id="linear-gradient" x1="140.000000000006366" y1="133.550199784476717" x2="140.000000000006366" y2="17.369269191040075" gradientUnits="userSpaceOnUse">
      <stop offset=".033113946447839" stop-color="#d4c0a3" stop-opacity="0"/>
      <stop offset=".077445529981579" stop-color="#d4c0a3" stop-opacity=".067075563153634"/>
      <stop offset=".702797202797203" stop-color="#d4c0a3"/>
    </linearGradient>
  </defs>
  <a xlink:href="https://www.notion.so/congruence/Negatively-skewed-unimodal-distribution-3c2f758338184da0a1a455cbe1c1ab9e?pvs=4">
    <g>
      <path class="cls-2" d="M29.669177874069646,133.550199784476717c222.28652374918056-152.624678221362046,220.660927734370489-157.17443389892469,220.66132324219052,0"/>
      <path class="cls-1" d="M35.725807650949719,143.911848006247965c15.731696462500622-10.801821551091052,31.447775103200001-21.626384138857247,47.18421321562073-32.421300042742587,13.27752588858948-9.108145970198166,26.568064178789427-18.198022973760089,39.92782283834913-27.185290894140962,11.059332050190278-7.439743687608825,22.164156355120213-14.814966523279509,33.397773459230848-21.989589491558945,8.951126883039251-5.716855037144342,17.983152269069251-11.318238000100791,27.2095505683792-16.581970701107821,7.092254094330201-4.046186668854716,14.306337851779972-7.92052314817829,21.773049611760143-11.235824261161724.780616731930422-.346602306794921,1.564336695019847-.686097992579562,2.350928034490607-1.018914107631645l-2.866554430350334,1.209700180866093c4.700955947079819-1.982221612684043,9.535616166679574-3.747294478163894,14.53252679003981-4.821502614676319,1.167960477379893-.251081666751816,2.344493051439713-.460369012037518,3.528518875709779-.619676021807209l-3.190075346519734.428651597363569c2.551689371580323-.336050633889499,5.142455370410062-.432494447313729,7.69921320604044-.093430916111174l-3.190075346520644-.428651597363569c1.669641731510637.228439901348793,3.306932408010653.645843167121711,4.863679781390601,1.294961628125748l-2.866554430360338-1.209700180865184c1.356530807220224.573386145093536,2.630346491109776,1.315849500158038,3.798523441620091,2.212621809084339l-2.428651597359931-1.876366847532154c1.297495678850282,1.005995078553497,2.443461919399851,2.185542950566742,3.451298862009935,3.479912361317474l-1.876366847530335-2.428651597363569c1.557593944530709,2.017114748291533,2.768084694530444,4.274327072625965,3.7605736703199,6.616051512984086-.403233393619303-.955518143452537-.806466787239515-1.911036286905983-1.209700180869731-2.866554430358519,1.931114860110029,4.590418532240619,3.075543359060248,9.487930633473297,3.927473513100267,14.381030424215169.289502568110038,1.662771236276967.54092232667972,3.331891557053495.766129436489791,5.004529984727924-.142883865790282-1.063358448838699-.285767731569649-2.126716897678307-.428651597359931-3.190075346517006,1.168295341560224,8.745200469641532,1.652344076889676,17.575627714008988,1.964864192879759,26.387646765847421.401966055100274,11.334094525587716.47544824912984,22.678623877925929.508527456020602,34.018813561705429.021947284849375,7.523952257239216.016683660609488,15.047956442641407.016656288729791,22.571931002929887-.000011193440514,3.076851331877151,1.338594824140273,6.309157572610275,3.514718625770001,8.485281374238184,2.081307336429745,2.081307336437021,5.496075058539645,3.648605543037775,8.485281374229999,3.514718625761816,6.501643503050218-.29120940942812,11.999975526049639-5.272603367228839,12-12,.000050502820159-13.882204887793705.038572341500185-27.7662231762788-.166800193820563-41.647329171394631-.159683807709371-10.793010161747588-.433416689589649-21.604164251728434-1.35511050210971-32.362954517910111-.750277347099654-8.757872201530517-1.728928050440118-17.706147880973731-4.203405777850094-26.172102617309974-2.049863593129885-7.013218265370597-5.222358603519751-14.032711376690713-10.471557638129525-19.256777924988455-5.608210112630331-5.581358727687075-12.916148073079967-8.273678850522629-20.719815090120392-8.702573718344865-3.835188969939736-.210784604563742-7.760518814329771.380545740976231-11.508061554640335,1.101729858692124-3.450663233279556.664052071416336-6.825773098219543,1.693512041326358-10.126852117209637,2.888515749474209-9.949814712349507,3.601872420575091-19.470017936840122,8.374955802837576-28.707823904979705,13.505984024513964-11.888244378919808,6.603182360050596-23.427859963950141,13.828775224043966-34.85503412836988,21.194243446700966-15.130815280140268,9.752677042044525-30.059651194660546,19.817199432067355-44.944493674580372,29.939932366971334-18.755184986759559,12.754836271978093-37.431272515639648,25.625706099445779-56.122124522169543,38.474482386007367-5.17811569163041,3.559626392865539-10.35680324355053,7.118420899613739-15.536873915080832,10.675201895815917-2.605985557649547,1.789342365303128-4.653604534689293,4.044557598692336-5.514718625759997,7.171572875255151-.791012610910002,2.872451564642688-.433873911119917,6.697394730831547,1.209700180860636,9.24670512339253,1.651929396370178,2.562270115157844,4.111777910419733,4.817795085035868,7.171572875259699,5.514718625760906,3.017784467810088.687354891628274,6.600933218770479.60696059991642,9.246705123389802-1.209700180865184h0Z"/>
    </g>
  </a>
</svg>