<?xml version="1.0" encoding="UTF-8"?>
<svg id="Content" xmlns="http://www.w3.org/2000/svg" xmlns:xlink="http://www.w3.org/1999/xlink" viewBox="0 0 280 280">
  <defs>
    <style>
      .cls-1 {
        fill: #665451;
      }

      .cls-2 {
        fill: url(#linear-gradient);
      }
    </style>
    <linearGradient id="linear-gradient" x1="139.863623700606695" y1="144.422033709699463" x2="139.863623700606695" y2="28.24110311626373" gradientUnits="userSpaceOnUse">
      <stop offset=".033113946447839" stop-color="#d4c0a3" stop-opacity="0"/>
      <stop offset=".077445529981579" stop-color="#d4c0a3" stop-opacity=".067075563153634"/>
      <stop offset=".702797202797203" stop-color="#d4c0a3"/>
    </linearGradient>
  </defs>
  <a xlink:href="https://www.notion.so/congruence/Negatively-skewed-unimodal-distribution-3c2f758338184da0a1a455cbe1c1ab9e?pvs=4">
    <g>
      <path class="cls-2" d="M29.532801574669065,144.422033709699463c222.28652374918056-152.624678221362046,220.660927734370489-157.17443389892469,220.661323242191429,0"/>
      <path class="cls-1" d="M35.589431351540043,154.783681931472529c15.731696462509717-10.801821551091052,31.447775103199092-21.626384138857247,47.184213215630734-32.421300042744406,13.277525888588571-9.108145970198166,26.568064178778513-18.198022973760089,39.92782283834822-27.185290894140053,11.059332050181183-7.439743687609734,22.164156355120213-14.814966523274052,33.397773459231757-21.989589491558945,8.951126883030156-5.716855037149799,17.983152269069251-11.318238000096244,27.209550568370105-16.58197070110873,7.092254094328382-4.046186668858354,14.306337851789067-7.920523148171924,21.773049611769238-11.235824261162634.780616731930422-.346602306792192,1.564336695020756-.686097992578652,2.350928034489698-1.018914107629826l-2.866554430360338,1.209700180865184c4.700955947089824-1.982221612674039,9.535616166689579-3.747294478162075,14.532526790049815-4.82150261467541,1.167960477370798-.251081666752725,2.344493051430618-.460369012038427,3.528518875709779-.619676021808118l-3.190075346519734.428651597363569c2.551689371581233-.336050633892228,5.142455370410971-.432494447313729,7.699213206031345-.093430916111174l-3.190075346510639-.42865159736175c1.669641731499723.228439901347883,3.306932408000648.645843167119892,4.863679781390601,1.294961628123929-.955518143460722-.403233393621122-1.91103628691053-.806466787244062-2.866554430360338-1.209700180865184,1.356530807219315.573386145095355,2.630346491099772,1.315849500157128,3.798523441619182,2.212621809085249-.80955053245998-.625455615843748-1.619101064909046-1.250911231689315-2.428651597359931-1.876366847533063,1.297495678840278,1.005995078548949,2.443461919410765,2.185542950561285,3.451298862009935,3.479912361317474-.625455615849205-.809550532454523-1.250911231689315-1.619101064909046-1.876366847540339-2.428651597363569,1.557593944531618,2.017114748292443,2.768084694531353,4.274327072625965,3.760573670329904,6.616051512983177-.403233393628398-.955518143451627-.806466787249519-1.911036286903254-1.209700180868822-2.8665544303567,1.931114860099115,4.59041853223971,3.075543359060248,9.487930633471478,3.927473513089353,14.381030424216078.289502568110038,1.662771236275148.540922326699729,3.331891557052586.766129436500705,5.004529984726105l-.428651597370845-3.190075346516096c1.168295341571138,8.745200469640622,1.6523440769015,17.575627714009897,1.964864192890673,26.387646765848331.401966055100274,11.334094525587716.475448249118926,22.678623877925929.508527456009688,34.018813561704519.021947284860289,7.523952257239216.016683660609488,15.047956442640498.016656288740705,22.571931002928977-.000011193449609,3.076851331878061,1.338594824130269,6.309157572612094,3.514718625759997,8.485281374240003,2.08130733643884,2.081307336437021,5.49607505854874,3.648605543035956,8.485281374240003,3.514718625759997,6.501643503039304-.29120940942812,11.999975526039634-5.27260336722793,12-12,.000050502820159-13.882204887791886.038572341489271-27.7662231762788-.166800193819654-41.64732917139554-.159683807720285-10.793010161745769-.433416689600563-21.604164251726615-1.35511050211062-32.362954517910111-.750277347109659-8.757872201535065-1.728928050459217-17.706147880966455-4.203405777851003-26.172102617307246-2.049863593128975-7.013218265368778-5.222358603519751-14.032711376701627-10.471557638129525-19.256777924989365-5.608210112630331-5.581358727686165-12.916148073079967-8.273678850522629-20.719815090120392-8.702573718344865-3.835188969949741-.210784604565561-7.760518814329771.380545740976231-11.508061554648521,1.101729858692124-3.450663233270461.664052071415426-6.825773098211357,1.693512041325448-10.126852117200542,2.888515749473299-9.949814712359512,3.601872420578729-19.470017936841032,8.374955802839395-28.707823904989709,13.505984024513964-11.888244378909803,6.603182360046048-23.427859963940136,13.828775224048513-34.855034128360785,21.194243446700057-15.130815280139359,9.752677042040887-30.059651194660546,19.817199432069174-44.944493674589467,29.939932366971334-18.755184986750464,12.754836271980821-37.431272515630553,25.625706099450326-56.122124522169543,38.474482386009186-5.178115691620405,3.55962639286372-10.35680324355053,7.118420899612829-15.536873915079923,10.675201895817736-2.605985557640452,1.789342365300399-4.653604534680198,4.044557598690517-5.514718625759997,7.171572875253332-.791012610901817,2.872451564642688-.433873911120827,6.697394730832457,1.209700180868822,9.24670512339253,1.651929396370178,2.562270115156934,4.111777910420642,4.817795085034959,7.171572875249694,5.514718625761816,3.017784467810998.687354891626455,6.600933218771388.60696059991642,9.246705123390711-1.209700180865184h0Z"/>
    </g>
  </a>
</svg>