<?xml version="1.0" encoding="UTF-8"?>
<svg id="Content" xmlns="http://www.w3.org/2000/svg" xmlns:xlink="http://www.w3.org/1999/xlink" viewBox="0 0 280 280">
  <defs>
    <style>
      .cls-1 {
        stroke: #665451;
        stroke-width: 50px;
      }

      .cls-1, .cls-2 {
        fill: none;
        stroke-linecap: round;
        stroke-linejoin: round;
      }

      .cls-3 {
        fill: #fff;
      }

      .cls-2 {
        stroke: #998675;
        stroke-width: 2px;
      }
    </style>
  </defs>
  <a xlink:href="https://www.notion.so/congruence/Normal-distribution-bae342142c8948bfaa9c958107caa8f5?pvs=4">
    <g>
      <g>
        <path class="cls-1" d="M75.971679687498181,68.32958984375c.0751953125.529296875.15625,1.62890625.2412109375,3.296875.0859375,1.669921875.1767578125,3.6904296875.2744140625,6.0615234375.0966796875,2.3720703125.1826171875,4.9755859375.2548828125,7.80859375.072265625,2.833984375.1328125,5.6806640625.1826171875,8.5400390625.1513671875,6.734375.265625,14.1982421875.3466796875,22.3916015625.0703125.4326171875.017578125.82421875-.158203125,1.171875-.1298828125.2978515625-.3701171875.5771484375-.7197265625.837890625-.3486328125.259765625-.861328125.4072265625-1.537109375.4423828125-.724609375.037109375-1.5673828125.1162109375-2.5283203125.2373046875-.9609375.123046875-1.9384765625.18359375-2.9296875.1865234375-.9921875.001953125-1.91796875-.130859375-2.779296875-.40234375s-1.576171875-.7802734375-2.146484375-1.52734375c-.4111328125-.462890625-1.1533203125-1.48046875-2.224609375-3.05078125-1.072265625-1.5703125-2.24609375-3.4619140625-3.521484375-5.6767578125-2.1201171875-3.6259765625-4.265625-7.2392578125-6.43359375-10.837890625-2.1689453125-3.599609375-4.3681640625-7.3310546875-6.59765625-11.1953125l2.06640625,30.3798828125c-.01953125.583984375-.13671875,1.1240234375-.353515625,1.619140625-.2216796875.4482421875-.5537109375.876953125-.99609375,1.2880859375-.443359375.4111328125-1.076171875.6845703125-1.8984375.82421875-.87109375.1416015625-1.7568359375.259765625-2.654296875.3544921875-.8994140625.09375-1.755859375.0654296875-2.568359375-.0869140625-.8125-.1533203125-1.5126953125-.478515625-2.099609375-.9833984375-.587890625-.5029296875-.9833984375-1.306640625-1.185546875-2.4130859375-.125-.52734375-.2421875-1.6357421875-.3525390625-3.328125-.1123046875-1.6923828125-.2275390625-3.72265625-.3486328125-6.09375-.1220703125-2.369140625-.2314453125-4.984375-.3291015625-7.8408203125-.0986328125-2.857421875-.197265625-5.7373046875-.2978515625-8.64453125-.2041015625-6.8271484375-.421875-14.3828125-.6513671875-22.666015625-.0712890625-.43359375-.0185546875-.8232421875.158203125-1.1728515625.1298828125-.296875.345703125-.57421875.6484375-.8330078125.3017578125-.2578125.7900390625-.4287109375,1.46484375-.51171875.384765625-.06640625,1.0478515625-.1494140625,1.98828125-.2470703125.94140625-.095703125,1.9072265625-.1708984375,2.8994140625-.2216796875.990234375-.05078125,1.9013671875-.0244140625,2.732421875.078125.8291015625.103515625,1.349609375.3203125,1.560546875.6474609375,3.41015625,5.0166015625,6.7587890625,10.0341796875,10.0478515625,15.0556640625,3.2880859375,5.0224609375,6.5439453125,10.09375,9.765625,15.21484375l-1.0947265625-28.46484375c.017578125-.58203125.16015625-1.123046875.42578125-1.62109375.2216796875-.400390625.5654296875-.8046875,1.029296875-1.2177734375.462890625-.4111328125,1.12890625-.6875,1.994140625-.830078125.869140625-.091796875,1.7490234375-.173828125,2.6435546875-.244140625.8935546875-.0703125,1.7333984375-.0166015625,2.5185546875.162109375.7841796875.1787109375,1.45703125.5322265625,2.0185546875,1.060546875.560546875.5302734375.9423828125,1.345703125,1.14453125,2.4521484375Z"/>
        <path class="cls-1" d="M104.124999999998181,71.10595703125c-1.97265625,1.265625-3.748046875,2.837890625-5.3251953125,4.7109375-1.5771484375,1.876953125-2.841796875,3.94140625-3.79296875,6.197265625-.9521484375,2.255859375-1.5712890625,4.6044921875-1.8583984375,7.04296875-.287109375,2.44140625-.103515625,4.8564453125.5537109375,7.248046875.6552734375,2.392578125,1.8271484375,4.6611328125,3.513671875,6.8046875,1.685546875,2.1455078125,3.9775390625,4.041015625,6.8759765625,5.6875.248046875.1328125.486328125.2646484375.7109375.3984375.2255859375.134765625.4619140625.2685546875.7119140625.4013671875.3994140625.2216796875.64453125.5126953125.736328125.87109375.0908203125.359375.0986328125.7587890625.0244140625,1.19921875-.044921875,1.0205078125-.337890625,2.1767578125-.876953125,3.4638671875-.541015625,1.2900390625-1.1259765625,2.4111328125-1.755859375,3.365234375-.541015625.8037109375-1.322265625,1.181640625-2.3427734375,1.1376953125-1.0205078125-.044921875-2.052734375-.3076171875-3.0966796875-.7861328125-2.439453125-1.232421875-4.6875-2.7431640625-6.7431640625-4.5302734375-2.0556640625-1.7861328125-3.8349609375-3.8408203125-5.3359375-6.1650390625-1.501953125-2.3232421875-2.6650390625-4.9072265625-3.4892578125-7.751953125-.826171875-2.8427734375-1.2265625-5.939453125-1.2041015625-9.287109375.0390625-3.009765625.4619140625-5.892578125,1.2666015625-8.6494140625.8046875-2.7587890625,1.8974609375-5.3369140625,3.2783203125-7.736328125,1.3798828125-2.3984375,3.01171875-4.62890625,4.8955078125-6.689453125,1.8828125-2.060546875,3.923828125-3.8759765625,6.1240234375-5.443359375.6083984375-.4189453125,1.216796875-.607421875,1.826171875-.56640625.6083984375.0419921875,1.1181640625.294921875,1.5302734375.7587890625.462890625.509765625,1.029296875,1.1591796875,1.7001953125,1.94921875.6708984375.791015625,1.24609375,1.5986328125,1.7255859375,2.421875.478515625.8251953125.796875,1.595703125.955078125,2.3154296875.1572265625.7197265625-.044921875,1.2646484375-.607421875,1.6318359375Z"/>
        <path class="cls-1" d="M114.484374999998181,134.16552734375l-1.2744140625-.734375.705078125-37.3623046875.9482421875,9.994140625c-1.173828125-3.0439453125-2.0673828125-5.7880859375-2.6767578125-8.23046875-.6103515625-2.443359375-.951171875-4.8271484375-1.0205078125-7.150390625-.072265625-2.3251953125.087890625-4.880859375.4794921875-7.6650390625l1.548828125-1.025390625,1.015625-.0517578125,8.876953125,1.4365234375-3.31640625,28.982421875c.6083984375,3.3642578125,1.435546875,6.716796875,2.4794921875,10.05859375,1.0439453125,3.3408203125,2.2802734375,6.6494140625,3.7099609375,9.9228515625-1.9111328125.5830078125-3.8408203125,1.021484375-5.7900390625,1.3154296875s-3.8447265625.462890625-5.685546875.509765625ZM127.188476562498181,116.56298828125c-2.4150390625-.75-4.498046875-2.09765625-6.24609375-4.0458984375l-5.6533203125,3.2724609375,3.7109375-15.615234375c.8818359375,1.119140625,1.6875,1.9404296875,2.41796875,2.458984375.7294921875.521484375,1.43359375.763671875,2.111328125.7294921875,1.3056640625-.0673828125,2.5947265625-.9443359375,3.8662109375-2.6357421875,1.271484375-1.6904296875,2.6455078125-4.2216796875,4.1220703125-7.5966796875-.1015625-1.982421875-.1953125-3.8095703125-.28125-5.4794921875-.0849609375-1.6689453125-.1396484375-3.2041015625-.1630859375-4.6103515625l1.369140625-1.669921875c1.8505859375.1474609375,3.6572265625.357421875,5.4169921875.630859375s3.57421875.677734375,5.4462890625,1.2119140625c-1.1298828125,4.47265625-2.2958984375,8.6796875-3.5009765625,12.6220703125s-2.5703125,7.578125-4.09765625,10.904296875l-1.4736328125-.3603515625c-.728515625,1.880859375-1.5380859375,3.595703125-2.4287109375,5.14453125-.890625,1.5498046875-1.73828125,2.76953125-2.541015625,3.658203125-.802734375.890625-1.494140625,1.3505859375-2.0751953125,1.380859375ZM143.161132812498181,115.88916015625c-2.5166015625.12890625-4.3515625-.431640625-5.5068359375-1.6826171875-1.15625-1.25-1.939453125-3.5126953125-2.349609375-6.791015625l-.806640625-7.2353515625,3.6435546875-5.5703125.271484375,5.2978515625c.0966796875,1.88671875.3955078125,3.2431640625.8994140625,4.0654296875.501953125.8232421875,1.40625,1.1767578125,2.7099609375,1.0615234375s3.1708984375-.599609375,5.6005859375-1.451171875l1.0751953125,1.1083984375c-.224609375,2.2431640625-.798828125,4.287109375-1.72265625,6.126953125-.9248046875,1.8427734375-2.1962890625,3.5322265625-3.814453125,5.0703125Z"/>
        <path class="cls-1" d="M153.181640624998181,124.03466796875l-4.1513671875-2.9169921875-.0888671875-1.740234375c1.3994140625-1.0908203125,2.4970703125-2.3720703125,3.294921875-3.8447265625.7978515625-1.4697265625,1.1630859375-2.8603515625,1.0966796875-4.166015625-.0498046875-.9677734375-.294921875-1.94921875-.7333984375-2.9462890625-.439453125-.9951171875-.990234375-1.7919921875-1.650390625-2.388671875l.09375-1.0224609375c1.20703125-1.0322265625,2.42578125-1.8583984375,3.65625-2.4794921875,1.228515625-.6201171875,2.3271484375-.9560546875,3.294921875-1.005859375,1.7890625-.0908203125,3.2626953125.4873046875,4.41796875,1.7373046875,1.1552734375,1.2509765625,1.7890625,2.96484375,1.900390625,5.1416015625.0869140625,1.6943359375-.3193359375,3.47265625-1.2177734375,5.3369140625-.8994140625,1.865234375-2.189453125,3.6650390625-3.8701171875,5.400390625-1.6826171875,1.7353515625-3.6962890625,3.3662109375-6.04296875,4.89453125Z"/>
        <path class="cls-1" d="M183.380859374998181,114.19189453125c-3,.1533203125-5.763671875-.5283203125-8.2900390625-2.048828125-2.5283203125-1.5185546875-4.587890625-3.6201171875-6.1806640625-6.3037109375-1.591796875-2.68359375-2.47265625-5.6689453125-2.6416015625-8.9599609375-.1708984375-3.337890625.4521484375-6.3037109375,1.8720703125-8.8994140625,1.4189453125-2.59375,3.447265625-4.6630859375,6.0849609375-6.205078125,2.63671875-1.541015625,5.7451171875-2.404296875,9.326171875-2.587890625l8.126953125-.416015625c2.224609375-.1142578125,4.1083984375-.283203125,5.6494140625-.5078125,1.5400390625-.224609375,2.740234375-.478515625,3.5986328125-.7666015625l.98828125.8232421875c-.314453125,2.3935546875-.7958984375,4.587890625-1.4453125,6.5849609375-.650390625,1.9990234375-1.44140625,3.8212890625-2.3759765625,5.4697265625l-.7646484375.693359375-11.83203125.5341796875c-2.0830078125.05859375-3.9267578125.529296875-5.5302734375,1.4111328125-1.603515625.8828125-2.85546875,2.013671875-3.7548828125,3.392578125-.8994140625,1.3818359375-1.3056640625,2.9189453125-1.21875,4.611328125.0498046875.9677734375.330078125,1.705078125.8408203125,2.2109375.5107421875.509765625,1.2265625.73828125,2.1455078125.69140625,1.693359375-.0869140625,3.3681640625-.7548828125,5.0263671875-2.0029296875,1.6572265625-1.25,3.0078125-2.833984375,4.0498046875-4.755859375,1.0400390625-1.919921875,1.5087890625-3.919921875,1.40234375-6.0009765625-.015625-.2900390625-.0751953125-.748046875-.1796875-1.3740234375-.1044921875-.6240234375-.259765625-1.0283203125-.4619140625-1.212890625l6.3720703125.837890625-1.4052734375,2.3994140625c.6787109375.9365234375,1.2880859375,1.935546875,1.828125,2.9990234375.5380859375,1.064453125,1.03125,2.166015625,1.478515625,3.3076171875.1611328125,3.1455078125-.2919921875,5.8974609375-1.359375,8.2548828125-1.068359375,2.359375-2.57421875,4.21875-4.5166015625,5.5791015625-1.943359375,1.3603515625-4.220703125,2.107421875-6.8330078125,2.2412109375Z"/>
        <path class="cls-1" d="M201.992187499998181,86.47119140625l2.833984375-3.4541015625c1.37890625-1.794921875,2.462890625-3.2578125,3.25390625-4.38671875.7900390625-1.12890625,1.3369140625-2.0546875,1.638671875-2.77734375.302734375-.7216796875.42578125-1.3515625.3701171875-1.8857421875-.0341796875-.677734375-.244140625-1.16796875-.626953125-1.4736328125-.3837890625-.3046875-.927734375-.439453125-1.6318359375-.4033203125-.7060546875.0361328125-1.4267578125.3125-2.1640625.8310546875-.736328125.5185546875-1.4072265625,1.2314453125-2.0107421875,2.138671875l-.7197265625.037109375-1.2294921875-4.1357421875c.908203125-1.0361328125,1.845703125-1.9189453125,2.8125-2.646484375.9658203125-.7294921875,1.9697265625-1.2890625,3.0107421875-1.681640625,1.0400390625-.392578125,2.1103515625-.6171875,3.2099609375-.673828125,2.1708984375-.111328125,3.9619140625.3349609375,5.37109375,1.337890625,1.408203125,1.0009765625,2.1572265625,2.36328125,2.2451171875,4.0830078125.0458984375.9033203125-.0986328125,1.8017578125-.4345703125,2.6943359375-.3359375.89453125-.966796875,1.966796875-1.892578125,3.21484375-.9267578125,1.25-2.2861328125,2.8681640625-4.078125,4.853515625l.2314453125.37109375,1.9033203125-.09765625c.76171875-.0390625,1.3681640625-.197265625,1.8212890625-.4765625.4521484375-.27734375.783203125-.6962890625.99609375-1.2587890625.2109375-.5634765625.3486328125-1.326171875.412109375-2.291015625l4.591796875-.6171875c-.13671875,1.1962890625-.244140625,2.267578125-.322265625,3.2197265625-.0791015625.951171875-.154296875,1.9580078125-.2275390625,3.0234375-.072265625,1.0625-.11328125,2.0625-.1220703125,2.99609375l-.681640625.7568359375c-1.498046875.0185546875-2.85546875.0322265625-4.0703125.0380859375-1.2158203125.005859375-2.5166015625.015625-3.9013671875.0302734375-1.384765625.013671875-2.7119140625.0400390625-3.9833984375.0771484375-1.2705078125.0361328125-2.328125.0771484375-3.1748046875.1201171875l-3.0732421875.4541015625-.357421875-2.017578125Z"/>
        <path class="cls-1" d="M225.327148437498181,64.89599609375c-.5498046875-.3095703125-.7705078125-.8330078125-.662109375-1.5673828125.107421875-.732421875.369140625-1.533203125.7861328125-2.4033203125.416015625-.869140625.9296875-1.7333984375,1.5400390625-2.58984375.611328125-.85546875,1.14453125-1.5615234375,1.6015625-2.1181640625.3623046875-.50390625.8427734375-.8076171875,1.4453125-.9111328125.6005859375-.103515625,1.2255859375.021484375,1.8740234375.3759765625,2.298828125,1.337890625,4.443359375,2.9384765625,6.4306640625,4.80078125s3.7529296875,3.91796875,5.2998046875,6.1669921875c1.544921875,2.2490234375,2.798828125,4.70703125,3.7607421875,7.375.9609375,2.6669921875,1.54296875,5.498046875,1.7451171875,8.4951171875.21875,3.3359375.00390625,6.4638671875-.646484375,9.3818359375-.6513671875,2.9208984375-1.6533203125,5.615234375-3.005859375,8.0849609375-1.353515625,2.470703125-2.9970703125,4.701171875-4.931640625,6.69140625-1.935546875,1.9912109375-4.1015625,3.728515625-6.5,5.208984375-.98828125.5830078125-1.98828125.94921875-2.9990234375,1.09765625-1.0107421875.1494140625-1.8271484375-.1474609375-2.447265625-.8916015625-.6767578125-.8876953125-1.3125-1.9453125-1.9091796875-3.177734375-.5966796875-1.2294921875-.9697265625-2.3505859375-1.1171875-3.361328125-.0712890625-.43359375-.068359375-.8330078125.0107421875-1.201171875.078125-.3671875.3037109375-.6826171875.6787109375-.943359375.234375-.158203125.45703125-.3154296875.66796875-.4716796875.2099609375-.1572265625.431640625-.3125.6669921875-.4697265625,2.810546875-1.939453125,4.9814453125-4.0634765625,6.5126953125-6.373046875,1.529296875-2.30859375,2.5478515625-4.689453125,3.052734375-7.1416015625.5048828125-2.451171875.55078125-4.8779296875.13671875-7.283203125-.4140625-2.4033203125-1.173828125-4.6806640625-2.2783203125-6.8310546875s-2.4892578125-4.080078125-4.15234375-5.7900390625c-1.6650390625-1.7080078125-3.517578125-3.0927734375-5.560546875-4.1533203125Z"/>
      </g>
      <g>
        <path class="cls-2" d="M75.971679687498181,68.32958984375c.0751953125.529296875.15625,1.62890625.2412109375,3.296875.0859375,1.669921875.1767578125,3.6904296875.2744140625,6.0615234375.0966796875,2.3720703125.1826171875,4.9755859375.2548828125,7.80859375.072265625,2.833984375.1328125,5.6806640625.1826171875,8.5400390625.1513671875,6.734375.265625,14.1982421875.3466796875,22.3916015625.0703125.4326171875.017578125.82421875-.158203125,1.171875-.1298828125.2978515625-.3701171875.5771484375-.7197265625.837890625-.3486328125.259765625-.861328125.4072265625-1.537109375.4423828125-.724609375.037109375-1.5673828125.1162109375-2.5283203125.2373046875-.9609375.123046875-1.9384765625.18359375-2.9296875.1865234375-.9921875.001953125-1.91796875-.130859375-2.779296875-.40234375s-1.576171875-.7802734375-2.146484375-1.52734375c-.4111328125-.462890625-1.1533203125-1.48046875-2.224609375-3.05078125-1.072265625-1.5703125-2.24609375-3.4619140625-3.521484375-5.6767578125-2.1201171875-3.6259765625-4.265625-7.2392578125-6.43359375-10.837890625-2.1689453125-3.599609375-4.3681640625-7.3310546875-6.59765625-11.1953125l2.06640625,30.3798828125c-.01953125.583984375-.13671875,1.1240234375-.353515625,1.619140625-.2216796875.4482421875-.5537109375.876953125-.99609375,1.2880859375-.443359375.4111328125-1.076171875.6845703125-1.8984375.82421875-.87109375.1416015625-1.7568359375.259765625-2.654296875.3544921875-.8994140625.09375-1.755859375.0654296875-2.568359375-.0869140625-.8125-.1533203125-1.5126953125-.478515625-2.099609375-.9833984375-.587890625-.5029296875-.9833984375-1.306640625-1.185546875-2.4130859375-.125-.52734375-.2421875-1.6357421875-.3525390625-3.328125-.1123046875-1.6923828125-.2275390625-3.72265625-.3486328125-6.09375-.1220703125-2.369140625-.2314453125-4.984375-.3291015625-7.8408203125-.0986328125-2.857421875-.197265625-5.7373046875-.2978515625-8.64453125-.2041015625-6.8271484375-.421875-14.3828125-.6513671875-22.666015625-.0712890625-.43359375-.0185546875-.8232421875.158203125-1.1728515625.1298828125-.296875.345703125-.57421875.6484375-.8330078125.3017578125-.2578125.7900390625-.4287109375,1.46484375-.51171875.384765625-.06640625,1.0478515625-.1494140625,1.98828125-.2470703125.94140625-.095703125,1.9072265625-.1708984375,2.8994140625-.2216796875.990234375-.05078125,1.9013671875-.0244140625,2.732421875.078125.8291015625.103515625,1.349609375.3203125,1.560546875.6474609375,3.41015625,5.0166015625,6.7587890625,10.0341796875,10.0478515625,15.0556640625,3.2880859375,5.0224609375,6.5439453125,10.09375,9.765625,15.21484375l-1.0947265625-28.46484375c.017578125-.58203125.16015625-1.123046875.42578125-1.62109375.2216796875-.400390625.5654296875-.8046875,1.029296875-1.2177734375.462890625-.4111328125,1.12890625-.6875,1.994140625-.830078125.869140625-.091796875,1.7490234375-.173828125,2.6435546875-.244140625.8935546875-.0703125,1.7333984375-.0166015625,2.5185546875.162109375.7841796875.1787109375,1.45703125.5322265625,2.0185546875,1.060546875.560546875.5302734375.9423828125,1.345703125,1.14453125,2.4521484375Z"/>
        <path class="cls-2" d="M104.124999999998181,71.10595703125c-1.97265625,1.265625-3.748046875,2.837890625-5.3251953125,4.7109375-1.5771484375,1.876953125-2.841796875,3.94140625-3.79296875,6.197265625-.9521484375,2.255859375-1.5712890625,4.6044921875-1.8583984375,7.04296875-.287109375,2.44140625-.103515625,4.8564453125.5537109375,7.248046875.6552734375,2.392578125,1.8271484375,4.6611328125,3.513671875,6.8046875,1.685546875,2.1455078125,3.9775390625,4.041015625,6.8759765625,5.6875.248046875.1328125.486328125.2646484375.7109375.3984375.2255859375.134765625.4619140625.2685546875.7119140625.4013671875.3994140625.2216796875.64453125.5126953125.736328125.87109375.0908203125.359375.0986328125.7587890625.0244140625,1.19921875-.044921875,1.0205078125-.337890625,2.1767578125-.876953125,3.4638671875-.541015625,1.2900390625-1.1259765625,2.4111328125-1.755859375,3.365234375-.541015625.8037109375-1.322265625,1.181640625-2.3427734375,1.1376953125-1.0205078125-.044921875-2.052734375-.3076171875-3.0966796875-.7861328125-2.439453125-1.232421875-4.6875-2.7431640625-6.7431640625-4.5302734375-2.0556640625-1.7861328125-3.8349609375-3.8408203125-5.3359375-6.1650390625-1.501953125-2.3232421875-2.6650390625-4.9072265625-3.4892578125-7.751953125-.826171875-2.8427734375-1.2265625-5.939453125-1.2041015625-9.287109375.0390625-3.009765625.4619140625-5.892578125,1.2666015625-8.6494140625.8046875-2.7587890625,1.8974609375-5.3369140625,3.2783203125-7.736328125,1.3798828125-2.3984375,3.01171875-4.62890625,4.8955078125-6.689453125,1.8828125-2.060546875,3.923828125-3.8759765625,6.1240234375-5.443359375.6083984375-.4189453125,1.216796875-.607421875,1.826171875-.56640625.6083984375.0419921875,1.1181640625.294921875,1.5302734375.7587890625.462890625.509765625,1.029296875,1.1591796875,1.7001953125,1.94921875.6708984375.791015625,1.24609375,1.5986328125,1.7255859375,2.421875.478515625.8251953125.796875,1.595703125.955078125,2.3154296875.1572265625.7197265625-.044921875,1.2646484375-.607421875,1.6318359375Z"/>
        <path class="cls-2" d="M114.484374999998181,134.16552734375l-1.2744140625-.734375.705078125-37.3623046875.9482421875,9.994140625c-1.173828125-3.0439453125-2.0673828125-5.7880859375-2.6767578125-8.23046875-.6103515625-2.443359375-.951171875-4.8271484375-1.0205078125-7.150390625-.072265625-2.3251953125.087890625-4.880859375.4794921875-7.6650390625l1.548828125-1.025390625,1.015625-.0517578125,8.876953125,1.4365234375-3.31640625,28.982421875c.6083984375,3.3642578125,1.435546875,6.716796875,2.4794921875,10.05859375,1.0439453125,3.3408203125,2.2802734375,6.6494140625,3.7099609375,9.9228515625-1.9111328125.5830078125-3.8408203125,1.021484375-5.7900390625,1.3154296875s-3.8447265625.462890625-5.685546875.509765625ZM127.188476562498181,116.56298828125c-2.4150390625-.75-4.498046875-2.09765625-6.24609375-4.0458984375l-5.6533203125,3.2724609375,3.7109375-15.615234375c.8818359375,1.119140625,1.6875,1.9404296875,2.41796875,2.458984375.7294921875.521484375,1.43359375.763671875,2.111328125.7294921875,1.3056640625-.0673828125,2.5947265625-.9443359375,3.8662109375-2.6357421875,1.271484375-1.6904296875,2.6455078125-4.2216796875,4.1220703125-7.5966796875-.1015625-1.982421875-.1953125-3.8095703125-.28125-5.4794921875-.0849609375-1.6689453125-.1396484375-3.2041015625-.1630859375-4.6103515625l1.369140625-1.669921875c1.8505859375.1474609375,3.6572265625.357421875,5.4169921875.630859375s3.57421875.677734375,5.4462890625,1.2119140625c-1.1298828125,4.47265625-2.2958984375,8.6796875-3.5009765625,12.6220703125s-2.5703125,7.578125-4.09765625,10.904296875l-1.4736328125-.3603515625c-.728515625,1.880859375-1.5380859375,3.595703125-2.4287109375,5.14453125-.890625,1.5498046875-1.73828125,2.76953125-2.541015625,3.658203125-.802734375.890625-1.494140625,1.3505859375-2.0751953125,1.380859375ZM143.161132812498181,115.88916015625c-2.5166015625.12890625-4.3515625-.431640625-5.5068359375-1.6826171875-1.15625-1.25-1.939453125-3.5126953125-2.349609375-6.791015625l-.806640625-7.2353515625,3.6435546875-5.5703125.271484375,5.2978515625c.0966796875,1.88671875.3955078125,3.2431640625.8994140625,4.0654296875.501953125.8232421875,1.40625,1.1767578125,2.7099609375,1.0615234375s3.1708984375-.599609375,5.6005859375-1.451171875l1.0751953125,1.1083984375c-.224609375,2.2431640625-.798828125,4.287109375-1.72265625,6.126953125-.9248046875,1.8427734375-2.1962890625,3.5322265625-3.814453125,5.0703125Z"/>
        <path class="cls-2" d="M153.181640624998181,124.03466796875l-4.1513671875-2.9169921875-.0888671875-1.740234375c1.3994140625-1.0908203125,2.4970703125-2.3720703125,3.294921875-3.8447265625.7978515625-1.4697265625,1.1630859375-2.8603515625,1.0966796875-4.166015625-.0498046875-.9677734375-.294921875-1.94921875-.7333984375-2.9462890625-.439453125-.9951171875-.990234375-1.7919921875-1.650390625-2.388671875l.09375-1.0224609375c1.20703125-1.0322265625,2.42578125-1.8583984375,3.65625-2.4794921875,1.228515625-.6201171875,2.3271484375-.9560546875,3.294921875-1.005859375,1.7890625-.0908203125,3.2626953125.4873046875,4.41796875,1.7373046875,1.1552734375,1.2509765625,1.7890625,2.96484375,1.900390625,5.1416015625.0869140625,1.6943359375-.3193359375,3.47265625-1.2177734375,5.3369140625-.8994140625,1.865234375-2.189453125,3.6650390625-3.8701171875,5.400390625-1.6826171875,1.7353515625-3.6962890625,3.3662109375-6.04296875,4.89453125Z"/>
        <path class="cls-2" d="M183.380859374998181,114.19189453125c-3,.1533203125-5.763671875-.5283203125-8.2900390625-2.048828125-2.5283203125-1.5185546875-4.587890625-3.6201171875-6.1806640625-6.3037109375-1.591796875-2.68359375-2.47265625-5.6689453125-2.6416015625-8.9599609375-.1708984375-3.337890625.4521484375-6.3037109375,1.8720703125-8.8994140625,1.4189453125-2.59375,3.447265625-4.6630859375,6.0849609375-6.205078125,2.63671875-1.541015625,5.7451171875-2.404296875,9.326171875-2.587890625l8.126953125-.416015625c2.224609375-.1142578125,4.1083984375-.283203125,5.6494140625-.5078125,1.5400390625-.224609375,2.740234375-.478515625,3.5986328125-.7666015625l.98828125.8232421875c-.314453125,2.3935546875-.7958984375,4.587890625-1.4453125,6.5849609375-.650390625,1.9990234375-1.44140625,3.8212890625-2.3759765625,5.4697265625l-.7646484375.693359375-11.83203125.5341796875c-2.0830078125.05859375-3.9267578125.529296875-5.5302734375,1.4111328125-1.603515625.8828125-2.85546875,2.013671875-3.7548828125,3.392578125-.8994140625,1.3818359375-1.3056640625,2.9189453125-1.21875,4.611328125.0498046875.9677734375.330078125,1.705078125.8408203125,2.2109375.5107421875.509765625,1.2265625.73828125,2.1455078125.69140625,1.693359375-.0869140625,3.3681640625-.7548828125,5.0263671875-2.0029296875,1.6572265625-1.25,3.0078125-2.833984375,4.0498046875-4.755859375,1.0400390625-1.919921875,1.5087890625-3.919921875,1.40234375-6.0009765625-.015625-.2900390625-.0751953125-.748046875-.1796875-1.3740234375-.1044921875-.6240234375-.259765625-1.0283203125-.4619140625-1.212890625l6.3720703125.837890625-1.4052734375,2.3994140625c.6787109375.9365234375,1.2880859375,1.935546875,1.828125,2.9990234375.5380859375,1.064453125,1.03125,2.166015625,1.478515625,3.3076171875.1611328125,3.1455078125-.2919921875,5.8974609375-1.359375,8.2548828125-1.068359375,2.359375-2.57421875,4.21875-4.5166015625,5.5791015625-1.943359375,1.3603515625-4.220703125,2.107421875-6.8330078125,2.2412109375Z"/>
        <path class="cls-2" d="M201.992187499998181,86.47119140625l2.833984375-3.4541015625c1.37890625-1.794921875,2.462890625-3.2578125,3.25390625-4.38671875.7900390625-1.12890625,1.3369140625-2.0546875,1.638671875-2.77734375.302734375-.7216796875.42578125-1.3515625.3701171875-1.8857421875-.0341796875-.677734375-.244140625-1.16796875-.626953125-1.4736328125-.3837890625-.3046875-.927734375-.439453125-1.6318359375-.4033203125-.7060546875.0361328125-1.4267578125.3125-2.1640625.8310546875-.736328125.5185546875-1.4072265625,1.2314453125-2.0107421875,2.138671875l-.7197265625.037109375-1.2294921875-4.1357421875c.908203125-1.0361328125,1.845703125-1.9189453125,2.8125-2.646484375.9658203125-.7294921875,1.9697265625-1.2890625,3.0107421875-1.681640625,1.0400390625-.392578125,2.1103515625-.6171875,3.2099609375-.673828125,2.1708984375-.111328125,3.9619140625.3349609375,5.37109375,1.337890625,1.408203125,1.0009765625,2.1572265625,2.36328125,2.2451171875,4.0830078125.0458984375.9033203125-.0986328125,1.8017578125-.4345703125,2.6943359375-.3359375.89453125-.966796875,1.966796875-1.892578125,3.21484375-.9267578125,1.25-2.2861328125,2.8681640625-4.078125,4.853515625l.2314453125.37109375,1.9033203125-.09765625c.76171875-.0390625,1.3681640625-.197265625,1.8212890625-.4765625.4521484375-.27734375.783203125-.6962890625.99609375-1.2587890625.2109375-.5634765625.3486328125-1.326171875.412109375-2.291015625l4.591796875-.6171875c-.13671875,1.1962890625-.244140625,2.267578125-.322265625,3.2197265625-.0791015625.951171875-.154296875,1.9580078125-.2275390625,3.0234375-.072265625,1.0625-.11328125,2.0625-.1220703125,2.99609375l-.681640625.7568359375c-1.498046875.0185546875-2.85546875.0322265625-4.0703125.0380859375-1.2158203125.005859375-2.5166015625.015625-3.9013671875.0302734375-1.384765625.013671875-2.7119140625.0400390625-3.9833984375.0771484375-1.2705078125.0361328125-2.328125.0771484375-3.1748046875.1201171875l-3.0732421875.4541015625-.357421875-2.017578125Z"/>
        <path class="cls-2" d="M225.327148437498181,64.89599609375c-.5498046875-.3095703125-.7705078125-.8330078125-.662109375-1.5673828125.107421875-.732421875.369140625-1.533203125.7861328125-2.4033203125.416015625-.869140625.9296875-1.7333984375,1.5400390625-2.58984375.611328125-.85546875,1.14453125-1.5615234375,1.6015625-2.1181640625.3623046875-.50390625.8427734375-.8076171875,1.4453125-.9111328125.6005859375-.103515625,1.2255859375.021484375,1.8740234375.3759765625,2.298828125,1.337890625,4.443359375,2.9384765625,6.4306640625,4.80078125s3.7529296875,3.91796875,5.2998046875,6.1669921875c1.544921875,2.2490234375,2.798828125,4.70703125,3.7607421875,7.375.9609375,2.6669921875,1.54296875,5.498046875,1.7451171875,8.4951171875.21875,3.3359375.00390625,6.4638671875-.646484375,9.3818359375-.6513671875,2.9208984375-1.6533203125,5.615234375-3.005859375,8.0849609375-1.353515625,2.470703125-2.9970703125,4.701171875-4.931640625,6.69140625-1.935546875,1.9912109375-4.1015625,3.728515625-6.5,5.208984375-.98828125.5830078125-1.98828125.94921875-2.9990234375,1.09765625-1.0107421875.1494140625-1.8271484375-.1474609375-2.447265625-.8916015625-.6767578125-.8876953125-1.3125-1.9453125-1.9091796875-3.177734375-.5966796875-1.2294921875-.9697265625-2.3505859375-1.1171875-3.361328125-.0712890625-.43359375-.068359375-.8330078125.0107421875-1.201171875.078125-.3671875.3037109375-.6826171875.6787109375-.943359375.234375-.158203125.45703125-.3154296875.66796875-.4716796875.2099609375-.1572265625.431640625-.3125.6669921875-.4697265625,2.810546875-1.939453125,4.9814453125-4.0634765625,6.5126953125-6.373046875,1.529296875-2.30859375,2.5478515625-4.689453125,3.052734375-7.1416015625.5048828125-2.451171875.55078125-4.8779296875.13671875-7.283203125-.4140625-2.4033203125-1.173828125-4.6806640625-2.2783203125-6.8310546875s-2.4892578125-4.080078125-4.15234375-5.7900390625c-1.6650390625-1.7080078125-3.517578125-3.0927734375-5.560546875-4.1533203125Z"/>
      </g>
      <g>
        <path class="cls-3" d="M75.971679687498181,68.32958984375c.0751953125.529296875.15625,1.62890625.2412109375,3.296875.0859375,1.669921875.1767578125,3.6904296875.2744140625,6.0615234375.0966796875,2.3720703125.1826171875,4.9755859375.2548828125,7.80859375.072265625,2.833984375.1328125,5.6806640625.1826171875,8.5400390625.1513671875,6.734375.265625,14.1982421875.3466796875,22.3916015625.0703125.4326171875.017578125.82421875-.158203125,1.171875-.1298828125.2978515625-.3701171875.5771484375-.7197265625.837890625-.3486328125.259765625-.861328125.4072265625-1.537109375.4423828125-.724609375.037109375-1.5673828125.1162109375-2.5283203125.2373046875-.9609375.123046875-1.9384765625.18359375-2.9296875.1865234375-.9921875.001953125-1.91796875-.130859375-2.779296875-.40234375s-1.576171875-.7802734375-2.146484375-1.52734375c-.4111328125-.462890625-1.1533203125-1.48046875-2.224609375-3.05078125-1.072265625-1.5703125-2.24609375-3.4619140625-3.521484375-5.6767578125-2.1201171875-3.6259765625-4.265625-7.2392578125-6.43359375-10.837890625-2.1689453125-3.599609375-4.3681640625-7.3310546875-6.59765625-11.1953125l2.06640625,30.3798828125c-.01953125.583984375-.13671875,1.1240234375-.353515625,1.619140625-.2216796875.4482421875-.5537109375.876953125-.99609375,1.2880859375-.443359375.4111328125-1.076171875.6845703125-1.8984375.82421875-.87109375.1416015625-1.7568359375.259765625-2.654296875.3544921875-.8994140625.09375-1.755859375.0654296875-2.568359375-.0869140625-.8125-.1533203125-1.5126953125-.478515625-2.099609375-.9833984375-.587890625-.5029296875-.9833984375-1.306640625-1.185546875-2.4130859375-.125-.52734375-.2421875-1.6357421875-.3525390625-3.328125-.1123046875-1.6923828125-.2275390625-3.72265625-.3486328125-6.09375-.1220703125-2.369140625-.2314453125-4.984375-.3291015625-7.8408203125-.0986328125-2.857421875-.197265625-5.7373046875-.2978515625-8.64453125-.2041015625-6.8271484375-.421875-14.3828125-.6513671875-22.666015625-.0712890625-.43359375-.0185546875-.8232421875.158203125-1.1728515625.1298828125-.296875.345703125-.57421875.6484375-.8330078125.3017578125-.2578125.7900390625-.4287109375,1.46484375-.51171875.384765625-.06640625,1.0478515625-.1494140625,1.98828125-.2470703125.94140625-.095703125,1.9072265625-.1708984375,2.8994140625-.2216796875.990234375-.05078125,1.9013671875-.0244140625,2.732421875.078125.8291015625.103515625,1.349609375.3203125,1.560546875.6474609375,3.41015625,5.0166015625,6.7587890625,10.0341796875,10.0478515625,15.0556640625,3.2880859375,5.0224609375,6.5439453125,10.09375,9.765625,15.21484375l-1.0947265625-28.46484375c.017578125-.58203125.16015625-1.123046875.42578125-1.62109375.2216796875-.400390625.5654296875-.8046875,1.029296875-1.2177734375.462890625-.4111328125,1.12890625-.6875,1.994140625-.830078125.869140625-.091796875,1.7490234375-.173828125,2.6435546875-.244140625.8935546875-.0703125,1.7333984375-.0166015625,2.5185546875.162109375.7841796875.1787109375,1.45703125.5322265625,2.0185546875,1.060546875.560546875.5302734375.9423828125,1.345703125,1.14453125,2.4521484375Z"/>
        <path class="cls-3" d="M104.124999999998181,71.10595703125c-1.97265625,1.265625-3.748046875,2.837890625-5.3251953125,4.7109375-1.5771484375,1.876953125-2.841796875,3.94140625-3.79296875,6.197265625-.9521484375,2.255859375-1.5712890625,4.6044921875-1.8583984375,7.04296875-.287109375,2.44140625-.103515625,4.8564453125.5537109375,7.248046875.6552734375,2.392578125,1.8271484375,4.6611328125,3.513671875,6.8046875,1.685546875,2.1455078125,3.9775390625,4.041015625,6.8759765625,5.6875.248046875.1328125.486328125.2646484375.7109375.3984375.2255859375.134765625.4619140625.2685546875.7119140625.4013671875.3994140625.2216796875.64453125.5126953125.736328125.87109375.0908203125.359375.0986328125.7587890625.0244140625,1.19921875-.044921875,1.0205078125-.337890625,2.1767578125-.876953125,3.4638671875-.541015625,1.2900390625-1.1259765625,2.4111328125-1.755859375,3.365234375-.541015625.8037109375-1.322265625,1.181640625-2.3427734375,1.1376953125-1.0205078125-.044921875-2.052734375-.3076171875-3.0966796875-.7861328125-2.439453125-1.232421875-4.6875-2.7431640625-6.7431640625-4.5302734375-2.0556640625-1.7861328125-3.8349609375-3.8408203125-5.3359375-6.1650390625-1.501953125-2.3232421875-2.6650390625-4.9072265625-3.4892578125-7.751953125-.826171875-2.8427734375-1.2265625-5.939453125-1.2041015625-9.287109375.0390625-3.009765625.4619140625-5.892578125,1.2666015625-8.6494140625.8046875-2.7587890625,1.8974609375-5.3369140625,3.2783203125-7.736328125,1.3798828125-2.3984375,3.01171875-4.62890625,4.8955078125-6.689453125,1.8828125-2.060546875,3.923828125-3.8759765625,6.1240234375-5.443359375.6083984375-.4189453125,1.216796875-.607421875,1.826171875-.56640625.6083984375.0419921875,1.1181640625.294921875,1.5302734375.7587890625.462890625.509765625,1.029296875,1.1591796875,1.7001953125,1.94921875.6708984375.791015625,1.24609375,1.5986328125,1.7255859375,2.421875.478515625.8251953125.796875,1.595703125.955078125,2.3154296875.1572265625.7197265625-.044921875,1.2646484375-.607421875,1.6318359375Z"/>
        <path class="cls-3" d="M114.484374999998181,134.16552734375l-1.2744140625-.734375.705078125-37.3623046875.9482421875,9.994140625c-1.173828125-3.0439453125-2.0673828125-5.7880859375-2.6767578125-8.23046875-.6103515625-2.443359375-.951171875-4.8271484375-1.0205078125-7.150390625-.072265625-2.3251953125.087890625-4.880859375.4794921875-7.6650390625l1.548828125-1.025390625,1.015625-.0517578125,8.876953125,1.4365234375-3.31640625,28.982421875c.6083984375,3.3642578125,1.435546875,6.716796875,2.4794921875,10.05859375,1.0439453125,3.3408203125,2.2802734375,6.6494140625,3.7099609375,9.9228515625-1.9111328125.5830078125-3.8408203125,1.021484375-5.7900390625,1.3154296875s-3.8447265625.462890625-5.685546875.509765625ZM127.188476562498181,116.56298828125c-2.4150390625-.75-4.498046875-2.09765625-6.24609375-4.0458984375l-5.6533203125,3.2724609375,3.7109375-15.615234375c.8818359375,1.119140625,1.6875,1.9404296875,2.41796875,2.458984375.7294921875.521484375,1.43359375.763671875,2.111328125.7294921875,1.3056640625-.0673828125,2.5947265625-.9443359375,3.8662109375-2.6357421875,1.271484375-1.6904296875,2.6455078125-4.2216796875,4.1220703125-7.5966796875-.1015625-1.982421875-.1953125-3.8095703125-.28125-5.4794921875-.0849609375-1.6689453125-.1396484375-3.2041015625-.1630859375-4.6103515625l1.369140625-1.669921875c1.8505859375.1474609375,3.6572265625.357421875,5.4169921875.630859375s3.57421875.677734375,5.4462890625,1.2119140625c-1.1298828125,4.47265625-2.2958984375,8.6796875-3.5009765625,12.6220703125s-2.5703125,7.578125-4.09765625,10.904296875l-1.4736328125-.3603515625c-.728515625,1.880859375-1.5380859375,3.595703125-2.4287109375,5.14453125-.890625,1.5498046875-1.73828125,2.76953125-2.541015625,3.658203125-.802734375.890625-1.494140625,1.3505859375-2.0751953125,1.380859375ZM143.161132812498181,115.88916015625c-2.5166015625.12890625-4.3515625-.431640625-5.5068359375-1.6826171875-1.15625-1.25-1.939453125-3.5126953125-2.349609375-6.791015625l-.806640625-7.2353515625,3.6435546875-5.5703125.271484375,5.2978515625c.0966796875,1.88671875.3955078125,3.2431640625.8994140625,4.0654296875.501953125.8232421875,1.40625,1.1767578125,2.7099609375,1.0615234375s3.1708984375-.599609375,5.6005859375-1.451171875l1.0751953125,1.1083984375c-.224609375,2.2431640625-.798828125,4.287109375-1.72265625,6.126953125-.9248046875,1.8427734375-2.1962890625,3.5322265625-3.814453125,5.0703125Z"/>
        <path class="cls-3" d="M153.181640624998181,124.03466796875l-4.1513671875-2.9169921875-.0888671875-1.740234375c1.3994140625-1.0908203125,2.4970703125-2.3720703125,3.294921875-3.8447265625.7978515625-1.4697265625,1.1630859375-2.8603515625,1.0966796875-4.166015625-.0498046875-.9677734375-.294921875-1.94921875-.7333984375-2.9462890625-.439453125-.9951171875-.990234375-1.7919921875-1.650390625-2.388671875l.09375-1.0224609375c1.20703125-1.0322265625,2.42578125-1.8583984375,3.65625-2.4794921875,1.228515625-.6201171875,2.3271484375-.9560546875,3.294921875-1.005859375,1.7890625-.0908203125,3.2626953125.4873046875,4.41796875,1.7373046875,1.1552734375,1.2509765625,1.7890625,2.96484375,1.900390625,5.1416015625.0869140625,1.6943359375-.3193359375,3.47265625-1.2177734375,5.3369140625-.8994140625,1.865234375-2.189453125,3.6650390625-3.8701171875,5.400390625-1.6826171875,1.7353515625-3.6962890625,3.3662109375-6.04296875,4.89453125Z"/>
        <path class="cls-3" d="M183.380859374998181,114.19189453125c-3,.1533203125-5.763671875-.5283203125-8.2900390625-2.048828125-2.5283203125-1.5185546875-4.587890625-3.6201171875-6.1806640625-6.3037109375-1.591796875-2.68359375-2.47265625-5.6689453125-2.6416015625-8.9599609375-.1708984375-3.337890625.4521484375-6.3037109375,1.8720703125-8.8994140625,1.4189453125-2.59375,3.447265625-4.6630859375,6.0849609375-6.205078125,2.63671875-1.541015625,5.7451171875-2.404296875,9.326171875-2.587890625l8.126953125-.416015625c2.224609375-.1142578125,4.1083984375-.283203125,5.6494140625-.5078125,1.5400390625-.224609375,2.740234375-.478515625,3.5986328125-.7666015625l.98828125.8232421875c-.314453125,2.3935546875-.7958984375,4.587890625-1.4453125,6.5849609375-.650390625,1.9990234375-1.44140625,3.8212890625-2.3759765625,5.4697265625l-.7646484375.693359375-11.83203125.5341796875c-2.0830078125.05859375-3.9267578125.529296875-5.5302734375,1.4111328125-1.603515625.8828125-2.85546875,2.013671875-3.7548828125,3.392578125-.8994140625,1.3818359375-1.3056640625,2.9189453125-1.21875,4.611328125.0498046875.9677734375.330078125,1.705078125.8408203125,2.2109375.5107421875.509765625,1.2265625.73828125,2.1455078125.69140625,1.693359375-.0869140625,3.3681640625-.7548828125,5.0263671875-2.0029296875,1.6572265625-1.25,3.0078125-2.833984375,4.0498046875-4.755859375,1.0400390625-1.919921875,1.5087890625-3.919921875,1.40234375-6.0009765625-.015625-.2900390625-.0751953125-.748046875-.1796875-1.3740234375-.1044921875-.6240234375-.259765625-1.0283203125-.4619140625-1.212890625l6.3720703125.837890625-1.4052734375,2.3994140625c.6787109375.9365234375,1.2880859375,1.935546875,1.828125,2.9990234375.5380859375,1.064453125,1.03125,2.166015625,1.478515625,3.3076171875.1611328125,3.1455078125-.2919921875,5.8974609375-1.359375,8.2548828125-1.068359375,2.359375-2.57421875,4.21875-4.5166015625,5.5791015625-1.943359375,1.3603515625-4.220703125,2.107421875-6.8330078125,2.2412109375Z"/>
        <path class="cls-3" d="M201.992187499998181,86.47119140625l2.833984375-3.4541015625c1.37890625-1.794921875,2.462890625-3.2578125,3.25390625-4.38671875.7900390625-1.12890625,1.3369140625-2.0546875,1.638671875-2.77734375.302734375-.7216796875.42578125-1.3515625.3701171875-1.8857421875-.0341796875-.677734375-.244140625-1.16796875-.626953125-1.4736328125-.3837890625-.3046875-.927734375-.439453125-1.6318359375-.4033203125-.7060546875.0361328125-1.4267578125.3125-2.1640625.8310546875-.736328125.5185546875-1.4072265625,1.2314453125-2.0107421875,2.138671875l-.7197265625.037109375-1.2294921875-4.1357421875c.908203125-1.0361328125,1.845703125-1.9189453125,2.8125-2.646484375.9658203125-.7294921875,1.9697265625-1.2890625,3.0107421875-1.681640625,1.0400390625-.392578125,2.1103515625-.6171875,3.2099609375-.673828125,2.1708984375-.111328125,3.9619140625.3349609375,5.37109375,1.337890625,1.408203125,1.0009765625,2.1572265625,2.36328125,2.2451171875,4.0830078125.0458984375.9033203125-.0986328125,1.8017578125-.4345703125,2.6943359375-.3359375.89453125-.966796875,1.966796875-1.892578125,3.21484375-.9267578125,1.25-2.2861328125,2.8681640625-4.078125,4.853515625l.2314453125.37109375,1.9033203125-.09765625c.76171875-.0390625,1.3681640625-.197265625,1.8212890625-.4765625.4521484375-.27734375.783203125-.6962890625.99609375-1.2587890625.2109375-.5634765625.3486328125-1.326171875.412109375-2.291015625l4.591796875-.6171875c-.13671875,1.1962890625-.244140625,2.267578125-.322265625,3.2197265625-.0791015625.951171875-.154296875,1.9580078125-.2275390625,3.0234375-.072265625,1.0625-.11328125,2.0625-.1220703125,2.99609375l-.681640625.7568359375c-1.498046875.0185546875-2.85546875.0322265625-4.0703125.0380859375-1.2158203125.005859375-2.5166015625.015625-3.9013671875.0302734375-1.384765625.013671875-2.7119140625.0400390625-3.9833984375.0771484375-1.2705078125.0361328125-2.328125.0771484375-3.1748046875.1201171875l-3.0732421875.4541015625-.357421875-2.017578125Z"/>
        <path class="cls-3" d="M225.327148437498181,64.89599609375c-.5498046875-.3095703125-.7705078125-.8330078125-.662109375-1.5673828125.107421875-.732421875.369140625-1.533203125.7861328125-2.4033203125.416015625-.869140625.9296875-1.7333984375,1.5400390625-2.58984375.611328125-.85546875,1.14453125-1.5615234375,1.6015625-2.1181640625.3623046875-.50390625.8427734375-.8076171875,1.4453125-.9111328125.6005859375-.103515625,1.2255859375.021484375,1.8740234375.3759765625,2.298828125,1.337890625,4.443359375,2.9384765625,6.4306640625,4.80078125s3.7529296875,3.91796875,5.2998046875,6.1669921875c1.544921875,2.2490234375,2.798828125,4.70703125,3.7607421875,7.375.9609375,2.6669921875,1.54296875,5.498046875,1.7451171875,8.4951171875.21875,3.3359375.00390625,6.4638671875-.646484375,9.3818359375-.6513671875,2.9208984375-1.6533203125,5.615234375-3.005859375,8.0849609375-1.353515625,2.470703125-2.9970703125,4.701171875-4.931640625,6.69140625-1.935546875,1.9912109375-4.1015625,3.728515625-6.5,5.208984375-.98828125.5830078125-1.98828125.94921875-2.9990234375,1.09765625-1.0107421875.1494140625-1.8271484375-.1474609375-2.447265625-.8916015625-.6767578125-.8876953125-1.3125-1.9453125-1.9091796875-3.177734375-.5966796875-1.2294921875-.9697265625-2.3505859375-1.1171875-3.361328125-.0712890625-.43359375-.068359375-.8330078125.0107421875-1.201171875.078125-.3671875.3037109375-.6826171875.6787109375-.943359375.234375-.158203125.45703125-.3154296875.66796875-.4716796875.2099609375-.1572265625.431640625-.3125.6669921875-.4697265625,2.810546875-1.939453125,4.9814453125-4.0634765625,6.5126953125-6.373046875,1.529296875-2.30859375,2.5478515625-4.689453125,3.052734375-7.1416015625.5048828125-2.451171875.55078125-4.8779296875.13671875-7.283203125-.4140625-2.4033203125-1.173828125-4.6806640625-2.2783203125-6.8310546875s-2.4892578125-4.080078125-4.15234375-5.7900390625c-1.6650390625-1.7080078125-3.517578125-3.0927734375-5.560546875-4.1533203125Z"/>
      </g>
    </g>
  </a>
</svg>