<?xml version="1.0" encoding="UTF-8"?>
<svg id="Content" xmlns="http://www.w3.org/2000/svg" xmlns:xlink="http://www.w3.org/1999/xlink" viewBox="0 0 280 280">
  <defs>
    <style>
      .cls-1 {
        stroke: #665451;
        stroke-width: 50px;
      }

      .cls-1, .cls-2 {
        fill: none;
        stroke-linecap: round;
        stroke-linejoin: round;
      }

      .cls-3 {
        fill: #fff;
      }

      .cls-2 {
        stroke: #998675;
        stroke-width: 2px;
      }

      .cls-4 {
        fill: #665451;
      }

      .cls-5 {
        fill: url(#linear-gradient);
      }
    </style>
    <linearGradient id="linear-gradient" x1="160.961689674973968" y1="-508.824219770744094" x2="160.961689674973968" y2="-626.947693940595855" gradientTransform="translate(15.477430900923537 658.183814096950755) rotate(-3.719431974336864)" gradientUnits="userSpaceOnUse">
      <stop offset=".033113946447839" stop-color="#d4c0a3" stop-opacity="0"/>
      <stop offset=".077445529981579" stop-color="#d4c0a3" stop-opacity=".067075563153634"/>
      <stop offset=".702797202797203" stop-color="#d4c0a3"/>
    </linearGradient>
  </defs>
  <a xlink:href="https://www.notion.so/congruence/Normal-distribution-bae342142c8948bfaa9c958107caa8f5?pvs=4">
    <g>
      <path class="cls-5" d="M255.366497530250854,132.690951815191511c-12.994731304623201-.699423999747523-26.092380030888307-1.994128024436577-37.812880199880965-8.031917783186145-18.105452767365932-9.071295738425761-30.933141988301941-25.928020924744487-39.11861152612255-44.420342646932113-6.912749934799649-14.873244757696739-10.61191406362741-31.754592520221195-20.373455062794164-45.10781812478308-13.257598898462675-18.211288345819412-34.134368363955218-16.09934093897391-48.478902523374927-.397869387068567-17.666905818108717,19.297871880689854-18.203918179633547,47.517288822838964-30.51718146877829,70.017713666107738-11.34957157046847,21.558579152015227-25.369748552671808,31.957228198085431-48.491124955808118,38.788674530333083"/>
      <path class="cls-4" d="M255.366497530250854,120.690951815191511c-4.929961564432233-.26799066563035-9.855442058140397-.623558726649208-14.750757381478252-1.27919785503218l3.190075346516096.428651597362659c-6.640869055085204-.915908500793194-13.188734494695382-2.420243810205648-19.382151875845011-5.026606298715706l2.866554430358519,1.209700180865184c-5.269207778168493-2.266275616064377-10.218537961398397-5.221451446054743-14.772624004559475-8.703138801911336l2.428651597363569,1.876366847532154c-5.597993737068464-4.326891669988072-10.534119616977478-9.417860010705226-14.860045269722832-15.008982307297629l1.876366847533063,2.428651597363569c-6.248692352975922-8.145702300376797-11.037354431624408-17.205454117996851-15.022875727659994-26.641668529274284l1.209700180865184,2.866554430358519c-5.220037033701374-12.456978816929222-8.947393866088532-25.631706817794111-15.649321007400431-37.429602580077699-3.307735838905501-5.82285092238908-7.376287457796934-11.61437814195142-12.646048950595286-15.819529093519122-5.254214908838549-4.192745127808848-11.195987276749293-7.618998436822949-17.939375777474197-8.67256546664521-6.63001609413368-1.035854061087775-13.328536841276218-.860167494536654-19.729279128456255,1.391175086766452-6.745554684886883,2.372623957539872-12.590177849553584,5.978364499721465-17.89983129360553,10.765213273736663-9.91916681190196,8.942495398831852-16.036485220760369,21.188019424024787-20.579976442550105,33.527986339548988-4.495066959945689,12.208448274926923-7.334305755412061,24.978521286376235-12.386625015333266,36.989400801062402l1.209700180865184-2.86655443035761c-3.190065540200521,7.506998774216299-7.253293502546512,14.763141423823981-12.219308881340112,21.243635462952625l1.876366847533063-2.428651597362659c-3.472455083294335,4.489596829879702-7.443017430687178,8.5483036347905-11.932116807302009,12.026539873602815l2.428651597363569-1.876366847532154c-4.986181971933547,3.823825091120852-10.492654551930173,6.856798639491899-16.273222300686029,9.299902698850929l2.866554430358519-1.209700180866093c-3.881003474507452,1.623316687338047-7.859516447888382,2.988885446241511-11.891292678024911,4.185877650423208-2.930853372597994.870139719653707-5.616666168398297,2.857618892646315-7.171572875253332,5.514718625760906-1.505202940194067,2.572163534339779-2.142906468854562,6.363000977879892-1.209700180865184,9.246705123391621.93965661002585,2.903636309103604,2.739043699824833,5.705057238024892,5.514718625759997,7.171572875255151,2.825379522048024,1.492776841938394,6.107904376651277,2.141577301486905,9.246705123394349,1.209700180865184,15.564636763485396-4.620977902382947,30.508230856099544-11.928886047988271,41.599141308410253-24.071199431380592,12.124297053551345-13.273663601429689,19.363058707247546-29.734278164280113,24.65488629245192-46.716426484680596,2.78891673603357-8.949988808597482,5.282752159131633-18.015252799808877,8.930714877860737-26.668092848290144l-1.209700180865184,2.866554430358519c2.440189279957849-5.728745187155255,5.40302594575769-11.218226717704965,9.203553076866228-16.165135219047443l-1.876366847533063,2.428651597362659c2.550803000900487-3.274862204157216,5.416617078142735-6.277379801602365,8.694432611602679-8.832066804162423l-2.428651597363569,1.876366847532154c2.553533388130745-1.955061545652825,5.303667219914132-3.611387650121287,8.263113868608343-4.875881548843608l-2.866554430358519,1.209700180865184c2.484395299356038-1.032449749146508,5.063350273081596-1.766639600828057,7.729081551608033-2.140703475904957l-3.190075346516096.428651597363569c2.380576889108852-.306766133224301,4.76799564292196-.316735024997797,7.148524950349383-.004449507462596l-3.190075346517915-.428651597363569c2.191902022635986.314669445199797,4.31509175930114.895164736706647,6.364807306816147,1.732732800670419l-2.866554430358519-1.209700180865184c2.260145457334147.955998322439882,4.359875129805005,2.19868094125377,6.312219080278737,3.683660872151449l-2.42865159736175-1.876366847532154c2.349981499817659,1.830214475344292,4.413464303113869,3.961112971840521,6.246231440163683,6.305959472651011l-1.876366847533063-2.428651597363569c4.161494773594313,5.43373526110463,7.260905651142821,11.578333655248571,9.923480172783457,17.858802285568345l-1.209700180865184-2.866554430358519c3.757689213318372,8.934410657790067,6.819907043520288,18.137208356964038,10.606026435531021,27.06309912494271,3.210133064490947,7.567985612070515,6.90887123178436,14.922375867534356,11.531839034871155,21.733632741003021,4.963957666248461,7.313654823908109,10.691644991688008,14.25999475979097,17.456418291580121,19.98260946031769,7.894047038194913,6.677916261901373,16.526057823948577,11.893272749660355,26.305290878071901,15.334233608725299,10.769793892566668,3.789503638927272,22.448565130416682,4.743735124764498,33.775016017660164,5.359436296635977,2.97025403754742.161461777381191,6.423888826744587-1.453326078270038,8.485281374238184-3.514718625761816,2.081307336437021-2.081307336436112,3.648605543039594-5.496075058546012,3.514718625761816-8.485281374238184-.139005463135618-3.103484767403643-1.158449558051871-6.32226969283056-3.514718625761816-8.485281374238184-2.418897999270484-2.22050388907428-5.180793710611397-3.33508804711164-8.485281374238184-3.514718625761816h0Z"/>
    </g>
  </a>
  <a xlink:href="https://www.notion.so/congruence/Normal-distribution-bae342142c8948bfaa9c958107caa8f5?pvs=4">
    <g>
      <path class="cls-1" d="M107.838867187498181,152.7314453125c-.0234375.875-.189453125,2.66796875-.5029296875,5.3798828125-.314453125,2.7119140625-.71484375,5.9931640625-1.19921875,9.8408203125-.4873046875,3.84765625-1.0537109375,8.064453125-1.7041015625,12.6494140625-.650390625,4.5859375-1.32421875,9.189453125-2.017578125,13.8095703125-1.5810546875,10.892578125-3.416015625,22.9501953125-5.50390625,36.171875-.0048828125.716796875-.1953125,1.333984375-.572265625,1.8466796875-.291015625.443359375-.7529296875.8291015625-1.3857421875,1.1533203125-.6337890625.326171875-1.498046875.4248046875-2.5966796875.296875-1.177734375-.1357421875-2.556640625-.236328125-4.138671875-.2998046875s-3.1728515625-.228515625-4.7705078125-.4921875c-1.599609375-.265625-3.056640625-.7314453125-4.3701171875-1.40234375-1.3134765625-.669921875-2.328125-1.68359375-3.044921875-3.0419921875-.537109375-.857421875-1.4580078125-2.697265625-2.759765625-5.5185546875-1.30078125-2.8193359375-2.6796875-6.1845703125-4.134765625-10.099609375-2.4345703125-6.4169921875-4.9130859375-12.818359375-7.4326171875-19.2060546875-2.5205078125-6.38671875-5.052734375-12.994140625-7.5986328125-19.822265625l-4.896484375,49.5078125c-.189453125.935546875-.525390625,1.7734375-1.009765625,2.5126953125-.4775390625.662109375-1.1279296875,1.2646484375-1.9521484375,1.8056640625-.8251953125.54296875-1.919921875.8125-3.28125.814453125-1.4443359375-.0078125-2.90234375-.056640625-4.3740234375-.1474609375-1.4736328125-.0927734375-2.8447265625-.3701171875-4.11328125-.8349609375-1.2685546875-.4658203125-2.30859375-1.181640625-3.1171875-2.1533203125-.810546875-.9697265625-1.2314453125-2.3720703125-1.2578125-4.208984375-.0595703125-.8828125.0537109375-2.701171875.3330078125-5.458984375.2783203125-2.755859375.642578125-6.0595703125,1.0888671875-9.9130859375.4462890625-3.8515625.9755859375-8.091796875,1.5927734375-12.72265625.61328125-4.62890625,1.2353515625-9.298828125,1.861328125-14.0068359375,1.51953125-11.05859375,3.21484375-23.291015625,5.0869140625-36.6982421875.001953125-.716796875.1923828125-1.3310546875.5712890625-1.84619140625.2919921875-.4443359375.712890625-.8330078125,1.2705078125-1.16796875.5556640625-.3330078125,1.3896484375-.4755859375,2.4990234375-.42724609375.6376953125-.00439453125,1.728515625.04150390625,3.271484375.1396484375,1.541015625.1005859375,3.1181640625.24169921875,4.73046875.42822265625,1.6103515625.1865234375,3.0703125.4755859375,4.380859375.8662109375,1.30859375.390625,2.0888671875.88037109375,2.3408203125,1.46630859375,4.134765625,9.0048828125,8.1728515625,17.9970703125,12.11328125,26.978515625,3.9384765625,8.982421875,7.810546875,18.0361328125,11.615234375,27.1591796875l5.9423828125-46.16015625c.1865234375-.9345703125.5625-1.7666015625,1.1259765625-2.4990234375.46484375-.5830078125,1.1279296875-1.142578125,1.98828125-1.681640625.857421875-.5380859375,2.0048828125-.802734375,3.4375-.796875,1.42578125.0869140625,2.865234375.193359375,4.3251953125.3212890625,1.458984375.1298828125,2.796875.443359375,4.013671875.943359375,1.2158203125.4990234375,2.205078125,1.251953125,2.9658203125,2.2548828125.7587890625,1.0048828125,1.154296875,2.42578125,1.1796875,4.259765625Z"/>
      <path class="cls-2" d="M107.838867187498181,152.7314453125c-.0234375.875-.189453125,2.66796875-.5029296875,5.3798828125-.314453125,2.7119140625-.71484375,5.9931640625-1.19921875,9.8408203125-.4873046875,3.84765625-1.0537109375,8.064453125-1.7041015625,12.6494140625-.650390625,4.5859375-1.32421875,9.189453125-2.017578125,13.8095703125-1.5810546875,10.892578125-3.416015625,22.9501953125-5.50390625,36.171875-.0048828125.716796875-.1953125,1.333984375-.572265625,1.8466796875-.291015625.443359375-.7529296875.8291015625-1.3857421875,1.1533203125-.6337890625.326171875-1.498046875.4248046875-2.5966796875.296875-1.177734375-.1357421875-2.556640625-.236328125-4.138671875-.2998046875s-3.1728515625-.228515625-4.7705078125-.4921875c-1.599609375-.265625-3.056640625-.7314453125-4.3701171875-1.40234375-1.3134765625-.669921875-2.328125-1.68359375-3.044921875-3.0419921875-.537109375-.857421875-1.4580078125-2.697265625-2.759765625-5.5185546875-1.30078125-2.8193359375-2.6796875-6.1845703125-4.134765625-10.099609375-2.4345703125-6.4169921875-4.9130859375-12.818359375-7.4326171875-19.2060546875-2.5205078125-6.38671875-5.052734375-12.994140625-7.5986328125-19.822265625l-4.896484375,49.5078125c-.189453125.935546875-.525390625,1.7734375-1.009765625,2.5126953125-.4775390625.662109375-1.1279296875,1.2646484375-1.9521484375,1.8056640625-.8251953125.54296875-1.919921875.8125-3.28125.814453125-1.4443359375-.0078125-2.90234375-.056640625-4.3740234375-.1474609375-1.4736328125-.0927734375-2.8447265625-.3701171875-4.11328125-.8349609375-1.2685546875-.4658203125-2.30859375-1.181640625-3.1171875-2.1533203125-.810546875-.9697265625-1.2314453125-2.3720703125-1.2578125-4.208984375-.0595703125-.8828125.0537109375-2.701171875.3330078125-5.458984375.2783203125-2.755859375.642578125-6.0595703125,1.0888671875-9.9130859375.4462890625-3.8515625.9755859375-8.091796875,1.5927734375-12.72265625.61328125-4.62890625,1.2353515625-9.298828125,1.861328125-14.0068359375,1.51953125-11.05859375,3.21484375-23.291015625,5.0869140625-36.6982421875.001953125-.716796875.1923828125-1.3310546875.5712890625-1.84619140625.2919921875-.4443359375.712890625-.8330078125,1.2705078125-1.16796875.5556640625-.3330078125,1.3896484375-.4755859375,2.4990234375-.42724609375.6376953125-.00439453125,1.728515625.04150390625,3.271484375.1396484375,1.541015625.1005859375,3.1181640625.24169921875,4.73046875.42822265625,1.6103515625.1865234375,3.0703125.4755859375,4.380859375.8662109375,1.30859375.390625,2.0888671875.88037109375,2.3408203125,1.46630859375,4.134765625,9.0048828125,8.1728515625,17.9970703125,12.11328125,26.978515625,3.9384765625,8.982421875,7.810546875,18.0361328125,11.615234375,27.1591796875l5.9423828125-46.16015625c.1865234375-.9345703125.5625-1.7666015625,1.1259765625-2.4990234375.46484375-.5830078125,1.1279296875-1.142578125,1.98828125-1.681640625.857421875-.5380859375,2.0048828125-.802734375,3.4375-.796875,1.42578125.0869140625,2.865234375.193359375,4.3251953125.3212890625,1.458984375.1298828125,2.796875.443359375,4.013671875.943359375,1.2158203125.4990234375,2.205078125,1.251953125,2.9658203125,2.2548828125.7587890625,1.0048828125,1.154296875,2.42578125,1.1796875,4.259765625Z"/>
      <path class="cls-3" d="M107.838867187498181,152.7314453125c-.0234375.875-.189453125,2.66796875-.5029296875,5.3798828125-.314453125,2.7119140625-.71484375,5.9931640625-1.19921875,9.8408203125-.4873046875,3.84765625-1.0537109375,8.064453125-1.7041015625,12.6494140625-.650390625,4.5859375-1.32421875,9.189453125-2.017578125,13.8095703125-1.5810546875,10.892578125-3.416015625,22.9501953125-5.50390625,36.171875-.0048828125.716796875-.1953125,1.333984375-.572265625,1.8466796875-.291015625.443359375-.7529296875.8291015625-1.3857421875,1.1533203125-.6337890625.326171875-1.498046875.4248046875-2.5966796875.296875-1.177734375-.1357421875-2.556640625-.236328125-4.138671875-.2998046875s-3.1728515625-.228515625-4.7705078125-.4921875c-1.599609375-.265625-3.056640625-.7314453125-4.3701171875-1.40234375-1.3134765625-.669921875-2.328125-1.68359375-3.044921875-3.0419921875-.537109375-.857421875-1.4580078125-2.697265625-2.759765625-5.5185546875-1.30078125-2.8193359375-2.6796875-6.1845703125-4.134765625-10.099609375-2.4345703125-6.4169921875-4.9130859375-12.818359375-7.4326171875-19.2060546875-2.5205078125-6.38671875-5.052734375-12.994140625-7.5986328125-19.822265625l-4.896484375,49.5078125c-.189453125.935546875-.525390625,1.7734375-1.009765625,2.5126953125-.4775390625.662109375-1.1279296875,1.2646484375-1.9521484375,1.8056640625-.8251953125.54296875-1.919921875.8125-3.28125.814453125-1.4443359375-.0078125-2.90234375-.056640625-4.3740234375-.1474609375-1.4736328125-.0927734375-2.8447265625-.3701171875-4.11328125-.8349609375-1.2685546875-.4658203125-2.30859375-1.181640625-3.1171875-2.1533203125-.810546875-.9697265625-1.2314453125-2.3720703125-1.2578125-4.208984375-.0595703125-.8828125.0537109375-2.701171875.3330078125-5.458984375.2783203125-2.755859375.642578125-6.0595703125,1.0888671875-9.9130859375.4462890625-3.8515625.9755859375-8.091796875,1.5927734375-12.72265625.61328125-4.62890625,1.2353515625-9.298828125,1.861328125-14.0068359375,1.51953125-11.05859375,3.21484375-23.291015625,5.0869140625-36.6982421875.001953125-.716796875.1923828125-1.3310546875.5712890625-1.84619140625.2919921875-.4443359375.712890625-.8330078125,1.2705078125-1.16796875.5556640625-.3330078125,1.3896484375-.4755859375,2.4990234375-.42724609375.6376953125-.00439453125,1.728515625.04150390625,3.271484375.1396484375,1.541015625.1005859375,3.1181640625.24169921875,4.73046875.42822265625,1.6103515625.1865234375,3.0703125.4755859375,4.380859375.8662109375,1.30859375.390625,2.0888671875.88037109375,2.3408203125,1.46630859375,4.134765625,9.0048828125,8.1728515625,17.9970703125,12.11328125,26.978515625,3.9384765625,8.982421875,7.810546875,18.0361328125,11.615234375,27.1591796875l5.9423828125-46.16015625c.1865234375-.9345703125.5625-1.7666015625,1.1259765625-2.4990234375.46484375-.5830078125,1.1279296875-1.142578125,1.98828125-1.681640625.857421875-.5380859375,2.0048828125-.802734375,3.4375-.796875,1.42578125.0869140625,2.865234375.193359375,4.3251953125.3212890625,1.458984375.1298828125,2.796875.443359375,4.013671875.943359375,1.2158203125.4990234375,2.205078125,1.251953125,2.9658203125,2.2548828125.7587890625,1.0048828125,1.154296875,2.42578125,1.1796875,4.259765625Z"/>
    </g>
  </a>
</svg>