<?xml version="1.0" encoding="UTF-8"?>
<svg id="Content" xmlns="http://www.w3.org/2000/svg" xmlns:xlink="http://www.w3.org/1999/xlink" viewBox="0 0 280 280">
  <defs>
    <style>
      .cls-1 {
        stroke: #665451;
        stroke-width: 50px;
      }

      .cls-1, .cls-2 {
        fill: none;
        stroke-linecap: round;
        stroke-linejoin: round;
      }

      .cls-3 {
        fill: #fff;
      }

      .cls-2 {
        stroke: #998675;
        stroke-width: 2px;
      }
    </style>
  </defs>
  <a xlink:href="https://www.notion.so/congruence/Not-A-given-that-B-55ce9dd3da244fcea48eb47d0ad1d7de?pvs=4">
    <g>
      <g>
        <a xlink:href="https://www.notion.so/congruence/B-Event-1f1a5b08a72c49f5ab60f2e0793fd0a8?pvs=4">
          <path class="cls-3" d="M68.9091796875,65.0556640625c2.3603515625,1.123046875,4.4208984375,2.5703125,6.177734375,4.33984375,1.7568359375,1.7705078125,3.2744140625,3.73828125,4.5576171875,5.9052734375,1.279296875,2.16796875,2.3486328125,4.486328125,3.20703125,6.9560546875.857421875,2.4716796875,1.568359375,4.96875,2.130859375,7.4912109375,1.240234375,4.9794921875,2.1279296875,10.046875,2.666015625,15.2021484375.537109375,5.1552734375.869140625,10.357421875.99609375,15.60546875,0,1.494140625-.01953125,2.7216796875-.0615234375,3.6806640625s-.2021484375,1.75-.4794921875,2.369140625c-.279296875.6201171875-.701171875,1.1328125-1.265625,1.537109375-.5654296875.404296875-1.369140625.796875-2.4140625,1.1806640625-1,.2001953125-2.046875.3759765625-3.1396484375.5234375-1.0947265625.1474609375-2.1435546875-.0654296875-3.14453125-.6416015625-.9384765625-.5205078125-1.763671875-1.4697265625-2.4716796875-2.8466796875-.708984375-1.3779296875-1.2021484375-3.3984375-1.4775390625-6.06640625l-.072265625-.890625c-1.4990234375-.056640625-3.2763671875-.0615234375-5.3349609375-.0146484375-2.056640625.046875-4.15625.142578125-6.2958984375.28515625-2.1396484375.14453125-4.2041015625.2958984375-6.1923828125.45703125-1.990234375.1611328125-3.66796875.2978515625-5.0322265625.408203125-.0166015625.5390625-.0185546875,1.435546875-.005859375,2.689453125.0107421875,1.25390625-.0810546875,2.5166015625-.2763671875,3.787109375-.1962890625,1.2705078125-.505859375,2.431640625-.927734375,3.4814453125-.423828125,1.05078125-1.0771484375,1.640625-1.962890625,1.7724609375-.828125.1259765625-1.771484375.26171875-2.8359375.4091796875-1.0634765625.1455078125-2.1123046875.1103515625-3.14453125-.103515625-1.029296875-.1552734375-1.9140625-.5625-2.654296875-1.2197265625-.7412109375-.6572265625-1.203125-1.75390625-1.38671875-3.2939453125-.1494140625-1.83984375-.291015625-3.9501953125-.423828125-6.330078125-.1337890625-2.37890625-.22265625-4.970703125-.271484375-7.7763671875-.068359375-2.3251953125-.08203125-4.8779296875-.0380859375-7.66015625.0439453125-2.7841796875.2001953125-5.6494140625.4697265625-8.6005859375.267578125-2.947265625.685546875-5.9111328125,1.2509765625-8.884765625.56640625-2.9736328125,1.3515625-5.8154296875,2.357421875-8.52734375,1.00390625-2.7109375,2.25-5.232421875,3.734375-7.5634765625,1.4833984375-2.330078125,3.32421875-4.33203125,5.51953125-6.0048828125,2.5908203125-1.9423828125,5.51953125-3.046875,8.78515625-3.3115234375,3.2646484375-.263671875,6.4169921875.287109375,9.45703125,1.6552734375ZM50.5517578125,107.328125c3.7158203125-.599609375,7.4228515625-1.1240234375,11.1220703125-1.57421875,3.697265625-.447265625,7.4228515625-.7646484375,11.171875-.94921875-.162109375-4.2294921875-.646484375-7.984375-1.4501953125-11.267578125-.8037109375-3.28125-1.7744140625-6.025390625-2.908203125-8.234375-1.1357421875-2.2080078125-2.4052734375-3.8681640625-3.8095703125-4.9794921875-1.4052734375-1.111328125-2.7900390625-1.6123046875-4.1552734375-1.501953125-1.1884765625.0966796875-2.3701171875.8056640625-3.5478515625,2.1259765625-1.1787109375,1.3212890625-2.2216796875,3.197265625-3.12890625,5.630859375-.91015625,2.4345703125-1.66796875,5.41015625-2.2802734375,8.9248046875-.6123046875,3.5166015625-.9501953125,7.4580078125-1.013671875,11.8251953125Z"/>
        </a>
        <a xlink:href="https://www.notion.so/congruence/B-Event-1f1a5b08a72c49f5ab60f2e0793fd0a8?pvs=4">
          <path class="cls-3" d="M193.490234375,87.451171875c2.775390625,1.80859375,4.921875,4.1591796875,6.4423828125,7.052734375,1.5185546875,2.8955078125,2.1708984375,5.96484375,1.9560546875,9.208984375-.240234375,3.6650390625-1.419921875,6.82421875-3.53515625,9.474609375-2.115234375,2.6513671875-4.689453125,4.81640625-7.720703125,6.49609375s-6.3525390625,2.9052734375-9.96484375,3.67578125c-3.61328125.7705078125-7.037109375,1.1083984375-10.271484375,1.0126953125-.2890625.140625-.5498046875.236328125-.783203125.287109375-.236328125.048828125-.5.1142578125-.791015625.1982421875-1.064453125.14453125-2.1640625.2333984375-3.294921875.2666015625-1.1337890625.0322265625-2.173828125-.0791015625-3.119140625-.330078125-.947265625-.2509765625-1.77734375-.7216796875-2.490234375-1.4111328125-.71484375-.689453125-1.1845703125-1.7109375-1.4140625-3.068359375-.171875-.6416015625-.30859375-1.9609375-.41015625-3.955078125-.1025390625-1.994140625-.23828125-4.4189453125-.41015625-7.2724609375-.1171875-2.91796875-.2685546875-6.087890625-.4560546875-9.509765625-.1875-3.4208984375-.3916015625-6.8544921875-.6103515625-10.3037109375-.3076171875-4.5166015625-.615234375-9.0625-.92578125-13.6396484375-.3125-4.576171875-.86328125-9.1630859375-1.6533203125-13.7607421875-.1630859375-.5244140625-.1416015625-1.00390625.0625-1.4384765625.0888671875-.3662109375.3291015625-.728515625.7197265625-1.0888671875.3876953125-.359375.9931640625-.6328125,1.8154296875-.8193359375.587890625-.1064453125,1.2353515625-.2490234375,1.9365234375-.42578125.703125-.1767578125,1.4375-.326171875,2.205078125-.447265625.7666015625-.12109375,1.509765625-.181640625,2.2265625-.1806640625.7177734375.0009765625,1.3505859375.0693359375,1.8994140625.2041015625,2.994140625-.6591796875,6.1689453125-.9326171875,9.525390625-.81640625,3.35546875.1171875,6.5517578125.650390625,9.5859375,1.599609375,3.03515625.94921875,5.7158203125,2.330078125,8.044921875,4.1435546875,2.3271484375,1.8134765625,3.9638671875,4.115234375,4.9072265625,6.9072265625.396484375,1.2236328125.681640625,2.515625.8515625,3.875.1689453125,1.3623046875.1357421875,2.783203125-.1025390625,4.2666015625-.23828125,1.484375-.6943359375,3.0458984375-1.3681640625,4.6826171875-.673828125,1.638671875-1.626953125,3.34375-2.857421875,5.1162109375ZM169.91015625,84.0732421875c2.859375-.111328125,5.2392578125-.603515625,7.140625-1.4755859375,1.90234375-.8701171875,3.2958984375-1.923828125,4.181640625-3.1630859375.8857421875-1.236328125,1.2578125-2.5341796875,1.1181640625-3.8994140625-.1416015625-1.361328125-.7587890625-2.537109375-1.8544921875-3.5244140625-1.0966796875-.9873046875-2.6767578125-1.6796875-4.740234375-2.0810546875-2.064453125-.3994140625-4.623046875-.2666015625-7.67578125.3974609375.365234375,2.3017578125.68359375,4.5771484375.9560546875,6.82421875.271484375,2.2509765625.5615234375,4.5576171875.8740234375,6.921875ZM172.26953125,109.876953125c3.234375.095703125,5.923828125-.26953125,8.068359375-1.1015625,2.142578125-.830078125,3.7177734375-1.8544921875,4.7255859375-3.072265625,1.0068359375-1.2158203125,1.4716796875-2.478515625,1.396484375-3.7880859375-.076171875-1.30859375-.6875-2.39453125-1.8330078125-3.2578125-1.14453125-.861328125-2.830078125-1.3681640625-5.052734375-1.517578125-2.2236328125-.1474609375-4.9658203125.298828125-8.228515625,1.3388671875l.923828125,11.3984375Z"/>
        </a>
        <a xlink:href="https://www.notion.so/congruence/B-Event-1f1a5b08a72c49f5ab60f2e0793fd0a8?pvs=4">
          <path class="cls-3" d="M98.638671875,45.2705078125c-.0478515625-1.00390625-.271484375-1.7421875-.67578125-2.2138671875-.40234375-.470703125-.8857421875-.7431640625-1.447265625-.8212890625-.5625-.0751953125-1.1533203125.0341796875-1.7724609375.3271484375-.6201171875.2939453125-1.169921875.685546875-1.6513671875,1.1748046875-1.125,1.1357421875-1.9921875,2.5341796875-2.60546875,4.2001953125-.6123046875,1.6669921875-.9765625,3.3896484375-1.091796875,5.171875-.1171875,1.78125.0078125,3.5361328125.373046875,5.2607421875.3662109375,1.7275390625.98046875,3.197265625,1.84375,4.4130859375.55078125.7890625,1.177734375,1.35546875,1.8828125,1.6982421875.70703125.3427734375,1.44140625.5078125,2.205078125.4990234375.763671875-.009765625,1.5048828125-.19140625,2.2236328125-.544921875.7177734375-.353515625,1.3466796875-.84765625,1.8876953125-1.4833984375.82421875-.9697265625,1.498046875-1.6669921875,2.01953125-2.091796875s1.125-.681640625,1.8134765625-.7724609375c1.96875-.1591796875,3.3154296875.2880859375,4.0458984375,1.3408203125.7275390625,1.0537109375.87890625,2.396484375.4560546875,4.029296875-.3486328125,1.279296875-.9423828125,2.421875-1.7822265625,3.4287109375-.8388671875,1.005859375-1.83984375,1.84375-3.001953125,2.5107421875-1.1630859375.6669921875-2.42578125,1.1689453125-3.7880859375,1.505859375s-2.7216796875.5068359375-4.0771484375.5126953125c-1.3544921875.005859375-2.65625-.17578125-3.9013671875-.5439453125-1.2470703125-.3681640625-2.333984375-.9140625-3.2607421875-1.638671875-1.041015625-.8193359375-1.96875-1.77734375-2.787109375-2.8759765625-.8203125-1.09765625-1.5234375-2.275390625-2.111328125-3.5302734375-.5888671875-1.255859375-1.060546875-2.57421875-1.4150390625-3.953125-.35546875-1.3779296875-.5908203125-2.7744140625-.705078125-4.19140625-.1884765625-3.1806640625.2353515625-6.30859375,1.2734375-9.3828125,1.0361328125-3.072265625,2.5185546875-5.798828125,4.4462890625-8.1796875.884765625-1.0791015625,1.96484375-2.0283203125,3.236328125-2.8427734375,1.271484375-.8154296875,2.599609375-1.3828125,3.98046875-1.7041015625,1.3828125-.3203125,2.7607421875-.3623046875,4.134765625-.1259765625,1.375.236328125,2.625.865234375,3.75,1.884765625.861328125.765625,1.576171875,1.6640625,2.146484375,2.6943359375s1.01953125,2.072265625,1.34765625,3.1220703125c.1953125.6806640625.30859375,1.33203125.341796875,1.9541015625.0322265625.623046875-.06640625,1.2216796875-.2978515625,1.796875-.32421875.720703125-.87109375,1.26171875-1.6416015625,1.619140625-.7705078125.3583984375-1.5478515625.515625-2.333984375.474609375-.78515625-.0400390625-1.482421875-.287109375-2.0927734375-.7421875s-.93359375-1.1142578125-.9677734375-1.98046875Z"/>
        </a>
      </g>
      <g>
        <a xlink:href="https://www.notion.so/congruence/B-Event-1f1a5b08a72c49f5ab60f2e0793fd0a8?pvs=4">
          <g>
            <path class="cls-1" d="M68.9091796875,65.0556640625c2.3603515625,1.123046875,4.4208984375,2.5703125,6.177734375,4.33984375,1.7568359375,1.7705078125,3.2744140625,3.73828125,4.5576171875,5.9052734375,1.279296875,2.16796875,2.3486328125,4.486328125,3.20703125,6.9560546875.857421875,2.4716796875,1.568359375,4.96875,2.130859375,7.4912109375,1.240234375,4.9794921875,2.1279296875,10.046875,2.666015625,15.2021484375.537109375,5.1552734375.869140625,10.357421875.99609375,15.60546875,0,1.494140625-.01953125,2.7216796875-.0615234375,3.6806640625s-.2021484375,1.75-.4794921875,2.369140625c-.279296875.6201171875-.701171875,1.1328125-1.265625,1.537109375-.5654296875.404296875-1.369140625.796875-2.4140625,1.1806640625-1,.2001953125-2.046875.3759765625-3.1396484375.5234375-1.0947265625.1474609375-2.1435546875-.0654296875-3.14453125-.6416015625-.9384765625-.5205078125-1.763671875-1.4697265625-2.4716796875-2.8466796875-.708984375-1.3779296875-1.2021484375-3.3984375-1.4775390625-6.06640625l-.072265625-.890625c-1.4990234375-.056640625-3.2763671875-.0615234375-5.3349609375-.0146484375-2.056640625.046875-4.15625.142578125-6.2958984375.28515625-2.1396484375.14453125-4.2041015625.2958984375-6.1923828125.45703125-1.990234375.1611328125-3.66796875.2978515625-5.0322265625.408203125-.0166015625.5390625-.0185546875,1.435546875-.005859375,2.689453125.0107421875,1.25390625-.0810546875,2.5166015625-.2763671875,3.787109375-.1962890625,1.2705078125-.505859375,2.431640625-.927734375,3.4814453125-.423828125,1.05078125-1.0771484375,1.640625-1.962890625,1.7724609375-.828125.1259765625-1.771484375.26171875-2.8359375.4091796875-1.0634765625.1455078125-2.1123046875.1103515625-3.14453125-.103515625-1.029296875-.1552734375-1.9140625-.5625-2.654296875-1.2197265625-.7412109375-.6572265625-1.203125-1.75390625-1.38671875-3.2939453125-.1494140625-1.83984375-.291015625-3.9501953125-.423828125-6.330078125-.1337890625-2.37890625-.22265625-4.970703125-.271484375-7.7763671875-.068359375-2.3251953125-.08203125-4.8779296875-.0380859375-7.66015625.0439453125-2.7841796875.2001953125-5.6494140625.4697265625-8.6005859375.267578125-2.947265625.685546875-5.9111328125,1.2509765625-8.884765625.56640625-2.9736328125,1.3515625-5.8154296875,2.357421875-8.52734375,1.00390625-2.7109375,2.25-5.232421875,3.734375-7.5634765625,1.4833984375-2.330078125,3.32421875-4.33203125,5.51953125-6.0048828125,2.5908203125-1.9423828125,5.51953125-3.046875,8.78515625-3.3115234375,3.2646484375-.263671875,6.4169921875.287109375,9.45703125,1.6552734375ZM50.5517578125,107.328125c3.7158203125-.599609375,7.4228515625-1.1240234375,11.1220703125-1.57421875,3.697265625-.447265625,7.4228515625-.7646484375,11.171875-.94921875-.162109375-4.2294921875-.646484375-7.984375-1.4501953125-11.267578125-.8037109375-3.28125-1.7744140625-6.025390625-2.908203125-8.234375-1.1357421875-2.2080078125-2.4052734375-3.8681640625-3.8095703125-4.9794921875-1.4052734375-1.111328125-2.7900390625-1.6123046875-4.1552734375-1.501953125-1.1884765625.0966796875-2.3701171875.8056640625-3.5478515625,2.1259765625-1.1787109375,1.3212890625-2.2216796875,3.197265625-3.12890625,5.630859375-.91015625,2.4345703125-1.66796875,5.41015625-2.2802734375,8.9248046875-.6123046875,3.5166015625-.9501953125,7.4580078125-1.013671875,11.8251953125Z"/>
            <path class="cls-1" d="M68.9091796875,65.0556640625c2.3603515625,1.123046875,4.4208984375,2.5703125,6.177734375,4.33984375,1.7568359375,1.7705078125,3.2744140625,3.73828125,4.5576171875,5.9052734375,1.279296875,2.16796875,2.3486328125,4.486328125,3.20703125,6.9560546875.857421875,2.4716796875,1.568359375,4.96875,2.130859375,7.4912109375,1.240234375,4.9794921875,2.1279296875,10.046875,2.666015625,15.2021484375.537109375,5.1552734375.869140625,10.357421875.99609375,15.60546875,0,1.494140625-.01953125,2.7216796875-.0615234375,3.6806640625s-.2021484375,1.75-.4794921875,2.369140625c-.279296875.6201171875-.701171875,1.1328125-1.265625,1.537109375-.5654296875.404296875-1.369140625.796875-2.4140625,1.1806640625-1,.2001953125-2.046875.3759765625-3.1396484375.5234375-1.0947265625.1474609375-2.1435546875-.0654296875-3.14453125-.6416015625-.9384765625-.5205078125-1.763671875-1.4697265625-2.4716796875-2.8466796875-.708984375-1.3779296875-1.2021484375-3.3984375-1.4775390625-6.06640625l-.072265625-.890625c-1.4990234375-.056640625-3.2763671875-.0615234375-5.3349609375-.0146484375-2.056640625.046875-4.15625.142578125-6.2958984375.28515625-2.1396484375.14453125-4.2041015625.2958984375-6.1923828125.45703125-1.990234375.1611328125-3.66796875.2978515625-5.0322265625.408203125-.0166015625.5390625-.0185546875,1.435546875-.005859375,2.689453125.0107421875,1.25390625-.0810546875,2.5166015625-.2763671875,3.787109375-.1962890625,1.2705078125-.505859375,2.431640625-.927734375,3.4814453125-.423828125,1.05078125-1.0771484375,1.640625-1.962890625,1.7724609375-.828125.1259765625-1.771484375.26171875-2.8359375.4091796875-1.0634765625.1455078125-2.1123046875.1103515625-3.14453125-.103515625-1.029296875-.1552734375-1.9140625-.5625-2.654296875-1.2197265625-.7412109375-.6572265625-1.203125-1.75390625-1.38671875-3.2939453125-.1494140625-1.83984375-.291015625-3.9501953125-.423828125-6.330078125-.1337890625-2.37890625-.22265625-4.970703125-.271484375-7.7763671875-.068359375-2.3251953125-.08203125-4.8779296875-.0380859375-7.66015625.0439453125-2.7841796875.2001953125-5.6494140625.4697265625-8.6005859375.267578125-2.947265625.685546875-5.9111328125,1.2509765625-8.884765625.56640625-2.9736328125,1.3515625-5.8154296875,2.357421875-8.52734375,1.00390625-2.7109375,2.25-5.232421875,3.734375-7.5634765625,1.4833984375-2.330078125,3.32421875-4.33203125,5.51953125-6.0048828125,2.5908203125-1.9423828125,5.51953125-3.046875,8.78515625-3.3115234375,3.2646484375-.263671875,6.4169921875.287109375,9.45703125,1.6552734375ZM50.5517578125,107.328125c3.7158203125-.599609375,7.4228515625-1.1240234375,11.1220703125-1.57421875,3.697265625-.447265625,7.4228515625-.7646484375,11.171875-.94921875-.162109375-4.2294921875-.646484375-7.984375-1.4501953125-11.267578125-.8037109375-3.28125-1.7744140625-6.025390625-2.908203125-8.234375-1.1357421875-2.2080078125-2.4052734375-3.8681640625-3.8095703125-4.9794921875-1.4052734375-1.111328125-2.7900390625-1.6123046875-4.1552734375-1.501953125-1.1884765625.0966796875-2.3701171875.8056640625-3.5478515625,2.1259765625-1.1787109375,1.3212890625-2.2216796875,3.197265625-3.12890625,5.630859375-.91015625,2.4345703125-1.66796875,5.41015625-2.2802734375,8.9248046875-.6123046875,3.5166015625-.9501953125,7.4580078125-1.013671875,11.8251953125Z"/>
            <path class="cls-1" d="M68.9091796875,65.0556640625c2.3603515625,1.123046875,4.4208984375,2.5703125,6.177734375,4.33984375,1.7568359375,1.7705078125,3.2744140625,3.73828125,4.5576171875,5.9052734375,1.279296875,2.16796875,2.3486328125,4.486328125,3.20703125,6.9560546875.857421875,2.4716796875,1.568359375,4.96875,2.130859375,7.4912109375,1.240234375,4.9794921875,2.1279296875,10.046875,2.666015625,15.2021484375.537109375,5.1552734375.869140625,10.357421875.99609375,15.60546875,0,1.494140625-.01953125,2.7216796875-.0615234375,3.6806640625s-.2021484375,1.75-.4794921875,2.369140625c-.279296875.6201171875-.701171875,1.1328125-1.265625,1.537109375-.5654296875.404296875-1.369140625.796875-2.4140625,1.1806640625-1,.2001953125-2.046875.3759765625-3.1396484375.5234375-1.0947265625.1474609375-2.1435546875-.0654296875-3.14453125-.6416015625-.9384765625-.5205078125-1.763671875-1.4697265625-2.4716796875-2.8466796875-.708984375-1.3779296875-1.2021484375-3.3984375-1.4775390625-6.06640625l-.072265625-.890625c-1.4990234375-.056640625-3.2763671875-.0615234375-5.3349609375-.0146484375-2.056640625.046875-4.15625.142578125-6.2958984375.28515625-2.1396484375.14453125-4.2041015625.2958984375-6.1923828125.45703125-1.990234375.1611328125-3.66796875.2978515625-5.0322265625.408203125-.0166015625.5390625-.0185546875,1.435546875-.005859375,2.689453125.0107421875,1.25390625-.0810546875,2.5166015625-.2763671875,3.787109375-.1962890625,1.2705078125-.505859375,2.431640625-.927734375,3.4814453125-.423828125,1.05078125-1.0771484375,1.640625-1.962890625,1.7724609375-.828125.1259765625-1.771484375.26171875-2.8359375.4091796875-1.0634765625.1455078125-2.1123046875.1103515625-3.14453125-.103515625-1.029296875-.1552734375-1.9140625-.5625-2.654296875-1.2197265625-.7412109375-.6572265625-1.203125-1.75390625-1.38671875-3.2939453125-.1494140625-1.83984375-.291015625-3.9501953125-.423828125-6.330078125-.1337890625-2.37890625-.22265625-4.970703125-.271484375-7.7763671875-.068359375-2.3251953125-.08203125-4.8779296875-.0380859375-7.66015625.0439453125-2.7841796875.2001953125-5.6494140625.4697265625-8.6005859375.267578125-2.947265625.685546875-5.9111328125,1.2509765625-8.884765625.56640625-2.9736328125,1.3515625-5.8154296875,2.357421875-8.52734375,1.00390625-2.7109375,2.25-5.232421875,3.734375-7.5634765625,1.4833984375-2.330078125,3.32421875-4.33203125,5.51953125-6.0048828125,2.5908203125-1.9423828125,5.51953125-3.046875,8.78515625-3.3115234375,3.2646484375-.263671875,6.4169921875.287109375,9.45703125,1.6552734375ZM50.5517578125,107.328125c3.7158203125-.599609375,7.4228515625-1.1240234375,11.1220703125-1.57421875,3.697265625-.447265625,7.4228515625-.7646484375,11.171875-.94921875-.162109375-4.2294921875-.646484375-7.984375-1.4501953125-11.267578125-.8037109375-3.28125-1.7744140625-6.025390625-2.908203125-8.234375-1.1357421875-2.2080078125-2.4052734375-3.8681640625-3.8095703125-4.9794921875-1.4052734375-1.111328125-2.7900390625-1.6123046875-4.1552734375-1.501953125-1.1884765625.0966796875-2.3701171875.8056640625-3.5478515625,2.1259765625-1.1787109375,1.3212890625-2.2216796875,3.197265625-3.12890625,5.630859375-.91015625,2.4345703125-1.66796875,5.41015625-2.2802734375,8.9248046875-.6123046875,3.5166015625-.9501953125,7.4580078125-1.013671875,11.8251953125Z"/>
          </g>
        </a>
        <a xlink:href="https://www.notion.so/congruence/B-Event-1f1a5b08a72c49f5ab60f2e0793fd0a8?pvs=4">
          <g>
            <path class="cls-1" d="M193.490234375,87.451171875c2.775390625,1.80859375,4.921875,4.1591796875,6.4423828125,7.052734375,1.5185546875,2.8955078125,2.1708984375,5.96484375,1.9560546875,9.208984375-.240234375,3.6650390625-1.419921875,6.82421875-3.53515625,9.474609375-2.115234375,2.6513671875-4.689453125,4.81640625-7.720703125,6.49609375s-6.3525390625,2.9052734375-9.96484375,3.67578125c-3.61328125.7705078125-7.037109375,1.1083984375-10.271484375,1.0126953125-.2890625.140625-.5498046875.236328125-.783203125.287109375-.236328125.048828125-.5.1142578125-.791015625.1982421875-1.064453125.14453125-2.1640625.2333984375-3.294921875.2666015625-1.1337890625.0322265625-2.173828125-.0791015625-3.119140625-.330078125-.947265625-.2509765625-1.77734375-.7216796875-2.490234375-1.4111328125-.71484375-.689453125-1.1845703125-1.7109375-1.4140625-3.068359375-.171875-.6416015625-.30859375-1.9609375-.41015625-3.955078125-.1025390625-1.994140625-.23828125-4.4189453125-.41015625-7.2724609375-.1171875-2.91796875-.2685546875-6.087890625-.4560546875-9.509765625-.1875-3.4208984375-.3916015625-6.8544921875-.6103515625-10.3037109375-.3076171875-4.5166015625-.615234375-9.0625-.92578125-13.6396484375-.3125-4.576171875-.86328125-9.1630859375-1.6533203125-13.7607421875-.1630859375-.5244140625-.1416015625-1.00390625.0625-1.4384765625.0888671875-.3662109375.3291015625-.728515625.7197265625-1.0888671875.3876953125-.359375.9931640625-.6328125,1.8154296875-.8193359375.587890625-.1064453125,1.2353515625-.2490234375,1.9365234375-.42578125.703125-.1767578125,1.4375-.326171875,2.205078125-.447265625.7666015625-.12109375,1.509765625-.181640625,2.2265625-.1806640625.7177734375.0009765625,1.3505859375.0693359375,1.8994140625.2041015625,2.994140625-.6591796875,6.1689453125-.9326171875,9.525390625-.81640625,3.35546875.1171875,6.5517578125.650390625,9.5859375,1.599609375,3.03515625.94921875,5.7158203125,2.330078125,8.044921875,4.1435546875,2.3271484375,1.8134765625,3.9638671875,4.115234375,4.9072265625,6.9072265625.396484375,1.2236328125.681640625,2.515625.8515625,3.875.1689453125,1.3623046875.1357421875,2.783203125-.1025390625,4.2666015625-.23828125,1.484375-.6943359375,3.0458984375-1.3681640625,4.6826171875-.673828125,1.638671875-1.626953125,3.34375-2.857421875,5.1162109375ZM169.91015625,84.0732421875c2.859375-.111328125,5.2392578125-.603515625,7.140625-1.4755859375,1.90234375-.8701171875,3.2958984375-1.923828125,4.181640625-3.1630859375.8857421875-1.236328125,1.2578125-2.5341796875,1.1181640625-3.8994140625-.1416015625-1.361328125-.7587890625-2.537109375-1.8544921875-3.5244140625-1.0966796875-.9873046875-2.6767578125-1.6796875-4.740234375-2.0810546875-2.064453125-.3994140625-4.623046875-.2666015625-7.67578125.3974609375.365234375,2.3017578125.68359375,4.5771484375.9560546875,6.82421875.271484375,2.2509765625.5615234375,4.5576171875.8740234375,6.921875ZM172.26953125,109.876953125c3.234375.095703125,5.923828125-.26953125,8.068359375-1.1015625,2.142578125-.830078125,3.7177734375-1.8544921875,4.7255859375-3.072265625,1.0068359375-1.2158203125,1.4716796875-2.478515625,1.396484375-3.7880859375-.076171875-1.30859375-.6875-2.39453125-1.8330078125-3.2578125-1.14453125-.861328125-2.830078125-1.3681640625-5.052734375-1.517578125-2.2236328125-.1474609375-4.9658203125.298828125-8.228515625,1.3388671875l.923828125,11.3984375Z"/>
            <path class="cls-1" d="M193.490234375,87.451171875c2.775390625,1.80859375,4.921875,4.1591796875,6.4423828125,7.052734375,1.5185546875,2.8955078125,2.1708984375,5.96484375,1.9560546875,9.208984375-.240234375,3.6650390625-1.419921875,6.82421875-3.53515625,9.474609375-2.115234375,2.6513671875-4.689453125,4.81640625-7.720703125,6.49609375s-6.3525390625,2.9052734375-9.96484375,3.67578125c-3.61328125.7705078125-7.037109375,1.1083984375-10.271484375,1.0126953125-.2890625.140625-.5498046875.236328125-.783203125.287109375-.236328125.048828125-.5.1142578125-.791015625.1982421875-1.064453125.14453125-2.1640625.2333984375-3.294921875.2666015625-1.1337890625.0322265625-2.173828125-.0791015625-3.119140625-.330078125-.947265625-.2509765625-1.77734375-.7216796875-2.490234375-1.4111328125-.71484375-.689453125-1.1845703125-1.7109375-1.4140625-3.068359375-.171875-.6416015625-.30859375-1.9609375-.41015625-3.955078125-.1025390625-1.994140625-.23828125-4.4189453125-.41015625-7.2724609375-.1171875-2.91796875-.2685546875-6.087890625-.4560546875-9.509765625-.1875-3.4208984375-.3916015625-6.8544921875-.6103515625-10.3037109375-.3076171875-4.5166015625-.615234375-9.0625-.92578125-13.6396484375-.3125-4.576171875-.86328125-9.1630859375-1.6533203125-13.7607421875-.1630859375-.5244140625-.1416015625-1.00390625.0625-1.4384765625.0888671875-.3662109375.3291015625-.728515625.7197265625-1.0888671875.3876953125-.359375.9931640625-.6328125,1.8154296875-.8193359375.587890625-.1064453125,1.2353515625-.2490234375,1.9365234375-.42578125.703125-.1767578125,1.4375-.326171875,2.205078125-.447265625.7666015625-.12109375,1.509765625-.181640625,2.2265625-.1806640625.7177734375.0009765625,1.3505859375.0693359375,1.8994140625.2041015625,2.994140625-.6591796875,6.1689453125-.9326171875,9.525390625-.81640625,3.35546875.1171875,6.5517578125.650390625,9.5859375,1.599609375,3.03515625.94921875,5.7158203125,2.330078125,8.044921875,4.1435546875,2.3271484375,1.8134765625,3.9638671875,4.115234375,4.9072265625,6.9072265625.396484375,1.2236328125.681640625,2.515625.8515625,3.875.1689453125,1.3623046875.1357421875,2.783203125-.1025390625,4.2666015625-.23828125,1.484375-.6943359375,3.0458984375-1.3681640625,4.6826171875-.673828125,1.638671875-1.626953125,3.34375-2.857421875,5.1162109375ZM169.91015625,84.0732421875c2.859375-.111328125,5.2392578125-.603515625,7.140625-1.4755859375,1.90234375-.8701171875,3.2958984375-1.923828125,4.181640625-3.1630859375.8857421875-1.236328125,1.2578125-2.5341796875,1.1181640625-3.8994140625-.1416015625-1.361328125-.7587890625-2.537109375-1.8544921875-3.5244140625-1.0966796875-.9873046875-2.6767578125-1.6796875-4.740234375-2.0810546875-2.064453125-.3994140625-4.623046875-.2666015625-7.67578125.3974609375.365234375,2.3017578125.68359375,4.5771484375.9560546875,6.82421875.271484375,2.2509765625.5615234375,4.5576171875.8740234375,6.921875ZM172.26953125,109.876953125c3.234375.095703125,5.923828125-.26953125,8.068359375-1.1015625,2.142578125-.830078125,3.7177734375-1.8544921875,4.7255859375-3.072265625,1.0068359375-1.2158203125,1.4716796875-2.478515625,1.396484375-3.7880859375-.076171875-1.30859375-.6875-2.39453125-1.8330078125-3.2578125-1.14453125-.861328125-2.830078125-1.3681640625-5.052734375-1.517578125-2.2236328125-.1474609375-4.9658203125.298828125-8.228515625,1.3388671875l.923828125,11.3984375Z"/>
            <path class="cls-1" d="M193.490234375,87.451171875c2.775390625,1.80859375,4.921875,4.1591796875,6.4423828125,7.052734375,1.5185546875,2.8955078125,2.1708984375,5.96484375,1.9560546875,9.208984375-.240234375,3.6650390625-1.419921875,6.82421875-3.53515625,9.474609375-2.115234375,2.6513671875-4.689453125,4.81640625-7.720703125,6.49609375s-6.3525390625,2.9052734375-9.96484375,3.67578125c-3.61328125.7705078125-7.037109375,1.1083984375-10.271484375,1.0126953125-.2890625.140625-.5498046875.236328125-.783203125.287109375-.236328125.048828125-.5.1142578125-.791015625.1982421875-1.064453125.14453125-2.1640625.2333984375-3.294921875.2666015625-1.1337890625.0322265625-2.173828125-.0791015625-3.119140625-.330078125-.947265625-.2509765625-1.77734375-.7216796875-2.490234375-1.4111328125-.71484375-.689453125-1.1845703125-1.7109375-1.4140625-3.068359375-.171875-.6416015625-.30859375-1.9609375-.41015625-3.955078125-.1025390625-1.994140625-.23828125-4.4189453125-.41015625-7.2724609375-.1171875-2.91796875-.2685546875-6.087890625-.4560546875-9.509765625-.1875-3.4208984375-.3916015625-6.8544921875-.6103515625-10.3037109375-.3076171875-4.5166015625-.615234375-9.0625-.92578125-13.6396484375-.3125-4.576171875-.86328125-9.1630859375-1.6533203125-13.7607421875-.1630859375-.5244140625-.1416015625-1.00390625.0625-1.4384765625.0888671875-.3662109375.3291015625-.728515625.7197265625-1.0888671875.3876953125-.359375.9931640625-.6328125,1.8154296875-.8193359375.587890625-.1064453125,1.2353515625-.2490234375,1.9365234375-.42578125.703125-.1767578125,1.4375-.326171875,2.205078125-.447265625.7666015625-.12109375,1.509765625-.181640625,2.2265625-.1806640625.7177734375.0009765625,1.3505859375.0693359375,1.8994140625.2041015625,2.994140625-.6591796875,6.1689453125-.9326171875,9.525390625-.81640625,3.35546875.1171875,6.5517578125.650390625,9.5859375,1.599609375,3.03515625.94921875,5.7158203125,2.330078125,8.044921875,4.1435546875,2.3271484375,1.8134765625,3.9638671875,4.115234375,4.9072265625,6.9072265625.396484375,1.2236328125.681640625,2.515625.8515625,3.875.1689453125,1.3623046875.1357421875,2.783203125-.1025390625,4.2666015625-.23828125,1.484375-.6943359375,3.0458984375-1.3681640625,4.6826171875-.673828125,1.638671875-1.626953125,3.34375-2.857421875,5.1162109375ZM169.91015625,84.0732421875c2.859375-.111328125,5.2392578125-.603515625,7.140625-1.4755859375,1.90234375-.8701171875,3.2958984375-1.923828125,4.181640625-3.1630859375.8857421875-1.236328125,1.2578125-2.5341796875,1.1181640625-3.8994140625-.1416015625-1.361328125-.7587890625-2.537109375-1.8544921875-3.5244140625-1.0966796875-.9873046875-2.6767578125-1.6796875-4.740234375-2.0810546875-2.064453125-.3994140625-4.623046875-.2666015625-7.67578125.3974609375.365234375,2.3017578125.68359375,4.5771484375.9560546875,6.82421875.271484375,2.2509765625.5615234375,4.5576171875.8740234375,6.921875ZM172.26953125,109.876953125c3.234375.095703125,5.923828125-.26953125,8.068359375-1.1015625,2.142578125-.830078125,3.7177734375-1.8544921875,4.7255859375-3.072265625,1.0068359375-1.2158203125,1.4716796875-2.478515625,1.396484375-3.7880859375-.076171875-1.30859375-.6875-2.39453125-1.8330078125-3.2578125-1.14453125-.861328125-2.830078125-1.3681640625-5.052734375-1.517578125-2.2236328125-.1474609375-4.9658203125.298828125-8.228515625,1.3388671875l.923828125,11.3984375Z"/>
          </g>
        </a>
        <a xlink:href="https://www.notion.so/congruence/B-Event-1f1a5b08a72c49f5ab60f2e0793fd0a8?pvs=4">
          <g>
            <path class="cls-1" d="M98.638671875,45.2705078125c-.0478515625-1.00390625-.271484375-1.7421875-.67578125-2.2138671875-.40234375-.470703125-.8857421875-.7431640625-1.447265625-.8212890625-.5625-.0751953125-1.1533203125.0341796875-1.7724609375.3271484375-.6201171875.2939453125-1.169921875.685546875-1.6513671875,1.1748046875-1.125,1.1357421875-1.9921875,2.5341796875-2.60546875,4.2001953125-.6123046875,1.6669921875-.9765625,3.3896484375-1.091796875,5.171875-.1171875,1.78125.0078125,3.5361328125.373046875,5.2607421875.3662109375,1.7275390625.98046875,3.197265625,1.84375,4.4130859375.55078125.7890625,1.177734375,1.35546875,1.8828125,1.6982421875.70703125.3427734375,1.44140625.5078125,2.205078125.4990234375.763671875-.009765625,1.5048828125-.19140625,2.2236328125-.544921875.7177734375-.353515625,1.3466796875-.84765625,1.8876953125-1.4833984375.82421875-.9697265625,1.498046875-1.6669921875,2.01953125-2.091796875s1.125-.681640625,1.8134765625-.7724609375c1.96875-.1591796875,3.3154296875.2880859375,4.0458984375,1.3408203125.7275390625,1.0537109375.87890625,2.396484375.4560546875,4.029296875-.3486328125,1.279296875-.9423828125,2.421875-1.7822265625,3.4287109375-.8388671875,1.005859375-1.83984375,1.84375-3.001953125,2.5107421875-1.1630859375.6669921875-2.42578125,1.1689453125-3.7880859375,1.505859375s-2.7216796875.5068359375-4.0771484375.5126953125c-1.3544921875.005859375-2.65625-.17578125-3.9013671875-.5439453125-1.2470703125-.3681640625-2.333984375-.9140625-3.2607421875-1.638671875-1.041015625-.8193359375-1.96875-1.77734375-2.787109375-2.8759765625-.8203125-1.09765625-1.5234375-2.275390625-2.111328125-3.5302734375-.5888671875-1.255859375-1.060546875-2.57421875-1.4150390625-3.953125-.35546875-1.3779296875-.5908203125-2.7744140625-.705078125-4.19140625-.1884765625-3.1806640625.2353515625-6.30859375,1.2734375-9.3828125,1.0361328125-3.072265625,2.5185546875-5.798828125,4.4462890625-8.1796875.884765625-1.0791015625,1.96484375-2.0283203125,3.236328125-2.8427734375,1.271484375-.8154296875,2.599609375-1.3828125,3.98046875-1.7041015625,1.3828125-.3203125,2.7607421875-.3623046875,4.134765625-.1259765625,1.375.236328125,2.625.865234375,3.75,1.884765625.861328125.765625,1.576171875,1.6640625,2.146484375,2.6943359375s1.01953125,2.072265625,1.34765625,3.1220703125c.1953125.6806640625.30859375,1.33203125.341796875,1.9541015625.0322265625.623046875-.06640625,1.2216796875-.2978515625,1.796875-.32421875.720703125-.87109375,1.26171875-1.6416015625,1.619140625-.7705078125.3583984375-1.5478515625.515625-2.333984375.474609375-.78515625-.0400390625-1.482421875-.287109375-2.0927734375-.7421875s-.93359375-1.1142578125-.9677734375-1.98046875Z"/>
            <path class="cls-1" d="M98.638671875,45.2705078125c-.0478515625-1.00390625-.271484375-1.7421875-.67578125-2.2138671875-.40234375-.470703125-.8857421875-.7431640625-1.447265625-.8212890625-.5625-.0751953125-1.1533203125.0341796875-1.7724609375.3271484375-.6201171875.2939453125-1.169921875.685546875-1.6513671875,1.1748046875-1.125,1.1357421875-1.9921875,2.5341796875-2.60546875,4.2001953125-.6123046875,1.6669921875-.9765625,3.3896484375-1.091796875,5.171875-.1171875,1.78125.0078125,3.5361328125.373046875,5.2607421875.3662109375,1.7275390625.98046875,3.197265625,1.84375,4.4130859375.55078125.7890625,1.177734375,1.35546875,1.8828125,1.6982421875.70703125.3427734375,1.44140625.5078125,2.205078125.4990234375.763671875-.009765625,1.5048828125-.19140625,2.2236328125-.544921875.7177734375-.353515625,1.3466796875-.84765625,1.8876953125-1.4833984375.82421875-.9697265625,1.498046875-1.6669921875,2.01953125-2.091796875s1.125-.681640625,1.8134765625-.7724609375c1.96875-.1591796875,3.3154296875.2880859375,4.0458984375,1.3408203125.7275390625,1.0537109375.87890625,2.396484375.4560546875,4.029296875-.3486328125,1.279296875-.9423828125,2.421875-1.7822265625,3.4287109375-.8388671875,1.005859375-1.83984375,1.84375-3.001953125,2.5107421875-1.1630859375.6669921875-2.42578125,1.1689453125-3.7880859375,1.505859375s-2.7216796875.5068359375-4.0771484375.5126953125c-1.3544921875.005859375-2.65625-.17578125-3.9013671875-.5439453125-1.2470703125-.3681640625-2.333984375-.9140625-3.2607421875-1.638671875-1.041015625-.8193359375-1.96875-1.77734375-2.787109375-2.8759765625-.8203125-1.09765625-1.5234375-2.275390625-2.111328125-3.5302734375-.5888671875-1.255859375-1.060546875-2.57421875-1.4150390625-3.953125-.35546875-1.3779296875-.5908203125-2.7744140625-.705078125-4.19140625-.1884765625-3.1806640625.2353515625-6.30859375,1.2734375-9.3828125,1.0361328125-3.072265625,2.5185546875-5.798828125,4.4462890625-8.1796875.884765625-1.0791015625,1.96484375-2.0283203125,3.236328125-2.8427734375,1.271484375-.8154296875,2.599609375-1.3828125,3.98046875-1.7041015625,1.3828125-.3203125,2.7607421875-.3623046875,4.134765625-.1259765625,1.375.236328125,2.625.865234375,3.75,1.884765625.861328125.765625,1.576171875,1.6640625,2.146484375,2.6943359375s1.01953125,2.072265625,1.34765625,3.1220703125c.1953125.6806640625.30859375,1.33203125.341796875,1.9541015625.0322265625.623046875-.06640625,1.2216796875-.2978515625,1.796875-.32421875.720703125-.87109375,1.26171875-1.6416015625,1.619140625-.7705078125.3583984375-1.5478515625.515625-2.333984375.474609375-.78515625-.0400390625-1.482421875-.287109375-2.0927734375-.7421875s-.93359375-1.1142578125-.9677734375-1.98046875Z"/>
            <path class="cls-1" d="M98.638671875,45.2705078125c-.0478515625-1.00390625-.271484375-1.7421875-.67578125-2.2138671875-.40234375-.470703125-.8857421875-.7431640625-1.447265625-.8212890625-.5625-.0751953125-1.1533203125.0341796875-1.7724609375.3271484375-.6201171875.2939453125-1.169921875.685546875-1.6513671875,1.1748046875-1.125,1.1357421875-1.9921875,2.5341796875-2.60546875,4.2001953125-.6123046875,1.6669921875-.9765625,3.3896484375-1.091796875,5.171875-.1171875,1.78125.0078125,3.5361328125.373046875,5.2607421875.3662109375,1.7275390625.98046875,3.197265625,1.84375,4.4130859375.55078125.7890625,1.177734375,1.35546875,1.8828125,1.6982421875.70703125.3427734375,1.44140625.5078125,2.205078125.4990234375.763671875-.009765625,1.5048828125-.19140625,2.2236328125-.544921875.7177734375-.353515625,1.3466796875-.84765625,1.8876953125-1.4833984375.82421875-.9697265625,1.498046875-1.6669921875,2.01953125-2.091796875s1.125-.681640625,1.8134765625-.7724609375c1.96875-.1591796875,3.3154296875.2880859375,4.0458984375,1.3408203125.7275390625,1.0537109375.87890625,2.396484375.4560546875,4.029296875-.3486328125,1.279296875-.9423828125,2.421875-1.7822265625,3.4287109375-.8388671875,1.005859375-1.83984375,1.84375-3.001953125,2.5107421875-1.1630859375.6669921875-2.42578125,1.1689453125-3.7880859375,1.505859375s-2.7216796875.5068359375-4.0771484375.5126953125c-1.3544921875.005859375-2.65625-.17578125-3.9013671875-.5439453125-1.2470703125-.3681640625-2.333984375-.9140625-3.2607421875-1.638671875-1.041015625-.8193359375-1.96875-1.77734375-2.787109375-2.8759765625-.8203125-1.09765625-1.5234375-2.275390625-2.111328125-3.5302734375-.5888671875-1.255859375-1.060546875-2.57421875-1.4150390625-3.953125-.35546875-1.3779296875-.5908203125-2.7744140625-.705078125-4.19140625-.1884765625-3.1806640625.2353515625-6.30859375,1.2734375-9.3828125,1.0361328125-3.072265625,2.5185546875-5.798828125,4.4462890625-8.1796875.884765625-1.0791015625,1.96484375-2.0283203125,3.236328125-2.8427734375,1.271484375-.8154296875,2.599609375-1.3828125,3.98046875-1.7041015625,1.3828125-.3203125,2.7607421875-.3623046875,4.134765625-.1259765625,1.375.236328125,2.625.865234375,3.75,1.884765625.861328125.765625,1.576171875,1.6640625,2.146484375,2.6943359375s1.01953125,2.072265625,1.34765625,3.1220703125c.1953125.6806640625.30859375,1.33203125.341796875,1.9541015625.0322265625.623046875-.06640625,1.2216796875-.2978515625,1.796875-.32421875.720703125-.87109375,1.26171875-1.6416015625,1.619140625-.7705078125.3583984375-1.5478515625.515625-2.333984375.474609375-.78515625-.0400390625-1.482421875-.287109375-2.0927734375-.7421875s-.93359375-1.1142578125-.9677734375-1.98046875Z"/>
          </g>
        </a>
        <path class="cls-1" d="M135.375,55.6298828125c-.138671875,12.25390625-.2578125,24.4013671875-.361328125,36.44140625-.1015625,12.0390625-.1201171875,24.1865234375-.05078125,36.44140625-.138671875.859375-.3779296875,1.6494140625-.720703125,2.3642578125-.34375.5751953125-.857421875,1.1474609375-1.54296875,1.720703125-.6865234375.57421875-1.61328125.9296875-2.7783203125,1.07421875-1.234375.1435546875-2.4873046875.232421875-3.7548828125.2685546875-1.2705078125.0361328125-2.4541015625-.107421875-3.55078125-.4296875-1.09765625-.322265625-2.041015625-.8955078125-2.8291015625-1.7197265625-.7900390625-.8232421875-1.2861328125-2.0595703125-1.4921875-3.708984375-.1376953125-.787109375-.2060546875-2.435546875-.2060546875-4.9443359375,0-2.5078125.0517578125-5.5361328125.154296875-9.083984375.103515625-3.546875.22265625-7.4521484375.3603515625-11.716796875.13671875-4.2626953125.3095703125-8.5458984375.5146484375-12.845703125.13671875-4.2998046875.32421875-8.455078125.56640625-12.4697265625.2392578125-4.0126953125.427734375-7.595703125.5654296875-10.75.2060546875-3.654296875.4111328125-7.0947265625.6171875-10.3193359375-.0693359375-.6455078125.0341796875-1.2177734375.3095703125-1.7197265625.205078125-.4306640625.529296875-.806640625.9765625-1.12890625.4453125-.322265625,1.1484375-.51953125,2.109375-.591796875h3.34375c1.26953125,0,2.486328125.0908203125,3.6533203125.26953125,1.1650390625.1796875,2.1435546875.4833984375,2.9326171875.9130859375.787109375.4306640625,1.18359375,1.0751953125,1.18359375,1.935546875Z"/>
      </g>
      <g>
        <a xlink:href="https://www.notion.so/congruence/B-Event-1f1a5b08a72c49f5ab60f2e0793fd0a8?pvs=4">
          <g>
            <path class="cls-2" d="M68.9091796875,65.0556640625c2.3603515625,1.123046875,4.4208984375,2.5703125,6.177734375,4.33984375,1.7568359375,1.7705078125,3.2744140625,3.73828125,4.5576171875,5.9052734375,1.279296875,2.16796875,2.3486328125,4.486328125,3.20703125,6.9560546875.857421875,2.4716796875,1.568359375,4.96875,2.130859375,7.4912109375,1.240234375,4.9794921875,2.1279296875,10.046875,2.666015625,15.2021484375.537109375,5.1552734375.869140625,10.357421875.99609375,15.60546875,0,1.494140625-.01953125,2.7216796875-.0615234375,3.6806640625s-.2021484375,1.75-.4794921875,2.369140625c-.279296875.6201171875-.701171875,1.1328125-1.265625,1.537109375-.5654296875.404296875-1.369140625.796875-2.4140625,1.1806640625-1,.2001953125-2.046875.3759765625-3.1396484375.5234375-1.0947265625.1474609375-2.1435546875-.0654296875-3.14453125-.6416015625-.9384765625-.5205078125-1.763671875-1.4697265625-2.4716796875-2.8466796875-.708984375-1.3779296875-1.2021484375-3.3984375-1.4775390625-6.06640625l-.072265625-.890625c-1.4990234375-.056640625-3.2763671875-.0615234375-5.3349609375-.0146484375-2.056640625.046875-4.15625.142578125-6.2958984375.28515625-2.1396484375.14453125-4.2041015625.2958984375-6.1923828125.45703125-1.990234375.1611328125-3.66796875.2978515625-5.0322265625.408203125-.0166015625.5390625-.0185546875,1.435546875-.005859375,2.689453125.0107421875,1.25390625-.0810546875,2.5166015625-.2763671875,3.787109375-.1962890625,1.2705078125-.505859375,2.431640625-.927734375,3.4814453125-.423828125,1.05078125-1.0771484375,1.640625-1.962890625,1.7724609375-.828125.1259765625-1.771484375.26171875-2.8359375.4091796875-1.0634765625.1455078125-2.1123046875.1103515625-3.14453125-.103515625-1.029296875-.1552734375-1.9140625-.5625-2.654296875-1.2197265625-.7412109375-.6572265625-1.203125-1.75390625-1.38671875-3.2939453125-.1494140625-1.83984375-.291015625-3.9501953125-.423828125-6.330078125-.1337890625-2.37890625-.22265625-4.970703125-.271484375-7.7763671875-.068359375-2.3251953125-.08203125-4.8779296875-.0380859375-7.66015625.0439453125-2.7841796875.2001953125-5.6494140625.4697265625-8.6005859375.267578125-2.947265625.685546875-5.9111328125,1.2509765625-8.884765625.56640625-2.9736328125,1.3515625-5.8154296875,2.357421875-8.52734375,1.00390625-2.7109375,2.25-5.232421875,3.734375-7.5634765625,1.4833984375-2.330078125,3.32421875-4.33203125,5.51953125-6.0048828125,2.5908203125-1.9423828125,5.51953125-3.046875,8.78515625-3.3115234375,3.2646484375-.263671875,6.4169921875.287109375,9.45703125,1.6552734375ZM50.5517578125,107.328125c3.7158203125-.599609375,7.4228515625-1.1240234375,11.1220703125-1.57421875,3.697265625-.447265625,7.4228515625-.7646484375,11.171875-.94921875-.162109375-4.2294921875-.646484375-7.984375-1.4501953125-11.267578125-.8037109375-3.28125-1.7744140625-6.025390625-2.908203125-8.234375-1.1357421875-2.2080078125-2.4052734375-3.8681640625-3.8095703125-4.9794921875-1.4052734375-1.111328125-2.7900390625-1.6123046875-4.1552734375-1.501953125-1.1884765625.0966796875-2.3701171875.8056640625-3.5478515625,2.1259765625-1.1787109375,1.3212890625-2.2216796875,3.197265625-3.12890625,5.630859375-.91015625,2.4345703125-1.66796875,5.41015625-2.2802734375,8.9248046875-.6123046875,3.5166015625-.9501953125,7.4580078125-1.013671875,11.8251953125Z"/>
            <path class="cls-2" d="M68.9091796875,65.0556640625c2.3603515625,1.123046875,4.4208984375,2.5703125,6.177734375,4.33984375,1.7568359375,1.7705078125,3.2744140625,3.73828125,4.5576171875,5.9052734375,1.279296875,2.16796875,2.3486328125,4.486328125,3.20703125,6.9560546875.857421875,2.4716796875,1.568359375,4.96875,2.130859375,7.4912109375,1.240234375,4.9794921875,2.1279296875,10.046875,2.666015625,15.2021484375.537109375,5.1552734375.869140625,10.357421875.99609375,15.60546875,0,1.494140625-.01953125,2.7216796875-.0615234375,3.6806640625s-.2021484375,1.75-.4794921875,2.369140625c-.279296875.6201171875-.701171875,1.1328125-1.265625,1.537109375-.5654296875.404296875-1.369140625.796875-2.4140625,1.1806640625-1,.2001953125-2.046875.3759765625-3.1396484375.5234375-1.0947265625.1474609375-2.1435546875-.0654296875-3.14453125-.6416015625-.9384765625-.5205078125-1.763671875-1.4697265625-2.4716796875-2.8466796875-.708984375-1.3779296875-1.2021484375-3.3984375-1.4775390625-6.06640625l-.072265625-.890625c-1.4990234375-.056640625-3.2763671875-.0615234375-5.3349609375-.0146484375-2.056640625.046875-4.15625.142578125-6.2958984375.28515625-2.1396484375.14453125-4.2041015625.2958984375-6.1923828125.45703125-1.990234375.1611328125-3.66796875.2978515625-5.0322265625.408203125-.0166015625.5390625-.0185546875,1.435546875-.005859375,2.689453125.0107421875,1.25390625-.0810546875,2.5166015625-.2763671875,3.787109375-.1962890625,1.2705078125-.505859375,2.431640625-.927734375,3.4814453125-.423828125,1.05078125-1.0771484375,1.640625-1.962890625,1.7724609375-.828125.1259765625-1.771484375.26171875-2.8359375.4091796875-1.0634765625.1455078125-2.1123046875.1103515625-3.14453125-.103515625-1.029296875-.1552734375-1.9140625-.5625-2.654296875-1.2197265625-.7412109375-.6572265625-1.203125-1.75390625-1.38671875-3.2939453125-.1494140625-1.83984375-.291015625-3.9501953125-.423828125-6.330078125-.1337890625-2.37890625-.22265625-4.970703125-.271484375-7.7763671875-.068359375-2.3251953125-.08203125-4.8779296875-.0380859375-7.66015625.0439453125-2.7841796875.2001953125-5.6494140625.4697265625-8.6005859375.267578125-2.947265625.685546875-5.9111328125,1.2509765625-8.884765625.56640625-2.9736328125,1.3515625-5.8154296875,2.357421875-8.52734375,1.00390625-2.7109375,2.25-5.232421875,3.734375-7.5634765625,1.4833984375-2.330078125,3.32421875-4.33203125,5.51953125-6.0048828125,2.5908203125-1.9423828125,5.51953125-3.046875,8.78515625-3.3115234375,3.2646484375-.263671875,6.4169921875.287109375,9.45703125,1.6552734375ZM50.5517578125,107.328125c3.7158203125-.599609375,7.4228515625-1.1240234375,11.1220703125-1.57421875,3.697265625-.447265625,7.4228515625-.7646484375,11.171875-.94921875-.162109375-4.2294921875-.646484375-7.984375-1.4501953125-11.267578125-.8037109375-3.28125-1.7744140625-6.025390625-2.908203125-8.234375-1.1357421875-2.2080078125-2.4052734375-3.8681640625-3.8095703125-4.9794921875-1.4052734375-1.111328125-2.7900390625-1.6123046875-4.1552734375-1.501953125-1.1884765625.0966796875-2.3701171875.8056640625-3.5478515625,2.1259765625-1.1787109375,1.3212890625-2.2216796875,3.197265625-3.12890625,5.630859375-.91015625,2.4345703125-1.66796875,5.41015625-2.2802734375,8.9248046875-.6123046875,3.5166015625-.9501953125,7.4580078125-1.013671875,11.8251953125Z"/>
            <path class="cls-2" d="M68.9091796875,65.0556640625c2.3603515625,1.123046875,4.4208984375,2.5703125,6.177734375,4.33984375,1.7568359375,1.7705078125,3.2744140625,3.73828125,4.5576171875,5.9052734375,1.279296875,2.16796875,2.3486328125,4.486328125,3.20703125,6.9560546875.857421875,2.4716796875,1.568359375,4.96875,2.130859375,7.4912109375,1.240234375,4.9794921875,2.1279296875,10.046875,2.666015625,15.2021484375.537109375,5.1552734375.869140625,10.357421875.99609375,15.60546875,0,1.494140625-.01953125,2.7216796875-.0615234375,3.6806640625s-.2021484375,1.75-.4794921875,2.369140625c-.279296875.6201171875-.701171875,1.1328125-1.265625,1.537109375-.5654296875.404296875-1.369140625.796875-2.4140625,1.1806640625-1,.2001953125-2.046875.3759765625-3.1396484375.5234375-1.0947265625.1474609375-2.1435546875-.0654296875-3.14453125-.6416015625-.9384765625-.5205078125-1.763671875-1.4697265625-2.4716796875-2.8466796875-.708984375-1.3779296875-1.2021484375-3.3984375-1.4775390625-6.06640625l-.072265625-.890625c-1.4990234375-.056640625-3.2763671875-.0615234375-5.3349609375-.0146484375-2.056640625.046875-4.15625.142578125-6.2958984375.28515625-2.1396484375.14453125-4.2041015625.2958984375-6.1923828125.45703125-1.990234375.1611328125-3.66796875.2978515625-5.0322265625.408203125-.0166015625.5390625-.0185546875,1.435546875-.005859375,2.689453125.0107421875,1.25390625-.0810546875,2.5166015625-.2763671875,3.787109375-.1962890625,1.2705078125-.505859375,2.431640625-.927734375,3.4814453125-.423828125,1.05078125-1.0771484375,1.640625-1.962890625,1.7724609375-.828125.1259765625-1.771484375.26171875-2.8359375.4091796875-1.0634765625.1455078125-2.1123046875.1103515625-3.14453125-.103515625-1.029296875-.1552734375-1.9140625-.5625-2.654296875-1.2197265625-.7412109375-.6572265625-1.203125-1.75390625-1.38671875-3.2939453125-.1494140625-1.83984375-.291015625-3.9501953125-.423828125-6.330078125-.1337890625-2.37890625-.22265625-4.970703125-.271484375-7.7763671875-.068359375-2.3251953125-.08203125-4.8779296875-.0380859375-7.66015625.0439453125-2.7841796875.2001953125-5.6494140625.4697265625-8.6005859375.267578125-2.947265625.685546875-5.9111328125,1.2509765625-8.884765625.56640625-2.9736328125,1.3515625-5.8154296875,2.357421875-8.52734375,1.00390625-2.7109375,2.25-5.232421875,3.734375-7.5634765625,1.4833984375-2.330078125,3.32421875-4.33203125,5.51953125-6.0048828125,2.5908203125-1.9423828125,5.51953125-3.046875,8.78515625-3.3115234375,3.2646484375-.263671875,6.4169921875.287109375,9.45703125,1.6552734375ZM50.5517578125,107.328125c3.7158203125-.599609375,7.4228515625-1.1240234375,11.1220703125-1.57421875,3.697265625-.447265625,7.4228515625-.7646484375,11.171875-.94921875-.162109375-4.2294921875-.646484375-7.984375-1.4501953125-11.267578125-.8037109375-3.28125-1.7744140625-6.025390625-2.908203125-8.234375-1.1357421875-2.2080078125-2.4052734375-3.8681640625-3.8095703125-4.9794921875-1.4052734375-1.111328125-2.7900390625-1.6123046875-4.1552734375-1.501953125-1.1884765625.0966796875-2.3701171875.8056640625-3.5478515625,2.1259765625-1.1787109375,1.3212890625-2.2216796875,3.197265625-3.12890625,5.630859375-.91015625,2.4345703125-1.66796875,5.41015625-2.2802734375,8.9248046875-.6123046875,3.5166015625-.9501953125,7.4580078125-1.013671875,11.8251953125Z"/>
          </g>
        </a>
        <a xlink:href="https://www.notion.so/congruence/B-Event-1f1a5b08a72c49f5ab60f2e0793fd0a8?pvs=4">
          <g>
            <path class="cls-2" d="M193.490234375,87.451171875c2.775390625,1.80859375,4.921875,4.1591796875,6.4423828125,7.052734375,1.5185546875,2.8955078125,2.1708984375,5.96484375,1.9560546875,9.208984375-.240234375,3.6650390625-1.419921875,6.82421875-3.53515625,9.474609375-2.115234375,2.6513671875-4.689453125,4.81640625-7.720703125,6.49609375s-6.3525390625,2.9052734375-9.96484375,3.67578125c-3.61328125.7705078125-7.037109375,1.1083984375-10.271484375,1.0126953125-.2890625.140625-.5498046875.236328125-.783203125.287109375-.236328125.048828125-.5.1142578125-.791015625.1982421875-1.064453125.14453125-2.1640625.2333984375-3.294921875.2666015625-1.1337890625.0322265625-2.173828125-.0791015625-3.119140625-.330078125-.947265625-.2509765625-1.77734375-.7216796875-2.490234375-1.4111328125-.71484375-.689453125-1.1845703125-1.7109375-1.4140625-3.068359375-.171875-.6416015625-.30859375-1.9609375-.41015625-3.955078125-.1025390625-1.994140625-.23828125-4.4189453125-.41015625-7.2724609375-.1171875-2.91796875-.2685546875-6.087890625-.4560546875-9.509765625-.1875-3.4208984375-.3916015625-6.8544921875-.6103515625-10.3037109375-.3076171875-4.5166015625-.615234375-9.0625-.92578125-13.6396484375-.3125-4.576171875-.86328125-9.1630859375-1.6533203125-13.7607421875-.1630859375-.5244140625-.1416015625-1.00390625.0625-1.4384765625.0888671875-.3662109375.3291015625-.728515625.7197265625-1.0888671875.3876953125-.359375.9931640625-.6328125,1.8154296875-.8193359375.587890625-.1064453125,1.2353515625-.2490234375,1.9365234375-.42578125.703125-.1767578125,1.4375-.326171875,2.205078125-.447265625.7666015625-.12109375,1.509765625-.181640625,2.2265625-.1806640625.7177734375.0009765625,1.3505859375.0693359375,1.8994140625.2041015625,2.994140625-.6591796875,6.1689453125-.9326171875,9.525390625-.81640625,3.35546875.1171875,6.5517578125.650390625,9.5859375,1.599609375,3.03515625.94921875,5.7158203125,2.330078125,8.044921875,4.1435546875,2.3271484375,1.8134765625,3.9638671875,4.115234375,4.9072265625,6.9072265625.396484375,1.2236328125.681640625,2.515625.8515625,3.875.1689453125,1.3623046875.1357421875,2.783203125-.1025390625,4.2666015625-.23828125,1.484375-.6943359375,3.0458984375-1.3681640625,4.6826171875-.673828125,1.638671875-1.626953125,3.34375-2.857421875,5.1162109375ZM169.91015625,84.0732421875c2.859375-.111328125,5.2392578125-.603515625,7.140625-1.4755859375,1.90234375-.8701171875,3.2958984375-1.923828125,4.181640625-3.1630859375.8857421875-1.236328125,1.2578125-2.5341796875,1.1181640625-3.8994140625-.1416015625-1.361328125-.7587890625-2.537109375-1.8544921875-3.5244140625-1.0966796875-.9873046875-2.6767578125-1.6796875-4.740234375-2.0810546875-2.064453125-.3994140625-4.623046875-.2666015625-7.67578125.3974609375.365234375,2.3017578125.68359375,4.5771484375.9560546875,6.82421875.271484375,2.2509765625.5615234375,4.5576171875.8740234375,6.921875ZM172.26953125,109.876953125c3.234375.095703125,5.923828125-.26953125,8.068359375-1.1015625,2.142578125-.830078125,3.7177734375-1.8544921875,4.7255859375-3.072265625,1.0068359375-1.2158203125,1.4716796875-2.478515625,1.396484375-3.7880859375-.076171875-1.30859375-.6875-2.39453125-1.8330078125-3.2578125-1.14453125-.861328125-2.830078125-1.3681640625-5.052734375-1.517578125-2.2236328125-.1474609375-4.9658203125.298828125-8.228515625,1.3388671875l.923828125,11.3984375Z"/>
            <path class="cls-2" d="M193.490234375,87.451171875c2.775390625,1.80859375,4.921875,4.1591796875,6.4423828125,7.052734375,1.5185546875,2.8955078125,2.1708984375,5.96484375,1.9560546875,9.208984375-.240234375,3.6650390625-1.419921875,6.82421875-3.53515625,9.474609375-2.115234375,2.6513671875-4.689453125,4.81640625-7.720703125,6.49609375s-6.3525390625,2.9052734375-9.96484375,3.67578125c-3.61328125.7705078125-7.037109375,1.1083984375-10.271484375,1.0126953125-.2890625.140625-.5498046875.236328125-.783203125.287109375-.236328125.048828125-.5.1142578125-.791015625.1982421875-1.064453125.14453125-2.1640625.2333984375-3.294921875.2666015625-1.1337890625.0322265625-2.173828125-.0791015625-3.119140625-.330078125-.947265625-.2509765625-1.77734375-.7216796875-2.490234375-1.4111328125-.71484375-.689453125-1.1845703125-1.7109375-1.4140625-3.068359375-.171875-.6416015625-.30859375-1.9609375-.41015625-3.955078125-.1025390625-1.994140625-.23828125-4.4189453125-.41015625-7.2724609375-.1171875-2.91796875-.2685546875-6.087890625-.4560546875-9.509765625-.1875-3.4208984375-.3916015625-6.8544921875-.6103515625-10.3037109375-.3076171875-4.5166015625-.615234375-9.0625-.92578125-13.6396484375-.3125-4.576171875-.86328125-9.1630859375-1.6533203125-13.7607421875-.1630859375-.5244140625-.1416015625-1.00390625.0625-1.4384765625.0888671875-.3662109375.3291015625-.728515625.7197265625-1.0888671875.3876953125-.359375.9931640625-.6328125,1.8154296875-.8193359375.587890625-.1064453125,1.2353515625-.2490234375,1.9365234375-.42578125.703125-.1767578125,1.4375-.326171875,2.205078125-.447265625.7666015625-.12109375,1.509765625-.181640625,2.2265625-.1806640625.7177734375.0009765625,1.3505859375.0693359375,1.8994140625.2041015625,2.994140625-.6591796875,6.1689453125-.9326171875,9.525390625-.81640625,3.35546875.1171875,6.5517578125.650390625,9.5859375,1.599609375,3.03515625.94921875,5.7158203125,2.330078125,8.044921875,4.1435546875,2.3271484375,1.8134765625,3.9638671875,4.115234375,4.9072265625,6.9072265625.396484375,1.2236328125.681640625,2.515625.8515625,3.875.1689453125,1.3623046875.1357421875,2.783203125-.1025390625,4.2666015625-.23828125,1.484375-.6943359375,3.0458984375-1.3681640625,4.6826171875-.673828125,1.638671875-1.626953125,3.34375-2.857421875,5.1162109375ZM169.91015625,84.0732421875c2.859375-.111328125,5.2392578125-.603515625,7.140625-1.4755859375,1.90234375-.8701171875,3.2958984375-1.923828125,4.181640625-3.1630859375.8857421875-1.236328125,1.2578125-2.5341796875,1.1181640625-3.8994140625-.1416015625-1.361328125-.7587890625-2.537109375-1.8544921875-3.5244140625-1.0966796875-.9873046875-2.6767578125-1.6796875-4.740234375-2.0810546875-2.064453125-.3994140625-4.623046875-.2666015625-7.67578125.3974609375.365234375,2.3017578125.68359375,4.5771484375.9560546875,6.82421875.271484375,2.2509765625.5615234375,4.5576171875.8740234375,6.921875ZM172.26953125,109.876953125c3.234375.095703125,5.923828125-.26953125,8.068359375-1.1015625,2.142578125-.830078125,3.7177734375-1.8544921875,4.7255859375-3.072265625,1.0068359375-1.2158203125,1.4716796875-2.478515625,1.396484375-3.7880859375-.076171875-1.30859375-.6875-2.39453125-1.8330078125-3.2578125-1.14453125-.861328125-2.830078125-1.3681640625-5.052734375-1.517578125-2.2236328125-.1474609375-4.9658203125.298828125-8.228515625,1.3388671875l.923828125,11.3984375Z"/>
            <path class="cls-2" d="M193.490234375,87.451171875c2.775390625,1.80859375,4.921875,4.1591796875,6.4423828125,7.052734375,1.5185546875,2.8955078125,2.1708984375,5.96484375,1.9560546875,9.208984375-.240234375,3.6650390625-1.419921875,6.82421875-3.53515625,9.474609375-2.115234375,2.6513671875-4.689453125,4.81640625-7.720703125,6.49609375s-6.3525390625,2.9052734375-9.96484375,3.67578125c-3.61328125.7705078125-7.037109375,1.1083984375-10.271484375,1.0126953125-.2890625.140625-.5498046875.236328125-.783203125.287109375-.236328125.048828125-.5.1142578125-.791015625.1982421875-1.064453125.14453125-2.1640625.2333984375-3.294921875.2666015625-1.1337890625.0322265625-2.173828125-.0791015625-3.119140625-.330078125-.947265625-.2509765625-1.77734375-.7216796875-2.490234375-1.4111328125-.71484375-.689453125-1.1845703125-1.7109375-1.4140625-3.068359375-.171875-.6416015625-.30859375-1.9609375-.41015625-3.955078125-.1025390625-1.994140625-.23828125-4.4189453125-.41015625-7.2724609375-.1171875-2.91796875-.2685546875-6.087890625-.4560546875-9.509765625-.1875-3.4208984375-.3916015625-6.8544921875-.6103515625-10.3037109375-.3076171875-4.5166015625-.615234375-9.0625-.92578125-13.6396484375-.3125-4.576171875-.86328125-9.1630859375-1.6533203125-13.7607421875-.1630859375-.5244140625-.1416015625-1.00390625.0625-1.4384765625.0888671875-.3662109375.3291015625-.728515625.7197265625-1.0888671875.3876953125-.359375.9931640625-.6328125,1.8154296875-.8193359375.587890625-.1064453125,1.2353515625-.2490234375,1.9365234375-.42578125.703125-.1767578125,1.4375-.326171875,2.205078125-.447265625.7666015625-.12109375,1.509765625-.181640625,2.2265625-.1806640625.7177734375.0009765625,1.3505859375.0693359375,1.8994140625.2041015625,2.994140625-.6591796875,6.1689453125-.9326171875,9.525390625-.81640625,3.35546875.1171875,6.5517578125.650390625,9.5859375,1.599609375,3.03515625.94921875,5.7158203125,2.330078125,8.044921875,4.1435546875,2.3271484375,1.8134765625,3.9638671875,4.115234375,4.9072265625,6.9072265625.396484375,1.2236328125.681640625,2.515625.8515625,3.875.1689453125,1.3623046875.1357421875,2.783203125-.1025390625,4.2666015625-.23828125,1.484375-.6943359375,3.0458984375-1.3681640625,4.6826171875-.673828125,1.638671875-1.626953125,3.34375-2.857421875,5.1162109375ZM169.91015625,84.0732421875c2.859375-.111328125,5.2392578125-.603515625,7.140625-1.4755859375,1.90234375-.8701171875,3.2958984375-1.923828125,4.181640625-3.1630859375.8857421875-1.236328125,1.2578125-2.5341796875,1.1181640625-3.8994140625-.1416015625-1.361328125-.7587890625-2.537109375-1.8544921875-3.5244140625-1.0966796875-.9873046875-2.6767578125-1.6796875-4.740234375-2.0810546875-2.064453125-.3994140625-4.623046875-.2666015625-7.67578125.3974609375.365234375,2.3017578125.68359375,4.5771484375.9560546875,6.82421875.271484375,2.2509765625.5615234375,4.5576171875.8740234375,6.921875ZM172.26953125,109.876953125c3.234375.095703125,5.923828125-.26953125,8.068359375-1.1015625,2.142578125-.830078125,3.7177734375-1.8544921875,4.7255859375-3.072265625,1.0068359375-1.2158203125,1.4716796875-2.478515625,1.396484375-3.7880859375-.076171875-1.30859375-.6875-2.39453125-1.8330078125-3.2578125-1.14453125-.861328125-2.830078125-1.3681640625-5.052734375-1.517578125-2.2236328125-.1474609375-4.9658203125.298828125-8.228515625,1.3388671875l.923828125,11.3984375Z"/>
          </g>
        </a>
        <a xlink:href="https://www.notion.so/congruence/B-Event-1f1a5b08a72c49f5ab60f2e0793fd0a8?pvs=4">
          <g>
            <path class="cls-2" d="M98.638671875,45.2705078125c-.0478515625-1.00390625-.271484375-1.7421875-.67578125-2.2138671875-.40234375-.470703125-.8857421875-.7431640625-1.447265625-.8212890625-.5625-.0751953125-1.1533203125.0341796875-1.7724609375.3271484375-.6201171875.2939453125-1.169921875.685546875-1.6513671875,1.1748046875-1.125,1.1357421875-1.9921875,2.5341796875-2.60546875,4.2001953125-.6123046875,1.6669921875-.9765625,3.3896484375-1.091796875,5.171875-.1171875,1.78125.0078125,3.5361328125.373046875,5.2607421875.3662109375,1.7275390625.98046875,3.197265625,1.84375,4.4130859375.55078125.7890625,1.177734375,1.35546875,1.8828125,1.6982421875.70703125.3427734375,1.44140625.5078125,2.205078125.4990234375.763671875-.009765625,1.5048828125-.19140625,2.2236328125-.544921875.7177734375-.353515625,1.3466796875-.84765625,1.8876953125-1.4833984375.82421875-.9697265625,1.498046875-1.6669921875,2.01953125-2.091796875s1.125-.681640625,1.8134765625-.7724609375c1.96875-.1591796875,3.3154296875.2880859375,4.0458984375,1.3408203125.7275390625,1.0537109375.87890625,2.396484375.4560546875,4.029296875-.3486328125,1.279296875-.9423828125,2.421875-1.7822265625,3.4287109375-.8388671875,1.005859375-1.83984375,1.84375-3.001953125,2.5107421875-1.1630859375.6669921875-2.42578125,1.1689453125-3.7880859375,1.505859375s-2.7216796875.5068359375-4.0771484375.5126953125c-1.3544921875.005859375-2.65625-.17578125-3.9013671875-.5439453125-1.2470703125-.3681640625-2.333984375-.9140625-3.2607421875-1.638671875-1.041015625-.8193359375-1.96875-1.77734375-2.787109375-2.8759765625-.8203125-1.09765625-1.5234375-2.275390625-2.111328125-3.5302734375-.5888671875-1.255859375-1.060546875-2.57421875-1.4150390625-3.953125-.35546875-1.3779296875-.5908203125-2.7744140625-.705078125-4.19140625-.1884765625-3.1806640625.2353515625-6.30859375,1.2734375-9.3828125,1.0361328125-3.072265625,2.5185546875-5.798828125,4.4462890625-8.1796875.884765625-1.0791015625,1.96484375-2.0283203125,3.236328125-2.8427734375,1.271484375-.8154296875,2.599609375-1.3828125,3.98046875-1.7041015625,1.3828125-.3203125,2.7607421875-.3623046875,4.134765625-.1259765625,1.375.236328125,2.625.865234375,3.75,1.884765625.861328125.765625,1.576171875,1.6640625,2.146484375,2.6943359375s1.01953125,2.072265625,1.34765625,3.1220703125c.1953125.6806640625.30859375,1.33203125.341796875,1.9541015625.0322265625.623046875-.06640625,1.2216796875-.2978515625,1.796875-.32421875.720703125-.87109375,1.26171875-1.6416015625,1.619140625-.7705078125.3583984375-1.5478515625.515625-2.333984375.474609375-.78515625-.0400390625-1.482421875-.287109375-2.0927734375-.7421875s-.93359375-1.1142578125-.9677734375-1.98046875Z"/>
            <path class="cls-2" d="M98.638671875,45.2705078125c-.0478515625-1.00390625-.271484375-1.7421875-.67578125-2.2138671875-.40234375-.470703125-.8857421875-.7431640625-1.447265625-.8212890625-.5625-.0751953125-1.1533203125.0341796875-1.7724609375.3271484375-.6201171875.2939453125-1.169921875.685546875-1.6513671875,1.1748046875-1.125,1.1357421875-1.9921875,2.5341796875-2.60546875,4.2001953125-.6123046875,1.6669921875-.9765625,3.3896484375-1.091796875,5.171875-.1171875,1.78125.0078125,3.5361328125.373046875,5.2607421875.3662109375,1.7275390625.98046875,3.197265625,1.84375,4.4130859375.55078125.7890625,1.177734375,1.35546875,1.8828125,1.6982421875.70703125.3427734375,1.44140625.5078125,2.205078125.4990234375.763671875-.009765625,1.5048828125-.19140625,2.2236328125-.544921875.7177734375-.353515625,1.3466796875-.84765625,1.8876953125-1.4833984375.82421875-.9697265625,1.498046875-1.6669921875,2.01953125-2.091796875s1.125-.681640625,1.8134765625-.7724609375c1.96875-.1591796875,3.3154296875.2880859375,4.0458984375,1.3408203125.7275390625,1.0537109375.87890625,2.396484375.4560546875,4.029296875-.3486328125,1.279296875-.9423828125,2.421875-1.7822265625,3.4287109375-.8388671875,1.005859375-1.83984375,1.84375-3.001953125,2.5107421875-1.1630859375.6669921875-2.42578125,1.1689453125-3.7880859375,1.505859375s-2.7216796875.5068359375-4.0771484375.5126953125c-1.3544921875.005859375-2.65625-.17578125-3.9013671875-.5439453125-1.2470703125-.3681640625-2.333984375-.9140625-3.2607421875-1.638671875-1.041015625-.8193359375-1.96875-1.77734375-2.787109375-2.8759765625-.8203125-1.09765625-1.5234375-2.275390625-2.111328125-3.5302734375-.5888671875-1.255859375-1.060546875-2.57421875-1.4150390625-3.953125-.35546875-1.3779296875-.5908203125-2.7744140625-.705078125-4.19140625-.1884765625-3.1806640625.2353515625-6.30859375,1.2734375-9.3828125,1.0361328125-3.072265625,2.5185546875-5.798828125,4.4462890625-8.1796875.884765625-1.0791015625,1.96484375-2.0283203125,3.236328125-2.8427734375,1.271484375-.8154296875,2.599609375-1.3828125,3.98046875-1.7041015625,1.3828125-.3203125,2.7607421875-.3623046875,4.134765625-.1259765625,1.375.236328125,2.625.865234375,3.75,1.884765625.861328125.765625,1.576171875,1.6640625,2.146484375,2.6943359375s1.01953125,2.072265625,1.34765625,3.1220703125c.1953125.6806640625.30859375,1.33203125.341796875,1.9541015625.0322265625.623046875-.06640625,1.2216796875-.2978515625,1.796875-.32421875.720703125-.87109375,1.26171875-1.6416015625,1.619140625-.7705078125.3583984375-1.5478515625.515625-2.333984375.474609375-.78515625-.0400390625-1.482421875-.287109375-2.0927734375-.7421875s-.93359375-1.1142578125-.9677734375-1.98046875Z"/>
            <path class="cls-2" d="M98.638671875,45.2705078125c-.0478515625-1.00390625-.271484375-1.7421875-.67578125-2.2138671875-.40234375-.470703125-.8857421875-.7431640625-1.447265625-.8212890625-.5625-.0751953125-1.1533203125.0341796875-1.7724609375.3271484375-.6201171875.2939453125-1.169921875.685546875-1.6513671875,1.1748046875-1.125,1.1357421875-1.9921875,2.5341796875-2.60546875,4.2001953125-.6123046875,1.6669921875-.9765625,3.3896484375-1.091796875,5.171875-.1171875,1.78125.0078125,3.5361328125.373046875,5.2607421875.3662109375,1.7275390625.98046875,3.197265625,1.84375,4.4130859375.55078125.7890625,1.177734375,1.35546875,1.8828125,1.6982421875.70703125.3427734375,1.44140625.5078125,2.205078125.4990234375.763671875-.009765625,1.5048828125-.19140625,2.2236328125-.544921875.7177734375-.353515625,1.3466796875-.84765625,1.8876953125-1.4833984375.82421875-.9697265625,1.498046875-1.6669921875,2.01953125-2.091796875s1.125-.681640625,1.8134765625-.7724609375c1.96875-.1591796875,3.3154296875.2880859375,4.0458984375,1.3408203125.7275390625,1.0537109375.87890625,2.396484375.4560546875,4.029296875-.3486328125,1.279296875-.9423828125,2.421875-1.7822265625,3.4287109375-.8388671875,1.005859375-1.83984375,1.84375-3.001953125,2.5107421875-1.1630859375.6669921875-2.42578125,1.1689453125-3.7880859375,1.505859375s-2.7216796875.5068359375-4.0771484375.5126953125c-1.3544921875.005859375-2.65625-.17578125-3.9013671875-.5439453125-1.2470703125-.3681640625-2.333984375-.9140625-3.2607421875-1.638671875-1.041015625-.8193359375-1.96875-1.77734375-2.787109375-2.8759765625-.8203125-1.09765625-1.5234375-2.275390625-2.111328125-3.5302734375-.5888671875-1.255859375-1.060546875-2.57421875-1.4150390625-3.953125-.35546875-1.3779296875-.5908203125-2.7744140625-.705078125-4.19140625-.1884765625-3.1806640625.2353515625-6.30859375,1.2734375-9.3828125,1.0361328125-3.072265625,2.5185546875-5.798828125,4.4462890625-8.1796875.884765625-1.0791015625,1.96484375-2.0283203125,3.236328125-2.8427734375,1.271484375-.8154296875,2.599609375-1.3828125,3.98046875-1.7041015625,1.3828125-.3203125,2.7607421875-.3623046875,4.134765625-.1259765625,1.375.236328125,2.625.865234375,3.75,1.884765625.861328125.765625,1.576171875,1.6640625,2.146484375,2.6943359375s1.01953125,2.072265625,1.34765625,3.1220703125c.1953125.6806640625.30859375,1.33203125.341796875,1.9541015625.0322265625.623046875-.06640625,1.2216796875-.2978515625,1.796875-.32421875.720703125-.87109375,1.26171875-1.6416015625,1.619140625-.7705078125.3583984375-1.5478515625.515625-2.333984375.474609375-.78515625-.0400390625-1.482421875-.287109375-2.0927734375-.7421875s-.93359375-1.1142578125-.9677734375-1.98046875Z"/>
          </g>
        </a>
        <path class="cls-2" d="M135.375,55.6298828125c-.138671875,12.25390625-.2578125,24.4013671875-.361328125,36.44140625-.1015625,12.0390625-.1201171875,24.1865234375-.05078125,36.44140625-.138671875.859375-.3779296875,1.6494140625-.720703125,2.3642578125-.34375.5751953125-.857421875,1.1474609375-1.54296875,1.720703125-.6865234375.57421875-1.61328125.9296875-2.7783203125,1.07421875-1.234375.1435546875-2.4873046875.232421875-3.7548828125.2685546875-1.2705078125.0361328125-2.4541015625-.107421875-3.55078125-.4296875-1.09765625-.322265625-2.041015625-.8955078125-2.8291015625-1.7197265625-.7900390625-.8232421875-1.2861328125-2.0595703125-1.4921875-3.708984375-.1376953125-.787109375-.2060546875-2.435546875-.2060546875-4.9443359375,0-2.5078125.0517578125-5.5361328125.154296875-9.083984375.103515625-3.546875.22265625-7.4521484375.3603515625-11.716796875.13671875-4.2626953125.3095703125-8.5458984375.5146484375-12.845703125.13671875-4.2998046875.32421875-8.455078125.56640625-12.4697265625.2392578125-4.0126953125.427734375-7.595703125.5654296875-10.75.2060546875-3.654296875.4111328125-7.0947265625.6171875-10.3193359375-.0693359375-.6455078125.0341796875-1.2177734375.3095703125-1.7197265625.205078125-.4306640625.529296875-.806640625.9765625-1.12890625.4453125-.322265625,1.1484375-.51953125,2.109375-.591796875h3.34375c1.26953125,0,2.486328125.0908203125,3.6533203125.26953125,1.1650390625.1796875,2.1435546875.4833984375,2.9326171875.9130859375.787109375.4306640625,1.18359375,1.0751953125,1.18359375,1.935546875Z"/>
      </g>
      <g>
        <a xlink:href="https://www.notion.so/congruence/B-Event-1f1a5b08a72c49f5ab60f2e0793fd0a8?pvs=4">
          <g>
            <path class="cls-3" d="M68.9091796875,65.0556640625c2.3603515625,1.123046875,4.4208984375,2.5703125,6.177734375,4.33984375,1.7568359375,1.7705078125,3.2744140625,3.73828125,4.5576171875,5.9052734375,1.279296875,2.16796875,2.3486328125,4.486328125,3.20703125,6.9560546875.857421875,2.4716796875,1.568359375,4.96875,2.130859375,7.4912109375,1.240234375,4.9794921875,2.1279296875,10.046875,2.666015625,15.2021484375.537109375,5.1552734375.869140625,10.357421875.99609375,15.60546875,0,1.494140625-.01953125,2.7216796875-.0615234375,3.6806640625s-.2021484375,1.75-.4794921875,2.369140625c-.279296875.6201171875-.701171875,1.1328125-1.265625,1.537109375-.5654296875.404296875-1.369140625.796875-2.4140625,1.1806640625-1,.2001953125-2.046875.3759765625-3.1396484375.5234375-1.0947265625.1474609375-2.1435546875-.0654296875-3.14453125-.6416015625-.9384765625-.5205078125-1.763671875-1.4697265625-2.4716796875-2.8466796875-.708984375-1.3779296875-1.2021484375-3.3984375-1.4775390625-6.06640625l-.072265625-.890625c-1.4990234375-.056640625-3.2763671875-.0615234375-5.3349609375-.0146484375-2.056640625.046875-4.15625.142578125-6.2958984375.28515625-2.1396484375.14453125-4.2041015625.2958984375-6.1923828125.45703125-1.990234375.1611328125-3.66796875.2978515625-5.0322265625.408203125-.0166015625.5390625-.0185546875,1.435546875-.005859375,2.689453125.0107421875,1.25390625-.0810546875,2.5166015625-.2763671875,3.787109375-.1962890625,1.2705078125-.505859375,2.431640625-.927734375,3.4814453125-.423828125,1.05078125-1.0771484375,1.640625-1.962890625,1.7724609375-.828125.1259765625-1.771484375.26171875-2.8359375.4091796875-1.0634765625.1455078125-2.1123046875.1103515625-3.14453125-.103515625-1.029296875-.1552734375-1.9140625-.5625-2.654296875-1.2197265625-.7412109375-.6572265625-1.203125-1.75390625-1.38671875-3.2939453125-.1494140625-1.83984375-.291015625-3.9501953125-.423828125-6.330078125-.1337890625-2.37890625-.22265625-4.970703125-.271484375-7.7763671875-.068359375-2.3251953125-.08203125-4.8779296875-.0380859375-7.66015625.0439453125-2.7841796875.2001953125-5.6494140625.4697265625-8.6005859375.267578125-2.947265625.685546875-5.9111328125,1.2509765625-8.884765625.56640625-2.9736328125,1.3515625-5.8154296875,2.357421875-8.52734375,1.00390625-2.7109375,2.25-5.232421875,3.734375-7.5634765625,1.4833984375-2.330078125,3.32421875-4.33203125,5.51953125-6.0048828125,2.5908203125-1.9423828125,5.51953125-3.046875,8.78515625-3.3115234375,3.2646484375-.263671875,6.4169921875.287109375,9.45703125,1.6552734375ZM50.5517578125,107.328125c3.7158203125-.599609375,7.4228515625-1.1240234375,11.1220703125-1.57421875,3.697265625-.447265625,7.4228515625-.7646484375,11.171875-.94921875-.162109375-4.2294921875-.646484375-7.984375-1.4501953125-11.267578125-.8037109375-3.28125-1.7744140625-6.025390625-2.908203125-8.234375-1.1357421875-2.2080078125-2.4052734375-3.8681640625-3.8095703125-4.9794921875-1.4052734375-1.111328125-2.7900390625-1.6123046875-4.1552734375-1.501953125-1.1884765625.0966796875-2.3701171875.8056640625-3.5478515625,2.1259765625-1.1787109375,1.3212890625-2.2216796875,3.197265625-3.12890625,5.630859375-.91015625,2.4345703125-1.66796875,5.41015625-2.2802734375,8.9248046875-.6123046875,3.5166015625-.9501953125,7.4580078125-1.013671875,11.8251953125Z"/>
            <path class="cls-3" d="M68.9091796875,65.0556640625c2.3603515625,1.123046875,4.4208984375,2.5703125,6.177734375,4.33984375,1.7568359375,1.7705078125,3.2744140625,3.73828125,4.5576171875,5.9052734375,1.279296875,2.16796875,2.3486328125,4.486328125,3.20703125,6.9560546875.857421875,2.4716796875,1.568359375,4.96875,2.130859375,7.4912109375,1.240234375,4.9794921875,2.1279296875,10.046875,2.666015625,15.2021484375.537109375,5.1552734375.869140625,10.357421875.99609375,15.60546875,0,1.494140625-.01953125,2.7216796875-.0615234375,3.6806640625s-.2021484375,1.75-.4794921875,2.369140625c-.279296875.6201171875-.701171875,1.1328125-1.265625,1.537109375-.5654296875.404296875-1.369140625.796875-2.4140625,1.1806640625-1,.2001953125-2.046875.3759765625-3.1396484375.5234375-1.0947265625.1474609375-2.1435546875-.0654296875-3.14453125-.6416015625-.9384765625-.5205078125-1.763671875-1.4697265625-2.4716796875-2.8466796875-.708984375-1.3779296875-1.2021484375-3.3984375-1.4775390625-6.06640625l-.072265625-.890625c-1.4990234375-.056640625-3.2763671875-.0615234375-5.3349609375-.0146484375-2.056640625.046875-4.15625.142578125-6.2958984375.28515625-2.1396484375.14453125-4.2041015625.2958984375-6.1923828125.45703125-1.990234375.1611328125-3.66796875.2978515625-5.0322265625.408203125-.0166015625.5390625-.0185546875,1.435546875-.005859375,2.689453125.0107421875,1.25390625-.0810546875,2.5166015625-.2763671875,3.787109375-.1962890625,1.2705078125-.505859375,2.431640625-.927734375,3.4814453125-.423828125,1.05078125-1.0771484375,1.640625-1.962890625,1.7724609375-.828125.1259765625-1.771484375.26171875-2.8359375.4091796875-1.0634765625.1455078125-2.1123046875.1103515625-3.14453125-.103515625-1.029296875-.1552734375-1.9140625-.5625-2.654296875-1.2197265625-.7412109375-.6572265625-1.203125-1.75390625-1.38671875-3.2939453125-.1494140625-1.83984375-.291015625-3.9501953125-.423828125-6.330078125-.1337890625-2.37890625-.22265625-4.970703125-.271484375-7.7763671875-.068359375-2.3251953125-.08203125-4.8779296875-.0380859375-7.66015625.0439453125-2.7841796875.2001953125-5.6494140625.4697265625-8.6005859375.267578125-2.947265625.685546875-5.9111328125,1.2509765625-8.884765625.56640625-2.9736328125,1.3515625-5.8154296875,2.357421875-8.52734375,1.00390625-2.7109375,2.25-5.232421875,3.734375-7.5634765625,1.4833984375-2.330078125,3.32421875-4.33203125,5.51953125-6.0048828125,2.5908203125-1.9423828125,5.51953125-3.046875,8.78515625-3.3115234375,3.2646484375-.263671875,6.4169921875.287109375,9.45703125,1.6552734375ZM50.5517578125,107.328125c3.7158203125-.599609375,7.4228515625-1.1240234375,11.1220703125-1.57421875,3.697265625-.447265625,7.4228515625-.7646484375,11.171875-.94921875-.162109375-4.2294921875-.646484375-7.984375-1.4501953125-11.267578125-.8037109375-3.28125-1.7744140625-6.025390625-2.908203125-8.234375-1.1357421875-2.2080078125-2.4052734375-3.8681640625-3.8095703125-4.9794921875-1.4052734375-1.111328125-2.7900390625-1.6123046875-4.1552734375-1.501953125-1.1884765625.0966796875-2.3701171875.8056640625-3.5478515625,2.1259765625-1.1787109375,1.3212890625-2.2216796875,3.197265625-3.12890625,5.630859375-.91015625,2.4345703125-1.66796875,5.41015625-2.2802734375,8.9248046875-.6123046875,3.5166015625-.9501953125,7.4580078125-1.013671875,11.8251953125Z"/>
            <path class="cls-3" d="M68.9091796875,65.0556640625c2.3603515625,1.123046875,4.4208984375,2.5703125,6.177734375,4.33984375,1.7568359375,1.7705078125,3.2744140625,3.73828125,4.5576171875,5.9052734375,1.279296875,2.16796875,2.3486328125,4.486328125,3.20703125,6.9560546875.857421875,2.4716796875,1.568359375,4.96875,2.130859375,7.4912109375,1.240234375,4.9794921875,2.1279296875,10.046875,2.666015625,15.2021484375.537109375,5.1552734375.869140625,10.357421875.99609375,15.60546875,0,1.494140625-.01953125,2.7216796875-.0615234375,3.6806640625s-.2021484375,1.75-.4794921875,2.369140625c-.279296875.6201171875-.701171875,1.1328125-1.265625,1.537109375-.5654296875.404296875-1.369140625.796875-2.4140625,1.1806640625-1,.2001953125-2.046875.3759765625-3.1396484375.5234375-1.0947265625.1474609375-2.1435546875-.0654296875-3.14453125-.6416015625-.9384765625-.5205078125-1.763671875-1.4697265625-2.4716796875-2.8466796875-.708984375-1.3779296875-1.2021484375-3.3984375-1.4775390625-6.06640625l-.072265625-.890625c-1.4990234375-.056640625-3.2763671875-.0615234375-5.3349609375-.0146484375-2.056640625.046875-4.15625.142578125-6.2958984375.28515625-2.1396484375.14453125-4.2041015625.2958984375-6.1923828125.45703125-1.990234375.1611328125-3.66796875.2978515625-5.0322265625.408203125-.0166015625.5390625-.0185546875,1.435546875-.005859375,2.689453125.0107421875,1.25390625-.0810546875,2.5166015625-.2763671875,3.787109375-.1962890625,1.2705078125-.505859375,2.431640625-.927734375,3.4814453125-.423828125,1.05078125-1.0771484375,1.640625-1.962890625,1.7724609375-.828125.1259765625-1.771484375.26171875-2.8359375.4091796875-1.0634765625.1455078125-2.1123046875.1103515625-3.14453125-.103515625-1.029296875-.1552734375-1.9140625-.5625-2.654296875-1.2197265625-.7412109375-.6572265625-1.203125-1.75390625-1.38671875-3.2939453125-.1494140625-1.83984375-.291015625-3.9501953125-.423828125-6.330078125-.1337890625-2.37890625-.22265625-4.970703125-.271484375-7.7763671875-.068359375-2.3251953125-.08203125-4.8779296875-.0380859375-7.66015625.0439453125-2.7841796875.2001953125-5.6494140625.4697265625-8.6005859375.267578125-2.947265625.685546875-5.9111328125,1.2509765625-8.884765625.56640625-2.9736328125,1.3515625-5.8154296875,2.357421875-8.52734375,1.00390625-2.7109375,2.25-5.232421875,3.734375-7.5634765625,1.4833984375-2.330078125,3.32421875-4.33203125,5.51953125-6.0048828125,2.5908203125-1.9423828125,5.51953125-3.046875,8.78515625-3.3115234375,3.2646484375-.263671875,6.4169921875.287109375,9.45703125,1.6552734375ZM50.5517578125,107.328125c3.7158203125-.599609375,7.4228515625-1.1240234375,11.1220703125-1.57421875,3.697265625-.447265625,7.4228515625-.7646484375,11.171875-.94921875-.162109375-4.2294921875-.646484375-7.984375-1.4501953125-11.267578125-.8037109375-3.28125-1.7744140625-6.025390625-2.908203125-8.234375-1.1357421875-2.2080078125-2.4052734375-3.8681640625-3.8095703125-4.9794921875-1.4052734375-1.111328125-2.7900390625-1.6123046875-4.1552734375-1.501953125-1.1884765625.0966796875-2.3701171875.8056640625-3.5478515625,2.1259765625-1.1787109375,1.3212890625-2.2216796875,3.197265625-3.12890625,5.630859375-.91015625,2.4345703125-1.66796875,5.41015625-2.2802734375,8.9248046875-.6123046875,3.5166015625-.9501953125,7.4580078125-1.013671875,11.8251953125Z"/>
          </g>
        </a>
        <a xlink:href="https://www.notion.so/congruence/B-Event-1f1a5b08a72c49f5ab60f2e0793fd0a8?pvs=4">
          <g>
            <path class="cls-3" d="M193.490234375,87.451171875c2.775390625,1.80859375,4.921875,4.1591796875,6.4423828125,7.052734375,1.5185546875,2.8955078125,2.1708984375,5.96484375,1.9560546875,9.208984375-.240234375,3.6650390625-1.419921875,6.82421875-3.53515625,9.474609375-2.115234375,2.6513671875-4.689453125,4.81640625-7.720703125,6.49609375s-6.3525390625,2.9052734375-9.96484375,3.67578125c-3.61328125.7705078125-7.037109375,1.1083984375-10.271484375,1.0126953125-.2890625.140625-.5498046875.236328125-.783203125.287109375-.236328125.048828125-.5.1142578125-.791015625.1982421875-1.064453125.14453125-2.1640625.2333984375-3.294921875.2666015625-1.1337890625.0322265625-2.173828125-.0791015625-3.119140625-.330078125-.947265625-.2509765625-1.77734375-.7216796875-2.490234375-1.4111328125-.71484375-.689453125-1.1845703125-1.7109375-1.4140625-3.068359375-.171875-.6416015625-.30859375-1.9609375-.41015625-3.955078125-.1025390625-1.994140625-.23828125-4.4189453125-.41015625-7.2724609375-.1171875-2.91796875-.2685546875-6.087890625-.4560546875-9.509765625-.1875-3.4208984375-.3916015625-6.8544921875-.6103515625-10.3037109375-.3076171875-4.5166015625-.615234375-9.0625-.92578125-13.6396484375-.3125-4.576171875-.86328125-9.1630859375-1.6533203125-13.7607421875-.1630859375-.5244140625-.1416015625-1.00390625.0625-1.4384765625.0888671875-.3662109375.3291015625-.728515625.7197265625-1.0888671875.3876953125-.359375.9931640625-.6328125,1.8154296875-.8193359375.587890625-.1064453125,1.2353515625-.2490234375,1.9365234375-.42578125.703125-.1767578125,1.4375-.326171875,2.205078125-.447265625.7666015625-.12109375,1.509765625-.181640625,2.2265625-.1806640625.7177734375.0009765625,1.3505859375.0693359375,1.8994140625.2041015625,2.994140625-.6591796875,6.1689453125-.9326171875,9.525390625-.81640625,3.35546875.1171875,6.5517578125.650390625,9.5859375,1.599609375,3.03515625.94921875,5.7158203125,2.330078125,8.044921875,4.1435546875,2.3271484375,1.8134765625,3.9638671875,4.115234375,4.9072265625,6.9072265625.396484375,1.2236328125.681640625,2.515625.8515625,3.875.1689453125,1.3623046875.1357421875,2.783203125-.1025390625,4.2666015625-.23828125,1.484375-.6943359375,3.0458984375-1.3681640625,4.6826171875-.673828125,1.638671875-1.626953125,3.34375-2.857421875,5.1162109375ZM169.91015625,84.0732421875c2.859375-.111328125,5.2392578125-.603515625,7.140625-1.4755859375,1.90234375-.8701171875,3.2958984375-1.923828125,4.181640625-3.1630859375.8857421875-1.236328125,1.2578125-2.5341796875,1.1181640625-3.8994140625-.1416015625-1.361328125-.7587890625-2.537109375-1.8544921875-3.5244140625-1.0966796875-.9873046875-2.6767578125-1.6796875-4.740234375-2.0810546875-2.064453125-.3994140625-4.623046875-.2666015625-7.67578125.3974609375.365234375,2.3017578125.68359375,4.5771484375.9560546875,6.82421875.271484375,2.2509765625.5615234375,4.5576171875.8740234375,6.921875ZM172.26953125,109.876953125c3.234375.095703125,5.923828125-.26953125,8.068359375-1.1015625,2.142578125-.830078125,3.7177734375-1.8544921875,4.7255859375-3.072265625,1.0068359375-1.2158203125,1.4716796875-2.478515625,1.396484375-3.7880859375-.076171875-1.30859375-.6875-2.39453125-1.8330078125-3.2578125-1.14453125-.861328125-2.830078125-1.3681640625-5.052734375-1.517578125-2.2236328125-.1474609375-4.9658203125.298828125-8.228515625,1.3388671875l.923828125,11.3984375Z"/>
            <path class="cls-3" d="M193.490234375,87.451171875c2.775390625,1.80859375,4.921875,4.1591796875,6.4423828125,7.052734375,1.5185546875,2.8955078125,2.1708984375,5.96484375,1.9560546875,9.208984375-.240234375,3.6650390625-1.419921875,6.82421875-3.53515625,9.474609375-2.115234375,2.6513671875-4.689453125,4.81640625-7.720703125,6.49609375s-6.3525390625,2.9052734375-9.96484375,3.67578125c-3.61328125.7705078125-7.037109375,1.1083984375-10.271484375,1.0126953125-.2890625.140625-.5498046875.236328125-.783203125.287109375-.236328125.048828125-.5.1142578125-.791015625.1982421875-1.064453125.14453125-2.1640625.2333984375-3.294921875.2666015625-1.1337890625.0322265625-2.173828125-.0791015625-3.119140625-.330078125-.947265625-.2509765625-1.77734375-.7216796875-2.490234375-1.4111328125-.71484375-.689453125-1.1845703125-1.7109375-1.4140625-3.068359375-.171875-.6416015625-.30859375-1.9609375-.41015625-3.955078125-.1025390625-1.994140625-.23828125-4.4189453125-.41015625-7.2724609375-.1171875-2.91796875-.2685546875-6.087890625-.4560546875-9.509765625-.1875-3.4208984375-.3916015625-6.8544921875-.6103515625-10.3037109375-.3076171875-4.5166015625-.615234375-9.0625-.92578125-13.6396484375-.3125-4.576171875-.86328125-9.1630859375-1.6533203125-13.7607421875-.1630859375-.5244140625-.1416015625-1.00390625.0625-1.4384765625.0888671875-.3662109375.3291015625-.728515625.7197265625-1.0888671875.3876953125-.359375.9931640625-.6328125,1.8154296875-.8193359375.587890625-.1064453125,1.2353515625-.2490234375,1.9365234375-.42578125.703125-.1767578125,1.4375-.326171875,2.205078125-.447265625.7666015625-.12109375,1.509765625-.181640625,2.2265625-.1806640625.7177734375.0009765625,1.3505859375.0693359375,1.8994140625.2041015625,2.994140625-.6591796875,6.1689453125-.9326171875,9.525390625-.81640625,3.35546875.1171875,6.5517578125.650390625,9.5859375,1.599609375,3.03515625.94921875,5.7158203125,2.330078125,8.044921875,4.1435546875,2.3271484375,1.8134765625,3.9638671875,4.115234375,4.9072265625,6.9072265625.396484375,1.2236328125.681640625,2.515625.8515625,3.875.1689453125,1.3623046875.1357421875,2.783203125-.1025390625,4.2666015625-.23828125,1.484375-.6943359375,3.0458984375-1.3681640625,4.6826171875-.673828125,1.638671875-1.626953125,3.34375-2.857421875,5.1162109375ZM169.91015625,84.0732421875c2.859375-.111328125,5.2392578125-.603515625,7.140625-1.4755859375,1.90234375-.8701171875,3.2958984375-1.923828125,4.181640625-3.1630859375.8857421875-1.236328125,1.2578125-2.5341796875,1.1181640625-3.8994140625-.1416015625-1.361328125-.7587890625-2.537109375-1.8544921875-3.5244140625-1.0966796875-.9873046875-2.6767578125-1.6796875-4.740234375-2.0810546875-2.064453125-.3994140625-4.623046875-.2666015625-7.67578125.3974609375.365234375,2.3017578125.68359375,4.5771484375.9560546875,6.82421875.271484375,2.2509765625.5615234375,4.5576171875.8740234375,6.921875ZM172.26953125,109.876953125c3.234375.095703125,5.923828125-.26953125,8.068359375-1.1015625,2.142578125-.830078125,3.7177734375-1.8544921875,4.7255859375-3.072265625,1.0068359375-1.2158203125,1.4716796875-2.478515625,1.396484375-3.7880859375-.076171875-1.30859375-.6875-2.39453125-1.8330078125-3.2578125-1.14453125-.861328125-2.830078125-1.3681640625-5.052734375-1.517578125-2.2236328125-.1474609375-4.9658203125.298828125-8.228515625,1.3388671875l.923828125,11.3984375Z"/>
            <path class="cls-3" d="M193.490234375,87.451171875c2.775390625,1.80859375,4.921875,4.1591796875,6.4423828125,7.052734375,1.5185546875,2.8955078125,2.1708984375,5.96484375,1.9560546875,9.208984375-.240234375,3.6650390625-1.419921875,6.82421875-3.53515625,9.474609375-2.115234375,2.6513671875-4.689453125,4.81640625-7.720703125,6.49609375s-6.3525390625,2.9052734375-9.96484375,3.67578125c-3.61328125.7705078125-7.037109375,1.1083984375-10.271484375,1.0126953125-.2890625.140625-.5498046875.236328125-.783203125.287109375-.236328125.048828125-.5.1142578125-.791015625.1982421875-1.064453125.14453125-2.1640625.2333984375-3.294921875.2666015625-1.1337890625.0322265625-2.173828125-.0791015625-3.119140625-.330078125-.947265625-.2509765625-1.77734375-.7216796875-2.490234375-1.4111328125-.71484375-.689453125-1.1845703125-1.7109375-1.4140625-3.068359375-.171875-.6416015625-.30859375-1.9609375-.41015625-3.955078125-.1025390625-1.994140625-.23828125-4.4189453125-.41015625-7.2724609375-.1171875-2.91796875-.2685546875-6.087890625-.4560546875-9.509765625-.1875-3.4208984375-.3916015625-6.8544921875-.6103515625-10.3037109375-.3076171875-4.5166015625-.615234375-9.0625-.92578125-13.6396484375-.3125-4.576171875-.86328125-9.1630859375-1.6533203125-13.7607421875-.1630859375-.5244140625-.1416015625-1.00390625.0625-1.4384765625.0888671875-.3662109375.3291015625-.728515625.7197265625-1.0888671875.3876953125-.359375.9931640625-.6328125,1.8154296875-.8193359375.587890625-.1064453125,1.2353515625-.2490234375,1.9365234375-.42578125.703125-.1767578125,1.4375-.326171875,2.205078125-.447265625.7666015625-.12109375,1.509765625-.181640625,2.2265625-.1806640625.7177734375.0009765625,1.3505859375.0693359375,1.8994140625.2041015625,2.994140625-.6591796875,6.1689453125-.9326171875,9.525390625-.81640625,3.35546875.1171875,6.5517578125.650390625,9.5859375,1.599609375,3.03515625.94921875,5.7158203125,2.330078125,8.044921875,4.1435546875,2.3271484375,1.8134765625,3.9638671875,4.115234375,4.9072265625,6.9072265625.396484375,1.2236328125.681640625,2.515625.8515625,3.875.1689453125,1.3623046875.1357421875,2.783203125-.1025390625,4.2666015625-.23828125,1.484375-.6943359375,3.0458984375-1.3681640625,4.6826171875-.673828125,1.638671875-1.626953125,3.34375-2.857421875,5.1162109375ZM169.91015625,84.0732421875c2.859375-.111328125,5.2392578125-.603515625,7.140625-1.4755859375,1.90234375-.8701171875,3.2958984375-1.923828125,4.181640625-3.1630859375.8857421875-1.236328125,1.2578125-2.5341796875,1.1181640625-3.8994140625-.1416015625-1.361328125-.7587890625-2.537109375-1.8544921875-3.5244140625-1.0966796875-.9873046875-2.6767578125-1.6796875-4.740234375-2.0810546875-2.064453125-.3994140625-4.623046875-.2666015625-7.67578125.3974609375.365234375,2.3017578125.68359375,4.5771484375.9560546875,6.82421875.271484375,2.2509765625.5615234375,4.5576171875.8740234375,6.921875ZM172.26953125,109.876953125c3.234375.095703125,5.923828125-.26953125,8.068359375-1.1015625,2.142578125-.830078125,3.7177734375-1.8544921875,4.7255859375-3.072265625,1.0068359375-1.2158203125,1.4716796875-2.478515625,1.396484375-3.7880859375-.076171875-1.30859375-.6875-2.39453125-1.8330078125-3.2578125-1.14453125-.861328125-2.830078125-1.3681640625-5.052734375-1.517578125-2.2236328125-.1474609375-4.9658203125.298828125-8.228515625,1.3388671875l.923828125,11.3984375Z"/>
          </g>
        </a>
        <a xlink:href="https://www.notion.so/congruence/B-Event-1f1a5b08a72c49f5ab60f2e0793fd0a8?pvs=4">
          <g>
            <path class="cls-3" d="M98.638671875,45.2705078125c-.0478515625-1.00390625-.271484375-1.7421875-.67578125-2.2138671875-.40234375-.470703125-.8857421875-.7431640625-1.447265625-.8212890625-.5625-.0751953125-1.1533203125.0341796875-1.7724609375.3271484375-.6201171875.2939453125-1.169921875.685546875-1.6513671875,1.1748046875-1.125,1.1357421875-1.9921875,2.5341796875-2.60546875,4.2001953125-.6123046875,1.6669921875-.9765625,3.3896484375-1.091796875,5.171875-.1171875,1.78125.0078125,3.5361328125.373046875,5.2607421875.3662109375,1.7275390625.98046875,3.197265625,1.84375,4.4130859375.55078125.7890625,1.177734375,1.35546875,1.8828125,1.6982421875.70703125.3427734375,1.44140625.5078125,2.205078125.4990234375.763671875-.009765625,1.5048828125-.19140625,2.2236328125-.544921875.7177734375-.353515625,1.3466796875-.84765625,1.8876953125-1.4833984375.82421875-.9697265625,1.498046875-1.6669921875,2.01953125-2.091796875s1.125-.681640625,1.8134765625-.7724609375c1.96875-.1591796875,3.3154296875.2880859375,4.0458984375,1.3408203125.7275390625,1.0537109375.87890625,2.396484375.4560546875,4.029296875-.3486328125,1.279296875-.9423828125,2.421875-1.7822265625,3.4287109375-.8388671875,1.005859375-1.83984375,1.84375-3.001953125,2.5107421875-1.1630859375.6669921875-2.42578125,1.1689453125-3.7880859375,1.505859375s-2.7216796875.5068359375-4.0771484375.5126953125c-1.3544921875.005859375-2.65625-.17578125-3.9013671875-.5439453125-1.2470703125-.3681640625-2.333984375-.9140625-3.2607421875-1.638671875-1.041015625-.8193359375-1.96875-1.77734375-2.787109375-2.8759765625-.8203125-1.09765625-1.5234375-2.275390625-2.111328125-3.5302734375-.5888671875-1.255859375-1.060546875-2.57421875-1.4150390625-3.953125-.35546875-1.3779296875-.5908203125-2.7744140625-.705078125-4.19140625-.1884765625-3.1806640625.2353515625-6.30859375,1.2734375-9.3828125,1.0361328125-3.072265625,2.5185546875-5.798828125,4.4462890625-8.1796875.884765625-1.0791015625,1.96484375-2.0283203125,3.236328125-2.8427734375,1.271484375-.8154296875,2.599609375-1.3828125,3.98046875-1.7041015625,1.3828125-.3203125,2.7607421875-.3623046875,4.134765625-.1259765625,1.375.236328125,2.625.865234375,3.75,1.884765625.861328125.765625,1.576171875,1.6640625,2.146484375,2.6943359375s1.01953125,2.072265625,1.34765625,3.1220703125c.1953125.6806640625.30859375,1.33203125.341796875,1.9541015625.0322265625.623046875-.06640625,1.2216796875-.2978515625,1.796875-.32421875.720703125-.87109375,1.26171875-1.6416015625,1.619140625-.7705078125.3583984375-1.5478515625.515625-2.333984375.474609375-.78515625-.0400390625-1.482421875-.287109375-2.0927734375-.7421875s-.93359375-1.1142578125-.9677734375-1.98046875Z"/>
            <path class="cls-3" d="M98.638671875,45.2705078125c-.0478515625-1.00390625-.271484375-1.7421875-.67578125-2.2138671875-.40234375-.470703125-.8857421875-.7431640625-1.447265625-.8212890625-.5625-.0751953125-1.1533203125.0341796875-1.7724609375.3271484375-.6201171875.2939453125-1.169921875.685546875-1.6513671875,1.1748046875-1.125,1.1357421875-1.9921875,2.5341796875-2.60546875,4.2001953125-.6123046875,1.6669921875-.9765625,3.3896484375-1.091796875,5.171875-.1171875,1.78125.0078125,3.5361328125.373046875,5.2607421875.3662109375,1.7275390625.98046875,3.197265625,1.84375,4.4130859375.55078125.7890625,1.177734375,1.35546875,1.8828125,1.6982421875.70703125.3427734375,1.44140625.5078125,2.205078125.4990234375.763671875-.009765625,1.5048828125-.19140625,2.2236328125-.544921875.7177734375-.353515625,1.3466796875-.84765625,1.8876953125-1.4833984375.82421875-.9697265625,1.498046875-1.6669921875,2.01953125-2.091796875s1.125-.681640625,1.8134765625-.7724609375c1.96875-.1591796875,3.3154296875.2880859375,4.0458984375,1.3408203125.7275390625,1.0537109375.87890625,2.396484375.4560546875,4.029296875-.3486328125,1.279296875-.9423828125,2.421875-1.7822265625,3.4287109375-.8388671875,1.005859375-1.83984375,1.84375-3.001953125,2.5107421875-1.1630859375.6669921875-2.42578125,1.1689453125-3.7880859375,1.505859375s-2.7216796875.5068359375-4.0771484375.5126953125c-1.3544921875.005859375-2.65625-.17578125-3.9013671875-.5439453125-1.2470703125-.3681640625-2.333984375-.9140625-3.2607421875-1.638671875-1.041015625-.8193359375-1.96875-1.77734375-2.787109375-2.8759765625-.8203125-1.09765625-1.5234375-2.275390625-2.111328125-3.5302734375-.5888671875-1.255859375-1.060546875-2.57421875-1.4150390625-3.953125-.35546875-1.3779296875-.5908203125-2.7744140625-.705078125-4.19140625-.1884765625-3.1806640625.2353515625-6.30859375,1.2734375-9.3828125,1.0361328125-3.072265625,2.5185546875-5.798828125,4.4462890625-8.1796875.884765625-1.0791015625,1.96484375-2.0283203125,3.236328125-2.8427734375,1.271484375-.8154296875,2.599609375-1.3828125,3.98046875-1.7041015625,1.3828125-.3203125,2.7607421875-.3623046875,4.134765625-.1259765625,1.375.236328125,2.625.865234375,3.75,1.884765625.861328125.765625,1.576171875,1.6640625,2.146484375,2.6943359375s1.01953125,2.072265625,1.34765625,3.1220703125c.1953125.6806640625.30859375,1.33203125.341796875,1.9541015625.0322265625.623046875-.06640625,1.2216796875-.2978515625,1.796875-.32421875.720703125-.87109375,1.26171875-1.6416015625,1.619140625-.7705078125.3583984375-1.5478515625.515625-2.333984375.474609375-.78515625-.0400390625-1.482421875-.287109375-2.0927734375-.7421875s-.93359375-1.1142578125-.9677734375-1.98046875Z"/>
            <path class="cls-3" d="M98.638671875,45.2705078125c-.0478515625-1.00390625-.271484375-1.7421875-.67578125-2.2138671875-.40234375-.470703125-.8857421875-.7431640625-1.447265625-.8212890625-.5625-.0751953125-1.1533203125.0341796875-1.7724609375.3271484375-.6201171875.2939453125-1.169921875.685546875-1.6513671875,1.1748046875-1.125,1.1357421875-1.9921875,2.5341796875-2.60546875,4.2001953125-.6123046875,1.6669921875-.9765625,3.3896484375-1.091796875,5.171875-.1171875,1.78125.0078125,3.5361328125.373046875,5.2607421875.3662109375,1.7275390625.98046875,3.197265625,1.84375,4.4130859375.55078125.7890625,1.177734375,1.35546875,1.8828125,1.6982421875.70703125.3427734375,1.44140625.5078125,2.205078125.4990234375.763671875-.009765625,1.5048828125-.19140625,2.2236328125-.544921875.7177734375-.353515625,1.3466796875-.84765625,1.8876953125-1.4833984375.82421875-.9697265625,1.498046875-1.6669921875,2.01953125-2.091796875s1.125-.681640625,1.8134765625-.7724609375c1.96875-.1591796875,3.3154296875.2880859375,4.0458984375,1.3408203125.7275390625,1.0537109375.87890625,2.396484375.4560546875,4.029296875-.3486328125,1.279296875-.9423828125,2.421875-1.7822265625,3.4287109375-.8388671875,1.005859375-1.83984375,1.84375-3.001953125,2.5107421875-1.1630859375.6669921875-2.42578125,1.1689453125-3.7880859375,1.505859375s-2.7216796875.5068359375-4.0771484375.5126953125c-1.3544921875.005859375-2.65625-.17578125-3.9013671875-.5439453125-1.2470703125-.3681640625-2.333984375-.9140625-3.2607421875-1.638671875-1.041015625-.8193359375-1.96875-1.77734375-2.787109375-2.8759765625-.8203125-1.09765625-1.5234375-2.275390625-2.111328125-3.5302734375-.5888671875-1.255859375-1.060546875-2.57421875-1.4150390625-3.953125-.35546875-1.3779296875-.5908203125-2.7744140625-.705078125-4.19140625-.1884765625-3.1806640625.2353515625-6.30859375,1.2734375-9.3828125,1.0361328125-3.072265625,2.5185546875-5.798828125,4.4462890625-8.1796875.884765625-1.0791015625,1.96484375-2.0283203125,3.236328125-2.8427734375,1.271484375-.8154296875,2.599609375-1.3828125,3.98046875-1.7041015625,1.3828125-.3203125,2.7607421875-.3623046875,4.134765625-.1259765625,1.375.236328125,2.625.865234375,3.75,1.884765625.861328125.765625,1.576171875,1.6640625,2.146484375,2.6943359375s1.01953125,2.072265625,1.34765625,3.1220703125c.1953125.6806640625.30859375,1.33203125.341796875,1.9541015625.0322265625.623046875-.06640625,1.2216796875-.2978515625,1.796875-.32421875.720703125-.87109375,1.26171875-1.6416015625,1.619140625-.7705078125.3583984375-1.5478515625.515625-2.333984375.474609375-.78515625-.0400390625-1.482421875-.287109375-2.0927734375-.7421875s-.93359375-1.1142578125-.9677734375-1.98046875Z"/>
          </g>
        </a>
        <path class="cls-3" d="M135.375,55.6298828125c-.138671875,12.25390625-.2578125,24.4013671875-.361328125,36.44140625-.1015625,12.0390625-.1201171875,24.1865234375-.05078125,36.44140625-.138671875.859375-.3779296875,1.6494140625-.720703125,2.3642578125-.34375.5751953125-.857421875,1.1474609375-1.54296875,1.720703125-.6865234375.57421875-1.61328125.9296875-2.7783203125,1.07421875-1.234375.1435546875-2.4873046875.232421875-3.7548828125.2685546875-1.2705078125.0361328125-2.4541015625-.107421875-3.55078125-.4296875-1.09765625-.322265625-2.041015625-.8955078125-2.8291015625-1.7197265625-.7900390625-.8232421875-1.2861328125-2.0595703125-1.4921875-3.708984375-.1376953125-.787109375-.2060546875-2.435546875-.2060546875-4.9443359375,0-2.5078125.0517578125-5.5361328125.154296875-9.083984375.103515625-3.546875.22265625-7.4521484375.3603515625-11.716796875.13671875-4.2626953125.3095703125-8.5458984375.5146484375-12.845703125.13671875-4.2998046875.32421875-8.455078125.56640625-12.4697265625.2392578125-4.0126953125.427734375-7.595703125.5654296875-10.75.2060546875-3.654296875.4111328125-7.0947265625.6171875-10.3193359375-.0693359375-.6455078125.0341796875-1.2177734375.3095703125-1.7197265625.205078125-.4306640625.529296875-.806640625.9765625-1.12890625.4453125-.322265625,1.1484375-.51953125,2.109375-.591796875h3.34375c1.26953125,0,2.486328125.0908203125,3.6533203125.26953125,1.1650390625.1796875,2.1435546875.4833984375,2.9326171875.9130859375.787109375.4306640625,1.18359375,1.0751953125,1.18359375,1.935546875Z"/>
      </g>
    </g>
  </a>
</svg>