<?xml version="1.0" encoding="UTF-8"?>
<svg id="Content" xmlns="http://www.w3.org/2000/svg" xmlns:xlink="http://www.w3.org/1999/xlink" viewBox="0 0 280 280">
  <defs>
    <style>
      .cls-1 {
        stroke: #665451;
        stroke-width: 50px;
      }

      .cls-1, .cls-2 {
        fill: none;
        stroke-linecap: round;
        stroke-linejoin: round;
      }

      .cls-3 {
        fill: #fff;
      }

      .cls-2 {
        stroke: #998675;
        stroke-width: 2px;
      }
    </style>
  </defs>
  <a xlink:href="https://www.notion.so/congruence/A-Event-b33e3a2553c4474cbe30f83f7cace7eb?pvs=4">
    <g>
      <path d="M96.630859374998181,38.18505859375c4.57470703125,2.1767578125,8.56591796875,4.97998046875,11.96875,8.4072265625,3.40380859375,3.43115234375,6.34521484375,7.24365234375,8.82861328125,11.44091796875,2.48095703125,4.2001953125,4.5517578125,8.6904296875,6.21435546875,13.4755859375,1.66064453125,4.7880859375,3.037109375,9.625,4.1279296875,14.51318359375,2.40185546875,9.64697265625,4.1220703125,19.46240234375,5.16455078125,29.4501953125,1.03955078125,9.98828125,1.68212890625,20.068359375,1.92822265625,30.23388671875.0009765625,2.8955078125-.037109375,5.2724609375-.11669921875,7.1298828125-.08349609375,1.8603515625-.39306640625,3.390625-.9306640625,4.5908203125-.54052734375,1.2021484375-1.35791015625,2.193359375-2.45068359375,2.9765625-1.09521484375.783203125-2.6533203125,1.544921875-4.6767578125,2.2890625-1.9384765625.3876953125-3.96484375.7265625-6.0830078125,1.013671875-2.1201171875.2861328125-4.15087890625-.126953125-6.09130859375-1.2431640625-1.818359375-1.0087890625-3.41650390625-2.8486328125-4.78857421875-5.515625-1.375-2.6669921875-2.32958984375-6.5849609375-2.8623046875-11.7509765625l-.1396484375-1.7255859375c-2.904296875-.111328125-6.3486328125-.119140625-10.3349609375-.0302734375-3.986328125.091796875-8.052734375.2783203125-12.19775390625.5537109375-4.1455078125.279296875-8.1455078125.5732421875-11.99755859375.8857421875-3.85498046875.3125-7.10302734375.5751953125-9.74755859375.7890625-.0322265625,1.044921875-.03515625,2.7822265625-.01171875,5.2109375.0234375,2.4296875-.15625,4.875-.53466796875,7.3359375-.380859375,2.462890625-.98046875,4.712890625-1.7978515625,6.7451171875-.8203125,2.037109375-2.0869140625,3.1787109375-3.802734375,3.4345703125-1.6025390625.2431640625-3.43212890625.5078125-5.4931640625.7919921875-2.06103515625.28125-4.09326171875.21484375-6.09375-.201171875-1.994140625-.298828125-3.7080078125-1.087890625-5.140625-2.361328125-1.43505859375-1.2734375-2.33203125-3.3994140625-2.68798828125-6.3818359375-.28857421875-3.5634765625-.5625-7.65234375-.8193359375-12.263671875-.259765625-4.607421875-.43310546875-9.62939453125-.5263671875-15.06494140625-.1337890625-4.50390625-.158203125-9.4521484375-.0732421875-14.841796875.08349609375-5.390625.38623046875-10.94140625.90771484375-16.6572265625.51953125-5.712890625,1.330078125-11.4521484375,2.42578125-17.21484375,1.09619140625-5.759765625,2.61767578125-11.2666015625,4.56640625-16.52001953125,1.9453125-5.25048828125,4.3583984375-10.1357421875,7.23486328125-14.65380859375,2.87451171875-4.513671875,6.43994140625-8.39208984375,10.69287109375-11.63232421875,5.01806640625-3.76171875,10.69189453125-5.90234375,17.01904296875-6.41455078125,6.32373046875-.5126953125,12.431640625.556640625,18.31982421875,3.205078125ZM61.067382812498181,120.07958984375c7.19921875-1.1611328125,14.380859375-2.17724609375,21.546875-3.048828125,7.1630859375-.8671875,14.3798828125-1.482421875,21.64501953125-1.83984375-.31640625-8.193359375-1.25341796875-15.4677734375-2.810546875-21.82666015625-1.556640625-6.35546875-3.4365234375-11.67333984375-5.63427734375-15.9541015625-2.19970703125-4.27685546875-4.66064453125-7.494140625-7.38037109375-9.6474609375-2.72216796875-2.1513671875-5.40576171875-3.12255859375-8.05029296875-2.908203125-2.3017578125.1865234375-4.591796875,1.560546875-6.873046875,4.1171875-2.283203125,2.55859375-4.3037109375,6.1962890625-6.06201171875,10.91064453125-1.76123046875,4.71728515625-3.23193359375,10.4794921875-4.4169921875,17.28955078125-1.1845703125,6.810546875-1.8408203125,14.4482421875-1.96435546875,22.90771484375Z"/>
      <path class="cls-1" d="M96.630859374998181,38.18505859375c4.57470703125,2.1767578125,8.56591796875,4.97998046875,11.96875,8.4072265625,3.40380859375,3.43115234375,6.34521484375,7.24365234375,8.82861328125,11.44091796875,2.48095703125,4.2001953125,4.5517578125,8.6904296875,6.21435546875,13.4755859375,1.66064453125,4.7880859375,3.037109375,9.625,4.1279296875,14.51318359375,2.40185546875,9.64697265625,4.1220703125,19.46240234375,5.16455078125,29.4501953125,1.03955078125,9.98828125,1.68212890625,20.068359375,1.92822265625,30.23388671875.0009765625,2.8955078125-.037109375,5.2724609375-.11669921875,7.1298828125-.08349609375,1.8603515625-.39306640625,3.390625-.9306640625,4.5908203125-.54052734375,1.2021484375-1.35791015625,2.193359375-2.45068359375,2.9765625-1.09521484375.783203125-2.6533203125,1.544921875-4.6767578125,2.2890625-1.9384765625.3876953125-3.96484375.7265625-6.0830078125,1.013671875-2.1201171875.2861328125-4.15087890625-.126953125-6.09130859375-1.2431640625-1.818359375-1.0087890625-3.41650390625-2.8486328125-4.78857421875-5.515625-1.375-2.6669921875-2.32958984375-6.5849609375-2.8623046875-11.7509765625l-.1396484375-1.7255859375c-2.904296875-.111328125-6.3486328125-.119140625-10.3349609375-.0302734375-3.986328125.091796875-8.052734375.2783203125-12.19775390625.5537109375-4.1455078125.279296875-8.1455078125.5732421875-11.99755859375.8857421875-3.85498046875.3125-7.10302734375.5751953125-9.74755859375.7890625-.0322265625,1.044921875-.03515625,2.7822265625-.01171875,5.2109375.0234375,2.4296875-.15625,4.875-.53466796875,7.3359375-.380859375,2.462890625-.98046875,4.712890625-1.7978515625,6.7451171875-.8203125,2.037109375-2.0869140625,3.1787109375-3.802734375,3.4345703125-1.6025390625.2431640625-3.43212890625.5078125-5.4931640625.7919921875-2.06103515625.28125-4.09326171875.21484375-6.09375-.201171875-1.994140625-.298828125-3.7080078125-1.087890625-5.140625-2.361328125-1.43505859375-1.2734375-2.33203125-3.3994140625-2.68798828125-6.3818359375-.28857421875-3.5634765625-.5625-7.65234375-.8193359375-12.263671875-.259765625-4.607421875-.43310546875-9.62939453125-.5263671875-15.06494140625-.1337890625-4.50390625-.158203125-9.4521484375-.0732421875-14.841796875.08349609375-5.390625.38623046875-10.94140625.90771484375-16.6572265625.51953125-5.712890625,1.330078125-11.4521484375,2.42578125-17.21484375,1.09619140625-5.759765625,2.61767578125-11.2666015625,4.56640625-16.52001953125,1.9453125-5.25048828125,4.3583984375-10.1357421875,7.23486328125-14.65380859375,2.87451171875-4.513671875,6.43994140625-8.39208984375,10.69287109375-11.63232421875,5.01806640625-3.76171875,10.69189453125-5.90234375,17.01904296875-6.41455078125,6.32373046875-.5126953125,12.431640625.556640625,18.31982421875,3.205078125ZM61.067382812498181,120.07958984375c7.19921875-1.1611328125,14.380859375-2.17724609375,21.546875-3.048828125,7.1630859375-.8671875,14.3798828125-1.482421875,21.64501953125-1.83984375-.31640625-8.193359375-1.25341796875-15.4677734375-2.810546875-21.82666015625-1.556640625-6.35546875-3.4365234375-11.67333984375-5.63427734375-15.9541015625-2.19970703125-4.27685546875-4.66064453125-7.494140625-7.38037109375-9.6474609375-2.72216796875-2.1513671875-5.40576171875-3.12255859375-8.05029296875-2.908203125-2.3017578125.1865234375-4.591796875,1.560546875-6.873046875,4.1171875-2.283203125,2.55859375-4.3037109375,6.1962890625-6.06201171875,10.91064453125-1.76123046875,4.71728515625-3.23193359375,10.4794921875-4.4169921875,17.28955078125-1.1845703125,6.810546875-1.8408203125,14.4482421875-1.96435546875,22.90771484375Z"/>
      <path class="cls-2" d="M96.630859374998181,38.18505859375c4.57470703125,2.1767578125,8.56591796875,4.97998046875,11.96875,8.4072265625,3.40380859375,3.43115234375,6.34521484375,7.24365234375,8.82861328125,11.44091796875,2.48095703125,4.2001953125,4.5517578125,8.6904296875,6.21435546875,13.4755859375,1.66064453125,4.7880859375,3.037109375,9.625,4.1279296875,14.51318359375,2.40185546875,9.64697265625,4.1220703125,19.46240234375,5.16455078125,29.4501953125,1.03955078125,9.98828125,1.68212890625,20.068359375,1.92822265625,30.23388671875.0009765625,2.8955078125-.037109375,5.2724609375-.11669921875,7.1298828125-.08349609375,1.8603515625-.39306640625,3.390625-.9306640625,4.5908203125-.54052734375,1.2021484375-1.35791015625,2.193359375-2.45068359375,2.9765625-1.09521484375.783203125-2.6533203125,1.544921875-4.6767578125,2.2890625-1.9384765625.3876953125-3.96484375.7265625-6.0830078125,1.013671875-2.1201171875.2861328125-4.15087890625-.126953125-6.09130859375-1.2431640625-1.818359375-1.0087890625-3.41650390625-2.8486328125-4.78857421875-5.515625-1.375-2.6669921875-2.32958984375-6.5849609375-2.8623046875-11.7509765625l-.1396484375-1.7255859375c-2.904296875-.111328125-6.3486328125-.119140625-10.3349609375-.0302734375-3.986328125.091796875-8.052734375.2783203125-12.19775390625.5537109375-4.1455078125.279296875-8.1455078125.5732421875-11.99755859375.8857421875-3.85498046875.3125-7.10302734375.5751953125-9.74755859375.7890625-.0322265625,1.044921875-.03515625,2.7822265625-.01171875,5.2109375.0234375,2.4296875-.15625,4.875-.53466796875,7.3359375-.380859375,2.462890625-.98046875,4.712890625-1.7978515625,6.7451171875-.8203125,2.037109375-2.0869140625,3.1787109375-3.802734375,3.4345703125-1.6025390625.2431640625-3.43212890625.5078125-5.4931640625.7919921875-2.06103515625.28125-4.09326171875.21484375-6.09375-.201171875-1.994140625-.298828125-3.7080078125-1.087890625-5.140625-2.361328125-1.43505859375-1.2734375-2.33203125-3.3994140625-2.68798828125-6.3818359375-.28857421875-3.5634765625-.5625-7.65234375-.8193359375-12.263671875-.259765625-4.607421875-.43310546875-9.62939453125-.5263671875-15.06494140625-.1337890625-4.50390625-.158203125-9.4521484375-.0732421875-14.841796875.08349609375-5.390625.38623046875-10.94140625.90771484375-16.6572265625.51953125-5.712890625,1.330078125-11.4521484375,2.42578125-17.21484375,1.09619140625-5.759765625,2.61767578125-11.2666015625,4.56640625-16.52001953125,1.9453125-5.25048828125,4.3583984375-10.1357421875,7.23486328125-14.65380859375,2.87451171875-4.513671875,6.43994140625-8.39208984375,10.69287109375-11.63232421875,5.01806640625-3.76171875,10.69189453125-5.90234375,17.01904296875-6.41455078125,6.32373046875-.5126953125,12.431640625.556640625,18.31982421875,3.205078125ZM61.067382812498181,120.07958984375c7.19921875-1.1611328125,14.380859375-2.17724609375,21.546875-3.048828125,7.1630859375-.8671875,14.3798828125-1.482421875,21.64501953125-1.83984375-.31640625-8.193359375-1.25341796875-15.4677734375-2.810546875-21.82666015625-1.556640625-6.35546875-3.4365234375-11.67333984375-5.63427734375-15.9541015625-2.19970703125-4.27685546875-4.66064453125-7.494140625-7.38037109375-9.6474609375-2.72216796875-2.1513671875-5.40576171875-3.12255859375-8.05029296875-2.908203125-2.3017578125.1865234375-4.591796875,1.560546875-6.873046875,4.1171875-2.283203125,2.55859375-4.3037109375,6.1962890625-6.06201171875,10.91064453125-1.76123046875,4.71728515625-3.23193359375,10.4794921875-4.4169921875,17.28955078125-1.1845703125,6.810546875-1.8408203125,14.4482421875-1.96435546875,22.90771484375Z"/>
      <path class="cls-3" d="M96.630859374998181,38.18505859375c4.57470703125,2.1767578125,8.56591796875,4.97998046875,11.96875,8.4072265625,3.40380859375,3.43115234375,6.34521484375,7.24365234375,8.82861328125,11.44091796875,2.48095703125,4.2001953125,4.5517578125,8.6904296875,6.21435546875,13.4755859375,1.66064453125,4.7880859375,3.037109375,9.625,4.1279296875,14.51318359375,2.40185546875,9.64697265625,4.1220703125,19.46240234375,5.16455078125,29.4501953125,1.03955078125,9.98828125,1.68212890625,20.068359375,1.92822265625,30.23388671875.0009765625,2.8955078125-.037109375,5.2724609375-.11669921875,7.1298828125-.08349609375,1.8603515625-.39306640625,3.390625-.9306640625,4.5908203125-.54052734375,1.2021484375-1.35791015625,2.193359375-2.45068359375,2.9765625-1.09521484375.783203125-2.6533203125,1.544921875-4.6767578125,2.2890625-1.9384765625.3876953125-3.96484375.7265625-6.0830078125,1.013671875-2.1201171875.2861328125-4.15087890625-.126953125-6.09130859375-1.2431640625-1.818359375-1.0087890625-3.41650390625-2.8486328125-4.78857421875-5.515625-1.375-2.6669921875-2.32958984375-6.5849609375-2.8623046875-11.7509765625l-.1396484375-1.7255859375c-2.904296875-.111328125-6.3486328125-.119140625-10.3349609375-.0302734375-3.986328125.091796875-8.052734375.2783203125-12.19775390625.5537109375-4.1455078125.279296875-8.1455078125.5732421875-11.99755859375.8857421875-3.85498046875.3125-7.10302734375.5751953125-9.74755859375.7890625-.0322265625,1.044921875-.03515625,2.7822265625-.01171875,5.2109375.0234375,2.4296875-.15625,4.875-.53466796875,7.3359375-.380859375,2.462890625-.98046875,4.712890625-1.7978515625,6.7451171875-.8203125,2.037109375-2.0869140625,3.1787109375-3.802734375,3.4345703125-1.6025390625.2431640625-3.43212890625.5078125-5.4931640625.7919921875-2.06103515625.28125-4.09326171875.21484375-6.09375-.201171875-1.994140625-.298828125-3.7080078125-1.087890625-5.140625-2.361328125-1.43505859375-1.2734375-2.33203125-3.3994140625-2.68798828125-6.3818359375-.28857421875-3.5634765625-.5625-7.65234375-.8193359375-12.263671875-.259765625-4.607421875-.43310546875-9.62939453125-.5263671875-15.06494140625-.1337890625-4.50390625-.158203125-9.4521484375-.0732421875-14.841796875.08349609375-5.390625.38623046875-10.94140625.90771484375-16.6572265625.51953125-5.712890625,1.330078125-11.4521484375,2.42578125-17.21484375,1.09619140625-5.759765625,2.61767578125-11.2666015625,4.56640625-16.52001953125,1.9453125-5.25048828125,4.3583984375-10.1357421875,7.23486328125-14.65380859375,2.87451171875-4.513671875,6.43994140625-8.39208984375,10.69287109375-11.63232421875,5.01806640625-3.76171875,10.69189453125-5.90234375,17.01904296875-6.41455078125,6.32373046875-.5126953125,12.431640625.556640625,18.31982421875,3.205078125ZM61.067382812498181,120.07958984375c7.19921875-1.1611328125,14.380859375-2.17724609375,21.546875-3.048828125,7.1630859375-.8671875,14.3798828125-1.482421875,21.64501953125-1.83984375-.31640625-8.193359375-1.25341796875-15.4677734375-2.810546875-21.82666015625-1.556640625-6.35546875-3.4365234375-11.67333984375-5.63427734375-15.9541015625-2.19970703125-4.27685546875-4.66064453125-7.494140625-7.38037109375-9.6474609375-2.72216796875-2.1513671875-5.40576171875-3.12255859375-8.05029296875-2.908203125-2.3017578125.1865234375-4.591796875,1.560546875-6.873046875,4.1171875-2.283203125,2.55859375-4.3037109375,6.1962890625-6.06201171875,10.91064453125-1.76123046875,4.71728515625-3.23193359375,10.4794921875-4.4169921875,17.28955078125-1.1845703125,6.810546875-1.8408203125,14.4482421875-1.96435546875,22.90771484375Z"/>
    </g>
  </a>
  <a xlink:href="https://www.notion.so/congruence/A-Event-b33e3a2553c4474cbe30f83f7cace7eb?pvs=4">
    <g>
      <path d="M177.228027343748181,43.84033203125c-.0673828125-1.4384765625-.38916015625-2.4970703125-.96728515625-3.1728515625-.57763671875-.6748046875-1.2705078125-1.0673828125-2.07568359375-1.1767578125-.806640625-.109375-1.6533203125.046875-2.541015625.466796875-.888671875.4208984375-1.6767578125.984375-2.3671875,1.6875-1.61279296875,1.625-2.85791015625,3.630859375-3.7353515625,6.01953125-.87841796875,2.388671875-1.400390625,4.861328125-1.56689453125,7.4140625-.16650390625,2.5556640625.01123046875,5.0703125.53662109375,7.5439453125.5234375,2.4736328125,1.40478515625,4.5830078125,2.642578125,6.326171875.7890625,1.130859375,1.68994140625,1.9443359375,2.701171875,2.4345703125,1.01171875.490234375,2.06396484375.728515625,3.15966796875.7158203125,1.0947265625-.013671875,2.15673828125-.275390625,3.18798828125-.78125,1.0302734375-.5068359375,1.931640625-1.21484375,2.70556640625-2.1259765625,1.18212890625-1.3916015625,2.14794921875-2.390625,2.89599609375-3,.74755859375-.6083984375,1.6142578125-.978515625,2.60107421875-1.1083984375,2.82177734375-.228515625,4.75390625.4130859375,5.798828125,1.921875,1.0439453125,1.51171875,1.26220703125,3.4375.65478515625,5.7783203125-.4990234375,1.833984375-1.35107421875,3.47265625-2.5537109375,4.9150390625-1.2041015625,1.443359375-2.63916015625,2.642578125-4.30517578125,3.599609375-1.6669921875.958984375-3.4775390625,1.6787109375-5.4306640625,2.16015625-1.95458984375.4814453125-3.90283203125.7265625-5.84521484375.7353515625-1.94287109375.0068359375-3.80810546875-.251953125-5.59423828125-.78125-1.78759765625-.52734375-3.34619140625-1.310546875-4.67529296875-2.3486328125-1.49072265625-1.1748046875-2.822265625-2.548828125-3.99609375-4.123046875-1.173828125-1.5751953125-2.18310546875-3.2626953125-3.0263671875-5.0625-.84423828125-1.7998046875-1.5205078125-3.6884765625-2.02880859375-5.6650390625-.50927734375-1.9765625-.845703125-3.98046875-1.01025390625-6.0107421875-.26953125-4.5615234375.33837890625-9.044921875,1.82568359375-13.451171875,1.48583984375-4.4052734375,3.611328125-8.314453125,6.37451171875-11.728515625,1.26904296875-1.546875,2.81640625-2.9052734375,4.640625-4.076171875,1.82275390625-1.16796875,3.7255859375-1.982421875,5.70654296875-2.4423828125s3.95654296875-.5185546875,5.92724609375-.1806640625c1.97119140625.3388671875,3.76318359375,1.240234375,5.37646484375,2.703125,1.23486328125,1.0947265625,2.26025390625,2.384765625,3.078125,3.861328125.8173828125,1.4794921875,1.46142578125,2.970703125,1.9326171875,4.4775390625.27734375.974609375.4404296875,1.908203125.48876953125,2.80078125.04638671875.8935546875-.09521484375,1.7529296875-.4267578125,2.5751953125-.46533203125,1.0361328125-1.2490234375,1.8095703125-2.353515625,2.3212890625-1.10546875.513671875-2.2197265625.740234375-3.345703125.6826171875-1.12548828125-.05859375-2.1259765625-.412109375-3.0009765625-1.0654296875-.875-.650390625-1.33837890625-1.59765625-1.388671875-2.83984375Z"/>
      <path class="cls-1" d="M177.228027343748181,43.84033203125c-.0673828125-1.4384765625-.38916015625-2.4970703125-.96728515625-3.1728515625-.57763671875-.6748046875-1.2705078125-1.0673828125-2.07568359375-1.1767578125-.806640625-.109375-1.6533203125.046875-2.541015625.466796875-.888671875.4208984375-1.6767578125.984375-2.3671875,1.6875-1.61279296875,1.625-2.85791015625,3.630859375-3.7353515625,6.01953125-.87841796875,2.388671875-1.400390625,4.861328125-1.56689453125,7.4140625-.16650390625,2.5556640625.01123046875,5.0703125.53662109375,7.5439453125.5234375,2.4736328125,1.40478515625,4.5830078125,2.642578125,6.326171875.7890625,1.130859375,1.68994140625,1.9443359375,2.701171875,2.4345703125,1.01171875.490234375,2.06396484375.728515625,3.15966796875.7158203125,1.0947265625-.013671875,2.15673828125-.275390625,3.18798828125-.78125,1.0302734375-.5068359375,1.931640625-1.21484375,2.70556640625-2.1259765625,1.18212890625-1.3916015625,2.14794921875-2.390625,2.89599609375-3,.74755859375-.6083984375,1.6142578125-.978515625,2.60107421875-1.1083984375,2.82177734375-.228515625,4.75390625.4130859375,5.798828125,1.921875,1.0439453125,1.51171875,1.26220703125,3.4375.65478515625,5.7783203125-.4990234375,1.833984375-1.35107421875,3.47265625-2.5537109375,4.9150390625-1.2041015625,1.443359375-2.63916015625,2.642578125-4.30517578125,3.599609375-1.6669921875.958984375-3.4775390625,1.6787109375-5.4306640625,2.16015625-1.95458984375.4814453125-3.90283203125.7265625-5.84521484375.7353515625-1.94287109375.0068359375-3.80810546875-.251953125-5.59423828125-.78125-1.78759765625-.52734375-3.34619140625-1.310546875-4.67529296875-2.3486328125-1.49072265625-1.1748046875-2.822265625-2.548828125-3.99609375-4.123046875-1.173828125-1.5751953125-2.18310546875-3.2626953125-3.0263671875-5.0625-.84423828125-1.7998046875-1.5205078125-3.6884765625-2.02880859375-5.6650390625-.50927734375-1.9765625-.845703125-3.98046875-1.01025390625-6.0107421875-.26953125-4.5615234375.33837890625-9.044921875,1.82568359375-13.451171875,1.48583984375-4.4052734375,3.611328125-8.314453125,6.37451171875-11.728515625,1.26904296875-1.546875,2.81640625-2.9052734375,4.640625-4.076171875,1.82275390625-1.16796875,3.7255859375-1.982421875,5.70654296875-2.4423828125s3.95654296875-.5185546875,5.92724609375-.1806640625c1.97119140625.3388671875,3.76318359375,1.240234375,5.37646484375,2.703125,1.23486328125,1.0947265625,2.26025390625,2.384765625,3.078125,3.861328125.8173828125,1.4794921875,1.46142578125,2.970703125,1.9326171875,4.4775390625.27734375.974609375.4404296875,1.908203125.48876953125,2.80078125.04638671875.8935546875-.09521484375,1.7529296875-.4267578125,2.5751953125-.46533203125,1.0361328125-1.2490234375,1.8095703125-2.353515625,2.3212890625-1.10546875.513671875-2.2197265625.740234375-3.345703125.6826171875-1.12548828125-.05859375-2.1259765625-.412109375-3.0009765625-1.0654296875-.875-.650390625-1.33837890625-1.59765625-1.388671875-2.83984375Z"/>
      <path class="cls-2" d="M177.228027343748181,43.84033203125c-.0673828125-1.4384765625-.38916015625-2.4970703125-.96728515625-3.1728515625-.57763671875-.6748046875-1.2705078125-1.0673828125-2.07568359375-1.1767578125-.806640625-.109375-1.6533203125.046875-2.541015625.466796875-.888671875.4208984375-1.6767578125.984375-2.3671875,1.6875-1.61279296875,1.625-2.85791015625,3.630859375-3.7353515625,6.01953125-.87841796875,2.388671875-1.400390625,4.861328125-1.56689453125,7.4140625-.16650390625,2.5556640625.01123046875,5.0703125.53662109375,7.5439453125.5234375,2.4736328125,1.40478515625,4.5830078125,2.642578125,6.326171875.7890625,1.130859375,1.68994140625,1.9443359375,2.701171875,2.4345703125,1.01171875.490234375,2.06396484375.728515625,3.15966796875.7158203125,1.0947265625-.013671875,2.15673828125-.275390625,3.18798828125-.78125,1.0302734375-.5068359375,1.931640625-1.21484375,2.70556640625-2.1259765625,1.18212890625-1.3916015625,2.14794921875-2.390625,2.89599609375-3,.74755859375-.6083984375,1.6142578125-.978515625,2.60107421875-1.1083984375,2.82177734375-.228515625,4.75390625.4130859375,5.798828125,1.921875,1.0439453125,1.51171875,1.26220703125,3.4375.65478515625,5.7783203125-.4990234375,1.833984375-1.35107421875,3.47265625-2.5537109375,4.9150390625-1.2041015625,1.443359375-2.63916015625,2.642578125-4.30517578125,3.599609375-1.6669921875.958984375-3.4775390625,1.6787109375-5.4306640625,2.16015625-1.95458984375.4814453125-3.90283203125.7265625-5.84521484375.7353515625-1.94287109375.0068359375-3.80810546875-.251953125-5.59423828125-.78125-1.78759765625-.52734375-3.34619140625-1.310546875-4.67529296875-2.3486328125-1.49072265625-1.1748046875-2.822265625-2.548828125-3.99609375-4.123046875-1.173828125-1.5751953125-2.18310546875-3.2626953125-3.0263671875-5.0625-.84423828125-1.7998046875-1.5205078125-3.6884765625-2.02880859375-5.6650390625-.50927734375-1.9765625-.845703125-3.98046875-1.01025390625-6.0107421875-.26953125-4.5615234375.33837890625-9.044921875,1.82568359375-13.451171875,1.48583984375-4.4052734375,3.611328125-8.314453125,6.37451171875-11.728515625,1.26904296875-1.546875,2.81640625-2.9052734375,4.640625-4.076171875,1.82275390625-1.16796875,3.7255859375-1.982421875,5.70654296875-2.4423828125s3.95654296875-.5185546875,5.92724609375-.1806640625c1.97119140625.3388671875,3.76318359375,1.240234375,5.37646484375,2.703125,1.23486328125,1.0947265625,2.26025390625,2.384765625,3.078125,3.861328125.8173828125,1.4794921875,1.46142578125,2.970703125,1.9326171875,4.4775390625.27734375.974609375.4404296875,1.908203125.48876953125,2.80078125.04638671875.8935546875-.09521484375,1.7529296875-.4267578125,2.5751953125-.46533203125,1.0361328125-1.2490234375,1.8095703125-2.353515625,2.3212890625-1.10546875.513671875-2.2197265625.740234375-3.345703125.6826171875-1.12548828125-.05859375-2.1259765625-.412109375-3.0009765625-1.0654296875-.875-.650390625-1.33837890625-1.59765625-1.388671875-2.83984375Z"/>
      <path class="cls-3" d="M177.228027343748181,43.84033203125c-.0673828125-1.4384765625-.38916015625-2.4970703125-.96728515625-3.1728515625-.57763671875-.6748046875-1.2705078125-1.0673828125-2.07568359375-1.1767578125-.806640625-.109375-1.6533203125.046875-2.541015625.466796875-.888671875.4208984375-1.6767578125.984375-2.3671875,1.6875-1.61279296875,1.625-2.85791015625,3.630859375-3.7353515625,6.01953125-.87841796875,2.388671875-1.400390625,4.861328125-1.56689453125,7.4140625-.16650390625,2.5556640625.01123046875,5.0703125.53662109375,7.5439453125.5234375,2.4736328125,1.40478515625,4.5830078125,2.642578125,6.326171875.7890625,1.130859375,1.68994140625,1.9443359375,2.701171875,2.4345703125,1.01171875.490234375,2.06396484375.728515625,3.15966796875.7158203125,1.0947265625-.013671875,2.15673828125-.275390625,3.18798828125-.78125,1.0302734375-.5068359375,1.931640625-1.21484375,2.70556640625-2.1259765625,1.18212890625-1.3916015625,2.14794921875-2.390625,2.89599609375-3,.74755859375-.6083984375,1.6142578125-.978515625,2.60107421875-1.1083984375,2.82177734375-.228515625,4.75390625.4130859375,5.798828125,1.921875,1.0439453125,1.51171875,1.26220703125,3.4375.65478515625,5.7783203125-.4990234375,1.833984375-1.35107421875,3.47265625-2.5537109375,4.9150390625-1.2041015625,1.443359375-2.63916015625,2.642578125-4.30517578125,3.599609375-1.6669921875.958984375-3.4775390625,1.6787109375-5.4306640625,2.16015625-1.95458984375.4814453125-3.90283203125.7265625-5.84521484375.7353515625-1.94287109375.0068359375-3.80810546875-.251953125-5.59423828125-.78125-1.78759765625-.52734375-3.34619140625-1.310546875-4.67529296875-2.3486328125-1.49072265625-1.1748046875-2.822265625-2.548828125-3.99609375-4.123046875-1.173828125-1.5751953125-2.18310546875-3.2626953125-3.0263671875-5.0625-.84423828125-1.7998046875-1.5205078125-3.6884765625-2.02880859375-5.6650390625-.50927734375-1.9765625-.845703125-3.98046875-1.01025390625-6.0107421875-.26953125-4.5615234375.33837890625-9.044921875,1.82568359375-13.451171875,1.48583984375-4.4052734375,3.611328125-8.314453125,6.37451171875-11.728515625,1.26904296875-1.546875,2.81640625-2.9052734375,4.640625-4.076171875,1.82275390625-1.16796875,3.7255859375-1.982421875,5.70654296875-2.4423828125s3.95654296875-.5185546875,5.92724609375-.1806640625c1.97119140625.3388671875,3.76318359375,1.240234375,5.37646484375,2.703125,1.23486328125,1.0947265625,2.26025390625,2.384765625,3.078125,3.861328125.8173828125,1.4794921875,1.46142578125,2.970703125,1.9326171875,4.4775390625.27734375.974609375.4404296875,1.908203125.48876953125,2.80078125.04638671875.8935546875-.09521484375,1.7529296875-.4267578125,2.5751953125-.46533203125,1.0361328125-1.2490234375,1.8095703125-2.353515625,2.3212890625-1.10546875.513671875-2.2197265625.740234375-3.345703125.6826171875-1.12548828125-.05859375-2.1259765625-.412109375-3.0009765625-1.0654296875-.875-.650390625-1.33837890625-1.59765625-1.388671875-2.83984375Z"/>
    </g>
  </a>
</svg>