<?xml version="1.0" encoding="UTF-8"?>
<svg id="Content" xmlns="http://www.w3.org/2000/svg" xmlns:xlink="http://www.w3.org/1999/xlink" viewBox="0 0 280 280">
  <defs>
    <style>
      .cls-1 {
        stroke: #665451;
        stroke-width: 50px;
      }

      .cls-1, .cls-2 {
        fill: none;
        stroke-linecap: round;
        stroke-linejoin: round;
      }

      .cls-3 {
        fill: #fff;
      }

      .cls-2 {
        stroke: #998675;
        stroke-width: 2px;
      }
    </style>
  </defs>
  <a xlink:href="https://www.notion.so/congruence/B-Event-1f1a5b08a72c49f5ab60f2e0793fd0a8?pvs=4">
    <g>
      <path d="M110.926757812498181,101.1083984375c5.376953125,3.501953125,9.5361328125,8.05712890625,12.4814453125,13.66259765625,2.9423828125,5.609375,4.2060546875,11.55517578125,3.7890625,17.84033203125-.466796875,7.1005859375-2.7490234375,13.2197265625-6.84765625,18.3544921875-4.099609375,5.13671875-9.0859375,9.33203125-14.95703125,12.5859375-5.8740234375,3.2548828125-12.3076171875,5.6298828125-19.306640625,7.1220703125s-13.6318359375,2.1455078125-19.8984375,1.958984375c-.55859375.2763671875-1.064453125.4609375-1.517578125.5576171875-.45703125.09375-.966796875.2216796875-1.53125.3828125-2.0615234375.2822265625-4.19140625.455078125-6.3837890625.517578125-2.1962890625.0615234375-4.2099609375-.15234375-6.04296875-.638671875-1.8359375-.486328125-3.4423828125-1.3974609375-4.82421875-2.734375-1.3828125-1.3349609375-2.294921875-3.3154296875-2.7392578125-5.943359375-.333984375-1.24609375-.59765625-3.798828125-.7939453125-7.6640625-.1982421875-3.8603515625-.4619140625-8.5576171875-.7939453125-14.087890625-.2265625-5.65234375-.521484375-11.79296875-.884765625-18.421875-.36328125-6.62744140625-.7578125-13.28173828125-1.18359375-19.9619140625-.59375-8.74853515625-1.19140625-17.556640625-1.79296875-26.42333984375-.603515625-8.86572265625-1.6708984375-17.751953125-3.201171875-26.65869140625-.31640625-1.01513671875-.2744140625-1.9443359375.12109375-2.78759765625.173828125-.708984375.63671875-1.4111328125,1.3916015625-2.10986328125.7529296875-.6962890625,1.9248046875-1.224609375,3.5185546875-1.587890625,1.138671875-.2060546875,2.392578125-.48046875,3.75390625-.82470703125,1.361328125-.34130859375,2.7841796875-.6298828125,4.271484375-.8671875,1.4833984375-.2333984375,2.923828125-.35009765625,4.3125-.349609375,1.3896484375.00439453125,2.615234375.13623046875,3.6787109375.39697265625,5.8017578125-1.27783203125,11.9501953125-1.806640625,18.453125-1.58251953125,6.5009765625.228515625,12.6923828125,1.25927734375,18.572265625,3.09765625,5.87890625,1.8408203125,11.072265625,4.5166015625,15.583984375,8.02880859375,4.509765625,3.51416015625,7.6787109375,7.97265625,9.5068359375,13.38232421875.76953125,2.36865234375,1.3203125,4.8720703125,1.650390625,7.50732421875.328125,2.63818359375.263671875,5.3916015625-.19921875,8.26416015625-.4609375,2.8759765625-1.345703125,5.8994140625-2.6513671875,9.0712890625-1.3056640625,3.17578125-3.1513671875,6.48046875-5.53515625,9.91259765625ZM65.246093749998181,94.564453125c5.5390625-.2158203125,10.150390625-1.17041015625,13.833984375-2.8583984375,3.6845703125-1.6875,6.3837890625-3.7294921875,8.099609375-6.12548828125,1.716796875-2.39697265625,2.4375-4.9140625,2.1669921875-7.556640625-.2734375-2.638671875-1.470703125-4.9169921875-3.5927734375-6.82861328125-2.1240234375-1.912109375-5.185546875-3.25341796875-9.181640625-4.03173828125-4-.77392578125-8.958984375-.5166015625-14.873046875.7705078125.708984375,4.45751953125,1.326171875,8.8662109375,1.8525390625,13.22216796875.5263671875,4.3583984375,1.0888671875,8.82763671875,1.6943359375,13.408203125ZM69.816406249998181,144.552734375c6.267578125.1875,11.4765625-.521484375,15.6298828125-2.1337890625,4.1513671875-1.6083984375,7.2041015625-3.5927734375,9.15625-5.951171875,1.9501953125-2.35546875,2.8505859375-4.8037109375,2.705078125-7.33984375-.1494140625-2.5322265625-1.3310546875-4.6376953125-3.55078125-6.3095703125-2.2197265625-1.67138671875-5.4833984375-2.65234375-9.7890625-2.94140625-4.3076171875-.2861328125-9.62109375.5791015625-15.9404296875,2.59375l1.7890625,22.08203125Z"/>
      <path class="cls-1" d="M110.926757812498181,101.1083984375c5.376953125,3.501953125,9.5361328125,8.05712890625,12.4814453125,13.66259765625,2.9423828125,5.609375,4.2060546875,11.55517578125,3.7890625,17.84033203125-.466796875,7.1005859375-2.7490234375,13.2197265625-6.84765625,18.3544921875-4.099609375,5.13671875-9.0859375,9.33203125-14.95703125,12.5859375-5.8740234375,3.2548828125-12.3076171875,5.6298828125-19.306640625,7.1220703125s-13.6318359375,2.1455078125-19.8984375,1.958984375c-.55859375.2763671875-1.064453125.4609375-1.517578125.5576171875-.45703125.09375-.966796875.2216796875-1.53125.3828125-2.0615234375.2822265625-4.19140625.455078125-6.3837890625.517578125-2.1962890625.0615234375-4.2099609375-.15234375-6.04296875-.638671875-1.8359375-.486328125-3.4423828125-1.3974609375-4.82421875-2.734375-1.3828125-1.3349609375-2.294921875-3.3154296875-2.7392578125-5.943359375-.333984375-1.24609375-.59765625-3.798828125-.7939453125-7.6640625-.1982421875-3.8603515625-.4619140625-8.5576171875-.7939453125-14.087890625-.2265625-5.65234375-.521484375-11.79296875-.884765625-18.421875-.36328125-6.62744140625-.7578125-13.28173828125-1.18359375-19.9619140625-.59375-8.74853515625-1.19140625-17.556640625-1.79296875-26.42333984375-.603515625-8.86572265625-1.6708984375-17.751953125-3.201171875-26.65869140625-.31640625-1.01513671875-.2744140625-1.9443359375.12109375-2.78759765625.173828125-.708984375.63671875-1.4111328125,1.3916015625-2.10986328125.7529296875-.6962890625,1.9248046875-1.224609375,3.5185546875-1.587890625,1.138671875-.2060546875,2.392578125-.48046875,3.75390625-.82470703125,1.361328125-.34130859375,2.7841796875-.6298828125,4.271484375-.8671875,1.4833984375-.2333984375,2.923828125-.35009765625,4.3125-.349609375,1.3896484375.00439453125,2.615234375.13623046875,3.6787109375.39697265625,5.8017578125-1.27783203125,11.9501953125-1.806640625,18.453125-1.58251953125,6.5009765625.228515625,12.6923828125,1.25927734375,18.572265625,3.09765625,5.87890625,1.8408203125,11.072265625,4.5166015625,15.583984375,8.02880859375,4.509765625,3.51416015625,7.6787109375,7.97265625,9.5068359375,13.38232421875.76953125,2.36865234375,1.3203125,4.8720703125,1.650390625,7.50732421875.328125,2.63818359375.263671875,5.3916015625-.19921875,8.26416015625-.4609375,2.8759765625-1.345703125,5.8994140625-2.6513671875,9.0712890625-1.3056640625,3.17578125-3.1513671875,6.48046875-5.53515625,9.91259765625ZM65.246093749998181,94.564453125c5.5390625-.2158203125,10.150390625-1.17041015625,13.833984375-2.8583984375,3.6845703125-1.6875,6.3837890625-3.7294921875,8.099609375-6.12548828125,1.716796875-2.39697265625,2.4375-4.9140625,2.1669921875-7.556640625-.2734375-2.638671875-1.470703125-4.9169921875-3.5927734375-6.82861328125-2.1240234375-1.912109375-5.185546875-3.25341796875-9.181640625-4.03173828125-4-.77392578125-8.958984375-.5166015625-14.873046875.7705078125.708984375,4.45751953125,1.326171875,8.8662109375,1.8525390625,13.22216796875.5263671875,4.3583984375,1.0888671875,8.82763671875,1.6943359375,13.408203125ZM69.816406249998181,144.552734375c6.267578125.1875,11.4765625-.521484375,15.6298828125-2.1337890625,4.1513671875-1.6083984375,7.2041015625-3.5927734375,9.15625-5.951171875,1.9501953125-2.35546875,2.8505859375-4.8037109375,2.705078125-7.33984375-.1494140625-2.5322265625-1.3310546875-4.6376953125-3.55078125-6.3095703125-2.2197265625-1.67138671875-5.4833984375-2.65234375-9.7890625-2.94140625-4.3076171875-.2861328125-9.62109375.5791015625-15.9404296875,2.59375l1.7890625,22.08203125Z"/>
      <path class="cls-2" d="M110.926757812498181,101.1083984375c5.376953125,3.501953125,9.5361328125,8.05712890625,12.4814453125,13.66259765625,2.9423828125,5.609375,4.2060546875,11.55517578125,3.7890625,17.84033203125-.466796875,7.1005859375-2.7490234375,13.2197265625-6.84765625,18.3544921875-4.099609375,5.13671875-9.0859375,9.33203125-14.95703125,12.5859375-5.8740234375,3.2548828125-12.3076171875,5.6298828125-19.306640625,7.1220703125s-13.6318359375,2.1455078125-19.8984375,1.958984375c-.55859375.2763671875-1.064453125.4609375-1.517578125.5576171875-.45703125.09375-.966796875.2216796875-1.53125.3828125-2.0615234375.2822265625-4.19140625.455078125-6.3837890625.517578125-2.1962890625.0615234375-4.2099609375-.15234375-6.04296875-.638671875-1.8359375-.486328125-3.4423828125-1.3974609375-4.82421875-2.734375-1.3828125-1.3349609375-2.294921875-3.3154296875-2.7392578125-5.943359375-.333984375-1.24609375-.59765625-3.798828125-.7939453125-7.6640625-.1982421875-3.8603515625-.4619140625-8.5576171875-.7939453125-14.087890625-.2265625-5.65234375-.521484375-11.79296875-.884765625-18.421875-.36328125-6.62744140625-.7578125-13.28173828125-1.18359375-19.9619140625-.59375-8.74853515625-1.19140625-17.556640625-1.79296875-26.42333984375-.603515625-8.86572265625-1.6708984375-17.751953125-3.201171875-26.65869140625-.31640625-1.01513671875-.2744140625-1.9443359375.12109375-2.78759765625.173828125-.708984375.63671875-1.4111328125,1.3916015625-2.10986328125.7529296875-.6962890625,1.9248046875-1.224609375,3.5185546875-1.587890625,1.138671875-.2060546875,2.392578125-.48046875,3.75390625-.82470703125,1.361328125-.34130859375,2.7841796875-.6298828125,4.271484375-.8671875,1.4833984375-.2333984375,2.923828125-.35009765625,4.3125-.349609375,1.3896484375.00439453125,2.615234375.13623046875,3.6787109375.39697265625,5.8017578125-1.27783203125,11.9501953125-1.806640625,18.453125-1.58251953125,6.5009765625.228515625,12.6923828125,1.25927734375,18.572265625,3.09765625,5.87890625,1.8408203125,11.072265625,4.5166015625,15.583984375,8.02880859375,4.509765625,3.51416015625,7.6787109375,7.97265625,9.5068359375,13.38232421875.76953125,2.36865234375,1.3203125,4.8720703125,1.650390625,7.50732421875.328125,2.63818359375.263671875,5.3916015625-.19921875,8.26416015625-.4609375,2.8759765625-1.345703125,5.8994140625-2.6513671875,9.0712890625-1.3056640625,3.17578125-3.1513671875,6.48046875-5.53515625,9.91259765625ZM65.246093749998181,94.564453125c5.5390625-.2158203125,10.150390625-1.17041015625,13.833984375-2.8583984375,3.6845703125-1.6875,6.3837890625-3.7294921875,8.099609375-6.12548828125,1.716796875-2.39697265625,2.4375-4.9140625,2.1669921875-7.556640625-.2734375-2.638671875-1.470703125-4.9169921875-3.5927734375-6.82861328125-2.1240234375-1.912109375-5.185546875-3.25341796875-9.181640625-4.03173828125-4-.77392578125-8.958984375-.5166015625-14.873046875.7705078125.708984375,4.45751953125,1.326171875,8.8662109375,1.8525390625,13.22216796875.5263671875,4.3583984375,1.0888671875,8.82763671875,1.6943359375,13.408203125ZM69.816406249998181,144.552734375c6.267578125.1875,11.4765625-.521484375,15.6298828125-2.1337890625,4.1513671875-1.6083984375,7.2041015625-3.5927734375,9.15625-5.951171875,1.9501953125-2.35546875,2.8505859375-4.8037109375,2.705078125-7.33984375-.1494140625-2.5322265625-1.3310546875-4.6376953125-3.55078125-6.3095703125-2.2197265625-1.67138671875-5.4833984375-2.65234375-9.7890625-2.94140625-4.3076171875-.2861328125-9.62109375.5791015625-15.9404296875,2.59375l1.7890625,22.08203125Z"/>
      <path class="cls-3" d="M110.926757812498181,101.1083984375c5.376953125,3.501953125,9.5361328125,8.05712890625,12.4814453125,13.66259765625,2.9423828125,5.609375,4.2060546875,11.55517578125,3.7890625,17.84033203125-.466796875,7.1005859375-2.7490234375,13.2197265625-6.84765625,18.3544921875-4.099609375,5.13671875-9.0859375,9.33203125-14.95703125,12.5859375-5.8740234375,3.2548828125-12.3076171875,5.6298828125-19.306640625,7.1220703125s-13.6318359375,2.1455078125-19.8984375,1.958984375c-.55859375.2763671875-1.064453125.4609375-1.517578125.5576171875-.45703125.09375-.966796875.2216796875-1.53125.3828125-2.0615234375.2822265625-4.19140625.455078125-6.3837890625.517578125-2.1962890625.0615234375-4.2099609375-.15234375-6.04296875-.638671875-1.8359375-.486328125-3.4423828125-1.3974609375-4.82421875-2.734375-1.3828125-1.3349609375-2.294921875-3.3154296875-2.7392578125-5.943359375-.333984375-1.24609375-.59765625-3.798828125-.7939453125-7.6640625-.1982421875-3.8603515625-.4619140625-8.5576171875-.7939453125-14.087890625-.2265625-5.65234375-.521484375-11.79296875-.884765625-18.421875-.36328125-6.62744140625-.7578125-13.28173828125-1.18359375-19.9619140625-.59375-8.74853515625-1.19140625-17.556640625-1.79296875-26.42333984375-.603515625-8.86572265625-1.6708984375-17.751953125-3.201171875-26.65869140625-.31640625-1.01513671875-.2744140625-1.9443359375.12109375-2.78759765625.173828125-.708984375.63671875-1.4111328125,1.3916015625-2.10986328125.7529296875-.6962890625,1.9248046875-1.224609375,3.5185546875-1.587890625,1.138671875-.2060546875,2.392578125-.48046875,3.75390625-.82470703125,1.361328125-.34130859375,2.7841796875-.6298828125,4.271484375-.8671875,1.4833984375-.2333984375,2.923828125-.35009765625,4.3125-.349609375,1.3896484375.00439453125,2.615234375.13623046875,3.6787109375.39697265625,5.8017578125-1.27783203125,11.9501953125-1.806640625,18.453125-1.58251953125,6.5009765625.228515625,12.6923828125,1.25927734375,18.572265625,3.09765625,5.87890625,1.8408203125,11.072265625,4.5166015625,15.583984375,8.02880859375,4.509765625,3.51416015625,7.6787109375,7.97265625,9.5068359375,13.38232421875.76953125,2.36865234375,1.3203125,4.8720703125,1.650390625,7.50732421875.328125,2.63818359375.263671875,5.3916015625-.19921875,8.26416015625-.4609375,2.8759765625-1.345703125,5.8994140625-2.6513671875,9.0712890625-1.3056640625,3.17578125-3.1513671875,6.48046875-5.53515625,9.91259765625ZM65.246093749998181,94.564453125c5.5390625-.2158203125,10.150390625-1.17041015625,13.833984375-2.8583984375,3.6845703125-1.6875,6.3837890625-3.7294921875,8.099609375-6.12548828125,1.716796875-2.39697265625,2.4375-4.9140625,2.1669921875-7.556640625-.2734375-2.638671875-1.470703125-4.9169921875-3.5927734375-6.82861328125-2.1240234375-1.912109375-5.185546875-3.25341796875-9.181640625-4.03173828125-4-.77392578125-8.958984375-.5166015625-14.873046875.7705078125.708984375,4.45751953125,1.326171875,8.8662109375,1.8525390625,13.22216796875.5263671875,4.3583984375,1.0888671875,8.82763671875,1.6943359375,13.408203125ZM69.816406249998181,144.552734375c6.267578125.1875,11.4765625-.521484375,15.6298828125-2.1337890625,4.1513671875-1.6083984375,7.2041015625-3.5927734375,9.15625-5.951171875,1.9501953125-2.35546875,2.8505859375-4.8037109375,2.705078125-7.33984375-.1494140625-2.5322265625-1.3310546875-4.6376953125-3.55078125-6.3095703125-2.2197265625-1.67138671875-5.4833984375-2.65234375-9.7890625-2.94140625-4.3076171875-.2861328125-9.62109375.5791015625-15.9404296875,2.59375l1.7890625,22.08203125Z"/>
    </g>
  </a>
  <a xlink:href="https://www.notion.so/congruence/B-Event-1f1a5b08a72c49f5ab60f2e0793fd0a8?pvs=4">
    <g>
      <path d="M169.748046874998181,43.80322265625c-.0673828125-1.4384765625-.388671875-2.4951171875-.966796875-3.171875-.578125-.6748046875-1.271484375-1.068359375-2.076171875-1.1767578125-.806640625-.109375-1.654296875.046875-2.541015625.4677734375-.888671875.4208984375-1.6767578125.982421875-2.3671875,1.685546875-1.61328125,1.6259765625-2.857421875,3.6318359375-3.7353515625,6.0205078125-.8779296875,2.3876953125-1.400390625,4.8603515625-1.5673828125,7.4140625-.166015625,2.5546875.01171875,5.0693359375.537109375,7.5439453125.5234375,2.4736328125,1.404296875,4.5830078125,2.642578125,6.3251953125.7890625,1.1318359375,1.689453125,1.9443359375,2.701171875,2.4345703125,1.01171875.4912109375,2.064453125.7294921875,3.16015625.7158203125,1.09375-.013671875,2.15625-.2744140625,3.1875-.78125,1.029296875-.5068359375,1.931640625-1.21484375,2.705078125-2.1259765625,1.1826171875-1.390625,2.1484375-2.3896484375,2.896484375-2.9990234375.748046875-.6083984375,1.6142578125-.978515625,2.6005859375-1.1083984375,2.822265625-.2294921875,4.75390625.412109375,5.7998046875,1.921875,1.04296875,1.5107421875,1.26171875,3.4365234375.654296875,5.77734375-.5,1.833984375-1.3515625,3.4736328125-2.5546875,4.9150390625-1.203125,1.443359375-2.638671875,2.6435546875-4.3046875,3.599609375-1.6669921875.958984375-3.4765625,1.6787109375-5.4306640625,2.16015625s-3.90234375.7275390625-5.8447265625.7353515625c-1.943359375.0068359375-3.80859375-.251953125-5.5947265625-.7802734375-1.787109375-.5283203125-3.345703125-1.310546875-4.6748046875-2.349609375-1.490234375-1.1748046875-2.822265625-2.548828125-3.99609375-4.123046875s-2.18359375-3.2626953125-3.0263671875-5.0615234375c-.8447265625-1.80078125-1.5205078125-3.689453125-2.0283203125-5.666015625-.509765625-1.9765625-.845703125-3.9794921875-1.009765625-6.0107421875-.271484375-4.560546875.337890625-9.0439453125,1.82421875-13.451171875,1.486328125-4.4052734375,3.611328125-8.3134765625,6.375-11.728515625,1.26953125-1.546875,2.81640625-2.9052734375,4.640625-4.07421875,1.822265625-1.1689453125,3.7255859375-1.984375,5.70703125-2.4443359375,1.98046875-.458984375,3.9560546875-.5185546875,5.9267578125-.1806640625,1.970703125.33984375,3.7626953125,1.240234375,5.3759765625,2.7041015625,1.234375,1.095703125,2.2607421875,2.3837890625,3.078125,3.8603515625.8173828125,1.4794921875,1.4609375,2.97265625,1.93359375,4.478515625.27734375.974609375.439453125,1.9072265625.48828125,2.7998046875.0458984375.89453125-.095703125,1.7529296875-.427734375,2.5771484375-.46484375,1.0341796875-1.248046875,1.80859375-2.3525390625,2.3193359375-1.10546875.5146484375-2.2197265625.7412109375-3.345703125.6826171875-1.1259765625-.0576171875-2.1259765625-.412109375-3.0009765625-1.064453125-.875-.6513671875-1.337890625-1.5986328125-1.388671875-2.8408203125Z"/>
      <path class="cls-1" d="M169.748046874998181,43.80322265625c-.0673828125-1.4384765625-.388671875-2.4951171875-.966796875-3.171875-.578125-.6748046875-1.271484375-1.068359375-2.076171875-1.1767578125-.806640625-.109375-1.654296875.046875-2.541015625.4677734375-.888671875.4208984375-1.6767578125.982421875-2.3671875,1.685546875-1.61328125,1.6259765625-2.857421875,3.6318359375-3.7353515625,6.0205078125-.8779296875,2.3876953125-1.400390625,4.8603515625-1.5673828125,7.4140625-.166015625,2.5546875.01171875,5.0693359375.537109375,7.5439453125.5234375,2.4736328125,1.404296875,4.5830078125,2.642578125,6.3251953125.7890625,1.1318359375,1.689453125,1.9443359375,2.701171875,2.4345703125,1.01171875.4912109375,2.064453125.7294921875,3.16015625.7158203125,1.09375-.013671875,2.15625-.2744140625,3.1875-.78125,1.029296875-.5068359375,1.931640625-1.21484375,2.705078125-2.1259765625,1.1826171875-1.390625,2.1484375-2.3896484375,2.896484375-2.9990234375.748046875-.6083984375,1.6142578125-.978515625,2.6005859375-1.1083984375,2.822265625-.2294921875,4.75390625.412109375,5.7998046875,1.921875,1.04296875,1.5107421875,1.26171875,3.4365234375.654296875,5.77734375-.5,1.833984375-1.3515625,3.4736328125-2.5546875,4.9150390625-1.203125,1.443359375-2.638671875,2.6435546875-4.3046875,3.599609375-1.6669921875.958984375-3.4765625,1.6787109375-5.4306640625,2.16015625s-3.90234375.7275390625-5.8447265625.7353515625c-1.943359375.0068359375-3.80859375-.251953125-5.5947265625-.7802734375-1.787109375-.5283203125-3.345703125-1.310546875-4.6748046875-2.349609375-1.490234375-1.1748046875-2.822265625-2.548828125-3.99609375-4.123046875s-2.18359375-3.2626953125-3.0263671875-5.0615234375c-.8447265625-1.80078125-1.5205078125-3.689453125-2.0283203125-5.666015625-.509765625-1.9765625-.845703125-3.9794921875-1.009765625-6.0107421875-.271484375-4.560546875.337890625-9.0439453125,1.82421875-13.451171875,1.486328125-4.4052734375,3.611328125-8.3134765625,6.375-11.728515625,1.26953125-1.546875,2.81640625-2.9052734375,4.640625-4.07421875,1.822265625-1.1689453125,3.7255859375-1.984375,5.70703125-2.4443359375,1.98046875-.458984375,3.9560546875-.5185546875,5.9267578125-.1806640625,1.970703125.33984375,3.7626953125,1.240234375,5.3759765625,2.7041015625,1.234375,1.095703125,2.2607421875,2.3837890625,3.078125,3.8603515625.8173828125,1.4794921875,1.4609375,2.97265625,1.93359375,4.478515625.27734375.974609375.439453125,1.9072265625.48828125,2.7998046875.0458984375.89453125-.095703125,1.7529296875-.427734375,2.5771484375-.46484375,1.0341796875-1.248046875,1.80859375-2.3525390625,2.3193359375-1.10546875.5146484375-2.2197265625.7412109375-3.345703125.6826171875-1.1259765625-.0576171875-2.1259765625-.412109375-3.0009765625-1.064453125-.875-.6513671875-1.337890625-1.5986328125-1.388671875-2.8408203125Z"/>
      <path class="cls-2" d="M169.748046874998181,43.80322265625c-.0673828125-1.4384765625-.388671875-2.4951171875-.966796875-3.171875-.578125-.6748046875-1.271484375-1.068359375-2.076171875-1.1767578125-.806640625-.109375-1.654296875.046875-2.541015625.4677734375-.888671875.4208984375-1.6767578125.982421875-2.3671875,1.685546875-1.61328125,1.6259765625-2.857421875,3.6318359375-3.7353515625,6.0205078125-.8779296875,2.3876953125-1.400390625,4.8603515625-1.5673828125,7.4140625-.166015625,2.5546875.01171875,5.0693359375.537109375,7.5439453125.5234375,2.4736328125,1.404296875,4.5830078125,2.642578125,6.3251953125.7890625,1.1318359375,1.689453125,1.9443359375,2.701171875,2.4345703125,1.01171875.4912109375,2.064453125.7294921875,3.16015625.7158203125,1.09375-.013671875,2.15625-.2744140625,3.1875-.78125,1.029296875-.5068359375,1.931640625-1.21484375,2.705078125-2.1259765625,1.1826171875-1.390625,2.1484375-2.3896484375,2.896484375-2.9990234375.748046875-.6083984375,1.6142578125-.978515625,2.6005859375-1.1083984375,2.822265625-.2294921875,4.75390625.412109375,5.7998046875,1.921875,1.04296875,1.5107421875,1.26171875,3.4365234375.654296875,5.77734375-.5,1.833984375-1.3515625,3.4736328125-2.5546875,4.9150390625-1.203125,1.443359375-2.638671875,2.6435546875-4.3046875,3.599609375-1.6669921875.958984375-3.4765625,1.6787109375-5.4306640625,2.16015625s-3.90234375.7275390625-5.8447265625.7353515625c-1.943359375.0068359375-3.80859375-.251953125-5.5947265625-.7802734375-1.787109375-.5283203125-3.345703125-1.310546875-4.6748046875-2.349609375-1.490234375-1.1748046875-2.822265625-2.548828125-3.99609375-4.123046875s-2.18359375-3.2626953125-3.0263671875-5.0615234375c-.8447265625-1.80078125-1.5205078125-3.689453125-2.0283203125-5.666015625-.509765625-1.9765625-.845703125-3.9794921875-1.009765625-6.0107421875-.271484375-4.560546875.337890625-9.0439453125,1.82421875-13.451171875,1.486328125-4.4052734375,3.611328125-8.3134765625,6.375-11.728515625,1.26953125-1.546875,2.81640625-2.9052734375,4.640625-4.07421875,1.822265625-1.1689453125,3.7255859375-1.984375,5.70703125-2.4443359375,1.98046875-.458984375,3.9560546875-.5185546875,5.9267578125-.1806640625,1.970703125.33984375,3.7626953125,1.240234375,5.3759765625,2.7041015625,1.234375,1.095703125,2.2607421875,2.3837890625,3.078125,3.8603515625.8173828125,1.4794921875,1.4609375,2.97265625,1.93359375,4.478515625.27734375.974609375.439453125,1.9072265625.48828125,2.7998046875.0458984375.89453125-.095703125,1.7529296875-.427734375,2.5771484375-.46484375,1.0341796875-1.248046875,1.80859375-2.3525390625,2.3193359375-1.10546875.5146484375-2.2197265625.7412109375-3.345703125.6826171875-1.1259765625-.0576171875-2.1259765625-.412109375-3.0009765625-1.064453125-.875-.6513671875-1.337890625-1.5986328125-1.388671875-2.8408203125Z"/>
      <path class="cls-3" d="M169.748046874998181,43.80322265625c-.0673828125-1.4384765625-.388671875-2.4951171875-.966796875-3.171875-.578125-.6748046875-1.271484375-1.068359375-2.076171875-1.1767578125-.806640625-.109375-1.654296875.046875-2.541015625.4677734375-.888671875.4208984375-1.6767578125.982421875-2.3671875,1.685546875-1.61328125,1.6259765625-2.857421875,3.6318359375-3.7353515625,6.0205078125-.8779296875,2.3876953125-1.400390625,4.8603515625-1.5673828125,7.4140625-.166015625,2.5546875.01171875,5.0693359375.537109375,7.5439453125.5234375,2.4736328125,1.404296875,4.5830078125,2.642578125,6.3251953125.7890625,1.1318359375,1.689453125,1.9443359375,2.701171875,2.4345703125,1.01171875.4912109375,2.064453125.7294921875,3.16015625.7158203125,1.09375-.013671875,2.15625-.2744140625,3.1875-.78125,1.029296875-.5068359375,1.931640625-1.21484375,2.705078125-2.1259765625,1.1826171875-1.390625,2.1484375-2.3896484375,2.896484375-2.9990234375.748046875-.6083984375,1.6142578125-.978515625,2.6005859375-1.1083984375,2.822265625-.2294921875,4.75390625.412109375,5.7998046875,1.921875,1.04296875,1.5107421875,1.26171875,3.4365234375.654296875,5.77734375-.5,1.833984375-1.3515625,3.4736328125-2.5546875,4.9150390625-1.203125,1.443359375-2.638671875,2.6435546875-4.3046875,3.599609375-1.6669921875.958984375-3.4765625,1.6787109375-5.4306640625,2.16015625s-3.90234375.7275390625-5.8447265625.7353515625c-1.943359375.0068359375-3.80859375-.251953125-5.5947265625-.7802734375-1.787109375-.5283203125-3.345703125-1.310546875-4.6748046875-2.349609375-1.490234375-1.1748046875-2.822265625-2.548828125-3.99609375-4.123046875s-2.18359375-3.2626953125-3.0263671875-5.0615234375c-.8447265625-1.80078125-1.5205078125-3.689453125-2.0283203125-5.666015625-.509765625-1.9765625-.845703125-3.9794921875-1.009765625-6.0107421875-.271484375-4.560546875.337890625-9.0439453125,1.82421875-13.451171875,1.486328125-4.4052734375,3.611328125-8.3134765625,6.375-11.728515625,1.26953125-1.546875,2.81640625-2.9052734375,4.640625-4.07421875,1.822265625-1.1689453125,3.7255859375-1.984375,5.70703125-2.4443359375,1.98046875-.458984375,3.9560546875-.5185546875,5.9267578125-.1806640625,1.970703125.33984375,3.7626953125,1.240234375,5.3759765625,2.7041015625,1.234375,1.095703125,2.2607421875,2.3837890625,3.078125,3.8603515625.8173828125,1.4794921875,1.4609375,2.97265625,1.93359375,4.478515625.27734375.974609375.439453125,1.9072265625.48828125,2.7998046875.0458984375.89453125-.095703125,1.7529296875-.427734375,2.5771484375-.46484375,1.0341796875-1.248046875,1.80859375-2.3525390625,2.3193359375-1.10546875.5146484375-2.2197265625.7412109375-3.345703125.6826171875-1.1259765625-.0576171875-2.1259765625-.412109375-3.0009765625-1.064453125-.875-.6513671875-1.337890625-1.5986328125-1.388671875-2.8408203125Z"/>
    </g>
  </a>
</svg>