<?xml version="1.0" encoding="UTF-8"?>
<svg id="Content" xmlns="http://www.w3.org/2000/svg" xmlns:xlink="http://www.w3.org/1999/xlink" viewBox="0 0 280 280">
  <defs>
    <style>
      .cls-1 {
        stroke: #665451;
        stroke-width: 50px;
      }

      .cls-1, .cls-2 {
        fill: none;
        stroke-linecap: round;
        stroke-linejoin: round;
      }

      .cls-3 {
        fill: #fff;
      }

      .cls-2 {
        stroke: #998675;
        stroke-width: 2px;
      }
    </style>
  </defs>
  <a xlink:href="https://www.notion.so/congruence/Not-A-given-that-B-55ce9dd3da244fcea48eb47d0ad1d7de?pvs=4">
    <g>
      <g>
        <a xlink:href="https://www.notion.so/congruence/B-Event-1f1a5b08a72c49f5ab60f2e0793fd0a8?pvs=4">
          <path class="cls-3" d="M68.87890625,65.0185546875c2.361328125,1.123046875,4.421875,2.5703125,6.177734375,4.33984375,1.7568359375,1.7705078125,3.275390625,3.73828125,4.556640625,5.9052734375,1.28125,2.16796875,2.349609375,4.486328125,3.208984375,6.9560546875.857421875,2.4716796875,1.5673828125,4.96875,2.130859375,7.4912109375,1.2392578125,4.9794921875,2.126953125,10.046875,2.6650390625,15.2021484375.5361328125,5.1552734375.869140625,10.3583984375.9951171875,15.60546875.0009765625,1.494140625-.017578125,2.7216796875-.060546875,3.6806640625-.0419921875.9599609375-.2021484375,1.75-.48046875,2.369140625-.2783203125.6201171875-.7001953125,1.1328125-1.263671875,1.537109375-.56640625.404296875-1.3701171875.796875-2.4140625,1.181640625-1.0009765625.19921875-2.046875.3740234375-3.140625.5224609375-1.0947265625.1474609375-2.142578125-.0654296875-3.14453125-.640625-.9384765625-.5205078125-1.763671875-1.470703125-2.4716796875-2.8486328125-.708984375-1.3759765625-1.2021484375-3.3974609375-1.4775390625-6.064453125l-.072265625-.890625c-1.4990234375-.0576171875-3.2763671875-.0625-5.333984375-.015625s-4.15625.142578125-6.296875.28515625c-2.1396484375.1435546875-4.2041015625.2958984375-6.1923828125.45703125-1.9892578125.1611328125-3.6669921875.296875-5.0322265625.4072265625-.015625.5400390625-.017578125,1.4365234375-.005859375,2.689453125.01171875,1.2548828125-.080078125,2.517578125-.275390625,3.7880859375-.197265625,1.2705078125-.505859375,2.431640625-.927734375,3.4814453125-.423828125,1.05078125-1.078125,1.6396484375-1.962890625,1.7724609375-.828125.1259765625-1.771484375.2626953125-2.8359375.4091796875-1.064453125.14453125-2.11328125.1103515625-3.1455078125-.103515625-1.0302734375-.154296875-1.9140625-.5625-2.6533203125-1.2197265625-.7412109375-.6572265625-1.2041015625-1.75390625-1.38671875-3.29296875-.1494140625-1.83984375-.291015625-3.951171875-.423828125-6.3310546875-.1337890625-2.37890625-.2236328125-4.970703125-.271484375-7.7763671875-.0693359375-2.3251953125-.08203125-4.87890625-.0380859375-7.66015625.0439453125-2.783203125.1982421875-5.6484375.46875-8.599609375.2685546875-2.9482421875.685546875-5.9111328125,1.251953125-8.8857421875.5654296875-2.97265625,1.3505859375-5.8154296875,2.3564453125-8.52734375,1.00390625-2.7109375,2.25-5.2314453125,3.734375-7.5625s3.32421875-4.3330078125,5.51953125-6.0048828125c2.5908203125-1.943359375,5.51953125-3.0478515625,8.78515625-3.3125,3.2646484375-.263671875,6.41796875.287109375,9.45703125,1.6552734375ZM50.521484375,107.291015625c3.716796875-.599609375,7.423828125-1.125,11.1220703125-1.57421875,3.6982421875-.4482421875,7.4228515625-.7646484375,11.1728515625-.94921875-.1630859375-4.2294921875-.646484375-7.984375-1.451171875-11.267578125-.802734375-3.2802734375-1.7734375-6.025390625-2.908203125-8.234375-1.134765625-2.2080078125-2.40625-3.8671875-3.8095703125-4.9794921875-1.4052734375-1.111328125-2.7900390625-1.6123046875-4.1552734375-1.501953125-1.1884765625.0966796875-2.3701171875.8056640625-3.5478515625,2.1259765625-1.1787109375,1.3212890625-2.2216796875,3.197265625-3.12890625,5.630859375-.9091796875,2.435546875-1.6689453125,5.41015625-2.2802734375,8.9248046875-.611328125,3.5166015625-.9501953125,7.4580078125-1.013671875,11.8251953125Z"/>
        </a>
        <a xlink:href="https://www.notion.so/congruence/B-Event-1f1a5b08a72c49f5ab60f2e0793fd0a8?pvs=4">
          <path class="cls-3" d="M193.458984375,87.4140625c2.7763671875,1.80859375,4.923828125,4.1591796875,6.443359375,7.052734375,1.5185546875,2.8955078125,2.1708984375,5.96484375,1.9560546875,9.208984375-.2412109375,3.666015625-1.4189453125,6.8232421875-3.5341796875,9.474609375-2.1171875,2.6513671875-4.6904296875,4.81640625-7.7216796875,6.4970703125-3.0322265625,1.6796875-6.3525390625,2.9052734375-9.9658203125,3.6748046875-3.6123046875.76953125-7.0361328125,1.1083984375-10.271484375,1.01171875-.2880859375.142578125-.548828125.23828125-.783203125.2880859375-.2353515625.048828125-.4990234375.11328125-.791015625.1982421875-1.0625.14453125-2.162109375.234375-3.294921875.2666015625-1.1328125.03125-2.171875-.078125-3.119140625-.330078125-.947265625-.2509765625-1.77734375-.720703125-2.4892578125-1.4111328125-.7138671875-.689453125-1.1845703125-1.7109375-1.4150390625-3.068359375-.171875-.642578125-.3076171875-1.9609375-.408203125-3.9560546875-.103515625-1.9931640625-.2392578125-4.41796875-.41015625-7.271484375-.1181640625-2.9169921875-.26953125-6.087890625-.45703125-9.5087890625-.1875-3.421875-.3916015625-6.85546875-.611328125-10.3046875-.306640625-4.5166015625-.615234375-9.0625-.92578125-13.6396484375-.3115234375-4.5751953125-.8623046875-9.1630859375-1.65234375-13.759765625-.162109375-.5244140625-.1416015625-1.00390625.0625-1.439453125.08984375-.3662109375.3291015625-.7275390625.71875-1.0888671875.388671875-.359375.994140625-.6318359375,1.81640625-.8193359375.587890625-.1064453125,1.234375-.2490234375,1.9375-.42578125.703125-.17578125,1.4375-.3251953125,2.205078125-.447265625.765625-.12109375,1.5087890625-.181640625,2.2255859375-.1806640625.7177734375.001953125,1.3505859375.0703125,1.8994140625.205078125,2.994140625-.66015625,6.16796875-.9326171875,9.525390625-.81640625,3.35546875.1162109375,6.55078125.6494140625,9.5859375,1.5986328125s5.7158203125,2.330078125,8.044921875,4.1435546875c2.328125,1.8134765625,3.962890625,4.1162109375,4.90625,6.908203125.3984375,1.22265625.681640625,2.5146484375.8525390625,3.8740234375.1689453125,1.3623046875.1357421875,2.7841796875-.1025390625,4.2666015625-.23828125,1.484375-.6943359375,3.0458984375-1.369140625,4.6826171875-.673828125,1.638671875-1.626953125,3.3447265625-2.857421875,5.1162109375ZM169.8798828125,84.0361328125c2.8603515625-.111328125,5.2392578125-.603515625,7.1416015625-1.4755859375,1.900390625-.8701171875,3.294921875-1.923828125,4.1806640625-3.1611328125.8857421875-1.23828125,1.2578125-2.5361328125,1.1181640625-3.9013671875-.1416015625-1.361328125-.7587890625-2.537109375-1.853515625-3.5244140625-1.09765625-.986328125-2.677734375-1.6796875-4.7412109375-2.080078125-2.064453125-.400390625-4.6240234375-.267578125-7.67578125.396484375.3642578125,2.3017578125.68359375,4.5771484375.9560546875,6.8251953125.271484375,2.25.5625,4.5576171875.8740234375,6.9208984375ZM172.2392578125,109.8408203125c3.2353515625.095703125,5.9228515625-.26953125,8.0673828125-1.1025390625,2.1435546875-.830078125,3.71875-1.853515625,4.7265625-3.072265625,1.0068359375-1.2158203125,1.4716796875-2.478515625,1.396484375-3.7880859375-.076171875-1.3076171875-.6875-2.3935546875-1.833984375-3.2578125-1.14453125-.861328125-2.830078125-1.3681640625-5.052734375-1.5166015625s-4.96484375.2978515625-8.2275390625,1.3388671875l.923828125,11.3984375Z"/>
        </a>
        <a xlink:href="https://www.notion.so/congruence/B-Event-1f1a5b08a72c49f5ab60f2e0793fd0a8?pvs=4">
          <path class="cls-3" d="M98.6083984375,45.2333984375c-.0478515625-1.00390625-.2724609375-1.7412109375-.6748046875-2.212890625-.4033203125-.470703125-.88671875-.744140625-1.44921875-.8212890625-.5615234375-.076171875-1.15234375.033203125-1.771484375.326171875-.619140625.2939453125-1.169921875.6865234375-1.650390625,1.17578125-1.125,1.134765625-1.994140625,2.5341796875-2.60546875,4.19921875-.61328125,1.6669921875-.9765625,3.390625-1.09375,5.171875-.115234375,1.78125.0078125,3.5361328125.375,5.26171875.365234375,1.7265625.9794921875,3.197265625,1.8427734375,4.412109375.5498046875.7900390625,1.1787109375,1.35546875,1.8837890625,1.6982421875.7060546875.3427734375,1.4404296875.5087890625,2.205078125.5.7626953125-.009765625,1.50390625-.1923828125,2.22265625-.5458984375s1.34765625-.8466796875,1.88671875-1.482421875c.8251953125-.9697265625,1.498046875-1.6669921875,2.0205078125-2.0927734375.5205078125-.4248046875,1.1259765625-.6806640625,1.8134765625-.7724609375,1.96875-.1591796875,3.31640625.2880859375,4.044921875,1.3408203125.728515625,1.0537109375.880859375,2.396484375.45703125,4.029296875-.34765625,1.279296875-.9423828125,2.421875-1.78125,3.4287109375-.83984375,1.0068359375-1.8408203125,1.84375-3.001953125,2.5107421875-1.1640625.6669921875-2.42578125,1.169921875-3.7890625,1.505859375-1.36328125.3369140625-2.7216796875.5068359375-4.076171875.513671875-1.35546875.0048828125-2.65625-.1767578125-3.90234375-.5439453125-1.2470703125-.369140625-2.333984375-.9150390625-3.26171875-1.6396484375-1.0390625-.818359375-1.966796875-1.77734375-2.787109375-2.8759765625-.818359375-1.09765625-1.5224609375-2.275390625-2.1103515625-3.5302734375-.5888671875-1.2548828125-1.060546875-2.572265625-1.4150390625-3.9521484375-.35546875-1.3779296875-.58984375-2.7744140625-.705078125-4.19140625-.1875-3.181640625.236328125-6.3095703125,1.2734375-9.3837890625,1.037109375-3.072265625,2.51953125-5.798828125,4.447265625-8.1787109375.884765625-1.080078125,1.962890625-2.02734375,3.236328125-2.84375,1.271484375-.8154296875,2.5986328125-1.3828125,3.98046875-1.703125,1.3818359375-.3212890625,2.759765625-.36328125,4.1337890625-.126953125,1.375.236328125,2.6240234375.865234375,3.75,1.8857421875.861328125.7646484375,1.5771484375,1.6630859375,2.1474609375,2.693359375.5703125,1.0322265625,1.01953125,2.0732421875,1.34765625,3.123046875.193359375.6796875.306640625,1.3310546875.3408203125,1.9541015625.0322265625.623046875-.06640625,1.2216796875-.2978515625,1.7958984375-.32421875.72265625-.87109375,1.26171875-1.640625,1.619140625-.771484375.3583984375-1.548828125.5166015625-2.333984375.4755859375s-1.4833984375-.2880859375-2.09375-.7431640625c-.6103515625-.4541015625-.93359375-1.11328125-.9677734375-1.98046875Z"/>
        </a>
      </g>
      <g>
        <a xlink:href="https://www.notion.so/congruence/B-Event-1f1a5b08a72c49f5ab60f2e0793fd0a8?pvs=4">
          <g>
            <path class="cls-1" d="M68.87890625,65.0185546875c2.361328125,1.123046875,4.421875,2.5703125,6.177734375,4.33984375,1.7568359375,1.7705078125,3.275390625,3.73828125,4.556640625,5.9052734375,1.28125,2.16796875,2.349609375,4.486328125,3.208984375,6.9560546875.857421875,2.4716796875,1.5673828125,4.96875,2.130859375,7.4912109375,1.2392578125,4.9794921875,2.126953125,10.046875,2.6650390625,15.2021484375.5361328125,5.1552734375.869140625,10.3583984375.9951171875,15.60546875.0009765625,1.494140625-.017578125,2.7216796875-.060546875,3.6806640625-.0419921875.9599609375-.2021484375,1.75-.48046875,2.369140625-.2783203125.6201171875-.7001953125,1.1328125-1.263671875,1.537109375-.56640625.404296875-1.3701171875.796875-2.4140625,1.181640625-1.0009765625.19921875-2.046875.3740234375-3.140625.5224609375-1.0947265625.1474609375-2.142578125-.0654296875-3.14453125-.640625-.9384765625-.5205078125-1.763671875-1.470703125-2.4716796875-2.8486328125-.708984375-1.3759765625-1.2021484375-3.3974609375-1.4775390625-6.064453125l-.072265625-.890625c-1.4990234375-.0576171875-3.2763671875-.0625-5.333984375-.015625s-4.15625.142578125-6.296875.28515625c-2.1396484375.1435546875-4.2041015625.2958984375-6.1923828125.45703125-1.9892578125.1611328125-3.6669921875.296875-5.0322265625.4072265625-.015625.5400390625-.017578125,1.4365234375-.005859375,2.689453125.01171875,1.2548828125-.080078125,2.517578125-.275390625,3.7880859375-.197265625,1.2705078125-.505859375,2.431640625-.927734375,3.4814453125-.423828125,1.05078125-1.078125,1.6396484375-1.962890625,1.7724609375-.828125.1259765625-1.771484375.2626953125-2.8359375.4091796875-1.064453125.14453125-2.11328125.1103515625-3.1455078125-.103515625-1.0302734375-.154296875-1.9140625-.5625-2.6533203125-1.2197265625-.7412109375-.6572265625-1.2041015625-1.75390625-1.38671875-3.29296875-.1494140625-1.83984375-.291015625-3.951171875-.423828125-6.3310546875-.1337890625-2.37890625-.2236328125-4.970703125-.271484375-7.7763671875-.0693359375-2.3251953125-.08203125-4.87890625-.0380859375-7.66015625.0439453125-2.783203125.1982421875-5.6484375.46875-8.599609375.2685546875-2.9482421875.685546875-5.9111328125,1.251953125-8.8857421875.5654296875-2.97265625,1.3505859375-5.8154296875,2.3564453125-8.52734375,1.00390625-2.7109375,2.25-5.2314453125,3.734375-7.5625s3.32421875-4.3330078125,5.51953125-6.0048828125c2.5908203125-1.943359375,5.51953125-3.0478515625,8.78515625-3.3125,3.2646484375-.263671875,6.41796875.287109375,9.45703125,1.6552734375ZM50.521484375,107.291015625c3.716796875-.599609375,7.423828125-1.125,11.1220703125-1.57421875,3.6982421875-.4482421875,7.4228515625-.7646484375,11.1728515625-.94921875-.1630859375-4.2294921875-.646484375-7.984375-1.451171875-11.267578125-.802734375-3.2802734375-1.7734375-6.025390625-2.908203125-8.234375-1.134765625-2.2080078125-2.40625-3.8671875-3.8095703125-4.9794921875-1.4052734375-1.111328125-2.7900390625-1.6123046875-4.1552734375-1.501953125-1.1884765625.0966796875-2.3701171875.8056640625-3.5478515625,2.1259765625-1.1787109375,1.3212890625-2.2216796875,3.197265625-3.12890625,5.630859375-.9091796875,2.435546875-1.6689453125,5.41015625-2.2802734375,8.9248046875-.611328125,3.5166015625-.9501953125,7.4580078125-1.013671875,11.8251953125Z"/>
            <path class="cls-1" d="M68.87890625,65.0185546875c2.361328125,1.123046875,4.421875,2.5703125,6.177734375,4.33984375,1.7568359375,1.7705078125,3.275390625,3.73828125,4.556640625,5.9052734375,1.28125,2.16796875,2.349609375,4.486328125,3.208984375,6.9560546875.857421875,2.4716796875,1.5673828125,4.96875,2.130859375,7.4912109375,1.2392578125,4.9794921875,2.126953125,10.046875,2.6650390625,15.2021484375.5361328125,5.1552734375.869140625,10.3583984375.9951171875,15.60546875.0009765625,1.494140625-.017578125,2.7216796875-.060546875,3.6806640625-.0419921875.9599609375-.2021484375,1.75-.48046875,2.369140625-.2783203125.6201171875-.7001953125,1.1328125-1.263671875,1.537109375-.56640625.404296875-1.3701171875.796875-2.4140625,1.181640625-1.0009765625.19921875-2.046875.3740234375-3.140625.5224609375-1.0947265625.1474609375-2.142578125-.0654296875-3.14453125-.640625-.9384765625-.5205078125-1.763671875-1.470703125-2.4716796875-2.8486328125-.708984375-1.3759765625-1.2021484375-3.3974609375-1.4775390625-6.064453125l-.072265625-.890625c-1.4990234375-.0576171875-3.2763671875-.0625-5.333984375-.015625s-4.15625.142578125-6.296875.28515625c-2.1396484375.1435546875-4.2041015625.2958984375-6.1923828125.45703125-1.9892578125.1611328125-3.6669921875.296875-5.0322265625.4072265625-.015625.5400390625-.017578125,1.4365234375-.005859375,2.689453125.01171875,1.2548828125-.080078125,2.517578125-.275390625,3.7880859375-.197265625,1.2705078125-.505859375,2.431640625-.927734375,3.4814453125-.423828125,1.05078125-1.078125,1.6396484375-1.962890625,1.7724609375-.828125.1259765625-1.771484375.2626953125-2.8359375.4091796875-1.064453125.14453125-2.11328125.1103515625-3.1455078125-.103515625-1.0302734375-.154296875-1.9140625-.5625-2.6533203125-1.2197265625-.7412109375-.6572265625-1.2041015625-1.75390625-1.38671875-3.29296875-.1494140625-1.83984375-.291015625-3.951171875-.423828125-6.3310546875-.1337890625-2.37890625-.2236328125-4.970703125-.271484375-7.7763671875-.0693359375-2.3251953125-.08203125-4.87890625-.0380859375-7.66015625.0439453125-2.783203125.1982421875-5.6484375.46875-8.599609375.2685546875-2.9482421875.685546875-5.9111328125,1.251953125-8.8857421875.5654296875-2.97265625,1.3505859375-5.8154296875,2.3564453125-8.52734375,1.00390625-2.7109375,2.25-5.2314453125,3.734375-7.5625s3.32421875-4.3330078125,5.51953125-6.0048828125c2.5908203125-1.943359375,5.51953125-3.0478515625,8.78515625-3.3125,3.2646484375-.263671875,6.41796875.287109375,9.45703125,1.6552734375ZM50.521484375,107.291015625c3.716796875-.599609375,7.423828125-1.125,11.1220703125-1.57421875,3.6982421875-.4482421875,7.4228515625-.7646484375,11.1728515625-.94921875-.1630859375-4.2294921875-.646484375-7.984375-1.451171875-11.267578125-.802734375-3.2802734375-1.7734375-6.025390625-2.908203125-8.234375-1.134765625-2.2080078125-2.40625-3.8671875-3.8095703125-4.9794921875-1.4052734375-1.111328125-2.7900390625-1.6123046875-4.1552734375-1.501953125-1.1884765625.0966796875-2.3701171875.8056640625-3.5478515625,2.1259765625-1.1787109375,1.3212890625-2.2216796875,3.197265625-3.12890625,5.630859375-.9091796875,2.435546875-1.6689453125,5.41015625-2.2802734375,8.9248046875-.611328125,3.5166015625-.9501953125,7.4580078125-1.013671875,11.8251953125Z"/>
            <path class="cls-1" d="M68.87890625,65.0185546875c2.361328125,1.123046875,4.421875,2.5703125,6.177734375,4.33984375,1.7568359375,1.7705078125,3.275390625,3.73828125,4.556640625,5.9052734375,1.28125,2.16796875,2.349609375,4.486328125,3.208984375,6.9560546875.857421875,2.4716796875,1.5673828125,4.96875,2.130859375,7.4912109375,1.2392578125,4.9794921875,2.126953125,10.046875,2.6650390625,15.2021484375.5361328125,5.1552734375.869140625,10.3583984375.9951171875,15.60546875.0009765625,1.494140625-.017578125,2.7216796875-.060546875,3.6806640625-.0419921875.9599609375-.2021484375,1.75-.48046875,2.369140625-.2783203125.6201171875-.7001953125,1.1328125-1.263671875,1.537109375-.56640625.404296875-1.3701171875.796875-2.4140625,1.181640625-1.0009765625.19921875-2.046875.3740234375-3.140625.5224609375-1.0947265625.1474609375-2.142578125-.0654296875-3.14453125-.640625-.9384765625-.5205078125-1.763671875-1.470703125-2.4716796875-2.8486328125-.708984375-1.3759765625-1.2021484375-3.3974609375-1.4775390625-6.064453125l-.072265625-.890625c-1.4990234375-.0576171875-3.2763671875-.0625-5.333984375-.015625s-4.15625.142578125-6.296875.28515625c-2.1396484375.1435546875-4.2041015625.2958984375-6.1923828125.45703125-1.9892578125.1611328125-3.6669921875.296875-5.0322265625.4072265625-.015625.5400390625-.017578125,1.4365234375-.005859375,2.689453125.01171875,1.2548828125-.080078125,2.517578125-.275390625,3.7880859375-.197265625,1.2705078125-.505859375,2.431640625-.927734375,3.4814453125-.423828125,1.05078125-1.078125,1.6396484375-1.962890625,1.7724609375-.828125.1259765625-1.771484375.2626953125-2.8359375.4091796875-1.064453125.14453125-2.11328125.1103515625-3.1455078125-.103515625-1.0302734375-.154296875-1.9140625-.5625-2.6533203125-1.2197265625-.7412109375-.6572265625-1.2041015625-1.75390625-1.38671875-3.29296875-.1494140625-1.83984375-.291015625-3.951171875-.423828125-6.3310546875-.1337890625-2.37890625-.2236328125-4.970703125-.271484375-7.7763671875-.0693359375-2.3251953125-.08203125-4.87890625-.0380859375-7.66015625.0439453125-2.783203125.1982421875-5.6484375.46875-8.599609375.2685546875-2.9482421875.685546875-5.9111328125,1.251953125-8.8857421875.5654296875-2.97265625,1.3505859375-5.8154296875,2.3564453125-8.52734375,1.00390625-2.7109375,2.25-5.2314453125,3.734375-7.5625s3.32421875-4.3330078125,5.51953125-6.0048828125c2.5908203125-1.943359375,5.51953125-3.0478515625,8.78515625-3.3125,3.2646484375-.263671875,6.41796875.287109375,9.45703125,1.6552734375ZM50.521484375,107.291015625c3.716796875-.599609375,7.423828125-1.125,11.1220703125-1.57421875,3.6982421875-.4482421875,7.4228515625-.7646484375,11.1728515625-.94921875-.1630859375-4.2294921875-.646484375-7.984375-1.451171875-11.267578125-.802734375-3.2802734375-1.7734375-6.025390625-2.908203125-8.234375-1.134765625-2.2080078125-2.40625-3.8671875-3.8095703125-4.9794921875-1.4052734375-1.111328125-2.7900390625-1.6123046875-4.1552734375-1.501953125-1.1884765625.0966796875-2.3701171875.8056640625-3.5478515625,2.1259765625-1.1787109375,1.3212890625-2.2216796875,3.197265625-3.12890625,5.630859375-.9091796875,2.435546875-1.6689453125,5.41015625-2.2802734375,8.9248046875-.611328125,3.5166015625-.9501953125,7.4580078125-1.013671875,11.8251953125Z"/>
          </g>
        </a>
        <a xlink:href="https://www.notion.so/congruence/B-Event-1f1a5b08a72c49f5ab60f2e0793fd0a8?pvs=4">
          <g>
            <path class="cls-1" d="M193.458984375,87.4140625c2.7763671875,1.80859375,4.923828125,4.1591796875,6.443359375,7.052734375,1.5185546875,2.8955078125,2.1708984375,5.96484375,1.9560546875,9.208984375-.2412109375,3.666015625-1.4189453125,6.8232421875-3.5341796875,9.474609375-2.1171875,2.6513671875-4.6904296875,4.81640625-7.7216796875,6.4970703125-3.0322265625,1.6796875-6.3525390625,2.9052734375-9.9658203125,3.6748046875-3.6123046875.76953125-7.0361328125,1.1083984375-10.271484375,1.01171875-.2880859375.142578125-.548828125.23828125-.783203125.2880859375-.2353515625.048828125-.4990234375.11328125-.791015625.1982421875-1.0625.14453125-2.162109375.234375-3.294921875.2666015625-1.1328125.03125-2.171875-.078125-3.119140625-.330078125-.947265625-.2509765625-1.77734375-.720703125-2.4892578125-1.4111328125-.7138671875-.689453125-1.1845703125-1.7109375-1.4150390625-3.068359375-.171875-.642578125-.3076171875-1.9609375-.408203125-3.9560546875-.103515625-1.9931640625-.2392578125-4.41796875-.41015625-7.271484375-.1181640625-2.9169921875-.26953125-6.087890625-.45703125-9.5087890625-.1875-3.421875-.3916015625-6.85546875-.611328125-10.3046875-.306640625-4.5166015625-.615234375-9.0625-.92578125-13.6396484375-.3115234375-4.5751953125-.8623046875-9.1630859375-1.65234375-13.759765625-.162109375-.5244140625-.1416015625-1.00390625.0625-1.439453125.08984375-.3662109375.3291015625-.7275390625.71875-1.0888671875.388671875-.359375.994140625-.6318359375,1.81640625-.8193359375.587890625-.1064453125,1.234375-.2490234375,1.9375-.42578125.703125-.17578125,1.4375-.3251953125,2.205078125-.447265625.765625-.12109375,1.5087890625-.181640625,2.2255859375-.1806640625.7177734375.001953125,1.3505859375.0703125,1.8994140625.205078125,2.994140625-.66015625,6.16796875-.9326171875,9.525390625-.81640625,3.35546875.1162109375,6.55078125.6494140625,9.5859375,1.5986328125s5.7158203125,2.330078125,8.044921875,4.1435546875c2.328125,1.8134765625,3.962890625,4.1162109375,4.90625,6.908203125.3984375,1.22265625.681640625,2.5146484375.8525390625,3.8740234375.1689453125,1.3623046875.1357421875,2.7841796875-.1025390625,4.2666015625-.23828125,1.484375-.6943359375,3.0458984375-1.369140625,4.6826171875-.673828125,1.638671875-1.626953125,3.3447265625-2.857421875,5.1162109375ZM169.8798828125,84.0361328125c2.8603515625-.111328125,5.2392578125-.603515625,7.1416015625-1.4755859375,1.900390625-.8701171875,3.294921875-1.923828125,4.1806640625-3.1611328125.8857421875-1.23828125,1.2578125-2.5361328125,1.1181640625-3.9013671875-.1416015625-1.361328125-.7587890625-2.537109375-1.853515625-3.5244140625-1.09765625-.986328125-2.677734375-1.6796875-4.7412109375-2.080078125-2.064453125-.400390625-4.6240234375-.267578125-7.67578125.396484375.3642578125,2.3017578125.68359375,4.5771484375.9560546875,6.8251953125.271484375,2.25.5625,4.5576171875.8740234375,6.9208984375ZM172.2392578125,109.8408203125c3.2353515625.095703125,5.9228515625-.26953125,8.0673828125-1.1025390625,2.1435546875-.830078125,3.71875-1.853515625,4.7265625-3.072265625,1.0068359375-1.2158203125,1.4716796875-2.478515625,1.396484375-3.7880859375-.076171875-1.3076171875-.6875-2.3935546875-1.833984375-3.2578125-1.14453125-.861328125-2.830078125-1.3681640625-5.052734375-1.5166015625s-4.96484375.2978515625-8.2275390625,1.3388671875l.923828125,11.3984375Z"/>
            <path class="cls-1" d="M193.458984375,87.4140625c2.7763671875,1.80859375,4.923828125,4.1591796875,6.443359375,7.052734375,1.5185546875,2.8955078125,2.1708984375,5.96484375,1.9560546875,9.208984375-.2412109375,3.666015625-1.4189453125,6.8232421875-3.5341796875,9.474609375-2.1171875,2.6513671875-4.6904296875,4.81640625-7.7216796875,6.4970703125-3.0322265625,1.6796875-6.3525390625,2.9052734375-9.9658203125,3.6748046875-3.6123046875.76953125-7.0361328125,1.1083984375-10.271484375,1.01171875-.2880859375.142578125-.548828125.23828125-.783203125.2880859375-.2353515625.048828125-.4990234375.11328125-.791015625.1982421875-1.0625.14453125-2.162109375.234375-3.294921875.2666015625-1.1328125.03125-2.171875-.078125-3.119140625-.330078125-.947265625-.2509765625-1.77734375-.720703125-2.4892578125-1.4111328125-.7138671875-.689453125-1.1845703125-1.7109375-1.4150390625-3.068359375-.171875-.642578125-.3076171875-1.9609375-.408203125-3.9560546875-.103515625-1.9931640625-.2392578125-4.41796875-.41015625-7.271484375-.1181640625-2.9169921875-.26953125-6.087890625-.45703125-9.5087890625-.1875-3.421875-.3916015625-6.85546875-.611328125-10.3046875-.306640625-4.5166015625-.615234375-9.0625-.92578125-13.6396484375-.3115234375-4.5751953125-.8623046875-9.1630859375-1.65234375-13.759765625-.162109375-.5244140625-.1416015625-1.00390625.0625-1.439453125.08984375-.3662109375.3291015625-.7275390625.71875-1.0888671875.388671875-.359375.994140625-.6318359375,1.81640625-.8193359375.587890625-.1064453125,1.234375-.2490234375,1.9375-.42578125.703125-.17578125,1.4375-.3251953125,2.205078125-.447265625.765625-.12109375,1.5087890625-.181640625,2.2255859375-.1806640625.7177734375.001953125,1.3505859375.0703125,1.8994140625.205078125,2.994140625-.66015625,6.16796875-.9326171875,9.525390625-.81640625,3.35546875.1162109375,6.55078125.6494140625,9.5859375,1.5986328125s5.7158203125,2.330078125,8.044921875,4.1435546875c2.328125,1.8134765625,3.962890625,4.1162109375,4.90625,6.908203125.3984375,1.22265625.681640625,2.5146484375.8525390625,3.8740234375.1689453125,1.3623046875.1357421875,2.7841796875-.1025390625,4.2666015625-.23828125,1.484375-.6943359375,3.0458984375-1.369140625,4.6826171875-.673828125,1.638671875-1.626953125,3.3447265625-2.857421875,5.1162109375ZM169.8798828125,84.0361328125c2.8603515625-.111328125,5.2392578125-.603515625,7.1416015625-1.4755859375,1.900390625-.8701171875,3.294921875-1.923828125,4.1806640625-3.1611328125.8857421875-1.23828125,1.2578125-2.5361328125,1.1181640625-3.9013671875-.1416015625-1.361328125-.7587890625-2.537109375-1.853515625-3.5244140625-1.09765625-.986328125-2.677734375-1.6796875-4.7412109375-2.080078125-2.064453125-.400390625-4.6240234375-.267578125-7.67578125.396484375.3642578125,2.3017578125.68359375,4.5771484375.9560546875,6.8251953125.271484375,2.25.5625,4.5576171875.8740234375,6.9208984375ZM172.2392578125,109.8408203125c3.2353515625.095703125,5.9228515625-.26953125,8.0673828125-1.1025390625,2.1435546875-.830078125,3.71875-1.853515625,4.7265625-3.072265625,1.0068359375-1.2158203125,1.4716796875-2.478515625,1.396484375-3.7880859375-.076171875-1.3076171875-.6875-2.3935546875-1.833984375-3.2578125-1.14453125-.861328125-2.830078125-1.3681640625-5.052734375-1.5166015625s-4.96484375.2978515625-8.2275390625,1.3388671875l.923828125,11.3984375Z"/>
            <path class="cls-1" d="M193.458984375,87.4140625c2.7763671875,1.80859375,4.923828125,4.1591796875,6.443359375,7.052734375,1.5185546875,2.8955078125,2.1708984375,5.96484375,1.9560546875,9.208984375-.2412109375,3.666015625-1.4189453125,6.8232421875-3.5341796875,9.474609375-2.1171875,2.6513671875-4.6904296875,4.81640625-7.7216796875,6.4970703125-3.0322265625,1.6796875-6.3525390625,2.9052734375-9.9658203125,3.6748046875-3.6123046875.76953125-7.0361328125,1.1083984375-10.271484375,1.01171875-.2880859375.142578125-.548828125.23828125-.783203125.2880859375-.2353515625.048828125-.4990234375.11328125-.791015625.1982421875-1.0625.14453125-2.162109375.234375-3.294921875.2666015625-1.1328125.03125-2.171875-.078125-3.119140625-.330078125-.947265625-.2509765625-1.77734375-.720703125-2.4892578125-1.4111328125-.7138671875-.689453125-1.1845703125-1.7109375-1.4150390625-3.068359375-.171875-.642578125-.3076171875-1.9609375-.408203125-3.9560546875-.103515625-1.9931640625-.2392578125-4.41796875-.41015625-7.271484375-.1181640625-2.9169921875-.26953125-6.087890625-.45703125-9.5087890625-.1875-3.421875-.3916015625-6.85546875-.611328125-10.3046875-.306640625-4.5166015625-.615234375-9.0625-.92578125-13.6396484375-.3115234375-4.5751953125-.8623046875-9.1630859375-1.65234375-13.759765625-.162109375-.5244140625-.1416015625-1.00390625.0625-1.439453125.08984375-.3662109375.3291015625-.7275390625.71875-1.0888671875.388671875-.359375.994140625-.6318359375,1.81640625-.8193359375.587890625-.1064453125,1.234375-.2490234375,1.9375-.42578125.703125-.17578125,1.4375-.3251953125,2.205078125-.447265625.765625-.12109375,1.5087890625-.181640625,2.2255859375-.1806640625.7177734375.001953125,1.3505859375.0703125,1.8994140625.205078125,2.994140625-.66015625,6.16796875-.9326171875,9.525390625-.81640625,3.35546875.1162109375,6.55078125.6494140625,9.5859375,1.5986328125s5.7158203125,2.330078125,8.044921875,4.1435546875c2.328125,1.8134765625,3.962890625,4.1162109375,4.90625,6.908203125.3984375,1.22265625.681640625,2.5146484375.8525390625,3.8740234375.1689453125,1.3623046875.1357421875,2.7841796875-.1025390625,4.2666015625-.23828125,1.484375-.6943359375,3.0458984375-1.369140625,4.6826171875-.673828125,1.638671875-1.626953125,3.3447265625-2.857421875,5.1162109375ZM169.8798828125,84.0361328125c2.8603515625-.111328125,5.2392578125-.603515625,7.1416015625-1.4755859375,1.900390625-.8701171875,3.294921875-1.923828125,4.1806640625-3.1611328125.8857421875-1.23828125,1.2578125-2.5361328125,1.1181640625-3.9013671875-.1416015625-1.361328125-.7587890625-2.537109375-1.853515625-3.5244140625-1.09765625-.986328125-2.677734375-1.6796875-4.7412109375-2.080078125-2.064453125-.400390625-4.6240234375-.267578125-7.67578125.396484375.3642578125,2.3017578125.68359375,4.5771484375.9560546875,6.8251953125.271484375,2.25.5625,4.5576171875.8740234375,6.9208984375ZM172.2392578125,109.8408203125c3.2353515625.095703125,5.9228515625-.26953125,8.0673828125-1.1025390625,2.1435546875-.830078125,3.71875-1.853515625,4.7265625-3.072265625,1.0068359375-1.2158203125,1.4716796875-2.478515625,1.396484375-3.7880859375-.076171875-1.3076171875-.6875-2.3935546875-1.833984375-3.2578125-1.14453125-.861328125-2.830078125-1.3681640625-5.052734375-1.5166015625s-4.96484375.2978515625-8.2275390625,1.3388671875l.923828125,11.3984375Z"/>
          </g>
        </a>
        <a xlink:href="https://www.notion.so/congruence/B-Event-1f1a5b08a72c49f5ab60f2e0793fd0a8?pvs=4">
          <g>
            <path class="cls-1" d="M98.6083984375,45.2333984375c-.0478515625-1.00390625-.2724609375-1.7412109375-.6748046875-2.212890625-.4033203125-.470703125-.88671875-.744140625-1.44921875-.8212890625-.5615234375-.076171875-1.15234375.033203125-1.771484375.326171875-.619140625.2939453125-1.169921875.6865234375-1.650390625,1.17578125-1.125,1.134765625-1.994140625,2.5341796875-2.60546875,4.19921875-.61328125,1.6669921875-.9765625,3.390625-1.09375,5.171875-.115234375,1.78125.0078125,3.5361328125.375,5.26171875.365234375,1.7265625.9794921875,3.197265625,1.8427734375,4.412109375.5498046875.7900390625,1.1787109375,1.35546875,1.8837890625,1.6982421875.7060546875.3427734375,1.4404296875.5087890625,2.205078125.5.7626953125-.009765625,1.50390625-.1923828125,2.22265625-.5458984375s1.34765625-.8466796875,1.88671875-1.482421875c.8251953125-.9697265625,1.498046875-1.6669921875,2.0205078125-2.0927734375.5205078125-.4248046875,1.1259765625-.6806640625,1.8134765625-.7724609375,1.96875-.1591796875,3.31640625.2880859375,4.044921875,1.3408203125.728515625,1.0537109375.880859375,2.396484375.45703125,4.029296875-.34765625,1.279296875-.9423828125,2.421875-1.78125,3.4287109375-.83984375,1.0068359375-1.8408203125,1.84375-3.001953125,2.5107421875-1.1640625.6669921875-2.42578125,1.169921875-3.7890625,1.505859375-1.36328125.3369140625-2.7216796875.5068359375-4.076171875.513671875-1.35546875.0048828125-2.65625-.1767578125-3.90234375-.5439453125-1.2470703125-.369140625-2.333984375-.9150390625-3.26171875-1.6396484375-1.0390625-.818359375-1.966796875-1.77734375-2.787109375-2.8759765625-.818359375-1.09765625-1.5224609375-2.275390625-2.1103515625-3.5302734375-.5888671875-1.2548828125-1.060546875-2.572265625-1.4150390625-3.9521484375-.35546875-1.3779296875-.58984375-2.7744140625-.705078125-4.19140625-.1875-3.181640625.236328125-6.3095703125,1.2734375-9.3837890625,1.037109375-3.072265625,2.51953125-5.798828125,4.447265625-8.1787109375.884765625-1.080078125,1.962890625-2.02734375,3.236328125-2.84375,1.271484375-.8154296875,2.5986328125-1.3828125,3.98046875-1.703125,1.3818359375-.3212890625,2.759765625-.36328125,4.1337890625-.126953125,1.375.236328125,2.6240234375.865234375,3.75,1.8857421875.861328125.7646484375,1.5771484375,1.6630859375,2.1474609375,2.693359375.5703125,1.0322265625,1.01953125,2.0732421875,1.34765625,3.123046875.193359375.6796875.306640625,1.3310546875.3408203125,1.9541015625.0322265625.623046875-.06640625,1.2216796875-.2978515625,1.7958984375-.32421875.72265625-.87109375,1.26171875-1.640625,1.619140625-.771484375.3583984375-1.548828125.5166015625-2.333984375.4755859375s-1.4833984375-.2880859375-2.09375-.7431640625c-.6103515625-.4541015625-.93359375-1.11328125-.9677734375-1.98046875Z"/>
            <path class="cls-1" d="M98.6083984375,45.2333984375c-.0478515625-1.00390625-.2724609375-1.7412109375-.6748046875-2.212890625-.4033203125-.470703125-.88671875-.744140625-1.44921875-.8212890625-.5615234375-.076171875-1.15234375.033203125-1.771484375.326171875-.619140625.2939453125-1.169921875.6865234375-1.650390625,1.17578125-1.125,1.134765625-1.994140625,2.5341796875-2.60546875,4.19921875-.61328125,1.6669921875-.9765625,3.390625-1.09375,5.171875-.115234375,1.78125.0078125,3.5361328125.375,5.26171875.365234375,1.7265625.9794921875,3.197265625,1.8427734375,4.412109375.5498046875.7900390625,1.1787109375,1.35546875,1.8837890625,1.6982421875.7060546875.3427734375,1.4404296875.5087890625,2.205078125.5.7626953125-.009765625,1.50390625-.1923828125,2.22265625-.5458984375s1.34765625-.8466796875,1.88671875-1.482421875c.8251953125-.9697265625,1.498046875-1.6669921875,2.0205078125-2.0927734375.5205078125-.4248046875,1.1259765625-.6806640625,1.8134765625-.7724609375,1.96875-.1591796875,3.31640625.2880859375,4.044921875,1.3408203125.728515625,1.0537109375.880859375,2.396484375.45703125,4.029296875-.34765625,1.279296875-.9423828125,2.421875-1.78125,3.4287109375-.83984375,1.0068359375-1.8408203125,1.84375-3.001953125,2.5107421875-1.1640625.6669921875-2.42578125,1.169921875-3.7890625,1.505859375-1.36328125.3369140625-2.7216796875.5068359375-4.076171875.513671875-1.35546875.0048828125-2.65625-.1767578125-3.90234375-.5439453125-1.2470703125-.369140625-2.333984375-.9150390625-3.26171875-1.6396484375-1.0390625-.818359375-1.966796875-1.77734375-2.787109375-2.8759765625-.818359375-1.09765625-1.5224609375-2.275390625-2.1103515625-3.5302734375-.5888671875-1.2548828125-1.060546875-2.572265625-1.4150390625-3.9521484375-.35546875-1.3779296875-.58984375-2.7744140625-.705078125-4.19140625-.1875-3.181640625.236328125-6.3095703125,1.2734375-9.3837890625,1.037109375-3.072265625,2.51953125-5.798828125,4.447265625-8.1787109375.884765625-1.080078125,1.962890625-2.02734375,3.236328125-2.84375,1.271484375-.8154296875,2.5986328125-1.3828125,3.98046875-1.703125,1.3818359375-.3212890625,2.759765625-.36328125,4.1337890625-.126953125,1.375.236328125,2.6240234375.865234375,3.75,1.8857421875.861328125.7646484375,1.5771484375,1.6630859375,2.1474609375,2.693359375.5703125,1.0322265625,1.01953125,2.0732421875,1.34765625,3.123046875.193359375.6796875.306640625,1.3310546875.3408203125,1.9541015625.0322265625.623046875-.06640625,1.2216796875-.2978515625,1.7958984375-.32421875.72265625-.87109375,1.26171875-1.640625,1.619140625-.771484375.3583984375-1.548828125.5166015625-2.333984375.4755859375s-1.4833984375-.2880859375-2.09375-.7431640625c-.6103515625-.4541015625-.93359375-1.11328125-.9677734375-1.98046875Z"/>
            <path class="cls-1" d="M98.6083984375,45.2333984375c-.0478515625-1.00390625-.2724609375-1.7412109375-.6748046875-2.212890625-.4033203125-.470703125-.88671875-.744140625-1.44921875-.8212890625-.5615234375-.076171875-1.15234375.033203125-1.771484375.326171875-.619140625.2939453125-1.169921875.6865234375-1.650390625,1.17578125-1.125,1.134765625-1.994140625,2.5341796875-2.60546875,4.19921875-.61328125,1.6669921875-.9765625,3.390625-1.09375,5.171875-.115234375,1.78125.0078125,3.5361328125.375,5.26171875.365234375,1.7265625.9794921875,3.197265625,1.8427734375,4.412109375.5498046875.7900390625,1.1787109375,1.35546875,1.8837890625,1.6982421875.7060546875.3427734375,1.4404296875.5087890625,2.205078125.5.7626953125-.009765625,1.50390625-.1923828125,2.22265625-.5458984375s1.34765625-.8466796875,1.88671875-1.482421875c.8251953125-.9697265625,1.498046875-1.6669921875,2.0205078125-2.0927734375.5205078125-.4248046875,1.1259765625-.6806640625,1.8134765625-.7724609375,1.96875-.1591796875,3.31640625.2880859375,4.044921875,1.3408203125.728515625,1.0537109375.880859375,2.396484375.45703125,4.029296875-.34765625,1.279296875-.9423828125,2.421875-1.78125,3.4287109375-.83984375,1.0068359375-1.8408203125,1.84375-3.001953125,2.5107421875-1.1640625.6669921875-2.42578125,1.169921875-3.7890625,1.505859375-1.36328125.3369140625-2.7216796875.5068359375-4.076171875.513671875-1.35546875.0048828125-2.65625-.1767578125-3.90234375-.5439453125-1.2470703125-.369140625-2.333984375-.9150390625-3.26171875-1.6396484375-1.0390625-.818359375-1.966796875-1.77734375-2.787109375-2.8759765625-.818359375-1.09765625-1.5224609375-2.275390625-2.1103515625-3.5302734375-.5888671875-1.2548828125-1.060546875-2.572265625-1.4150390625-3.9521484375-.35546875-1.3779296875-.58984375-2.7744140625-.705078125-4.19140625-.1875-3.181640625.236328125-6.3095703125,1.2734375-9.3837890625,1.037109375-3.072265625,2.51953125-5.798828125,4.447265625-8.1787109375.884765625-1.080078125,1.962890625-2.02734375,3.236328125-2.84375,1.271484375-.8154296875,2.5986328125-1.3828125,3.98046875-1.703125,1.3818359375-.3212890625,2.759765625-.36328125,4.1337890625-.126953125,1.375.236328125,2.6240234375.865234375,3.75,1.8857421875.861328125.7646484375,1.5771484375,1.6630859375,2.1474609375,2.693359375.5703125,1.0322265625,1.01953125,2.0732421875,1.34765625,3.123046875.193359375.6796875.306640625,1.3310546875.3408203125,1.9541015625.0322265625.623046875-.06640625,1.2216796875-.2978515625,1.7958984375-.32421875.72265625-.87109375,1.26171875-1.640625,1.619140625-.771484375.3583984375-1.548828125.5166015625-2.333984375.4755859375s-1.4833984375-.2880859375-2.09375-.7431640625c-.6103515625-.4541015625-.93359375-1.11328125-.9677734375-1.98046875Z"/>
          </g>
        </a>
        <path class="cls-1" d="M135.375,55.6298828125c-.138671875,12.25390625-.2578125,24.4013671875-.361328125,36.44140625-.1025390625,12.0390625-.1201171875,24.1865234375-.05078125,36.44140625-.138671875.859375-.3779296875,1.6494140625-.720703125,2.3642578125-.34375.5751953125-.8583984375,1.1474609375-1.54296875,1.720703125-.6865234375.57421875-1.61328125.9296875-2.7783203125,1.07421875-1.2353515625.1435546875-2.4873046875.232421875-3.7548828125.2685546875-1.2705078125.0361328125-2.4541015625-.107421875-3.55078125-.4296875-1.09765625-.322265625-2.041015625-.8955078125-2.8291015625-1.7197265625-.7900390625-.8232421875-1.2861328125-2.0595703125-1.4921875-3.708984375-.1376953125-.787109375-.2060546875-2.435546875-.2060546875-4.9443359375,0-2.5078125.0517578125-5.5361328125.154296875-9.083984375.103515625-3.546875.22265625-7.4521484375.3603515625-11.716796875.13671875-4.2626953125.30859375-8.5458984375.5146484375-12.845703125.13671875-4.2998046875.32421875-8.455078125.56640625-12.4697265625.2392578125-4.0126953125.427734375-7.595703125.5654296875-10.75.2060546875-3.654296875.4111328125-7.0947265625.6171875-10.3193359375-.0693359375-.6455078125.0341796875-1.2177734375.30859375-1.7197265625.2060546875-.4306640625.5302734375-.806640625.9775390625-1.12890625.4453125-.322265625,1.1484375-.51953125,2.109375-.591796875h3.34375c1.26953125,0,2.486328125.0908203125,3.6533203125.26953125,1.1650390625.1796875,2.1435546875.4833984375,2.9326171875.9130859375.787109375.4306640625,1.18359375,1.0751953125,1.18359375,1.935546875Z"/>
      </g>
      <g>
        <a xlink:href="https://www.notion.so/congruence/B-Event-1f1a5b08a72c49f5ab60f2e0793fd0a8?pvs=4">
          <g>
            <path class="cls-2" d="M68.87890625,65.0185546875c2.361328125,1.123046875,4.421875,2.5703125,6.177734375,4.33984375,1.7568359375,1.7705078125,3.275390625,3.73828125,4.556640625,5.9052734375,1.28125,2.16796875,2.349609375,4.486328125,3.208984375,6.9560546875.857421875,2.4716796875,1.5673828125,4.96875,2.130859375,7.4912109375,1.2392578125,4.9794921875,2.126953125,10.046875,2.6650390625,15.2021484375.5361328125,5.1552734375.869140625,10.3583984375.9951171875,15.60546875.0009765625,1.494140625-.017578125,2.7216796875-.060546875,3.6806640625-.0419921875.9599609375-.2021484375,1.75-.48046875,2.369140625-.2783203125.6201171875-.7001953125,1.1328125-1.263671875,1.537109375-.56640625.404296875-1.3701171875.796875-2.4140625,1.181640625-1.0009765625.19921875-2.046875.3740234375-3.140625.5224609375-1.0947265625.1474609375-2.142578125-.0654296875-3.14453125-.640625-.9384765625-.5205078125-1.763671875-1.470703125-2.4716796875-2.8486328125-.708984375-1.3759765625-1.2021484375-3.3974609375-1.4775390625-6.064453125l-.072265625-.890625c-1.4990234375-.0576171875-3.2763671875-.0625-5.333984375-.015625s-4.15625.142578125-6.296875.28515625c-2.1396484375.1435546875-4.2041015625.2958984375-6.1923828125.45703125-1.9892578125.1611328125-3.6669921875.296875-5.0322265625.4072265625-.015625.5400390625-.017578125,1.4365234375-.005859375,2.689453125.01171875,1.2548828125-.080078125,2.517578125-.275390625,3.7880859375-.197265625,1.2705078125-.505859375,2.431640625-.927734375,3.4814453125-.423828125,1.05078125-1.078125,1.6396484375-1.962890625,1.7724609375-.828125.1259765625-1.771484375.2626953125-2.8359375.4091796875-1.064453125.14453125-2.11328125.1103515625-3.1455078125-.103515625-1.0302734375-.154296875-1.9140625-.5625-2.6533203125-1.2197265625-.7412109375-.6572265625-1.2041015625-1.75390625-1.38671875-3.29296875-.1494140625-1.83984375-.291015625-3.951171875-.423828125-6.3310546875-.1337890625-2.37890625-.2236328125-4.970703125-.271484375-7.7763671875-.0693359375-2.3251953125-.08203125-4.87890625-.0380859375-7.66015625.0439453125-2.783203125.1982421875-5.6484375.46875-8.599609375.2685546875-2.9482421875.685546875-5.9111328125,1.251953125-8.8857421875.5654296875-2.97265625,1.3505859375-5.8154296875,2.3564453125-8.52734375,1.00390625-2.7109375,2.25-5.2314453125,3.734375-7.5625s3.32421875-4.3330078125,5.51953125-6.0048828125c2.5908203125-1.943359375,5.51953125-3.0478515625,8.78515625-3.3125,3.2646484375-.263671875,6.41796875.287109375,9.45703125,1.6552734375ZM50.521484375,107.291015625c3.716796875-.599609375,7.423828125-1.125,11.1220703125-1.57421875,3.6982421875-.4482421875,7.4228515625-.7646484375,11.1728515625-.94921875-.1630859375-4.2294921875-.646484375-7.984375-1.451171875-11.267578125-.802734375-3.2802734375-1.7734375-6.025390625-2.908203125-8.234375-1.134765625-2.2080078125-2.40625-3.8671875-3.8095703125-4.9794921875-1.4052734375-1.111328125-2.7900390625-1.6123046875-4.1552734375-1.501953125-1.1884765625.0966796875-2.3701171875.8056640625-3.5478515625,2.1259765625-1.1787109375,1.3212890625-2.2216796875,3.197265625-3.12890625,5.630859375-.9091796875,2.435546875-1.6689453125,5.41015625-2.2802734375,8.9248046875-.611328125,3.5166015625-.9501953125,7.4580078125-1.013671875,11.8251953125Z"/>
            <path class="cls-2" d="M68.87890625,65.0185546875c2.361328125,1.123046875,4.421875,2.5703125,6.177734375,4.33984375,1.7568359375,1.7705078125,3.275390625,3.73828125,4.556640625,5.9052734375,1.28125,2.16796875,2.349609375,4.486328125,3.208984375,6.9560546875.857421875,2.4716796875,1.5673828125,4.96875,2.130859375,7.4912109375,1.2392578125,4.9794921875,2.126953125,10.046875,2.6650390625,15.2021484375.5361328125,5.1552734375.869140625,10.3583984375.9951171875,15.60546875.0009765625,1.494140625-.017578125,2.7216796875-.060546875,3.6806640625-.0419921875.9599609375-.2021484375,1.75-.48046875,2.369140625-.2783203125.6201171875-.7001953125,1.1328125-1.263671875,1.537109375-.56640625.404296875-1.3701171875.796875-2.4140625,1.181640625-1.0009765625.19921875-2.046875.3740234375-3.140625.5224609375-1.0947265625.1474609375-2.142578125-.0654296875-3.14453125-.640625-.9384765625-.5205078125-1.763671875-1.470703125-2.4716796875-2.8486328125-.708984375-1.3759765625-1.2021484375-3.3974609375-1.4775390625-6.064453125l-.072265625-.890625c-1.4990234375-.0576171875-3.2763671875-.0625-5.333984375-.015625s-4.15625.142578125-6.296875.28515625c-2.1396484375.1435546875-4.2041015625.2958984375-6.1923828125.45703125-1.9892578125.1611328125-3.6669921875.296875-5.0322265625.4072265625-.015625.5400390625-.017578125,1.4365234375-.005859375,2.689453125.01171875,1.2548828125-.080078125,2.517578125-.275390625,3.7880859375-.197265625,1.2705078125-.505859375,2.431640625-.927734375,3.4814453125-.423828125,1.05078125-1.078125,1.6396484375-1.962890625,1.7724609375-.828125.1259765625-1.771484375.2626953125-2.8359375.4091796875-1.064453125.14453125-2.11328125.1103515625-3.1455078125-.103515625-1.0302734375-.154296875-1.9140625-.5625-2.6533203125-1.2197265625-.7412109375-.6572265625-1.2041015625-1.75390625-1.38671875-3.29296875-.1494140625-1.83984375-.291015625-3.951171875-.423828125-6.3310546875-.1337890625-2.37890625-.2236328125-4.970703125-.271484375-7.7763671875-.0693359375-2.3251953125-.08203125-4.87890625-.0380859375-7.66015625.0439453125-2.783203125.1982421875-5.6484375.46875-8.599609375.2685546875-2.9482421875.685546875-5.9111328125,1.251953125-8.8857421875.5654296875-2.97265625,1.3505859375-5.8154296875,2.3564453125-8.52734375,1.00390625-2.7109375,2.25-5.2314453125,3.734375-7.5625s3.32421875-4.3330078125,5.51953125-6.0048828125c2.5908203125-1.943359375,5.51953125-3.0478515625,8.78515625-3.3125,3.2646484375-.263671875,6.41796875.287109375,9.45703125,1.6552734375ZM50.521484375,107.291015625c3.716796875-.599609375,7.423828125-1.125,11.1220703125-1.57421875,3.6982421875-.4482421875,7.4228515625-.7646484375,11.1728515625-.94921875-.1630859375-4.2294921875-.646484375-7.984375-1.451171875-11.267578125-.802734375-3.2802734375-1.7734375-6.025390625-2.908203125-8.234375-1.134765625-2.2080078125-2.40625-3.8671875-3.8095703125-4.9794921875-1.4052734375-1.111328125-2.7900390625-1.6123046875-4.1552734375-1.501953125-1.1884765625.0966796875-2.3701171875.8056640625-3.5478515625,2.1259765625-1.1787109375,1.3212890625-2.2216796875,3.197265625-3.12890625,5.630859375-.9091796875,2.435546875-1.6689453125,5.41015625-2.2802734375,8.9248046875-.611328125,3.5166015625-.9501953125,7.4580078125-1.013671875,11.8251953125Z"/>
            <path class="cls-2" d="M68.87890625,65.0185546875c2.361328125,1.123046875,4.421875,2.5703125,6.177734375,4.33984375,1.7568359375,1.7705078125,3.275390625,3.73828125,4.556640625,5.9052734375,1.28125,2.16796875,2.349609375,4.486328125,3.208984375,6.9560546875.857421875,2.4716796875,1.5673828125,4.96875,2.130859375,7.4912109375,1.2392578125,4.9794921875,2.126953125,10.046875,2.6650390625,15.2021484375.5361328125,5.1552734375.869140625,10.3583984375.9951171875,15.60546875.0009765625,1.494140625-.017578125,2.7216796875-.060546875,3.6806640625-.0419921875.9599609375-.2021484375,1.75-.48046875,2.369140625-.2783203125.6201171875-.7001953125,1.1328125-1.263671875,1.537109375-.56640625.404296875-1.3701171875.796875-2.4140625,1.181640625-1.0009765625.19921875-2.046875.3740234375-3.140625.5224609375-1.0947265625.1474609375-2.142578125-.0654296875-3.14453125-.640625-.9384765625-.5205078125-1.763671875-1.470703125-2.4716796875-2.8486328125-.708984375-1.3759765625-1.2021484375-3.3974609375-1.4775390625-6.064453125l-.072265625-.890625c-1.4990234375-.0576171875-3.2763671875-.0625-5.333984375-.015625s-4.15625.142578125-6.296875.28515625c-2.1396484375.1435546875-4.2041015625.2958984375-6.1923828125.45703125-1.9892578125.1611328125-3.6669921875.296875-5.0322265625.4072265625-.015625.5400390625-.017578125,1.4365234375-.005859375,2.689453125.01171875,1.2548828125-.080078125,2.517578125-.275390625,3.7880859375-.197265625,1.2705078125-.505859375,2.431640625-.927734375,3.4814453125-.423828125,1.05078125-1.078125,1.6396484375-1.962890625,1.7724609375-.828125.1259765625-1.771484375.2626953125-2.8359375.4091796875-1.064453125.14453125-2.11328125.1103515625-3.1455078125-.103515625-1.0302734375-.154296875-1.9140625-.5625-2.6533203125-1.2197265625-.7412109375-.6572265625-1.2041015625-1.75390625-1.38671875-3.29296875-.1494140625-1.83984375-.291015625-3.951171875-.423828125-6.3310546875-.1337890625-2.37890625-.2236328125-4.970703125-.271484375-7.7763671875-.0693359375-2.3251953125-.08203125-4.87890625-.0380859375-7.66015625.0439453125-2.783203125.1982421875-5.6484375.46875-8.599609375.2685546875-2.9482421875.685546875-5.9111328125,1.251953125-8.8857421875.5654296875-2.97265625,1.3505859375-5.8154296875,2.3564453125-8.52734375,1.00390625-2.7109375,2.25-5.2314453125,3.734375-7.5625s3.32421875-4.3330078125,5.51953125-6.0048828125c2.5908203125-1.943359375,5.51953125-3.0478515625,8.78515625-3.3125,3.2646484375-.263671875,6.41796875.287109375,9.45703125,1.6552734375ZM50.521484375,107.291015625c3.716796875-.599609375,7.423828125-1.125,11.1220703125-1.57421875,3.6982421875-.4482421875,7.4228515625-.7646484375,11.1728515625-.94921875-.1630859375-4.2294921875-.646484375-7.984375-1.451171875-11.267578125-.802734375-3.2802734375-1.7734375-6.025390625-2.908203125-8.234375-1.134765625-2.2080078125-2.40625-3.8671875-3.8095703125-4.9794921875-1.4052734375-1.111328125-2.7900390625-1.6123046875-4.1552734375-1.501953125-1.1884765625.0966796875-2.3701171875.8056640625-3.5478515625,2.1259765625-1.1787109375,1.3212890625-2.2216796875,3.197265625-3.12890625,5.630859375-.9091796875,2.435546875-1.6689453125,5.41015625-2.2802734375,8.9248046875-.611328125,3.5166015625-.9501953125,7.4580078125-1.013671875,11.8251953125Z"/>
          </g>
        </a>
        <a xlink:href="https://www.notion.so/congruence/B-Event-1f1a5b08a72c49f5ab60f2e0793fd0a8?pvs=4">
          <g>
            <path class="cls-2" d="M193.458984375,87.4140625c2.7763671875,1.80859375,4.923828125,4.1591796875,6.443359375,7.052734375,1.5185546875,2.8955078125,2.1708984375,5.96484375,1.9560546875,9.208984375-.2412109375,3.666015625-1.4189453125,6.8232421875-3.5341796875,9.474609375-2.1171875,2.6513671875-4.6904296875,4.81640625-7.7216796875,6.4970703125-3.0322265625,1.6796875-6.3525390625,2.9052734375-9.9658203125,3.6748046875-3.6123046875.76953125-7.0361328125,1.1083984375-10.271484375,1.01171875-.2880859375.142578125-.548828125.23828125-.783203125.2880859375-.2353515625.048828125-.4990234375.11328125-.791015625.1982421875-1.0625.14453125-2.162109375.234375-3.294921875.2666015625-1.1328125.03125-2.171875-.078125-3.119140625-.330078125-.947265625-.2509765625-1.77734375-.720703125-2.4892578125-1.4111328125-.7138671875-.689453125-1.1845703125-1.7109375-1.4150390625-3.068359375-.171875-.642578125-.3076171875-1.9609375-.408203125-3.9560546875-.103515625-1.9931640625-.2392578125-4.41796875-.41015625-7.271484375-.1181640625-2.9169921875-.26953125-6.087890625-.45703125-9.5087890625-.1875-3.421875-.3916015625-6.85546875-.611328125-10.3046875-.306640625-4.5166015625-.615234375-9.0625-.92578125-13.6396484375-.3115234375-4.5751953125-.8623046875-9.1630859375-1.65234375-13.759765625-.162109375-.5244140625-.1416015625-1.00390625.0625-1.439453125.08984375-.3662109375.3291015625-.7275390625.71875-1.0888671875.388671875-.359375.994140625-.6318359375,1.81640625-.8193359375.587890625-.1064453125,1.234375-.2490234375,1.9375-.42578125.703125-.17578125,1.4375-.3251953125,2.205078125-.447265625.765625-.12109375,1.5087890625-.181640625,2.2255859375-.1806640625.7177734375.001953125,1.3505859375.0703125,1.8994140625.205078125,2.994140625-.66015625,6.16796875-.9326171875,9.525390625-.81640625,3.35546875.1162109375,6.55078125.6494140625,9.5859375,1.5986328125s5.7158203125,2.330078125,8.044921875,4.1435546875c2.328125,1.8134765625,3.962890625,4.1162109375,4.90625,6.908203125.3984375,1.22265625.681640625,2.5146484375.8525390625,3.8740234375.1689453125,1.3623046875.1357421875,2.7841796875-.1025390625,4.2666015625-.23828125,1.484375-.6943359375,3.0458984375-1.369140625,4.6826171875-.673828125,1.638671875-1.626953125,3.3447265625-2.857421875,5.1162109375ZM169.8798828125,84.0361328125c2.8603515625-.111328125,5.2392578125-.603515625,7.1416015625-1.4755859375,1.900390625-.8701171875,3.294921875-1.923828125,4.1806640625-3.1611328125.8857421875-1.23828125,1.2578125-2.5361328125,1.1181640625-3.9013671875-.1416015625-1.361328125-.7587890625-2.537109375-1.853515625-3.5244140625-1.09765625-.986328125-2.677734375-1.6796875-4.7412109375-2.080078125-2.064453125-.400390625-4.6240234375-.267578125-7.67578125.396484375.3642578125,2.3017578125.68359375,4.5771484375.9560546875,6.8251953125.271484375,2.25.5625,4.5576171875.8740234375,6.9208984375ZM172.2392578125,109.8408203125c3.2353515625.095703125,5.9228515625-.26953125,8.0673828125-1.1025390625,2.1435546875-.830078125,3.71875-1.853515625,4.7265625-3.072265625,1.0068359375-1.2158203125,1.4716796875-2.478515625,1.396484375-3.7880859375-.076171875-1.3076171875-.6875-2.3935546875-1.833984375-3.2578125-1.14453125-.861328125-2.830078125-1.3681640625-5.052734375-1.5166015625s-4.96484375.2978515625-8.2275390625,1.3388671875l.923828125,11.3984375Z"/>
            <path class="cls-2" d="M193.458984375,87.4140625c2.7763671875,1.80859375,4.923828125,4.1591796875,6.443359375,7.052734375,1.5185546875,2.8955078125,2.1708984375,5.96484375,1.9560546875,9.208984375-.2412109375,3.666015625-1.4189453125,6.8232421875-3.5341796875,9.474609375-2.1171875,2.6513671875-4.6904296875,4.81640625-7.7216796875,6.4970703125-3.0322265625,1.6796875-6.3525390625,2.9052734375-9.9658203125,3.6748046875-3.6123046875.76953125-7.0361328125,1.1083984375-10.271484375,1.01171875-.2880859375.142578125-.548828125.23828125-.783203125.2880859375-.2353515625.048828125-.4990234375.11328125-.791015625.1982421875-1.0625.14453125-2.162109375.234375-3.294921875.2666015625-1.1328125.03125-2.171875-.078125-3.119140625-.330078125-.947265625-.2509765625-1.77734375-.720703125-2.4892578125-1.4111328125-.7138671875-.689453125-1.1845703125-1.7109375-1.4150390625-3.068359375-.171875-.642578125-.3076171875-1.9609375-.408203125-3.9560546875-.103515625-1.9931640625-.2392578125-4.41796875-.41015625-7.271484375-.1181640625-2.9169921875-.26953125-6.087890625-.45703125-9.5087890625-.1875-3.421875-.3916015625-6.85546875-.611328125-10.3046875-.306640625-4.5166015625-.615234375-9.0625-.92578125-13.6396484375-.3115234375-4.5751953125-.8623046875-9.1630859375-1.65234375-13.759765625-.162109375-.5244140625-.1416015625-1.00390625.0625-1.439453125.08984375-.3662109375.3291015625-.7275390625.71875-1.0888671875.388671875-.359375.994140625-.6318359375,1.81640625-.8193359375.587890625-.1064453125,1.234375-.2490234375,1.9375-.42578125.703125-.17578125,1.4375-.3251953125,2.205078125-.447265625.765625-.12109375,1.5087890625-.181640625,2.2255859375-.1806640625.7177734375.001953125,1.3505859375.0703125,1.8994140625.205078125,2.994140625-.66015625,6.16796875-.9326171875,9.525390625-.81640625,3.35546875.1162109375,6.55078125.6494140625,9.5859375,1.5986328125s5.7158203125,2.330078125,8.044921875,4.1435546875c2.328125,1.8134765625,3.962890625,4.1162109375,4.90625,6.908203125.3984375,1.22265625.681640625,2.5146484375.8525390625,3.8740234375.1689453125,1.3623046875.1357421875,2.7841796875-.1025390625,4.2666015625-.23828125,1.484375-.6943359375,3.0458984375-1.369140625,4.6826171875-.673828125,1.638671875-1.626953125,3.3447265625-2.857421875,5.1162109375ZM169.8798828125,84.0361328125c2.8603515625-.111328125,5.2392578125-.603515625,7.1416015625-1.4755859375,1.900390625-.8701171875,3.294921875-1.923828125,4.1806640625-3.1611328125.8857421875-1.23828125,1.2578125-2.5361328125,1.1181640625-3.9013671875-.1416015625-1.361328125-.7587890625-2.537109375-1.853515625-3.5244140625-1.09765625-.986328125-2.677734375-1.6796875-4.7412109375-2.080078125-2.064453125-.400390625-4.6240234375-.267578125-7.67578125.396484375.3642578125,2.3017578125.68359375,4.5771484375.9560546875,6.8251953125.271484375,2.25.5625,4.5576171875.8740234375,6.9208984375ZM172.2392578125,109.8408203125c3.2353515625.095703125,5.9228515625-.26953125,8.0673828125-1.1025390625,2.1435546875-.830078125,3.71875-1.853515625,4.7265625-3.072265625,1.0068359375-1.2158203125,1.4716796875-2.478515625,1.396484375-3.7880859375-.076171875-1.3076171875-.6875-2.3935546875-1.833984375-3.2578125-1.14453125-.861328125-2.830078125-1.3681640625-5.052734375-1.5166015625s-4.96484375.2978515625-8.2275390625,1.3388671875l.923828125,11.3984375Z"/>
            <path class="cls-2" d="M193.458984375,87.4140625c2.7763671875,1.80859375,4.923828125,4.1591796875,6.443359375,7.052734375,1.5185546875,2.8955078125,2.1708984375,5.96484375,1.9560546875,9.208984375-.2412109375,3.666015625-1.4189453125,6.8232421875-3.5341796875,9.474609375-2.1171875,2.6513671875-4.6904296875,4.81640625-7.7216796875,6.4970703125-3.0322265625,1.6796875-6.3525390625,2.9052734375-9.9658203125,3.6748046875-3.6123046875.76953125-7.0361328125,1.1083984375-10.271484375,1.01171875-.2880859375.142578125-.548828125.23828125-.783203125.2880859375-.2353515625.048828125-.4990234375.11328125-.791015625.1982421875-1.0625.14453125-2.162109375.234375-3.294921875.2666015625-1.1328125.03125-2.171875-.078125-3.119140625-.330078125-.947265625-.2509765625-1.77734375-.720703125-2.4892578125-1.4111328125-.7138671875-.689453125-1.1845703125-1.7109375-1.4150390625-3.068359375-.171875-.642578125-.3076171875-1.9609375-.408203125-3.9560546875-.103515625-1.9931640625-.2392578125-4.41796875-.41015625-7.271484375-.1181640625-2.9169921875-.26953125-6.087890625-.45703125-9.5087890625-.1875-3.421875-.3916015625-6.85546875-.611328125-10.3046875-.306640625-4.5166015625-.615234375-9.0625-.92578125-13.6396484375-.3115234375-4.5751953125-.8623046875-9.1630859375-1.65234375-13.759765625-.162109375-.5244140625-.1416015625-1.00390625.0625-1.439453125.08984375-.3662109375.3291015625-.7275390625.71875-1.0888671875.388671875-.359375.994140625-.6318359375,1.81640625-.8193359375.587890625-.1064453125,1.234375-.2490234375,1.9375-.42578125.703125-.17578125,1.4375-.3251953125,2.205078125-.447265625.765625-.12109375,1.5087890625-.181640625,2.2255859375-.1806640625.7177734375.001953125,1.3505859375.0703125,1.8994140625.205078125,2.994140625-.66015625,6.16796875-.9326171875,9.525390625-.81640625,3.35546875.1162109375,6.55078125.6494140625,9.5859375,1.5986328125s5.7158203125,2.330078125,8.044921875,4.1435546875c2.328125,1.8134765625,3.962890625,4.1162109375,4.90625,6.908203125.3984375,1.22265625.681640625,2.5146484375.8525390625,3.8740234375.1689453125,1.3623046875.1357421875,2.7841796875-.1025390625,4.2666015625-.23828125,1.484375-.6943359375,3.0458984375-1.369140625,4.6826171875-.673828125,1.638671875-1.626953125,3.3447265625-2.857421875,5.1162109375ZM169.8798828125,84.0361328125c2.8603515625-.111328125,5.2392578125-.603515625,7.1416015625-1.4755859375,1.900390625-.8701171875,3.294921875-1.923828125,4.1806640625-3.1611328125.8857421875-1.23828125,1.2578125-2.5361328125,1.1181640625-3.9013671875-.1416015625-1.361328125-.7587890625-2.537109375-1.853515625-3.5244140625-1.09765625-.986328125-2.677734375-1.6796875-4.7412109375-2.080078125-2.064453125-.400390625-4.6240234375-.267578125-7.67578125.396484375.3642578125,2.3017578125.68359375,4.5771484375.9560546875,6.8251953125.271484375,2.25.5625,4.5576171875.8740234375,6.9208984375ZM172.2392578125,109.8408203125c3.2353515625.095703125,5.9228515625-.26953125,8.0673828125-1.1025390625,2.1435546875-.830078125,3.71875-1.853515625,4.7265625-3.072265625,1.0068359375-1.2158203125,1.4716796875-2.478515625,1.396484375-3.7880859375-.076171875-1.3076171875-.6875-2.3935546875-1.833984375-3.2578125-1.14453125-.861328125-2.830078125-1.3681640625-5.052734375-1.5166015625s-4.96484375.2978515625-8.2275390625,1.3388671875l.923828125,11.3984375Z"/>
          </g>
        </a>
        <a xlink:href="https://www.notion.so/congruence/B-Event-1f1a5b08a72c49f5ab60f2e0793fd0a8?pvs=4">
          <g>
            <path class="cls-2" d="M98.6083984375,45.2333984375c-.0478515625-1.00390625-.2724609375-1.7412109375-.6748046875-2.212890625-.4033203125-.470703125-.88671875-.744140625-1.44921875-.8212890625-.5615234375-.076171875-1.15234375.033203125-1.771484375.326171875-.619140625.2939453125-1.169921875.6865234375-1.650390625,1.17578125-1.125,1.134765625-1.994140625,2.5341796875-2.60546875,4.19921875-.61328125,1.6669921875-.9765625,3.390625-1.09375,5.171875-.115234375,1.78125.0078125,3.5361328125.375,5.26171875.365234375,1.7265625.9794921875,3.197265625,1.8427734375,4.412109375.5498046875.7900390625,1.1787109375,1.35546875,1.8837890625,1.6982421875.7060546875.3427734375,1.4404296875.5087890625,2.205078125.5.7626953125-.009765625,1.50390625-.1923828125,2.22265625-.5458984375s1.34765625-.8466796875,1.88671875-1.482421875c.8251953125-.9697265625,1.498046875-1.6669921875,2.0205078125-2.0927734375.5205078125-.4248046875,1.1259765625-.6806640625,1.8134765625-.7724609375,1.96875-.1591796875,3.31640625.2880859375,4.044921875,1.3408203125.728515625,1.0537109375.880859375,2.396484375.45703125,4.029296875-.34765625,1.279296875-.9423828125,2.421875-1.78125,3.4287109375-.83984375,1.0068359375-1.8408203125,1.84375-3.001953125,2.5107421875-1.1640625.6669921875-2.42578125,1.169921875-3.7890625,1.505859375-1.36328125.3369140625-2.7216796875.5068359375-4.076171875.513671875-1.35546875.0048828125-2.65625-.1767578125-3.90234375-.5439453125-1.2470703125-.369140625-2.333984375-.9150390625-3.26171875-1.6396484375-1.0390625-.818359375-1.966796875-1.77734375-2.787109375-2.8759765625-.818359375-1.09765625-1.5224609375-2.275390625-2.1103515625-3.5302734375-.5888671875-1.2548828125-1.060546875-2.572265625-1.4150390625-3.9521484375-.35546875-1.3779296875-.58984375-2.7744140625-.705078125-4.19140625-.1875-3.181640625.236328125-6.3095703125,1.2734375-9.3837890625,1.037109375-3.072265625,2.51953125-5.798828125,4.447265625-8.1787109375.884765625-1.080078125,1.962890625-2.02734375,3.236328125-2.84375,1.271484375-.8154296875,2.5986328125-1.3828125,3.98046875-1.703125,1.3818359375-.3212890625,2.759765625-.36328125,4.1337890625-.126953125,1.375.236328125,2.6240234375.865234375,3.75,1.8857421875.861328125.7646484375,1.5771484375,1.6630859375,2.1474609375,2.693359375.5703125,1.0322265625,1.01953125,2.0732421875,1.34765625,3.123046875.193359375.6796875.306640625,1.3310546875.3408203125,1.9541015625.0322265625.623046875-.06640625,1.2216796875-.2978515625,1.7958984375-.32421875.72265625-.87109375,1.26171875-1.640625,1.619140625-.771484375.3583984375-1.548828125.5166015625-2.333984375.4755859375s-1.4833984375-.2880859375-2.09375-.7431640625c-.6103515625-.4541015625-.93359375-1.11328125-.9677734375-1.98046875Z"/>
            <path class="cls-2" d="M98.6083984375,45.2333984375c-.0478515625-1.00390625-.2724609375-1.7412109375-.6748046875-2.212890625-.4033203125-.470703125-.88671875-.744140625-1.44921875-.8212890625-.5615234375-.076171875-1.15234375.033203125-1.771484375.326171875-.619140625.2939453125-1.169921875.6865234375-1.650390625,1.17578125-1.125,1.134765625-1.994140625,2.5341796875-2.60546875,4.19921875-.61328125,1.6669921875-.9765625,3.390625-1.09375,5.171875-.115234375,1.78125.0078125,3.5361328125.375,5.26171875.365234375,1.7265625.9794921875,3.197265625,1.8427734375,4.412109375.5498046875.7900390625,1.1787109375,1.35546875,1.8837890625,1.6982421875.7060546875.3427734375,1.4404296875.5087890625,2.205078125.5.7626953125-.009765625,1.50390625-.1923828125,2.22265625-.5458984375s1.34765625-.8466796875,1.88671875-1.482421875c.8251953125-.9697265625,1.498046875-1.6669921875,2.0205078125-2.0927734375.5205078125-.4248046875,1.1259765625-.6806640625,1.8134765625-.7724609375,1.96875-.1591796875,3.31640625.2880859375,4.044921875,1.3408203125.728515625,1.0537109375.880859375,2.396484375.45703125,4.029296875-.34765625,1.279296875-.9423828125,2.421875-1.78125,3.4287109375-.83984375,1.0068359375-1.8408203125,1.84375-3.001953125,2.5107421875-1.1640625.6669921875-2.42578125,1.169921875-3.7890625,1.505859375-1.36328125.3369140625-2.7216796875.5068359375-4.076171875.513671875-1.35546875.0048828125-2.65625-.1767578125-3.90234375-.5439453125-1.2470703125-.369140625-2.333984375-.9150390625-3.26171875-1.6396484375-1.0390625-.818359375-1.966796875-1.77734375-2.787109375-2.8759765625-.818359375-1.09765625-1.5224609375-2.275390625-2.1103515625-3.5302734375-.5888671875-1.2548828125-1.060546875-2.572265625-1.4150390625-3.9521484375-.35546875-1.3779296875-.58984375-2.7744140625-.705078125-4.19140625-.1875-3.181640625.236328125-6.3095703125,1.2734375-9.3837890625,1.037109375-3.072265625,2.51953125-5.798828125,4.447265625-8.1787109375.884765625-1.080078125,1.962890625-2.02734375,3.236328125-2.84375,1.271484375-.8154296875,2.5986328125-1.3828125,3.98046875-1.703125,1.3818359375-.3212890625,2.759765625-.36328125,4.1337890625-.126953125,1.375.236328125,2.6240234375.865234375,3.75,1.8857421875.861328125.7646484375,1.5771484375,1.6630859375,2.1474609375,2.693359375.5703125,1.0322265625,1.01953125,2.0732421875,1.34765625,3.123046875.193359375.6796875.306640625,1.3310546875.3408203125,1.9541015625.0322265625.623046875-.06640625,1.2216796875-.2978515625,1.7958984375-.32421875.72265625-.87109375,1.26171875-1.640625,1.619140625-.771484375.3583984375-1.548828125.5166015625-2.333984375.4755859375s-1.4833984375-.2880859375-2.09375-.7431640625c-.6103515625-.4541015625-.93359375-1.11328125-.9677734375-1.98046875Z"/>
            <path class="cls-2" d="M98.6083984375,45.2333984375c-.0478515625-1.00390625-.2724609375-1.7412109375-.6748046875-2.212890625-.4033203125-.470703125-.88671875-.744140625-1.44921875-.8212890625-.5615234375-.076171875-1.15234375.033203125-1.771484375.326171875-.619140625.2939453125-1.169921875.6865234375-1.650390625,1.17578125-1.125,1.134765625-1.994140625,2.5341796875-2.60546875,4.19921875-.61328125,1.6669921875-.9765625,3.390625-1.09375,5.171875-.115234375,1.78125.0078125,3.5361328125.375,5.26171875.365234375,1.7265625.9794921875,3.197265625,1.8427734375,4.412109375.5498046875.7900390625,1.1787109375,1.35546875,1.8837890625,1.6982421875.7060546875.3427734375,1.4404296875.5087890625,2.205078125.5.7626953125-.009765625,1.50390625-.1923828125,2.22265625-.5458984375s1.34765625-.8466796875,1.88671875-1.482421875c.8251953125-.9697265625,1.498046875-1.6669921875,2.0205078125-2.0927734375.5205078125-.4248046875,1.1259765625-.6806640625,1.8134765625-.7724609375,1.96875-.1591796875,3.31640625.2880859375,4.044921875,1.3408203125.728515625,1.0537109375.880859375,2.396484375.45703125,4.029296875-.34765625,1.279296875-.9423828125,2.421875-1.78125,3.4287109375-.83984375,1.0068359375-1.8408203125,1.84375-3.001953125,2.5107421875-1.1640625.6669921875-2.42578125,1.169921875-3.7890625,1.505859375-1.36328125.3369140625-2.7216796875.5068359375-4.076171875.513671875-1.35546875.0048828125-2.65625-.1767578125-3.90234375-.5439453125-1.2470703125-.369140625-2.333984375-.9150390625-3.26171875-1.6396484375-1.0390625-.818359375-1.966796875-1.77734375-2.787109375-2.8759765625-.818359375-1.09765625-1.5224609375-2.275390625-2.1103515625-3.5302734375-.5888671875-1.2548828125-1.060546875-2.572265625-1.4150390625-3.9521484375-.35546875-1.3779296875-.58984375-2.7744140625-.705078125-4.19140625-.1875-3.181640625.236328125-6.3095703125,1.2734375-9.3837890625,1.037109375-3.072265625,2.51953125-5.798828125,4.447265625-8.1787109375.884765625-1.080078125,1.962890625-2.02734375,3.236328125-2.84375,1.271484375-.8154296875,2.5986328125-1.3828125,3.98046875-1.703125,1.3818359375-.3212890625,2.759765625-.36328125,4.1337890625-.126953125,1.375.236328125,2.6240234375.865234375,3.75,1.8857421875.861328125.7646484375,1.5771484375,1.6630859375,2.1474609375,2.693359375.5703125,1.0322265625,1.01953125,2.0732421875,1.34765625,3.123046875.193359375.6796875.306640625,1.3310546875.3408203125,1.9541015625.0322265625.623046875-.06640625,1.2216796875-.2978515625,1.7958984375-.32421875.72265625-.87109375,1.26171875-1.640625,1.619140625-.771484375.3583984375-1.548828125.5166015625-2.333984375.4755859375s-1.4833984375-.2880859375-2.09375-.7431640625c-.6103515625-.4541015625-.93359375-1.11328125-.9677734375-1.98046875Z"/>
          </g>
        </a>
        <path class="cls-2" d="M135.375,55.6298828125c-.138671875,12.25390625-.2578125,24.4013671875-.361328125,36.44140625-.1025390625,12.0390625-.1201171875,24.1865234375-.05078125,36.44140625-.138671875.859375-.3779296875,1.6494140625-.720703125,2.3642578125-.34375.5751953125-.8583984375,1.1474609375-1.54296875,1.720703125-.6865234375.57421875-1.61328125.9296875-2.7783203125,1.07421875-1.2353515625.1435546875-2.4873046875.232421875-3.7548828125.2685546875-1.2705078125.0361328125-2.4541015625-.107421875-3.55078125-.4296875-1.09765625-.322265625-2.041015625-.8955078125-2.8291015625-1.7197265625-.7900390625-.8232421875-1.2861328125-2.0595703125-1.4921875-3.708984375-.1376953125-.787109375-.2060546875-2.435546875-.2060546875-4.9443359375,0-2.5078125.0517578125-5.5361328125.154296875-9.083984375.103515625-3.546875.22265625-7.4521484375.3603515625-11.716796875.13671875-4.2626953125.30859375-8.5458984375.5146484375-12.845703125.13671875-4.2998046875.32421875-8.455078125.56640625-12.4697265625.2392578125-4.0126953125.427734375-7.595703125.5654296875-10.75.2060546875-3.654296875.4111328125-7.0947265625.6171875-10.3193359375-.0693359375-.6455078125.0341796875-1.2177734375.30859375-1.7197265625.2060546875-.4306640625.5302734375-.806640625.9775390625-1.12890625.4453125-.322265625,1.1484375-.51953125,2.109375-.591796875h3.34375c1.26953125,0,2.486328125.0908203125,3.6533203125.26953125,1.1650390625.1796875,2.1435546875.4833984375,2.9326171875.9130859375.787109375.4306640625,1.18359375,1.0751953125,1.18359375,1.935546875Z"/>
      </g>
      <g>
        <a xlink:href="https://www.notion.so/congruence/B-Event-1f1a5b08a72c49f5ab60f2e0793fd0a8?pvs=4">
          <g>
            <path class="cls-3" d="M68.87890625,65.0185546875c2.361328125,1.123046875,4.421875,2.5703125,6.177734375,4.33984375,1.7568359375,1.7705078125,3.275390625,3.73828125,4.556640625,5.9052734375,1.28125,2.16796875,2.349609375,4.486328125,3.208984375,6.9560546875.857421875,2.4716796875,1.5673828125,4.96875,2.130859375,7.4912109375,1.2392578125,4.9794921875,2.126953125,10.046875,2.6650390625,15.2021484375.5361328125,5.1552734375.869140625,10.3583984375.9951171875,15.60546875.0009765625,1.494140625-.017578125,2.7216796875-.060546875,3.6806640625-.0419921875.9599609375-.2021484375,1.75-.48046875,2.369140625-.2783203125.6201171875-.7001953125,1.1328125-1.263671875,1.537109375-.56640625.404296875-1.3701171875.796875-2.4140625,1.181640625-1.0009765625.19921875-2.046875.3740234375-3.140625.5224609375-1.0947265625.1474609375-2.142578125-.0654296875-3.14453125-.640625-.9384765625-.5205078125-1.763671875-1.470703125-2.4716796875-2.8486328125-.708984375-1.3759765625-1.2021484375-3.3974609375-1.4775390625-6.064453125l-.072265625-.890625c-1.4990234375-.0576171875-3.2763671875-.0625-5.333984375-.015625s-4.15625.142578125-6.296875.28515625c-2.1396484375.1435546875-4.2041015625.2958984375-6.1923828125.45703125-1.9892578125.1611328125-3.6669921875.296875-5.0322265625.4072265625-.015625.5400390625-.017578125,1.4365234375-.005859375,2.689453125.01171875,1.2548828125-.080078125,2.517578125-.275390625,3.7880859375-.197265625,1.2705078125-.505859375,2.431640625-.927734375,3.4814453125-.423828125,1.05078125-1.078125,1.6396484375-1.962890625,1.7724609375-.828125.1259765625-1.771484375.2626953125-2.8359375.4091796875-1.064453125.14453125-2.11328125.1103515625-3.1455078125-.103515625-1.0302734375-.154296875-1.9140625-.5625-2.6533203125-1.2197265625-.7412109375-.6572265625-1.2041015625-1.75390625-1.38671875-3.29296875-.1494140625-1.83984375-.291015625-3.951171875-.423828125-6.3310546875-.1337890625-2.37890625-.2236328125-4.970703125-.271484375-7.7763671875-.0693359375-2.3251953125-.08203125-4.87890625-.0380859375-7.66015625.0439453125-2.783203125.1982421875-5.6484375.46875-8.599609375.2685546875-2.9482421875.685546875-5.9111328125,1.251953125-8.8857421875.5654296875-2.97265625,1.3505859375-5.8154296875,2.3564453125-8.52734375,1.00390625-2.7109375,2.25-5.2314453125,3.734375-7.5625s3.32421875-4.3330078125,5.51953125-6.0048828125c2.5908203125-1.943359375,5.51953125-3.0478515625,8.78515625-3.3125,3.2646484375-.263671875,6.41796875.287109375,9.45703125,1.6552734375ZM50.521484375,107.291015625c3.716796875-.599609375,7.423828125-1.125,11.1220703125-1.57421875,3.6982421875-.4482421875,7.4228515625-.7646484375,11.1728515625-.94921875-.1630859375-4.2294921875-.646484375-7.984375-1.451171875-11.267578125-.802734375-3.2802734375-1.7734375-6.025390625-2.908203125-8.234375-1.134765625-2.2080078125-2.40625-3.8671875-3.8095703125-4.9794921875-1.4052734375-1.111328125-2.7900390625-1.6123046875-4.1552734375-1.501953125-1.1884765625.0966796875-2.3701171875.8056640625-3.5478515625,2.1259765625-1.1787109375,1.3212890625-2.2216796875,3.197265625-3.12890625,5.630859375-.9091796875,2.435546875-1.6689453125,5.41015625-2.2802734375,8.9248046875-.611328125,3.5166015625-.9501953125,7.4580078125-1.013671875,11.8251953125Z"/>
            <path class="cls-3" d="M68.87890625,65.0185546875c2.361328125,1.123046875,4.421875,2.5703125,6.177734375,4.33984375,1.7568359375,1.7705078125,3.275390625,3.73828125,4.556640625,5.9052734375,1.28125,2.16796875,2.349609375,4.486328125,3.208984375,6.9560546875.857421875,2.4716796875,1.5673828125,4.96875,2.130859375,7.4912109375,1.2392578125,4.9794921875,2.126953125,10.046875,2.6650390625,15.2021484375.5361328125,5.1552734375.869140625,10.3583984375.9951171875,15.60546875.0009765625,1.494140625-.017578125,2.7216796875-.060546875,3.6806640625-.0419921875.9599609375-.2021484375,1.75-.48046875,2.369140625-.2783203125.6201171875-.7001953125,1.1328125-1.263671875,1.537109375-.56640625.404296875-1.3701171875.796875-2.4140625,1.181640625-1.0009765625.19921875-2.046875.3740234375-3.140625.5224609375-1.0947265625.1474609375-2.142578125-.0654296875-3.14453125-.640625-.9384765625-.5205078125-1.763671875-1.470703125-2.4716796875-2.8486328125-.708984375-1.3759765625-1.2021484375-3.3974609375-1.4775390625-6.064453125l-.072265625-.890625c-1.4990234375-.0576171875-3.2763671875-.0625-5.333984375-.015625s-4.15625.142578125-6.296875.28515625c-2.1396484375.1435546875-4.2041015625.2958984375-6.1923828125.45703125-1.9892578125.1611328125-3.6669921875.296875-5.0322265625.4072265625-.015625.5400390625-.017578125,1.4365234375-.005859375,2.689453125.01171875,1.2548828125-.080078125,2.517578125-.275390625,3.7880859375-.197265625,1.2705078125-.505859375,2.431640625-.927734375,3.4814453125-.423828125,1.05078125-1.078125,1.6396484375-1.962890625,1.7724609375-.828125.1259765625-1.771484375.2626953125-2.8359375.4091796875-1.064453125.14453125-2.11328125.1103515625-3.1455078125-.103515625-1.0302734375-.154296875-1.9140625-.5625-2.6533203125-1.2197265625-.7412109375-.6572265625-1.2041015625-1.75390625-1.38671875-3.29296875-.1494140625-1.83984375-.291015625-3.951171875-.423828125-6.3310546875-.1337890625-2.37890625-.2236328125-4.970703125-.271484375-7.7763671875-.0693359375-2.3251953125-.08203125-4.87890625-.0380859375-7.66015625.0439453125-2.783203125.1982421875-5.6484375.46875-8.599609375.2685546875-2.9482421875.685546875-5.9111328125,1.251953125-8.8857421875.5654296875-2.97265625,1.3505859375-5.8154296875,2.3564453125-8.52734375,1.00390625-2.7109375,2.25-5.2314453125,3.734375-7.5625s3.32421875-4.3330078125,5.51953125-6.0048828125c2.5908203125-1.943359375,5.51953125-3.0478515625,8.78515625-3.3125,3.2646484375-.263671875,6.41796875.287109375,9.45703125,1.6552734375ZM50.521484375,107.291015625c3.716796875-.599609375,7.423828125-1.125,11.1220703125-1.57421875,3.6982421875-.4482421875,7.4228515625-.7646484375,11.1728515625-.94921875-.1630859375-4.2294921875-.646484375-7.984375-1.451171875-11.267578125-.802734375-3.2802734375-1.7734375-6.025390625-2.908203125-8.234375-1.134765625-2.2080078125-2.40625-3.8671875-3.8095703125-4.9794921875-1.4052734375-1.111328125-2.7900390625-1.6123046875-4.1552734375-1.501953125-1.1884765625.0966796875-2.3701171875.8056640625-3.5478515625,2.1259765625-1.1787109375,1.3212890625-2.2216796875,3.197265625-3.12890625,5.630859375-.9091796875,2.435546875-1.6689453125,5.41015625-2.2802734375,8.9248046875-.611328125,3.5166015625-.9501953125,7.4580078125-1.013671875,11.8251953125Z"/>
            <path class="cls-3" d="M68.87890625,65.0185546875c2.361328125,1.123046875,4.421875,2.5703125,6.177734375,4.33984375,1.7568359375,1.7705078125,3.275390625,3.73828125,4.556640625,5.9052734375,1.28125,2.16796875,2.349609375,4.486328125,3.208984375,6.9560546875.857421875,2.4716796875,1.5673828125,4.96875,2.130859375,7.4912109375,1.2392578125,4.9794921875,2.126953125,10.046875,2.6650390625,15.2021484375.5361328125,5.1552734375.869140625,10.3583984375.9951171875,15.60546875.0009765625,1.494140625-.017578125,2.7216796875-.060546875,3.6806640625-.0419921875.9599609375-.2021484375,1.75-.48046875,2.369140625-.2783203125.6201171875-.7001953125,1.1328125-1.263671875,1.537109375-.56640625.404296875-1.3701171875.796875-2.4140625,1.181640625-1.0009765625.19921875-2.046875.3740234375-3.140625.5224609375-1.0947265625.1474609375-2.142578125-.0654296875-3.14453125-.640625-.9384765625-.5205078125-1.763671875-1.470703125-2.4716796875-2.8486328125-.708984375-1.3759765625-1.2021484375-3.3974609375-1.4775390625-6.064453125l-.072265625-.890625c-1.4990234375-.0576171875-3.2763671875-.0625-5.333984375-.015625s-4.15625.142578125-6.296875.28515625c-2.1396484375.1435546875-4.2041015625.2958984375-6.1923828125.45703125-1.9892578125.1611328125-3.6669921875.296875-5.0322265625.4072265625-.015625.5400390625-.017578125,1.4365234375-.005859375,2.689453125.01171875,1.2548828125-.080078125,2.517578125-.275390625,3.7880859375-.197265625,1.2705078125-.505859375,2.431640625-.927734375,3.4814453125-.423828125,1.05078125-1.078125,1.6396484375-1.962890625,1.7724609375-.828125.1259765625-1.771484375.2626953125-2.8359375.4091796875-1.064453125.14453125-2.11328125.1103515625-3.1455078125-.103515625-1.0302734375-.154296875-1.9140625-.5625-2.6533203125-1.2197265625-.7412109375-.6572265625-1.2041015625-1.75390625-1.38671875-3.29296875-.1494140625-1.83984375-.291015625-3.951171875-.423828125-6.3310546875-.1337890625-2.37890625-.2236328125-4.970703125-.271484375-7.7763671875-.0693359375-2.3251953125-.08203125-4.87890625-.0380859375-7.66015625.0439453125-2.783203125.1982421875-5.6484375.46875-8.599609375.2685546875-2.9482421875.685546875-5.9111328125,1.251953125-8.8857421875.5654296875-2.97265625,1.3505859375-5.8154296875,2.3564453125-8.52734375,1.00390625-2.7109375,2.25-5.2314453125,3.734375-7.5625s3.32421875-4.3330078125,5.51953125-6.0048828125c2.5908203125-1.943359375,5.51953125-3.0478515625,8.78515625-3.3125,3.2646484375-.263671875,6.41796875.287109375,9.45703125,1.6552734375ZM50.521484375,107.291015625c3.716796875-.599609375,7.423828125-1.125,11.1220703125-1.57421875,3.6982421875-.4482421875,7.4228515625-.7646484375,11.1728515625-.94921875-.1630859375-4.2294921875-.646484375-7.984375-1.451171875-11.267578125-.802734375-3.2802734375-1.7734375-6.025390625-2.908203125-8.234375-1.134765625-2.2080078125-2.40625-3.8671875-3.8095703125-4.9794921875-1.4052734375-1.111328125-2.7900390625-1.6123046875-4.1552734375-1.501953125-1.1884765625.0966796875-2.3701171875.8056640625-3.5478515625,2.1259765625-1.1787109375,1.3212890625-2.2216796875,3.197265625-3.12890625,5.630859375-.9091796875,2.435546875-1.6689453125,5.41015625-2.2802734375,8.9248046875-.611328125,3.5166015625-.9501953125,7.4580078125-1.013671875,11.8251953125Z"/>
          </g>
        </a>
        <a xlink:href="https://www.notion.so/congruence/B-Event-1f1a5b08a72c49f5ab60f2e0793fd0a8?pvs=4">
          <g>
            <path class="cls-3" d="M193.458984375,87.4140625c2.7763671875,1.80859375,4.923828125,4.1591796875,6.443359375,7.052734375,1.5185546875,2.8955078125,2.1708984375,5.96484375,1.9560546875,9.208984375-.2412109375,3.666015625-1.4189453125,6.8232421875-3.5341796875,9.474609375-2.1171875,2.6513671875-4.6904296875,4.81640625-7.7216796875,6.4970703125-3.0322265625,1.6796875-6.3525390625,2.9052734375-9.9658203125,3.6748046875-3.6123046875.76953125-7.0361328125,1.1083984375-10.271484375,1.01171875-.2880859375.142578125-.548828125.23828125-.783203125.2880859375-.2353515625.048828125-.4990234375.11328125-.791015625.1982421875-1.0625.14453125-2.162109375.234375-3.294921875.2666015625-1.1328125.03125-2.171875-.078125-3.119140625-.330078125-.947265625-.2509765625-1.77734375-.720703125-2.4892578125-1.4111328125-.7138671875-.689453125-1.1845703125-1.7109375-1.4150390625-3.068359375-.171875-.642578125-.3076171875-1.9609375-.408203125-3.9560546875-.103515625-1.9931640625-.2392578125-4.41796875-.41015625-7.271484375-.1181640625-2.9169921875-.26953125-6.087890625-.45703125-9.5087890625-.1875-3.421875-.3916015625-6.85546875-.611328125-10.3046875-.306640625-4.5166015625-.615234375-9.0625-.92578125-13.6396484375-.3115234375-4.5751953125-.8623046875-9.1630859375-1.65234375-13.759765625-.162109375-.5244140625-.1416015625-1.00390625.0625-1.439453125.08984375-.3662109375.3291015625-.7275390625.71875-1.0888671875.388671875-.359375.994140625-.6318359375,1.81640625-.8193359375.587890625-.1064453125,1.234375-.2490234375,1.9375-.42578125.703125-.17578125,1.4375-.3251953125,2.205078125-.447265625.765625-.12109375,1.5087890625-.181640625,2.2255859375-.1806640625.7177734375.001953125,1.3505859375.0703125,1.8994140625.205078125,2.994140625-.66015625,6.16796875-.9326171875,9.525390625-.81640625,3.35546875.1162109375,6.55078125.6494140625,9.5859375,1.5986328125s5.7158203125,2.330078125,8.044921875,4.1435546875c2.328125,1.8134765625,3.962890625,4.1162109375,4.90625,6.908203125.3984375,1.22265625.681640625,2.5146484375.8525390625,3.8740234375.1689453125,1.3623046875.1357421875,2.7841796875-.1025390625,4.2666015625-.23828125,1.484375-.6943359375,3.0458984375-1.369140625,4.6826171875-.673828125,1.638671875-1.626953125,3.3447265625-2.857421875,5.1162109375ZM169.8798828125,84.0361328125c2.8603515625-.111328125,5.2392578125-.603515625,7.1416015625-1.4755859375,1.900390625-.8701171875,3.294921875-1.923828125,4.1806640625-3.1611328125.8857421875-1.23828125,1.2578125-2.5361328125,1.1181640625-3.9013671875-.1416015625-1.361328125-.7587890625-2.537109375-1.853515625-3.5244140625-1.09765625-.986328125-2.677734375-1.6796875-4.7412109375-2.080078125-2.064453125-.400390625-4.6240234375-.267578125-7.67578125.396484375.3642578125,2.3017578125.68359375,4.5771484375.9560546875,6.8251953125.271484375,2.25.5625,4.5576171875.8740234375,6.9208984375ZM172.2392578125,109.8408203125c3.2353515625.095703125,5.9228515625-.26953125,8.0673828125-1.1025390625,2.1435546875-.830078125,3.71875-1.853515625,4.7265625-3.072265625,1.0068359375-1.2158203125,1.4716796875-2.478515625,1.396484375-3.7880859375-.076171875-1.3076171875-.6875-2.3935546875-1.833984375-3.2578125-1.14453125-.861328125-2.830078125-1.3681640625-5.052734375-1.5166015625s-4.96484375.2978515625-8.2275390625,1.3388671875l.923828125,11.3984375Z"/>
            <path class="cls-3" d="M193.458984375,87.4140625c2.7763671875,1.80859375,4.923828125,4.1591796875,6.443359375,7.052734375,1.5185546875,2.8955078125,2.1708984375,5.96484375,1.9560546875,9.208984375-.2412109375,3.666015625-1.4189453125,6.8232421875-3.5341796875,9.474609375-2.1171875,2.6513671875-4.6904296875,4.81640625-7.7216796875,6.4970703125-3.0322265625,1.6796875-6.3525390625,2.9052734375-9.9658203125,3.6748046875-3.6123046875.76953125-7.0361328125,1.1083984375-10.271484375,1.01171875-.2880859375.142578125-.548828125.23828125-.783203125.2880859375-.2353515625.048828125-.4990234375.11328125-.791015625.1982421875-1.0625.14453125-2.162109375.234375-3.294921875.2666015625-1.1328125.03125-2.171875-.078125-3.119140625-.330078125-.947265625-.2509765625-1.77734375-.720703125-2.4892578125-1.4111328125-.7138671875-.689453125-1.1845703125-1.7109375-1.4150390625-3.068359375-.171875-.642578125-.3076171875-1.9609375-.408203125-3.9560546875-.103515625-1.9931640625-.2392578125-4.41796875-.41015625-7.271484375-.1181640625-2.9169921875-.26953125-6.087890625-.45703125-9.5087890625-.1875-3.421875-.3916015625-6.85546875-.611328125-10.3046875-.306640625-4.5166015625-.615234375-9.0625-.92578125-13.6396484375-.3115234375-4.5751953125-.8623046875-9.1630859375-1.65234375-13.759765625-.162109375-.5244140625-.1416015625-1.00390625.0625-1.439453125.08984375-.3662109375.3291015625-.7275390625.71875-1.0888671875.388671875-.359375.994140625-.6318359375,1.81640625-.8193359375.587890625-.1064453125,1.234375-.2490234375,1.9375-.42578125.703125-.17578125,1.4375-.3251953125,2.205078125-.447265625.765625-.12109375,1.5087890625-.181640625,2.2255859375-.1806640625.7177734375.001953125,1.3505859375.0703125,1.8994140625.205078125,2.994140625-.66015625,6.16796875-.9326171875,9.525390625-.81640625,3.35546875.1162109375,6.55078125.6494140625,9.5859375,1.5986328125s5.7158203125,2.330078125,8.044921875,4.1435546875c2.328125,1.8134765625,3.962890625,4.1162109375,4.90625,6.908203125.3984375,1.22265625.681640625,2.5146484375.8525390625,3.8740234375.1689453125,1.3623046875.1357421875,2.7841796875-.1025390625,4.2666015625-.23828125,1.484375-.6943359375,3.0458984375-1.369140625,4.6826171875-.673828125,1.638671875-1.626953125,3.3447265625-2.857421875,5.1162109375ZM169.8798828125,84.0361328125c2.8603515625-.111328125,5.2392578125-.603515625,7.1416015625-1.4755859375,1.900390625-.8701171875,3.294921875-1.923828125,4.1806640625-3.1611328125.8857421875-1.23828125,1.2578125-2.5361328125,1.1181640625-3.9013671875-.1416015625-1.361328125-.7587890625-2.537109375-1.853515625-3.5244140625-1.09765625-.986328125-2.677734375-1.6796875-4.7412109375-2.080078125-2.064453125-.400390625-4.6240234375-.267578125-7.67578125.396484375.3642578125,2.3017578125.68359375,4.5771484375.9560546875,6.8251953125.271484375,2.25.5625,4.5576171875.8740234375,6.9208984375ZM172.2392578125,109.8408203125c3.2353515625.095703125,5.9228515625-.26953125,8.0673828125-1.1025390625,2.1435546875-.830078125,3.71875-1.853515625,4.7265625-3.072265625,1.0068359375-1.2158203125,1.4716796875-2.478515625,1.396484375-3.7880859375-.076171875-1.3076171875-.6875-2.3935546875-1.833984375-3.2578125-1.14453125-.861328125-2.830078125-1.3681640625-5.052734375-1.5166015625s-4.96484375.2978515625-8.2275390625,1.3388671875l.923828125,11.3984375Z"/>
            <path class="cls-3" d="M193.458984375,87.4140625c2.7763671875,1.80859375,4.923828125,4.1591796875,6.443359375,7.052734375,1.5185546875,2.8955078125,2.1708984375,5.96484375,1.9560546875,9.208984375-.2412109375,3.666015625-1.4189453125,6.8232421875-3.5341796875,9.474609375-2.1171875,2.6513671875-4.6904296875,4.81640625-7.7216796875,6.4970703125-3.0322265625,1.6796875-6.3525390625,2.9052734375-9.9658203125,3.6748046875-3.6123046875.76953125-7.0361328125,1.1083984375-10.271484375,1.01171875-.2880859375.142578125-.548828125.23828125-.783203125.2880859375-.2353515625.048828125-.4990234375.11328125-.791015625.1982421875-1.0625.14453125-2.162109375.234375-3.294921875.2666015625-1.1328125.03125-2.171875-.078125-3.119140625-.330078125-.947265625-.2509765625-1.77734375-.720703125-2.4892578125-1.4111328125-.7138671875-.689453125-1.1845703125-1.7109375-1.4150390625-3.068359375-.171875-.642578125-.3076171875-1.9609375-.408203125-3.9560546875-.103515625-1.9931640625-.2392578125-4.41796875-.41015625-7.271484375-.1181640625-2.9169921875-.26953125-6.087890625-.45703125-9.5087890625-.1875-3.421875-.3916015625-6.85546875-.611328125-10.3046875-.306640625-4.5166015625-.615234375-9.0625-.92578125-13.6396484375-.3115234375-4.5751953125-.8623046875-9.1630859375-1.65234375-13.759765625-.162109375-.5244140625-.1416015625-1.00390625.0625-1.439453125.08984375-.3662109375.3291015625-.7275390625.71875-1.0888671875.388671875-.359375.994140625-.6318359375,1.81640625-.8193359375.587890625-.1064453125,1.234375-.2490234375,1.9375-.42578125.703125-.17578125,1.4375-.3251953125,2.205078125-.447265625.765625-.12109375,1.5087890625-.181640625,2.2255859375-.1806640625.7177734375.001953125,1.3505859375.0703125,1.8994140625.205078125,2.994140625-.66015625,6.16796875-.9326171875,9.525390625-.81640625,3.35546875.1162109375,6.55078125.6494140625,9.5859375,1.5986328125s5.7158203125,2.330078125,8.044921875,4.1435546875c2.328125,1.8134765625,3.962890625,4.1162109375,4.90625,6.908203125.3984375,1.22265625.681640625,2.5146484375.8525390625,3.8740234375.1689453125,1.3623046875.1357421875,2.7841796875-.1025390625,4.2666015625-.23828125,1.484375-.6943359375,3.0458984375-1.369140625,4.6826171875-.673828125,1.638671875-1.626953125,3.3447265625-2.857421875,5.1162109375ZM169.8798828125,84.0361328125c2.8603515625-.111328125,5.2392578125-.603515625,7.1416015625-1.4755859375,1.900390625-.8701171875,3.294921875-1.923828125,4.1806640625-3.1611328125.8857421875-1.23828125,1.2578125-2.5361328125,1.1181640625-3.9013671875-.1416015625-1.361328125-.7587890625-2.537109375-1.853515625-3.5244140625-1.09765625-.986328125-2.677734375-1.6796875-4.7412109375-2.080078125-2.064453125-.400390625-4.6240234375-.267578125-7.67578125.396484375.3642578125,2.3017578125.68359375,4.5771484375.9560546875,6.8251953125.271484375,2.25.5625,4.5576171875.8740234375,6.9208984375ZM172.2392578125,109.8408203125c3.2353515625.095703125,5.9228515625-.26953125,8.0673828125-1.1025390625,2.1435546875-.830078125,3.71875-1.853515625,4.7265625-3.072265625,1.0068359375-1.2158203125,1.4716796875-2.478515625,1.396484375-3.7880859375-.076171875-1.3076171875-.6875-2.3935546875-1.833984375-3.2578125-1.14453125-.861328125-2.830078125-1.3681640625-5.052734375-1.5166015625s-4.96484375.2978515625-8.2275390625,1.3388671875l.923828125,11.3984375Z"/>
          </g>
        </a>
        <a xlink:href="https://www.notion.so/congruence/B-Event-1f1a5b08a72c49f5ab60f2e0793fd0a8?pvs=4">
          <g>
            <path class="cls-3" d="M98.6083984375,45.2333984375c-.0478515625-1.00390625-.2724609375-1.7412109375-.6748046875-2.212890625-.4033203125-.470703125-.88671875-.744140625-1.44921875-.8212890625-.5615234375-.076171875-1.15234375.033203125-1.771484375.326171875-.619140625.2939453125-1.169921875.6865234375-1.650390625,1.17578125-1.125,1.134765625-1.994140625,2.5341796875-2.60546875,4.19921875-.61328125,1.6669921875-.9765625,3.390625-1.09375,5.171875-.115234375,1.78125.0078125,3.5361328125.375,5.26171875.365234375,1.7265625.9794921875,3.197265625,1.8427734375,4.412109375.5498046875.7900390625,1.1787109375,1.35546875,1.8837890625,1.6982421875.7060546875.3427734375,1.4404296875.5087890625,2.205078125.5.7626953125-.009765625,1.50390625-.1923828125,2.22265625-.5458984375s1.34765625-.8466796875,1.88671875-1.482421875c.8251953125-.9697265625,1.498046875-1.6669921875,2.0205078125-2.0927734375.5205078125-.4248046875,1.1259765625-.6806640625,1.8134765625-.7724609375,1.96875-.1591796875,3.31640625.2880859375,4.044921875,1.3408203125.728515625,1.0537109375.880859375,2.396484375.45703125,4.029296875-.34765625,1.279296875-.9423828125,2.421875-1.78125,3.4287109375-.83984375,1.0068359375-1.8408203125,1.84375-3.001953125,2.5107421875-1.1640625.6669921875-2.42578125,1.169921875-3.7890625,1.505859375-1.36328125.3369140625-2.7216796875.5068359375-4.076171875.513671875-1.35546875.0048828125-2.65625-.1767578125-3.90234375-.5439453125-1.2470703125-.369140625-2.333984375-.9150390625-3.26171875-1.6396484375-1.0390625-.818359375-1.966796875-1.77734375-2.787109375-2.8759765625-.818359375-1.09765625-1.5224609375-2.275390625-2.1103515625-3.5302734375-.5888671875-1.2548828125-1.060546875-2.572265625-1.4150390625-3.9521484375-.35546875-1.3779296875-.58984375-2.7744140625-.705078125-4.19140625-.1875-3.181640625.236328125-6.3095703125,1.2734375-9.3837890625,1.037109375-3.072265625,2.51953125-5.798828125,4.447265625-8.1787109375.884765625-1.080078125,1.962890625-2.02734375,3.236328125-2.84375,1.271484375-.8154296875,2.5986328125-1.3828125,3.98046875-1.703125,1.3818359375-.3212890625,2.759765625-.36328125,4.1337890625-.126953125,1.375.236328125,2.6240234375.865234375,3.75,1.8857421875.861328125.7646484375,1.5771484375,1.6630859375,2.1474609375,2.693359375.5703125,1.0322265625,1.01953125,2.0732421875,1.34765625,3.123046875.193359375.6796875.306640625,1.3310546875.3408203125,1.9541015625.0322265625.623046875-.06640625,1.2216796875-.2978515625,1.7958984375-.32421875.72265625-.87109375,1.26171875-1.640625,1.619140625-.771484375.3583984375-1.548828125.5166015625-2.333984375.4755859375s-1.4833984375-.2880859375-2.09375-.7431640625c-.6103515625-.4541015625-.93359375-1.11328125-.9677734375-1.98046875Z"/>
            <path class="cls-3" d="M98.6083984375,45.2333984375c-.0478515625-1.00390625-.2724609375-1.7412109375-.6748046875-2.212890625-.4033203125-.470703125-.88671875-.744140625-1.44921875-.8212890625-.5615234375-.076171875-1.15234375.033203125-1.771484375.326171875-.619140625.2939453125-1.169921875.6865234375-1.650390625,1.17578125-1.125,1.134765625-1.994140625,2.5341796875-2.60546875,4.19921875-.61328125,1.6669921875-.9765625,3.390625-1.09375,5.171875-.115234375,1.78125.0078125,3.5361328125.375,5.26171875.365234375,1.7265625.9794921875,3.197265625,1.8427734375,4.412109375.5498046875.7900390625,1.1787109375,1.35546875,1.8837890625,1.6982421875.7060546875.3427734375,1.4404296875.5087890625,2.205078125.5.7626953125-.009765625,1.50390625-.1923828125,2.22265625-.5458984375s1.34765625-.8466796875,1.88671875-1.482421875c.8251953125-.9697265625,1.498046875-1.6669921875,2.0205078125-2.0927734375.5205078125-.4248046875,1.1259765625-.6806640625,1.8134765625-.7724609375,1.96875-.1591796875,3.31640625.2880859375,4.044921875,1.3408203125.728515625,1.0537109375.880859375,2.396484375.45703125,4.029296875-.34765625,1.279296875-.9423828125,2.421875-1.78125,3.4287109375-.83984375,1.0068359375-1.8408203125,1.84375-3.001953125,2.5107421875-1.1640625.6669921875-2.42578125,1.169921875-3.7890625,1.505859375-1.36328125.3369140625-2.7216796875.5068359375-4.076171875.513671875-1.35546875.0048828125-2.65625-.1767578125-3.90234375-.5439453125-1.2470703125-.369140625-2.333984375-.9150390625-3.26171875-1.6396484375-1.0390625-.818359375-1.966796875-1.77734375-2.787109375-2.8759765625-.818359375-1.09765625-1.5224609375-2.275390625-2.1103515625-3.5302734375-.5888671875-1.2548828125-1.060546875-2.572265625-1.4150390625-3.9521484375-.35546875-1.3779296875-.58984375-2.7744140625-.705078125-4.19140625-.1875-3.181640625.236328125-6.3095703125,1.2734375-9.3837890625,1.037109375-3.072265625,2.51953125-5.798828125,4.447265625-8.1787109375.884765625-1.080078125,1.962890625-2.02734375,3.236328125-2.84375,1.271484375-.8154296875,2.5986328125-1.3828125,3.98046875-1.703125,1.3818359375-.3212890625,2.759765625-.36328125,4.1337890625-.126953125,1.375.236328125,2.6240234375.865234375,3.75,1.8857421875.861328125.7646484375,1.5771484375,1.6630859375,2.1474609375,2.693359375.5703125,1.0322265625,1.01953125,2.0732421875,1.34765625,3.123046875.193359375.6796875.306640625,1.3310546875.3408203125,1.9541015625.0322265625.623046875-.06640625,1.2216796875-.2978515625,1.7958984375-.32421875.72265625-.87109375,1.26171875-1.640625,1.619140625-.771484375.3583984375-1.548828125.5166015625-2.333984375.4755859375s-1.4833984375-.2880859375-2.09375-.7431640625c-.6103515625-.4541015625-.93359375-1.11328125-.9677734375-1.98046875Z"/>
            <path class="cls-3" d="M98.6083984375,45.2333984375c-.0478515625-1.00390625-.2724609375-1.7412109375-.6748046875-2.212890625-.4033203125-.470703125-.88671875-.744140625-1.44921875-.8212890625-.5615234375-.076171875-1.15234375.033203125-1.771484375.326171875-.619140625.2939453125-1.169921875.6865234375-1.650390625,1.17578125-1.125,1.134765625-1.994140625,2.5341796875-2.60546875,4.19921875-.61328125,1.6669921875-.9765625,3.390625-1.09375,5.171875-.115234375,1.78125.0078125,3.5361328125.375,5.26171875.365234375,1.7265625.9794921875,3.197265625,1.8427734375,4.412109375.5498046875.7900390625,1.1787109375,1.35546875,1.8837890625,1.6982421875.7060546875.3427734375,1.4404296875.5087890625,2.205078125.5.7626953125-.009765625,1.50390625-.1923828125,2.22265625-.5458984375s1.34765625-.8466796875,1.88671875-1.482421875c.8251953125-.9697265625,1.498046875-1.6669921875,2.0205078125-2.0927734375.5205078125-.4248046875,1.1259765625-.6806640625,1.8134765625-.7724609375,1.96875-.1591796875,3.31640625.2880859375,4.044921875,1.3408203125.728515625,1.0537109375.880859375,2.396484375.45703125,4.029296875-.34765625,1.279296875-.9423828125,2.421875-1.78125,3.4287109375-.83984375,1.0068359375-1.8408203125,1.84375-3.001953125,2.5107421875-1.1640625.6669921875-2.42578125,1.169921875-3.7890625,1.505859375-1.36328125.3369140625-2.7216796875.5068359375-4.076171875.513671875-1.35546875.0048828125-2.65625-.1767578125-3.90234375-.5439453125-1.2470703125-.369140625-2.333984375-.9150390625-3.26171875-1.6396484375-1.0390625-.818359375-1.966796875-1.77734375-2.787109375-2.8759765625-.818359375-1.09765625-1.5224609375-2.275390625-2.1103515625-3.5302734375-.5888671875-1.2548828125-1.060546875-2.572265625-1.4150390625-3.9521484375-.35546875-1.3779296875-.58984375-2.7744140625-.705078125-4.19140625-.1875-3.181640625.236328125-6.3095703125,1.2734375-9.3837890625,1.037109375-3.072265625,2.51953125-5.798828125,4.447265625-8.1787109375.884765625-1.080078125,1.962890625-2.02734375,3.236328125-2.84375,1.271484375-.8154296875,2.5986328125-1.3828125,3.98046875-1.703125,1.3818359375-.3212890625,2.759765625-.36328125,4.1337890625-.126953125,1.375.236328125,2.6240234375.865234375,3.75,1.8857421875.861328125.7646484375,1.5771484375,1.6630859375,2.1474609375,2.693359375.5703125,1.0322265625,1.01953125,2.0732421875,1.34765625,3.123046875.193359375.6796875.306640625,1.3310546875.3408203125,1.9541015625.0322265625.623046875-.06640625,1.2216796875-.2978515625,1.7958984375-.32421875.72265625-.87109375,1.26171875-1.640625,1.619140625-.771484375.3583984375-1.548828125.5166015625-2.333984375.4755859375s-1.4833984375-.2880859375-2.09375-.7431640625c-.6103515625-.4541015625-.93359375-1.11328125-.9677734375-1.98046875Z"/>
          </g>
        </a>
        <path class="cls-3" d="M135.375,55.6298828125c-.138671875,12.25390625-.2578125,24.4013671875-.361328125,36.44140625-.1025390625,12.0390625-.1201171875,24.1865234375-.05078125,36.44140625-.138671875.859375-.3779296875,1.6494140625-.720703125,2.3642578125-.34375.5751953125-.8583984375,1.1474609375-1.54296875,1.720703125-.6865234375.57421875-1.61328125.9296875-2.7783203125,1.07421875-1.2353515625.1435546875-2.4873046875.232421875-3.7548828125.2685546875-1.2705078125.0361328125-2.4541015625-.107421875-3.55078125-.4296875-1.09765625-.322265625-2.041015625-.8955078125-2.8291015625-1.7197265625-.7900390625-.8232421875-1.2861328125-2.0595703125-1.4921875-3.708984375-.1376953125-.787109375-.2060546875-2.435546875-.2060546875-4.9443359375,0-2.5078125.0517578125-5.5361328125.154296875-9.083984375.103515625-3.546875.22265625-7.4521484375.3603515625-11.716796875.13671875-4.2626953125.30859375-8.5458984375.5146484375-12.845703125.13671875-4.2998046875.32421875-8.455078125.56640625-12.4697265625.2392578125-4.0126953125.427734375-7.595703125.5654296875-10.75.2060546875-3.654296875.4111328125-7.0947265625.6171875-10.3193359375-.0693359375-.6455078125.0341796875-1.2177734375.30859375-1.7197265625.2060546875-.4306640625.5302734375-.806640625.9775390625-1.12890625.4453125-.322265625,1.1484375-.51953125,2.109375-.591796875h3.34375c1.26953125,0,2.486328125.0908203125,3.6533203125.26953125,1.1650390625.1796875,2.1435546875.4833984375,2.9326171875.9130859375.787109375.4306640625,1.18359375,1.0751953125,1.18359375,1.935546875Z"/>
      </g>
    </g>
  </a>
</svg>