<?xml version="1.0" encoding="UTF-8"?>
<svg id="Content" xmlns="http://www.w3.org/2000/svg" xmlns:xlink="http://www.w3.org/1999/xlink" viewBox="0 0 280 280">
  <defs>
    <style>
      .cls-1 {
        stroke: #665451;
        stroke-width: 50px;
      }

      .cls-1, .cls-2 {
        fill: none;
        stroke-linecap: round;
        stroke-linejoin: round;
      }

      .cls-3 {
        fill: #fff;
      }

      .cls-2 {
        stroke: #998675;
        stroke-width: 2px;
      }
    </style>
  </defs>
  <g>
    <path d="M63.3291015625,74.5869140625c4.267578125-1.2958984375,8.4384765625-1.892578125,12.5126953125-1.783203125,4.072265625.1083984375,7.849609375.904296875,11.3349609375,2.3876953125,3.4814453125,1.4833984375,6.5517578125,3.626953125,9.20703125,6.4345703125,2.6533203125,2.8076171875,4.69140625,6.18359375,6.107421875,10.126953125,1.4169921875,3.9462890625,2.103515625,8.51171875,2.0595703125,13.6953125-.04296875,5.185546875-1.0166015625,10.8740234375-2.9208984375,17.0654296875l-6.9736328125,26.7001953125c-.4541015625,1.203125-1.0673828125,2.2236328125-1.8427734375,3.05859375-.6416015625.6650390625-1.5361328125,1.2490234375-2.6923828125,1.7548828125-1.1552734375.505859375-2.546875.5869140625-4.171875.2451171875-1.7412109375-.26953125-3.5234375-.5927734375-5.3388671875-.9755859375-1.8173828125-.3828125-3.4169921875-.970703125-4.798828125-1.759765625-1.3837890625-.7900390625-2.4736328125-1.892578125-3.2724609375-3.3125-.8017578125-1.416015625-1.0546875-3.29296875-.7626953125-5.62890625.947265625-4.494140625,2.0947265625-8.8720703125,3.4423828125-13.1357421875,1.3466796875-4.259765625,2.6474609375-8.65625,3.90234375-13.1875,1.5048828125-4.77734375,2.048828125-8.783203125,1.6318359375-12.0166015625-.41796875-3.2353515625-1.3701171875-5.70703125-2.8564453125-7.419921875-1.4892578125-1.7119140625-3.328125-2.6982421875-5.51953125-2.9609375-2.193359375-.2607421875-4.41796875.21875-6.671875,1.44140625-2.2578125,1.2236328125-4.314453125,3.162109375-6.169921875,5.8173828125-1.859375,2.65625-3.1162109375,6.0107421875-3.76953125,10.068359375-1.6689453125,9.33984375-3.1416015625,18.46875-4.421875,27.388671875-.3828125,1.818359375-1.3193359375,3.2939453125-2.8056640625,4.4287109375-1.490234375,1.134765625-3.2197265625,1.6435546875-5.1923828125,1.5283203125-1.78125-.076171875-3.583984375-.181640625-5.40234375-.3154296875-1.8212890625-.134765625-3.4609375-.529296875-4.919921875-1.185546875-1.4599609375-.6591796875-2.6826171875-1.6142578125-3.666015625-2.8701171875-.984375-1.2568359375-1.4375-3.0234375-1.3544921875-5.3046875,2.1298828125-15.3330078125,4.8818359375-30.7607421875,8.2529296875-46.28515625,3.369140625-15.521484375,7.291015625-31.052734375,11.763671875-46.5927734375.3154296875-1.03125.6953125-2.0009765625,1.13671875-2.9072265625.439453125-.9052734375,1.00390625-1.6845703125,1.6923828125-2.3408203125.685546875-.654296875,1.529296875-1.1005859375,2.5302734375-1.33984375.998046875-.2392578125,2.2158203125-.20703125,3.650390625.0947265625,1.2216796875.3583984375,2.7080078125.771484375,4.458984375,1.2392578125,1.748046875.46875,3.3828125,1.0126953125,4.900390625,1.6318359375s2.7607421875,1.3564453125,3.73046875,2.208984375c.966796875.8544921875,1.33203125,1.8544921875,1.0908203125,3.001953125-2.8671875,10.28515625-5.494140625,20.6201171875-7.880859375,31.00390625Z"/>
    <a xlink:href="https://www.notion.so/congruence/hypothesis-f8e01f142f324c2b8a2aaf7e4944f125?pvs=4">
      <path d="M124.7880859375,165.814453125c-2.2265625-.775390625-4.1865234375-1.9189453125-5.8798828125-3.431640625-1.6943359375-1.51171875-3.03125-3.2255859375-4.0126953125-5.1396484375-.98046875-1.9130859375-1.572265625-3.978515625-1.7734375-6.1943359375-.2021484375-2.2158203125.0693359375-4.3935546875.8134765625-6.5302734375l5.2294921875-15.0234375c.7587890625-2.1796875,1.9013671875-4.0654296875,3.4287109375-5.65625,1.5263671875-1.5888671875,3.271484375-2.83984375,5.236328125-3.75390625,1.9658203125-.9130859375,4.0810546875-1.435546875,6.3486328125-1.5703125,2.267578125-.1337890625,4.513671875.185546875,6.740234375.9609375l.734375.255859375c2.2705078125.7900390625,4.2529296875,1.9423828125,5.947265625,3.455078125,1.693359375,1.513671875,3.0380859375,3.2412109375,4.0341796875,5.1845703125.994140625,1.9443359375,1.5859375,4.0087890625,1.7734375,6.1943359375.1865234375,2.1875-.0986328125,4.3720703125-.8583984375,6.5517578125l-5.2294921875,15.0234375c-.744140625,2.13671875-1.8720703125,4.015625-3.3837890625,5.634765625-1.5126953125,1.6201171875-3.2578125,2.87109375-5.236328125,3.75390625-1.98046875.8837890625-4.1044921875,1.392578125-6.37109375,1.525390625-2.267578125.1337890625-4.5361328125-.1943359375-6.806640625-.984375l-.734375-.255859375ZM137.29296875,129.8916015625c-1.46875-.5107421875-2.9150390625-.4404296875-4.33984375.2109375-1.42578125.65234375-2.392578125,1.712890625-2.904296875,3.181640625l-5.2294921875,15.0234375c-.49609375,1.42578125-.388671875,2.833984375.32421875,4.23046875.7109375,1.396484375,1.8017578125,2.3486328125,3.2705078125,2.8603515625l.734375.255859375c1.55859375.5419921875,3.0380859375.484375,4.44140625-.17578125,1.4013671875-.66015625,2.3505859375-1.701171875,2.8466796875-3.126953125l5.2294921875-15.0234375c.51171875-1.46875.421875-2.896484375-.2666015625-4.28515625-.6904296875-1.3876953125-1.8134765625-2.3525390625-3.3720703125-2.8955078125l-.734375-.255859375Z"/>
    </a>
  </g>
  <g>
    <path class="cls-1" d="M63.3291015625,74.5869140625c4.267578125-1.2958984375,8.4384765625-1.892578125,12.5126953125-1.783203125,4.072265625.1083984375,7.849609375.904296875,11.3349609375,2.3876953125,3.4814453125,1.4833984375,6.5517578125,3.626953125,9.20703125,6.4345703125,2.6533203125,2.8076171875,4.69140625,6.18359375,6.107421875,10.126953125,1.4169921875,3.9462890625,2.103515625,8.51171875,2.0595703125,13.6953125-.04296875,5.185546875-1.0166015625,10.8740234375-2.9208984375,17.0654296875l-6.9736328125,26.7001953125c-.4541015625,1.203125-1.0673828125,2.2236328125-1.8427734375,3.05859375-.6416015625.6650390625-1.5361328125,1.2490234375-2.6923828125,1.7548828125-1.1552734375.505859375-2.546875.5869140625-4.171875.2451171875-1.7412109375-.26953125-3.5234375-.5927734375-5.3388671875-.9755859375-1.8173828125-.3828125-3.4169921875-.970703125-4.798828125-1.759765625-1.3837890625-.7900390625-2.4736328125-1.892578125-3.2724609375-3.3125-.8017578125-1.416015625-1.0546875-3.29296875-.7626953125-5.62890625.947265625-4.494140625,2.0947265625-8.8720703125,3.4423828125-13.1357421875,1.3466796875-4.259765625,2.6474609375-8.65625,3.90234375-13.1875,1.5048828125-4.77734375,2.048828125-8.783203125,1.6318359375-12.0166015625-.41796875-3.2353515625-1.3701171875-5.70703125-2.8564453125-7.419921875-1.4892578125-1.7119140625-3.328125-2.6982421875-5.51953125-2.9609375-2.193359375-.2607421875-4.41796875.21875-6.671875,1.44140625-2.2578125,1.2236328125-4.314453125,3.162109375-6.169921875,5.8173828125-1.859375,2.65625-3.1162109375,6.0107421875-3.76953125,10.068359375-1.6689453125,9.33984375-3.1416015625,18.46875-4.421875,27.388671875-.3828125,1.818359375-1.3193359375,3.2939453125-2.8056640625,4.4287109375-1.490234375,1.134765625-3.2197265625,1.6435546875-5.1923828125,1.5283203125-1.78125-.076171875-3.583984375-.181640625-5.40234375-.3154296875-1.8212890625-.134765625-3.4609375-.529296875-4.919921875-1.185546875-1.4599609375-.6591796875-2.6826171875-1.6142578125-3.666015625-2.8701171875-.984375-1.2568359375-1.4375-3.0234375-1.3544921875-5.3046875,2.1298828125-15.3330078125,4.8818359375-30.7607421875,8.2529296875-46.28515625,3.369140625-15.521484375,7.291015625-31.052734375,11.763671875-46.5927734375.3154296875-1.03125.6953125-2.0009765625,1.13671875-2.9072265625.439453125-.9052734375,1.00390625-1.6845703125,1.6923828125-2.3408203125.685546875-.654296875,1.529296875-1.1005859375,2.5302734375-1.33984375.998046875-.2392578125,2.2158203125-.20703125,3.650390625.0947265625,1.2216796875.3583984375,2.7080078125.771484375,4.458984375,1.2392578125,1.748046875.46875,3.3828125,1.0126953125,4.900390625,1.6318359375s2.7607421875,1.3564453125,3.73046875,2.208984375c.966796875.8544921875,1.33203125,1.8544921875,1.0908203125,3.001953125-2.8671875,10.28515625-5.494140625,20.6201171875-7.880859375,31.00390625Z"/>
    <a xlink:href="https://www.notion.so/congruence/hypothesis-f8e01f142f324c2b8a2aaf7e4944f125?pvs=4">
      <path class="cls-1" d="M124.7880859375,165.814453125c-2.2265625-.775390625-4.1865234375-1.9189453125-5.8798828125-3.431640625-1.6943359375-1.51171875-3.03125-3.2255859375-4.0126953125-5.1396484375-.98046875-1.9130859375-1.572265625-3.978515625-1.7734375-6.1943359375-.2021484375-2.2158203125.0693359375-4.3935546875.8134765625-6.5302734375l5.2294921875-15.0234375c.7587890625-2.1796875,1.9013671875-4.0654296875,3.4287109375-5.65625,1.5263671875-1.5888671875,3.271484375-2.83984375,5.236328125-3.75390625,1.9658203125-.9130859375,4.0810546875-1.435546875,6.3486328125-1.5703125,2.267578125-.1337890625,4.513671875.185546875,6.740234375.9609375l.734375.255859375c2.2705078125.7900390625,4.2529296875,1.9423828125,5.947265625,3.455078125,1.693359375,1.513671875,3.0380859375,3.2412109375,4.0341796875,5.1845703125.994140625,1.9443359375,1.5859375,4.0087890625,1.7734375,6.1943359375.1865234375,2.1875-.0986328125,4.3720703125-.8583984375,6.5517578125l-5.2294921875,15.0234375c-.744140625,2.13671875-1.8720703125,4.015625-3.3837890625,5.634765625-1.5126953125,1.6201171875-3.2578125,2.87109375-5.236328125,3.75390625-1.98046875.8837890625-4.1044921875,1.392578125-6.37109375,1.525390625-2.267578125.1337890625-4.5361328125-.1943359375-6.806640625-.984375l-.734375-.255859375ZM137.29296875,129.8916015625c-1.46875-.5107421875-2.9150390625-.4404296875-4.33984375.2109375-1.42578125.65234375-2.392578125,1.712890625-2.904296875,3.181640625l-5.2294921875,15.0234375c-.49609375,1.42578125-.388671875,2.833984375.32421875,4.23046875.7109375,1.396484375,1.8017578125,2.3486328125,3.2705078125,2.8603515625l.734375.255859375c1.55859375.5419921875,3.0380859375.484375,4.44140625-.17578125,1.4013671875-.66015625,2.3505859375-1.701171875,2.8466796875-3.126953125l5.2294921875-15.0234375c.51171875-1.46875.421875-2.896484375-.2666015625-4.28515625-.6904296875-1.3876953125-1.8134765625-2.3525390625-3.3720703125-2.8955078125l-.734375-.255859375Z"/>
    </a>
  </g>
  <g>
    <path class="cls-2" d="M63.3291015625,74.5869140625c4.267578125-1.2958984375,8.4384765625-1.892578125,12.5126953125-1.783203125,4.072265625.1083984375,7.849609375.904296875,11.3349609375,2.3876953125,3.4814453125,1.4833984375,6.5517578125,3.626953125,9.20703125,6.4345703125,2.6533203125,2.8076171875,4.69140625,6.18359375,6.107421875,10.126953125,1.4169921875,3.9462890625,2.103515625,8.51171875,2.0595703125,13.6953125-.04296875,5.185546875-1.0166015625,10.8740234375-2.9208984375,17.0654296875l-6.9736328125,26.7001953125c-.4541015625,1.203125-1.0673828125,2.2236328125-1.8427734375,3.05859375-.6416015625.6650390625-1.5361328125,1.2490234375-2.6923828125,1.7548828125-1.1552734375.505859375-2.546875.5869140625-4.171875.2451171875-1.7412109375-.26953125-3.5234375-.5927734375-5.3388671875-.9755859375-1.8173828125-.3828125-3.4169921875-.970703125-4.798828125-1.759765625-1.3837890625-.7900390625-2.4736328125-1.892578125-3.2724609375-3.3125-.8017578125-1.416015625-1.0546875-3.29296875-.7626953125-5.62890625.947265625-4.494140625,2.0947265625-8.8720703125,3.4423828125-13.1357421875,1.3466796875-4.259765625,2.6474609375-8.65625,3.90234375-13.1875,1.5048828125-4.77734375,2.048828125-8.783203125,1.6318359375-12.0166015625-.41796875-3.2353515625-1.3701171875-5.70703125-2.8564453125-7.419921875-1.4892578125-1.7119140625-3.328125-2.6982421875-5.51953125-2.9609375-2.193359375-.2607421875-4.41796875.21875-6.671875,1.44140625-2.2578125,1.2236328125-4.314453125,3.162109375-6.169921875,5.8173828125-1.859375,2.65625-3.1162109375,6.0107421875-3.76953125,10.068359375-1.6689453125,9.33984375-3.1416015625,18.46875-4.421875,27.388671875-.3828125,1.818359375-1.3193359375,3.2939453125-2.8056640625,4.4287109375-1.490234375,1.134765625-3.2197265625,1.6435546875-5.1923828125,1.5283203125-1.78125-.076171875-3.583984375-.181640625-5.40234375-.3154296875-1.8212890625-.134765625-3.4609375-.529296875-4.919921875-1.185546875-1.4599609375-.6591796875-2.6826171875-1.6142578125-3.666015625-2.8701171875-.984375-1.2568359375-1.4375-3.0234375-1.3544921875-5.3046875,2.1298828125-15.3330078125,4.8818359375-30.7607421875,8.2529296875-46.28515625,3.369140625-15.521484375,7.291015625-31.052734375,11.763671875-46.5927734375.3154296875-1.03125.6953125-2.0009765625,1.13671875-2.9072265625.439453125-.9052734375,1.00390625-1.6845703125,1.6923828125-2.3408203125.685546875-.654296875,1.529296875-1.1005859375,2.5302734375-1.33984375.998046875-.2392578125,2.2158203125-.20703125,3.650390625.0947265625,1.2216796875.3583984375,2.7080078125.771484375,4.458984375,1.2392578125,1.748046875.46875,3.3828125,1.0126953125,4.900390625,1.6318359375s2.7607421875,1.3564453125,3.73046875,2.208984375c.966796875.8544921875,1.33203125,1.8544921875,1.0908203125,3.001953125-2.8671875,10.28515625-5.494140625,20.6201171875-7.880859375,31.00390625Z"/>
    <a xlink:href="https://www.notion.so/congruence/hypothesis-f8e01f142f324c2b8a2aaf7e4944f125?pvs=4">
      <path class="cls-2" d="M124.7880859375,165.814453125c-2.2265625-.775390625-4.1865234375-1.9189453125-5.8798828125-3.431640625-1.6943359375-1.51171875-3.03125-3.2255859375-4.0126953125-5.1396484375-.98046875-1.9130859375-1.572265625-3.978515625-1.7734375-6.1943359375-.2021484375-2.2158203125.0693359375-4.3935546875.8134765625-6.5302734375l5.2294921875-15.0234375c.7587890625-2.1796875,1.9013671875-4.0654296875,3.4287109375-5.65625,1.5263671875-1.5888671875,3.271484375-2.83984375,5.236328125-3.75390625,1.9658203125-.9130859375,4.0810546875-1.435546875,6.3486328125-1.5703125,2.267578125-.1337890625,4.513671875.185546875,6.740234375.9609375l.734375.255859375c2.2705078125.7900390625,4.2529296875,1.9423828125,5.947265625,3.455078125,1.693359375,1.513671875,3.0380859375,3.2412109375,4.0341796875,5.1845703125.994140625,1.9443359375,1.5859375,4.0087890625,1.7734375,6.1943359375.1865234375,2.1875-.0986328125,4.3720703125-.8583984375,6.5517578125l-5.2294921875,15.0234375c-.744140625,2.13671875-1.8720703125,4.015625-3.3837890625,5.634765625-1.5126953125,1.6201171875-3.2578125,2.87109375-5.236328125,3.75390625-1.98046875.8837890625-4.1044921875,1.392578125-6.37109375,1.525390625-2.267578125.1337890625-4.5361328125-.1943359375-6.806640625-.984375l-.734375-.255859375ZM137.29296875,129.8916015625c-1.46875-.5107421875-2.9150390625-.4404296875-4.33984375.2109375-1.42578125.65234375-2.392578125,1.712890625-2.904296875,3.181640625l-5.2294921875,15.0234375c-.49609375,1.42578125-.388671875,2.833984375.32421875,4.23046875.7109375,1.396484375,1.8017578125,2.3486328125,3.2705078125,2.8603515625l.734375.255859375c1.55859375.5419921875,3.0380859375.484375,4.44140625-.17578125,1.4013671875-.66015625,2.3505859375-1.701171875,2.8466796875-3.126953125l5.2294921875-15.0234375c.51171875-1.46875.421875-2.896484375-.2666015625-4.28515625-.6904296875-1.3876953125-1.8134765625-2.3525390625-3.3720703125-2.8955078125l-.734375-.255859375Z"/>
    </a>
  </g>
  <g>
    <path class="cls-3" d="M63.3291015625,74.5869140625c4.267578125-1.2958984375,8.4384765625-1.892578125,12.5126953125-1.783203125,4.072265625.1083984375,7.849609375.904296875,11.3349609375,2.3876953125,3.4814453125,1.4833984375,6.5517578125,3.626953125,9.20703125,6.4345703125,2.6533203125,2.8076171875,4.69140625,6.18359375,6.107421875,10.126953125,1.4169921875,3.9462890625,2.103515625,8.51171875,2.0595703125,13.6953125-.04296875,5.185546875-1.0166015625,10.8740234375-2.9208984375,17.0654296875l-6.9736328125,26.7001953125c-.4541015625,1.203125-1.0673828125,2.2236328125-1.8427734375,3.05859375-.6416015625.6650390625-1.5361328125,1.2490234375-2.6923828125,1.7548828125-1.1552734375.505859375-2.546875.5869140625-4.171875.2451171875-1.7412109375-.26953125-3.5234375-.5927734375-5.3388671875-.9755859375-1.8173828125-.3828125-3.4169921875-.970703125-4.798828125-1.759765625-1.3837890625-.7900390625-2.4736328125-1.892578125-3.2724609375-3.3125-.8017578125-1.416015625-1.0546875-3.29296875-.7626953125-5.62890625.947265625-4.494140625,2.0947265625-8.8720703125,3.4423828125-13.1357421875,1.3466796875-4.259765625,2.6474609375-8.65625,3.90234375-13.1875,1.5048828125-4.77734375,2.048828125-8.783203125,1.6318359375-12.0166015625-.41796875-3.2353515625-1.3701171875-5.70703125-2.8564453125-7.419921875-1.4892578125-1.7119140625-3.328125-2.6982421875-5.51953125-2.9609375-2.193359375-.2607421875-4.41796875.21875-6.671875,1.44140625-2.2578125,1.2236328125-4.314453125,3.162109375-6.169921875,5.8173828125-1.859375,2.65625-3.1162109375,6.0107421875-3.76953125,10.068359375-1.6689453125,9.33984375-3.1416015625,18.46875-4.421875,27.388671875-.3828125,1.818359375-1.3193359375,3.2939453125-2.8056640625,4.4287109375-1.490234375,1.134765625-3.2197265625,1.6435546875-5.1923828125,1.5283203125-1.78125-.076171875-3.583984375-.181640625-5.40234375-.3154296875-1.8212890625-.134765625-3.4609375-.529296875-4.919921875-1.185546875-1.4599609375-.6591796875-2.6826171875-1.6142578125-3.666015625-2.8701171875-.984375-1.2568359375-1.4375-3.0234375-1.3544921875-5.3046875,2.1298828125-15.3330078125,4.8818359375-30.7607421875,8.2529296875-46.28515625,3.369140625-15.521484375,7.291015625-31.052734375,11.763671875-46.5927734375.3154296875-1.03125.6953125-2.0009765625,1.13671875-2.9072265625.439453125-.9052734375,1.00390625-1.6845703125,1.6923828125-2.3408203125.685546875-.654296875,1.529296875-1.1005859375,2.5302734375-1.33984375.998046875-.2392578125,2.2158203125-.20703125,3.650390625.0947265625,1.2216796875.3583984375,2.7080078125.771484375,4.458984375,1.2392578125,1.748046875.46875,3.3828125,1.0126953125,4.900390625,1.6318359375s2.7607421875,1.3564453125,3.73046875,2.208984375c.966796875.8544921875,1.33203125,1.8544921875,1.0908203125,3.001953125-2.8671875,10.28515625-5.494140625,20.6201171875-7.880859375,31.00390625Z"/>
    <a xlink:href="https://www.notion.so/congruence/hypothesis-f8e01f142f324c2b8a2aaf7e4944f125?pvs=4">
      <path class="cls-3" d="M124.7880859375,165.814453125c-2.2265625-.775390625-4.1865234375-1.9189453125-5.8798828125-3.431640625-1.6943359375-1.51171875-3.03125-3.2255859375-4.0126953125-5.1396484375-.98046875-1.9130859375-1.572265625-3.978515625-1.7734375-6.1943359375-.2021484375-2.2158203125.0693359375-4.3935546875.8134765625-6.5302734375l5.2294921875-15.0234375c.7587890625-2.1796875,1.9013671875-4.0654296875,3.4287109375-5.65625,1.5263671875-1.5888671875,3.271484375-2.83984375,5.236328125-3.75390625,1.9658203125-.9130859375,4.0810546875-1.435546875,6.3486328125-1.5703125,2.267578125-.1337890625,4.513671875.185546875,6.740234375.9609375l.734375.255859375c2.2705078125.7900390625,4.2529296875,1.9423828125,5.947265625,3.455078125,1.693359375,1.513671875,3.0380859375,3.2412109375,4.0341796875,5.1845703125.994140625,1.9443359375,1.5859375,4.0087890625,1.7734375,6.1943359375.1865234375,2.1875-.0986328125,4.3720703125-.8583984375,6.5517578125l-5.2294921875,15.0234375c-.744140625,2.13671875-1.8720703125,4.015625-3.3837890625,5.634765625-1.5126953125,1.6201171875-3.2578125,2.87109375-5.236328125,3.75390625-1.98046875.8837890625-4.1044921875,1.392578125-6.37109375,1.525390625-2.267578125.1337890625-4.5361328125-.1943359375-6.806640625-.984375l-.734375-.255859375ZM137.29296875,129.8916015625c-1.46875-.5107421875-2.9150390625-.4404296875-4.33984375.2109375-1.42578125.65234375-2.392578125,1.712890625-2.904296875,3.181640625l-5.2294921875,15.0234375c-.49609375,1.42578125-.388671875,2.833984375.32421875,4.23046875.7109375,1.396484375,1.8017578125,2.3486328125,3.2705078125,2.8603515625l.734375.255859375c1.55859375.5419921875,3.0380859375.484375,4.44140625-.17578125,1.4013671875-.66015625,2.3505859375-1.701171875,2.8466796875-3.126953125l5.2294921875-15.0234375c.51171875-1.46875.421875-2.896484375-.2666015625-4.28515625-.6904296875-1.3876953125-1.8134765625-2.3525390625-3.3720703125-2.8955078125l-.734375-.255859375Z"/>
    </a>
  </g>
</svg>