<?xml version="1.0" encoding="UTF-8"?>
<svg id="Content" xmlns="http://www.w3.org/2000/svg" xmlns:xlink="http://www.w3.org/1999/xlink" viewBox="0 0 280 280">
  <defs>
    <style>
      .cls-1 {
        stroke: #665451;
        stroke-width: 50px;
      }

      .cls-1, .cls-2 {
        fill: none;
        stroke-linecap: round;
        stroke-linejoin: round;
      }

      .cls-3 {
        fill: #fff;
      }

      .cls-2 {
        stroke: #998675;
        stroke-width: 2px;
      }
    </style>
  </defs>
  <g>
    <path d="M63.3271484375,74.583984375c4.267578125-1.2958984375,8.439453125-1.892578125,12.513671875-1.783203125,4.0712890625.1083984375,7.8486328125.904296875,11.333984375,2.3876953125,3.482421875,1.4833984375,6.5517578125,3.626953125,9.20703125,6.4345703125,2.654296875,2.806640625,4.69140625,6.18359375,6.1083984375,10.126953125,1.416015625,3.9462890625,2.1025390625,8.51171875,2.0595703125,13.6953125-.0439453125,5.185546875-1.017578125,10.873046875-2.9208984375,17.0654296875l-6.9736328125,26.7001953125c-.455078125,1.203125-1.068359375,2.2236328125-1.84375,3.0576171875-.640625.666015625-1.5361328125,1.25-2.6923828125,1.755859375-1.154296875.505859375-2.5458984375.5869140625-4.171875.2451171875-1.7412109375-.26953125-3.5224609375-.5927734375-5.3388671875-.9755859375-1.8173828125-.3828125-3.4169921875-.970703125-4.7978515625-1.759765625-1.3837890625-.7900390625-2.474609375-1.8935546875-3.2734375-3.3125-.8017578125-1.416015625-1.0546875-3.29296875-.76171875-5.62890625.947265625-4.4951171875,2.09375-8.8720703125,3.44140625-13.1357421875,1.3466796875-4.259765625,2.6474609375-8.6572265625,3.90234375-13.1875,1.5048828125-4.77734375,2.0498046875-8.783203125,1.6328125-12.0166015625-.4189453125-3.2353515625-1.37109375-5.70703125-2.857421875-7.419921875-1.4892578125-1.7119140625-3.3271484375-2.6982421875-5.51953125-2.9609375-2.193359375-.2607421875-4.4169921875.21875-6.671875,1.44140625-2.2568359375,1.2236328125-4.3134765625,3.162109375-6.169921875,5.81640625-1.8583984375,2.6572265625-3.1162109375,6.01171875-3.76953125,10.0693359375-1.66796875,9.33984375-3.1416015625,18.46875-4.4208984375,27.388671875-.3837890625,1.8173828125-1.3203125,3.2939453125-2.806640625,4.4287109375-1.4892578125,1.134765625-3.21875,1.6435546875-5.19140625,1.5283203125-1.7822265625-.076171875-3.583984375-.1826171875-5.4033203125-.3154296875-1.8203125-.134765625-3.4609375-.529296875-4.9189453125-1.185546875-1.4609375-.6591796875-2.6826171875-1.6142578125-3.666015625-2.8701171875-.9853515625-1.2568359375-1.4375-3.0234375-1.35546875-5.3046875,2.1298828125-15.3330078125,4.8818359375-30.7607421875,8.25390625-46.28515625,3.3681640625-15.521484375,7.291015625-31.052734375,11.763671875-46.5927734375.3154296875-1.0322265625.6953125-2.0009765625,1.13671875-2.908203125.4384765625-.904296875,1.0029296875-1.6845703125,1.69140625-2.33984375.685546875-.654296875,1.529296875-1.1005859375,2.5302734375-1.33984375.9990234375-.2392578125,2.2158203125-.20703125,3.650390625.0947265625,1.22265625.3583984375,2.7080078125.771484375,4.4599609375,1.2392578125,1.748046875.46875,3.3828125,1.01171875,4.900390625,1.630859375,1.517578125.6201171875,2.759765625,1.357421875,3.7294921875,2.2099609375.9677734375.8544921875,1.3330078125,1.8544921875,1.0908203125,3.001953125-2.8671875,10.28515625-5.4931640625,20.6201171875-7.880859375,31.00390625Z"/>
    <a xlink:href="https://www.notion.so/congruence/hypothesis-f8e01f142f324c2b8a2aaf7e4944f125?pvs=4">
      <path d="M124.7470703125,165.802734375c-2.2265625-.7744140625-4.1865234375-1.9189453125-5.8798828125-3.4306640625-1.6943359375-1.513671875-3.0322265625-3.2265625-4.0126953125-5.140625-.98046875-1.9130859375-1.572265625-3.9775390625-1.7734375-6.1943359375-.2021484375-2.2158203125.0693359375-4.392578125.8134765625-6.529296875l5.2294921875-15.0234375c.7587890625-2.1806640625,1.9013671875-4.06640625,3.4287109375-5.6572265625,1.5263671875-1.5888671875,3.271484375-2.83984375,5.236328125-3.75390625,1.9658203125-.912109375,4.0810546875-1.435546875,6.3486328125-1.5693359375,2.2666015625-.134765625,4.513671875.185546875,6.740234375.9609375l.734375.255859375c2.2705078125.7900390625,4.251953125,1.9423828125,5.9462890625,3.455078125s3.0390625,3.2412109375,4.0341796875,5.1845703125c.9951171875,1.9443359375,1.5869140625,4.0087890625,1.7744140625,6.1943359375.1865234375,2.1865234375-.0986328125,4.37109375-.8583984375,6.5517578125l-5.2294921875,15.0234375c-.744140625,2.13671875-1.873046875,4.0146484375-3.3837890625,5.6337890625-1.5126953125,1.6201171875-3.2578125,2.87109375-5.2373046875,3.7548828125-1.98046875.8828125-4.103515625,1.3916015625-6.3701171875,1.525390625-2.267578125.1337890625-4.5361328125-.1953125-6.806640625-.9853515625l-.734375-.255859375ZM137.251953125,129.880859375c-1.46875-.51171875-2.9150390625-.4404296875-4.3408203125.2109375-1.4248046875.65234375-2.392578125,1.7119140625-2.904296875,3.1806640625l-5.2294921875,15.0234375c-.49609375,1.42578125-.3876953125,2.8349609375.32421875,4.23046875.7119140625,1.3974609375,1.802734375,2.349609375,3.271484375,2.8603515625l.734375.255859375c1.5576171875.5419921875,3.037109375.4853515625,4.4404296875-.17578125,1.4013671875-.6591796875,2.3515625-1.701171875,2.84765625-3.1259765625l5.2294921875-15.0234375c.51171875-1.46875.421875-2.8974609375-.2666015625-4.28515625-.6904296875-1.3876953125-1.814453125-2.353515625-3.3720703125-2.8955078125l-.734375-.255859375Z"/>
    </a>
  </g>
  <g>
    <path class="cls-1" d="M63.3271484375,74.583984375c4.267578125-1.2958984375,8.439453125-1.892578125,12.513671875-1.783203125,4.0712890625.1083984375,7.8486328125.904296875,11.333984375,2.3876953125,3.482421875,1.4833984375,6.5517578125,3.626953125,9.20703125,6.4345703125,2.654296875,2.806640625,4.69140625,6.18359375,6.1083984375,10.126953125,1.416015625,3.9462890625,2.1025390625,8.51171875,2.0595703125,13.6953125-.0439453125,5.185546875-1.017578125,10.873046875-2.9208984375,17.0654296875l-6.9736328125,26.7001953125c-.455078125,1.203125-1.068359375,2.2236328125-1.84375,3.0576171875-.640625.666015625-1.5361328125,1.25-2.6923828125,1.755859375-1.154296875.505859375-2.5458984375.5869140625-4.171875.2451171875-1.7412109375-.26953125-3.5224609375-.5927734375-5.3388671875-.9755859375-1.8173828125-.3828125-3.4169921875-.970703125-4.7978515625-1.759765625-1.3837890625-.7900390625-2.474609375-1.8935546875-3.2734375-3.3125-.8017578125-1.416015625-1.0546875-3.29296875-.76171875-5.62890625.947265625-4.4951171875,2.09375-8.8720703125,3.44140625-13.1357421875,1.3466796875-4.259765625,2.6474609375-8.6572265625,3.90234375-13.1875,1.5048828125-4.77734375,2.0498046875-8.783203125,1.6328125-12.0166015625-.4189453125-3.2353515625-1.37109375-5.70703125-2.857421875-7.419921875-1.4892578125-1.7119140625-3.3271484375-2.6982421875-5.51953125-2.9609375-2.193359375-.2607421875-4.4169921875.21875-6.671875,1.44140625-2.2568359375,1.2236328125-4.3134765625,3.162109375-6.169921875,5.81640625-1.8583984375,2.6572265625-3.1162109375,6.01171875-3.76953125,10.0693359375-1.66796875,9.33984375-3.1416015625,18.46875-4.4208984375,27.388671875-.3837890625,1.8173828125-1.3203125,3.2939453125-2.806640625,4.4287109375-1.4892578125,1.134765625-3.21875,1.6435546875-5.19140625,1.5283203125-1.7822265625-.076171875-3.583984375-.1826171875-5.4033203125-.3154296875-1.8203125-.134765625-3.4609375-.529296875-4.9189453125-1.185546875-1.4609375-.6591796875-2.6826171875-1.6142578125-3.666015625-2.8701171875-.9853515625-1.2568359375-1.4375-3.0234375-1.35546875-5.3046875,2.1298828125-15.3330078125,4.8818359375-30.7607421875,8.25390625-46.28515625,3.3681640625-15.521484375,7.291015625-31.052734375,11.763671875-46.5927734375.3154296875-1.0322265625.6953125-2.0009765625,1.13671875-2.908203125.4384765625-.904296875,1.0029296875-1.6845703125,1.69140625-2.33984375.685546875-.654296875,1.529296875-1.1005859375,2.5302734375-1.33984375.9990234375-.2392578125,2.2158203125-.20703125,3.650390625.0947265625,1.22265625.3583984375,2.7080078125.771484375,4.4599609375,1.2392578125,1.748046875.46875,3.3828125,1.01171875,4.900390625,1.630859375,1.517578125.6201171875,2.759765625,1.357421875,3.7294921875,2.2099609375.9677734375.8544921875,1.3330078125,1.8544921875,1.0908203125,3.001953125-2.8671875,10.28515625-5.4931640625,20.6201171875-7.880859375,31.00390625Z"/>
    <a xlink:href="https://www.notion.so/congruence/hypothesis-f8e01f142f324c2b8a2aaf7e4944f125?pvs=4">
      <path class="cls-1" d="M124.7470703125,165.802734375c-2.2265625-.7744140625-4.1865234375-1.9189453125-5.8798828125-3.4306640625-1.6943359375-1.513671875-3.0322265625-3.2265625-4.0126953125-5.140625-.98046875-1.9130859375-1.572265625-3.9775390625-1.7734375-6.1943359375-.2021484375-2.2158203125.0693359375-4.392578125.8134765625-6.529296875l5.2294921875-15.0234375c.7587890625-2.1806640625,1.9013671875-4.06640625,3.4287109375-5.6572265625,1.5263671875-1.5888671875,3.271484375-2.83984375,5.236328125-3.75390625,1.9658203125-.912109375,4.0810546875-1.435546875,6.3486328125-1.5693359375,2.2666015625-.134765625,4.513671875.185546875,6.740234375.9609375l.734375.255859375c2.2705078125.7900390625,4.251953125,1.9423828125,5.9462890625,3.455078125s3.0390625,3.2412109375,4.0341796875,5.1845703125c.9951171875,1.9443359375,1.5869140625,4.0087890625,1.7744140625,6.1943359375.1865234375,2.1865234375-.0986328125,4.37109375-.8583984375,6.5517578125l-5.2294921875,15.0234375c-.744140625,2.13671875-1.873046875,4.0146484375-3.3837890625,5.6337890625-1.5126953125,1.6201171875-3.2578125,2.87109375-5.2373046875,3.7548828125-1.98046875.8828125-4.103515625,1.3916015625-6.3701171875,1.525390625-2.267578125.1337890625-4.5361328125-.1953125-6.806640625-.9853515625l-.734375-.255859375ZM137.251953125,129.880859375c-1.46875-.51171875-2.9150390625-.4404296875-4.3408203125.2109375-1.4248046875.65234375-2.392578125,1.7119140625-2.904296875,3.1806640625l-5.2294921875,15.0234375c-.49609375,1.42578125-.3876953125,2.8349609375.32421875,4.23046875.7119140625,1.3974609375,1.802734375,2.349609375,3.271484375,2.8603515625l.734375.255859375c1.5576171875.5419921875,3.037109375.4853515625,4.4404296875-.17578125,1.4013671875-.6591796875,2.3515625-1.701171875,2.84765625-3.1259765625l5.2294921875-15.0234375c.51171875-1.46875.421875-2.8974609375-.2666015625-4.28515625-.6904296875-1.3876953125-1.814453125-2.353515625-3.3720703125-2.8955078125l-.734375-.255859375Z"/>
    </a>
  </g>
  <g>
    <path class="cls-2" d="M63.3271484375,74.583984375c4.267578125-1.2958984375,8.439453125-1.892578125,12.513671875-1.783203125,4.0712890625.1083984375,7.8486328125.904296875,11.333984375,2.3876953125,3.482421875,1.4833984375,6.5517578125,3.626953125,9.20703125,6.4345703125,2.654296875,2.806640625,4.69140625,6.18359375,6.1083984375,10.126953125,1.416015625,3.9462890625,2.1025390625,8.51171875,2.0595703125,13.6953125-.0439453125,5.185546875-1.017578125,10.873046875-2.9208984375,17.0654296875l-6.9736328125,26.7001953125c-.455078125,1.203125-1.068359375,2.2236328125-1.84375,3.0576171875-.640625.666015625-1.5361328125,1.25-2.6923828125,1.755859375-1.154296875.505859375-2.5458984375.5869140625-4.171875.2451171875-1.7412109375-.26953125-3.5224609375-.5927734375-5.3388671875-.9755859375-1.8173828125-.3828125-3.4169921875-.970703125-4.7978515625-1.759765625-1.3837890625-.7900390625-2.474609375-1.8935546875-3.2734375-3.3125-.8017578125-1.416015625-1.0546875-3.29296875-.76171875-5.62890625.947265625-4.4951171875,2.09375-8.8720703125,3.44140625-13.1357421875,1.3466796875-4.259765625,2.6474609375-8.6572265625,3.90234375-13.1875,1.5048828125-4.77734375,2.0498046875-8.783203125,1.6328125-12.0166015625-.4189453125-3.2353515625-1.37109375-5.70703125-2.857421875-7.419921875-1.4892578125-1.7119140625-3.3271484375-2.6982421875-5.51953125-2.9609375-2.193359375-.2607421875-4.4169921875.21875-6.671875,1.44140625-2.2568359375,1.2236328125-4.3134765625,3.162109375-6.169921875,5.81640625-1.8583984375,2.6572265625-3.1162109375,6.01171875-3.76953125,10.0693359375-1.66796875,9.33984375-3.1416015625,18.46875-4.4208984375,27.388671875-.3837890625,1.8173828125-1.3203125,3.2939453125-2.806640625,4.4287109375-1.4892578125,1.134765625-3.21875,1.6435546875-5.19140625,1.5283203125-1.7822265625-.076171875-3.583984375-.1826171875-5.4033203125-.3154296875-1.8203125-.134765625-3.4609375-.529296875-4.9189453125-1.185546875-1.4609375-.6591796875-2.6826171875-1.6142578125-3.666015625-2.8701171875-.9853515625-1.2568359375-1.4375-3.0234375-1.35546875-5.3046875,2.1298828125-15.3330078125,4.8818359375-30.7607421875,8.25390625-46.28515625,3.3681640625-15.521484375,7.291015625-31.052734375,11.763671875-46.5927734375.3154296875-1.0322265625.6953125-2.0009765625,1.13671875-2.908203125.4384765625-.904296875,1.0029296875-1.6845703125,1.69140625-2.33984375.685546875-.654296875,1.529296875-1.1005859375,2.5302734375-1.33984375.9990234375-.2392578125,2.2158203125-.20703125,3.650390625.0947265625,1.22265625.3583984375,2.7080078125.771484375,4.4599609375,1.2392578125,1.748046875.46875,3.3828125,1.01171875,4.900390625,1.630859375,1.517578125.6201171875,2.759765625,1.357421875,3.7294921875,2.2099609375.9677734375.8544921875,1.3330078125,1.8544921875,1.0908203125,3.001953125-2.8671875,10.28515625-5.4931640625,20.6201171875-7.880859375,31.00390625Z"/>
    <a xlink:href="https://www.notion.so/congruence/hypothesis-f8e01f142f324c2b8a2aaf7e4944f125?pvs=4">
      <path class="cls-2" d="M124.7470703125,165.802734375c-2.2265625-.7744140625-4.1865234375-1.9189453125-5.8798828125-3.4306640625-1.6943359375-1.513671875-3.0322265625-3.2265625-4.0126953125-5.140625-.98046875-1.9130859375-1.572265625-3.9775390625-1.7734375-6.1943359375-.2021484375-2.2158203125.0693359375-4.392578125.8134765625-6.529296875l5.2294921875-15.0234375c.7587890625-2.1806640625,1.9013671875-4.06640625,3.4287109375-5.6572265625,1.5263671875-1.5888671875,3.271484375-2.83984375,5.236328125-3.75390625,1.9658203125-.912109375,4.0810546875-1.435546875,6.3486328125-1.5693359375,2.2666015625-.134765625,4.513671875.185546875,6.740234375.9609375l.734375.255859375c2.2705078125.7900390625,4.251953125,1.9423828125,5.9462890625,3.455078125s3.0390625,3.2412109375,4.0341796875,5.1845703125c.9951171875,1.9443359375,1.5869140625,4.0087890625,1.7744140625,6.1943359375.1865234375,2.1865234375-.0986328125,4.37109375-.8583984375,6.5517578125l-5.2294921875,15.0234375c-.744140625,2.13671875-1.873046875,4.0146484375-3.3837890625,5.6337890625-1.5126953125,1.6201171875-3.2578125,2.87109375-5.2373046875,3.7548828125-1.98046875.8828125-4.103515625,1.3916015625-6.3701171875,1.525390625-2.267578125.1337890625-4.5361328125-.1953125-6.806640625-.9853515625l-.734375-.255859375ZM137.251953125,129.880859375c-1.46875-.51171875-2.9150390625-.4404296875-4.3408203125.2109375-1.4248046875.65234375-2.392578125,1.7119140625-2.904296875,3.1806640625l-5.2294921875,15.0234375c-.49609375,1.42578125-.3876953125,2.8349609375.32421875,4.23046875.7119140625,1.3974609375,1.802734375,2.349609375,3.271484375,2.8603515625l.734375.255859375c1.5576171875.5419921875,3.037109375.4853515625,4.4404296875-.17578125,1.4013671875-.6591796875,2.3515625-1.701171875,2.84765625-3.1259765625l5.2294921875-15.0234375c.51171875-1.46875.421875-2.8974609375-.2666015625-4.28515625-.6904296875-1.3876953125-1.814453125-2.353515625-3.3720703125-2.8955078125l-.734375-.255859375Z"/>
    </a>
  </g>
  <g>
    <path class="cls-3" d="M63.3271484375,74.583984375c4.267578125-1.2958984375,8.439453125-1.892578125,12.513671875-1.783203125,4.0712890625.1083984375,7.8486328125.904296875,11.333984375,2.3876953125,3.482421875,1.4833984375,6.5517578125,3.626953125,9.20703125,6.4345703125,2.654296875,2.806640625,4.69140625,6.18359375,6.1083984375,10.126953125,1.416015625,3.9462890625,2.1025390625,8.51171875,2.0595703125,13.6953125-.0439453125,5.185546875-1.017578125,10.873046875-2.9208984375,17.0654296875l-6.9736328125,26.7001953125c-.455078125,1.203125-1.068359375,2.2236328125-1.84375,3.0576171875-.640625.666015625-1.5361328125,1.25-2.6923828125,1.755859375-1.154296875.505859375-2.5458984375.5869140625-4.171875.2451171875-1.7412109375-.26953125-3.5224609375-.5927734375-5.3388671875-.9755859375-1.8173828125-.3828125-3.4169921875-.970703125-4.7978515625-1.759765625-1.3837890625-.7900390625-2.474609375-1.8935546875-3.2734375-3.3125-.8017578125-1.416015625-1.0546875-3.29296875-.76171875-5.62890625.947265625-4.4951171875,2.09375-8.8720703125,3.44140625-13.1357421875,1.3466796875-4.259765625,2.6474609375-8.6572265625,3.90234375-13.1875,1.5048828125-4.77734375,2.0498046875-8.783203125,1.6328125-12.0166015625-.4189453125-3.2353515625-1.37109375-5.70703125-2.857421875-7.419921875-1.4892578125-1.7119140625-3.3271484375-2.6982421875-5.51953125-2.9609375-2.193359375-.2607421875-4.4169921875.21875-6.671875,1.44140625-2.2568359375,1.2236328125-4.3134765625,3.162109375-6.169921875,5.81640625-1.8583984375,2.6572265625-3.1162109375,6.01171875-3.76953125,10.0693359375-1.66796875,9.33984375-3.1416015625,18.46875-4.4208984375,27.388671875-.3837890625,1.8173828125-1.3203125,3.2939453125-2.806640625,4.4287109375-1.4892578125,1.134765625-3.21875,1.6435546875-5.19140625,1.5283203125-1.7822265625-.076171875-3.583984375-.1826171875-5.4033203125-.3154296875-1.8203125-.134765625-3.4609375-.529296875-4.9189453125-1.185546875-1.4609375-.6591796875-2.6826171875-1.6142578125-3.666015625-2.8701171875-.9853515625-1.2568359375-1.4375-3.0234375-1.35546875-5.3046875,2.1298828125-15.3330078125,4.8818359375-30.7607421875,8.25390625-46.28515625,3.3681640625-15.521484375,7.291015625-31.052734375,11.763671875-46.5927734375.3154296875-1.0322265625.6953125-2.0009765625,1.13671875-2.908203125.4384765625-.904296875,1.0029296875-1.6845703125,1.69140625-2.33984375.685546875-.654296875,1.529296875-1.1005859375,2.5302734375-1.33984375.9990234375-.2392578125,2.2158203125-.20703125,3.650390625.0947265625,1.22265625.3583984375,2.7080078125.771484375,4.4599609375,1.2392578125,1.748046875.46875,3.3828125,1.01171875,4.900390625,1.630859375,1.517578125.6201171875,2.759765625,1.357421875,3.7294921875,2.2099609375.9677734375.8544921875,1.3330078125,1.8544921875,1.0908203125,3.001953125-2.8671875,10.28515625-5.4931640625,20.6201171875-7.880859375,31.00390625Z"/>
    <a xlink:href="https://www.notion.so/congruence/hypothesis-f8e01f142f324c2b8a2aaf7e4944f125?pvs=4">
      <path class="cls-3" d="M124.7470703125,165.802734375c-2.2265625-.7744140625-4.1865234375-1.9189453125-5.8798828125-3.4306640625-1.6943359375-1.513671875-3.0322265625-3.2265625-4.0126953125-5.140625-.98046875-1.9130859375-1.572265625-3.9775390625-1.7734375-6.1943359375-.2021484375-2.2158203125.0693359375-4.392578125.8134765625-6.529296875l5.2294921875-15.0234375c.7587890625-2.1806640625,1.9013671875-4.06640625,3.4287109375-5.6572265625,1.5263671875-1.5888671875,3.271484375-2.83984375,5.236328125-3.75390625,1.9658203125-.912109375,4.0810546875-1.435546875,6.3486328125-1.5693359375,2.2666015625-.134765625,4.513671875.185546875,6.740234375.9609375l.734375.255859375c2.2705078125.7900390625,4.251953125,1.9423828125,5.9462890625,3.455078125s3.0390625,3.2412109375,4.0341796875,5.1845703125c.9951171875,1.9443359375,1.5869140625,4.0087890625,1.7744140625,6.1943359375.1865234375,2.1865234375-.0986328125,4.37109375-.8583984375,6.5517578125l-5.2294921875,15.0234375c-.744140625,2.13671875-1.873046875,4.0146484375-3.3837890625,5.6337890625-1.5126953125,1.6201171875-3.2578125,2.87109375-5.2373046875,3.7548828125-1.98046875.8828125-4.103515625,1.3916015625-6.3701171875,1.525390625-2.267578125.1337890625-4.5361328125-.1953125-6.806640625-.9853515625l-.734375-.255859375ZM137.251953125,129.880859375c-1.46875-.51171875-2.9150390625-.4404296875-4.3408203125.2109375-1.4248046875.65234375-2.392578125,1.7119140625-2.904296875,3.1806640625l-5.2294921875,15.0234375c-.49609375,1.42578125-.3876953125,2.8349609375.32421875,4.23046875.7119140625,1.3974609375,1.802734375,2.349609375,3.271484375,2.8603515625l.734375.255859375c1.5576171875.5419921875,3.037109375.4853515625,4.4404296875-.17578125,1.4013671875-.6591796875,2.3515625-1.701171875,2.84765625-3.1259765625l5.2294921875-15.0234375c.51171875-1.46875.421875-2.8974609375-.2666015625-4.28515625-.6904296875-1.3876953125-1.814453125-2.353515625-3.3720703125-2.8955078125l-.734375-.255859375Z"/>
    </a>
  </g>
</svg>