<?xml version="1.0" encoding="UTF-8"?>
<svg id="Content" xmlns="http://www.w3.org/2000/svg" xmlns:xlink="http://www.w3.org/1999/xlink" viewBox="0 0 280 280">
  <defs>
    <style>
      .cls-1 {
        stroke: #665451;
        stroke-width: 50px;
      }

      .cls-1, .cls-2 {
        fill: none;
        stroke-linecap: round;
        stroke-linejoin: round;
      }

      .cls-3 {
        fill: #fff;
      }

      .cls-2 {
        stroke: #998675;
        stroke-width: 2px;
      }
    </style>
  </defs>
  <g>
    <path d="M63.32861328125,74.5869140625c4.26806640625-1.2958984375,8.4384765625-1.892578125,12.51318359375-1.783203125,4.07177734375.1083984375,7.84912109375.904296875,11.33447265625,2.3876953125,3.48193359375,1.4833984375,6.5517578125,3.626953125,9.20751953125,6.4345703125,2.6533203125,2.8076171875,4.69091796875,6.18359375,6.10693359375,10.126953125,1.4169921875,3.9462890625,2.103515625,8.51171875,2.06005859375,13.6953125-.04345703125,5.185546875-1.01708984375,10.8740234375-2.9208984375,17.0654296875l-6.97412109375,26.7001953125c-.4541015625,1.203125-1.0673828125,2.2236328125-1.8427734375,3.05859375-.64111328125.6650390625-1.5361328125,1.2490234375-2.69189453125,1.7548828125s-2.546875.5869140625-4.17236328125.2451171875c-1.7412109375-.26953125-3.52294921875-.5927734375-5.33837890625-.9755859375-1.81787109375-.3828125-3.41748046875-.970703125-4.79931640625-1.759765625-1.38330078125-.7900390625-2.4736328125-1.892578125-3.2724609375-3.3125-.8017578125-1.416015625-1.0546875-3.29296875-.76220703125-5.62890625.94677734375-4.494140625,2.09423828125-8.8720703125,3.44189453125-13.1357421875,1.3466796875-4.259765625,2.64794921875-8.65625,3.90234375-13.1875,1.5048828125-4.77734375,2.04931640625-8.783203125,1.63232421875-12.0166015625-.41845703125-3.2353515625-1.37060546875-5.70703125-2.85693359375-7.419921875-1.4892578125-1.7119140625-3.32763671875-2.6982421875-5.51953125-2.9609375-2.19287109375-.2607421875-4.41748046875.21875-6.671875,1.44140625-2.25732421875,1.2236328125-4.31396484375,3.162109375-6.169921875,5.8173828125-1.859375,2.65625-3.1162109375,6.0107421875-3.76953125,10.068359375-1.66845703125,9.33984375-3.1416015625,18.46875-4.421875,27.388671875-.3828125,1.818359375-1.3193359375,3.2939453125-2.8056640625,4.4287109375-1.48974609375,1.134765625-3.21923828125,1.6435546875-5.19189453125,1.5283203125-1.78173828125-.076171875-3.583984375-.181640625-5.40283203125-.3154296875-1.8212890625-.134765625-3.4609375-.529296875-4.91943359375-1.185546875-1.46044921875-.6591796875-2.6826171875-1.6142578125-3.666015625-2.8701171875-.98486328125-1.2568359375-1.4375-3.0234375-1.35498046875-5.3046875,2.13037109375-15.3330078125,4.8818359375-30.7607421875,8.25341796875-46.28515625,3.36865234375-15.521484375,7.291015625-31.052734375,11.763671875-46.5927734375.3154296875-1.03125.69482421875-2.0009765625,1.13671875-2.9072265625.43896484375-.9052734375,1.00390625-1.6845703125,1.69189453125-2.3408203125.685546875-.654296875,1.529296875-1.1005859375,2.5302734375-1.33984375.998046875-.2392578125,2.21630859375-.20703125,3.650390625.0947265625,1.22216796875.3583984375,2.70849609375.771484375,4.458984375,1.2392578125,1.74853515625.46875,3.3828125,1.0126953125,4.90087890625,1.6318359375,1.517578125.619140625,2.76025390625,1.3564453125,3.73046875,2.208984375.966796875.8544921875,1.33203125,1.8544921875,1.09033203125,3.001953125-2.86669921875,10.28515625-5.494140625,20.6201171875-7.880859375,31.00390625Z"/>
    <a xlink:href="https://www.notion.so/congruence/hypothesis-f8e01f142f324c2b8a2aaf7e4944f125?pvs=4">
      <path d="M124.7880859375,165.814453125c-2.2265625-.775390625-4.1865234375-1.9189453125-5.88037109375-3.431640625-1.6943359375-1.51171875-3.03125-3.2255859375-4.0126953125-5.1396484375-.98046875-1.9130859375-1.57177734375-3.978515625-1.77294921875-6.1943359375-.20263671875-2.2158203125.06884765625-4.3935546875.81298828125-6.5302734375l5.2294921875-15.0234375c.75927734375-2.1796875,1.90185546875-4.0654296875,3.42919921875-5.65625,1.52587890625-1.5888671875,3.271484375-2.83984375,5.236328125-3.75390625,1.96533203125-.9130859375,4.0810546875-1.435546875,6.3486328125-1.5703125,2.26708984375-.1337890625,4.513671875.185546875,6.740234375.9609375l.734375.255859375c2.2705078125.7900390625,4.25244140625,1.9423828125,5.94677734375,3.455078125,1.693359375,1.513671875,3.0380859375,3.2412109375,4.0341796875,5.1845703125.99462890625,1.9443359375,1.5859375,4.0087890625,1.77392578125,6.1943359375.1865234375,2.1875-.09912109375,4.3720703125-.8583984375,6.5517578125l-5.2294921875,15.0234375c-.744140625,2.13671875-1.87255859375,4.015625-3.3837890625,5.634765625-1.5126953125,1.6201171875-3.25830078125,2.87109375-5.23681640625,3.75390625-1.97998046875.8837890625-4.10400390625,1.392578125-6.37060546875,1.525390625-2.267578125.1337890625-4.5361328125-.1943359375-6.806640625-.984375l-.734375-.255859375ZM137.29296875,129.8916015625c-1.46875-.5107421875-2.91552734375-.4404296875-4.34033203125.2109375-1.42529296875.65234375-2.392578125,1.712890625-2.904296875,3.181640625l-5.2294921875,15.0234375c-.49609375,1.42578125-.388671875,2.833984375.32421875,4.23046875.71142578125,1.396484375,1.80224609375,2.3486328125,3.27099609375,2.8603515625l.734375.255859375c1.55810546875.5419921875,3.03759765625.484375,4.44091796875-.17578125,1.4013671875-.66015625,2.3505859375-1.701171875,2.84716796875-3.126953125l5.2294921875-15.0234375c.51123046875-1.46875.421875-2.896484375-.26708984375-4.28515625-.68994140625-1.3876953125-1.8134765625-2.3525390625-3.37158203125-2.8955078125l-.734375-.255859375Z"/>
    </a>
  </g>
  <g>
    <path class="cls-1" d="M63.32861328125,74.5869140625c4.26806640625-1.2958984375,8.4384765625-1.892578125,12.51318359375-1.783203125,4.07177734375.1083984375,7.84912109375.904296875,11.33447265625,2.3876953125,3.48193359375,1.4833984375,6.5517578125,3.626953125,9.20751953125,6.4345703125,2.6533203125,2.8076171875,4.69091796875,6.18359375,6.10693359375,10.126953125,1.4169921875,3.9462890625,2.103515625,8.51171875,2.06005859375,13.6953125-.04345703125,5.185546875-1.01708984375,10.8740234375-2.9208984375,17.0654296875l-6.97412109375,26.7001953125c-.4541015625,1.203125-1.0673828125,2.2236328125-1.8427734375,3.05859375-.64111328125.6650390625-1.5361328125,1.2490234375-2.69189453125,1.7548828125s-2.546875.5869140625-4.17236328125.2451171875c-1.7412109375-.26953125-3.52294921875-.5927734375-5.33837890625-.9755859375-1.81787109375-.3828125-3.41748046875-.970703125-4.79931640625-1.759765625-1.38330078125-.7900390625-2.4736328125-1.892578125-3.2724609375-3.3125-.8017578125-1.416015625-1.0546875-3.29296875-.76220703125-5.62890625.94677734375-4.494140625,2.09423828125-8.8720703125,3.44189453125-13.1357421875,1.3466796875-4.259765625,2.64794921875-8.65625,3.90234375-13.1875,1.5048828125-4.77734375,2.04931640625-8.783203125,1.63232421875-12.0166015625-.41845703125-3.2353515625-1.37060546875-5.70703125-2.85693359375-7.419921875-1.4892578125-1.7119140625-3.32763671875-2.6982421875-5.51953125-2.9609375-2.19287109375-.2607421875-4.41748046875.21875-6.671875,1.44140625-2.25732421875,1.2236328125-4.31396484375,3.162109375-6.169921875,5.8173828125-1.859375,2.65625-3.1162109375,6.0107421875-3.76953125,10.068359375-1.66845703125,9.33984375-3.1416015625,18.46875-4.421875,27.388671875-.3828125,1.818359375-1.3193359375,3.2939453125-2.8056640625,4.4287109375-1.48974609375,1.134765625-3.21923828125,1.6435546875-5.19189453125,1.5283203125-1.78173828125-.076171875-3.583984375-.181640625-5.40283203125-.3154296875-1.8212890625-.134765625-3.4609375-.529296875-4.91943359375-1.185546875-1.46044921875-.6591796875-2.6826171875-1.6142578125-3.666015625-2.8701171875-.98486328125-1.2568359375-1.4375-3.0234375-1.35498046875-5.3046875,2.13037109375-15.3330078125,4.8818359375-30.7607421875,8.25341796875-46.28515625,3.36865234375-15.521484375,7.291015625-31.052734375,11.763671875-46.5927734375.3154296875-1.03125.69482421875-2.0009765625,1.13671875-2.9072265625.43896484375-.9052734375,1.00390625-1.6845703125,1.69189453125-2.3408203125.685546875-.654296875,1.529296875-1.1005859375,2.5302734375-1.33984375.998046875-.2392578125,2.21630859375-.20703125,3.650390625.0947265625,1.22216796875.3583984375,2.70849609375.771484375,4.458984375,1.2392578125,1.74853515625.46875,3.3828125,1.0126953125,4.90087890625,1.6318359375,1.517578125.619140625,2.76025390625,1.3564453125,3.73046875,2.208984375.966796875.8544921875,1.33203125,1.8544921875,1.09033203125,3.001953125-2.86669921875,10.28515625-5.494140625,20.6201171875-7.880859375,31.00390625Z"/>
    <a xlink:href="https://www.notion.so/congruence/hypothesis-f8e01f142f324c2b8a2aaf7e4944f125?pvs=4">
      <path class="cls-1" d="M124.7880859375,165.814453125c-2.2265625-.775390625-4.1865234375-1.9189453125-5.88037109375-3.431640625-1.6943359375-1.51171875-3.03125-3.2255859375-4.0126953125-5.1396484375-.98046875-1.9130859375-1.57177734375-3.978515625-1.77294921875-6.1943359375-.20263671875-2.2158203125.06884765625-4.3935546875.81298828125-6.5302734375l5.2294921875-15.0234375c.75927734375-2.1796875,1.90185546875-4.0654296875,3.42919921875-5.65625,1.52587890625-1.5888671875,3.271484375-2.83984375,5.236328125-3.75390625,1.96533203125-.9130859375,4.0810546875-1.435546875,6.3486328125-1.5703125,2.26708984375-.1337890625,4.513671875.185546875,6.740234375.9609375l.734375.255859375c2.2705078125.7900390625,4.25244140625,1.9423828125,5.94677734375,3.455078125,1.693359375,1.513671875,3.0380859375,3.2412109375,4.0341796875,5.1845703125.99462890625,1.9443359375,1.5859375,4.0087890625,1.77392578125,6.1943359375.1865234375,2.1875-.09912109375,4.3720703125-.8583984375,6.5517578125l-5.2294921875,15.0234375c-.744140625,2.13671875-1.87255859375,4.015625-3.3837890625,5.634765625-1.5126953125,1.6201171875-3.25830078125,2.87109375-5.23681640625,3.75390625-1.97998046875.8837890625-4.10400390625,1.392578125-6.37060546875,1.525390625-2.267578125.1337890625-4.5361328125-.1943359375-6.806640625-.984375l-.734375-.255859375ZM137.29296875,129.8916015625c-1.46875-.5107421875-2.91552734375-.4404296875-4.34033203125.2109375-1.42529296875.65234375-2.392578125,1.712890625-2.904296875,3.181640625l-5.2294921875,15.0234375c-.49609375,1.42578125-.388671875,2.833984375.32421875,4.23046875.71142578125,1.396484375,1.80224609375,2.3486328125,3.27099609375,2.8603515625l.734375.255859375c1.55810546875.5419921875,3.03759765625.484375,4.44091796875-.17578125,1.4013671875-.66015625,2.3505859375-1.701171875,2.84716796875-3.126953125l5.2294921875-15.0234375c.51123046875-1.46875.421875-2.896484375-.26708984375-4.28515625-.68994140625-1.3876953125-1.8134765625-2.3525390625-3.37158203125-2.8955078125l-.734375-.255859375Z"/>
    </a>
  </g>
  <g>
    <path class="cls-2" d="M63.32861328125,74.5869140625c4.26806640625-1.2958984375,8.4384765625-1.892578125,12.51318359375-1.783203125,4.07177734375.1083984375,7.84912109375.904296875,11.33447265625,2.3876953125,3.48193359375,1.4833984375,6.5517578125,3.626953125,9.20751953125,6.4345703125,2.6533203125,2.8076171875,4.69091796875,6.18359375,6.10693359375,10.126953125,1.4169921875,3.9462890625,2.103515625,8.51171875,2.06005859375,13.6953125-.04345703125,5.185546875-1.01708984375,10.8740234375-2.9208984375,17.0654296875l-6.97412109375,26.7001953125c-.4541015625,1.203125-1.0673828125,2.2236328125-1.8427734375,3.05859375-.64111328125.6650390625-1.5361328125,1.2490234375-2.69189453125,1.7548828125s-2.546875.5869140625-4.17236328125.2451171875c-1.7412109375-.26953125-3.52294921875-.5927734375-5.33837890625-.9755859375-1.81787109375-.3828125-3.41748046875-.970703125-4.79931640625-1.759765625-1.38330078125-.7900390625-2.4736328125-1.892578125-3.2724609375-3.3125-.8017578125-1.416015625-1.0546875-3.29296875-.76220703125-5.62890625.94677734375-4.494140625,2.09423828125-8.8720703125,3.44189453125-13.1357421875,1.3466796875-4.259765625,2.64794921875-8.65625,3.90234375-13.1875,1.5048828125-4.77734375,2.04931640625-8.783203125,1.63232421875-12.0166015625-.41845703125-3.2353515625-1.37060546875-5.70703125-2.85693359375-7.419921875-1.4892578125-1.7119140625-3.32763671875-2.6982421875-5.51953125-2.9609375-2.19287109375-.2607421875-4.41748046875.21875-6.671875,1.44140625-2.25732421875,1.2236328125-4.31396484375,3.162109375-6.169921875,5.8173828125-1.859375,2.65625-3.1162109375,6.0107421875-3.76953125,10.068359375-1.66845703125,9.33984375-3.1416015625,18.46875-4.421875,27.388671875-.3828125,1.818359375-1.3193359375,3.2939453125-2.8056640625,4.4287109375-1.48974609375,1.134765625-3.21923828125,1.6435546875-5.19189453125,1.5283203125-1.78173828125-.076171875-3.583984375-.181640625-5.40283203125-.3154296875-1.8212890625-.134765625-3.4609375-.529296875-4.91943359375-1.185546875-1.46044921875-.6591796875-2.6826171875-1.6142578125-3.666015625-2.8701171875-.98486328125-1.2568359375-1.4375-3.0234375-1.35498046875-5.3046875,2.13037109375-15.3330078125,4.8818359375-30.7607421875,8.25341796875-46.28515625,3.36865234375-15.521484375,7.291015625-31.052734375,11.763671875-46.5927734375.3154296875-1.03125.69482421875-2.0009765625,1.13671875-2.9072265625.43896484375-.9052734375,1.00390625-1.6845703125,1.69189453125-2.3408203125.685546875-.654296875,1.529296875-1.1005859375,2.5302734375-1.33984375.998046875-.2392578125,2.21630859375-.20703125,3.650390625.0947265625,1.22216796875.3583984375,2.70849609375.771484375,4.458984375,1.2392578125,1.74853515625.46875,3.3828125,1.0126953125,4.90087890625,1.6318359375,1.517578125.619140625,2.76025390625,1.3564453125,3.73046875,2.208984375.966796875.8544921875,1.33203125,1.8544921875,1.09033203125,3.001953125-2.86669921875,10.28515625-5.494140625,20.6201171875-7.880859375,31.00390625Z"/>
    <a xlink:href="https://www.notion.so/congruence/hypothesis-f8e01f142f324c2b8a2aaf7e4944f125?pvs=4">
      <path class="cls-2" d="M124.7880859375,165.814453125c-2.2265625-.775390625-4.1865234375-1.9189453125-5.88037109375-3.431640625-1.6943359375-1.51171875-3.03125-3.2255859375-4.0126953125-5.1396484375-.98046875-1.9130859375-1.57177734375-3.978515625-1.77294921875-6.1943359375-.20263671875-2.2158203125.06884765625-4.3935546875.81298828125-6.5302734375l5.2294921875-15.0234375c.75927734375-2.1796875,1.90185546875-4.0654296875,3.42919921875-5.65625,1.52587890625-1.5888671875,3.271484375-2.83984375,5.236328125-3.75390625,1.96533203125-.9130859375,4.0810546875-1.435546875,6.3486328125-1.5703125,2.26708984375-.1337890625,4.513671875.185546875,6.740234375.9609375l.734375.255859375c2.2705078125.7900390625,4.25244140625,1.9423828125,5.94677734375,3.455078125,1.693359375,1.513671875,3.0380859375,3.2412109375,4.0341796875,5.1845703125.99462890625,1.9443359375,1.5859375,4.0087890625,1.77392578125,6.1943359375.1865234375,2.1875-.09912109375,4.3720703125-.8583984375,6.5517578125l-5.2294921875,15.0234375c-.744140625,2.13671875-1.87255859375,4.015625-3.3837890625,5.634765625-1.5126953125,1.6201171875-3.25830078125,2.87109375-5.23681640625,3.75390625-1.97998046875.8837890625-4.10400390625,1.392578125-6.37060546875,1.525390625-2.267578125.1337890625-4.5361328125-.1943359375-6.806640625-.984375l-.734375-.255859375ZM137.29296875,129.8916015625c-1.46875-.5107421875-2.91552734375-.4404296875-4.34033203125.2109375-1.42529296875.65234375-2.392578125,1.712890625-2.904296875,3.181640625l-5.2294921875,15.0234375c-.49609375,1.42578125-.388671875,2.833984375.32421875,4.23046875.71142578125,1.396484375,1.80224609375,2.3486328125,3.27099609375,2.8603515625l.734375.255859375c1.55810546875.5419921875,3.03759765625.484375,4.44091796875-.17578125,1.4013671875-.66015625,2.3505859375-1.701171875,2.84716796875-3.126953125l5.2294921875-15.0234375c.51123046875-1.46875.421875-2.896484375-.26708984375-4.28515625-.68994140625-1.3876953125-1.8134765625-2.3525390625-3.37158203125-2.8955078125l-.734375-.255859375Z"/>
    </a>
  </g>
  <g>
    <path class="cls-3" d="M63.32861328125,74.5869140625c4.26806640625-1.2958984375,8.4384765625-1.892578125,12.51318359375-1.783203125,4.07177734375.1083984375,7.84912109375.904296875,11.33447265625,2.3876953125,3.48193359375,1.4833984375,6.5517578125,3.626953125,9.20751953125,6.4345703125,2.6533203125,2.8076171875,4.69091796875,6.18359375,6.10693359375,10.126953125,1.4169921875,3.9462890625,2.103515625,8.51171875,2.06005859375,13.6953125-.04345703125,5.185546875-1.01708984375,10.8740234375-2.9208984375,17.0654296875l-6.97412109375,26.7001953125c-.4541015625,1.203125-1.0673828125,2.2236328125-1.8427734375,3.05859375-.64111328125.6650390625-1.5361328125,1.2490234375-2.69189453125,1.7548828125s-2.546875.5869140625-4.17236328125.2451171875c-1.7412109375-.26953125-3.52294921875-.5927734375-5.33837890625-.9755859375-1.81787109375-.3828125-3.41748046875-.970703125-4.79931640625-1.759765625-1.38330078125-.7900390625-2.4736328125-1.892578125-3.2724609375-3.3125-.8017578125-1.416015625-1.0546875-3.29296875-.76220703125-5.62890625.94677734375-4.494140625,2.09423828125-8.8720703125,3.44189453125-13.1357421875,1.3466796875-4.259765625,2.64794921875-8.65625,3.90234375-13.1875,1.5048828125-4.77734375,2.04931640625-8.783203125,1.63232421875-12.0166015625-.41845703125-3.2353515625-1.37060546875-5.70703125-2.85693359375-7.419921875-1.4892578125-1.7119140625-3.32763671875-2.6982421875-5.51953125-2.9609375-2.19287109375-.2607421875-4.41748046875.21875-6.671875,1.44140625-2.25732421875,1.2236328125-4.31396484375,3.162109375-6.169921875,5.8173828125-1.859375,2.65625-3.1162109375,6.0107421875-3.76953125,10.068359375-1.66845703125,9.33984375-3.1416015625,18.46875-4.421875,27.388671875-.3828125,1.818359375-1.3193359375,3.2939453125-2.8056640625,4.4287109375-1.48974609375,1.134765625-3.21923828125,1.6435546875-5.19189453125,1.5283203125-1.78173828125-.076171875-3.583984375-.181640625-5.40283203125-.3154296875-1.8212890625-.134765625-3.4609375-.529296875-4.91943359375-1.185546875-1.46044921875-.6591796875-2.6826171875-1.6142578125-3.666015625-2.8701171875-.98486328125-1.2568359375-1.4375-3.0234375-1.35498046875-5.3046875,2.13037109375-15.3330078125,4.8818359375-30.7607421875,8.25341796875-46.28515625,3.36865234375-15.521484375,7.291015625-31.052734375,11.763671875-46.5927734375.3154296875-1.03125.69482421875-2.0009765625,1.13671875-2.9072265625.43896484375-.9052734375,1.00390625-1.6845703125,1.69189453125-2.3408203125.685546875-.654296875,1.529296875-1.1005859375,2.5302734375-1.33984375.998046875-.2392578125,2.21630859375-.20703125,3.650390625.0947265625,1.22216796875.3583984375,2.70849609375.771484375,4.458984375,1.2392578125,1.74853515625.46875,3.3828125,1.0126953125,4.90087890625,1.6318359375,1.517578125.619140625,2.76025390625,1.3564453125,3.73046875,2.208984375.966796875.8544921875,1.33203125,1.8544921875,1.09033203125,3.001953125-2.86669921875,10.28515625-5.494140625,20.6201171875-7.880859375,31.00390625Z"/>
    <a xlink:href="https://www.notion.so/congruence/hypothesis-f8e01f142f324c2b8a2aaf7e4944f125?pvs=4">
      <path class="cls-3" d="M124.7880859375,165.814453125c-2.2265625-.775390625-4.1865234375-1.9189453125-5.88037109375-3.431640625-1.6943359375-1.51171875-3.03125-3.2255859375-4.0126953125-5.1396484375-.98046875-1.9130859375-1.57177734375-3.978515625-1.77294921875-6.1943359375-.20263671875-2.2158203125.06884765625-4.3935546875.81298828125-6.5302734375l5.2294921875-15.0234375c.75927734375-2.1796875,1.90185546875-4.0654296875,3.42919921875-5.65625,1.52587890625-1.5888671875,3.271484375-2.83984375,5.236328125-3.75390625,1.96533203125-.9130859375,4.0810546875-1.435546875,6.3486328125-1.5703125,2.26708984375-.1337890625,4.513671875.185546875,6.740234375.9609375l.734375.255859375c2.2705078125.7900390625,4.25244140625,1.9423828125,5.94677734375,3.455078125,1.693359375,1.513671875,3.0380859375,3.2412109375,4.0341796875,5.1845703125.99462890625,1.9443359375,1.5859375,4.0087890625,1.77392578125,6.1943359375.1865234375,2.1875-.09912109375,4.3720703125-.8583984375,6.5517578125l-5.2294921875,15.0234375c-.744140625,2.13671875-1.87255859375,4.015625-3.3837890625,5.634765625-1.5126953125,1.6201171875-3.25830078125,2.87109375-5.23681640625,3.75390625-1.97998046875.8837890625-4.10400390625,1.392578125-6.37060546875,1.525390625-2.267578125.1337890625-4.5361328125-.1943359375-6.806640625-.984375l-.734375-.255859375ZM137.29296875,129.8916015625c-1.46875-.5107421875-2.91552734375-.4404296875-4.34033203125.2109375-1.42529296875.65234375-2.392578125,1.712890625-2.904296875,3.181640625l-5.2294921875,15.0234375c-.49609375,1.42578125-.388671875,2.833984375.32421875,4.23046875.71142578125,1.396484375,1.80224609375,2.3486328125,3.27099609375,2.8603515625l.734375.255859375c1.55810546875.5419921875,3.03759765625.484375,4.44091796875-.17578125,1.4013671875-.66015625,2.3505859375-1.701171875,2.84716796875-3.126953125l5.2294921875-15.0234375c.51123046875-1.46875.421875-2.896484375-.26708984375-4.28515625-.68994140625-1.3876953125-1.8134765625-2.3525390625-3.37158203125-2.8955078125l-.734375-.255859375Z"/>
    </a>
  </g>
</svg>