<?xml version="1.0" encoding="UTF-8"?>
<svg id="Content" xmlns="http://www.w3.org/2000/svg" xmlns:xlink="http://www.w3.org/1999/xlink" viewBox="0 0 280 280">
  <defs>
    <style>
      .cls-1 {
        stroke: #665451;
        stroke-width: 50px;
      }

      .cls-1, .cls-2 {
        fill: none;
        stroke-linecap: round;
        stroke-linejoin: round;
      }

      .cls-3 {
        fill: #fff;
      }

      .cls-2 {
        stroke: #998675;
        stroke-width: 2px;
      }
    </style>
  </defs>
  <g>
    <path d="M67.1796875,77.9599609375c5.04296875-1.5322265625,9.97412109375-2.2373046875,14.787109375-2.1083984375,4.8134765625.12890625,9.27734375,1.0693359375,13.3955078125,2.822265625,4.11669921875,1.7529296875,7.74365234375,4.2880859375,10.88232421875,7.6044921875,3.13623046875,3.3173828125,5.5439453125,7.30859375,7.21875,11.9697265625,1.67333984375,4.6630859375,2.48486328125,10.0576171875,2.43359375,16.18359375-.05224609375,6.1298828125-1.2021484375,12.8505859375-3.45263671875,20.1689453125l-8.24169921875,31.5546875c-.53759765625,1.4228515625-1.2607421875,2.62890625-2.17724609375,3.6142578125-.75732421875.787109375-1.81640625,1.4775390625-3.181640625,2.0751953125s-3.01123046875.693359375-4.93115234375.2890625c-2.05859375-.3173828125-4.16357421875-.7001953125-6.30908203125-1.15234375-2.1494140625-.453125-4.03857421875-1.1474609375-5.671875-2.080078125-1.63427734375-.93359375-2.9228515625-2.2373046875-3.8681640625-3.9140625-.94775390625-1.6748046875-1.24609375-3.892578125-.8994140625-6.6533203125,1.119140625-5.3115234375,2.47412109375-10.4853515625,4.06689453125-15.5234375,1.59130859375-5.03515625,3.1298828125-10.2314453125,4.61181640625-15.5849609375,1.77783203125-5.646484375,2.42138671875-10.380859375,1.92919921875-14.203125-.4951171875-3.8232421875-1.62060546875-6.744140625-3.37646484375-8.7685546875-1.759765625-2.0224609375-3.93310546875-3.1884765625-6.5224609375-3.4990234375-2.59228515625-.30859375-5.22021484375.2587890625-7.884765625,1.703125-2.6689453125,1.447265625-5.099609375,3.73828125-7.29345703125,6.875-2.1962890625,3.1396484375-3.6826171875,7.1044921875-4.455078125,11.8994140625-1.97021484375,11.037109375-3.7119140625,21.8271484375-5.22509765625,32.3681640625-.45263671875,2.1484375-1.55859375,3.89453125-3.31591796875,5.2333984375-1.76025390625,1.3427734375-3.8037109375,1.943359375-6.1357421875,1.806640625-2.1064453125-.0888671875-4.234375-.2138671875-6.384765625-.37109375-2.15234375-.16015625-4.091796875-.626953125-5.81396484375-1.4013671875-1.72607421875-.779296875-3.1708984375-1.908203125-4.33203125-3.392578125-1.166015625-1.484375-1.7001953125-3.572265625-1.60107421875-6.26953125,2.517578125-18.12109375,5.76806640625-36.353515625,9.75341796875-54.7001953125,3.97998046875-18.34375,8.6171875-36.7001953125,13.90185546875-55.0654296875.3740234375-1.21875.822265625-2.36328125,1.34375-3.435546875.51806640625-1.0693359375,1.185546875-1.9912109375,1.99951171875-2.765625.810546875-.7734375,1.80712890625-1.3017578125,2.98974609375-1.583984375,1.18017578125-.2822265625,2.61962890625-.2451171875,4.31591796875.111328125,1.44384765625.423828125,3.19970703125.9130859375,5.26904296875,1.46484375,2.06591796875.5537109375,3.9970703125,1.1962890625,5.791015625,1.927734375,1.7939453125.732421875,3.2626953125,1.603515625,4.40869140625,2.611328125,1.142578125,1.0107421875,1.5751953125,2.19140625,1.28955078125,3.5478515625-3.38818359375,12.1552734375-6.4931640625,24.3701171875-9.31396484375,36.6416015625Z"/>
    <a xlink:href="https://www.notion.so/congruence/hypothesis-f8e01f142f324c2b8a2aaf7e4944f125?pvs=4">
      <path d="M139.814453125,185.7744140625c-2.630859375-.916015625-4.947265625-2.267578125-6.94921875-4.0546875-2.0029296875-1.7880859375-3.5830078125-3.8134765625-4.7421875-6.07421875-1.1591796875-2.26171875-1.857421875-4.7021484375-2.095703125-7.322265625-.2392578125-2.6181640625.08203125-5.19140625.9609375-7.7158203125l6.1806640625-17.7548828125c.896484375-2.5771484375,2.2470703125-4.8056640625,4.0517578125-6.685546875,1.8037109375-1.8779296875,3.8671875-3.35546875,6.189453125-4.435546875s4.822265625-1.697265625,7.5029296875-1.8564453125c2.6787109375-.1591796875,5.333984375.2197265625,7.9658203125,1.1357421875l.8671875.302734375c2.68359375.93359375,5.025390625,2.294921875,7.0283203125,4.0830078125,2.0009765625,1.7880859375,3.5908203125,3.830078125,4.767578125,6.1279296875,1.17578125,2.296875,1.8740234375,4.736328125,2.0966796875,7.3203125.2197265625,2.583984375-.1171875,5.166015625-1.0146484375,7.7421875l-6.1806640625,17.755859375c-.87890625,2.5244140625-2.212890625,4.744140625-3.998046875,6.658203125-1.7880859375,1.9140625-3.8515625,3.3935546875-6.1904296875,4.4375-2.33984375,1.04296875-4.849609375,1.64453125-7.5283203125,1.802734375-2.6796875.1572265625-5.361328125-.23046875-8.0439453125-1.1640625l-.8681640625-.302734375ZM154.5927734375,143.3212890625c-1.736328125-.6044921875-3.4453125-.521484375-5.1298828125.2490234375-1.68359375.7705078125-2.828125,2.0244140625-3.431640625,3.759765625l-6.1806640625,17.7548828125c-.5869140625,1.68359375-.458984375,3.3505859375.3828125,5,.8408203125,1.650390625,2.1298828125,2.7763671875,3.8662109375,3.380859375l.8681640625.3017578125c1.8408203125.640625,3.58984375.572265625,5.248046875-.2080078125,1.65625-.779296875,2.779296875-2.0107421875,3.365234375-3.6953125l6.1806640625-17.75390625c.6044921875-1.736328125.498046875-3.423828125-.31640625-5.064453125-.8154296875-1.640625-2.1435546875-2.78125-3.984375-3.421875l-.8681640625-.302734375Z"/>
    </a>
  </g>
  <g>
    <path class="cls-1" d="M67.1796875,77.9599609375c5.04296875-1.5322265625,9.97412109375-2.2373046875,14.787109375-2.1083984375,4.8134765625.12890625,9.27734375,1.0693359375,13.3955078125,2.822265625,4.11669921875,1.7529296875,7.74365234375,4.2880859375,10.88232421875,7.6044921875,3.13623046875,3.3173828125,5.5439453125,7.30859375,7.21875,11.9697265625,1.67333984375,4.6630859375,2.48486328125,10.0576171875,2.43359375,16.18359375-.05224609375,6.1298828125-1.2021484375,12.8505859375-3.45263671875,20.1689453125l-8.24169921875,31.5546875c-.53759765625,1.4228515625-1.2607421875,2.62890625-2.17724609375,3.6142578125-.75732421875.787109375-1.81640625,1.4775390625-3.181640625,2.0751953125s-3.01123046875.693359375-4.93115234375.2890625c-2.05859375-.3173828125-4.16357421875-.7001953125-6.30908203125-1.15234375-2.1494140625-.453125-4.03857421875-1.1474609375-5.671875-2.080078125-1.63427734375-.93359375-2.9228515625-2.2373046875-3.8681640625-3.9140625-.94775390625-1.6748046875-1.24609375-3.892578125-.8994140625-6.6533203125,1.119140625-5.3115234375,2.47412109375-10.4853515625,4.06689453125-15.5234375,1.59130859375-5.03515625,3.1298828125-10.2314453125,4.61181640625-15.5849609375,1.77783203125-5.646484375,2.42138671875-10.380859375,1.92919921875-14.203125-.4951171875-3.8232421875-1.62060546875-6.744140625-3.37646484375-8.7685546875-1.759765625-2.0224609375-3.93310546875-3.1884765625-6.5224609375-3.4990234375-2.59228515625-.30859375-5.22021484375.2587890625-7.884765625,1.703125-2.6689453125,1.447265625-5.099609375,3.73828125-7.29345703125,6.875-2.1962890625,3.1396484375-3.6826171875,7.1044921875-4.455078125,11.8994140625-1.97021484375,11.037109375-3.7119140625,21.8271484375-5.22509765625,32.3681640625-.45263671875,2.1484375-1.55859375,3.89453125-3.31591796875,5.2333984375-1.76025390625,1.3427734375-3.8037109375,1.943359375-6.1357421875,1.806640625-2.1064453125-.0888671875-4.234375-.2138671875-6.384765625-.37109375-2.15234375-.16015625-4.091796875-.626953125-5.81396484375-1.4013671875-1.72607421875-.779296875-3.1708984375-1.908203125-4.33203125-3.392578125-1.166015625-1.484375-1.7001953125-3.572265625-1.60107421875-6.26953125,2.517578125-18.12109375,5.76806640625-36.353515625,9.75341796875-54.7001953125,3.97998046875-18.34375,8.6171875-36.7001953125,13.90185546875-55.0654296875.3740234375-1.21875.822265625-2.36328125,1.34375-3.435546875.51806640625-1.0693359375,1.185546875-1.9912109375,1.99951171875-2.765625.810546875-.7734375,1.80712890625-1.3017578125,2.98974609375-1.583984375,1.18017578125-.2822265625,2.61962890625-.2451171875,4.31591796875.111328125,1.44384765625.423828125,3.19970703125.9130859375,5.26904296875,1.46484375,2.06591796875.5537109375,3.9970703125,1.1962890625,5.791015625,1.927734375,1.7939453125.732421875,3.2626953125,1.603515625,4.40869140625,2.611328125,1.142578125,1.0107421875,1.5751953125,2.19140625,1.28955078125,3.5478515625-3.38818359375,12.1552734375-6.4931640625,24.3701171875-9.31396484375,36.6416015625Z"/>
    <a xlink:href="https://www.notion.so/congruence/hypothesis-f8e01f142f324c2b8a2aaf7e4944f125?pvs=4">
      <path class="cls-1" d="M139.814453125,185.7744140625c-2.630859375-.916015625-4.947265625-2.267578125-6.94921875-4.0546875-2.0029296875-1.7880859375-3.5830078125-3.8134765625-4.7421875-6.07421875-1.1591796875-2.26171875-1.857421875-4.7021484375-2.095703125-7.322265625-.2392578125-2.6181640625.08203125-5.19140625.9609375-7.7158203125l6.1806640625-17.7548828125c.896484375-2.5771484375,2.2470703125-4.8056640625,4.0517578125-6.685546875,1.8037109375-1.8779296875,3.8671875-3.35546875,6.189453125-4.435546875s4.822265625-1.697265625,7.5029296875-1.8564453125c2.6787109375-.1591796875,5.333984375.2197265625,7.9658203125,1.1357421875l.8671875.302734375c2.68359375.93359375,5.025390625,2.294921875,7.0283203125,4.0830078125,2.0009765625,1.7880859375,3.5908203125,3.830078125,4.767578125,6.1279296875,1.17578125,2.296875,1.8740234375,4.736328125,2.0966796875,7.3203125.2197265625,2.583984375-.1171875,5.166015625-1.0146484375,7.7421875l-6.1806640625,17.755859375c-.87890625,2.5244140625-2.212890625,4.744140625-3.998046875,6.658203125-1.7880859375,1.9140625-3.8515625,3.3935546875-6.1904296875,4.4375-2.33984375,1.04296875-4.849609375,1.64453125-7.5283203125,1.802734375-2.6796875.1572265625-5.361328125-.23046875-8.0439453125-1.1640625l-.8681640625-.302734375ZM154.5927734375,143.3212890625c-1.736328125-.6044921875-3.4453125-.521484375-5.1298828125.2490234375-1.68359375.7705078125-2.828125,2.0244140625-3.431640625,3.759765625l-6.1806640625,17.7548828125c-.5869140625,1.68359375-.458984375,3.3505859375.3828125,5,.8408203125,1.650390625,2.1298828125,2.7763671875,3.8662109375,3.380859375l.8681640625.3017578125c1.8408203125.640625,3.58984375.572265625,5.248046875-.2080078125,1.65625-.779296875,2.779296875-2.0107421875,3.365234375-3.6953125l6.1806640625-17.75390625c.6044921875-1.736328125.498046875-3.423828125-.31640625-5.064453125-.8154296875-1.640625-2.1435546875-2.78125-3.984375-3.421875l-.8681640625-.302734375Z"/>
    </a>
  </g>
  <g>
    <path class="cls-2" d="M67.1796875,77.9599609375c5.04296875-1.5322265625,9.97412109375-2.2373046875,14.787109375-2.1083984375,4.8134765625.12890625,9.27734375,1.0693359375,13.3955078125,2.822265625,4.11669921875,1.7529296875,7.74365234375,4.2880859375,10.88232421875,7.6044921875,3.13623046875,3.3173828125,5.5439453125,7.30859375,7.21875,11.9697265625,1.67333984375,4.6630859375,2.48486328125,10.0576171875,2.43359375,16.18359375-.05224609375,6.1298828125-1.2021484375,12.8505859375-3.45263671875,20.1689453125l-8.24169921875,31.5546875c-.53759765625,1.4228515625-1.2607421875,2.62890625-2.17724609375,3.6142578125-.75732421875.787109375-1.81640625,1.4775390625-3.181640625,2.0751953125s-3.01123046875.693359375-4.93115234375.2890625c-2.05859375-.3173828125-4.16357421875-.7001953125-6.30908203125-1.15234375-2.1494140625-.453125-4.03857421875-1.1474609375-5.671875-2.080078125-1.63427734375-.93359375-2.9228515625-2.2373046875-3.8681640625-3.9140625-.94775390625-1.6748046875-1.24609375-3.892578125-.8994140625-6.6533203125,1.119140625-5.3115234375,2.47412109375-10.4853515625,4.06689453125-15.5234375,1.59130859375-5.03515625,3.1298828125-10.2314453125,4.61181640625-15.5849609375,1.77783203125-5.646484375,2.42138671875-10.380859375,1.92919921875-14.203125-.4951171875-3.8232421875-1.62060546875-6.744140625-3.37646484375-8.7685546875-1.759765625-2.0224609375-3.93310546875-3.1884765625-6.5224609375-3.4990234375-2.59228515625-.30859375-5.22021484375.2587890625-7.884765625,1.703125-2.6689453125,1.447265625-5.099609375,3.73828125-7.29345703125,6.875-2.1962890625,3.1396484375-3.6826171875,7.1044921875-4.455078125,11.8994140625-1.97021484375,11.037109375-3.7119140625,21.8271484375-5.22509765625,32.3681640625-.45263671875,2.1484375-1.55859375,3.89453125-3.31591796875,5.2333984375-1.76025390625,1.3427734375-3.8037109375,1.943359375-6.1357421875,1.806640625-2.1064453125-.0888671875-4.234375-.2138671875-6.384765625-.37109375-2.15234375-.16015625-4.091796875-.626953125-5.81396484375-1.4013671875-1.72607421875-.779296875-3.1708984375-1.908203125-4.33203125-3.392578125-1.166015625-1.484375-1.7001953125-3.572265625-1.60107421875-6.26953125,2.517578125-18.12109375,5.76806640625-36.353515625,9.75341796875-54.7001953125,3.97998046875-18.34375,8.6171875-36.7001953125,13.90185546875-55.0654296875.3740234375-1.21875.822265625-2.36328125,1.34375-3.435546875.51806640625-1.0693359375,1.185546875-1.9912109375,1.99951171875-2.765625.810546875-.7734375,1.80712890625-1.3017578125,2.98974609375-1.583984375,1.18017578125-.2822265625,2.61962890625-.2451171875,4.31591796875.111328125,1.44384765625.423828125,3.19970703125.9130859375,5.26904296875,1.46484375,2.06591796875.5537109375,3.9970703125,1.1962890625,5.791015625,1.927734375,1.7939453125.732421875,3.2626953125,1.603515625,4.40869140625,2.611328125,1.142578125,1.0107421875,1.5751953125,2.19140625,1.28955078125,3.5478515625-3.38818359375,12.1552734375-6.4931640625,24.3701171875-9.31396484375,36.6416015625Z"/>
    <a xlink:href="https://www.notion.so/congruence/hypothesis-f8e01f142f324c2b8a2aaf7e4944f125?pvs=4">
      <path class="cls-2" d="M139.814453125,185.7744140625c-2.630859375-.916015625-4.947265625-2.267578125-6.94921875-4.0546875-2.0029296875-1.7880859375-3.5830078125-3.8134765625-4.7421875-6.07421875-1.1591796875-2.26171875-1.857421875-4.7021484375-2.095703125-7.322265625-.2392578125-2.6181640625.08203125-5.19140625.9609375-7.7158203125l6.1806640625-17.7548828125c.896484375-2.5771484375,2.2470703125-4.8056640625,4.0517578125-6.685546875,1.8037109375-1.8779296875,3.8671875-3.35546875,6.189453125-4.435546875s4.822265625-1.697265625,7.5029296875-1.8564453125c2.6787109375-.1591796875,5.333984375.2197265625,7.9658203125,1.1357421875l.8671875.302734375c2.68359375.93359375,5.025390625,2.294921875,7.0283203125,4.0830078125,2.0009765625,1.7880859375,3.5908203125,3.830078125,4.767578125,6.1279296875,1.17578125,2.296875,1.8740234375,4.736328125,2.0966796875,7.3203125.2197265625,2.583984375-.1171875,5.166015625-1.0146484375,7.7421875l-6.1806640625,17.755859375c-.87890625,2.5244140625-2.212890625,4.744140625-3.998046875,6.658203125-1.7880859375,1.9140625-3.8515625,3.3935546875-6.1904296875,4.4375-2.33984375,1.04296875-4.849609375,1.64453125-7.5283203125,1.802734375-2.6796875.1572265625-5.361328125-.23046875-8.0439453125-1.1640625l-.8681640625-.302734375ZM154.5927734375,143.3212890625c-1.736328125-.6044921875-3.4453125-.521484375-5.1298828125.2490234375-1.68359375.7705078125-2.828125,2.0244140625-3.431640625,3.759765625l-6.1806640625,17.7548828125c-.5869140625,1.68359375-.458984375,3.3505859375.3828125,5,.8408203125,1.650390625,2.1298828125,2.7763671875,3.8662109375,3.380859375l.8681640625.3017578125c1.8408203125.640625,3.58984375.572265625,5.248046875-.2080078125,1.65625-.779296875,2.779296875-2.0107421875,3.365234375-3.6953125l6.1806640625-17.75390625c.6044921875-1.736328125.498046875-3.423828125-.31640625-5.064453125-.8154296875-1.640625-2.1435546875-2.78125-3.984375-3.421875l-.8681640625-.302734375Z"/>
    </a>
  </g>
  <g>
    <path class="cls-3" d="M67.1796875,77.9599609375c5.04296875-1.5322265625,9.97412109375-2.2373046875,14.787109375-2.1083984375,4.8134765625.12890625,9.27734375,1.0693359375,13.3955078125,2.822265625,4.11669921875,1.7529296875,7.74365234375,4.2880859375,10.88232421875,7.6044921875,3.13623046875,3.3173828125,5.5439453125,7.30859375,7.21875,11.9697265625,1.67333984375,4.6630859375,2.48486328125,10.0576171875,2.43359375,16.18359375-.05224609375,6.1298828125-1.2021484375,12.8505859375-3.45263671875,20.1689453125l-8.24169921875,31.5546875c-.53759765625,1.4228515625-1.2607421875,2.62890625-2.17724609375,3.6142578125-.75732421875.787109375-1.81640625,1.4775390625-3.181640625,2.0751953125s-3.01123046875.693359375-4.93115234375.2890625c-2.05859375-.3173828125-4.16357421875-.7001953125-6.30908203125-1.15234375-2.1494140625-.453125-4.03857421875-1.1474609375-5.671875-2.080078125-1.63427734375-.93359375-2.9228515625-2.2373046875-3.8681640625-3.9140625-.94775390625-1.6748046875-1.24609375-3.892578125-.8994140625-6.6533203125,1.119140625-5.3115234375,2.47412109375-10.4853515625,4.06689453125-15.5234375,1.59130859375-5.03515625,3.1298828125-10.2314453125,4.61181640625-15.5849609375,1.77783203125-5.646484375,2.42138671875-10.380859375,1.92919921875-14.203125-.4951171875-3.8232421875-1.62060546875-6.744140625-3.37646484375-8.7685546875-1.759765625-2.0224609375-3.93310546875-3.1884765625-6.5224609375-3.4990234375-2.59228515625-.30859375-5.22021484375.2587890625-7.884765625,1.703125-2.6689453125,1.447265625-5.099609375,3.73828125-7.29345703125,6.875-2.1962890625,3.1396484375-3.6826171875,7.1044921875-4.455078125,11.8994140625-1.97021484375,11.037109375-3.7119140625,21.8271484375-5.22509765625,32.3681640625-.45263671875,2.1484375-1.55859375,3.89453125-3.31591796875,5.2333984375-1.76025390625,1.3427734375-3.8037109375,1.943359375-6.1357421875,1.806640625-2.1064453125-.0888671875-4.234375-.2138671875-6.384765625-.37109375-2.15234375-.16015625-4.091796875-.626953125-5.81396484375-1.4013671875-1.72607421875-.779296875-3.1708984375-1.908203125-4.33203125-3.392578125-1.166015625-1.484375-1.7001953125-3.572265625-1.60107421875-6.26953125,2.517578125-18.12109375,5.76806640625-36.353515625,9.75341796875-54.7001953125,3.97998046875-18.34375,8.6171875-36.7001953125,13.90185546875-55.0654296875.3740234375-1.21875.822265625-2.36328125,1.34375-3.435546875.51806640625-1.0693359375,1.185546875-1.9912109375,1.99951171875-2.765625.810546875-.7734375,1.80712890625-1.3017578125,2.98974609375-1.583984375,1.18017578125-.2822265625,2.61962890625-.2451171875,4.31591796875.111328125,1.44384765625.423828125,3.19970703125.9130859375,5.26904296875,1.46484375,2.06591796875.5537109375,3.9970703125,1.1962890625,5.791015625,1.927734375,1.7939453125.732421875,3.2626953125,1.603515625,4.40869140625,2.611328125,1.142578125,1.0107421875,1.5751953125,2.19140625,1.28955078125,3.5478515625-3.38818359375,12.1552734375-6.4931640625,24.3701171875-9.31396484375,36.6416015625Z"/>
    <a xlink:href="https://www.notion.so/congruence/hypothesis-f8e01f142f324c2b8a2aaf7e4944f125?pvs=4">
      <path class="cls-3" d="M139.814453125,185.7744140625c-2.630859375-.916015625-4.947265625-2.267578125-6.94921875-4.0546875-2.0029296875-1.7880859375-3.5830078125-3.8134765625-4.7421875-6.07421875-1.1591796875-2.26171875-1.857421875-4.7021484375-2.095703125-7.322265625-.2392578125-2.6181640625.08203125-5.19140625.9609375-7.7158203125l6.1806640625-17.7548828125c.896484375-2.5771484375,2.2470703125-4.8056640625,4.0517578125-6.685546875,1.8037109375-1.8779296875,3.8671875-3.35546875,6.189453125-4.435546875s4.822265625-1.697265625,7.5029296875-1.8564453125c2.6787109375-.1591796875,5.333984375.2197265625,7.9658203125,1.1357421875l.8671875.302734375c2.68359375.93359375,5.025390625,2.294921875,7.0283203125,4.0830078125,2.0009765625,1.7880859375,3.5908203125,3.830078125,4.767578125,6.1279296875,1.17578125,2.296875,1.8740234375,4.736328125,2.0966796875,7.3203125.2197265625,2.583984375-.1171875,5.166015625-1.0146484375,7.7421875l-6.1806640625,17.755859375c-.87890625,2.5244140625-2.212890625,4.744140625-3.998046875,6.658203125-1.7880859375,1.9140625-3.8515625,3.3935546875-6.1904296875,4.4375-2.33984375,1.04296875-4.849609375,1.64453125-7.5283203125,1.802734375-2.6796875.1572265625-5.361328125-.23046875-8.0439453125-1.1640625l-.8681640625-.302734375ZM154.5927734375,143.3212890625c-1.736328125-.6044921875-3.4453125-.521484375-5.1298828125.2490234375-1.68359375.7705078125-2.828125,2.0244140625-3.431640625,3.759765625l-6.1806640625,17.7548828125c-.5869140625,1.68359375-.458984375,3.3505859375.3828125,5,.8408203125,1.650390625,2.1298828125,2.7763671875,3.8662109375,3.380859375l.8681640625.3017578125c1.8408203125.640625,3.58984375.572265625,5.248046875-.2080078125,1.65625-.779296875,2.779296875-2.0107421875,3.365234375-3.6953125l6.1806640625-17.75390625c.6044921875-1.736328125.498046875-3.423828125-.31640625-5.064453125-.8154296875-1.640625-2.1435546875-2.78125-3.984375-3.421875l-.8681640625-.302734375Z"/>
    </a>
  </g>
</svg>