<?xml version="1.0" encoding="UTF-8"?>
<svg id="Content" xmlns="http://www.w3.org/2000/svg" viewBox="0 0 280 280">
  <defs>
    <style>
      .cls-1 {
        stroke: #665451;
        stroke-width: 50px;
      }

      .cls-1, .cls-2 {
        fill: none;
        stroke-linecap: round;
        stroke-linejoin: round;
      }

      .cls-3 {
        fill: #fff;
      }

      .cls-2 {
        stroke: #998675;
        stroke-width: 2px;
      }
    </style>
  </defs>
  <path class="cls-1" d="M154.142578125,79.9609375c-13.955078125,15.9736328125-27.443359375,32.19921875-40.466796875,48.68359375-13.0234375,16.482421875-25.62109375,33.3994140625-37.7890625,50.7451171875-.1953125.3251953125-.517578125.6865234375-.97265625,1.076171875-.7421875.5732421875-1.599609375,1.1220703125-2.57421875,1.64453125-1.119140625.615234375-2.423828125.9716796875-3.919921875,1.072265625-1.49609375.099609375-3.189453125-.3037109375-5.078125-1.2080078125-1.865234375-1.0244140625-3.73828125-2.142578125-5.619140625-3.35546875-1.884765625-1.212890625-3.453125-2.6025390625-4.703125-4.1669921875-1.25390625-1.56640625-2.00390625-3.3251953125-2.24609375-5.2861328125-.248046875-1.95703125.29296875-4.2646484375,1.61328125-6.9228515625.775390625-1.302734375,2.423828125-3.765625,4.943359375-7.388671875,2.515625-3.6220703125,5.73828125-7.951171875,9.673828125-12.982421875,3.787109375-4.9404296875,8.04296875-10.3291015625,12.76953125-16.1708984375,4.720703125-5.83984375,9.578125-11.712890625,14.5625-17.619140625,3.828125-4.5615234375,7.4140625-8.716796875,10.7578125-12.466796875,3.341796875-3.748046875,6.595703125-7.36328125,9.755859375-10.845703125,3.162109375-3.478515625,6.310546875-6.904296875,9.4453125-10.267578125,3.134765625-3.365234375,6.48046875-6.98828125,10.0390625-10.8759765625.818359375-.9248046875,1.62890625-1.5439453125,2.435546875-1.859375.689453125-.337890625,1.54296875-.45703125,2.56640625-.3564453125,1.021484375.103515625,2.216796875.671875,3.5859375,1.7099609375,1.251953125,1.0126953125,2.734375,2.23046875,4.44921875,3.6494140625,1.712890625,1.423828125,3.2265625,2.921875,4.5390625,4.5,1.310546875,1.5791015625,2.263671875,3.109375,2.857421875,4.5908203125.595703125,1.484375.388671875,2.849609375-.625,4.1005859375ZM94.330078125,51.142578125c2.576171875.56640625,4.8984375,1.6015625,6.96484375,3.09765625,2.06640625,1.5,3.791015625,3.29296875,5.17578125,5.376953125,1.384765625,2.0859375,2.314453125,4.41015625,2.796875,6.9716796875.478515625,2.5654296875.435546875,5.1357421875-.130859375,7.7119140625-.56640625,2.578125-1.6015625,4.8984375-3.09765625,6.96484375-1.5,2.06640625-3.3125,3.7568359375-5.4453125,5.0673828125-2.130859375,1.3134765625-4.44921875,2.2177734375-6.953125,2.708984375-2.50390625.494140625-5.046875.4560546875-7.623046875-.1103515625-2.578125-.5673828125-4.900390625-1.5986328125-6.96484375-3.0986328125-2.06640625-1.4970703125-3.763671875-3.2841796875-5.0859375-5.3564453125-1.328125-2.072265625-2.23828125-4.3623046875-2.728515625-6.865234375-.494140625-2.50390625-.45703125-5.044921875.109375-7.623046875.56640625-2.576171875,1.60546875-4.927734375,3.119140625-7.0537109375,1.5078125-2.1240234375,3.30078125-3.8486328125,5.376953125-5.1748046875,2.068359375-1.3232421875,4.359375-2.2333984375,6.86328125-2.728515625,2.50390625-.4912109375,5.044921875-.4560546875,7.623046875.111328125ZM93.845703125,70.9365234375c.2578125-1.169921875.10546875-2.15625-.455078125-2.9560546875-.5625-.7978515625-1.369140625-1.314453125-2.423828125-1.546875-2.345703125-.515625-3.78515625.45703125-4.328125,2.91796875-.48828125,2.2265625.435546875,3.5966796875,2.78125,4.11328125,1.0546875.2314453125,2.00390625.103515625,2.849609375-.3876953125.84375-.4873046875,1.369140625-1.201171875,1.576171875-2.140625ZM127.859375,156.7314453125c2.576171875.56640625,4.927734375,1.6083984375,7.0546875,3.1171875,2.12109375,1.5126953125,3.84765625,3.3056640625,5.173828125,5.376953125,1.32421875,2.0732421875,2.2265625,4.3916015625,2.70703125,6.953125.48046875,2.564453125.439453125,5.134765625-.126953125,7.7109375-.568359375,2.5791015625-1.6015625,4.8994140625-3.099609375,6.9658203125-1.5,2.064453125-3.29296875,3.7900390625-5.376953125,5.173828125-2.0859375,1.3837890625-4.41015625,2.318359375-6.970703125,2.796875-2.56640625.48046875-5.13671875.4375-7.712890625-.12890625-2.578125-.5673828125-4.8984375-1.599609375-6.96484375-3.0986328125-2.06640625-1.4970703125-3.78515625-3.3203125-5.15625-5.46484375-1.37109375-2.1435546875-2.3046875-4.46875-2.794921875-6.9716796875-.494140625-2.50390625-.45703125-5.0439453125.109375-7.623046875.56640625-2.576171875,1.60546875-4.927734375,3.1171875-7.0537109375,1.509765625-2.1240234375,3.333984375-3.8427734375,5.46484375-5.1552734375,2.130859375-1.3115234375,4.44921875-2.21484375,6.953125-2.708984375,2.50390625-.4912109375,5.04296875-.45703125,7.623046875.1103515625ZM127.375,176.5263671875c.232421875-1.0546875.07421875-2.0107421875-.474609375-2.869140625-.548828125-.857421875-1.349609375-1.4013671875-2.404296875-1.6337890625-.939453125-.20703125-1.865234375-.0419921875-2.779296875.4931640625-.919921875.5361328125-1.4921875,1.3310546875-1.72265625,2.3857421875-.20703125.939453125-.015625,1.87109375.58203125,2.7998046875.591796875.9306640625,1.35546875,1.4970703125,2.294921875,1.703125,1.056640625.232421875,2.017578125.0458984375,2.888671875-.5625.87109375-.6064453125,1.408203125-1.376953125,1.615234375-2.31640625Z"/>
  <path class="cls-2" d="M154.142578125,79.9609375c-13.955078125,15.9736328125-27.443359375,32.19921875-40.466796875,48.68359375-13.0234375,16.482421875-25.62109375,33.3994140625-37.7890625,50.7451171875-.1953125.3251953125-.517578125.6865234375-.97265625,1.076171875-.7421875.5732421875-1.599609375,1.1220703125-2.57421875,1.64453125-1.119140625.615234375-2.423828125.9716796875-3.919921875,1.072265625-1.49609375.099609375-3.189453125-.3037109375-5.078125-1.2080078125-1.865234375-1.0244140625-3.73828125-2.142578125-5.619140625-3.35546875-1.884765625-1.212890625-3.453125-2.6025390625-4.703125-4.1669921875-1.25390625-1.56640625-2.00390625-3.3251953125-2.24609375-5.2861328125-.248046875-1.95703125.29296875-4.2646484375,1.61328125-6.9228515625.775390625-1.302734375,2.423828125-3.765625,4.943359375-7.388671875,2.515625-3.6220703125,5.73828125-7.951171875,9.673828125-12.982421875,3.787109375-4.9404296875,8.04296875-10.3291015625,12.76953125-16.1708984375,4.720703125-5.83984375,9.578125-11.712890625,14.5625-17.619140625,3.828125-4.5615234375,7.4140625-8.716796875,10.7578125-12.466796875,3.341796875-3.748046875,6.595703125-7.36328125,9.755859375-10.845703125,3.162109375-3.478515625,6.310546875-6.904296875,9.4453125-10.267578125,3.134765625-3.365234375,6.48046875-6.98828125,10.0390625-10.8759765625.818359375-.9248046875,1.62890625-1.5439453125,2.435546875-1.859375.689453125-.337890625,1.54296875-.45703125,2.56640625-.3564453125,1.021484375.103515625,2.216796875.671875,3.5859375,1.7099609375,1.251953125,1.0126953125,2.734375,2.23046875,4.44921875,3.6494140625,1.712890625,1.423828125,3.2265625,2.921875,4.5390625,4.5,1.310546875,1.5791015625,2.263671875,3.109375,2.857421875,4.5908203125.595703125,1.484375.388671875,2.849609375-.625,4.1005859375ZM94.330078125,51.142578125c2.576171875.56640625,4.8984375,1.6015625,6.96484375,3.09765625,2.06640625,1.5,3.791015625,3.29296875,5.17578125,5.376953125,1.384765625,2.0859375,2.314453125,4.41015625,2.796875,6.9716796875.478515625,2.5654296875.435546875,5.1357421875-.130859375,7.7119140625-.56640625,2.578125-1.6015625,4.8984375-3.09765625,6.96484375-1.5,2.06640625-3.3125,3.7568359375-5.4453125,5.0673828125-2.130859375,1.3134765625-4.44921875,2.2177734375-6.953125,2.708984375-2.50390625.494140625-5.046875.4560546875-7.623046875-.1103515625-2.578125-.5673828125-4.900390625-1.5986328125-6.96484375-3.0986328125-2.06640625-1.4970703125-3.763671875-3.2841796875-5.0859375-5.3564453125-1.328125-2.072265625-2.23828125-4.3623046875-2.728515625-6.865234375-.494140625-2.50390625-.45703125-5.044921875.109375-7.623046875.56640625-2.576171875,1.60546875-4.927734375,3.119140625-7.0537109375,1.5078125-2.1240234375,3.30078125-3.8486328125,5.376953125-5.1748046875,2.068359375-1.3232421875,4.359375-2.2333984375,6.86328125-2.728515625,2.50390625-.4912109375,5.044921875-.4560546875,7.623046875.111328125ZM93.845703125,70.9365234375c.2578125-1.169921875.10546875-2.15625-.455078125-2.9560546875-.5625-.7978515625-1.369140625-1.314453125-2.423828125-1.546875-2.345703125-.515625-3.78515625.45703125-4.328125,2.91796875-.48828125,2.2265625.435546875,3.5966796875,2.78125,4.11328125,1.0546875.2314453125,2.00390625.103515625,2.849609375-.3876953125.84375-.4873046875,1.369140625-1.201171875,1.576171875-2.140625ZM127.859375,156.7314453125c2.576171875.56640625,4.927734375,1.6083984375,7.0546875,3.1171875,2.12109375,1.5126953125,3.84765625,3.3056640625,5.173828125,5.376953125,1.32421875,2.0732421875,2.2265625,4.3916015625,2.70703125,6.953125.48046875,2.564453125.439453125,5.134765625-.126953125,7.7109375-.568359375,2.5791015625-1.6015625,4.8994140625-3.099609375,6.9658203125-1.5,2.064453125-3.29296875,3.7900390625-5.376953125,5.173828125-2.0859375,1.3837890625-4.41015625,2.318359375-6.970703125,2.796875-2.56640625.48046875-5.13671875.4375-7.712890625-.12890625-2.578125-.5673828125-4.8984375-1.599609375-6.96484375-3.0986328125-2.06640625-1.4970703125-3.78515625-3.3203125-5.15625-5.46484375-1.37109375-2.1435546875-2.3046875-4.46875-2.794921875-6.9716796875-.494140625-2.50390625-.45703125-5.0439453125.109375-7.623046875.56640625-2.576171875,1.60546875-4.927734375,3.1171875-7.0537109375,1.509765625-2.1240234375,3.333984375-3.8427734375,5.46484375-5.1552734375,2.130859375-1.3115234375,4.44921875-2.21484375,6.953125-2.708984375,2.50390625-.4912109375,5.04296875-.45703125,7.623046875.1103515625ZM127.375,176.5263671875c.232421875-1.0546875.07421875-2.0107421875-.474609375-2.869140625-.548828125-.857421875-1.349609375-1.4013671875-2.404296875-1.6337890625-.939453125-.20703125-1.865234375-.0419921875-2.779296875.4931640625-.919921875.5361328125-1.4921875,1.3310546875-1.72265625,2.3857421875-.20703125.939453125-.015625,1.87109375.58203125,2.7998046875.591796875.9306640625,1.35546875,1.4970703125,2.294921875,1.703125,1.056640625.232421875,2.017578125.0458984375,2.888671875-.5625.87109375-.6064453125,1.408203125-1.376953125,1.615234375-2.31640625Z"/>
  <path class="cls-3" d="M154.142578125,79.9609375c-13.955078125,15.9736328125-27.443359375,32.19921875-40.466796875,48.68359375-13.0234375,16.482421875-25.62109375,33.3994140625-37.7890625,50.7451171875-.1953125.3251953125-.517578125.6865234375-.97265625,1.076171875-.7421875.5732421875-1.599609375,1.1220703125-2.57421875,1.64453125-1.119140625.615234375-2.423828125.9716796875-3.919921875,1.072265625-1.49609375.099609375-3.189453125-.3037109375-5.078125-1.2080078125-1.865234375-1.0244140625-3.73828125-2.142578125-5.619140625-3.35546875-1.884765625-1.212890625-3.453125-2.6025390625-4.703125-4.1669921875-1.25390625-1.56640625-2.00390625-3.3251953125-2.24609375-5.2861328125-.248046875-1.95703125.29296875-4.2646484375,1.61328125-6.9228515625.775390625-1.302734375,2.423828125-3.765625,4.943359375-7.388671875,2.515625-3.6220703125,5.73828125-7.951171875,9.673828125-12.982421875,3.787109375-4.9404296875,8.04296875-10.3291015625,12.76953125-16.1708984375,4.720703125-5.83984375,9.578125-11.712890625,14.5625-17.619140625,3.828125-4.5615234375,7.4140625-8.716796875,10.7578125-12.466796875,3.341796875-3.748046875,6.595703125-7.36328125,9.755859375-10.845703125,3.162109375-3.478515625,6.310546875-6.904296875,9.4453125-10.267578125,3.134765625-3.365234375,6.48046875-6.98828125,10.0390625-10.8759765625.818359375-.9248046875,1.62890625-1.5439453125,2.435546875-1.859375.689453125-.337890625,1.54296875-.45703125,2.56640625-.3564453125,1.021484375.103515625,2.216796875.671875,3.5859375,1.7099609375,1.251953125,1.0126953125,2.734375,2.23046875,4.44921875,3.6494140625,1.712890625,1.423828125,3.2265625,2.921875,4.5390625,4.5,1.310546875,1.5791015625,2.263671875,3.109375,2.857421875,4.5908203125.595703125,1.484375.388671875,2.849609375-.625,4.1005859375ZM94.330078125,51.142578125c2.576171875.56640625,4.8984375,1.6015625,6.96484375,3.09765625,2.06640625,1.5,3.791015625,3.29296875,5.17578125,5.376953125,1.384765625,2.0859375,2.314453125,4.41015625,2.796875,6.9716796875.478515625,2.5654296875.435546875,5.1357421875-.130859375,7.7119140625-.56640625,2.578125-1.6015625,4.8984375-3.09765625,6.96484375-1.5,2.06640625-3.3125,3.7568359375-5.4453125,5.0673828125-2.130859375,1.3134765625-4.44921875,2.2177734375-6.953125,2.708984375-2.50390625.494140625-5.046875.4560546875-7.623046875-.1103515625-2.578125-.5673828125-4.900390625-1.5986328125-6.96484375-3.0986328125-2.06640625-1.4970703125-3.763671875-3.2841796875-5.0859375-5.3564453125-1.328125-2.072265625-2.23828125-4.3623046875-2.728515625-6.865234375-.494140625-2.50390625-.45703125-5.044921875.109375-7.623046875.56640625-2.576171875,1.60546875-4.927734375,3.119140625-7.0537109375,1.5078125-2.1240234375,3.30078125-3.8486328125,5.376953125-5.1748046875,2.068359375-1.3232421875,4.359375-2.2333984375,6.86328125-2.728515625,2.50390625-.4912109375,5.044921875-.4560546875,7.623046875.111328125ZM93.845703125,70.9365234375c.2578125-1.169921875.10546875-2.15625-.455078125-2.9560546875-.5625-.7978515625-1.369140625-1.314453125-2.423828125-1.546875-2.345703125-.515625-3.78515625.45703125-4.328125,2.91796875-.48828125,2.2265625.435546875,3.5966796875,2.78125,4.11328125,1.0546875.2314453125,2.00390625.103515625,2.849609375-.3876953125.84375-.4873046875,1.369140625-1.201171875,1.576171875-2.140625ZM127.859375,156.7314453125c2.576171875.56640625,4.927734375,1.6083984375,7.0546875,3.1171875,2.12109375,1.5126953125,3.84765625,3.3056640625,5.173828125,5.376953125,1.32421875,2.0732421875,2.2265625,4.3916015625,2.70703125,6.953125.48046875,2.564453125.439453125,5.134765625-.126953125,7.7109375-.568359375,2.5791015625-1.6015625,4.8994140625-3.099609375,6.9658203125-1.5,2.064453125-3.29296875,3.7900390625-5.376953125,5.173828125-2.0859375,1.3837890625-4.41015625,2.318359375-6.970703125,2.796875-2.56640625.48046875-5.13671875.4375-7.712890625-.12890625-2.578125-.5673828125-4.8984375-1.599609375-6.96484375-3.0986328125-2.06640625-1.4970703125-3.78515625-3.3203125-5.15625-5.46484375-1.37109375-2.1435546875-2.3046875-4.46875-2.794921875-6.9716796875-.494140625-2.50390625-.45703125-5.0439453125.109375-7.623046875.56640625-2.576171875,1.60546875-4.927734375,3.1171875-7.0537109375,1.509765625-2.1240234375,3.333984375-3.8427734375,5.46484375-5.1552734375,2.130859375-1.3115234375,4.44921875-2.21484375,6.953125-2.708984375,2.50390625-.4912109375,5.04296875-.45703125,7.623046875.1103515625ZM127.375,176.5263671875c.232421875-1.0546875.07421875-2.0107421875-.474609375-2.869140625-.548828125-.857421875-1.349609375-1.4013671875-2.404296875-1.6337890625-.939453125-.20703125-1.865234375-.0419921875-2.779296875.4931640625-.919921875.5361328125-1.4921875,1.3310546875-1.72265625,2.3857421875-.20703125.939453125-.015625,1.87109375.58203125,2.7998046875.591796875.9306640625,1.35546875,1.4970703125,2.294921875,1.703125,1.056640625.232421875,2.017578125.0458984375,2.888671875-.5625.87109375-.6064453125,1.408203125-1.376953125,1.615234375-2.31640625Z"/>
</svg>