<?xml version="1.0" encoding="UTF-8"?>
<svg id="Layer_1" xmlns="http://www.w3.org/2000/svg" viewBox="0 0 280 280">
  <defs>
    <style>
      .cls-1 {
        stroke: #665451;
        stroke-width: 50px;
      }

      .cls-1, .cls-2 {
        fill: none;
        stroke-linecap: round;
        stroke-linejoin: round;
      }

      .cls-3 {
        fill: #fff;
      }

      .cls-2 {
        stroke: #998675;
        stroke-width: 2px;
      }
    </style>
  </defs>
  <path class="cls-1" d="M143.712807513300504,73.1279296875c-13.955078125,15.97265625-27.4443359375,32.19921875-40.4677734375,48.6826171875-13.0224609375,16.4833984375-25.62109375,33.400390625-37.7890625,50.74609375-.1953125.3251953125-.5185546875.685546875-.97265625,1.0751953125-.7421875.57421875-1.6005859375,1.123046875-2.5732421875,1.6455078125-1.1201171875.6142578125-2.42578125.97265625-3.921875,1.072265625-1.4951171875.1005859375-3.189453125-.3037109375-5.0771484375-1.208984375-1.865234375-1.0234375-3.7392578125-2.140625-5.619140625-3.3544921875-1.8837890625-1.212890625-3.453125-2.6025390625-4.7041015625-4.16796875-1.25390625-1.564453125-2.0029296875-3.3251953125-2.24609375-5.28515625-.24609375-1.95703125.29296875-4.265625,1.6142578125-6.923828125.7763671875-1.302734375,2.423828125-3.7646484375,4.9423828125-7.388671875,2.515625-3.62109375,5.740234375-7.951171875,9.6748046875-12.982421875,3.787109375-4.939453125,8.0439453125-10.3291015625,12.7685546875-16.169921875,4.72265625-5.83984375,9.580078125-11.7138671875,14.5634765625-17.619140625,3.828125-4.5625,7.4140625-8.7177734375,10.7587890625-12.4677734375,3.3408203125-3.7470703125,6.5947265625-7.3623046875,9.755859375-10.8447265625,3.1611328125-3.4794921875,6.3095703125-6.904296875,9.4443359375-10.2685546875,3.1357421875-3.3642578125,6.48046875-6.9873046875,10.0390625-10.875.8173828125-.9248046875,1.6298828125-1.5439453125,2.4365234375-1.859375.6884765625-.337890625,1.54296875-.4580078125,2.56640625-.3564453125,1.0205078125.1025390625,2.2158203125.6708984375,3.5849609375,1.708984375,1.251953125,1.0126953125,2.7333984375,2.2314453125,4.44921875,3.650390625,1.7138671875,1.4228515625,3.2255859375,2.921875,4.5380859375,4.5,1.3115234375,1.578125,2.2646484375,3.109375,2.859375,4.5908203125.595703125,1.4833984375.3876953125,2.8486328125-.625,4.1005859375ZM83.899330950800504,44.30859375c2.576171875.56640625,4.8994140625,1.6015625,6.9658203125,3.0986328125,2.06640625,1.4990234375,3.791015625,3.29296875,5.1748046875,5.3759765625,1.3837890625,2.0869140625,2.3154296875,4.4111328125,2.7958984375,6.97265625.4794921875,2.5634765625.4375,5.134765625-.12890625,7.7109375-.5673828125,2.578125-1.6015625,4.8994140625-3.099609375,6.9658203125-1.498046875,2.0654296875-3.3125,3.7568359375-5.4443359375,5.0673828125-2.130859375,1.3134765625-4.4482421875,2.216796875-6.9521484375,2.7080078125-2.5048828125.494140625-5.0478515625.45703125-7.6240234375-.109375-2.578125-.5673828125-4.8994140625-1.599609375-6.96484375-3.099609375-2.0654296875-1.49609375-3.763671875-3.283203125-5.0869140625-5.3564453125-1.326171875-2.0712890625-2.236328125-4.361328125-2.728515625-6.865234375-.4931640625-2.5048828125-.4560546875-5.0439453125.111328125-7.6220703125.56640625-2.576171875,1.60546875-4.927734375,3.1171875-7.0546875,1.509765625-2.123046875,3.302734375-3.84765625,5.376953125-5.173828125,2.0703125-1.32421875,4.361328125-2.234375,6.8642578125-2.728515625,2.50390625-.4912109375,5.044921875-.45703125,7.623046875.1103515625ZM83.414955950800504,64.103515625c.2578125-1.1708984375.10546875-2.1572265625-.455078125-2.95703125-.5615234375-.796875-1.3681640625-1.314453125-2.4248046875-1.5458984375-2.34375-.5166015625-3.78515625.45703125-4.326171875,2.91796875-.490234375,2.2265625.435546875,3.595703125,2.7802734375,4.111328125,1.0556640625.232421875,2.00390625.10546875,2.849609375-.3857421875.84375-.48828125,1.3701171875-1.2021484375,1.576171875-2.140625ZM117.428627825800504,149.8984375c2.576171875.5673828125,4.9267578125,1.607421875,7.0546875,3.1171875,2.1220703125,1.513671875,3.8466796875,3.3056640625,5.173828125,5.3779296875,1.3232421875,2.072265625,2.2275390625,4.390625,2.7080078125,6.9521484375.4794921875,2.564453125.4384765625,5.134765625-.12890625,7.7109375-.56640625,2.5791015625-1.6015625,4.8994140625-3.099609375,6.9658203125-1.498046875,2.064453125-3.291015625,3.7900390625-5.375,5.173828125-2.0869140625,1.3837890625-4.412109375,2.318359375-6.97265625,2.796875-2.564453125.48046875-5.134765625.4375-7.7109375-.12890625-2.5791015625-.5673828125-4.8994140625-1.599609375-6.9658203125-3.099609375-2.06640625-1.49609375-3.7841796875-3.3203125-5.1552734375-5.46484375-1.37109375-2.142578125-2.3046875-4.4677734375-2.796875-6.970703125-.494140625-2.5048828125-.45703125-5.0439453125.1103515625-7.623046875.5673828125-2.576171875,1.60546875-4.927734375,3.1181640625-7.0537109375,1.509765625-2.1240234375,3.33203125-3.8427734375,5.4638671875-5.1552734375,2.130859375-1.310546875,4.44921875-2.2138671875,6.9541015625-2.708984375,2.5029296875-.4921875,5.04296875-.45703125,7.6220703125.1103515625ZM116.944252825800504,169.693359375c.232421875-1.0546875.07421875-2.0107421875-.474609375-2.869140625-.5478515625-.857421875-1.349609375-1.4013671875-2.404296875-1.6337890625-.939453125-.20703125-1.865234375-.04296875-2.7802734375.4931640625-.9189453125.5361328125-1.490234375,1.3310546875-1.72265625,2.3857421875-.2060546875.939453125-.0146484375,1.87109375.58203125,2.7998046875.591796875.9306640625,1.357421875,1.4970703125,2.296875,1.703125,1.0546875.232421875,2.017578125.0458984375,2.8876953125-.5625.87109375-.6064453125,1.4091796875-1.376953125,1.615234375-2.31640625Z"/>
  <path class="cls-2" d="M143.712807513300504,73.1279296875c-13.955078125,15.97265625-27.4443359375,32.19921875-40.4677734375,48.6826171875-13.0224609375,16.4833984375-25.62109375,33.400390625-37.7890625,50.74609375-.1953125.3251953125-.5185546875.685546875-.97265625,1.0751953125-.7421875.57421875-1.6005859375,1.123046875-2.5732421875,1.6455078125-1.1201171875.6142578125-2.42578125.97265625-3.921875,1.072265625-1.4951171875.1005859375-3.189453125-.3037109375-5.0771484375-1.208984375-1.865234375-1.0234375-3.7392578125-2.140625-5.619140625-3.3544921875-1.8837890625-1.212890625-3.453125-2.6025390625-4.7041015625-4.16796875-1.25390625-1.564453125-2.0029296875-3.3251953125-2.24609375-5.28515625-.24609375-1.95703125.29296875-4.265625,1.6142578125-6.923828125.7763671875-1.302734375,2.423828125-3.7646484375,4.9423828125-7.388671875,2.515625-3.62109375,5.740234375-7.951171875,9.6748046875-12.982421875,3.787109375-4.939453125,8.0439453125-10.3291015625,12.7685546875-16.169921875,4.72265625-5.83984375,9.580078125-11.7138671875,14.5634765625-17.619140625,3.828125-4.5625,7.4140625-8.7177734375,10.7587890625-12.4677734375,3.3408203125-3.7470703125,6.5947265625-7.3623046875,9.755859375-10.8447265625,3.1611328125-3.4794921875,6.3095703125-6.904296875,9.4443359375-10.2685546875,3.1357421875-3.3642578125,6.48046875-6.9873046875,10.0390625-10.875.8173828125-.9248046875,1.6298828125-1.5439453125,2.4365234375-1.859375.6884765625-.337890625,1.54296875-.4580078125,2.56640625-.3564453125,1.0205078125.1025390625,2.2158203125.6708984375,3.5849609375,1.708984375,1.251953125,1.0126953125,2.7333984375,2.2314453125,4.44921875,3.650390625,1.7138671875,1.4228515625,3.2255859375,2.921875,4.5380859375,4.5,1.3115234375,1.578125,2.2646484375,3.109375,2.859375,4.5908203125.595703125,1.4833984375.3876953125,2.8486328125-.625,4.1005859375ZM83.899330950800504,44.30859375c2.576171875.56640625,4.8994140625,1.6015625,6.9658203125,3.0986328125,2.06640625,1.4990234375,3.791015625,3.29296875,5.1748046875,5.3759765625,1.3837890625,2.0869140625,2.3154296875,4.4111328125,2.7958984375,6.97265625.4794921875,2.5634765625.4375,5.134765625-.12890625,7.7109375-.5673828125,2.578125-1.6015625,4.8994140625-3.099609375,6.9658203125-1.498046875,2.0654296875-3.3125,3.7568359375-5.4443359375,5.0673828125-2.130859375,1.3134765625-4.4482421875,2.216796875-6.9521484375,2.7080078125-2.5048828125.494140625-5.0478515625.45703125-7.6240234375-.109375-2.578125-.5673828125-4.8994140625-1.599609375-6.96484375-3.099609375-2.0654296875-1.49609375-3.763671875-3.283203125-5.0869140625-5.3564453125-1.326171875-2.0712890625-2.236328125-4.361328125-2.728515625-6.865234375-.4931640625-2.5048828125-.4560546875-5.0439453125.111328125-7.6220703125.56640625-2.576171875,1.60546875-4.927734375,3.1171875-7.0546875,1.509765625-2.123046875,3.302734375-3.84765625,5.376953125-5.173828125,2.0703125-1.32421875,4.361328125-2.234375,6.8642578125-2.728515625,2.50390625-.4912109375,5.044921875-.45703125,7.623046875.1103515625ZM83.414955950800504,64.103515625c.2578125-1.1708984375.10546875-2.1572265625-.455078125-2.95703125-.5615234375-.796875-1.3681640625-1.314453125-2.4248046875-1.5458984375-2.34375-.5166015625-3.78515625.45703125-4.326171875,2.91796875-.490234375,2.2265625.435546875,3.595703125,2.7802734375,4.111328125,1.0556640625.232421875,2.00390625.10546875,2.849609375-.3857421875.84375-.48828125,1.3701171875-1.2021484375,1.576171875-2.140625ZM117.428627825800504,149.8984375c2.576171875.5673828125,4.9267578125,1.607421875,7.0546875,3.1171875,2.1220703125,1.513671875,3.8466796875,3.3056640625,5.173828125,5.3779296875,1.3232421875,2.072265625,2.2275390625,4.390625,2.7080078125,6.9521484375.4794921875,2.564453125.4384765625,5.134765625-.12890625,7.7109375-.56640625,2.5791015625-1.6015625,4.8994140625-3.099609375,6.9658203125-1.498046875,2.064453125-3.291015625,3.7900390625-5.375,5.173828125-2.0869140625,1.3837890625-4.412109375,2.318359375-6.97265625,2.796875-2.564453125.48046875-5.134765625.4375-7.7109375-.12890625-2.5791015625-.5673828125-4.8994140625-1.599609375-6.9658203125-3.099609375-2.06640625-1.49609375-3.7841796875-3.3203125-5.1552734375-5.46484375-1.37109375-2.142578125-2.3046875-4.4677734375-2.796875-6.970703125-.494140625-2.5048828125-.45703125-5.0439453125.1103515625-7.623046875.5673828125-2.576171875,1.60546875-4.927734375,3.1181640625-7.0537109375,1.509765625-2.1240234375,3.33203125-3.8427734375,5.4638671875-5.1552734375,2.130859375-1.310546875,4.44921875-2.2138671875,6.9541015625-2.708984375,2.5029296875-.4921875,5.04296875-.45703125,7.6220703125.1103515625ZM116.944252825800504,169.693359375c.232421875-1.0546875.07421875-2.0107421875-.474609375-2.869140625-.5478515625-.857421875-1.349609375-1.4013671875-2.404296875-1.6337890625-.939453125-.20703125-1.865234375-.04296875-2.7802734375.4931640625-.9189453125.5361328125-1.490234375,1.3310546875-1.72265625,2.3857421875-.2060546875.939453125-.0146484375,1.87109375.58203125,2.7998046875.591796875.9306640625,1.357421875,1.4970703125,2.296875,1.703125,1.0546875.232421875,2.017578125.0458984375,2.8876953125-.5625.87109375-.6064453125,1.4091796875-1.376953125,1.615234375-2.31640625Z"/>
  <path class="cls-3" d="M143.712807513300504,73.1279296875c-13.955078125,15.97265625-27.4443359375,32.19921875-40.4677734375,48.6826171875-13.0224609375,16.4833984375-25.62109375,33.400390625-37.7890625,50.74609375-.1953125.3251953125-.5185546875.685546875-.97265625,1.0751953125-.7421875.57421875-1.6005859375,1.123046875-2.5732421875,1.6455078125-1.1201171875.6142578125-2.42578125.97265625-3.921875,1.072265625-1.4951171875.1005859375-3.189453125-.3037109375-5.0771484375-1.208984375-1.865234375-1.0234375-3.7392578125-2.140625-5.619140625-3.3544921875-1.8837890625-1.212890625-3.453125-2.6025390625-4.7041015625-4.16796875-1.25390625-1.564453125-2.0029296875-3.3251953125-2.24609375-5.28515625-.24609375-1.95703125.29296875-4.265625,1.6142578125-6.923828125.7763671875-1.302734375,2.423828125-3.7646484375,4.9423828125-7.388671875,2.515625-3.62109375,5.740234375-7.951171875,9.6748046875-12.982421875,3.787109375-4.939453125,8.0439453125-10.3291015625,12.7685546875-16.169921875,4.72265625-5.83984375,9.580078125-11.7138671875,14.5634765625-17.619140625,3.828125-4.5625,7.4140625-8.7177734375,10.7587890625-12.4677734375,3.3408203125-3.7470703125,6.5947265625-7.3623046875,9.755859375-10.8447265625,3.1611328125-3.4794921875,6.3095703125-6.904296875,9.4443359375-10.2685546875,3.1357421875-3.3642578125,6.48046875-6.9873046875,10.0390625-10.875.8173828125-.9248046875,1.6298828125-1.5439453125,2.4365234375-1.859375.6884765625-.337890625,1.54296875-.4580078125,2.56640625-.3564453125,1.0205078125.1025390625,2.2158203125.6708984375,3.5849609375,1.708984375,1.251953125,1.0126953125,2.7333984375,2.2314453125,4.44921875,3.650390625,1.7138671875,1.4228515625,3.2255859375,2.921875,4.5380859375,4.5,1.3115234375,1.578125,2.2646484375,3.109375,2.859375,4.5908203125.595703125,1.4833984375.3876953125,2.8486328125-.625,4.1005859375ZM83.899330950800504,44.30859375c2.576171875.56640625,4.8994140625,1.6015625,6.9658203125,3.0986328125,2.06640625,1.4990234375,3.791015625,3.29296875,5.1748046875,5.3759765625,1.3837890625,2.0869140625,2.3154296875,4.4111328125,2.7958984375,6.97265625.4794921875,2.5634765625.4375,5.134765625-.12890625,7.7109375-.5673828125,2.578125-1.6015625,4.8994140625-3.099609375,6.9658203125-1.498046875,2.0654296875-3.3125,3.7568359375-5.4443359375,5.0673828125-2.130859375,1.3134765625-4.4482421875,2.216796875-6.9521484375,2.7080078125-2.5048828125.494140625-5.0478515625.45703125-7.6240234375-.109375-2.578125-.5673828125-4.8994140625-1.599609375-6.96484375-3.099609375-2.0654296875-1.49609375-3.763671875-3.283203125-5.0869140625-5.3564453125-1.326171875-2.0712890625-2.236328125-4.361328125-2.728515625-6.865234375-.4931640625-2.5048828125-.4560546875-5.0439453125.111328125-7.6220703125.56640625-2.576171875,1.60546875-4.927734375,3.1171875-7.0546875,1.509765625-2.123046875,3.302734375-3.84765625,5.376953125-5.173828125,2.0703125-1.32421875,4.361328125-2.234375,6.8642578125-2.728515625,2.50390625-.4912109375,5.044921875-.45703125,7.623046875.1103515625ZM83.414955950800504,64.103515625c.2578125-1.1708984375.10546875-2.1572265625-.455078125-2.95703125-.5615234375-.796875-1.3681640625-1.314453125-2.4248046875-1.5458984375-2.34375-.5166015625-3.78515625.45703125-4.326171875,2.91796875-.490234375,2.2265625.435546875,3.595703125,2.7802734375,4.111328125,1.0556640625.232421875,2.00390625.10546875,2.849609375-.3857421875.84375-.48828125,1.3701171875-1.2021484375,1.576171875-2.140625ZM117.428627825800504,149.8984375c2.576171875.5673828125,4.9267578125,1.607421875,7.0546875,3.1171875,2.1220703125,1.513671875,3.8466796875,3.3056640625,5.173828125,5.3779296875,1.3232421875,2.072265625,2.2275390625,4.390625,2.7080078125,6.9521484375.4794921875,2.564453125.4384765625,5.134765625-.12890625,7.7109375-.56640625,2.5791015625-1.6015625,4.8994140625-3.099609375,6.9658203125-1.498046875,2.064453125-3.291015625,3.7900390625-5.375,5.173828125-2.0869140625,1.3837890625-4.412109375,2.318359375-6.97265625,2.796875-2.564453125.48046875-5.134765625.4375-7.7109375-.12890625-2.5791015625-.5673828125-4.8994140625-1.599609375-6.9658203125-3.099609375-2.06640625-1.49609375-3.7841796875-3.3203125-5.1552734375-5.46484375-1.37109375-2.142578125-2.3046875-4.4677734375-2.796875-6.970703125-.494140625-2.5048828125-.45703125-5.0439453125.1103515625-7.623046875.5673828125-2.576171875,1.60546875-4.927734375,3.1181640625-7.0537109375,1.509765625-2.1240234375,3.33203125-3.8427734375,5.4638671875-5.1552734375,2.130859375-1.310546875,4.44921875-2.2138671875,6.9541015625-2.708984375,2.5029296875-.4921875,5.04296875-.45703125,7.6220703125.1103515625ZM116.944252825800504,169.693359375c.232421875-1.0546875.07421875-2.0107421875-.474609375-2.869140625-.5478515625-.857421875-1.349609375-1.4013671875-2.404296875-1.6337890625-.939453125-.20703125-1.865234375-.04296875-2.7802734375.4931640625-.9189453125.5361328125-1.490234375,1.3310546875-1.72265625,2.3857421875-.2060546875.939453125-.0146484375,1.87109375.58203125,2.7998046875.591796875.9306640625,1.357421875,1.4970703125,2.296875,1.703125,1.0546875.232421875,2.017578125.0458984375,2.8876953125-.5625.87109375-.6064453125,1.4091796875-1.376953125,1.615234375-2.31640625Z"/>
</svg>