<?xml version="1.0" encoding="UTF-8"?>
<svg id="Content" xmlns="http://www.w3.org/2000/svg" viewBox="0 0 280 280">
  <defs>
    <style>
      .cls-1 {
        stroke: #665451;
        stroke-width: 50px;
      }

      .cls-1, .cls-2 {
        fill: none;
        stroke-linecap: round;
        stroke-linejoin: round;
      }

      .cls-3 {
        fill: #fff;
      }

      .cls-2 {
        stroke: #998675;
        stroke-width: 2px;
      }
    </style>
  </defs>
  <path class="cls-1" d="M143.6962890625,73.0673828125c-13.955078125,15.9736328125-27.4443359375,32.19921875-40.4677734375,48.68359375-13.0224609375,16.482421875-25.6201171875,33.3994140625-37.7880859375,50.7451171875-.1953125.3251953125-.5185546875.6865234375-.9736328125,1.076171875-.7421875.5732421875-1.599609375,1.1220703125-2.5732421875,1.64453125-1.1201171875.615234375-2.4248046875.9716796875-3.919921875,1.072265625-1.4970703125.099609375-3.1904296875-.3037109375-5.0791015625-1.2080078125-1.865234375-1.0244140625-3.7373046875-2.142578125-5.6181640625-3.35546875-1.884765625-1.212890625-3.4541015625-2.6025390625-4.7041015625-4.1669921875-1.25390625-1.56640625-2.00390625-3.3251953125-2.24609375-5.2861328125-.2470703125-1.95703125.29296875-4.2646484375,1.6142578125-6.9228515625.775390625-1.302734375,2.4228515625-3.765625,4.9423828125-7.388671875,2.515625-3.6220703125,5.7392578125-7.951171875,9.673828125-12.982421875,3.787109375-4.9404296875,8.0439453125-10.3291015625,12.76953125-16.1708984375,4.7216796875-5.83984375,9.5791015625-11.712890625,14.5625-17.619140625,3.828125-4.5615234375,7.4140625-8.716796875,10.7587890625-12.466796875,3.3408203125-3.748046875,6.5947265625-7.36328125,9.755859375-10.845703125,3.1611328125-3.478515625,6.3095703125-6.904296875,9.4443359375-10.267578125,3.1357421875-3.365234375,6.4814453125-6.98828125,10.0390625-10.8759765625.818359375-.9248046875,1.6298828125-1.5439453125,2.4365234375-1.859375.6884765625-.337890625,1.54296875-.45703125,2.56640625-.3564453125,1.0205078125.103515625,2.2158203125.671875,3.5849609375,1.7099609375,1.251953125,1.0126953125,2.734375,2.23046875,4.44921875,3.6494140625,1.7138671875,1.423828125,3.2265625,2.921875,4.5390625,4.5,1.310546875,1.5791015625,2.263671875,3.109375,2.8583984375,4.5908203125.595703125,1.484375.3876953125,2.849609375-.625,4.1005859375ZM83.8837890625,44.2490234375c2.576171875.56640625,4.8984375,1.6015625,6.96484375,3.09765625,2.06640625,1.5,3.791015625,3.29296875,5.17578125,5.376953125,1.3837890625,2.0859375,2.314453125,4.41015625,2.7958984375,6.9716796875.478515625,2.5654296875.4365234375,5.1357421875-.1298828125,7.7119140625-.5673828125,2.578125-1.6015625,4.8984375-3.0986328125,6.96484375-1.4990234375,2.06640625-3.3125,3.7568359375-5.4443359375,5.0673828125-2.1318359375,1.3134765625-4.44921875,2.2177734375-6.953125,2.708984375-2.5048828125.494140625-5.046875.4560546875-7.623046875-.1103515625-2.5791015625-.5673828125-4.900390625-1.5986328125-6.9658203125-3.0986328125-2.0654296875-1.4970703125-3.763671875-3.2841796875-5.0859375-5.3564453125-1.3271484375-2.072265625-2.2373046875-4.3623046875-2.728515625-6.865234375-.494140625-2.50390625-.45703125-5.044921875.1103515625-7.623046875.56640625-2.576171875,1.60546875-4.927734375,3.1181640625-7.0537109375,1.5087890625-2.1240234375,3.3017578125-3.8486328125,5.376953125-5.1748046875,2.0693359375-1.3232421875,4.3603515625-2.2333984375,6.86328125-2.728515625,2.50390625-.4912109375,5.044921875-.4560546875,7.6240234375.111328125ZM83.3984375,64.04296875c.2578125-1.169921875.10546875-2.15625-.455078125-2.9560546875-.5615234375-.7978515625-1.369140625-1.314453125-2.423828125-1.546875-2.345703125-.515625-3.78515625.45703125-4.3271484375,2.91796875-.4892578125,2.2265625.435546875,3.5966796875,2.78125,4.11328125,1.0546875.2314453125,2.0029296875.103515625,2.8486328125-.3876953125.84375-.4873046875,1.3701171875-1.201171875,1.576171875-2.140625ZM117.412109375,149.837890625c2.576171875.56640625,4.927734375,1.6083984375,7.0546875,3.1171875,2.1220703125,1.5126953125,3.84765625,3.3056640625,5.173828125,5.376953125,1.32421875,2.0732421875,2.2275390625,4.3916015625,2.7080078125,6.953125.4794921875,2.564453125.4384765625,5.134765625-.1279296875,7.7109375-.5673828125,2.5791015625-1.6015625,4.8994140625-3.099609375,6.9658203125-1.4990234375,2.064453125-3.2919921875,3.7900390625-5.3759765625,5.173828125-2.0869140625,1.3837890625-4.4111328125,2.318359375-6.9716796875,2.796875-2.5654296875.48046875-5.1357421875.4375-7.7119140625-.12890625-2.5791015625-.5673828125-4.8994140625-1.599609375-6.96484375-3.0986328125-2.06640625-1.4970703125-3.78515625-3.3203125-5.15625-5.46484375-1.37109375-2.1435546875-2.3046875-4.46875-2.7958984375-6.9716796875-.494140625-2.50390625-.45703125-5.0439453125.1103515625-7.623046875.56640625-2.576171875,1.6044921875-4.927734375,3.1171875-7.0537109375,1.509765625-2.1240234375,3.3330078125-3.8427734375,5.4638671875-5.1552734375,2.1318359375-1.3115234375,4.44921875-2.21484375,6.9541015625-2.708984375,2.50390625-.4912109375,5.04296875-.45703125,7.6220703125.1103515625ZM116.9287109375,169.6328125c.2314453125-1.0546875.0732421875-2.0107421875-.474609375-2.869140625-.548828125-.857421875-1.349609375-1.4013671875-2.4052734375-1.6337890625-.939453125-.20703125-1.865234375-.0419921875-2.779296875.4931640625-.919921875.5361328125-1.4912109375,1.3310546875-1.72265625,2.3857421875-.20703125.939453125-.015625,1.87109375.58203125,2.7998046875.591796875.9306640625,1.3564453125,1.4970703125,2.2958984375,1.703125,1.0556640625.232421875,2.017578125.0458984375,2.888671875-.5625.8701171875-.6064453125,1.408203125-1.376953125,1.615234375-2.31640625Z"/>
  <path class="cls-2" d="M143.6962890625,73.0673828125c-13.955078125,15.9736328125-27.4443359375,32.19921875-40.4677734375,48.68359375-13.0224609375,16.482421875-25.6201171875,33.3994140625-37.7880859375,50.7451171875-.1953125.3251953125-.5185546875.6865234375-.9736328125,1.076171875-.7421875.5732421875-1.599609375,1.1220703125-2.5732421875,1.64453125-1.1201171875.615234375-2.4248046875.9716796875-3.919921875,1.072265625-1.4970703125.099609375-3.1904296875-.3037109375-5.0791015625-1.2080078125-1.865234375-1.0244140625-3.7373046875-2.142578125-5.6181640625-3.35546875-1.884765625-1.212890625-3.4541015625-2.6025390625-4.7041015625-4.1669921875-1.25390625-1.56640625-2.00390625-3.3251953125-2.24609375-5.2861328125-.2470703125-1.95703125.29296875-4.2646484375,1.6142578125-6.9228515625.775390625-1.302734375,2.4228515625-3.765625,4.9423828125-7.388671875,2.515625-3.6220703125,5.7392578125-7.951171875,9.673828125-12.982421875,3.787109375-4.9404296875,8.0439453125-10.3291015625,12.76953125-16.1708984375,4.7216796875-5.83984375,9.5791015625-11.712890625,14.5625-17.619140625,3.828125-4.5615234375,7.4140625-8.716796875,10.7587890625-12.466796875,3.3408203125-3.748046875,6.5947265625-7.36328125,9.755859375-10.845703125,3.1611328125-3.478515625,6.3095703125-6.904296875,9.4443359375-10.267578125,3.1357421875-3.365234375,6.4814453125-6.98828125,10.0390625-10.8759765625.818359375-.9248046875,1.6298828125-1.5439453125,2.4365234375-1.859375.6884765625-.337890625,1.54296875-.45703125,2.56640625-.3564453125,1.0205078125.103515625,2.2158203125.671875,3.5849609375,1.7099609375,1.251953125,1.0126953125,2.734375,2.23046875,4.44921875,3.6494140625,1.7138671875,1.423828125,3.2265625,2.921875,4.5390625,4.5,1.310546875,1.5791015625,2.263671875,3.109375,2.8583984375,4.5908203125.595703125,1.484375.3876953125,2.849609375-.625,4.1005859375ZM83.8837890625,44.2490234375c2.576171875.56640625,4.8984375,1.6015625,6.96484375,3.09765625,2.06640625,1.5,3.791015625,3.29296875,5.17578125,5.376953125,1.3837890625,2.0859375,2.314453125,4.41015625,2.7958984375,6.9716796875.478515625,2.5654296875.4365234375,5.1357421875-.1298828125,7.7119140625-.5673828125,2.578125-1.6015625,4.8984375-3.0986328125,6.96484375-1.4990234375,2.06640625-3.3125,3.7568359375-5.4443359375,5.0673828125-2.1318359375,1.3134765625-4.44921875,2.2177734375-6.953125,2.708984375-2.5048828125.494140625-5.046875.4560546875-7.623046875-.1103515625-2.5791015625-.5673828125-4.900390625-1.5986328125-6.9658203125-3.0986328125-2.0654296875-1.4970703125-3.763671875-3.2841796875-5.0859375-5.3564453125-1.3271484375-2.072265625-2.2373046875-4.3623046875-2.728515625-6.865234375-.494140625-2.50390625-.45703125-5.044921875.1103515625-7.623046875.56640625-2.576171875,1.60546875-4.927734375,3.1181640625-7.0537109375,1.5087890625-2.1240234375,3.3017578125-3.8486328125,5.376953125-5.1748046875,2.0693359375-1.3232421875,4.3603515625-2.2333984375,6.86328125-2.728515625,2.50390625-.4912109375,5.044921875-.4560546875,7.6240234375.111328125ZM83.3984375,64.04296875c.2578125-1.169921875.10546875-2.15625-.455078125-2.9560546875-.5615234375-.7978515625-1.369140625-1.314453125-2.423828125-1.546875-2.345703125-.515625-3.78515625.45703125-4.3271484375,2.91796875-.4892578125,2.2265625.435546875,3.5966796875,2.78125,4.11328125,1.0546875.2314453125,2.0029296875.103515625,2.8486328125-.3876953125.84375-.4873046875,1.3701171875-1.201171875,1.576171875-2.140625ZM117.412109375,149.837890625c2.576171875.56640625,4.927734375,1.6083984375,7.0546875,3.1171875,2.1220703125,1.5126953125,3.84765625,3.3056640625,5.173828125,5.376953125,1.32421875,2.0732421875,2.2275390625,4.3916015625,2.7080078125,6.953125.4794921875,2.564453125.4384765625,5.134765625-.1279296875,7.7109375-.5673828125,2.5791015625-1.6015625,4.8994140625-3.099609375,6.9658203125-1.4990234375,2.064453125-3.2919921875,3.7900390625-5.3759765625,5.173828125-2.0869140625,1.3837890625-4.4111328125,2.318359375-6.9716796875,2.796875-2.5654296875.48046875-5.1357421875.4375-7.7119140625-.12890625-2.5791015625-.5673828125-4.8994140625-1.599609375-6.96484375-3.0986328125-2.06640625-1.4970703125-3.78515625-3.3203125-5.15625-5.46484375-1.37109375-2.1435546875-2.3046875-4.46875-2.7958984375-6.9716796875-.494140625-2.50390625-.45703125-5.0439453125.1103515625-7.623046875.56640625-2.576171875,1.6044921875-4.927734375,3.1171875-7.0537109375,1.509765625-2.1240234375,3.3330078125-3.8427734375,5.4638671875-5.1552734375,2.1318359375-1.3115234375,4.44921875-2.21484375,6.9541015625-2.708984375,2.50390625-.4912109375,5.04296875-.45703125,7.6220703125.1103515625ZM116.9287109375,169.6328125c.2314453125-1.0546875.0732421875-2.0107421875-.474609375-2.869140625-.548828125-.857421875-1.349609375-1.4013671875-2.4052734375-1.6337890625-.939453125-.20703125-1.865234375-.0419921875-2.779296875.4931640625-.919921875.5361328125-1.4912109375,1.3310546875-1.72265625,2.3857421875-.20703125.939453125-.015625,1.87109375.58203125,2.7998046875.591796875.9306640625,1.3564453125,1.4970703125,2.2958984375,1.703125,1.0556640625.232421875,2.017578125.0458984375,2.888671875-.5625.8701171875-.6064453125,1.408203125-1.376953125,1.615234375-2.31640625Z"/>
  <path class="cls-3" d="M143.6962890625,73.0673828125c-13.955078125,15.9736328125-27.4443359375,32.19921875-40.4677734375,48.68359375-13.0224609375,16.482421875-25.6201171875,33.3994140625-37.7880859375,50.7451171875-.1953125.3251953125-.5185546875.6865234375-.9736328125,1.076171875-.7421875.5732421875-1.599609375,1.1220703125-2.5732421875,1.64453125-1.1201171875.615234375-2.4248046875.9716796875-3.919921875,1.072265625-1.4970703125.099609375-3.1904296875-.3037109375-5.0791015625-1.2080078125-1.865234375-1.0244140625-3.7373046875-2.142578125-5.6181640625-3.35546875-1.884765625-1.212890625-3.4541015625-2.6025390625-4.7041015625-4.1669921875-1.25390625-1.56640625-2.00390625-3.3251953125-2.24609375-5.2861328125-.2470703125-1.95703125.29296875-4.2646484375,1.6142578125-6.9228515625.775390625-1.302734375,2.4228515625-3.765625,4.9423828125-7.388671875,2.515625-3.6220703125,5.7392578125-7.951171875,9.673828125-12.982421875,3.787109375-4.9404296875,8.0439453125-10.3291015625,12.76953125-16.1708984375,4.7216796875-5.83984375,9.5791015625-11.712890625,14.5625-17.619140625,3.828125-4.5615234375,7.4140625-8.716796875,10.7587890625-12.466796875,3.3408203125-3.748046875,6.5947265625-7.36328125,9.755859375-10.845703125,3.1611328125-3.478515625,6.3095703125-6.904296875,9.4443359375-10.267578125,3.1357421875-3.365234375,6.4814453125-6.98828125,10.0390625-10.8759765625.818359375-.9248046875,1.6298828125-1.5439453125,2.4365234375-1.859375.6884765625-.337890625,1.54296875-.45703125,2.56640625-.3564453125,1.0205078125.103515625,2.2158203125.671875,3.5849609375,1.7099609375,1.251953125,1.0126953125,2.734375,2.23046875,4.44921875,3.6494140625,1.7138671875,1.423828125,3.2265625,2.921875,4.5390625,4.5,1.310546875,1.5791015625,2.263671875,3.109375,2.8583984375,4.5908203125.595703125,1.484375.3876953125,2.849609375-.625,4.1005859375ZM83.8837890625,44.2490234375c2.576171875.56640625,4.8984375,1.6015625,6.96484375,3.09765625,2.06640625,1.5,3.791015625,3.29296875,5.17578125,5.376953125,1.3837890625,2.0859375,2.314453125,4.41015625,2.7958984375,6.9716796875.478515625,2.5654296875.4365234375,5.1357421875-.1298828125,7.7119140625-.5673828125,2.578125-1.6015625,4.8984375-3.0986328125,6.96484375-1.4990234375,2.06640625-3.3125,3.7568359375-5.4443359375,5.0673828125-2.1318359375,1.3134765625-4.44921875,2.2177734375-6.953125,2.708984375-2.5048828125.494140625-5.046875.4560546875-7.623046875-.1103515625-2.5791015625-.5673828125-4.900390625-1.5986328125-6.9658203125-3.0986328125-2.0654296875-1.4970703125-3.763671875-3.2841796875-5.0859375-5.3564453125-1.3271484375-2.072265625-2.2373046875-4.3623046875-2.728515625-6.865234375-.494140625-2.50390625-.45703125-5.044921875.1103515625-7.623046875.56640625-2.576171875,1.60546875-4.927734375,3.1181640625-7.0537109375,1.5087890625-2.1240234375,3.3017578125-3.8486328125,5.376953125-5.1748046875,2.0693359375-1.3232421875,4.3603515625-2.2333984375,6.86328125-2.728515625,2.50390625-.4912109375,5.044921875-.4560546875,7.6240234375.111328125ZM83.3984375,64.04296875c.2578125-1.169921875.10546875-2.15625-.455078125-2.9560546875-.5615234375-.7978515625-1.369140625-1.314453125-2.423828125-1.546875-2.345703125-.515625-3.78515625.45703125-4.3271484375,2.91796875-.4892578125,2.2265625.435546875,3.5966796875,2.78125,4.11328125,1.0546875.2314453125,2.0029296875.103515625,2.8486328125-.3876953125.84375-.4873046875,1.3701171875-1.201171875,1.576171875-2.140625ZM117.412109375,149.837890625c2.576171875.56640625,4.927734375,1.6083984375,7.0546875,3.1171875,2.1220703125,1.5126953125,3.84765625,3.3056640625,5.173828125,5.376953125,1.32421875,2.0732421875,2.2275390625,4.3916015625,2.7080078125,6.953125.4794921875,2.564453125.4384765625,5.134765625-.1279296875,7.7109375-.5673828125,2.5791015625-1.6015625,4.8994140625-3.099609375,6.9658203125-1.4990234375,2.064453125-3.2919921875,3.7900390625-5.3759765625,5.173828125-2.0869140625,1.3837890625-4.4111328125,2.318359375-6.9716796875,2.796875-2.5654296875.48046875-5.1357421875.4375-7.7119140625-.12890625-2.5791015625-.5673828125-4.8994140625-1.599609375-6.96484375-3.0986328125-2.06640625-1.4970703125-3.78515625-3.3203125-5.15625-5.46484375-1.37109375-2.1435546875-2.3046875-4.46875-2.7958984375-6.9716796875-.494140625-2.50390625-.45703125-5.0439453125.1103515625-7.623046875.56640625-2.576171875,1.6044921875-4.927734375,3.1171875-7.0537109375,1.509765625-2.1240234375,3.3330078125-3.8427734375,5.4638671875-5.1552734375,2.1318359375-1.3115234375,4.44921875-2.21484375,6.9541015625-2.708984375,2.50390625-.4912109375,5.04296875-.45703125,7.6220703125.1103515625ZM116.9287109375,169.6328125c.2314453125-1.0546875.0732421875-2.0107421875-.474609375-2.869140625-.548828125-.857421875-1.349609375-1.4013671875-2.4052734375-1.6337890625-.939453125-.20703125-1.865234375-.0419921875-2.779296875.4931640625-.919921875.5361328125-1.4912109375,1.3310546875-1.72265625,2.3857421875-.20703125.939453125-.015625,1.87109375.58203125,2.7998046875.591796875.9306640625,1.3564453125,1.4970703125,2.2958984375,1.703125,1.0556640625.232421875,2.017578125.0458984375,2.888671875-.5625.8701171875-.6064453125,1.408203125-1.376953125,1.615234375-2.31640625Z"/>
</svg>