<?xml version="1.0" encoding="UTF-8"?>
<svg id="Layer_1" xmlns="http://www.w3.org/2000/svg" viewBox="0 0 280.000000000009095 280">
  <defs>
    <style>
      .cls-1 {
        stroke: #665451;
        stroke-width: 50px;
      }

      .cls-1, .cls-2 {
        fill: none;
        stroke-linecap: round;
        stroke-linejoin: round;
      }

      .cls-3 {
        fill: #fff;
      }

      .cls-2 {
        stroke: #998675;
        stroke-width: 2px;
      }
    </style>
  </defs>
  <path class="cls-1" d="M44.448636968088977,152.2099609375c30.2001953125,4.2099609375,60.259765625,8.853515625,90.17578125,13.931640625,1.013671875.3095703125,1.9345703125.755859375,2.7568359375,1.337890625,1.8125,1.04296875,2.611328125,2.7626953125,2.39453125,5.158203125-.05859375,1.3583984375-.189453125,2.705078125-.3955078125,4.0419921875-.2060546875,1.3359375-.625,2.5634765625-1.2529296875,3.6826171875-.6298828125,1.119140625-1.568359375,2.037109375-2.8203125,2.755859375-1.25.7177734375-2.8544921875,1.00390625-4.8046875.8515625-.8916015625-.13671875-2.8603515625-.44140625-5.9013671875-.9111328125-3.0439453125-.4697265625-6.66796875-1.1044921875-10.875-1.9072265625-4.2080078125-.80078125-8.861328125-1.6728515625-13.958984375-2.61328125-5.0986328125-.9375-10.234375-1.8837890625-15.40625-2.8359375-5.1513671875-1.09765625-10.09375-2.0517578125-14.83203125-2.861328125-4.740234375-.8076171875-9.025390625-1.583984375-12.8623046875-2.3291015625-4.4287109375-.833984375-8.5751953125-1.5537109375-12.43359375-2.1494140625-.744140625-.115234375-1.3896484375-.3642578125-1.935546875-.7548828125-.548828125-.3876953125-1.0478515625-.845703125-1.4970703125-1.3720703125-.453125-.525390625-.6728515625-1.318359375-.658203125-2.380859375.01171875-1.0595703125.0107421875-2.2783203125-.0068359375-3.6484375-.0166015625-1.3701171875.1083984375-2.6796875.3798828125-3.9296875.267578125-1.2490234375.6953125-2.2880859375,1.2783203125-3.1083984375.58203125-.822265625,1.4658203125-1.1416015625,2.6552734375-.9580078125ZM146.225980718088977,104.330078125c-.2666015625,2.6943359375-.5419921875,5.466796875-.826171875,8.3076171875-.291015625,2.84375-.8037109375,5.42578125-1.5390625,7.7412109375-.7392578125,2.3193359375-1.68359375,4.263671875-2.837890625,5.8310546875-1.1552734375,1.5703125-2.734375,2.4267578125-4.73046875,2.57421875-1.0849609375.138671875-3.595703125-.099609375-7.52734375-.70703125-3.935546875-.607421875-8.6259765625-1.482421875-14.0703125-2.6298828125-.4501953125,3.884765625-.94140625,7.798828125-1.4716796875,11.7412109375-.53515625,3.9462890625-1.037109375,7.9326171875-1.5068359375,11.96484375-.482421875,1.1435546875-1.150390625,2.0263671875-2.005859375,2.65234375-.859375.6298828125-2.037109375,1.130859375-3.5380859375,1.505859375-1.50390625.376953125-3.6123046875.5068359375-6.328125.388671875-2.5732421875-.0908203125-5.2451171875-.2392578125-8.0263671875-.44140625-2.7822265625-.201171875-5.3427734375-.5966796875-7.681640625-1.1865234375-2.3408203125-.58984375-4.33203125-1.4677734375-5.9765625-2.6328125-1.642578125-1.1650390625-2.5390625-2.7470703125-2.6845703125-4.7470703125-.09375-1.3818359375.2041015625-4.52734375.88671875-9.4365234375.6806640625-4.9111328125,1.6865234375-10.6826171875,3.017578125-17.31640625-3.515625-.8466796875-6.822265625-1.5849609375-9.916015625-2.2158203125-3.09375-.6279296875-5.7431640625-1.1904296875-7.947265625-1.68359375-2.6484375-.55859375-5.07421875-1.0869140625-7.27734375-1.580078125-.7685546875.033203125-1.40234375-.2919921875-1.90234375-.978515625-.3759765625-.513671875-.7119140625-1.28515625-1.0087890625-2.3212890625-.2958984375-1.0322265625-.2841796875-2.5869140625.037109375-4.66796875.171875-2.099609375.43359375-4.5283203125.7841796875-7.2880859375.34765625-2.755859375.7490234375-5.35546875,1.2041015625-7.7919921875.4521484375-2.4384765625,1.0390625-4.513671875,1.759765625-6.2255859375.7216796875-1.712890625,1.611328125-2.5625,2.673828125-2.55078125l28.791015625,3.9921875c.8232421875-3.3671875,1.6005859375-6.4384765625,2.3359375-9.2138671875.732421875-2.7724609375,1.4052734375-5.17578125,2.025390625-7.2099609375.6865234375-2.4765625,1.263671875-4.7421875,1.734375-6.798828125-.0576171875-.615234375.2568359375-1.17578125.943359375-1.6787109375.515625-.3759765625,1.3251953125-.70703125,2.4326171875-.9912109375,1.1064453125-.28515625,2.69921875-.267578125,4.779296875.0537109375,2.0771484375.3212890625,4.482421875.7314453125,7.2197265625,1.2294921875,2.732421875.5009765625,5.30859375,1.048828125,7.724609375,1.6494140625,2.4150390625.6015625,4.4716796875,1.2998046875,6.1728515625,2.09375,1.701171875.7978515625,2.470703125,1.7138671875,2.310546875,2.7509765625-.74609375,3.837890625-1.453125,7.6796875-2.123046875,11.5263671875-.6728515625,3.849609375-1.3037109375,7.7021484375-1.8994140625,11.560546875l21.41015625,3.080078125c.9892578125.458984375,1.8759765625,1.1279296875,2.6533203125,2.005859375.6259765625.859375,1.126953125,2.0380859375,1.50390625,3.5380859375.3740234375,1.50390625.515625,3.5380859375.4248046875,6.1064453125Z"/>
  <path class="cls-2" d="M44.448636968088977,152.2099609375c30.2001953125,4.2099609375,60.259765625,8.853515625,90.17578125,13.931640625,1.013671875.3095703125,1.9345703125.755859375,2.7568359375,1.337890625,1.8125,1.04296875,2.611328125,2.7626953125,2.39453125,5.158203125-.05859375,1.3583984375-.189453125,2.705078125-.3955078125,4.0419921875-.2060546875,1.3359375-.625,2.5634765625-1.2529296875,3.6826171875-.6298828125,1.119140625-1.568359375,2.037109375-2.8203125,2.755859375-1.25.7177734375-2.8544921875,1.00390625-4.8046875.8515625-.8916015625-.13671875-2.8603515625-.44140625-5.9013671875-.9111328125-3.0439453125-.4697265625-6.66796875-1.1044921875-10.875-1.9072265625-4.2080078125-.80078125-8.861328125-1.6728515625-13.958984375-2.61328125-5.0986328125-.9375-10.234375-1.8837890625-15.40625-2.8359375-5.1513671875-1.09765625-10.09375-2.0517578125-14.83203125-2.861328125-4.740234375-.8076171875-9.025390625-1.583984375-12.8623046875-2.3291015625-4.4287109375-.833984375-8.5751953125-1.5537109375-12.43359375-2.1494140625-.744140625-.115234375-1.3896484375-.3642578125-1.935546875-.7548828125-.548828125-.3876953125-1.0478515625-.845703125-1.4970703125-1.3720703125-.453125-.525390625-.6728515625-1.318359375-.658203125-2.380859375.01171875-1.0595703125.0107421875-2.2783203125-.0068359375-3.6484375-.0166015625-1.3701171875.1083984375-2.6796875.3798828125-3.9296875.267578125-1.2490234375.6953125-2.2880859375,1.2783203125-3.1083984375.58203125-.822265625,1.4658203125-1.1416015625,2.6552734375-.9580078125ZM146.225980718088977,104.330078125c-.2666015625,2.6943359375-.5419921875,5.466796875-.826171875,8.3076171875-.291015625,2.84375-.8037109375,5.42578125-1.5390625,7.7412109375-.7392578125,2.3193359375-1.68359375,4.263671875-2.837890625,5.8310546875-1.1552734375,1.5703125-2.734375,2.4267578125-4.73046875,2.57421875-1.0849609375.138671875-3.595703125-.099609375-7.52734375-.70703125-3.935546875-.607421875-8.6259765625-1.482421875-14.0703125-2.6298828125-.4501953125,3.884765625-.94140625,7.798828125-1.4716796875,11.7412109375-.53515625,3.9462890625-1.037109375,7.9326171875-1.5068359375,11.96484375-.482421875,1.1435546875-1.150390625,2.0263671875-2.005859375,2.65234375-.859375.6298828125-2.037109375,1.130859375-3.5380859375,1.505859375-1.50390625.376953125-3.6123046875.5068359375-6.328125.388671875-2.5732421875-.0908203125-5.2451171875-.2392578125-8.0263671875-.44140625-2.7822265625-.201171875-5.3427734375-.5966796875-7.681640625-1.1865234375-2.3408203125-.58984375-4.33203125-1.4677734375-5.9765625-2.6328125-1.642578125-1.1650390625-2.5390625-2.7470703125-2.6845703125-4.7470703125-.09375-1.3818359375.2041015625-4.52734375.88671875-9.4365234375.6806640625-4.9111328125,1.6865234375-10.6826171875,3.017578125-17.31640625-3.515625-.8466796875-6.822265625-1.5849609375-9.916015625-2.2158203125-3.09375-.6279296875-5.7431640625-1.1904296875-7.947265625-1.68359375-2.6484375-.55859375-5.07421875-1.0869140625-7.27734375-1.580078125-.7685546875.033203125-1.40234375-.2919921875-1.90234375-.978515625-.3759765625-.513671875-.7119140625-1.28515625-1.0087890625-2.3212890625-.2958984375-1.0322265625-.2841796875-2.5869140625.037109375-4.66796875.171875-2.099609375.43359375-4.5283203125.7841796875-7.2880859375.34765625-2.755859375.7490234375-5.35546875,1.2041015625-7.7919921875.4521484375-2.4384765625,1.0390625-4.513671875,1.759765625-6.2255859375.7216796875-1.712890625,1.611328125-2.5625,2.673828125-2.55078125l28.791015625,3.9921875c.8232421875-3.3671875,1.6005859375-6.4384765625,2.3359375-9.2138671875.732421875-2.7724609375,1.4052734375-5.17578125,2.025390625-7.2099609375.6865234375-2.4765625,1.263671875-4.7421875,1.734375-6.798828125-.0576171875-.615234375.2568359375-1.17578125.943359375-1.6787109375.515625-.3759765625,1.3251953125-.70703125,2.4326171875-.9912109375,1.1064453125-.28515625,2.69921875-.267578125,4.779296875.0537109375,2.0771484375.3212890625,4.482421875.7314453125,7.2197265625,1.2294921875,2.732421875.5009765625,5.30859375,1.048828125,7.724609375,1.6494140625,2.4150390625.6015625,4.4716796875,1.2998046875,6.1728515625,2.09375,1.701171875.7978515625,2.470703125,1.7138671875,2.310546875,2.7509765625-.74609375,3.837890625-1.453125,7.6796875-2.123046875,11.5263671875-.6728515625,3.849609375-1.3037109375,7.7021484375-1.8994140625,11.560546875l21.41015625,3.080078125c.9892578125.458984375,1.8759765625,1.1279296875,2.6533203125,2.005859375.6259765625.859375,1.126953125,2.0380859375,1.50390625,3.5380859375.3740234375,1.50390625.515625,3.5380859375.4248046875,6.1064453125Z"/>
  <path class="cls-3" d="M44.448636968088977,152.2099609375c30.2001953125,4.2099609375,60.259765625,8.853515625,90.17578125,13.931640625,1.013671875.3095703125,1.9345703125.755859375,2.7568359375,1.337890625,1.8125,1.04296875,2.611328125,2.7626953125,2.39453125,5.158203125-.05859375,1.3583984375-.189453125,2.705078125-.3955078125,4.0419921875-.2060546875,1.3359375-.625,2.5634765625-1.2529296875,3.6826171875-.6298828125,1.119140625-1.568359375,2.037109375-2.8203125,2.755859375-1.25.7177734375-2.8544921875,1.00390625-4.8046875.8515625-.8916015625-.13671875-2.8603515625-.44140625-5.9013671875-.9111328125-3.0439453125-.4697265625-6.66796875-1.1044921875-10.875-1.9072265625-4.2080078125-.80078125-8.861328125-1.6728515625-13.958984375-2.61328125-5.0986328125-.9375-10.234375-1.8837890625-15.40625-2.8359375-5.1513671875-1.09765625-10.09375-2.0517578125-14.83203125-2.861328125-4.740234375-.8076171875-9.025390625-1.583984375-12.8623046875-2.3291015625-4.4287109375-.833984375-8.5751953125-1.5537109375-12.43359375-2.1494140625-.744140625-.115234375-1.3896484375-.3642578125-1.935546875-.7548828125-.548828125-.3876953125-1.0478515625-.845703125-1.4970703125-1.3720703125-.453125-.525390625-.6728515625-1.318359375-.658203125-2.380859375.01171875-1.0595703125.0107421875-2.2783203125-.0068359375-3.6484375-.0166015625-1.3701171875.1083984375-2.6796875.3798828125-3.9296875.267578125-1.2490234375.6953125-2.2880859375,1.2783203125-3.1083984375.58203125-.822265625,1.4658203125-1.1416015625,2.6552734375-.9580078125ZM146.225980718088977,104.330078125c-.2666015625,2.6943359375-.5419921875,5.466796875-.826171875,8.3076171875-.291015625,2.84375-.8037109375,5.42578125-1.5390625,7.7412109375-.7392578125,2.3193359375-1.68359375,4.263671875-2.837890625,5.8310546875-1.1552734375,1.5703125-2.734375,2.4267578125-4.73046875,2.57421875-1.0849609375.138671875-3.595703125-.099609375-7.52734375-.70703125-3.935546875-.607421875-8.6259765625-1.482421875-14.0703125-2.6298828125-.4501953125,3.884765625-.94140625,7.798828125-1.4716796875,11.7412109375-.53515625,3.9462890625-1.037109375,7.9326171875-1.5068359375,11.96484375-.482421875,1.1435546875-1.150390625,2.0263671875-2.005859375,2.65234375-.859375.6298828125-2.037109375,1.130859375-3.5380859375,1.505859375-1.50390625.376953125-3.6123046875.5068359375-6.328125.388671875-2.5732421875-.0908203125-5.2451171875-.2392578125-8.0263671875-.44140625-2.7822265625-.201171875-5.3427734375-.5966796875-7.681640625-1.1865234375-2.3408203125-.58984375-4.33203125-1.4677734375-5.9765625-2.6328125-1.642578125-1.1650390625-2.5390625-2.7470703125-2.6845703125-4.7470703125-.09375-1.3818359375.2041015625-4.52734375.88671875-9.4365234375.6806640625-4.9111328125,1.6865234375-10.6826171875,3.017578125-17.31640625-3.515625-.8466796875-6.822265625-1.5849609375-9.916015625-2.2158203125-3.09375-.6279296875-5.7431640625-1.1904296875-7.947265625-1.68359375-2.6484375-.55859375-5.07421875-1.0869140625-7.27734375-1.580078125-.7685546875.033203125-1.40234375-.2919921875-1.90234375-.978515625-.3759765625-.513671875-.7119140625-1.28515625-1.0087890625-2.3212890625-.2958984375-1.0322265625-.2841796875-2.5869140625.037109375-4.66796875.171875-2.099609375.43359375-4.5283203125.7841796875-7.2880859375.34765625-2.755859375.7490234375-5.35546875,1.2041015625-7.7919921875.4521484375-2.4384765625,1.0390625-4.513671875,1.759765625-6.2255859375.7216796875-1.712890625,1.611328125-2.5625,2.673828125-2.55078125l28.791015625,3.9921875c.8232421875-3.3671875,1.6005859375-6.4384765625,2.3359375-9.2138671875.732421875-2.7724609375,1.4052734375-5.17578125,2.025390625-7.2099609375.6865234375-2.4765625,1.263671875-4.7421875,1.734375-6.798828125-.0576171875-.615234375.2568359375-1.17578125.943359375-1.6787109375.515625-.3759765625,1.3251953125-.70703125,2.4326171875-.9912109375,1.1064453125-.28515625,2.69921875-.267578125,4.779296875.0537109375,2.0771484375.3212890625,4.482421875.7314453125,7.2197265625,1.2294921875,2.732421875.5009765625,5.30859375,1.048828125,7.724609375,1.6494140625,2.4150390625.6015625,4.4716796875,1.2998046875,6.1728515625,2.09375,1.701171875.7978515625,2.470703125,1.7138671875,2.310546875,2.7509765625-.74609375,3.837890625-1.453125,7.6796875-2.123046875,11.5263671875-.6728515625,3.849609375-1.3037109375,7.7021484375-1.8994140625,11.560546875l21.41015625,3.080078125c.9892578125.458984375,1.8759765625,1.1279296875,2.6533203125,2.005859375.6259765625.859375,1.126953125,2.0380859375,1.50390625,3.5380859375.3740234375,1.50390625.515625,3.5380859375.4248046875,6.1064453125Z"/>
</svg>