<?xml version="1.0" encoding="UTF-8"?>
<svg xmlns="http://www.w3.org/2000/svg" viewBox="0 0 280.000000000009095 280">
  <defs>
    <style>
      .cls-1 {
        stroke: #665451;
        stroke-width: 50px;
      }

      .cls-1, .cls-2 {
        fill: none;
        stroke-linecap: round;
        stroke-linejoin: round;
      }

      .cls-3 {
        fill: #fff;
      }

      .cls-4 {
        fill: #e11f26;
      }

      .cls-5 {
        fill: #ec1940;
      }

      .cls-2 {
        stroke: #998675;
        stroke-width: 2px;
      }
    </style>
  </defs>
  <g id="Layer_1">
    <g>
      <path class="cls-1" d="M44.448636968088977,152.2099609375c30.2001953125,4.2099609375,60.259765625,8.853515625,90.17578125,13.931640625,1.013671875.3095703125,1.9345703125.755859375,2.7568359375,1.337890625,1.8125,1.04296875,2.611328125,2.7626953125,2.39453125,5.158203125-.05859375,1.3583984375-.189453125,2.705078125-.3955078125,4.0419921875-.2060546875,1.3359375-.625,2.5634765625-1.2529296875,3.6826171875-.6298828125,1.119140625-1.568359375,2.037109375-2.8203125,2.755859375-1.25.7177734375-2.8544921875,1.00390625-4.8046875.8515625-.8916015625-.13671875-2.8603515625-.44140625-5.9013671875-.9111328125-3.0439453125-.4697265625-6.66796875-1.1044921875-10.875-1.9072265625-4.2080078125-.80078125-8.861328125-1.6728515625-13.958984375-2.61328125-5.0986328125-.9375-10.234375-1.8837890625-15.40625-2.8359375-5.1513671875-1.09765625-10.09375-2.0517578125-14.83203125-2.861328125-4.740234375-.8076171875-9.025390625-1.583984375-12.8623046875-2.3291015625-4.4287109375-.833984375-8.5751953125-1.5537109375-12.43359375-2.1494140625-.744140625-.115234375-1.3896484375-.3642578125-1.935546875-.7548828125-.548828125-.3876953125-1.0478515625-.845703125-1.4970703125-1.3720703125-.453125-.525390625-.6728515625-1.318359375-.658203125-2.380859375.01171875-1.0595703125.0107421875-2.2783203125-.0068359375-3.6484375-.0166015625-1.3701171875.1083984375-2.6796875.3798828125-3.9296875.267578125-1.2490234375.6953125-2.2880859375,1.2783203125-3.1083984375.58203125-.822265625,1.4658203125-1.1416015625,2.6552734375-.9580078125ZM146.225980718088977,104.330078125c-.2666015625,2.6943359375-.5419921875,5.466796875-.826171875,8.3076171875-.291015625,2.84375-.8037109375,5.42578125-1.5390625,7.7412109375-.7392578125,2.3193359375-1.68359375,4.263671875-2.837890625,5.8310546875-1.1552734375,1.5703125-2.734375,2.4267578125-4.73046875,2.57421875-1.0849609375.138671875-3.595703125-.099609375-7.52734375-.70703125-3.935546875-.607421875-8.6259765625-1.482421875-14.0703125-2.6298828125-.4501953125,3.884765625-.94140625,7.798828125-1.4716796875,11.7412109375-.53515625,3.9462890625-1.037109375,7.9326171875-1.5068359375,11.96484375-.482421875,1.1435546875-1.150390625,2.0263671875-2.005859375,2.65234375-.859375.6298828125-2.037109375,1.130859375-3.5380859375,1.505859375-1.50390625.376953125-3.6123046875.5068359375-6.328125.388671875-2.5732421875-.0908203125-5.2451171875-.2392578125-8.0263671875-.44140625-2.7822265625-.201171875-5.3427734375-.5966796875-7.681640625-1.1865234375-2.3408203125-.58984375-4.33203125-1.4677734375-5.9765625-2.6328125-1.642578125-1.1650390625-2.5390625-2.7470703125-2.6845703125-4.7470703125-.09375-1.3818359375.2041015625-4.52734375.88671875-9.4365234375.6806640625-4.9111328125,1.6865234375-10.6826171875,3.017578125-17.31640625-3.515625-.8466796875-6.822265625-1.5849609375-9.916015625-2.2158203125-3.09375-.6279296875-5.7431640625-1.1904296875-7.947265625-1.68359375-2.6484375-.55859375-5.07421875-1.0869140625-7.27734375-1.580078125-.7685546875.033203125-1.40234375-.2919921875-1.90234375-.978515625-.3759765625-.513671875-.7119140625-1.28515625-1.0087890625-2.3212890625-.2958984375-1.0322265625-.2841796875-2.5869140625.037109375-4.66796875.171875-2.099609375.43359375-4.5283203125.7841796875-7.2880859375.34765625-2.755859375.7490234375-5.35546875,1.2041015625-7.7919921875.4521484375-2.4384765625,1.0390625-4.513671875,1.759765625-6.2255859375.7216796875-1.712890625,1.611328125-2.5625,2.673828125-2.55078125l28.791015625,3.9921875c.8232421875-3.3671875,1.6005859375-6.4384765625,2.3359375-9.2138671875.732421875-2.7724609375,1.4052734375-5.17578125,2.025390625-7.2099609375.6865234375-2.4765625,1.263671875-4.7421875,1.734375-6.798828125-.0576171875-.615234375.2568359375-1.17578125.943359375-1.6787109375.515625-.3759765625,1.3251953125-.70703125,2.4326171875-.9912109375,1.1064453125-.28515625,2.69921875-.267578125,4.779296875.0537109375,2.0771484375.3212890625,4.482421875.7314453125,7.2197265625,1.2294921875,2.732421875.5009765625,5.30859375,1.048828125,7.724609375,1.6494140625,2.4150390625.6015625,4.4716796875,1.2998046875,6.1728515625,2.09375,1.701171875.7978515625,2.470703125,1.7138671875,2.310546875,2.7509765625-.74609375,3.837890625-1.453125,7.6796875-2.123046875,11.5263671875-.6728515625,3.849609375-1.3037109375,7.7021484375-1.8994140625,11.560546875l21.41015625,3.080078125c.9892578125.458984375,1.8759765625,1.1279296875,2.6533203125,2.005859375.6259765625.859375,1.126953125,2.0380859375,1.50390625,3.5380859375.3740234375,1.50390625.515625,3.5380859375.4248046875,6.1064453125Z"/>
      <path class="cls-2" d="M44.448636968088977,152.2099609375c30.2001953125,4.2099609375,60.259765625,8.853515625,90.17578125,13.931640625,1.013671875.3095703125,1.9345703125.755859375,2.7568359375,1.337890625,1.8125,1.04296875,2.611328125,2.7626953125,2.39453125,5.158203125-.05859375,1.3583984375-.189453125,2.705078125-.3955078125,4.0419921875-.2060546875,1.3359375-.625,2.5634765625-1.2529296875,3.6826171875-.6298828125,1.119140625-1.568359375,2.037109375-2.8203125,2.755859375-1.25.7177734375-2.8544921875,1.00390625-4.8046875.8515625-.8916015625-.13671875-2.8603515625-.44140625-5.9013671875-.9111328125-3.0439453125-.4697265625-6.66796875-1.1044921875-10.875-1.9072265625-4.2080078125-.80078125-8.861328125-1.6728515625-13.958984375-2.61328125-5.0986328125-.9375-10.234375-1.8837890625-15.40625-2.8359375-5.1513671875-1.09765625-10.09375-2.0517578125-14.83203125-2.861328125-4.740234375-.8076171875-9.025390625-1.583984375-12.8623046875-2.3291015625-4.4287109375-.833984375-8.5751953125-1.5537109375-12.43359375-2.1494140625-.744140625-.115234375-1.3896484375-.3642578125-1.935546875-.7548828125-.548828125-.3876953125-1.0478515625-.845703125-1.4970703125-1.3720703125-.453125-.525390625-.6728515625-1.318359375-.658203125-2.380859375.01171875-1.0595703125.0107421875-2.2783203125-.0068359375-3.6484375-.0166015625-1.3701171875.1083984375-2.6796875.3798828125-3.9296875.267578125-1.2490234375.6953125-2.2880859375,1.2783203125-3.1083984375.58203125-.822265625,1.4658203125-1.1416015625,2.6552734375-.9580078125ZM146.225980718088977,104.330078125c-.2666015625,2.6943359375-.5419921875,5.466796875-.826171875,8.3076171875-.291015625,2.84375-.8037109375,5.42578125-1.5390625,7.7412109375-.7392578125,2.3193359375-1.68359375,4.263671875-2.837890625,5.8310546875-1.1552734375,1.5703125-2.734375,2.4267578125-4.73046875,2.57421875-1.0849609375.138671875-3.595703125-.099609375-7.52734375-.70703125-3.935546875-.607421875-8.6259765625-1.482421875-14.0703125-2.6298828125-.4501953125,3.884765625-.94140625,7.798828125-1.4716796875,11.7412109375-.53515625,3.9462890625-1.037109375,7.9326171875-1.5068359375,11.96484375-.482421875,1.1435546875-1.150390625,2.0263671875-2.005859375,2.65234375-.859375.6298828125-2.037109375,1.130859375-3.5380859375,1.505859375-1.50390625.376953125-3.6123046875.5068359375-6.328125.388671875-2.5732421875-.0908203125-5.2451171875-.2392578125-8.0263671875-.44140625-2.7822265625-.201171875-5.3427734375-.5966796875-7.681640625-1.1865234375-2.3408203125-.58984375-4.33203125-1.4677734375-5.9765625-2.6328125-1.642578125-1.1650390625-2.5390625-2.7470703125-2.6845703125-4.7470703125-.09375-1.3818359375.2041015625-4.52734375.88671875-9.4365234375.6806640625-4.9111328125,1.6865234375-10.6826171875,3.017578125-17.31640625-3.515625-.8466796875-6.822265625-1.5849609375-9.916015625-2.2158203125-3.09375-.6279296875-5.7431640625-1.1904296875-7.947265625-1.68359375-2.6484375-.55859375-5.07421875-1.0869140625-7.27734375-1.580078125-.7685546875.033203125-1.40234375-.2919921875-1.90234375-.978515625-.3759765625-.513671875-.7119140625-1.28515625-1.0087890625-2.3212890625-.2958984375-1.0322265625-.2841796875-2.5869140625.037109375-4.66796875.171875-2.099609375.43359375-4.5283203125.7841796875-7.2880859375.34765625-2.755859375.7490234375-5.35546875,1.2041015625-7.7919921875.4521484375-2.4384765625,1.0390625-4.513671875,1.759765625-6.2255859375.7216796875-1.712890625,1.611328125-2.5625,2.673828125-2.55078125l28.791015625,3.9921875c.8232421875-3.3671875,1.6005859375-6.4384765625,2.3359375-9.2138671875.732421875-2.7724609375,1.4052734375-5.17578125,2.025390625-7.2099609375.6865234375-2.4765625,1.263671875-4.7421875,1.734375-6.798828125-.0576171875-.615234375.2568359375-1.17578125.943359375-1.6787109375.515625-.3759765625,1.3251953125-.70703125,2.4326171875-.9912109375,1.1064453125-.28515625,2.69921875-.267578125,4.779296875.0537109375,2.0771484375.3212890625,4.482421875.7314453125,7.2197265625,1.2294921875,2.732421875.5009765625,5.30859375,1.048828125,7.724609375,1.6494140625,2.4150390625.6015625,4.4716796875,1.2998046875,6.1728515625,2.09375,1.701171875.7978515625,2.470703125,1.7138671875,2.310546875,2.7509765625-.74609375,3.837890625-1.453125,7.6796875-2.123046875,11.5263671875-.6728515625,3.849609375-1.3037109375,7.7021484375-1.8994140625,11.560546875l21.41015625,3.080078125c.9892578125.458984375,1.8759765625,1.1279296875,2.6533203125,2.005859375.6259765625.859375,1.126953125,2.0380859375,1.50390625,3.5380859375.3740234375,1.50390625.515625,3.5380859375.4248046875,6.1064453125Z"/>
      <path class="cls-3" d="M44.448636968088977,152.2099609375c30.2001953125,4.2099609375,60.259765625,8.853515625,90.17578125,13.931640625,1.013671875.3095703125,1.9345703125.755859375,2.7568359375,1.337890625,1.8125,1.04296875,2.611328125,2.7626953125,2.39453125,5.158203125-.05859375,1.3583984375-.189453125,2.705078125-.3955078125,4.0419921875-.2060546875,1.3359375-.625,2.5634765625-1.2529296875,3.6826171875-.6298828125,1.119140625-1.568359375,2.037109375-2.8203125,2.755859375-1.25.7177734375-2.8544921875,1.00390625-4.8046875.8515625-.8916015625-.13671875-2.8603515625-.44140625-5.9013671875-.9111328125-3.0439453125-.4697265625-6.66796875-1.1044921875-10.875-1.9072265625-4.2080078125-.80078125-8.861328125-1.6728515625-13.958984375-2.61328125-5.0986328125-.9375-10.234375-1.8837890625-15.40625-2.8359375-5.1513671875-1.09765625-10.09375-2.0517578125-14.83203125-2.861328125-4.740234375-.8076171875-9.025390625-1.583984375-12.8623046875-2.3291015625-4.4287109375-.833984375-8.5751953125-1.5537109375-12.43359375-2.1494140625-.744140625-.115234375-1.3896484375-.3642578125-1.935546875-.7548828125-.548828125-.3876953125-1.0478515625-.845703125-1.4970703125-1.3720703125-.453125-.525390625-.6728515625-1.318359375-.658203125-2.380859375.01171875-1.0595703125.0107421875-2.2783203125-.0068359375-3.6484375-.0166015625-1.3701171875.1083984375-2.6796875.3798828125-3.9296875.267578125-1.2490234375.6953125-2.2880859375,1.2783203125-3.1083984375.58203125-.822265625,1.4658203125-1.1416015625,2.6552734375-.9580078125ZM146.225980718088977,104.330078125c-.2666015625,2.6943359375-.5419921875,5.466796875-.826171875,8.3076171875-.291015625,2.84375-.8037109375,5.42578125-1.5390625,7.7412109375-.7392578125,2.3193359375-1.68359375,4.263671875-2.837890625,5.8310546875-1.1552734375,1.5703125-2.734375,2.4267578125-4.73046875,2.57421875-1.0849609375.138671875-3.595703125-.099609375-7.52734375-.70703125-3.935546875-.607421875-8.6259765625-1.482421875-14.0703125-2.6298828125-.4501953125,3.884765625-.94140625,7.798828125-1.4716796875,11.7412109375-.53515625,3.9462890625-1.037109375,7.9326171875-1.5068359375,11.96484375-.482421875,1.1435546875-1.150390625,2.0263671875-2.005859375,2.65234375-.859375.6298828125-2.037109375,1.130859375-3.5380859375,1.505859375-1.50390625.376953125-3.6123046875.5068359375-6.328125.388671875-2.5732421875-.0908203125-5.2451171875-.2392578125-8.0263671875-.44140625-2.7822265625-.201171875-5.3427734375-.5966796875-7.681640625-1.1865234375-2.3408203125-.58984375-4.33203125-1.4677734375-5.9765625-2.6328125-1.642578125-1.1650390625-2.5390625-2.7470703125-2.6845703125-4.7470703125-.09375-1.3818359375.2041015625-4.52734375.88671875-9.4365234375.6806640625-4.9111328125,1.6865234375-10.6826171875,3.017578125-17.31640625-3.515625-.8466796875-6.822265625-1.5849609375-9.916015625-2.2158203125-3.09375-.6279296875-5.7431640625-1.1904296875-7.947265625-1.68359375-2.6484375-.55859375-5.07421875-1.0869140625-7.27734375-1.580078125-.7685546875.033203125-1.40234375-.2919921875-1.90234375-.978515625-.3759765625-.513671875-.7119140625-1.28515625-1.0087890625-2.3212890625-.2958984375-1.0322265625-.2841796875-2.5869140625.037109375-4.66796875.171875-2.099609375.43359375-4.5283203125.7841796875-7.2880859375.34765625-2.755859375.7490234375-5.35546875,1.2041015625-7.7919921875.4521484375-2.4384765625,1.0390625-4.513671875,1.759765625-6.2255859375.7216796875-1.712890625,1.611328125-2.5625,2.673828125-2.55078125l28.791015625,3.9921875c.8232421875-3.3671875,1.6005859375-6.4384765625,2.3359375-9.2138671875.732421875-2.7724609375,1.4052734375-5.17578125,2.025390625-7.2099609375.6865234375-2.4765625,1.263671875-4.7421875,1.734375-6.798828125-.0576171875-.615234375.2568359375-1.17578125.943359375-1.6787109375.515625-.3759765625,1.3251953125-.70703125,2.4326171875-.9912109375,1.1064453125-.28515625,2.69921875-.267578125,4.779296875.0537109375,2.0771484375.3212890625,4.482421875.7314453125,7.2197265625,1.2294921875,2.732421875.5009765625,5.30859375,1.048828125,7.724609375,1.6494140625,2.4150390625.6015625,4.4716796875,1.2998046875,6.1728515625,2.09375,1.701171875.7978515625,2.470703125,1.7138671875,2.310546875,2.7509765625-.74609375,3.837890625-1.453125,7.6796875-2.123046875,11.5263671875-.6728515625,3.849609375-1.3037109375,7.7021484375-1.8994140625,11.560546875l21.41015625,3.080078125c.9892578125.458984375,1.8759765625,1.1279296875,2.6533203125,2.005859375.6259765625.859375,1.126953125,2.0380859375,1.50390625,3.5380859375.3740234375,1.50390625.515625,3.5380859375.4248046875,6.1064453125Z"/>
    </g>
  </g>
  <g id="Arrows">
    <g>
      <g>
        <path class="cls-5" d="M216.239088667207398,177.011143461189931c9.647506713870825,0,18.182769775390625.61407470703125,26.093521118171338,1.8773193359375,2.437667846679688.3892822265625,5.081085205070849.5784912109375,8.081329345699487.5784912109375,2.584625244140625,0,5.178833007801586-.1383056640625,7.407546997070312-.26800537109375,2.849182128909888-.16571044921875,5.877426147460938-.242919921875,9.530044555671338-.242919921875,2.790802001949487,0,5.633453369129711.04583740234375,8.382537841789599.09014892578125,1.278045654300513.0206298828125,2.555831909179688.04119873046875,3.833175659179688.05755615234375,8.607666015628638.10992431640625,16.209320068359375,1.57861328125,23.239379882808862,4.48992919921875,13.068466186530713,5.4119873046875,21.741531372070312,15.2147216796875,25.778244018561963,29.13592529296875,2.87908935546875,9.92889404296875,3.709594726558862,20.678466796875,2.613586425777612,33.82952880859375-.037872314449487.45465087890625-.039764404300513.89862060546875-.041564941409888,1.32794189453125-.001922607418237.45135498046875-.003753662109375.87762451171875-.045989990238013,1.28741455078125-.898101806629711,8.7159423828125.101776123057789,17.4200439453125,1.068725585948414,25.8375244140625.195465087890625,1.70166015625.390960693359375,3.4033203125.571472167961474,5.105712890625.127838134769263,1.20587158203125.1688232421875,2.45648193359375.20849609375,3.6658935546875.057098388679151,1.74139404296875.1160888671875,3.54095458984375.42919921875,5.3289794921875v13.2296142578125c-.347808837879711,1.5208740234375-.4228515625,3.0526123046875-.495452880852099,4.5350341796875-.026824951179151.54779052734375-.053497314460401,1.09466552734375-.094207763679151,1.6385498046875-.482177734378638,6.444580078125-3.044708251949487,12.39947509765625-8.064422607429151,18.74041748046875-8.244659423820849,10.41455078125-19.4307708740198,15.663818359375-34.197494506821386,16.04779052734375-.439514160159888.01141357421875-.878860473640088.0172119140625-1.315567016597925.0172119140625-7.625320434581226,0-14.220581054691138-1.7264404296875-20.162689208991651-5.27801513671875-6.481842041008349-3.8741455078125-11.447128295898438-9.30035400390625-14.760757446289062-16.13360595703125-.796081542979664-1.6416015625-1.234603881839575-2.54583740234375-2.297241210941138-2.54608154296875-.7685546875-.00006103515625-1.339584350578662.544921875-2.376205444328662,1.5343017578125l-.076110839851026.0726318359375c-1.821868896480737,1.73828125-3.6470794677698,3.47314453125-5.472290039058862,5.20806884765625-7.718582153320312,7.33660888671875-15.699951171871362,14.92303466796875-23.292846679691138,22.65997314453125-1.186782836910425,1.20928955078125-2.346527099598461,2.4732666015625-3.468078613288526,3.6956787109375-1.527786254871899,1.66510009765625-3.107604980461474,3.38690185546875-4.756286621090112,4.96868896484375-4.7598724365198,4.56695556640625-9.583160400379711,7.76416015625-14.745468139641162,9.7742919921875-3.338058471679688,1.2998046875-6.819686889659351,1.43402099609375-10.505737304691138,1.5760498046875l-.18603515625.00787353515625-3.377685546867724-.00006103515625-3.4214935302698.00103759765625c-.440895080570044.01983642578125-.878974914561695.02960205078125-1.312286376960401.02960205078125-7.575714111331763,0-14.70158386230105-3.02203369140625-21.784790039069776-9.2388916015625-4.392814636230469-3.85552978515625-7.836921691890893-7.76263427734375-10.529159545891162-11.94464111328125-3.431709289550781-5.33074951171875-5.024971008300781-11.15118408203125-4.870582580570044-17.81707763671875l-.001182556148706-6.0845947265625c-.432762145992456-8.91302490234375,2.935287475589575-17.052490234375,10.0106353759802-24.19219970703125,4.933311462398706-4.978271484375,10.113632202148438-9.88677978515625,15.123390197739354-14.63372802734375,4.509948730479664-4.27337646484375,9.173477172858838-8.6922607421875,13.654029846198682-13.15869140625,2.37725830078125-2.36981201171875,4.842391967780713-4.75006103515625,7.226364135749463-7.05194091796875,1.079559326171875-1.04241943359375,2.159057617180224-2.08477783203125,3.2346038818323-3.12982177734375.90234375-.8768310546875,1.695922851558862-1.74737548828125,1.498260498039599-2.7569580078125-.198486328121362-1.01385498046875-1.2357330322302-1.50927734375-2.469253540031787-2.00823974609375-8.082794189449487-3.2691650390625-14.294792175289331-8.67144775390625-18.463478088378906-16.056640625-2.380683898929419-4.21771240234375-3.804626464840112-9.00274658203125-4.353179931640625-14.62860107421875-.824348449710669-8.4537353515625.548263549811963-16.679443359375,4.079681396480737-24.4486083984375,4.827789306640625-10.62139892578125,12.893165588378906-18.1539306640625,23.972023010261182-22.38836669921875,4.607742309559399-1.7611083984375,9.335510253909888-2.1168212890625,13.758193969719287-2.2388916015625,2.465881347659888-.06805419921875,4.869171142578125-.10260009765625,7.143096923828125-.10260009765625M216.239088667207398,176.011143461189931c-2.389114379879175,0-4.780014038078662.0369873046875-7.170715332027612.10296630859375-4.747711181640625.13104248046875-9.4990234375.5506591796875-14.08760070801145,2.304443359375-11.32763671875,4.3294677734375-19.530921936038794,11.92059326171875-24.52536773680913,22.90863037109375-3.598472595229396,7.916748046875-5.016395568851294,16.22412109375-4.164604187011719,24.95947265625.521316528320312,5.346435546875,1.8507080078125,10.36920166015625,4.477630615230737,15.0230712890625,4.361473083499732,7.726806640625,10.740997314449487,13.16815185546875,18.9593658447302,16.4921875,2.319473266601562.9381103515625,2.42695617676145,1.3934326171875.649078369140625,3.12091064453125-3.493072509769263,3.39410400390625-7.028106689460401,6.7596435546875-10.470077514659351,10.19073486328125-9.450416564930492,9.42071533203125-19.396682739250537,18.32623291015625-28.781761169429956,27.7967529296875-6.723686218261719,6.784912109375-10.781234741210938,15.01544189453125-10.29913330078125,24.94464111328125v6.03607177734375c-.153625488288526,6.62188720703125,1.397636413581495,12.71630859375,5.029739379890088,18.35833740234375,2.974235534660693,4.62005615234375,6.646316528320312,8.5880126953125,10.710342407219287,12.15496826171875,6.43556976319087,5.6484375,13.7030181884802,9.4873046875,22.44443511962163,9.4873046875.448150634780177,0,.901191711440333-.0101318359375,1.357170104980469-.03057861328125,1.125144958499732,0,2.250648498549708-.00006103515625,3.376625061049708-.00006103515625s2.252426147450024.00006103515625,3.379486083969823.00006103515625c3.746307373050513-.1448974609375,7.487594604510377-.2637939453125,11.052841186537989-1.652099609375,5.751174926750537-2.23944091796875,10.653305053710938-5.74212646484375,15.0749359130823-9.9844970703125,2.884750366200024-2.76776123046875,5.451538085930224-5.83831787109375,8.245742797847925-8.685546875,9.34521484375-9.52252197265625,19.090103149421338-18.63629150390625,28.741744995120825-27.844970703125.903274536129175-.86181640625,1.383209228519263-1.3304443359375,1.761856079090649-1.33038330078125.436889648448414.00006103515625.738906860358838.62408447265625,1.400375366218213,1.98809814453125,3.405151367191138,7.02203369140625,8.453079223640088,12.55035400390625,15.14472961426145,16.54986572265625,6.38957214355105,3.81903076171875,13.33406066894895,5.419677734375,20.675720214851026,5.419677734375.445343017567211,0,.89335632323855-.00592041015625,1.341567993149511-.017578125,14.059722900397901-.36553955078125,26.058792114268726-5.1884765625,34.955551147468213-16.4267578125,4.466857910159888-5.64251708984375,7.723114013671875-11.87579345703125,8.277587890632276-19.2864990234375.152496337879711-2.038330078125.112701416008349-4.11798095703125.592437744129711-6.133056640625v-13.43280029296875c-.5362548828125-2.9808349609375-.325469970710401-6.01458740234375-.643280029289599-9.01220703125-1.083099365241651-10.21563720703125-2.704559326171875-20.4029541015625-1.639862060550513-30.7353515625.089721679680224-.8707275390625.016235351558862-1.757080078125.08935546875-2.63482666015625.961791992180224-11.54083251953125.586029052738013-23.0322265625-2.649688720699487-34.1910400390625-4.0557861328125-13.98687744140625-12.746917724620289-24.1453857421875-26.356094360351562-29.78131103515625-7.546844482429151-3.1253662109375-15.480606079108838-4.462158203125-23.609207153320312-4.56597900390625-4.073989868178614-.05206298828125-8.152923583998927-.1478271484375-12.228469848640088-.14776611328125-3.199874877929688,0-6.397918701168237.05902099609375-9.588134765628638.24462890625-2.460159301750537.14312744140625-4.908111572261987.26629638671875-7.349487304680224.26629638671875-2.64697265625,0-5.286163330081763-.144775390625-7.923629760749463-.56597900390625-8.710098266590649-1.390869140625-17.472473144520336-1.88983154296875-26.2512054443323-1.88983154296875h0Z"/>
        <path class="cls-5" d="M215.418776167207398,206.144383207283681c6.575668334960938,0,13.255661010742188,1.05926513671875,19.0007171630823,2.0521240234375,5.113983154307789.88372802734375,10.489562988288526,1.29534912109375,16.917312622070312,1.29534912109375,4.036087036129175,0,8.003982543959864-.16802978515625,11.009902954108838-.3143310546875,3.233718872070312-.157470703125,6.681381225589575-.31121826171875,10.15339660644895-.31121826171875,4.914291381821386,0,8.987365722641698.30816650390625,12.818206787109375.96990966796875,10.220581054680224,1.76544189453125,14.563751220692211,6.50469970703125,15.490661621090112,16.9033203125.747955322261987,8.39080810546875.770416259761987,17.2764892578125.066741943352099,26.4100341796875-.737182617180224,9.56866455078125.677429199229664,19.03558349609375,2.045501708988013,28.19085693359375.161148071281787,1.07861328125.322357177741651,2.15740966796875.480255126960401,3.2366943359375.869674682609912,5.94488525390625,1.502197265621362,12.2994384765625.252395629871899,18.48895263671875-1.188980102531787,5.8883056640625-7.102142333969823,10.50079345703125-13.461853027340112,10.50079345703125-1.778366088859912,0-3.471923828121362-.3604736328125-5.033645629890088-1.07147216796875-3.461761474602099-1.57586669921875-4.482284545891162-4.69110107421875-4.949539184570312-8.8837890625-.599777221679688-5.3818359375-.293594360340649-10.883056640625.002502441420802-16.20306396484375.169296264648438-3.0418701171875.344375610347925-6.18731689453125.351272583007812-9.29620361328125.016128540031787-7.27154541015625-.326522827148438-15.7420654296875-4.623413085948414-24.25189208984375l-.654281616200024-1.2957763671875-.977600097659888,1.07305908203125c-.678207397460938.74444580078125-1.346939086910425,1.49835205078125-2.015686035159888,2.2523193359375-1.415496826171875,1.595947265625-2.879196166992188,3.2462158203125-4.404327392570849,4.76068115234375-9.1064453125,9.04266357421875-17.37947082519895,17.17999267578125-25.291793823249463,24.876953125-8.338317871090112,8.111328125-16.836853027340112,16.338134765625-25.055572509769263,24.2940673828125-5.7088775634802,5.5263671875-11.417785644520336,11.052734375-17.120361328121362,16.5855712890625-1.470062255859375,1.42633056640625-2.818084716789599,2.98468017578125-4.121719360358838,4.49169921875-1.765426635731274,2.0408935546875-3.590957641590649,4.1512451171875-5.692947387680761,5.88555908203125-2.562408447269263,2.11431884765625-4.751708984389552,3.09906005859375-6.88984680176145,3.09906005859375-2.087112426757812,0-4.209724426269531-.9337158203125-6.679962158199487-2.9383544921875-.696205139160156-.56494140625-1.428939819339575-1.17755126953125-2.070884704589844-1.82891845703125-5.559120178229932-5.64044189453125-5.597717285159888-10.6097412109375-.125175476088771-16.112548828125,1.767913818370289-1.77764892578125,3.729232788100489-3.45147705078125,5.6259765625-5.07025146484375,1.931106567390088-1.6480712890625,3.927932739268726-3.35223388671875,5.756484985358838-5.1920166015625,14.893676757819776-14.9854736328125,29.863250732429151-29.3507080078125,45.16632080078125-43.97198486328125,6.083419799808325-5.8123779296875,12.2906341552698-11.70037841796875,18.293487548828125-17.39453125,3.229049682620825-3.06298828125,6.458099365241651-6.12591552734375,9.684066772460938-9.19219970703125,1.2840728759802-1.220458984375,1.99139404296875-1.89276123046875,1.77752685546875-2.82769775390625-.215301513668237-.9410400390625-1.1658935546875-1.24578857421875-2.891571044918237-1.79888916015625-9.333816528320312-2.99169921875-18.852996826179151-3.3753662109375-26.103271484371362-3.3753662109375-1.3402252197302,0-2.753829956058325.01458740234375-4.321609497070312.04461669921875-1.684860229499463.03228759765625-3.394882202148438.0877685546875-5.0485992431677.14141845703125-2.56877136230105.0833740234375-5.22502136230105.16961669921875-7.828079223640088.16961669921875-3.746658325191675,0-6.832641601551586-.1778564453125-9.711761474602099-.559814453125-1.794418334968213-.23797607421875-3.31591796875-.71148681640625-4.651428222659888-1.44744873046875-2.199569702148438-1.21221923828125-3.27734375-2.90386962890625-3.391799926757812-5.3238525390625-.2487640380823-5.25970458984375.984054565429688-9.38140869140625,3.664215087897901-12.25067138671875,2.85723876953125-3.058837890625,7.324203491210938-4.6728515625,13.27677917480105-4.797119140625.427703857410961-.0089111328125.85588073730105-.01324462890625,1.28300476073855-.01324462890625M215.418776167207398,205.144383207283681c-.434097290039062,0-.869232177738013.00439453125-1.303878784179688.01348876953125-12.201583862308325.25469970703125-18.459793090820312,6.66070556640625-17.919006347648974,18.09478759765625.13397216796875,2.83258056640625,1.488265991210938,4.81884765625,3.90802001953125,6.15240478515625,1.557922363277612.85858154296875,3.252532958969823,1.33087158203125,5.00262451171875,1.56298828125,3.278213500969287.43487548828125,6.559555053710938.5684814453125,9.843231201160961.5684814453125,4.29695129394895,0,8.597473144538526-.22894287109375,12.895828247070312-.31121826171875,1.435440063487476-.0274658203125,2.869827270518726-.04443359375,4.302459716807789-.04443359375,8.719787597641698,0,17.374221801750537.62762451171875,25.798049926750537,3.32763671875,2.84004211426145.91033935546875,2.838623046871362.94561767578125.730331420891162,2.94952392578125-9.325561523430224,8.86383056640625-18.677001953110448,17.70050048828125-27.979446411121899,26.5885009765625-15.198944091807789,14.52178955078125-30.363815307628101,29.0777587890625-45.184783935557789,43.99005126953125-3.595718383781787,3.61785888671875-7.785278320301586,6.64532470703125-11.382217407212011,10.2620849609375-5.928359985347925,5.96112060546875-5.774635314937768,11.5367431640625.122001647941943,17.5196533203125.670959472659888.6807861328125,1.4095611572302,1.3001708984375,2.152961730949755,1.9034423828125,2.601409912120289,2.111083984375,4.95654296875,3.161865234375,7.310104370128101,3.161865234375,2.421737670902075,0,4.841796875-1.11273193359375,7.52629089355105-3.32769775390625,3.726303100589575-3.0745849609375,6.436843872081226-7.09552001953125,9.874557495120825-10.430908203125,14.052124023430224-13.6339111328125,28.142623901359912-27.22833251953125,42.176879882808862-40.88055419921875,8.478683471679688-8.2479248046875,16.905670166019263-16.54949951171875,25.29913330078125-24.8841552734375,2.258148193370289-2.24237060546875,4.308731079108838-4.6937255859375,6.454605102539062-7.04913330078125,4.039688110358838,8.00042724609375,4.533645629890088,15.8782958984375,4.516082763679151,23.7989501953125-.018951416019263,8.53741455078125-1.300750732429151,17.059814453125-.347610473640088,25.61224365234375.448028564460401,4.02020263671875,1.432250976569776,7.81817626953125,5.529052734382276,9.68316650390625,1.743423461899511.793701171875,3.597412109367724,1.16131591796875,5.447952270507812,1.16131591796875,6.571502685539599,0,13.09619140625-4.637451171875,14.442092895500537-11.3028564453125,1.267074584960938-6.275146484375.672973632819776-12.5692138671875-.2431640625-18.8316650390625-1.513732910148974-10.34771728515625-3.331573486320849-20.64776611328125-2.5181732177698-31.2059326171875.681549072269263-8.846435546875.722320556640625-17.7127685546875-.067718505859375-26.57568359375-.965911865230737-10.8360595703125-5.556228637691675-15.9412841796875-16.3165130615198-17.7999267578125-4.314483642581763-.7452392578125-8.64814758301145-.9844970703125-12.988418579101562-.9844970703125-3.399291992198414,0-6.803039550788526.1468505859375-10.2020416259802.3123779296875-3.660766601558862.17828369140625-7.312927246090112.31317138671875-10.961257934577588.31317138671875-5.590316772450024,0-11.170181274410425-.3170166015625-16.747009277340112-1.28076171875-6.333282470710401-1.094482421875-12.720275878909888-2.06671142578125-19.1710205078125-2.06671142578125h0Z"/>
      </g>
      <path class="cls-4" d="M279.73100150900791,279.730992094002431c-69.716348767378804.440577951147134-210.016401672539359,1.330698934176326-279.731265606798843,1.531175585940218.000365795989637.000257519553998-1.526859698369663.007093457006704-1.526859698369663.007093457006704l-.0042877197302-1.538330078103172c-.064482580379263-34.904889664445363-.304360219179216-104.981273361630883-.285200212420023-139.865683708813776C-1.816773759550415,139.865513578372884-1.997685777372681.000096097905043-1.997685777372681.000096097905043l-.002586364738818-2.00030517578125c47.593461552089138.061588990722157,165.70646077712081.208737488239422,211.798461936909007.271000175613153,17.377564136240835.057227081453675,52.544893820810103.067277353244208,69.932688836201123.190932785619225.000031325151213-.00014096895211,1.545471999201254.005901511358388,1.545471999201254.005901511358388l-.0069122315399,1.532470703190484c-.324877765749989,69.719190645655544-.97072079471036,210.04253395878186-1.538436889652075,279.730895996097388h0ZM279.73100150900791,279.730992094002431c-.578864574868931-69.742892426609615-1.234180971317983-210.023048388053212-1.538471455798572-279.731249247308369.000049824939197.000353251210981,1.538379903067835,1.538683329335981,1.538379903067835,1.538683329335981-38.949254562849092.064972187628882-100.445701974087569.316593994770301-139.865435554467695.281565584895361C139.865500105199317,1.820286527583448.000101698209619,1.997654691662319.000101698209619,1.997654691662319L1.997683180139575.000096097905043c.100235052068456,79.280994930933048-.354772183502064,201.347947800109978-.465795694180997,279.730682550882193-.000474752509035.000152409946168-1.531789602500794-1.53115862501727-1.531789602500794-1.53115862501727,69.70846601959056.186233415071911,210.024447781961499,1.073926737230067,279.730903625550127,1.531372070232464h0Z"/>
    </g>
  </g>
</svg>