<?xml version="1.0" encoding="UTF-8"?>
<svg id="Content" xmlns="http://www.w3.org/2000/svg" viewBox="0 0 280.000000000009095 280">
  <defs>
    <style>
      .cls-1 {
        stroke: #665451;
        stroke-width: 50px;
      }

      .cls-1, .cls-2 {
        fill: none;
        stroke-linecap: round;
        stroke-linejoin: round;
      }

      .cls-3 {
        fill: #fff;
      }

      .cls-2 {
        stroke: #998675;
        stroke-width: 2px;
      }
    </style>
  </defs>
  <path class="cls-1" d="M46.943359375,138.390625c30.19921875,4.2099609375,60.259765625,8.8544921875,90.17578125,13.9326171875,1.013671875.3095703125,1.93359375.7548828125,2.755859375,1.337890625,1.8125,1.04296875,2.611328125,2.76171875,2.396484375,5.1572265625-.060546875,1.3583984375-.19140625,2.7060546875-.396484375,4.04296875-.20703125,1.3349609375-.625,2.5634765625-1.25390625,3.681640625-.62890625,1.1201171875-1.568359375,2.037109375-2.8203125,2.755859375-1.25.7177734375-2.853515625,1.0048828125-4.8046875.8525390625-.890625-.1376953125-2.859375-.44140625-5.900390625-.912109375-3.04296875-.4697265625-6.66796875-1.103515625-10.875-1.9072265625-4.20703125-.7998046875-8.861328125-1.6728515625-13.958984375-2.61328125-5.09765625-.9365234375-10.234375-1.8837890625-15.404296875-2.8349609375-5.15234375-1.0986328125-10.095703125-2.052734375-14.83203125-2.8623046875-4.7421875-.8076171875-9.02734375-1.5830078125-12.86328125-2.3291015625-4.431640625-.833984375-8.576171875-1.552734375-12.43359375-2.1494140625-.744140625-.115234375-1.390625-.3642578125-1.935546875-.7548828125-.548828125-.38671875-1.048828125-.845703125-1.498046875-1.37109375-.453125-.525390625-.671875-1.318359375-.658203125-2.3818359375.01171875-1.0595703125.009765625-2.2783203125-.005859375-3.6474609375-.017578125-1.37109375.107421875-2.6796875.37890625-3.931640625.267578125-1.248046875.6953125-2.2861328125,1.27734375-3.107421875.583984375-.822265625,1.466796875-1.142578125,2.65625-.9580078125ZM148.720703125,90.51171875c-.265625,2.6943359375-.541015625,5.466796875-.826171875,8.3076171875-.291015625,2.84375-.8046875,5.42578125-1.5390625,7.7412109375-.740234375,2.318359375-1.68359375,4.263671875-2.837890625,5.830078125-1.154296875,1.5703125-2.734375,2.427734375-4.73046875,2.5751953125-1.0859375.138671875-3.595703125-.099609375-7.52734375-.70703125-3.93359375-.6083984375-8.626953125-1.482421875-14.0703125-2.6298828125-.451171875,3.8837890625-.939453125,7.798828125-1.470703125,11.7412109375-.53515625,3.9462890625-1.037109375,7.9326171875-1.5078125,11.9638671875-.482421875,1.1435546875-1.150390625,2.0263671875-2.005859375,2.6533203125-.859375.62890625-2.037109375,1.130859375-3.537109375,1.5048828125-1.505859375.376953125-3.611328125.5068359375-6.330078125.3896484375-2.572265625-.0908203125-5.244140625-.240234375-8.025390625-.44140625s-5.341796875-.5966796875-7.681640625-1.1865234375-4.33203125-1.4677734375-5.974609375-2.6328125c-1.64453125-1.1669921875-2.541015625-2.7470703125-2.6875-4.7470703125-.091796875-1.3818359375.205078125-4.52734375.888671875-9.4375.6796875-4.91015625,1.685546875-10.681640625,3.017578125-17.3154296875-3.517578125-.8466796875-6.822265625-1.5849609375-9.916015625-2.2158203125-3.095703125-.6279296875-5.744140625-1.1904296875-7.947265625-1.68359375-2.6484375-.5595703125-5.076171875-1.087890625-7.279296875-1.5810546875-.767578125.0341796875-1.400390625-.291015625-1.900390625-.9775390625-.376953125-.513671875-.712890625-1.28515625-1.009765625-2.3212890625-.296875-1.0322265625-.283203125-2.587890625.037109375-4.66796875.171875-2.099609375.43359375-4.5283203125.78515625-7.2880859375.34765625-2.755859375.748046875-5.35546875,1.203125-7.79296875.451171875-2.4375,1.0390625-4.5126953125,1.759765625-6.2255859375.720703125-1.7119140625,1.611328125-2.5615234375,2.673828125-2.5498046875l28.791015625,3.9921875c.82421875-3.3671875,1.599609375-6.4384765625,2.3359375-9.2138671875.732421875-2.7724609375,1.404296875-5.17578125,2.025390625-7.2099609375.685546875-2.4765625,1.263671875-4.7421875,1.734375-6.798828125-.056640625-.615234375.2578125-1.17578125.943359375-1.6787109375.515625-.3759765625,1.32421875-.70703125,2.43359375-.9912109375,1.10546875-.28515625,2.69921875-.267578125,4.779296875.0546875,2.076171875.3203125,4.48046875.73046875,7.21875,1.228515625,2.732421875.5,5.30859375,1.048828125,7.724609375,1.6494140625,2.4140625.6015625,4.47265625,1.2998046875,6.173828125,2.09375,1.69921875.7978515625,2.46875,1.7138671875,2.30859375,2.7509765625-.74609375,3.8388671875-1.451171875,7.6796875-2.123046875,11.525390625-.671875,3.8505859375-1.302734375,7.703125-1.8984375,11.5625l21.41015625,3.0791015625c.98828125.458984375,1.876953125,1.126953125,2.65234375,2.005859375.626953125.8583984375,1.12890625,2.037109375,1.505859375,3.5380859375.373046875,1.50390625.513671875,3.5380859375.423828125,6.1064453125Z"/>
  <path class="cls-2" d="M46.943359375,138.390625c30.19921875,4.2099609375,60.259765625,8.8544921875,90.17578125,13.9326171875,1.013671875.3095703125,1.93359375.7548828125,2.755859375,1.337890625,1.8125,1.04296875,2.611328125,2.76171875,2.396484375,5.1572265625-.060546875,1.3583984375-.19140625,2.7060546875-.396484375,4.04296875-.20703125,1.3349609375-.625,2.5634765625-1.25390625,3.681640625-.62890625,1.1201171875-1.568359375,2.037109375-2.8203125,2.755859375-1.25.7177734375-2.853515625,1.0048828125-4.8046875.8525390625-.890625-.1376953125-2.859375-.44140625-5.900390625-.912109375-3.04296875-.4697265625-6.66796875-1.103515625-10.875-1.9072265625-4.20703125-.7998046875-8.861328125-1.6728515625-13.958984375-2.61328125-5.09765625-.9365234375-10.234375-1.8837890625-15.404296875-2.8349609375-5.15234375-1.0986328125-10.095703125-2.052734375-14.83203125-2.8623046875-4.7421875-.8076171875-9.02734375-1.5830078125-12.86328125-2.3291015625-4.431640625-.833984375-8.576171875-1.552734375-12.43359375-2.1494140625-.744140625-.115234375-1.390625-.3642578125-1.935546875-.7548828125-.548828125-.38671875-1.048828125-.845703125-1.498046875-1.37109375-.453125-.525390625-.671875-1.318359375-.658203125-2.3818359375.01171875-1.0595703125.009765625-2.2783203125-.005859375-3.6474609375-.017578125-1.37109375.107421875-2.6796875.37890625-3.931640625.267578125-1.248046875.6953125-2.2861328125,1.27734375-3.107421875.583984375-.822265625,1.466796875-1.142578125,2.65625-.9580078125ZM148.720703125,90.51171875c-.265625,2.6943359375-.541015625,5.466796875-.826171875,8.3076171875-.291015625,2.84375-.8046875,5.42578125-1.5390625,7.7412109375-.740234375,2.318359375-1.68359375,4.263671875-2.837890625,5.830078125-1.154296875,1.5703125-2.734375,2.427734375-4.73046875,2.5751953125-1.0859375.138671875-3.595703125-.099609375-7.52734375-.70703125-3.93359375-.6083984375-8.626953125-1.482421875-14.0703125-2.6298828125-.451171875,3.8837890625-.939453125,7.798828125-1.470703125,11.7412109375-.53515625,3.9462890625-1.037109375,7.9326171875-1.5078125,11.9638671875-.482421875,1.1435546875-1.150390625,2.0263671875-2.005859375,2.6533203125-.859375.62890625-2.037109375,1.130859375-3.537109375,1.5048828125-1.505859375.376953125-3.611328125.5068359375-6.330078125.3896484375-2.572265625-.0908203125-5.244140625-.240234375-8.025390625-.44140625s-5.341796875-.5966796875-7.681640625-1.1865234375-4.33203125-1.4677734375-5.974609375-2.6328125c-1.64453125-1.1669921875-2.541015625-2.7470703125-2.6875-4.7470703125-.091796875-1.3818359375.205078125-4.52734375.888671875-9.4375.6796875-4.91015625,1.685546875-10.681640625,3.017578125-17.3154296875-3.517578125-.8466796875-6.822265625-1.5849609375-9.916015625-2.2158203125-3.095703125-.6279296875-5.744140625-1.1904296875-7.947265625-1.68359375-2.6484375-.5595703125-5.076171875-1.087890625-7.279296875-1.5810546875-.767578125.0341796875-1.400390625-.291015625-1.900390625-.9775390625-.376953125-.513671875-.712890625-1.28515625-1.009765625-2.3212890625-.296875-1.0322265625-.283203125-2.587890625.037109375-4.66796875.171875-2.099609375.43359375-4.5283203125.78515625-7.2880859375.34765625-2.755859375.748046875-5.35546875,1.203125-7.79296875.451171875-2.4375,1.0390625-4.5126953125,1.759765625-6.2255859375.720703125-1.7119140625,1.611328125-2.5615234375,2.673828125-2.5498046875l28.791015625,3.9921875c.82421875-3.3671875,1.599609375-6.4384765625,2.3359375-9.2138671875.732421875-2.7724609375,1.404296875-5.17578125,2.025390625-7.2099609375.685546875-2.4765625,1.263671875-4.7421875,1.734375-6.798828125-.056640625-.615234375.2578125-1.17578125.943359375-1.6787109375.515625-.3759765625,1.32421875-.70703125,2.43359375-.9912109375,1.10546875-.28515625,2.69921875-.267578125,4.779296875.0546875,2.076171875.3203125,4.48046875.73046875,7.21875,1.228515625,2.732421875.5,5.30859375,1.048828125,7.724609375,1.6494140625,2.4140625.6015625,4.47265625,1.2998046875,6.173828125,2.09375,1.69921875.7978515625,2.46875,1.7138671875,2.30859375,2.7509765625-.74609375,3.8388671875-1.451171875,7.6796875-2.123046875,11.525390625-.671875,3.8505859375-1.302734375,7.703125-1.8984375,11.5625l21.41015625,3.0791015625c.98828125.458984375,1.876953125,1.126953125,2.65234375,2.005859375.626953125.8583984375,1.12890625,2.037109375,1.505859375,3.5380859375.373046875,1.50390625.513671875,3.5380859375.423828125,6.1064453125Z"/>
  <path class="cls-3" d="M46.943359375,138.390625c30.19921875,4.2099609375,60.259765625,8.8544921875,90.17578125,13.9326171875,1.013671875.3095703125,1.93359375.7548828125,2.755859375,1.337890625,1.8125,1.04296875,2.611328125,2.76171875,2.396484375,5.1572265625-.060546875,1.3583984375-.19140625,2.7060546875-.396484375,4.04296875-.20703125,1.3349609375-.625,2.5634765625-1.25390625,3.681640625-.62890625,1.1201171875-1.568359375,2.037109375-2.8203125,2.755859375-1.25.7177734375-2.853515625,1.0048828125-4.8046875.8525390625-.890625-.1376953125-2.859375-.44140625-5.900390625-.912109375-3.04296875-.4697265625-6.66796875-1.103515625-10.875-1.9072265625-4.20703125-.7998046875-8.861328125-1.6728515625-13.958984375-2.61328125-5.09765625-.9365234375-10.234375-1.8837890625-15.404296875-2.8349609375-5.15234375-1.0986328125-10.095703125-2.052734375-14.83203125-2.8623046875-4.7421875-.8076171875-9.02734375-1.5830078125-12.86328125-2.3291015625-4.431640625-.833984375-8.576171875-1.552734375-12.43359375-2.1494140625-.744140625-.115234375-1.390625-.3642578125-1.935546875-.7548828125-.548828125-.38671875-1.048828125-.845703125-1.498046875-1.37109375-.453125-.525390625-.671875-1.318359375-.658203125-2.3818359375.01171875-1.0595703125.009765625-2.2783203125-.005859375-3.6474609375-.017578125-1.37109375.107421875-2.6796875.37890625-3.931640625.267578125-1.248046875.6953125-2.2861328125,1.27734375-3.107421875.583984375-.822265625,1.466796875-1.142578125,2.65625-.9580078125ZM148.720703125,90.51171875c-.265625,2.6943359375-.541015625,5.466796875-.826171875,8.3076171875-.291015625,2.84375-.8046875,5.42578125-1.5390625,7.7412109375-.740234375,2.318359375-1.68359375,4.263671875-2.837890625,5.830078125-1.154296875,1.5703125-2.734375,2.427734375-4.73046875,2.5751953125-1.0859375.138671875-3.595703125-.099609375-7.52734375-.70703125-3.93359375-.6083984375-8.626953125-1.482421875-14.0703125-2.6298828125-.451171875,3.8837890625-.939453125,7.798828125-1.470703125,11.7412109375-.53515625,3.9462890625-1.037109375,7.9326171875-1.5078125,11.9638671875-.482421875,1.1435546875-1.150390625,2.0263671875-2.005859375,2.6533203125-.859375.62890625-2.037109375,1.130859375-3.537109375,1.5048828125-1.505859375.376953125-3.611328125.5068359375-6.330078125.3896484375-2.572265625-.0908203125-5.244140625-.240234375-8.025390625-.44140625s-5.341796875-.5966796875-7.681640625-1.1865234375-4.33203125-1.4677734375-5.974609375-2.6328125c-1.64453125-1.1669921875-2.541015625-2.7470703125-2.6875-4.7470703125-.091796875-1.3818359375.205078125-4.52734375.888671875-9.4375.6796875-4.91015625,1.685546875-10.681640625,3.017578125-17.3154296875-3.517578125-.8466796875-6.822265625-1.5849609375-9.916015625-2.2158203125-3.095703125-.6279296875-5.744140625-1.1904296875-7.947265625-1.68359375-2.6484375-.5595703125-5.076171875-1.087890625-7.279296875-1.5810546875-.767578125.0341796875-1.400390625-.291015625-1.900390625-.9775390625-.376953125-.513671875-.712890625-1.28515625-1.009765625-2.3212890625-.296875-1.0322265625-.283203125-2.587890625.037109375-4.66796875.171875-2.099609375.43359375-4.5283203125.78515625-7.2880859375.34765625-2.755859375.748046875-5.35546875,1.203125-7.79296875.451171875-2.4375,1.0390625-4.5126953125,1.759765625-6.2255859375.720703125-1.7119140625,1.611328125-2.5615234375,2.673828125-2.5498046875l28.791015625,3.9921875c.82421875-3.3671875,1.599609375-6.4384765625,2.3359375-9.2138671875.732421875-2.7724609375,1.404296875-5.17578125,2.025390625-7.2099609375.685546875-2.4765625,1.263671875-4.7421875,1.734375-6.798828125-.056640625-.615234375.2578125-1.17578125.943359375-1.6787109375.515625-.3759765625,1.32421875-.70703125,2.43359375-.9912109375,1.10546875-.28515625,2.69921875-.267578125,4.779296875.0546875,2.076171875.3203125,4.48046875.73046875,7.21875,1.228515625,2.732421875.5,5.30859375,1.048828125,7.724609375,1.6494140625,2.4140625.6015625,4.47265625,1.2998046875,6.173828125,2.09375,1.69921875.7978515625,2.46875,1.7138671875,2.30859375,2.7509765625-.74609375,3.8388671875-1.451171875,7.6796875-2.123046875,11.525390625-.671875,3.8505859375-1.302734375,7.703125-1.8984375,11.5625l21.41015625,3.0791015625c.98828125.458984375,1.876953125,1.126953125,2.65234375,2.005859375.626953125.8583984375,1.12890625,2.037109375,1.505859375,3.5380859375.373046875,1.50390625.513671875,3.5380859375.423828125,6.1064453125Z"/>
</svg>