<?xml version="1.0" encoding="UTF-8"?>
<svg id="Content" xmlns="http://www.w3.org/2000/svg" viewBox="0 0 280.000000000009095 280">
  <defs>
    <style>
      .cls-1 {
        stroke: #665451;
        stroke-width: 50px;
      }

      .cls-1, .cls-2 {
        fill: none;
        stroke-linecap: round;
        stroke-linejoin: round;
      }

      .cls-3 {
        fill: #fff;
      }

      .cls-2 {
        stroke: #998675;
        stroke-width: 2px;
      }
    </style>
  </defs>
  <path class="cls-1" d="M44.390625,152.177734375c30.19921875,4.2099609375,60.2587890625,8.8544921875,90.17578125,13.9326171875,1.0126953125.3095703125,1.93359375.7548828125,2.755859375,1.337890625,1.8125,1.04296875,2.611328125,2.76171875,2.3955078125,5.1572265625-.0595703125,1.3583984375-.1904296875,2.7060546875-.396484375,4.04296875-.2060546875,1.3349609375-.6240234375,2.5634765625-1.2529296875,3.681640625-.6298828125,1.1201171875-1.568359375,2.037109375-2.8203125,2.755859375-1.25.7177734375-2.8544921875,1.0048828125-4.8046875.8525390625-.890625-.1376953125-2.859375-.44140625-5.900390625-.912109375-3.04296875-.4697265625-6.66796875-1.103515625-10.875-1.9072265625-4.2080078125-.7998046875-8.861328125-1.6728515625-13.958984375-2.61328125-5.0986328125-.9365234375-10.234375-1.8837890625-15.4052734375-2.8349609375-5.15234375-1.0986328125-10.095703125-2.052734375-14.83203125-2.8623046875-4.7412109375-.8076171875-9.02734375-1.5830078125-12.8623046875-2.3291015625-4.431640625-.833984375-8.576171875-1.552734375-12.4345703125-2.1494140625-.744140625-.115234375-1.3896484375-.3642578125-1.935546875-.7548828125-.548828125-.38671875-1.0478515625-.845703125-1.498046875-1.37109375-.4521484375-.525390625-.671875-1.318359375-.6572265625-2.3818359375.0107421875-1.0595703125.009765625-2.2783203125-.0068359375-3.6474609375-.0166015625-1.37109375.1083984375-2.6796875.3798828125-3.931640625.267578125-1.248046875.6953125-2.2861328125,1.27734375-3.107421875.5830078125-.822265625,1.466796875-1.142578125,2.65625-.9580078125ZM146.1669921875,104.298828125c-.265625,2.6943359375-.541015625,5.466796875-.826171875,8.3076171875-.291015625,2.84375-.8037109375,5.42578125-1.5380859375,7.7412109375-.740234375,2.318359375-1.6845703125,4.263671875-2.8388671875,5.830078125-1.154296875,1.5703125-2.7333984375,2.427734375-4.73046875,2.5751953125-1.0849609375.138671875-3.595703125-.099609375-7.5263671875-.70703125-3.9345703125-.6083984375-8.626953125-1.482421875-14.0703125-2.6298828125-.451171875,3.8837890625-.9404296875,7.798828125-1.4716796875,11.7412109375-.53515625,3.9462890625-1.037109375,7.9326171875-1.5068359375,11.9638671875-.4833984375,1.1435546875-1.150390625,2.0263671875-2.005859375,2.6533203125-.859375.62890625-2.037109375,1.130859375-3.5380859375,1.5048828125-1.5048828125.376953125-3.611328125.5068359375-6.3291015625.3896484375-2.572265625-.0908203125-5.2451171875-.240234375-8.025390625-.44140625-2.7822265625-.201171875-5.3427734375-.5966796875-7.681640625-1.1865234375-2.3408203125-.58984375-4.33203125-1.4677734375-5.9755859375-2.6328125-1.6435546875-1.1669921875-2.5400390625-2.7470703125-2.6865234375-4.7470703125-.0927734375-1.3818359375.205078125-4.52734375.888671875-9.4375.6796875-4.91015625,1.6845703125-10.681640625,3.0166015625-17.3154296875-3.5166015625-.8466796875-6.822265625-1.5849609375-9.916015625-2.2158203125-3.0947265625-.6279296875-5.7431640625-1.1904296875-7.947265625-1.68359375-2.6474609375-.5595703125-5.0751953125-1.087890625-7.2783203125-1.5810546875-.7685546875.0341796875-1.4013671875-.291015625-1.900390625-.9775390625-.376953125-.513671875-.712890625-1.28515625-1.009765625-2.3212890625-.296875-1.0322265625-.2841796875-2.587890625.037109375-4.66796875.171875-2.099609375.4326171875-4.5283203125.7841796875-7.2880859375.34765625-2.755859375.7490234375-5.35546875,1.2041015625-7.79296875.451171875-2.4375,1.0390625-4.5126953125,1.759765625-6.2255859375.720703125-1.7119140625,1.6103515625-2.5615234375,2.673828125-2.5498046875l28.7900390625,3.9921875c.82421875-3.3671875,1.6005859375-6.4384765625,2.3369140625-9.2138671875.7314453125-2.7724609375,1.404296875-5.17578125,2.025390625-7.2099609375.685546875-2.4765625,1.263671875-4.7421875,1.734375-6.798828125-.0576171875-.615234375.2568359375-1.17578125.943359375-1.6787109375.5146484375-.3759765625,1.32421875-.70703125,2.43359375-.9912109375,1.10546875-.28515625,2.6982421875-.267578125,4.7783203125.0546875,2.076171875.3203125,4.4814453125.73046875,7.2197265625,1.228515625,2.732421875.5,5.30859375,1.048828125,7.7236328125,1.6494140625,2.4150390625.6015625,4.47265625,1.2998046875,6.173828125,2.09375,1.7001953125.7978515625,2.4697265625,1.7138671875,2.3095703125,2.7509765625-.74609375,3.8388671875-1.4521484375,7.6796875-2.123046875,11.525390625-.6728515625,3.8505859375-1.302734375,7.703125-1.8984375,11.5625l21.4091796875,3.0791015625c.9892578125.458984375,1.8779296875,1.126953125,2.6533203125,2.005859375.626953125.8583984375,1.1279296875,2.037109375,1.5048828125,3.5380859375.373046875,1.50390625.5146484375,3.5380859375.423828125,6.1064453125Z"/>
  <path class="cls-2" d="M44.390625,152.177734375c30.19921875,4.2099609375,60.2587890625,8.8544921875,90.17578125,13.9326171875,1.0126953125.3095703125,1.93359375.7548828125,2.755859375,1.337890625,1.8125,1.04296875,2.611328125,2.76171875,2.3955078125,5.1572265625-.0595703125,1.3583984375-.1904296875,2.7060546875-.396484375,4.04296875-.2060546875,1.3349609375-.6240234375,2.5634765625-1.2529296875,3.681640625-.6298828125,1.1201171875-1.568359375,2.037109375-2.8203125,2.755859375-1.25.7177734375-2.8544921875,1.0048828125-4.8046875.8525390625-.890625-.1376953125-2.859375-.44140625-5.900390625-.912109375-3.04296875-.4697265625-6.66796875-1.103515625-10.875-1.9072265625-4.2080078125-.7998046875-8.861328125-1.6728515625-13.958984375-2.61328125-5.0986328125-.9365234375-10.234375-1.8837890625-15.4052734375-2.8349609375-5.15234375-1.0986328125-10.095703125-2.052734375-14.83203125-2.8623046875-4.7412109375-.8076171875-9.02734375-1.5830078125-12.8623046875-2.3291015625-4.431640625-.833984375-8.576171875-1.552734375-12.4345703125-2.1494140625-.744140625-.115234375-1.3896484375-.3642578125-1.935546875-.7548828125-.548828125-.38671875-1.0478515625-.845703125-1.498046875-1.37109375-.4521484375-.525390625-.671875-1.318359375-.6572265625-2.3818359375.0107421875-1.0595703125.009765625-2.2783203125-.0068359375-3.6474609375-.0166015625-1.37109375.1083984375-2.6796875.3798828125-3.931640625.267578125-1.248046875.6953125-2.2861328125,1.27734375-3.107421875.5830078125-.822265625,1.466796875-1.142578125,2.65625-.9580078125ZM146.1669921875,104.298828125c-.265625,2.6943359375-.541015625,5.466796875-.826171875,8.3076171875-.291015625,2.84375-.8037109375,5.42578125-1.5380859375,7.7412109375-.740234375,2.318359375-1.6845703125,4.263671875-2.8388671875,5.830078125-1.154296875,1.5703125-2.7333984375,2.427734375-4.73046875,2.5751953125-1.0849609375.138671875-3.595703125-.099609375-7.5263671875-.70703125-3.9345703125-.6083984375-8.626953125-1.482421875-14.0703125-2.6298828125-.451171875,3.8837890625-.9404296875,7.798828125-1.4716796875,11.7412109375-.53515625,3.9462890625-1.037109375,7.9326171875-1.5068359375,11.9638671875-.4833984375,1.1435546875-1.150390625,2.0263671875-2.005859375,2.6533203125-.859375.62890625-2.037109375,1.130859375-3.5380859375,1.5048828125-1.5048828125.376953125-3.611328125.5068359375-6.3291015625.3896484375-2.572265625-.0908203125-5.2451171875-.240234375-8.025390625-.44140625-2.7822265625-.201171875-5.3427734375-.5966796875-7.681640625-1.1865234375-2.3408203125-.58984375-4.33203125-1.4677734375-5.9755859375-2.6328125-1.6435546875-1.1669921875-2.5400390625-2.7470703125-2.6865234375-4.7470703125-.0927734375-1.3818359375.205078125-4.52734375.888671875-9.4375.6796875-4.91015625,1.6845703125-10.681640625,3.0166015625-17.3154296875-3.5166015625-.8466796875-6.822265625-1.5849609375-9.916015625-2.2158203125-3.0947265625-.6279296875-5.7431640625-1.1904296875-7.947265625-1.68359375-2.6474609375-.5595703125-5.0751953125-1.087890625-7.2783203125-1.5810546875-.7685546875.0341796875-1.4013671875-.291015625-1.900390625-.9775390625-.376953125-.513671875-.712890625-1.28515625-1.009765625-2.3212890625-.296875-1.0322265625-.2841796875-2.587890625.037109375-4.66796875.171875-2.099609375.4326171875-4.5283203125.7841796875-7.2880859375.34765625-2.755859375.7490234375-5.35546875,1.2041015625-7.79296875.451171875-2.4375,1.0390625-4.5126953125,1.759765625-6.2255859375.720703125-1.7119140625,1.6103515625-2.5615234375,2.673828125-2.5498046875l28.7900390625,3.9921875c.82421875-3.3671875,1.6005859375-6.4384765625,2.3369140625-9.2138671875.7314453125-2.7724609375,1.404296875-5.17578125,2.025390625-7.2099609375.685546875-2.4765625,1.263671875-4.7421875,1.734375-6.798828125-.0576171875-.615234375.2568359375-1.17578125.943359375-1.6787109375.5146484375-.3759765625,1.32421875-.70703125,2.43359375-.9912109375,1.10546875-.28515625,2.6982421875-.267578125,4.7783203125.0546875,2.076171875.3203125,4.4814453125.73046875,7.2197265625,1.228515625,2.732421875.5,5.30859375,1.048828125,7.7236328125,1.6494140625,2.4150390625.6015625,4.47265625,1.2998046875,6.173828125,2.09375,1.7001953125.7978515625,2.4697265625,1.7138671875,2.3095703125,2.7509765625-.74609375,3.8388671875-1.4521484375,7.6796875-2.123046875,11.525390625-.6728515625,3.8505859375-1.302734375,7.703125-1.8984375,11.5625l21.4091796875,3.0791015625c.9892578125.458984375,1.8779296875,1.126953125,2.6533203125,2.005859375.626953125.8583984375,1.1279296875,2.037109375,1.5048828125,3.5380859375.373046875,1.50390625.5146484375,3.5380859375.423828125,6.1064453125Z"/>
  <path class="cls-3" d="M44.390625,152.177734375c30.19921875,4.2099609375,60.2587890625,8.8544921875,90.17578125,13.9326171875,1.0126953125.3095703125,1.93359375.7548828125,2.755859375,1.337890625,1.8125,1.04296875,2.611328125,2.76171875,2.3955078125,5.1572265625-.0595703125,1.3583984375-.1904296875,2.7060546875-.396484375,4.04296875-.2060546875,1.3349609375-.6240234375,2.5634765625-1.2529296875,3.681640625-.6298828125,1.1201171875-1.568359375,2.037109375-2.8203125,2.755859375-1.25.7177734375-2.8544921875,1.0048828125-4.8046875.8525390625-.890625-.1376953125-2.859375-.44140625-5.900390625-.912109375-3.04296875-.4697265625-6.66796875-1.103515625-10.875-1.9072265625-4.2080078125-.7998046875-8.861328125-1.6728515625-13.958984375-2.61328125-5.0986328125-.9365234375-10.234375-1.8837890625-15.4052734375-2.8349609375-5.15234375-1.0986328125-10.095703125-2.052734375-14.83203125-2.8623046875-4.7412109375-.8076171875-9.02734375-1.5830078125-12.8623046875-2.3291015625-4.431640625-.833984375-8.576171875-1.552734375-12.4345703125-2.1494140625-.744140625-.115234375-1.3896484375-.3642578125-1.935546875-.7548828125-.548828125-.38671875-1.0478515625-.845703125-1.498046875-1.37109375-.4521484375-.525390625-.671875-1.318359375-.6572265625-2.3818359375.0107421875-1.0595703125.009765625-2.2783203125-.0068359375-3.6474609375-.0166015625-1.37109375.1083984375-2.6796875.3798828125-3.931640625.267578125-1.248046875.6953125-2.2861328125,1.27734375-3.107421875.5830078125-.822265625,1.466796875-1.142578125,2.65625-.9580078125ZM146.1669921875,104.298828125c-.265625,2.6943359375-.541015625,5.466796875-.826171875,8.3076171875-.291015625,2.84375-.8037109375,5.42578125-1.5380859375,7.7412109375-.740234375,2.318359375-1.6845703125,4.263671875-2.8388671875,5.830078125-1.154296875,1.5703125-2.7333984375,2.427734375-4.73046875,2.5751953125-1.0849609375.138671875-3.595703125-.099609375-7.5263671875-.70703125-3.9345703125-.6083984375-8.626953125-1.482421875-14.0703125-2.6298828125-.451171875,3.8837890625-.9404296875,7.798828125-1.4716796875,11.7412109375-.53515625,3.9462890625-1.037109375,7.9326171875-1.5068359375,11.9638671875-.4833984375,1.1435546875-1.150390625,2.0263671875-2.005859375,2.6533203125-.859375.62890625-2.037109375,1.130859375-3.5380859375,1.5048828125-1.5048828125.376953125-3.611328125.5068359375-6.3291015625.3896484375-2.572265625-.0908203125-5.2451171875-.240234375-8.025390625-.44140625-2.7822265625-.201171875-5.3427734375-.5966796875-7.681640625-1.1865234375-2.3408203125-.58984375-4.33203125-1.4677734375-5.9755859375-2.6328125-1.6435546875-1.1669921875-2.5400390625-2.7470703125-2.6865234375-4.7470703125-.0927734375-1.3818359375.205078125-4.52734375.888671875-9.4375.6796875-4.91015625,1.6845703125-10.681640625,3.0166015625-17.3154296875-3.5166015625-.8466796875-6.822265625-1.5849609375-9.916015625-2.2158203125-3.0947265625-.6279296875-5.7431640625-1.1904296875-7.947265625-1.68359375-2.6474609375-.5595703125-5.0751953125-1.087890625-7.2783203125-1.5810546875-.7685546875.0341796875-1.4013671875-.291015625-1.900390625-.9775390625-.376953125-.513671875-.712890625-1.28515625-1.009765625-2.3212890625-.296875-1.0322265625-.2841796875-2.587890625.037109375-4.66796875.171875-2.099609375.4326171875-4.5283203125.7841796875-7.2880859375.34765625-2.755859375.7490234375-5.35546875,1.2041015625-7.79296875.451171875-2.4375,1.0390625-4.5126953125,1.759765625-6.2255859375.720703125-1.7119140625,1.6103515625-2.5615234375,2.673828125-2.5498046875l28.7900390625,3.9921875c.82421875-3.3671875,1.6005859375-6.4384765625,2.3369140625-9.2138671875.7314453125-2.7724609375,1.404296875-5.17578125,2.025390625-7.2099609375.685546875-2.4765625,1.263671875-4.7421875,1.734375-6.798828125-.0576171875-.615234375.2568359375-1.17578125.943359375-1.6787109375.5146484375-.3759765625,1.32421875-.70703125,2.43359375-.9912109375,1.10546875-.28515625,2.6982421875-.267578125,4.7783203125.0546875,2.076171875.3203125,4.4814453125.73046875,7.2197265625,1.228515625,2.732421875.5,5.30859375,1.048828125,7.7236328125,1.6494140625,2.4150390625.6015625,4.47265625,1.2998046875,6.173828125,2.09375,1.7001953125.7978515625,2.4697265625,1.7138671875,2.3095703125,2.7509765625-.74609375,3.8388671875-1.4521484375,7.6796875-2.123046875,11.525390625-.6728515625,3.8505859375-1.302734375,7.703125-1.8984375,11.5625l21.4091796875,3.0791015625c.9892578125.458984375,1.8779296875,1.126953125,2.6533203125,2.005859375.626953125.8583984375,1.1279296875,2.037109375,1.5048828125,3.5380859375.373046875,1.50390625.5146484375,3.5380859375.423828125,6.1064453125Z"/>
</svg>