<?xml version="1.0" encoding="UTF-8"?>
<svg id="Content" xmlns="http://www.w3.org/2000/svg" xmlns:xlink="http://www.w3.org/1999/xlink" viewBox="0 0 280 280">
  <defs>
    <style>
      .cls-1 {
        stroke: #665451;
        stroke-width: 50px;
      }

      .cls-1, .cls-2 {
        fill: none;
        stroke-linecap: round;
        stroke-linejoin: round;
      }

      .cls-3 {
        fill: #fff;
      }

      .cls-2 {
        stroke: #998675;
        stroke-width: 2px;
      }
    </style>
  </defs>
  <a xlink:href="https://www.notion.so/congruence/Population-intercept-125f9339b29b803d8cd0dd4ac1a23153?pvs=4">
    <g>
      <g>
        <path class="cls-1" d="M51.2412109375,145.75l-1.900390625,11.109375c-1.6171875,9.4501953125-3.8076171875,23.240234375-3.3115234375,30.322265625l-13.595703125-2.326171875c-1.0830078125-5.646484375.349609375-17.005859375,2.3349609375-28.6123046875l13.076171875-76.435546875c3.9140625-22.880859375,11.77734375-31.9453125,19.0986328125-36.8369140625,6.546875-4.3408203125,14.4375-6.5751953125,25.048828125-4.759765625,16.4140625,2.8076171875,27.0302734375,16.5703125,24.080078125,33.8134765625-2.1552734375,12.6015625-10.9013671875,20.8330078125-19.1806640625,23.341796875l-.11328125.6630859375c12.1455078125,4.80859375,22.267578125,17.4619140625,19.119140625,35.8662109375-3.80078125,22.2177734375-22.78125,31.4287109375-40.5234375,28.3935546875-11.107421875-1.900390625-18.7744140625-6.9658203125-23.802734375-14.482421875l-.330078125-.056640625ZM53.541015625,131.296875c2.7626953125,6.787109375,9.669921875,15.306640625,21.109375,17.2626953125,13.263671875,2.26953125,24.388671875-5.8955078125,26.6572265625-19.16015625,2.7236328125-15.9169921875-7.16015625-25.970703125-21.6669921875-28.9638671875-1.4638671875-.4208984375-2.982421875-.509765625-4.4765625-.765625l1.7021484375-9.9482421875c.994140625.169921875,1.8525390625.146484375,2.875.150390625,12.7431640625,1.3271484375,20.7177734375-7.3779296875,22.5322265625-17.9892578125,2.0146484375-11.7724609375-3.8115234375-20.619140625-13.5927734375-22.2919921875-13.4296875-2.2978515625-22.5458984375,8.0888671875-26.4609375,30.9697265625l-8.6787109375,50.736328125Z"/>
        <path class="cls-1" d="M137.66015625,169.716796875c-2.626953125-.4501953125-5.0302734375-1.361328125-7.2001953125-2.7333984375-2.1748046875-1.373046875-3.9873046875-3.0361328125-5.4384765625-4.98828125-1.451171875-1.953125-2.4970703125-4.1474609375-3.1337890625-6.5830078125-.638671875-2.435546875-.7412109375-4.916015625-.3095703125-7.439453125l3.03515625-17.7421875c.4404296875-2.57421875,1.3642578125-4.892578125,2.771484375-6.951171875,1.4052734375-2.0595703125,3.12109375-3.78125,5.1435546875-5.1669921875,2.0224609375-1.384765625,4.2861328125-2.3642578125,6.794921875-2.9365234375,2.501953125-.572265625,5.0712890625-.6337890625,7.6982421875-.1845703125l.869140625.1484375c2.6796875.458984375,5.1064453125,1.375,7.2822265625,2.7470703125,2.1708984375,1.373046875,3.9931640625,3.05078125,5.466796875,5.0341796875,1.4736328125,1.984375,2.51953125,4.1787109375,3.1357421875,6.5830078125.6162109375,2.40625.7041015625,4.896484375.263671875,7.4716796875l-3.03515625,17.7421875c-.431640625,2.5234375-1.3408203125,4.8310546875-2.7255859375,6.919921875s-3.1005859375,3.8115234375-5.1455078125,5.166015625-4.318359375,2.318359375-6.8232421875,2.890625c-2.5078125.572265625-5.1005859375.62890625-7.7802734375.1708984375l-.869140625-.1484375ZM144.91796875,127.29296875c-1.734375-.296875-3.3359375.0517578125-4.802734375,1.0439453125-1.470703125.994140625-2.3515625,2.3583984375-2.6484375,4.0927734375l-3.03515625,17.7421875c-.2880859375,1.6826171875.09375,3.236328125,1.1513671875,4.66015625,1.052734375,1.42578125,2.447265625,2.2861328125,4.181640625,2.5830078125l.869140625.1484375c1.837890625.314453125,3.48046875-.0263671875,4.923828125-1.0244140625,1.4384765625-.998046875,2.306640625-2.3369140625,2.5947265625-4.0205078125l3.03515625-17.7421875c.296875-1.734375-.072265625-3.3115234375-1.09765625-4.732421875-1.029296875-1.419921875-2.46484375-2.2880859375-4.302734375-2.6025390625l-.869140625-.1484375Z"/>
      </g>
      <g>
        <path class="cls-2" d="M51.2412109375,145.75l-1.900390625,11.109375c-1.6171875,9.4501953125-3.8076171875,23.240234375-3.3115234375,30.322265625l-13.595703125-2.326171875c-1.0830078125-5.646484375.349609375-17.005859375,2.3349609375-28.6123046875l13.076171875-76.435546875c3.9140625-22.880859375,11.77734375-31.9453125,19.0986328125-36.8369140625,6.546875-4.3408203125,14.4375-6.5751953125,25.048828125-4.759765625,16.4140625,2.8076171875,27.0302734375,16.5703125,24.080078125,33.8134765625-2.1552734375,12.6015625-10.9013671875,20.8330078125-19.1806640625,23.341796875l-.11328125.6630859375c12.1455078125,4.80859375,22.267578125,17.4619140625,19.119140625,35.8662109375-3.80078125,22.2177734375-22.78125,31.4287109375-40.5234375,28.3935546875-11.107421875-1.900390625-18.7744140625-6.9658203125-23.802734375-14.482421875l-.330078125-.056640625ZM53.541015625,131.296875c2.7626953125,6.787109375,9.669921875,15.306640625,21.109375,17.2626953125,13.263671875,2.26953125,24.388671875-5.8955078125,26.6572265625-19.16015625,2.7236328125-15.9169921875-7.16015625-25.970703125-21.6669921875-28.9638671875-1.4638671875-.4208984375-2.982421875-.509765625-4.4765625-.765625l1.7021484375-9.9482421875c.994140625.169921875,1.8525390625.146484375,2.875.150390625,12.7431640625,1.3271484375,20.7177734375-7.3779296875,22.5322265625-17.9892578125,2.0146484375-11.7724609375-3.8115234375-20.619140625-13.5927734375-22.2919921875-13.4296875-2.2978515625-22.5458984375,8.0888671875-26.4609375,30.9697265625l-8.6787109375,50.736328125Z"/>
        <path class="cls-2" d="M137.66015625,169.716796875c-2.626953125-.4501953125-5.0302734375-1.361328125-7.2001953125-2.7333984375-2.1748046875-1.373046875-3.9873046875-3.0361328125-5.4384765625-4.98828125-1.451171875-1.953125-2.4970703125-4.1474609375-3.1337890625-6.5830078125-.638671875-2.435546875-.7412109375-4.916015625-.3095703125-7.439453125l3.03515625-17.7421875c.4404296875-2.57421875,1.3642578125-4.892578125,2.771484375-6.951171875,1.4052734375-2.0595703125,3.12109375-3.78125,5.1435546875-5.1669921875,2.0224609375-1.384765625,4.2861328125-2.3642578125,6.794921875-2.9365234375,2.501953125-.572265625,5.0712890625-.6337890625,7.6982421875-.1845703125l.869140625.1484375c2.6796875.458984375,5.1064453125,1.375,7.2822265625,2.7470703125,2.1708984375,1.373046875,3.9931640625,3.05078125,5.466796875,5.0341796875,1.4736328125,1.984375,2.51953125,4.1787109375,3.1357421875,6.5830078125.6162109375,2.40625.7041015625,4.896484375.263671875,7.4716796875l-3.03515625,17.7421875c-.431640625,2.5234375-1.3408203125,4.8310546875-2.7255859375,6.919921875s-3.1005859375,3.8115234375-5.1455078125,5.166015625-4.318359375,2.318359375-6.8232421875,2.890625c-2.5078125.572265625-5.1005859375.62890625-7.7802734375.1708984375l-.869140625-.1484375ZM144.91796875,127.29296875c-1.734375-.296875-3.3359375.0517578125-4.802734375,1.0439453125-1.470703125.994140625-2.3515625,2.3583984375-2.6484375,4.0927734375l-3.03515625,17.7421875c-.2880859375,1.6826171875.09375,3.236328125,1.1513671875,4.66015625,1.052734375,1.42578125,2.447265625,2.2861328125,4.181640625,2.5830078125l.869140625.1484375c1.837890625.314453125,3.48046875-.0263671875,4.923828125-1.0244140625,1.4384765625-.998046875,2.306640625-2.3369140625,2.5947265625-4.0205078125l3.03515625-17.7421875c.296875-1.734375-.072265625-3.3115234375-1.09765625-4.732421875-1.029296875-1.419921875-2.46484375-2.2880859375-4.302734375-2.6025390625l-.869140625-.1484375Z"/>
      </g>
      <g>
        <path class="cls-3" d="M51.2412109375,145.75l-1.900390625,11.109375c-1.6171875,9.4501953125-3.8076171875,23.240234375-3.3115234375,30.322265625l-13.595703125-2.326171875c-1.0830078125-5.646484375.349609375-17.005859375,2.3349609375-28.6123046875l13.076171875-76.435546875c3.9140625-22.880859375,11.77734375-31.9453125,19.0986328125-36.8369140625,6.546875-4.3408203125,14.4375-6.5751953125,25.048828125-4.759765625,16.4140625,2.8076171875,27.0302734375,16.5703125,24.080078125,33.8134765625-2.1552734375,12.6015625-10.9013671875,20.8330078125-19.1806640625,23.341796875l-.11328125.6630859375c12.1455078125,4.80859375,22.267578125,17.4619140625,19.119140625,35.8662109375-3.80078125,22.2177734375-22.78125,31.4287109375-40.5234375,28.3935546875-11.107421875-1.900390625-18.7744140625-6.9658203125-23.802734375-14.482421875l-.330078125-.056640625ZM53.541015625,131.296875c2.7626953125,6.787109375,9.669921875,15.306640625,21.109375,17.2626953125,13.263671875,2.26953125,24.388671875-5.8955078125,26.6572265625-19.16015625,2.7236328125-15.9169921875-7.16015625-25.970703125-21.6669921875-28.9638671875-1.4638671875-.4208984375-2.982421875-.509765625-4.4765625-.765625l1.7021484375-9.9482421875c.994140625.169921875,1.8525390625.146484375,2.875.150390625,12.7431640625,1.3271484375,20.7177734375-7.3779296875,22.5322265625-17.9892578125,2.0146484375-11.7724609375-3.8115234375-20.619140625-13.5927734375-22.2919921875-13.4296875-2.2978515625-22.5458984375,8.0888671875-26.4609375,30.9697265625l-8.6787109375,50.736328125Z"/>
        <path class="cls-3" d="M137.66015625,169.716796875c-2.626953125-.4501953125-5.0302734375-1.361328125-7.2001953125-2.7333984375-2.1748046875-1.373046875-3.9873046875-3.0361328125-5.4384765625-4.98828125-1.451171875-1.953125-2.4970703125-4.1474609375-3.1337890625-6.5830078125-.638671875-2.435546875-.7412109375-4.916015625-.3095703125-7.439453125l3.03515625-17.7421875c.4404296875-2.57421875,1.3642578125-4.892578125,2.771484375-6.951171875,1.4052734375-2.0595703125,3.12109375-3.78125,5.1435546875-5.1669921875,2.0224609375-1.384765625,4.2861328125-2.3642578125,6.794921875-2.9365234375,2.501953125-.572265625,5.0712890625-.6337890625,7.6982421875-.1845703125l.869140625.1484375c2.6796875.458984375,5.1064453125,1.375,7.2822265625,2.7470703125,2.1708984375,1.373046875,3.9931640625,3.05078125,5.466796875,5.0341796875,1.4736328125,1.984375,2.51953125,4.1787109375,3.1357421875,6.5830078125.6162109375,2.40625.7041015625,4.896484375.263671875,7.4716796875l-3.03515625,17.7421875c-.431640625,2.5234375-1.3408203125,4.8310546875-2.7255859375,6.919921875s-3.1005859375,3.8115234375-5.1455078125,5.166015625-4.318359375,2.318359375-6.8232421875,2.890625c-2.5078125.572265625-5.1005859375.62890625-7.7802734375.1708984375l-.869140625-.1484375ZM144.91796875,127.29296875c-1.734375-.296875-3.3359375.0517578125-4.802734375,1.0439453125-1.470703125.994140625-2.3515625,2.3583984375-2.6484375,4.0927734375l-3.03515625,17.7421875c-.2880859375,1.6826171875.09375,3.236328125,1.1513671875,4.66015625,1.052734375,1.42578125,2.447265625,2.2861328125,4.181640625,2.5830078125l.869140625.1484375c1.837890625.314453125,3.48046875-.0263671875,4.923828125-1.0244140625,1.4384765625-.998046875,2.306640625-2.3369140625,2.5947265625-4.0205078125l3.03515625-17.7421875c.296875-1.734375-.072265625-3.3115234375-1.09765625-4.732421875-1.029296875-1.419921875-2.46484375-2.2880859375-4.302734375-2.6025390625l-.869140625-.1484375Z"/>
      </g>
    </g>
  </a>
</svg>