<?xml version="1.0" encoding="UTF-8"?>
<svg id="Content" xmlns="http://www.w3.org/2000/svg" viewBox="0 0 280 280">
  <defs>
    <style>
      .cls-1 {
        stroke: #665451;
        stroke-width: 50px;
      }

      .cls-1, .cls-2 {
        fill: none;
        stroke-linecap: round;
        stroke-linejoin: round;
      }

      .cls-3 {
        fill: #fff;
      }

      .cls-2 {
        stroke: #998675;
        stroke-width: 2px;
      }
    </style>
  </defs>
  <path class="cls-1" d="M158.062420283747997,140.545923863319331c-7.575516536693613,2.388979648365421-13.644953533788794,3.332929468360817-18.208486000865378,2.828711082966038-4.562252995288873-.500092219230282-7.854948507905647-2.621962323431944-9.876982075649721-6.36462252345882-2.023050525152939-3.742078800660238-3.157086525443447-9.155547818958439-3.400453273488893-16.24836967048941l-.05927640095797-3.170606170844621c.665043481209068-2.733333305714041,1.336732216877863-5.56390795765401,2.016088490549009-8.501618888800294,2.617054362319323-11.330217310705848,5.392551633362018-24.56130001429301,8.328817410594638-39.689180281126028-1.933770400220965-2.159872057369284-4.04533498271303-4.083163721279561-6.329404782587517-5.769120548700812-2.287266513420036-1.686827943509343-4.826501186165842-3.20639574323468-7.6232263292477-4.563642344901382l-5.66286395977113,4.170154212250054c-.694146009995166,6.539610099005586-1.186142700365963,13.975660108193551-1.477327879427321,22.302977735733293-.293102420817377,8.330572677612508-.249284892730429,17.24575002372876.131510920791698,26.74657816402032-3.33261346818108,10.767776591168513-7.276636149879778,19.302989878699009-11.836515062157559,25.601165643172862-4.561766985774739,6.301953877387859-10.157910239953708,9.636230086187425-16.786162501604849,10.005850330360772-4.069428866445378.226929095621017-7.590975545776018-1.237860703904516-10.562839469279425-4.399716699992496-2.832019592187862-3.006344754343445-5.54732895131383-8.313795636944633-8.151451211082531-15.86144302971843l3.866386965970378-58.948549416025344-12.558084219370357-5.648448042013115-3.164530159643618.17646799852082-4.356441722964519,3.190639153734082c-.720815120246698,8.808804810665606-.966022524682558,16.605720994833973-.736434992864815,23.394991391720396.226449154797592,6.789445406477171,1.218818293393269,13.727166711836617,2.974665145276958,20.80700383509793,1.079958575315686,4.359038740201868,2.506019707176165,9.232124053653024,4.272478782921098,14.611047851909461l.665729269161602,94.286221348045729,3.756110167447332,2.283866882784423c3.581750147628554-.80522555537209,7.088179246829895-1.606250880697189,10.521554558534262-2.400054272015041,3.431108050774128-.796825095278109,6.109993406411377-1.552752352281459,8.03694774955693-2.262551142650409-3.511419201551689-11.444946671390426-6.558136412806562-22.685993200766461-9.13614214066547-33.726511311257127-2.582423576661313-11.044469267066233-4.429149423092895-22.50144433229616-5.544945407267733-34.381153106302008l.063430840575165-.970146201367243,1.204084863602475-.68824608214527c5.173061492130728,8.781308261946833,12.349103072554499,15.487533939529385,21.527774722102549,20.112400278710993,4.068382740777452-.226870759090161,7.751559896576509-1.264418141347051,11.049706476986103-3.109503769748699,3.298088243882376-1.84613175407685,6.375242805983362-4.925555884916321,9.23425204414707-9.244724156140364,2.855058081586321-4.314750422421639,5.667773715867952-10.17917084882356,8.427918992223567-17.588493411234595l1.11294380875006.481253260062658c1.251443608609407,9.551246558772618,3.841834803823076,16.485707487910986,7.78196999159627,20.789991428970097,4.346702386110337,4.745306226292087,10.66169428529065,6.887528086192106,18.951194115043108,6.425269434859729,3.765427900012583-2.931015831540208,6.675073244859959-6.342147018940523,8.724576522263305-10.23629859310131,2.050724412667478-3.891071533671493,3.402324893131663-8.125130741746034,4.054046998358899-12.696888659329488l-1.230621247555973-1.744701711557354Z"/>
  <path class="cls-2" d="M158.062420283747997,140.545923863319331c-7.575516536693613,2.388979648365421-13.644953533788794,3.332929468360817-18.208486000865378,2.828711082966038-4.562252995288873-.500092219230282-7.854948507905647-2.621962323431944-9.876982075649721-6.36462252345882-2.023050525152939-3.742078800660238-3.157086525443447-9.155547818958439-3.400453273488893-16.24836967048941l-.05927640095797-3.170606170844621c.665043481209068-2.733333305714041,1.336732216877863-5.56390795765401,2.016088490549009-8.501618888800294,2.617054362319323-11.330217310705848,5.392551633362018-24.56130001429301,8.328817410594638-39.689180281126028-1.933770400220965-2.159872057369284-4.04533498271303-4.083163721279561-6.329404782587517-5.769120548700812-2.287266513420036-1.686827943509343-4.826501186165842-3.20639574323468-7.6232263292477-4.563642344901382l-5.66286395977113,4.170154212250054c-.694146009995166,6.539610099005586-1.186142700365963,13.975660108193551-1.477327879427321,22.302977735733293-.293102420817377,8.330572677612508-.249284892730429,17.24575002372876.131510920791698,26.74657816402032-3.33261346818108,10.767776591168513-7.276636149879778,19.302989878699009-11.836515062157559,25.601165643172862-4.561766985774739,6.301953877387859-10.157910239953708,9.636230086187425-16.786162501604849,10.005850330360772-4.069428866445378.226929095621017-7.590975545776018-1.237860703904516-10.562839469279425-4.399716699992496-2.832019592187862-3.006344754343445-5.54732895131383-8.313795636944633-8.151451211082531-15.86144302971843l3.866386965970378-58.948549416025344-12.558084219370357-5.648448042013115-3.164530159643618.17646799852082-4.356441722964519,3.190639153734082c-.720815120246698,8.808804810665606-.966022524682558,16.605720994833973-.736434992864815,23.394991391720396.226449154797592,6.789445406477171,1.218818293393269,13.727166711836617,2.974665145276958,20.80700383509793,1.079958575315686,4.359038740201868,2.506019707176165,9.232124053653024,4.272478782921098,14.611047851909461l.665729269161602,94.286221348045729,3.756110167447332,2.283866882784423c3.581750147628554-.80522555537209,7.088179246829895-1.606250880697189,10.521554558534262-2.400054272015041,3.431108050774128-.796825095278109,6.109993406411377-1.552752352281459,8.03694774955693-2.262551142650409-3.511419201551689-11.444946671390426-6.558136412806562-22.685993200766461-9.13614214066547-33.726511311257127-2.582423576661313-11.044469267066233-4.429149423092895-22.50144433229616-5.544945407267733-34.381153106302008l.063430840575165-.970146201367243,1.204084863602475-.68824608214527c5.173061492130728,8.781308261946833,12.349103072554499,15.487533939529385,21.527774722102549,20.112400278710993,4.068382740777452-.226870759090161,7.751559896576509-1.264418141347051,11.049706476986103-3.109503769748699,3.298088243882376-1.84613175407685,6.375242805983362-4.925555884916321,9.23425204414707-9.244724156140364,2.855058081586321-4.314750422421639,5.667773715867952-10.17917084882356,8.427918992223567-17.588493411234595l1.11294380875006.481253260062658c1.251443608609407,9.551246558772618,3.841834803823076,16.485707487910986,7.78196999159627,20.789991428970097,4.346702386110337,4.745306226292087,10.66169428529065,6.887528086192106,18.951194115043108,6.425269434859729,3.765427900012583-2.931015831540208,6.675073244859959-6.342147018940523,8.724576522263305-10.23629859310131,2.050724412667478-3.891071533671493,3.402324893131663-8.125130741746034,4.054046998358899-12.696888659329488l-1.230621247555973-1.744701711557354Z"/>
  <path class="cls-3" d="M158.062420283747997,140.545923863319331c-7.575516536693613,2.388979648365421-13.644953533788794,3.332929468360817-18.208486000865378,2.828711082966038-4.562252995288873-.500092219230282-7.854948507905647-2.621962323431944-9.876982075649721-6.36462252345882-2.023050525152939-3.742078800660238-3.157086525443447-9.155547818958439-3.400453273488893-16.24836967048941l-.05927640095797-3.170606170844621c.665043481209068-2.733333305714041,1.336732216877863-5.56390795765401,2.016088490549009-8.501618888800294,2.617054362319323-11.330217310705848,5.392551633362018-24.56130001429301,8.328817410594638-39.689180281126028-1.933770400220965-2.159872057369284-4.04533498271303-4.083163721279561-6.329404782587517-5.769120548700812-2.287266513420036-1.686827943509343-4.826501186165842-3.20639574323468-7.6232263292477-4.563642344901382l-5.66286395977113,4.170154212250054c-.694146009995166,6.539610099005586-1.186142700365963,13.975660108193551-1.477327879427321,22.302977735733293-.293102420817377,8.330572677612508-.249284892730429,17.24575002372876.131510920791698,26.74657816402032-3.33261346818108,10.767776591168513-7.276636149879778,19.302989878699009-11.836515062157559,25.601165643172862-4.561766985774739,6.301953877387859-10.157910239953708,9.636230086187425-16.786162501604849,10.005850330360772-4.069428866445378.226929095621017-7.590975545776018-1.237860703904516-10.562839469279425-4.399716699992496-2.832019592187862-3.006344754343445-5.54732895131383-8.313795636944633-8.151451211082531-15.86144302971843l3.866386965970378-58.948549416025344-12.558084219370357-5.648448042013115-3.164530159643618.17646799852082-4.356441722964519,3.190639153734082c-.720815120246698,8.808804810665606-.966022524682558,16.605720994833973-.736434992864815,23.394991391720396.226449154797592,6.789445406477171,1.218818293393269,13.727166711836617,2.974665145276958,20.80700383509793,1.079958575315686,4.359038740201868,2.506019707176165,9.232124053653024,4.272478782921098,14.611047851909461l.665729269161602,94.286221348045729,3.756110167447332,2.283866882784423c3.581750147628554-.80522555537209,7.088179246829895-1.606250880697189,10.521554558534262-2.400054272015041,3.431108050774128-.796825095278109,6.109993406411377-1.552752352281459,8.03694774955693-2.262551142650409-3.511419201551689-11.444946671390426-6.558136412806562-22.685993200766461-9.13614214066547-33.726511311257127-2.582423576661313-11.044469267066233-4.429149423092895-22.50144433229616-5.544945407267733-34.381153106302008l.063430840575165-.970146201367243,1.204084863602475-.68824608214527c5.173061492130728,8.781308261946833,12.349103072554499,15.487533939529385,21.527774722102549,20.112400278710993,4.068382740777452-.226870759090161,7.751559896576509-1.264418141347051,11.049706476986103-3.109503769748699,3.298088243882376-1.84613175407685,6.375242805983362-4.925555884916321,9.23425204414707-9.244724156140364,2.855058081586321-4.314750422421639,5.667773715867952-10.17917084882356,8.427918992223567-17.588493411234595l1.11294380875006.481253260062658c1.251443608609407,9.551246558772618,3.841834803823076,16.485707487910986,7.78196999159627,20.789991428970097,4.346702386110337,4.745306226292087,10.66169428529065,6.887528086192106,18.951194115043108,6.425269434859729,3.765427900012583-2.931015831540208,6.675073244859959-6.342147018940523,8.724576522263305-10.23629859310131,2.050724412667478-3.891071533671493,3.402324893131663-8.125130741746034,4.054046998358899-12.696888659329488l-1.230621247555973-1.744701711557354Z"/>
</svg>