<?xml version="1.0" encoding="UTF-8"?>
<svg id="Content" xmlns="http://www.w3.org/2000/svg" xmlns:xlink="http://www.w3.org/1999/xlink" viewBox="0 0 280 280">
  <defs>
    <style>
      .cls-1 {
        stroke: #665451;
        stroke-width: 50px;
      }

      .cls-1, .cls-2 {
        fill: none;
        stroke-linecap: round;
        stroke-linejoin: round;
      }

      .cls-3 {
        fill: #fff;
      }

      .cls-2 {
        stroke: #998675;
        stroke-width: 2px;
      }
    </style>
  </defs>
  <a xlink:href="https://www.notion.so/congruence/Population-intercept-125f9339b29b803d8cd0dd4ac1a23153?pvs=4">
    <g>
      <g>
        <path class="cls-1" d="M51.2568359375,145.76171875l-1.900390625,11.109375c-1.6171875,9.4501953125-3.8046875,23.2412109375-3.3095703125,30.322265625l-13.595703125-2.326171875c-1.0830078125-5.646484375.34765625-17.005859375,2.3330078125-28.6123046875l13.076171875-76.435546875c3.9140625-22.880859375,11.779296875-31.9453125,19.1015625-36.8369140625,6.5458984375-4.3408203125,14.4365234375-6.5751953125,25.0478515625-4.759765625,16.4140625,2.8076171875,27.0302734375,16.5703125,24.080078125,33.8134765625-2.1552734375,12.6015625-10.9013671875,20.8330078125-19.1806640625,23.341796875l-.11328125.6630859375c12.1455078125,4.80859375,22.267578125,17.4619140625,19.119140625,35.8662109375-3.80078125,22.2177734375-22.78125,31.4287109375-40.5234375,28.3935546875-11.109375-1.900390625-18.7744140625-6.9658203125-23.802734375-14.482421875l-.33203125-.056640625ZM53.556640625,131.3076171875c2.7646484375,6.787109375,9.671875,15.306640625,21.111328125,17.263671875,13.263671875,2.26953125,24.388671875-5.896484375,26.6572265625-19.16015625,2.7236328125-15.9169921875-7.16015625-25.970703125-21.6669921875-28.9638671875-1.4638671875-.4208984375-2.984375-.5107421875-4.478515625-.765625l1.7021484375-9.9482421875c.99609375.169921875,1.8544921875.1455078125,2.875.150390625,12.7451171875,1.3271484375,20.7197265625-7.3779296875,22.53515625-17.9892578125,2.013671875-11.7724609375-3.8125-20.619140625-13.59375-22.2919921875-13.431640625-2.2978515625-22.5478515625,8.087890625-26.462890625,30.9697265625l-8.6787109375,50.7353515625Z"/>
        <path class="cls-1" d="M137.677734375,169.7275390625c-2.626953125-.44921875-5.0302734375-1.3603515625-7.19921875-2.732421875-2.17578125-1.373046875-3.98828125-3.0361328125-5.439453125-4.98828125-1.451171875-1.953125-2.4970703125-4.1474609375-3.1337890625-6.5830078125-.640625-2.435546875-.7431640625-4.916015625-.310546875-7.439453125l3.03515625-17.7421875c.4404296875-2.5751953125,1.36328125-4.892578125,2.7724609375-6.9521484375,1.40625-2.05859375,3.1220703125-3.779296875,5.1435546875-5.166015625,2.0224609375-1.3857421875,4.287109375-2.3642578125,6.794921875-2.9365234375,2.501953125-.572265625,5.072265625-.6337890625,7.69921875-.1845703125l.869140625.1484375c2.6796875.4580078125,5.10546875,1.375,7.28125,2.7470703125,2.169921875,1.373046875,3.9931640625,3.05078125,5.466796875,5.0341796875,1.474609375,1.984375,2.5205078125,4.1787109375,3.1357421875,6.5830078125.6162109375,2.40625.705078125,4.896484375.2646484375,7.4716796875l-3.03515625,17.7421875c-.4326171875,2.5234375-1.341796875,4.8310546875-2.7265625,6.919921875-1.384765625,2.08984375-3.1005859375,3.810546875-5.1455078125,5.166015625-2.044921875,1.3544921875-4.3203125,2.318359375-6.822265625,2.890625-2.5087890625.572265625-5.1015625.62890625-7.78125.169921875l-.869140625-.1484375ZM144.935546875,127.3046875c-1.734375-.296875-3.3359375.0517578125-4.802734375,1.044921875-1.470703125.994140625-2.3515625,2.357421875-2.6474609375,4.091796875l-3.03515625,17.7421875c-.2880859375,1.6826171875.0927734375,3.236328125,1.150390625,4.66015625,1.052734375,1.42578125,2.447265625,2.2861328125,4.181640625,2.5830078125l.869140625.1484375c1.837890625.314453125,3.48046875-.0263671875,4.921875-1.0244140625,1.4404296875-.998046875,2.3095703125-2.3369140625,2.59765625-4.0205078125l3.03515625-17.7421875c.2958984375-1.734375-.0732421875-3.3115234375-1.1005859375-4.732421875-1.02734375-1.419921875-2.462890625-2.2880859375-4.30078125-2.6025390625l-.869140625-.1484375Z"/>
      </g>
      <g>
        <path class="cls-2" d="M51.2568359375,145.76171875l-1.900390625,11.109375c-1.6171875,9.4501953125-3.8046875,23.2412109375-3.3095703125,30.322265625l-13.595703125-2.326171875c-1.0830078125-5.646484375.34765625-17.005859375,2.3330078125-28.6123046875l13.076171875-76.435546875c3.9140625-22.880859375,11.779296875-31.9453125,19.1015625-36.8369140625,6.5458984375-4.3408203125,14.4365234375-6.5751953125,25.0478515625-4.759765625,16.4140625,2.8076171875,27.0302734375,16.5703125,24.080078125,33.8134765625-2.1552734375,12.6015625-10.9013671875,20.8330078125-19.1806640625,23.341796875l-.11328125.6630859375c12.1455078125,4.80859375,22.267578125,17.4619140625,19.119140625,35.8662109375-3.80078125,22.2177734375-22.78125,31.4287109375-40.5234375,28.3935546875-11.109375-1.900390625-18.7744140625-6.9658203125-23.802734375-14.482421875l-.33203125-.056640625ZM53.556640625,131.3076171875c2.7646484375,6.787109375,9.671875,15.306640625,21.111328125,17.263671875,13.263671875,2.26953125,24.388671875-5.896484375,26.6572265625-19.16015625,2.7236328125-15.9169921875-7.16015625-25.970703125-21.6669921875-28.9638671875-1.4638671875-.4208984375-2.984375-.5107421875-4.478515625-.765625l1.7021484375-9.9482421875c.99609375.169921875,1.8544921875.1455078125,2.875.150390625,12.7451171875,1.3271484375,20.7197265625-7.3779296875,22.53515625-17.9892578125,2.013671875-11.7724609375-3.8125-20.619140625-13.59375-22.2919921875-13.431640625-2.2978515625-22.5478515625,8.087890625-26.462890625,30.9697265625l-8.6787109375,50.7353515625Z"/>
        <path class="cls-2" d="M137.677734375,169.7275390625c-2.626953125-.44921875-5.0302734375-1.3603515625-7.19921875-2.732421875-2.17578125-1.373046875-3.98828125-3.0361328125-5.439453125-4.98828125-1.451171875-1.953125-2.4970703125-4.1474609375-3.1337890625-6.5830078125-.640625-2.435546875-.7431640625-4.916015625-.310546875-7.439453125l3.03515625-17.7421875c.4404296875-2.5751953125,1.36328125-4.892578125,2.7724609375-6.9521484375,1.40625-2.05859375,3.1220703125-3.779296875,5.1435546875-5.166015625,2.0224609375-1.3857421875,4.287109375-2.3642578125,6.794921875-2.9365234375,2.501953125-.572265625,5.072265625-.6337890625,7.69921875-.1845703125l.869140625.1484375c2.6796875.4580078125,5.10546875,1.375,7.28125,2.7470703125,2.169921875,1.373046875,3.9931640625,3.05078125,5.466796875,5.0341796875,1.474609375,1.984375,2.5205078125,4.1787109375,3.1357421875,6.5830078125.6162109375,2.40625.705078125,4.896484375.2646484375,7.4716796875l-3.03515625,17.7421875c-.4326171875,2.5234375-1.341796875,4.8310546875-2.7265625,6.919921875-1.384765625,2.08984375-3.1005859375,3.810546875-5.1455078125,5.166015625-2.044921875,1.3544921875-4.3203125,2.318359375-6.822265625,2.890625-2.5087890625.572265625-5.1015625.62890625-7.78125.169921875l-.869140625-.1484375ZM144.935546875,127.3046875c-1.734375-.296875-3.3359375.0517578125-4.802734375,1.044921875-1.470703125.994140625-2.3515625,2.357421875-2.6474609375,4.091796875l-3.03515625,17.7421875c-.2880859375,1.6826171875.0927734375,3.236328125,1.150390625,4.66015625,1.052734375,1.42578125,2.447265625,2.2861328125,4.181640625,2.5830078125l.869140625.1484375c1.837890625.314453125,3.48046875-.0263671875,4.921875-1.0244140625,1.4404296875-.998046875,2.3095703125-2.3369140625,2.59765625-4.0205078125l3.03515625-17.7421875c.2958984375-1.734375-.0732421875-3.3115234375-1.1005859375-4.732421875-1.02734375-1.419921875-2.462890625-2.2880859375-4.30078125-2.6025390625l-.869140625-.1484375Z"/>
      </g>
      <g>
        <path class="cls-3" d="M51.2568359375,145.76171875l-1.900390625,11.109375c-1.6171875,9.4501953125-3.8046875,23.2412109375-3.3095703125,30.322265625l-13.595703125-2.326171875c-1.0830078125-5.646484375.34765625-17.005859375,2.3330078125-28.6123046875l13.076171875-76.435546875c3.9140625-22.880859375,11.779296875-31.9453125,19.1015625-36.8369140625,6.5458984375-4.3408203125,14.4365234375-6.5751953125,25.0478515625-4.759765625,16.4140625,2.8076171875,27.0302734375,16.5703125,24.080078125,33.8134765625-2.1552734375,12.6015625-10.9013671875,20.8330078125-19.1806640625,23.341796875l-.11328125.6630859375c12.1455078125,4.80859375,22.267578125,17.4619140625,19.119140625,35.8662109375-3.80078125,22.2177734375-22.78125,31.4287109375-40.5234375,28.3935546875-11.109375-1.900390625-18.7744140625-6.9658203125-23.802734375-14.482421875l-.33203125-.056640625ZM53.556640625,131.3076171875c2.7646484375,6.787109375,9.671875,15.306640625,21.111328125,17.263671875,13.263671875,2.26953125,24.388671875-5.896484375,26.6572265625-19.16015625,2.7236328125-15.9169921875-7.16015625-25.970703125-21.6669921875-28.9638671875-1.4638671875-.4208984375-2.984375-.5107421875-4.478515625-.765625l1.7021484375-9.9482421875c.99609375.169921875,1.8544921875.1455078125,2.875.150390625,12.7451171875,1.3271484375,20.7197265625-7.3779296875,22.53515625-17.9892578125,2.013671875-11.7724609375-3.8125-20.619140625-13.59375-22.2919921875-13.431640625-2.2978515625-22.5478515625,8.087890625-26.462890625,30.9697265625l-8.6787109375,50.7353515625Z"/>
        <path class="cls-3" d="M137.677734375,169.7275390625c-2.626953125-.44921875-5.0302734375-1.3603515625-7.19921875-2.732421875-2.17578125-1.373046875-3.98828125-3.0361328125-5.439453125-4.98828125-1.451171875-1.953125-2.4970703125-4.1474609375-3.1337890625-6.5830078125-.640625-2.435546875-.7431640625-4.916015625-.310546875-7.439453125l3.03515625-17.7421875c.4404296875-2.5751953125,1.36328125-4.892578125,2.7724609375-6.9521484375,1.40625-2.05859375,3.1220703125-3.779296875,5.1435546875-5.166015625,2.0224609375-1.3857421875,4.287109375-2.3642578125,6.794921875-2.9365234375,2.501953125-.572265625,5.072265625-.6337890625,7.69921875-.1845703125l.869140625.1484375c2.6796875.4580078125,5.10546875,1.375,7.28125,2.7470703125,2.169921875,1.373046875,3.9931640625,3.05078125,5.466796875,5.0341796875,1.474609375,1.984375,2.5205078125,4.1787109375,3.1357421875,6.5830078125.6162109375,2.40625.705078125,4.896484375.2646484375,7.4716796875l-3.03515625,17.7421875c-.4326171875,2.5234375-1.341796875,4.8310546875-2.7265625,6.919921875-1.384765625,2.08984375-3.1005859375,3.810546875-5.1455078125,5.166015625-2.044921875,1.3544921875-4.3203125,2.318359375-6.822265625,2.890625-2.5087890625.572265625-5.1015625.62890625-7.78125.169921875l-.869140625-.1484375ZM144.935546875,127.3046875c-1.734375-.296875-3.3359375.0517578125-4.802734375,1.044921875-1.470703125.994140625-2.3515625,2.357421875-2.6474609375,4.091796875l-3.03515625,17.7421875c-.2880859375,1.6826171875.0927734375,3.236328125,1.150390625,4.66015625,1.052734375,1.42578125,2.447265625,2.2861328125,4.181640625,2.5830078125l.869140625.1484375c1.837890625.314453125,3.48046875-.0263671875,4.921875-1.0244140625,1.4404296875-.998046875,2.3095703125-2.3369140625,2.59765625-4.0205078125l3.03515625-17.7421875c.2958984375-1.734375-.0732421875-3.3115234375-1.1005859375-4.732421875-1.02734375-1.419921875-2.462890625-2.2880859375-4.30078125-2.6025390625l-.869140625-.1484375Z"/>
      </g>
    </g>
  </a>
</svg>