<?xml version="1.0" encoding="UTF-8"?>
<svg id="Content" xmlns="http://www.w3.org/2000/svg" xmlns:xlink="http://www.w3.org/1999/xlink" viewBox="0 0 280 280">
  <defs>
    <style>
      .cls-1 {
        stroke: #665451;
        stroke-width: 50px;
      }

      .cls-1, .cls-2 {
        fill: none;
        stroke-linecap: round;
        stroke-linejoin: round;
      }

      .cls-3 {
        fill: #fff;
      }

      .cls-2 {
        stroke: #998675;
        stroke-width: 2px;
      }
    </style>
  </defs>
  <a xlink:href="https://www.notion.so/congruence/Population-variance-d9ad822205a8484cbbc44a5850c79123?pvs=4">
    <g>
      <g>
        <path d="M190.96044921875,100.0771484375c.38232421875.07080078125.650390625.3056640625.803955078125.7021484375.152099609375.39697265625.25390625.8408203125.3046875,1.33056640625.049560546875.4912109375.042724609375.98486328125-.021240234375,1.48291015625-.064208984375.4970703125-.116455078125.85693359375-.156982421875,1.07470703125-.183349609375.98583984375-.402587890625,2.0068359375-.65478515625,3.06396484375-.253662109375,1.05712890625-.546142578125,2.0224609375-.878173828125,2.89453125-.332275390625.87353515625-.7216796875,1.5947265625-1.1669921875,2.16259765625-.445068359375.56689453125-.9794921875.85009765625-1.601806640625.8486328125-.294677734375.05810546875-.887451171875-.0244140625-1.781005859375-.24609375-.892578125-.22314453125-1.958740234375-.50634765625-3.197265625-.85009765625-1.29345703125-.3544921875-2.685546875-.71142578125-4.1748046875-1.07421875-1.49169921875-.36181640625-3.0244140625-.71826171875-4.6015625-1.06787109375-1.578125-.3505859375-3.10498046875-.662109375-4.5830078125-.93701171875-1.4775390625-.27490234375-2.79638671875-.49267578125-3.95654296875-.6513671875-1.005126953125-.07421875-2.234375-.24560546875-3.68408203125-.51513671875-1.451171875-.27001953125-2.681640625-.583984375-3.6904296875-.94140625-.7900390625-.31689453125-1.300537109375-1.07666015625-1.52978515625-2.28076171875-.22998046875-1.20263671875-.2421875-2.5791015625-.0390625-4.12744140625.202880859375-1.546875.623779296875-3.125,1.26318359375-4.734375.638427734375-1.60791015625,1.4033203125-2.98095703125,2.294921875-4.1181640625,1.375-1.61279296875,2.855712890625-3.0224609375,4.439453125-4.228515625,1.5830078125-1.20556640625,3.21044921875-2.34716796875,4.88427734375-3.42431640625,1.67236328125-1.076171875,3.37548828125-2.1611328125,5.107666015625-3.2548828125,1.732421875-1.0927734375,3.45703125-2.30126953125,5.1767578125-3.625.723876953125-.544921875,1.585693359375-1.37451171875,2.587158203125-2.49169921875.999755859375-1.11572265625,1.80908203125-2.26806640625,2.4267578125-3.4560546875.798095703125-1.55078125,1.00390625-2.81494140625.620361328125-3.79248046875-.385009765625-.97705078125-1.065673828125-1.65576171875-2.042236328125-2.03662109375-.977783203125-.37939453125-2.11181640625-.4482421875-3.40185546875-.2080078125-1.29150390625.24169921875-2.4716796875.8017578125-3.5400390625,1.677734375-.9501953125.84326171875-1.72509765625,1.8876953125-2.324462890625,3.13525390625-.601318359375,1.248046875-.781494140625,2.6025390625-.543212890625,4.06201171875.0576171875.29443359375.122314453125.6318359375.19384765625,1.01318359375.0693359375.38134765625.10205078125.74072265625.0966796875,1.07958984375-.0888671875.77783203125-.73974609375,1.46337890625-1.95458984375,2.05712890625-1.21533203125.59619140625-2.56787109375.93896484375-4.056640625,1.02978515625-1.49072265625.091796875-2.8916015625-.14111328125-4.203125-.69677734375-1.31298828125-.5546875-2.111083984375-1.59521484375-2.392578125-3.12109375-.236572265625-2.08251953125-.1318359375-4.0869140625.31201171875-6.015625.443359375-1.927734375,1.122802734375-3.7548828125,2.038818359375-5.48291015625.916259765625-1.72607421875,2.060302734375-3.31201171875,3.43310546875-4.75537109375,1.372802734375-1.44384765625,2.886962890625-2.662109375,4.545166015625-3.65673828125,1.7861328125-1.0830078125,3.755615234375-1.8505859375,5.9072265625-2.2998046875,2.150390625-.44921875,4.30859375-.55810546875,6.47412109375-.32470703125,2.16552734375.23291015625,4.223388671875.814453125,6.174560546875,1.74267578125,1.951171875.93017578125,3.614990234375,2.2587890625,4.992431640625,3.9873046875,1.1103515625,1.33984375,1.91796875,2.77783203125,2.42578125,4.31640625.506103515625,1.5380859375.778564453125,3.11767578125.8173828125,4.7392578125.0380859375,1.62109375-.13671875,3.2451171875-.524169921875,4.8720703125s-.92626953125,3.2255859375-1.614501953125,4.79638671875c-1.05078125,2.2978515625-2.373779296875,4.31591796875-3.97216796875,6.0576171875-1.59814453125,1.7421875-3.329833984375,3.3603515625-5.1923828125,4.85302734375-1.8642578125,1.49462890625-3.813232421875,2.916015625-5.84814453125,4.2646484375-2.034423828125,1.35009765625-4.0361328125,2.74658203125-6.00390625,4.1923828125,5.34912109375.76953125,10.6865234375,1.76220703125,16.01123046875,2.97802734375Z"/>
        <path d="M104.555795326676161,113.469818917978046c-.036918578862242.212041550266804-.148067576264111.772129768891318.048609425538416.85955263469441,15.369697944966902,6.831825930521518,24.179814853668177,21.591362943750028,25.237069859128496,40.286632748329794.826360234146705,14.612394789787686-2.922619773887163,26.465478664033981-11.246940024108881,35.559251622734337-8.324320250220808,9.093772958701265-19.75754202864664,14.051852558466635-34.297628480679123,14.874123611086361-14.040038651519353.793992346530104-25.500468946660476-3.012441119197319-34.383442928216027-11.421222063559071-8.882858793350351-8.406744089775202-13.729405132254215-19.773733708634609-14.539639016700676-34.100968856583677-.814207877769149-14.397506631111355,1.597101620823196-26.084012647464988,7.23273728617005-35.062515736828573,5.636711686736817-8.977542256177003,13.024694177780475-15.234273570499681,22.167060349099302-18.769348297996657,9.140329316731368-3.534959539282681,20.58895190723797-5.691429901443371,34.341794062326699-6.469180710058026l38.47083887797362-2.175603101377419c2.667052144834997-.150827148227108,4.951394656599405,1.888976239759359,5.102221804822875,4.556028384593446l.274090635727589,4.846700521030471c.150827148220742,2.667052144834088-1.888976239763906,4.951394656599405-4.556028384599813,5.102221804826513,0,0-33.100386076925133-2.39534398008982-33.850743466482527,1.914327439108092ZM94.218918109007973,117.978560774246034c-2.132427631652718-2.190899793632525-5.187450945252749-3.258435750602985-8.217550507263695-2.851267291263866-21.823372268649109,2.932507227033057-31.996680264352108,17.425845458378717-30.523348247763352,43.478537968416276.708925851841741,12.535821540803227,3.584366035041057,22.109350687331244,8.630509446997166,28.722393917735644,5.04410655736956,6.613158418617786,11.685189019720383,9.686798265853213,19.923247387055198,9.22091954170628,18.695269804577947-1.057255005456682,27.315865508671777-14.441999432416196,25.861556735837439-40.158306990048914-.892952766742383-15.789939807116752-6.117730077038686-28.593543648113155-15.674414814862757-38.412277146545421Z"/>
      </g>
      <g>
        <path class="cls-1" d="M190.96044921875,100.0771484375c.38232421875.07080078125.650390625.3056640625.803955078125.7021484375.152099609375.39697265625.25390625.8408203125.3046875,1.33056640625.049560546875.4912109375.042724609375.98486328125-.021240234375,1.48291015625-.064208984375.4970703125-.116455078125.85693359375-.156982421875,1.07470703125-.183349609375.98583984375-.402587890625,2.0068359375-.65478515625,3.06396484375-.253662109375,1.05712890625-.546142578125,2.0224609375-.878173828125,2.89453125-.332275390625.87353515625-.7216796875,1.5947265625-1.1669921875,2.16259765625-.445068359375.56689453125-.9794921875.85009765625-1.601806640625.8486328125-.294677734375.05810546875-.887451171875-.0244140625-1.781005859375-.24609375-.892578125-.22314453125-1.958740234375-.50634765625-3.197265625-.85009765625-1.29345703125-.3544921875-2.685546875-.71142578125-4.1748046875-1.07421875-1.49169921875-.36181640625-3.0244140625-.71826171875-4.6015625-1.06787109375-1.578125-.3505859375-3.10498046875-.662109375-4.5830078125-.93701171875-1.4775390625-.27490234375-2.79638671875-.49267578125-3.95654296875-.6513671875-1.005126953125-.07421875-2.234375-.24560546875-3.68408203125-.51513671875-1.451171875-.27001953125-2.681640625-.583984375-3.6904296875-.94140625-.7900390625-.31689453125-1.300537109375-1.07666015625-1.52978515625-2.28076171875-.22998046875-1.20263671875-.2421875-2.5791015625-.0390625-4.12744140625.202880859375-1.546875.623779296875-3.125,1.26318359375-4.734375.638427734375-1.60791015625,1.4033203125-2.98095703125,2.294921875-4.1181640625,1.375-1.61279296875,2.855712890625-3.0224609375,4.439453125-4.228515625,1.5830078125-1.20556640625,3.21044921875-2.34716796875,4.88427734375-3.42431640625,1.67236328125-1.076171875,3.37548828125-2.1611328125,5.107666015625-3.2548828125,1.732421875-1.0927734375,3.45703125-2.30126953125,5.1767578125-3.625.723876953125-.544921875,1.585693359375-1.37451171875,2.587158203125-2.49169921875.999755859375-1.11572265625,1.80908203125-2.26806640625,2.4267578125-3.4560546875.798095703125-1.55078125,1.00390625-2.81494140625.620361328125-3.79248046875-.385009765625-.97705078125-1.065673828125-1.65576171875-2.042236328125-2.03662109375-.977783203125-.37939453125-2.11181640625-.4482421875-3.40185546875-.2080078125-1.29150390625.24169921875-2.4716796875.8017578125-3.5400390625,1.677734375-.9501953125.84326171875-1.72509765625,1.8876953125-2.324462890625,3.13525390625-.601318359375,1.248046875-.781494140625,2.6025390625-.543212890625,4.06201171875.0576171875.29443359375.122314453125.6318359375.19384765625,1.01318359375.0693359375.38134765625.10205078125.74072265625.0966796875,1.07958984375-.0888671875.77783203125-.73974609375,1.46337890625-1.95458984375,2.05712890625-1.21533203125.59619140625-2.56787109375.93896484375-4.056640625,1.02978515625-1.49072265625.091796875-2.8916015625-.14111328125-4.203125-.69677734375-1.31298828125-.5546875-2.111083984375-1.59521484375-2.392578125-3.12109375-.236572265625-2.08251953125-.1318359375-4.0869140625.31201171875-6.015625.443359375-1.927734375,1.122802734375-3.7548828125,2.038818359375-5.48291015625.916259765625-1.72607421875,2.060302734375-3.31201171875,3.43310546875-4.75537109375,1.372802734375-1.44384765625,2.886962890625-2.662109375,4.545166015625-3.65673828125,1.7861328125-1.0830078125,3.755615234375-1.8505859375,5.9072265625-2.2998046875,2.150390625-.44921875,4.30859375-.55810546875,6.47412109375-.32470703125,2.16552734375.23291015625,4.223388671875.814453125,6.174560546875,1.74267578125,1.951171875.93017578125,3.614990234375,2.2587890625,4.992431640625,3.9873046875,1.1103515625,1.33984375,1.91796875,2.77783203125,2.42578125,4.31640625.506103515625,1.5380859375.778564453125,3.11767578125.8173828125,4.7392578125.0380859375,1.62109375-.13671875,3.2451171875-.524169921875,4.8720703125s-.92626953125,3.2255859375-1.614501953125,4.79638671875c-1.05078125,2.2978515625-2.373779296875,4.31591796875-3.97216796875,6.0576171875-1.59814453125,1.7421875-3.329833984375,3.3603515625-5.1923828125,4.85302734375-1.8642578125,1.49462890625-3.813232421875,2.916015625-5.84814453125,4.2646484375-2.034423828125,1.35009765625-4.0361328125,2.74658203125-6.00390625,4.1923828125,5.34912109375.76953125,10.6865234375,1.76220703125,16.01123046875,2.97802734375Z"/>
        <path class="cls-1" d="M104.555795326676161,113.469818917978046c-.036918578862242.212041550266804-.148067576264111.772129768891318.048609425538416.85955263469441,15.369697944966902,6.831825930521518,24.179814853668177,21.591362943750028,25.237069859128496,40.286632748329794.826360234146705,14.612394789787686-2.922619773887163,26.465478664033981-11.246940024108881,35.559251622734337-8.324320250220808,9.093772958701265-19.75754202864664,14.051852558466635-34.297628480679123,14.874123611086361-14.040038651519353.793992346530104-25.500468946660476-3.012441119197319-34.383442928216027-11.421222063559071-8.882858793350351-8.406744089775202-13.729405132254215-19.773733708634609-14.539639016700676-34.100968856583677-.814207877769149-14.397506631111355,1.597101620823196-26.084012647464988,7.23273728617005-35.062515736828573,5.636711686736817-8.977542256177003,13.024694177780475-15.234273570499681,22.167060349099302-18.769348297996657,9.140329316731368-3.534959539282681,20.58895190723797-5.691429901443371,34.341794062326699-6.469180710058026l38.47083887797362-2.175603101377419c2.667052144834997-.150827148227108,4.951394656599405,1.888976239759359,5.102221804822875,4.556028384593446l.274090635727589,4.846700521030471c.150827148220742,2.667052144834088-1.888976239763906,4.951394656599405-4.556028384599813,5.102221804826513,0,0-33.100386076925133-2.39534398008982-33.850743466482527,1.914327439108092ZM94.218918109007973,117.978560774246034c-2.132427631652718-2.190899793632525-5.187450945252749-3.258435750602985-8.217550507263695-2.851267291263866-21.823372268649109,2.932507227033057-31.996680264352108,17.425845458378717-30.523348247763352,43.478537968416276.708925851841741,12.535821540803227,3.584366035041057,22.109350687331244,8.630509446997166,28.722393917735644,5.04410655736956,6.613158418617786,11.685189019720383,9.686798265853213,19.923247387055198,9.22091954170628,18.695269804577947-1.057255005456682,27.315865508671777-14.441999432416196,25.861556735837439-40.158306990048914-.892952766742383-15.789939807116752-6.117730077038686-28.593543648113155-15.674414814862757-38.412277146545421Z"/>
      </g>
      <g>
        <path class="cls-2" d="M190.96044921875,100.0771484375c.38232421875.07080078125.650390625.3056640625.803955078125.7021484375.152099609375.39697265625.25390625.8408203125.3046875,1.33056640625.049560546875.4912109375.042724609375.98486328125-.021240234375,1.48291015625-.064208984375.4970703125-.116455078125.85693359375-.156982421875,1.07470703125-.183349609375.98583984375-.402587890625,2.0068359375-.65478515625,3.06396484375-.253662109375,1.05712890625-.546142578125,2.0224609375-.878173828125,2.89453125-.332275390625.87353515625-.7216796875,1.5947265625-1.1669921875,2.16259765625-.445068359375.56689453125-.9794921875.85009765625-1.601806640625.8486328125-.294677734375.05810546875-.887451171875-.0244140625-1.781005859375-.24609375-.892578125-.22314453125-1.958740234375-.50634765625-3.197265625-.85009765625-1.29345703125-.3544921875-2.685546875-.71142578125-4.1748046875-1.07421875-1.49169921875-.36181640625-3.0244140625-.71826171875-4.6015625-1.06787109375-1.578125-.3505859375-3.10498046875-.662109375-4.5830078125-.93701171875-1.4775390625-.27490234375-2.79638671875-.49267578125-3.95654296875-.6513671875-1.005126953125-.07421875-2.234375-.24560546875-3.68408203125-.51513671875-1.451171875-.27001953125-2.681640625-.583984375-3.6904296875-.94140625-.7900390625-.31689453125-1.300537109375-1.07666015625-1.52978515625-2.28076171875-.22998046875-1.20263671875-.2421875-2.5791015625-.0390625-4.12744140625.202880859375-1.546875.623779296875-3.125,1.26318359375-4.734375.638427734375-1.60791015625,1.4033203125-2.98095703125,2.294921875-4.1181640625,1.375-1.61279296875,2.855712890625-3.0224609375,4.439453125-4.228515625,1.5830078125-1.20556640625,3.21044921875-2.34716796875,4.88427734375-3.42431640625,1.67236328125-1.076171875,3.37548828125-2.1611328125,5.107666015625-3.2548828125,1.732421875-1.0927734375,3.45703125-2.30126953125,5.1767578125-3.625.723876953125-.544921875,1.585693359375-1.37451171875,2.587158203125-2.49169921875.999755859375-1.11572265625,1.80908203125-2.26806640625,2.4267578125-3.4560546875.798095703125-1.55078125,1.00390625-2.81494140625.620361328125-3.79248046875-.385009765625-.97705078125-1.065673828125-1.65576171875-2.042236328125-2.03662109375-.977783203125-.37939453125-2.11181640625-.4482421875-3.40185546875-.2080078125-1.29150390625.24169921875-2.4716796875.8017578125-3.5400390625,1.677734375-.9501953125.84326171875-1.72509765625,1.8876953125-2.324462890625,3.13525390625-.601318359375,1.248046875-.781494140625,2.6025390625-.543212890625,4.06201171875.0576171875.29443359375.122314453125.6318359375.19384765625,1.01318359375.0693359375.38134765625.10205078125.74072265625.0966796875,1.07958984375-.0888671875.77783203125-.73974609375,1.46337890625-1.95458984375,2.05712890625-1.21533203125.59619140625-2.56787109375.93896484375-4.056640625,1.02978515625-1.49072265625.091796875-2.8916015625-.14111328125-4.203125-.69677734375-1.31298828125-.5546875-2.111083984375-1.59521484375-2.392578125-3.12109375-.236572265625-2.08251953125-.1318359375-4.0869140625.31201171875-6.015625.443359375-1.927734375,1.122802734375-3.7548828125,2.038818359375-5.48291015625.916259765625-1.72607421875,2.060302734375-3.31201171875,3.43310546875-4.75537109375,1.372802734375-1.44384765625,2.886962890625-2.662109375,4.545166015625-3.65673828125,1.7861328125-1.0830078125,3.755615234375-1.8505859375,5.9072265625-2.2998046875,2.150390625-.44921875,4.30859375-.55810546875,6.47412109375-.32470703125,2.16552734375.23291015625,4.223388671875.814453125,6.174560546875,1.74267578125,1.951171875.93017578125,3.614990234375,2.2587890625,4.992431640625,3.9873046875,1.1103515625,1.33984375,1.91796875,2.77783203125,2.42578125,4.31640625.506103515625,1.5380859375.778564453125,3.11767578125.8173828125,4.7392578125.0380859375,1.62109375-.13671875,3.2451171875-.524169921875,4.8720703125s-.92626953125,3.2255859375-1.614501953125,4.79638671875c-1.05078125,2.2978515625-2.373779296875,4.31591796875-3.97216796875,6.0576171875-1.59814453125,1.7421875-3.329833984375,3.3603515625-5.1923828125,4.85302734375-1.8642578125,1.49462890625-3.813232421875,2.916015625-5.84814453125,4.2646484375-2.034423828125,1.35009765625-4.0361328125,2.74658203125-6.00390625,4.1923828125,5.34912109375.76953125,10.6865234375,1.76220703125,16.01123046875,2.97802734375Z"/>
        <path class="cls-2" d="M104.555795326676161,113.469818917978046c-.036918578862242.212041550266804-.148067576264111.772129768891318.048609425538416.85955263469441,15.369697944966902,6.831825930521518,24.179814853668177,21.591362943750028,25.237069859128496,40.286632748329794.826360234146705,14.612394789787686-2.922619773887163,26.465478664033981-11.246940024108881,35.559251622734337-8.324320250220808,9.093772958701265-19.75754202864664,14.051852558466635-34.297628480679123,14.874123611086361-14.040038651519353.793992346530104-25.500468946660476-3.012441119197319-34.383442928216027-11.421222063559071-8.882858793350351-8.406744089775202-13.729405132254215-19.773733708634609-14.539639016700676-34.100968856583677-.814207877769149-14.397506631111355,1.597101620823196-26.084012647464988,7.23273728617005-35.062515736828573,5.636711686736817-8.977542256177003,13.024694177780475-15.234273570499681,22.167060349099302-18.769348297996657,9.140329316731368-3.534959539282681,20.58895190723797-5.691429901443371,34.341794062326699-6.469180710058026l38.47083887797362-2.175603101377419c2.667052144834997-.150827148227108,4.951394656599405,1.888976239759359,5.102221804822875,4.556028384593446l.274090635727589,4.846700521030471c.150827148220742,2.667052144834088-1.888976239763906,4.951394656599405-4.556028384599813,5.102221804826513,0,0-33.100386076925133-2.39534398008982-33.850743466482527,1.914327439108092ZM94.218918109007973,117.978560774246034c-2.132427631652718-2.190899793632525-5.187450945252749-3.258435750602985-8.217550507263695-2.851267291263866-21.823372268649109,2.932507227033057-31.996680264352108,17.425845458378717-30.523348247763352,43.478537968416276.708925851841741,12.535821540803227,3.584366035041057,22.109350687331244,8.630509446997166,28.722393917735644,5.04410655736956,6.613158418617786,11.685189019720383,9.686798265853213,19.923247387055198,9.22091954170628,18.695269804577947-1.057255005456682,27.315865508671777-14.441999432416196,25.861556735837439-40.158306990048914-.892952766742383-15.789939807116752-6.117730077038686-28.593543648113155-15.674414814862757-38.412277146545421Z"/>
      </g>
      <g>
        <path class="cls-3" d="M190.96044921875,100.0771484375c.38232421875.07080078125.650390625.3056640625.803955078125.7021484375.152099609375.39697265625.25390625.8408203125.3046875,1.33056640625.049560546875.4912109375.042724609375.98486328125-.021240234375,1.48291015625-.064208984375.4970703125-.116455078125.85693359375-.156982421875,1.07470703125-.183349609375.98583984375-.402587890625,2.0068359375-.65478515625,3.06396484375-.253662109375,1.05712890625-.546142578125,2.0224609375-.878173828125,2.89453125-.332275390625.87353515625-.7216796875,1.5947265625-1.1669921875,2.16259765625-.445068359375.56689453125-.9794921875.85009765625-1.601806640625.8486328125-.294677734375.05810546875-.887451171875-.0244140625-1.781005859375-.24609375-.892578125-.22314453125-1.958740234375-.50634765625-3.197265625-.85009765625-1.29345703125-.3544921875-2.685546875-.71142578125-4.1748046875-1.07421875-1.49169921875-.36181640625-3.0244140625-.71826171875-4.6015625-1.06787109375-1.578125-.3505859375-3.10498046875-.662109375-4.5830078125-.93701171875-1.4775390625-.27490234375-2.79638671875-.49267578125-3.95654296875-.6513671875-1.005126953125-.07421875-2.234375-.24560546875-3.68408203125-.51513671875-1.451171875-.27001953125-2.681640625-.583984375-3.6904296875-.94140625-.7900390625-.31689453125-1.300537109375-1.07666015625-1.52978515625-2.28076171875-.22998046875-1.20263671875-.2421875-2.5791015625-.0390625-4.12744140625.202880859375-1.546875.623779296875-3.125,1.26318359375-4.734375.638427734375-1.60791015625,1.4033203125-2.98095703125,2.294921875-4.1181640625,1.375-1.61279296875,2.855712890625-3.0224609375,4.439453125-4.228515625,1.5830078125-1.20556640625,3.21044921875-2.34716796875,4.88427734375-3.42431640625,1.67236328125-1.076171875,3.37548828125-2.1611328125,5.107666015625-3.2548828125,1.732421875-1.0927734375,3.45703125-2.30126953125,5.1767578125-3.625.723876953125-.544921875,1.585693359375-1.37451171875,2.587158203125-2.49169921875.999755859375-1.11572265625,1.80908203125-2.26806640625,2.4267578125-3.4560546875.798095703125-1.55078125,1.00390625-2.81494140625.620361328125-3.79248046875-.385009765625-.97705078125-1.065673828125-1.65576171875-2.042236328125-2.03662109375-.977783203125-.37939453125-2.11181640625-.4482421875-3.40185546875-.2080078125-1.29150390625.24169921875-2.4716796875.8017578125-3.5400390625,1.677734375-.9501953125.84326171875-1.72509765625,1.8876953125-2.324462890625,3.13525390625-.601318359375,1.248046875-.781494140625,2.6025390625-.543212890625,4.06201171875.0576171875.29443359375.122314453125.6318359375.19384765625,1.01318359375.0693359375.38134765625.10205078125.74072265625.0966796875,1.07958984375-.0888671875.77783203125-.73974609375,1.46337890625-1.95458984375,2.05712890625-1.21533203125.59619140625-2.56787109375.93896484375-4.056640625,1.02978515625-1.49072265625.091796875-2.8916015625-.14111328125-4.203125-.69677734375-1.31298828125-.5546875-2.111083984375-1.59521484375-2.392578125-3.12109375-.236572265625-2.08251953125-.1318359375-4.0869140625.31201171875-6.015625.443359375-1.927734375,1.122802734375-3.7548828125,2.038818359375-5.48291015625.916259765625-1.72607421875,2.060302734375-3.31201171875,3.43310546875-4.75537109375,1.372802734375-1.44384765625,2.886962890625-2.662109375,4.545166015625-3.65673828125,1.7861328125-1.0830078125,3.755615234375-1.8505859375,5.9072265625-2.2998046875,2.150390625-.44921875,4.30859375-.55810546875,6.47412109375-.32470703125,2.16552734375.23291015625,4.223388671875.814453125,6.174560546875,1.74267578125,1.951171875.93017578125,3.614990234375,2.2587890625,4.992431640625,3.9873046875,1.1103515625,1.33984375,1.91796875,2.77783203125,2.42578125,4.31640625.506103515625,1.5380859375.778564453125,3.11767578125.8173828125,4.7392578125.0380859375,1.62109375-.13671875,3.2451171875-.524169921875,4.8720703125s-.92626953125,3.2255859375-1.614501953125,4.79638671875c-1.05078125,2.2978515625-2.373779296875,4.31591796875-3.97216796875,6.0576171875-1.59814453125,1.7421875-3.329833984375,3.3603515625-5.1923828125,4.85302734375-1.8642578125,1.49462890625-3.813232421875,2.916015625-5.84814453125,4.2646484375-2.034423828125,1.35009765625-4.0361328125,2.74658203125-6.00390625,4.1923828125,5.34912109375.76953125,10.6865234375,1.76220703125,16.01123046875,2.97802734375Z"/>
        <path class="cls-3" d="M104.555795326676161,113.469818917978046c-.036918578862242.212041550266804-.148067576264111.772129768891318.048609425538416.85955263469441,15.369697944966902,6.831825930521518,24.179814853668177,21.591362943750028,25.237069859128496,40.286632748329794.826360234146705,14.612394789787686-2.922619773887163,26.465478664033981-11.246940024108881,35.559251622734337-8.324320250220808,9.093772958701265-19.75754202864664,14.051852558466635-34.297628480679123,14.874123611086361-14.040038651519353.793992346530104-25.500468946660476-3.012441119197319-34.383442928216027-11.421222063559071-8.882858793350351-8.406744089775202-13.729405132254215-19.773733708634609-14.539639016700676-34.100968856583677-.814207877769149-14.397506631111355,1.597101620823196-26.084012647464988,7.23273728617005-35.062515736828573,5.636711686736817-8.977542256177003,13.024694177780475-15.234273570499681,22.167060349099302-18.769348297996657,9.140329316731368-3.534959539282681,20.58895190723797-5.691429901443371,34.341794062326699-6.469180710058026l38.47083887797362-2.175603101377419c2.667052144834997-.150827148227108,4.951394656599405,1.888976239759359,5.102221804822875,4.556028384593446l.274090635727589,4.846700521030471c.150827148220742,2.667052144834088-1.888976239763906,4.951394656599405-4.556028384599813,5.102221804826513,0,0-33.100386076925133-2.39534398008982-33.850743466482527,1.914327439108092ZM94.218918109007973,117.978560774246034c-2.132427631652718-2.190899793632525-5.187450945252749-3.258435750602985-8.217550507263695-2.851267291263866-21.823372268649109,2.932507227033057-31.996680264352108,17.425845458378717-30.523348247763352,43.478537968416276.708925851841741,12.535821540803227,3.584366035041057,22.109350687331244,8.630509446997166,28.722393917735644,5.04410655736956,6.613158418617786,11.685189019720383,9.686798265853213,19.923247387055198,9.22091954170628,18.695269804577947-1.057255005456682,27.315865508671777-14.441999432416196,25.861556735837439-40.158306990048914-.892952766742383-15.789939807116752-6.117730077038686-28.593543648113155-15.674414814862757-38.412277146545421Z"/>
      </g>
    </g>
  </a>
</svg>