<?xml version="1.0" encoding="UTF-8"?>
<svg id="Content" xmlns="http://www.w3.org/2000/svg" xmlns:xlink="http://www.w3.org/1999/xlink" viewBox="0 0 280 280">
  <defs>
    <style>
      .cls-1 {
        stroke: #665451;
        stroke-width: 50px;
      }

      .cls-1, .cls-2 {
        fill: none;
        stroke-linecap: round;
        stroke-linejoin: round;
      }

      .cls-3 {
        fill: #fff;
      }

      .cls-2 {
        stroke: #998675;
        stroke-width: 2px;
      }
    </style>
  </defs>
  <a xlink:href="https://www.notion.so/congruence/Population-slope-125f9339b29b80e29a95e7cdcb8ef48e?pvs=4">
    <g>
      <g>
        <path class="cls-1" d="M51.2568359375,145.76171875l-1.900390625,11.109375c-1.6171875,9.4501953125-3.8046875,23.2412109375-3.3095703125,30.322265625l-13.595703125-2.326171875c-1.0830078125-5.646484375.34765625-17.005859375,2.3330078125-28.6123046875l13.076171875-76.435546875c3.9140625-22.880859375,11.779296875-31.9453125,19.1015625-36.8369140625,6.5458984375-4.3408203125,14.4365234375-6.5751953125,25.0478515625-4.759765625,16.4140625,2.8076171875,27.0302734375,16.5703125,24.080078125,33.8134765625-2.1552734375,12.6015625-10.9013671875,20.8330078125-19.1806640625,23.341796875l-.11328125.6630859375c12.1455078125,4.80859375,22.267578125,17.4619140625,19.119140625,35.8662109375-3.80078125,22.2177734375-22.78125,31.4287109375-40.5234375,28.3935546875-11.109375-1.900390625-18.7744140625-6.9658203125-23.802734375-14.482421875l-.33203125-.056640625ZM53.556640625,131.3076171875c2.7646484375,6.787109375,9.671875,15.306640625,21.111328125,17.263671875,13.263671875,2.26953125,24.388671875-5.896484375,26.6572265625-19.16015625,2.7236328125-15.9169921875-7.16015625-25.970703125-21.6669921875-28.9638671875-1.4638671875-.4208984375-2.984375-.5107421875-4.478515625-.765625l1.7021484375-9.9482421875c.99609375.169921875,1.8544921875.1455078125,2.875.150390625,12.7451171875,1.3271484375,20.7197265625-7.3779296875,22.53515625-17.9892578125,2.013671875-11.7724609375-3.8125-20.619140625-13.59375-22.2919921875-13.431640625-2.2978515625-22.5478515625,8.087890625-26.462890625,30.9697265625l-8.6787109375,50.7353515625Z"/>
        <path class="cls-1" d="M150.3662109375,118.3310546875c-3.99609375,15.7666015625-7.2958984375,31.732421875-9.8984375,47.8974609375-.150390625.5703125-.3974609375,1.0673828125-.7421875,1.4951171875-.3359375.376953125-.7978515625.716796875-1.390625,1.0205078125-.5927734375.3046875-1.3466796875.431640625-2.259765625.384765625-.962890625-.056640625-1.9326171875-.1552734375-2.91015625-.294921875-.9794921875-.140625-1.869140625-.3876953125-2.673828125-.7412109375-.8056640625-.3544921875-1.4658203125-.845703125-1.978515625-1.474609375-.515625-.62890625-.755859375-1.509765625-.724609375-2.6396484375-.0087890625-.5966796875.1201171875-1.7373046875.380859375-3.4248046875.259765625-1.6865234375.6474609375-3.7041015625,1.1572265625-6.0517578125.51953125-2.400390625,1.1044921875-5.0185546875,1.7490234375-7.857421875.6474609375-2.837890625,1.298828125-5.689453125,1.951171875-8.5537109375.0693359375-.095703125.123046875-.2490234375.1591796875-.4599609375-.3056640625-.10546875-.669921875-.2763671875-1.0888671875-.5107421875-.419921875-.234375-.9580078125-.6513671875-1.611328125-1.25-.69921875-.66015625-1.4091796875-1.3369140625-2.1298828125-2.0283203125-.7197265625-.69140625-1.359375-1.380859375-1.9169921875-2.072265625-.55859375-.6904296875-.9765625-1.330078125-1.25390625-1.919921875-.28125-.5869140625-.298828125-1.10546875-.0595703125-1.5517578125s1.1298828125-1.3759765625,2.66796875-2.7890625c.7041015625-.6376953125,1.4794921875-1.37109375,2.32421875-2.2001953125.84375-.8291015625,1.720703125-1.6806640625,2.6279296875-2.552734375.8984375-.8212890625,1.7255859375-1.6259765625,2.482421875-2.4169921875.7578125-.7900390625,1.4638671875-1.5078125,2.115234375-2.154296875.7197265625-.7421875,1.412109375-1.4619140625,2.072265625-2.1611328125.283203125-.3837890625,1.0234375-.515625,2.220703125-.3916015625,1.1943359375.1240234375,2.443359375.41796875,3.744140625.8837890625,1.2998046875.4658203125,2.458984375,1.04296875,3.4755859375,1.7314453125,1.01953125.689453125,1.5224609375,1.3837890625,1.5107421875,2.083984375Z"/>
      </g>
      <g>
        <path class="cls-2" d="M51.2568359375,145.76171875l-1.900390625,11.109375c-1.6171875,9.4501953125-3.8046875,23.2412109375-3.3095703125,30.322265625l-13.595703125-2.326171875c-1.0830078125-5.646484375.34765625-17.005859375,2.3330078125-28.6123046875l13.076171875-76.435546875c3.9140625-22.880859375,11.779296875-31.9453125,19.1015625-36.8369140625,6.5458984375-4.3408203125,14.4365234375-6.5751953125,25.0478515625-4.759765625,16.4140625,2.8076171875,27.0302734375,16.5703125,24.080078125,33.8134765625-2.1552734375,12.6015625-10.9013671875,20.8330078125-19.1806640625,23.341796875l-.11328125.6630859375c12.1455078125,4.80859375,22.267578125,17.4619140625,19.119140625,35.8662109375-3.80078125,22.2177734375-22.78125,31.4287109375-40.5234375,28.3935546875-11.109375-1.900390625-18.7744140625-6.9658203125-23.802734375-14.482421875l-.33203125-.056640625ZM53.556640625,131.3076171875c2.7646484375,6.787109375,9.671875,15.306640625,21.111328125,17.263671875,13.263671875,2.26953125,24.388671875-5.896484375,26.6572265625-19.16015625,2.7236328125-15.9169921875-7.16015625-25.970703125-21.6669921875-28.9638671875-1.4638671875-.4208984375-2.984375-.5107421875-4.478515625-.765625l1.7021484375-9.9482421875c.99609375.169921875,1.8544921875.1455078125,2.875.150390625,12.7451171875,1.3271484375,20.7197265625-7.3779296875,22.53515625-17.9892578125,2.013671875-11.7724609375-3.8125-20.619140625-13.59375-22.2919921875-13.431640625-2.2978515625-22.5478515625,8.087890625-26.462890625,30.9697265625l-8.6787109375,50.7353515625Z"/>
        <path class="cls-2" d="M150.3662109375,118.3310546875c-3.99609375,15.7666015625-7.2958984375,31.732421875-9.8984375,47.8974609375-.150390625.5703125-.3974609375,1.0673828125-.7421875,1.4951171875-.3359375.376953125-.7978515625.716796875-1.390625,1.0205078125-.5927734375.3046875-1.3466796875.431640625-2.259765625.384765625-.962890625-.056640625-1.9326171875-.1552734375-2.91015625-.294921875-.9794921875-.140625-1.869140625-.3876953125-2.673828125-.7412109375-.8056640625-.3544921875-1.4658203125-.845703125-1.978515625-1.474609375-.515625-.62890625-.755859375-1.509765625-.724609375-2.6396484375-.0087890625-.5966796875.1201171875-1.7373046875.380859375-3.4248046875.259765625-1.6865234375.6474609375-3.7041015625,1.1572265625-6.0517578125.51953125-2.400390625,1.1044921875-5.0185546875,1.7490234375-7.857421875.6474609375-2.837890625,1.298828125-5.689453125,1.951171875-8.5537109375.0693359375-.095703125.123046875-.2490234375.1591796875-.4599609375-.3056640625-.10546875-.669921875-.2763671875-1.0888671875-.5107421875-.419921875-.234375-.9580078125-.6513671875-1.611328125-1.25-.69921875-.66015625-1.4091796875-1.3369140625-2.1298828125-2.0283203125-.7197265625-.69140625-1.359375-1.380859375-1.9169921875-2.072265625-.55859375-.6904296875-.9765625-1.330078125-1.25390625-1.919921875-.28125-.5869140625-.298828125-1.10546875-.0595703125-1.5517578125s1.1298828125-1.3759765625,2.66796875-2.7890625c.7041015625-.6376953125,1.4794921875-1.37109375,2.32421875-2.2001953125.84375-.8291015625,1.720703125-1.6806640625,2.6279296875-2.552734375.8984375-.8212890625,1.7255859375-1.6259765625,2.482421875-2.4169921875.7578125-.7900390625,1.4638671875-1.5078125,2.115234375-2.154296875.7197265625-.7421875,1.412109375-1.4619140625,2.072265625-2.1611328125.283203125-.3837890625,1.0234375-.515625,2.220703125-.3916015625,1.1943359375.1240234375,2.443359375.41796875,3.744140625.8837890625,1.2998046875.4658203125,2.458984375,1.04296875,3.4755859375,1.7314453125,1.01953125.689453125,1.5224609375,1.3837890625,1.5107421875,2.083984375Z"/>
      </g>
      <g>
        <path class="cls-3" d="M51.2568359375,145.76171875l-1.900390625,11.109375c-1.6171875,9.4501953125-3.8046875,23.2412109375-3.3095703125,30.322265625l-13.595703125-2.326171875c-1.0830078125-5.646484375.34765625-17.005859375,2.3330078125-28.6123046875l13.076171875-76.435546875c3.9140625-22.880859375,11.779296875-31.9453125,19.1015625-36.8369140625,6.5458984375-4.3408203125,14.4365234375-6.5751953125,25.0478515625-4.759765625,16.4140625,2.8076171875,27.0302734375,16.5703125,24.080078125,33.8134765625-2.1552734375,12.6015625-10.9013671875,20.8330078125-19.1806640625,23.341796875l-.11328125.6630859375c12.1455078125,4.80859375,22.267578125,17.4619140625,19.119140625,35.8662109375-3.80078125,22.2177734375-22.78125,31.4287109375-40.5234375,28.3935546875-11.109375-1.900390625-18.7744140625-6.9658203125-23.802734375-14.482421875l-.33203125-.056640625ZM53.556640625,131.3076171875c2.7646484375,6.787109375,9.671875,15.306640625,21.111328125,17.263671875,13.263671875,2.26953125,24.388671875-5.896484375,26.6572265625-19.16015625,2.7236328125-15.9169921875-7.16015625-25.970703125-21.6669921875-28.9638671875-1.4638671875-.4208984375-2.984375-.5107421875-4.478515625-.765625l1.7021484375-9.9482421875c.99609375.169921875,1.8544921875.1455078125,2.875.150390625,12.7451171875,1.3271484375,20.7197265625-7.3779296875,22.53515625-17.9892578125,2.013671875-11.7724609375-3.8125-20.619140625-13.59375-22.2919921875-13.431640625-2.2978515625-22.5478515625,8.087890625-26.462890625,30.9697265625l-8.6787109375,50.7353515625Z"/>
        <path class="cls-3" d="M150.3662109375,118.3310546875c-3.99609375,15.7666015625-7.2958984375,31.732421875-9.8984375,47.8974609375-.150390625.5703125-.3974609375,1.0673828125-.7421875,1.4951171875-.3359375.376953125-.7978515625.716796875-1.390625,1.0205078125-.5927734375.3046875-1.3466796875.431640625-2.259765625.384765625-.962890625-.056640625-1.9326171875-.1552734375-2.91015625-.294921875-.9794921875-.140625-1.869140625-.3876953125-2.673828125-.7412109375-.8056640625-.3544921875-1.4658203125-.845703125-1.978515625-1.474609375-.515625-.62890625-.755859375-1.509765625-.724609375-2.6396484375-.0087890625-.5966796875.1201171875-1.7373046875.380859375-3.4248046875.259765625-1.6865234375.6474609375-3.7041015625,1.1572265625-6.0517578125.51953125-2.400390625,1.1044921875-5.0185546875,1.7490234375-7.857421875.6474609375-2.837890625,1.298828125-5.689453125,1.951171875-8.5537109375.0693359375-.095703125.123046875-.2490234375.1591796875-.4599609375-.3056640625-.10546875-.669921875-.2763671875-1.0888671875-.5107421875-.419921875-.234375-.9580078125-.6513671875-1.611328125-1.25-.69921875-.66015625-1.4091796875-1.3369140625-2.1298828125-2.0283203125-.7197265625-.69140625-1.359375-1.380859375-1.9169921875-2.072265625-.55859375-.6904296875-.9765625-1.330078125-1.25390625-1.919921875-.28125-.5869140625-.298828125-1.10546875-.0595703125-1.5517578125s1.1298828125-1.3759765625,2.66796875-2.7890625c.7041015625-.6376953125,1.4794921875-1.37109375,2.32421875-2.2001953125.84375-.8291015625,1.720703125-1.6806640625,2.6279296875-2.552734375.8984375-.8212890625,1.7255859375-1.6259765625,2.482421875-2.4169921875.7578125-.7900390625,1.4638671875-1.5078125,2.115234375-2.154296875.7197265625-.7421875,1.412109375-1.4619140625,2.072265625-2.1611328125.283203125-.3837890625,1.0234375-.515625,2.220703125-.3916015625,1.1943359375.1240234375,2.443359375.41796875,3.744140625.8837890625,1.2998046875.4658203125,2.458984375,1.04296875,3.4755859375,1.7314453125,1.01953125.689453125,1.5224609375,1.3837890625,1.5107421875,2.083984375Z"/>
      </g>
    </g>
  </a>
</svg>