<?xml version="1.0" encoding="UTF-8"?>
<svg xmlns="http://www.w3.org/2000/svg" xmlns:xlink="http://www.w3.org/1999/xlink" viewBox="0 0 280 280">
  <defs>
    <style>
      .cls-1 {
        stroke: #665451;
        stroke-width: 50px;
      }

      .cls-1, .cls-2 {
        fill: none;
        stroke-linecap: round;
        stroke-linejoin: round;
      }

      .cls-3 {
        fill: #fff;
      }

      .cls-4 {
        fill: #e11f26;
      }

      .cls-5 {
        fill: #ec1940;
      }

      .cls-2 {
        stroke: #998675;
        stroke-width: 2px;
      }
    </style>
  </defs>
  <g id="Content">
    <a xlink:href="https://www.notion.so/congruence/Population-proportion-d831e248b37e48ddb7319f608ed62e0a?pvs=4">
      <g>
        <path class="cls-1" d="M101.61328125,89.353515625c6.90625,2.9560546875,12.6611328125,6.900390625,17.2578125,11.8369140625s7.978515625,10.3828125,10.1455078125,16.337890625c2.16796875,5.958984375,3.1728515625,12.14453125,3.01953125,18.5654296875-.15625,6.419921875-1.419921875,12.6572265625-3.798828125,18.70703125-2.37890625,6.052734375-5.953125,11.681640625-10.71875,16.8896484375-4.767578125,5.2080078125-10.578125,9.5078125-17.4384765625,12.890625-7.1357421875,3.4013671875-15.1328125,6.0849609375-23.9951171875,8.0556640625-.095703125.8330078125-.1396484375,2.6962890625-.1259765625,5.5908203125-.01171875,2.482421875.1123046875,6.232421875.3701171875,11.25390625.2568359375,5.0205078125.611328125,11.9306640625,1.0615234375,20.7333984375-.046875,1.79296875-.375,3.4658203125-.984375,5.015625-.626953125,1.2724609375-1.5986328125,2.4931640625-2.9150390625,3.6650390625-1.3193359375,1.169921875-3.1416015625,1.9521484375-5.46484375,2.3486328125-2.4599609375.400390625-5.0302734375.705078125-7.708984375.912109375-2.6787109375.2060546875-5.16796875.05859375-7.46875-.4443359375-2.30078125-.501953125-4.251953125-1.541015625-5.8486328125-3.11328125-1.599609375-1.572265625-2.5517578125-4.0068359375-2.85546875-7.30078125-.3359375-3.8447265625-.6806640625-9.240234375-1.037109375-16.18359375-.35546875-6.947265625-.720703125-14.7197265625-1.0908203125-23.318359375-.3720703125-8.5966796875-.806640625-17.779296875-1.3076171875-27.546875-.5-9.763671875-1.0234375-19.287109375-1.5673828125-28.56640625-.5458984375-9.28125-1.1005859375-18.0751953125-1.662109375-26.3916015625-.5654296875-8.3134765625-1.1357421875-15.419921875-1.7138671875-21.3212890625-.1123046875-2.1982421875.548828125-4.0615234375,1.9892578125-5.5830078125,1.4384765625-1.521484375,3.517578125-2.6259765625,6.2421875-3.3193359375,1.9111328125-.3720703125,4.0947265625-.830078125,6.548828125-1.369140625,2.455078125-.5400390625,4.849609375-.8701171875,7.189453125-.9892578125,2.337890625-.1201171875,4.349609375.123046875,6.0361328125.7255859375,1.6845703125.6044921875,2.708984375,1.7939453125,3.078125,3.564453125.1708984375.68359375.271484375,1.2626953125.2958984375,1.7431640625.0244140625.4833984375.1142578125.92578125.2744140625,1.330078125,5.2041015625-.6796875,10.7255859375-.6162109375,16.5576171875.1865234375,5.8330078125.8056640625,11.712890625,2.501953125,17.6357421875,5.0947265625ZM73.73828125,162.9716796875c5.3359375-.8232421875,9.896484375-2.6435546875,13.6826171875-5.458984375,3.7861328125-2.8115234375,6.6494140625-6.0966796875,8.595703125-9.8515625,1.9443359375-3.751953125,2.94921875-7.6650390625,3.0185546875-11.7392578125.06640625-4.068359375-.9169921875-7.8125-2.953125-11.2236328125-2.037109375-3.4130859375-5.14453125-6.1494140625-9.3154296875-8.2109375-4.1748046875-2.0615234375-9.4970703125-2.994140625-15.966796875-2.8017578125.39453125,7.7041015625.8232421875,15.4384765625,1.29296875,23.2041015625.4638671875,7.767578125.9921875,16.05078125,1.58203125,24.84375l.03125.619140625.0322265625.619140625Z"/>
        <path class="cls-2" d="M101.61328125,89.353515625c6.90625,2.9560546875,12.6611328125,6.900390625,17.2578125,11.8369140625s7.978515625,10.3828125,10.1455078125,16.337890625c2.16796875,5.958984375,3.1728515625,12.14453125,3.01953125,18.5654296875-.15625,6.419921875-1.419921875,12.6572265625-3.798828125,18.70703125-2.37890625,6.052734375-5.953125,11.681640625-10.71875,16.8896484375-4.767578125,5.2080078125-10.578125,9.5078125-17.4384765625,12.890625-7.1357421875,3.4013671875-15.1328125,6.0849609375-23.9951171875,8.0556640625-.095703125.8330078125-.1396484375,2.6962890625-.1259765625,5.5908203125-.01171875,2.482421875.1123046875,6.232421875.3701171875,11.25390625.2568359375,5.0205078125.611328125,11.9306640625,1.0615234375,20.7333984375-.046875,1.79296875-.375,3.4658203125-.984375,5.015625-.626953125,1.2724609375-1.5986328125,2.4931640625-2.9150390625,3.6650390625-1.3193359375,1.169921875-3.1416015625,1.9521484375-5.46484375,2.3486328125-2.4599609375.400390625-5.0302734375.705078125-7.708984375.912109375-2.6787109375.2060546875-5.16796875.05859375-7.46875-.4443359375-2.30078125-.501953125-4.251953125-1.541015625-5.8486328125-3.11328125-1.599609375-1.572265625-2.5517578125-4.0068359375-2.85546875-7.30078125-.3359375-3.8447265625-.6806640625-9.240234375-1.037109375-16.18359375-.35546875-6.947265625-.720703125-14.7197265625-1.0908203125-23.318359375-.3720703125-8.5966796875-.806640625-17.779296875-1.3076171875-27.546875-.5-9.763671875-1.0234375-19.287109375-1.5673828125-28.56640625-.5458984375-9.28125-1.1005859375-18.0751953125-1.662109375-26.3916015625-.5654296875-8.3134765625-1.1357421875-15.419921875-1.7138671875-21.3212890625-.1123046875-2.1982421875.548828125-4.0615234375,1.9892578125-5.5830078125,1.4384765625-1.521484375,3.517578125-2.6259765625,6.2421875-3.3193359375,1.9111328125-.3720703125,4.0947265625-.830078125,6.548828125-1.369140625,2.455078125-.5400390625,4.849609375-.8701171875,7.189453125-.9892578125,2.337890625-.1201171875,4.349609375.123046875,6.0361328125.7255859375,1.6845703125.6044921875,2.708984375,1.7939453125,3.078125,3.564453125.1708984375.68359375.271484375,1.2626953125.2958984375,1.7431640625.0244140625.4833984375.1142578125.92578125.2744140625,1.330078125,5.2041015625-.6796875,10.7255859375-.6162109375,16.5576171875.1865234375,5.8330078125.8056640625,11.712890625,2.501953125,17.6357421875,5.0947265625ZM73.73828125,162.9716796875c5.3359375-.8232421875,9.896484375-2.6435546875,13.6826171875-5.458984375,3.7861328125-2.8115234375,6.6494140625-6.0966796875,8.595703125-9.8515625,1.9443359375-3.751953125,2.94921875-7.6650390625,3.0185546875-11.7392578125.06640625-4.068359375-.9169921875-7.8125-2.953125-11.2236328125-2.037109375-3.4130859375-5.14453125-6.1494140625-9.3154296875-8.2109375-4.1748046875-2.0615234375-9.4970703125-2.994140625-15.966796875-2.8017578125.39453125,7.7041015625.8232421875,15.4384765625,1.29296875,23.2041015625.4638671875,7.767578125.9921875,16.05078125,1.58203125,24.84375l.03125.619140625.0322265625.619140625Z"/>
        <path class="cls-3" d="M101.61328125,89.353515625c6.90625,2.9560546875,12.6611328125,6.900390625,17.2578125,11.8369140625s7.978515625,10.3828125,10.1455078125,16.337890625c2.16796875,5.958984375,3.1728515625,12.14453125,3.01953125,18.5654296875-.15625,6.419921875-1.419921875,12.6572265625-3.798828125,18.70703125-2.37890625,6.052734375-5.953125,11.681640625-10.71875,16.8896484375-4.767578125,5.2080078125-10.578125,9.5078125-17.4384765625,12.890625-7.1357421875,3.4013671875-15.1328125,6.0849609375-23.9951171875,8.0556640625-.095703125.8330078125-.1396484375,2.6962890625-.1259765625,5.5908203125-.01171875,2.482421875.1123046875,6.232421875.3701171875,11.25390625.2568359375,5.0205078125.611328125,11.9306640625,1.0615234375,20.7333984375-.046875,1.79296875-.375,3.4658203125-.984375,5.015625-.626953125,1.2724609375-1.5986328125,2.4931640625-2.9150390625,3.6650390625-1.3193359375,1.169921875-3.1416015625,1.9521484375-5.46484375,2.3486328125-2.4599609375.400390625-5.0302734375.705078125-7.708984375.912109375-2.6787109375.2060546875-5.16796875.05859375-7.46875-.4443359375-2.30078125-.501953125-4.251953125-1.541015625-5.8486328125-3.11328125-1.599609375-1.572265625-2.5517578125-4.0068359375-2.85546875-7.30078125-.3359375-3.8447265625-.6806640625-9.240234375-1.037109375-16.18359375-.35546875-6.947265625-.720703125-14.7197265625-1.0908203125-23.318359375-.3720703125-8.5966796875-.806640625-17.779296875-1.3076171875-27.546875-.5-9.763671875-1.0234375-19.287109375-1.5673828125-28.56640625-.5458984375-9.28125-1.1005859375-18.0751953125-1.662109375-26.3916015625-.5654296875-8.3134765625-1.1357421875-15.419921875-1.7138671875-21.3212890625-.1123046875-2.1982421875.548828125-4.0615234375,1.9892578125-5.5830078125,1.4384765625-1.521484375,3.517578125-2.6259765625,6.2421875-3.3193359375,1.9111328125-.3720703125,4.0947265625-.830078125,6.548828125-1.369140625,2.455078125-.5400390625,4.849609375-.8701171875,7.189453125-.9892578125,2.337890625-.1201171875,4.349609375.123046875,6.0361328125.7255859375,1.6845703125.6044921875,2.708984375,1.7939453125,3.078125,3.564453125.1708984375.68359375.271484375,1.2626953125.2958984375,1.7431640625.0244140625.4833984375.1142578125.92578125.2744140625,1.330078125,5.2041015625-.6796875,10.7255859375-.6162109375,16.5576171875.1865234375,5.8330078125.8056640625,11.712890625,2.501953125,17.6357421875,5.0947265625ZM73.73828125,162.9716796875c5.3359375-.8232421875,9.896484375-2.6435546875,13.6826171875-5.458984375,3.7861328125-2.8115234375,6.6494140625-6.0966796875,8.595703125-9.8515625,1.9443359375-3.751953125,2.94921875-7.6650390625,3.0185546875-11.7392578125.06640625-4.068359375-.9169921875-7.8125-2.953125-11.2236328125-2.037109375-3.4130859375-5.14453125-6.1494140625-9.3154296875-8.2109375-4.1748046875-2.0615234375-9.4970703125-2.994140625-15.966796875-2.8017578125.39453125,7.7041015625.8232421875,15.4384765625,1.29296875,23.2041015625.4638671875,7.767578125.9921875,16.05078125,1.58203125,24.84375l.03125.619140625.0322265625.619140625Z"/>
      </g>
    </a>
  </g>
  <g id="Arrows">
    <g>
      <g>
        <path class="cls-5" d="M216.239088667200122,177.011143461188112c9.647506713870825,0,18.182769775390625.61407470703125,26.093521118160425,1.8773193359375,2.437667846679688.3892822265625,5.081085205079944.5784912109375,8.081329345710401.5784912109375,2.584625244138806,0,5.178833007808862-.1383056640625,7.407546997068494-.26800537109375,2.849182128900793-.16571044921875,5.877426147460938-.242919921875,9.530044555660425-.242919921875,2.790802001949487,0,5.633453369139716.04583740234375,8.382537841800513.09014892578125,1.278045654289599.0206298828125,2.555831909179688.04119873046875,3.833175659179688.05755615234375,8.607666015621362.10992431640625,16.209320068359375,1.57861328125,23.239379882810681,4.48992919921875,13.0684661865198,5.4119873046875,21.741531372070312,15.2147216796875,25.778244018549231,29.13592529296875,2.879089355470569,9.92889404296875,3.709594726569776,20.678466796875,2.61358642578125,33.82952880859375-.037872314451306.45465087890625-.039764404291418.89862060546875-.041564941400793,1.32794189453125-.001922607420056.45135498046875-.003753662109375.87762451171875-.045989990239832,1.28741455078125-.898101806640625,8.7159423828125.101776123050513,17.4200439453125,1.068725585939319,25.8375244140625.195465087890625,1.70166015625.390960693361194,3.4033203125.571472167969659,5.105712890625.127838134770172,1.20587158203125.168823242190228,2.45648193359375.20849609375,3.6658935546875.057098388670966,1.74139404296875.116088867190228,3.54095458984375.42919921875,5.3289794921875v13.2296142578125c-.347808837889716,1.5208740234375-.4228515625,3.0526123046875-.495452880858466,4.5350341796875-.026824951170056.54779052734375-.053497314451306,1.09466552734375-.094207763670056,1.6385498046875-.482177734380457,6.444580078125-3.044708251951306,12.39947509765625-8.064422607420056,18.74041748046875-8.244659423829944,10.41455078125-19.430770874030713,15.663818359375-34.197494506839575,16.04779052734375-.439514160150793.01141357421875-.878860473630994.0172119140625-1.315567016601562.0172119140625-7.625320434570312,0-14.220581054689319-1.7264404296875-20.162689208978918-5.27801513671875-6.481842041021082-3.8741455078125-11.447128295900256-9.30035400390625-14.760757446290881-16.13360595703125-.79608154296875-1.6416015625-1.234603881840485-2.54583740234375-2.297241210939319-2.54608154296875-.7685546875-.00006103515625-1.339584350591394.544921875-2.376205444341394,1.5343017578125l-.076110839838293.0726318359375c-1.821868896489832,1.73828125-3.647079467771619,3.47314453125-5.472290039060681,5.20806884765625-7.718582153320312,7.33660888671875-15.699951171880457,14.92303466796875-23.292846679689319,22.65997314453125-1.186782836910425,1.20928955078125-2.346527099611194,2.4732666015625-3.46807861328125,3.6956787109375-1.527786254879175,1.66510009765625-3.10760498046875,3.38690185546875-4.756286621099207,4.96868896484375-4.7598724365198,4.56695556640625-9.583160400390625,7.76416015625-14.745468139641162,9.7742919921875-3.338058471679688,1.2998046875-6.819686889648438,1.43402099609375-10.505737304689319,1.5760498046875l-.18603515625.00787353515625-3.377685546880457-.00006103515625-3.4214935302698.00103759765625c-.440895080570044.01983642578125-.878974914548962.02960205078125-1.312286376949487.02960205078125-7.575714111329944,0-14.701583862310144-3.02203369140625-21.784790039069776-9.2388916015625-4.392814636230469-3.85552978515625-7.836921691890893-7.76263427734375-10.529159545891162-11.94464111328125-3.431709289558057-5.33074951171875-5.024971008308057-11.15118408203125-4.870582580570044-17.81707763671875l-.001182556148706-6.0845947265625c-.432762145999732-8.91302490234375,2.935287475578662-17.052490234375,10.010635375969287-24.19219970703125,4.93331146240962-4.978271484375,10.113632202150256-9.88677978515625,15.123390197761182-14.63372802734375,4.50994873046875-4.27337646484375,9.173477172849744-8.6922607421875,13.654029846189587-13.15869140625,2.377258300779431-2.36981201171875,4.84239196776889-4.75006103515625,7.226364135740369-7.05194091796875,1.079559326168237-1.04241943359375,2.159057617189319-2.08477783203125,3.234603881839575-3.12982177734375.90234375-.8768310546875,1.695922851557953-1.74737548828125,1.498260498039599-2.7569580078125-.198486328119543-1.01385498046875-1.235733032219287-1.50927734375-2.469253540039062-2.00823974609375-8.082794189451306-3.2691650390625-14.29479217529115-8.67144775390625-18.46347808837163-16.056640625-2.380683898929419-4.21771240234375-3.804626464849207-9.00274658203125-4.353179931638806-14.62860107421875-.824348449710669-8.4537353515625.548263549799231-16.679443359375,4.079681396478918-24.4486083984375,4.827789306640625-10.62139892578125,12.893165588380725-18.1539306640625,23.972023010250268-22.38836669921875,4.607742309570312-1.7611083984375,9.335510253909888-2.1168212890625,13.7581939697302-2.2388916015625,2.465881347659888-.06805419921875,4.869171142579944-.10260009765625,7.143096923829944-.10260009765625M216.239088667200122,176.011143461188112c-2.389114379879175,0-4.780014038089575.0369873046875-7.170715332029431.10296630859375-4.747711181640625.13104248046875-9.4990234375.5506591796875-14.087600708009631,2.304443359375-11.32763671875,4.3294677734375-19.530921936040613,11.92059326171875-24.525367736820044,22.90863037109375-3.598472595211206,7.916748046875-5.01639556884038,16.22412109375-4.1646041870099,24.95947265625.521316528320312,5.346435546875,1.850708007808862,10.36920166015625,4.477630615239832,15.0230712890625,4.361473083488818,7.726806640625,10.740997314449487,13.16815185546875,18.959365844719287,16.4921875,2.319473266599744.9381103515625,2.426956176759631,1.3934326171875.649078369140625,3.12091064453125-3.493072509760168,3.39410400390625-7.028106689452216,6.7596435546875-10.470077514650256,10.19073486328125-9.450416564939587,9.42071533203125-19.396682739250537,18.32623291015625-28.781761169429956,27.7967529296875-6.7236862182599,6.784912109375-10.781234741210938,15.01544189453125-10.29913330078125,24.94464111328125v6.03607177734375c-.153625488279431,6.62188720703125,1.397636413570581,12.71630859375,5.029739379880994,18.35833740234375,2.974235534669788,4.62005615234375,6.646316528320312,8.5880126953125,10.7103424072302,12.15496826171875,6.435569763179046,5.6484375,13.7030181884802,9.4873046875,22.444435119630725,9.4873046875.448150634758349,0,.901191711418505-.0101318359375,1.35717010497865-.03057861328125,1.125144958490637,0,2.250648498529699-.00006103515625,3.376625061029699-.00006103515625s2.252426147460938.00006103515625,3.379486083991651.00006103515625c3.746307373039599-.1448974609375,7.48759460448855-.2637939453125,11.0528411865198-1.652099609375,5.751174926759631-2.23944091796875,10.653305053709119-5.74212646484375,15.074935913089575-9.9844970703125,2.884750366209119-2.76776123046875,5.451538085930224-5.83831787109375,8.245742797849744-8.685546875,9.34521484375-9.52252197265625,19.090103149410425-18.63629150390625,28.741744995119006-27.844970703125.903274536130994-.86181640625,1.383209228511987-1.3304443359375,1.761856079101562-1.33038330078125.436889648430224.00006103515625.738906860349744.62408447265625,1.400375366209119,1.98809814453125,3.405151367189319,7.02203369140625,8.453079223630994,12.55035400390625,15.144729614259631,16.54986572265625,6.38957214355105,3.81903076171875,13.334060668941675,5.419677734375,20.675720214840112,5.419677734375.445343017579944,0,.893356323240369-.00592041015625,1.341567993160425-.017578125,14.059722900390625-.36553955078125,26.058792114259631-5.1884765625,34.955551147460938-16.4267578125,4.466857910159888-5.64251708984375,7.723114013679151-11.87579345703125,8.277587890628638-19.2864990234375.152496337889716-2.038330078125.112701416021082-4.11798095703125.592437744139716-6.133056640625v-13.43280029296875c-.536254882809772-2.9808349609375-.325469970698578-6.01458740234375-.643280029299603-9.01220703125-1.083099365228918-10.21563720703125-2.704559326170056-20.4029541015625-1.639862060539599-30.7353515625.089721679680224-.8707275390625.016235351560681-1.757080078125.08935546875-2.63482666015625.961791992180224-11.54083251953125.586029052730737-23.0322265625-2.649688720710401-34.1910400390625-4.055786132808862-13.98687744140625-12.746917724609375-24.1453857421875-26.356094360349744-29.78131103515625-7.546844482420056-3.1253662109375-15.480606079100653-4.462158203125-23.609207153320312-4.56597900390625-4.073989868158606-.05206298828125-8.152923583978918-.1478271484375-12.228469848629175-.14776611328125-3.199874877929688,0-6.397918701170056.05902099609375-9.588134765630457.24462890625-2.460159301750537.14312744140625-4.908111572260168.26629638671875-7.349487304680224.26629638671875-2.64697265625,0-5.286163330079944-.144775390625-7.923629760749463-.56597900390625-8.710098266599744-1.390869140625-17.47247314453125-1.88983154296875-26.251205444330481-1.88983154296875h0Z"/>
        <path class="cls-5" d="M215.418776167200122,206.144383207281862c6.575668334960938,0,13.255661010740369,1.05926513671875,19.000717163080481,2.0521240234375,5.113983154300513.88372802734375,10.489562988290345,1.29534912109375,16.917312622070312,1.29534912109375,4.036087036140088,0,8.00398254394895-.16802978515625,11.009902954108838-.3143310546875,3.233718872070312-.157470703125,6.681381225580481-.31121826171875,10.153396606441675-.31121826171875,4.914291381839575,0,8.987365722659888.30816650390625,12.818206787109375.96990966796875,10.220581054689319,1.76544189453125,14.563751220699487,6.50469970703125,15.490661621090112,16.9033203125.747955322269263,8.39080810546875.770416259769263,17.2764892578125.066741943359375,26.4100341796875-.737182617180224,9.56866455078125.677429199220569,19.03558349609375,2.045501708989832,28.19085693359375.161148071290881,1.07861328125.322357177730737,2.15740966796875.480255126951306,3.2366943359375.869674682619006,5.94488525390625,1.502197265628638,12.2994384765625.252395629879175,18.48895263671875-1.188980102529968,5.8883056640625-7.102142333980737,10.50079345703125-13.461853027341022,10.50079345703125-1.778366088869916,0-3.471923828118634-.3604736328125-5.033645629878265-1.07147216796875-3.461761474611194-1.57586669921875-4.482284545900256-4.69110107421875-4.949539184570312-8.8837890625-.599777221679688-5.3818359375-.293594360351562-10.883056640625.002502441398974-16.20306396484375.169296264650256-3.0418701171875.344375610360657-6.18731689453125.35127258301145-9.29620361328125.016128540038153-7.27154541015625-.326522827152075-15.7420654296875-4.623413085941138-24.25189208984375l-.654281616210938-1.2957763671875-.977600097648974,1.07305908203125c-.678207397460938.74444580078125-1.346939086919519,1.49835205078125-2.015686035160797,2.2523193359375-1.415496826169147,1.595947265625-2.879196166989459,3.2462158203125-4.404327392579034,4.76068115234375-9.1064453125,9.04266357421875-17.379470825189856,17.17999267578125-25.291793823240369,24.876953125-8.338317871090112,8.111328125-16.836853027340112,16.338134765625-25.055572509769263,24.2940673828125-5.708877563471106,5.5263671875-11.41778564453125,11.052734375-17.120361328121362,16.5855712890625-1.470062255859375,1.42633056640625-2.818084716798694,2.98468017578125-4.121719360349744,4.49169921875-1.765426635740369,2.0408935546875-3.590957641599744,4.1512451171875-5.69294738769895,5.88555908203125-2.562408447260168,2.11431884765625-4.751708984369543,3.09906005859375-6.889846801759631,3.09906005859375-2.087112426750537,0-4.209724426260436-.9337158203125-6.679962158201306-2.9383544921875-.696205139160156-.56494140625-1.428939819330481-1.17755126953125-2.070884704589844-1.82891845703125-5.559120178219018-5.64044189453125-5.597717285150793-10.6097412109375-.125175476068762-16.112548828125,1.767913818359375-1.77764892578125,3.729232788078662-3.45147705078125,5.6259765625-5.07025146484375,1.931106567379175-1.6480712890625,3.927932739259631-3.35223388671875,5.756484985349744-5.1920166015625,14.893676757808862-14.9854736328125,29.863250732420056-29.3507080078125,45.166320800779431-43.97198486328125,6.083419799810144-5.8123779296875,12.2906341552698-11.70037841796875,18.293487548829944-17.39453125,3.229049682619006-3.06298828125,6.458099365228918-6.12591552734375,9.684066772459119-9.19219970703125,1.2840728759802-1.220458984375,1.991394042970569-1.89276123046875,1.777526855470569-2.82769775390625-.215301513670056-.9410400390625-1.165893554689319-1.24578857421875-2.891571044920056-1.79888916015625-9.333816528320312-2.99169921875-18.852996826179151-3.3753662109375-26.103271484378638-3.3753662109375-1.3402252197302,0-2.75382995605105.01458740234375-4.321609497070312.04461669921875-1.684860229490369.03228759765625-3.394882202150256.0877685546875-5.048599243160425.14141845703125-2.568771362310144.0833740234375-5.225021362310144.16961669921875-7.828079223640088.16961669921875-3.746658325189856,0-6.832641601560681-.1778564453125-9.711761474609375-.559814453125-1.794418334960938-.23797607421875-3.31591796875-.71148681640625-4.651428222650793-1.44744873046875-2.199569702150256-1.21221923828125-3.27734375-2.90386962890625-3.391799926759631-5.3238525390625-.248764038089575-5.25970458984375.984054565429688-9.38140869140625,3.664215087890625-12.25067138671875,2.857238769529431-3.058837890625,7.324203491209119-4.6728515625,13.276779174808325-4.797119140625.427703857420056-.0089111328125.85588073730105-.01324462890625,1.283004760740369-.01324462890625M215.418776167200122,205.144383207281862c-.434097290039062,0-.869232177739832.00439453125-1.303878784179688.01348876953125-12.201583862310144.25469970703125-18.459793090820312,6.66070556640625-17.919006347660797,18.09478759765625.133972167971478,2.83258056640625,1.488265991210028,4.81884765625,3.908020019530341,6.15240478515625,1.55792236328125.85858154296875,3.252532958989832,1.33087158203125,5.002624511720569,1.56298828125,3.2782135009802.43487548828125,6.559555053709119.5684814453125,9.843231201170056.5684814453125,4.29695129394895,0,8.597473144540345-.22894287109375,12.895828247070312-.31121826171875,1.4354400634802-.0274658203125,2.869827270509631-.04443359375,4.302459716800513-.04443359375,8.719787597659888,0,17.374221801759631.62762451171875,25.798049926759631,3.32763671875,2.840042114259631.91033935546875,2.838623046869543.94561767578125.730331420900256,2.94952392578125-9.325561523441138,8.86383056640625-18.677001953130457,17.70050048828125-27.979446411140088,26.5885009765625-15.198944091791418,14.52178955078125-30.363815307609912,29.0777587890625-45.184783935541418,43.99005126953125-3.595718383789062,3.61785888671875-7.785278320308862,6.64532470703125-11.382217407228381,10.2620849609375-5.928359985351562,5.96112060546875-5.774635314941406,11.5367431640625.122001647949219,17.5196533203125.670959472658978.6807861328125,1.4095611572302,1.3001708984375,2.152961730960669,1.9034423828125,2.601409912109375,2.111083984375,4.95654296875,3.161865234375,7.310104370109912,3.161865234375,2.421737670898438,0,4.841796875-1.11273193359375,7.526290893557416-3.32769775390625,3.726303100592304-3.0745849609375,6.436843872071222-7.09552001953125,9.874557495121735-10.430908203125,14.052124023430224-13.6339111328125,28.142623901359912-27.22833251953125,42.176879882810681-40.88055419921875,8.478683471679688-8.2479248046875,16.905670166010168-16.54949951171875,25.299133300778522-24.8841552734375,2.258148193360284-2.24237060546875,4.308731079100653-4.6937255859375,6.454605102539972-7.04913330078125,4.039688110351562,8.00042724609375,4.533645629880994,15.8782958984375,4.516082763671875,23.7989501953125-.018951416011987,8.53741455078125-1.300750732421875,17.059814453125-.347610473630994,25.61224365234375.448028564449487,4.02020263671875,1.432250976560681,7.81817626953125,5.529052734369543,9.68316650390625,1.743423461921338.793701171875,3.597412109380457,1.16131591796875,5.44795227051145,1.16131591796875,6.571502685548694,0,13.09619140625-4.637451171875,14.442092895509631-11.3028564453125,1.267074584959119-6.275146484375.672973632808862-12.5692138671875-.2431640625-18.8316650390625-1.513732910161707-10.34771728515625-3.331573486329944-20.64776611328125-2.518173217771619-31.2059326171875.681549072261987-8.846435546875.722320556640625-17.7127685546875-.067718505859375-26.57568359375-.965911865239832-10.8360595703125-5.55622863769895-15.9412841796875-16.316513061530713-17.7999267578125-4.314483642578125-.7452392578125-8.648147582998718-.9844970703125-12.988418579097925-.9844970703125-3.399291992191138,0-6.80303955078125.1468505859375-10.2020416259802.3123779296875-3.660766601560681.17828369140625-7.312927246090112.31317138671875-10.961257934570312.31317138671875-5.590316772460938,0-11.170181274410425-.3170166015625-16.747009277340112-1.28076171875-6.333282470699487-1.094482421875-12.720275878909888-2.06671142578125-19.171020507810681-2.06671142578125h0Z"/>
      </g>
      <path class="cls-4" d="M279.731001509000635,279.730992094000612c-69.716348767389718.440577951147134-210.016401672541178,1.330698934176326-279.731265606809757,1.531175585940218.000365795988728.000257519553998-1.526859698360568.007093457006704-1.526859698360568.007093457006704l-.004287719739295-1.538330078103172c-.064482580370168-34.904889664445363-.304360219181035-104.981273361630883-.285200212410928-139.865683708811048C-1.81677375955951,139.865513578375612-1.997685777379957.000096097905043-1.997685777379957.000096097905043l-.002586364749732-2.00030517578125c47.593461552100052.061588990722157,165.706460777140819.208737488239422,211.798461936910826.271000175613153,17.377564136239016.057227081453675,52.544893820810103.067277353244208,69.932688836199304.190932785619225.000031325149394-.00014096895211,1.545471999199435.005901511358388,1.545471999199435.005901511358388l-.0069122315399,1.532470703190484c-.324877765749989,69.719190645657363-.970720794688532,210.042533958780041-1.538436889639343,279.730895996095569h0ZM279.731001509000635,279.730992094000612c-.578864574870749-69.742892426609615-1.234180971319802-210.023048388049574-1.538471455811305-279.73124924730655.000049824950111.000353251210981,1.538379903071473,1.538683329335981,1.538379903071473,1.538683329335981-38.949254562850911.064972187628882-100.445701974080293.316593994770301-139.865435554449505.281565584895361C139.865500105190222,1.820286527583448.000101698199614,1.997654691662319.000101698199614,1.997654691662319L1.997683180141394.000096097905043c.100235052059361,79.280994930932138-.354772183511159,201.347947800108159-.465795694191911,279.730682550880374-.000474752498121.000152409946168-1.53178960250807-1.53115862501727-1.53178960250807-1.53115862501727,69.708466019599655.186233415071911,210.024447781968775,1.073926737230067,279.730903625559222,1.531372070232464h0Z"/>
    </g>
  </g>
</svg>