<?xml version="1.0" encoding="UTF-8"?>
<svg id="Content" xmlns="http://www.w3.org/2000/svg" viewBox="0 0 280 280">
  <defs>
    <style>
      .cls-1 {
        stroke: #665451;
        stroke-width: 50px;
      }

      .cls-1, .cls-2 {
        fill: none;
        stroke-linecap: round;
        stroke-linejoin: round;
      }

      .cls-3 {
        fill: #fff;
      }

      .cls-2 {
        stroke: #998675;
        stroke-width: 2px;
      }
    </style>
  </defs>
  <path class="cls-1" d="M158.062420283749816,140.545923863319331c-7.575516536699979,2.388979648365421-13.644953533789703,3.332929468360817-18.208486000869925,2.828711082966038-4.562252995289782-.500092219230282-7.85494850790019-2.621962323431944-9.876982075649721-6.36462252345882-2.023050525150211-3.742078800660238-3.157086525440718-9.155547818958439-3.400453273489802-16.24836967048941l-.059276400950694-3.170606170844621c.665043481210887-2.733333305714041,1.336732216870587-5.563907957654919,2.016088490539914-8.501618888800294,2.617054362320232-11.330217310705848,5.392551633370203-24.56130001429301,8.328817410600095-39.689180281126028-1.933770400219146-2.159872057369284-4.045334982709392-4.083163721279561-6.329404782589336-5.769120548700812-2.287266513420036-1.686827943509343-4.826501186160385-3.20639574323468-7.623226329250429-4.563642344901382l-5.66286395977022,4.170154212250054c-.694146009989709,6.539610099005586-1.186142700359596,13.975660108193551-1.477327879420045,22.302977735733293-.293102420819196,8.330572677612508-.24928489272952,17.24575002372876.131510920789879,26.74657816402032-3.332613468179261,10.767776591168513-7.276636149879778,19.302989878699009-11.836515062159378,25.601165643172862-4.561766985770191,6.301953877387859-10.15791023995007,9.636230086187425-16.786162501600302,10.005850330360772-4.069428866449925.226929095621017-7.590975545779656-1.237860703904516-10.562839469280334-4.399716699992496-2.832019592189681-3.006344754343445-5.547328951319287-8.313795636944633-8.151451211089807-15.86144302971843l3.866386965970378-58.948549416025344-12.558084219370357-5.648448042013115-3.16453015963998.17646799852082-4.356441722959971,3.190639153734082c-.720815120249426,8.808804810665606-.966022524689834,16.605720994833973-.736434992869363,23.394991391720396.226449154799411,6.789445406477171,1.218818293389631,13.727166711836617,2.974665145279687,20.80700383509793,1.079958575310229,4.359038740201868,2.506019707169798,9.232124053653024,4.272478782920189,14.611047851909461l.665729269159783,94.286221348045729,3.756110167450061,2.283866882784423c3.581750147629464-.80522555537209,7.088179246829895-1.606250880697189,10.521554558529715-2.400054272015041,3.431108050779585-.796825095278109,6.109993406410467-1.552752352281459,8.036947749560568-2.262551142650409-3.51141920154987-11.444946671390426-6.5581364128102-22.685993200766461-9.136142140670927-33.726511311257127-2.582423576659494-11.044469267066233-4.429149423089257-22.50144433229616-5.544945407259547-34.381153106302008l.063430840570618-.970146201367243,1.204084863599746-.68824608214527c5.173061492129818,8.781308261945924,12.349103072559956,15.487533939529385,21.527774722109825,20.112400278710993,4.068382740770176-.226870759091071,7.751559896570143-1.264418141347051,11.049706476979736-3.109503769748699,3.298088243880557-1.84613175407685,6.375242805979724-4.925555884916321,9.234252044149798-9.244724156140364,2.855058081590869-4.314750422421639,5.66777371587068-10.17917084882356,8.427918992220839-17.588493411234595l1.11294380875006.481253260062658c1.251443608609407,9.551246558772618,3.841834803829443,16.485707487910986,7.781969991599908,20.789991428970097,4.346702386109428,4.745306226292087,10.661694285289741,6.887528086192106,18.95119411503947,6.425269434858819,3.765427900009854-2.931015831539298,6.675073244859959-6.342147018939613,8.724576522259667-10.2362985931004,2.050724412670206-3.891071533671493,3.402324893140758-8.125130741746034,4.054046998360718-12.696888659329488l-1.230621247550516-1.744701711557354Z"/>
  <path class="cls-2" d="M158.062420283749816,140.545923863319331c-7.575516536699979,2.388979648365421-13.644953533789703,3.332929468360817-18.208486000869925,2.828711082966038-4.562252995289782-.500092219230282-7.85494850790019-2.621962323431944-9.876982075649721-6.36462252345882-2.023050525150211-3.742078800660238-3.157086525440718-9.155547818958439-3.400453273489802-16.24836967048941l-.059276400950694-3.170606170844621c.665043481210887-2.733333305714041,1.336732216870587-5.563907957654919,2.016088490539914-8.501618888800294,2.617054362320232-11.330217310705848,5.392551633370203-24.56130001429301,8.328817410600095-39.689180281126028-1.933770400219146-2.159872057369284-4.045334982709392-4.083163721279561-6.329404782589336-5.769120548700812-2.287266513420036-1.686827943509343-4.826501186160385-3.20639574323468-7.623226329250429-4.563642344901382l-5.66286395977022,4.170154212250054c-.694146009989709,6.539610099005586-1.186142700359596,13.975660108193551-1.477327879420045,22.302977735733293-.293102420819196,8.330572677612508-.24928489272952,17.24575002372876.131510920789879,26.74657816402032-3.332613468179261,10.767776591168513-7.276636149879778,19.302989878699009-11.836515062159378,25.601165643172862-4.561766985770191,6.301953877387859-10.15791023995007,9.636230086187425-16.786162501600302,10.005850330360772-4.069428866449925.226929095621017-7.590975545779656-1.237860703904516-10.562839469280334-4.399716699992496-2.832019592189681-3.006344754343445-5.547328951319287-8.313795636944633-8.151451211089807-15.86144302971843l3.866386965970378-58.948549416025344-12.558084219370357-5.648448042013115-3.16453015963998.17646799852082-4.356441722959971,3.190639153734082c-.720815120249426,8.808804810665606-.966022524689834,16.605720994833973-.736434992869363,23.394991391720396.226449154799411,6.789445406477171,1.218818293389631,13.727166711836617,2.974665145279687,20.80700383509793,1.079958575310229,4.359038740201868,2.506019707169798,9.232124053653024,4.272478782920189,14.611047851909461l.665729269159783,94.286221348045729,3.756110167450061,2.283866882784423c3.581750147629464-.80522555537209,7.088179246829895-1.606250880697189,10.521554558529715-2.400054272015041,3.431108050779585-.796825095278109,6.109993406410467-1.552752352281459,8.036947749560568-2.262551142650409-3.51141920154987-11.444946671390426-6.5581364128102-22.685993200766461-9.136142140670927-33.726511311257127-2.582423576659494-11.044469267066233-4.429149423089257-22.50144433229616-5.544945407259547-34.381153106302008l.063430840570618-.970146201367243,1.204084863599746-.68824608214527c5.173061492129818,8.781308261945924,12.349103072559956,15.487533939529385,21.527774722109825,20.112400278710993,4.068382740770176-.226870759091071,7.751559896570143-1.264418141347051,11.049706476979736-3.109503769748699,3.298088243880557-1.84613175407685,6.375242805979724-4.925555884916321,9.234252044149798-9.244724156140364,2.855058081590869-4.314750422421639,5.66777371587068-10.17917084882356,8.427918992220839-17.588493411234595l1.11294380875006.481253260062658c1.251443608609407,9.551246558772618,3.841834803829443,16.485707487910986,7.781969991599908,20.789991428970097,4.346702386109428,4.745306226292087,10.661694285289741,6.887528086192106,18.95119411503947,6.425269434858819,3.765427900009854-2.931015831539298,6.675073244859959-6.342147018939613,8.724576522259667-10.2362985931004,2.050724412670206-3.891071533671493,3.402324893140758-8.125130741746034,4.054046998360718-12.696888659329488l-1.230621247550516-1.744701711557354Z"/>
  <path class="cls-3" d="M158.062420283749816,140.545923863319331c-7.575516536699979,2.388979648365421-13.644953533789703,3.332929468360817-18.208486000869925,2.828711082966038-4.562252995289782-.500092219230282-7.85494850790019-2.621962323431944-9.876982075649721-6.36462252345882-2.023050525150211-3.742078800660238-3.157086525440718-9.155547818958439-3.400453273489802-16.24836967048941l-.059276400950694-3.170606170844621c.665043481210887-2.733333305714041,1.336732216870587-5.563907957654919,2.016088490539914-8.501618888800294,2.617054362320232-11.330217310705848,5.392551633370203-24.56130001429301,8.328817410600095-39.689180281126028-1.933770400219146-2.159872057369284-4.045334982709392-4.083163721279561-6.329404782589336-5.769120548700812-2.287266513420036-1.686827943509343-4.826501186160385-3.20639574323468-7.623226329250429-4.563642344901382l-5.66286395977022,4.170154212250054c-.694146009989709,6.539610099005586-1.186142700359596,13.975660108193551-1.477327879420045,22.302977735733293-.293102420819196,8.330572677612508-.24928489272952,17.24575002372876.131510920789879,26.74657816402032-3.332613468179261,10.767776591168513-7.276636149879778,19.302989878699009-11.836515062159378,25.601165643172862-4.561766985770191,6.301953877387859-10.15791023995007,9.636230086187425-16.786162501600302,10.005850330360772-4.069428866449925.226929095621017-7.590975545779656-1.237860703904516-10.562839469280334-4.399716699992496-2.832019592189681-3.006344754343445-5.547328951319287-8.313795636944633-8.151451211089807-15.86144302971843l3.866386965970378-58.948549416025344-12.558084219370357-5.648448042013115-3.16453015963998.17646799852082-4.356441722959971,3.190639153734082c-.720815120249426,8.808804810665606-.966022524689834,16.605720994833973-.736434992869363,23.394991391720396.226449154799411,6.789445406477171,1.218818293389631,13.727166711836617,2.974665145279687,20.80700383509793,1.079958575310229,4.359038740201868,2.506019707169798,9.232124053653024,4.272478782920189,14.611047851909461l.665729269159783,94.286221348045729,3.756110167450061,2.283866882784423c3.581750147629464-.80522555537209,7.088179246829895-1.606250880697189,10.521554558529715-2.400054272015041,3.431108050779585-.796825095278109,6.109993406410467-1.552752352281459,8.036947749560568-2.262551142650409-3.51141920154987-11.444946671390426-6.5581364128102-22.685993200766461-9.136142140670927-33.726511311257127-2.582423576659494-11.044469267066233-4.429149423089257-22.50144433229616-5.544945407259547-34.381153106302008l.063430840570618-.970146201367243,1.204084863599746-.68824608214527c5.173061492129818,8.781308261945924,12.349103072559956,15.487533939529385,21.527774722109825,20.112400278710993,4.068382740770176-.226870759091071,7.751559896570143-1.264418141347051,11.049706476979736-3.109503769748699,3.298088243880557-1.84613175407685,6.375242805979724-4.925555884916321,9.234252044149798-9.244724156140364,2.855058081590869-4.314750422421639,5.66777371587068-10.17917084882356,8.427918992220839-17.588493411234595l1.11294380875006.481253260062658c1.251443608609407,9.551246558772618,3.841834803829443,16.485707487910986,7.781969991599908,20.789991428970097,4.346702386109428,4.745306226292087,10.661694285289741,6.887528086192106,18.95119411503947,6.425269434858819,3.765427900009854-2.931015831539298,6.675073244859959-6.342147018939613,8.724576522259667-10.2362985931004,2.050724412670206-3.891071533671493,3.402324893140758-8.125130741746034,4.054046998360718-12.696888659329488l-1.230621247550516-1.744701711557354Z"/>
</svg>