<?xml version="1.0" encoding="UTF-8"?>
<svg id="Content" xmlns="http://www.w3.org/2000/svg" xmlns:xlink="http://www.w3.org/1999/xlink" viewBox="0 0 280 280">
  <defs>
    <style>
      .cls-1 {
        stroke: #665451;
        stroke-width: 50px;
      }

      .cls-1, .cls-2 {
        fill: none;
        stroke-linecap: round;
        stroke-linejoin: round;
      }

      .cls-3 {
        fill: #fff;
      }

      .cls-2 {
        stroke: #998675;
        stroke-width: 2px;
      }
    </style>
  </defs>
  <a xlink:href="https://www.notion.so/congruence/Population-variance-d9ad822205a8484cbbc44a5850c79123?pvs=4">
    <g>
      <g>
        <path d="M190.964111328125,100.08544921875c.38232421875.07080078125.650146484375.3056640625.803955078125.70166015625.15185546875.3974609375.25390625.8408203125.3046875,1.3310546875.049560546875.49072265625.04248046875.98486328125-.021240234375,1.482421875-.064208984375.49755859375-.116455078125.8564453125-.156982421875,1.0751953125-.18310546875.9853515625-.40234375,2.00634765625-.65478515625,3.06396484375-.253662109375,1.056640625-.54638671875,2.0224609375-.87841796875,2.89453125-.33203125.873046875-.72119140625,1.59423828125-1.1669921875,2.16162109375-.44482421875.5673828125-.9794921875.8505859375-1.6015625.84912109375-.294677734375.0576171875-.8876953125-.02490234375-1.78076171875-.24658203125-.892578125-.22314453125-1.958984375-.505859375-3.197509765625-.84912109375-1.29345703125-.35498046875-2.685302734375-.71240234375-4.175048828125-1.07421875-1.49169921875-.3623046875-3.02392578125-.71923828125-4.60107421875-1.068359375-1.57861328125-.3505859375-3.105224609375-.66259765625-4.583251953125-.9375-1.4775390625-.27490234375-2.796630859375-.4921875-3.956787109375-.65087890625-1.0048828125-.07421875-2.23388671875-.24560546875-3.68359375-.515625-1.451171875-.26953125-2.68212890625-.58349609375-3.690673828125-.94091796875-.790283203125-.31689453125-1.300537109375-1.07666015625-1.52978515625-2.2802734375-.229736328125-1.203125-.2421875-2.5791015625-.0390625-4.12744140625.202880859375-1.54736328125.623779296875-3.12548828125,1.262939453125-4.7353515625.638671875-1.607421875,1.40380859375-2.97998046875,2.295166015625-4.1171875,1.375244140625-1.61376953125,2.855712890625-3.02294921875,4.439453125-4.2294921875,1.583251953125-1.205078125,3.21044921875-2.3466796875,4.884521484375-3.423828125,1.671875-1.07568359375,3.375244140625-2.1611328125,5.107421875-3.2548828125,1.732421875-1.0927734375,3.45703125-2.30126953125,5.1767578125-3.62451171875.7236328125-.544921875,1.5859375-1.375,2.587158203125-2.49169921875.999755859375-1.11669921875,1.80908203125-2.2685546875,2.426513671875-3.45703125.79833984375-1.55029296875,1.00390625-2.814453125.62060546875-3.7919921875-.385009765625-.9765625-1.0654296875-1.65576171875-2.04248046875-2.03662109375-.9775390625-.37939453125-2.111572265625-.44873046875-3.401611328125-.20751953125-1.291748046875.24169921875-2.471923828125.80126953125-3.5400390625,1.67724609375-.950439453125.8427734375-1.72509765625,1.88818359375-2.324462890625,3.1357421875-.601318359375,1.24755859375-.78173828125,2.60205078125-.54345703125,4.06103515625.05810546875.29541015625.12255859375.6328125.1943359375,1.01318359375.0693359375.38232421875.1025390625.74169921875.0966796875,1.080078125-.08935546875.77734375-.740234375,1.4638671875-1.955078125,2.0576171875-1.21484375.59619140625-2.5673828125.93896484375-4.056396484375,1.029296875-1.49072265625.091796875-2.891845703125-.140625-4.203369140625-.69677734375-1.312744140625-.5546875-2.11083984375-1.59521484375-2.392333984375-3.12109375-.236572265625-2.0830078125-.132080078125-4.0869140625.31201171875-6.015625.443603515625-1.92724609375,1.122802734375-3.7548828125,2.038818359375-5.48291015625.916015625-1.72607421875,2.060302734375-3.3115234375,3.43310546875-4.7548828125,1.372802734375-1.4443359375,2.88720703125-2.66259765625,4.545166015625-3.6572265625,1.7861328125-1.0830078125,3.755615234375-1.85009765625,5.907470703125-2.29931640625,2.150146484375-.44921875,4.30810546875-.55810546875,6.47412109375-.32470703125,2.1650390625.232421875,4.22314453125.814453125,6.17431640625,1.7421875,1.951171875.93017578125,3.615234375,2.25927734375,4.99267578125,3.9873046875,1.110107421875,1.33984375,1.91796875,2.77783203125,2.425537109375,4.31640625.506103515625,1.5380859375.778564453125,3.11767578125.817626953125,4.73974609375.037841796875,1.62109375-.136962890625,3.2451171875-.5244140625,4.87158203125-.387451171875,1.626953125-.92626953125,3.22607421875-1.61474609375,4.796875-1.050537109375,2.29736328125-2.37353515625,4.3154296875-3.97216796875,6.05712890625-1.597900390625,1.7421875-3.32958984375,3.3603515625-5.19189453125,4.853515625-1.8642578125,1.494140625-3.8134765625,2.916015625-5.8486328125,4.26416015625-2.0341796875,1.349609375-4.035888671875,2.74658203125-6.003662109375,4.19287109375,5.34912109375.76904296875,10.6865234375,1.76171875,16.01123046875,2.97802734375Z"/>
        <path d="M104.555795326679799,113.469818917978046c-.036918578869518.212041550266804-.148067576269568.772129768891318.048609425530231.85955263469441,15.36969794496963,6.831825930521518,24.179814853669996,21.591362943749118,25.237069859130315,40.286632748329794.826360234149433,14.612394789787686-2.922619773880797,26.465478664033981-11.2469400241107,35.559251622734337-8.324320250219898,9.093772958701265-19.757542028639364,14.051852558466635-34.297628480680032,14.874123611086361-14.040038651509349.793992346530104-25.500468946659566-3.012441119197319-34.383442928209661-11.421222063559071-8.882858793350351-8.406744089775202-13.729405132259672-19.773733708634609-14.539639016699766-34.100968856583677-.814207877770059-14.397506631111355,1.597101620819558-26.084012647464988,7.23273728617005-35.062515736828573,5.636711686729541-8.977542256177003,13.024694177779566-15.234273570499681,22.167060349100211-18.769348297996657,9.140329316729549-3.534959539282681,20.588951907239789-5.691429901443371,34.341794062319423-6.469180710058026l38.470838877979986-2.175603101378329c2.66705214483045-.150827148226199,4.951394656600314,1.888976239760268,5.102221804820147,4.556028384594356l.274090635730317,4.846700521029561c.150827148219832,2.667052144835907-1.888976239770273,4.951394656600314-4.556028384600722,5.102221804827423,0,0-33.100386076929681-2.39534398008982-33.850743466479798,1.914327439108092ZM94.218918109009792,117.978560774246034c-2.132427631659993-2.190899793633434-5.187450945260025-3.258435750602985-8.217550507270062-2.851267291263866-21.823372268650019,2.932507227033057-31.996680264349379,17.425845458378717-30.523348247759714,43.478537968415367.708925851839922,12.535821540804136,3.584366035040148,22.109350687332153,8.630509446999895,28.722393917736554,5.044106557370469,6.613158418617786,11.685189019720383,9.686798265853213,19.923247387049742,9.22091954170628,18.695269804580676-1.057255005456682,27.315865508669958-14.441999432416196,25.861556735840168-40.158306990048914-.892952766739654-15.789939807116752-6.117730077039596-28.593543648113155-15.674414814860029-38.412277146545421Z"/>
      </g>
      <g>
        <path class="cls-1" d="M190.964111328125,100.08544921875c.38232421875.07080078125.650146484375.3056640625.803955078125.70166015625.15185546875.3974609375.25390625.8408203125.3046875,1.3310546875.049560546875.49072265625.04248046875.98486328125-.021240234375,1.482421875-.064208984375.49755859375-.116455078125.8564453125-.156982421875,1.0751953125-.18310546875.9853515625-.40234375,2.00634765625-.65478515625,3.06396484375-.253662109375,1.056640625-.54638671875,2.0224609375-.87841796875,2.89453125-.33203125.873046875-.72119140625,1.59423828125-1.1669921875,2.16162109375-.44482421875.5673828125-.9794921875.8505859375-1.6015625.84912109375-.294677734375.0576171875-.8876953125-.02490234375-1.78076171875-.24658203125-.892578125-.22314453125-1.958984375-.505859375-3.197509765625-.84912109375-1.29345703125-.35498046875-2.685302734375-.71240234375-4.175048828125-1.07421875-1.49169921875-.3623046875-3.02392578125-.71923828125-4.60107421875-1.068359375-1.57861328125-.3505859375-3.105224609375-.66259765625-4.583251953125-.9375-1.4775390625-.27490234375-2.796630859375-.4921875-3.956787109375-.65087890625-1.0048828125-.07421875-2.23388671875-.24560546875-3.68359375-.515625-1.451171875-.26953125-2.68212890625-.58349609375-3.690673828125-.94091796875-.790283203125-.31689453125-1.300537109375-1.07666015625-1.52978515625-2.2802734375-.229736328125-1.203125-.2421875-2.5791015625-.0390625-4.12744140625.202880859375-1.54736328125.623779296875-3.12548828125,1.262939453125-4.7353515625.638671875-1.607421875,1.40380859375-2.97998046875,2.295166015625-4.1171875,1.375244140625-1.61376953125,2.855712890625-3.02294921875,4.439453125-4.2294921875,1.583251953125-1.205078125,3.21044921875-2.3466796875,4.884521484375-3.423828125,1.671875-1.07568359375,3.375244140625-2.1611328125,5.107421875-3.2548828125,1.732421875-1.0927734375,3.45703125-2.30126953125,5.1767578125-3.62451171875.7236328125-.544921875,1.5859375-1.375,2.587158203125-2.49169921875.999755859375-1.11669921875,1.80908203125-2.2685546875,2.426513671875-3.45703125.79833984375-1.55029296875,1.00390625-2.814453125.62060546875-3.7919921875-.385009765625-.9765625-1.0654296875-1.65576171875-2.04248046875-2.03662109375-.9775390625-.37939453125-2.111572265625-.44873046875-3.401611328125-.20751953125-1.291748046875.24169921875-2.471923828125.80126953125-3.5400390625,1.67724609375-.950439453125.8427734375-1.72509765625,1.88818359375-2.324462890625,3.1357421875-.601318359375,1.24755859375-.78173828125,2.60205078125-.54345703125,4.06103515625.05810546875.29541015625.12255859375.6328125.1943359375,1.01318359375.0693359375.38232421875.1025390625.74169921875.0966796875,1.080078125-.08935546875.77734375-.740234375,1.4638671875-1.955078125,2.0576171875-1.21484375.59619140625-2.5673828125.93896484375-4.056396484375,1.029296875-1.49072265625.091796875-2.891845703125-.140625-4.203369140625-.69677734375-1.312744140625-.5546875-2.11083984375-1.59521484375-2.392333984375-3.12109375-.236572265625-2.0830078125-.132080078125-4.0869140625.31201171875-6.015625.443603515625-1.92724609375,1.122802734375-3.7548828125,2.038818359375-5.48291015625.916015625-1.72607421875,2.060302734375-3.3115234375,3.43310546875-4.7548828125,1.372802734375-1.4443359375,2.88720703125-2.66259765625,4.545166015625-3.6572265625,1.7861328125-1.0830078125,3.755615234375-1.85009765625,5.907470703125-2.29931640625,2.150146484375-.44921875,4.30810546875-.55810546875,6.47412109375-.32470703125,2.1650390625.232421875,4.22314453125.814453125,6.17431640625,1.7421875,1.951171875.93017578125,3.615234375,2.25927734375,4.99267578125,3.9873046875,1.110107421875,1.33984375,1.91796875,2.77783203125,2.425537109375,4.31640625.506103515625,1.5380859375.778564453125,3.11767578125.817626953125,4.73974609375.037841796875,1.62109375-.136962890625,3.2451171875-.5244140625,4.87158203125-.387451171875,1.626953125-.92626953125,3.22607421875-1.61474609375,4.796875-1.050537109375,2.29736328125-2.37353515625,4.3154296875-3.97216796875,6.05712890625-1.597900390625,1.7421875-3.32958984375,3.3603515625-5.19189453125,4.853515625-1.8642578125,1.494140625-3.8134765625,2.916015625-5.8486328125,4.26416015625-2.0341796875,1.349609375-4.035888671875,2.74658203125-6.003662109375,4.19287109375,5.34912109375.76904296875,10.6865234375,1.76171875,16.01123046875,2.97802734375Z"/>
        <path class="cls-1" d="M104.555795326679799,113.469818917978046c-.036918578869518.212041550266804-.148067576269568.772129768891318.048609425530231.85955263469441,15.36969794496963,6.831825930521518,24.179814853669996,21.591362943749118,25.237069859130315,40.286632748329794.826360234149433,14.612394789787686-2.922619773880797,26.465478664033981-11.2469400241107,35.559251622734337-8.324320250219898,9.093772958701265-19.757542028639364,14.051852558466635-34.297628480680032,14.874123611086361-14.040038651509349.793992346530104-25.500468946659566-3.012441119197319-34.383442928209661-11.421222063559071-8.882858793350351-8.406744089775202-13.729405132259672-19.773733708634609-14.539639016699766-34.100968856583677-.814207877770059-14.397506631111355,1.597101620819558-26.084012647464988,7.23273728617005-35.062515736828573,5.636711686729541-8.977542256177003,13.024694177779566-15.234273570499681,22.167060349100211-18.769348297996657,9.140329316729549-3.534959539282681,20.588951907239789-5.691429901443371,34.341794062319423-6.469180710058026l38.470838877979986-2.175603101378329c2.66705214483045-.150827148226199,4.951394656600314,1.888976239760268,5.102221804820147,4.556028384594356l.274090635730317,4.846700521029561c.150827148219832,2.667052144835907-1.888976239770273,4.951394656600314-4.556028384600722,5.102221804827423,0,0-33.100386076929681-2.39534398008982-33.850743466479798,1.914327439108092ZM94.218918109009792,117.978560774246034c-2.132427631659993-2.190899793633434-5.187450945260025-3.258435750602985-8.217550507270062-2.851267291263866-21.823372268650019,2.932507227033057-31.996680264349379,17.425845458378717-30.523348247759714,43.478537968415367.708925851839922,12.535821540804136,3.584366035040148,22.109350687332153,8.630509446999895,28.722393917736554,5.044106557370469,6.613158418617786,11.685189019720383,9.686798265853213,19.923247387049742,9.22091954170628,18.695269804580676-1.057255005456682,27.315865508669958-14.441999432416196,25.861556735840168-40.158306990048914-.892952766739654-15.789939807116752-6.117730077039596-28.593543648113155-15.674414814860029-38.412277146545421Z"/>
      </g>
      <g>
        <path class="cls-2" d="M190.964111328125,100.08544921875c.38232421875.07080078125.650146484375.3056640625.803955078125.70166015625.15185546875.3974609375.25390625.8408203125.3046875,1.3310546875.049560546875.49072265625.04248046875.98486328125-.021240234375,1.482421875-.064208984375.49755859375-.116455078125.8564453125-.156982421875,1.0751953125-.18310546875.9853515625-.40234375,2.00634765625-.65478515625,3.06396484375-.253662109375,1.056640625-.54638671875,2.0224609375-.87841796875,2.89453125-.33203125.873046875-.72119140625,1.59423828125-1.1669921875,2.16162109375-.44482421875.5673828125-.9794921875.8505859375-1.6015625.84912109375-.294677734375.0576171875-.8876953125-.02490234375-1.78076171875-.24658203125-.892578125-.22314453125-1.958984375-.505859375-3.197509765625-.84912109375-1.29345703125-.35498046875-2.685302734375-.71240234375-4.175048828125-1.07421875-1.49169921875-.3623046875-3.02392578125-.71923828125-4.60107421875-1.068359375-1.57861328125-.3505859375-3.105224609375-.66259765625-4.583251953125-.9375-1.4775390625-.27490234375-2.796630859375-.4921875-3.956787109375-.65087890625-1.0048828125-.07421875-2.23388671875-.24560546875-3.68359375-.515625-1.451171875-.26953125-2.68212890625-.58349609375-3.690673828125-.94091796875-.790283203125-.31689453125-1.300537109375-1.07666015625-1.52978515625-2.2802734375-.229736328125-1.203125-.2421875-2.5791015625-.0390625-4.12744140625.202880859375-1.54736328125.623779296875-3.12548828125,1.262939453125-4.7353515625.638671875-1.607421875,1.40380859375-2.97998046875,2.295166015625-4.1171875,1.375244140625-1.61376953125,2.855712890625-3.02294921875,4.439453125-4.2294921875,1.583251953125-1.205078125,3.21044921875-2.3466796875,4.884521484375-3.423828125,1.671875-1.07568359375,3.375244140625-2.1611328125,5.107421875-3.2548828125,1.732421875-1.0927734375,3.45703125-2.30126953125,5.1767578125-3.62451171875.7236328125-.544921875,1.5859375-1.375,2.587158203125-2.49169921875.999755859375-1.11669921875,1.80908203125-2.2685546875,2.426513671875-3.45703125.79833984375-1.55029296875,1.00390625-2.814453125.62060546875-3.7919921875-.385009765625-.9765625-1.0654296875-1.65576171875-2.04248046875-2.03662109375-.9775390625-.37939453125-2.111572265625-.44873046875-3.401611328125-.20751953125-1.291748046875.24169921875-2.471923828125.80126953125-3.5400390625,1.67724609375-.950439453125.8427734375-1.72509765625,1.88818359375-2.324462890625,3.1357421875-.601318359375,1.24755859375-.78173828125,2.60205078125-.54345703125,4.06103515625.05810546875.29541015625.12255859375.6328125.1943359375,1.01318359375.0693359375.38232421875.1025390625.74169921875.0966796875,1.080078125-.08935546875.77734375-.740234375,1.4638671875-1.955078125,2.0576171875-1.21484375.59619140625-2.5673828125.93896484375-4.056396484375,1.029296875-1.49072265625.091796875-2.891845703125-.140625-4.203369140625-.69677734375-1.312744140625-.5546875-2.11083984375-1.59521484375-2.392333984375-3.12109375-.236572265625-2.0830078125-.132080078125-4.0869140625.31201171875-6.015625.443603515625-1.92724609375,1.122802734375-3.7548828125,2.038818359375-5.48291015625.916015625-1.72607421875,2.060302734375-3.3115234375,3.43310546875-4.7548828125,1.372802734375-1.4443359375,2.88720703125-2.66259765625,4.545166015625-3.6572265625,1.7861328125-1.0830078125,3.755615234375-1.85009765625,5.907470703125-2.29931640625,2.150146484375-.44921875,4.30810546875-.55810546875,6.47412109375-.32470703125,2.1650390625.232421875,4.22314453125.814453125,6.17431640625,1.7421875,1.951171875.93017578125,3.615234375,2.25927734375,4.99267578125,3.9873046875,1.110107421875,1.33984375,1.91796875,2.77783203125,2.425537109375,4.31640625.506103515625,1.5380859375.778564453125,3.11767578125.817626953125,4.73974609375.037841796875,1.62109375-.136962890625,3.2451171875-.5244140625,4.87158203125-.387451171875,1.626953125-.92626953125,3.22607421875-1.61474609375,4.796875-1.050537109375,2.29736328125-2.37353515625,4.3154296875-3.97216796875,6.05712890625-1.597900390625,1.7421875-3.32958984375,3.3603515625-5.19189453125,4.853515625-1.8642578125,1.494140625-3.8134765625,2.916015625-5.8486328125,4.26416015625-2.0341796875,1.349609375-4.035888671875,2.74658203125-6.003662109375,4.19287109375,5.34912109375.76904296875,10.6865234375,1.76171875,16.01123046875,2.97802734375Z"/>
        <path class="cls-2" d="M104.555795326679799,113.469818917978046c-.036918578869518.212041550266804-.148067576269568.772129768891318.048609425530231.85955263469441,15.36969794496963,6.831825930521518,24.179814853669996,21.591362943749118,25.237069859130315,40.286632748329794.826360234149433,14.612394789787686-2.922619773880797,26.465478664033981-11.2469400241107,35.559251622734337-8.324320250219898,9.093772958701265-19.757542028639364,14.051852558466635-34.297628480680032,14.874123611086361-14.040038651509349.793992346530104-25.500468946659566-3.012441119197319-34.383442928209661-11.421222063559071-8.882858793350351-8.406744089775202-13.729405132259672-19.773733708634609-14.539639016699766-34.100968856583677-.814207877770059-14.397506631111355,1.597101620819558-26.084012647464988,7.23273728617005-35.062515736828573,5.636711686729541-8.977542256177003,13.024694177779566-15.234273570499681,22.167060349100211-18.769348297996657,9.140329316729549-3.534959539282681,20.588951907239789-5.691429901443371,34.341794062319423-6.469180710058026l38.470838877979986-2.175603101378329c2.66705214483045-.150827148226199,4.951394656600314,1.888976239760268,5.102221804820147,4.556028384594356l.274090635730317,4.846700521029561c.150827148219832,2.667052144835907-1.888976239770273,4.951394656600314-4.556028384600722,5.102221804827423,0,0-33.100386076929681-2.39534398008982-33.850743466479798,1.914327439108092ZM94.218918109009792,117.978560774246034c-2.132427631659993-2.190899793633434-5.187450945260025-3.258435750602985-8.217550507270062-2.851267291263866-21.823372268650019,2.932507227033057-31.996680264349379,17.425845458378717-30.523348247759714,43.478537968415367.708925851839922,12.535821540804136,3.584366035040148,22.109350687332153,8.630509446999895,28.722393917736554,5.044106557370469,6.613158418617786,11.685189019720383,9.686798265853213,19.923247387049742,9.22091954170628,18.695269804580676-1.057255005456682,27.315865508669958-14.441999432416196,25.861556735840168-40.158306990048914-.892952766739654-15.789939807116752-6.117730077039596-28.593543648113155-15.674414814860029-38.412277146545421Z"/>
      </g>
      <g>
        <path class="cls-3" d="M190.964111328125,100.08544921875c.38232421875.07080078125.650146484375.3056640625.803955078125.70166015625.15185546875.3974609375.25390625.8408203125.3046875,1.3310546875.049560546875.49072265625.04248046875.98486328125-.021240234375,1.482421875-.064208984375.49755859375-.116455078125.8564453125-.156982421875,1.0751953125-.18310546875.9853515625-.40234375,2.00634765625-.65478515625,3.06396484375-.253662109375,1.056640625-.54638671875,2.0224609375-.87841796875,2.89453125-.33203125.873046875-.72119140625,1.59423828125-1.1669921875,2.16162109375-.44482421875.5673828125-.9794921875.8505859375-1.6015625.84912109375-.294677734375.0576171875-.8876953125-.02490234375-1.78076171875-.24658203125-.892578125-.22314453125-1.958984375-.505859375-3.197509765625-.84912109375-1.29345703125-.35498046875-2.685302734375-.71240234375-4.175048828125-1.07421875-1.49169921875-.3623046875-3.02392578125-.71923828125-4.60107421875-1.068359375-1.57861328125-.3505859375-3.105224609375-.66259765625-4.583251953125-.9375-1.4775390625-.27490234375-2.796630859375-.4921875-3.956787109375-.65087890625-1.0048828125-.07421875-2.23388671875-.24560546875-3.68359375-.515625-1.451171875-.26953125-2.68212890625-.58349609375-3.690673828125-.94091796875-.790283203125-.31689453125-1.300537109375-1.07666015625-1.52978515625-2.2802734375-.229736328125-1.203125-.2421875-2.5791015625-.0390625-4.12744140625.202880859375-1.54736328125.623779296875-3.12548828125,1.262939453125-4.7353515625.638671875-1.607421875,1.40380859375-2.97998046875,2.295166015625-4.1171875,1.375244140625-1.61376953125,2.855712890625-3.02294921875,4.439453125-4.2294921875,1.583251953125-1.205078125,3.21044921875-2.3466796875,4.884521484375-3.423828125,1.671875-1.07568359375,3.375244140625-2.1611328125,5.107421875-3.2548828125,1.732421875-1.0927734375,3.45703125-2.30126953125,5.1767578125-3.62451171875.7236328125-.544921875,1.5859375-1.375,2.587158203125-2.49169921875.999755859375-1.11669921875,1.80908203125-2.2685546875,2.426513671875-3.45703125.79833984375-1.55029296875,1.00390625-2.814453125.62060546875-3.7919921875-.385009765625-.9765625-1.0654296875-1.65576171875-2.04248046875-2.03662109375-.9775390625-.37939453125-2.111572265625-.44873046875-3.401611328125-.20751953125-1.291748046875.24169921875-2.471923828125.80126953125-3.5400390625,1.67724609375-.950439453125.8427734375-1.72509765625,1.88818359375-2.324462890625,3.1357421875-.601318359375,1.24755859375-.78173828125,2.60205078125-.54345703125,4.06103515625.05810546875.29541015625.12255859375.6328125.1943359375,1.01318359375.0693359375.38232421875.1025390625.74169921875.0966796875,1.080078125-.08935546875.77734375-.740234375,1.4638671875-1.955078125,2.0576171875-1.21484375.59619140625-2.5673828125.93896484375-4.056396484375,1.029296875-1.49072265625.091796875-2.891845703125-.140625-4.203369140625-.69677734375-1.312744140625-.5546875-2.11083984375-1.59521484375-2.392333984375-3.12109375-.236572265625-2.0830078125-.132080078125-4.0869140625.31201171875-6.015625.443603515625-1.92724609375,1.122802734375-3.7548828125,2.038818359375-5.48291015625.916015625-1.72607421875,2.060302734375-3.3115234375,3.43310546875-4.7548828125,1.372802734375-1.4443359375,2.88720703125-2.66259765625,4.545166015625-3.6572265625,1.7861328125-1.0830078125,3.755615234375-1.85009765625,5.907470703125-2.29931640625,2.150146484375-.44921875,4.30810546875-.55810546875,6.47412109375-.32470703125,2.1650390625.232421875,4.22314453125.814453125,6.17431640625,1.7421875,1.951171875.93017578125,3.615234375,2.25927734375,4.99267578125,3.9873046875,1.110107421875,1.33984375,1.91796875,2.77783203125,2.425537109375,4.31640625.506103515625,1.5380859375.778564453125,3.11767578125.817626953125,4.73974609375.037841796875,1.62109375-.136962890625,3.2451171875-.5244140625,4.87158203125-.387451171875,1.626953125-.92626953125,3.22607421875-1.61474609375,4.796875-1.050537109375,2.29736328125-2.37353515625,4.3154296875-3.97216796875,6.05712890625-1.597900390625,1.7421875-3.32958984375,3.3603515625-5.19189453125,4.853515625-1.8642578125,1.494140625-3.8134765625,2.916015625-5.8486328125,4.26416015625-2.0341796875,1.349609375-4.035888671875,2.74658203125-6.003662109375,4.19287109375,5.34912109375.76904296875,10.6865234375,1.76171875,16.01123046875,2.97802734375Z"/>
        <path class="cls-3" d="M104.555795326679799,113.469818917978046c-.036918578869518.212041550266804-.148067576269568.772129768891318.048609425530231.85955263469441,15.36969794496963,6.831825930521518,24.179814853669996,21.591362943749118,25.237069859130315,40.286632748329794.826360234149433,14.612394789787686-2.922619773880797,26.465478664033981-11.2469400241107,35.559251622734337-8.324320250219898,9.093772958701265-19.757542028639364,14.051852558466635-34.297628480680032,14.874123611086361-14.040038651509349.793992346530104-25.500468946659566-3.012441119197319-34.383442928209661-11.421222063559071-8.882858793350351-8.406744089775202-13.729405132259672-19.773733708634609-14.539639016699766-34.100968856583677-.814207877770059-14.397506631111355,1.597101620819558-26.084012647464988,7.23273728617005-35.062515736828573,5.636711686729541-8.977542256177003,13.024694177779566-15.234273570499681,22.167060349100211-18.769348297996657,9.140329316729549-3.534959539282681,20.588951907239789-5.691429901443371,34.341794062319423-6.469180710058026l38.470838877979986-2.175603101378329c2.66705214483045-.150827148226199,4.951394656600314,1.888976239760268,5.102221804820147,4.556028384594356l.274090635730317,4.846700521029561c.150827148219832,2.667052144835907-1.888976239770273,4.951394656600314-4.556028384600722,5.102221804827423,0,0-33.100386076929681-2.39534398008982-33.850743466479798,1.914327439108092ZM94.218918109009792,117.978560774246034c-2.132427631659993-2.190899793633434-5.187450945260025-3.258435750602985-8.217550507270062-2.851267291263866-21.823372268650019,2.932507227033057-31.996680264349379,17.425845458378717-30.523348247759714,43.478537968415367.708925851839922,12.535821540804136,3.584366035040148,22.109350687332153,8.630509446999895,28.722393917736554,5.044106557370469,6.613158418617786,11.685189019720383,9.686798265853213,19.923247387049742,9.22091954170628,18.695269804580676-1.057255005456682,27.315865508669958-14.441999432416196,25.861556735840168-40.158306990048914-.892952766739654-15.789939807116752-6.117730077039596-28.593543648113155-15.674414814860029-38.412277146545421Z"/>
      </g>
    </g>
  </a>
</svg>