<?xml version="1.0" encoding="UTF-8"?>
<svg id="Content" xmlns="http://www.w3.org/2000/svg" xmlns:xlink="http://www.w3.org/1999/xlink" viewBox="0 0 280 280">
  <defs>
    <style>
      .cls-1 {
        stroke: #665451;
        stroke-width: 50px;
      }

      .cls-1, .cls-2 {
        fill: none;
        stroke-linecap: round;
        stroke-linejoin: round;
      }

      .cls-3 {
        fill: #fff;
      }

      .cls-2 {
        stroke: #998675;
        stroke-width: 2px;
      }
    </style>
  </defs>
  <a xlink:href="https://www.notion.so/congruence/Population-coefficient-of-linear-correlation-285305fa8afa45a39bda77db20152ecd?pvs=4">
    <g>
      <path class="cls-1" d="M56.0341796875,219.01171875l-2.6162109375-3.0595703125,12.1728515625-116.111328125c1.9921875-18.8779296875,7.79296875-33.349609375,17.4033203125-43.4169921875,9.611328125-10.0625,21.7236328125-14.52734375,36.3447265625-13.38671875,7.56640625.5908203125,14.3642578125,2.72265625,20.3955078125,6.3935546875,6.029296875,3.673828125,11.1015625,8.5224609375,15.216796875,14.5537109375,4.1123046875,6.03125,7.16015625,13.017578125,9.13671875,20.958984375s2.6083984375,16.470703125,1.8974609375,25.5849609375c-1.4091796875,18.05859375-7.5556640625,31.9853515625-18.443359375,41.77734375-10.88671875,9.79296875-24.9326171875,14.0185546875-42.1298828125,12.6767578125-4.8427734375-2.2841796875-9.484375-4.8486328125-13.93359375-7.7060546875-4.44921875-2.853515625-8.525390625-6.0712890625-12.2255859375-9.6494140625l-8.9365234375,4.75390625,2.033203125-26.056640625c7.2783203125,8.703125,15.1416015625,14.3779296875,23.58984375,17.0244140625,8.443359375,2.650390625,16.5419921875,2.5478515625,24.29296875-.3115234375,7.7509765625-2.8544921875,14.255859375-8.056640625,19.5166015625-15.6083984375,5.2607421875-7.5458984375,8.3486328125-17.16796875,9.2607421875-28.8662109375.8994140625-11.521484375-.7724609375-20.6064453125-5.01171875-27.255859375-4.2431640625-6.6455078125-10.576171875-10.2998046875-19.0009765625-10.95703125-9.119140625-.7109375-17.0078125,1.7470703125-23.6767578125,7.3671875-6.66796875,5.625-12.0126953125,14.248046875-16.0341796875,25.8740234375-4.0224609375,11.625-6.798828125,26.119140625-8.32421875,43.4755859375l-.2841796875,80.181640625c-3.3369140625.603515625-6.7001953125,1.03515625-10.09375,1.2890625-3.39453125.25390625-6.91015625.41015625-10.5498046875.474609375Z"/>
      <path class="cls-2" d="M56.0341796875,219.01171875l-2.6162109375-3.0595703125,12.1728515625-116.111328125c1.9921875-18.8779296875,7.79296875-33.349609375,17.4033203125-43.4169921875,9.611328125-10.0625,21.7236328125-14.52734375,36.3447265625-13.38671875,7.56640625.5908203125,14.3642578125,2.72265625,20.3955078125,6.3935546875,6.029296875,3.673828125,11.1015625,8.5224609375,15.216796875,14.5537109375,4.1123046875,6.03125,7.16015625,13.017578125,9.13671875,20.958984375s2.6083984375,16.470703125,1.8974609375,25.5849609375c-1.4091796875,18.05859375-7.5556640625,31.9853515625-18.443359375,41.77734375-10.88671875,9.79296875-24.9326171875,14.0185546875-42.1298828125,12.6767578125-4.8427734375-2.2841796875-9.484375-4.8486328125-13.93359375-7.7060546875-4.44921875-2.853515625-8.525390625-6.0712890625-12.2255859375-9.6494140625l-8.9365234375,4.75390625,2.033203125-26.056640625c7.2783203125,8.703125,15.1416015625,14.3779296875,23.58984375,17.0244140625,8.443359375,2.650390625,16.5419921875,2.5478515625,24.29296875-.3115234375,7.7509765625-2.8544921875,14.255859375-8.056640625,19.5166015625-15.6083984375,5.2607421875-7.5458984375,8.3486328125-17.16796875,9.2607421875-28.8662109375.8994140625-11.521484375-.7724609375-20.6064453125-5.01171875-27.255859375-4.2431640625-6.6455078125-10.576171875-10.2998046875-19.0009765625-10.95703125-9.119140625-.7109375-17.0078125,1.7470703125-23.6767578125,7.3671875-6.66796875,5.625-12.0126953125,14.248046875-16.0341796875,25.8740234375-4.0224609375,11.625-6.798828125,26.119140625-8.32421875,43.4755859375l-.2841796875,80.181640625c-3.3369140625.603515625-6.7001953125,1.03515625-10.09375,1.2890625-3.39453125.25390625-6.91015625.41015625-10.5498046875.474609375Z"/>
      <path class="cls-3" d="M56.0341796875,219.01171875l-2.6162109375-3.0595703125,12.1728515625-116.111328125c1.9921875-18.8779296875,7.79296875-33.349609375,17.4033203125-43.4169921875,9.611328125-10.0625,21.7236328125-14.52734375,36.3447265625-13.38671875,7.56640625.5908203125,14.3642578125,2.72265625,20.3955078125,6.3935546875,6.029296875,3.673828125,11.1015625,8.5224609375,15.216796875,14.5537109375,4.1123046875,6.03125,7.16015625,13.017578125,9.13671875,20.958984375s2.6083984375,16.470703125,1.8974609375,25.5849609375c-1.4091796875,18.05859375-7.5556640625,31.9853515625-18.443359375,41.77734375-10.88671875,9.79296875-24.9326171875,14.0185546875-42.1298828125,12.6767578125-4.8427734375-2.2841796875-9.484375-4.8486328125-13.93359375-7.7060546875-4.44921875-2.853515625-8.525390625-6.0712890625-12.2255859375-9.6494140625l-8.9365234375,4.75390625,2.033203125-26.056640625c7.2783203125,8.703125,15.1416015625,14.3779296875,23.58984375,17.0244140625,8.443359375,2.650390625,16.5419921875,2.5478515625,24.29296875-.3115234375,7.7509765625-2.8544921875,14.255859375-8.056640625,19.5166015625-15.6083984375,5.2607421875-7.5458984375,8.3486328125-17.16796875,9.2607421875-28.8662109375.8994140625-11.521484375-.7724609375-20.6064453125-5.01171875-27.255859375-4.2431640625-6.6455078125-10.576171875-10.2998046875-19.0009765625-10.95703125-9.119140625-.7109375-17.0078125,1.7470703125-23.6767578125,7.3671875-6.66796875,5.625-12.0126953125,14.248046875-16.0341796875,25.8740234375-4.0224609375,11.625-6.798828125,26.119140625-8.32421875,43.4755859375l-.2841796875,80.181640625c-3.3369140625.603515625-6.7001953125,1.03515625-10.09375,1.2890625-3.39453125.25390625-6.91015625.41015625-10.5498046875.474609375Z"/>
    </g>
  </a>
</svg>