<?xml version="1.0" encoding="UTF-8"?>
<svg id="Content" xmlns="http://www.w3.org/2000/svg" xmlns:xlink="http://www.w3.org/1999/xlink" viewBox="0 0 280 280">
  <defs>
    <style>
      .cls-1 {
        stroke: #665451;
        stroke-width: 50px;
      }

      .cls-1, .cls-2 {
        fill: none;
        stroke-linecap: round;
        stroke-linejoin: round;
      }

      .cls-3 {
        fill: #fff;
      }

      .cls-2 {
        stroke: #998675;
        stroke-width: 2px;
      }
    </style>
  </defs>
  <a xlink:href="https://www.notion.so/congruence/Population-proportion-d831e248b37e48ddb7319f608ed62e0a?pvs=4">
    <g>
      <path class="cls-1" d="M101.612678690158646,89.353203956115976c6.90625,2.9560546875,12.6611328125,6.900390625,17.2578125,11.8369140625s7.978515625,10.3828125,10.1455078125,16.337890625c2.16796875,5.958984375,3.1728515625,12.14453125,3.01953125,18.5654296875-.15625,6.419921875-1.419921875,12.6572265625-3.798828125,18.70703125-2.37890625,6.052734375-5.953125,11.681640625-10.71875,16.8896484375-4.767578125,5.2080078125-10.578125,9.5078125-17.4384765625,12.890625-7.1357421875,3.4013671875-15.1328125,6.0849609375-23.9951171875,8.0556640625-.095703125.8330078125-.1396484375,2.6962890625-.1259765625,5.5908203125-.01171875,2.482421875.1123046875,6.232421875.3701171875,11.25390625.2568359375,5.0205078125.611328125,11.9306640625,1.0615234375,20.7333984375-.046875,1.79296875-.375,3.4658203125-.984375,5.015625-.626953125,1.2724609375-1.5986328125,2.4931640625-2.9150390625,3.6650390625-1.3193359375,1.169921875-3.1416015625,1.9521484375-5.46484375,2.3486328125-2.4599609375.400390625-5.0302734375.705078125-7.708984375.912109375-2.6787109375.2060546875-5.16796875.05859375-7.46875-.4443359375-2.30078125-.501953125-4.251953125-1.541015625-5.8486328125-3.11328125-1.599609375-1.572265625-2.5517578125-4.0068359375-2.85546875-7.30078125-.3359375-3.8447265625-.6806640625-9.240234375-1.037109375-16.18359375-.35546875-6.947265625-.720703125-14.7197265625-1.0908203125-23.318359375-.3720703125-8.5966796875-.806640625-17.779296875-1.3076171875-27.546875-.5-9.763671875-1.0234375-19.287109375-1.5673828125-28.56640625-.5458984375-9.28125-1.1005859375-18.0751953125-1.662109375-26.3916015625-.5654296875-8.3134765625-1.1357421875-15.419921875-1.7138671875-21.3212890625-.1123046875-2.1982421875.548828125-4.0615234375,1.9892578125-5.5830078125,1.4384765625-1.521484375,3.517578125-2.6259765625,6.2421875-3.3193359375,1.9111328125-.3720703125,4.0947265625-.830078125,6.548828125-1.369140625,2.455078125-.5400390625,4.849609375-.8701171875,7.189453125-.9892578125,2.337890625-.1201171875,4.349609375.123046875,6.0361328125.7255859375,1.6845703125.6044921875,2.708984375,1.7939453125,3.078125,3.564453125.1708984375.68359375.271484375,1.2626953125.2958984375,1.7431640625.0244140625.4833984375.1142578125.92578125.2744140625,1.330078125,5.2041015625-.6796875,10.7255859375-.6162109375,16.5576171875.1865234375,5.8330078125.8056640625,11.712890625,2.501953125,17.6357421875,5.0947265625ZM73.737678690158646,162.971368018615976c5.3359375-.8232421875,9.896484375-2.6435546875,13.6826171875-5.458984375,3.7861328125-2.8115234375,6.6494140625-6.0966796875,8.595703125-9.8515625,1.9443359375-3.751953125,2.94921875-7.6650390625,3.0185546875-11.7392578125.06640625-4.068359375-.9169921875-7.8125-2.953125-11.2236328125-2.037109375-3.4130859375-5.14453125-6.1494140625-9.3154296875-8.2109375-4.1748046875-2.0615234375-9.4970703125-2.994140625-15.966796875-2.8017578125.39453125,7.7041015625.8232421875,15.4384765625,1.29296875,23.2041015625.4638671875,7.767578125.9921875,16.05078125,1.58203125,24.84375l.03125.619140625.0322265625.619140625Z"/>
      <path class="cls-2" d="M101.612678690158646,89.353203956115976c6.90625,2.9560546875,12.6611328125,6.900390625,17.2578125,11.8369140625s7.978515625,10.3828125,10.1455078125,16.337890625c2.16796875,5.958984375,3.1728515625,12.14453125,3.01953125,18.5654296875-.15625,6.419921875-1.419921875,12.6572265625-3.798828125,18.70703125-2.37890625,6.052734375-5.953125,11.681640625-10.71875,16.8896484375-4.767578125,5.2080078125-10.578125,9.5078125-17.4384765625,12.890625-7.1357421875,3.4013671875-15.1328125,6.0849609375-23.9951171875,8.0556640625-.095703125.8330078125-.1396484375,2.6962890625-.1259765625,5.5908203125-.01171875,2.482421875.1123046875,6.232421875.3701171875,11.25390625.2568359375,5.0205078125.611328125,11.9306640625,1.0615234375,20.7333984375-.046875,1.79296875-.375,3.4658203125-.984375,5.015625-.626953125,1.2724609375-1.5986328125,2.4931640625-2.9150390625,3.6650390625-1.3193359375,1.169921875-3.1416015625,1.9521484375-5.46484375,2.3486328125-2.4599609375.400390625-5.0302734375.705078125-7.708984375.912109375-2.6787109375.2060546875-5.16796875.05859375-7.46875-.4443359375-2.30078125-.501953125-4.251953125-1.541015625-5.8486328125-3.11328125-1.599609375-1.572265625-2.5517578125-4.0068359375-2.85546875-7.30078125-.3359375-3.8447265625-.6806640625-9.240234375-1.037109375-16.18359375-.35546875-6.947265625-.720703125-14.7197265625-1.0908203125-23.318359375-.3720703125-8.5966796875-.806640625-17.779296875-1.3076171875-27.546875-.5-9.763671875-1.0234375-19.287109375-1.5673828125-28.56640625-.5458984375-9.28125-1.1005859375-18.0751953125-1.662109375-26.3916015625-.5654296875-8.3134765625-1.1357421875-15.419921875-1.7138671875-21.3212890625-.1123046875-2.1982421875.548828125-4.0615234375,1.9892578125-5.5830078125,1.4384765625-1.521484375,3.517578125-2.6259765625,6.2421875-3.3193359375,1.9111328125-.3720703125,4.0947265625-.830078125,6.548828125-1.369140625,2.455078125-.5400390625,4.849609375-.8701171875,7.189453125-.9892578125,2.337890625-.1201171875,4.349609375.123046875,6.0361328125.7255859375,1.6845703125.6044921875,2.708984375,1.7939453125,3.078125,3.564453125.1708984375.68359375.271484375,1.2626953125.2958984375,1.7431640625.0244140625.4833984375.1142578125.92578125.2744140625,1.330078125,5.2041015625-.6796875,10.7255859375-.6162109375,16.5576171875.1865234375,5.8330078125.8056640625,11.712890625,2.501953125,17.6357421875,5.0947265625ZM73.737678690158646,162.971368018615976c5.3359375-.8232421875,9.896484375-2.6435546875,13.6826171875-5.458984375,3.7861328125-2.8115234375,6.6494140625-6.0966796875,8.595703125-9.8515625,1.9443359375-3.751953125,2.94921875-7.6650390625,3.0185546875-11.7392578125.06640625-4.068359375-.9169921875-7.8125-2.953125-11.2236328125-2.037109375-3.4130859375-5.14453125-6.1494140625-9.3154296875-8.2109375-4.1748046875-2.0615234375-9.4970703125-2.994140625-15.966796875-2.8017578125.39453125,7.7041015625.8232421875,15.4384765625,1.29296875,23.2041015625.4638671875,7.767578125.9921875,16.05078125,1.58203125,24.84375l.03125.619140625.0322265625.619140625Z"/>
      <path class="cls-3" d="M101.612678690158646,89.353203956115976c6.90625,2.9560546875,12.6611328125,6.900390625,17.2578125,11.8369140625s7.978515625,10.3828125,10.1455078125,16.337890625c2.16796875,5.958984375,3.1728515625,12.14453125,3.01953125,18.5654296875-.15625,6.419921875-1.419921875,12.6572265625-3.798828125,18.70703125-2.37890625,6.052734375-5.953125,11.681640625-10.71875,16.8896484375-4.767578125,5.2080078125-10.578125,9.5078125-17.4384765625,12.890625-7.1357421875,3.4013671875-15.1328125,6.0849609375-23.9951171875,8.0556640625-.095703125.8330078125-.1396484375,2.6962890625-.1259765625,5.5908203125-.01171875,2.482421875.1123046875,6.232421875.3701171875,11.25390625.2568359375,5.0205078125.611328125,11.9306640625,1.0615234375,20.7333984375-.046875,1.79296875-.375,3.4658203125-.984375,5.015625-.626953125,1.2724609375-1.5986328125,2.4931640625-2.9150390625,3.6650390625-1.3193359375,1.169921875-3.1416015625,1.9521484375-5.46484375,2.3486328125-2.4599609375.400390625-5.0302734375.705078125-7.708984375.912109375-2.6787109375.2060546875-5.16796875.05859375-7.46875-.4443359375-2.30078125-.501953125-4.251953125-1.541015625-5.8486328125-3.11328125-1.599609375-1.572265625-2.5517578125-4.0068359375-2.85546875-7.30078125-.3359375-3.8447265625-.6806640625-9.240234375-1.037109375-16.18359375-.35546875-6.947265625-.720703125-14.7197265625-1.0908203125-23.318359375-.3720703125-8.5966796875-.806640625-17.779296875-1.3076171875-27.546875-.5-9.763671875-1.0234375-19.287109375-1.5673828125-28.56640625-.5458984375-9.28125-1.1005859375-18.0751953125-1.662109375-26.3916015625-.5654296875-8.3134765625-1.1357421875-15.419921875-1.7138671875-21.3212890625-.1123046875-2.1982421875.548828125-4.0615234375,1.9892578125-5.5830078125,1.4384765625-1.521484375,3.517578125-2.6259765625,6.2421875-3.3193359375,1.9111328125-.3720703125,4.0947265625-.830078125,6.548828125-1.369140625,2.455078125-.5400390625,4.849609375-.8701171875,7.189453125-.9892578125,2.337890625-.1201171875,4.349609375.123046875,6.0361328125.7255859375,1.6845703125.6044921875,2.708984375,1.7939453125,3.078125,3.564453125.1708984375.68359375.271484375,1.2626953125.2958984375,1.7431640625.0244140625.4833984375.1142578125.92578125.2744140625,1.330078125,5.2041015625-.6796875,10.7255859375-.6162109375,16.5576171875.1865234375,5.8330078125.8056640625,11.712890625,2.501953125,17.6357421875,5.0947265625ZM73.737678690158646,162.971368018615976c5.3359375-.8232421875,9.896484375-2.6435546875,13.6826171875-5.458984375,3.7861328125-2.8115234375,6.6494140625-6.0966796875,8.595703125-9.8515625,1.9443359375-3.751953125,2.94921875-7.6650390625,3.0185546875-11.7392578125.06640625-4.068359375-.9169921875-7.8125-2.953125-11.2236328125-2.037109375-3.4130859375-5.14453125-6.1494140625-9.3154296875-8.2109375-4.1748046875-2.0615234375-9.4970703125-2.994140625-15.966796875-2.8017578125.39453125,7.7041015625.8232421875,15.4384765625,1.29296875,23.2041015625.4638671875,7.767578125.9921875,16.05078125,1.58203125,24.84375l.03125.619140625.0322265625.619140625Z"/>
    </g>
  </a>
</svg>