<?xml version="1.0" encoding="UTF-8"?>
<svg id="Content" xmlns="http://www.w3.org/2000/svg" xmlns:xlink="http://www.w3.org/1999/xlink" viewBox="0 0 280 280">
  <defs>
    <style>
      .cls-1 {
        fill: #665451;
      }

      .cls-2 {
        fill: url(#linear-gradient);
      }
    </style>
    <linearGradient id="linear-gradient" x1="-1858.236807490142382" y1="159.219829205252609" x2="-1858.236807490142382" y2="40.8993798992351" gradientTransform="translate(-1727.163005740843801) rotate(-180) scale(1 -1)" gradientUnits="userSpaceOnUse">
      <stop offset=".033113946447839" stop-color="#d4c0a3" stop-opacity="0"/>
      <stop offset=".077445529981579" stop-color="#d4c0a3" stop-opacity=".067075563153634"/>
      <stop offset=".702797202797203" stop-color="#d4c0a3"/>
    </linearGradient>
  </defs>
  <a xlink:href="https://www.notion.so/congruence/Positive-skewed-bimodal-distribution-122f9339b29b801ab6ffebf7e41595fb?pvs=4">
    <g>
      <path class="cls-2" d="M241.404463010310792,159.219828650664567c-42.244657798581102-111.622517951840564-81.796216259890571-37.229364967828587-100.771466311831318-53.302517954471114C87.896826487720318,61.246672395955102,36.194698832619906-38.435029734024283,20.743139768119363,159.219828640758351"/>
      <path class="cls-1" d="M252.975811412949042,156.029753304148471c-5.350064895619653-14.104832359182183-11.34579129389931-28.265014550775959-19.625548650228666-40.937862352144293-5.889600491260353-9.014516660876325-12.81825832793038-17.258180649201677-21.78364087547925-23.332262509162319-6.683277246080252-4.527946562253419-14.571523831500599-7.004771362948304-22.611973431361548-7.385623394153299-3.655833078659271-.17316587044661-7.36358725854916.33079269733571-10.949042837150046.973029987788323-2.582541849529662.462592449848671-5.11493465186868,1.175406773054419-7.592975765819574,2.032082602614537-5.64494697211012,1.951496931565998-11.042918396280584,4.547475506818955-16.509518127360934,6.936554093646919-.514063697279198.224662245609579-1.029317452559553.44655780003086-1.546109817829347.664872853305496l2.866554430360338-1.209700180865184c-2.919244614609852,1.228973506476905-5.93795208614938,2.402787241429905-9.09509575616903,2.829575648724131l3.190075346519734-.42865159736175c-1.193634261020634.15432461290402-2.398208769620396.1887425661007-3.593257750981138.02974638080741l3.190075346510639.428651597363569c-.866437774939186-.122919763867685-1.709130463459587-.347239114231343-2.517110434169808-.684389234851551l2.866554430358519,1.209700180865184c-.777708024128515-.333615273368196-1.502395867408268-.763887945031456-2.175203491078719-1.276660766445275l2.428651597369026,1.876366847533063c-5.474859140989793-4.255282070531393-10.442570683910162-9.339660080328031-15.351170735189953-14.221325020915174-5.168213096108957-5.139853402843073-10.210023180228745-10.404445464753735-15.276135508360312-15.644345272103237-4.884515671499685-5.052073674707572-9.786355870788611-10.092663678391546-14.879143535608819-14.936335866163063-5.210050513769602-4.955199083738989-10.659201549560748-9.629192158794467-16.471747855279318-13.869442736231576-4.921895180461433-3.590520880748954-10.266164990980542-6.541322455332192-16.063358181141666-8.480091424869897-5.836045305939479-1.951762374103055-12.545570877689897-2.331340001706849-18.485276706118384-.589102985064528-6.368934723930579,1.868138617148361-12.057424097291005,5.911394746141013-16.170847833711377,11.084755183903326-2.575321914810047,3.23892440027339-4.881652086189206,6.536217450939148-6.772461869510153,10.218840353576525-2.231127723529426,4.345440840166702-4.092040811508923,8.909177664045274-5.728703661909094,13.50905819892796-3.625088632690677,10.188399299695448-5.987703688349939,20.816790316803235-7.926937048559921,31.439167339722189-2.971387972869707,16.27612435768242-4.932922450700062,32.751173566332-6.473464273080026,49.218830473661001-.42799489078061,4.575061135683427-.816621123751247,9.153682131274763-1.175858649850852,13.734636934501395-.229173932579215,2.922399111877894,1.502791704380797,6.473354452853528,3.514718625759997,8.485281374238184,2.081307336440659,2.08130733643884,5.496075058550559,3.648605543037775,8.485281374240003,3.514718625761816,3.103484767410919-.139005463135618,6.322269692831469-1.158449558050052,8.485281374240003-3.514718625761816,2.248057525650438-2.448913455091315,3.254186388779999-5.163004842192095,3.514718625759997-8.485281374238184,1.046529661920431-13.345223516833357,2.344205597950349-26.67451428786444,4.119019661580751-39.943876840734447-.142883865779368,1.063358448838699-.285767731569649,2.126716897677397-.428651597359931,3.190075346516096,2.157328046099792-16.040950698839879,4.829654154660602-32.22061324754759,9.810078839780545-47.66035369569363.998911104719809-3.096709450035632,2.107514517219897-6.158551999600604,3.37241920175984-9.156965223181032-.403233393621122.955518143455265-.806466787251338,1.911036286906892-1.209700180870641,2.866554430358519,1.890366351259217-4.453633251761858,4.124229716520858-8.814967183385306,7.09074490868079-12.655974325436546-.625455615851024.809550532452704-1.250911231691134,1.619101064909046-1.876366847540339,2.42865159736175,1.443964405008956-1.854885781180201,3.062611184279376-3.574196139401465,4.920246512860103-5.020640719629228l-2.428651597359931,1.876366847531244c1.31465823417966-1.012786194742148,2.735273379230421-1.875142100914672,4.262043687609548-2.528891593028675-.955518143460722.403233393621122-1.91103628691053.806466787242243-2.866554430360338,1.209700180865184,1.39373322900974-.587056233765907,2.852111711639736-.989334742343999,4.35031054242063-1.196217594440895l-3.190075346510639.428651597363569c1.672051171819476-.22099289043399,3.36020744561938-.196149787945615,5.030799807749645.025501653915853l-3.190075346519734-.428651597365388c2.393943806420793.329401008251807,4.711370859320596,1.047774796654267,6.934932821641269,1.982511240054009l-2.866554430360338-1.209700180865184c4.663311385438647,1.978157822366484,8.910647912009154,4.842922044887018,12.907014157888625,7.926560470310505l-2.428651597369026-1.876366847533063c5.92669464537903,4.586706693695305,11.384247784419131,9.759384329805471,16.699086577340495,15.032392739956776,5.932508189938744,5.885816446674653,11.685118645349576,11.949328402233732,17.506805922548665,17.943848951916152,5.874188423151281,6.048580340835542,11.809194186391323,12.049788658750913,18.05896510429011,17.713316033203228,1.502845063891073,1.361874582396922,3.022713659991496,2.705980663657101,4.569728980810396,4.017574274221261,2.789837770149461,2.365285814947129,4.772413683380364,3.594063441603794,8.128037275930183,4.904578618708911,4.158483698520286,1.624066540942295,8.556731213469902,1.289601345495612,12.84571833687005.603979579071165,2.656531276130409-.424663356101519,5.204140423209537-1.332413687772714,7.688090334720982-2.342796951037599,3.832182817128341-1.55879688324967,7.588170488359538-3.276514006762227,11.373684475509435-4.941180799083668.756307674519121-.332583705894649,1.514569980548913-.660652735174153,2.275637932809332-.9822022403132l-2.866554430360338,1.209700180867003c4.712856582360473-1.985059610249664,9.577001280820696-3.697067882485499,14.662672807491617-4.400834863203272l-3.190075346521553.428651597363569c2.907562372709435-.390671716480938,5.846946963250957-.436963423859197,8.758002796670553-.054066995062385l-3.190075346510639-.42865159736175c2.654006110320552.363139790062633,5.237471864500549,1.078140274050384,7.710334109169708,2.106216970943933l-2.866554430358519-1.209700180865184c3.035342124649105,1.281111736814637,5.848679810149406,3.00642184438766,8.453747112858764,5.017127540257206l-2.428651597359931-1.876366847533063c4.062851030059392,3.165934314194601,7.575357611789514,6.96684895368162,10.72875233070954,11.026204155015876l-1.87636684753852-2.42865159736175c7.89817263157056,10.236336854623005,13.690709242589946,22.009353467059555,18.713941750809681,33.86648335802056-.403233393619303-.955518143453446-.806466787240424-1.911036286905073-1.209700180870641-2.866554430358519,1.477662678600609,3.50452599455275,2.883587863680077,7.038036128718886,4.232418402809344,10.594073112690239,1.136798639741755,2.997039204657995,2.660077483120403,5.501067021426934,5.514718625759997,7.171572875255151,2.572163534341598,1.505202940192248,6.363000977891716,2.142906468852743,9.246705123401625,1.209700180865184,2.903636309099966-.93965661002585,5.705057238019435-2.739043699828471,7.171572875249694-5.514718625761816,1.427269129279011-2.701393039484174,2.339262252769913-6.268744299677564,1.209700180868822-9.24670512339253h0Z"/>
    </g>
  </a>
</svg>