<?xml version="1.0" encoding="UTF-8"?>
<svg id="Content" xmlns="http://www.w3.org/2000/svg" xmlns:xlink="http://www.w3.org/1999/xlink" viewBox="0 0 280 280">
  <defs>
    <style>
      .cls-1 {
        fill: #665451;
      }

      .cls-2 {
        fill: url(#linear-gradient);
      }
    </style>
    <linearGradient id="linear-gradient" x1="19420.143369749472186" y1="134.619960177034955" x2="19420.143369749472186" y2="16.299510871017446" gradientTransform="translate(19552.836994259199855) rotate(-180) scale(1 -1)" gradientUnits="userSpaceOnUse">
      <stop offset=".033113946447839" stop-color="#d4c0a3" stop-opacity="0"/>
      <stop offset=".077445529981579" stop-color="#d4c0a3" stop-opacity=".067075563153634"/>
      <stop offset=".702797202797203" stop-color="#d4c0a3"/>
    </linearGradient>
  </defs>
  <a xlink:href="https://www.notion.so/congruence/Positive-skewed-bimodal-distribution-122f9339b29b801ab6ffebf7e41595fb?pvs=4">
    <g>
      <path class="cls-2" d="M243.024285763311127,134.619959144814857c-42.244657798581102-111.622517951840564-81.796216259890571-37.229364967828587-100.771466311831318-53.302517954471114C89.516649240720653,36.646802890105391,37.814521585620241-63.034899239873994,22.362962521119698,134.61995913490864"/>
      <path class="cls-1" d="M254.595634165947558,131.429883798297851c-5.350064895614196-14.104832359173088-11.345791293882939-28.265014550789601-19.625548650225028-40.937862352142474-5.889600491276724-9.014516660875415-12.818258327926742-17.258180649199858-21.783640875488345-23.332262509163229-6.683277246078433-4.5279465622516-14.571523831491504-7.004771362947395-22.61197343135791-7.38562339415239-3.655833078651995-.173165870447519-7.363587258543703.3307926973348-10.949042837144589.973029987788323-2.5825418495333.462592449847762-5.114934651879594,1.175406773050781-7.592975765823212,2.032082602612718-5.64494697211012,1.951496931568727-11.042918396280584,4.547475506818955-16.509518127357296,6.936554093646919-.514063697282836.224662245611398-1.029317452561372.44655780003086-1.546109817827528.664872853306406l2.866554430358519-1.209700180866093c-2.919244614618947,1.228973506475995-5.93795208614938,2.402787241423539-9.095095756170849,2.82957564872504l3.190075346517915-.428651597362659c-1.193634261016996.15432461290311-2.398208769620396.18874256610161-3.5932577509775.02974638080741l3.190075346516096.428651597363569c-.866437774941005-.122919763864957-1.709130463463225-.347239114228614-2.517110434171627-.684389234852461l2.866554430358519,1.209700180866093c-.777708024132153-.333615273368196-1.502395867408268-.763887945031456-2.175203491078719-1.276660766445275l2.428651597363569,1.876366847532154c-5.474859140989793-4.255282070525936-10.442570683911981-9.339660080327121-15.351170735189953-14.221325020914264-5.168213096110776-5.139853402842164-10.210023180230564-10.404445464753735-15.276135508360312-15.644345272103237-4.884515671494228-5.052073674707572-9.786355870781335-10.092663678393365-14.879143535608819-14.936335866162153-5.210050513771421-4.95519908373808-10.659201549562567-9.62919215878992-16.471747855282956-13.869442736232486-4.921895180452339-3.590520880750773-10.266164990975085-6.541322455330373-16.063358181136209-8.480091424868078-5.83604530593766-1.951762374103964-12.545570877688078-2.331340001706849-18.485276706120203-.589102985065438-6.368934723932398,1.86813861715018-12.057424097285548,5.911394746141923-16.170847833713196,11.084755183904235-2.575321914810047,3.238924400271571-4.881652086191025,6.536217450939148-6.772461869506515,10.218840353577434-2.231127723534883,4.345440840163974-4.092040811516199,8.909177664043455-5.728703661909094,13.50905819892705-3.625088632696134,10.188399299694538-5.987703688362672,20.816790316804145-7.926937048559921,31.43916733972128-2.971387972862431,16.276124357690605-4.932922450680053,32.751173566329271-6.473464273087302,49.218830473661001-.427994890787886,4.575061135684336-.816621123743971,9.153682131275673-1.175858649845395,13.734636934501395-.229173932581034,2.922399111878804,1.50279170437534,6.473354452851709,3.514718625761816,8.485281374238184,2.081307336437021,2.081307336437021,5.496075058545102,3.648605543037775,8.485281374238184,3.514718625761816,3.103484767403643-.139005463135618,6.32226969282965-1.158449558048233,8.485281374238184-3.514718625761816,2.248057525650438-2.448913455094043,3.254186388779999-5.163004842191185,3.514718625761816-8.485281374238184,1.046529661913155-13.345223516832448,2.344205597944892-26.67451428786444,4.119019661580751-39.943876840735356l-.428651597365388,3.190075346517006c2.157328046174371-16.040950698847155,4.829654154658783-32.220613247525762,9.810078839782364-47.66035369569363.998911104714352-3.096709450035632,2.107514517218078-6.158551999599695,3.37241920175984-9.156965223179213l-1.209700180865184,2.86655443035761c1.890366351251942-4.453633251751853,4.12422971649903-8.814967183407134,7.090744908675333-12.655974325437455l-1.876366847533063,2.428651597363569c1.443964404990766-1.854885781183839,3.0626111842721-3.574196139416927,4.920246512858284-5.020640719631047l-2.428651597363569,1.876366847532154c1.314658234174203-1.012786194746695,2.735273379230421-1.875142100914672,4.262043687607729-2.528891593030494l-2.866554430358519,1.209700180866093c1.393733229011559-.587056233766816,2.852111711643374-.98933474234218,4.350310542424268-1.196217594440895l-3.190075346516096.428651597363569c1.672051171819476-.2209928904349,3.360207445621199-.196149787944705,5.030799807755102.025501653914944l-3.190075346516096-.428651597363569c2.393943806418974.32940100824726,4.711370859316958,1.047774796662452,6.934932821637631,1.9825112400531l-2.866554430358519-1.209700180865184c4.663311385431371,1.978157822382855,8.910647912005516,4.842922044882471,12.907014157884987,7.926560470310505l-2.42865159736175-1.876366847532154c5.926694645373573,4.586706693691667,11.384247784422769,9.759384329801833,16.699086577340495,15.032392739955867,5.932508189929649,5.885816446678291,11.685118645345938,11.949328402231913,17.506805922541389,17.943848951915243,5.874188423156738,6.048580340834633,11.809194186389504,12.049788658750003,18.058965104297386,17.713316033204137,1.502845063889254,1.361874582396013,3.022713659987858,2.705980663657101,4.569728980804939,4.017574274220351,2.789837770145823,2.36528581494531,4.772413683384002,3.594063441608341,8.128037275932002,4.904578618708911,4.158483698523924,1.624066540939566,8.556731213466264,1.289601345496521,12.845718336868231.603979579072075,2.656531276132228-.424663356102428,5.204140423207718-1.332413687771805,7.688090334713706-2.342796951037599,3.832182817135617-1.558796883250579,7.588170488364995-3.276514006762227,11.373684475513073-4.941180799083668.756307674522759-.33258370589374,1.514569980552551-.660652735174153,2.275637932807513-.98220224031229l-2.866554430358519,1.209700180865184c4.712856582369568-1.985059610236021,9.577001280811601-3.69706788248277,14.662672807487979-4.400834863201453l-3.190075346517915.428651597362659c2.907562372711254-.390671716479119,5.846946963249138-.436963423861926,8.758002796672372-.054066995060566l-3.190075346517915-.428651597363569c2.654006110326009.363139790062633,5.237471864506006,1.078140274048565,7.710334109175164,2.106216970945752l-2.866554430358519-1.209700180866093c3.035342124654562,1.281111736810999,5.848679810140311,3.006421844394026,8.453747112858764,5.017127540255387l-2.428651597363569-1.876366847532154c4.062851030055754,3.165934314224614,7.5753576117786,6.966848953677982,10.72875233070954,11.026204155015876l-1.876366847533063-2.428651597362659c7.898172631550551,10.236336854653928,13.690709242579032,22.009353467045912,18.713941750807862,33.86648335802056l-1.209700180865184-2.866554430358519c1.477662678589695,3.504525994555479,2.88358786367462,7.038036128717977,4.232418402811163,10.594073112690239,1.136798639736298,2.997039204658904,2.66007748310949,5.501067021426024,5.514718625759997,7.171572875254242,2.572163534339779,1.505202940194067,6.363000977882621,2.142906468854562,9.246705123394349,1.209700180865184,2.903636309101785-.93965661002585,5.705057238024892-2.739043699824833,7.171572875253332-5.514718625760906,1.42726912928083-2.701393039485993,2.339262252768094-6.268744299675745,1.209700180865184-9.24670512339253h0Z"/>
    </g>
  </a>
</svg>