<?xml version="1.0" encoding="UTF-8"?>
<svg id="Content" xmlns="http://www.w3.org/2000/svg" viewBox="0 0 280 280">
  <defs>
    <style>
      .cls-1 {
        stroke: #665451;
        stroke-width: 50px;
      }

      .cls-1, .cls-2 {
        fill: none;
        stroke-linecap: round;
        stroke-linejoin: round;
      }

      .cls-3 {
        fill: #fff;
      }

      .cls-2 {
        stroke: #998675;
        stroke-width: 2px;
      }
    </style>
  </defs>
  <path class="cls-1" d="M197.706932394179603,90.689778385075442c-6.465993095256636-3.982091057403522-12.510700949049351-8.626644280745495-18.010007386197685-13.86445085286141-.659532811474492-.628194697765139-1.295238289789268-1.281492817010985-1.954908737741789-1.909083966921571,1.502459506773448,1.429522675543922.207258489823289.201966144084508-.104584530392458-.12095806670095-.337340598365699-.349473861961087-.672510296819382-.701191686868697-1.005187652845052-1.055140420486168-1.289346146124444-1.371510297501118-2.542809411239432-2.776562638293399-3.759090534949792-4.213294249070714-2.472371402072895-2.920660814974326-4.782619831461489-5.973446887074715-6.934703194488975-9.137181737229184-1.915832712718839-2.81620830891552-6.526017542255431-3.375095401067483-9.112574715520168-1.208717788920694-2.82256511423293,2.363986750142431-3.257889744976637,6.100282579152008-1.208776838280755,9.112528807624585,6.148762649929267,9.038745753154217,13.663561479701457,17.222064024130304,22.165436354429403,24.154149647439226-6.160468449590553.857313479604272-12.4196484741733,1.025007813993398-18.629594763828209,1.357741595361404-9.005510753559065.48245370967561-17.99806140833789,1.273605094787854-26.99010943110261,1.95638523098296-18.20532193373765,1.382385996571429-36.42289008287662,2.803189839044535-54.517154677309009,5.29137176848144-5.056099906321833.695265577637656-10.100643117175423,1.476871468374156-15.126771068154994,2.361281861073621,5.572190459120975-6.359456008790403,10.4473235313435-13.257712524017734,13.633093394999378-21.214511907468477,1.605663899803403-4.0100083699881,2.784852204735216-8.262334502345766,3.340827270394584-12.548828817200956.436797462656614-3.366942073977953-1.968450311140259-7.016694656726031-5.497137976779413-7.368585795961735-3.461105191905517-.345108806845928-6.900611869303248,1.890060844977597-7.368526746600764,5.497183884683182-.223415688387831,1.722582763773971-.557785272021647,3.422333194919702-.982115728993449,5.104298196733907-.995566944491657,3.324705033290229-2.330420703419804,6.534705765966464-3.96348257531281,9.59794165117728-.227138035223106.425960810053766-.459426244669885.849101874998269-.696641572365479,1.269501869165651-.049805098140496.08837334385953-.100869857844373.176051585734967-.151134209419979.26416262366638-.479330560257949.778677821523161-.961324999729186,1.55481090921603-1.467036698009906,2.316910455341713-1.033117160888651,1.556977273485245-2.129940703523971,3.070868399768187-3.275184722384438,4.547115049354034-2.519607700727647,3.247687539614162-5.270631156552554,6.309066028810776-8.125875484780408,9.263459169970702-.645904883398543.668359629766201-1.29740657631919,1.331183767131733-1.953028757512584,1.99004650932784-.103403659744799.103879019928172-.207168186390845.207430113835471-.310808043579527.311125502168579-.352791238226928.347030392124907-.705175614433756.694756060678628-1.059049453364423,1.040802674742736-1.51920783982132,1.485598980580107-3.052502979051496,2.956598290031252-4.585804689009819,4.427545120849572-1.208199592430901,1.159044325133436-2.305492098952527,2.46485245083295-2.481038380336031,4.224935484095113-.170066465683703,1.706788498853712.152434395417004,3.526465625143828,1.272268112790698,4.887645802160478,9.14506580732268,11.115500135711045,17.767005908348438,22.653938428320544,25.835393164463312,34.574084962318921,1.909273668989044,2.820867248273316,6.53024798853221,3.371420937543917,9.112469758263614,1.208730930384263,2.82767446852813-2.368304273132708,3.250937155131396-6.095361159423192,1.208671881020564-9.112515666163745-5.985365595384792-8.843120713898315-12.277302217238685-17.474946822678248-18.85971523673652-25.881023385739354,16.086895251279202-3.212204874732379,32.391077729989775-5.235599107591042,48.719487192876841-6.773466697638469,9.414247060507478-.886698717109539,18.842249685523711-1.616708165896853,28.270556831947033-2.333217203688037,9.344038736158836-.710115483566369,18.688808161065026-1.536146258948065,28.047376179827552-2.027200183479181,3.609520746969793-.189377606267044,7.217983489848848-.355703167580941,10.807905431182007-.629241522986376-2.73833961795026,2.917475806242692-5.238930400464596,6.034379360920866-7.341034171375213,9.439959340076712-1.912530200725087,3.09849399392715-3.602449659028935,6.279768970855912-4.79060590662084,9.728261177416243-.574504815909677,1.667721167602394-.722398144675026,3.376210730015373-.027844033444126,5.050376623843476.599249372722625,1.444270623091143,1.958730169235423,2.920424762253788,3.446003030328939,3.482823935538363,3.096177463114145,1.170759043496219,7.351082610521189.013426862929919,8.533259608739172-3.418113088984683.583978415201273-1.69507829185568,1.272767731321437-3.349125563563575,2.076137811995068-4.952225098517374.398921146444991-.795953524896504.854035479298545-1.558593760879376,1.269529173505362-2.344789400601258-.123581852980351.233902282782765-.220088105503237.415856972990696-.293938359489403.554839050204464.107688067535491-.196520170245094.23325963104071-.420491024969124.313521465246595-.547430259684916.178236499807099-.281840798745179.359491000544949-.561714215814391.543540446236875-.83969892553614,1.950543859245954-2.945588245804174,4.22084108548006-5.669395928610356,6.663393758994061-8.217929494057898.25722163489263-.268277762185789.518111075351044-.532803956499265.777307709311572-.79893044374694.028320434241323-.02753153935646.056391529578832-.055351667563627.084711963818336-.082883206917359.654321408914257-.636046807465391,1.318563633851227-1.261822689379187,1.990823953789004-1.87890165574845,1.30821135908991-1.200615802225002,2.647097625700553-2.367388295944693,4.005590024673438-3.510391371989499,2.752494542823115-2.315717080961804,5.586300899187336-4.532027483985985,8.429123403959238-6.735075417889675,1.621728346315649-1.256820385300671,2.470705351206561-3.075477622108338,2.488856737827518-5.096485129914072.016882130445083-1.876188760194964-.744692161986677-4.143522089798353-2.451818383693535-5.194937168077558Z"/>
  <path class="cls-2" d="M197.706932394179603,90.689778385075442c-6.465993095256636-3.982091057403522-12.510700949049351-8.626644280745495-18.010007386197685-13.86445085286141-.659532811474492-.628194697765139-1.295238289789268-1.281492817010985-1.954908737741789-1.909083966921571,1.502459506773448,1.429522675543922.207258489823289.201966144084508-.104584530392458-.12095806670095-.337340598365699-.349473861961087-.672510296819382-.701191686868697-1.005187652845052-1.055140420486168-1.289346146124444-1.371510297501118-2.542809411239432-2.776562638293399-3.759090534949792-4.213294249070714-2.472371402072895-2.920660814974326-4.782619831461489-5.973446887074715-6.934703194488975-9.137181737229184-1.915832712718839-2.81620830891552-6.526017542255431-3.375095401067483-9.112574715520168-1.208717788920694-2.82256511423293,2.363986750142431-3.257889744976637,6.100282579152008-1.208776838280755,9.112528807624585,6.148762649929267,9.038745753154217,13.663561479701457,17.222064024130304,22.165436354429403,24.154149647439226-6.160468449590553.857313479604272-12.4196484741733,1.025007813993398-18.629594763828209,1.357741595361404-9.005510753559065.48245370967561-17.99806140833789,1.273605094787854-26.99010943110261,1.95638523098296-18.20532193373765,1.382385996571429-36.42289008287662,2.803189839044535-54.517154677309009,5.29137176848144-5.056099906321833.695265577637656-10.100643117175423,1.476871468374156-15.126771068154994,2.361281861073621,5.572190459120975-6.359456008790403,10.4473235313435-13.257712524017734,13.633093394999378-21.214511907468477,1.605663899803403-4.0100083699881,2.784852204735216-8.262334502345766,3.340827270394584-12.548828817200956.436797462656614-3.366942073977953-1.968450311140259-7.016694656726031-5.497137976779413-7.368585795961735-3.461105191905517-.345108806845928-6.900611869303248,1.890060844977597-7.368526746600764,5.497183884683182-.223415688387831,1.722582763773971-.557785272021647,3.422333194919702-.982115728993449,5.104298196733907-.995566944491657,3.324705033290229-2.330420703419804,6.534705765966464-3.96348257531281,9.59794165117728-.227138035223106.425960810053766-.459426244669885.849101874998269-.696641572365479,1.269501869165651-.049805098140496.08837334385953-.100869857844373.176051585734967-.151134209419979.26416262366638-.479330560257949.778677821523161-.961324999729186,1.55481090921603-1.467036698009906,2.316910455341713-1.033117160888651,1.556977273485245-2.129940703523971,3.070868399768187-3.275184722384438,4.547115049354034-2.519607700727647,3.247687539614162-5.270631156552554,6.309066028810776-8.125875484780408,9.263459169970702-.645904883398543.668359629766201-1.29740657631919,1.331183767131733-1.953028757512584,1.99004650932784-.103403659744799.103879019928172-.207168186390845.207430113835471-.310808043579527.311125502168579-.352791238226928.347030392124907-.705175614433756.694756060678628-1.059049453364423,1.040802674742736-1.51920783982132,1.485598980580107-3.052502979051496,2.956598290031252-4.585804689009819,4.427545120849572-1.208199592430901,1.159044325133436-2.305492098952527,2.46485245083295-2.481038380336031,4.224935484095113-.170066465683703,1.706788498853712.152434395417004,3.526465625143828,1.272268112790698,4.887645802160478,9.14506580732268,11.115500135711045,17.767005908348438,22.653938428320544,25.835393164463312,34.574084962318921,1.909273668989044,2.820867248273316,6.53024798853221,3.371420937543917,9.112469758263614,1.208730930384263,2.82767446852813-2.368304273132708,3.250937155131396-6.095361159423192,1.208671881020564-9.112515666163745-5.985365595384792-8.843120713898315-12.277302217238685-17.474946822678248-18.85971523673652-25.881023385739354,16.086895251279202-3.212204874732379,32.391077729989775-5.235599107591042,48.719487192876841-6.773466697638469,9.414247060507478-.886698717109539,18.842249685523711-1.616708165896853,28.270556831947033-2.333217203688037,9.344038736158836-.710115483566369,18.688808161065026-1.536146258948065,28.047376179827552-2.027200183479181,3.609520746969793-.189377606267044,7.217983489848848-.355703167580941,10.807905431182007-.629241522986376-2.73833961795026,2.917475806242692-5.238930400464596,6.034379360920866-7.341034171375213,9.439959340076712-1.912530200725087,3.09849399392715-3.602449659028935,6.279768970855912-4.79060590662084,9.728261177416243-.574504815909677,1.667721167602394-.722398144675026,3.376210730015373-.027844033444126,5.050376623843476.599249372722625,1.444270623091143,1.958730169235423,2.920424762253788,3.446003030328939,3.482823935538363,3.096177463114145,1.170759043496219,7.351082610521189.013426862929919,8.533259608739172-3.418113088984683.583978415201273-1.69507829185568,1.272767731321437-3.349125563563575,2.076137811995068-4.952225098517374.398921146444991-.795953524896504.854035479298545-1.558593760879376,1.269529173505362-2.344789400601258-.123581852980351.233902282782765-.220088105503237.415856972990696-.293938359489403.554839050204464.107688067535491-.196520170245094.23325963104071-.420491024969124.313521465246595-.547430259684916.178236499807099-.281840798745179.359491000544949-.561714215814391.543540446236875-.83969892553614,1.950543859245954-2.945588245804174,4.22084108548006-5.669395928610356,6.663393758994061-8.217929494057898.25722163489263-.268277762185789.518111075351044-.532803956499265.777307709311572-.79893044374694.028320434241323-.02753153935646.056391529578832-.055351667563627.084711963818336-.082883206917359.654321408914257-.636046807465391,1.318563633851227-1.261822689379187,1.990823953789004-1.87890165574845,1.30821135908991-1.200615802225002,2.647097625700553-2.367388295944693,4.005590024673438-3.510391371989499,2.752494542823115-2.315717080961804,5.586300899187336-4.532027483985985,8.429123403959238-6.735075417889675,1.621728346315649-1.256820385300671,2.470705351206561-3.075477622108338,2.488856737827518-5.096485129914072.016882130445083-1.876188760194964-.744692161986677-4.143522089798353-2.451818383693535-5.194937168077558Z"/>
  <path class="cls-3" d="M197.706932394179603,90.689778385075442c-6.465993095256636-3.982091057403522-12.510700949049351-8.626644280745495-18.010007386197685-13.86445085286141-.659532811474492-.628194697765139-1.295238289789268-1.281492817010985-1.954908737741789-1.909083966921571,1.502459506773448,1.429522675543922.207258489823289.201966144084508-.104584530392458-.12095806670095-.337340598365699-.349473861961087-.672510296819382-.701191686868697-1.005187652845052-1.055140420486168-1.289346146124444-1.371510297501118-2.542809411239432-2.776562638293399-3.759090534949792-4.213294249070714-2.472371402072895-2.920660814974326-4.782619831461489-5.973446887074715-6.934703194488975-9.137181737229184-1.915832712718839-2.81620830891552-6.526017542255431-3.375095401067483-9.112574715520168-1.208717788920694-2.82256511423293,2.363986750142431-3.257889744976637,6.100282579152008-1.208776838280755,9.112528807624585,6.148762649929267,9.038745753154217,13.663561479701457,17.222064024130304,22.165436354429403,24.154149647439226-6.160468449590553.857313479604272-12.4196484741733,1.025007813993398-18.629594763828209,1.357741595361404-9.005510753559065.48245370967561-17.99806140833789,1.273605094787854-26.99010943110261,1.95638523098296-18.20532193373765,1.382385996571429-36.42289008287662,2.803189839044535-54.517154677309009,5.29137176848144-5.056099906321833.695265577637656-10.100643117175423,1.476871468374156-15.126771068154994,2.361281861073621,5.572190459120975-6.359456008790403,10.4473235313435-13.257712524017734,13.633093394999378-21.214511907468477,1.605663899803403-4.0100083699881,2.784852204735216-8.262334502345766,3.340827270394584-12.548828817200956.436797462656614-3.366942073977953-1.968450311140259-7.016694656726031-5.497137976779413-7.368585795961735-3.461105191905517-.345108806845928-6.900611869303248,1.890060844977597-7.368526746600764,5.497183884683182-.223415688387831,1.722582763773971-.557785272021647,3.422333194919702-.982115728993449,5.104298196733907-.995566944491657,3.324705033290229-2.330420703419804,6.534705765966464-3.96348257531281,9.59794165117728-.227138035223106.425960810053766-.459426244669885.849101874998269-.696641572365479,1.269501869165651-.049805098140496.08837334385953-.100869857844373.176051585734967-.151134209419979.26416262366638-.479330560257949.778677821523161-.961324999729186,1.55481090921603-1.467036698009906,2.316910455341713-1.033117160888651,1.556977273485245-2.129940703523971,3.070868399768187-3.275184722384438,4.547115049354034-2.519607700727647,3.247687539614162-5.270631156552554,6.309066028810776-8.125875484780408,9.263459169970702-.645904883398543.668359629766201-1.29740657631919,1.331183767131733-1.953028757512584,1.99004650932784-.103403659744799.103879019928172-.207168186390845.207430113835471-.310808043579527.311125502168579-.352791238226928.347030392124907-.705175614433756.694756060678628-1.059049453364423,1.040802674742736-1.51920783982132,1.485598980580107-3.052502979051496,2.956598290031252-4.585804689009819,4.427545120849572-1.208199592430901,1.159044325133436-2.305492098952527,2.46485245083295-2.481038380336031,4.224935484095113-.170066465683703,1.706788498853712.152434395417004,3.526465625143828,1.272268112790698,4.887645802160478,9.14506580732268,11.115500135711045,17.767005908348438,22.653938428320544,25.835393164463312,34.574084962318921,1.909273668989044,2.820867248273316,6.53024798853221,3.371420937543917,9.112469758263614,1.208730930384263,2.82767446852813-2.368304273132708,3.250937155131396-6.095361159423192,1.208671881020564-9.112515666163745-5.985365595384792-8.843120713898315-12.277302217238685-17.474946822678248-18.85971523673652-25.881023385739354,16.086895251279202-3.212204874732379,32.391077729989775-5.235599107591042,48.719487192876841-6.773466697638469,9.414247060507478-.886698717109539,18.842249685523711-1.616708165896853,28.270556831947033-2.333217203688037,9.344038736158836-.710115483566369,18.688808161065026-1.536146258948065,28.047376179827552-2.027200183479181,3.609520746969793-.189377606267044,7.217983489848848-.355703167580941,10.807905431182007-.629241522986376-2.73833961795026,2.917475806242692-5.238930400464596,6.034379360920866-7.341034171375213,9.439959340076712-1.912530200725087,3.09849399392715-3.602449659028935,6.279768970855912-4.79060590662084,9.728261177416243-.574504815909677,1.667721167602394-.722398144675026,3.376210730015373-.027844033444126,5.050376623843476.599249372722625,1.444270623091143,1.958730169235423,2.920424762253788,3.446003030328939,3.482823935538363,3.096177463114145,1.170759043496219,7.351082610521189.013426862929919,8.533259608739172-3.418113088984683.583978415201273-1.69507829185568,1.272767731321437-3.349125563563575,2.076137811995068-4.952225098517374.398921146444991-.795953524896504.854035479298545-1.558593760879376,1.269529173505362-2.344789400601258-.123581852980351.233902282782765-.220088105503237.415856972990696-.293938359489403.554839050204464.107688067535491-.196520170245094.23325963104071-.420491024969124.313521465246595-.547430259684916.178236499807099-.281840798745179.359491000544949-.561714215814391.543540446236875-.83969892553614,1.950543859245954-2.945588245804174,4.22084108548006-5.669395928610356,6.663393758994061-8.217929494057898.25722163489263-.268277762185789.518111075351044-.532803956499265.777307709311572-.79893044374694.028320434241323-.02753153935646.056391529578832-.055351667563627.084711963818336-.082883206917359.654321408914257-.636046807465391,1.318563633851227-1.261822689379187,1.990823953789004-1.87890165574845,1.30821135908991-1.200615802225002,2.647097625700553-2.367388295944693,4.005590024673438-3.510391371989499,2.752494542823115-2.315717080961804,5.586300899187336-4.532027483985985,8.429123403959238-6.735075417889675,1.621728346315649-1.256820385300671,2.470705351206561-3.075477622108338,2.488856737827518-5.096485129914072.016882130445083-1.876188760194964-.744692161986677-4.143522089798353-2.451818383693535-5.194937168077558Z"/>
</svg>