<?xml version="1.0" encoding="UTF-8"?>
<svg id="Content" xmlns="http://www.w3.org/2000/svg" viewBox="0 0 280 280">
  <defs>
    <style>
      .cls-1 {
        stroke: #665451;
        stroke-width: 50px;
      }

      .cls-1, .cls-2 {
        fill: none;
        stroke-linecap: round;
        stroke-linejoin: round;
      }

      .cls-3 {
        fill: #fff;
      }

      .cls-2 {
        stroke: #998675;
        stroke-width: 2px;
      }
    </style>
  </defs>
  <path class="cls-1" d="M197.706932394179603,90.689778385075442c-6.465993095256636-3.982091057403522-12.510700949049351-8.626644280745495-18.010007386197685-13.86445085286141-.659532811473582-.628194697765139-1.295238289790177-1.281492817010985-1.954908737741789-1.909083966921571,1.502459506774358,1.429522675543922.207258489824198.201966144084508-.104584530393367-.12095806670095-.33734059836388-.349473861961087-.672510296818473-.701191686868697-1.005187652845052-1.055140420486168-1.289346146122625-1.371510297501118-2.542809411239432-2.776562638293399-3.759090534947973-4.213294249070714-2.472371402073804-2.920660814974326-4.782619831463307-5.973446887074715-6.934703194488975-9.137181737229184-1.915832712718839-2.81620830891552-6.52601754225725-3.375095401067483-9.112574715521987-1.208717788920694-2.82256511423202,2.363986750142431-3.257889744975728,6.100282579152008-1.208776838280755,9.112528807624585,6.148762649931086,9.038745753154217,13.663561479703276,17.222064024130304,22.165436354430312,24.154149647439226-6.160468449591463.857313479604272-12.41964847417421,1.025007813993398-18.629594763827299,1.357741595361404-9.005510753559065.48245370967561-17.998061408338799,1.273605094787854-26.99010943110261,1.95638523098296-18.20532193373856,1.382385996571429-36.422890082877529,2.803189839044535-54.517154677310828,5.29137176848144-5.056099906320924.695265577637656-10.100643117174513,1.476871468374156-15.126771068154085,2.361281861073621,5.572190459121884-6.359456008790403,10.44732353134259-13.257712524017734,13.633093394998468-21.214511907468477,1.605663899804313-4.0100083699881,2.784852204736126-8.262334502345766,3.340827270395494-12.548828817200956.436797462656614-3.366942073977953-1.968450311141169-7.016694656726031-5.497137976778504-7.368585795961735-3.461105191905517-.345108806845928-6.900611869305067,1.890060844977597-7.368526746601674,5.497183884683182-.223415688386922,1.722582763773971-.557785272022556,3.422333194919702-.98211572899254,5.104298196733907-.995566944492566,3.324705033290229-2.330420703421623,6.534705765966464-3.963482575313719,9.59794165117728-.227138035223106.425960810053766-.459426244670794.849101874998269-.696641572365479,1.269501869165651-.049805098139586.08837334385953-.100869857844373.176051585734967-.151134209419979.26416262366638-.479330560258859.778677821523161-.961324999729186,1.55481090921603-1.467036698008997,2.316910455341713-1.03311716089047,1.556977273485245-2.129940703524881,3.070868399768187-3.275184722384438,4.547115049354034-2.519607700727647,3.247687539614162-5.270631156552554,6.309066028810776-8.125875484782227,9.263459169970702-.645904883397634.668359629766201-1.297406576317371,1.331183767131733-1.953028757511674,1.99004650932784-.103403659744799.103879019928172-.207168186391755.207430113835471-.310808043580437.311125502168579-.352791238225109.347030392124907-.705175614432846.694756060678628-1.059049453363514,1.040802674742736-1.51920783982041,1.485598980580107-3.052502979052406,2.956598290031252-4.585804689009819,4.427545120849572-1.208199592431811,1.159044325133436-2.305492098953437,2.46485245083295-2.481038380336031,4.224935484095113-.170066465682794,1.706788498853712.152434395417913,3.526465625143828,1.272268112789789,4.887645802160478,9.145065807324499,11.115500135711045,17.767005908349347,22.653938428320544,25.835393164464222,34.574084962318921,1.909273668988135,2.820867248273316,6.530247988531301,3.371420937543917,9.112469758262705,1.208730930384263,2.827674468529949-2.368304273132708,3.250937155133215-6.095361159423192,1.208671881021473-9.112515666163745-5.985365595383882-8.843120713898315-12.277302217238685-17.474946822678248-18.859715236737429-25.881023385739354,16.086895251281021-3.212204874732379,32.391077729991594-5.235599107591042,48.71948719287775-6.773466697638469,9.414247060506568-.886698717109539,18.842249685523711-1.616708165896853,28.270556831947943-2.333217203688037,9.344038736157927-.710115483566369,18.688808161064117-1.536146258948065,28.047376179827552-2.027200183479181,3.609520746967974-.189377606267044,7.217983489848848-.355703167580941,10.807905431181098-.629241522986376-2.73833961794935,2.917475806242692-5.238930400465506,6.034379360920866-7.341034171375213,9.439959340076712-1.912530200725087,3.09849399392715-3.602449659028025,6.279768970855912-4.79060590662084,9.728261177416243-.574504815908767,1.667721167602394-.722398144674116,3.376210730015373-.027844033444126,5.050376623843476.599249372721715,1.444270623091143,1.958730169234514,2.920424762253788,3.446003030329848,3.482823935538363,3.096177463114145,1.170759043496219,7.35108261052028.013426862929919,8.533259608737353-3.418113088984683.583978415203092-1.69507829185568,1.272767731322347-3.349125563563575,2.076137811995977-4.952225098517374.3989211464459-.795953524896504.854035479297636-1.558593760879376,1.269529173504452-2.344789400601258-.123581852979441.233902282782765-.220088105502327.415856972990696-.293938359487584.554839050204464.107688067535491-.196520170245094.2332596310398-.420491024969124.313521465245685-.547430259684916.178236499807099-.281840798745179.359491000544949-.561714215814391.543540446236875-.83969892553614,1.950543859245954-2.945588245804174,4.220841085479151-5.669395928610356,6.663393758994061-8.217929494057898.25722163489354-.268277762185789.518111075351953-.532803956499265.777307709312481-.79893044374694.028320434239504-.02753153935646.056391529577922-.055351667563627.084711963817426-.082883206917359.654321408914257-.636046807465391,1.318563633850317-1.261822689379187,1.990823953789914-1.87890165574845,1.30821135908991-1.200615802225002,2.647097625698734-2.367388295944693,4.005590024673438-3.510391371989499,2.752494542822205-2.315717080961804,5.586300899186426-4.532027483985985,8.429123403959238-6.735075417889675,1.621728346315649-1.256820385300671,2.470705351204742-3.075477622108338,2.488856737826609-5.096485129914072.016882130445083-1.876188760194964-.744692161985768-4.143522089798353-2.451818383693535-5.194937168077558Z"/>
  <path class="cls-2" d="M197.706932394179603,90.689778385075442c-6.465993095256636-3.982091057403522-12.510700949049351-8.626644280745495-18.010007386197685-13.86445085286141-.659532811473582-.628194697765139-1.295238289790177-1.281492817010985-1.954908737741789-1.909083966921571,1.502459506774358,1.429522675543922.207258489824198.201966144084508-.104584530393367-.12095806670095-.33734059836388-.349473861961087-.672510296818473-.701191686868697-1.005187652845052-1.055140420486168-1.289346146122625-1.371510297501118-2.542809411239432-2.776562638293399-3.759090534947973-4.213294249070714-2.472371402073804-2.920660814974326-4.782619831463307-5.973446887074715-6.934703194488975-9.137181737229184-1.915832712718839-2.81620830891552-6.52601754225725-3.375095401067483-9.112574715521987-1.208717788920694-2.82256511423202,2.363986750142431-3.257889744975728,6.100282579152008-1.208776838280755,9.112528807624585,6.148762649931086,9.038745753154217,13.663561479703276,17.222064024130304,22.165436354430312,24.154149647439226-6.160468449591463.857313479604272-12.41964847417421,1.025007813993398-18.629594763827299,1.357741595361404-9.005510753559065.48245370967561-17.998061408338799,1.273605094787854-26.99010943110261,1.95638523098296-18.20532193373856,1.382385996571429-36.422890082877529,2.803189839044535-54.517154677310828,5.29137176848144-5.056099906320924.695265577637656-10.100643117174513,1.476871468374156-15.126771068154085,2.361281861073621,5.572190459121884-6.359456008790403,10.44732353134259-13.257712524017734,13.633093394998468-21.214511907468477,1.605663899804313-4.0100083699881,2.784852204736126-8.262334502345766,3.340827270395494-12.548828817200956.436797462656614-3.366942073977953-1.968450311141169-7.016694656726031-5.497137976778504-7.368585795961735-3.461105191905517-.345108806845928-6.900611869305067,1.890060844977597-7.368526746601674,5.497183884683182-.223415688386922,1.722582763773971-.557785272022556,3.422333194919702-.98211572899254,5.104298196733907-.995566944492566,3.324705033290229-2.330420703421623,6.534705765966464-3.963482575313719,9.59794165117728-.227138035223106.425960810053766-.459426244670794.849101874998269-.696641572365479,1.269501869165651-.049805098139586.08837334385953-.100869857844373.176051585734967-.151134209419979.26416262366638-.479330560258859.778677821523161-.961324999729186,1.55481090921603-1.467036698008997,2.316910455341713-1.03311716089047,1.556977273485245-2.129940703524881,3.070868399768187-3.275184722384438,4.547115049354034-2.519607700727647,3.247687539614162-5.270631156552554,6.309066028810776-8.125875484782227,9.263459169970702-.645904883397634.668359629766201-1.297406576317371,1.331183767131733-1.953028757511674,1.99004650932784-.103403659744799.103879019928172-.207168186391755.207430113835471-.310808043580437.311125502168579-.352791238225109.347030392124907-.705175614432846.694756060678628-1.059049453363514,1.040802674742736-1.51920783982041,1.485598980580107-3.052502979052406,2.956598290031252-4.585804689009819,4.427545120849572-1.208199592431811,1.159044325133436-2.305492098953437,2.46485245083295-2.481038380336031,4.224935484095113-.170066465682794,1.706788498853712.152434395417913,3.526465625143828,1.272268112789789,4.887645802160478,9.145065807324499,11.115500135711045,17.767005908349347,22.653938428320544,25.835393164464222,34.574084962318921,1.909273668988135,2.820867248273316,6.530247988531301,3.371420937543917,9.112469758262705,1.208730930384263,2.827674468529949-2.368304273132708,3.250937155133215-6.095361159423192,1.208671881021473-9.112515666163745-5.985365595383882-8.843120713898315-12.277302217238685-17.474946822678248-18.859715236737429-25.881023385739354,16.086895251281021-3.212204874732379,32.391077729991594-5.235599107591042,48.71948719287775-6.773466697638469,9.414247060506568-.886698717109539,18.842249685523711-1.616708165896853,28.270556831947943-2.333217203688037,9.344038736157927-.710115483566369,18.688808161064117-1.536146258948065,28.047376179827552-2.027200183479181,3.609520746967974-.189377606267044,7.217983489848848-.355703167580941,10.807905431181098-.629241522986376-2.73833961794935,2.917475806242692-5.238930400465506,6.034379360920866-7.341034171375213,9.439959340076712-1.912530200725087,3.09849399392715-3.602449659028025,6.279768970855912-4.79060590662084,9.728261177416243-.574504815908767,1.667721167602394-.722398144674116,3.376210730015373-.027844033444126,5.050376623843476.599249372721715,1.444270623091143,1.958730169234514,2.920424762253788,3.446003030329848,3.482823935538363,3.096177463114145,1.170759043496219,7.35108261052028.013426862929919,8.533259608737353-3.418113088984683.583978415203092-1.69507829185568,1.272767731322347-3.349125563563575,2.076137811995977-4.952225098517374.3989211464459-.795953524896504.854035479297636-1.558593760879376,1.269529173504452-2.344789400601258-.123581852979441.233902282782765-.220088105502327.415856972990696-.293938359487584.554839050204464.107688067535491-.196520170245094.2332596310398-.420491024969124.313521465245685-.547430259684916.178236499807099-.281840798745179.359491000544949-.561714215814391.543540446236875-.83969892553614,1.950543859245954-2.945588245804174,4.220841085479151-5.669395928610356,6.663393758994061-8.217929494057898.25722163489354-.268277762185789.518111075351953-.532803956499265.777307709312481-.79893044374694.028320434239504-.02753153935646.056391529577922-.055351667563627.084711963817426-.082883206917359.654321408914257-.636046807465391,1.318563633850317-1.261822689379187,1.990823953789914-1.87890165574845,1.30821135908991-1.200615802225002,2.647097625698734-2.367388295944693,4.005590024673438-3.510391371989499,2.752494542822205-2.315717080961804,5.586300899186426-4.532027483985985,8.429123403959238-6.735075417889675,1.621728346315649-1.256820385300671,2.470705351204742-3.075477622108338,2.488856737826609-5.096485129914072.016882130445083-1.876188760194964-.744692161985768-4.143522089798353-2.451818383693535-5.194937168077558Z"/>
  <path class="cls-3" d="M197.706932394179603,90.689778385075442c-6.465993095256636-3.982091057403522-12.510700949049351-8.626644280745495-18.010007386197685-13.86445085286141-.659532811473582-.628194697765139-1.295238289790177-1.281492817010985-1.954908737741789-1.909083966921571,1.502459506774358,1.429522675543922.207258489824198.201966144084508-.104584530393367-.12095806670095-.33734059836388-.349473861961087-.672510296818473-.701191686868697-1.005187652845052-1.055140420486168-1.289346146122625-1.371510297501118-2.542809411239432-2.776562638293399-3.759090534947973-4.213294249070714-2.472371402073804-2.920660814974326-4.782619831463307-5.973446887074715-6.934703194488975-9.137181737229184-1.915832712718839-2.81620830891552-6.52601754225725-3.375095401067483-9.112574715521987-1.208717788920694-2.82256511423202,2.363986750142431-3.257889744975728,6.100282579152008-1.208776838280755,9.112528807624585,6.148762649931086,9.038745753154217,13.663561479703276,17.222064024130304,22.165436354430312,24.154149647439226-6.160468449591463.857313479604272-12.41964847417421,1.025007813993398-18.629594763827299,1.357741595361404-9.005510753559065.48245370967561-17.998061408338799,1.273605094787854-26.99010943110261,1.95638523098296-18.20532193373856,1.382385996571429-36.422890082877529,2.803189839044535-54.517154677310828,5.29137176848144-5.056099906320924.695265577637656-10.100643117174513,1.476871468374156-15.126771068154085,2.361281861073621,5.572190459121884-6.359456008790403,10.44732353134259-13.257712524017734,13.633093394998468-21.214511907468477,1.605663899804313-4.0100083699881,2.784852204736126-8.262334502345766,3.340827270395494-12.548828817200956.436797462656614-3.366942073977953-1.968450311141169-7.016694656726031-5.497137976778504-7.368585795961735-3.461105191905517-.345108806845928-6.900611869305067,1.890060844977597-7.368526746601674,5.497183884683182-.223415688386922,1.722582763773971-.557785272022556,3.422333194919702-.98211572899254,5.104298196733907-.995566944492566,3.324705033290229-2.330420703421623,6.534705765966464-3.963482575313719,9.59794165117728-.227138035223106.425960810053766-.459426244670794.849101874998269-.696641572365479,1.269501869165651-.049805098139586.08837334385953-.100869857844373.176051585734967-.151134209419979.26416262366638-.479330560258859.778677821523161-.961324999729186,1.55481090921603-1.467036698008997,2.316910455341713-1.03311716089047,1.556977273485245-2.129940703524881,3.070868399768187-3.275184722384438,4.547115049354034-2.519607700727647,3.247687539614162-5.270631156552554,6.309066028810776-8.125875484782227,9.263459169970702-.645904883397634.668359629766201-1.297406576317371,1.331183767131733-1.953028757511674,1.99004650932784-.103403659744799.103879019928172-.207168186391755.207430113835471-.310808043580437.311125502168579-.352791238225109.347030392124907-.705175614432846.694756060678628-1.059049453363514,1.040802674742736-1.51920783982041,1.485598980580107-3.052502979052406,2.956598290031252-4.585804689009819,4.427545120849572-1.208199592431811,1.159044325133436-2.305492098953437,2.46485245083295-2.481038380336031,4.224935484095113-.170066465682794,1.706788498853712.152434395417913,3.526465625143828,1.272268112789789,4.887645802160478,9.145065807324499,11.115500135711045,17.767005908349347,22.653938428320544,25.835393164464222,34.574084962318921,1.909273668988135,2.820867248273316,6.530247988531301,3.371420937543917,9.112469758262705,1.208730930384263,2.827674468529949-2.368304273132708,3.250937155133215-6.095361159423192,1.208671881021473-9.112515666163745-5.985365595383882-8.843120713898315-12.277302217238685-17.474946822678248-18.859715236737429-25.881023385739354,16.086895251281021-3.212204874732379,32.391077729991594-5.235599107591042,48.71948719287775-6.773466697638469,9.414247060506568-.886698717109539,18.842249685523711-1.616708165896853,28.270556831947943-2.333217203688037,9.344038736157927-.710115483566369,18.688808161064117-1.536146258948065,28.047376179827552-2.027200183479181,3.609520746967974-.189377606267044,7.217983489848848-.355703167580941,10.807905431181098-.629241522986376-2.73833961794935,2.917475806242692-5.238930400465506,6.034379360920866-7.341034171375213,9.439959340076712-1.912530200725087,3.09849399392715-3.602449659028025,6.279768970855912-4.79060590662084,9.728261177416243-.574504815908767,1.667721167602394-.722398144674116,3.376210730015373-.027844033444126,5.050376623843476.599249372721715,1.444270623091143,1.958730169234514,2.920424762253788,3.446003030329848,3.482823935538363,3.096177463114145,1.170759043496219,7.35108261052028.013426862929919,8.533259608737353-3.418113088984683.583978415203092-1.69507829185568,1.272767731322347-3.349125563563575,2.076137811995977-4.952225098517374.3989211464459-.795953524896504.854035479297636-1.558593760879376,1.269529173504452-2.344789400601258-.123581852979441.233902282782765-.220088105502327.415856972990696-.293938359487584.554839050204464.107688067535491-.196520170245094.2332596310398-.420491024969124.313521465245685-.547430259684916.178236499807099-.281840798745179.359491000544949-.561714215814391.543540446236875-.83969892553614,1.950543859245954-2.945588245804174,4.220841085479151-5.669395928610356,6.663393758994061-8.217929494057898.25722163489354-.268277762185789.518111075351953-.532803956499265.777307709312481-.79893044374694.028320434239504-.02753153935646.056391529577922-.055351667563627.084711963817426-.082883206917359.654321408914257-.636046807465391,1.318563633850317-1.261822689379187,1.990823953789914-1.87890165574845,1.30821135908991-1.200615802225002,2.647097625698734-2.367388295944693,4.005590024673438-3.510391371989499,2.752494542822205-2.315717080961804,5.586300899186426-4.532027483985985,8.429123403959238-6.735075417889675,1.621728346315649-1.256820385300671,2.470705351204742-3.075477622108338,2.488856737826609-5.096485129914072.016882130445083-1.876188760194964-.744692161985768-4.143522089798353-2.451818383693535-5.194937168077558Z"/>
</svg>