<?xml version="1.0" encoding="UTF-8"?>
<svg id="Content" xmlns="http://www.w3.org/2000/svg" viewBox="0 0 280 280">
  <defs>
    <style>
      .cls-1 {
        stroke: #665451;
        stroke-width: 50px;
      }

      .cls-1, .cls-2 {
        fill: none;
        stroke-linecap: round;
        stroke-linejoin: round;
      }

      .cls-3 {
        fill: #fff;
      }

      .cls-2 {
        stroke: #998675;
        stroke-width: 2px;
      }
    </style>
  </defs>
  <path class="cls-1" d="M197.706932394179603,90.689778385074533c-6.465993095260274-3.982091057402613-12.510700949049351-8.626644280744586-18.010007386199504-13.8644508528605-.659532811470854-.628194697765139-1.295238289791087-1.281492817010985-1.95490873773997-1.909083966921571,1.50245950676981,1.429522675543922.207258489819651.201966144084508-.104584530390639-.12095806670186-.337340598369337-.349473861960178-.672510296819382-.701191686867787-1.005187652850509-1.055140420485259-1.289346146118987-1.371510297501118-2.542809411239432-2.776562638293399-3.759090534949792-4.213294249070714-2.472371402069257-2.920660814974326-4.78261983145967-5.973446887074715-6.934703194488975-9.137181737230094-1.915832712709744-2.816208308914611-6.526017542249974-3.375095401066574-9.112574715520168-1.208717788919785-2.822565114229292,2.363986750142431-3.257889744969361,6.100282579152008-1.208776838280755,9.112528807624585,6.148762649931086,9.038745753154217,13.663561479701457,17.222064024130304,22.165436354431222,24.154149647440136-6.160468449590553.857313479603363-12.419648474171481,1.025007813992488-18.629594763830028,1.357741595360494-9.00551075354997.48245370967561-17.998061408330614,1.273605094787854-26.990109431100791,1.95638523098296-18.205321933739469,1.382385996571429-36.422890082869344,2.803189839044535-54.517154677309009,5.29137176848144-5.056099906320014.695265577637656-10.100643117169966,1.476871468374156-15.126771068151356,2.361281861073621,5.572190459120975-6.359456008790403,10.447323531341681-13.257712524017734,13.633093395001197-21.214511907469387,1.605663899799765-4.01000836998719,2.784852204729759-8.262334502344856,3.340827270389127-12.548828817200047.436797462660252-3.366942073977953-1.968450311140259-7.016694656726941-5.497137976779413-7.368585795961735-3.46110519190006-.345108806845928-6.90061186929961,1.890060844977597-7.368526746600764,5.497183884683182-.22341568838965,1.722582763773971-.557785272019828,3.422333194919702-.982115728989811,5.104298196733907-.995566944489838,3.324705033290229-2.330420703419804,6.534705765966464-3.963482575309172,9.59794165117728-.227138035230382.425960810053766-.459426244669885.849101874998269-.696641572370936,1.269501869165651-.049805098140496.08837334385953-.100869857838916.176051585734967-.151134209419979.26416262366638-.479330560259768.778677821523161-.961324999729186,1.55481090921603-1.467036698009906,2.316910455341713-1.033117160888651,1.556977273485245-2.129940703520333,3.070868399768187-3.275184722378981,4.547115049354034-2.519607700731285,3.247687539614162-5.270631156561649,6.309066028810776-8.125875484791322,9.263459169970702-.645904883389449.668359629766201-1.297406576310095,1.331183767131733-1.953028757508946,1.99004650932693-.103403659741161.103879019929082-.207168186390845.207430113836381-.310808043581346.311125502169489-.352791238219652.347030392124907-.705175614428299.694756060678628-1.059049453358966,1.040802674742736-1.519207839819501,1.485598980580107-3.052502979049677,2.956598290031252-4.585804689009819,4.427545120849572-1.208199592430901,1.159044325133436-2.305492098950708,2.46485245083295-2.481038380339669,4.224935484094203-.170066465680065,1.706788498854621.152434395418823,3.526465625144738,1.272268112788879,4.887645802161387,9.145065807329956,11.115500135711045,17.767005908350257,22.653938428321453,25.835393164470588,34.574084962318921,1.909273668989044,2.820867248273316,6.530247988530391,3.371420937543917,9.112469758259977,1.208730930384263,2.827674468529949-2.368304273132708,3.250937155129577-6.095361159423192,1.208671881020564-9.112515666163745-5.985365595381154-8.843120713898315-12.277302217240504-17.474946822678248-18.859715236740158-25.881023385739354,16.086895251279202-3.212204874732379,32.391077729989775-5.235599107591042,48.719487192880479-6.773466697638469,9.414247060509297-.886698717109539,18.842249685520073-1.616708165896853,28.270556831948852-2.333217203687127,9.344038736160655-.710115483567279,18.688808161059569-1.536146258949884,28.047376179829371-2.02720018348009,3.609520746971612-.189377606267044,7.217983489841572-.355703167580941,10.807905431180188-.629241522986376-2.738339617948441,2.917475806242692-5.238930400470053,6.034379360920866-7.341034171378851,9.439959340076712-1.912530200721449,3.09849399392715-3.602449659030754,6.279768970855912-4.79060590662084,9.728261177416243-.574504815909677,1.667721167602394-.722398144669569,3.376210730015373-.027844033440488,5.050376623843476.599249372720806,1.444270623091143,1.958730169229966,2.920424762253788,3.446003030330758,3.482823935538363,3.096177463110507,1.170759043496219,7.35108261051937.013426862929919,8.533259608739172-3.418113088984683.583978415201273-1.69507829185568,1.272767731321437-3.349125563563575,2.07613781199143-4.952225098517374.398921146448629-.795953524896504.854035479298545-1.558593760879376,1.269529173509-2.344789400602167-.123581852978532.233902282783674-.220088105510513.415856972991605-.293938359489403.554839050205373.107688067530034-.196520170245094.23325963104071-.420491024969124.313521465239319-.547430259684916.178236499810737-.281840798745179.359491000550406-.561714215814391.543540446240513-.83969892553614,1.950543859249592-2.945588245804174,4.22084108548006-5.669395928610356,6.663393758990424-8.217929494057898.257221634899906-.268277762185789.518111075360139-.532803956499265.777307709318848-.79893044374694.028320434241323-.02753153935646.056391529571556-.055351667563627.08471196381106-.082883206917359.654321408919714-.636046807465391,1.318563633860322-1.261822689380097,1.990823953789004-1.87890165574845,1.30821135908991-1.200615802225002,2.647097625700553-2.367388295943783,4.005590024680714-3.510391371989499,2.752494542819477-2.315717080961804,5.58630089918006-4.532027483985985,8.429123403959238-6.735075417889675,1.621728346310192-1.256820385300671,2.470705351201104-3.075477622108338,2.488856737820242-5.096485129914072.01688213045054-1.876188760194964-.744692161979401-4.143522089798353-2.451818383689897-5.194937168078468Z"/>
  <path class="cls-2" d="M197.706932394179603,90.689778385074533c-6.465993095260274-3.982091057402613-12.510700949049351-8.626644280744586-18.010007386199504-13.8644508528605-.659532811470854-.628194697765139-1.295238289791087-1.281492817010985-1.95490873773997-1.909083966921571,1.50245950676981,1.429522675543922.207258489819651.201966144084508-.104584530390639-.12095806670186-.337340598369337-.349473861960178-.672510296819382-.701191686867787-1.005187652850509-1.055140420485259-1.289346146118987-1.371510297501118-2.542809411239432-2.776562638293399-3.759090534949792-4.213294249070714-2.472371402069257-2.920660814974326-4.78261983145967-5.973446887074715-6.934703194488975-9.137181737230094-1.915832712709744-2.816208308914611-6.526017542249974-3.375095401066574-9.112574715520168-1.208717788919785-2.822565114229292,2.363986750142431-3.257889744969361,6.100282579152008-1.208776838280755,9.112528807624585,6.148762649931086,9.038745753154217,13.663561479701457,17.222064024130304,22.165436354431222,24.154149647440136-6.160468449590553.857313479603363-12.419648474171481,1.025007813992488-18.629594763830028,1.357741595360494-9.00551075354997.48245370967561-17.998061408330614,1.273605094787854-26.990109431100791,1.95638523098296-18.205321933739469,1.382385996571429-36.422890082869344,2.803189839044535-54.517154677309009,5.29137176848144-5.056099906320014.695265577637656-10.100643117169966,1.476871468374156-15.126771068151356,2.361281861073621,5.572190459120975-6.359456008790403,10.447323531341681-13.257712524017734,13.633093395001197-21.214511907469387,1.605663899799765-4.01000836998719,2.784852204729759-8.262334502344856,3.340827270389127-12.548828817200047.436797462660252-3.366942073977953-1.968450311140259-7.016694656726941-5.497137976779413-7.368585795961735-3.46110519190006-.345108806845928-6.90061186929961,1.890060844977597-7.368526746600764,5.497183884683182-.22341568838965,1.722582763773971-.557785272019828,3.422333194919702-.982115728989811,5.104298196733907-.995566944489838,3.324705033290229-2.330420703419804,6.534705765966464-3.963482575309172,9.59794165117728-.227138035230382.425960810053766-.459426244669885.849101874998269-.696641572370936,1.269501869165651-.049805098140496.08837334385953-.100869857838916.176051585734967-.151134209419979.26416262366638-.479330560259768.778677821523161-.961324999729186,1.55481090921603-1.467036698009906,2.316910455341713-1.033117160888651,1.556977273485245-2.129940703520333,3.070868399768187-3.275184722378981,4.547115049354034-2.519607700731285,3.247687539614162-5.270631156561649,6.309066028810776-8.125875484791322,9.263459169970702-.645904883389449.668359629766201-1.297406576310095,1.331183767131733-1.953028757508946,1.99004650932693-.103403659741161.103879019929082-.207168186390845.207430113836381-.310808043581346.311125502169489-.352791238219652.347030392124907-.705175614428299.694756060678628-1.059049453358966,1.040802674742736-1.519207839819501,1.485598980580107-3.052502979049677,2.956598290031252-4.585804689009819,4.427545120849572-1.208199592430901,1.159044325133436-2.305492098950708,2.46485245083295-2.481038380339669,4.224935484094203-.170066465680065,1.706788498854621.152434395418823,3.526465625144738,1.272268112788879,4.887645802161387,9.145065807329956,11.115500135711045,17.767005908350257,22.653938428321453,25.835393164470588,34.574084962318921,1.909273668989044,2.820867248273316,6.530247988530391,3.371420937543917,9.112469758259977,1.208730930384263,2.827674468529949-2.368304273132708,3.250937155129577-6.095361159423192,1.208671881020564-9.112515666163745-5.985365595381154-8.843120713898315-12.277302217240504-17.474946822678248-18.859715236740158-25.881023385739354,16.086895251279202-3.212204874732379,32.391077729989775-5.235599107591042,48.719487192880479-6.773466697638469,9.414247060509297-.886698717109539,18.842249685520073-1.616708165896853,28.270556831948852-2.333217203687127,9.344038736160655-.710115483567279,18.688808161059569-1.536146258949884,28.047376179829371-2.02720018348009,3.609520746971612-.189377606267044,7.217983489841572-.355703167580941,10.807905431180188-.629241522986376-2.738339617948441,2.917475806242692-5.238930400470053,6.034379360920866-7.341034171378851,9.439959340076712-1.912530200721449,3.09849399392715-3.602449659030754,6.279768970855912-4.79060590662084,9.728261177416243-.574504815909677,1.667721167602394-.722398144669569,3.376210730015373-.027844033440488,5.050376623843476.599249372720806,1.444270623091143,1.958730169229966,2.920424762253788,3.446003030330758,3.482823935538363,3.096177463110507,1.170759043496219,7.35108261051937.013426862929919,8.533259608739172-3.418113088984683.583978415201273-1.69507829185568,1.272767731321437-3.349125563563575,2.07613781199143-4.952225098517374.398921146448629-.795953524896504.854035479298545-1.558593760879376,1.269529173509-2.344789400602167-.123581852978532.233902282783674-.220088105510513.415856972991605-.293938359489403.554839050205373.107688067530034-.196520170245094.23325963104071-.420491024969124.313521465239319-.547430259684916.178236499810737-.281840798745179.359491000550406-.561714215814391.543540446240513-.83969892553614,1.950543859249592-2.945588245804174,4.22084108548006-5.669395928610356,6.663393758990424-8.217929494057898.257221634899906-.268277762185789.518111075360139-.532803956499265.777307709318848-.79893044374694.028320434241323-.02753153935646.056391529571556-.055351667563627.08471196381106-.082883206917359.654321408919714-.636046807465391,1.318563633860322-1.261822689380097,1.990823953789004-1.87890165574845,1.30821135908991-1.200615802225002,2.647097625700553-2.367388295943783,4.005590024680714-3.510391371989499,2.752494542819477-2.315717080961804,5.58630089918006-4.532027483985985,8.429123403959238-6.735075417889675,1.621728346310192-1.256820385300671,2.470705351201104-3.075477622108338,2.488856737820242-5.096485129914072.01688213045054-1.876188760194964-.744692161979401-4.143522089798353-2.451818383689897-5.194937168078468Z"/>
  <path class="cls-3" d="M197.706932394179603,90.689778385074533c-6.465993095260274-3.982091057402613-12.510700949049351-8.626644280744586-18.010007386199504-13.8644508528605-.659532811470854-.628194697765139-1.295238289791087-1.281492817010985-1.95490873773997-1.909083966921571,1.50245950676981,1.429522675543922.207258489819651.201966144084508-.104584530390639-.12095806670186-.337340598369337-.349473861960178-.672510296819382-.701191686867787-1.005187652850509-1.055140420485259-1.289346146118987-1.371510297501118-2.542809411239432-2.776562638293399-3.759090534949792-4.213294249070714-2.472371402069257-2.920660814974326-4.78261983145967-5.973446887074715-6.934703194488975-9.137181737230094-1.915832712709744-2.816208308914611-6.526017542249974-3.375095401066574-9.112574715520168-1.208717788919785-2.822565114229292,2.363986750142431-3.257889744969361,6.100282579152008-1.208776838280755,9.112528807624585,6.148762649931086,9.038745753154217,13.663561479701457,17.222064024130304,22.165436354431222,24.154149647440136-6.160468449590553.857313479603363-12.419648474171481,1.025007813992488-18.629594763830028,1.357741595360494-9.00551075354997.48245370967561-17.998061408330614,1.273605094787854-26.990109431100791,1.95638523098296-18.205321933739469,1.382385996571429-36.422890082869344,2.803189839044535-54.517154677309009,5.29137176848144-5.056099906320014.695265577637656-10.100643117169966,1.476871468374156-15.126771068151356,2.361281861073621,5.572190459120975-6.359456008790403,10.447323531341681-13.257712524017734,13.633093395001197-21.214511907469387,1.605663899799765-4.01000836998719,2.784852204729759-8.262334502344856,3.340827270389127-12.548828817200047.436797462660252-3.366942073977953-1.968450311140259-7.016694656726941-5.497137976779413-7.368585795961735-3.46110519190006-.345108806845928-6.90061186929961,1.890060844977597-7.368526746600764,5.497183884683182-.22341568838965,1.722582763773971-.557785272019828,3.422333194919702-.982115728989811,5.104298196733907-.995566944489838,3.324705033290229-2.330420703419804,6.534705765966464-3.963482575309172,9.59794165117728-.227138035230382.425960810053766-.459426244669885.849101874998269-.696641572370936,1.269501869165651-.049805098140496.08837334385953-.100869857838916.176051585734967-.151134209419979.26416262366638-.479330560259768.778677821523161-.961324999729186,1.55481090921603-1.467036698009906,2.316910455341713-1.033117160888651,1.556977273485245-2.129940703520333,3.070868399768187-3.275184722378981,4.547115049354034-2.519607700731285,3.247687539614162-5.270631156561649,6.309066028810776-8.125875484791322,9.263459169970702-.645904883389449.668359629766201-1.297406576310095,1.331183767131733-1.953028757508946,1.99004650932693-.103403659741161.103879019929082-.207168186390845.207430113836381-.310808043581346.311125502169489-.352791238219652.347030392124907-.705175614428299.694756060678628-1.059049453358966,1.040802674742736-1.519207839819501,1.485598980580107-3.052502979049677,2.956598290031252-4.585804689009819,4.427545120849572-1.208199592430901,1.159044325133436-2.305492098950708,2.46485245083295-2.481038380339669,4.224935484094203-.170066465680065,1.706788498854621.152434395418823,3.526465625144738,1.272268112788879,4.887645802161387,9.145065807329956,11.115500135711045,17.767005908350257,22.653938428321453,25.835393164470588,34.574084962318921,1.909273668989044,2.820867248273316,6.530247988530391,3.371420937543917,9.112469758259977,1.208730930384263,2.827674468529949-2.368304273132708,3.250937155129577-6.095361159423192,1.208671881020564-9.112515666163745-5.985365595381154-8.843120713898315-12.277302217240504-17.474946822678248-18.859715236740158-25.881023385739354,16.086895251279202-3.212204874732379,32.391077729989775-5.235599107591042,48.719487192880479-6.773466697638469,9.414247060509297-.886698717109539,18.842249685520073-1.616708165896853,28.270556831948852-2.333217203687127,9.344038736160655-.710115483567279,18.688808161059569-1.536146258949884,28.047376179829371-2.02720018348009,3.609520746971612-.189377606267044,7.217983489841572-.355703167580941,10.807905431180188-.629241522986376-2.738339617948441,2.917475806242692-5.238930400470053,6.034379360920866-7.341034171378851,9.439959340076712-1.912530200721449,3.09849399392715-3.602449659030754,6.279768970855912-4.79060590662084,9.728261177416243-.574504815909677,1.667721167602394-.722398144669569,3.376210730015373-.027844033440488,5.050376623843476.599249372720806,1.444270623091143,1.958730169229966,2.920424762253788,3.446003030330758,3.482823935538363,3.096177463110507,1.170759043496219,7.35108261051937.013426862929919,8.533259608739172-3.418113088984683.583978415201273-1.69507829185568,1.272767731321437-3.349125563563575,2.07613781199143-4.952225098517374.398921146448629-.795953524896504.854035479298545-1.558593760879376,1.269529173509-2.344789400602167-.123581852978532.233902282783674-.220088105510513.415856972991605-.293938359489403.554839050205373.107688067530034-.196520170245094.23325963104071-.420491024969124.313521465239319-.547430259684916.178236499810737-.281840798745179.359491000550406-.561714215814391.543540446240513-.83969892553614,1.950543859249592-2.945588245804174,4.22084108548006-5.669395928610356,6.663393758990424-8.217929494057898.257221634899906-.268277762185789.518111075360139-.532803956499265.777307709318848-.79893044374694.028320434241323-.02753153935646.056391529571556-.055351667563627.08471196381106-.082883206917359.654321408919714-.636046807465391,1.318563633860322-1.261822689380097,1.990823953789004-1.87890165574845,1.30821135908991-1.200615802225002,2.647097625700553-2.367388295943783,4.005590024680714-3.510391371989499,2.752494542819477-2.315717080961804,5.58630089918006-4.532027483985985,8.429123403959238-6.735075417889675,1.621728346310192-1.256820385300671,2.470705351201104-3.075477622108338,2.488856737820242-5.096485129914072.01688213045054-1.876188760194964-.744692161979401-4.143522089798353-2.451818383689897-5.194937168078468Z"/>
</svg>