<?xml version="1.0" encoding="UTF-8"?>
<svg xmlns="http://www.w3.org/2000/svg" viewBox="0 0 280 280">
  <defs>
    <style>
      .cls-1 {
        stroke: #665451;
        stroke-width: 50px;
      }

      .cls-1, .cls-2 {
        fill: none;
        stroke-linecap: round;
        stroke-linejoin: round;
      }

      .cls-3 {
        fill: #fff;
      }

      .cls-4 {
        fill: #e11f26;
      }

      .cls-5 {
        fill: #ec1940;
      }

      .cls-2 {
        stroke: #998675;
        stroke-width: 2px;
      }
    </style>
  </defs>
  <g id="Content">
    <g>
      <path class="cls-1" d="M218.689912659810034,85.647219907823455c-7.461995874499735-4.595480787633278-14.437812953649882-9.955467487417991-20.784216567460135-16.000090557186923-.761125328439448-.724959982797373-1.494753030589891-1.478890245143702-2.256037196630132-2.203153711328923,1.733894001430599,1.649722192749323.239183985080672.2330764217877-.120694427419949-.139590095661333-.389303563460089-.403305799709415-.776101827899765-.809201215894063-1.160023836730034-1.217671183481798-1.487953278239729-1.582773756639654-2.934496380799828-3.204256275410444-4.338129912979639-4.862297846819274-2.853208305470616-3.370550916322827-5.519320686849824-6.893579280280392-8.002904714840042-10.54464664952684-2.210942014309694-3.250008849881851-7.531266312820662-3.894985284980066-10.516249233730377-1.394905163288058-3.25734483900942,2.728128396838656-3.75972561034996,7.039952373643246-1.394973308440058,10.5161962543134,7.095900173590053,10.431047872625641,15.768256768989886,19.874900700513535,25.57973573380059,27.874784641118822-7.109409100600715.989371555724574-14.332735020240762,1.182897037882867-21.499243383550493,1.566884163648865-10.392693450309707.556769476583213-20.770430465900063,1.469787521118633-31.147587425500205,2.257741124598397-21.009616800109143,1.595324716778123-42.033366187039064,3.234985052757111-62.914818698149247,6.106439293263975-5.834926837410421.802362266025739-11.656516819580247,1.704364455981704-17.45685490877986,2.72500685452178,6.430514478649457-7.339048124946203,12.056598876919452-15.299892020004336,15.733095469089676-24.482333649440989,1.852995699139683-4.627698401891394,3.213822742569391-9.535040489830862,3.855438591080201-14.481813927770418.504080473999238-3.885576043088804-2.271664674630301-8.097525903565838-6.343901130109771-8.503621330914029-3.994243773960989-.398268364193427-7.963562061030643,2.181200322982477-8.50355318576112,6.343954109534025-.257829991539438,1.987924405022568-.643704893799622,3.949499451273368-1.1333979807996,5.890549452362393-1.148921182430058,3.836832931439858-2.689391933859952,7.541292845253338-4.574005909059451,11.076380681153751-.262125717860727.491574574933111-.530194927810953.979895059417686-.803950214980432,1.46505224655084-.057476930669509.101986116838816-.116407557509774.203170060205593-.174414483680266.304853466273926-.553165246309618.898623089473404-1.109404708039619,1.794309461714874-1.693014766179658,2.673800606442455-1.192255525000292,1.796809526436846-2.458030577589852,3.543896040811887-3.779684655800338,5.247539432735721-2.907720746249652,3.747951886933151-6.082503857769552,7.280896218937414-9.377561721899838,10.690375490908991-.745398193939764.771311804161087-1.497255313669484,1.536235444764316-2.25386762970993,2.29658748840302-.119331658889678.119880242173167-.239079771569777.239382045554521-.358684011070181.359050370056138-.407134174969542.400485944883258-.813798816079725.801774264555206-1.222182352419622,1.201124893064843-1.753222199010452,1.714436328795273-3.522701664080159,3.412024095563538-5.292188712010102,5.109551300043677-1.394307145319544,1.337580143543164-2.660623399629912,2.844531156839366-2.863210319869722,4.875732263844839-.19626300966047,1.969697237449509.17591494654971,4.069672138328315,1.468244594299904,5.640524552754869,10.553745158859783,12.827699462983219,20.503783848389503,26.14348524703928,29.815002022000044,39.899776500331427,2.203372634549851,3.255385438715166,7.536148404739833,3.890744817777886,10.516128109159581,1.394920329024899,3.263241223390651-2.733110978519107,3.751702063780613-7.034272872726433,1.394852183870171-10.516181088580197-6.907333911769456-10.205289321020246-14.168462159699629-20.166736830198715-21.764810945130193-29.867660989908472,18.564873829919634-3.707003575504132,37.380505180110049-6.042075573826878,56.224095368689632-7.816831816742706,10.864390309750888-1.023283209789952,21.744655051180416-1.865741191873894,32.625271221610092-2.692619198898683,10.783367299220117-.819499608292972,21.567577840360173-1.772769762977987,32.367712470640981-2.339464206512275,4.165520829669731-.218548782200742,8.329820683379694-.410494649457178,12.472723764369221-.726168057932227-3.160145492129232,3.366875298104787-6.045920009370093,6.963897615261885-8.471825734170125,10.894063234118221-2.20713079296911,3.575777001185998-4.15736053189994,7.247086327344732-5.528536913809148,11.226774248365473-.662999867620783,1.924612088063441-.83367425481083,3.896272415957355-.032133047410753,5.828321957138542.691556004030645,1.666741871264094,2.260447270320583,3.37027850272716,3.97681531931994,4.019308009725137,3.573103638700559,1.351099363067988,8.483422005670036.015495097863095,9.847698112010221-3.944629292487662.673932752610199-1.956183224207052,1.468821172619755-3.865015129204039,2.395940045060343-5.715051456185392.460369800149238-.918559891972109.985588621780153-1.798675012851163,1.465083756769673-2.70597394338256-.142618042349568.269931910450396-.253989837459812.479914372181156-.339215769879956.640304844537241.124276024400388-.226791565970416.269190266500118-.485262240055818.361815400319756-.631754825464668.205691532089986-.325254736049828.414865949200248-.648239040670887.627265836460538-.969043706954835,2.250999964940092-3.399318096131537,4.87100717596968-6.542693196073742,7.68980356262-9.48379546315482.29684330776945-.309602488769087.597919399209786-.614875529056008.897041929159968-.921995366748888.032682831600141-.03177241764206.065077916859991-.063877877522827.097760748460132-.095650295163068.755111176579703-.734021608648618,1.521671342839909-1.45619018823345,2.29748468814978-2.168322204684955,1.509724433770316-1.385555170114458,3.054848848640177-2.732053906867804,4.622599467509644-4.051121853946825,3.176480800480022-2.672423408141185,6.446798449880589-5.230127822658687,9.727521068980423-7.772526855867909,1.871534666290245-1.45041734377628,2.851285620969975-3.549215254362935,2.872232994419392-5.88153288344256.019482604740915-2.165191422587668-.859402377739571-4.781778186967131-2.829489359889521-5.995150187358377Z"/>
      <path class="cls-2" d="M218.689912659810034,85.647219907823455c-7.461995874499735-4.595480787633278-14.437812953649882-9.955467487417991-20.784216567460135-16.000090557186923-.761125328439448-.724959982797373-1.494753030589891-1.478890245143702-2.256037196630132-2.203153711328923,1.733894001430599,1.649722192749323.239183985080672.2330764217877-.120694427419949-.139590095661333-.389303563460089-.403305799709415-.776101827899765-.809201215894063-1.160023836730034-1.217671183481798-1.487953278239729-1.582773756639654-2.934496380799828-3.204256275410444-4.338129912979639-4.862297846819274-2.853208305470616-3.370550916322827-5.519320686849824-6.893579280280392-8.002904714840042-10.54464664952684-2.210942014309694-3.250008849881851-7.531266312820662-3.894985284980066-10.516249233730377-1.394905163288058-3.25734483900942,2.728128396838656-3.75972561034996,7.039952373643246-1.394973308440058,10.5161962543134,7.095900173590053,10.431047872625641,15.768256768989886,19.874900700513535,25.57973573380059,27.874784641118822-7.109409100600715.989371555724574-14.332735020240762,1.182897037882867-21.499243383550493,1.566884163648865-10.392693450309707.556769476583213-20.770430465900063,1.469787521118633-31.147587425500205,2.257741124598397-21.009616800109143,1.595324716778123-42.033366187039064,3.234985052757111-62.914818698149247,6.106439293263975-5.834926837410421.802362266025739-11.656516819580247,1.704364455981704-17.45685490877986,2.72500685452178,6.430514478649457-7.339048124946203,12.056598876919452-15.299892020004336,15.733095469089676-24.482333649440989,1.852995699139683-4.627698401891394,3.213822742569391-9.535040489830862,3.855438591080201-14.481813927770418.504080473999238-3.885576043088804-2.271664674630301-8.097525903565838-6.343901130109771-8.503621330914029-3.994243773960989-.398268364193427-7.963562061030643,2.181200322982477-8.50355318576112,6.343954109534025-.257829991539438,1.987924405022568-.643704893799622,3.949499451273368-1.1333979807996,5.890549452362393-1.148921182430058,3.836832931439858-2.689391933859952,7.541292845253338-4.574005909059451,11.076380681153751-.262125717860727.491574574933111-.530194927810953.979895059417686-.803950214980432,1.46505224655084-.057476930669509.101986116838816-.116407557509774.203170060205593-.174414483680266.304853466273926-.553165246309618.898623089473404-1.109404708039619,1.794309461714874-1.693014766179658,2.673800606442455-1.192255525000292,1.796809526436846-2.458030577589852,3.543896040811887-3.779684655800338,5.247539432735721-2.907720746249652,3.747951886933151-6.082503857769552,7.280896218937414-9.377561721899838,10.690375490908991-.745398193939764.771311804161087-1.497255313669484,1.536235444764316-2.25386762970993,2.29658748840302-.119331658889678.119880242173167-.239079771569777.239382045554521-.358684011070181.359050370056138-.407134174969542.400485944883258-.813798816079725.801774264555206-1.222182352419622,1.201124893064843-1.753222199010452,1.714436328795273-3.522701664080159,3.412024095563538-5.292188712010102,5.109551300043677-1.394307145319544,1.337580143543164-2.660623399629912,2.844531156839366-2.863210319869722,4.875732263844839-.19626300966047,1.969697237449509.17591494654971,4.069672138328315,1.468244594299904,5.640524552754869,10.553745158859783,12.827699462983219,20.503783848389503,26.14348524703928,29.815002022000044,39.899776500331427,2.203372634549851,3.255385438715166,7.536148404739833,3.890744817777886,10.516128109159581,1.394920329024899,3.263241223390651-2.733110978519107,3.751702063780613-7.034272872726433,1.394852183870171-10.516181088580197-6.907333911769456-10.205289321020246-14.168462159699629-20.166736830198715-21.764810945130193-29.867660989908472,18.564873829919634-3.707003575504132,37.380505180110049-6.042075573826878,56.224095368689632-7.816831816742706,10.864390309750888-1.023283209789952,21.744655051180416-1.865741191873894,32.625271221610092-2.692619198898683,10.783367299220117-.819499608292972,21.567577840360173-1.772769762977987,32.367712470640981-2.339464206512275,4.165520829669731-.218548782200742,8.329820683379694-.410494649457178,12.472723764369221-.726168057932227-3.160145492129232,3.366875298104787-6.045920009370093,6.963897615261885-8.471825734170125,10.894063234118221-2.20713079296911,3.575777001185998-4.15736053189994,7.247086327344732-5.528536913809148,11.226774248365473-.662999867620783,1.924612088063441-.83367425481083,3.896272415957355-.032133047410753,5.828321957138542.691556004030645,1.666741871264094,2.260447270320583,3.37027850272716,3.97681531931994,4.019308009725137,3.573103638700559,1.351099363067988,8.483422005670036.015495097863095,9.847698112010221-3.944629292487662.673932752610199-1.956183224207052,1.468821172619755-3.865015129204039,2.395940045060343-5.715051456185392.460369800149238-.918559891972109.985588621780153-1.798675012851163,1.465083756769673-2.70597394338256-.142618042349568.269931910450396-.253989837459812.479914372181156-.339215769879956.640304844537241.124276024400388-.226791565970416.269190266500118-.485262240055818.361815400319756-.631754825464668.205691532089986-.325254736049828.414865949200248-.648239040670887.627265836460538-.969043706954835,2.250999964940092-3.399318096131537,4.87100717596968-6.542693196073742,7.68980356262-9.48379546315482.29684330776945-.309602488769087.597919399209786-.614875529056008.897041929159968-.921995366748888.032682831600141-.03177241764206.065077916859991-.063877877522827.097760748460132-.095650295163068.755111176579703-.734021608648618,1.521671342839909-1.45619018823345,2.29748468814978-2.168322204684955,1.509724433770316-1.385555170114458,3.054848848640177-2.732053906867804,4.622599467509644-4.051121853946825,3.176480800480022-2.672423408141185,6.446798449880589-5.230127822658687,9.727521068980423-7.772526855867909,1.871534666290245-1.45041734377628,2.851285620969975-3.549215254362935,2.872232994419392-5.88153288344256.019482604740915-2.165191422587668-.859402377739571-4.781778186967131-2.829489359889521-5.995150187358377Z"/>
      <path class="cls-3" d="M218.689912659810034,85.647219907823455c-7.461995874499735-4.595480787633278-14.437812953649882-9.955467487417991-20.784216567460135-16.000090557186923-.761125328439448-.724959982797373-1.494753030589891-1.478890245143702-2.256037196630132-2.203153711328923,1.733894001430599,1.649722192749323.239183985080672.2330764217877-.120694427419949-.139590095661333-.389303563460089-.403305799709415-.776101827899765-.809201215894063-1.160023836730034-1.217671183481798-1.487953278239729-1.582773756639654-2.934496380799828-3.204256275410444-4.338129912979639-4.862297846819274-2.853208305470616-3.370550916322827-5.519320686849824-6.893579280280392-8.002904714840042-10.54464664952684-2.210942014309694-3.250008849881851-7.531266312820662-3.894985284980066-10.516249233730377-1.394905163288058-3.25734483900942,2.728128396838656-3.75972561034996,7.039952373643246-1.394973308440058,10.5161962543134,7.095900173590053,10.431047872625641,15.768256768989886,19.874900700513535,25.57973573380059,27.874784641118822-7.109409100600715.989371555724574-14.332735020240762,1.182897037882867-21.499243383550493,1.566884163648865-10.392693450309707.556769476583213-20.770430465900063,1.469787521118633-31.147587425500205,2.257741124598397-21.009616800109143,1.595324716778123-42.033366187039064,3.234985052757111-62.914818698149247,6.106439293263975-5.834926837410421.802362266025739-11.656516819580247,1.704364455981704-17.45685490877986,2.72500685452178,6.430514478649457-7.339048124946203,12.056598876919452-15.299892020004336,15.733095469089676-24.482333649440989,1.852995699139683-4.627698401891394,3.213822742569391-9.535040489830862,3.855438591080201-14.481813927770418.504080473999238-3.885576043088804-2.271664674630301-8.097525903565838-6.343901130109771-8.503621330914029-3.994243773960989-.398268364193427-7.963562061030643,2.181200322982477-8.50355318576112,6.343954109534025-.257829991539438,1.987924405022568-.643704893799622,3.949499451273368-1.1333979807996,5.890549452362393-1.148921182430058,3.836832931439858-2.689391933859952,7.541292845253338-4.574005909059451,11.076380681153751-.262125717860727.491574574933111-.530194927810953.979895059417686-.803950214980432,1.46505224655084-.057476930669509.101986116838816-.116407557509774.203170060205593-.174414483680266.304853466273926-.553165246309618.898623089473404-1.109404708039619,1.794309461714874-1.693014766179658,2.673800606442455-1.192255525000292,1.796809526436846-2.458030577589852,3.543896040811887-3.779684655800338,5.247539432735721-2.907720746249652,3.747951886933151-6.082503857769552,7.280896218937414-9.377561721899838,10.690375490908991-.745398193939764.771311804161087-1.497255313669484,1.536235444764316-2.25386762970993,2.29658748840302-.119331658889678.119880242173167-.239079771569777.239382045554521-.358684011070181.359050370056138-.407134174969542.400485944883258-.813798816079725.801774264555206-1.222182352419622,1.201124893064843-1.753222199010452,1.714436328795273-3.522701664080159,3.412024095563538-5.292188712010102,5.109551300043677-1.394307145319544,1.337580143543164-2.660623399629912,2.844531156839366-2.863210319869722,4.875732263844839-.19626300966047,1.969697237449509.17591494654971,4.069672138328315,1.468244594299904,5.640524552754869,10.553745158859783,12.827699462983219,20.503783848389503,26.14348524703928,29.815002022000044,39.899776500331427,2.203372634549851,3.255385438715166,7.536148404739833,3.890744817777886,10.516128109159581,1.394920329024899,3.263241223390651-2.733110978519107,3.751702063780613-7.034272872726433,1.394852183870171-10.516181088580197-6.907333911769456-10.205289321020246-14.168462159699629-20.166736830198715-21.764810945130193-29.867660989908472,18.564873829919634-3.707003575504132,37.380505180110049-6.042075573826878,56.224095368689632-7.816831816742706,10.864390309750888-1.023283209789952,21.744655051180416-1.865741191873894,32.625271221610092-2.692619198898683,10.783367299220117-.819499608292972,21.567577840360173-1.772769762977987,32.367712470640981-2.339464206512275,4.165520829669731-.218548782200742,8.329820683379694-.410494649457178,12.472723764369221-.726168057932227-3.160145492129232,3.366875298104787-6.045920009370093,6.963897615261885-8.471825734170125,10.894063234118221-2.20713079296911,3.575777001185998-4.15736053189994,7.247086327344732-5.528536913809148,11.226774248365473-.662999867620783,1.924612088063441-.83367425481083,3.896272415957355-.032133047410753,5.828321957138542.691556004030645,1.666741871264094,2.260447270320583,3.37027850272716,3.97681531931994,4.019308009725137,3.573103638700559,1.351099363067988,8.483422005670036.015495097863095,9.847698112010221-3.944629292487662.673932752610199-1.956183224207052,1.468821172619755-3.865015129204039,2.395940045060343-5.715051456185392.460369800149238-.918559891972109.985588621780153-1.798675012851163,1.465083756769673-2.70597394338256-.142618042349568.269931910450396-.253989837459812.479914372181156-.339215769879956.640304844537241.124276024400388-.226791565970416.269190266500118-.485262240055818.361815400319756-.631754825464668.205691532089986-.325254736049828.414865949200248-.648239040670887.627265836460538-.969043706954835,2.250999964940092-3.399318096131537,4.87100717596968-6.542693196073742,7.68980356262-9.48379546315482.29684330776945-.309602488769087.597919399209786-.614875529056008.897041929159968-.921995366748888.032682831600141-.03177241764206.065077916859991-.063877877522827.097760748460132-.095650295163068.755111176579703-.734021608648618,1.521671342839909-1.45619018823345,2.29748468814978-2.168322204684955,1.509724433770316-1.385555170114458,3.054848848640177-2.732053906867804,4.622599467509644-4.051121853946825,3.176480800480022-2.672423408141185,6.446798449880589-5.230127822658687,9.727521068980423-7.772526855867909,1.871534666290245-1.45041734377628,2.851285620969975-3.549215254362935,2.872232994419392-5.88153288344256.019482604740915-2.165191422587668-.859402377739571-4.781778186967131-2.829489359889521-5.995150187358377Z"/>
    </g>
  </g>
  <g id="Arrows">
    <g>
      <g>
        <path class="cls-5" d="M216.239074707030341,177.011143461186293c9.6474609375,0,18.182739257809772.61407470703125,26.093566894529431,1.8773193359375,2.437622070320685.3892822265625,5.0810546875.5784912109375,8.081298828130457.5784912109375,2.584655761719659,0,5.178894042969659-.1383056640625,7.407592773440228-.26800537109375,2.849182128899884-.16571044921875,5.877380371089203-.242919921875,9.530029296869543-.242919921875,2.790771484380457,0,5.633483886719659.04583740234375,8.382507324219659.09014892578125,1.278015136720569.0206298828125,2.555847167970569.04119873046875,3.833190917970569.05755615234375,8.607666015619543.10992431640625,16.209289550779431,1.57861328125,23.239318847649884,4.48992919921875,13.068542480469659,5.41204833984375,21.741577148440228,15.21478271484375,25.7783203125,29.13592529296875,2.879089355469659,9.9288330078125,3.709594726569776,20.67840576171875,2.613586425790345,33.82952880859375-.037902832040345.45465087890625-.039794921880457.89862060546875-.041625976570685,1.32794189453125-.001892089840112.45135498046875-.003723144529431.87762451171875-.045959472649884,1.28741455078125-.898071289069776,8.71588134765625.101745605470569,17.419921875,1.068725585930224,25.83734130859375.195434570319776,1.70172119140625.390930175790345,3.4034423828125.571472167969659,5.10589599609375.127807617190228,1.205810546875.168823242190228,2.45635986328125.20849609375,3.66571044921875.057067871100116,1.741455078125.116088867190228,3.54107666015625.42919921875,5.32916259765625v13.2296142578125c-.347778320309772,1.52081298828125-.4228515625,3.05242919921875-.495483398429315,4.534912109375-.026794433600116.54779052734375-.053466796880457,1.0947265625-.094177246100116,1.638671875-.482177734370453,6.44464111328125-3.044738769530341,12.3995361328125-8.064453125,18.74041748046875-8.244689941399884,10.41455078125-19.430725097649884,15.663818359375-34.197448730470569,16.04779052734375-.439514160149884.01141357421875-.878845214840112.0172119140625-1.315612792969659.0172119140625-7.625305175780341,0-14.220581054680224-1.7264404296875-20.162658691399884-5.27801513671875-6.481811523440228-3.8741455078125-11.447082519530341-9.30035400390625-14.760620117190228-16.13323974609375-.796142578119543-1.641845703125-1.234741210940228-2.54620361328125-2.29736328125-2.54644775390625-.768615722659888-.00006103515625-1.339721679690228.54498291015625-2.37646484375,1.5345458984375l-.075866699219659.0723876953125c-1.821899414060681,1.73834228515625-3.647216796870453,3.4732666015625-5.472473144530341,5.20819091796875-7.718505859369543,7.33660888671875-15.699829101559772,14.9229736328125-23.292602539059772,22.65985107421875-1.186889648440228,1.2093505859375-2.3466796875,2.47344970703125-3.468322753909888,3.69586181640625-1.527709960940228,1.6650390625-3.107482910149884,3.38677978515625-4.756103515620453,4.968505859375-4.759887695319776,4.56695556640625-9.583190917969659,7.76416015625-14.745422363279431,9.7742919921875-3.338134765630457,1.2998046875-6.819702148440228,1.43402099609375-10.505737304690228,1.5760498046875l-.18603515625.00787353515625-3.377746582030341-.00006103515625-3.421447753909888.00103759765625c-.44091796875.01983642578125-.878967285159888.02960205078125-1.312316894530341.02960205078125-7.57568359375,0-14.701599121089203-3.02203369140625-21.784790039059772-9.2388916015625-4.392822265629547-3.85552978515625-7.8369140625-7.76263427734375-10.529174804690228-11.94464111328125-3.431640625-5.3306884765625-5.02490234375-11.15106201171875-4.870544433589203-17.81707763671875l-.001159667970569-6.0845947265625c-.432800292969659-8.91302490234375,2.935241699220569-17.052490234375,10.010620117180224-24.19219970703125,4.933410644540345-4.97833251953125,10.113830566409888-9.88702392578125,15.123718261719659-14.63409423828125,4.509826660159888-4.27325439453125,9.173217773440228-8.69195556640625,13.653686523440228-13.1583251953125,2.377624511719659-2.37017822265625,4.843200683590112-4.7508544921875,7.2275390625-7.0531005859375,1.079162597659888-1.04205322265625,2.158264160159888-2.083984375,3.2333984375-3.128662109375.90234375-.87677001953125,1.695983886719659-1.74737548828125,1.498291015630457-2.75689697265625-.198486328130457-1.013916015625-1.235717773440228-1.5093994140625-2.469299316410797-2.00830078125-8.082824707029431-3.26922607421875-14.294799804689319-8.6715087890625-18.463439941409888-16.056640625-2.380737304679315-4.2177734375-3.804626464840112-9.0028076171875-4.353149414059772-14.62860107421875-.824401855469659-8.45367431640625.548217773440228-16.67938232421875,4.079650878909888-24.4486083984375,4.827758789059772-10.62139892578125,12.893127441399884-18.1539306640625,23.972045898430224-22.38836669921875,4.607666015629547-1.7611083984375,9.33544921875-2.1168212890625,13.758117675790345-2.2388916015625,2.465942382809772-.06805419921875,4.869201660149884-.10260009765625,7.143127441399884-.10260009765625M216.239074707030341,176.011143461186293c-2.389099121090112,0-4.780029296870453.0369873046875-7.170715332030341.10296630859375-4.747680664059772.13104248046875-9.4990234375.5506591796875-14.087585449219659,2.304443359375-11.32763671875,4.3294677734375-19.530944824220569,11.92059326171875-24.525390625,22.90863037109375-3.598449707030341,7.916748046875-5.016357421870453,16.22412109375-4.16455078125,24.95947265625.521301269529431,5.346435546875,1.850708007809772,10.36920166015625,4.477600097659888,15.0230712890625,4.361450195309772,7.726806640625,10.741027832029431,13.16815185546875,18.959350585940228,16.4921875,2.319519042959655.9381103515625,2.427001953119543,1.3934326171875.649108886709655,3.12091064453125-3.493103027340112,3.39410400390625-7.028137207030341,6.7596435546875-10.470092773430224,10.19073486328125-9.450439453129547,9.42071533203125-19.396667480469659,18.32623291015625-28.78173828125,27.7967529296875-6.723693847659888,6.784912109375-10.78125,15.01544189453125-10.299133300779431,24.94464111328125v6.03607177734375c-.153625488290345,6.62188720703125,1.397583007809772,12.71630859375,5.029724121089203,18.35833740234375,2.974243164060681,4.62005615234375,6.646301269530341,8.5880126953125,10.710327148440228,12.15496826171875,6.435607910149884,5.6484375,13.703002929680224,9.4873046875,22.444458007809772,9.4873046875.448181152340112,0,.901184082030341-.0101318359375,1.357177734370453-.03057861328125,1.125122070319776,0,2.250610351569776-.00006103515625,3.376586914069776-.00006103515625s2.25244140625.00006103515625,3.379516601559772.00006103515625c3.746276855470569-.1448974609375,7.487548828120453-.2637939453125,11.052856445310681-1.652099609375,5.751159667969659-2.23944091796875,10.653259277350116-5.74212646484375,15.074890136719659-9.9844970703125,2.884765625-2.76776123046875,5.451538085940228-5.83831787109375,8.245788574219659-8.685546875,9.345153808590112-9.52252197265625,19.090087890620453-18.63629150390625,28.74169921875-27.844970703125.903259277340112-.86181640625,1.383239746090112-1.3304443359375,1.761840820310681-1.33038330078125.436889648439319.00006103515625.738952636719659.62408447265625,1.400390625,1.98809814453125,3.405212402350116,7.02203369140625,8.453125,12.55035400390625,15.144714355469659,16.54986572265625,6.389587402340112,3.81903076171875,13.334045410159888,5.419677734375,20.675720214840112,5.419677734375.445373535159888,0,.893371582040345-.00592041015625,1.341613769540345-.017578125,14.059692382809772-.36553955078125,26.058776855459655-5.1884765625,34.955505371089203-16.4267578125,4.466918945310681-5.64251708984375,7.72314453125-11.87579345703125,8.277587890620453-19.2864990234375.152526855469659-2.038330078125.112731933600116-4.11798095703125.592468261719659-6.133056640625v-13.43280029296875c-.536254882809772-2.9808349609375-.325500488279431-6.01458740234375-.643310546869543-9.01220703125-1.083068847659888-10.21563720703125-2.704528808600116-20.4029541015625-1.639831542970569-30.7353515625.089721679690228-.8707275390625.016235351560681-1.757080078125.08935546875-2.63482666015625.961791992190228-11.54083251953125.586059570310681-23.0322265625-2.649658203129547-34.1910400390625-4.055786132809772-13.98687744140625-12.746948242180224-24.1453857421875-26.356140136709655-29.78131103515625-7.546813964850116-3.1253662109375-15.480590820320685-4.462158203125-23.609191894540345-4.56597900390625-4.073974609370453-.05206298828125-8.152893066399884-.1478271484375-12.228454589840112-.14776611328125-3.199890136719659,0-6.397888183590112.05902099609375-9.588134765619543.24462890625-2.460144042970569.14312744140625-4.908142089850116.26629638671875-7.349487304690228.26629638671875-2.64697265625,0-5.286193847659888-.144775390625-7.923645019530341-.56597900390625-8.710144042969659-1.390869140625-17.472473144529431-1.88983154296875-26.251220703129547-1.88983154296875h0Z"/>
        <path class="cls-5" d="M215.418762207030341,206.144383207280043c6.57568359375,0,13.255676269529431,1.05926513671875,19.000732421879547,2.0521240234375,5.113952636720569.88372802734375,10.489562988280341,1.29534912109375,16.917297363280341,1.29534912109375,4.036071777340112,0,8.004028320309772-.16802978515625,11.009948730469659-.3143310546875,3.233703613280341-.157470703125,6.681396484370453-.31121826171875,10.153381347649884-.31121826171875,4.914245605470569,0,8.987365722659888.30816650390625,12.818176269530341.96990966796875,10.220581054690228,1.76544189453125,14.563781738290345,6.50469970703125,15.49072265625,16.9033203125.747924804690228,8.3907470703125.770385742190228,17.2763671875.066711425790345,26.4100341796875-.737182617190228,9.568603515625.677429199209655,19.0355224609375,2.04541015625,28.19073486328125.161193847649884,1.07861328125.322448730459655,2.157470703125.480346679679315,3.23681640625.869689941409888,5.9449462890625,1.502197265630457,12.29949951171875.252380371100116,18.48895263671875-1.18896484375,5.8883056640625-7.102111816409888,10.50079345703125-13.461853027350116,10.50079345703125-1.7783203125,0-3.471923828119543-.3604736328125-5.033630371090112-1.07147216796875-3.461791992189319-1.575927734375-4.482299804689319-4.691162109375-4.949523925779431-8.8837890625-.599853515630457-5.3819580078125-.293640136720569-10.88330078125.002502441399884-16.20343017578125.169311523440228-3.041748046875.344360351569776-6.18707275390625.351257324219659-9.29583740234375.01611328125-7.27154541015625-.326538085929315-15.74212646484375-4.623413085929315-24.25189208984375l-.654235839850116-1.2957763671875-.977600097649884,1.07305908203125c-.678405761720569.74462890625-1.347351074220569,1.49871826171875-2.016235351570685,2.2529296875-1.415344238279431,1.595703125-2.87890625,3.24578857421875-4.403869628899884,4.76007080078125-9.105163574219659,9.04144287109375-17.378173828129547,17.17877197265625-25.291748046879547,24.876953125-8.338623046870453,8.11163330078125-16.837463378899884,16.3387451171875-25.056518554690228,24.29498291015625-5.708618164059772,5.52606201171875-11.417175292959655,11.0521240234375-17.119445800780341,16.58465576171875-1.469970703119543,1.42626953125-2.817993164059772,2.98455810546875-4.12158203125,4.4915771484375-1.765441894529431,2.0408935546875-3.591064453119543,4.15130615234375-5.693054199219659,5.88568115234375-2.562438964840112,2.11431884765625-4.751770019530341,3.09906005859375-6.889892578120453,3.09906005859375-2.087097167969659,0-4.209655761719659-.9337158203125-6.679931640629547-2.9383544921875-.696105957030341-.56488037109375-1.428833007809772-1.17742919921875-2.070861816399884-1.82891845703125-5.559143066409888-5.64044189453125-5.597778320309772-10.6097412109375-.125183105470569-16.112548828125,1.767883300780341-1.77764892578125,3.729248046870453-3.45147705078125,5.6259765625-5.07025146484375,1.931091308590112-1.6480712890625,3.927917480470569-3.35223388671875,5.756469726560681-5.1920166015625,14.894409179689319-14.9862060546875,29.863647460939319-29.35107421875,45.166320800779431-43.97198486328125,6.083435058600116-5.8123779296875,12.290649414070685-11.70037841796875,18.293518066409888-17.39453125,3.229064941410797-3.06298828125,6.458068847660797-6.12591552734375,9.68408203125-9.19219970703125,1.284057617190228-1.220458984375,1.991333007810681-1.89276123046875,1.777465820310681-2.82769775390625-.215270996090112-.9410400390625-1.165893554690228-1.24578857421875-2.891540527340112-1.79888916015625-9.333801269530341-2.99169921875-18.85302734375-3.3753662109375-26.103271484380457-3.3753662109375-1.340270996090112,0-2.753845214840112.01458740234375-4.321655273429315.04461669921875-1.684814453130457.03228759765625-3.394836425790345.0877685546875-5.048583984380457.14141845703125-2.568786621090112.0833740234375-5.225036621090112.16961669921875-7.828063964840112.16961669921875-3.746643066409888,0-6.832641601569776-.1778564453125-9.711730957029431-.559814453125-1.794494628910797-.23797607421875-3.315979003910797-.71148681640625-4.651489257820685-1.44744873046875-2.199584960929315-1.21221923828125-3.27734375-2.9039306640625-3.391784667969659-5.3238525390625-.248779296870453-5.2596435546875.984069824219659-9.38140869140625,3.664184570319776-12.25067138671875,2.857299804680224-3.058837890625,7.32421875-4.6728515625,13.276794433590112-4.797119140625.427734375-.0089111328125.855895996090112-.01324462890625,1.283020019530341-.01324462890625M215.418762207030341,205.144383207280043c-.43408203125,0-.869262695310681.00439453125-1.303894042970569.01348876953125-12.201538085929315.25469970703125-18.459777832029431,6.66070556640625-17.919006347649884,18.09478759765625.133972167970569,2.83258056640625,1.48828125,4.81884765625,3.908020019530341,6.15240478515625,1.557922363279431.85858154296875,3.252563476559772,1.33087158203125,5.002685546869543,1.56298828125,3.278198242190228.43487548828125,6.559509277350116.5684814453125,9.843200683600116.5684814453125,4.296936035149884,0,8.597412109370453-.22894287109375,12.895812988280341-.31121826171875,1.435424804690228-.0274658203125,2.869812011719659-.04443359375,4.302490234369543-.04443359375,8.719787597659888,0,17.374206542970569.62762451171875,25.798034667970569,3.32763671875,2.840026855469659.91033935546875,2.838623046879547.94561767578125.730346679689319,2.94952392578125-9.325561523439319,8.86383056640625-18.677001953129547,17.70050048828125-27.979431152339203,26.5885009765625-15.198974609380457,14.52178955078125-30.363830566410797,29.0777587890625-45.184814453130457,43.99005126953125-3.595703125,3.61785888671875-7.785278320309772,6.64532470703125-11.382202148440228,10.2620849609375-5.928405761719659,5.96112060546875-5.774658203119543,11.5367431640625.122009277350116,17.5196533203125.670959472649884.6807861328125,1.409545898430224,1.3001708984375,2.152954101559772,1.9034423828125,2.601440429690228,2.111083984375,4.95654296875,3.161865234375,7.31005859375,3.161865234375,2.421752929690228,0,4.841796875-1.11273193359375,7.526306152340112-3.32769775390625,3.726318359380457-3.0745849609375,6.436889648440228-7.09552001953125,9.874572753909888-10.430908203125,14.052124023440228-13.6339111328125,28.142639160160797-27.22833251953125,42.176879882810681-40.88055419921875,8.478698730469659-8.2479248046875,16.905700683600116-16.54949951171875,25.299133300779431-24.8841552734375,2.258117675780341-2.24237060546875,4.308715820320685-4.6937255859375,6.454650878909888-7.04913330078125,4.039672851560681,8.00042724609375,4.533630371090112,15.8782958984375,4.516052246090112,23.7989501953125-.018981933590112,8.53741455078125-1.30078125,17.059814453125-.347595214840112,25.61224365234375.447998046870453,4.02020263671875,1.432250976560681,7.81817626953125,5.529052734370453,9.68316650390625,1.743408203129547.793701171875,3.597412109379547,1.16131591796875,5.447937011719659,1.16131591796875,6.571472167970569,0,13.09619140625-4.637451171875,14.442077636720569-11.3028564453125,1.26708984375-6.275146484375.672973632809772-12.5692138671875-.2431640625-18.8316650390625-1.513732910149884-10.34771728515625-3.331604003899884-20.64776611328125-2.518188476560681-31.2059326171875.681579589840112-8.846435546875.722351074220569-17.7127685546875-.067687988279431-26.57568359375-.965942382809772-10.8360595703125-5.556274414059772-15.9412841796875-16.316528320309772-17.7999267578125-4.314514160160797-.7452392578125-8.648132324220569-.9844970703125-12.988403320320685-.9844970703125-3.399291992179315,0-6.803039550779431.1468505859375-10.202026367179315.3123779296875-3.660827636720569.17828369140625-7.31298828125.31317138671875-10.961303710940228.31317138671875-5.59033203125,0-11.170166015630457-.3170166015625-16.747009277350116-1.28076171875-6.333251953120453-1.094482421875-12.720275878899884-2.06671142578125-19.171020507809772-2.06671142578125h0Z"/>
      </g>
      <path class="cls-4" d="M279.731018066409888,279.730992093998793c-69.716349124800217.440577277868215-210.016399211829594,1.330699085334345-279.731261790910139,1.531175585188976.000365796759979.00025751762405-1.526855886279918.007093459693351-1.526855886279918.007093459693351l-.004272459529602-1.538330080038577c-.064510199969845-34.904889630965044-.304406964240115-104.981273296894869-.28523834509997-139.865683708852885C-1.816772460940228,139.865513578373793-1.997680664059772.000096097905043-1.997680664059772.000096097905043l-.002563476559772-2.00030517578125c47.593470546119534.061589064702275,165.706438735549455.208737527702397,211.798450492839038.271000175633162,17.377556547430686.057226272945627,52.544869843850392.067278084503414,69.932658321480631.190932783714743.000031272499655-.000140930978887,1.545502549759476.005901487229494,1.545502549759476.005901487229494l-.006897008619489,1.532470729203851c-.324932044180059,69.719190329347839-.970783137609942,210.042533743246167-1.538452148430224,279.73089599609375h0ZM279.731018066409888,279.730992093998793c-.578886571640396-69.742892350994225-1.234218389459784-210.023048281360389-1.538501961969814-279.731249247375672.000049813529586.000353251281922,1.538379891650038,1.538683329406922,1.538379891650038,1.538683329406922-38.949249237100048.064971880679877-100.44571419210024.31659426697297-139.865443183960451.281565584286C139.865478515630457,1.820286527592543.000122070309772,1.997654691655043.000122070309772,1.997654691655043L1.997680664059772.000096097905043c.100229124520411,79.28099495925926-.354748989349901,201.347947925607514-.465833842909888,279.73068255085127-.000474750840112.00015241008623-1.531724750840112-1.53115862507002-1.531724750840112-1.53115862507002,69.708463273910638.186233777156303,210.024441764499898,1.073926720840973,279.730895996100116,1.5313720703125h0Z"/>
    </g>
  </g>
</svg>