<?xml version="1.0" encoding="UTF-8"?>
<svg id="Content" xmlns="http://www.w3.org/2000/svg" viewBox="0 0 280 280">
  <defs>
    <style>
      .cls-1 {
        stroke: #665451;
        stroke-width: 50px;
      }

      .cls-1, .cls-2 {
        fill: none;
        stroke-linecap: round;
        stroke-linejoin: round;
      }

      .cls-3 {
        fill: #fff;
      }

      .cls-2 {
        stroke: #998675;
        stroke-width: 2px;
      }
    </style>
  </defs>
  <path class="cls-1" d="M218.689912659810034,85.647219907823455c-7.461995874499735-4.595480787633278-14.437812953649882-9.955467487417991-20.784216567460135-16.000090557186923-.761125328439448-.724959982797373-1.494753030589891-1.478890245143702-2.256037196630132-2.203153711328923,1.733894001430599,1.649722192749323.239183985080672.2330764217877-.120694427419949-.139590095661333-.389303563460089-.403305799709415-.776101827899765-.809201215894063-1.160023836730034-1.217671183481798-1.487953278239729-1.582773756639654-2.934496380799828-3.204256275410444-4.338129912979639-4.862297846819274-2.853208305470616-3.370550916322827-5.519320686849824-6.893579280280392-8.002904714840042-10.54464664952684-2.210942014309694-3.250008849881851-7.531266312820662-3.894985284980066-10.516249233730377-1.394905163288058-3.25734483900942,2.728128396838656-3.75972561034996,7.039952373643246-1.394973308440058,10.5161962543134,7.095900173590053,10.431047872625641,15.768256768989886,19.874900700513535,25.57973573380059,27.874784641118822-7.109409100600715.989371555724574-14.332735020240762,1.182897037882867-21.499243383550493,1.566884163648865-10.392693450309707.556769476583213-20.770430465900063,1.469787521118633-31.147587425500205,2.257741124598397-21.009616800109143,1.595324716778123-42.033366187039064,3.234985052757111-62.914818698149247,6.106439293263975-5.834926837410421.802362266025739-11.656516819580247,1.704364455981704-17.45685490877986,2.72500685452178,6.430514478649457-7.339048124946203,12.056598876919452-15.299892020004336,15.733095469089676-24.482333649440989,1.852995699139683-4.627698401891394,3.213822742569391-9.535040489830862,3.855438591080201-14.481813927770418.504080473999238-3.885576043088804-2.271664674630301-8.097525903565838-6.343901130109771-8.503621330914029-3.994243773960989-.398268364193427-7.963562061030643,2.181200322982477-8.50355318576112,6.343954109534025-.257829991539438,1.987924405022568-.643704893799622,3.949499451273368-1.1333979807996,5.890549452362393-1.148921182430058,3.836832931439858-2.689391933859952,7.541292845253338-4.574005909059451,11.076380681153751-.262125717860727.491574574933111-.530194927810953.979895059417686-.803950214980432,1.46505224655084-.057476930669509.101986116838816-.116407557509774.203170060205593-.174414483680266.304853466273926-.553165246309618.898623089473404-1.109404708039619,1.794309461714874-1.693014766179658,2.673800606442455-1.192255525000292,1.796809526436846-2.458030577589852,3.543896040811887-3.779684655800338,5.247539432735721-2.907720746249652,3.747951886933151-6.082503857769552,7.280896218937414-9.377561721899838,10.690375490908991-.745398193939764.771311804161087-1.497255313669484,1.536235444764316-2.25386762970993,2.29658748840302-.119331658889678.119880242173167-.239079771569777.239382045554521-.358684011070181.359050370056138-.407134174969542.400485944883258-.813798816079725.801774264555206-1.222182352419622,1.201124893064843-1.753222199010452,1.714436328795273-3.522701664080159,3.412024095563538-5.292188712010102,5.109551300043677-1.394307145319544,1.337580143543164-2.660623399629912,2.844531156839366-2.863210319869722,4.875732263844839-.19626300966047,1.969697237449509.17591494654971,4.069672138328315,1.468244594299904,5.640524552754869,10.553745158859783,12.827699462983219,20.503783848389503,26.14348524703928,29.815002022000044,39.899776500331427,2.203372634549851,3.255385438715166,7.536148404739833,3.890744817777886,10.516128109159581,1.394920329024899,3.263241223390651-2.733110978519107,3.751702063780613-7.034272872726433,1.394852183870171-10.516181088580197-6.907333911769456-10.205289321020246-14.168462159699629-20.166736830198715-21.764810945130193-29.867660989908472,18.564873829919634-3.707003575504132,37.380505180110049-6.042075573826878,56.224095368689632-7.816831816742706,10.864390309750888-1.023283209789952,21.744655051180416-1.865741191873894,32.625271221610092-2.692619198898683,10.783367299220117-.819499608292972,21.567577840360173-1.772769762977987,32.367712470640981-2.339464206512275,4.165520829669731-.218548782200742,8.329820683379694-.410494649457178,12.472723764369221-.726168057932227-3.160145492129232,3.366875298104787-6.045920009370093,6.963897615261885-8.471825734170125,10.894063234118221-2.20713079296911,3.575777001185998-4.15736053189994,7.247086327344732-5.528536913809148,11.226774248365473-.662999867620783,1.924612088063441-.83367425481083,3.896272415957355-.032133047410753,5.828321957138542.691556004030645,1.666741871264094,2.260447270320583,3.37027850272716,3.97681531931994,4.019308009725137,3.573103638700559,1.351099363067988,8.483422005670036.015495097863095,9.847698112010221-3.944629292487662.673932752610199-1.956183224207052,1.468821172619755-3.865015129204039,2.395940045060343-5.715051456185392.460369800149238-.918559891972109.985588621780153-1.798675012851163,1.465083756769673-2.70597394338256-.142618042349568.269931910450396-.253989837459812.479914372181156-.339215769879956.640304844537241.124276024400388-.226791565970416.269190266500118-.485262240055818.361815400319756-.631754825464668.205691532089986-.325254736049828.414865949200248-.648239040670887.627265836460538-.969043706954835,2.250999964940092-3.399318096131537,4.87100717596968-6.542693196073742,7.68980356262-9.48379546315482.29684330776945-.309602488769087.597919399209786-.614875529056008.897041929159968-.921995366748888.032682831600141-.03177241764206.065077916859991-.063877877522827.097760748460132-.095650295163068.755111176579703-.734021608648618,1.521671342839909-1.45619018823345,2.29748468814978-2.168322204684955,1.509724433770316-1.385555170114458,3.054848848640177-2.732053906867804,4.622599467509644-4.051121853946825,3.176480800480022-2.672423408141185,6.446798449880589-5.230127822658687,9.727521068980423-7.772526855867909,1.871534666290245-1.45041734377628,2.851285620969975-3.549215254362935,2.872232994419392-5.88153288344256.019482604740915-2.165191422587668-.859402377739571-4.781778186967131-2.829489359889521-5.995150187358377Z"/>
  <path class="cls-2" d="M218.689912659810034,85.647219907823455c-7.461995874499735-4.595480787633278-14.437812953649882-9.955467487417991-20.784216567460135-16.000090557186923-.761125328439448-.724959982797373-1.494753030589891-1.478890245143702-2.256037196630132-2.203153711328923,1.733894001430599,1.649722192749323.239183985080672.2330764217877-.120694427419949-.139590095661333-.389303563460089-.403305799709415-.776101827899765-.809201215894063-1.160023836730034-1.217671183481798-1.487953278239729-1.582773756639654-2.934496380799828-3.204256275410444-4.338129912979639-4.862297846819274-2.853208305470616-3.370550916322827-5.519320686849824-6.893579280280392-8.002904714840042-10.54464664952684-2.210942014309694-3.250008849881851-7.531266312820662-3.894985284980066-10.516249233730377-1.394905163288058-3.25734483900942,2.728128396838656-3.75972561034996,7.039952373643246-1.394973308440058,10.5161962543134,7.095900173590053,10.431047872625641,15.768256768989886,19.874900700513535,25.57973573380059,27.874784641118822-7.109409100600715.989371555724574-14.332735020240762,1.182897037882867-21.499243383550493,1.566884163648865-10.392693450309707.556769476583213-20.770430465900063,1.469787521118633-31.147587425500205,2.257741124598397-21.009616800109143,1.595324716778123-42.033366187039064,3.234985052757111-62.914818698149247,6.106439293263975-5.834926837410421.802362266025739-11.656516819580247,1.704364455981704-17.45685490877986,2.72500685452178,6.430514478649457-7.339048124946203,12.056598876919452-15.299892020004336,15.733095469089676-24.482333649440989,1.852995699139683-4.627698401891394,3.213822742569391-9.535040489830862,3.855438591080201-14.481813927770418.504080473999238-3.885576043088804-2.271664674630301-8.097525903565838-6.343901130109771-8.503621330914029-3.994243773960989-.398268364193427-7.963562061030643,2.181200322982477-8.50355318576112,6.343954109534025-.257829991539438,1.987924405022568-.643704893799622,3.949499451273368-1.1333979807996,5.890549452362393-1.148921182430058,3.836832931439858-2.689391933859952,7.541292845253338-4.574005909059451,11.076380681153751-.262125717860727.491574574933111-.530194927810953.979895059417686-.803950214980432,1.46505224655084-.057476930669509.101986116838816-.116407557509774.203170060205593-.174414483680266.304853466273926-.553165246309618.898623089473404-1.109404708039619,1.794309461714874-1.693014766179658,2.673800606442455-1.192255525000292,1.796809526436846-2.458030577589852,3.543896040811887-3.779684655800338,5.247539432735721-2.907720746249652,3.747951886933151-6.082503857769552,7.280896218937414-9.377561721899838,10.690375490908991-.745398193939764.771311804161087-1.497255313669484,1.536235444764316-2.25386762970993,2.29658748840302-.119331658889678.119880242173167-.239079771569777.239382045554521-.358684011070181.359050370056138-.407134174969542.400485944883258-.813798816079725.801774264555206-1.222182352419622,1.201124893064843-1.753222199010452,1.714436328795273-3.522701664080159,3.412024095563538-5.292188712010102,5.109551300043677-1.394307145319544,1.337580143543164-2.660623399629912,2.844531156839366-2.863210319869722,4.875732263844839-.19626300966047,1.969697237449509.17591494654971,4.069672138328315,1.468244594299904,5.640524552754869,10.553745158859783,12.827699462983219,20.503783848389503,26.14348524703928,29.815002022000044,39.899776500331427,2.203372634549851,3.255385438715166,7.536148404739833,3.890744817777886,10.516128109159581,1.394920329024899,3.263241223390651-2.733110978519107,3.751702063780613-7.034272872726433,1.394852183870171-10.516181088580197-6.907333911769456-10.205289321020246-14.168462159699629-20.166736830198715-21.764810945130193-29.867660989908472,18.564873829919634-3.707003575504132,37.380505180110049-6.042075573826878,56.224095368689632-7.816831816742706,10.864390309750888-1.023283209789952,21.744655051180416-1.865741191873894,32.625271221610092-2.692619198898683,10.783367299220117-.819499608292972,21.567577840360173-1.772769762977987,32.367712470640981-2.339464206512275,4.165520829669731-.218548782200742,8.329820683379694-.410494649457178,12.472723764369221-.726168057932227-3.160145492129232,3.366875298104787-6.045920009370093,6.963897615261885-8.471825734170125,10.894063234118221-2.20713079296911,3.575777001185998-4.15736053189994,7.247086327344732-5.528536913809148,11.226774248365473-.662999867620783,1.924612088063441-.83367425481083,3.896272415957355-.032133047410753,5.828321957138542.691556004030645,1.666741871264094,2.260447270320583,3.37027850272716,3.97681531931994,4.019308009725137,3.573103638700559,1.351099363067988,8.483422005670036.015495097863095,9.847698112010221-3.944629292487662.673932752610199-1.956183224207052,1.468821172619755-3.865015129204039,2.395940045060343-5.715051456185392.460369800149238-.918559891972109.985588621780153-1.798675012851163,1.465083756769673-2.70597394338256-.142618042349568.269931910450396-.253989837459812.479914372181156-.339215769879956.640304844537241.124276024400388-.226791565970416.269190266500118-.485262240055818.361815400319756-.631754825464668.205691532089986-.325254736049828.414865949200248-.648239040670887.627265836460538-.969043706954835,2.250999964940092-3.399318096131537,4.87100717596968-6.542693196073742,7.68980356262-9.48379546315482.29684330776945-.309602488769087.597919399209786-.614875529056008.897041929159968-.921995366748888.032682831600141-.03177241764206.065077916859991-.063877877522827.097760748460132-.095650295163068.755111176579703-.734021608648618,1.521671342839909-1.45619018823345,2.29748468814978-2.168322204684955,1.509724433770316-1.385555170114458,3.054848848640177-2.732053906867804,4.622599467509644-4.051121853946825,3.176480800480022-2.672423408141185,6.446798449880589-5.230127822658687,9.727521068980423-7.772526855867909,1.871534666290245-1.45041734377628,2.851285620969975-3.549215254362935,2.872232994419392-5.88153288344256.019482604740915-2.165191422587668-.859402377739571-4.781778186967131-2.829489359889521-5.995150187358377Z"/>
  <path class="cls-3" d="M218.689912659810034,85.647219907823455c-7.461995874499735-4.595480787633278-14.437812953649882-9.955467487417991-20.784216567460135-16.000090557186923-.761125328439448-.724959982797373-1.494753030589891-1.478890245143702-2.256037196630132-2.203153711328923,1.733894001430599,1.649722192749323.239183985080672.2330764217877-.120694427419949-.139590095661333-.389303563460089-.403305799709415-.776101827899765-.809201215894063-1.160023836730034-1.217671183481798-1.487953278239729-1.582773756639654-2.934496380799828-3.204256275410444-4.338129912979639-4.862297846819274-2.853208305470616-3.370550916322827-5.519320686849824-6.893579280280392-8.002904714840042-10.54464664952684-2.210942014309694-3.250008849881851-7.531266312820662-3.894985284980066-10.516249233730377-1.394905163288058-3.25734483900942,2.728128396838656-3.75972561034996,7.039952373643246-1.394973308440058,10.5161962543134,7.095900173590053,10.431047872625641,15.768256768989886,19.874900700513535,25.57973573380059,27.874784641118822-7.109409100600715.989371555724574-14.332735020240762,1.182897037882867-21.499243383550493,1.566884163648865-10.392693450309707.556769476583213-20.770430465900063,1.469787521118633-31.147587425500205,2.257741124598397-21.009616800109143,1.595324716778123-42.033366187039064,3.234985052757111-62.914818698149247,6.106439293263975-5.834926837410421.802362266025739-11.656516819580247,1.704364455981704-17.45685490877986,2.72500685452178,6.430514478649457-7.339048124946203,12.056598876919452-15.299892020004336,15.733095469089676-24.482333649440989,1.852995699139683-4.627698401891394,3.213822742569391-9.535040489830862,3.855438591080201-14.481813927770418.504080473999238-3.885576043088804-2.271664674630301-8.097525903565838-6.343901130109771-8.503621330914029-3.994243773960989-.398268364193427-7.963562061030643,2.181200322982477-8.50355318576112,6.343954109534025-.257829991539438,1.987924405022568-.643704893799622,3.949499451273368-1.1333979807996,5.890549452362393-1.148921182430058,3.836832931439858-2.689391933859952,7.541292845253338-4.574005909059451,11.076380681153751-.262125717860727.491574574933111-.530194927810953.979895059417686-.803950214980432,1.46505224655084-.057476930669509.101986116838816-.116407557509774.203170060205593-.174414483680266.304853466273926-.553165246309618.898623089473404-1.109404708039619,1.794309461714874-1.693014766179658,2.673800606442455-1.192255525000292,1.796809526436846-2.458030577589852,3.543896040811887-3.779684655800338,5.247539432735721-2.907720746249652,3.747951886933151-6.082503857769552,7.280896218937414-9.377561721899838,10.690375490908991-.745398193939764.771311804161087-1.497255313669484,1.536235444764316-2.25386762970993,2.29658748840302-.119331658889678.119880242173167-.239079771569777.239382045554521-.358684011070181.359050370056138-.407134174969542.400485944883258-.813798816079725.801774264555206-1.222182352419622,1.201124893064843-1.753222199010452,1.714436328795273-3.522701664080159,3.412024095563538-5.292188712010102,5.109551300043677-1.394307145319544,1.337580143543164-2.660623399629912,2.844531156839366-2.863210319869722,4.875732263844839-.19626300966047,1.969697237449509.17591494654971,4.069672138328315,1.468244594299904,5.640524552754869,10.553745158859783,12.827699462983219,20.503783848389503,26.14348524703928,29.815002022000044,39.899776500331427,2.203372634549851,3.255385438715166,7.536148404739833,3.890744817777886,10.516128109159581,1.394920329024899,3.263241223390651-2.733110978519107,3.751702063780613-7.034272872726433,1.394852183870171-10.516181088580197-6.907333911769456-10.205289321020246-14.168462159699629-20.166736830198715-21.764810945130193-29.867660989908472,18.564873829919634-3.707003575504132,37.380505180110049-6.042075573826878,56.224095368689632-7.816831816742706,10.864390309750888-1.023283209789952,21.744655051180416-1.865741191873894,32.625271221610092-2.692619198898683,10.783367299220117-.819499608292972,21.567577840360173-1.772769762977987,32.367712470640981-2.339464206512275,4.165520829669731-.218548782200742,8.329820683379694-.410494649457178,12.472723764369221-.726168057932227-3.160145492129232,3.366875298104787-6.045920009370093,6.963897615261885-8.471825734170125,10.894063234118221-2.20713079296911,3.575777001185998-4.15736053189994,7.247086327344732-5.528536913809148,11.226774248365473-.662999867620783,1.924612088063441-.83367425481083,3.896272415957355-.032133047410753,5.828321957138542.691556004030645,1.666741871264094,2.260447270320583,3.37027850272716,3.97681531931994,4.019308009725137,3.573103638700559,1.351099363067988,8.483422005670036.015495097863095,9.847698112010221-3.944629292487662.673932752610199-1.956183224207052,1.468821172619755-3.865015129204039,2.395940045060343-5.715051456185392.460369800149238-.918559891972109.985588621780153-1.798675012851163,1.465083756769673-2.70597394338256-.142618042349568.269931910450396-.253989837459812.479914372181156-.339215769879956.640304844537241.124276024400388-.226791565970416.269190266500118-.485262240055818.361815400319756-.631754825464668.205691532089986-.325254736049828.414865949200248-.648239040670887.627265836460538-.969043706954835,2.250999964940092-3.399318096131537,4.87100717596968-6.542693196073742,7.68980356262-9.48379546315482.29684330776945-.309602488769087.597919399209786-.614875529056008.897041929159968-.921995366748888.032682831600141-.03177241764206.065077916859991-.063877877522827.097760748460132-.095650295163068.755111176579703-.734021608648618,1.521671342839909-1.45619018823345,2.29748468814978-2.168322204684955,1.509724433770316-1.385555170114458,3.054848848640177-2.732053906867804,4.622599467509644-4.051121853946825,3.176480800480022-2.672423408141185,6.446798449880589-5.230127822658687,9.727521068980423-7.772526855867909,1.871534666290245-1.45041734377628,2.851285620969975-3.549215254362935,2.872232994419392-5.88153288344256.019482604740915-2.165191422587668-.859402377739571-4.781778186967131-2.829489359889521-5.995150187358377Z"/>
</svg>