<?xml version="1.0" encoding="UTF-8"?>
<svg id="Content" xmlns="http://www.w3.org/2000/svg" xmlns:xlink="http://www.w3.org/1999/xlink" viewBox="0 0 280 280">
  <defs>
    <style>
      .cls-1 {
        stroke: #665451;
        stroke-width: 50px;
      }

      .cls-1, .cls-2 {
        fill: none;
        stroke-linecap: round;
        stroke-linejoin: round;
      }

      .cls-3 {
        fill: #fff;
      }

      .cls-2 {
        stroke: #998675;
        stroke-width: 2px;
      }
    </style>
  </defs>
  <a xlink:href="https://www.notion.so/congruence/Sample-intercept-125f9339b29b80efb203d92cc4f29fee?pvs=4">
    <g>
      <g>
        <path class="cls-1" d="M64.62109375,98.783203125c3.87109375.6630859375,7.8017578125,1.8720703125,11.7939453125,3.625,3.9912109375,1.7529296875,7.697265625,3.9677734375,11.1259765625,6.64453125,3.423828125,2.67578125,6.392578125,5.7587890625,8.9150390625,9.2509765625,2.5166015625,3.490234375,4.33203125,7.369140625,5.44140625,11.634765625,1.33203125,5.9384765625.93359375,11.7080078125-1.2001953125,17.3095703125-2.1318359375,5.6015625-5.4912109375,10.4560546875-10.076171875,14.564453125-3.35546875,2.892578125-7.1201171875,5.1826171875-11.2900390625,6.86328125-4.171875,1.68359375-8.54296875,2.900390625-13.11328125,3.6455078125-4.5732421875.748046875-9.2724609375,1.041015625-14.09765625.8779296875-4.8251953125-.1640625-9.6015625-.7509765625-14.3330078125-1.763671875-2.2509765625-.591796875-4.125-1.5751953125-5.626953125-2.9501953125-1.5009765625-1.3779296875-2.205078125-3.5390625-2.1083984375-6.4794921875-.0986328125-.62890625.0361328125-2.466796875.4072265625-5.5146484375.3681640625-3.044921875.9150390625-6.8525390625,1.6455078125-11.4189453125.728515625-4.5634765625,1.578125-9.669921875,2.544921875-15.318359375.9658203125-5.646484375,1.9755859375-11.4130859375,3.03515625-17.2998046875,1.0576171875-5.88671875,2.1240234375-11.6728515625,3.1982421875-17.357421875,1.0732421875-5.68359375,2.052734375-10.80078125,2.93359375-15.3505859375.87890625-4.548828125,1.607421875-8.3583984375,2.1845703125-11.427734375.5751953125-3.06640625.9638671875-4.892578125,1.1669921875-5.470703125.0341796875-.810546875.3095703125-1.529296875.8271484375-2.1572265625.4013671875-.5439453125.9609375-.9853515625,1.68359375-1.3212890625.720703125-.3369140625,1.783203125-.4345703125,3.19140625-.296875,1.3056640625.123046875,2.978515625.3564453125,5.013671875.705078125,2.03515625.34765625,3.97265625.80859375,5.818359375,1.3779296875,1.8408203125.5712890625,3.3798828125,1.2939453125,4.609375,2.1669921875,1.228515625.876953125,1.79296875,1.916015625,1.6884765625,3.125-.9169921875,5.3603515625-1.837890625,10.74609375-2.763671875,16.1552734375-.92578125,5.4111328125-1.7978515625,10.8037109375-2.615234375,16.1806640625ZM56.412109375,148.5673828125c4.01953125.3818359375,7.5732421875.0693359375,10.658203125-.935546875,3.0830078125-1.0048828125,5.5712890625-2.41796875,7.4677734375-4.2392578125,1.8955078125-1.822265625,3.1171875-3.884765625,3.6640625-6.193359375.5478515625-2.3056640625.2978515625-4.5703125-.7529296875-6.794921875-1.05078125-2.22265625-2.9013671875-4.251953125-5.548828125-6.083984375-2.6513671875-1.8330078125-6.2490234375-3.1884765625-10.798828125-4.0703125-.8154296875,4.765625-1.5966796875,9.4853515625-2.345703125,14.1591796875-.7470703125,4.67578125-1.5283203125,9.3935546875-2.34375,14.158203125Z"/>
        <path class="cls-1" d="M119.515625,185.0888671875c-2.400390625-.41015625-4.5927734375-1.2421875-6.5732421875-2.494140625-1.9833984375-1.251953125-3.6376953125-2.76953125-4.9609375-4.5517578125-1.3251953125-1.78125-2.27734375-3.783203125-2.8603515625-6.0068359375-.5830078125-2.2216796875-.677734375-4.4853515625-.2841796875-6.7880859375l2.76953125-16.189453125c.40234375-2.349609375,1.24609375-4.46484375,2.5302734375-6.34375s2.84765625-3.44921875,4.6943359375-4.71484375c1.8447265625-1.263671875,3.9111328125-2.15625,6.1982421875-2.6796875,2.2841796875-.521484375,4.6279296875-.578125,7.0283203125-.16796875l.791015625.1357421875c2.447265625.4189453125,4.66015625,1.2548828125,6.6435546875,2.5068359375,1.982421875,1.25390625,3.646484375,2.7841796875,4.9912109375,4.59375,1.3427734375,1.810546875,2.296875,3.8125,2.8603515625,6.0068359375.5615234375,2.1953125.6435546875,4.4677734375.2412109375,6.8173828125l-2.76953125,16.189453125c-.3935546875,2.302734375-1.224609375,4.408203125-2.4873046875,6.314453125-1.2646484375,1.9072265625-2.830078125,3.478515625-4.6943359375,4.71484375-1.8662109375,1.236328125-3.9423828125,2.115234375-6.228515625,2.63671875-2.287109375.521484375-4.6513671875.57421875-7.0986328125.15625l-.791015625-.1357421875ZM126.1376953125,146.3779296875c-1.5859375-.271484375-3.0458984375.046875-4.38671875.953125-1.3388671875.9072265625-2.1455078125,2.1513671875-2.416015625,3.734375l-2.76953125,16.189453125c-.2626953125,1.53515625.087890625,2.9521484375,1.0498046875,4.2529296875.962890625,1.30078125,2.234375,2.0849609375,3.8203125,2.3564453125l.791015625.1357421875c1.677734375.287109375,3.17578125-.0244140625,4.490234375-.935546875,1.3173828125-.91015625,2.107421875-2.1328125,2.3701171875-3.66796875l2.76953125-16.189453125c.2705078125-1.5830078125-.0634765625-3.0224609375-1.00390625-4.3193359375-.9365234375-1.2958984375-2.24609375-2.0869140625-3.923828125-2.3740234375l-.791015625-.1357421875Z"/>
      </g>
      <g>
        <path class="cls-2" d="M64.62109375,98.783203125c3.87109375.6630859375,7.8017578125,1.8720703125,11.7939453125,3.625,3.9912109375,1.7529296875,7.697265625,3.9677734375,11.1259765625,6.64453125,3.423828125,2.67578125,6.392578125,5.7587890625,8.9150390625,9.2509765625,2.5166015625,3.490234375,4.33203125,7.369140625,5.44140625,11.634765625,1.33203125,5.9384765625.93359375,11.7080078125-1.2001953125,17.3095703125-2.1318359375,5.6015625-5.4912109375,10.4560546875-10.076171875,14.564453125-3.35546875,2.892578125-7.1201171875,5.1826171875-11.2900390625,6.86328125-4.171875,1.68359375-8.54296875,2.900390625-13.11328125,3.6455078125-4.5732421875.748046875-9.2724609375,1.041015625-14.09765625.8779296875-4.8251953125-.1640625-9.6015625-.7509765625-14.3330078125-1.763671875-2.2509765625-.591796875-4.125-1.5751953125-5.626953125-2.9501953125-1.5009765625-1.3779296875-2.205078125-3.5390625-2.1083984375-6.4794921875-.0986328125-.62890625.0361328125-2.466796875.4072265625-5.5146484375.3681640625-3.044921875.9150390625-6.8525390625,1.6455078125-11.4189453125.728515625-4.5634765625,1.578125-9.669921875,2.544921875-15.318359375.9658203125-5.646484375,1.9755859375-11.4130859375,3.03515625-17.2998046875,1.0576171875-5.88671875,2.1240234375-11.6728515625,3.1982421875-17.357421875,1.0732421875-5.68359375,2.052734375-10.80078125,2.93359375-15.3505859375.87890625-4.548828125,1.607421875-8.3583984375,2.1845703125-11.427734375.5751953125-3.06640625.9638671875-4.892578125,1.1669921875-5.470703125.0341796875-.810546875.3095703125-1.529296875.8271484375-2.1572265625.4013671875-.5439453125.9609375-.9853515625,1.68359375-1.3212890625.720703125-.3369140625,1.783203125-.4345703125,3.19140625-.296875,1.3056640625.123046875,2.978515625.3564453125,5.013671875.705078125,2.03515625.34765625,3.97265625.80859375,5.818359375,1.3779296875,1.8408203125.5712890625,3.3798828125,1.2939453125,4.609375,2.1669921875,1.228515625.876953125,1.79296875,1.916015625,1.6884765625,3.125-.9169921875,5.3603515625-1.837890625,10.74609375-2.763671875,16.1552734375-.92578125,5.4111328125-1.7978515625,10.8037109375-2.615234375,16.1806640625ZM56.412109375,148.5673828125c4.01953125.3818359375,7.5732421875.0693359375,10.658203125-.935546875,3.0830078125-1.0048828125,5.5712890625-2.41796875,7.4677734375-4.2392578125,1.8955078125-1.822265625,3.1171875-3.884765625,3.6640625-6.193359375.5478515625-2.3056640625.2978515625-4.5703125-.7529296875-6.794921875-1.05078125-2.22265625-2.9013671875-4.251953125-5.548828125-6.083984375-2.6513671875-1.8330078125-6.2490234375-3.1884765625-10.798828125-4.0703125-.8154296875,4.765625-1.5966796875,9.4853515625-2.345703125,14.1591796875-.7470703125,4.67578125-1.5283203125,9.3935546875-2.34375,14.158203125Z"/>
        <path class="cls-2" d="M119.515625,185.0888671875c-2.400390625-.41015625-4.5927734375-1.2421875-6.5732421875-2.494140625-1.9833984375-1.251953125-3.6376953125-2.76953125-4.9609375-4.5517578125-1.3251953125-1.78125-2.27734375-3.783203125-2.8603515625-6.0068359375-.5830078125-2.2216796875-.677734375-4.4853515625-.2841796875-6.7880859375l2.76953125-16.189453125c.40234375-2.349609375,1.24609375-4.46484375,2.5302734375-6.34375s2.84765625-3.44921875,4.6943359375-4.71484375c1.8447265625-1.263671875,3.9111328125-2.15625,6.1982421875-2.6796875,2.2841796875-.521484375,4.6279296875-.578125,7.0283203125-.16796875l.791015625.1357421875c2.447265625.4189453125,4.66015625,1.2548828125,6.6435546875,2.5068359375,1.982421875,1.25390625,3.646484375,2.7841796875,4.9912109375,4.59375,1.3427734375,1.810546875,2.296875,3.8125,2.8603515625,6.0068359375.5615234375,2.1953125.6435546875,4.4677734375.2412109375,6.8173828125l-2.76953125,16.189453125c-.3935546875,2.302734375-1.224609375,4.408203125-2.4873046875,6.314453125-1.2646484375,1.9072265625-2.830078125,3.478515625-4.6943359375,4.71484375-1.8662109375,1.236328125-3.9423828125,2.115234375-6.228515625,2.63671875-2.287109375.521484375-4.6513671875.57421875-7.0986328125.15625l-.791015625-.1357421875ZM126.1376953125,146.3779296875c-1.5859375-.271484375-3.0458984375.046875-4.38671875.953125-1.3388671875.9072265625-2.1455078125,2.1513671875-2.416015625,3.734375l-2.76953125,16.189453125c-.2626953125,1.53515625.087890625,2.9521484375,1.0498046875,4.2529296875.962890625,1.30078125,2.234375,2.0849609375,3.8203125,2.3564453125l.791015625.1357421875c1.677734375.287109375,3.17578125-.0244140625,4.490234375-.935546875,1.3173828125-.91015625,2.107421875-2.1328125,2.3701171875-3.66796875l2.76953125-16.189453125c.2705078125-1.5830078125-.0634765625-3.0224609375-1.00390625-4.3193359375-.9365234375-1.2958984375-2.24609375-2.0869140625-3.923828125-2.3740234375l-.791015625-.1357421875Z"/>
      </g>
      <g>
        <path class="cls-3" d="M64.62109375,98.783203125c3.87109375.6630859375,7.8017578125,1.8720703125,11.7939453125,3.625,3.9912109375,1.7529296875,7.697265625,3.9677734375,11.1259765625,6.64453125,3.423828125,2.67578125,6.392578125,5.7587890625,8.9150390625,9.2509765625,2.5166015625,3.490234375,4.33203125,7.369140625,5.44140625,11.634765625,1.33203125,5.9384765625.93359375,11.7080078125-1.2001953125,17.3095703125-2.1318359375,5.6015625-5.4912109375,10.4560546875-10.076171875,14.564453125-3.35546875,2.892578125-7.1201171875,5.1826171875-11.2900390625,6.86328125-4.171875,1.68359375-8.54296875,2.900390625-13.11328125,3.6455078125-4.5732421875.748046875-9.2724609375,1.041015625-14.09765625.8779296875-4.8251953125-.1640625-9.6015625-.7509765625-14.3330078125-1.763671875-2.2509765625-.591796875-4.125-1.5751953125-5.626953125-2.9501953125-1.5009765625-1.3779296875-2.205078125-3.5390625-2.1083984375-6.4794921875-.0986328125-.62890625.0361328125-2.466796875.4072265625-5.5146484375.3681640625-3.044921875.9150390625-6.8525390625,1.6455078125-11.4189453125.728515625-4.5634765625,1.578125-9.669921875,2.544921875-15.318359375.9658203125-5.646484375,1.9755859375-11.4130859375,3.03515625-17.2998046875,1.0576171875-5.88671875,2.1240234375-11.6728515625,3.1982421875-17.357421875,1.0732421875-5.68359375,2.052734375-10.80078125,2.93359375-15.3505859375.87890625-4.548828125,1.607421875-8.3583984375,2.1845703125-11.427734375.5751953125-3.06640625.9638671875-4.892578125,1.1669921875-5.470703125.0341796875-.810546875.3095703125-1.529296875.8271484375-2.1572265625.4013671875-.5439453125.9609375-.9853515625,1.68359375-1.3212890625.720703125-.3369140625,1.783203125-.4345703125,3.19140625-.296875,1.3056640625.123046875,2.978515625.3564453125,5.013671875.705078125,2.03515625.34765625,3.97265625.80859375,5.818359375,1.3779296875,1.8408203125.5712890625,3.3798828125,1.2939453125,4.609375,2.1669921875,1.228515625.876953125,1.79296875,1.916015625,1.6884765625,3.125-.9169921875,5.3603515625-1.837890625,10.74609375-2.763671875,16.1552734375-.92578125,5.4111328125-1.7978515625,10.8037109375-2.615234375,16.1806640625ZM56.412109375,148.5673828125c4.01953125.3818359375,7.5732421875.0693359375,10.658203125-.935546875,3.0830078125-1.0048828125,5.5712890625-2.41796875,7.4677734375-4.2392578125,1.8955078125-1.822265625,3.1171875-3.884765625,3.6640625-6.193359375.5478515625-2.3056640625.2978515625-4.5703125-.7529296875-6.794921875-1.05078125-2.22265625-2.9013671875-4.251953125-5.548828125-6.083984375-2.6513671875-1.8330078125-6.2490234375-3.1884765625-10.798828125-4.0703125-.8154296875,4.765625-1.5966796875,9.4853515625-2.345703125,14.1591796875-.7470703125,4.67578125-1.5283203125,9.3935546875-2.34375,14.158203125Z"/>
        <path class="cls-3" d="M119.515625,185.0888671875c-2.400390625-.41015625-4.5927734375-1.2421875-6.5732421875-2.494140625-1.9833984375-1.251953125-3.6376953125-2.76953125-4.9609375-4.5517578125-1.3251953125-1.78125-2.27734375-3.783203125-2.8603515625-6.0068359375-.5830078125-2.2216796875-.677734375-4.4853515625-.2841796875-6.7880859375l2.76953125-16.189453125c.40234375-2.349609375,1.24609375-4.46484375,2.5302734375-6.34375s2.84765625-3.44921875,4.6943359375-4.71484375c1.8447265625-1.263671875,3.9111328125-2.15625,6.1982421875-2.6796875,2.2841796875-.521484375,4.6279296875-.578125,7.0283203125-.16796875l.791015625.1357421875c2.447265625.4189453125,4.66015625,1.2548828125,6.6435546875,2.5068359375,1.982421875,1.25390625,3.646484375,2.7841796875,4.9912109375,4.59375,1.3427734375,1.810546875,2.296875,3.8125,2.8603515625,6.0068359375.5615234375,2.1953125.6435546875,4.4677734375.2412109375,6.8173828125l-2.76953125,16.189453125c-.3935546875,2.302734375-1.224609375,4.408203125-2.4873046875,6.314453125-1.2646484375,1.9072265625-2.830078125,3.478515625-4.6943359375,4.71484375-1.8662109375,1.236328125-3.9423828125,2.115234375-6.228515625,2.63671875-2.287109375.521484375-4.6513671875.57421875-7.0986328125.15625l-.791015625-.1357421875ZM126.1376953125,146.3779296875c-1.5859375-.271484375-3.0458984375.046875-4.38671875.953125-1.3388671875.9072265625-2.1455078125,2.1513671875-2.416015625,3.734375l-2.76953125,16.189453125c-.2626953125,1.53515625.087890625,2.9521484375,1.0498046875,4.2529296875.962890625,1.30078125,2.234375,2.0849609375,3.8203125,2.3564453125l.791015625.1357421875c1.677734375.287109375,3.17578125-.0244140625,4.490234375-.935546875,1.3173828125-.91015625,2.107421875-2.1328125,2.3701171875-3.66796875l2.76953125-16.189453125c.2705078125-1.5830078125-.0634765625-3.0224609375-1.00390625-4.3193359375-.9365234375-1.2958984375-2.24609375-2.0869140625-3.923828125-2.3740234375l-.791015625-.1357421875Z"/>
      </g>
    </g>
  </a>
</svg>