<?xml version="1.0" encoding="UTF-8"?>
<svg id="Content" xmlns="http://www.w3.org/2000/svg" xmlns:xlink="http://www.w3.org/1999/xlink" viewBox="0 0 280 280">
  <defs>
    <style>
      .cls-1 {
        stroke: #665451;
        stroke-width: 50px;
      }

      .cls-1, .cls-2 {
        fill: none;
        stroke-linecap: round;
        stroke-linejoin: round;
      }

      .cls-3 {
        fill: #fff;
      }

      .cls-2 {
        stroke: #998675;
        stroke-width: 2px;
      }
    </style>
  </defs>
  <a xlink:href="https://www.notion.so/congruence/Sample-mean-86c75e229f8c433fa5cfaf8c59bf39bd?pvs=4">
    <g>
      <g>
        <path d="M130.1904296875,167.83056640625c.64404296875,1.00146484375.982421875,2.0986328125,1.01806640625,3.291015625.0498046875.958984375-.1796875,2.10498046875-.6904296875,3.43798828125-.513671875,1.33544921875-1.5302734375,2.6630859375-3.05419921875,3.98486328125-1.5244140625,1.32275390625-3.16650390625,2.60888671875-4.9228515625,3.85302734375-1.75927734375,1.24755859375-3.55517578125,2.22314453125-5.39306640625,2.92529296875-1.837890625.70263671875-3.64208984375.9326171875-5.41259765625.68896484375-1.77099609375-.24560546875-3.4912109375-1.203125-5.1611328125-2.869140625-.900390625-.77880859375-2.4072265625-2.61279296875-4.52685546875-5.50634765625-2.119140625-2.89111328125-4.57470703125-6.521484375-7.3623046875-10.8935546875-1.400390625-2.125-2.87841796875-4.40625-4.43212890625-6.8408203125-1.556640625-2.4345703125-3.20068359375-4.90380859375-4.92822265625-7.41259765625-3.8359375,3.66162109375-7.451171875,7.13232421875-10.8408203125,10.40673828125-3.39208984375,3.27685546875-6.36669921875,6.13671875-8.92333984375,8.57568359375-3.06494140625,2.8837890625-5.876953125,5.5458984375-8.43310546875,7.98486328125-.63720703125.552734375-1.3828125.974609375-2.23583984375,1.27197265625-.728515625.18603515625-1.56591796875.2158203125-2.51025390625.08984375-.9462890625-.12841796875-2.03662109375-.7119140625-3.27294921875-1.751953125-1.24755859375-.9208984375-2.6845703125-2.095703125-4.3095703125-3.52392578125-1.62841796875-1.42626953125-3.1044921875-2.8720703125-4.4306640625-4.337890625-1.32666015625-1.46337890625-2.27197265625-2.87109375-2.830078125-4.2236328125-.56005859375-1.35009765625-.4453125-2.53515625.341796875-3.55224609375l32.8447265625-34.5048828125c-2.783203125-4.48828125-5.34130859375-8.75146484375-7.67578125-12.7919921875-2.33642578125-4.03857421875-4.4072265625-7.61328125-6.21240234375-10.72265625-2.0107421875-3.5986328125-3.8603515625-6.9482421875-5.5458984375-10.048828125-.54443359375-.75390625-.845703125-1.54931640625-.90283203125-2.38916015625-.06982421875-.7197265625.10498046875-1.4814453125.51953125-2.28759765625.41455078125-.802734375,1.306640625-1.6337890625,2.68017578125-2.49169921875,1.37060546875-.85546875,2.99169921875-1.84423828125,4.859375-2.96337890625,1.8671875-1.11962890625,3.693359375-2.09033203125,5.4814453125-2.9189453125,1.78564453125-.826171875,3.4306640625-1.33544921875,4.93603515625-1.52734375,1.5029296875-.18994140625,2.63623046875.21728515625,3.39990234375,1.224609375,2.8916015625,4.6162109375,5.7890625,9.14404296875,8.6923828125,13.57958984375,2.904296875,4.439453125,5.8056640625,8.90576171875,8.705078125,13.40283203125l21.033203125-21.75341796875c.87939453125-.6533203125,1.93017578125-1.173828125,3.15087890625-1.564453125.97314453125-.28857421875,2.17041015625-.35205078125,3.58984375-.19287109375,1.41943359375.16259765625,2.91943359375.83349609375,4.505859375,2.01806640625,1.70361328125,1.1943359375,3.3984375,2.50732421875,5.0849609375,3.9375,1.6865234375,1.4326171875,3.0693359375,2.93017578125,4.1513671875,4.49658203125,1.0791015625,1.568359375,1.70556640625,3.25048828125,1.87646484375,5.0498046875.1689453125,1.80029296875-.41064453125,3.66748046875-1.73779296875,5.5986328125-.52587890625.6787109375-1.5341796875,1.85791015625-3.02294921875,3.54052734375-1.49072265625,1.6826171875-3.388671875,3.66552734375-5.6962890625,5.94384765625-2.3076171875,2.28125-4.90283203125,4.837890625-7.78564453125,7.6728515625-2.8837890625,2.8359375-5.92724609375,5.81005859375-9.12646484375,8.9189453125,4.11083984375,5.896484375,8.1962890625,11.7568359375,12.2529296875,17.587890625,4.056640625,5.83056640625,8.138671875,11.69384765625,12.25244140625,17.58740234375Z"/>
        <path d="M46.308837890625,57.802703857421875c4.111655148859427-1.723796261931966,8.275030841968146-3.02047299491187,12.511590351704399-4.180181497903504,8.062469427103679.705537458315121,28.090963796375945,2.010813293563842,36.45826812377345,2.641124390416735,8.019355324968274.569312706509663,28.7004358729655,2.035213678028413,36.462145255920404,2.586177291026615,3.93004289491364,1.732833211585785,8.054689515216523,3.692460956019204,11.800312285026848,5.849529270650237-4.013217237185017,1.607220248222802-8.373471613308539,2.964078096708363-12.507829122335352,4.125426988259278-7.668408951855781-.54395525819109-28.517586154408491-2.022746139541596-36.462161983123224-2.58625522809416-8.457540117208737-.581563029480094-28.253969475937083-2.06946094173145-36.465668025527521-2.531558663406031-4.030638727288533-1.746184380821433-7.968472598844528-3.617103022863375-11.796656885439006-5.90426255094917h0Z"/>
      </g>
      <g>
        <g>
          <path class="cls-1" d="M130.1904296875,167.83056640625c.64404296875,1.00146484375.982421875,2.0986328125,1.01806640625,3.291015625.0498046875.958984375-.1796875,2.10498046875-.6904296875,3.43798828125-.513671875,1.33544921875-1.5302734375,2.6630859375-3.05419921875,3.98486328125-1.5244140625,1.32275390625-3.16650390625,2.60888671875-4.9228515625,3.85302734375-1.75927734375,1.24755859375-3.55517578125,2.22314453125-5.39306640625,2.92529296875-1.837890625.70263671875-3.64208984375.9326171875-5.41259765625.68896484375-1.77099609375-.24560546875-3.4912109375-1.203125-5.1611328125-2.869140625-.900390625-.77880859375-2.4072265625-2.61279296875-4.52685546875-5.50634765625-2.119140625-2.89111328125-4.57470703125-6.521484375-7.3623046875-10.8935546875-1.400390625-2.125-2.87841796875-4.40625-4.43212890625-6.8408203125-1.556640625-2.4345703125-3.20068359375-4.90380859375-4.92822265625-7.41259765625-3.8359375,3.66162109375-7.451171875,7.13232421875-10.8408203125,10.40673828125-3.39208984375,3.27685546875-6.36669921875,6.13671875-8.92333984375,8.57568359375-3.06494140625,2.8837890625-5.876953125,5.5458984375-8.43310546875,7.98486328125-.63720703125.552734375-1.3828125.974609375-2.23583984375,1.27197265625-.728515625.18603515625-1.56591796875.2158203125-2.51025390625.08984375-.9462890625-.12841796875-2.03662109375-.7119140625-3.27294921875-1.751953125-1.24755859375-.9208984375-2.6845703125-2.095703125-4.3095703125-3.52392578125-1.62841796875-1.42626953125-3.1044921875-2.8720703125-4.4306640625-4.337890625-1.32666015625-1.46337890625-2.27197265625-2.87109375-2.830078125-4.2236328125-.56005859375-1.35009765625-.4453125-2.53515625.341796875-3.55224609375l32.8447265625-34.5048828125c-2.783203125-4.48828125-5.34130859375-8.75146484375-7.67578125-12.7919921875-2.33642578125-4.03857421875-4.4072265625-7.61328125-6.21240234375-10.72265625-2.0107421875-3.5986328125-3.8603515625-6.9482421875-5.5458984375-10.048828125-.54443359375-.75390625-.845703125-1.54931640625-.90283203125-2.38916015625-.06982421875-.7197265625.10498046875-1.4814453125.51953125-2.28759765625.41455078125-.802734375,1.306640625-1.6337890625,2.68017578125-2.49169921875,1.37060546875-.85546875,2.99169921875-1.84423828125,4.859375-2.96337890625,1.8671875-1.11962890625,3.693359375-2.09033203125,5.4814453125-2.9189453125,1.78564453125-.826171875,3.4306640625-1.33544921875,4.93603515625-1.52734375,1.5029296875-.18994140625,2.63623046875.21728515625,3.39990234375,1.224609375,2.8916015625,4.6162109375,5.7890625,9.14404296875,8.6923828125,13.57958984375,2.904296875,4.439453125,5.8056640625,8.90576171875,8.705078125,13.40283203125l21.033203125-21.75341796875c.87939453125-.6533203125,1.93017578125-1.173828125,3.15087890625-1.564453125.97314453125-.28857421875,2.17041015625-.35205078125,3.58984375-.19287109375,1.41943359375.16259765625,2.91943359375.83349609375,4.505859375,2.01806640625,1.70361328125,1.1943359375,3.3984375,2.50732421875,5.0849609375,3.9375,1.6865234375,1.4326171875,3.0693359375,2.93017578125,4.1513671875,4.49658203125,1.0791015625,1.568359375,1.70556640625,3.25048828125,1.87646484375,5.0498046875.1689453125,1.80029296875-.41064453125,3.66748046875-1.73779296875,5.5986328125-.52587890625.6787109375-1.5341796875,1.85791015625-3.02294921875,3.54052734375-1.49072265625,1.6826171875-3.388671875,3.66552734375-5.6962890625,5.94384765625-2.3076171875,2.28125-4.90283203125,4.837890625-7.78564453125,7.6728515625-2.8837890625,2.8359375-5.92724609375,5.81005859375-9.12646484375,8.9189453125,4.11083984375,5.896484375,8.1962890625,11.7568359375,12.2529296875,17.587890625,4.056640625,5.83056640625,8.138671875,11.69384765625,12.25244140625,17.58740234375Z"/>
          <path class="cls-1" d="M130.1904296875,167.83056640625c.64404296875,1.00146484375.982421875,2.0986328125,1.01806640625,3.291015625.0498046875.958984375-.1796875,2.10498046875-.6904296875,3.43798828125-.513671875,1.33544921875-1.5302734375,2.6630859375-3.05419921875,3.98486328125-1.5244140625,1.32275390625-3.16650390625,2.60888671875-4.9228515625,3.85302734375-1.75927734375,1.24755859375-3.55517578125,2.22314453125-5.39306640625,2.92529296875-1.837890625.70263671875-3.64208984375.9326171875-5.41259765625.68896484375-1.77099609375-.24560546875-3.4912109375-1.203125-5.1611328125-2.869140625-.900390625-.77880859375-2.4072265625-2.61279296875-4.52685546875-5.50634765625-2.119140625-2.89111328125-4.57470703125-6.521484375-7.3623046875-10.8935546875-1.400390625-2.125-2.87841796875-4.40625-4.43212890625-6.8408203125-1.556640625-2.4345703125-3.20068359375-4.90380859375-4.92822265625-7.41259765625-3.8359375,3.66162109375-7.451171875,7.13232421875-10.8408203125,10.40673828125-3.39208984375,3.27685546875-6.36669921875,6.13671875-8.92333984375,8.57568359375-3.06494140625,2.8837890625-5.876953125,5.5458984375-8.43310546875,7.98486328125-.63720703125.552734375-1.3828125.974609375-2.23583984375,1.27197265625-.728515625.18603515625-1.56591796875.2158203125-2.51025390625.08984375-.9462890625-.12841796875-2.03662109375-.7119140625-3.27294921875-1.751953125-1.24755859375-.9208984375-2.6845703125-2.095703125-4.3095703125-3.52392578125-1.62841796875-1.42626953125-3.1044921875-2.8720703125-4.4306640625-4.337890625-1.32666015625-1.46337890625-2.27197265625-2.87109375-2.830078125-4.2236328125-.56005859375-1.35009765625-.4453125-2.53515625.341796875-3.55224609375l32.8447265625-34.5048828125c-2.783203125-4.48828125-5.34130859375-8.75146484375-7.67578125-12.7919921875-2.33642578125-4.03857421875-4.4072265625-7.61328125-6.21240234375-10.72265625-2.0107421875-3.5986328125-3.8603515625-6.9482421875-5.5458984375-10.048828125-.54443359375-.75390625-.845703125-1.54931640625-.90283203125-2.38916015625-.06982421875-.7197265625.10498046875-1.4814453125.51953125-2.28759765625.41455078125-.802734375,1.306640625-1.6337890625,2.68017578125-2.49169921875,1.37060546875-.85546875,2.99169921875-1.84423828125,4.859375-2.96337890625,1.8671875-1.11962890625,3.693359375-2.09033203125,5.4814453125-2.9189453125,1.78564453125-.826171875,3.4306640625-1.33544921875,4.93603515625-1.52734375,1.5029296875-.18994140625,2.63623046875.21728515625,3.39990234375,1.224609375,2.8916015625,4.6162109375,5.7890625,9.14404296875,8.6923828125,13.57958984375,2.904296875,4.439453125,5.8056640625,8.90576171875,8.705078125,13.40283203125l21.033203125-21.75341796875c.87939453125-.6533203125,1.93017578125-1.173828125,3.15087890625-1.564453125.97314453125-.28857421875,2.17041015625-.35205078125,3.58984375-.19287109375,1.41943359375.16259765625,2.91943359375.83349609375,4.505859375,2.01806640625,1.70361328125,1.1943359375,3.3984375,2.50732421875,5.0849609375,3.9375,1.6865234375,1.4326171875,3.0693359375,2.93017578125,4.1513671875,4.49658203125,1.0791015625,1.568359375,1.70556640625,3.25048828125,1.87646484375,5.0498046875.1689453125,1.80029296875-.41064453125,3.66748046875-1.73779296875,5.5986328125-.52587890625.6787109375-1.5341796875,1.85791015625-3.02294921875,3.54052734375-1.49072265625,1.6826171875-3.388671875,3.66552734375-5.6962890625,5.94384765625-2.3076171875,2.28125-4.90283203125,4.837890625-7.78564453125,7.6728515625-2.8837890625,2.8359375-5.92724609375,5.81005859375-9.12646484375,8.9189453125,4.11083984375,5.896484375,8.1962890625,11.7568359375,12.2529296875,17.587890625,4.056640625,5.83056640625,8.138671875,11.69384765625,12.25244140625,17.58740234375Z"/>
          <path class="cls-1" d="M130.1904296875,167.83056640625c.64404296875,1.00146484375.982421875,2.0986328125,1.01806640625,3.291015625.0498046875.958984375-.1796875,2.10498046875-.6904296875,3.43798828125-.513671875,1.33544921875-1.5302734375,2.6630859375-3.05419921875,3.98486328125-1.5244140625,1.32275390625-3.16650390625,2.60888671875-4.9228515625,3.85302734375-1.75927734375,1.24755859375-3.55517578125,2.22314453125-5.39306640625,2.92529296875-1.837890625.70263671875-3.64208984375.9326171875-5.41259765625.68896484375-1.77099609375-.24560546875-3.4912109375-1.203125-5.1611328125-2.869140625-.900390625-.77880859375-2.4072265625-2.61279296875-4.52685546875-5.50634765625-2.119140625-2.89111328125-4.57470703125-6.521484375-7.3623046875-10.8935546875-1.400390625-2.125-2.87841796875-4.40625-4.43212890625-6.8408203125-1.556640625-2.4345703125-3.20068359375-4.90380859375-4.92822265625-7.41259765625-3.8359375,3.66162109375-7.451171875,7.13232421875-10.8408203125,10.40673828125-3.39208984375,3.27685546875-6.36669921875,6.13671875-8.92333984375,8.57568359375-3.06494140625,2.8837890625-5.876953125,5.5458984375-8.43310546875,7.98486328125-.63720703125.552734375-1.3828125.974609375-2.23583984375,1.27197265625-.728515625.18603515625-1.56591796875.2158203125-2.51025390625.08984375-.9462890625-.12841796875-2.03662109375-.7119140625-3.27294921875-1.751953125-1.24755859375-.9208984375-2.6845703125-2.095703125-4.3095703125-3.52392578125-1.62841796875-1.42626953125-3.1044921875-2.8720703125-4.4306640625-4.337890625-1.32666015625-1.46337890625-2.27197265625-2.87109375-2.830078125-4.2236328125-.56005859375-1.35009765625-.4453125-2.53515625.341796875-3.55224609375l32.8447265625-34.5048828125c-2.783203125-4.48828125-5.34130859375-8.75146484375-7.67578125-12.7919921875-2.33642578125-4.03857421875-4.4072265625-7.61328125-6.21240234375-10.72265625-2.0107421875-3.5986328125-3.8603515625-6.9482421875-5.5458984375-10.048828125-.54443359375-.75390625-.845703125-1.54931640625-.90283203125-2.38916015625-.06982421875-.7197265625.10498046875-1.4814453125.51953125-2.28759765625.41455078125-.802734375,1.306640625-1.6337890625,2.68017578125-2.49169921875,1.37060546875-.85546875,2.99169921875-1.84423828125,4.859375-2.96337890625,1.8671875-1.11962890625,3.693359375-2.09033203125,5.4814453125-2.9189453125,1.78564453125-.826171875,3.4306640625-1.33544921875,4.93603515625-1.52734375,1.5029296875-.18994140625,2.63623046875.21728515625,3.39990234375,1.224609375,2.8916015625,4.6162109375,5.7890625,9.14404296875,8.6923828125,13.57958984375,2.904296875,4.439453125,5.8056640625,8.90576171875,8.705078125,13.40283203125l21.033203125-21.75341796875c.87939453125-.6533203125,1.93017578125-1.173828125,3.15087890625-1.564453125.97314453125-.28857421875,2.17041015625-.35205078125,3.58984375-.19287109375,1.41943359375.16259765625,2.91943359375.83349609375,4.505859375,2.01806640625,1.70361328125,1.1943359375,3.3984375,2.50732421875,5.0849609375,3.9375,1.6865234375,1.4326171875,3.0693359375,2.93017578125,4.1513671875,4.49658203125,1.0791015625,1.568359375,1.70556640625,3.25048828125,1.87646484375,5.0498046875.1689453125,1.80029296875-.41064453125,3.66748046875-1.73779296875,5.5986328125-.52587890625.6787109375-1.5341796875,1.85791015625-3.02294921875,3.54052734375-1.49072265625,1.6826171875-3.388671875,3.66552734375-5.6962890625,5.94384765625-2.3076171875,2.28125-4.90283203125,4.837890625-7.78564453125,7.6728515625-2.8837890625,2.8359375-5.92724609375,5.81005859375-9.12646484375,8.9189453125,4.11083984375,5.896484375,8.1962890625,11.7568359375,12.2529296875,17.587890625,4.056640625,5.83056640625,8.138671875,11.69384765625,12.25244140625,17.58740234375Z"/>
        </g>
        <g>
          <line class="cls-1" x1="46.308795707391255" y1="57.802714540311172" x2="143.541094224623521" y2="64.699383132780895"/>
          <path class="cls-1" d="M46.308837890625,57.802703857421875c4.111655148859427-1.723796261931966,8.275030841968146-3.02047299491187,12.511590351704399-4.180181497903504,8.062469427103679.705537458315121,28.090963796375945,2.010813293563842,36.45826812377345,2.641124390416735,8.019355324968274.569312706509663,28.7004358729655,2.035213678028413,36.462145255920404,2.586177291026615,3.93004289491364,1.732833211585785,8.054689515216523,3.692460956019204,11.800312285026848,5.849529270650237-4.013217237185017,1.607220248222802-8.373471613308539,2.964078096708363-12.507829122335352,4.125426988259278-7.668408951855781-.54395525819109-28.517586154408491-2.022746139541596-36.462161983123224-2.58625522809416-8.457540117208737-.581563029480094-28.253969475937083-2.06946094173145-36.465668025527521-2.531558663406031-4.030638727288533-1.746184380821433-7.968472598844528-3.617103022863375-11.796656885439006-5.90426255094917h0Z"/>
        </g>
      </g>
      <g>
        <g>
          <path class="cls-2" d="M130.1904296875,167.83056640625c.64404296875,1.00146484375.982421875,2.0986328125,1.01806640625,3.291015625.0498046875.958984375-.1796875,2.10498046875-.6904296875,3.43798828125-.513671875,1.33544921875-1.5302734375,2.6630859375-3.05419921875,3.98486328125-1.5244140625,1.32275390625-3.16650390625,2.60888671875-4.9228515625,3.85302734375-1.75927734375,1.24755859375-3.55517578125,2.22314453125-5.39306640625,2.92529296875-1.837890625.70263671875-3.64208984375.9326171875-5.41259765625.68896484375-1.77099609375-.24560546875-3.4912109375-1.203125-5.1611328125-2.869140625-.900390625-.77880859375-2.4072265625-2.61279296875-4.52685546875-5.50634765625-2.119140625-2.89111328125-4.57470703125-6.521484375-7.3623046875-10.8935546875-1.400390625-2.125-2.87841796875-4.40625-4.43212890625-6.8408203125-1.556640625-2.4345703125-3.20068359375-4.90380859375-4.92822265625-7.41259765625-3.8359375,3.66162109375-7.451171875,7.13232421875-10.8408203125,10.40673828125-3.39208984375,3.27685546875-6.36669921875,6.13671875-8.92333984375,8.57568359375-3.06494140625,2.8837890625-5.876953125,5.5458984375-8.43310546875,7.98486328125-.63720703125.552734375-1.3828125.974609375-2.23583984375,1.27197265625-.728515625.18603515625-1.56591796875.2158203125-2.51025390625.08984375-.9462890625-.12841796875-2.03662109375-.7119140625-3.27294921875-1.751953125-1.24755859375-.9208984375-2.6845703125-2.095703125-4.3095703125-3.52392578125-1.62841796875-1.42626953125-3.1044921875-2.8720703125-4.4306640625-4.337890625-1.32666015625-1.46337890625-2.27197265625-2.87109375-2.830078125-4.2236328125-.56005859375-1.35009765625-.4453125-2.53515625.341796875-3.55224609375l32.8447265625-34.5048828125c-2.783203125-4.48828125-5.34130859375-8.75146484375-7.67578125-12.7919921875-2.33642578125-4.03857421875-4.4072265625-7.61328125-6.21240234375-10.72265625-2.0107421875-3.5986328125-3.8603515625-6.9482421875-5.5458984375-10.048828125-.54443359375-.75390625-.845703125-1.54931640625-.90283203125-2.38916015625-.06982421875-.7197265625.10498046875-1.4814453125.51953125-2.28759765625.41455078125-.802734375,1.306640625-1.6337890625,2.68017578125-2.49169921875,1.37060546875-.85546875,2.99169921875-1.84423828125,4.859375-2.96337890625,1.8671875-1.11962890625,3.693359375-2.09033203125,5.4814453125-2.9189453125,1.78564453125-.826171875,3.4306640625-1.33544921875,4.93603515625-1.52734375,1.5029296875-.18994140625,2.63623046875.21728515625,3.39990234375,1.224609375,2.8916015625,4.6162109375,5.7890625,9.14404296875,8.6923828125,13.57958984375,2.904296875,4.439453125,5.8056640625,8.90576171875,8.705078125,13.40283203125l21.033203125-21.75341796875c.87939453125-.6533203125,1.93017578125-1.173828125,3.15087890625-1.564453125.97314453125-.28857421875,2.17041015625-.35205078125,3.58984375-.19287109375,1.41943359375.16259765625,2.91943359375.83349609375,4.505859375,2.01806640625,1.70361328125,1.1943359375,3.3984375,2.50732421875,5.0849609375,3.9375,1.6865234375,1.4326171875,3.0693359375,2.93017578125,4.1513671875,4.49658203125,1.0791015625,1.568359375,1.70556640625,3.25048828125,1.87646484375,5.0498046875.1689453125,1.80029296875-.41064453125,3.66748046875-1.73779296875,5.5986328125-.52587890625.6787109375-1.5341796875,1.85791015625-3.02294921875,3.54052734375-1.49072265625,1.6826171875-3.388671875,3.66552734375-5.6962890625,5.94384765625-2.3076171875,2.28125-4.90283203125,4.837890625-7.78564453125,7.6728515625-2.8837890625,2.8359375-5.92724609375,5.81005859375-9.12646484375,8.9189453125,4.11083984375,5.896484375,8.1962890625,11.7568359375,12.2529296875,17.587890625,4.056640625,5.83056640625,8.138671875,11.69384765625,12.25244140625,17.58740234375Z"/>
          <path class="cls-2" d="M130.1904296875,167.83056640625c.64404296875,1.00146484375.982421875,2.0986328125,1.01806640625,3.291015625.0498046875.958984375-.1796875,2.10498046875-.6904296875,3.43798828125-.513671875,1.33544921875-1.5302734375,2.6630859375-3.05419921875,3.98486328125-1.5244140625,1.32275390625-3.16650390625,2.60888671875-4.9228515625,3.85302734375-1.75927734375,1.24755859375-3.55517578125,2.22314453125-5.39306640625,2.92529296875-1.837890625.70263671875-3.64208984375.9326171875-5.41259765625.68896484375-1.77099609375-.24560546875-3.4912109375-1.203125-5.1611328125-2.869140625-.900390625-.77880859375-2.4072265625-2.61279296875-4.52685546875-5.50634765625-2.119140625-2.89111328125-4.57470703125-6.521484375-7.3623046875-10.8935546875-1.400390625-2.125-2.87841796875-4.40625-4.43212890625-6.8408203125-1.556640625-2.4345703125-3.20068359375-4.90380859375-4.92822265625-7.41259765625-3.8359375,3.66162109375-7.451171875,7.13232421875-10.8408203125,10.40673828125-3.39208984375,3.27685546875-6.36669921875,6.13671875-8.92333984375,8.57568359375-3.06494140625,2.8837890625-5.876953125,5.5458984375-8.43310546875,7.98486328125-.63720703125.552734375-1.3828125.974609375-2.23583984375,1.27197265625-.728515625.18603515625-1.56591796875.2158203125-2.51025390625.08984375-.9462890625-.12841796875-2.03662109375-.7119140625-3.27294921875-1.751953125-1.24755859375-.9208984375-2.6845703125-2.095703125-4.3095703125-3.52392578125-1.62841796875-1.42626953125-3.1044921875-2.8720703125-4.4306640625-4.337890625-1.32666015625-1.46337890625-2.27197265625-2.87109375-2.830078125-4.2236328125-.56005859375-1.35009765625-.4453125-2.53515625.341796875-3.55224609375l32.8447265625-34.5048828125c-2.783203125-4.48828125-5.34130859375-8.75146484375-7.67578125-12.7919921875-2.33642578125-4.03857421875-4.4072265625-7.61328125-6.21240234375-10.72265625-2.0107421875-3.5986328125-3.8603515625-6.9482421875-5.5458984375-10.048828125-.54443359375-.75390625-.845703125-1.54931640625-.90283203125-2.38916015625-.06982421875-.7197265625.10498046875-1.4814453125.51953125-2.28759765625.41455078125-.802734375,1.306640625-1.6337890625,2.68017578125-2.49169921875,1.37060546875-.85546875,2.99169921875-1.84423828125,4.859375-2.96337890625,1.8671875-1.11962890625,3.693359375-2.09033203125,5.4814453125-2.9189453125,1.78564453125-.826171875,3.4306640625-1.33544921875,4.93603515625-1.52734375,1.5029296875-.18994140625,2.63623046875.21728515625,3.39990234375,1.224609375,2.8916015625,4.6162109375,5.7890625,9.14404296875,8.6923828125,13.57958984375,2.904296875,4.439453125,5.8056640625,8.90576171875,8.705078125,13.40283203125l21.033203125-21.75341796875c.87939453125-.6533203125,1.93017578125-1.173828125,3.15087890625-1.564453125.97314453125-.28857421875,2.17041015625-.35205078125,3.58984375-.19287109375,1.41943359375.16259765625,2.91943359375.83349609375,4.505859375,2.01806640625,1.70361328125,1.1943359375,3.3984375,2.50732421875,5.0849609375,3.9375,1.6865234375,1.4326171875,3.0693359375,2.93017578125,4.1513671875,4.49658203125,1.0791015625,1.568359375,1.70556640625,3.25048828125,1.87646484375,5.0498046875.1689453125,1.80029296875-.41064453125,3.66748046875-1.73779296875,5.5986328125-.52587890625.6787109375-1.5341796875,1.85791015625-3.02294921875,3.54052734375-1.49072265625,1.6826171875-3.388671875,3.66552734375-5.6962890625,5.94384765625-2.3076171875,2.28125-4.90283203125,4.837890625-7.78564453125,7.6728515625-2.8837890625,2.8359375-5.92724609375,5.81005859375-9.12646484375,8.9189453125,4.11083984375,5.896484375,8.1962890625,11.7568359375,12.2529296875,17.587890625,4.056640625,5.83056640625,8.138671875,11.69384765625,12.25244140625,17.58740234375Z"/>
          <path class="cls-2" d="M130.1904296875,167.83056640625c.64404296875,1.00146484375.982421875,2.0986328125,1.01806640625,3.291015625.0498046875.958984375-.1796875,2.10498046875-.6904296875,3.43798828125-.513671875,1.33544921875-1.5302734375,2.6630859375-3.05419921875,3.98486328125-1.5244140625,1.32275390625-3.16650390625,2.60888671875-4.9228515625,3.85302734375-1.75927734375,1.24755859375-3.55517578125,2.22314453125-5.39306640625,2.92529296875-1.837890625.70263671875-3.64208984375.9326171875-5.41259765625.68896484375-1.77099609375-.24560546875-3.4912109375-1.203125-5.1611328125-2.869140625-.900390625-.77880859375-2.4072265625-2.61279296875-4.52685546875-5.50634765625-2.119140625-2.89111328125-4.57470703125-6.521484375-7.3623046875-10.8935546875-1.400390625-2.125-2.87841796875-4.40625-4.43212890625-6.8408203125-1.556640625-2.4345703125-3.20068359375-4.90380859375-4.92822265625-7.41259765625-3.8359375,3.66162109375-7.451171875,7.13232421875-10.8408203125,10.40673828125-3.39208984375,3.27685546875-6.36669921875,6.13671875-8.92333984375,8.57568359375-3.06494140625,2.8837890625-5.876953125,5.5458984375-8.43310546875,7.98486328125-.63720703125.552734375-1.3828125.974609375-2.23583984375,1.27197265625-.728515625.18603515625-1.56591796875.2158203125-2.51025390625.08984375-.9462890625-.12841796875-2.03662109375-.7119140625-3.27294921875-1.751953125-1.24755859375-.9208984375-2.6845703125-2.095703125-4.3095703125-3.52392578125-1.62841796875-1.42626953125-3.1044921875-2.8720703125-4.4306640625-4.337890625-1.32666015625-1.46337890625-2.27197265625-2.87109375-2.830078125-4.2236328125-.56005859375-1.35009765625-.4453125-2.53515625.341796875-3.55224609375l32.8447265625-34.5048828125c-2.783203125-4.48828125-5.34130859375-8.75146484375-7.67578125-12.7919921875-2.33642578125-4.03857421875-4.4072265625-7.61328125-6.21240234375-10.72265625-2.0107421875-3.5986328125-3.8603515625-6.9482421875-5.5458984375-10.048828125-.54443359375-.75390625-.845703125-1.54931640625-.90283203125-2.38916015625-.06982421875-.7197265625.10498046875-1.4814453125.51953125-2.28759765625.41455078125-.802734375,1.306640625-1.6337890625,2.68017578125-2.49169921875,1.37060546875-.85546875,2.99169921875-1.84423828125,4.859375-2.96337890625,1.8671875-1.11962890625,3.693359375-2.09033203125,5.4814453125-2.9189453125,1.78564453125-.826171875,3.4306640625-1.33544921875,4.93603515625-1.52734375,1.5029296875-.18994140625,2.63623046875.21728515625,3.39990234375,1.224609375,2.8916015625,4.6162109375,5.7890625,9.14404296875,8.6923828125,13.57958984375,2.904296875,4.439453125,5.8056640625,8.90576171875,8.705078125,13.40283203125l21.033203125-21.75341796875c.87939453125-.6533203125,1.93017578125-1.173828125,3.15087890625-1.564453125.97314453125-.28857421875,2.17041015625-.35205078125,3.58984375-.19287109375,1.41943359375.16259765625,2.91943359375.83349609375,4.505859375,2.01806640625,1.70361328125,1.1943359375,3.3984375,2.50732421875,5.0849609375,3.9375,1.6865234375,1.4326171875,3.0693359375,2.93017578125,4.1513671875,4.49658203125,1.0791015625,1.568359375,1.70556640625,3.25048828125,1.87646484375,5.0498046875.1689453125,1.80029296875-.41064453125,3.66748046875-1.73779296875,5.5986328125-.52587890625.6787109375-1.5341796875,1.85791015625-3.02294921875,3.54052734375-1.49072265625,1.6826171875-3.388671875,3.66552734375-5.6962890625,5.94384765625-2.3076171875,2.28125-4.90283203125,4.837890625-7.78564453125,7.6728515625-2.8837890625,2.8359375-5.92724609375,5.81005859375-9.12646484375,8.9189453125,4.11083984375,5.896484375,8.1962890625,11.7568359375,12.2529296875,17.587890625,4.056640625,5.83056640625,8.138671875,11.69384765625,12.25244140625,17.58740234375Z"/>
        </g>
        <g>
          <line class="cls-2" x1="46.308795707391255" y1="57.802714540311172" x2="143.541094224623521" y2="64.699383132780895"/>
          <path class="cls-2" d="M46.308837890625,57.802703857421875c4.111655148859427-1.723796261931966,8.275030841968146-3.02047299491187,12.511590351704399-4.180181497903504,8.062469427103679.705537458315121,28.090963796375945,2.010813293563842,36.45826812377345,2.641124390416735,8.019355324968274.569312706509663,28.7004358729655,2.035213678028413,36.462145255920404,2.586177291026615,3.93004289491364,1.732833211585785,8.054689515216523,3.692460956019204,11.800312285026848,5.849529270650237-4.013217237185017,1.607220248222802-8.373471613308539,2.964078096708363-12.507829122335352,4.125426988259278-7.668408951855781-.54395525819109-28.517586154408491-2.022746139541596-36.462161983123224-2.58625522809416-8.457540117208737-.581563029480094-28.253969475937083-2.06946094173145-36.465668025527521-2.531558663406031-4.030638727288533-1.746184380821433-7.968472598844528-3.617103022863375-11.796656885439006-5.90426255094917h0Z"/>
        </g>
      </g>
      <g>
        <g>
          <path class="cls-3" d="M130.1904296875,167.83056640625c.64404296875,1.00146484375.982421875,2.0986328125,1.01806640625,3.291015625.0498046875.958984375-.1796875,2.10498046875-.6904296875,3.43798828125-.513671875,1.33544921875-1.5302734375,2.6630859375-3.05419921875,3.98486328125-1.5244140625,1.32275390625-3.16650390625,2.60888671875-4.9228515625,3.85302734375-1.75927734375,1.24755859375-3.55517578125,2.22314453125-5.39306640625,2.92529296875-1.837890625.70263671875-3.64208984375.9326171875-5.41259765625.68896484375-1.77099609375-.24560546875-3.4912109375-1.203125-5.1611328125-2.869140625-.900390625-.77880859375-2.4072265625-2.61279296875-4.52685546875-5.50634765625-2.119140625-2.89111328125-4.57470703125-6.521484375-7.3623046875-10.8935546875-1.400390625-2.125-2.87841796875-4.40625-4.43212890625-6.8408203125-1.556640625-2.4345703125-3.20068359375-4.90380859375-4.92822265625-7.41259765625-3.8359375,3.66162109375-7.451171875,7.13232421875-10.8408203125,10.40673828125-3.39208984375,3.27685546875-6.36669921875,6.13671875-8.92333984375,8.57568359375-3.06494140625,2.8837890625-5.876953125,5.5458984375-8.43310546875,7.98486328125-.63720703125.552734375-1.3828125.974609375-2.23583984375,1.27197265625-.728515625.18603515625-1.56591796875.2158203125-2.51025390625.08984375-.9462890625-.12841796875-2.03662109375-.7119140625-3.27294921875-1.751953125-1.24755859375-.9208984375-2.6845703125-2.095703125-4.3095703125-3.52392578125-1.62841796875-1.42626953125-3.1044921875-2.8720703125-4.4306640625-4.337890625-1.32666015625-1.46337890625-2.27197265625-2.87109375-2.830078125-4.2236328125-.56005859375-1.35009765625-.4453125-2.53515625.341796875-3.55224609375l32.8447265625-34.5048828125c-2.783203125-4.48828125-5.34130859375-8.75146484375-7.67578125-12.7919921875-2.33642578125-4.03857421875-4.4072265625-7.61328125-6.21240234375-10.72265625-2.0107421875-3.5986328125-3.8603515625-6.9482421875-5.5458984375-10.048828125-.54443359375-.75390625-.845703125-1.54931640625-.90283203125-2.38916015625-.06982421875-.7197265625.10498046875-1.4814453125.51953125-2.28759765625.41455078125-.802734375,1.306640625-1.6337890625,2.68017578125-2.49169921875,1.37060546875-.85546875,2.99169921875-1.84423828125,4.859375-2.96337890625,1.8671875-1.11962890625,3.693359375-2.09033203125,5.4814453125-2.9189453125,1.78564453125-.826171875,3.4306640625-1.33544921875,4.93603515625-1.52734375,1.5029296875-.18994140625,2.63623046875.21728515625,3.39990234375,1.224609375,2.8916015625,4.6162109375,5.7890625,9.14404296875,8.6923828125,13.57958984375,2.904296875,4.439453125,5.8056640625,8.90576171875,8.705078125,13.40283203125l21.033203125-21.75341796875c.87939453125-.6533203125,1.93017578125-1.173828125,3.15087890625-1.564453125.97314453125-.28857421875,2.17041015625-.35205078125,3.58984375-.19287109375,1.41943359375.16259765625,2.91943359375.83349609375,4.505859375,2.01806640625,1.70361328125,1.1943359375,3.3984375,2.50732421875,5.0849609375,3.9375,1.6865234375,1.4326171875,3.0693359375,2.93017578125,4.1513671875,4.49658203125,1.0791015625,1.568359375,1.70556640625,3.25048828125,1.87646484375,5.0498046875.1689453125,1.80029296875-.41064453125,3.66748046875-1.73779296875,5.5986328125-.52587890625.6787109375-1.5341796875,1.85791015625-3.02294921875,3.54052734375-1.49072265625,1.6826171875-3.388671875,3.66552734375-5.6962890625,5.94384765625-2.3076171875,2.28125-4.90283203125,4.837890625-7.78564453125,7.6728515625-2.8837890625,2.8359375-5.92724609375,5.81005859375-9.12646484375,8.9189453125,4.11083984375,5.896484375,8.1962890625,11.7568359375,12.2529296875,17.587890625,4.056640625,5.83056640625,8.138671875,11.69384765625,12.25244140625,17.58740234375Z"/>
          <path class="cls-3" d="M130.1904296875,167.83056640625c.64404296875,1.00146484375.982421875,2.0986328125,1.01806640625,3.291015625.0498046875.958984375-.1796875,2.10498046875-.6904296875,3.43798828125-.513671875,1.33544921875-1.5302734375,2.6630859375-3.05419921875,3.98486328125-1.5244140625,1.32275390625-3.16650390625,2.60888671875-4.9228515625,3.85302734375-1.75927734375,1.24755859375-3.55517578125,2.22314453125-5.39306640625,2.92529296875-1.837890625.70263671875-3.64208984375.9326171875-5.41259765625.68896484375-1.77099609375-.24560546875-3.4912109375-1.203125-5.1611328125-2.869140625-.900390625-.77880859375-2.4072265625-2.61279296875-4.52685546875-5.50634765625-2.119140625-2.89111328125-4.57470703125-6.521484375-7.3623046875-10.8935546875-1.400390625-2.125-2.87841796875-4.40625-4.43212890625-6.8408203125-1.556640625-2.4345703125-3.20068359375-4.90380859375-4.92822265625-7.41259765625-3.8359375,3.66162109375-7.451171875,7.13232421875-10.8408203125,10.40673828125-3.39208984375,3.27685546875-6.36669921875,6.13671875-8.92333984375,8.57568359375-3.06494140625,2.8837890625-5.876953125,5.5458984375-8.43310546875,7.98486328125-.63720703125.552734375-1.3828125.974609375-2.23583984375,1.27197265625-.728515625.18603515625-1.56591796875.2158203125-2.51025390625.08984375-.9462890625-.12841796875-2.03662109375-.7119140625-3.27294921875-1.751953125-1.24755859375-.9208984375-2.6845703125-2.095703125-4.3095703125-3.52392578125-1.62841796875-1.42626953125-3.1044921875-2.8720703125-4.4306640625-4.337890625-1.32666015625-1.46337890625-2.27197265625-2.87109375-2.830078125-4.2236328125-.56005859375-1.35009765625-.4453125-2.53515625.341796875-3.55224609375l32.8447265625-34.5048828125c-2.783203125-4.48828125-5.34130859375-8.75146484375-7.67578125-12.7919921875-2.33642578125-4.03857421875-4.4072265625-7.61328125-6.21240234375-10.72265625-2.0107421875-3.5986328125-3.8603515625-6.9482421875-5.5458984375-10.048828125-.54443359375-.75390625-.845703125-1.54931640625-.90283203125-2.38916015625-.06982421875-.7197265625.10498046875-1.4814453125.51953125-2.28759765625.41455078125-.802734375,1.306640625-1.6337890625,2.68017578125-2.49169921875,1.37060546875-.85546875,2.99169921875-1.84423828125,4.859375-2.96337890625,1.8671875-1.11962890625,3.693359375-2.09033203125,5.4814453125-2.9189453125,1.78564453125-.826171875,3.4306640625-1.33544921875,4.93603515625-1.52734375,1.5029296875-.18994140625,2.63623046875.21728515625,3.39990234375,1.224609375,2.8916015625,4.6162109375,5.7890625,9.14404296875,8.6923828125,13.57958984375,2.904296875,4.439453125,5.8056640625,8.90576171875,8.705078125,13.40283203125l21.033203125-21.75341796875c.87939453125-.6533203125,1.93017578125-1.173828125,3.15087890625-1.564453125.97314453125-.28857421875,2.17041015625-.35205078125,3.58984375-.19287109375,1.41943359375.16259765625,2.91943359375.83349609375,4.505859375,2.01806640625,1.70361328125,1.1943359375,3.3984375,2.50732421875,5.0849609375,3.9375,1.6865234375,1.4326171875,3.0693359375,2.93017578125,4.1513671875,4.49658203125,1.0791015625,1.568359375,1.70556640625,3.25048828125,1.87646484375,5.0498046875.1689453125,1.80029296875-.41064453125,3.66748046875-1.73779296875,5.5986328125-.52587890625.6787109375-1.5341796875,1.85791015625-3.02294921875,3.54052734375-1.49072265625,1.6826171875-3.388671875,3.66552734375-5.6962890625,5.94384765625-2.3076171875,2.28125-4.90283203125,4.837890625-7.78564453125,7.6728515625-2.8837890625,2.8359375-5.92724609375,5.81005859375-9.12646484375,8.9189453125,4.11083984375,5.896484375,8.1962890625,11.7568359375,12.2529296875,17.587890625,4.056640625,5.83056640625,8.138671875,11.69384765625,12.25244140625,17.58740234375Z"/>
          <path class="cls-3" d="M130.1904296875,167.83056640625c.64404296875,1.00146484375.982421875,2.0986328125,1.01806640625,3.291015625.0498046875.958984375-.1796875,2.10498046875-.6904296875,3.43798828125-.513671875,1.33544921875-1.5302734375,2.6630859375-3.05419921875,3.98486328125-1.5244140625,1.32275390625-3.16650390625,2.60888671875-4.9228515625,3.85302734375-1.75927734375,1.24755859375-3.55517578125,2.22314453125-5.39306640625,2.92529296875-1.837890625.70263671875-3.64208984375.9326171875-5.41259765625.68896484375-1.77099609375-.24560546875-3.4912109375-1.203125-5.1611328125-2.869140625-.900390625-.77880859375-2.4072265625-2.61279296875-4.52685546875-5.50634765625-2.119140625-2.89111328125-4.57470703125-6.521484375-7.3623046875-10.8935546875-1.400390625-2.125-2.87841796875-4.40625-4.43212890625-6.8408203125-1.556640625-2.4345703125-3.20068359375-4.90380859375-4.92822265625-7.41259765625-3.8359375,3.66162109375-7.451171875,7.13232421875-10.8408203125,10.40673828125-3.39208984375,3.27685546875-6.36669921875,6.13671875-8.92333984375,8.57568359375-3.06494140625,2.8837890625-5.876953125,5.5458984375-8.43310546875,7.98486328125-.63720703125.552734375-1.3828125.974609375-2.23583984375,1.27197265625-.728515625.18603515625-1.56591796875.2158203125-2.51025390625.08984375-.9462890625-.12841796875-2.03662109375-.7119140625-3.27294921875-1.751953125-1.24755859375-.9208984375-2.6845703125-2.095703125-4.3095703125-3.52392578125-1.62841796875-1.42626953125-3.1044921875-2.8720703125-4.4306640625-4.337890625-1.32666015625-1.46337890625-2.27197265625-2.87109375-2.830078125-4.2236328125-.56005859375-1.35009765625-.4453125-2.53515625.341796875-3.55224609375l32.8447265625-34.5048828125c-2.783203125-4.48828125-5.34130859375-8.75146484375-7.67578125-12.7919921875-2.33642578125-4.03857421875-4.4072265625-7.61328125-6.21240234375-10.72265625-2.0107421875-3.5986328125-3.8603515625-6.9482421875-5.5458984375-10.048828125-.54443359375-.75390625-.845703125-1.54931640625-.90283203125-2.38916015625-.06982421875-.7197265625.10498046875-1.4814453125.51953125-2.28759765625.41455078125-.802734375,1.306640625-1.6337890625,2.68017578125-2.49169921875,1.37060546875-.85546875,2.99169921875-1.84423828125,4.859375-2.96337890625,1.8671875-1.11962890625,3.693359375-2.09033203125,5.4814453125-2.9189453125,1.78564453125-.826171875,3.4306640625-1.33544921875,4.93603515625-1.52734375,1.5029296875-.18994140625,2.63623046875.21728515625,3.39990234375,1.224609375,2.8916015625,4.6162109375,5.7890625,9.14404296875,8.6923828125,13.57958984375,2.904296875,4.439453125,5.8056640625,8.90576171875,8.705078125,13.40283203125l21.033203125-21.75341796875c.87939453125-.6533203125,1.93017578125-1.173828125,3.15087890625-1.564453125.97314453125-.28857421875,2.17041015625-.35205078125,3.58984375-.19287109375,1.41943359375.16259765625,2.91943359375.83349609375,4.505859375,2.01806640625,1.70361328125,1.1943359375,3.3984375,2.50732421875,5.0849609375,3.9375,1.6865234375,1.4326171875,3.0693359375,2.93017578125,4.1513671875,4.49658203125,1.0791015625,1.568359375,1.70556640625,3.25048828125,1.87646484375,5.0498046875.1689453125,1.80029296875-.41064453125,3.66748046875-1.73779296875,5.5986328125-.52587890625.6787109375-1.5341796875,1.85791015625-3.02294921875,3.54052734375-1.49072265625,1.6826171875-3.388671875,3.66552734375-5.6962890625,5.94384765625-2.3076171875,2.28125-4.90283203125,4.837890625-7.78564453125,7.6728515625-2.8837890625,2.8359375-5.92724609375,5.81005859375-9.12646484375,8.9189453125,4.11083984375,5.896484375,8.1962890625,11.7568359375,12.2529296875,17.587890625,4.056640625,5.83056640625,8.138671875,11.69384765625,12.25244140625,17.58740234375Z"/>
        </g>
        <g>
          <line class="cls-3" x1="46.308795707391255" y1="57.802714540311172" x2="143.541094224623521" y2="64.699383132780895"/>
          <path class="cls-3" d="M46.308837890625,57.802703857421875c4.111655148859427-1.723796261931966,8.275030841968146-3.02047299491187,12.511590351704399-4.180181497903504,8.062469427103679.705537458315121,28.090963796375945,2.010813293563842,36.45826812377345,2.641124390416735,8.019355324968274.569312706509663,28.7004358729655,2.035213678028413,36.462145255920404,2.586177291026615,3.93004289491364,1.732833211585785,8.054689515216523,3.692460956019204,11.800312285026848,5.849529270650237-4.013217237185017,1.607220248222802-8.373471613308539,2.964078096708363-12.507829122335352,4.125426988259278-7.668408951855781-.54395525819109-28.517586154408491-2.022746139541596-36.462161983123224-2.58625522809416-8.457540117208737-.581563029480094-28.253969475937083-2.06946094173145-36.465668025527521-2.531558663406031-4.030638727288533-1.746184380821433-7.968472598844528-3.617103022863375-11.796656885439006-5.90426255094917h0Z"/>
        </g>
      </g>
    </g>
  </a>
</svg>