<?xml version="1.0" encoding="UTF-8"?>
<svg id="Content" xmlns="http://www.w3.org/2000/svg" xmlns:xlink="http://www.w3.org/1999/xlink" viewBox="0 0 280 280">
  <defs>
    <style>
      .cls-1 {
        stroke: #665451;
        stroke-width: 50px;
      }

      .cls-1, .cls-2 {
        fill: none;
        stroke-linecap: round;
        stroke-linejoin: round;
      }

      .cls-3 {
        fill: #fff;
      }

      .cls-2 {
        stroke: #998675;
        stroke-width: 2px;
      }
    </style>
  </defs>
  <a xlink:href="https://www.notion.so/congruence/Sample-standard-deviation-69368bb2ec044a2fa122e17e4f5a99b2?pvs=4">
    <g>
      <path class="cls-1" d="M107.77734375,82.53271484375c-.17578125-3.4375-1.1806640625-6.177734375-3.005859375-8.2236328125-1.8310546875-2.04248046875-3.9755859375-3.51953125-6.43359375-4.4287109375-2.4609375-.90673828125-5.03125-1.3251953125-7.7177734375-1.25830078125-2.685546875.06982421875-4.90625.4931640625-6.6572265625,1.271484375-2.2978515625.94482421875-3.755859375,2.0546875-4.3798828125,3.3271484375-.626953125,1.2724609375-.6962890625,2.55419921875-.216796875,3.83740234375.4794921875,1.28759765625,1.296875,2.48828125,2.458984375,3.59765625,1.158203125,1.11376953125,2.4453125,1.97900390625,3.8564453125,2.5947265625,1.693359375.74072265625,3.59375,1.505859375,5.701171875,2.2939453125,2.111328125.79052734375,4.142578125,1.4775390625,6.10546875,2.0654296875,1.9599609375.591796875,3.7119140625,1.154296875,5.2587890625,1.69580078125,1.5419921875.54150390625,2.7392578125.99609375,3.5859375,1.3671875,5.6259765625,2.19482421875,10.634765625,5.0751953125,15.0244140625,8.6416015625,4.388671875,3.56884765625,7.876953125,7.76708984375,10.4716796875,12.59814453125,2.4443359375,4.703125,3.822265625,9.390625,4.1337890625,14.0615234375.3056640625,4.6728515625-.2236328125,9.1474609375-1.587890625,13.4228515625-1.3681640625,4.27734375-3.4755859375,8.2451171875-6.3193359375,11.90625-2.84765625,3.662109375-6.1328125,6.8291015625-9.85546875,9.501953125-4.6611328125,3.2744140625-9.611328125,5.560546875-14.8515625,6.8642578125-5.244140625,1.302734375-10.4296875,1.703125-15.5546875,1.2099609375-5.12890625-.4970703125-10.1259765625-1.8271484375-14.9931640625-3.9892578125-4.869140625-2.1611328125-9.330078125-5.0712890625-13.3759765625-8.7255859375-2.603515625-2.3486328125-4.705078125-5.0341796875-6.3076171875-8.0537109375-1.6025390625-3.0205078125-2.625-6.1396484375-3.064453125-9.359375-.4423828125-3.21484375-.3291015625-6.4267578125.3330078125-9.634765625.6630859375-3.2041015625,2.0986328125-6.10546875,4.3115234375-8.701171875.376953125-.70703125.8974609375-1.287109375,1.56640625-1.734375,1.83984375-1.74951171875,3.8349609375-2.47265625,5.9912109375-2.169921875,2.15234375.30419921875,3.787109375,1.9453125,4.9052734375,4.919921875,2.3603515625,5.671875,5.7294921875,10.255859375,10.1162109375,13.75390625,4.3837890625,3.4990234375,9.541015625,5.236328125,15.4697265625,5.20703125,1.9326171875.0400390625,3.7763671875-.2978515625,5.533203125-1.0087890625,1.7548828125-.708984375,3.2236328125-1.6806640625,4.40234375-2.9140625,1.177734375-1.23046875,1.958984375-2.75390625,2.3505859375-4.5673828125.388671875-1.810546875.1123046875-3.8642578125-.8330078125-6.1630859375-.9521484375-2.43359375-2.884765625-4.470703125-5.794921875-6.1142578125-2.912109375-1.6416015625-6.12109375-3.029296875-9.6240234375-4.16162109375-3.505859375-1.12841796875-7.0078125-2.1552734375-10.5-3.0810546875-3.49609375-.92333984375-6.298828125-1.8134765625-8.4111328125-2.671875-5.35546875-2.20849609375-10.154296875-5.029296875-14.3955078125-8.46826171875-4.2451171875-3.43359375-7.072265625-8.14892578125-8.4814453125-14.1474609375-1.072265625-4.77001953125-1.0107421875-9.6337890625.18359375-14.59228515625,1.193359375-4.9541015625,3.41796875-9.3076171875,6.6728515625-13.06298828125,2.4765625-2.744140625,5.2880859375-5.0947265625,8.4287109375-7.05078125,3.1396484375-1.95068359375,6.3681640625-3.53173828125,9.6875-4.73583984375,3.314453125-1.20458984375,6.6162109375-2.06201171875,9.8984375-2.5751953125,3.2841796875-.51171875,6.298828125-.84033203125,9.0517578125-.9814453125,5.0859375-.2607421875,10.04296875.208984375,14.861328125,1.41015625,4.8193359375,1.201171875,9.1181640625,3.0498046875,12.9033203125,5.54443359375,3.7783203125,2.49609375,6.8349609375,5.61572265625,9.166015625,9.35498046875,2.328125,3.7431640625,3.5498046875,8.0927734375,3.66796875,13.05078125.0986328125,1.927734375-.3623046875,3.708984375-1.380859375,5.34521484375-1.021484375,1.638671875-2.39453125,3.08984375-4.12109375,4.34814453125-1.73046875,1.26171875-3.6806640625,2.22412109375-5.8515625,2.884765625-2.1728515625.66455078125-4.4951171875,1.0576171875-6.9716796875,1.1845703125-1.5146484375.07763671875-2.76953125-.19970703125-3.7666015625-.84130859375-.998046875-.63671875-1.5458984375-1.91796875-1.64453125-3.8447265625Z"/>
      <path class="cls-2" d="M107.77734375,82.53271484375c-.17578125-3.4375-1.1806640625-6.177734375-3.005859375-8.2236328125-1.8310546875-2.04248046875-3.9755859375-3.51953125-6.43359375-4.4287109375-2.4609375-.90673828125-5.03125-1.3251953125-7.7177734375-1.25830078125-2.685546875.06982421875-4.90625.4931640625-6.6572265625,1.271484375-2.2978515625.94482421875-3.755859375,2.0546875-4.3798828125,3.3271484375-.626953125,1.2724609375-.6962890625,2.55419921875-.216796875,3.83740234375.4794921875,1.28759765625,1.296875,2.48828125,2.458984375,3.59765625,1.158203125,1.11376953125,2.4453125,1.97900390625,3.8564453125,2.5947265625,1.693359375.74072265625,3.59375,1.505859375,5.701171875,2.2939453125,2.111328125.79052734375,4.142578125,1.4775390625,6.10546875,2.0654296875,1.9599609375.591796875,3.7119140625,1.154296875,5.2587890625,1.69580078125,1.5419921875.54150390625,2.7392578125.99609375,3.5859375,1.3671875,5.6259765625,2.19482421875,10.634765625,5.0751953125,15.0244140625,8.6416015625,4.388671875,3.56884765625,7.876953125,7.76708984375,10.4716796875,12.59814453125,2.4443359375,4.703125,3.822265625,9.390625,4.1337890625,14.0615234375.3056640625,4.6728515625-.2236328125,9.1474609375-1.587890625,13.4228515625-1.3681640625,4.27734375-3.4755859375,8.2451171875-6.3193359375,11.90625-2.84765625,3.662109375-6.1328125,6.8291015625-9.85546875,9.501953125-4.6611328125,3.2744140625-9.611328125,5.560546875-14.8515625,6.8642578125-5.244140625,1.302734375-10.4296875,1.703125-15.5546875,1.2099609375-5.12890625-.4970703125-10.1259765625-1.8271484375-14.9931640625-3.9892578125-4.869140625-2.1611328125-9.330078125-5.0712890625-13.3759765625-8.7255859375-2.603515625-2.3486328125-4.705078125-5.0341796875-6.3076171875-8.0537109375-1.6025390625-3.0205078125-2.625-6.1396484375-3.064453125-9.359375-.4423828125-3.21484375-.3291015625-6.4267578125.3330078125-9.634765625.6630859375-3.2041015625,2.0986328125-6.10546875,4.3115234375-8.701171875.376953125-.70703125.8974609375-1.287109375,1.56640625-1.734375,1.83984375-1.74951171875,3.8349609375-2.47265625,5.9912109375-2.169921875,2.15234375.30419921875,3.787109375,1.9453125,4.9052734375,4.919921875,2.3603515625,5.671875,5.7294921875,10.255859375,10.1162109375,13.75390625,4.3837890625,3.4990234375,9.541015625,5.236328125,15.4697265625,5.20703125,1.9326171875.0400390625,3.7763671875-.2978515625,5.533203125-1.0087890625,1.7548828125-.708984375,3.2236328125-1.6806640625,4.40234375-2.9140625,1.177734375-1.23046875,1.958984375-2.75390625,2.3505859375-4.5673828125.388671875-1.810546875.1123046875-3.8642578125-.8330078125-6.1630859375-.9521484375-2.43359375-2.884765625-4.470703125-5.794921875-6.1142578125-2.912109375-1.6416015625-6.12109375-3.029296875-9.6240234375-4.16162109375-3.505859375-1.12841796875-7.0078125-2.1552734375-10.5-3.0810546875-3.49609375-.92333984375-6.298828125-1.8134765625-8.4111328125-2.671875-5.35546875-2.20849609375-10.154296875-5.029296875-14.3955078125-8.46826171875-4.2451171875-3.43359375-7.072265625-8.14892578125-8.4814453125-14.1474609375-1.072265625-4.77001953125-1.0107421875-9.6337890625.18359375-14.59228515625,1.193359375-4.9541015625,3.41796875-9.3076171875,6.6728515625-13.06298828125,2.4765625-2.744140625,5.2880859375-5.0947265625,8.4287109375-7.05078125,3.1396484375-1.95068359375,6.3681640625-3.53173828125,9.6875-4.73583984375,3.314453125-1.20458984375,6.6162109375-2.06201171875,9.8984375-2.5751953125,3.2841796875-.51171875,6.298828125-.84033203125,9.0517578125-.9814453125,5.0859375-.2607421875,10.04296875.208984375,14.861328125,1.41015625,4.8193359375,1.201171875,9.1181640625,3.0498046875,12.9033203125,5.54443359375,3.7783203125,2.49609375,6.8349609375,5.61572265625,9.166015625,9.35498046875,2.328125,3.7431640625,3.5498046875,8.0927734375,3.66796875,13.05078125.0986328125,1.927734375-.3623046875,3.708984375-1.380859375,5.34521484375-1.021484375,1.638671875-2.39453125,3.08984375-4.12109375,4.34814453125-1.73046875,1.26171875-3.6806640625,2.22412109375-5.8515625,2.884765625-2.1728515625.66455078125-4.4951171875,1.0576171875-6.9716796875,1.1845703125-1.5146484375.07763671875-2.76953125-.19970703125-3.7666015625-.84130859375-.998046875-.63671875-1.5458984375-1.91796875-1.64453125-3.8447265625Z"/>
      <path class="cls-3" d="M107.77734375,82.53271484375c-.17578125-3.4375-1.1806640625-6.177734375-3.005859375-8.2236328125-1.8310546875-2.04248046875-3.9755859375-3.51953125-6.43359375-4.4287109375-2.4609375-.90673828125-5.03125-1.3251953125-7.7177734375-1.25830078125-2.685546875.06982421875-4.90625.4931640625-6.6572265625,1.271484375-2.2978515625.94482421875-3.755859375,2.0546875-4.3798828125,3.3271484375-.626953125,1.2724609375-.6962890625,2.55419921875-.216796875,3.83740234375.4794921875,1.28759765625,1.296875,2.48828125,2.458984375,3.59765625,1.158203125,1.11376953125,2.4453125,1.97900390625,3.8564453125,2.5947265625,1.693359375.74072265625,3.59375,1.505859375,5.701171875,2.2939453125,2.111328125.79052734375,4.142578125,1.4775390625,6.10546875,2.0654296875,1.9599609375.591796875,3.7119140625,1.154296875,5.2587890625,1.69580078125,1.5419921875.54150390625,2.7392578125.99609375,3.5859375,1.3671875,5.6259765625,2.19482421875,10.634765625,5.0751953125,15.0244140625,8.6416015625,4.388671875,3.56884765625,7.876953125,7.76708984375,10.4716796875,12.59814453125,2.4443359375,4.703125,3.822265625,9.390625,4.1337890625,14.0615234375.3056640625,4.6728515625-.2236328125,9.1474609375-1.587890625,13.4228515625-1.3681640625,4.27734375-3.4755859375,8.2451171875-6.3193359375,11.90625-2.84765625,3.662109375-6.1328125,6.8291015625-9.85546875,9.501953125-4.6611328125,3.2744140625-9.611328125,5.560546875-14.8515625,6.8642578125-5.244140625,1.302734375-10.4296875,1.703125-15.5546875,1.2099609375-5.12890625-.4970703125-10.1259765625-1.8271484375-14.9931640625-3.9892578125-4.869140625-2.1611328125-9.330078125-5.0712890625-13.3759765625-8.7255859375-2.603515625-2.3486328125-4.705078125-5.0341796875-6.3076171875-8.0537109375-1.6025390625-3.0205078125-2.625-6.1396484375-3.064453125-9.359375-.4423828125-3.21484375-.3291015625-6.4267578125.3330078125-9.634765625.6630859375-3.2041015625,2.0986328125-6.10546875,4.3115234375-8.701171875.376953125-.70703125.8974609375-1.287109375,1.56640625-1.734375,1.83984375-1.74951171875,3.8349609375-2.47265625,5.9912109375-2.169921875,2.15234375.30419921875,3.787109375,1.9453125,4.9052734375,4.919921875,2.3603515625,5.671875,5.7294921875,10.255859375,10.1162109375,13.75390625,4.3837890625,3.4990234375,9.541015625,5.236328125,15.4697265625,5.20703125,1.9326171875.0400390625,3.7763671875-.2978515625,5.533203125-1.0087890625,1.7548828125-.708984375,3.2236328125-1.6806640625,4.40234375-2.9140625,1.177734375-1.23046875,1.958984375-2.75390625,2.3505859375-4.5673828125.388671875-1.810546875.1123046875-3.8642578125-.8330078125-6.1630859375-.9521484375-2.43359375-2.884765625-4.470703125-5.794921875-6.1142578125-2.912109375-1.6416015625-6.12109375-3.029296875-9.6240234375-4.16162109375-3.505859375-1.12841796875-7.0078125-2.1552734375-10.5-3.0810546875-3.49609375-.92333984375-6.298828125-1.8134765625-8.4111328125-2.671875-5.35546875-2.20849609375-10.154296875-5.029296875-14.3955078125-8.46826171875-4.2451171875-3.43359375-7.072265625-8.14892578125-8.4814453125-14.1474609375-1.072265625-4.77001953125-1.0107421875-9.6337890625.18359375-14.59228515625,1.193359375-4.9541015625,3.41796875-9.3076171875,6.6728515625-13.06298828125,2.4765625-2.744140625,5.2880859375-5.0947265625,8.4287109375-7.05078125,3.1396484375-1.95068359375,6.3681640625-3.53173828125,9.6875-4.73583984375,3.314453125-1.20458984375,6.6162109375-2.06201171875,9.8984375-2.5751953125,3.2841796875-.51171875,6.298828125-.84033203125,9.0517578125-.9814453125,5.0859375-.2607421875,10.04296875.208984375,14.861328125,1.41015625,4.8193359375,1.201171875,9.1181640625,3.0498046875,12.9033203125,5.54443359375,3.7783203125,2.49609375,6.8349609375,5.61572265625,9.166015625,9.35498046875,2.328125,3.7431640625,3.5498046875,8.0927734375,3.66796875,13.05078125.0986328125,1.927734375-.3623046875,3.708984375-1.380859375,5.34521484375-1.021484375,1.638671875-2.39453125,3.08984375-4.12109375,4.34814453125-1.73046875,1.26171875-3.6806640625,2.22412109375-5.8515625,2.884765625-2.1728515625.66455078125-4.4951171875,1.0576171875-6.9716796875,1.1845703125-1.5146484375.07763671875-2.76953125-.19970703125-3.7666015625-.84130859375-.998046875-.63671875-1.5458984375-1.91796875-1.64453125-3.8447265625Z"/>
    </g>
  </a>
</svg>