<?xml version="1.0" encoding="UTF-8"?>
<svg id="Content" xmlns="http://www.w3.org/2000/svg" xmlns:xlink="http://www.w3.org/1999/xlink" viewBox="0 0 280 280">
  <defs>
    <style>
      .cls-1 {
        stroke: #665451;
        stroke-width: 50px;
      }

      .cls-1, .cls-2 {
        fill: none;
        stroke-linecap: round;
        stroke-linejoin: round;
      }

      .cls-3 {
        fill: #fff;
      }

      .cls-2 {
        stroke: #998675;
        stroke-width: 2px;
      }
    </style>
  </defs>
  <a xlink:href="https://www.notion.so/congruence/Sample-proportion-ac26b7ca2dc44ca9a64cbc4aedbdf615?pvs=4">
    <g>
      <path class="cls-1" d="M104.595625207778539,54.979180518615976c.17578125.16015625.22998046875.4091796875.164306640625.748046875-.067138671875.341796875-.25732421875.7509765625-.568115234375,1.2275390625-.3125.48046875-.87158203125,1.0771484375-1.674560546875,1.7900390625-.889892578125.7197265625-1.897216796875,1.5693359375-3.02392578125,2.552734375-1.12890625.9853515625-2.2373046875,1.90234375-3.3291015625,2.755859375-1.091796875.857421875-2.0673828125,1.517578125-2.927001953125,1.9814453125-.859619140625.46484375-1.423828125.5361328125-1.692626953125.212890625-4.020751953125-4.58984375-7.746337890625-9.1494140625-11.1748046875-13.6875-1.389892578125,2.427734375-2.78076171875,4.833984375-4.1728515625,7.21875s-2.86767578125,4.794921875-4.424560546875,7.2294921875c-.40380859375.357421875-.898681640625.5498046875-1.48486328125.580078125-.503173828125.025390625-1.181396484375-.04296875-2.029541015625-.2109375-.8505859375-.166015625-1.925537109375-.63671875-3.22705078125-1.412109375-1.301513671875-.7734375-2.6259765625-1.5693359375-3.970947265625-2.3837890625-1.346923828125-.8134765625-2.544189453125-1.6357421875-3.596435546875-2.46484375-1.052001953125-.830078125-1.873779296875-1.671875-2.463623046875-2.5234375-.59228515625-.853515625-.779296875-1.6640625-.56640625-2.4326171875.145751953125-.427734375.510498046875-1.119140625,1.092529296875-2.07421875s1.342041015625-2.130859375,2.27978515625-3.5244140625c.853759765625-1.388671875,1.871826171875-2.8720703125,3.05322265625-4.4462890625,1.18115234375-1.5751953125,2.314697265625-3.23046875,3.405029296875-4.970703125,1.088134765625-1.736328125,2.137939453125-3.4091796875,3.14990234375-5.0185546875,1.009765625-1.607421875,1.94677734375-3.0224609375,2.810791015625-4.2451171875.849365234375-1.4736328125,1.70263671875-2.86328125,2.5625-4.169921875,2.4326171875-.1240234375,4.702392578125-.1552734375,6.80908203125-.0966796875,1.77099609375.0791015625,3.43505859375.1611328125,4.99755859375.2490234375,1.559814453125.08984375,2.5146484375.25,2.86376953125.484375.611572265625.4736328125,1.75,2.140625,3.41064453125,4.9990234375.828125,1.388671875,1.723876953125,2.857421875,2.686279296875,4.4052734375.962646484375,1.5498046875,1.947509765625,3.138671875,2.957763671875,4.76953125,1.00830078125,1.6318359375,1.99365234375,3.2001953125,2.953857421875,4.70703125.960693359375,1.5078125,1.805419921875,2.83203125,2.5380859375,3.9697265625.910888671875,1.384765625,1.77587890625,2.6455078125,2.59130859375,3.7802734375Z"/>
      <path class="cls-2" d="M104.595625207778539,54.979180518615976c.17578125.16015625.22998046875.4091796875.164306640625.748046875-.067138671875.341796875-.25732421875.7509765625-.568115234375,1.2275390625-.3125.48046875-.87158203125,1.0771484375-1.674560546875,1.7900390625-.889892578125.7197265625-1.897216796875,1.5693359375-3.02392578125,2.552734375-1.12890625.9853515625-2.2373046875,1.90234375-3.3291015625,2.755859375-1.091796875.857421875-2.0673828125,1.517578125-2.927001953125,1.9814453125-.859619140625.46484375-1.423828125.5361328125-1.692626953125.212890625-4.020751953125-4.58984375-7.746337890625-9.1494140625-11.1748046875-13.6875-1.389892578125,2.427734375-2.78076171875,4.833984375-4.1728515625,7.21875s-2.86767578125,4.794921875-4.424560546875,7.2294921875c-.40380859375.357421875-.898681640625.5498046875-1.48486328125.580078125-.503173828125.025390625-1.181396484375-.04296875-2.029541015625-.2109375-.8505859375-.166015625-1.925537109375-.63671875-3.22705078125-1.412109375-1.301513671875-.7734375-2.6259765625-1.5693359375-3.970947265625-2.3837890625-1.346923828125-.8134765625-2.544189453125-1.6357421875-3.596435546875-2.46484375-1.052001953125-.830078125-1.873779296875-1.671875-2.463623046875-2.5234375-.59228515625-.853515625-.779296875-1.6640625-.56640625-2.4326171875.145751953125-.427734375.510498046875-1.119140625,1.092529296875-2.07421875s1.342041015625-2.130859375,2.27978515625-3.5244140625c.853759765625-1.388671875,1.871826171875-2.8720703125,3.05322265625-4.4462890625,1.18115234375-1.5751953125,2.314697265625-3.23046875,3.405029296875-4.970703125,1.088134765625-1.736328125,2.137939453125-3.4091796875,3.14990234375-5.0185546875,1.009765625-1.607421875,1.94677734375-3.0224609375,2.810791015625-4.2451171875.849365234375-1.4736328125,1.70263671875-2.86328125,2.5625-4.169921875,2.4326171875-.1240234375,4.702392578125-.1552734375,6.80908203125-.0966796875,1.77099609375.0791015625,3.43505859375.1611328125,4.99755859375.2490234375,1.559814453125.08984375,2.5146484375.25,2.86376953125.484375.611572265625.4736328125,1.75,2.140625,3.41064453125,4.9990234375.828125,1.388671875,1.723876953125,2.857421875,2.686279296875,4.4052734375.962646484375,1.5498046875,1.947509765625,3.138671875,2.957763671875,4.76953125,1.00830078125,1.6318359375,1.99365234375,3.2001953125,2.953857421875,4.70703125.960693359375,1.5078125,1.805419921875,2.83203125,2.5380859375,3.9697265625.910888671875,1.384765625,1.77587890625,2.6455078125,2.59130859375,3.7802734375Z"/>
      <path class="cls-3" d="M104.595625207778539,54.979180518615976c.17578125.16015625.22998046875.4091796875.164306640625.748046875-.067138671875.341796875-.25732421875.7509765625-.568115234375,1.2275390625-.3125.48046875-.87158203125,1.0771484375-1.674560546875,1.7900390625-.889892578125.7197265625-1.897216796875,1.5693359375-3.02392578125,2.552734375-1.12890625.9853515625-2.2373046875,1.90234375-3.3291015625,2.755859375-1.091796875.857421875-2.0673828125,1.517578125-2.927001953125,1.9814453125-.859619140625.46484375-1.423828125.5361328125-1.692626953125.212890625-4.020751953125-4.58984375-7.746337890625-9.1494140625-11.1748046875-13.6875-1.389892578125,2.427734375-2.78076171875,4.833984375-4.1728515625,7.21875s-2.86767578125,4.794921875-4.424560546875,7.2294921875c-.40380859375.357421875-.898681640625.5498046875-1.48486328125.580078125-.503173828125.025390625-1.181396484375-.04296875-2.029541015625-.2109375-.8505859375-.166015625-1.925537109375-.63671875-3.22705078125-1.412109375-1.301513671875-.7734375-2.6259765625-1.5693359375-3.970947265625-2.3837890625-1.346923828125-.8134765625-2.544189453125-1.6357421875-3.596435546875-2.46484375-1.052001953125-.830078125-1.873779296875-1.671875-2.463623046875-2.5234375-.59228515625-.853515625-.779296875-1.6640625-.56640625-2.4326171875.145751953125-.427734375.510498046875-1.119140625,1.092529296875-2.07421875s1.342041015625-2.130859375,2.27978515625-3.5244140625c.853759765625-1.388671875,1.871826171875-2.8720703125,3.05322265625-4.4462890625,1.18115234375-1.5751953125,2.314697265625-3.23046875,3.405029296875-4.970703125,1.088134765625-1.736328125,2.137939453125-3.4091796875,3.14990234375-5.0185546875,1.009765625-1.607421875,1.94677734375-3.0224609375,2.810791015625-4.2451171875.849365234375-1.4736328125,1.70263671875-2.86328125,2.5625-4.169921875,2.4326171875-.1240234375,4.702392578125-.1552734375,6.80908203125-.0966796875,1.77099609375.0791015625,3.43505859375.1611328125,4.99755859375.2490234375,1.559814453125.08984375,2.5146484375.25,2.86376953125.484375.611572265625.4736328125,1.75,2.140625,3.41064453125,4.9990234375.828125,1.388671875,1.723876953125,2.857421875,2.686279296875,4.4052734375.962646484375,1.5498046875,1.947509765625,3.138671875,2.957763671875,4.76953125,1.00830078125,1.6318359375,1.99365234375,3.2001953125,2.953857421875,4.70703125.960693359375,1.5078125,1.805419921875,2.83203125,2.5380859375,3.9697265625.910888671875,1.384765625,1.77587890625,2.6455078125,2.59130859375,3.7802734375Z"/>
    </g>
  </a>
  <a xlink:href="https://www.notion.so/congruence/Sample-proportion-ac26b7ca2dc44ca9a64cbc4aedbdf615?pvs=4">
    <g>
      <path class="cls-1" d="M91.809736535903539,105.838555518615976c6.6650390625,2.8515625,12.21923828125,6.6591796875,16.655517578125,11.4228515625,4.4365234375,4.7646484375,7.7001953125,10.0205078125,9.791259765625,15.7685546875,2.09130859375,5.751953125,3.061767578125,11.7216796875,2.91455078125,17.9169921875-.150390625,6.197265625-1.37060546875,12.2177734375-3.66650390625,18.0556640625-2.2958984375,5.841796875-5.744873046875,11.2744140625-10.34423828125,16.30078125-4.60205078125,5.02734375-10.2099609375,9.1767578125-16.830322265625,12.44140625-6.8876953125,3.28125-14.60595703125,5.873046875-23.158203125,7.7744140625-.093017578125.8037109375-.135009765625,2.6015625-.122802734375,5.3955078125-.01123046875,2.3955078125.10888671875,6.015625.357177734375,10.8623046875.248046875,4.84375.58984375,11.5146484375,1.025146484375,20.009765625-.04541015625,1.7314453125-.362060546875,3.3447265625-.949951171875,4.8408203125-.6044921875,1.228515625-1.54248046875,2.40625-2.813232421875,3.537109375-1.274169921875,1.12890625-3.031982421875,1.8837890625-5.27392578125,2.2666015625-2.375732421875.38671875-4.856201171875.6787109375-7.44091796875.880859375-2.5849609375.1982421875-4.988037109375.0546875-7.208740234375-.4296875-2.220947265625-.484375-4.103271484375-1.486328125-5.64404296875-3.005859375-1.543701171875-1.5166015625-2.462646484375-3.865234375-2.75634765625-7.0439453125-.32421875-3.7109375-.65673828125-8.9189453125-1-15.6201171875-.343505859375-6.705078125-.696533203125-14.2060546875-1.052978515625-22.5048828125-.360107421875-8.296875-.779541015625-17.1591796875-1.2626953125-26.5849609375-.48291015625-9.423828125-.98828125-18.615234375-1.51220703125-27.572265625-.52783203125-8.9560546875-1.062744140625-17.4443359375-1.604736328125-25.470703125-.545166015625-8.0224609375-1.096435546875-14.8818359375-1.6533203125-20.5771484375-.108642578125-2.12109375.52880859375-3.919921875,1.920166015625-5.388671875,1.3876953125-1.4677734375,3.394775390625-2.53515625,6.024169921875-3.203125,1.84375-.359375,3.95166015625-.8017578125,6.320556640625-1.322265625,2.368896484375-.51953125,4.6796875-.837890625,6.938232421875-.9541015625,2.255615234375-.115234375,4.1982421875.119140625,5.8251953125.69921875,1.626708984375.5849609375,2.615234375,1.7314453125,2.97119140625,3.44140625.164794921875.6591796875.26220703125,1.21875.285888671875,1.68359375.02392578125.4658203125.11083984375.890625.265380859375,1.283203125,5.022705078125-.6572265625,10.35009765625-.595703125,15.979736328125.1787109375,5.62939453125.7783203125,11.302734375,2.416015625,17.02099609375,4.91796875ZM64.906416223403539,176.887383643615976c5.149658203125-.79296875,9.55126953125-2.55078125,13.205322265625-5.267578125,3.65380859375-2.7138671875,6.417236328125-5.8837890625,8.296630859375-9.5078125,1.876220703125-3.62109375,2.84619140625-7.3984375,2.9130859375-11.328125.0634765625-3.927734375-.885498046875-7.541015625-2.85107421875-10.8349609375-1.96533203125-3.29296875-4.964111328125-5.93359375-8.990234375-7.9228515625-4.02880859375-1.9892578125-9.16552734375-2.890625-15.41015625-2.705078125.380859375,7.435546875.79443359375,14.9013671875,1.2470703125,22.39453125.44970703125,7.498046875.959228515625,15.490234375,1.528076171875,23.9775390625l.030517578125.5966796875.03076171875.59765625Z"/>
      <path class="cls-2" d="M91.809736535903539,105.838555518615976c6.6650390625,2.8515625,12.21923828125,6.6591796875,16.655517578125,11.4228515625,4.4365234375,4.7646484375,7.7001953125,10.0205078125,9.791259765625,15.7685546875,2.09130859375,5.751953125,3.061767578125,11.7216796875,2.91455078125,17.9169921875-.150390625,6.197265625-1.37060546875,12.2177734375-3.66650390625,18.0556640625-2.2958984375,5.841796875-5.744873046875,11.2744140625-10.34423828125,16.30078125-4.60205078125,5.02734375-10.2099609375,9.1767578125-16.830322265625,12.44140625-6.8876953125,3.28125-14.60595703125,5.873046875-23.158203125,7.7744140625-.093017578125.8037109375-.135009765625,2.6015625-.122802734375,5.3955078125-.01123046875,2.3955078125.10888671875,6.015625.357177734375,10.8623046875.248046875,4.84375.58984375,11.5146484375,1.025146484375,20.009765625-.04541015625,1.7314453125-.362060546875,3.3447265625-.949951171875,4.8408203125-.6044921875,1.228515625-1.54248046875,2.40625-2.813232421875,3.537109375-1.274169921875,1.12890625-3.031982421875,1.8837890625-5.27392578125,2.2666015625-2.375732421875.38671875-4.856201171875.6787109375-7.44091796875.880859375-2.5849609375.1982421875-4.988037109375.0546875-7.208740234375-.4296875-2.220947265625-.484375-4.103271484375-1.486328125-5.64404296875-3.005859375-1.543701171875-1.5166015625-2.462646484375-3.865234375-2.75634765625-7.0439453125-.32421875-3.7109375-.65673828125-8.9189453125-1-15.6201171875-.343505859375-6.705078125-.696533203125-14.2060546875-1.052978515625-22.5048828125-.360107421875-8.296875-.779541015625-17.1591796875-1.2626953125-26.5849609375-.48291015625-9.423828125-.98828125-18.615234375-1.51220703125-27.572265625-.52783203125-8.9560546875-1.062744140625-17.4443359375-1.604736328125-25.470703125-.545166015625-8.0224609375-1.096435546875-14.8818359375-1.6533203125-20.5771484375-.108642578125-2.12109375.52880859375-3.919921875,1.920166015625-5.388671875,1.3876953125-1.4677734375,3.394775390625-2.53515625,6.024169921875-3.203125,1.84375-.359375,3.95166015625-.8017578125,6.320556640625-1.322265625,2.368896484375-.51953125,4.6796875-.837890625,6.938232421875-.9541015625,2.255615234375-.115234375,4.1982421875.119140625,5.8251953125.69921875,1.626708984375.5849609375,2.615234375,1.7314453125,2.97119140625,3.44140625.164794921875.6591796875.26220703125,1.21875.285888671875,1.68359375.02392578125.4658203125.11083984375.890625.265380859375,1.283203125,5.022705078125-.6572265625,10.35009765625-.595703125,15.979736328125.1787109375,5.62939453125.7783203125,11.302734375,2.416015625,17.02099609375,4.91796875ZM64.906416223403539,176.887383643615976c5.149658203125-.79296875,9.55126953125-2.55078125,13.205322265625-5.267578125,3.65380859375-2.7138671875,6.417236328125-5.8837890625,8.296630859375-9.5078125,1.876220703125-3.62109375,2.84619140625-7.3984375,2.9130859375-11.328125.0634765625-3.927734375-.885498046875-7.541015625-2.85107421875-10.8349609375-1.96533203125-3.29296875-4.964111328125-5.93359375-8.990234375-7.9228515625-4.02880859375-1.9892578125-9.16552734375-2.890625-15.41015625-2.705078125.380859375,7.435546875.79443359375,14.9013671875,1.2470703125,22.39453125.44970703125,7.498046875.959228515625,15.490234375,1.528076171875,23.9775390625l.030517578125.5966796875.03076171875.59765625Z"/>
      <path class="cls-3" d="M91.809736535903539,105.838555518615976c6.6650390625,2.8515625,12.21923828125,6.6591796875,16.655517578125,11.4228515625,4.4365234375,4.7646484375,7.7001953125,10.0205078125,9.791259765625,15.7685546875,2.09130859375,5.751953125,3.061767578125,11.7216796875,2.91455078125,17.9169921875-.150390625,6.197265625-1.37060546875,12.2177734375-3.66650390625,18.0556640625-2.2958984375,5.841796875-5.744873046875,11.2744140625-10.34423828125,16.30078125-4.60205078125,5.02734375-10.2099609375,9.1767578125-16.830322265625,12.44140625-6.8876953125,3.28125-14.60595703125,5.873046875-23.158203125,7.7744140625-.093017578125.8037109375-.135009765625,2.6015625-.122802734375,5.3955078125-.01123046875,2.3955078125.10888671875,6.015625.357177734375,10.8623046875.248046875,4.84375.58984375,11.5146484375,1.025146484375,20.009765625-.04541015625,1.7314453125-.362060546875,3.3447265625-.949951171875,4.8408203125-.6044921875,1.228515625-1.54248046875,2.40625-2.813232421875,3.537109375-1.274169921875,1.12890625-3.031982421875,1.8837890625-5.27392578125,2.2666015625-2.375732421875.38671875-4.856201171875.6787109375-7.44091796875.880859375-2.5849609375.1982421875-4.988037109375.0546875-7.208740234375-.4296875-2.220947265625-.484375-4.103271484375-1.486328125-5.64404296875-3.005859375-1.543701171875-1.5166015625-2.462646484375-3.865234375-2.75634765625-7.0439453125-.32421875-3.7109375-.65673828125-8.9189453125-1-15.6201171875-.343505859375-6.705078125-.696533203125-14.2060546875-1.052978515625-22.5048828125-.360107421875-8.296875-.779541015625-17.1591796875-1.2626953125-26.5849609375-.48291015625-9.423828125-.98828125-18.615234375-1.51220703125-27.572265625-.52783203125-8.9560546875-1.062744140625-17.4443359375-1.604736328125-25.470703125-.545166015625-8.0224609375-1.096435546875-14.8818359375-1.6533203125-20.5771484375-.108642578125-2.12109375.52880859375-3.919921875,1.920166015625-5.388671875,1.3876953125-1.4677734375,3.394775390625-2.53515625,6.024169921875-3.203125,1.84375-.359375,3.95166015625-.8017578125,6.320556640625-1.322265625,2.368896484375-.51953125,4.6796875-.837890625,6.938232421875-.9541015625,2.255615234375-.115234375,4.1982421875.119140625,5.8251953125.69921875,1.626708984375.5849609375,2.615234375,1.7314453125,2.97119140625,3.44140625.164794921875.6591796875.26220703125,1.21875.285888671875,1.68359375.02392578125.4658203125.11083984375.890625.265380859375,1.283203125,5.022705078125-.6572265625,10.35009765625-.595703125,15.979736328125.1787109375,5.62939453125.7783203125,11.302734375,2.416015625,17.02099609375,4.91796875ZM64.906416223403539,176.887383643615976c5.149658203125-.79296875,9.55126953125-2.55078125,13.205322265625-5.267578125,3.65380859375-2.7138671875,6.417236328125-5.8837890625,8.296630859375-9.5078125,1.876220703125-3.62109375,2.84619140625-7.3984375,2.9130859375-11.328125.0634765625-3.927734375-.885498046875-7.541015625-2.85107421875-10.8349609375-1.96533203125-3.29296875-4.964111328125-5.93359375-8.990234375-7.9228515625-4.02880859375-1.9892578125-9.16552734375-2.890625-15.41015625-2.705078125.380859375,7.435546875.79443359375,14.9013671875,1.2470703125,22.39453125.44970703125,7.498046875.959228515625,15.490234375,1.528076171875,23.9775390625l.030517578125.5966796875.03076171875.59765625Z"/>
    </g>
  </a>
</svg>