<?xml version="1.0" encoding="UTF-8"?>
<svg id="Content" xmlns="http://www.w3.org/2000/svg" xmlns:xlink="http://www.w3.org/1999/xlink" viewBox="0 0 280 280">
  <defs>
    <style>
      .cls-1 {
        stroke: #665451;
        stroke-width: 50px;
      }

      .cls-1, .cls-2 {
        fill: none;
        stroke-linecap: round;
        stroke-linejoin: round;
      }

      .cls-3 {
        fill: #fff;
      }

      .cls-2 {
        stroke: #998675;
        stroke-width: 2px;
      }
    </style>
  </defs>
  <a xlink:href="https://www.notion.so/congruence/Sample-slope-125f9339b29b80b78fccf29e062fcf36?pvs=4">
    <g>
      <g>
        <path class="cls-1" d="M77.8974609375,98.783203125c3.87109375.6630859375,7.8017578125,1.8720703125,11.7939453125,3.625,3.9912109375,1.7529296875,7.697265625,3.9677734375,11.1259765625,6.64453125,3.423828125,2.67578125,6.392578125,5.7587890625,8.9150390625,9.2509765625,2.5166015625,3.490234375,4.33203125,7.369140625,5.44140625,11.634765625,1.33203125,5.9384765625.93359375,11.7080078125-1.2001953125,17.30859375-2.1318359375,5.6025390625-5.4912109375,10.45703125-10.076171875,14.5654296875-3.35546875,2.892578125-7.1201171875,5.1826171875-11.2900390625,6.86328125-4.171875,1.68359375-8.54296875,2.8994140625-13.11328125,3.6455078125-4.5732421875.748046875-9.2724609375,1.041015625-14.09765625.8779296875-4.8251953125-.1640625-9.6015625-.7509765625-14.3330078125-1.763671875-2.2509765625-.591796875-4.125-1.5751953125-5.626953125-2.9501953125-1.5009765625-1.3779296875-2.205078125-3.5390625-2.1083984375-6.4794921875-.0986328125-.6298828125.0361328125-2.466796875.4072265625-5.5146484375.3681640625-3.044921875.9150390625-6.8525390625,1.6455078125-11.4189453125.728515625-4.5634765625,1.578125-9.669921875,2.544921875-15.318359375.9658203125-5.646484375,1.9755859375-11.4130859375,3.03515625-17.2998046875,1.0576171875-5.88671875,2.1240234375-11.6728515625,3.1982421875-17.357421875,1.0732421875-5.68359375,2.052734375-10.80078125,2.93359375-15.3505859375.87890625-4.548828125,1.607421875-8.3583984375,2.1845703125-11.427734375.5751953125-3.0673828125.9638671875-4.892578125,1.1669921875-5.470703125.0341796875-.810546875.3095703125-1.5302734375.8271484375-2.1572265625.4013671875-.544921875.9609375-.9853515625,1.68359375-1.3212890625.720703125-.3369140625,1.783203125-.4345703125,3.19140625-.296875,1.3056640625.123046875,2.978515625.3564453125,5.013671875.7041015625,2.03515625.3486328125,3.97265625.8095703125,5.818359375,1.37890625,1.8408203125.5703125,3.3798828125,1.2939453125,4.609375,2.1669921875,1.228515625.876953125,1.79296875,1.916015625,1.6884765625,3.125-.9169921875,5.3603515625-1.837890625,10.74609375-2.763671875,16.1552734375-.92578125,5.4111328125-1.7978515625,10.8037109375-2.615234375,16.1806640625ZM69.6884765625,148.5673828125c4.01953125.3818359375,7.5732421875.0693359375,10.658203125-.935546875,3.0830078125-1.0048828125,5.5712890625-2.41796875,7.4677734375-4.2392578125,1.8955078125-1.822265625,3.1171875-3.884765625,3.6640625-6.193359375.5478515625-2.3056640625.2978515625-4.5703125-.7529296875-6.7958984375-1.05078125-2.22265625-2.9013671875-4.2509765625-5.548828125-6.0830078125-2.6513671875-1.8330078125-6.2490234375-3.1884765625-10.798828125-4.0703125-.8154296875,4.765625-1.5966796875,9.4853515625-2.345703125,14.1591796875-.7470703125,4.67578125-1.5283203125,9.3935546875-2.34375,14.158203125Z"/>
        <path class="cls-1" d="M144.369140625,138.189453125c-3.6474609375,14.38671875-6.658203125,28.955078125-9.033203125,43.7060546875-.13671875.5205078125-.36328125.974609375-.677734375,1.365234375-.3056640625.34375-.728515625.6533203125-1.2705078125.9306640625-.5400390625.27734375-1.2275390625.3935546875-2.05859375.3515625-.8818359375-.0517578125-1.7666015625-.142578125-2.658203125-.26953125-.892578125-.1279296875-1.7060546875-.3544921875-2.4384765625-.6767578125-.7353515625-.32421875-1.33984375-.771484375-1.806640625-1.345703125-.46875-.5732421875-.69140625-1.376953125-.6630859375-2.4091796875-.005859375-.5439453125.1123046875-1.5849609375.3515625-3.125.2373046875-1.5380859375.58984375-3.3798828125,1.0546875-5.5224609375.4736328125-2.1884765625,1.0048828125-4.5791015625,1.5966796875-7.1689453125s1.18359375-5.19140625,1.779296875-7.8046875c.0654296875-.0888671875.11328125-.2275390625.146484375-.4208984375-.279296875-.095703125-.6123046875-.251953125-.994140625-.4658203125-.3828125-.2138671875-.875-.59375-1.470703125-1.140625-.63671875-.6015625-1.28515625-1.21875-1.94140625-1.849609375-.66015625-.630859375-1.244140625-1.26171875-1.7509765625-1.892578125-.51171875-.6298828125-.8916015625-1.2138671875-1.1455078125-1.75-.251953125-.537109375-.271484375-1.009765625-.0537109375-1.4169921875.21875-.4072265625,1.029296875-1.255859375,2.435546875-2.5458984375.642578125-.5810546875,1.3486328125-1.25,2.12109375-2.0068359375.7685546875-.7568359375,1.568359375-1.533203125,2.396484375-2.330078125.8193359375-.7490234375,1.57421875-1.4833984375,2.2666015625-2.205078125.6904296875-.720703125,1.3330078125-1.375,1.9287109375-1.9658203125.658203125-.67578125,1.2900390625-1.3349609375,1.8935546875-1.9716796875.2568359375-.3505859375.9306640625-.470703125,2.0234375-.357421875,1.091796875.1123046875,2.23046875.3818359375,3.416015625.806640625,1.1875.42578125,2.2451171875.9521484375,3.1728515625,1.580078125.9296875.62890625,1.390625,1.2626953125,1.3798828125,1.9013671875Z"/>
      </g>
      <g>
        <path class="cls-2" d="M77.8974609375,98.783203125c3.87109375.6630859375,7.8017578125,1.8720703125,11.7939453125,3.625,3.9912109375,1.7529296875,7.697265625,3.9677734375,11.1259765625,6.64453125,3.423828125,2.67578125,6.392578125,5.7587890625,8.9150390625,9.2509765625,2.5166015625,3.490234375,4.33203125,7.369140625,5.44140625,11.634765625,1.33203125,5.9384765625.93359375,11.7080078125-1.2001953125,17.30859375-2.1318359375,5.6025390625-5.4912109375,10.45703125-10.076171875,14.5654296875-3.35546875,2.892578125-7.1201171875,5.1826171875-11.2900390625,6.86328125-4.171875,1.68359375-8.54296875,2.8994140625-13.11328125,3.6455078125-4.5732421875.748046875-9.2724609375,1.041015625-14.09765625.8779296875-4.8251953125-.1640625-9.6015625-.7509765625-14.3330078125-1.763671875-2.2509765625-.591796875-4.125-1.5751953125-5.626953125-2.9501953125-1.5009765625-1.3779296875-2.205078125-3.5390625-2.1083984375-6.4794921875-.0986328125-.6298828125.0361328125-2.466796875.4072265625-5.5146484375.3681640625-3.044921875.9150390625-6.8525390625,1.6455078125-11.4189453125.728515625-4.5634765625,1.578125-9.669921875,2.544921875-15.318359375.9658203125-5.646484375,1.9755859375-11.4130859375,3.03515625-17.2998046875,1.0576171875-5.88671875,2.1240234375-11.6728515625,3.1982421875-17.357421875,1.0732421875-5.68359375,2.052734375-10.80078125,2.93359375-15.3505859375.87890625-4.548828125,1.607421875-8.3583984375,2.1845703125-11.427734375.5751953125-3.0673828125.9638671875-4.892578125,1.1669921875-5.470703125.0341796875-.810546875.3095703125-1.5302734375.8271484375-2.1572265625.4013671875-.544921875.9609375-.9853515625,1.68359375-1.3212890625.720703125-.3369140625,1.783203125-.4345703125,3.19140625-.296875,1.3056640625.123046875,2.978515625.3564453125,5.013671875.7041015625,2.03515625.3486328125,3.97265625.8095703125,5.818359375,1.37890625,1.8408203125.5703125,3.3798828125,1.2939453125,4.609375,2.1669921875,1.228515625.876953125,1.79296875,1.916015625,1.6884765625,3.125-.9169921875,5.3603515625-1.837890625,10.74609375-2.763671875,16.1552734375-.92578125,5.4111328125-1.7978515625,10.8037109375-2.615234375,16.1806640625ZM69.6884765625,148.5673828125c4.01953125.3818359375,7.5732421875.0693359375,10.658203125-.935546875,3.0830078125-1.0048828125,5.5712890625-2.41796875,7.4677734375-4.2392578125,1.8955078125-1.822265625,3.1171875-3.884765625,3.6640625-6.193359375.5478515625-2.3056640625.2978515625-4.5703125-.7529296875-6.7958984375-1.05078125-2.22265625-2.9013671875-4.2509765625-5.548828125-6.0830078125-2.6513671875-1.8330078125-6.2490234375-3.1884765625-10.798828125-4.0703125-.8154296875,4.765625-1.5966796875,9.4853515625-2.345703125,14.1591796875-.7470703125,4.67578125-1.5283203125,9.3935546875-2.34375,14.158203125Z"/>
        <path class="cls-2" d="M144.369140625,138.189453125c-3.6474609375,14.38671875-6.658203125,28.955078125-9.033203125,43.7060546875-.13671875.5205078125-.36328125.974609375-.677734375,1.365234375-.3056640625.34375-.728515625.6533203125-1.2705078125.9306640625-.5400390625.27734375-1.2275390625.3935546875-2.05859375.3515625-.8818359375-.0517578125-1.7666015625-.142578125-2.658203125-.26953125-.892578125-.1279296875-1.7060546875-.3544921875-2.4384765625-.6767578125-.7353515625-.32421875-1.33984375-.771484375-1.806640625-1.345703125-.46875-.5732421875-.69140625-1.376953125-.6630859375-2.4091796875-.005859375-.5439453125.1123046875-1.5849609375.3515625-3.125.2373046875-1.5380859375.58984375-3.3798828125,1.0546875-5.5224609375.4736328125-2.1884765625,1.0048828125-4.5791015625,1.5966796875-7.1689453125s1.18359375-5.19140625,1.779296875-7.8046875c.0654296875-.0888671875.11328125-.2275390625.146484375-.4208984375-.279296875-.095703125-.6123046875-.251953125-.994140625-.4658203125-.3828125-.2138671875-.875-.59375-1.470703125-1.140625-.63671875-.6015625-1.28515625-1.21875-1.94140625-1.849609375-.66015625-.630859375-1.244140625-1.26171875-1.7509765625-1.892578125-.51171875-.6298828125-.8916015625-1.2138671875-1.1455078125-1.75-.251953125-.537109375-.271484375-1.009765625-.0537109375-1.4169921875.21875-.4072265625,1.029296875-1.255859375,2.435546875-2.5458984375.642578125-.5810546875,1.3486328125-1.25,2.12109375-2.0068359375.7685546875-.7568359375,1.568359375-1.533203125,2.396484375-2.330078125.8193359375-.7490234375,1.57421875-1.4833984375,2.2666015625-2.205078125.6904296875-.720703125,1.3330078125-1.375,1.9287109375-1.9658203125.658203125-.67578125,1.2900390625-1.3349609375,1.8935546875-1.9716796875.2568359375-.3505859375.9306640625-.470703125,2.0234375-.357421875,1.091796875.1123046875,2.23046875.3818359375,3.416015625.806640625,1.1875.42578125,2.2451171875.9521484375,3.1728515625,1.580078125.9296875.62890625,1.390625,1.2626953125,1.3798828125,1.9013671875Z"/>
      </g>
      <g>
        <path class="cls-3" d="M77.8974609375,98.783203125c3.87109375.6630859375,7.8017578125,1.8720703125,11.7939453125,3.625,3.9912109375,1.7529296875,7.697265625,3.9677734375,11.1259765625,6.64453125,3.423828125,2.67578125,6.392578125,5.7587890625,8.9150390625,9.2509765625,2.5166015625,3.490234375,4.33203125,7.369140625,5.44140625,11.634765625,1.33203125,5.9384765625.93359375,11.7080078125-1.2001953125,17.30859375-2.1318359375,5.6025390625-5.4912109375,10.45703125-10.076171875,14.5654296875-3.35546875,2.892578125-7.1201171875,5.1826171875-11.2900390625,6.86328125-4.171875,1.68359375-8.54296875,2.8994140625-13.11328125,3.6455078125-4.5732421875.748046875-9.2724609375,1.041015625-14.09765625.8779296875-4.8251953125-.1640625-9.6015625-.7509765625-14.3330078125-1.763671875-2.2509765625-.591796875-4.125-1.5751953125-5.626953125-2.9501953125-1.5009765625-1.3779296875-2.205078125-3.5390625-2.1083984375-6.4794921875-.0986328125-.6298828125.0361328125-2.466796875.4072265625-5.5146484375.3681640625-3.044921875.9150390625-6.8525390625,1.6455078125-11.4189453125.728515625-4.5634765625,1.578125-9.669921875,2.544921875-15.318359375.9658203125-5.646484375,1.9755859375-11.4130859375,3.03515625-17.2998046875,1.0576171875-5.88671875,2.1240234375-11.6728515625,3.1982421875-17.357421875,1.0732421875-5.68359375,2.052734375-10.80078125,2.93359375-15.3505859375.87890625-4.548828125,1.607421875-8.3583984375,2.1845703125-11.427734375.5751953125-3.0673828125.9638671875-4.892578125,1.1669921875-5.470703125.0341796875-.810546875.3095703125-1.5302734375.8271484375-2.1572265625.4013671875-.544921875.9609375-.9853515625,1.68359375-1.3212890625.720703125-.3369140625,1.783203125-.4345703125,3.19140625-.296875,1.3056640625.123046875,2.978515625.3564453125,5.013671875.7041015625,2.03515625.3486328125,3.97265625.8095703125,5.818359375,1.37890625,1.8408203125.5703125,3.3798828125,1.2939453125,4.609375,2.1669921875,1.228515625.876953125,1.79296875,1.916015625,1.6884765625,3.125-.9169921875,5.3603515625-1.837890625,10.74609375-2.763671875,16.1552734375-.92578125,5.4111328125-1.7978515625,10.8037109375-2.615234375,16.1806640625ZM69.6884765625,148.5673828125c4.01953125.3818359375,7.5732421875.0693359375,10.658203125-.935546875,3.0830078125-1.0048828125,5.5712890625-2.41796875,7.4677734375-4.2392578125,1.8955078125-1.822265625,3.1171875-3.884765625,3.6640625-6.193359375.5478515625-2.3056640625.2978515625-4.5703125-.7529296875-6.7958984375-1.05078125-2.22265625-2.9013671875-4.2509765625-5.548828125-6.0830078125-2.6513671875-1.8330078125-6.2490234375-3.1884765625-10.798828125-4.0703125-.8154296875,4.765625-1.5966796875,9.4853515625-2.345703125,14.1591796875-.7470703125,4.67578125-1.5283203125,9.3935546875-2.34375,14.158203125Z"/>
        <path class="cls-3" d="M144.369140625,138.189453125c-3.6474609375,14.38671875-6.658203125,28.955078125-9.033203125,43.7060546875-.13671875.5205078125-.36328125.974609375-.677734375,1.365234375-.3056640625.34375-.728515625.6533203125-1.2705078125.9306640625-.5400390625.27734375-1.2275390625.3935546875-2.05859375.3515625-.8818359375-.0517578125-1.7666015625-.142578125-2.658203125-.26953125-.892578125-.1279296875-1.7060546875-.3544921875-2.4384765625-.6767578125-.7353515625-.32421875-1.33984375-.771484375-1.806640625-1.345703125-.46875-.5732421875-.69140625-1.376953125-.6630859375-2.4091796875-.005859375-.5439453125.1123046875-1.5849609375.3515625-3.125.2373046875-1.5380859375.58984375-3.3798828125,1.0546875-5.5224609375.4736328125-2.1884765625,1.0048828125-4.5791015625,1.5966796875-7.1689453125s1.18359375-5.19140625,1.779296875-7.8046875c.0654296875-.0888671875.11328125-.2275390625.146484375-.4208984375-.279296875-.095703125-.6123046875-.251953125-.994140625-.4658203125-.3828125-.2138671875-.875-.59375-1.470703125-1.140625-.63671875-.6015625-1.28515625-1.21875-1.94140625-1.849609375-.66015625-.630859375-1.244140625-1.26171875-1.7509765625-1.892578125-.51171875-.6298828125-.8916015625-1.2138671875-1.1455078125-1.75-.251953125-.537109375-.271484375-1.009765625-.0537109375-1.4169921875.21875-.4072265625,1.029296875-1.255859375,2.435546875-2.5458984375.642578125-.5810546875,1.3486328125-1.25,2.12109375-2.0068359375.7685546875-.7568359375,1.568359375-1.533203125,2.396484375-2.330078125.8193359375-.7490234375,1.57421875-1.4833984375,2.2666015625-2.205078125.6904296875-.720703125,1.3330078125-1.375,1.9287109375-1.9658203125.658203125-.67578125,1.2900390625-1.3349609375,1.8935546875-1.9716796875.2568359375-.3505859375.9306640625-.470703125,2.0234375-.357421875,1.091796875.1123046875,2.23046875.3818359375,3.416015625.806640625,1.1875.42578125,2.2451171875.9521484375,3.1728515625,1.580078125.9296875.62890625,1.390625,1.2626953125,1.3798828125,1.9013671875Z"/>
      </g>
    </g>
  </a>
</svg>