<?xml version="1.0" encoding="UTF-8"?>
<svg id="Content" xmlns="http://www.w3.org/2000/svg" xmlns:xlink="http://www.w3.org/1999/xlink" viewBox="0 0 280 280">
  <defs>
    <style>
      .cls-1 {
        stroke: #665451;
        stroke-width: 50px;
      }

      .cls-1, .cls-2 {
        fill: none;
        stroke-linecap: round;
        stroke-linejoin: round;
      }

      .cls-3 {
        fill: #fff;
      }

      .cls-2 {
        stroke: #998675;
        stroke-width: 2px;
      }
    </style>
  </defs>
  <a xlink:href="https://www.notion.so/congruence/Sample-size-b493b69add674d1aa46fb078a6297458?pvs=4">
    <g>
      <path d="M74.275390625,74.119140625c5.2783203125-1.29541015625,10.5869140625-1.83935546875,15.9306640625-1.63720703125,5.33984375.205078125,10.439453125,1.32421875,15.29296875,3.3623046875,4.853515625,2.03759765625,8.9658203125,5.2939453125,12.3388671875,9.767578125,2.85546875,3.8212890625,5.15625,8.6416015625,6.90234375,14.46044921875,1.7451171875,5.82373046875,2.9677734375,13.04541015625,3.666015625,21.67138671875l1.93359375,28.14990234375c.0751953125.9228515625.103515625,2.0185546875.0927734375,3.2919921875-.0126953125,1.2763671875-.255859375,2.568359375-.7275390625,3.87890625-.4736328125,1.314453125-1.24609375,2.5048828125-2.3154296875,3.5751953125-1.0712890625,1.0703125-2.5751953125,1.7978515625-4.5107421875,2.1875-3.068359375.7109375-6.3349609375,1.12109375-9.798828125,1.228515625-3.46484375.107421875-6.216796875-.97265625-8.2509765625-3.2392578125-1.146484375-1.2958984375-2.0107421875-3.01953125-2.58984375-5.173828125-.5810546875-2.150390625-1.0009765625-4.490234375-1.2626953125-7.0166015625-.2646484375-2.5244140625-.408203125-5.029296875-.435546875-7.51953125-.02734375-2.48583984375-.0029296875-4.65869140625.0791015625-6.51806640625.1328125-4.0625.2197265625-8.0068359375.2578125-11.830078125.037109375-3.82275390625-.376953125-7.494140625-1.240234375-11.01416015625-.9970703125-3.73876953125-2.583984375-6.8798828125-4.7568359375-9.42529296875-2.1767578125-2.54296875-4.6044921875-4.31494140625-7.291015625-5.3134765625-2.6845703125-.998046875-5.42578125-1.23828125-8.2197265625-.7236328125-2.796875.51611328125-5.34765625,1.8818359375-7.65625,4.09375-2.3115234375,2.21435546875-4.1689453125,5.34619140625-5.5771484375,9.39501953125-1.4091796875,4.05078125-2.0478515625,9.021484375-1.91796875,14.91650390625l3.453125,36.18798828125c-.1484375,1.052734375-.470703125,2.064453125-.970703125,3.0302734375-.5107421875.8525390625-1.2861328125,1.6396484375-2.326171875,2.359375-1.0439453125.72265625-2.5322265625,1.2744140625-4.466796875,1.6640625-2.052734375.3974609375-4.140625.7099609375-6.2626953125.9423828125-2.125.228515625-4.1494140625.21875-6.0810546875-.0283203125-1.9296875-.2509765625-3.5673828125-.8115234375-4.9111328125-1.6865234375-1.345703125-.873046875-2.263671875-2.2177734375-2.7578125-4.0302734375-.2880859375-.671875-.603515625-3.1640625-.953125-7.4775390625-.349609375-4.3125-.6875-9.552734375-1.013671875-15.72119140625-.3251953125-6.1650390625-.6591796875-12.7666015625-.99609375-19.802734375-.3388671875-7.03271484375-.6435546875-13.63720703125-.91015625-19.80908203125-.26953125-6.1708984375-.46484375-11.423828125-.58203125-15.75732421875-.1201171875-4.3310546875-.2119140625-6.89892578125-.2763671875-7.70458984375-.1728515625-.68115234375-.05078125-1.32470703125.36328125-1.9404296875.298828125-.60107421875.8330078125-1.1357421875,1.6064453125-1.60546875.7705078125-.46630859375,1.9580078125-.8232421875,3.560546875-1.06982421875,1.484375-.234375,3.2880859375-.46728515625,5.4130859375-.69921875,2.1220703125-.22900390625,4.1650390625-.36376953125,6.1318359375-.4091796875,1.962890625-.04296875,3.6552734375.10986328125,5.0732421875.45703125,1.41796875.34912109375,2.16796875,1.0400390625,2.251953125,2.07421875l.4609375,5.693359375c4.220703125-2.19189453125,8.9716796875-3.93896484375,14.25-5.23486328125Z"/>
      <path class="cls-1" d="M74.275390625,74.119140625c5.2783203125-1.29541015625,10.5869140625-1.83935546875,15.9306640625-1.63720703125,5.33984375.205078125,10.439453125,1.32421875,15.29296875,3.3623046875,4.853515625,2.03759765625,8.9658203125,5.2939453125,12.3388671875,9.767578125,2.85546875,3.8212890625,5.15625,8.6416015625,6.90234375,14.46044921875,1.7451171875,5.82373046875,2.9677734375,13.04541015625,3.666015625,21.67138671875l1.93359375,28.14990234375c.0751953125.9228515625.103515625,2.0185546875.0927734375,3.2919921875-.0126953125,1.2763671875-.255859375,2.568359375-.7275390625,3.87890625-.4736328125,1.314453125-1.24609375,2.5048828125-2.3154296875,3.5751953125-1.0712890625,1.0703125-2.5751953125,1.7978515625-4.5107421875,2.1875-3.068359375.7109375-6.3349609375,1.12109375-9.798828125,1.228515625-3.46484375.107421875-6.216796875-.97265625-8.2509765625-3.2392578125-1.146484375-1.2958984375-2.0107421875-3.01953125-2.58984375-5.173828125-.5810546875-2.150390625-1.0009765625-4.490234375-1.2626953125-7.0166015625-.2646484375-2.5244140625-.408203125-5.029296875-.435546875-7.51953125-.02734375-2.48583984375-.0029296875-4.65869140625.0791015625-6.51806640625.1328125-4.0625.2197265625-8.0068359375.2578125-11.830078125.037109375-3.82275390625-.376953125-7.494140625-1.240234375-11.01416015625-.9970703125-3.73876953125-2.583984375-6.8798828125-4.7568359375-9.42529296875-2.1767578125-2.54296875-4.6044921875-4.31494140625-7.291015625-5.3134765625-2.6845703125-.998046875-5.42578125-1.23828125-8.2197265625-.7236328125-2.796875.51611328125-5.34765625,1.8818359375-7.65625,4.09375-2.3115234375,2.21435546875-4.1689453125,5.34619140625-5.5771484375,9.39501953125-1.4091796875,4.05078125-2.0478515625,9.021484375-1.91796875,14.91650390625l3.453125,36.18798828125c-.1484375,1.052734375-.470703125,2.064453125-.970703125,3.0302734375-.5107421875.8525390625-1.2861328125,1.6396484375-2.326171875,2.359375-1.0439453125.72265625-2.5322265625,1.2744140625-4.466796875,1.6640625-2.052734375.3974609375-4.140625.7099609375-6.2626953125.9423828125-2.125.228515625-4.1494140625.21875-6.0810546875-.0283203125-1.9296875-.2509765625-3.5673828125-.8115234375-4.9111328125-1.6865234375-1.345703125-.873046875-2.263671875-2.2177734375-2.7578125-4.0302734375-.2880859375-.671875-.603515625-3.1640625-.953125-7.4775390625-.349609375-4.3125-.6875-9.552734375-1.013671875-15.72119140625-.3251953125-6.1650390625-.6591796875-12.7666015625-.99609375-19.802734375-.3388671875-7.03271484375-.6435546875-13.63720703125-.91015625-19.80908203125-.26953125-6.1708984375-.46484375-11.423828125-.58203125-15.75732421875-.1201171875-4.3310546875-.2119140625-6.89892578125-.2763671875-7.70458984375-.1728515625-.68115234375-.05078125-1.32470703125.36328125-1.9404296875.298828125-.60107421875.8330078125-1.1357421875,1.6064453125-1.60546875.7705078125-.46630859375,1.9580078125-.8232421875,3.560546875-1.06982421875,1.484375-.234375,3.2880859375-.46728515625,5.4130859375-.69921875,2.1220703125-.22900390625,4.1650390625-.36376953125,6.1318359375-.4091796875,1.962890625-.04296875,3.6552734375.10986328125,5.0732421875.45703125,1.41796875.34912109375,2.16796875,1.0400390625,2.251953125,2.07421875l.4609375,5.693359375c4.220703125-2.19189453125,8.9716796875-3.93896484375,14.25-5.23486328125Z"/>
      <path class="cls-2" d="M74.275390625,74.119140625c5.2783203125-1.29541015625,10.5869140625-1.83935546875,15.9306640625-1.63720703125,5.33984375.205078125,10.439453125,1.32421875,15.29296875,3.3623046875,4.853515625,2.03759765625,8.9658203125,5.2939453125,12.3388671875,9.767578125,2.85546875,3.8212890625,5.15625,8.6416015625,6.90234375,14.46044921875,1.7451171875,5.82373046875,2.9677734375,13.04541015625,3.666015625,21.67138671875l1.93359375,28.14990234375c.0751953125.9228515625.103515625,2.0185546875.0927734375,3.2919921875-.0126953125,1.2763671875-.255859375,2.568359375-.7275390625,3.87890625-.4736328125,1.314453125-1.24609375,2.5048828125-2.3154296875,3.5751953125-1.0712890625,1.0703125-2.5751953125,1.7978515625-4.5107421875,2.1875-3.068359375.7109375-6.3349609375,1.12109375-9.798828125,1.228515625-3.46484375.107421875-6.216796875-.97265625-8.2509765625-3.2392578125-1.146484375-1.2958984375-2.0107421875-3.01953125-2.58984375-5.173828125-.5810546875-2.150390625-1.0009765625-4.490234375-1.2626953125-7.0166015625-.2646484375-2.5244140625-.408203125-5.029296875-.435546875-7.51953125-.02734375-2.48583984375-.0029296875-4.65869140625.0791015625-6.51806640625.1328125-4.0625.2197265625-8.0068359375.2578125-11.830078125.037109375-3.82275390625-.376953125-7.494140625-1.240234375-11.01416015625-.9970703125-3.73876953125-2.583984375-6.8798828125-4.7568359375-9.42529296875-2.1767578125-2.54296875-4.6044921875-4.31494140625-7.291015625-5.3134765625-2.6845703125-.998046875-5.42578125-1.23828125-8.2197265625-.7236328125-2.796875.51611328125-5.34765625,1.8818359375-7.65625,4.09375-2.3115234375,2.21435546875-4.1689453125,5.34619140625-5.5771484375,9.39501953125-1.4091796875,4.05078125-2.0478515625,9.021484375-1.91796875,14.91650390625l3.453125,36.18798828125c-.1484375,1.052734375-.470703125,2.064453125-.970703125,3.0302734375-.5107421875.8525390625-1.2861328125,1.6396484375-2.326171875,2.359375-1.0439453125.72265625-2.5322265625,1.2744140625-4.466796875,1.6640625-2.052734375.3974609375-4.140625.7099609375-6.2626953125.9423828125-2.125.228515625-4.1494140625.21875-6.0810546875-.0283203125-1.9296875-.2509765625-3.5673828125-.8115234375-4.9111328125-1.6865234375-1.345703125-.873046875-2.263671875-2.2177734375-2.7578125-4.0302734375-.2880859375-.671875-.603515625-3.1640625-.953125-7.4775390625-.349609375-4.3125-.6875-9.552734375-1.013671875-15.72119140625-.3251953125-6.1650390625-.6591796875-12.7666015625-.99609375-19.802734375-.3388671875-7.03271484375-.6435546875-13.63720703125-.91015625-19.80908203125-.26953125-6.1708984375-.46484375-11.423828125-.58203125-15.75732421875-.1201171875-4.3310546875-.2119140625-6.89892578125-.2763671875-7.70458984375-.1728515625-.68115234375-.05078125-1.32470703125.36328125-1.9404296875.298828125-.60107421875.8330078125-1.1357421875,1.6064453125-1.60546875.7705078125-.46630859375,1.9580078125-.8232421875,3.560546875-1.06982421875,1.484375-.234375,3.2880859375-.46728515625,5.4130859375-.69921875,2.1220703125-.22900390625,4.1650390625-.36376953125,6.1318359375-.4091796875,1.962890625-.04296875,3.6552734375.10986328125,5.0732421875.45703125,1.41796875.34912109375,2.16796875,1.0400390625,2.251953125,2.07421875l.4609375,5.693359375c4.220703125-2.19189453125,8.9716796875-3.93896484375,14.25-5.23486328125Z"/>
      <path class="cls-3" d="M74.275390625,74.119140625c5.2783203125-1.29541015625,10.5869140625-1.83935546875,15.9306640625-1.63720703125,5.33984375.205078125,10.439453125,1.32421875,15.29296875,3.3623046875,4.853515625,2.03759765625,8.9658203125,5.2939453125,12.3388671875,9.767578125,2.85546875,3.8212890625,5.15625,8.6416015625,6.90234375,14.46044921875,1.7451171875,5.82373046875,2.9677734375,13.04541015625,3.666015625,21.67138671875l1.93359375,28.14990234375c.0751953125.9228515625.103515625,2.0185546875.0927734375,3.2919921875-.0126953125,1.2763671875-.255859375,2.568359375-.7275390625,3.87890625-.4736328125,1.314453125-1.24609375,2.5048828125-2.3154296875,3.5751953125-1.0712890625,1.0703125-2.5751953125,1.7978515625-4.5107421875,2.1875-3.068359375.7109375-6.3349609375,1.12109375-9.798828125,1.228515625-3.46484375.107421875-6.216796875-.97265625-8.2509765625-3.2392578125-1.146484375-1.2958984375-2.0107421875-3.01953125-2.58984375-5.173828125-.5810546875-2.150390625-1.0009765625-4.490234375-1.2626953125-7.0166015625-.2646484375-2.5244140625-.408203125-5.029296875-.435546875-7.51953125-.02734375-2.48583984375-.0029296875-4.65869140625.0791015625-6.51806640625.1328125-4.0625.2197265625-8.0068359375.2578125-11.830078125.037109375-3.82275390625-.376953125-7.494140625-1.240234375-11.01416015625-.9970703125-3.73876953125-2.583984375-6.8798828125-4.7568359375-9.42529296875-2.1767578125-2.54296875-4.6044921875-4.31494140625-7.291015625-5.3134765625-2.6845703125-.998046875-5.42578125-1.23828125-8.2197265625-.7236328125-2.796875.51611328125-5.34765625,1.8818359375-7.65625,4.09375-2.3115234375,2.21435546875-4.1689453125,5.34619140625-5.5771484375,9.39501953125-1.4091796875,4.05078125-2.0478515625,9.021484375-1.91796875,14.91650390625l3.453125,36.18798828125c-.1484375,1.052734375-.470703125,2.064453125-.970703125,3.0302734375-.5107421875.8525390625-1.2861328125,1.6396484375-2.326171875,2.359375-1.0439453125.72265625-2.5322265625,1.2744140625-4.466796875,1.6640625-2.052734375.3974609375-4.140625.7099609375-6.2626953125.9423828125-2.125.228515625-4.1494140625.21875-6.0810546875-.0283203125-1.9296875-.2509765625-3.5673828125-.8115234375-4.9111328125-1.6865234375-1.345703125-.873046875-2.263671875-2.2177734375-2.7578125-4.0302734375-.2880859375-.671875-.603515625-3.1640625-.953125-7.4775390625-.349609375-4.3125-.6875-9.552734375-1.013671875-15.72119140625-.3251953125-6.1650390625-.6591796875-12.7666015625-.99609375-19.802734375-.3388671875-7.03271484375-.6435546875-13.63720703125-.91015625-19.80908203125-.26953125-6.1708984375-.46484375-11.423828125-.58203125-15.75732421875-.1201171875-4.3310546875-.2119140625-6.89892578125-.2763671875-7.70458984375-.1728515625-.68115234375-.05078125-1.32470703125.36328125-1.9404296875.298828125-.60107421875.8330078125-1.1357421875,1.6064453125-1.60546875.7705078125-.46630859375,1.9580078125-.8232421875,3.560546875-1.06982421875,1.484375-.234375,3.2880859375-.46728515625,5.4130859375-.69921875,2.1220703125-.22900390625,4.1650390625-.36376953125,6.1318359375-.4091796875,1.962890625-.04296875,3.6552734375.10986328125,5.0732421875.45703125,1.41796875.34912109375,2.16796875,1.0400390625,2.251953125,2.07421875l.4609375,5.693359375c4.220703125-2.19189453125,8.9716796875-3.93896484375,14.25-5.23486328125Z"/>
    </g>
  </a>
</svg>