<?xml version="1.0" encoding="UTF-8"?>
<svg id="Content" xmlns="http://www.w3.org/2000/svg" viewBox="0 0 280 280">
  <defs>
    <style>
      .cls-1 {
        stroke: #665451;
        stroke-width: 50px;
      }

      .cls-1, .cls-2 {
        fill: none;
        stroke-linecap: round;
        stroke-linejoin: round;
      }

      .cls-3 {
        fill: #fff;
      }

      .cls-2 {
        stroke: #998675;
        stroke-width: 2px;
      }
    </style>
  </defs>
  <g>
    <path d="M120.072265625,176.2421875c.619140625.896484375.962890625,1.8896484375,1.029296875,2.98046875.07421875.875-.1015625,1.9306640625-.529296875,3.1650390625-.431640625,1.236328125-1.322265625,2.4814453125-2.67578125,3.736328125-1.35546875,1.255859375-2.8203125,2.48046875-4.390625,3.6708984375-1.572265625,1.193359375-3.185546875,2.138671875-4.845703125,2.8369140625-1.66015625.6953125-3.3046875.958984375-4.93359375.7900390625-1.625-.1728515625-3.2265625-.9990234375-4.8046875-2.47265625-.845703125-.685546875-2.279296875-2.3193359375-4.3046875-4.904296875-2.0234375-2.5810546875-4.37890625-5.830078125-7.05859375-9.7470703125-1.34375-1.9013671875-2.763671875-3.9453125-4.2578125-6.1259765625-1.494140625-2.1826171875-3.072265625-4.3916015625-4.7265625-6.6357421875-3.400390625,3.4638671875-6.60546875,6.74609375-9.609375,9.841796875-3.0078125,3.0986328125-5.642578125,5.8017578125-7.908203125,8.1103515625-2.71875,2.7275390625-5.212890625,5.24609375-7.48046875,7.5537109375-.56640625.5244140625-1.234375.9326171875-2.0078125,1.23046875-.66015625.1904296875-1.423828125.2421875-2.291015625.1552734375-.87109375-.0888671875-1.884765625-.58984375-3.046875-1.5048828125-1.169921875-.8056640625-2.517578125-1.837890625-4.046875-3.0966796875-1.533203125-1.255859375-2.92578125-2.53515625-4.18359375-3.8359375-1.255859375-1.2998046875-2.162109375-2.560546875-2.712890625-3.7822265625-.552734375-1.2177734375-.482421875-2.3046875.20703125-3.2578125l29.025390625-32.5390625c-2.677734375-4.0244140625-5.14453125-7.8486328125-7.400390625-11.4765625-2.2578125-3.6240234375-4.2578125-6.8330078125-6.001953125-9.6240234375-1.9453125-3.232421875-3.73828125-6.2421875-5.37109375-9.0283203125-.51953125-.673828125-.818359375-1.392578125-.896484375-2.1591796875-.0859375-.65625.05078125-1.3583984375.40625-2.1083984375.357421875-.74609375,1.146484375-1.533203125,2.37890625-2.359375,1.228515625-.822265625,2.68359375-1.775390625,4.357421875-2.8544921875,1.67578125-1.078125,3.318359375-2.021484375,4.927734375-2.8330078125,1.609375-.80859375,3.099609375-1.322265625,4.470703125-1.54296875,1.369140625-.21875,2.41796875.12109375,3.146484375,1.01953125,2.78125,4.1376953125,5.56640625,8.193359375,8.35546875,12.166015625,2.7890625,3.974609375,5.576171875,7.974609375,8.359375,12.001953125l18.599609375-20.5224609375c.783203125-.6240234375,1.73046875-1.130859375,2.833984375-1.525390625.8828125-.2919921875,1.9765625-.3857421875,3.279296875-.2822265625,1.302734375.1064453125,2.693359375.67578125,4.181640625,1.712890625,1.59375,1.0419921875,3.18359375,2.193359375,4.767578125,3.451171875,1.5859375,1.2607421875,2.89453125,2.58984375,3.931640625,3.990234375,1.033203125,1.4033203125,1.65625,2.9228515625,1.8671875,4.564453125.205078125,1.642578125-.267578125,3.3671875-1.423828125,5.1728515625-.462890625.63671875-1.349609375,1.74609375-2.66015625,3.3291015625-1.31640625,1.583984375-2.9921875,3.4541015625-5.037109375,5.6064453125-2.04296875,2.1552734375-4.341796875,4.5712890625-6.89453125,7.25-2.5546875,2.6787109375-5.25,5.490234375-8.083984375,8.4296875,3.935546875,5.271484375,7.845703125,10.51171875,11.728515625,15.7255859375,3.884765625,5.21484375,7.79296875,10.4580078125,11.73046875,15.7275390625Z"/>
    <path d="M122.26953125,57.9765625c2.681640625,1.0166015625,4.1796875,2.4814453125,4.494140625,4.396484375.3125,1.9150390625.162109375,3.8525390625-.455078125,5.8134765625-1.0390625,3.333984375-2.966796875,6.3427734375-5.783203125,9.0224609375-2.818359375,2.681640625-6.521484375,4.486328125-11.107421875,5.412109375-1.908203125.3583984375-3.859375.5712890625-5.853515625.638671875-1.99609375.0673828125-3.98046875-.052734375-5.955078125-.3603515625-1.9765625-.30859375-3.8671875-.8427734375-5.671875-1.6044921875-1.8046875-.759765625-3.42578125-1.7822265625-4.86328125-3.0654296875-.958984375-.8544921875-1.70703125-1.8623046875-2.2421875-3.0244140625-.5390625-1.1611328125-.99609375-2.3779296875-1.375-3.6494140625-.37890625-1.2705078125-.7109375-2.552734375-.9921875-3.841796875-.283203125-1.2890625-.6484375-2.5234375-1.087890625-3.703125-.38671875-.9609375-.833984375-1.5732421875-1.341796875-1.833984375-.5078125-.259765625-1.037109375-.283203125-1.580078125-.0673828125-.544921875.21484375-1.068359375.5732421875-1.568359375,1.0712890625-.501953125.4990234375-.986328125,1.017578125-1.4453125,1.55859375-1.376953125,1.5537109375-2.6484375,3.158203125-3.8125,4.81640625s-2.517578125,3.216796875-4.060546875,4.6708984375c-.416015625.2734375-1.001953125.4638671875-1.759765625.5732421875-.7578125.111328125-1.75-.009765625-2.98046875-.3623046875-1.232421875-.3505859375-2.615234375-.7451171875-4.15234375-1.1845703125-1.5390625-.4384765625-3.041015625-.95703125-4.50390625-1.556640625-1.373046875-.5830078125-2.458984375-1.2529296875-3.248046875-2.009765625-.791015625-.7578125-1.01171875-1.623046875-.658203125-2.5947265625.71875-2.0107421875,1.794921875-4.0986328125,3.232421875-6.2626953125,1.43359375-2.1611328125,3.150390625-4.20703125,5.14453125-6.134765625,1.994140625-1.9287109375,4.255859375-3.6708984375,6.787109375-5.232421875,2.529296875-1.55859375,5.337890625-2.7255859375,8.42578125-3.5,1.927734375-.4921875,3.982421875-.7724609375,6.162109375-.8427734375,2.177734375-.0693359375,4.29296875.1083984375,6.341796875.53125,2.048828125.4248046875,3.95703125,1.1171875,5.728515625,2.0791015625,1.76953125.9619140625,3.248046875,2.2685546875,4.439453125,3.921875,1.04296875,1.4208984375,1.837890625,2.955078125,2.3828125,4.599609375s.90625,3.275390625,1.087890625,4.8916015625c-.00390625.5517578125.080078125,1.25390625.255859375,2.111328125.173828125.8564453125.419921875,1.5712890625.736328125,2.1435546875.31640625.5712890625.724609375.8671875,1.23046875.884765625.501953125.01953125,1.087890625-.568359375,1.7578125-1.7626953125.65625-1.1259765625,1.1796875-2.5498046875,1.572265625-4.275390625.208984375-1.2041015625,1.0625-2.1416015625,2.5625-2.8115234375s3.025390625-.97265625,4.583984375-.9091796875c1.556640625.0634765625,3.197265625.17578125,4.921875.3369140625s3.2734375.533203125,4.650390625,1.1162109375Z"/>
  </g>
  <g>
    <path class="cls-1" d="M120.072265625,176.2421875c.619140625.896484375.962890625,1.8896484375,1.029296875,2.98046875.07421875.875-.1015625,1.9306640625-.529296875,3.1650390625-.431640625,1.236328125-1.322265625,2.4814453125-2.67578125,3.736328125-1.35546875,1.255859375-2.8203125,2.48046875-4.390625,3.6708984375-1.572265625,1.193359375-3.185546875,2.138671875-4.845703125,2.8369140625-1.66015625.6953125-3.3046875.958984375-4.93359375.7900390625-1.625-.1728515625-3.2265625-.9990234375-4.8046875-2.47265625-.845703125-.685546875-2.279296875-2.3193359375-4.3046875-4.904296875-2.0234375-2.5810546875-4.37890625-5.830078125-7.05859375-9.7470703125-1.34375-1.9013671875-2.763671875-3.9453125-4.2578125-6.1259765625-1.494140625-2.1826171875-3.072265625-4.3916015625-4.7265625-6.6357421875-3.400390625,3.4638671875-6.60546875,6.74609375-9.609375,9.841796875-3.0078125,3.0986328125-5.642578125,5.8017578125-7.908203125,8.1103515625-2.71875,2.7275390625-5.212890625,5.24609375-7.48046875,7.5537109375-.56640625.5244140625-1.234375.9326171875-2.0078125,1.23046875-.66015625.1904296875-1.423828125.2421875-2.291015625.1552734375-.87109375-.0888671875-1.884765625-.58984375-3.046875-1.5048828125-1.169921875-.8056640625-2.517578125-1.837890625-4.046875-3.0966796875-1.533203125-1.255859375-2.92578125-2.53515625-4.18359375-3.8359375-1.255859375-1.2998046875-2.162109375-2.560546875-2.712890625-3.7822265625-.552734375-1.2177734375-.482421875-2.3046875.20703125-3.2578125l29.025390625-32.5390625c-2.677734375-4.0244140625-5.14453125-7.8486328125-7.400390625-11.4765625-2.2578125-3.6240234375-4.2578125-6.8330078125-6.001953125-9.6240234375-1.9453125-3.232421875-3.73828125-6.2421875-5.37109375-9.0283203125-.51953125-.673828125-.818359375-1.392578125-.896484375-2.1591796875-.0859375-.65625.05078125-1.3583984375.40625-2.1083984375.357421875-.74609375,1.146484375-1.533203125,2.37890625-2.359375,1.228515625-.822265625,2.68359375-1.775390625,4.357421875-2.8544921875,1.67578125-1.078125,3.318359375-2.021484375,4.927734375-2.8330078125,1.609375-.80859375,3.099609375-1.322265625,4.470703125-1.54296875,1.369140625-.21875,2.41796875.12109375,3.146484375,1.01953125,2.78125,4.1376953125,5.56640625,8.193359375,8.35546875,12.166015625,2.7890625,3.974609375,5.576171875,7.974609375,8.359375,12.001953125l18.599609375-20.5224609375c.783203125-.6240234375,1.73046875-1.130859375,2.833984375-1.525390625.8828125-.2919921875,1.9765625-.3857421875,3.279296875-.2822265625,1.302734375.1064453125,2.693359375.67578125,4.181640625,1.712890625,1.59375,1.0419921875,3.18359375,2.193359375,4.767578125,3.451171875,1.5859375,1.2607421875,2.89453125,2.58984375,3.931640625,3.990234375,1.033203125,1.4033203125,1.65625,2.9228515625,1.8671875,4.564453125.205078125,1.642578125-.267578125,3.3671875-1.423828125,5.1728515625-.462890625.63671875-1.349609375,1.74609375-2.66015625,3.3291015625-1.31640625,1.583984375-2.9921875,3.4541015625-5.037109375,5.6064453125-2.04296875,2.1552734375-4.341796875,4.5712890625-6.89453125,7.25-2.5546875,2.6787109375-5.25,5.490234375-8.083984375,8.4296875,3.935546875,5.271484375,7.845703125,10.51171875,11.728515625,15.7255859375,3.884765625,5.21484375,7.79296875,10.4580078125,11.73046875,15.7275390625Z"/>
    <path class="cls-1" d="M122.26953125,57.9765625c2.681640625,1.0166015625,4.1796875,2.4814453125,4.494140625,4.396484375.3125,1.9150390625.162109375,3.8525390625-.455078125,5.8134765625-1.0390625,3.333984375-2.966796875,6.3427734375-5.783203125,9.0224609375-2.818359375,2.681640625-6.521484375,4.486328125-11.107421875,5.412109375-1.908203125.3583984375-3.859375.5712890625-5.853515625.638671875-1.99609375.0673828125-3.98046875-.052734375-5.955078125-.3603515625-1.9765625-.30859375-3.8671875-.8427734375-5.671875-1.6044921875-1.8046875-.759765625-3.42578125-1.7822265625-4.86328125-3.0654296875-.958984375-.8544921875-1.70703125-1.8623046875-2.2421875-3.0244140625-.5390625-1.1611328125-.99609375-2.3779296875-1.375-3.6494140625-.37890625-1.2705078125-.7109375-2.552734375-.9921875-3.841796875-.283203125-1.2890625-.6484375-2.5234375-1.087890625-3.703125-.38671875-.9609375-.833984375-1.5732421875-1.341796875-1.833984375-.5078125-.259765625-1.037109375-.283203125-1.580078125-.0673828125-.544921875.21484375-1.068359375.5732421875-1.568359375,1.0712890625-.501953125.4990234375-.986328125,1.017578125-1.4453125,1.55859375-1.376953125,1.5537109375-2.6484375,3.158203125-3.8125,4.81640625s-2.517578125,3.216796875-4.060546875,4.6708984375c-.416015625.2734375-1.001953125.4638671875-1.759765625.5732421875-.7578125.111328125-1.75-.009765625-2.98046875-.3623046875-1.232421875-.3505859375-2.615234375-.7451171875-4.15234375-1.1845703125-1.5390625-.4384765625-3.041015625-.95703125-4.50390625-1.556640625-1.373046875-.5830078125-2.458984375-1.2529296875-3.248046875-2.009765625-.791015625-.7578125-1.01171875-1.623046875-.658203125-2.5947265625.71875-2.0107421875,1.794921875-4.0986328125,3.232421875-6.2626953125,1.43359375-2.1611328125,3.150390625-4.20703125,5.14453125-6.134765625,1.994140625-1.9287109375,4.255859375-3.6708984375,6.787109375-5.232421875,2.529296875-1.55859375,5.337890625-2.7255859375,8.42578125-3.5,1.927734375-.4921875,3.982421875-.7724609375,6.162109375-.8427734375,2.177734375-.0693359375,4.29296875.1083984375,6.341796875.53125,2.048828125.4248046875,3.95703125,1.1171875,5.728515625,2.0791015625,1.76953125.9619140625,3.248046875,2.2685546875,4.439453125,3.921875,1.04296875,1.4208984375,1.837890625,2.955078125,2.3828125,4.599609375s.90625,3.275390625,1.087890625,4.8916015625c-.00390625.5517578125.080078125,1.25390625.255859375,2.111328125.173828125.8564453125.419921875,1.5712890625.736328125,2.1435546875.31640625.5712890625.724609375.8671875,1.23046875.884765625.501953125.01953125,1.087890625-.568359375,1.7578125-1.7626953125.65625-1.1259765625,1.1796875-2.5498046875,1.572265625-4.275390625.208984375-1.2041015625,1.0625-2.1416015625,2.5625-2.8115234375s3.025390625-.97265625,4.583984375-.9091796875c1.556640625.0634765625,3.197265625.17578125,4.921875.3369140625s3.2734375.533203125,4.650390625,1.1162109375Z"/>
  </g>
  <g>
    <path class="cls-2" d="M120.072265625,176.2421875c.619140625.896484375.962890625,1.8896484375,1.029296875,2.98046875.07421875.875-.1015625,1.9306640625-.529296875,3.1650390625-.431640625,1.236328125-1.322265625,2.4814453125-2.67578125,3.736328125-1.35546875,1.255859375-2.8203125,2.48046875-4.390625,3.6708984375-1.572265625,1.193359375-3.185546875,2.138671875-4.845703125,2.8369140625-1.66015625.6953125-3.3046875.958984375-4.93359375.7900390625-1.625-.1728515625-3.2265625-.9990234375-4.8046875-2.47265625-.845703125-.685546875-2.279296875-2.3193359375-4.3046875-4.904296875-2.0234375-2.5810546875-4.37890625-5.830078125-7.05859375-9.7470703125-1.34375-1.9013671875-2.763671875-3.9453125-4.2578125-6.1259765625-1.494140625-2.1826171875-3.072265625-4.3916015625-4.7265625-6.6357421875-3.400390625,3.4638671875-6.60546875,6.74609375-9.609375,9.841796875-3.0078125,3.0986328125-5.642578125,5.8017578125-7.908203125,8.1103515625-2.71875,2.7275390625-5.212890625,5.24609375-7.48046875,7.5537109375-.56640625.5244140625-1.234375.9326171875-2.0078125,1.23046875-.66015625.1904296875-1.423828125.2421875-2.291015625.1552734375-.87109375-.0888671875-1.884765625-.58984375-3.046875-1.5048828125-1.169921875-.8056640625-2.517578125-1.837890625-4.046875-3.0966796875-1.533203125-1.255859375-2.92578125-2.53515625-4.18359375-3.8359375-1.255859375-1.2998046875-2.162109375-2.560546875-2.712890625-3.7822265625-.552734375-1.2177734375-.482421875-2.3046875.20703125-3.2578125l29.025390625-32.5390625c-2.677734375-4.0244140625-5.14453125-7.8486328125-7.400390625-11.4765625-2.2578125-3.6240234375-4.2578125-6.8330078125-6.001953125-9.6240234375-1.9453125-3.232421875-3.73828125-6.2421875-5.37109375-9.0283203125-.51953125-.673828125-.818359375-1.392578125-.896484375-2.1591796875-.0859375-.65625.05078125-1.3583984375.40625-2.1083984375.357421875-.74609375,1.146484375-1.533203125,2.37890625-2.359375,1.228515625-.822265625,2.68359375-1.775390625,4.357421875-2.8544921875,1.67578125-1.078125,3.318359375-2.021484375,4.927734375-2.8330078125,1.609375-.80859375,3.099609375-1.322265625,4.470703125-1.54296875,1.369140625-.21875,2.41796875.12109375,3.146484375,1.01953125,2.78125,4.1376953125,5.56640625,8.193359375,8.35546875,12.166015625,2.7890625,3.974609375,5.576171875,7.974609375,8.359375,12.001953125l18.599609375-20.5224609375c.783203125-.6240234375,1.73046875-1.130859375,2.833984375-1.525390625.8828125-.2919921875,1.9765625-.3857421875,3.279296875-.2822265625,1.302734375.1064453125,2.693359375.67578125,4.181640625,1.712890625,1.59375,1.0419921875,3.18359375,2.193359375,4.767578125,3.451171875,1.5859375,1.2607421875,2.89453125,2.58984375,3.931640625,3.990234375,1.033203125,1.4033203125,1.65625,2.9228515625,1.8671875,4.564453125.205078125,1.642578125-.267578125,3.3671875-1.423828125,5.1728515625-.462890625.63671875-1.349609375,1.74609375-2.66015625,3.3291015625-1.31640625,1.583984375-2.9921875,3.4541015625-5.037109375,5.6064453125-2.04296875,2.1552734375-4.341796875,4.5712890625-6.89453125,7.25-2.5546875,2.6787109375-5.25,5.490234375-8.083984375,8.4296875,3.935546875,5.271484375,7.845703125,10.51171875,11.728515625,15.7255859375,3.884765625,5.21484375,7.79296875,10.4580078125,11.73046875,15.7275390625Z"/>
    <path class="cls-2" d="M122.26953125,57.9765625c2.681640625,1.0166015625,4.1796875,2.4814453125,4.494140625,4.396484375.3125,1.9150390625.162109375,3.8525390625-.455078125,5.8134765625-1.0390625,3.333984375-2.966796875,6.3427734375-5.783203125,9.0224609375-2.818359375,2.681640625-6.521484375,4.486328125-11.107421875,5.412109375-1.908203125.3583984375-3.859375.5712890625-5.853515625.638671875-1.99609375.0673828125-3.98046875-.052734375-5.955078125-.3603515625-1.9765625-.30859375-3.8671875-.8427734375-5.671875-1.6044921875-1.8046875-.759765625-3.42578125-1.7822265625-4.86328125-3.0654296875-.958984375-.8544921875-1.70703125-1.8623046875-2.2421875-3.0244140625-.5390625-1.1611328125-.99609375-2.3779296875-1.375-3.6494140625-.37890625-1.2705078125-.7109375-2.552734375-.9921875-3.841796875-.283203125-1.2890625-.6484375-2.5234375-1.087890625-3.703125-.38671875-.9609375-.833984375-1.5732421875-1.341796875-1.833984375-.5078125-.259765625-1.037109375-.283203125-1.580078125-.0673828125-.544921875.21484375-1.068359375.5732421875-1.568359375,1.0712890625-.501953125.4990234375-.986328125,1.017578125-1.4453125,1.55859375-1.376953125,1.5537109375-2.6484375,3.158203125-3.8125,4.81640625s-2.517578125,3.216796875-4.060546875,4.6708984375c-.416015625.2734375-1.001953125.4638671875-1.759765625.5732421875-.7578125.111328125-1.75-.009765625-2.98046875-.3623046875-1.232421875-.3505859375-2.615234375-.7451171875-4.15234375-1.1845703125-1.5390625-.4384765625-3.041015625-.95703125-4.50390625-1.556640625-1.373046875-.5830078125-2.458984375-1.2529296875-3.248046875-2.009765625-.791015625-.7578125-1.01171875-1.623046875-.658203125-2.5947265625.71875-2.0107421875,1.794921875-4.0986328125,3.232421875-6.2626953125,1.43359375-2.1611328125,3.150390625-4.20703125,5.14453125-6.134765625,1.994140625-1.9287109375,4.255859375-3.6708984375,6.787109375-5.232421875,2.529296875-1.55859375,5.337890625-2.7255859375,8.42578125-3.5,1.927734375-.4921875,3.982421875-.7724609375,6.162109375-.8427734375,2.177734375-.0693359375,4.29296875.1083984375,6.341796875.53125,2.048828125.4248046875,3.95703125,1.1171875,5.728515625,2.0791015625,1.76953125.9619140625,3.248046875,2.2685546875,4.439453125,3.921875,1.04296875,1.4208984375,1.837890625,2.955078125,2.3828125,4.599609375s.90625,3.275390625,1.087890625,4.8916015625c-.00390625.5517578125.080078125,1.25390625.255859375,2.111328125.173828125.8564453125.419921875,1.5712890625.736328125,2.1435546875.31640625.5712890625.724609375.8671875,1.23046875.884765625.501953125.01953125,1.087890625-.568359375,1.7578125-1.7626953125.65625-1.1259765625,1.1796875-2.5498046875,1.572265625-4.275390625.208984375-1.2041015625,1.0625-2.1416015625,2.5625-2.8115234375s3.025390625-.97265625,4.583984375-.9091796875c1.556640625.0634765625,3.197265625.17578125,4.921875.3369140625s3.2734375.533203125,4.650390625,1.1162109375Z"/>
  </g>
  <g>
    <path class="cls-3" d="M120.072265625,176.2421875c.619140625.896484375.962890625,1.8896484375,1.029296875,2.98046875.07421875.875-.1015625,1.9306640625-.529296875,3.1650390625-.431640625,1.236328125-1.322265625,2.4814453125-2.67578125,3.736328125-1.35546875,1.255859375-2.8203125,2.48046875-4.390625,3.6708984375-1.572265625,1.193359375-3.185546875,2.138671875-4.845703125,2.8369140625-1.66015625.6953125-3.3046875.958984375-4.93359375.7900390625-1.625-.1728515625-3.2265625-.9990234375-4.8046875-2.47265625-.845703125-.685546875-2.279296875-2.3193359375-4.3046875-4.904296875-2.0234375-2.5810546875-4.37890625-5.830078125-7.05859375-9.7470703125-1.34375-1.9013671875-2.763671875-3.9453125-4.2578125-6.1259765625-1.494140625-2.1826171875-3.072265625-4.3916015625-4.7265625-6.6357421875-3.400390625,3.4638671875-6.60546875,6.74609375-9.609375,9.841796875-3.0078125,3.0986328125-5.642578125,5.8017578125-7.908203125,8.1103515625-2.71875,2.7275390625-5.212890625,5.24609375-7.48046875,7.5537109375-.56640625.5244140625-1.234375.9326171875-2.0078125,1.23046875-.66015625.1904296875-1.423828125.2421875-2.291015625.1552734375-.87109375-.0888671875-1.884765625-.58984375-3.046875-1.5048828125-1.169921875-.8056640625-2.517578125-1.837890625-4.046875-3.0966796875-1.533203125-1.255859375-2.92578125-2.53515625-4.18359375-3.8359375-1.255859375-1.2998046875-2.162109375-2.560546875-2.712890625-3.7822265625-.552734375-1.2177734375-.482421875-2.3046875.20703125-3.2578125l29.025390625-32.5390625c-2.677734375-4.0244140625-5.14453125-7.8486328125-7.400390625-11.4765625-2.2578125-3.6240234375-4.2578125-6.8330078125-6.001953125-9.6240234375-1.9453125-3.232421875-3.73828125-6.2421875-5.37109375-9.0283203125-.51953125-.673828125-.818359375-1.392578125-.896484375-2.1591796875-.0859375-.65625.05078125-1.3583984375.40625-2.1083984375.357421875-.74609375,1.146484375-1.533203125,2.37890625-2.359375,1.228515625-.822265625,2.68359375-1.775390625,4.357421875-2.8544921875,1.67578125-1.078125,3.318359375-2.021484375,4.927734375-2.8330078125,1.609375-.80859375,3.099609375-1.322265625,4.470703125-1.54296875,1.369140625-.21875,2.41796875.12109375,3.146484375,1.01953125,2.78125,4.1376953125,5.56640625,8.193359375,8.35546875,12.166015625,2.7890625,3.974609375,5.576171875,7.974609375,8.359375,12.001953125l18.599609375-20.5224609375c.783203125-.6240234375,1.73046875-1.130859375,2.833984375-1.525390625.8828125-.2919921875,1.9765625-.3857421875,3.279296875-.2822265625,1.302734375.1064453125,2.693359375.67578125,4.181640625,1.712890625,1.59375,1.0419921875,3.18359375,2.193359375,4.767578125,3.451171875,1.5859375,1.2607421875,2.89453125,2.58984375,3.931640625,3.990234375,1.033203125,1.4033203125,1.65625,2.9228515625,1.8671875,4.564453125.205078125,1.642578125-.267578125,3.3671875-1.423828125,5.1728515625-.462890625.63671875-1.349609375,1.74609375-2.66015625,3.3291015625-1.31640625,1.583984375-2.9921875,3.4541015625-5.037109375,5.6064453125-2.04296875,2.1552734375-4.341796875,4.5712890625-6.89453125,7.25-2.5546875,2.6787109375-5.25,5.490234375-8.083984375,8.4296875,3.935546875,5.271484375,7.845703125,10.51171875,11.728515625,15.7255859375,3.884765625,5.21484375,7.79296875,10.4580078125,11.73046875,15.7275390625Z"/>
    <path class="cls-3" d="M122.26953125,57.9765625c2.681640625,1.0166015625,4.1796875,2.4814453125,4.494140625,4.396484375.3125,1.9150390625.162109375,3.8525390625-.455078125,5.8134765625-1.0390625,3.333984375-2.966796875,6.3427734375-5.783203125,9.0224609375-2.818359375,2.681640625-6.521484375,4.486328125-11.107421875,5.412109375-1.908203125.3583984375-3.859375.5712890625-5.853515625.638671875-1.99609375.0673828125-3.98046875-.052734375-5.955078125-.3603515625-1.9765625-.30859375-3.8671875-.8427734375-5.671875-1.6044921875-1.8046875-.759765625-3.42578125-1.7822265625-4.86328125-3.0654296875-.958984375-.8544921875-1.70703125-1.8623046875-2.2421875-3.0244140625-.5390625-1.1611328125-.99609375-2.3779296875-1.375-3.6494140625-.37890625-1.2705078125-.7109375-2.552734375-.9921875-3.841796875-.283203125-1.2890625-.6484375-2.5234375-1.087890625-3.703125-.38671875-.9609375-.833984375-1.5732421875-1.341796875-1.833984375-.5078125-.259765625-1.037109375-.283203125-1.580078125-.0673828125-.544921875.21484375-1.068359375.5732421875-1.568359375,1.0712890625-.501953125.4990234375-.986328125,1.017578125-1.4453125,1.55859375-1.376953125,1.5537109375-2.6484375,3.158203125-3.8125,4.81640625s-2.517578125,3.216796875-4.060546875,4.6708984375c-.416015625.2734375-1.001953125.4638671875-1.759765625.5732421875-.7578125.111328125-1.75-.009765625-2.98046875-.3623046875-1.232421875-.3505859375-2.615234375-.7451171875-4.15234375-1.1845703125-1.5390625-.4384765625-3.041015625-.95703125-4.50390625-1.556640625-1.373046875-.5830078125-2.458984375-1.2529296875-3.248046875-2.009765625-.791015625-.7578125-1.01171875-1.623046875-.658203125-2.5947265625.71875-2.0107421875,1.794921875-4.0986328125,3.232421875-6.2626953125,1.43359375-2.1611328125,3.150390625-4.20703125,5.14453125-6.134765625,1.994140625-1.9287109375,4.255859375-3.6708984375,6.787109375-5.232421875,2.529296875-1.55859375,5.337890625-2.7255859375,8.42578125-3.5,1.927734375-.4921875,3.982421875-.7724609375,6.162109375-.8427734375,2.177734375-.0693359375,4.29296875.1083984375,6.341796875.53125,2.048828125.4248046875,3.95703125,1.1171875,5.728515625,2.0791015625,1.76953125.9619140625,3.248046875,2.2685546875,4.439453125,3.921875,1.04296875,1.4208984375,1.837890625,2.955078125,2.3828125,4.599609375s.90625,3.275390625,1.087890625,4.8916015625c-.00390625.5517578125.080078125,1.25390625.255859375,2.111328125.173828125.8564453125.419921875,1.5712890625.736328125,2.1435546875.31640625.5712890625.724609375.8671875,1.23046875.884765625.501953125.01953125,1.087890625-.568359375,1.7578125-1.7626953125.65625-1.1259765625,1.1796875-2.5498046875,1.572265625-4.275390625.208984375-1.2041015625,1.0625-2.1416015625,2.5625-2.8115234375s3.025390625-.97265625,4.583984375-.9091796875c1.556640625.0634765625,3.197265625.17578125,4.921875.3369140625s3.2734375.533203125,4.650390625,1.1162109375Z"/>
  </g>
</svg>