<?xml version="1.0" encoding="UTF-8"?>
<svg id="Content" xmlns="http://www.w3.org/2000/svg" viewBox="0 0 280 280">
  <defs>
    <style>
      .cls-1 {
        stroke: #665451;
        stroke-width: 50px;
      }

      .cls-1, .cls-2 {
        fill: none;
        stroke-linecap: round;
        stroke-linejoin: round;
      }

      .cls-3 {
        fill: #fff;
      }

      .cls-2 {
        stroke: #998675;
        stroke-width: 2px;
      }
    </style>
  </defs>
  <g>
    <path d="M126.5322265625,164.61279296875c.7939453125.8095703125,1.322265625,1.767578125,1.5859375,2.873046875.23046875.8857421875.2373046875,1.99853515625.01953125,3.3408203125-.22265625,1.3447265625-.9140625,2.77978515625-2.080078125,4.30712890625-1.1669921875,1.5283203125-2.451171875,3.044921875-3.8486328125,4.54541015625-1.400390625,1.5029296875-2.8876953125,2.76025390625-4.4658203125,3.7705078125-1.5791015625,1.00927734375-3.21875,1.572265625-4.9169921875,1.68798828125-1.7001953125.1123046875-3.4892578125-.44873046875-5.369140625-1.6806640625-.9912109375-.552734375-2.7509765625-1.97265625-5.2861328125-4.2626953125-2.53515625-2.2880859375-5.52734375-5.2001953125-8.97265625-8.74072265625-1.716796875-1.7119140625-3.5361328125-3.55517578125-5.4560546875-5.52587890625-1.921875-1.97119140625-3.9326171875-3.95751953125-6.0283203125-5.96435546875-2.87109375,4.1572265625-5.57421875,8.09326171875-8.1044921875,11.80224609375-2.53125,3.7119140625-4.75390625,6.9541015625-6.66796875,9.72314453125-2.302734375,3.2822265625-4.412109375,6.30859375-6.326171875,9.0771484375-.48828125.63916015625-1.1005859375,1.1767578125-1.83984375,1.61865234375-.6435546875.31396484375-1.419921875.50341796875-2.3251953125.568359375-.90625.06298828125-2.037109375-.2705078125-3.390625-1.00244140625-1.3427734375-.61767578125-2.9091796875-1.4365234375-4.701171875-2.45556640625-1.794921875-1.01513671875-3.4501953125-2.0791015625-4.970703125-3.19091796875-1.521484375-1.1083984375-2.6748046875-2.23974609375-3.4560546875-3.39404296875-.783203125-1.1513671875-.9052734375-2.27880859375-.3671875-3.37939453125l23.9794921875-38.53271484375c-3.462890625-3.650390625-6.673828125-7.1328125-9.630859375-10.4521484375-2.9609375-3.3154296875-5.58203125-6.2509765625-7.8671875-8.802734375-2.5703125-2.96923828125-4.9423828125-5.7373046875-7.11328125-8.30419921875-.654296875-.59814453125-1.0888671875-1.28173828125-1.3046875-2.0537109375-.2041015625-.65869140625-.1884765625-1.40283203125.04296875-2.23486328125.232421875-.8291015625.9033203125-1.7763671875,2.01953125-2.841796875,1.11328125-1.06298828125,2.435546875-2.29833984375,3.9609375-3.703125,1.5263671875-1.40478515625,3.0419921875-2.6640625,4.55078125-3.78173828125,1.505859375-1.115234375,2.9423828125-1.90771484375,4.3095703125-2.37841796875,1.365234375-.466796875,2.5009765625-.30517578125,3.408203125.486328125,3.5888671875,3.7490234375,7.1669921875,7.41259765625,10.732421875,10.990234375,3.5654296875,3.580078125,7.134765625,7.1875,10.7080078125,10.82275390625l15.421875-24.35498046875c.693359375-.779296875,1.57421875-1.46728515625,2.6376953125-2.068359375.8525390625-.45703125,1.9560546875-.7470703125,3.3115234375-.8720703125,1.35546875-.123046875,2.8837890625.212890625,4.59375,1.01220703125,1.8193359375.78466796875,3.654296875,1.6826171875,5.50390625,2.69140625,1.849609375,1.01025390625,3.4287109375,2.14111328125,4.740234375,3.39306640625,1.3095703125,1.25439453125,2.21875,2.70263671875,2.7265625,4.3486328125.50390625,1.64697265625.32421875,3.5-.541015625,5.55859375-.3583984375.734375-1.0712890625,2.02978515625-2.1357421875,3.88720703125-1.06640625,1.857421875-2.4541015625,4.07373046875-4.166015625,6.64453125-1.712890625,2.5732421875-3.640625,5.45947265625-5.783203125,8.6611328125-2.1416015625,3.20166015625-4.4072265625,6.56494140625-6.791015625,10.0830078125,4.9736328125,4.70703125,9.9169921875,9.38525390625,14.826171875,14.04150390625,4.9111328125,4.65625,9.8515625,9.33837890625,14.8271484375,14.04248046875Z"/>
    <path d="M107.7509765625,42.95068359375c2.9306640625.56640625,4.728515625,1.80224609375,5.3916015625,3.7099609375.66015625,1.908203125.8505859375,3.921875.5673828125,6.0419921875-.474609375,3.60400390625-1.916015625,7.03271484375-4.328125,10.2822265625-2.4111328125,3.2509765625-5.8876953125,5.76025390625-10.427734375,7.52587890625-1.8935546875.70703125-3.85546875,1.27197265625-5.888671875,1.69580078125-2.03515625.42431640625-4.091796875.654296875-6.171875.68896484375-2.08203125.03662109375-4.1142578125-.17529296875-6.1005859375-.6357421875-1.986328125-.458984375-3.8310546875-1.21923828125-5.5341796875-2.27880859375-1.134765625-.70556640625-2.0810546875-1.60693359375-2.8369140625-2.703125-.7587890625-1.0947265625-1.443359375-2.2607421875-2.0576171875-3.498046875-.6162109375-1.23583984375-1.18359375-2.4912109375-1.703125-3.76318359375-.5205078125-1.27197265625-1.1123046875-2.47265625-1.7734375-3.60400390625-.5673828125-.91748046875-1.134765625-1.4658203125-1.7021484375-1.64306640625-.5673828125-.17529296875-1.11328125-.10595703125-1.6318359375.21240234375-.5205078125.31787109375-.9931640625.7783203125-1.4189453125,1.3779296875-.42578125.60107421875-.8291015625,1.21875-1.2060546875,1.85498046875-1.134765625,1.83837890625-2.15234375,3.7099609375-3.05078125,5.61767578125-.8994140625,1.908203125-2.0107421875,3.74658203125-3.333984375,5.51220703125-.37890625.3544921875-.9462890625.654296875-1.7021484375.90087890625-.7587890625.24853515625-1.7978515625.3017578125-3.1220703125.1591796875-1.3251953125-.140625-2.8154296875-.2998046875-4.46875-.47705078125-1.65625-.17578125-3.2880859375-.4404296875-4.8955078125-.794921875-1.513671875-.35302734375-2.744140625-.84814453125-3.6884765625-1.48388671875-.947265625-.63623046875-1.326171875-1.484375-1.1357421875-2.54443359375.376953125-2.189453125,1.111328125-4.521484375,2.19921875-6.99560546875,1.0869140625-2.47314453125,2.4833984375-4.8759765625,4.185546875-7.2080078125,1.703125-2.33203125,3.7119140625-4.521484375,6.0302734375-6.572265625,2.31640625-2.048828125,4.98828125-3.74462890625,8.0166015625-5.087890625,1.890625-.84814453125,3.9482421875-1.50048828125,6.171875-1.9609375,2.2216796875-.458984375,4.4208984375-.65283203125,6.59765625-.5830078125,2.1748046875.0712890625,4.2568359375.4423828125,6.2431640625,1.11279296875,1.986328125.67236328125,3.7353515625,1.7490234375,5.25,3.23291015625,1.3232421875,1.2724609375,2.4111328125,2.703125,3.2626953125,4.29345703125.8515625,1.58984375,1.51171875,3.19775390625,1.986328125,4.82275390625.09375.56640625.3056640625,1.27197265625.638671875,2.1201171875.330078125.84814453125.708984375,1.537109375,1.134765625,2.06689453125s.8984375.76025390625,1.4189453125.68896484375c.5185546875-.0693359375,1.015625-.77685546875,1.490234375-2.1201171875.4716796875-1.27197265625.755859375-2.8251953125.8505859375-4.6640625,0-1.27197265625.7099609375-2.384765625,2.12890625-3.3388671875s2.9306640625-1.537109375,4.5400390625-1.7490234375c1.607421875-.2119140625,3.3095703125-.38720703125,5.1083984375-.52978515625,1.794921875-.14111328125,3.451171875-.03466796875,4.9658203125.31787109375Z"/>
  </g>
  <g>
    <path class="cls-1" d="M126.5322265625,164.61279296875c.7939453125.8095703125,1.322265625,1.767578125,1.5859375,2.873046875.23046875.8857421875.2373046875,1.99853515625.01953125,3.3408203125-.22265625,1.3447265625-.9140625,2.77978515625-2.080078125,4.30712890625-1.1669921875,1.5283203125-2.451171875,3.044921875-3.8486328125,4.54541015625-1.400390625,1.5029296875-2.8876953125,2.76025390625-4.4658203125,3.7705078125-1.5791015625,1.00927734375-3.21875,1.572265625-4.9169921875,1.68798828125-1.7001953125.1123046875-3.4892578125-.44873046875-5.369140625-1.6806640625-.9912109375-.552734375-2.7509765625-1.97265625-5.2861328125-4.2626953125-2.53515625-2.2880859375-5.52734375-5.2001953125-8.97265625-8.74072265625-1.716796875-1.7119140625-3.5361328125-3.55517578125-5.4560546875-5.52587890625-1.921875-1.97119140625-3.9326171875-3.95751953125-6.0283203125-5.96435546875-2.87109375,4.1572265625-5.57421875,8.09326171875-8.1044921875,11.80224609375-2.53125,3.7119140625-4.75390625,6.9541015625-6.66796875,9.72314453125-2.302734375,3.2822265625-4.412109375,6.30859375-6.326171875,9.0771484375-.48828125.63916015625-1.1005859375,1.1767578125-1.83984375,1.61865234375-.6435546875.31396484375-1.419921875.50341796875-2.3251953125.568359375-.90625.06298828125-2.037109375-.2705078125-3.390625-1.00244140625-1.3427734375-.61767578125-2.9091796875-1.4365234375-4.701171875-2.45556640625-1.794921875-1.01513671875-3.4501953125-2.0791015625-4.970703125-3.19091796875-1.521484375-1.1083984375-2.6748046875-2.23974609375-3.4560546875-3.39404296875-.783203125-1.1513671875-.9052734375-2.27880859375-.3671875-3.37939453125l23.9794921875-38.53271484375c-3.462890625-3.650390625-6.673828125-7.1328125-9.630859375-10.4521484375-2.9609375-3.3154296875-5.58203125-6.2509765625-7.8671875-8.802734375-2.5703125-2.96923828125-4.9423828125-5.7373046875-7.11328125-8.30419921875-.654296875-.59814453125-1.0888671875-1.28173828125-1.3046875-2.0537109375-.2041015625-.65869140625-.1884765625-1.40283203125.04296875-2.23486328125.232421875-.8291015625.9033203125-1.7763671875,2.01953125-2.841796875,1.11328125-1.06298828125,2.435546875-2.29833984375,3.9609375-3.703125,1.5263671875-1.40478515625,3.0419921875-2.6640625,4.55078125-3.78173828125,1.505859375-1.115234375,2.9423828125-1.90771484375,4.3095703125-2.37841796875,1.365234375-.466796875,2.5009765625-.30517578125,3.408203125.486328125,3.5888671875,3.7490234375,7.1669921875,7.41259765625,10.732421875,10.990234375,3.5654296875,3.580078125,7.134765625,7.1875,10.7080078125,10.82275390625l15.421875-24.35498046875c.693359375-.779296875,1.57421875-1.46728515625,2.6376953125-2.068359375.8525390625-.45703125,1.9560546875-.7470703125,3.3115234375-.8720703125,1.35546875-.123046875,2.8837890625.212890625,4.59375,1.01220703125,1.8193359375.78466796875,3.654296875,1.6826171875,5.50390625,2.69140625,1.849609375,1.01025390625,3.4287109375,2.14111328125,4.740234375,3.39306640625,1.3095703125,1.25439453125,2.21875,2.70263671875,2.7265625,4.3486328125.50390625,1.64697265625.32421875,3.5-.541015625,5.55859375-.3583984375.734375-1.0712890625,2.02978515625-2.1357421875,3.88720703125-1.06640625,1.857421875-2.4541015625,4.07373046875-4.166015625,6.64453125-1.712890625,2.5732421875-3.640625,5.45947265625-5.783203125,8.6611328125-2.1416015625,3.20166015625-4.4072265625,6.56494140625-6.791015625,10.0830078125,4.9736328125,4.70703125,9.9169921875,9.38525390625,14.826171875,14.04150390625,4.9111328125,4.65625,9.8515625,9.33837890625,14.8271484375,14.04248046875Z"/>
    <path class="cls-1" d="M107.7509765625,42.95068359375c2.9306640625.56640625,4.728515625,1.80224609375,5.3916015625,3.7099609375.66015625,1.908203125.8505859375,3.921875.5673828125,6.0419921875-.474609375,3.60400390625-1.916015625,7.03271484375-4.328125,10.2822265625-2.4111328125,3.2509765625-5.8876953125,5.76025390625-10.427734375,7.52587890625-1.8935546875.70703125-3.85546875,1.27197265625-5.888671875,1.69580078125-2.03515625.42431640625-4.091796875.654296875-6.171875.68896484375-2.08203125.03662109375-4.1142578125-.17529296875-6.1005859375-.6357421875-1.986328125-.458984375-3.8310546875-1.21923828125-5.5341796875-2.27880859375-1.134765625-.70556640625-2.0810546875-1.60693359375-2.8369140625-2.703125-.7587890625-1.0947265625-1.443359375-2.2607421875-2.0576171875-3.498046875-.6162109375-1.23583984375-1.18359375-2.4912109375-1.703125-3.76318359375-.5205078125-1.27197265625-1.1123046875-2.47265625-1.7734375-3.60400390625-.5673828125-.91748046875-1.134765625-1.4658203125-1.7021484375-1.64306640625-.5673828125-.17529296875-1.11328125-.10595703125-1.6318359375.21240234375-.5205078125.31787109375-.9931640625.7783203125-1.4189453125,1.3779296875-.42578125.60107421875-.8291015625,1.21875-1.2060546875,1.85498046875-1.134765625,1.83837890625-2.15234375,3.7099609375-3.05078125,5.61767578125-.8994140625,1.908203125-2.0107421875,3.74658203125-3.333984375,5.51220703125-.37890625.3544921875-.9462890625.654296875-1.7021484375.90087890625-.7587890625.24853515625-1.7978515625.3017578125-3.1220703125.1591796875-1.3251953125-.140625-2.8154296875-.2998046875-4.46875-.47705078125-1.65625-.17578125-3.2880859375-.4404296875-4.8955078125-.794921875-1.513671875-.35302734375-2.744140625-.84814453125-3.6884765625-1.48388671875-.947265625-.63623046875-1.326171875-1.484375-1.1357421875-2.54443359375.376953125-2.189453125,1.111328125-4.521484375,2.19921875-6.99560546875,1.0869140625-2.47314453125,2.4833984375-4.8759765625,4.185546875-7.2080078125,1.703125-2.33203125,3.7119140625-4.521484375,6.0302734375-6.572265625,2.31640625-2.048828125,4.98828125-3.74462890625,8.0166015625-5.087890625,1.890625-.84814453125,3.9482421875-1.50048828125,6.171875-1.9609375,2.2216796875-.458984375,4.4208984375-.65283203125,6.59765625-.5830078125,2.1748046875.0712890625,4.2568359375.4423828125,6.2431640625,1.11279296875,1.986328125.67236328125,3.7353515625,1.7490234375,5.25,3.23291015625,1.3232421875,1.2724609375,2.4111328125,2.703125,3.2626953125,4.29345703125.8515625,1.58984375,1.51171875,3.19775390625,1.986328125,4.82275390625.09375.56640625.3056640625,1.27197265625.638671875,2.1201171875.330078125.84814453125.708984375,1.537109375,1.134765625,2.06689453125s.8984375.76025390625,1.4189453125.68896484375c.5185546875-.0693359375,1.015625-.77685546875,1.490234375-2.1201171875.4716796875-1.27197265625.755859375-2.8251953125.8505859375-4.6640625,0-1.27197265625.7099609375-2.384765625,2.12890625-3.3388671875s2.9306640625-1.537109375,4.5400390625-1.7490234375c1.607421875-.2119140625,3.3095703125-.38720703125,5.1083984375-.52978515625,1.794921875-.14111328125,3.451171875-.03466796875,4.9658203125.31787109375Z"/>
  </g>
  <g>
    <path class="cls-2" d="M126.5322265625,164.61279296875c.7939453125.8095703125,1.322265625,1.767578125,1.5859375,2.873046875.23046875.8857421875.2373046875,1.99853515625.01953125,3.3408203125-.22265625,1.3447265625-.9140625,2.77978515625-2.080078125,4.30712890625-1.1669921875,1.5283203125-2.451171875,3.044921875-3.8486328125,4.54541015625-1.400390625,1.5029296875-2.8876953125,2.76025390625-4.4658203125,3.7705078125-1.5791015625,1.00927734375-3.21875,1.572265625-4.9169921875,1.68798828125-1.7001953125.1123046875-3.4892578125-.44873046875-5.369140625-1.6806640625-.9912109375-.552734375-2.7509765625-1.97265625-5.2861328125-4.2626953125-2.53515625-2.2880859375-5.52734375-5.2001953125-8.97265625-8.74072265625-1.716796875-1.7119140625-3.5361328125-3.55517578125-5.4560546875-5.52587890625-1.921875-1.97119140625-3.9326171875-3.95751953125-6.0283203125-5.96435546875-2.87109375,4.1572265625-5.57421875,8.09326171875-8.1044921875,11.80224609375-2.53125,3.7119140625-4.75390625,6.9541015625-6.66796875,9.72314453125-2.302734375,3.2822265625-4.412109375,6.30859375-6.326171875,9.0771484375-.48828125.63916015625-1.1005859375,1.1767578125-1.83984375,1.61865234375-.6435546875.31396484375-1.419921875.50341796875-2.3251953125.568359375-.90625.06298828125-2.037109375-.2705078125-3.390625-1.00244140625-1.3427734375-.61767578125-2.9091796875-1.4365234375-4.701171875-2.45556640625-1.794921875-1.01513671875-3.4501953125-2.0791015625-4.970703125-3.19091796875-1.521484375-1.1083984375-2.6748046875-2.23974609375-3.4560546875-3.39404296875-.783203125-1.1513671875-.9052734375-2.27880859375-.3671875-3.37939453125l23.9794921875-38.53271484375c-3.462890625-3.650390625-6.673828125-7.1328125-9.630859375-10.4521484375-2.9609375-3.3154296875-5.58203125-6.2509765625-7.8671875-8.802734375-2.5703125-2.96923828125-4.9423828125-5.7373046875-7.11328125-8.30419921875-.654296875-.59814453125-1.0888671875-1.28173828125-1.3046875-2.0537109375-.2041015625-.65869140625-.1884765625-1.40283203125.04296875-2.23486328125.232421875-.8291015625.9033203125-1.7763671875,2.01953125-2.841796875,1.11328125-1.06298828125,2.435546875-2.29833984375,3.9609375-3.703125,1.5263671875-1.40478515625,3.0419921875-2.6640625,4.55078125-3.78173828125,1.505859375-1.115234375,2.9423828125-1.90771484375,4.3095703125-2.37841796875,1.365234375-.466796875,2.5009765625-.30517578125,3.408203125.486328125,3.5888671875,3.7490234375,7.1669921875,7.41259765625,10.732421875,10.990234375,3.5654296875,3.580078125,7.134765625,7.1875,10.7080078125,10.82275390625l15.421875-24.35498046875c.693359375-.779296875,1.57421875-1.46728515625,2.6376953125-2.068359375.8525390625-.45703125,1.9560546875-.7470703125,3.3115234375-.8720703125,1.35546875-.123046875,2.8837890625.212890625,4.59375,1.01220703125,1.8193359375.78466796875,3.654296875,1.6826171875,5.50390625,2.69140625,1.849609375,1.01025390625,3.4287109375,2.14111328125,4.740234375,3.39306640625,1.3095703125,1.25439453125,2.21875,2.70263671875,2.7265625,4.3486328125.50390625,1.64697265625.32421875,3.5-.541015625,5.55859375-.3583984375.734375-1.0712890625,2.02978515625-2.1357421875,3.88720703125-1.06640625,1.857421875-2.4541015625,4.07373046875-4.166015625,6.64453125-1.712890625,2.5732421875-3.640625,5.45947265625-5.783203125,8.6611328125-2.1416015625,3.20166015625-4.4072265625,6.56494140625-6.791015625,10.0830078125,4.9736328125,4.70703125,9.9169921875,9.38525390625,14.826171875,14.04150390625,4.9111328125,4.65625,9.8515625,9.33837890625,14.8271484375,14.04248046875Z"/>
    <path class="cls-2" d="M107.7509765625,42.95068359375c2.9306640625.56640625,4.728515625,1.80224609375,5.3916015625,3.7099609375.66015625,1.908203125.8505859375,3.921875.5673828125,6.0419921875-.474609375,3.60400390625-1.916015625,7.03271484375-4.328125,10.2822265625-2.4111328125,3.2509765625-5.8876953125,5.76025390625-10.427734375,7.52587890625-1.8935546875.70703125-3.85546875,1.27197265625-5.888671875,1.69580078125-2.03515625.42431640625-4.091796875.654296875-6.171875.68896484375-2.08203125.03662109375-4.1142578125-.17529296875-6.1005859375-.6357421875-1.986328125-.458984375-3.8310546875-1.21923828125-5.5341796875-2.27880859375-1.134765625-.70556640625-2.0810546875-1.60693359375-2.8369140625-2.703125-.7587890625-1.0947265625-1.443359375-2.2607421875-2.0576171875-3.498046875-.6162109375-1.23583984375-1.18359375-2.4912109375-1.703125-3.76318359375-.5205078125-1.27197265625-1.1123046875-2.47265625-1.7734375-3.60400390625-.5673828125-.91748046875-1.134765625-1.4658203125-1.7021484375-1.64306640625-.5673828125-.17529296875-1.11328125-.10595703125-1.6318359375.21240234375-.5205078125.31787109375-.9931640625.7783203125-1.4189453125,1.3779296875-.42578125.60107421875-.8291015625,1.21875-1.2060546875,1.85498046875-1.134765625,1.83837890625-2.15234375,3.7099609375-3.05078125,5.61767578125-.8994140625,1.908203125-2.0107421875,3.74658203125-3.333984375,5.51220703125-.37890625.3544921875-.9462890625.654296875-1.7021484375.90087890625-.7587890625.24853515625-1.7978515625.3017578125-3.1220703125.1591796875-1.3251953125-.140625-2.8154296875-.2998046875-4.46875-.47705078125-1.65625-.17578125-3.2880859375-.4404296875-4.8955078125-.794921875-1.513671875-.35302734375-2.744140625-.84814453125-3.6884765625-1.48388671875-.947265625-.63623046875-1.326171875-1.484375-1.1357421875-2.54443359375.376953125-2.189453125,1.111328125-4.521484375,2.19921875-6.99560546875,1.0869140625-2.47314453125,2.4833984375-4.8759765625,4.185546875-7.2080078125,1.703125-2.33203125,3.7119140625-4.521484375,6.0302734375-6.572265625,2.31640625-2.048828125,4.98828125-3.74462890625,8.0166015625-5.087890625,1.890625-.84814453125,3.9482421875-1.50048828125,6.171875-1.9609375,2.2216796875-.458984375,4.4208984375-.65283203125,6.59765625-.5830078125,2.1748046875.0712890625,4.2568359375.4423828125,6.2431640625,1.11279296875,1.986328125.67236328125,3.7353515625,1.7490234375,5.25,3.23291015625,1.3232421875,1.2724609375,2.4111328125,2.703125,3.2626953125,4.29345703125.8515625,1.58984375,1.51171875,3.19775390625,1.986328125,4.82275390625.09375.56640625.3056640625,1.27197265625.638671875,2.1201171875.330078125.84814453125.708984375,1.537109375,1.134765625,2.06689453125s.8984375.76025390625,1.4189453125.68896484375c.5185546875-.0693359375,1.015625-.77685546875,1.490234375-2.1201171875.4716796875-1.27197265625.755859375-2.8251953125.8505859375-4.6640625,0-1.27197265625.7099609375-2.384765625,2.12890625-3.3388671875s2.9306640625-1.537109375,4.5400390625-1.7490234375c1.607421875-.2119140625,3.3095703125-.38720703125,5.1083984375-.52978515625,1.794921875-.14111328125,3.451171875-.03466796875,4.9658203125.31787109375Z"/>
  </g>
  <g>
    <path class="cls-3" d="M126.5322265625,164.61279296875c.7939453125.8095703125,1.322265625,1.767578125,1.5859375,2.873046875.23046875.8857421875.2373046875,1.99853515625.01953125,3.3408203125-.22265625,1.3447265625-.9140625,2.77978515625-2.080078125,4.30712890625-1.1669921875,1.5283203125-2.451171875,3.044921875-3.8486328125,4.54541015625-1.400390625,1.5029296875-2.8876953125,2.76025390625-4.4658203125,3.7705078125-1.5791015625,1.00927734375-3.21875,1.572265625-4.9169921875,1.68798828125-1.7001953125.1123046875-3.4892578125-.44873046875-5.369140625-1.6806640625-.9912109375-.552734375-2.7509765625-1.97265625-5.2861328125-4.2626953125-2.53515625-2.2880859375-5.52734375-5.2001953125-8.97265625-8.74072265625-1.716796875-1.7119140625-3.5361328125-3.55517578125-5.4560546875-5.52587890625-1.921875-1.97119140625-3.9326171875-3.95751953125-6.0283203125-5.96435546875-2.87109375,4.1572265625-5.57421875,8.09326171875-8.1044921875,11.80224609375-2.53125,3.7119140625-4.75390625,6.9541015625-6.66796875,9.72314453125-2.302734375,3.2822265625-4.412109375,6.30859375-6.326171875,9.0771484375-.48828125.63916015625-1.1005859375,1.1767578125-1.83984375,1.61865234375-.6435546875.31396484375-1.419921875.50341796875-2.3251953125.568359375-.90625.06298828125-2.037109375-.2705078125-3.390625-1.00244140625-1.3427734375-.61767578125-2.9091796875-1.4365234375-4.701171875-2.45556640625-1.794921875-1.01513671875-3.4501953125-2.0791015625-4.970703125-3.19091796875-1.521484375-1.1083984375-2.6748046875-2.23974609375-3.4560546875-3.39404296875-.783203125-1.1513671875-.9052734375-2.27880859375-.3671875-3.37939453125l23.9794921875-38.53271484375c-3.462890625-3.650390625-6.673828125-7.1328125-9.630859375-10.4521484375-2.9609375-3.3154296875-5.58203125-6.2509765625-7.8671875-8.802734375-2.5703125-2.96923828125-4.9423828125-5.7373046875-7.11328125-8.30419921875-.654296875-.59814453125-1.0888671875-1.28173828125-1.3046875-2.0537109375-.2041015625-.65869140625-.1884765625-1.40283203125.04296875-2.23486328125.232421875-.8291015625.9033203125-1.7763671875,2.01953125-2.841796875,1.11328125-1.06298828125,2.435546875-2.29833984375,3.9609375-3.703125,1.5263671875-1.40478515625,3.0419921875-2.6640625,4.55078125-3.78173828125,1.505859375-1.115234375,2.9423828125-1.90771484375,4.3095703125-2.37841796875,1.365234375-.466796875,2.5009765625-.30517578125,3.408203125.486328125,3.5888671875,3.7490234375,7.1669921875,7.41259765625,10.732421875,10.990234375,3.5654296875,3.580078125,7.134765625,7.1875,10.7080078125,10.82275390625l15.421875-24.35498046875c.693359375-.779296875,1.57421875-1.46728515625,2.6376953125-2.068359375.8525390625-.45703125,1.9560546875-.7470703125,3.3115234375-.8720703125,1.35546875-.123046875,2.8837890625.212890625,4.59375,1.01220703125,1.8193359375.78466796875,3.654296875,1.6826171875,5.50390625,2.69140625,1.849609375,1.01025390625,3.4287109375,2.14111328125,4.740234375,3.39306640625,1.3095703125,1.25439453125,2.21875,2.70263671875,2.7265625,4.3486328125.50390625,1.64697265625.32421875,3.5-.541015625,5.55859375-.3583984375.734375-1.0712890625,2.02978515625-2.1357421875,3.88720703125-1.06640625,1.857421875-2.4541015625,4.07373046875-4.166015625,6.64453125-1.712890625,2.5732421875-3.640625,5.45947265625-5.783203125,8.6611328125-2.1416015625,3.20166015625-4.4072265625,6.56494140625-6.791015625,10.0830078125,4.9736328125,4.70703125,9.9169921875,9.38525390625,14.826171875,14.04150390625,4.9111328125,4.65625,9.8515625,9.33837890625,14.8271484375,14.04248046875Z"/>
    <path class="cls-3" d="M107.7509765625,42.95068359375c2.9306640625.56640625,4.728515625,1.80224609375,5.3916015625,3.7099609375.66015625,1.908203125.8505859375,3.921875.5673828125,6.0419921875-.474609375,3.60400390625-1.916015625,7.03271484375-4.328125,10.2822265625-2.4111328125,3.2509765625-5.8876953125,5.76025390625-10.427734375,7.52587890625-1.8935546875.70703125-3.85546875,1.27197265625-5.888671875,1.69580078125-2.03515625.42431640625-4.091796875.654296875-6.171875.68896484375-2.08203125.03662109375-4.1142578125-.17529296875-6.1005859375-.6357421875-1.986328125-.458984375-3.8310546875-1.21923828125-5.5341796875-2.27880859375-1.134765625-.70556640625-2.0810546875-1.60693359375-2.8369140625-2.703125-.7587890625-1.0947265625-1.443359375-2.2607421875-2.0576171875-3.498046875-.6162109375-1.23583984375-1.18359375-2.4912109375-1.703125-3.76318359375-.5205078125-1.27197265625-1.1123046875-2.47265625-1.7734375-3.60400390625-.5673828125-.91748046875-1.134765625-1.4658203125-1.7021484375-1.64306640625-.5673828125-.17529296875-1.11328125-.10595703125-1.6318359375.21240234375-.5205078125.31787109375-.9931640625.7783203125-1.4189453125,1.3779296875-.42578125.60107421875-.8291015625,1.21875-1.2060546875,1.85498046875-1.134765625,1.83837890625-2.15234375,3.7099609375-3.05078125,5.61767578125-.8994140625,1.908203125-2.0107421875,3.74658203125-3.333984375,5.51220703125-.37890625.3544921875-.9462890625.654296875-1.7021484375.90087890625-.7587890625.24853515625-1.7978515625.3017578125-3.1220703125.1591796875-1.3251953125-.140625-2.8154296875-.2998046875-4.46875-.47705078125-1.65625-.17578125-3.2880859375-.4404296875-4.8955078125-.794921875-1.513671875-.35302734375-2.744140625-.84814453125-3.6884765625-1.48388671875-.947265625-.63623046875-1.326171875-1.484375-1.1357421875-2.54443359375.376953125-2.189453125,1.111328125-4.521484375,2.19921875-6.99560546875,1.0869140625-2.47314453125,2.4833984375-4.8759765625,4.185546875-7.2080078125,1.703125-2.33203125,3.7119140625-4.521484375,6.0302734375-6.572265625,2.31640625-2.048828125,4.98828125-3.74462890625,8.0166015625-5.087890625,1.890625-.84814453125,3.9482421875-1.50048828125,6.171875-1.9609375,2.2216796875-.458984375,4.4208984375-.65283203125,6.59765625-.5830078125,2.1748046875.0712890625,4.2568359375.4423828125,6.2431640625,1.11279296875,1.986328125.67236328125,3.7353515625,1.7490234375,5.25,3.23291015625,1.3232421875,1.2724609375,2.4111328125,2.703125,3.2626953125,4.29345703125.8515625,1.58984375,1.51171875,3.19775390625,1.986328125,4.82275390625.09375.56640625.3056640625,1.27197265625.638671875,2.1201171875.330078125.84814453125.708984375,1.537109375,1.134765625,2.06689453125s.8984375.76025390625,1.4189453125.68896484375c.5185546875-.0693359375,1.015625-.77685546875,1.490234375-2.1201171875.4716796875-1.27197265625.755859375-2.8251953125.8505859375-4.6640625,0-1.27197265625.7099609375-2.384765625,2.12890625-3.3388671875s2.9306640625-1.537109375,4.5400390625-1.7490234375c1.607421875-.2119140625,3.3095703125-.38720703125,5.1083984375-.52978515625,1.794921875-.14111328125,3.451171875-.03466796875,4.9658203125.31787109375Z"/>
  </g>
</svg>