<?xml version="1.0" encoding="UTF-8"?>
<svg id="Content" xmlns="http://www.w3.org/2000/svg" xmlns:xlink="http://www.w3.org/1999/xlink" viewBox="0 0 280 280">
  <defs>
    <style>
      .cls-1 {
        stroke: #665451;
        stroke-width: 50px;
      }

      .cls-1, .cls-2 {
        fill: none;
        stroke-linecap: round;
        stroke-linejoin: round;
      }

      .cls-3 {
        fill: #fff;
      }

      .cls-2 {
        stroke: #998675;
        stroke-width: 2px;
      }
    </style>
  </defs>
  <a xlink:href="https://www.notion.so/congruence/Sample-correlation-coefficient-d3d17eb14c1d49a9b4227f842360db90?pvs=4">
    <g>
      <path class="cls-1" d="M167.7587890625,103.953125c-.28125,3.501953125-1.083984375,6.734375-2.41015625,9.697265625-1.328125,2.962890625-3.0927734375,5.400390625-5.2939453125,7.3125-2.201171875,1.91015625-4.8798828125,3.1953125-8.033203125,3.8515625-3.15625.66015625-6.6875.373046875-10.591796875-.85546875-3.2978515625-1.21484375-5.046875-3.166015625-5.2529296875-5.853515625-.2099609375-2.6875.26953125-5.560546875,1.4345703125-8.62109375,1.34375-3.880859375,2.25390625-7.1796875,2.7314453125-9.90234375.5625-3.68359375-.109375-6.07421875-2.0166015625-7.169921875-1.9091796875-1.09375-4.3251953125-.859375-7.25.708984375-2.9248046875,1.56640625-5.931640625,4.623046875-9.017578125,9.1640625-3.0908203125,4.54296875-5.46875,10.62109375-7.1435546875,18.23828125l-8.2099609375,39.837890625c-.4951171875,1.12109375-1.123046875,2.02734375-1.8876953125,2.716796875-.7685546875.69140625-1.7724609375,1.208984375-3.0126953125,1.548828125-1.2431640625.33984375-2.884765625.408203125-4.9287109375.205078125-2.16015625-.23046875-4.33203125-.5546875-6.51171875-.970703125-2.181640625-.419921875-4.171875-1.009765625-5.966796875-1.7734375-1.798828125-.763671875-3.2705078125-1.76171875-4.4091796875-2.99609375-1.142578125-1.234375-1.7294921875-2.896484375-1.7568359375-4.994140625-.0302734375-.98828125.279296875-2.947265625.923828125-5.876953125.64453125-2.927734375,1.4580078125-6.498046875,2.4453125-10.703125.986328125-4.205078125,2.0986328125-8.84375,3.337890625-13.9140625,1.236328125-5.072265625,2.5400390625-10.158203125,3.91015625-15.263671875,3.12109375-11.96484375,6.646484375-25.193359375,10.5712890625-39.6875.0380859375-.728515625.3544921875-1.33203125.953125-1.818359375.455078125-.388671875,1.10546875-.705078125,1.9599609375-.94921875.8515625-.2421875,2.1083984375-.2421875,3.77734375,0,1.546875.220703125,3.412109375.5390625,5.5947265625.955078125,2.1787109375.41796875,4.2236328125.900390625,6.1318359375,1.44140625,1.908203125.54296875,3.513671875,1.203125,4.8154296875,1.98046875,1.3037109375.77734375,1.896484375,1.70703125,1.783203125,2.787109375l-.55859375,3.37890625c4.4580078125-1.84375,9.2783203125-2.810546875,14.45703125-2.90234375,5.1787109375-.0859375,10.1455078125,1.06640625,14.90234375,3.462890625,5.6142578125,2.95703125,9.572265625,6.744140625,11.873046875,11.365234375,2.2998046875,4.62109375,3.1826171875,9.8203125,2.6494140625,15.599609375Z"/>
      <path class="cls-2" d="M167.7587890625,103.953125c-.28125,3.501953125-1.083984375,6.734375-2.41015625,9.697265625-1.328125,2.962890625-3.0927734375,5.400390625-5.2939453125,7.3125-2.201171875,1.91015625-4.8798828125,3.1953125-8.033203125,3.8515625-3.15625.66015625-6.6875.373046875-10.591796875-.85546875-3.2978515625-1.21484375-5.046875-3.166015625-5.2529296875-5.853515625-.2099609375-2.6875.26953125-5.560546875,1.4345703125-8.62109375,1.34375-3.880859375,2.25390625-7.1796875,2.7314453125-9.90234375.5625-3.68359375-.109375-6.07421875-2.0166015625-7.169921875-1.9091796875-1.09375-4.3251953125-.859375-7.25.708984375-2.9248046875,1.56640625-5.931640625,4.623046875-9.017578125,9.1640625-3.0908203125,4.54296875-5.46875,10.62109375-7.1435546875,18.23828125l-8.2099609375,39.837890625c-.4951171875,1.12109375-1.123046875,2.02734375-1.8876953125,2.716796875-.7685546875.69140625-1.7724609375,1.208984375-3.0126953125,1.548828125-1.2431640625.33984375-2.884765625.408203125-4.9287109375.205078125-2.16015625-.23046875-4.33203125-.5546875-6.51171875-.970703125-2.181640625-.419921875-4.171875-1.009765625-5.966796875-1.7734375-1.798828125-.763671875-3.2705078125-1.76171875-4.4091796875-2.99609375-1.142578125-1.234375-1.7294921875-2.896484375-1.7568359375-4.994140625-.0302734375-.98828125.279296875-2.947265625.923828125-5.876953125.64453125-2.927734375,1.4580078125-6.498046875,2.4453125-10.703125.986328125-4.205078125,2.0986328125-8.84375,3.337890625-13.9140625,1.236328125-5.072265625,2.5400390625-10.158203125,3.91015625-15.263671875,3.12109375-11.96484375,6.646484375-25.193359375,10.5712890625-39.6875.0380859375-.728515625.3544921875-1.33203125.953125-1.818359375.455078125-.388671875,1.10546875-.705078125,1.9599609375-.94921875.8515625-.2421875,2.1083984375-.2421875,3.77734375,0,1.546875.220703125,3.412109375.5390625,5.5947265625.955078125,2.1787109375.41796875,4.2236328125.900390625,6.1318359375,1.44140625,1.908203125.54296875,3.513671875,1.203125,4.8154296875,1.98046875,1.3037109375.77734375,1.896484375,1.70703125,1.783203125,2.787109375l-.55859375,3.37890625c4.4580078125-1.84375,9.2783203125-2.810546875,14.45703125-2.90234375,5.1787109375-.0859375,10.1455078125,1.06640625,14.90234375,3.462890625,5.6142578125,2.95703125,9.572265625,6.744140625,11.873046875,11.365234375,2.2998046875,4.62109375,3.1826171875,9.8203125,2.6494140625,15.599609375Z"/>
      <path class="cls-3" d="M167.7587890625,103.953125c-.28125,3.501953125-1.083984375,6.734375-2.41015625,9.697265625-1.328125,2.962890625-3.0927734375,5.400390625-5.2939453125,7.3125-2.201171875,1.91015625-4.8798828125,3.1953125-8.033203125,3.8515625-3.15625.66015625-6.6875.373046875-10.591796875-.85546875-3.2978515625-1.21484375-5.046875-3.166015625-5.2529296875-5.853515625-.2099609375-2.6875.26953125-5.560546875,1.4345703125-8.62109375,1.34375-3.880859375,2.25390625-7.1796875,2.7314453125-9.90234375.5625-3.68359375-.109375-6.07421875-2.0166015625-7.169921875-1.9091796875-1.09375-4.3251953125-.859375-7.25.708984375-2.9248046875,1.56640625-5.931640625,4.623046875-9.017578125,9.1640625-3.0908203125,4.54296875-5.46875,10.62109375-7.1435546875,18.23828125l-8.2099609375,39.837890625c-.4951171875,1.12109375-1.123046875,2.02734375-1.8876953125,2.716796875-.7685546875.69140625-1.7724609375,1.208984375-3.0126953125,1.548828125-1.2431640625.33984375-2.884765625.408203125-4.9287109375.205078125-2.16015625-.23046875-4.33203125-.5546875-6.51171875-.970703125-2.181640625-.419921875-4.171875-1.009765625-5.966796875-1.7734375-1.798828125-.763671875-3.2705078125-1.76171875-4.4091796875-2.99609375-1.142578125-1.234375-1.7294921875-2.896484375-1.7568359375-4.994140625-.0302734375-.98828125.279296875-2.947265625.923828125-5.876953125.64453125-2.927734375,1.4580078125-6.498046875,2.4453125-10.703125.986328125-4.205078125,2.0986328125-8.84375,3.337890625-13.9140625,1.236328125-5.072265625,2.5400390625-10.158203125,3.91015625-15.263671875,3.12109375-11.96484375,6.646484375-25.193359375,10.5712890625-39.6875.0380859375-.728515625.3544921875-1.33203125.953125-1.818359375.455078125-.388671875,1.10546875-.705078125,1.9599609375-.94921875.8515625-.2421875,2.1083984375-.2421875,3.77734375,0,1.546875.220703125,3.412109375.5390625,5.5947265625.955078125,2.1787109375.41796875,4.2236328125.900390625,6.1318359375,1.44140625,1.908203125.54296875,3.513671875,1.203125,4.8154296875,1.98046875,1.3037109375.77734375,1.896484375,1.70703125,1.783203125,2.787109375l-.55859375,3.37890625c4.4580078125-1.84375,9.2783203125-2.810546875,14.45703125-2.90234375,5.1787109375-.0859375,10.1455078125,1.06640625,14.90234375,3.462890625,5.6142578125,2.95703125,9.572265625,6.744140625,11.873046875,11.365234375,2.2998046875,4.62109375,3.1826171875,9.8203125,2.6494140625,15.599609375Z"/>
    </g>
  </a>
</svg>