<?xml version="1.0" encoding="UTF-8"?>
<svg id="Content" xmlns="http://www.w3.org/2000/svg" xmlns:xlink="http://www.w3.org/1999/xlink" viewBox="0 0 280 280">
  <defs>
    <style>
      .cls-1 {
        stroke: #665451;
        stroke-width: 50px;
      }

      .cls-1, .cls-2 {
        fill: none;
        stroke-linecap: round;
        stroke-linejoin: round;
      }

      .cls-3 {
        fill: #fff;
      }

      .cls-2 {
        stroke: #998675;
        stroke-width: 2px;
      }
    </style>
  </defs>
  <a xlink:href="https://www.notion.so/congruence/Sample-correlation-coefficient-d3d17eb14c1d49a9b4227f842360db90?pvs=4">
    <g>
      <path class="cls-1" d="M126.396484375,115.697265625c-.28125,3.5029296875-1.083984375,6.7353515625-2.41015625,9.6982421875-1.328125,2.962890625-3.0927734375,5.3994140625-5.2939453125,7.3115234375-2.201171875,1.9111328125-4.8798828125,3.1953125-8.033203125,3.8525390625-3.15625.6591796875-6.6875.3720703125-10.591796875-.85546875-3.2978515625-1.21484375-5.046875-3.166015625-5.2529296875-5.853515625-.2099609375-2.6875.26953125-5.5615234375,1.4345703125-8.6220703125,1.34375-3.8798828125,2.25390625-7.1796875,2.7314453125-9.90234375.5625-3.6826171875-.109375-6.0732421875-2.0166015625-7.169921875-1.9091796875-1.09375-4.3251953125-.8583984375-7.25.708984375s-5.931640625,4.623046875-9.017578125,9.1650390625c-3.0908203125,4.54296875-5.46875,10.62109375-7.1435546875,18.2373046875l-8.2099609375,39.8388671875c-.4951171875,1.1201171875-1.123046875,2.02734375-1.8876953125,2.716796875-.7685546875.69140625-1.7724609375,1.208984375-3.0126953125,1.548828125-1.2431640625.33984375-2.884765625.4072265625-4.9287109375.205078125-2.16015625-.23046875-4.33203125-.5546875-6.51171875-.970703125-2.181640625-.419921875-4.171875-1.009765625-5.966796875-1.7734375-1.798828125-.763671875-3.2705078125-1.76171875-4.4091796875-2.9970703125-1.142578125-1.2333984375-1.7294921875-2.896484375-1.7568359375-4.9931640625-.0302734375-.98828125.279296875-2.947265625.923828125-5.876953125.64453125-2.927734375,1.4580078125-6.498046875,2.4453125-10.703125.986328125-4.205078125,2.0986328125-8.84375,3.337890625-13.9140625,1.236328125-5.0732421875,2.5400390625-10.1591796875,3.91015625-15.263671875,3.12109375-11.96484375,6.646484375-25.193359375,10.5712890625-39.6884765625.0380859375-.728515625.3544921875-1.33203125.953125-1.8173828125.455078125-.388671875,1.10546875-.7060546875,1.9599609375-.9501953125.8515625-.2421875,2.1083984375-.2412109375,3.77734375.0009765625,1.546875.2197265625,3.412109375.5380859375,5.5947265625.955078125,2.1787109375.41796875,4.2236328125.900390625,6.1318359375,1.4404296875,1.908203125.5439453125,3.513671875,1.2041015625,4.8154296875,1.98046875,1.3037109375.7783203125,1.896484375,1.70703125,1.783203125,2.7880859375l-.55859375,3.3779296875c4.4580078125-1.84375,9.2783203125-2.810546875,14.45703125-2.9013671875,5.1787109375-.0869140625,10.1455078125,1.06640625,14.90234375,3.462890625,5.6142578125,2.9560546875,9.572265625,6.744140625,11.873046875,11.3642578125,2.2998046875,4.6220703125,3.1826171875,9.8212890625,2.6494140625,15.599609375Z"/>
      <path class="cls-2" d="M126.396484375,115.697265625c-.28125,3.5029296875-1.083984375,6.7353515625-2.41015625,9.6982421875-1.328125,2.962890625-3.0927734375,5.3994140625-5.2939453125,7.3115234375-2.201171875,1.9111328125-4.8798828125,3.1953125-8.033203125,3.8525390625-3.15625.6591796875-6.6875.3720703125-10.591796875-.85546875-3.2978515625-1.21484375-5.046875-3.166015625-5.2529296875-5.853515625-.2099609375-2.6875.26953125-5.5615234375,1.4345703125-8.6220703125,1.34375-3.8798828125,2.25390625-7.1796875,2.7314453125-9.90234375.5625-3.6826171875-.109375-6.0732421875-2.0166015625-7.169921875-1.9091796875-1.09375-4.3251953125-.8583984375-7.25.708984375s-5.931640625,4.623046875-9.017578125,9.1650390625c-3.0908203125,4.54296875-5.46875,10.62109375-7.1435546875,18.2373046875l-8.2099609375,39.8388671875c-.4951171875,1.1201171875-1.123046875,2.02734375-1.8876953125,2.716796875-.7685546875.69140625-1.7724609375,1.208984375-3.0126953125,1.548828125-1.2431640625.33984375-2.884765625.4072265625-4.9287109375.205078125-2.16015625-.23046875-4.33203125-.5546875-6.51171875-.970703125-2.181640625-.419921875-4.171875-1.009765625-5.966796875-1.7734375-1.798828125-.763671875-3.2705078125-1.76171875-4.4091796875-2.9970703125-1.142578125-1.2333984375-1.7294921875-2.896484375-1.7568359375-4.9931640625-.0302734375-.98828125.279296875-2.947265625.923828125-5.876953125.64453125-2.927734375,1.4580078125-6.498046875,2.4453125-10.703125.986328125-4.205078125,2.0986328125-8.84375,3.337890625-13.9140625,1.236328125-5.0732421875,2.5400390625-10.1591796875,3.91015625-15.263671875,3.12109375-11.96484375,6.646484375-25.193359375,10.5712890625-39.6884765625.0380859375-.728515625.3544921875-1.33203125.953125-1.8173828125.455078125-.388671875,1.10546875-.7060546875,1.9599609375-.9501953125.8515625-.2421875,2.1083984375-.2412109375,3.77734375.0009765625,1.546875.2197265625,3.412109375.5380859375,5.5947265625.955078125,2.1787109375.41796875,4.2236328125.900390625,6.1318359375,1.4404296875,1.908203125.5439453125,3.513671875,1.2041015625,4.8154296875,1.98046875,1.3037109375.7783203125,1.896484375,1.70703125,1.783203125,2.7880859375l-.55859375,3.3779296875c4.4580078125-1.84375,9.2783203125-2.810546875,14.45703125-2.9013671875,5.1787109375-.0869140625,10.1455078125,1.06640625,14.90234375,3.462890625,5.6142578125,2.9560546875,9.572265625,6.744140625,11.873046875,11.3642578125,2.2998046875,4.6220703125,3.1826171875,9.8212890625,2.6494140625,15.599609375Z"/>
      <path class="cls-3" d="M126.396484375,115.697265625c-.28125,3.5029296875-1.083984375,6.7353515625-2.41015625,9.6982421875-1.328125,2.962890625-3.0927734375,5.3994140625-5.2939453125,7.3115234375-2.201171875,1.9111328125-4.8798828125,3.1953125-8.033203125,3.8525390625-3.15625.6591796875-6.6875.3720703125-10.591796875-.85546875-3.2978515625-1.21484375-5.046875-3.166015625-5.2529296875-5.853515625-.2099609375-2.6875.26953125-5.5615234375,1.4345703125-8.6220703125,1.34375-3.8798828125,2.25390625-7.1796875,2.7314453125-9.90234375.5625-3.6826171875-.109375-6.0732421875-2.0166015625-7.169921875-1.9091796875-1.09375-4.3251953125-.8583984375-7.25.708984375s-5.931640625,4.623046875-9.017578125,9.1650390625c-3.0908203125,4.54296875-5.46875,10.62109375-7.1435546875,18.2373046875l-8.2099609375,39.8388671875c-.4951171875,1.1201171875-1.123046875,2.02734375-1.8876953125,2.716796875-.7685546875.69140625-1.7724609375,1.208984375-3.0126953125,1.548828125-1.2431640625.33984375-2.884765625.4072265625-4.9287109375.205078125-2.16015625-.23046875-4.33203125-.5546875-6.51171875-.970703125-2.181640625-.419921875-4.171875-1.009765625-5.966796875-1.7734375-1.798828125-.763671875-3.2705078125-1.76171875-4.4091796875-2.9970703125-1.142578125-1.2333984375-1.7294921875-2.896484375-1.7568359375-4.9931640625-.0302734375-.98828125.279296875-2.947265625.923828125-5.876953125.64453125-2.927734375,1.4580078125-6.498046875,2.4453125-10.703125.986328125-4.205078125,2.0986328125-8.84375,3.337890625-13.9140625,1.236328125-5.0732421875,2.5400390625-10.1591796875,3.91015625-15.263671875,3.12109375-11.96484375,6.646484375-25.193359375,10.5712890625-39.6884765625.0380859375-.728515625.3544921875-1.33203125.953125-1.8173828125.455078125-.388671875,1.10546875-.7060546875,1.9599609375-.9501953125.8515625-.2421875,2.1083984375-.2412109375,3.77734375.0009765625,1.546875.2197265625,3.412109375.5380859375,5.5947265625.955078125,2.1787109375.41796875,4.2236328125.900390625,6.1318359375,1.4404296875,1.908203125.5439453125,3.513671875,1.2041015625,4.8154296875,1.98046875,1.3037109375.7783203125,1.896484375,1.70703125,1.783203125,2.7880859375l-.55859375,3.3779296875c4.4580078125-1.84375,9.2783203125-2.810546875,14.45703125-2.9013671875,5.1787109375-.0869140625,10.1455078125,1.06640625,14.90234375,3.462890625,5.6142578125,2.9560546875,9.572265625,6.744140625,11.873046875,11.3642578125,2.2998046875,4.6220703125,3.1826171875,9.8212890625,2.6494140625,15.599609375Z"/>
    </g>
  </a>
</svg>