<?xml version="1.0" encoding="UTF-8"?>
<svg id="Content" xmlns="http://www.w3.org/2000/svg" viewBox="0 0 280 280">
  <defs>
    <style>
      .cls-1 {
        stroke: #665451;
        stroke-width: 50px;
      }

      .cls-1, .cls-2 {
        fill: none;
        stroke-linecap: round;
        stroke-linejoin: round;
      }

      .cls-3 {
        fill: #fff;
      }

      .cls-2 {
        stroke: #998675;
        stroke-width: 2px;
      }
    </style>
  </defs>
  <g>
    <path d="M120.083984375,176.2578125c.6171875.896484375.9609375,1.8896484375,1.02734375,2.98046875.07421875.875-.1015625,1.9306640625-.529296875,3.1650390625-.431640625,1.236328125-1.3203125,2.4814453125-2.67578125,3.7353515625-1.35546875,1.255859375-2.818359375,2.48046875-4.388671875,3.6708984375-1.572265625,1.193359375-3.1875,2.1396484375-4.84765625,2.8369140625-1.66015625.6962890625-3.3046875.958984375-4.931640625.7900390625-1.626953125-.1728515625-3.228515625-.9970703125-4.806640625-2.47265625-.845703125-.6845703125-2.279296875-2.318359375-4.302734375-4.90234375-2.025390625-2.58203125-4.37890625-5.830078125-7.05859375-9.748046875-1.34375-1.9013671875-2.763671875-3.9443359375-4.2578125-6.1259765625-1.49609375-2.181640625-3.072265625-4.3916015625-4.7265625-6.6357421875-3.40234375,3.462890625-6.607421875,6.74609375-9.611328125,9.841796875-3.005859375,3.09765625-5.642578125,5.802734375-7.908203125,8.109375-2.71875,2.728515625-5.212890625,5.2470703125-7.478515625,7.5537109375-.568359375.525390625-1.236328125.9326171875-2.0078125,1.23046875-.66015625.1923828125-1.42578125.244140625-2.29296875.15625-.869140625-.0888671875-1.884765625-.5908203125-3.046875-1.505859375-1.16796875-.8046875-2.517578125-1.8369140625-4.046875-3.095703125-1.53125-1.2568359375-2.92578125-2.53515625-4.181640625-3.8369140625-1.2578125-1.298828125-2.1640625-2.5595703125-2.71484375-3.7802734375-.552734375-1.21875-.482421875-2.3056640625.208984375-3.259765625l29.0234375-32.5390625c-2.677734375-4.0234375-5.14453125-7.84765625-7.400390625-11.4755859375-2.2578125-3.6240234375-4.2578125-6.8330078125-6-9.6240234375-1.947265625-3.2333984375-3.73828125-6.2421875-5.373046875-9.029296875-.51953125-.673828125-.818359375-1.3916015625-.896484375-2.158203125-.083984375-.65625.052734375-1.3583984375.408203125-2.1083984375.35546875-.74609375,1.146484375-1.533203125,2.37890625-2.359375,1.228515625-.8232421875,2.681640625-1.775390625,4.357421875-2.8544921875s3.31640625-2.021484375,4.927734375-2.8330078125c1.609375-.80859375,3.099609375-1.3232421875,4.470703125-1.54296875,1.369140625-.21875,2.41796875.12109375,3.146484375,1.01953125,2.78125,4.1376953125,5.56640625,8.193359375,8.35546875,12.166015625,2.787109375,3.974609375,5.57421875,7.974609375,8.359375,12.001953125l18.59765625-20.5224609375c.783203125-.6240234375,1.73046875-1.130859375,2.833984375-1.525390625.8828125-.2919921875,1.9765625-.3857421875,3.279296875-.2822265625,1.302734375.1064453125,2.6953125.67578125,4.181640625,1.712890625,1.59375,1.0419921875,3.18359375,2.193359375,4.76953125,3.451171875,1.583984375,1.2607421875,2.89453125,2.58984375,3.931640625,3.990234375,1.033203125,1.40234375,1.65625,2.9228515625,1.865234375,4.564453125.20703125,1.642578125-.267578125,3.3671875-1.423828125,5.1728515625-.4609375.63671875-1.349609375,1.74609375-2.66015625,3.3291015625-1.314453125,1.5830078125-2.9921875,3.4541015625-5.03515625,5.6064453125-2.044921875,2.1552734375-4.341796875,4.5703125-6.896484375,7.2490234375-2.552734375,2.6796875-5.25,5.4912109375-8.083984375,8.4306640625,3.935546875,5.271484375,7.84765625,10.51171875,11.728515625,15.7255859375,3.884765625,5.2158203125,7.79296875,10.4580078125,11.732421875,15.7275390625Z"/>
    <path d="M122.28125,58.0068359375c2.6796875,1.017578125,4.1796875,2.4814453125,4.494140625,4.3974609375.310546875,1.9140625.162109375,3.8515625-.45703125,5.8115234375-1.0390625,3.333984375-2.966796875,6.34375-5.783203125,9.0234375-2.81640625,2.681640625-6.51953125,4.486328125-11.107421875,5.412109375-1.908203125.3583984375-3.859375.5712890625-5.853515625.638671875s-3.98046875-.052734375-5.955078125-.361328125c-1.9765625-.3076171875-3.865234375-.841796875-5.669921875-1.603515625-1.8046875-.759765625-3.427734375-1.7822265625-4.865234375-3.0654296875-.958984375-.8544921875-1.705078125-1.8623046875-2.2421875-3.0244140625-.537109375-1.1611328125-.994140625-2.3779296875-1.373046875-3.6494140625-.37890625-1.2705078125-.7109375-2.552734375-.994140625-3.841796875s-.6484375-2.5234375-1.087890625-3.703125c-.384765625-.9609375-.83203125-1.5732421875-1.33984375-1.8349609375-.509765625-.2587890625-1.037109375-.2822265625-1.580078125-.06640625-.544921875.21484375-1.068359375.5732421875-1.5703125,1.0712890625-.501953125.4990234375-.984375,1.017578125-1.4453125,1.5576171875-1.376953125,1.5546875-2.646484375,3.1591796875-3.810546875,4.8173828125-1.166015625,1.658203125-2.51953125,3.216796875-4.060546875,4.6708984375-.41796875.2734375-1.00390625.4638671875-1.759765625.5732421875-.759765625.1103515625-1.751953125-.009765625-2.982421875-.3623046875-1.23046875-.3505859375-2.615234375-.74609375-4.15234375-1.185546875-1.537109375-.4375-3.0390625-.9560546875-4.501953125-1.5556640625-1.375-.5830078125-2.458984375-1.2529296875-3.25-2.0107421875-.791015625-.7568359375-1.009765625-1.6220703125-.65625-2.59375.716796875-2.01171875,1.794921875-4.0986328125,3.23046875-6.2626953125,1.435546875-2.1611328125,3.15234375-4.2080078125,5.146484375-6.1357421875s4.255859375-3.6708984375,6.787109375-5.2314453125c2.529296875-1.5595703125,5.3359375-2.7255859375,8.423828125-3.5,1.9296875-.4921875,3.984375-.7724609375,6.1640625-.8427734375,2.177734375-.0703125,4.29296875.107421875,6.341796875.53125,2.046875.423828125,3.95703125,1.1171875,5.7265625,2.078125,1.76953125.962890625,3.25,2.26953125,4.439453125,3.9228515625,1.044921875,1.4208984375,1.83984375,2.9541015625,2.384765625,4.599609375.54296875,1.64453125.90625,3.275390625,1.087890625,4.8916015625-.00390625.55078125.080078125,1.25390625.255859375,2.111328125.173828125.857421875.419921875,1.5712890625.734375,2.142578125.31640625.572265625.7265625.8671875,1.23046875.8857421875.501953125.01953125,1.08984375-.568359375,1.759765625-1.7626953125.654296875-1.126953125,1.177734375-2.5498046875,1.5703125-4.275390625.208984375-1.2041015625,1.064453125-2.140625,2.5625-2.810546875,1.5-.669921875,3.02734375-.974609375,4.5859375-.91015625,1.556640625.0625,3.197265625.17578125,4.921875.3359375,1.724609375.162109375,3.2734375.5341796875,4.650390625,1.1171875Z"/>
  </g>
  <g>
    <path class="cls-1" d="M120.083984375,176.2578125c.6171875.896484375.9609375,1.8896484375,1.02734375,2.98046875.07421875.875-.1015625,1.9306640625-.529296875,3.1650390625-.431640625,1.236328125-1.3203125,2.4814453125-2.67578125,3.7353515625-1.35546875,1.255859375-2.818359375,2.48046875-4.388671875,3.6708984375-1.572265625,1.193359375-3.1875,2.1396484375-4.84765625,2.8369140625-1.66015625.6962890625-3.3046875.958984375-4.931640625.7900390625-1.626953125-.1728515625-3.228515625-.9970703125-4.806640625-2.47265625-.845703125-.6845703125-2.279296875-2.318359375-4.302734375-4.90234375-2.025390625-2.58203125-4.37890625-5.830078125-7.05859375-9.748046875-1.34375-1.9013671875-2.763671875-3.9443359375-4.2578125-6.1259765625-1.49609375-2.181640625-3.072265625-4.3916015625-4.7265625-6.6357421875-3.40234375,3.462890625-6.607421875,6.74609375-9.611328125,9.841796875-3.005859375,3.09765625-5.642578125,5.802734375-7.908203125,8.109375-2.71875,2.728515625-5.212890625,5.2470703125-7.478515625,7.5537109375-.568359375.525390625-1.236328125.9326171875-2.0078125,1.23046875-.66015625.1923828125-1.42578125.244140625-2.29296875.15625-.869140625-.0888671875-1.884765625-.5908203125-3.046875-1.505859375-1.16796875-.8046875-2.517578125-1.8369140625-4.046875-3.095703125-1.53125-1.2568359375-2.92578125-2.53515625-4.181640625-3.8369140625-1.2578125-1.298828125-2.1640625-2.5595703125-2.71484375-3.7802734375-.552734375-1.21875-.482421875-2.3056640625.208984375-3.259765625l29.0234375-32.5390625c-2.677734375-4.0234375-5.14453125-7.84765625-7.400390625-11.4755859375-2.2578125-3.6240234375-4.2578125-6.8330078125-6-9.6240234375-1.947265625-3.2333984375-3.73828125-6.2421875-5.373046875-9.029296875-.51953125-.673828125-.818359375-1.3916015625-.896484375-2.158203125-.083984375-.65625.052734375-1.3583984375.408203125-2.1083984375.35546875-.74609375,1.146484375-1.533203125,2.37890625-2.359375,1.228515625-.8232421875,2.681640625-1.775390625,4.357421875-2.8544921875s3.31640625-2.021484375,4.927734375-2.8330078125c1.609375-.80859375,3.099609375-1.3232421875,4.470703125-1.54296875,1.369140625-.21875,2.41796875.12109375,3.146484375,1.01953125,2.78125,4.1376953125,5.56640625,8.193359375,8.35546875,12.166015625,2.787109375,3.974609375,5.57421875,7.974609375,8.359375,12.001953125l18.59765625-20.5224609375c.783203125-.6240234375,1.73046875-1.130859375,2.833984375-1.525390625.8828125-.2919921875,1.9765625-.3857421875,3.279296875-.2822265625,1.302734375.1064453125,2.6953125.67578125,4.181640625,1.712890625,1.59375,1.0419921875,3.18359375,2.193359375,4.76953125,3.451171875,1.583984375,1.2607421875,2.89453125,2.58984375,3.931640625,3.990234375,1.033203125,1.40234375,1.65625,2.9228515625,1.865234375,4.564453125.20703125,1.642578125-.267578125,3.3671875-1.423828125,5.1728515625-.4609375.63671875-1.349609375,1.74609375-2.66015625,3.3291015625-1.314453125,1.5830078125-2.9921875,3.4541015625-5.03515625,5.6064453125-2.044921875,2.1552734375-4.341796875,4.5703125-6.896484375,7.2490234375-2.552734375,2.6796875-5.25,5.4912109375-8.083984375,8.4306640625,3.935546875,5.271484375,7.84765625,10.51171875,11.728515625,15.7255859375,3.884765625,5.2158203125,7.79296875,10.4580078125,11.732421875,15.7275390625Z"/>
    <path class="cls-1" d="M122.28125,58.0068359375c2.6796875,1.017578125,4.1796875,2.4814453125,4.494140625,4.3974609375.310546875,1.9140625.162109375,3.8515625-.45703125,5.8115234375-1.0390625,3.333984375-2.966796875,6.34375-5.783203125,9.0234375-2.81640625,2.681640625-6.51953125,4.486328125-11.107421875,5.412109375-1.908203125.3583984375-3.859375.5712890625-5.853515625.638671875s-3.98046875-.052734375-5.955078125-.361328125c-1.9765625-.3076171875-3.865234375-.841796875-5.669921875-1.603515625-1.8046875-.759765625-3.427734375-1.7822265625-4.865234375-3.0654296875-.958984375-.8544921875-1.705078125-1.8623046875-2.2421875-3.0244140625-.537109375-1.1611328125-.994140625-2.3779296875-1.373046875-3.6494140625-.37890625-1.2705078125-.7109375-2.552734375-.994140625-3.841796875s-.6484375-2.5234375-1.087890625-3.703125c-.384765625-.9609375-.83203125-1.5732421875-1.33984375-1.8349609375-.509765625-.2587890625-1.037109375-.2822265625-1.580078125-.06640625-.544921875.21484375-1.068359375.5732421875-1.5703125,1.0712890625-.501953125.4990234375-.984375,1.017578125-1.4453125,1.5576171875-1.376953125,1.5546875-2.646484375,3.1591796875-3.810546875,4.8173828125-1.166015625,1.658203125-2.51953125,3.216796875-4.060546875,4.6708984375-.41796875.2734375-1.00390625.4638671875-1.759765625.5732421875-.759765625.1103515625-1.751953125-.009765625-2.982421875-.3623046875-1.23046875-.3505859375-2.615234375-.74609375-4.15234375-1.185546875-1.537109375-.4375-3.0390625-.9560546875-4.501953125-1.5556640625-1.375-.5830078125-2.458984375-1.2529296875-3.25-2.0107421875-.791015625-.7568359375-1.009765625-1.6220703125-.65625-2.59375.716796875-2.01171875,1.794921875-4.0986328125,3.23046875-6.2626953125,1.435546875-2.1611328125,3.15234375-4.2080078125,5.146484375-6.1357421875s4.255859375-3.6708984375,6.787109375-5.2314453125c2.529296875-1.5595703125,5.3359375-2.7255859375,8.423828125-3.5,1.9296875-.4921875,3.984375-.7724609375,6.1640625-.8427734375,2.177734375-.0703125,4.29296875.107421875,6.341796875.53125,2.046875.423828125,3.95703125,1.1171875,5.7265625,2.078125,1.76953125.962890625,3.25,2.26953125,4.439453125,3.9228515625,1.044921875,1.4208984375,1.83984375,2.9541015625,2.384765625,4.599609375.54296875,1.64453125.90625,3.275390625,1.087890625,4.8916015625-.00390625.55078125.080078125,1.25390625.255859375,2.111328125.173828125.857421875.419921875,1.5712890625.734375,2.142578125.31640625.572265625.7265625.8671875,1.23046875.8857421875.501953125.01953125,1.08984375-.568359375,1.759765625-1.7626953125.654296875-1.126953125,1.177734375-2.5498046875,1.5703125-4.275390625.208984375-1.2041015625,1.064453125-2.140625,2.5625-2.810546875,1.5-.669921875,3.02734375-.974609375,4.5859375-.91015625,1.556640625.0625,3.197265625.17578125,4.921875.3359375,1.724609375.162109375,3.2734375.5341796875,4.650390625,1.1171875Z"/>
  </g>
  <g>
    <path class="cls-2" d="M120.083984375,176.2578125c.6171875.896484375.9609375,1.8896484375,1.02734375,2.98046875.07421875.875-.1015625,1.9306640625-.529296875,3.1650390625-.431640625,1.236328125-1.3203125,2.4814453125-2.67578125,3.7353515625-1.35546875,1.255859375-2.818359375,2.48046875-4.388671875,3.6708984375-1.572265625,1.193359375-3.1875,2.1396484375-4.84765625,2.8369140625-1.66015625.6962890625-3.3046875.958984375-4.931640625.7900390625-1.626953125-.1728515625-3.228515625-.9970703125-4.806640625-2.47265625-.845703125-.6845703125-2.279296875-2.318359375-4.302734375-4.90234375-2.025390625-2.58203125-4.37890625-5.830078125-7.05859375-9.748046875-1.34375-1.9013671875-2.763671875-3.9443359375-4.2578125-6.1259765625-1.49609375-2.181640625-3.072265625-4.3916015625-4.7265625-6.6357421875-3.40234375,3.462890625-6.607421875,6.74609375-9.611328125,9.841796875-3.005859375,3.09765625-5.642578125,5.802734375-7.908203125,8.109375-2.71875,2.728515625-5.212890625,5.2470703125-7.478515625,7.5537109375-.568359375.525390625-1.236328125.9326171875-2.0078125,1.23046875-.66015625.1923828125-1.42578125.244140625-2.29296875.15625-.869140625-.0888671875-1.884765625-.5908203125-3.046875-1.505859375-1.16796875-.8046875-2.517578125-1.8369140625-4.046875-3.095703125-1.53125-1.2568359375-2.92578125-2.53515625-4.181640625-3.8369140625-1.2578125-1.298828125-2.1640625-2.5595703125-2.71484375-3.7802734375-.552734375-1.21875-.482421875-2.3056640625.208984375-3.259765625l29.0234375-32.5390625c-2.677734375-4.0234375-5.14453125-7.84765625-7.400390625-11.4755859375-2.2578125-3.6240234375-4.2578125-6.8330078125-6-9.6240234375-1.947265625-3.2333984375-3.73828125-6.2421875-5.373046875-9.029296875-.51953125-.673828125-.818359375-1.3916015625-.896484375-2.158203125-.083984375-.65625.052734375-1.3583984375.408203125-2.1083984375.35546875-.74609375,1.146484375-1.533203125,2.37890625-2.359375,1.228515625-.8232421875,2.681640625-1.775390625,4.357421875-2.8544921875s3.31640625-2.021484375,4.927734375-2.8330078125c1.609375-.80859375,3.099609375-1.3232421875,4.470703125-1.54296875,1.369140625-.21875,2.41796875.12109375,3.146484375,1.01953125,2.78125,4.1376953125,5.56640625,8.193359375,8.35546875,12.166015625,2.787109375,3.974609375,5.57421875,7.974609375,8.359375,12.001953125l18.59765625-20.5224609375c.783203125-.6240234375,1.73046875-1.130859375,2.833984375-1.525390625.8828125-.2919921875,1.9765625-.3857421875,3.279296875-.2822265625,1.302734375.1064453125,2.6953125.67578125,4.181640625,1.712890625,1.59375,1.0419921875,3.18359375,2.193359375,4.76953125,3.451171875,1.583984375,1.2607421875,2.89453125,2.58984375,3.931640625,3.990234375,1.033203125,1.40234375,1.65625,2.9228515625,1.865234375,4.564453125.20703125,1.642578125-.267578125,3.3671875-1.423828125,5.1728515625-.4609375.63671875-1.349609375,1.74609375-2.66015625,3.3291015625-1.314453125,1.5830078125-2.9921875,3.4541015625-5.03515625,5.6064453125-2.044921875,2.1552734375-4.341796875,4.5703125-6.896484375,7.2490234375-2.552734375,2.6796875-5.25,5.4912109375-8.083984375,8.4306640625,3.935546875,5.271484375,7.84765625,10.51171875,11.728515625,15.7255859375,3.884765625,5.2158203125,7.79296875,10.4580078125,11.732421875,15.7275390625Z"/>
    <path class="cls-2" d="M122.28125,58.0068359375c2.6796875,1.017578125,4.1796875,2.4814453125,4.494140625,4.3974609375.310546875,1.9140625.162109375,3.8515625-.45703125,5.8115234375-1.0390625,3.333984375-2.966796875,6.34375-5.783203125,9.0234375-2.81640625,2.681640625-6.51953125,4.486328125-11.107421875,5.412109375-1.908203125.3583984375-3.859375.5712890625-5.853515625.638671875s-3.98046875-.052734375-5.955078125-.361328125c-1.9765625-.3076171875-3.865234375-.841796875-5.669921875-1.603515625-1.8046875-.759765625-3.427734375-1.7822265625-4.865234375-3.0654296875-.958984375-.8544921875-1.705078125-1.8623046875-2.2421875-3.0244140625-.537109375-1.1611328125-.994140625-2.3779296875-1.373046875-3.6494140625-.37890625-1.2705078125-.7109375-2.552734375-.994140625-3.841796875s-.6484375-2.5234375-1.087890625-3.703125c-.384765625-.9609375-.83203125-1.5732421875-1.33984375-1.8349609375-.509765625-.2587890625-1.037109375-.2822265625-1.580078125-.06640625-.544921875.21484375-1.068359375.5732421875-1.5703125,1.0712890625-.501953125.4990234375-.984375,1.017578125-1.4453125,1.5576171875-1.376953125,1.5546875-2.646484375,3.1591796875-3.810546875,4.8173828125-1.166015625,1.658203125-2.51953125,3.216796875-4.060546875,4.6708984375-.41796875.2734375-1.00390625.4638671875-1.759765625.5732421875-.759765625.1103515625-1.751953125-.009765625-2.982421875-.3623046875-1.23046875-.3505859375-2.615234375-.74609375-4.15234375-1.185546875-1.537109375-.4375-3.0390625-.9560546875-4.501953125-1.5556640625-1.375-.5830078125-2.458984375-1.2529296875-3.25-2.0107421875-.791015625-.7568359375-1.009765625-1.6220703125-.65625-2.59375.716796875-2.01171875,1.794921875-4.0986328125,3.23046875-6.2626953125,1.435546875-2.1611328125,3.15234375-4.2080078125,5.146484375-6.1357421875s4.255859375-3.6708984375,6.787109375-5.2314453125c2.529296875-1.5595703125,5.3359375-2.7255859375,8.423828125-3.5,1.9296875-.4921875,3.984375-.7724609375,6.1640625-.8427734375,2.177734375-.0703125,4.29296875.107421875,6.341796875.53125,2.046875.423828125,3.95703125,1.1171875,5.7265625,2.078125,1.76953125.962890625,3.25,2.26953125,4.439453125,3.9228515625,1.044921875,1.4208984375,1.83984375,2.9541015625,2.384765625,4.599609375.54296875,1.64453125.90625,3.275390625,1.087890625,4.8916015625-.00390625.55078125.080078125,1.25390625.255859375,2.111328125.173828125.857421875.419921875,1.5712890625.734375,2.142578125.31640625.572265625.7265625.8671875,1.23046875.8857421875.501953125.01953125,1.08984375-.568359375,1.759765625-1.7626953125.654296875-1.126953125,1.177734375-2.5498046875,1.5703125-4.275390625.208984375-1.2041015625,1.064453125-2.140625,2.5625-2.810546875,1.5-.669921875,3.02734375-.974609375,4.5859375-.91015625,1.556640625.0625,3.197265625.17578125,4.921875.3359375,1.724609375.162109375,3.2734375.5341796875,4.650390625,1.1171875Z"/>
  </g>
  <g>
    <path class="cls-3" d="M120.083984375,176.2578125c.6171875.896484375.9609375,1.8896484375,1.02734375,2.98046875.07421875.875-.1015625,1.9306640625-.529296875,3.1650390625-.431640625,1.236328125-1.3203125,2.4814453125-2.67578125,3.7353515625-1.35546875,1.255859375-2.818359375,2.48046875-4.388671875,3.6708984375-1.572265625,1.193359375-3.1875,2.1396484375-4.84765625,2.8369140625-1.66015625.6962890625-3.3046875.958984375-4.931640625.7900390625-1.626953125-.1728515625-3.228515625-.9970703125-4.806640625-2.47265625-.845703125-.6845703125-2.279296875-2.318359375-4.302734375-4.90234375-2.025390625-2.58203125-4.37890625-5.830078125-7.05859375-9.748046875-1.34375-1.9013671875-2.763671875-3.9443359375-4.2578125-6.1259765625-1.49609375-2.181640625-3.072265625-4.3916015625-4.7265625-6.6357421875-3.40234375,3.462890625-6.607421875,6.74609375-9.611328125,9.841796875-3.005859375,3.09765625-5.642578125,5.802734375-7.908203125,8.109375-2.71875,2.728515625-5.212890625,5.2470703125-7.478515625,7.5537109375-.568359375.525390625-1.236328125.9326171875-2.0078125,1.23046875-.66015625.1923828125-1.42578125.244140625-2.29296875.15625-.869140625-.0888671875-1.884765625-.5908203125-3.046875-1.505859375-1.16796875-.8046875-2.517578125-1.8369140625-4.046875-3.095703125-1.53125-1.2568359375-2.92578125-2.53515625-4.181640625-3.8369140625-1.2578125-1.298828125-2.1640625-2.5595703125-2.71484375-3.7802734375-.552734375-1.21875-.482421875-2.3056640625.208984375-3.259765625l29.0234375-32.5390625c-2.677734375-4.0234375-5.14453125-7.84765625-7.400390625-11.4755859375-2.2578125-3.6240234375-4.2578125-6.8330078125-6-9.6240234375-1.947265625-3.2333984375-3.73828125-6.2421875-5.373046875-9.029296875-.51953125-.673828125-.818359375-1.3916015625-.896484375-2.158203125-.083984375-.65625.052734375-1.3583984375.408203125-2.1083984375.35546875-.74609375,1.146484375-1.533203125,2.37890625-2.359375,1.228515625-.8232421875,2.681640625-1.775390625,4.357421875-2.8544921875s3.31640625-2.021484375,4.927734375-2.8330078125c1.609375-.80859375,3.099609375-1.3232421875,4.470703125-1.54296875,1.369140625-.21875,2.41796875.12109375,3.146484375,1.01953125,2.78125,4.1376953125,5.56640625,8.193359375,8.35546875,12.166015625,2.787109375,3.974609375,5.57421875,7.974609375,8.359375,12.001953125l18.59765625-20.5224609375c.783203125-.6240234375,1.73046875-1.130859375,2.833984375-1.525390625.8828125-.2919921875,1.9765625-.3857421875,3.279296875-.2822265625,1.302734375.1064453125,2.6953125.67578125,4.181640625,1.712890625,1.59375,1.0419921875,3.18359375,2.193359375,4.76953125,3.451171875,1.583984375,1.2607421875,2.89453125,2.58984375,3.931640625,3.990234375,1.033203125,1.40234375,1.65625,2.9228515625,1.865234375,4.564453125.20703125,1.642578125-.267578125,3.3671875-1.423828125,5.1728515625-.4609375.63671875-1.349609375,1.74609375-2.66015625,3.3291015625-1.314453125,1.5830078125-2.9921875,3.4541015625-5.03515625,5.6064453125-2.044921875,2.1552734375-4.341796875,4.5703125-6.896484375,7.2490234375-2.552734375,2.6796875-5.25,5.4912109375-8.083984375,8.4306640625,3.935546875,5.271484375,7.84765625,10.51171875,11.728515625,15.7255859375,3.884765625,5.2158203125,7.79296875,10.4580078125,11.732421875,15.7275390625Z"/>
    <path class="cls-3" d="M122.28125,58.0068359375c2.6796875,1.017578125,4.1796875,2.4814453125,4.494140625,4.3974609375.310546875,1.9140625.162109375,3.8515625-.45703125,5.8115234375-1.0390625,3.333984375-2.966796875,6.34375-5.783203125,9.0234375-2.81640625,2.681640625-6.51953125,4.486328125-11.107421875,5.412109375-1.908203125.3583984375-3.859375.5712890625-5.853515625.638671875s-3.98046875-.052734375-5.955078125-.361328125c-1.9765625-.3076171875-3.865234375-.841796875-5.669921875-1.603515625-1.8046875-.759765625-3.427734375-1.7822265625-4.865234375-3.0654296875-.958984375-.8544921875-1.705078125-1.8623046875-2.2421875-3.0244140625-.537109375-1.1611328125-.994140625-2.3779296875-1.373046875-3.6494140625-.37890625-1.2705078125-.7109375-2.552734375-.994140625-3.841796875s-.6484375-2.5234375-1.087890625-3.703125c-.384765625-.9609375-.83203125-1.5732421875-1.33984375-1.8349609375-.509765625-.2587890625-1.037109375-.2822265625-1.580078125-.06640625-.544921875.21484375-1.068359375.5732421875-1.5703125,1.0712890625-.501953125.4990234375-.984375,1.017578125-1.4453125,1.5576171875-1.376953125,1.5546875-2.646484375,3.1591796875-3.810546875,4.8173828125-1.166015625,1.658203125-2.51953125,3.216796875-4.060546875,4.6708984375-.41796875.2734375-1.00390625.4638671875-1.759765625.5732421875-.759765625.1103515625-1.751953125-.009765625-2.982421875-.3623046875-1.23046875-.3505859375-2.615234375-.74609375-4.15234375-1.185546875-1.537109375-.4375-3.0390625-.9560546875-4.501953125-1.5556640625-1.375-.5830078125-2.458984375-1.2529296875-3.25-2.0107421875-.791015625-.7568359375-1.009765625-1.6220703125-.65625-2.59375.716796875-2.01171875,1.794921875-4.0986328125,3.23046875-6.2626953125,1.435546875-2.1611328125,3.15234375-4.2080078125,5.146484375-6.1357421875s4.255859375-3.6708984375,6.787109375-5.2314453125c2.529296875-1.5595703125,5.3359375-2.7255859375,8.423828125-3.5,1.9296875-.4921875,3.984375-.7724609375,6.1640625-.8427734375,2.177734375-.0703125,4.29296875.107421875,6.341796875.53125,2.046875.423828125,3.95703125,1.1171875,5.7265625,2.078125,1.76953125.962890625,3.25,2.26953125,4.439453125,3.9228515625,1.044921875,1.4208984375,1.83984375,2.9541015625,2.384765625,4.599609375.54296875,1.64453125.90625,3.275390625,1.087890625,4.8916015625-.00390625.55078125.080078125,1.25390625.255859375,2.111328125.173828125.857421875.419921875,1.5712890625.734375,2.142578125.31640625.572265625.7265625.8671875,1.23046875.8857421875.501953125.01953125,1.08984375-.568359375,1.759765625-1.7626953125.654296875-1.126953125,1.177734375-2.5498046875,1.5703125-4.275390625.208984375-1.2041015625,1.064453125-2.140625,2.5625-2.810546875,1.5-.669921875,3.02734375-.974609375,4.5859375-.91015625,1.556640625.0625,3.197265625.17578125,4.921875.3359375,1.724609375.162109375,3.2734375.5341796875,4.650390625,1.1171875Z"/>
  </g>
</svg>