<?xml version="1.0" encoding="UTF-8"?>
<svg id="Content" xmlns="http://www.w3.org/2000/svg" xmlns:xlink="http://www.w3.org/1999/xlink" viewBox="0 0 280 280">
  <defs>
    <style>
      .cls-1 {
        stroke: #665451;
        stroke-width: 50px;
      }

      .cls-1, .cls-2 {
        fill: none;
        stroke-linecap: round;
        stroke-linejoin: round;
      }

      .cls-3 {
        fill: #fff;
      }

      .cls-2 {
        stroke: #998675;
        stroke-width: 2px;
      }
    </style>
  </defs>
  <a xlink:href="https://www.notion.so/congruence/Sample-standard-deviation-69368bb2ec044a2fa122e17e4f5a99b2?pvs=4">
    <g>
      <path class="cls-1" d="M105.949462890625,95.19140625c.42236328125-3.64697265625-.14892578125-6.708984375-1.710205078125-9.18505859375-1.56494140625-2.47314453125-3.56005859375-4.40673828125-5.98583984375-5.796875-2.428955078125-1.39111328125-5.06103515625-2.28515625-7.898681640625-2.6904296875-2.838134765625-.4013671875-5.25048828125-.34765625-7.23046875.16162109375-2.585205078125.58837890625-4.31640625,1.49755859375-5.197265625,2.7265625-.88427734375,1.22900390625-1.1845703125,2.56396484375-.9072265625,4.00048828125.277099609375,1.43994140625.925537109375,2.84619140625,1.9521484375,4.22021484375,1.02294921875,1.376953125,2.22265625,2.513671875,3.59912109375,3.412109375,1.650146484375,1.07861328125,3.51513671875,2.220703125,5.594970703125,3.421875,2.079345703125,1.20458984375,4.096923828125,2.28759765625,6.058349609375,3.2529296875,1.95751953125.96923828125,3.701171875,1.87158203125,5.233154296875,2.71435546875,1.528564453125.8427734375,2.707275390625,1.5341796875,3.5322265625,2.0732421875,5.532470703125,3.3037109375,10.293212890625,7.2216796875,14.282958984375,11.75048828125,3.986083984375,4.5322265625,6.915283203125,9.56591796875,8.79052734375,15.10888671875,1.7412109375,5.3818359375,2.36279296875,10.55712890625,1.86328125,15.5263671875-.5029296875,4.97265625-1.8525390625,9.5869140625-4.044189453125,13.8447265625-2.19580078125,4.259765625-5.114990234375,8.0615234375-8.755126953125,11.412109375-3.643798828125,3.35009765625-7.661865234375,6.10205078125-12.051025390625,8.2568359375-5.483642578125,2.62060546875-11.097412109375,4.1513671875-16.842041015625,4.595703125-5.748046875.44384765625-11.2763671875-.05078125-16.582275390625-1.4765625-5.308837890625-1.4296875-10.33203125-3.71337890625-15.072509765625-6.8486328125-4.74072265625-3.1357421875-8.919921875-6.98681640625-12.531494140625-11.54833984375-2.3232421875-2.931640625-4.06103515625-6.12841796875-5.213623046875-9.59033203125-1.15234375-3.4619140625-1.677001953125-6.92431640625-1.5703125-10.3896484375.1025390625-3.4619140625.7900390625-6.8212890625,2.0546875-10.080078125,1.264892578125-3.2548828125,3.287841796875-6.05419921875,6.075927734375-8.39404296875.522216796875-.677734375,1.171630859375-1.1953125,1.95458984375-1.548828125,2.245361328125-1.51513671875,4.473388671875-1.9228515625,6.6875-1.22265625,2.210693359375.69970703125,3.641357421875,2.716796875,4.292724609375,6.044921875,1.479736328125,6.38427734375,4.21533203125,11.8046875,8.21337890625,16.26171875,3.99462890625,4.45654296875,9.11376953125,7.19580078125,15.3583984375,8.2138671875,2.025390625.38330078125,4.025390625.3544921875,6.00048828125-.08203125,1.97119140625-.4375,3.689208984375-1.19873046875,5.146728515625-2.2890625,1.45751953125-1.0859375,2.549560546875-2.55078125,3.282470703125-4.39013671875.729248046875-1.83642578125.801513671875-4.046875.21337890625-6.6318359375-.571533203125-2.7294921875-2.246337890625-5.21533203125-5.0166015625-7.46044921875-2.774169921875-2.24169921875-5.906005859375-4.26904296875-9.392333984375-6.08056640625-3.489990234375-1.80810546875-6.992431640625-3.5068359375-10.504150390625-5.09912109375-3.515380859375-1.58935546875-6.30712890625-3.0224609375-8.3779296875-4.298828125-5.245361328125-3.2705078125-9.796142578125-7.087890625-13.652099609375-11.45556640625-3.859619140625-4.36474609375-6.000732421875-9.828125-6.423095703125-16.3876953125-.28466796875-5.20947265625.64013671875-10.31689453125,2.77294921875-15.3232421875,2.132568359375-5.001953125,5.2421875-9.19091796875,9.33251953125-12.5654296875,3.092041015625-2.45068359375,6.4658203125-4.427734375,10.1171875-5.92919921875,3.64794921875-1.49853515625,7.324951171875-2.59130859375,11.0302734375-3.271484375,3.7021484375-.68115234375,7.32763671875-.99951171875,10.873291015625-.96044921875,3.545166015625.04345703125,6.77587890625.23095703125,9.69775390625.5693359375,5.398681640625.625,10.531005859375,1.99560546875,15.389404296875,4.11181640625,4.858642578125,2.11572265625,9.05615234375,4.82080078125,12.595947265625,8.115234375,3.536376953125,3.2939453125,6.199951171875,7.11865234375,7.991943359375,11.46630859375,1.7880859375,4.35009765625,2.30419921875,9.142578125,1.55224609375,14.380859375-.237060546875,2.0458984375-1.03759765625,3.83984375-2.3984375,5.380859375-1.36474609375,1.54443359375-3.066650390625,2.82763671875-5.105224609375,3.8466796875-2.042724609375,1.02197265625-4.266357421875,1.68994140625-6.666748046875,2.00146484375-2.404541015625.314453125-4.918701171875.31787109375-7.54638671875.013671875-1.60791015625-.18603515625-2.879638671875-.701171875-3.814453125-1.55126953125-.9384765625-.8466796875-1.287841796875-2.29150390625-1.05078125-4.33740234375Z"/>
      <path class="cls-2" d="M105.949462890625,95.19140625c.42236328125-3.64697265625-.14892578125-6.708984375-1.710205078125-9.18505859375-1.56494140625-2.47314453125-3.56005859375-4.40673828125-5.98583984375-5.796875-2.428955078125-1.39111328125-5.06103515625-2.28515625-7.898681640625-2.6904296875-2.838134765625-.4013671875-5.25048828125-.34765625-7.23046875.16162109375-2.585205078125.58837890625-4.31640625,1.49755859375-5.197265625,2.7265625-.88427734375,1.22900390625-1.1845703125,2.56396484375-.9072265625,4.00048828125.277099609375,1.43994140625.925537109375,2.84619140625,1.9521484375,4.22021484375,1.02294921875,1.376953125,2.22265625,2.513671875,3.59912109375,3.412109375,1.650146484375,1.07861328125,3.51513671875,2.220703125,5.594970703125,3.421875,2.079345703125,1.20458984375,4.096923828125,2.28759765625,6.058349609375,3.2529296875,1.95751953125.96923828125,3.701171875,1.87158203125,5.233154296875,2.71435546875,1.528564453125.8427734375,2.707275390625,1.5341796875,3.5322265625,2.0732421875,5.532470703125,3.3037109375,10.293212890625,7.2216796875,14.282958984375,11.75048828125,3.986083984375,4.5322265625,6.915283203125,9.56591796875,8.79052734375,15.10888671875,1.7412109375,5.3818359375,2.36279296875,10.55712890625,1.86328125,15.5263671875-.5029296875,4.97265625-1.8525390625,9.5869140625-4.044189453125,13.8447265625-2.19580078125,4.259765625-5.114990234375,8.0615234375-8.755126953125,11.412109375-3.643798828125,3.35009765625-7.661865234375,6.10205078125-12.051025390625,8.2568359375-5.483642578125,2.62060546875-11.097412109375,4.1513671875-16.842041015625,4.595703125-5.748046875.44384765625-11.2763671875-.05078125-16.582275390625-1.4765625-5.308837890625-1.4296875-10.33203125-3.71337890625-15.072509765625-6.8486328125-4.74072265625-3.1357421875-8.919921875-6.98681640625-12.531494140625-11.54833984375-2.3232421875-2.931640625-4.06103515625-6.12841796875-5.213623046875-9.59033203125-1.15234375-3.4619140625-1.677001953125-6.92431640625-1.5703125-10.3896484375.1025390625-3.4619140625.7900390625-6.8212890625,2.0546875-10.080078125,1.264892578125-3.2548828125,3.287841796875-6.05419921875,6.075927734375-8.39404296875.522216796875-.677734375,1.171630859375-1.1953125,1.95458984375-1.548828125,2.245361328125-1.51513671875,4.473388671875-1.9228515625,6.6875-1.22265625,2.210693359375.69970703125,3.641357421875,2.716796875,4.292724609375,6.044921875,1.479736328125,6.38427734375,4.21533203125,11.8046875,8.21337890625,16.26171875,3.99462890625,4.45654296875,9.11376953125,7.19580078125,15.3583984375,8.2138671875,2.025390625.38330078125,4.025390625.3544921875,6.00048828125-.08203125,1.97119140625-.4375,3.689208984375-1.19873046875,5.146728515625-2.2890625,1.45751953125-1.0859375,2.549560546875-2.55078125,3.282470703125-4.39013671875.729248046875-1.83642578125.801513671875-4.046875.21337890625-6.6318359375-.571533203125-2.7294921875-2.246337890625-5.21533203125-5.0166015625-7.46044921875-2.774169921875-2.24169921875-5.906005859375-4.26904296875-9.392333984375-6.08056640625-3.489990234375-1.80810546875-6.992431640625-3.5068359375-10.504150390625-5.09912109375-3.515380859375-1.58935546875-6.30712890625-3.0224609375-8.3779296875-4.298828125-5.245361328125-3.2705078125-9.796142578125-7.087890625-13.652099609375-11.45556640625-3.859619140625-4.36474609375-6.000732421875-9.828125-6.423095703125-16.3876953125-.28466796875-5.20947265625.64013671875-10.31689453125,2.77294921875-15.3232421875,2.132568359375-5.001953125,5.2421875-9.19091796875,9.33251953125-12.5654296875,3.092041015625-2.45068359375,6.4658203125-4.427734375,10.1171875-5.92919921875,3.64794921875-1.49853515625,7.324951171875-2.59130859375,11.0302734375-3.271484375,3.7021484375-.68115234375,7.32763671875-.99951171875,10.873291015625-.96044921875,3.545166015625.04345703125,6.77587890625.23095703125,9.69775390625.5693359375,5.398681640625.625,10.531005859375,1.99560546875,15.389404296875,4.11181640625,4.858642578125,2.11572265625,9.05615234375,4.82080078125,12.595947265625,8.115234375,3.536376953125,3.2939453125,6.199951171875,7.11865234375,7.991943359375,11.46630859375,1.7880859375,4.35009765625,2.30419921875,9.142578125,1.55224609375,14.380859375-.237060546875,2.0458984375-1.03759765625,3.83984375-2.3984375,5.380859375-1.36474609375,1.54443359375-3.066650390625,2.82763671875-5.105224609375,3.8466796875-2.042724609375,1.02197265625-4.266357421875,1.68994140625-6.666748046875,2.00146484375-2.404541015625.314453125-4.918701171875.31787109375-7.54638671875.013671875-1.60791015625-.18603515625-2.879638671875-.701171875-3.814453125-1.55126953125-.9384765625-.8466796875-1.287841796875-2.29150390625-1.05078125-4.33740234375Z"/>
      <path class="cls-3" d="M105.949462890625,95.19140625c.42236328125-3.64697265625-.14892578125-6.708984375-1.710205078125-9.18505859375-1.56494140625-2.47314453125-3.56005859375-4.40673828125-5.98583984375-5.796875-2.428955078125-1.39111328125-5.06103515625-2.28515625-7.898681640625-2.6904296875-2.838134765625-.4013671875-5.25048828125-.34765625-7.23046875.16162109375-2.585205078125.58837890625-4.31640625,1.49755859375-5.197265625,2.7265625-.88427734375,1.22900390625-1.1845703125,2.56396484375-.9072265625,4.00048828125.277099609375,1.43994140625.925537109375,2.84619140625,1.9521484375,4.22021484375,1.02294921875,1.376953125,2.22265625,2.513671875,3.59912109375,3.412109375,1.650146484375,1.07861328125,3.51513671875,2.220703125,5.594970703125,3.421875,2.079345703125,1.20458984375,4.096923828125,2.28759765625,6.058349609375,3.2529296875,1.95751953125.96923828125,3.701171875,1.87158203125,5.233154296875,2.71435546875,1.528564453125.8427734375,2.707275390625,1.5341796875,3.5322265625,2.0732421875,5.532470703125,3.3037109375,10.293212890625,7.2216796875,14.282958984375,11.75048828125,3.986083984375,4.5322265625,6.915283203125,9.56591796875,8.79052734375,15.10888671875,1.7412109375,5.3818359375,2.36279296875,10.55712890625,1.86328125,15.5263671875-.5029296875,4.97265625-1.8525390625,9.5869140625-4.044189453125,13.8447265625-2.19580078125,4.259765625-5.114990234375,8.0615234375-8.755126953125,11.412109375-3.643798828125,3.35009765625-7.661865234375,6.10205078125-12.051025390625,8.2568359375-5.483642578125,2.62060546875-11.097412109375,4.1513671875-16.842041015625,4.595703125-5.748046875.44384765625-11.2763671875-.05078125-16.582275390625-1.4765625-5.308837890625-1.4296875-10.33203125-3.71337890625-15.072509765625-6.8486328125-4.74072265625-3.1357421875-8.919921875-6.98681640625-12.531494140625-11.54833984375-2.3232421875-2.931640625-4.06103515625-6.12841796875-5.213623046875-9.59033203125-1.15234375-3.4619140625-1.677001953125-6.92431640625-1.5703125-10.3896484375.1025390625-3.4619140625.7900390625-6.8212890625,2.0546875-10.080078125,1.264892578125-3.2548828125,3.287841796875-6.05419921875,6.075927734375-8.39404296875.522216796875-.677734375,1.171630859375-1.1953125,1.95458984375-1.548828125,2.245361328125-1.51513671875,4.473388671875-1.9228515625,6.6875-1.22265625,2.210693359375.69970703125,3.641357421875,2.716796875,4.292724609375,6.044921875,1.479736328125,6.38427734375,4.21533203125,11.8046875,8.21337890625,16.26171875,3.99462890625,4.45654296875,9.11376953125,7.19580078125,15.3583984375,8.2138671875,2.025390625.38330078125,4.025390625.3544921875,6.00048828125-.08203125,1.97119140625-.4375,3.689208984375-1.19873046875,5.146728515625-2.2890625,1.45751953125-1.0859375,2.549560546875-2.55078125,3.282470703125-4.39013671875.729248046875-1.83642578125.801513671875-4.046875.21337890625-6.6318359375-.571533203125-2.7294921875-2.246337890625-5.21533203125-5.0166015625-7.46044921875-2.774169921875-2.24169921875-5.906005859375-4.26904296875-9.392333984375-6.08056640625-3.489990234375-1.80810546875-6.992431640625-3.5068359375-10.504150390625-5.09912109375-3.515380859375-1.58935546875-6.30712890625-3.0224609375-8.3779296875-4.298828125-5.245361328125-3.2705078125-9.796142578125-7.087890625-13.652099609375-11.45556640625-3.859619140625-4.36474609375-6.000732421875-9.828125-6.423095703125-16.3876953125-.28466796875-5.20947265625.64013671875-10.31689453125,2.77294921875-15.3232421875,2.132568359375-5.001953125,5.2421875-9.19091796875,9.33251953125-12.5654296875,3.092041015625-2.45068359375,6.4658203125-4.427734375,10.1171875-5.92919921875,3.64794921875-1.49853515625,7.324951171875-2.59130859375,11.0302734375-3.271484375,3.7021484375-.68115234375,7.32763671875-.99951171875,10.873291015625-.96044921875,3.545166015625.04345703125,6.77587890625.23095703125,9.69775390625.5693359375,5.398681640625.625,10.531005859375,1.99560546875,15.389404296875,4.11181640625,4.858642578125,2.11572265625,9.05615234375,4.82080078125,12.595947265625,8.115234375,3.536376953125,3.2939453125,6.199951171875,7.11865234375,7.991943359375,11.46630859375,1.7880859375,4.35009765625,2.30419921875,9.142578125,1.55224609375,14.380859375-.237060546875,2.0458984375-1.03759765625,3.83984375-2.3984375,5.380859375-1.36474609375,1.54443359375-3.066650390625,2.82763671875-5.105224609375,3.8466796875-2.042724609375,1.02197265625-4.266357421875,1.68994140625-6.666748046875,2.00146484375-2.404541015625.314453125-4.918701171875.31787109375-7.54638671875.013671875-1.60791015625-.18603515625-2.879638671875-.701171875-3.814453125-1.55126953125-.9384765625-.8466796875-1.287841796875-2.29150390625-1.05078125-4.33740234375Z"/>
    </g>
  </a>
</svg>