<?xml version="1.0" encoding="UTF-8"?>
<svg id="Content" xmlns="http://www.w3.org/2000/svg" xmlns:xlink="http://www.w3.org/1999/xlink" viewBox="0 0 280 280">
  <defs>
    <style>
      .cls-1 {
        stroke: #665451;
        stroke-width: 50px;
      }

      .cls-1, .cls-2 {
        fill: none;
        stroke-linecap: round;
        stroke-linejoin: round;
      }

      .cls-3 {
        fill: #fff;
      }

      .cls-2 {
        stroke: #998675;
        stroke-width: 2px;
      }
    </style>
  </defs>
  <a xlink:href="https://www.notion.so/congruence/Sample-size-b493b69add674d1aa46fb078a6297458?pvs=4">
    <g>
      <path d="M74.275146484375,74.119140625c5.2783203125-1.294921875,10.58740234375-1.8388671875,15.9306640625-1.63671875,5.33984375.205078125,10.43994140625,1.32421875,15.29296875,3.3623046875,4.85400390625,2.037109375,8.9658203125,5.2939453125,12.33935546875,9.767578125,2.85498046875,3.8212890625,5.15576171875,8.6416015625,6.90234375,14.4599609375,1.74462890625,5.82421875,2.96728515625,13.0458984375,3.666015625,21.671875l1.93359375,28.1494140625c.07470703125.9228515625.103515625,2.0185546875.0927734375,3.2919921875-.01318359375,1.2763671875-.255859375,2.568359375-.7275390625,3.87890625-.47412109375,1.314453125-1.24609375,2.5048828125-2.3154296875,3.5751953125-1.07177734375,1.0703125-2.57568359375,1.7978515625-4.51123046875,2.1875-3.068359375.7109375-6.33447265625,1.12109375-9.798828125,1.228515625-3.46484375.107421875-6.21630859375-.97265625-8.25048828125-3.2392578125-1.14697265625-1.2958984375-2.01123046875-3.01953125-2.59033203125-5.173828125-.5810546875-2.150390625-1.0009765625-4.490234375-1.2626953125-7.0166015625-.2646484375-2.5244140625-.40771484375-5.029296875-.435546875-7.51953125-.02734375-2.4853515625-.0029296875-4.658203125.07958984375-6.517578125.1328125-4.0625.21923828125-8.0068359375.25732421875-11.830078125.037109375-3.8232421875-.376953125-7.494140625-1.23974609375-11.0146484375-.99755859375-3.73828125-2.583984375-6.8798828125-4.75732421875-9.4248046875-2.17626953125-2.54296875-4.6044921875-4.3154296875-7.29052734375-5.3134765625-2.68505859375-.998046875-5.42626953125-1.23828125-8.22021484375-.7236328125-2.79638671875.515625-5.34716796875,1.8818359375-7.65625,4.09375-2.3115234375,2.2138671875-4.1689453125,5.345703125-5.5771484375,9.39453125-1.40869140625,4.05078125-2.0478515625,9.021484375-1.91796875,14.9169921875l3.453125,36.1875c-.14794921875,1.052734375-.470703125,2.064453125-.97021484375,3.0302734375-.51123046875.8525390625-1.2861328125,1.6396484375-2.32666015625,2.359375-1.04345703125.72265625-2.53173828125,1.2744140625-4.466796875,1.6640625-2.05224609375.3974609375-4.14013671875.7099609375-6.2626953125.9423828125-2.125.228515625-4.1494140625.21875-6.08056640625-.0283203125-1.93017578125-.2509765625-3.56787109375-.8115234375-4.91162109375-1.6865234375-1.345703125-.873046875-2.263671875-2.2177734375-2.7578125-4.0302734375-.28759765625-.671875-.603515625-3.1640625-.953125-7.4775390625-.34912109375-4.3125-.6875-9.552734375-1.01318359375-15.720703125-.32568359375-6.1650390625-.65966796875-12.7666015625-.99609375-19.802734375-.33935546875-7.033203125-.64404296875-13.6376953125-.91064453125-19.8095703125-.26953125-6.1708984375-.46435546875-11.423828125-.58203125-15.7568359375-.1201171875-4.3310546875-.21142578125-6.8994140625-.2763671875-7.705078125-.17236328125-.6806640625-.05078125-1.32421875.36376953125-1.9404296875.29833984375-.6005859375.8330078125-1.1357421875,1.60595703125-1.60546875.77099609375-.4658203125,1.9580078125-.8232421875,3.560546875-1.0693359375,1.484375-.234375,3.28857421875-.4677734375,5.4130859375-.69921875,2.12255859375-.2294921875,4.16552734375-.3642578125,6.1318359375-.4091796875,1.96337890625-.04296875,3.65576171875.109375,5.0732421875.45703125,1.41796875.3486328125,2.16796875,1.0400390625,2.251953125,2.07421875l.46142578125,5.693359375c4.220703125-2.1923828125,8.97119140625-3.939453125,14.24951171875-5.2353515625Z"/>
      <path class="cls-1" d="M74.275146484375,74.119140625c5.2783203125-1.294921875,10.58740234375-1.8388671875,15.9306640625-1.63671875,5.33984375.205078125,10.43994140625,1.32421875,15.29296875,3.3623046875,4.85400390625,2.037109375,8.9658203125,5.2939453125,12.33935546875,9.767578125,2.85498046875,3.8212890625,5.15576171875,8.6416015625,6.90234375,14.4599609375,1.74462890625,5.82421875,2.96728515625,13.0458984375,3.666015625,21.671875l1.93359375,28.1494140625c.07470703125.9228515625.103515625,2.0185546875.0927734375,3.2919921875-.01318359375,1.2763671875-.255859375,2.568359375-.7275390625,3.87890625-.47412109375,1.314453125-1.24609375,2.5048828125-2.3154296875,3.5751953125-1.07177734375,1.0703125-2.57568359375,1.7978515625-4.51123046875,2.1875-3.068359375.7109375-6.33447265625,1.12109375-9.798828125,1.228515625-3.46484375.107421875-6.21630859375-.97265625-8.25048828125-3.2392578125-1.14697265625-1.2958984375-2.01123046875-3.01953125-2.59033203125-5.173828125-.5810546875-2.150390625-1.0009765625-4.490234375-1.2626953125-7.0166015625-.2646484375-2.5244140625-.40771484375-5.029296875-.435546875-7.51953125-.02734375-2.4853515625-.0029296875-4.658203125.07958984375-6.517578125.1328125-4.0625.21923828125-8.0068359375.25732421875-11.830078125.037109375-3.8232421875-.376953125-7.494140625-1.23974609375-11.0146484375-.99755859375-3.73828125-2.583984375-6.8798828125-4.75732421875-9.4248046875-2.17626953125-2.54296875-4.6044921875-4.3154296875-7.29052734375-5.3134765625-2.68505859375-.998046875-5.42626953125-1.23828125-8.22021484375-.7236328125-2.79638671875.515625-5.34716796875,1.8818359375-7.65625,4.09375-2.3115234375,2.2138671875-4.1689453125,5.345703125-5.5771484375,9.39453125-1.40869140625,4.05078125-2.0478515625,9.021484375-1.91796875,14.9169921875l3.453125,36.1875c-.14794921875,1.052734375-.470703125,2.064453125-.97021484375,3.0302734375-.51123046875.8525390625-1.2861328125,1.6396484375-2.32666015625,2.359375-1.04345703125.72265625-2.53173828125,1.2744140625-4.466796875,1.6640625-2.05224609375.3974609375-4.14013671875.7099609375-6.2626953125.9423828125-2.125.228515625-4.1494140625.21875-6.08056640625-.0283203125-1.93017578125-.2509765625-3.56787109375-.8115234375-4.91162109375-1.6865234375-1.345703125-.873046875-2.263671875-2.2177734375-2.7578125-4.0302734375-.28759765625-.671875-.603515625-3.1640625-.953125-7.4775390625-.34912109375-4.3125-.6875-9.552734375-1.01318359375-15.720703125-.32568359375-6.1650390625-.65966796875-12.7666015625-.99609375-19.802734375-.33935546875-7.033203125-.64404296875-13.6376953125-.91064453125-19.8095703125-.26953125-6.1708984375-.46435546875-11.423828125-.58203125-15.7568359375-.1201171875-4.3310546875-.21142578125-6.8994140625-.2763671875-7.705078125-.17236328125-.6806640625-.05078125-1.32421875.36376953125-1.9404296875.29833984375-.6005859375.8330078125-1.1357421875,1.60595703125-1.60546875.77099609375-.4658203125,1.9580078125-.8232421875,3.560546875-1.0693359375,1.484375-.234375,3.28857421875-.4677734375,5.4130859375-.69921875,2.12255859375-.2294921875,4.16552734375-.3642578125,6.1318359375-.4091796875,1.96337890625-.04296875,3.65576171875.109375,5.0732421875.45703125,1.41796875.3486328125,2.16796875,1.0400390625,2.251953125,2.07421875l.46142578125,5.693359375c4.220703125-2.1923828125,8.97119140625-3.939453125,14.24951171875-5.2353515625Z"/>
      <path class="cls-2" d="M74.275146484375,74.119140625c5.2783203125-1.294921875,10.58740234375-1.8388671875,15.9306640625-1.63671875,5.33984375.205078125,10.43994140625,1.32421875,15.29296875,3.3623046875,4.85400390625,2.037109375,8.9658203125,5.2939453125,12.33935546875,9.767578125,2.85498046875,3.8212890625,5.15576171875,8.6416015625,6.90234375,14.4599609375,1.74462890625,5.82421875,2.96728515625,13.0458984375,3.666015625,21.671875l1.93359375,28.1494140625c.07470703125.9228515625.103515625,2.0185546875.0927734375,3.2919921875-.01318359375,1.2763671875-.255859375,2.568359375-.7275390625,3.87890625-.47412109375,1.314453125-1.24609375,2.5048828125-2.3154296875,3.5751953125-1.07177734375,1.0703125-2.57568359375,1.7978515625-4.51123046875,2.1875-3.068359375.7109375-6.33447265625,1.12109375-9.798828125,1.228515625-3.46484375.107421875-6.21630859375-.97265625-8.25048828125-3.2392578125-1.14697265625-1.2958984375-2.01123046875-3.01953125-2.59033203125-5.173828125-.5810546875-2.150390625-1.0009765625-4.490234375-1.2626953125-7.0166015625-.2646484375-2.5244140625-.40771484375-5.029296875-.435546875-7.51953125-.02734375-2.4853515625-.0029296875-4.658203125.07958984375-6.517578125.1328125-4.0625.21923828125-8.0068359375.25732421875-11.830078125.037109375-3.8232421875-.376953125-7.494140625-1.23974609375-11.0146484375-.99755859375-3.73828125-2.583984375-6.8798828125-4.75732421875-9.4248046875-2.17626953125-2.54296875-4.6044921875-4.3154296875-7.29052734375-5.3134765625-2.68505859375-.998046875-5.42626953125-1.23828125-8.22021484375-.7236328125-2.79638671875.515625-5.34716796875,1.8818359375-7.65625,4.09375-2.3115234375,2.2138671875-4.1689453125,5.345703125-5.5771484375,9.39453125-1.40869140625,4.05078125-2.0478515625,9.021484375-1.91796875,14.9169921875l3.453125,36.1875c-.14794921875,1.052734375-.470703125,2.064453125-.97021484375,3.0302734375-.51123046875.8525390625-1.2861328125,1.6396484375-2.32666015625,2.359375-1.04345703125.72265625-2.53173828125,1.2744140625-4.466796875,1.6640625-2.05224609375.3974609375-4.14013671875.7099609375-6.2626953125.9423828125-2.125.228515625-4.1494140625.21875-6.08056640625-.0283203125-1.93017578125-.2509765625-3.56787109375-.8115234375-4.91162109375-1.6865234375-1.345703125-.873046875-2.263671875-2.2177734375-2.7578125-4.0302734375-.28759765625-.671875-.603515625-3.1640625-.953125-7.4775390625-.34912109375-4.3125-.6875-9.552734375-1.01318359375-15.720703125-.32568359375-6.1650390625-.65966796875-12.7666015625-.99609375-19.802734375-.33935546875-7.033203125-.64404296875-13.6376953125-.91064453125-19.8095703125-.26953125-6.1708984375-.46435546875-11.423828125-.58203125-15.7568359375-.1201171875-4.3310546875-.21142578125-6.8994140625-.2763671875-7.705078125-.17236328125-.6806640625-.05078125-1.32421875.36376953125-1.9404296875.29833984375-.6005859375.8330078125-1.1357421875,1.60595703125-1.60546875.77099609375-.4658203125,1.9580078125-.8232421875,3.560546875-1.0693359375,1.484375-.234375,3.28857421875-.4677734375,5.4130859375-.69921875,2.12255859375-.2294921875,4.16552734375-.3642578125,6.1318359375-.4091796875,1.96337890625-.04296875,3.65576171875.109375,5.0732421875.45703125,1.41796875.3486328125,2.16796875,1.0400390625,2.251953125,2.07421875l.46142578125,5.693359375c4.220703125-2.1923828125,8.97119140625-3.939453125,14.24951171875-5.2353515625Z"/>
      <path class="cls-3" d="M74.275146484375,74.119140625c5.2783203125-1.294921875,10.58740234375-1.8388671875,15.9306640625-1.63671875,5.33984375.205078125,10.43994140625,1.32421875,15.29296875,3.3623046875,4.85400390625,2.037109375,8.9658203125,5.2939453125,12.33935546875,9.767578125,2.85498046875,3.8212890625,5.15576171875,8.6416015625,6.90234375,14.4599609375,1.74462890625,5.82421875,2.96728515625,13.0458984375,3.666015625,21.671875l1.93359375,28.1494140625c.07470703125.9228515625.103515625,2.0185546875.0927734375,3.2919921875-.01318359375,1.2763671875-.255859375,2.568359375-.7275390625,3.87890625-.47412109375,1.314453125-1.24609375,2.5048828125-2.3154296875,3.5751953125-1.07177734375,1.0703125-2.57568359375,1.7978515625-4.51123046875,2.1875-3.068359375.7109375-6.33447265625,1.12109375-9.798828125,1.228515625-3.46484375.107421875-6.21630859375-.97265625-8.25048828125-3.2392578125-1.14697265625-1.2958984375-2.01123046875-3.01953125-2.59033203125-5.173828125-.5810546875-2.150390625-1.0009765625-4.490234375-1.2626953125-7.0166015625-.2646484375-2.5244140625-.40771484375-5.029296875-.435546875-7.51953125-.02734375-2.4853515625-.0029296875-4.658203125.07958984375-6.517578125.1328125-4.0625.21923828125-8.0068359375.25732421875-11.830078125.037109375-3.8232421875-.376953125-7.494140625-1.23974609375-11.0146484375-.99755859375-3.73828125-2.583984375-6.8798828125-4.75732421875-9.4248046875-2.17626953125-2.54296875-4.6044921875-4.3154296875-7.29052734375-5.3134765625-2.68505859375-.998046875-5.42626953125-1.23828125-8.22021484375-.7236328125-2.79638671875.515625-5.34716796875,1.8818359375-7.65625,4.09375-2.3115234375,2.2138671875-4.1689453125,5.345703125-5.5771484375,9.39453125-1.40869140625,4.05078125-2.0478515625,9.021484375-1.91796875,14.9169921875l3.453125,36.1875c-.14794921875,1.052734375-.470703125,2.064453125-.97021484375,3.0302734375-.51123046875.8525390625-1.2861328125,1.6396484375-2.32666015625,2.359375-1.04345703125.72265625-2.53173828125,1.2744140625-4.466796875,1.6640625-2.05224609375.3974609375-4.14013671875.7099609375-6.2626953125.9423828125-2.125.228515625-4.1494140625.21875-6.08056640625-.0283203125-1.93017578125-.2509765625-3.56787109375-.8115234375-4.91162109375-1.6865234375-1.345703125-.873046875-2.263671875-2.2177734375-2.7578125-4.0302734375-.28759765625-.671875-.603515625-3.1640625-.953125-7.4775390625-.34912109375-4.3125-.6875-9.552734375-1.01318359375-15.720703125-.32568359375-6.1650390625-.65966796875-12.7666015625-.99609375-19.802734375-.33935546875-7.033203125-.64404296875-13.6376953125-.91064453125-19.8095703125-.26953125-6.1708984375-.46435546875-11.423828125-.58203125-15.7568359375-.1201171875-4.3310546875-.21142578125-6.8994140625-.2763671875-7.705078125-.17236328125-.6806640625-.05078125-1.32421875.36376953125-1.9404296875.29833984375-.6005859375.8330078125-1.1357421875,1.60595703125-1.60546875.77099609375-.4658203125,1.9580078125-.8232421875,3.560546875-1.0693359375,1.484375-.234375,3.28857421875-.4677734375,5.4130859375-.69921875,2.12255859375-.2294921875,4.16552734375-.3642578125,6.1318359375-.4091796875,1.96337890625-.04296875,3.65576171875.109375,5.0732421875.45703125,1.41796875.3486328125,2.16796875,1.0400390625,2.251953125,2.07421875l.46142578125,5.693359375c4.220703125-2.1923828125,8.97119140625-3.939453125,14.24951171875-5.2353515625Z"/>
    </g>
  </a>
</svg>