<?xml version="1.0" encoding="UTF-8"?>
<svg id="Content" xmlns="http://www.w3.org/2000/svg" xmlns:xlink="http://www.w3.org/1999/xlink" viewBox="0 0 280 280">
  <defs>
    <style>
      .cls-1 {
        stroke: #665451;
        stroke-width: 50px;
      }

      .cls-1, .cls-2 {
        fill: none;
        stroke-linecap: round;
        stroke-linejoin: round;
      }

      .cls-3 {
        fill: #fff;
      }

      .cls-2 {
        stroke: #998675;
        stroke-width: 2px;
      }
    </style>
  </defs>
  <a xlink:href="https://www.notion.so/congruence/Sample-mean-86c75e229f8c433fa5cfaf8c59bf39bd?pvs=4">
    <g>
      <g>
        <path d="M130.1826171875,167.7861328125c.64453125,1.0009765625.982421875,2.09765625,1.0185546875,3.29052734375.04931640625.958984375-.18017578125,2.1044921875-.69091796875,3.4375-.513671875,1.3359375-1.52978515625,2.6630859375-3.05419921875,3.98583984375-1.52392578125,1.322265625-3.16552734375,2.6083984375-4.92236328125,3.8525390625-1.75927734375,1.2470703125-3.5546875,2.22314453125-5.392578125,2.92529296875-1.83837890625.70263671875-3.642578125.93212890625-5.4130859375.689453125-1.77099609375-.24609375-3.4912109375-1.20361328125-5.1611328125-2.86962890625-.89990234375-.77880859375-2.4072265625-2.61279296875-4.5263671875-5.50634765625-2.11962890625-2.89111328125-4.5751953125-6.521484375-7.36279296875-10.8935546875-1.39990234375-2.12451171875-2.87841796875-4.40576171875-4.43212890625-6.84033203125-1.556640625-2.43505859375-3.20068359375-4.90380859375-4.92822265625-7.41259765625-3.8359375,3.66162109375-7.45166015625,7.13232421875-10.84033203125,10.40673828125-3.392578125,3.27685546875-6.3671875,6.13623046875-8.92333984375,8.5751953125-3.0654296875,2.8837890625-5.87744140625,5.5458984375-8.43359375,7.98486328125-.63671875.552734375-1.3828125.974609375-2.23583984375,1.27197265625-.728515625.18603515625-1.56591796875.2158203125-2.509765625.09033203125-.9462890625-.12890625-2.03662109375-.7119140625-3.2734375-1.75244140625-1.2470703125-.9208984375-2.68408203125-2.095703125-4.3095703125-3.52392578125-1.6279296875-1.42578125-3.10400390625-2.87158203125-4.43017578125-4.33740234375-1.3271484375-1.46337890625-2.27197265625-2.87158203125-2.830078125-4.22412109375-.560546875-1.35009765625-.44580078125-2.53466796875.34130859375-3.5517578125l32.8447265625-34.50537109375c-2.783203125-4.48828125-5.34130859375-8.75146484375-7.67578125-12.7919921875-2.33642578125-4.0380859375-4.4072265625-7.61279296875-6.212890625-10.72216796875-2.01025390625-3.5986328125-3.85986328125-6.9482421875-5.54541015625-10.04931640625-.54443359375-.75341796875-.845703125-1.548828125-.90283203125-2.388671875-.06982421875-.7197265625.10498046875-1.4814453125.51953125-2.28759765625.41455078125-.802734375,1.306640625-1.6337890625,2.68017578125-2.49169921875,1.37060546875-.85546875,2.99169921875-1.84423828125,4.859375-2.96337890625,1.8671875-1.11962890625,3.693359375-2.09033203125,5.4814453125-2.9189453125,1.78564453125-.826171875,3.4306640625-1.33544921875,4.93603515625-1.52734375,1.5029296875-.18994140625,2.63623046875.21728515625,3.39990234375,1.224609375,2.89111328125,4.6162109375,5.78857421875,9.14404296875,8.6923828125,13.57958984375,2.90380859375,4.43896484375,5.8056640625,8.90576171875,8.70458984375,13.40283203125l21.03369140625-21.75341796875c.87890625-.6533203125,1.93017578125-1.173828125,3.15087890625-1.56494140625.97265625-.2880859375,2.17041015625-.35205078125,3.58984375-.1923828125,1.41845703125.16259765625,2.9189453125.83349609375,4.505859375,2.01806640625,1.70361328125,1.1943359375,3.39794921875,2.50732421875,5.08447265625,3.93701171875,1.6865234375,1.43310546875,3.0693359375,2.9306640625,4.15087890625,4.4970703125,1.07958984375,1.568359375,1.7060546875,3.25,1.87744140625,5.0498046875.16796875,1.7998046875-.41064453125,3.6669921875-1.73779296875,5.5986328125-.5263671875.67822265625-1.5341796875,1.85791015625-3.02294921875,3.54052734375-1.49072265625,1.6826171875-3.388671875,3.66552734375-5.6962890625,5.94384765625-2.3076171875,2.28125-4.9033203125,4.837890625-7.7861328125,7.6728515625-2.88330078125,2.8349609375-5.92724609375,5.81005859375-9.1259765625,8.9189453125,4.1103515625,5.89599609375,8.19580078125,11.7568359375,12.25244140625,17.58740234375,4.05712890625,5.8310546875,8.138671875,11.69384765625,12.25244140625,17.587890625Z"/>
        <path d="M46.308837890625,57.802703857421875c4.111655148859427-1.723796261931966,8.275030841968146-3.02047299491187,12.511590351703489-4.180181497903504,8.062469427104588.705537458314211,28.090963796376855,2.010813293563842,36.45826812377436,2.641124390416735,8.019355324968274.569312706509663,28.7004358729655,2.035213678027503,36.462145255920404,2.586177291026615,3.93004289491364,1.732833211584875,8.054689515216523,3.692460956019204,11.800312285026848,5.849529270650237-4.013217237185017,1.607220248222802-8.373471613307629,2.964078096708363-12.507829122335352,4.125426988259278-7.668408951855781-.54395525819109-28.517586154408491-2.022746139541596-36.462161983124133-2.58625522809416-8.457540117207827-.581563029480094-28.253969475936174-2.06946094173145-36.465668025526611-2.531558663406031-4.030638727288533-1.746184380821433-7.968472598844528-3.617103022863375-11.796656885439006-5.90426255094917h0Z"/>
      </g>
      <g>
        <g>
          <path class="cls-1" d="M130.1826171875,167.7861328125c.64453125,1.0009765625.982421875,2.09765625,1.0185546875,3.29052734375.04931640625.958984375-.18017578125,2.1044921875-.69091796875,3.4375-.513671875,1.3359375-1.52978515625,2.6630859375-3.05419921875,3.98583984375-1.52392578125,1.322265625-3.16552734375,2.6083984375-4.92236328125,3.8525390625-1.75927734375,1.2470703125-3.5546875,2.22314453125-5.392578125,2.92529296875-1.83837890625.70263671875-3.642578125.93212890625-5.4130859375.689453125-1.77099609375-.24609375-3.4912109375-1.20361328125-5.1611328125-2.86962890625-.89990234375-.77880859375-2.4072265625-2.61279296875-4.5263671875-5.50634765625-2.11962890625-2.89111328125-4.5751953125-6.521484375-7.36279296875-10.8935546875-1.39990234375-2.12451171875-2.87841796875-4.40576171875-4.43212890625-6.84033203125-1.556640625-2.43505859375-3.20068359375-4.90380859375-4.92822265625-7.41259765625-3.8359375,3.66162109375-7.45166015625,7.13232421875-10.84033203125,10.40673828125-3.392578125,3.27685546875-6.3671875,6.13623046875-8.92333984375,8.5751953125-3.0654296875,2.8837890625-5.87744140625,5.5458984375-8.43359375,7.98486328125-.63671875.552734375-1.3828125.974609375-2.23583984375,1.27197265625-.728515625.18603515625-1.56591796875.2158203125-2.509765625.09033203125-.9462890625-.12890625-2.03662109375-.7119140625-3.2734375-1.75244140625-1.2470703125-.9208984375-2.68408203125-2.095703125-4.3095703125-3.52392578125-1.6279296875-1.42578125-3.10400390625-2.87158203125-4.43017578125-4.33740234375-1.3271484375-1.46337890625-2.27197265625-2.87158203125-2.830078125-4.22412109375-.560546875-1.35009765625-.44580078125-2.53466796875.34130859375-3.5517578125l32.8447265625-34.50537109375c-2.783203125-4.48828125-5.34130859375-8.75146484375-7.67578125-12.7919921875-2.33642578125-4.0380859375-4.4072265625-7.61279296875-6.212890625-10.72216796875-2.01025390625-3.5986328125-3.85986328125-6.9482421875-5.54541015625-10.04931640625-.54443359375-.75341796875-.845703125-1.548828125-.90283203125-2.388671875-.06982421875-.7197265625.10498046875-1.4814453125.51953125-2.28759765625.41455078125-.802734375,1.306640625-1.6337890625,2.68017578125-2.49169921875,1.37060546875-.85546875,2.99169921875-1.84423828125,4.859375-2.96337890625,1.8671875-1.11962890625,3.693359375-2.09033203125,5.4814453125-2.9189453125,1.78564453125-.826171875,3.4306640625-1.33544921875,4.93603515625-1.52734375,1.5029296875-.18994140625,2.63623046875.21728515625,3.39990234375,1.224609375,2.89111328125,4.6162109375,5.78857421875,9.14404296875,8.6923828125,13.57958984375,2.90380859375,4.43896484375,5.8056640625,8.90576171875,8.70458984375,13.40283203125l21.03369140625-21.75341796875c.87890625-.6533203125,1.93017578125-1.173828125,3.15087890625-1.56494140625.97265625-.2880859375,2.17041015625-.35205078125,3.58984375-.1923828125,1.41845703125.16259765625,2.9189453125.83349609375,4.505859375,2.01806640625,1.70361328125,1.1943359375,3.39794921875,2.50732421875,5.08447265625,3.93701171875,1.6865234375,1.43310546875,3.0693359375,2.9306640625,4.15087890625,4.4970703125,1.07958984375,1.568359375,1.7060546875,3.25,1.87744140625,5.0498046875.16796875,1.7998046875-.41064453125,3.6669921875-1.73779296875,5.5986328125-.5263671875.67822265625-1.5341796875,1.85791015625-3.02294921875,3.54052734375-1.49072265625,1.6826171875-3.388671875,3.66552734375-5.6962890625,5.94384765625-2.3076171875,2.28125-4.9033203125,4.837890625-7.7861328125,7.6728515625-2.88330078125,2.8349609375-5.92724609375,5.81005859375-9.1259765625,8.9189453125,4.1103515625,5.89599609375,8.19580078125,11.7568359375,12.25244140625,17.58740234375,4.05712890625,5.8310546875,8.138671875,11.69384765625,12.25244140625,17.587890625Z"/>
          <path class="cls-1" d="M130.1826171875,167.7861328125c.64453125,1.0009765625.982421875,2.09765625,1.0185546875,3.29052734375.04931640625.958984375-.18017578125,2.1044921875-.69091796875,3.4375-.513671875,1.3359375-1.52978515625,2.6630859375-3.05419921875,3.98583984375-1.52392578125,1.322265625-3.16552734375,2.6083984375-4.92236328125,3.8525390625-1.75927734375,1.2470703125-3.5546875,2.22314453125-5.392578125,2.92529296875-1.83837890625.70263671875-3.642578125.93212890625-5.4130859375.689453125-1.77099609375-.24609375-3.4912109375-1.20361328125-5.1611328125-2.86962890625-.89990234375-.77880859375-2.4072265625-2.61279296875-4.5263671875-5.50634765625-2.11962890625-2.89111328125-4.5751953125-6.521484375-7.36279296875-10.8935546875-1.39990234375-2.12451171875-2.87841796875-4.40576171875-4.43212890625-6.84033203125-1.556640625-2.43505859375-3.20068359375-4.90380859375-4.92822265625-7.41259765625-3.8359375,3.66162109375-7.45166015625,7.13232421875-10.84033203125,10.40673828125-3.392578125,3.27685546875-6.3671875,6.13623046875-8.92333984375,8.5751953125-3.0654296875,2.8837890625-5.87744140625,5.5458984375-8.43359375,7.98486328125-.63671875.552734375-1.3828125.974609375-2.23583984375,1.27197265625-.728515625.18603515625-1.56591796875.2158203125-2.509765625.09033203125-.9462890625-.12890625-2.03662109375-.7119140625-3.2734375-1.75244140625-1.2470703125-.9208984375-2.68408203125-2.095703125-4.3095703125-3.52392578125-1.6279296875-1.42578125-3.10400390625-2.87158203125-4.43017578125-4.33740234375-1.3271484375-1.46337890625-2.27197265625-2.87158203125-2.830078125-4.22412109375-.560546875-1.35009765625-.44580078125-2.53466796875.34130859375-3.5517578125l32.8447265625-34.50537109375c-2.783203125-4.48828125-5.34130859375-8.75146484375-7.67578125-12.7919921875-2.33642578125-4.0380859375-4.4072265625-7.61279296875-6.212890625-10.72216796875-2.01025390625-3.5986328125-3.85986328125-6.9482421875-5.54541015625-10.04931640625-.54443359375-.75341796875-.845703125-1.548828125-.90283203125-2.388671875-.06982421875-.7197265625.10498046875-1.4814453125.51953125-2.28759765625.41455078125-.802734375,1.306640625-1.6337890625,2.68017578125-2.49169921875,1.37060546875-.85546875,2.99169921875-1.84423828125,4.859375-2.96337890625,1.8671875-1.11962890625,3.693359375-2.09033203125,5.4814453125-2.9189453125,1.78564453125-.826171875,3.4306640625-1.33544921875,4.93603515625-1.52734375,1.5029296875-.18994140625,2.63623046875.21728515625,3.39990234375,1.224609375,2.89111328125,4.6162109375,5.78857421875,9.14404296875,8.6923828125,13.57958984375,2.90380859375,4.43896484375,5.8056640625,8.90576171875,8.70458984375,13.40283203125l21.03369140625-21.75341796875c.87890625-.6533203125,1.93017578125-1.173828125,3.15087890625-1.56494140625.97265625-.2880859375,2.17041015625-.35205078125,3.58984375-.1923828125,1.41845703125.16259765625,2.9189453125.83349609375,4.505859375,2.01806640625,1.70361328125,1.1943359375,3.39794921875,2.50732421875,5.08447265625,3.93701171875,1.6865234375,1.43310546875,3.0693359375,2.9306640625,4.15087890625,4.4970703125,1.07958984375,1.568359375,1.7060546875,3.25,1.87744140625,5.0498046875.16796875,1.7998046875-.41064453125,3.6669921875-1.73779296875,5.5986328125-.5263671875.67822265625-1.5341796875,1.85791015625-3.02294921875,3.54052734375-1.49072265625,1.6826171875-3.388671875,3.66552734375-5.6962890625,5.94384765625-2.3076171875,2.28125-4.9033203125,4.837890625-7.7861328125,7.6728515625-2.88330078125,2.8349609375-5.92724609375,5.81005859375-9.1259765625,8.9189453125,4.1103515625,5.89599609375,8.19580078125,11.7568359375,12.25244140625,17.58740234375,4.05712890625,5.8310546875,8.138671875,11.69384765625,12.25244140625,17.587890625Z"/>
          <path class="cls-1" d="M130.1826171875,167.7861328125c.64453125,1.0009765625.982421875,2.09765625,1.0185546875,3.29052734375.04931640625.958984375-.18017578125,2.1044921875-.69091796875,3.4375-.513671875,1.3359375-1.52978515625,2.6630859375-3.05419921875,3.98583984375-1.52392578125,1.322265625-3.16552734375,2.6083984375-4.92236328125,3.8525390625-1.75927734375,1.2470703125-3.5546875,2.22314453125-5.392578125,2.92529296875-1.83837890625.70263671875-3.642578125.93212890625-5.4130859375.689453125-1.77099609375-.24609375-3.4912109375-1.20361328125-5.1611328125-2.86962890625-.89990234375-.77880859375-2.4072265625-2.61279296875-4.5263671875-5.50634765625-2.11962890625-2.89111328125-4.5751953125-6.521484375-7.36279296875-10.8935546875-1.39990234375-2.12451171875-2.87841796875-4.40576171875-4.43212890625-6.84033203125-1.556640625-2.43505859375-3.20068359375-4.90380859375-4.92822265625-7.41259765625-3.8359375,3.66162109375-7.45166015625,7.13232421875-10.84033203125,10.40673828125-3.392578125,3.27685546875-6.3671875,6.13623046875-8.92333984375,8.5751953125-3.0654296875,2.8837890625-5.87744140625,5.5458984375-8.43359375,7.98486328125-.63671875.552734375-1.3828125.974609375-2.23583984375,1.27197265625-.728515625.18603515625-1.56591796875.2158203125-2.509765625.09033203125-.9462890625-.12890625-2.03662109375-.7119140625-3.2734375-1.75244140625-1.2470703125-.9208984375-2.68408203125-2.095703125-4.3095703125-3.52392578125-1.6279296875-1.42578125-3.10400390625-2.87158203125-4.43017578125-4.33740234375-1.3271484375-1.46337890625-2.27197265625-2.87158203125-2.830078125-4.22412109375-.560546875-1.35009765625-.44580078125-2.53466796875.34130859375-3.5517578125l32.8447265625-34.50537109375c-2.783203125-4.48828125-5.34130859375-8.75146484375-7.67578125-12.7919921875-2.33642578125-4.0380859375-4.4072265625-7.61279296875-6.212890625-10.72216796875-2.01025390625-3.5986328125-3.85986328125-6.9482421875-5.54541015625-10.04931640625-.54443359375-.75341796875-.845703125-1.548828125-.90283203125-2.388671875-.06982421875-.7197265625.10498046875-1.4814453125.51953125-2.28759765625.41455078125-.802734375,1.306640625-1.6337890625,2.68017578125-2.49169921875,1.37060546875-.85546875,2.99169921875-1.84423828125,4.859375-2.96337890625,1.8671875-1.11962890625,3.693359375-2.09033203125,5.4814453125-2.9189453125,1.78564453125-.826171875,3.4306640625-1.33544921875,4.93603515625-1.52734375,1.5029296875-.18994140625,2.63623046875.21728515625,3.39990234375,1.224609375,2.89111328125,4.6162109375,5.78857421875,9.14404296875,8.6923828125,13.57958984375,2.90380859375,4.43896484375,5.8056640625,8.90576171875,8.70458984375,13.40283203125l21.03369140625-21.75341796875c.87890625-.6533203125,1.93017578125-1.173828125,3.15087890625-1.56494140625.97265625-.2880859375,2.17041015625-.35205078125,3.58984375-.1923828125,1.41845703125.16259765625,2.9189453125.83349609375,4.505859375,2.01806640625,1.70361328125,1.1943359375,3.39794921875,2.50732421875,5.08447265625,3.93701171875,1.6865234375,1.43310546875,3.0693359375,2.9306640625,4.15087890625,4.4970703125,1.07958984375,1.568359375,1.7060546875,3.25,1.87744140625,5.0498046875.16796875,1.7998046875-.41064453125,3.6669921875-1.73779296875,5.5986328125-.5263671875.67822265625-1.5341796875,1.85791015625-3.02294921875,3.54052734375-1.49072265625,1.6826171875-3.388671875,3.66552734375-5.6962890625,5.94384765625-2.3076171875,2.28125-4.9033203125,4.837890625-7.7861328125,7.6728515625-2.88330078125,2.8349609375-5.92724609375,5.81005859375-9.1259765625,8.9189453125,4.1103515625,5.89599609375,8.19580078125,11.7568359375,12.25244140625,17.58740234375,4.05712890625,5.8310546875,8.138671875,11.69384765625,12.25244140625,17.587890625Z"/>
        </g>
        <g>
          <line class="cls-1" x1="46.308795707391255" y1="57.802714540311172" x2="143.541094224622611" y2="64.699383132780895"/>
          <path class="cls-1" d="M46.308837890625,57.802703857421875c4.111655148859427-1.723796261931966,8.275030841968146-3.02047299491187,12.511590351703489-4.180181497903504,8.062469427104588.705537458314211,28.090963796376855,2.010813293563842,36.45826812377436,2.641124390416735,8.019355324968274.569312706509663,28.7004358729655,2.035213678027503,36.462145255920404,2.586177291026615,3.93004289491364,1.732833211584875,8.054689515216523,3.692460956019204,11.800312285026848,5.849529270650237-4.013217237185017,1.607220248222802-8.373471613307629,2.964078096708363-12.507829122335352,4.125426988259278-7.668408951855781-.54395525819109-28.517586154408491-2.022746139541596-36.462161983124133-2.58625522809416-8.457540117207827-.581563029480094-28.253969475936174-2.06946094173145-36.465668025526611-2.531558663406031-4.030638727288533-1.746184380821433-7.968472598844528-3.617103022863375-11.796656885439006-5.90426255094917h0Z"/>
        </g>
      </g>
      <g>
        <g>
          <path class="cls-2" d="M130.1826171875,167.7861328125c.64453125,1.0009765625.982421875,2.09765625,1.0185546875,3.29052734375.04931640625.958984375-.18017578125,2.1044921875-.69091796875,3.4375-.513671875,1.3359375-1.52978515625,2.6630859375-3.05419921875,3.98583984375-1.52392578125,1.322265625-3.16552734375,2.6083984375-4.92236328125,3.8525390625-1.75927734375,1.2470703125-3.5546875,2.22314453125-5.392578125,2.92529296875-1.83837890625.70263671875-3.642578125.93212890625-5.4130859375.689453125-1.77099609375-.24609375-3.4912109375-1.20361328125-5.1611328125-2.86962890625-.89990234375-.77880859375-2.4072265625-2.61279296875-4.5263671875-5.50634765625-2.11962890625-2.89111328125-4.5751953125-6.521484375-7.36279296875-10.8935546875-1.39990234375-2.12451171875-2.87841796875-4.40576171875-4.43212890625-6.84033203125-1.556640625-2.43505859375-3.20068359375-4.90380859375-4.92822265625-7.41259765625-3.8359375,3.66162109375-7.45166015625,7.13232421875-10.84033203125,10.40673828125-3.392578125,3.27685546875-6.3671875,6.13623046875-8.92333984375,8.5751953125-3.0654296875,2.8837890625-5.87744140625,5.5458984375-8.43359375,7.98486328125-.63671875.552734375-1.3828125.974609375-2.23583984375,1.27197265625-.728515625.18603515625-1.56591796875.2158203125-2.509765625.09033203125-.9462890625-.12890625-2.03662109375-.7119140625-3.2734375-1.75244140625-1.2470703125-.9208984375-2.68408203125-2.095703125-4.3095703125-3.52392578125-1.6279296875-1.42578125-3.10400390625-2.87158203125-4.43017578125-4.33740234375-1.3271484375-1.46337890625-2.27197265625-2.87158203125-2.830078125-4.22412109375-.560546875-1.35009765625-.44580078125-2.53466796875.34130859375-3.5517578125l32.8447265625-34.50537109375c-2.783203125-4.48828125-5.34130859375-8.75146484375-7.67578125-12.7919921875-2.33642578125-4.0380859375-4.4072265625-7.61279296875-6.212890625-10.72216796875-2.01025390625-3.5986328125-3.85986328125-6.9482421875-5.54541015625-10.04931640625-.54443359375-.75341796875-.845703125-1.548828125-.90283203125-2.388671875-.06982421875-.7197265625.10498046875-1.4814453125.51953125-2.28759765625.41455078125-.802734375,1.306640625-1.6337890625,2.68017578125-2.49169921875,1.37060546875-.85546875,2.99169921875-1.84423828125,4.859375-2.96337890625,1.8671875-1.11962890625,3.693359375-2.09033203125,5.4814453125-2.9189453125,1.78564453125-.826171875,3.4306640625-1.33544921875,4.93603515625-1.52734375,1.5029296875-.18994140625,2.63623046875.21728515625,3.39990234375,1.224609375,2.89111328125,4.6162109375,5.78857421875,9.14404296875,8.6923828125,13.57958984375,2.90380859375,4.43896484375,5.8056640625,8.90576171875,8.70458984375,13.40283203125l21.03369140625-21.75341796875c.87890625-.6533203125,1.93017578125-1.173828125,3.15087890625-1.56494140625.97265625-.2880859375,2.17041015625-.35205078125,3.58984375-.1923828125,1.41845703125.16259765625,2.9189453125.83349609375,4.505859375,2.01806640625,1.70361328125,1.1943359375,3.39794921875,2.50732421875,5.08447265625,3.93701171875,1.6865234375,1.43310546875,3.0693359375,2.9306640625,4.15087890625,4.4970703125,1.07958984375,1.568359375,1.7060546875,3.25,1.87744140625,5.0498046875.16796875,1.7998046875-.41064453125,3.6669921875-1.73779296875,5.5986328125-.5263671875.67822265625-1.5341796875,1.85791015625-3.02294921875,3.54052734375-1.49072265625,1.6826171875-3.388671875,3.66552734375-5.6962890625,5.94384765625-2.3076171875,2.28125-4.9033203125,4.837890625-7.7861328125,7.6728515625-2.88330078125,2.8349609375-5.92724609375,5.81005859375-9.1259765625,8.9189453125,4.1103515625,5.89599609375,8.19580078125,11.7568359375,12.25244140625,17.58740234375,4.05712890625,5.8310546875,8.138671875,11.69384765625,12.25244140625,17.587890625Z"/>
          <path class="cls-2" d="M130.1826171875,167.7861328125c.64453125,1.0009765625.982421875,2.09765625,1.0185546875,3.29052734375.04931640625.958984375-.18017578125,2.1044921875-.69091796875,3.4375-.513671875,1.3359375-1.52978515625,2.6630859375-3.05419921875,3.98583984375-1.52392578125,1.322265625-3.16552734375,2.6083984375-4.92236328125,3.8525390625-1.75927734375,1.2470703125-3.5546875,2.22314453125-5.392578125,2.92529296875-1.83837890625.70263671875-3.642578125.93212890625-5.4130859375.689453125-1.77099609375-.24609375-3.4912109375-1.20361328125-5.1611328125-2.86962890625-.89990234375-.77880859375-2.4072265625-2.61279296875-4.5263671875-5.50634765625-2.11962890625-2.89111328125-4.5751953125-6.521484375-7.36279296875-10.8935546875-1.39990234375-2.12451171875-2.87841796875-4.40576171875-4.43212890625-6.84033203125-1.556640625-2.43505859375-3.20068359375-4.90380859375-4.92822265625-7.41259765625-3.8359375,3.66162109375-7.45166015625,7.13232421875-10.84033203125,10.40673828125-3.392578125,3.27685546875-6.3671875,6.13623046875-8.92333984375,8.5751953125-3.0654296875,2.8837890625-5.87744140625,5.5458984375-8.43359375,7.98486328125-.63671875.552734375-1.3828125.974609375-2.23583984375,1.27197265625-.728515625.18603515625-1.56591796875.2158203125-2.509765625.09033203125-.9462890625-.12890625-2.03662109375-.7119140625-3.2734375-1.75244140625-1.2470703125-.9208984375-2.68408203125-2.095703125-4.3095703125-3.52392578125-1.6279296875-1.42578125-3.10400390625-2.87158203125-4.43017578125-4.33740234375-1.3271484375-1.46337890625-2.27197265625-2.87158203125-2.830078125-4.22412109375-.560546875-1.35009765625-.44580078125-2.53466796875.34130859375-3.5517578125l32.8447265625-34.50537109375c-2.783203125-4.48828125-5.34130859375-8.75146484375-7.67578125-12.7919921875-2.33642578125-4.0380859375-4.4072265625-7.61279296875-6.212890625-10.72216796875-2.01025390625-3.5986328125-3.85986328125-6.9482421875-5.54541015625-10.04931640625-.54443359375-.75341796875-.845703125-1.548828125-.90283203125-2.388671875-.06982421875-.7197265625.10498046875-1.4814453125.51953125-2.28759765625.41455078125-.802734375,1.306640625-1.6337890625,2.68017578125-2.49169921875,1.37060546875-.85546875,2.99169921875-1.84423828125,4.859375-2.96337890625,1.8671875-1.11962890625,3.693359375-2.09033203125,5.4814453125-2.9189453125,1.78564453125-.826171875,3.4306640625-1.33544921875,4.93603515625-1.52734375,1.5029296875-.18994140625,2.63623046875.21728515625,3.39990234375,1.224609375,2.89111328125,4.6162109375,5.78857421875,9.14404296875,8.6923828125,13.57958984375,2.90380859375,4.43896484375,5.8056640625,8.90576171875,8.70458984375,13.40283203125l21.03369140625-21.75341796875c.87890625-.6533203125,1.93017578125-1.173828125,3.15087890625-1.56494140625.97265625-.2880859375,2.17041015625-.35205078125,3.58984375-.1923828125,1.41845703125.16259765625,2.9189453125.83349609375,4.505859375,2.01806640625,1.70361328125,1.1943359375,3.39794921875,2.50732421875,5.08447265625,3.93701171875,1.6865234375,1.43310546875,3.0693359375,2.9306640625,4.15087890625,4.4970703125,1.07958984375,1.568359375,1.7060546875,3.25,1.87744140625,5.0498046875.16796875,1.7998046875-.41064453125,3.6669921875-1.73779296875,5.5986328125-.5263671875.67822265625-1.5341796875,1.85791015625-3.02294921875,3.54052734375-1.49072265625,1.6826171875-3.388671875,3.66552734375-5.6962890625,5.94384765625-2.3076171875,2.28125-4.9033203125,4.837890625-7.7861328125,7.6728515625-2.88330078125,2.8349609375-5.92724609375,5.81005859375-9.1259765625,8.9189453125,4.1103515625,5.89599609375,8.19580078125,11.7568359375,12.25244140625,17.58740234375,4.05712890625,5.8310546875,8.138671875,11.69384765625,12.25244140625,17.587890625Z"/>
          <path class="cls-2" d="M130.1826171875,167.7861328125c.64453125,1.0009765625.982421875,2.09765625,1.0185546875,3.29052734375.04931640625.958984375-.18017578125,2.1044921875-.69091796875,3.4375-.513671875,1.3359375-1.52978515625,2.6630859375-3.05419921875,3.98583984375-1.52392578125,1.322265625-3.16552734375,2.6083984375-4.92236328125,3.8525390625-1.75927734375,1.2470703125-3.5546875,2.22314453125-5.392578125,2.92529296875-1.83837890625.70263671875-3.642578125.93212890625-5.4130859375.689453125-1.77099609375-.24609375-3.4912109375-1.20361328125-5.1611328125-2.86962890625-.89990234375-.77880859375-2.4072265625-2.61279296875-4.5263671875-5.50634765625-2.11962890625-2.89111328125-4.5751953125-6.521484375-7.36279296875-10.8935546875-1.39990234375-2.12451171875-2.87841796875-4.40576171875-4.43212890625-6.84033203125-1.556640625-2.43505859375-3.20068359375-4.90380859375-4.92822265625-7.41259765625-3.8359375,3.66162109375-7.45166015625,7.13232421875-10.84033203125,10.40673828125-3.392578125,3.27685546875-6.3671875,6.13623046875-8.92333984375,8.5751953125-3.0654296875,2.8837890625-5.87744140625,5.5458984375-8.43359375,7.98486328125-.63671875.552734375-1.3828125.974609375-2.23583984375,1.27197265625-.728515625.18603515625-1.56591796875.2158203125-2.509765625.09033203125-.9462890625-.12890625-2.03662109375-.7119140625-3.2734375-1.75244140625-1.2470703125-.9208984375-2.68408203125-2.095703125-4.3095703125-3.52392578125-1.6279296875-1.42578125-3.10400390625-2.87158203125-4.43017578125-4.33740234375-1.3271484375-1.46337890625-2.27197265625-2.87158203125-2.830078125-4.22412109375-.560546875-1.35009765625-.44580078125-2.53466796875.34130859375-3.5517578125l32.8447265625-34.50537109375c-2.783203125-4.48828125-5.34130859375-8.75146484375-7.67578125-12.7919921875-2.33642578125-4.0380859375-4.4072265625-7.61279296875-6.212890625-10.72216796875-2.01025390625-3.5986328125-3.85986328125-6.9482421875-5.54541015625-10.04931640625-.54443359375-.75341796875-.845703125-1.548828125-.90283203125-2.388671875-.06982421875-.7197265625.10498046875-1.4814453125.51953125-2.28759765625.41455078125-.802734375,1.306640625-1.6337890625,2.68017578125-2.49169921875,1.37060546875-.85546875,2.99169921875-1.84423828125,4.859375-2.96337890625,1.8671875-1.11962890625,3.693359375-2.09033203125,5.4814453125-2.9189453125,1.78564453125-.826171875,3.4306640625-1.33544921875,4.93603515625-1.52734375,1.5029296875-.18994140625,2.63623046875.21728515625,3.39990234375,1.224609375,2.89111328125,4.6162109375,5.78857421875,9.14404296875,8.6923828125,13.57958984375,2.90380859375,4.43896484375,5.8056640625,8.90576171875,8.70458984375,13.40283203125l21.03369140625-21.75341796875c.87890625-.6533203125,1.93017578125-1.173828125,3.15087890625-1.56494140625.97265625-.2880859375,2.17041015625-.35205078125,3.58984375-.1923828125,1.41845703125.16259765625,2.9189453125.83349609375,4.505859375,2.01806640625,1.70361328125,1.1943359375,3.39794921875,2.50732421875,5.08447265625,3.93701171875,1.6865234375,1.43310546875,3.0693359375,2.9306640625,4.15087890625,4.4970703125,1.07958984375,1.568359375,1.7060546875,3.25,1.87744140625,5.0498046875.16796875,1.7998046875-.41064453125,3.6669921875-1.73779296875,5.5986328125-.5263671875.67822265625-1.5341796875,1.85791015625-3.02294921875,3.54052734375-1.49072265625,1.6826171875-3.388671875,3.66552734375-5.6962890625,5.94384765625-2.3076171875,2.28125-4.9033203125,4.837890625-7.7861328125,7.6728515625-2.88330078125,2.8349609375-5.92724609375,5.81005859375-9.1259765625,8.9189453125,4.1103515625,5.89599609375,8.19580078125,11.7568359375,12.25244140625,17.58740234375,4.05712890625,5.8310546875,8.138671875,11.69384765625,12.25244140625,17.587890625Z"/>
        </g>
        <g>
          <line class="cls-2" x1="46.308795707391255" y1="57.802714540311172" x2="143.541094224622611" y2="64.699383132780895"/>
          <path class="cls-2" d="M46.308837890625,57.802703857421875c4.111655148859427-1.723796261931966,8.275030841968146-3.02047299491187,12.511590351703489-4.180181497903504,8.062469427104588.705537458314211,28.090963796376855,2.010813293563842,36.45826812377436,2.641124390416735,8.019355324968274.569312706509663,28.7004358729655,2.035213678027503,36.462145255920404,2.586177291026615,3.93004289491364,1.732833211584875,8.054689515216523,3.692460956019204,11.800312285026848,5.849529270650237-4.013217237185017,1.607220248222802-8.373471613307629,2.964078096708363-12.507829122335352,4.125426988259278-7.668408951855781-.54395525819109-28.517586154408491-2.022746139541596-36.462161983124133-2.58625522809416-8.457540117207827-.581563029480094-28.253969475936174-2.06946094173145-36.465668025526611-2.531558663406031-4.030638727288533-1.746184380821433-7.968472598844528-3.617103022863375-11.796656885439006-5.90426255094917h0Z"/>
        </g>
      </g>
      <g>
        <g>
          <path class="cls-3" d="M130.1826171875,167.7861328125c.64453125,1.0009765625.982421875,2.09765625,1.0185546875,3.29052734375.04931640625.958984375-.18017578125,2.1044921875-.69091796875,3.4375-.513671875,1.3359375-1.52978515625,2.6630859375-3.05419921875,3.98583984375-1.52392578125,1.322265625-3.16552734375,2.6083984375-4.92236328125,3.8525390625-1.75927734375,1.2470703125-3.5546875,2.22314453125-5.392578125,2.92529296875-1.83837890625.70263671875-3.642578125.93212890625-5.4130859375.689453125-1.77099609375-.24609375-3.4912109375-1.20361328125-5.1611328125-2.86962890625-.89990234375-.77880859375-2.4072265625-2.61279296875-4.5263671875-5.50634765625-2.11962890625-2.89111328125-4.5751953125-6.521484375-7.36279296875-10.8935546875-1.39990234375-2.12451171875-2.87841796875-4.40576171875-4.43212890625-6.84033203125-1.556640625-2.43505859375-3.20068359375-4.90380859375-4.92822265625-7.41259765625-3.8359375,3.66162109375-7.45166015625,7.13232421875-10.84033203125,10.40673828125-3.392578125,3.27685546875-6.3671875,6.13623046875-8.92333984375,8.5751953125-3.0654296875,2.8837890625-5.87744140625,5.5458984375-8.43359375,7.98486328125-.63671875.552734375-1.3828125.974609375-2.23583984375,1.27197265625-.728515625.18603515625-1.56591796875.2158203125-2.509765625.09033203125-.9462890625-.12890625-2.03662109375-.7119140625-3.2734375-1.75244140625-1.2470703125-.9208984375-2.68408203125-2.095703125-4.3095703125-3.52392578125-1.6279296875-1.42578125-3.10400390625-2.87158203125-4.43017578125-4.33740234375-1.3271484375-1.46337890625-2.27197265625-2.87158203125-2.830078125-4.22412109375-.560546875-1.35009765625-.44580078125-2.53466796875.34130859375-3.5517578125l32.8447265625-34.50537109375c-2.783203125-4.48828125-5.34130859375-8.75146484375-7.67578125-12.7919921875-2.33642578125-4.0380859375-4.4072265625-7.61279296875-6.212890625-10.72216796875-2.01025390625-3.5986328125-3.85986328125-6.9482421875-5.54541015625-10.04931640625-.54443359375-.75341796875-.845703125-1.548828125-.90283203125-2.388671875-.06982421875-.7197265625.10498046875-1.4814453125.51953125-2.28759765625.41455078125-.802734375,1.306640625-1.6337890625,2.68017578125-2.49169921875,1.37060546875-.85546875,2.99169921875-1.84423828125,4.859375-2.96337890625,1.8671875-1.11962890625,3.693359375-2.09033203125,5.4814453125-2.9189453125,1.78564453125-.826171875,3.4306640625-1.33544921875,4.93603515625-1.52734375,1.5029296875-.18994140625,2.63623046875.21728515625,3.39990234375,1.224609375,2.89111328125,4.6162109375,5.78857421875,9.14404296875,8.6923828125,13.57958984375,2.90380859375,4.43896484375,5.8056640625,8.90576171875,8.70458984375,13.40283203125l21.03369140625-21.75341796875c.87890625-.6533203125,1.93017578125-1.173828125,3.15087890625-1.56494140625.97265625-.2880859375,2.17041015625-.35205078125,3.58984375-.1923828125,1.41845703125.16259765625,2.9189453125.83349609375,4.505859375,2.01806640625,1.70361328125,1.1943359375,3.39794921875,2.50732421875,5.08447265625,3.93701171875,1.6865234375,1.43310546875,3.0693359375,2.9306640625,4.15087890625,4.4970703125,1.07958984375,1.568359375,1.7060546875,3.25,1.87744140625,5.0498046875.16796875,1.7998046875-.41064453125,3.6669921875-1.73779296875,5.5986328125-.5263671875.67822265625-1.5341796875,1.85791015625-3.02294921875,3.54052734375-1.49072265625,1.6826171875-3.388671875,3.66552734375-5.6962890625,5.94384765625-2.3076171875,2.28125-4.9033203125,4.837890625-7.7861328125,7.6728515625-2.88330078125,2.8349609375-5.92724609375,5.81005859375-9.1259765625,8.9189453125,4.1103515625,5.89599609375,8.19580078125,11.7568359375,12.25244140625,17.58740234375,4.05712890625,5.8310546875,8.138671875,11.69384765625,12.25244140625,17.587890625Z"/>
          <path class="cls-3" d="M130.1826171875,167.7861328125c.64453125,1.0009765625.982421875,2.09765625,1.0185546875,3.29052734375.04931640625.958984375-.18017578125,2.1044921875-.69091796875,3.4375-.513671875,1.3359375-1.52978515625,2.6630859375-3.05419921875,3.98583984375-1.52392578125,1.322265625-3.16552734375,2.6083984375-4.92236328125,3.8525390625-1.75927734375,1.2470703125-3.5546875,2.22314453125-5.392578125,2.92529296875-1.83837890625.70263671875-3.642578125.93212890625-5.4130859375.689453125-1.77099609375-.24609375-3.4912109375-1.20361328125-5.1611328125-2.86962890625-.89990234375-.77880859375-2.4072265625-2.61279296875-4.5263671875-5.50634765625-2.11962890625-2.89111328125-4.5751953125-6.521484375-7.36279296875-10.8935546875-1.39990234375-2.12451171875-2.87841796875-4.40576171875-4.43212890625-6.84033203125-1.556640625-2.43505859375-3.20068359375-4.90380859375-4.92822265625-7.41259765625-3.8359375,3.66162109375-7.45166015625,7.13232421875-10.84033203125,10.40673828125-3.392578125,3.27685546875-6.3671875,6.13623046875-8.92333984375,8.5751953125-3.0654296875,2.8837890625-5.87744140625,5.5458984375-8.43359375,7.98486328125-.63671875.552734375-1.3828125.974609375-2.23583984375,1.27197265625-.728515625.18603515625-1.56591796875.2158203125-2.509765625.09033203125-.9462890625-.12890625-2.03662109375-.7119140625-3.2734375-1.75244140625-1.2470703125-.9208984375-2.68408203125-2.095703125-4.3095703125-3.52392578125-1.6279296875-1.42578125-3.10400390625-2.87158203125-4.43017578125-4.33740234375-1.3271484375-1.46337890625-2.27197265625-2.87158203125-2.830078125-4.22412109375-.560546875-1.35009765625-.44580078125-2.53466796875.34130859375-3.5517578125l32.8447265625-34.50537109375c-2.783203125-4.48828125-5.34130859375-8.75146484375-7.67578125-12.7919921875-2.33642578125-4.0380859375-4.4072265625-7.61279296875-6.212890625-10.72216796875-2.01025390625-3.5986328125-3.85986328125-6.9482421875-5.54541015625-10.04931640625-.54443359375-.75341796875-.845703125-1.548828125-.90283203125-2.388671875-.06982421875-.7197265625.10498046875-1.4814453125.51953125-2.28759765625.41455078125-.802734375,1.306640625-1.6337890625,2.68017578125-2.49169921875,1.37060546875-.85546875,2.99169921875-1.84423828125,4.859375-2.96337890625,1.8671875-1.11962890625,3.693359375-2.09033203125,5.4814453125-2.9189453125,1.78564453125-.826171875,3.4306640625-1.33544921875,4.93603515625-1.52734375,1.5029296875-.18994140625,2.63623046875.21728515625,3.39990234375,1.224609375,2.89111328125,4.6162109375,5.78857421875,9.14404296875,8.6923828125,13.57958984375,2.90380859375,4.43896484375,5.8056640625,8.90576171875,8.70458984375,13.40283203125l21.03369140625-21.75341796875c.87890625-.6533203125,1.93017578125-1.173828125,3.15087890625-1.56494140625.97265625-.2880859375,2.17041015625-.35205078125,3.58984375-.1923828125,1.41845703125.16259765625,2.9189453125.83349609375,4.505859375,2.01806640625,1.70361328125,1.1943359375,3.39794921875,2.50732421875,5.08447265625,3.93701171875,1.6865234375,1.43310546875,3.0693359375,2.9306640625,4.15087890625,4.4970703125,1.07958984375,1.568359375,1.7060546875,3.25,1.87744140625,5.0498046875.16796875,1.7998046875-.41064453125,3.6669921875-1.73779296875,5.5986328125-.5263671875.67822265625-1.5341796875,1.85791015625-3.02294921875,3.54052734375-1.49072265625,1.6826171875-3.388671875,3.66552734375-5.6962890625,5.94384765625-2.3076171875,2.28125-4.9033203125,4.837890625-7.7861328125,7.6728515625-2.88330078125,2.8349609375-5.92724609375,5.81005859375-9.1259765625,8.9189453125,4.1103515625,5.89599609375,8.19580078125,11.7568359375,12.25244140625,17.58740234375,4.05712890625,5.8310546875,8.138671875,11.69384765625,12.25244140625,17.587890625Z"/>
          <path class="cls-3" d="M130.1826171875,167.7861328125c.64453125,1.0009765625.982421875,2.09765625,1.0185546875,3.29052734375.04931640625.958984375-.18017578125,2.1044921875-.69091796875,3.4375-.513671875,1.3359375-1.52978515625,2.6630859375-3.05419921875,3.98583984375-1.52392578125,1.322265625-3.16552734375,2.6083984375-4.92236328125,3.8525390625-1.75927734375,1.2470703125-3.5546875,2.22314453125-5.392578125,2.92529296875-1.83837890625.70263671875-3.642578125.93212890625-5.4130859375.689453125-1.77099609375-.24609375-3.4912109375-1.20361328125-5.1611328125-2.86962890625-.89990234375-.77880859375-2.4072265625-2.61279296875-4.5263671875-5.50634765625-2.11962890625-2.89111328125-4.5751953125-6.521484375-7.36279296875-10.8935546875-1.39990234375-2.12451171875-2.87841796875-4.40576171875-4.43212890625-6.84033203125-1.556640625-2.43505859375-3.20068359375-4.90380859375-4.92822265625-7.41259765625-3.8359375,3.66162109375-7.45166015625,7.13232421875-10.84033203125,10.40673828125-3.392578125,3.27685546875-6.3671875,6.13623046875-8.92333984375,8.5751953125-3.0654296875,2.8837890625-5.87744140625,5.5458984375-8.43359375,7.98486328125-.63671875.552734375-1.3828125.974609375-2.23583984375,1.27197265625-.728515625.18603515625-1.56591796875.2158203125-2.509765625.09033203125-.9462890625-.12890625-2.03662109375-.7119140625-3.2734375-1.75244140625-1.2470703125-.9208984375-2.68408203125-2.095703125-4.3095703125-3.52392578125-1.6279296875-1.42578125-3.10400390625-2.87158203125-4.43017578125-4.33740234375-1.3271484375-1.46337890625-2.27197265625-2.87158203125-2.830078125-4.22412109375-.560546875-1.35009765625-.44580078125-2.53466796875.34130859375-3.5517578125l32.8447265625-34.50537109375c-2.783203125-4.48828125-5.34130859375-8.75146484375-7.67578125-12.7919921875-2.33642578125-4.0380859375-4.4072265625-7.61279296875-6.212890625-10.72216796875-2.01025390625-3.5986328125-3.85986328125-6.9482421875-5.54541015625-10.04931640625-.54443359375-.75341796875-.845703125-1.548828125-.90283203125-2.388671875-.06982421875-.7197265625.10498046875-1.4814453125.51953125-2.28759765625.41455078125-.802734375,1.306640625-1.6337890625,2.68017578125-2.49169921875,1.37060546875-.85546875,2.99169921875-1.84423828125,4.859375-2.96337890625,1.8671875-1.11962890625,3.693359375-2.09033203125,5.4814453125-2.9189453125,1.78564453125-.826171875,3.4306640625-1.33544921875,4.93603515625-1.52734375,1.5029296875-.18994140625,2.63623046875.21728515625,3.39990234375,1.224609375,2.89111328125,4.6162109375,5.78857421875,9.14404296875,8.6923828125,13.57958984375,2.90380859375,4.43896484375,5.8056640625,8.90576171875,8.70458984375,13.40283203125l21.03369140625-21.75341796875c.87890625-.6533203125,1.93017578125-1.173828125,3.15087890625-1.56494140625.97265625-.2880859375,2.17041015625-.35205078125,3.58984375-.1923828125,1.41845703125.16259765625,2.9189453125.83349609375,4.505859375,2.01806640625,1.70361328125,1.1943359375,3.39794921875,2.50732421875,5.08447265625,3.93701171875,1.6865234375,1.43310546875,3.0693359375,2.9306640625,4.15087890625,4.4970703125,1.07958984375,1.568359375,1.7060546875,3.25,1.87744140625,5.0498046875.16796875,1.7998046875-.41064453125,3.6669921875-1.73779296875,5.5986328125-.5263671875.67822265625-1.5341796875,1.85791015625-3.02294921875,3.54052734375-1.49072265625,1.6826171875-3.388671875,3.66552734375-5.6962890625,5.94384765625-2.3076171875,2.28125-4.9033203125,4.837890625-7.7861328125,7.6728515625-2.88330078125,2.8349609375-5.92724609375,5.81005859375-9.1259765625,8.9189453125,4.1103515625,5.89599609375,8.19580078125,11.7568359375,12.25244140625,17.58740234375,4.05712890625,5.8310546875,8.138671875,11.69384765625,12.25244140625,17.587890625Z"/>
        </g>
        <g>
          <line class="cls-3" x1="46.308795707391255" y1="57.802714540311172" x2="143.541094224622611" y2="64.699383132780895"/>
          <path class="cls-3" d="M46.308837890625,57.802703857421875c4.111655148859427-1.723796261931966,8.275030841968146-3.02047299491187,12.511590351703489-4.180181497903504,8.062469427104588.705537458314211,28.090963796376855,2.010813293563842,36.45826812377436,2.641124390416735,8.019355324968274.569312706509663,28.7004358729655,2.035213678027503,36.462145255920404,2.586177291026615,3.93004289491364,1.732833211584875,8.054689515216523,3.692460956019204,11.800312285026848,5.849529270650237-4.013217237185017,1.607220248222802-8.373471613307629,2.964078096708363-12.507829122335352,4.125426988259278-7.668408951855781-.54395525819109-28.517586154408491-2.022746139541596-36.462161983124133-2.58625522809416-8.457540117207827-.581563029480094-28.253969475936174-2.06946094173145-36.465668025526611-2.531558663406031-4.030638727288533-1.746184380821433-7.968472598844528-3.617103022863375-11.796656885439006-5.90426255094917h0Z"/>
        </g>
      </g>
    </g>
  </a>
</svg>