<?xml version="1.0" encoding="UTF-8"?>
<svg id="Content" xmlns="http://www.w3.org/2000/svg" xmlns:xlink="http://www.w3.org/1999/xlink" viewBox="0 0 280 280">
  <defs>
    <style>
      .cls-1 {
        stroke: #665451;
        stroke-width: 50px;
      }

      .cls-1, .cls-2 {
        fill: none;
        stroke-linecap: round;
        stroke-linejoin: round;
      }

      .cls-3 {
        fill: #fff;
      }

      .cls-2 {
        stroke: #998675;
        stroke-width: 2px;
      }
    </style>
  </defs>
  <a xlink:href="https://www.notion.so/congruence/Sample-variance-124f9339b29b8016bf69f661331271fc?pvs=4">
    <g>
      <g>
        <path class="cls-1" d="M97.01708984375,101.177734375c.349853515625-3.3642578125-.208984375-6.17822265625-1.673583984375-8.4423828125-1.46826171875-2.26123046875-3.326416015625-4.02099609375-5.57568359375-5.275390625-2.252197265625-1.25537109375-4.686279296875-2.05078125-7.304443359375-2.39306640625-2.61865234375-.33935546875-4.84033203125-.26416015625-6.658447265625.22607421875-2.375.5693359375-3.960205078125,1.42529296875-4.75830078125,2.5673828125-.80126953125,1.1416015625-1.0634765625,2.37353515625-.792724609375,3.69384765625.270751953125,1.32373046875.883056640625,2.6123046875,1.843505859375,3.86669921875.95703125,1.25732421875,2.07421875,2.2919921875,3.351806640625,3.1044921875,1.531494140625.97607421875,3.26171875,2.0078125,5.1904296875,3.091796875,1.92822265625,1.0869140625,3.7978515625,2.0634765625,5.615234375,2.931640625,1.8134765625.87158203125,3.42919921875,1.68408203125,4.849365234375,2.44384765625,1.4169921875.7607421875,2.510009765625,1.38427734375,3.27587890625,1.8720703125,5.131591796875,2.98388671875,9.558837890625,6.54150390625,13.282470703125,10.67041015625,3.72021484375,4.1318359375,6.47216796875,8.7373046875,8.259033203125,13.82275390625,1.661865234375,4.9384765625,2.289306640625,9.69921875,1.8828125,14.28173828125-.41015625,4.58642578125-1.603271484375,8.85107421875-3.576904296875,12.7958984375-1.9765625,3.94775390625-4.625,7.48046875-7.942138671875,10.60546875-3.3203125,3.12548828125-6.991943359375,5.7041015625-11.011962890625,7.7353515625-5.02294921875,2.47265625-10.17724609375,3.94287109375-15.464111328125,4.4140625-5.289794921875.47021484375-10.387451171875.07421875-15.2900390625-1.1826171875-4.90576171875-1.26025390625-9.556884765625-3.31005859375-13.957275390625-6.14697265625-4.400146484375-2.837890625-8.291015625-6.33984375-11.66650390625-10.5029296875-2.171630859375-2.67529296875-3.806640625-5.6015625-4.9052734375-8.77783203125s-1.619140625-6.35986328125-1.55810546875-9.55322265625c.0576171875-3.18994140625.654541015625-6.29248046875,1.784912109375-9.30712890625,1.1298828125-3.01171875,2.96337890625-5.61181640625,5.506591796875-7.79736328125.4736328125-.6298828125,1.06640625-1.1142578125,1.78369140625-1.447265625,2.052001953125-1.41943359375,4.10009765625-1.8193359375,6.14697265625-1.1982421875,2.043701171875.62158203125,3.38330078125,2.4638671875,4.018798828125,5.52197265625,1.431396484375,5.865234375,4.00927734375,10.82861328125,7.73974609375,14.89111328125,3.727294921875,4.0625,8.47216796875,6.5302734375,14.23486328125,7.40185546875,1.869873046875.3310546875,3.712158203125.28369140625,5.526611328125-.14013671875,1.811279296875-.423828125,3.38525390625-1.1435546875,4.71630859375-2.16357421875,1.33056640625-1.01611328125,2.32080078125-2.37744140625,2.976318359375-4.07958984375.65185546875-1.69873046875.69482421875-3.73583984375.125244140625-6.111328125-.5556640625-2.50732421875-2.124755859375-4.77880859375-4.70068359375-6.81787109375-2.579345703125-2.03466796875-5.48583984375-3.8681640625-8.716552734375-5.49951171875-3.234130859375-1.62841796875-6.478759765625-3.1552734375-9.73046875-4.5849609375-3.255126953125-1.42578125-5.841796875-2.71630859375-7.763427734375-3.86962890625-4.8662109375-2.9560546875-9.098876953125-6.423828125-12.697509765625-10.4052734375-3.601806640625-3.9794921875-5.6328125-8.98876953125-6.092529296875-15.0263671875-.317626953125-4.79541015625.47900390625-9.51025390625,2.39013671875-14.14404296875,1.91064453125-4.63037109375,4.730224609375-8.52197265625,8.461669921875-11.6748046875,2.822021484375-2.2900390625,5.908447265625-4.1474609375,9.255615234375-5.56982421875,3.343994140625-1.41943359375,6.71923828125-2.46533203125,10.125-3.1318359375,3.40283203125-.66650390625,6.73876953125-.9990234375,10.00537109375-1.00048828125,3.26611328125.001953125,6.243896484375.13916015625,8.938720703125.41943359375,4.979736328125.51806640625,9.7216796875,1.7255859375,14.219970703125,3.62255859375,4.497802734375,1.89697265625,8.393310546875,4.34375,11.689208984375,7.34033203125,3.29296875,2.99658203125,5.78759765625,6.49072265625,7.484619140625,10.47607421875,1.693359375,3.98828125,2.220458984375,8.39697265625,1.583984375,13.2294921875-.196533203125,1.88720703125-.914794921875,3.54833984375-2.151611328125,4.982421875-1.240478515625,1.43701171875-2.79443359375,2.63720703125-4.661376953125,3.5986328125-1.87060546875.962890625-3.91162109375,1.60205078125-6.11962890625,1.9150390625-2.21142578125.3154296875-4.52734375.34521484375-6.95068359375.09326171875-1.483154296875-.154296875-2.66015625-.61474609375-3.5302734375-1.38818359375-.87353515625-.77001953125-1.2109375-2.09716796875-1.0146484375-3.98388671875Z"/>
        <path class="cls-1" d="M182.49072265625,105.7412109375c.54833984375.05712890625.9541015625.35791015625,1.2158203125.89990234375.25927734375.54443359375.453857421875,1.15966796875.58154296875,1.84619140625.12548828125.68798828125.171875,1.38671875.138671875,2.09716796875-.03466796875.71044921875-.06787109375,1.22412109375-.100341796875,1.53662109375-.14697265625,1.41357421875-.340576171875,2.88037109375-.576904296875,4.4033203125-.23828125,1.5224609375-.541748046875,2.91943359375-.912109375,4.1904296875-.3701171875,1.27001953125-.837890625,2.33349609375-1.40234375,3.18603515625-.56494140625.85205078125-1.287841796875,1.3125-2.1669921875,1.38134765625-.41015625.115234375-1.2568359375.06640625-2.5439453125-.1455078125-1.287109375-.2138671875-2.82568359375-.4931640625-4.6142578125-.83740234375-1.867431640625-.353515625-3.875-.70068359375-6.02099609375-1.04248046875-2.1474609375-.3427734375-4.35400390625-.67236328125-6.621826171875-.986328125-2.269287109375-.31591796875-4.4619140625-.58349609375-6.581298828125-.80419921875-2.119384765625-.22021484375-4.00732421875-.37744140625-5.6640625-.4697265625-1.42919921875.00927734375-3.18505859375-.09326171875-5.26416015625-.3095703125-2.08056640625-.21630859375-3.85498046875-.52001953125-5.320556640625-.9111328125-1.153076171875-.357421875-1.96044921875-1.37353515625-2.420166015625-3.0478515625-.4619140625-1.673828125-.635498046875-3.61669921875-.524658203125-5.82763671875.11083984375-2.208984375.5263671875-4.48583984375,1.246337890625-6.83251953125.719970703125-2.3447265625,1.64501953125-4.3701171875,2.77490234375-6.07861328125,1.759521484375-2.43603515625,3.69140625-4.5947265625,5.79150390625-6.4794921875,2.100341796875-1.8828125,4.269775390625-3.6806640625,6.511962890625-5.392578125,2.240478515625-1.7099609375,4.523193359375-3.43701171875,6.846923828125-5.17919921875,2.3232421875-1.740234375,4.622802734375-3.64404296875,6.901611328125-5.70849609375.9609375-.8525390625,2.084228515625-2.123046875,3.37255859375-3.81494140625,1.2861328125-1.6904296875,2.2978515625-3.40966796875,3.035888671875-5.1591796875.95166015625-2.28125,1.0986328125-4.09033203125.44580078125-5.4287109375-.655029296875-1.33642578125-1.694091796875-2.2177734375-3.116943359375-2.64501953125-1.4248046875-.4248046875-3.034912109375-.3935546875-4.829833984375.09228515625-1.796875.48828125-3.4013671875,1.41357421875-4.81103515625,2.7724609375-1.2470703125,1.29931640625-2.22265625,2.8642578125-2.92822265625,4.69482421875-.70751953125,1.83056640625-.808349609375,3.76513671875-.305908203125,5.7998046875.115478515625.41015625.245361328125.87939453125.388916015625,1.40966796875.141845703125.53125.22900390625,1.03515625.259033203125,1.51416015625-.036865234375,1.1083984375-.878173828125,2.1513671875-2.52734375,3.12939453125-1.649169921875.97900390625-3.521240234375,1.6181640625-5.614501953125,1.9150390625-2.095458984375.29931640625-4.10107421875.12939453125-6.01708984375-.5068359375-1.91845703125-.634765625-3.1640625-2.013671875-3.7353515625-4.1376953125-.57080078125-2.916015625-.650634765625-5.76025390625-.24267578125-8.53515625.407470703125-2.77294921875,1.16015625-5.43212890625,2.258056640625-7.9775390625,1.097412109375-2.54296875,2.534423828125-4.9130859375,4.31005859375-7.10888671875,1.775634765625-2.1953125,3.7763671875-4.0888671875,6.006591796875-5.68310546875,2.400390625-1.73291015625,5.095458984375-3.0400390625,8.08447265625-3.919921875,2.98681640625-.87890625,6.02392578125-1.27783203125,9.10986328125-1.19482421875,3.0859375.08349609375,6.0595703125.671875,8.921875,1.76171875,2.86181640625,1.09130859375,5.3642578125,2.7802734375,7.5068359375,5.06494140625,1.720458984375,1.767578125,3.02490234375,3.70703125,3.9169921875,5.8232421875.89013671875,2.1162109375,1.455078125,4.31689453125,1.693359375,6.60302734375.23828125,2.28662109375.176025390625,4.60009765625-.186767578125,6.94287109375-.362548828125,2.3427734375-.942626953125,4.6630859375-1.735595703125,6.9609375-1.22412109375,3.365234375-2.8642578125,6.3671875-4.92431640625,9.00927734375-2.06005859375,2.6416015625-4.3232421875,5.12548828125-6.78515625,7.44677734375-2.4638671875,2.3232421875-5.055908203125,4.55322265625-7.77734375,6.68896484375-2.721923828125,2.138671875-5.390869140625,4.33984375-8.0068359375,6.60595703125,7.645263671875.4794921875,15.298828125,1.275390625,22.9599609375,2.38818359375Z"/>
      </g>
      <g>
        <path class="cls-2" d="M97.01708984375,101.177734375c.349853515625-3.3642578125-.208984375-6.17822265625-1.673583984375-8.4423828125-1.46826171875-2.26123046875-3.326416015625-4.02099609375-5.57568359375-5.275390625-2.252197265625-1.25537109375-4.686279296875-2.05078125-7.304443359375-2.39306640625-2.61865234375-.33935546875-4.84033203125-.26416015625-6.658447265625.22607421875-2.375.5693359375-3.960205078125,1.42529296875-4.75830078125,2.5673828125-.80126953125,1.1416015625-1.0634765625,2.37353515625-.792724609375,3.69384765625.270751953125,1.32373046875.883056640625,2.6123046875,1.843505859375,3.86669921875.95703125,1.25732421875,2.07421875,2.2919921875,3.351806640625,3.1044921875,1.531494140625.97607421875,3.26171875,2.0078125,5.1904296875,3.091796875,1.92822265625,1.0869140625,3.7978515625,2.0634765625,5.615234375,2.931640625,1.8134765625.87158203125,3.42919921875,1.68408203125,4.849365234375,2.44384765625,1.4169921875.7607421875,2.510009765625,1.38427734375,3.27587890625,1.8720703125,5.131591796875,2.98388671875,9.558837890625,6.54150390625,13.282470703125,10.67041015625,3.72021484375,4.1318359375,6.47216796875,8.7373046875,8.259033203125,13.82275390625,1.661865234375,4.9384765625,2.289306640625,9.69921875,1.8828125,14.28173828125-.41015625,4.58642578125-1.603271484375,8.85107421875-3.576904296875,12.7958984375-1.9765625,3.94775390625-4.625,7.48046875-7.942138671875,10.60546875-3.3203125,3.12548828125-6.991943359375,5.7041015625-11.011962890625,7.7353515625-5.02294921875,2.47265625-10.17724609375,3.94287109375-15.464111328125,4.4140625-5.289794921875.47021484375-10.387451171875.07421875-15.2900390625-1.1826171875-4.90576171875-1.26025390625-9.556884765625-3.31005859375-13.957275390625-6.14697265625-4.400146484375-2.837890625-8.291015625-6.33984375-11.66650390625-10.5029296875-2.171630859375-2.67529296875-3.806640625-5.6015625-4.9052734375-8.77783203125s-1.619140625-6.35986328125-1.55810546875-9.55322265625c.0576171875-3.18994140625.654541015625-6.29248046875,1.784912109375-9.30712890625,1.1298828125-3.01171875,2.96337890625-5.61181640625,5.506591796875-7.79736328125.4736328125-.6298828125,1.06640625-1.1142578125,1.78369140625-1.447265625,2.052001953125-1.41943359375,4.10009765625-1.8193359375,6.14697265625-1.1982421875,2.043701171875.62158203125,3.38330078125,2.4638671875,4.018798828125,5.52197265625,1.431396484375,5.865234375,4.00927734375,10.82861328125,7.73974609375,14.89111328125,3.727294921875,4.0625,8.47216796875,6.5302734375,14.23486328125,7.40185546875,1.869873046875.3310546875,3.712158203125.28369140625,5.526611328125-.14013671875,1.811279296875-.423828125,3.38525390625-1.1435546875,4.71630859375-2.16357421875,1.33056640625-1.01611328125,2.32080078125-2.37744140625,2.976318359375-4.07958984375.65185546875-1.69873046875.69482421875-3.73583984375.125244140625-6.111328125-.5556640625-2.50732421875-2.124755859375-4.77880859375-4.70068359375-6.81787109375-2.579345703125-2.03466796875-5.48583984375-3.8681640625-8.716552734375-5.49951171875-3.234130859375-1.62841796875-6.478759765625-3.1552734375-9.73046875-4.5849609375-3.255126953125-1.42578125-5.841796875-2.71630859375-7.763427734375-3.86962890625-4.8662109375-2.9560546875-9.098876953125-6.423828125-12.697509765625-10.4052734375-3.601806640625-3.9794921875-5.6328125-8.98876953125-6.092529296875-15.0263671875-.317626953125-4.79541015625.47900390625-9.51025390625,2.39013671875-14.14404296875,1.91064453125-4.63037109375,4.730224609375-8.52197265625,8.461669921875-11.6748046875,2.822021484375-2.2900390625,5.908447265625-4.1474609375,9.255615234375-5.56982421875,3.343994140625-1.41943359375,6.71923828125-2.46533203125,10.125-3.1318359375,3.40283203125-.66650390625,6.73876953125-.9990234375,10.00537109375-1.00048828125,3.26611328125.001953125,6.243896484375.13916015625,8.938720703125.41943359375,4.979736328125.51806640625,9.7216796875,1.7255859375,14.219970703125,3.62255859375,4.497802734375,1.89697265625,8.393310546875,4.34375,11.689208984375,7.34033203125,3.29296875,2.99658203125,5.78759765625,6.49072265625,7.484619140625,10.47607421875,1.693359375,3.98828125,2.220458984375,8.39697265625,1.583984375,13.2294921875-.196533203125,1.88720703125-.914794921875,3.54833984375-2.151611328125,4.982421875-1.240478515625,1.43701171875-2.79443359375,2.63720703125-4.661376953125,3.5986328125-1.87060546875.962890625-3.91162109375,1.60205078125-6.11962890625,1.9150390625-2.21142578125.3154296875-4.52734375.34521484375-6.95068359375.09326171875-1.483154296875-.154296875-2.66015625-.61474609375-3.5302734375-1.38818359375-.87353515625-.77001953125-1.2109375-2.09716796875-1.0146484375-3.98388671875Z"/>
        <path class="cls-2" d="M182.49072265625,105.7412109375c.54833984375.05712890625.9541015625.35791015625,1.2158203125.89990234375.25927734375.54443359375.453857421875,1.15966796875.58154296875,1.84619140625.12548828125.68798828125.171875,1.38671875.138671875,2.09716796875-.03466796875.71044921875-.06787109375,1.22412109375-.100341796875,1.53662109375-.14697265625,1.41357421875-.340576171875,2.88037109375-.576904296875,4.4033203125-.23828125,1.5224609375-.541748046875,2.91943359375-.912109375,4.1904296875-.3701171875,1.27001953125-.837890625,2.33349609375-1.40234375,3.18603515625-.56494140625.85205078125-1.287841796875,1.3125-2.1669921875,1.38134765625-.41015625.115234375-1.2568359375.06640625-2.5439453125-.1455078125-1.287109375-.2138671875-2.82568359375-.4931640625-4.6142578125-.83740234375-1.867431640625-.353515625-3.875-.70068359375-6.02099609375-1.04248046875-2.1474609375-.3427734375-4.35400390625-.67236328125-6.621826171875-.986328125-2.269287109375-.31591796875-4.4619140625-.58349609375-6.581298828125-.80419921875-2.119384765625-.22021484375-4.00732421875-.37744140625-5.6640625-.4697265625-1.42919921875.00927734375-3.18505859375-.09326171875-5.26416015625-.3095703125-2.08056640625-.21630859375-3.85498046875-.52001953125-5.320556640625-.9111328125-1.153076171875-.357421875-1.96044921875-1.37353515625-2.420166015625-3.0478515625-.4619140625-1.673828125-.635498046875-3.61669921875-.524658203125-5.82763671875.11083984375-2.208984375.5263671875-4.48583984375,1.246337890625-6.83251953125.719970703125-2.3447265625,1.64501953125-4.3701171875,2.77490234375-6.07861328125,1.759521484375-2.43603515625,3.69140625-4.5947265625,5.79150390625-6.4794921875,2.100341796875-1.8828125,4.269775390625-3.6806640625,6.511962890625-5.392578125,2.240478515625-1.7099609375,4.523193359375-3.43701171875,6.846923828125-5.17919921875,2.3232421875-1.740234375,4.622802734375-3.64404296875,6.901611328125-5.70849609375.9609375-.8525390625,2.084228515625-2.123046875,3.37255859375-3.81494140625,1.2861328125-1.6904296875,2.2978515625-3.40966796875,3.035888671875-5.1591796875.95166015625-2.28125,1.0986328125-4.09033203125.44580078125-5.4287109375-.655029296875-1.33642578125-1.694091796875-2.2177734375-3.116943359375-2.64501953125-1.4248046875-.4248046875-3.034912109375-.3935546875-4.829833984375.09228515625-1.796875.48828125-3.4013671875,1.41357421875-4.81103515625,2.7724609375-1.2470703125,1.29931640625-2.22265625,2.8642578125-2.92822265625,4.69482421875-.70751953125,1.83056640625-.808349609375,3.76513671875-.305908203125,5.7998046875.115478515625.41015625.245361328125.87939453125.388916015625,1.40966796875.141845703125.53125.22900390625,1.03515625.259033203125,1.51416015625-.036865234375,1.1083984375-.878173828125,2.1513671875-2.52734375,3.12939453125-1.649169921875.97900390625-3.521240234375,1.6181640625-5.614501953125,1.9150390625-2.095458984375.29931640625-4.10107421875.12939453125-6.01708984375-.5068359375-1.91845703125-.634765625-3.1640625-2.013671875-3.7353515625-4.1376953125-.57080078125-2.916015625-.650634765625-5.76025390625-.24267578125-8.53515625.407470703125-2.77294921875,1.16015625-5.43212890625,2.258056640625-7.9775390625,1.097412109375-2.54296875,2.534423828125-4.9130859375,4.31005859375-7.10888671875,1.775634765625-2.1953125,3.7763671875-4.0888671875,6.006591796875-5.68310546875,2.400390625-1.73291015625,5.095458984375-3.0400390625,8.08447265625-3.919921875,2.98681640625-.87890625,6.02392578125-1.27783203125,9.10986328125-1.19482421875,3.0859375.08349609375,6.0595703125.671875,8.921875,1.76171875,2.86181640625,1.09130859375,5.3642578125,2.7802734375,7.5068359375,5.06494140625,1.720458984375,1.767578125,3.02490234375,3.70703125,3.9169921875,5.8232421875.89013671875,2.1162109375,1.455078125,4.31689453125,1.693359375,6.60302734375.23828125,2.28662109375.176025390625,4.60009765625-.186767578125,6.94287109375-.362548828125,2.3427734375-.942626953125,4.6630859375-1.735595703125,6.9609375-1.22412109375,3.365234375-2.8642578125,6.3671875-4.92431640625,9.00927734375-2.06005859375,2.6416015625-4.3232421875,5.12548828125-6.78515625,7.44677734375-2.4638671875,2.3232421875-5.055908203125,4.55322265625-7.77734375,6.68896484375-2.721923828125,2.138671875-5.390869140625,4.33984375-8.0068359375,6.60595703125,7.645263671875.4794921875,15.298828125,1.275390625,22.9599609375,2.38818359375Z"/>
      </g>
      <g>
        <path class="cls-3" d="M97.01708984375,101.177734375c.349853515625-3.3642578125-.208984375-6.17822265625-1.673583984375-8.4423828125-1.46826171875-2.26123046875-3.326416015625-4.02099609375-5.57568359375-5.275390625-2.252197265625-1.25537109375-4.686279296875-2.05078125-7.304443359375-2.39306640625-2.61865234375-.33935546875-4.84033203125-.26416015625-6.658447265625.22607421875-2.375.5693359375-3.960205078125,1.42529296875-4.75830078125,2.5673828125-.80126953125,1.1416015625-1.0634765625,2.37353515625-.792724609375,3.69384765625.270751953125,1.32373046875.883056640625,2.6123046875,1.843505859375,3.86669921875.95703125,1.25732421875,2.07421875,2.2919921875,3.351806640625,3.1044921875,1.531494140625.97607421875,3.26171875,2.0078125,5.1904296875,3.091796875,1.92822265625,1.0869140625,3.7978515625,2.0634765625,5.615234375,2.931640625,1.8134765625.87158203125,3.42919921875,1.68408203125,4.849365234375,2.44384765625,1.4169921875.7607421875,2.510009765625,1.38427734375,3.27587890625,1.8720703125,5.131591796875,2.98388671875,9.558837890625,6.54150390625,13.282470703125,10.67041015625,3.72021484375,4.1318359375,6.47216796875,8.7373046875,8.259033203125,13.82275390625,1.661865234375,4.9384765625,2.289306640625,9.69921875,1.8828125,14.28173828125-.41015625,4.58642578125-1.603271484375,8.85107421875-3.576904296875,12.7958984375-1.9765625,3.94775390625-4.625,7.48046875-7.942138671875,10.60546875-3.3203125,3.12548828125-6.991943359375,5.7041015625-11.011962890625,7.7353515625-5.02294921875,2.47265625-10.17724609375,3.94287109375-15.464111328125,4.4140625-5.289794921875.47021484375-10.387451171875.07421875-15.2900390625-1.1826171875-4.90576171875-1.26025390625-9.556884765625-3.31005859375-13.957275390625-6.14697265625-4.400146484375-2.837890625-8.291015625-6.33984375-11.66650390625-10.5029296875-2.171630859375-2.67529296875-3.806640625-5.6015625-4.9052734375-8.77783203125s-1.619140625-6.35986328125-1.55810546875-9.55322265625c.0576171875-3.18994140625.654541015625-6.29248046875,1.784912109375-9.30712890625,1.1298828125-3.01171875,2.96337890625-5.61181640625,5.506591796875-7.79736328125.4736328125-.6298828125,1.06640625-1.1142578125,1.78369140625-1.447265625,2.052001953125-1.41943359375,4.10009765625-1.8193359375,6.14697265625-1.1982421875,2.043701171875.62158203125,3.38330078125,2.4638671875,4.018798828125,5.52197265625,1.431396484375,5.865234375,4.00927734375,10.82861328125,7.73974609375,14.89111328125,3.727294921875,4.0625,8.47216796875,6.5302734375,14.23486328125,7.40185546875,1.869873046875.3310546875,3.712158203125.28369140625,5.526611328125-.14013671875,1.811279296875-.423828125,3.38525390625-1.1435546875,4.71630859375-2.16357421875,1.33056640625-1.01611328125,2.32080078125-2.37744140625,2.976318359375-4.07958984375.65185546875-1.69873046875.69482421875-3.73583984375.125244140625-6.111328125-.5556640625-2.50732421875-2.124755859375-4.77880859375-4.70068359375-6.81787109375-2.579345703125-2.03466796875-5.48583984375-3.8681640625-8.716552734375-5.49951171875-3.234130859375-1.62841796875-6.478759765625-3.1552734375-9.73046875-4.5849609375-3.255126953125-1.42578125-5.841796875-2.71630859375-7.763427734375-3.86962890625-4.8662109375-2.9560546875-9.098876953125-6.423828125-12.697509765625-10.4052734375-3.601806640625-3.9794921875-5.6328125-8.98876953125-6.092529296875-15.0263671875-.317626953125-4.79541015625.47900390625-9.51025390625,2.39013671875-14.14404296875,1.91064453125-4.63037109375,4.730224609375-8.52197265625,8.461669921875-11.6748046875,2.822021484375-2.2900390625,5.908447265625-4.1474609375,9.255615234375-5.56982421875,3.343994140625-1.41943359375,6.71923828125-2.46533203125,10.125-3.1318359375,3.40283203125-.66650390625,6.73876953125-.9990234375,10.00537109375-1.00048828125,3.26611328125.001953125,6.243896484375.13916015625,8.938720703125.41943359375,4.979736328125.51806640625,9.7216796875,1.7255859375,14.219970703125,3.62255859375,4.497802734375,1.89697265625,8.393310546875,4.34375,11.689208984375,7.34033203125,3.29296875,2.99658203125,5.78759765625,6.49072265625,7.484619140625,10.47607421875,1.693359375,3.98828125,2.220458984375,8.39697265625,1.583984375,13.2294921875-.196533203125,1.88720703125-.914794921875,3.54833984375-2.151611328125,4.982421875-1.240478515625,1.43701171875-2.79443359375,2.63720703125-4.661376953125,3.5986328125-1.87060546875.962890625-3.91162109375,1.60205078125-6.11962890625,1.9150390625-2.21142578125.3154296875-4.52734375.34521484375-6.95068359375.09326171875-1.483154296875-.154296875-2.66015625-.61474609375-3.5302734375-1.38818359375-.87353515625-.77001953125-1.2109375-2.09716796875-1.0146484375-3.98388671875Z"/>
        <path class="cls-3" d="M182.49072265625,105.7412109375c.54833984375.05712890625.9541015625.35791015625,1.2158203125.89990234375.25927734375.54443359375.453857421875,1.15966796875.58154296875,1.84619140625.12548828125.68798828125.171875,1.38671875.138671875,2.09716796875-.03466796875.71044921875-.06787109375,1.22412109375-.100341796875,1.53662109375-.14697265625,1.41357421875-.340576171875,2.88037109375-.576904296875,4.4033203125-.23828125,1.5224609375-.541748046875,2.91943359375-.912109375,4.1904296875-.3701171875,1.27001953125-.837890625,2.33349609375-1.40234375,3.18603515625-.56494140625.85205078125-1.287841796875,1.3125-2.1669921875,1.38134765625-.41015625.115234375-1.2568359375.06640625-2.5439453125-.1455078125-1.287109375-.2138671875-2.82568359375-.4931640625-4.6142578125-.83740234375-1.867431640625-.353515625-3.875-.70068359375-6.02099609375-1.04248046875-2.1474609375-.3427734375-4.35400390625-.67236328125-6.621826171875-.986328125-2.269287109375-.31591796875-4.4619140625-.58349609375-6.581298828125-.80419921875-2.119384765625-.22021484375-4.00732421875-.37744140625-5.6640625-.4697265625-1.42919921875.00927734375-3.18505859375-.09326171875-5.26416015625-.3095703125-2.08056640625-.21630859375-3.85498046875-.52001953125-5.320556640625-.9111328125-1.153076171875-.357421875-1.96044921875-1.37353515625-2.420166015625-3.0478515625-.4619140625-1.673828125-.635498046875-3.61669921875-.524658203125-5.82763671875.11083984375-2.208984375.5263671875-4.48583984375,1.246337890625-6.83251953125.719970703125-2.3447265625,1.64501953125-4.3701171875,2.77490234375-6.07861328125,1.759521484375-2.43603515625,3.69140625-4.5947265625,5.79150390625-6.4794921875,2.100341796875-1.8828125,4.269775390625-3.6806640625,6.511962890625-5.392578125,2.240478515625-1.7099609375,4.523193359375-3.43701171875,6.846923828125-5.17919921875,2.3232421875-1.740234375,4.622802734375-3.64404296875,6.901611328125-5.70849609375.9609375-.8525390625,2.084228515625-2.123046875,3.37255859375-3.81494140625,1.2861328125-1.6904296875,2.2978515625-3.40966796875,3.035888671875-5.1591796875.95166015625-2.28125,1.0986328125-4.09033203125.44580078125-5.4287109375-.655029296875-1.33642578125-1.694091796875-2.2177734375-3.116943359375-2.64501953125-1.4248046875-.4248046875-3.034912109375-.3935546875-4.829833984375.09228515625-1.796875.48828125-3.4013671875,1.41357421875-4.81103515625,2.7724609375-1.2470703125,1.29931640625-2.22265625,2.8642578125-2.92822265625,4.69482421875-.70751953125,1.83056640625-.808349609375,3.76513671875-.305908203125,5.7998046875.115478515625.41015625.245361328125.87939453125.388916015625,1.40966796875.141845703125.53125.22900390625,1.03515625.259033203125,1.51416015625-.036865234375,1.1083984375-.878173828125,2.1513671875-2.52734375,3.12939453125-1.649169921875.97900390625-3.521240234375,1.6181640625-5.614501953125,1.9150390625-2.095458984375.29931640625-4.10107421875.12939453125-6.01708984375-.5068359375-1.91845703125-.634765625-3.1640625-2.013671875-3.7353515625-4.1376953125-.57080078125-2.916015625-.650634765625-5.76025390625-.24267578125-8.53515625.407470703125-2.77294921875,1.16015625-5.43212890625,2.258056640625-7.9775390625,1.097412109375-2.54296875,2.534423828125-4.9130859375,4.31005859375-7.10888671875,1.775634765625-2.1953125,3.7763671875-4.0888671875,6.006591796875-5.68310546875,2.400390625-1.73291015625,5.095458984375-3.0400390625,8.08447265625-3.919921875,2.98681640625-.87890625,6.02392578125-1.27783203125,9.10986328125-1.19482421875,3.0859375.08349609375,6.0595703125.671875,8.921875,1.76171875,2.86181640625,1.09130859375,5.3642578125,2.7802734375,7.5068359375,5.06494140625,1.720458984375,1.767578125,3.02490234375,3.70703125,3.9169921875,5.8232421875.89013671875,2.1162109375,1.455078125,4.31689453125,1.693359375,6.60302734375.23828125,2.28662109375.176025390625,4.60009765625-.186767578125,6.94287109375-.362548828125,2.3427734375-.942626953125,4.6630859375-1.735595703125,6.9609375-1.22412109375,3.365234375-2.8642578125,6.3671875-4.92431640625,9.00927734375-2.06005859375,2.6416015625-4.3232421875,5.12548828125-6.78515625,7.44677734375-2.4638671875,2.3232421875-5.055908203125,4.55322265625-7.77734375,6.68896484375-2.721923828125,2.138671875-5.390869140625,4.33984375-8.0068359375,6.60595703125,7.645263671875.4794921875,15.298828125,1.275390625,22.9599609375,2.38818359375Z"/>
      </g>
    </g>
  </a>
</svg>