<?xml version="1.0" encoding="UTF-8"?>
<svg id="Content" xmlns="http://www.w3.org/2000/svg" viewBox="0 0 280 280">
  <defs>
    <style>
      .cls-1 {
        stroke: #665451;
        stroke-width: 50px;
      }

      .cls-1, .cls-2 {
        fill: none;
        stroke-linecap: round;
        stroke-linejoin: round;
      }

      .cls-3 {
        fill: #fff;
      }

      .cls-2 {
        stroke: #998675;
        stroke-width: 2px;
      }
    </style>
  </defs>
  <g>
    <path d="M137.183837890625,151.6669921875c.75439453125.875,1.2275390625,1.8828125,1.4228515625,3.02392578125.17724609375.9150390625.11083984375,2.046875-.19970703125,3.39794921875-.3134765625,1.35205078125-1.10986328125,2.76611328125-2.396484375,4.2421875-1.2861328125,1.47705078125-2.6904296875,2.9345703125-4.2099609375,4.3671875-1.52197265625,1.4365234375-3.1162109375,2.61767578125-4.787109375,3.54052734375-1.671875.9228515625-3.375,1.38720703125-5.109375,1.39208984375-1.73486328125.0029296875-3.5166015625-.6845703125-5.3466796875-2.06005859375-.97119140625-.62646484375-2.66650390625-2.1845703125-5.09423828125-4.68017578125-2.42724609375-2.49169921875-5.27685546875-5.64892578125-8.54736328125-9.47412109375-1.6318359375-1.8525390625-3.36083984375-3.84521484375-5.18310546875-5.9755859375-1.82470703125-2.1298828125-3.73828125-4.2802734375-5.73681640625-6.4580078125-3.19140625,4.0380859375-6.197265625,7.86083984375-9.0126953125,11.46533203125-2.8173828125,3.60791015625-5.28955078125,6.75732421875-7.416015625,9.4462890625-2.556640625,3.185546875-4.89990234375,6.123046875-7.02685546875,8.81298828125-.53759765625.61669921875-1.1962890625,1.12353515625-1.97705078125,1.5244140625-.6748046875.2763671875-1.4755859375.4189453125-2.3994140625.42529296875-.9267578125.00439453125-2.05322265625-.40869140625-3.38232421875-1.2412109375-1.32373046875-.71630859375-2.8623046875-1.65234375-4.6171875-2.80517578125-1.7578125-1.1494140625-3.37158203125-2.34033203125-4.84423828125-3.5693359375-1.47216796875-1.22705078125-2.57080078125-2.453125-3.28955078125-3.67724609375-.72119140625-1.22216796875-.7705078125-2.37646484375-.15185546875-3.458984375l26.9033203125-37.595703125c-3.28076171875-3.93798828125-6.31494140625-7.689453125-9.103515625-11.2578125-2.79150390625-3.56494140625-5.2646484375-6.720703125-7.4189453125-9.46484375-2.41845703125-3.1865234375-4.64794921875-6.1552734375-6.6865234375-8.9072265625-.625-.6513671875-1.0224609375-1.375-1.19140625-2.173828125-.1630859375-.68310546875-.0986328125-1.43798828125.19091796875-2.2685546875.2900390625-.828125,1.03466796875-1.74658203125,2.2392578125-2.7568359375,1.20166015625-1.00732421875,2.6259765625-2.17626953125,4.26953125-3.50390625,1.642578125-1.328125,3.2666015625-2.5078125,4.87353515625-3.5458984375,1.60400390625-1.03515625,3.1162109375-1.74658203125,4.537109375-2.134765625,1.41796875-.384765625,2.5625-.14697265625,3.43310546875.7177734375,3.40185546875,4.0458984375,6.7978515625,8.00634765625,10.18701171875,11.87646484375,3.390625,3.87353515625,6.78173828125,7.77392578125,10.17578125,11.70361328125l17.27490234375-23.74560546875c.7568359375-.74609375,1.69677734375-1.388671875,2.81689453125-1.92919921875.89599609375-.40869140625,2.0380859375-.630859375,3.42333984375-.669921875,1.3857421875-.03564453125,2.91796875.40625,4.60302734375,1.33056640625,1.7978515625.91748046875,3.6044921875,1.95068359375,5.41845703125,3.09716796875,1.814453125,1.1484375,3.345703125,2.4013671875,4.5966796875,3.7607421875,1.24853515625,1.36083984375,2.07763671875,2.892578125,2.48583984375,4.599609375.4052734375,1.70654296875.1005859375,3.5791015625-.91455078125,5.615234375-.41357421875.72216796875-1.22314453125,1.99267578125-2.42626953125,3.81005859375-1.20556640625,1.81884765625-2.76171875,3.98046875-4.671875,6.48193359375-1.9091796875,2.50341796875-4.0576171875,5.31103515625-6.4453125,8.42529296875-2.38818359375,3.11376953125-4.91162109375,6.3837890625-7.56591796875,9.80322265625,4.7470703125,5.11083984375,9.46484375,10.19140625,14.15087890625,15.2470703125,4.685546875,5.05517578125,9.400390625,10.138671875,14.14990234375,15.2470703125Z"/>
    <path d="M41.71435546875,57.257831573486328c3.710547061839861-2.268959280807394,7.533080349950069-4.124702080861425,11.448845389269991-5.856148578956891,3.939704415419328-.16152491347475,7.866462227919328-.511752269431781,11.80030011854069-.758364818259906,11.763256814159831-.808666631020969,35.426225368439191-2.443667640225613,47.185975494869126-3.252700239379919-.000062408929807-.000000566282324,11.796446380139969-.813175767700159,11.796446380139969-.813175767700159,4.016279985660731,1.177878781380969,8.251215602020238,2.554422426391284,12.140272195270882,4.174967920598647-3.630365940420234,2.139237657755075-7.636897064860023,4.083175153959019-11.452648442231293,5.801370099160522-.000001682739821-.000012030989637-11.796388401489821.813163170426378-11.796388401489821.813163170426378-11.758901411849365.80835818815558-35.429369798669541,2.443876567887855-47.185965947439399,3.25269958708941-3.930489130680144.295506742256293-7.868111200990825.487397458809028-11.792671747869463.867985990303168-4.116263143100696-1.177998605077846-8.156349971830423-2.491341725455641-12.144165039060681-4.22979736328125h0Z"/>
  </g>
  <g>
    <g>
      <path class="cls-1" d="M137.183837890625,151.6669921875c.75439453125.875,1.2275390625,1.8828125,1.4228515625,3.02392578125.17724609375.9150390625.11083984375,2.046875-.19970703125,3.39794921875-.3134765625,1.35205078125-1.10986328125,2.76611328125-2.396484375,4.2421875-1.2861328125,1.47705078125-2.6904296875,2.9345703125-4.2099609375,4.3671875-1.52197265625,1.4365234375-3.1162109375,2.61767578125-4.787109375,3.54052734375-1.671875.9228515625-3.375,1.38720703125-5.109375,1.39208984375-1.73486328125.0029296875-3.5166015625-.6845703125-5.3466796875-2.06005859375-.97119140625-.62646484375-2.66650390625-2.1845703125-5.09423828125-4.68017578125-2.42724609375-2.49169921875-5.27685546875-5.64892578125-8.54736328125-9.47412109375-1.6318359375-1.8525390625-3.36083984375-3.84521484375-5.18310546875-5.9755859375-1.82470703125-2.1298828125-3.73828125-4.2802734375-5.73681640625-6.4580078125-3.19140625,4.0380859375-6.197265625,7.86083984375-9.0126953125,11.46533203125-2.8173828125,3.60791015625-5.28955078125,6.75732421875-7.416015625,9.4462890625-2.556640625,3.185546875-4.89990234375,6.123046875-7.02685546875,8.81298828125-.53759765625.61669921875-1.1962890625,1.12353515625-1.97705078125,1.5244140625-.6748046875.2763671875-1.4755859375.4189453125-2.3994140625.42529296875-.9267578125.00439453125-2.05322265625-.40869140625-3.38232421875-1.2412109375-1.32373046875-.71630859375-2.8623046875-1.65234375-4.6171875-2.80517578125-1.7578125-1.1494140625-3.37158203125-2.34033203125-4.84423828125-3.5693359375-1.47216796875-1.22705078125-2.57080078125-2.453125-3.28955078125-3.67724609375-.72119140625-1.22216796875-.7705078125-2.37646484375-.15185546875-3.458984375l26.9033203125-37.595703125c-3.28076171875-3.93798828125-6.31494140625-7.689453125-9.103515625-11.2578125-2.79150390625-3.56494140625-5.2646484375-6.720703125-7.4189453125-9.46484375-2.41845703125-3.1865234375-4.64794921875-6.1552734375-6.6865234375-8.9072265625-.625-.6513671875-1.0224609375-1.375-1.19140625-2.173828125-.1630859375-.68310546875-.0986328125-1.43798828125.19091796875-2.2685546875.2900390625-.828125,1.03466796875-1.74658203125,2.2392578125-2.7568359375,1.20166015625-1.00732421875,2.6259765625-2.17626953125,4.26953125-3.50390625,1.642578125-1.328125,3.2666015625-2.5078125,4.87353515625-3.5458984375,1.60400390625-1.03515625,3.1162109375-1.74658203125,4.537109375-2.134765625,1.41796875-.384765625,2.5625-.14697265625,3.43310546875.7177734375,3.40185546875,4.0458984375,6.7978515625,8.00634765625,10.18701171875,11.87646484375,3.390625,3.87353515625,6.78173828125,7.77392578125,10.17578125,11.70361328125l17.27490234375-23.74560546875c.7568359375-.74609375,1.69677734375-1.388671875,2.81689453125-1.92919921875.89599609375-.40869140625,2.0380859375-.630859375,3.42333984375-.669921875,1.3857421875-.03564453125,2.91796875.40625,4.60302734375,1.33056640625,1.7978515625.91748046875,3.6044921875,1.95068359375,5.41845703125,3.09716796875,1.814453125,1.1484375,3.345703125,2.4013671875,4.5966796875,3.7607421875,1.24853515625,1.36083984375,2.07763671875,2.892578125,2.48583984375,4.599609375.4052734375,1.70654296875.1005859375,3.5791015625-.91455078125,5.615234375-.41357421875.72216796875-1.22314453125,1.99267578125-2.42626953125,3.81005859375-1.20556640625,1.81884765625-2.76171875,3.98046875-4.671875,6.48193359375-1.9091796875,2.50341796875-4.0576171875,5.31103515625-6.4453125,8.42529296875-2.38818359375,3.11376953125-4.91162109375,6.3837890625-7.56591796875,9.80322265625,4.7470703125,5.11083984375,9.46484375,10.19140625,14.15087890625,15.2470703125,4.685546875,5.05517578125,9.400390625,10.138671875,14.14990234375,15.2470703125Z"/>
      <path class="cls-1" d="M137.183837890625,151.6669921875c.75439453125.875,1.2275390625,1.8828125,1.4228515625,3.02392578125.17724609375.9150390625.11083984375,2.046875-.19970703125,3.39794921875-.3134765625,1.35205078125-1.10986328125,2.76611328125-2.396484375,4.2421875-1.2861328125,1.47705078125-2.6904296875,2.9345703125-4.2099609375,4.3671875-1.52197265625,1.4365234375-3.1162109375,2.61767578125-4.787109375,3.54052734375-1.671875.9228515625-3.375,1.38720703125-5.109375,1.39208984375-1.73486328125.0029296875-3.5166015625-.6845703125-5.3466796875-2.06005859375-.97119140625-.62646484375-2.66650390625-2.1845703125-5.09423828125-4.68017578125-2.42724609375-2.49169921875-5.27685546875-5.64892578125-8.54736328125-9.47412109375-1.6318359375-1.8525390625-3.36083984375-3.84521484375-5.18310546875-5.9755859375-1.82470703125-2.1298828125-3.73828125-4.2802734375-5.73681640625-6.4580078125-3.19140625,4.0380859375-6.197265625,7.86083984375-9.0126953125,11.46533203125-2.8173828125,3.60791015625-5.28955078125,6.75732421875-7.416015625,9.4462890625-2.556640625,3.185546875-4.89990234375,6.123046875-7.02685546875,8.81298828125-.53759765625.61669921875-1.1962890625,1.12353515625-1.97705078125,1.5244140625-.6748046875.2763671875-1.4755859375.4189453125-2.3994140625.42529296875-.9267578125.00439453125-2.05322265625-.40869140625-3.38232421875-1.2412109375-1.32373046875-.71630859375-2.8623046875-1.65234375-4.6171875-2.80517578125-1.7578125-1.1494140625-3.37158203125-2.34033203125-4.84423828125-3.5693359375-1.47216796875-1.22705078125-2.57080078125-2.453125-3.28955078125-3.67724609375-.72119140625-1.22216796875-.7705078125-2.37646484375-.15185546875-3.458984375l26.9033203125-37.595703125c-3.28076171875-3.93798828125-6.31494140625-7.689453125-9.103515625-11.2578125-2.79150390625-3.56494140625-5.2646484375-6.720703125-7.4189453125-9.46484375-2.41845703125-3.1865234375-4.64794921875-6.1552734375-6.6865234375-8.9072265625-.625-.6513671875-1.0224609375-1.375-1.19140625-2.173828125-.1630859375-.68310546875-.0986328125-1.43798828125.19091796875-2.2685546875.2900390625-.828125,1.03466796875-1.74658203125,2.2392578125-2.7568359375,1.20166015625-1.00732421875,2.6259765625-2.17626953125,4.26953125-3.50390625,1.642578125-1.328125,3.2666015625-2.5078125,4.87353515625-3.5458984375,1.60400390625-1.03515625,3.1162109375-1.74658203125,4.537109375-2.134765625,1.41796875-.384765625,2.5625-.14697265625,3.43310546875.7177734375,3.40185546875,4.0458984375,6.7978515625,8.00634765625,10.18701171875,11.87646484375,3.390625,3.87353515625,6.78173828125,7.77392578125,10.17578125,11.70361328125l17.27490234375-23.74560546875c.7568359375-.74609375,1.69677734375-1.388671875,2.81689453125-1.92919921875.89599609375-.40869140625,2.0380859375-.630859375,3.42333984375-.669921875,1.3857421875-.03564453125,2.91796875.40625,4.60302734375,1.33056640625,1.7978515625.91748046875,3.6044921875,1.95068359375,5.41845703125,3.09716796875,1.814453125,1.1484375,3.345703125,2.4013671875,4.5966796875,3.7607421875,1.24853515625,1.36083984375,2.07763671875,2.892578125,2.48583984375,4.599609375.4052734375,1.70654296875.1005859375,3.5791015625-.91455078125,5.615234375-.41357421875.72216796875-1.22314453125,1.99267578125-2.42626953125,3.81005859375-1.20556640625,1.81884765625-2.76171875,3.98046875-4.671875,6.48193359375-1.9091796875,2.50341796875-4.0576171875,5.31103515625-6.4453125,8.42529296875-2.38818359375,3.11376953125-4.91162109375,6.3837890625-7.56591796875,9.80322265625,4.7470703125,5.11083984375,9.46484375,10.19140625,14.15087890625,15.2470703125,4.685546875,5.05517578125,9.400390625,10.138671875,14.14990234375,15.2470703125Z"/>
      <path class="cls-1" d="M137.183837890625,151.6669921875c.75439453125.875,1.2275390625,1.8828125,1.4228515625,3.02392578125.17724609375.9150390625.11083984375,2.046875-.19970703125,3.39794921875-.3134765625,1.35205078125-1.10986328125,2.76611328125-2.396484375,4.2421875-1.2861328125,1.47705078125-2.6904296875,2.9345703125-4.2099609375,4.3671875-1.52197265625,1.4365234375-3.1162109375,2.61767578125-4.787109375,3.54052734375-1.671875.9228515625-3.375,1.38720703125-5.109375,1.39208984375-1.73486328125.0029296875-3.5166015625-.6845703125-5.3466796875-2.06005859375-.97119140625-.62646484375-2.66650390625-2.1845703125-5.09423828125-4.68017578125-2.42724609375-2.49169921875-5.27685546875-5.64892578125-8.54736328125-9.47412109375-1.6318359375-1.8525390625-3.36083984375-3.84521484375-5.18310546875-5.9755859375-1.82470703125-2.1298828125-3.73828125-4.2802734375-5.73681640625-6.4580078125-3.19140625,4.0380859375-6.197265625,7.86083984375-9.0126953125,11.46533203125-2.8173828125,3.60791015625-5.28955078125,6.75732421875-7.416015625,9.4462890625-2.556640625,3.185546875-4.89990234375,6.123046875-7.02685546875,8.81298828125-.53759765625.61669921875-1.1962890625,1.12353515625-1.97705078125,1.5244140625-.6748046875.2763671875-1.4755859375.4189453125-2.3994140625.42529296875-.9267578125.00439453125-2.05322265625-.40869140625-3.38232421875-1.2412109375-1.32373046875-.71630859375-2.8623046875-1.65234375-4.6171875-2.80517578125-1.7578125-1.1494140625-3.37158203125-2.34033203125-4.84423828125-3.5693359375-1.47216796875-1.22705078125-2.57080078125-2.453125-3.28955078125-3.67724609375-.72119140625-1.22216796875-.7705078125-2.37646484375-.15185546875-3.458984375l26.9033203125-37.595703125c-3.28076171875-3.93798828125-6.31494140625-7.689453125-9.103515625-11.2578125-2.79150390625-3.56494140625-5.2646484375-6.720703125-7.4189453125-9.46484375-2.41845703125-3.1865234375-4.64794921875-6.1552734375-6.6865234375-8.9072265625-.625-.6513671875-1.0224609375-1.375-1.19140625-2.173828125-.1630859375-.68310546875-.0986328125-1.43798828125.19091796875-2.2685546875.2900390625-.828125,1.03466796875-1.74658203125,2.2392578125-2.7568359375,1.20166015625-1.00732421875,2.6259765625-2.17626953125,4.26953125-3.50390625,1.642578125-1.328125,3.2666015625-2.5078125,4.87353515625-3.5458984375,1.60400390625-1.03515625,3.1162109375-1.74658203125,4.537109375-2.134765625,1.41796875-.384765625,2.5625-.14697265625,3.43310546875.7177734375,3.40185546875,4.0458984375,6.7978515625,8.00634765625,10.18701171875,11.87646484375,3.390625,3.87353515625,6.78173828125,7.77392578125,10.17578125,11.70361328125l17.27490234375-23.74560546875c.7568359375-.74609375,1.69677734375-1.388671875,2.81689453125-1.92919921875.89599609375-.40869140625,2.0380859375-.630859375,3.42333984375-.669921875,1.3857421875-.03564453125,2.91796875.40625,4.60302734375,1.33056640625,1.7978515625.91748046875,3.6044921875,1.95068359375,5.41845703125,3.09716796875,1.814453125,1.1484375,3.345703125,2.4013671875,4.5966796875,3.7607421875,1.24853515625,1.36083984375,2.07763671875,2.892578125,2.48583984375,4.599609375.4052734375,1.70654296875.1005859375,3.5791015625-.91455078125,5.615234375-.41357421875.72216796875-1.22314453125,1.99267578125-2.42626953125,3.81005859375-1.20556640625,1.81884765625-2.76171875,3.98046875-4.671875,6.48193359375-1.9091796875,2.50341796875-4.0576171875,5.31103515625-6.4453125,8.42529296875-2.38818359375,3.11376953125-4.91162109375,6.3837890625-7.56591796875,9.80322265625,4.7470703125,5.11083984375,9.46484375,10.19140625,14.15087890625,15.2470703125,4.685546875,5.05517578125,9.400390625,10.138671875,14.14990234375,15.2470703125Z"/>
    </g>
    <g>
      <line class="cls-1" x1="41.7144107398899" y1="57.257833047040549" x2="136.086200142120106" y2="50.752429389678582"/>
      <path class="cls-1" d="M41.71435546875,57.257831573486328c3.710547061839861-2.268959280807394,7.533080349950069-4.124702080861425,11.448845389269991-5.856148578956891,3.939704415419328-.16152491347475,7.866462227919328-.511752269431781,11.80030011854069-.758364818259906,11.763256814159831-.808666631020969,35.426225368439191-2.443667640225613,47.185975494869126-3.252700239379919-.000062408929807-.000000566282324,11.796446380139969-.813175767700159,11.796446380139969-.813175767700159,4.016279985660731,1.177878781380969,8.251215602020238,2.554422426391284,12.140272195270882,4.174967920598647-3.630365940420234,2.139237657755075-7.636897064860023,4.083175153959019-11.452648442231293,5.801370099160522-.000001682739821-.000012030989637-11.796388401489821.813163170426378-11.796388401489821.813163170426378-11.758901411849365.80835818815558-35.429369798669541,2.443876567887855-47.185965947439399,3.25269958708941-3.930489130680144.295506742256293-7.868111200990825.487397458809028-11.792671747869463.867985990303168-4.116263143100696-1.177998605077846-8.156349971830423-2.491341725455641-12.144165039060681-4.22979736328125h0Z"/>
    </g>
  </g>
  <g>
    <g>
      <path class="cls-2" d="M137.183837890625,151.6669921875c.75439453125.875,1.2275390625,1.8828125,1.4228515625,3.02392578125.17724609375.9150390625.11083984375,2.046875-.19970703125,3.39794921875-.3134765625,1.35205078125-1.10986328125,2.76611328125-2.396484375,4.2421875-1.2861328125,1.47705078125-2.6904296875,2.9345703125-4.2099609375,4.3671875-1.52197265625,1.4365234375-3.1162109375,2.61767578125-4.787109375,3.54052734375-1.671875.9228515625-3.375,1.38720703125-5.109375,1.39208984375-1.73486328125.0029296875-3.5166015625-.6845703125-5.3466796875-2.06005859375-.97119140625-.62646484375-2.66650390625-2.1845703125-5.09423828125-4.68017578125-2.42724609375-2.49169921875-5.27685546875-5.64892578125-8.54736328125-9.47412109375-1.6318359375-1.8525390625-3.36083984375-3.84521484375-5.18310546875-5.9755859375-1.82470703125-2.1298828125-3.73828125-4.2802734375-5.73681640625-6.4580078125-3.19140625,4.0380859375-6.197265625,7.86083984375-9.0126953125,11.46533203125-2.8173828125,3.60791015625-5.28955078125,6.75732421875-7.416015625,9.4462890625-2.556640625,3.185546875-4.89990234375,6.123046875-7.02685546875,8.81298828125-.53759765625.61669921875-1.1962890625,1.12353515625-1.97705078125,1.5244140625-.6748046875.2763671875-1.4755859375.4189453125-2.3994140625.42529296875-.9267578125.00439453125-2.05322265625-.40869140625-3.38232421875-1.2412109375-1.32373046875-.71630859375-2.8623046875-1.65234375-4.6171875-2.80517578125-1.7578125-1.1494140625-3.37158203125-2.34033203125-4.84423828125-3.5693359375-1.47216796875-1.22705078125-2.57080078125-2.453125-3.28955078125-3.67724609375-.72119140625-1.22216796875-.7705078125-2.37646484375-.15185546875-3.458984375l26.9033203125-37.595703125c-3.28076171875-3.93798828125-6.31494140625-7.689453125-9.103515625-11.2578125-2.79150390625-3.56494140625-5.2646484375-6.720703125-7.4189453125-9.46484375-2.41845703125-3.1865234375-4.64794921875-6.1552734375-6.6865234375-8.9072265625-.625-.6513671875-1.0224609375-1.375-1.19140625-2.173828125-.1630859375-.68310546875-.0986328125-1.43798828125.19091796875-2.2685546875.2900390625-.828125,1.03466796875-1.74658203125,2.2392578125-2.7568359375,1.20166015625-1.00732421875,2.6259765625-2.17626953125,4.26953125-3.50390625,1.642578125-1.328125,3.2666015625-2.5078125,4.87353515625-3.5458984375,1.60400390625-1.03515625,3.1162109375-1.74658203125,4.537109375-2.134765625,1.41796875-.384765625,2.5625-.14697265625,3.43310546875.7177734375,3.40185546875,4.0458984375,6.7978515625,8.00634765625,10.18701171875,11.87646484375,3.390625,3.87353515625,6.78173828125,7.77392578125,10.17578125,11.70361328125l17.27490234375-23.74560546875c.7568359375-.74609375,1.69677734375-1.388671875,2.81689453125-1.92919921875.89599609375-.40869140625,2.0380859375-.630859375,3.42333984375-.669921875,1.3857421875-.03564453125,2.91796875.40625,4.60302734375,1.33056640625,1.7978515625.91748046875,3.6044921875,1.95068359375,5.41845703125,3.09716796875,1.814453125,1.1484375,3.345703125,2.4013671875,4.5966796875,3.7607421875,1.24853515625,1.36083984375,2.07763671875,2.892578125,2.48583984375,4.599609375.4052734375,1.70654296875.1005859375,3.5791015625-.91455078125,5.615234375-.41357421875.72216796875-1.22314453125,1.99267578125-2.42626953125,3.81005859375-1.20556640625,1.81884765625-2.76171875,3.98046875-4.671875,6.48193359375-1.9091796875,2.50341796875-4.0576171875,5.31103515625-6.4453125,8.42529296875-2.38818359375,3.11376953125-4.91162109375,6.3837890625-7.56591796875,9.80322265625,4.7470703125,5.11083984375,9.46484375,10.19140625,14.15087890625,15.2470703125,4.685546875,5.05517578125,9.400390625,10.138671875,14.14990234375,15.2470703125Z"/>
      <path class="cls-2" d="M137.183837890625,151.6669921875c.75439453125.875,1.2275390625,1.8828125,1.4228515625,3.02392578125.17724609375.9150390625.11083984375,2.046875-.19970703125,3.39794921875-.3134765625,1.35205078125-1.10986328125,2.76611328125-2.396484375,4.2421875-1.2861328125,1.47705078125-2.6904296875,2.9345703125-4.2099609375,4.3671875-1.52197265625,1.4365234375-3.1162109375,2.61767578125-4.787109375,3.54052734375-1.671875.9228515625-3.375,1.38720703125-5.109375,1.39208984375-1.73486328125.0029296875-3.5166015625-.6845703125-5.3466796875-2.06005859375-.97119140625-.62646484375-2.66650390625-2.1845703125-5.09423828125-4.68017578125-2.42724609375-2.49169921875-5.27685546875-5.64892578125-8.54736328125-9.47412109375-1.6318359375-1.8525390625-3.36083984375-3.84521484375-5.18310546875-5.9755859375-1.82470703125-2.1298828125-3.73828125-4.2802734375-5.73681640625-6.4580078125-3.19140625,4.0380859375-6.197265625,7.86083984375-9.0126953125,11.46533203125-2.8173828125,3.60791015625-5.28955078125,6.75732421875-7.416015625,9.4462890625-2.556640625,3.185546875-4.89990234375,6.123046875-7.02685546875,8.81298828125-.53759765625.61669921875-1.1962890625,1.12353515625-1.97705078125,1.5244140625-.6748046875.2763671875-1.4755859375.4189453125-2.3994140625.42529296875-.9267578125.00439453125-2.05322265625-.40869140625-3.38232421875-1.2412109375-1.32373046875-.71630859375-2.8623046875-1.65234375-4.6171875-2.80517578125-1.7578125-1.1494140625-3.37158203125-2.34033203125-4.84423828125-3.5693359375-1.47216796875-1.22705078125-2.57080078125-2.453125-3.28955078125-3.67724609375-.72119140625-1.22216796875-.7705078125-2.37646484375-.15185546875-3.458984375l26.9033203125-37.595703125c-3.28076171875-3.93798828125-6.31494140625-7.689453125-9.103515625-11.2578125-2.79150390625-3.56494140625-5.2646484375-6.720703125-7.4189453125-9.46484375-2.41845703125-3.1865234375-4.64794921875-6.1552734375-6.6865234375-8.9072265625-.625-.6513671875-1.0224609375-1.375-1.19140625-2.173828125-.1630859375-.68310546875-.0986328125-1.43798828125.19091796875-2.2685546875.2900390625-.828125,1.03466796875-1.74658203125,2.2392578125-2.7568359375,1.20166015625-1.00732421875,2.6259765625-2.17626953125,4.26953125-3.50390625,1.642578125-1.328125,3.2666015625-2.5078125,4.87353515625-3.5458984375,1.60400390625-1.03515625,3.1162109375-1.74658203125,4.537109375-2.134765625,1.41796875-.384765625,2.5625-.14697265625,3.43310546875.7177734375,3.40185546875,4.0458984375,6.7978515625,8.00634765625,10.18701171875,11.87646484375,3.390625,3.87353515625,6.78173828125,7.77392578125,10.17578125,11.70361328125l17.27490234375-23.74560546875c.7568359375-.74609375,1.69677734375-1.388671875,2.81689453125-1.92919921875.89599609375-.40869140625,2.0380859375-.630859375,3.42333984375-.669921875,1.3857421875-.03564453125,2.91796875.40625,4.60302734375,1.33056640625,1.7978515625.91748046875,3.6044921875,1.95068359375,5.41845703125,3.09716796875,1.814453125,1.1484375,3.345703125,2.4013671875,4.5966796875,3.7607421875,1.24853515625,1.36083984375,2.07763671875,2.892578125,2.48583984375,4.599609375.4052734375,1.70654296875.1005859375,3.5791015625-.91455078125,5.615234375-.41357421875.72216796875-1.22314453125,1.99267578125-2.42626953125,3.81005859375-1.20556640625,1.81884765625-2.76171875,3.98046875-4.671875,6.48193359375-1.9091796875,2.50341796875-4.0576171875,5.31103515625-6.4453125,8.42529296875-2.38818359375,3.11376953125-4.91162109375,6.3837890625-7.56591796875,9.80322265625,4.7470703125,5.11083984375,9.46484375,10.19140625,14.15087890625,15.2470703125,4.685546875,5.05517578125,9.400390625,10.138671875,14.14990234375,15.2470703125Z"/>
      <path class="cls-2" d="M137.183837890625,151.6669921875c.75439453125.875,1.2275390625,1.8828125,1.4228515625,3.02392578125.17724609375.9150390625.11083984375,2.046875-.19970703125,3.39794921875-.3134765625,1.35205078125-1.10986328125,2.76611328125-2.396484375,4.2421875-1.2861328125,1.47705078125-2.6904296875,2.9345703125-4.2099609375,4.3671875-1.52197265625,1.4365234375-3.1162109375,2.61767578125-4.787109375,3.54052734375-1.671875.9228515625-3.375,1.38720703125-5.109375,1.39208984375-1.73486328125.0029296875-3.5166015625-.6845703125-5.3466796875-2.06005859375-.97119140625-.62646484375-2.66650390625-2.1845703125-5.09423828125-4.68017578125-2.42724609375-2.49169921875-5.27685546875-5.64892578125-8.54736328125-9.47412109375-1.6318359375-1.8525390625-3.36083984375-3.84521484375-5.18310546875-5.9755859375-1.82470703125-2.1298828125-3.73828125-4.2802734375-5.73681640625-6.4580078125-3.19140625,4.0380859375-6.197265625,7.86083984375-9.0126953125,11.46533203125-2.8173828125,3.60791015625-5.28955078125,6.75732421875-7.416015625,9.4462890625-2.556640625,3.185546875-4.89990234375,6.123046875-7.02685546875,8.81298828125-.53759765625.61669921875-1.1962890625,1.12353515625-1.97705078125,1.5244140625-.6748046875.2763671875-1.4755859375.4189453125-2.3994140625.42529296875-.9267578125.00439453125-2.05322265625-.40869140625-3.38232421875-1.2412109375-1.32373046875-.71630859375-2.8623046875-1.65234375-4.6171875-2.80517578125-1.7578125-1.1494140625-3.37158203125-2.34033203125-4.84423828125-3.5693359375-1.47216796875-1.22705078125-2.57080078125-2.453125-3.28955078125-3.67724609375-.72119140625-1.22216796875-.7705078125-2.37646484375-.15185546875-3.458984375l26.9033203125-37.595703125c-3.28076171875-3.93798828125-6.31494140625-7.689453125-9.103515625-11.2578125-2.79150390625-3.56494140625-5.2646484375-6.720703125-7.4189453125-9.46484375-2.41845703125-3.1865234375-4.64794921875-6.1552734375-6.6865234375-8.9072265625-.625-.6513671875-1.0224609375-1.375-1.19140625-2.173828125-.1630859375-.68310546875-.0986328125-1.43798828125.19091796875-2.2685546875.2900390625-.828125,1.03466796875-1.74658203125,2.2392578125-2.7568359375,1.20166015625-1.00732421875,2.6259765625-2.17626953125,4.26953125-3.50390625,1.642578125-1.328125,3.2666015625-2.5078125,4.87353515625-3.5458984375,1.60400390625-1.03515625,3.1162109375-1.74658203125,4.537109375-2.134765625,1.41796875-.384765625,2.5625-.14697265625,3.43310546875.7177734375,3.40185546875,4.0458984375,6.7978515625,8.00634765625,10.18701171875,11.87646484375,3.390625,3.87353515625,6.78173828125,7.77392578125,10.17578125,11.70361328125l17.27490234375-23.74560546875c.7568359375-.74609375,1.69677734375-1.388671875,2.81689453125-1.92919921875.89599609375-.40869140625,2.0380859375-.630859375,3.42333984375-.669921875,1.3857421875-.03564453125,2.91796875.40625,4.60302734375,1.33056640625,1.7978515625.91748046875,3.6044921875,1.95068359375,5.41845703125,3.09716796875,1.814453125,1.1484375,3.345703125,2.4013671875,4.5966796875,3.7607421875,1.24853515625,1.36083984375,2.07763671875,2.892578125,2.48583984375,4.599609375.4052734375,1.70654296875.1005859375,3.5791015625-.91455078125,5.615234375-.41357421875.72216796875-1.22314453125,1.99267578125-2.42626953125,3.81005859375-1.20556640625,1.81884765625-2.76171875,3.98046875-4.671875,6.48193359375-1.9091796875,2.50341796875-4.0576171875,5.31103515625-6.4453125,8.42529296875-2.38818359375,3.11376953125-4.91162109375,6.3837890625-7.56591796875,9.80322265625,4.7470703125,5.11083984375,9.46484375,10.19140625,14.15087890625,15.2470703125,4.685546875,5.05517578125,9.400390625,10.138671875,14.14990234375,15.2470703125Z"/>
    </g>
    <g>
      <line class="cls-2" x1="41.7144107398899" y1="57.257833047040549" x2="136.086200142120106" y2="50.752429389678582"/>
      <path class="cls-2" d="M41.71435546875,57.257831573486328c3.710547061839861-2.268959280807394,7.533080349950069-4.124702080861425,11.448845389269991-5.856148578956891,3.939704415419328-.16152491347475,7.866462227919328-.511752269431781,11.80030011854069-.758364818259906,11.763256814159831-.808666631020969,35.426225368439191-2.443667640225613,47.185975494869126-3.252700239379919-.000062408929807-.000000566282324,11.796446380139969-.813175767700159,11.796446380139969-.813175767700159,4.016279985660731,1.177878781380969,8.251215602020238,2.554422426391284,12.140272195270882,4.174967920598647-3.630365940420234,2.139237657755075-7.636897064860023,4.083175153959019-11.452648442231293,5.801370099160522-.000001682739821-.000012030989637-11.796388401489821.813163170426378-11.796388401489821.813163170426378-11.758901411849365.80835818815558-35.429369798669541,2.443876567887855-47.185965947439399,3.25269958708941-3.930489130680144.295506742256293-7.868111200990825.487397458809028-11.792671747869463.867985990303168-4.116263143100696-1.177998605077846-8.156349971830423-2.491341725455641-12.144165039060681-4.22979736328125h0Z"/>
    </g>
  </g>
  <g>
    <g>
      <path class="cls-3" d="M137.183837890625,151.6669921875c.75439453125.875,1.2275390625,1.8828125,1.4228515625,3.02392578125.17724609375.9150390625.11083984375,2.046875-.19970703125,3.39794921875-.3134765625,1.35205078125-1.10986328125,2.76611328125-2.396484375,4.2421875-1.2861328125,1.47705078125-2.6904296875,2.9345703125-4.2099609375,4.3671875-1.52197265625,1.4365234375-3.1162109375,2.61767578125-4.787109375,3.54052734375-1.671875.9228515625-3.375,1.38720703125-5.109375,1.39208984375-1.73486328125.0029296875-3.5166015625-.6845703125-5.3466796875-2.06005859375-.97119140625-.62646484375-2.66650390625-2.1845703125-5.09423828125-4.68017578125-2.42724609375-2.49169921875-5.27685546875-5.64892578125-8.54736328125-9.47412109375-1.6318359375-1.8525390625-3.36083984375-3.84521484375-5.18310546875-5.9755859375-1.82470703125-2.1298828125-3.73828125-4.2802734375-5.73681640625-6.4580078125-3.19140625,4.0380859375-6.197265625,7.86083984375-9.0126953125,11.46533203125-2.8173828125,3.60791015625-5.28955078125,6.75732421875-7.416015625,9.4462890625-2.556640625,3.185546875-4.89990234375,6.123046875-7.02685546875,8.81298828125-.53759765625.61669921875-1.1962890625,1.12353515625-1.97705078125,1.5244140625-.6748046875.2763671875-1.4755859375.4189453125-2.3994140625.42529296875-.9267578125.00439453125-2.05322265625-.40869140625-3.38232421875-1.2412109375-1.32373046875-.71630859375-2.8623046875-1.65234375-4.6171875-2.80517578125-1.7578125-1.1494140625-3.37158203125-2.34033203125-4.84423828125-3.5693359375-1.47216796875-1.22705078125-2.57080078125-2.453125-3.28955078125-3.67724609375-.72119140625-1.22216796875-.7705078125-2.37646484375-.15185546875-3.458984375l26.9033203125-37.595703125c-3.28076171875-3.93798828125-6.31494140625-7.689453125-9.103515625-11.2578125-2.79150390625-3.56494140625-5.2646484375-6.720703125-7.4189453125-9.46484375-2.41845703125-3.1865234375-4.64794921875-6.1552734375-6.6865234375-8.9072265625-.625-.6513671875-1.0224609375-1.375-1.19140625-2.173828125-.1630859375-.68310546875-.0986328125-1.43798828125.19091796875-2.2685546875.2900390625-.828125,1.03466796875-1.74658203125,2.2392578125-2.7568359375,1.20166015625-1.00732421875,2.6259765625-2.17626953125,4.26953125-3.50390625,1.642578125-1.328125,3.2666015625-2.5078125,4.87353515625-3.5458984375,1.60400390625-1.03515625,3.1162109375-1.74658203125,4.537109375-2.134765625,1.41796875-.384765625,2.5625-.14697265625,3.43310546875.7177734375,3.40185546875,4.0458984375,6.7978515625,8.00634765625,10.18701171875,11.87646484375,3.390625,3.87353515625,6.78173828125,7.77392578125,10.17578125,11.70361328125l17.27490234375-23.74560546875c.7568359375-.74609375,1.69677734375-1.388671875,2.81689453125-1.92919921875.89599609375-.40869140625,2.0380859375-.630859375,3.42333984375-.669921875,1.3857421875-.03564453125,2.91796875.40625,4.60302734375,1.33056640625,1.7978515625.91748046875,3.6044921875,1.95068359375,5.41845703125,3.09716796875,1.814453125,1.1484375,3.345703125,2.4013671875,4.5966796875,3.7607421875,1.24853515625,1.36083984375,2.07763671875,2.892578125,2.48583984375,4.599609375.4052734375,1.70654296875.1005859375,3.5791015625-.91455078125,5.615234375-.41357421875.72216796875-1.22314453125,1.99267578125-2.42626953125,3.81005859375-1.20556640625,1.81884765625-2.76171875,3.98046875-4.671875,6.48193359375-1.9091796875,2.50341796875-4.0576171875,5.31103515625-6.4453125,8.42529296875-2.38818359375,3.11376953125-4.91162109375,6.3837890625-7.56591796875,9.80322265625,4.7470703125,5.11083984375,9.46484375,10.19140625,14.15087890625,15.2470703125,4.685546875,5.05517578125,9.400390625,10.138671875,14.14990234375,15.2470703125Z"/>
      <path class="cls-3" d="M137.183837890625,151.6669921875c.75439453125.875,1.2275390625,1.8828125,1.4228515625,3.02392578125.17724609375.9150390625.11083984375,2.046875-.19970703125,3.39794921875-.3134765625,1.35205078125-1.10986328125,2.76611328125-2.396484375,4.2421875-1.2861328125,1.47705078125-2.6904296875,2.9345703125-4.2099609375,4.3671875-1.52197265625,1.4365234375-3.1162109375,2.61767578125-4.787109375,3.54052734375-1.671875.9228515625-3.375,1.38720703125-5.109375,1.39208984375-1.73486328125.0029296875-3.5166015625-.6845703125-5.3466796875-2.06005859375-.97119140625-.62646484375-2.66650390625-2.1845703125-5.09423828125-4.68017578125-2.42724609375-2.49169921875-5.27685546875-5.64892578125-8.54736328125-9.47412109375-1.6318359375-1.8525390625-3.36083984375-3.84521484375-5.18310546875-5.9755859375-1.82470703125-2.1298828125-3.73828125-4.2802734375-5.73681640625-6.4580078125-3.19140625,4.0380859375-6.197265625,7.86083984375-9.0126953125,11.46533203125-2.8173828125,3.60791015625-5.28955078125,6.75732421875-7.416015625,9.4462890625-2.556640625,3.185546875-4.89990234375,6.123046875-7.02685546875,8.81298828125-.53759765625.61669921875-1.1962890625,1.12353515625-1.97705078125,1.5244140625-.6748046875.2763671875-1.4755859375.4189453125-2.3994140625.42529296875-.9267578125.00439453125-2.05322265625-.40869140625-3.38232421875-1.2412109375-1.32373046875-.71630859375-2.8623046875-1.65234375-4.6171875-2.80517578125-1.7578125-1.1494140625-3.37158203125-2.34033203125-4.84423828125-3.5693359375-1.47216796875-1.22705078125-2.57080078125-2.453125-3.28955078125-3.67724609375-.72119140625-1.22216796875-.7705078125-2.37646484375-.15185546875-3.458984375l26.9033203125-37.595703125c-3.28076171875-3.93798828125-6.31494140625-7.689453125-9.103515625-11.2578125-2.79150390625-3.56494140625-5.2646484375-6.720703125-7.4189453125-9.46484375-2.41845703125-3.1865234375-4.64794921875-6.1552734375-6.6865234375-8.9072265625-.625-.6513671875-1.0224609375-1.375-1.19140625-2.173828125-.1630859375-.68310546875-.0986328125-1.43798828125.19091796875-2.2685546875.2900390625-.828125,1.03466796875-1.74658203125,2.2392578125-2.7568359375,1.20166015625-1.00732421875,2.6259765625-2.17626953125,4.26953125-3.50390625,1.642578125-1.328125,3.2666015625-2.5078125,4.87353515625-3.5458984375,1.60400390625-1.03515625,3.1162109375-1.74658203125,4.537109375-2.134765625,1.41796875-.384765625,2.5625-.14697265625,3.43310546875.7177734375,3.40185546875,4.0458984375,6.7978515625,8.00634765625,10.18701171875,11.87646484375,3.390625,3.87353515625,6.78173828125,7.77392578125,10.17578125,11.70361328125l17.27490234375-23.74560546875c.7568359375-.74609375,1.69677734375-1.388671875,2.81689453125-1.92919921875.89599609375-.40869140625,2.0380859375-.630859375,3.42333984375-.669921875,1.3857421875-.03564453125,2.91796875.40625,4.60302734375,1.33056640625,1.7978515625.91748046875,3.6044921875,1.95068359375,5.41845703125,3.09716796875,1.814453125,1.1484375,3.345703125,2.4013671875,4.5966796875,3.7607421875,1.24853515625,1.36083984375,2.07763671875,2.892578125,2.48583984375,4.599609375.4052734375,1.70654296875.1005859375,3.5791015625-.91455078125,5.615234375-.41357421875.72216796875-1.22314453125,1.99267578125-2.42626953125,3.81005859375-1.20556640625,1.81884765625-2.76171875,3.98046875-4.671875,6.48193359375-1.9091796875,2.50341796875-4.0576171875,5.31103515625-6.4453125,8.42529296875-2.38818359375,3.11376953125-4.91162109375,6.3837890625-7.56591796875,9.80322265625,4.7470703125,5.11083984375,9.46484375,10.19140625,14.15087890625,15.2470703125,4.685546875,5.05517578125,9.400390625,10.138671875,14.14990234375,15.2470703125Z"/>
      <path class="cls-3" d="M137.183837890625,151.6669921875c.75439453125.875,1.2275390625,1.8828125,1.4228515625,3.02392578125.17724609375.9150390625.11083984375,2.046875-.19970703125,3.39794921875-.3134765625,1.35205078125-1.10986328125,2.76611328125-2.396484375,4.2421875-1.2861328125,1.47705078125-2.6904296875,2.9345703125-4.2099609375,4.3671875-1.52197265625,1.4365234375-3.1162109375,2.61767578125-4.787109375,3.54052734375-1.671875.9228515625-3.375,1.38720703125-5.109375,1.39208984375-1.73486328125.0029296875-3.5166015625-.6845703125-5.3466796875-2.06005859375-.97119140625-.62646484375-2.66650390625-2.1845703125-5.09423828125-4.68017578125-2.42724609375-2.49169921875-5.27685546875-5.64892578125-8.54736328125-9.47412109375-1.6318359375-1.8525390625-3.36083984375-3.84521484375-5.18310546875-5.9755859375-1.82470703125-2.1298828125-3.73828125-4.2802734375-5.73681640625-6.4580078125-3.19140625,4.0380859375-6.197265625,7.86083984375-9.0126953125,11.46533203125-2.8173828125,3.60791015625-5.28955078125,6.75732421875-7.416015625,9.4462890625-2.556640625,3.185546875-4.89990234375,6.123046875-7.02685546875,8.81298828125-.53759765625.61669921875-1.1962890625,1.12353515625-1.97705078125,1.5244140625-.6748046875.2763671875-1.4755859375.4189453125-2.3994140625.42529296875-.9267578125.00439453125-2.05322265625-.40869140625-3.38232421875-1.2412109375-1.32373046875-.71630859375-2.8623046875-1.65234375-4.6171875-2.80517578125-1.7578125-1.1494140625-3.37158203125-2.34033203125-4.84423828125-3.5693359375-1.47216796875-1.22705078125-2.57080078125-2.453125-3.28955078125-3.67724609375-.72119140625-1.22216796875-.7705078125-2.37646484375-.15185546875-3.458984375l26.9033203125-37.595703125c-3.28076171875-3.93798828125-6.31494140625-7.689453125-9.103515625-11.2578125-2.79150390625-3.56494140625-5.2646484375-6.720703125-7.4189453125-9.46484375-2.41845703125-3.1865234375-4.64794921875-6.1552734375-6.6865234375-8.9072265625-.625-.6513671875-1.0224609375-1.375-1.19140625-2.173828125-.1630859375-.68310546875-.0986328125-1.43798828125.19091796875-2.2685546875.2900390625-.828125,1.03466796875-1.74658203125,2.2392578125-2.7568359375,1.20166015625-1.00732421875,2.6259765625-2.17626953125,4.26953125-3.50390625,1.642578125-1.328125,3.2666015625-2.5078125,4.87353515625-3.5458984375,1.60400390625-1.03515625,3.1162109375-1.74658203125,4.537109375-2.134765625,1.41796875-.384765625,2.5625-.14697265625,3.43310546875.7177734375,3.40185546875,4.0458984375,6.7978515625,8.00634765625,10.18701171875,11.87646484375,3.390625,3.87353515625,6.78173828125,7.77392578125,10.17578125,11.70361328125l17.27490234375-23.74560546875c.7568359375-.74609375,1.69677734375-1.388671875,2.81689453125-1.92919921875.89599609375-.40869140625,2.0380859375-.630859375,3.42333984375-.669921875,1.3857421875-.03564453125,2.91796875.40625,4.60302734375,1.33056640625,1.7978515625.91748046875,3.6044921875,1.95068359375,5.41845703125,3.09716796875,1.814453125,1.1484375,3.345703125,2.4013671875,4.5966796875,3.7607421875,1.24853515625,1.36083984375,2.07763671875,2.892578125,2.48583984375,4.599609375.4052734375,1.70654296875.1005859375,3.5791015625-.91455078125,5.615234375-.41357421875.72216796875-1.22314453125,1.99267578125-2.42626953125,3.81005859375-1.20556640625,1.81884765625-2.76171875,3.98046875-4.671875,6.48193359375-1.9091796875,2.50341796875-4.0576171875,5.31103515625-6.4453125,8.42529296875-2.38818359375,3.11376953125-4.91162109375,6.3837890625-7.56591796875,9.80322265625,4.7470703125,5.11083984375,9.46484375,10.19140625,14.15087890625,15.2470703125,4.685546875,5.05517578125,9.400390625,10.138671875,14.14990234375,15.2470703125Z"/>
    </g>
    <g>
      <line class="cls-3" x1="41.7144107398899" y1="57.257833047040549" x2="136.086200142120106" y2="50.752429389678582"/>
      <path class="cls-3" d="M41.71435546875,57.257831573486328c3.710547061839861-2.268959280807394,7.533080349950069-4.124702080861425,11.448845389269991-5.856148578956891,3.939704415419328-.16152491347475,7.866462227919328-.511752269431781,11.80030011854069-.758364818259906,11.763256814159831-.808666631020969,35.426225368439191-2.443667640225613,47.185975494869126-3.252700239379919-.000062408929807-.000000566282324,11.796446380139969-.813175767700159,11.796446380139969-.813175767700159,4.016279985660731,1.177878781380969,8.251215602020238,2.554422426391284,12.140272195270882,4.174967920598647-3.630365940420234,2.139237657755075-7.636897064860023,4.083175153959019-11.452648442231293,5.801370099160522-.000001682739821-.000012030989637-11.796388401489821.813163170426378-11.796388401489821.813163170426378-11.758901411849365.80835818815558-35.429369798669541,2.443876567887855-47.185965947439399,3.25269958708941-3.930489130680144.295506742256293-7.868111200990825.487397458809028-11.792671747869463.867985990303168-4.116263143100696-1.177998605077846-8.156349971830423-2.491341725455641-12.144165039060681-4.22979736328125h0Z"/>
    </g>
  </g>
</svg>