<?xml version="1.0" encoding="UTF-8"?>
<svg id="Layer_1" xmlns="http://www.w3.org/2000/svg" viewBox="0 0 280 280">
  <defs>
    <style>
      .cls-1 {
        stroke: #665451;
        stroke-width: 50px;
      }

      .cls-1, .cls-2 {
        fill: none;
        stroke-linecap: round;
        stroke-linejoin: round;
      }

      .cls-3 {
        fill: #fff;
      }

      .cls-2 {
        stroke: #998675;
        stroke-width: 2px;
      }
    </style>
  </defs>
  <g>
    <path d="M73.815538285587536,122.470685278265591c-12.824941191011021,3.688263849617215-25.871878666883276,6.565531853785615-39.058466786762438,8.613843307308343-3.345301942570586.519601781664278-5.679146219690665,4.622362828536097-4.767405404534657,7.785371313298128,1.035490071200911,3.591429088840414,4.201938542399148,5.323997944929033,7.785371313299038,4.767405404535566,13.186588119877342-2.048311453523638,26.233525595749597-4.925579457692038,39.058466786760619-8.613843307309253,3.240557644305227-.931898187222032,5.763503758047591-4.329919792620785,4.767405404534657-7.785371313298128-.93466918492777-3.241296209697794-4.309527099081606-5.767001839132718-7.785371313297219-4.767405404534657Z"/>
    <path d="M134.144497234134178,108.722412612240987c-13.150137458676909,1.184148176730559-25.858039849903435,4.952008716406453-38.603822633805976,8.213532289209979-3.269716635186342.83668428135843-5.743787252613402,4.39844391076349-4.767405404536476,7.785371313298128.958085385502272,3.323410824395069,4.280295645612568,5.664295213246987,7.785371313299038,4.767405404533747,11.559650784296537-2.957981004354224,23.177626300141128-6.517450539007768,35.070511912199436-7.85117867297231.029610303412483-.002688530347768.059122365746589-.005785679727524.088528359639895-.008425089536104,1.798501586890779-.161980538542593,3.328059233104796-.492439558837759,4.684288574953825-1.795527970170951,1.118689752152932-1.074866262230898,2.001379468982122-2.866159262172005,1.98242119653878-4.44440414535984-.020161263480986-1.694714046509944-.533020352726453-3.479095383027925-1.795299100387638-4.684235540733425-1.129802460287465-1.078412944036245-2.814891008678387-2.129275227642211-4.444594217900885-1.982537588269224Z"/>
    <path d="M185.828927779011792,97.654800451377014c-12.04881012466285,2.518970800111674-24.097607969189994,5.037992677603143-36.146622403370202,7.557012598253095-3.308261961732569.691642335459619-5.714204128007623,4.501714344660286-4.767405404534657,7.785371313298128.993830981362407,3.446919641506611,4.24087964771752,5.508440517674899,7.785371313297219,4.767405404534657,12.049014434180208-2.519019920649953,24.097812278709171-5.038041798141421,36.146622403370202-7.557012598253095,3.308261961732569-.69164233545871,5.714204128007623-4.501714344660286,4.767405404534657-7.785371313297219-.993830981360588-3.446919641506611-4.240675338201982-5.508489638214087-7.785371313297219-4.767405404535566Z"/>
    <path d="M241.691105995332691,59.468085106382205c-1.106749577675146-6.902778150571066,9.273037609367748-16.416255042106968,8.166260204434366-23.319148936169768-.303888174617896-1.895306472079028-12.515732261490484,1.555368779739183-17.352336498632212,2.807328124030391-5.077070460343748,1.314180404693616-17.866875733534471,4.523732401635243-17.541280522644229,6.554374003629164,1.10677740493702,6.9028938940628,16.378385864889424,11.480200572833382,17.48513544256457,18.382978723404449.303888174616077,1.895306472079028,3.79146030211632,3.404255319148433,5.086203427863438,2.882359562175225,4.390135247644139-1.76961198922163,4.481640984569822-5.277134131585626,4.156017946414067-7.307891477069461Z"/>
    <path d="M241.944346869579022,84.757466823999493c-12.86544762795711,2.878856758997244-25.730690946395043,5.757664397455301-38.595921984700908,8.636523113294061-3.296956410425992.737767165736841-5.72377157117262,4.469111321993296-4.767405404534657,7.785371313298128.982499651572653,3.407878912216802,4.252562508610936,5.557932541300033,7.785371313297219,4.767405404533747,12.865231038305865-2.87885871583785,25.730474356745617-5.757666354295907,38.595921984700908-8.636523113293151,3.296752100912272-.737718045199472,5.723567261657081-4.469062201455017,4.767405404534657-7.785371313297219-.98251193170654-3.407929989596596-4.252779098260362-5.557934498142458-7.785371313297219-4.767405404535566Z"/>
  </g>
  <g>
    <path class="cls-1" d="M73.815538285587536,122.470685278265591c-12.824941191011021,3.688263849617215-25.871878666883276,6.565531853785615-39.058466786762438,8.613843307308343-3.345301942570586.519601781664278-5.679146219690665,4.622362828536097-4.767405404534657,7.785371313298128,1.035490071200911,3.591429088840414,4.201938542399148,5.323997944929033,7.785371313299038,4.767405404535566,13.186588119877342-2.048311453523638,26.233525595749597-4.925579457692038,39.058466786760619-8.613843307309253,3.240557644305227-.931898187222032,5.763503758047591-4.329919792620785,4.767405404534657-7.785371313298128-.93466918492777-3.241296209697794-4.309527099081606-5.767001839132718-7.785371313297219-4.767405404534657Z"/>
    <path class="cls-1" d="M134.144497234134178,108.722412612240987c-13.150137458676909,1.184148176730559-25.858039849903435,4.952008716406453-38.603822633805976,8.213532289209979-3.269716635186342.83668428135843-5.743787252613402,4.39844391076349-4.767405404536476,7.785371313298128.958085385502272,3.323410824395069,4.280295645612568,5.664295213246987,7.785371313299038,4.767405404533747,11.559650784296537-2.957981004354224,23.177626300141128-6.517450539007768,35.070511912199436-7.85117867297231.029610303412483-.002688530347768.059122365746589-.005785679727524.088528359639895-.008425089536104,1.798501586890779-.161980538542593,3.328059233104796-.492439558837759,4.684288574953825-1.795527970170951,1.118689752152932-1.074866262230898,2.001379468982122-2.866159262172005,1.98242119653878-4.44440414535984-.020161263480986-1.694714046509944-.533020352726453-3.479095383027925-1.795299100387638-4.684235540733425-1.129802460287465-1.078412944036245-2.814891008678387-2.129275227642211-4.444594217900885-1.982537588269224Z"/>
    <path class="cls-1" d="M185.828927779011792,97.654800451377014c-12.04881012466285,2.518970800111674-24.097607969189994,5.037992677603143-36.146622403370202,7.557012598253095-3.308261961732569.691642335459619-5.714204128007623,4.501714344660286-4.767405404534657,7.785371313298128.993830981362407,3.446919641506611,4.24087964771752,5.508440517674899,7.785371313297219,4.767405404534657,12.049014434180208-2.519019920649953,24.097812278709171-5.038041798141421,36.146622403370202-7.557012598253095,3.308261961732569-.69164233545871,5.714204128007623-4.501714344660286,4.767405404534657-7.785371313297219-.993830981360588-3.446919641506611-4.240675338201982-5.508489638214087-7.785371313297219-4.767405404535566Z"/>
    <path class="cls-1" d="M241.691105995332691,59.468085106382205c-1.106749577675146-6.902778150571066,9.273037609367748-16.416255042106968,8.166260204434366-23.319148936169768-.303888174617896-1.895306472079028-12.515732261490484,1.555368779739183-17.352336498632212,2.807328124030391-5.077070460343748,1.314180404693616-17.866875733534471,4.523732401635243-17.541280522644229,6.554374003629164,1.10677740493702,6.9028938940628,16.378385864889424,11.480200572833382,17.48513544256457,18.382978723404449.303888174616077,1.895306472079028,3.79146030211632,3.404255319148433,5.086203427863438,2.882359562175225,4.390135247644139-1.76961198922163,4.481640984569822-5.277134131585626,4.156017946414067-7.307891477069461Z"/>
    <path class="cls-1" d="M241.944346869579022,84.757466823999493c-12.86544762795711,2.878856758997244-25.730690946395043,5.757664397455301-38.595921984700908,8.636523113294061-3.296956410425992.737767165736841-5.72377157117262,4.469111321993296-4.767405404534657,7.785371313298128.982499651572653,3.407878912216802,4.252562508610936,5.557932541300033,7.785371313297219,4.767405404533747,12.865231038305865-2.87885871583785,25.730474356745617-5.757666354295907,38.595921984700908-8.636523113293151,3.296752100912272-.737718045199472,5.723567261657081-4.469062201455017,4.767405404534657-7.785371313297219-.98251193170654-3.407929989596596-4.252779098260362-5.557934498142458-7.785371313297219-4.767405404535566Z"/>
  </g>
  <g>
    <path class="cls-2" d="M73.815538285587536,122.470685278265591c-12.824941191011021,3.688263849617215-25.871878666883276,6.565531853785615-39.058466786762438,8.613843307308343-3.345301942570586.519601781664278-5.679146219690665,4.622362828536097-4.767405404534657,7.785371313298128,1.035490071200911,3.591429088840414,4.201938542399148,5.323997944929033,7.785371313299038,4.767405404535566,13.186588119877342-2.048311453523638,26.233525595749597-4.925579457692038,39.058466786760619-8.613843307309253,3.240557644305227-.931898187222032,5.763503758047591-4.329919792620785,4.767405404534657-7.785371313298128-.93466918492777-3.241296209697794-4.309527099081606-5.767001839132718-7.785371313297219-4.767405404534657Z"/>
    <path class="cls-2" d="M134.144497234134178,108.722412612240987c-13.150137458676909,1.184148176730559-25.858039849903435,4.952008716406453-38.603822633805976,8.213532289209979-3.269716635186342.83668428135843-5.743787252613402,4.39844391076349-4.767405404536476,7.785371313298128.958085385502272,3.323410824395069,4.280295645612568,5.664295213246987,7.785371313299038,4.767405404533747,11.559650784296537-2.957981004354224,23.177626300141128-6.517450539007768,35.070511912199436-7.85117867297231.029610303412483-.002688530347768.059122365746589-.005785679727524.088528359639895-.008425089536104,1.798501586890779-.161980538542593,3.328059233104796-.492439558837759,4.684288574953825-1.795527970170951,1.118689752152932-1.074866262230898,2.001379468982122-2.866159262172005,1.98242119653878-4.44440414535984-.020161263480986-1.694714046509944-.533020352726453-3.479095383027925-1.795299100387638-4.684235540733425-1.129802460287465-1.078412944036245-2.814891008678387-2.129275227642211-4.444594217900885-1.982537588269224Z"/>
    <path class="cls-2" d="M185.828927779011792,97.654800451377014c-12.04881012466285,2.518970800111674-24.097607969189994,5.037992677603143-36.146622403370202,7.557012598253095-3.308261961732569.691642335459619-5.714204128007623,4.501714344660286-4.767405404534657,7.785371313298128.993830981362407,3.446919641506611,4.24087964771752,5.508440517674899,7.785371313297219,4.767405404534657,12.049014434180208-2.519019920649953,24.097812278709171-5.038041798141421,36.146622403370202-7.557012598253095,3.308261961732569-.69164233545871,5.714204128007623-4.501714344660286,4.767405404534657-7.785371313297219-.993830981360588-3.446919641506611-4.240675338201982-5.508489638214087-7.785371313297219-4.767405404535566Z"/>
    <path class="cls-2" d="M241.691105995332691,59.468085106382205c-1.106749577675146-6.902778150571066,9.273037609367748-16.416255042106968,8.166260204434366-23.319148936169768-.303888174617896-1.895306472079028-12.515732261490484,1.555368779739183-17.352336498632212,2.807328124030391-5.077070460343748,1.314180404693616-17.866875733534471,4.523732401635243-17.541280522644229,6.554374003629164,1.10677740493702,6.9028938940628,16.378385864889424,11.480200572833382,17.48513544256457,18.382978723404449.303888174616077,1.895306472079028,3.79146030211632,3.404255319148433,5.086203427863438,2.882359562175225,4.390135247644139-1.76961198922163,4.481640984569822-5.277134131585626,4.156017946414067-7.307891477069461Z"/>
    <path class="cls-2" d="M241.944346869579022,84.757466823999493c-12.86544762795711,2.878856758997244-25.730690946395043,5.757664397455301-38.595921984700908,8.636523113294061-3.296956410425992.737767165736841-5.72377157117262,4.469111321993296-4.767405404534657,7.785371313298128.982499651572653,3.407878912216802,4.252562508610936,5.557932541300033,7.785371313297219,4.767405404533747,12.865231038305865-2.87885871583785,25.730474356745617-5.757666354295907,38.595921984700908-8.636523113293151,3.296752100912272-.737718045199472,5.723567261657081-4.469062201455017,4.767405404534657-7.785371313297219-.98251193170654-3.407929989596596-4.252779098260362-5.557934498142458-7.785371313297219-4.767405404535566Z"/>
  </g>
  <g>
    <path class="cls-3" d="M73.815538285587536,122.470685278265591c-12.824941191011021,3.688263849617215-25.871878666883276,6.565531853785615-39.058466786762438,8.613843307308343-3.345301942570586.519601781664278-5.679146219690665,4.622362828536097-4.767405404534657,7.785371313298128,1.035490071200911,3.591429088840414,4.201938542399148,5.323997944929033,7.785371313299038,4.767405404535566,13.186588119877342-2.048311453523638,26.233525595749597-4.925579457692038,39.058466786760619-8.613843307309253,3.240557644305227-.931898187222032,5.763503758047591-4.329919792620785,4.767405404534657-7.785371313298128-.93466918492777-3.241296209697794-4.309527099081606-5.767001839132718-7.785371313297219-4.767405404534657Z"/>
    <path class="cls-3" d="M134.144497234134178,108.722412612240987c-13.150137458676909,1.184148176730559-25.858039849903435,4.952008716406453-38.603822633805976,8.213532289209979-3.269716635186342.83668428135843-5.743787252613402,4.39844391076349-4.767405404536476,7.785371313298128.958085385502272,3.323410824395069,4.280295645612568,5.664295213246987,7.785371313299038,4.767405404533747,11.559650784296537-2.957981004354224,23.177626300141128-6.517450539007768,35.070511912199436-7.85117867297231.029610303412483-.002688530347768.059122365746589-.005785679727524.088528359639895-.008425089536104,1.798501586890779-.161980538542593,3.328059233104796-.492439558837759,4.684288574953825-1.795527970170951,1.118689752152932-1.074866262230898,2.001379468982122-2.866159262172005,1.98242119653878-4.44440414535984-.020161263480986-1.694714046509944-.533020352726453-3.479095383027925-1.795299100387638-4.684235540733425-1.129802460287465-1.078412944036245-2.814891008678387-2.129275227642211-4.444594217900885-1.982537588269224Z"/>
    <path class="cls-3" d="M185.828927779011792,97.654800451377014c-12.04881012466285,2.518970800111674-24.097607969189994,5.037992677603143-36.146622403370202,7.557012598253095-3.308261961732569.691642335459619-5.714204128007623,4.501714344660286-4.767405404534657,7.785371313298128.993830981362407,3.446919641506611,4.24087964771752,5.508440517674899,7.785371313297219,4.767405404534657,12.049014434180208-2.519019920649953,24.097812278709171-5.038041798141421,36.146622403370202-7.557012598253095,3.308261961732569-.69164233545871,5.714204128007623-4.501714344660286,4.767405404534657-7.785371313297219-.993830981360588-3.446919641506611-4.240675338201982-5.508489638214087-7.785371313297219-4.767405404535566Z"/>
    <path class="cls-3" d="M241.691105995332691,59.468085106382205c-1.106749577675146-6.902778150571066,9.273037609367748-16.416255042106968,8.166260204434366-23.319148936169768-.303888174617896-1.895306472079028-12.515732261490484,1.555368779739183-17.352336498632212,2.807328124030391-5.077070460343748,1.314180404693616-17.866875733534471,4.523732401635243-17.541280522644229,6.554374003629164,1.10677740493702,6.9028938940628,16.378385864889424,11.480200572833382,17.48513544256457,18.382978723404449.303888174616077,1.895306472079028,3.79146030211632,3.404255319148433,5.086203427863438,2.882359562175225,4.390135247644139-1.76961198922163,4.481640984569822-5.277134131585626,4.156017946414067-7.307891477069461Z"/>
    <path class="cls-3" d="M241.944346869579022,84.757466823999493c-12.86544762795711,2.878856758997244-25.730690946395043,5.757664397455301-38.595921984700908,8.636523113294061-3.296956410425992.737767165736841-5.72377157117262,4.469111321993296-4.767405404534657,7.785371313298128.982499651572653,3.407878912216802,4.252562508610936,5.557932541300033,7.785371313297219,4.767405404533747,12.865231038305865-2.87885871583785,25.730474356745617-5.757666354295907,38.595921984700908-8.636523113293151,3.296752100912272-.737718045199472,5.723567261657081-4.469062201455017,4.767405404534657-7.785371313297219-.98251193170654-3.407929989596596-4.252779098260362-5.557934498142458-7.785371313297219-4.767405404535566Z"/>
  </g>
</svg>