<?xml version="1.0" encoding="UTF-8"?>
<svg id="Layer_1" xmlns="http://www.w3.org/2000/svg" viewBox="0 0 280 280">
  <defs>
    <style>
      .cls-1 {
        stroke: #665451;
        stroke-width: 50px;
      }

      .cls-1, .cls-2 {
        fill: none;
        stroke-linecap: round;
        stroke-linejoin: round;
      }

      .cls-3 {
        fill: #fff;
      }

      .cls-2 {
        stroke: #998675;
        stroke-width: 2px;
      }
    </style>
  </defs>
  <path class="cls-1" d="M107.797186668880386,82.50732421875c-.17578125-3.4365234375-1.1796875-6.177734375-3.005859375-8.2236328125-1.8310546875-2.04248046875-3.9755859375-3.52001953125-6.4326171875-4.427734375-2.4609375-.908203125-5.0322265625-1.32568359375-7.71875-1.25927734375-2.6845703125.06982421875-4.90625.494140625-6.6572265625,1.27197265625-2.296875.9453125-3.755859375,2.0537109375-4.3798828125,3.3271484375-.626953125,1.27294921875-.6962890625,2.55322265625-.2158203125,3.8369140625.478515625,1.2880859375,1.2958984375,2.48779296875,2.4580078125,3.59765625,1.1591796875,1.1142578125,2.4462890625,1.9794921875,3.857421875,2.595703125,1.6923828125.74072265625,3.5927734375,1.5048828125,5.701171875,2.29296875,2.1103515625.79052734375,4.1416015625,1.4775390625,6.1044921875,2.0654296875,1.9609375.591796875,3.712890625,1.15380859375,5.2587890625,1.6953125,1.5439453125.54296875,2.740234375.99755859375,3.5859375,1.3671875,5.6259765625,2.19482421875,10.6357421875,5.07666015625,15.025390625,8.642578125,4.3876953125,3.5693359375,7.876953125,7.767578125,10.470703125,12.59765625,2.4453125,4.70361328125,3.8232421875,9.390625,4.1337890625,14.060546875.306640625,4.6748046875-.2236328125,9.1494140625-1.587890625,13.4228515625-1.3671875,4.27783203125-3.474609375,8.24560546875-6.318359375,11.90869140625-2.84765625,3.662109375-6.1337890625,6.8291015625-9.8564453125,9.501953125-4.6611328125,3.2734375-9.6103515625,5.560546875-14.8505859375,6.86328125-5.244140625,1.302734375-10.4296875,1.7041015625-15.5556640625,1.2109375-5.1279296875-.4970703125-10.125-1.828125-14.9931640625-3.990234375-4.869140625-2.1611328125-9.3291015625-5.0703125-13.375-8.724609375-2.603515625-2.349609375-4.705078125-5.0341796875-6.3076171875-8.0546875-1.603515625-3.0205078125-2.6259765625-6.1396484375-3.064453125-9.35888671875-.443359375-3.2158203125-.330078125-6.427734375.33203125-9.634765625.6630859375-3.2041015625,2.0986328125-6.10546875,4.3115234375-8.7021484375.376953125-.70703125.8974609375-1.2861328125,1.5673828125-1.734375,1.8388671875-1.74951171875,3.8359375-2.47265625,5.990234375-2.1689453125,2.15234375.30322265625,3.787109375,1.9453125,4.9052734375,4.919921875,2.3603515625,5.669921875,5.7294921875,10.255859375,10.1171875,13.75390625,4.3837890625,3.4990234375,9.5400390625,5.2353515625,15.4697265625,5.2060546875,1.931640625.0400390625,3.775390625-.296875,5.533203125-1.0078125,1.75390625-.7099609375,3.2236328125-1.6806640625,4.4013671875-2.9150390625,1.177734375-1.2294921875,1.958984375-2.7529296875,2.3505859375-4.5673828125.3896484375-1.8095703125.11328125-3.8642578125-.83203125-6.1630859375-.9521484375-2.4326171875-2.8857421875-4.4697265625-5.7958984375-6.1142578125-2.9111328125-1.6416015625-6.12109375-3.0283203125-9.623046875-4.162109375-3.5068359375-1.1279296875-7.0087890625-2.154296875-10.5009765625-3.08056640625-3.4951171875-.92236328125-6.298828125-1.81396484375-8.41015625-2.671875-5.35546875-2.20751953125-10.1552734375-5.0283203125-14.396484375-8.46728515625-4.2451171875-3.43359375-7.0712890625-8.14990234375-8.4814453125-14.1484375-1.0712890625-4.76904296875-1.0107421875-9.6337890625.18359375-14.59130859375,1.1943359375-4.955078125,3.41796875-9.30859375,6.6728515625-13.06298828125,2.4765625-2.7451171875,5.2890625-5.09619140625,8.4296875-7.05078125,3.138671875-1.95166015625,6.3671875-3.53271484375,9.6865234375-4.73681640625,3.3154296875-1.2041015625,6.6171875-2.0615234375,9.8994140625-2.5751953125,3.2841796875-.51123046875,6.298828125-.83984375,9.0517578125-.98095703125,5.0859375-.26025390625,10.0419921875.208984375,14.8603515625,1.41015625,4.8193359375,1.2001953125,9.1181640625,3.048828125,12.9033203125,5.544921875,3.779296875,2.4951171875,6.8349609375,5.615234375,9.166015625,9.35400390625,2.328125,3.7431640625,3.5498046875,8.09228515625,3.66796875,13.0517578125.0986328125,1.9267578125-.3623046875,3.70849609375-1.380859375,5.34521484375-1.021484375,1.6376953125-2.39453125,3.08935546875-4.12109375,4.3466796875-1.7294921875,1.26171875-3.6806640625,2.224609375-5.8505859375,2.8857421875-2.1728515625.66455078125-4.49609375,1.056640625-6.97265625,1.18359375-1.5146484375.07763671875-2.76953125-.19970703125-3.765625-.83984375-.9990234375-.63720703125-1.546875-1.91796875-1.6455078125-3.845703125Z"/>
  <path class="cls-2" d="M107.797186668880386,82.50732421875c-.17578125-3.4365234375-1.1796875-6.177734375-3.005859375-8.2236328125-1.8310546875-2.04248046875-3.9755859375-3.52001953125-6.4326171875-4.427734375-2.4609375-.908203125-5.0322265625-1.32568359375-7.71875-1.25927734375-2.6845703125.06982421875-4.90625.494140625-6.6572265625,1.27197265625-2.296875.9453125-3.755859375,2.0537109375-4.3798828125,3.3271484375-.626953125,1.27294921875-.6962890625,2.55322265625-.2158203125,3.8369140625.478515625,1.2880859375,1.2958984375,2.48779296875,2.4580078125,3.59765625,1.1591796875,1.1142578125,2.4462890625,1.9794921875,3.857421875,2.595703125,1.6923828125.74072265625,3.5927734375,1.5048828125,5.701171875,2.29296875,2.1103515625.79052734375,4.1416015625,1.4775390625,6.1044921875,2.0654296875,1.9609375.591796875,3.712890625,1.15380859375,5.2587890625,1.6953125,1.5439453125.54296875,2.740234375.99755859375,3.5859375,1.3671875,5.6259765625,2.19482421875,10.6357421875,5.07666015625,15.025390625,8.642578125,4.3876953125,3.5693359375,7.876953125,7.767578125,10.470703125,12.59765625,2.4453125,4.70361328125,3.8232421875,9.390625,4.1337890625,14.060546875.306640625,4.6748046875-.2236328125,9.1494140625-1.587890625,13.4228515625-1.3671875,4.27783203125-3.474609375,8.24560546875-6.318359375,11.90869140625-2.84765625,3.662109375-6.1337890625,6.8291015625-9.8564453125,9.501953125-4.6611328125,3.2734375-9.6103515625,5.560546875-14.8505859375,6.86328125-5.244140625,1.302734375-10.4296875,1.7041015625-15.5556640625,1.2109375-5.1279296875-.4970703125-10.125-1.828125-14.9931640625-3.990234375-4.869140625-2.1611328125-9.3291015625-5.0703125-13.375-8.724609375-2.603515625-2.349609375-4.705078125-5.0341796875-6.3076171875-8.0546875-1.603515625-3.0205078125-2.6259765625-6.1396484375-3.064453125-9.35888671875-.443359375-3.2158203125-.330078125-6.427734375.33203125-9.634765625.6630859375-3.2041015625,2.0986328125-6.10546875,4.3115234375-8.7021484375.376953125-.70703125.8974609375-1.2861328125,1.5673828125-1.734375,1.8388671875-1.74951171875,3.8359375-2.47265625,5.990234375-2.1689453125,2.15234375.30322265625,3.787109375,1.9453125,4.9052734375,4.919921875,2.3603515625,5.669921875,5.7294921875,10.255859375,10.1171875,13.75390625,4.3837890625,3.4990234375,9.5400390625,5.2353515625,15.4697265625,5.2060546875,1.931640625.0400390625,3.775390625-.296875,5.533203125-1.0078125,1.75390625-.7099609375,3.2236328125-1.6806640625,4.4013671875-2.9150390625,1.177734375-1.2294921875,1.958984375-2.7529296875,2.3505859375-4.5673828125.3896484375-1.8095703125.11328125-3.8642578125-.83203125-6.1630859375-.9521484375-2.4326171875-2.8857421875-4.4697265625-5.7958984375-6.1142578125-2.9111328125-1.6416015625-6.12109375-3.0283203125-9.623046875-4.162109375-3.5068359375-1.1279296875-7.0087890625-2.154296875-10.5009765625-3.08056640625-3.4951171875-.92236328125-6.298828125-1.81396484375-8.41015625-2.671875-5.35546875-2.20751953125-10.1552734375-5.0283203125-14.396484375-8.46728515625-4.2451171875-3.43359375-7.0712890625-8.14990234375-8.4814453125-14.1484375-1.0712890625-4.76904296875-1.0107421875-9.6337890625.18359375-14.59130859375,1.1943359375-4.955078125,3.41796875-9.30859375,6.6728515625-13.06298828125,2.4765625-2.7451171875,5.2890625-5.09619140625,8.4296875-7.05078125,3.138671875-1.95166015625,6.3671875-3.53271484375,9.6865234375-4.73681640625,3.3154296875-1.2041015625,6.6171875-2.0615234375,9.8994140625-2.5751953125,3.2841796875-.51123046875,6.298828125-.83984375,9.0517578125-.98095703125,5.0859375-.26025390625,10.0419921875.208984375,14.8603515625,1.41015625,4.8193359375,1.2001953125,9.1181640625,3.048828125,12.9033203125,5.544921875,3.779296875,2.4951171875,6.8349609375,5.615234375,9.166015625,9.35400390625,2.328125,3.7431640625,3.5498046875,8.09228515625,3.66796875,13.0517578125.0986328125,1.9267578125-.3623046875,3.70849609375-1.380859375,5.34521484375-1.021484375,1.6376953125-2.39453125,3.08935546875-4.12109375,4.3466796875-1.7294921875,1.26171875-3.6806640625,2.224609375-5.8505859375,2.8857421875-2.1728515625.66455078125-4.49609375,1.056640625-6.97265625,1.18359375-1.5146484375.07763671875-2.76953125-.19970703125-3.765625-.83984375-.9990234375-.63720703125-1.546875-1.91796875-1.6455078125-3.845703125Z"/>
  <path class="cls-3" d="M107.797186668880386,82.50732421875c-.17578125-3.4365234375-1.1796875-6.177734375-3.005859375-8.2236328125-1.8310546875-2.04248046875-3.9755859375-3.52001953125-6.4326171875-4.427734375-2.4609375-.908203125-5.0322265625-1.32568359375-7.71875-1.25927734375-2.6845703125.06982421875-4.90625.494140625-6.6572265625,1.27197265625-2.296875.9453125-3.755859375,2.0537109375-4.3798828125,3.3271484375-.626953125,1.27294921875-.6962890625,2.55322265625-.2158203125,3.8369140625.478515625,1.2880859375,1.2958984375,2.48779296875,2.4580078125,3.59765625,1.1591796875,1.1142578125,2.4462890625,1.9794921875,3.857421875,2.595703125,1.6923828125.74072265625,3.5927734375,1.5048828125,5.701171875,2.29296875,2.1103515625.79052734375,4.1416015625,1.4775390625,6.1044921875,2.0654296875,1.9609375.591796875,3.712890625,1.15380859375,5.2587890625,1.6953125,1.5439453125.54296875,2.740234375.99755859375,3.5859375,1.3671875,5.6259765625,2.19482421875,10.6357421875,5.07666015625,15.025390625,8.642578125,4.3876953125,3.5693359375,7.876953125,7.767578125,10.470703125,12.59765625,2.4453125,4.70361328125,3.8232421875,9.390625,4.1337890625,14.060546875.306640625,4.6748046875-.2236328125,9.1494140625-1.587890625,13.4228515625-1.3671875,4.27783203125-3.474609375,8.24560546875-6.318359375,11.90869140625-2.84765625,3.662109375-6.1337890625,6.8291015625-9.8564453125,9.501953125-4.6611328125,3.2734375-9.6103515625,5.560546875-14.8505859375,6.86328125-5.244140625,1.302734375-10.4296875,1.7041015625-15.5556640625,1.2109375-5.1279296875-.4970703125-10.125-1.828125-14.9931640625-3.990234375-4.869140625-2.1611328125-9.3291015625-5.0703125-13.375-8.724609375-2.603515625-2.349609375-4.705078125-5.0341796875-6.3076171875-8.0546875-1.603515625-3.0205078125-2.6259765625-6.1396484375-3.064453125-9.35888671875-.443359375-3.2158203125-.330078125-6.427734375.33203125-9.634765625.6630859375-3.2041015625,2.0986328125-6.10546875,4.3115234375-8.7021484375.376953125-.70703125.8974609375-1.2861328125,1.5673828125-1.734375,1.8388671875-1.74951171875,3.8359375-2.47265625,5.990234375-2.1689453125,2.15234375.30322265625,3.787109375,1.9453125,4.9052734375,4.919921875,2.3603515625,5.669921875,5.7294921875,10.255859375,10.1171875,13.75390625,4.3837890625,3.4990234375,9.5400390625,5.2353515625,15.4697265625,5.2060546875,1.931640625.0400390625,3.775390625-.296875,5.533203125-1.0078125,1.75390625-.7099609375,3.2236328125-1.6806640625,4.4013671875-2.9150390625,1.177734375-1.2294921875,1.958984375-2.7529296875,2.3505859375-4.5673828125.3896484375-1.8095703125.11328125-3.8642578125-.83203125-6.1630859375-.9521484375-2.4326171875-2.8857421875-4.4697265625-5.7958984375-6.1142578125-2.9111328125-1.6416015625-6.12109375-3.0283203125-9.623046875-4.162109375-3.5068359375-1.1279296875-7.0087890625-2.154296875-10.5009765625-3.08056640625-3.4951171875-.92236328125-6.298828125-1.81396484375-8.41015625-2.671875-5.35546875-2.20751953125-10.1552734375-5.0283203125-14.396484375-8.46728515625-4.2451171875-3.43359375-7.0712890625-8.14990234375-8.4814453125-14.1484375-1.0712890625-4.76904296875-1.0107421875-9.6337890625.18359375-14.59130859375,1.1943359375-4.955078125,3.41796875-9.30859375,6.6728515625-13.06298828125,2.4765625-2.7451171875,5.2890625-5.09619140625,8.4296875-7.05078125,3.138671875-1.95166015625,6.3671875-3.53271484375,9.6865234375-4.73681640625,3.3154296875-1.2041015625,6.6171875-2.0615234375,9.8994140625-2.5751953125,3.2841796875-.51123046875,6.298828125-.83984375,9.0517578125-.98095703125,5.0859375-.26025390625,10.0419921875.208984375,14.8603515625,1.41015625,4.8193359375,1.2001953125,9.1181640625,3.048828125,12.9033203125,5.544921875,3.779296875,2.4951171875,6.8349609375,5.615234375,9.166015625,9.35400390625,2.328125,3.7431640625,3.5498046875,8.09228515625,3.66796875,13.0517578125.0986328125,1.9267578125-.3623046875,3.70849609375-1.380859375,5.34521484375-1.021484375,1.6376953125-2.39453125,3.08935546875-4.12109375,4.3466796875-1.7294921875,1.26171875-3.6806640625,2.224609375-5.8505859375,2.8857421875-2.1728515625.66455078125-4.49609375,1.056640625-6.97265625,1.18359375-1.5146484375.07763671875-2.76953125-.19970703125-3.765625-.83984375-.9990234375-.63720703125-1.546875-1.91796875-1.6455078125-3.845703125Z"/>
</svg>