<?xml version="1.0" encoding="UTF-8"?>
<svg id="Layer_1" xmlns="http://www.w3.org/2000/svg" viewBox="0 0 280 280">
  <defs>
    <style>
      .cls-1 {
        stroke: #665451;
        stroke-width: 50px;
      }

      .cls-1, .cls-2 {
        fill: none;
        stroke-linecap: round;
        stroke-linejoin: round;
      }

      .cls-3 {
        fill: #fff;
      }

      .cls-2 {
        stroke: #998675;
        stroke-width: 2px;
      }
    </style>
  </defs>
  <g>
    <path d="M185.55810546875,76.20068359375c.3662109375.068359375.623046875.29296875.77001953125.671875.1455078125.380859375.24267578125.8046875.29150390625,1.2744140625.04736328125.4697265625.04052734375.9423828125-.02001953125,1.4189453125-.06201171875.4765625-.11181640625.8203125-.15087890625,1.029296875-.17529296875.943359375-.384765625,1.9208984375-.626953125,2.93359375-.2431640625,1.01171875-.5224609375,1.935546875-.8408203125,2.771484375-.31787109375.8349609375-.6904296875,1.525390625-1.11669921875,2.0693359375s-.93798828125.8134765625-1.53369140625.8125c-.28271484375.0556640625-.85009765625-.0234375-1.70458984375-.2353515625-.85498046875-.2138671875-1.8759765625-.4853515625-3.06103515625-.8134765625-1.23828125-.33984375-2.5712890625-.681640625-3.9970703125-1.0283203125-1.427734375-.34765625-2.8955078125-.6884765625-4.4052734375-1.0224609375-1.5107421875-.3359375-2.97265625-.634765625-4.3876953125-.8974609375-1.4150390625-.263671875-2.67724609375-.4716796875-3.78759765625-.623046875-.96240234375-.0712890625-2.13916015625-.2353515625-3.52685546875-.494140625-1.3896484375-.2578125-2.568359375-.55859375-3.53369140625-.900390625-.7568359375-.3037109375-1.2451171875-1.03125-1.4638671875-2.18359375-.22021484375-1.15234375-.232421875-2.46875-.0380859375-3.951171875.1943359375-1.4814453125.59765625-2.9931640625,1.20947265625-4.533203125s1.34375-2.853515625,2.19677734375-3.943359375c1.31689453125-1.54296875,2.73388671875-2.892578125,4.25048828125-4.0478515625,1.515625-1.154296875,3.0732421875-2.2470703125,4.67578125-3.2783203125,1.60107421875-1.0302734375,3.23193359375-2.068359375,4.89013671875-3.1162109375,1.65869140625-1.0458984375,3.3095703125-2.2021484375,4.9560546875-3.4697265625.6923828125-.521484375,1.51806640625-1.31640625,2.47705078125-2.3857421875.95703125-1.068359375,1.7314453125-2.1708984375,2.3232421875-3.30859375.763671875-1.484375.9609375-2.6943359375.59375-3.630859375-.36865234375-.935546875-1.0205078125-1.5849609375-1.955078125-1.94921875-.9365234375-.36328125-2.0224609375-.4306640625-3.2568359375-.19921875-1.23681640625.23046875-2.3671875.7666015625-3.3896484375,1.6064453125-.90966796875.806640625-1.6513671875,1.806640625-2.2255859375,3.0009765625-.5751953125,1.1943359375-.748046875,2.4921875-.51953125,3.888671875.0556640625.2822265625.11767578125.60546875.185546875.9697265625.06640625.3662109375.09814453125.708984375.09228515625,1.033203125-.0849609375.7451171875-.70751953125,1.4013671875-1.87158203125,1.970703125-1.16259765625.5703125-2.4580078125.8984375-3.8828125.9853515625-1.4267578125.087890625-2.76806640625-.134765625-4.02392578125-.6669921875-1.25732421875-.53125-2.02099609375-1.52734375-2.29052734375-2.9873046875-.2265625-1.994140625-.1259765625-3.9130859375.29833984375-5.7607421875.42431640625-1.84375,1.0751953125-3.59375,1.9521484375-5.248046875.876953125-1.65234375,1.97265625-3.1708984375,3.28662109375-4.552734375,1.314453125-1.3828125,2.76416015625-2.548828125,4.3515625-3.5009765625,1.71044921875-1.037109375,3.59521484375-1.771484375,5.6552734375-2.201171875,2.05859375-.4306640625,4.12451171875-.5341796875,6.1982421875-.3115234375,2.0732421875.22265625,4.04296875.7802734375,5.9111328125,1.6689453125,1.86767578125.890625,3.4609375,2.1630859375,4.77978515625,3.81640625,1.0625,1.283203125,1.8359375,2.6591796875,2.32177734375,4.1328125.484375,1.47265625.74609375,2.9853515625.78271484375,4.537109375.03662109375,1.552734375-.13037109375,3.107421875-.50146484375,4.6650390625-.37109375,1.556640625-.88720703125,3.087890625-1.54541015625,4.591796875-1.0068359375,2.19921875-2.2734375,4.130859375-3.80322265625,5.798828125-1.52978515625,1.6669921875-3.18798828125,3.216796875-4.97119140625,4.646484375-1.78466796875,1.4306640625-3.65087890625,2.791015625-5.5986328125,4.08203125-1.94775390625,1.29296875-3.86376953125,2.6298828125-5.74755859375,4.0146484375,5.12060546875.736328125,10.23046875,1.6865234375,15.328125,2.8505859375Z"/>
    <path d="M102.834827057437906,89.038449449592008c-.035344482904293.203000743272241-.141754425010731.739208503197005.046536867430405.822903923809463,14.714380755983257,6.540537644930737,23.148861066751124,20.670772876114825,24.16103793334878,38.568933218974962.791126746305963,13.989366704765416-2.798008152916736,25.337071121775807-10.767404697669008,34.043113251027535-7.969396544751362,8.706042129251728-18.915140509117009,13.452724289865728-32.835281883798416,14.239936204907281-13.441414091990737.760138926998479-24.4132064846508-2.88399978916641-32.917437464215254-10.934255880860292-8.504120702627006-8.048306082393538-13.144025041501664-18.930641825103521-13.919713016622154-32.647007228133589-.779492529449271-13.783640723810095,1.529006063681663-24.971869656310446,6.924355359336914-33.567556672976934,5.396379438771874-8.594767150485495,12.469360819467511-14.584730465084249,21.22192429450115-17.969080354552716,8.750613465735114-3.384239612531928,19.711101598378264-5.448764635172665,32.877564379333307-6.193354514049133l36.830559278344481-2.082842000030723c2.553337150518018-.144396337213948,4.7402822430995,1.808436036306375,4.884678580313448,4.361773186824394l.262404244388563,4.640051947149914c.144396337213948,2.553337150518928-1.808436036306375,4.74028224310041-4.361773186825303,4.884678580314358,0,0-31.689086255943039-2.293213795793235-32.407450687866913,1.832706337595482ZM92.93868285517965,93.354952261884137c-2.041507401060699-2.097486487837159-4.966273809329323-3.119505957432011-7.867179138997926-2.729697923207823-20.892890028825605,2.807474035125779-30.632439103414981,16.682860391110808-29.221925484361236,41.624745305425677.67869940899709,12.001332225321676,3.431539565531239,21.166675197244331,8.262530765137853,27.497758371184318,4.829041190308089,6.331193450878345,11.186968088599315,9.27378264039362,19.073780694875495,8.827767568545823,17.898160342860137-1.012176866595837,26.151200056945527-13.826236487348069,24.758898588379452-38.446078880853747-.854879975780023-15.1167047828676-5.856888667446583-27.374401885291263-15.006105425033638-36.774494441094248Z"/>
  </g>
  <g>
    <path class="cls-1" d="M185.55810546875,76.20068359375c.3662109375.068359375.623046875.29296875.77001953125.671875.1455078125.380859375.24267578125.8046875.29150390625,1.2744140625.04736328125.4697265625.04052734375.9423828125-.02001953125,1.4189453125-.06201171875.4765625-.11181640625.8203125-.15087890625,1.029296875-.17529296875.943359375-.384765625,1.9208984375-.626953125,2.93359375-.2431640625,1.01171875-.5224609375,1.935546875-.8408203125,2.771484375-.31787109375.8349609375-.6904296875,1.525390625-1.11669921875,2.0693359375s-.93798828125.8134765625-1.53369140625.8125c-.28271484375.0556640625-.85009765625-.0234375-1.70458984375-.2353515625-.85498046875-.2138671875-1.8759765625-.4853515625-3.06103515625-.8134765625-1.23828125-.33984375-2.5712890625-.681640625-3.9970703125-1.0283203125-1.427734375-.34765625-2.8955078125-.6884765625-4.4052734375-1.0224609375-1.5107421875-.3359375-2.97265625-.634765625-4.3876953125-.8974609375-1.4150390625-.263671875-2.67724609375-.4716796875-3.78759765625-.623046875-.96240234375-.0712890625-2.13916015625-.2353515625-3.52685546875-.494140625-1.3896484375-.2578125-2.568359375-.55859375-3.53369140625-.900390625-.7568359375-.3037109375-1.2451171875-1.03125-1.4638671875-2.18359375-.22021484375-1.15234375-.232421875-2.46875-.0380859375-3.951171875.1943359375-1.4814453125.59765625-2.9931640625,1.20947265625-4.533203125s1.34375-2.853515625,2.19677734375-3.943359375c1.31689453125-1.54296875,2.73388671875-2.892578125,4.25048828125-4.0478515625,1.515625-1.154296875,3.0732421875-2.2470703125,4.67578125-3.2783203125,1.60107421875-1.0302734375,3.23193359375-2.068359375,4.89013671875-3.1162109375,1.65869140625-1.0458984375,3.3095703125-2.2021484375,4.9560546875-3.4697265625.6923828125-.521484375,1.51806640625-1.31640625,2.47705078125-2.3857421875.95703125-1.068359375,1.7314453125-2.1708984375,2.3232421875-3.30859375.763671875-1.484375.9609375-2.6943359375.59375-3.630859375-.36865234375-.935546875-1.0205078125-1.5849609375-1.955078125-1.94921875-.9365234375-.36328125-2.0224609375-.4306640625-3.2568359375-.19921875-1.23681640625.23046875-2.3671875.7666015625-3.3896484375,1.6064453125-.90966796875.806640625-1.6513671875,1.806640625-2.2255859375,3.0009765625-.5751953125,1.1943359375-.748046875,2.4921875-.51953125,3.888671875.0556640625.2822265625.11767578125.60546875.185546875.9697265625.06640625.3662109375.09814453125.708984375.09228515625,1.033203125-.0849609375.7451171875-.70751953125,1.4013671875-1.87158203125,1.970703125-1.16259765625.5703125-2.4580078125.8984375-3.8828125.9853515625-1.4267578125.087890625-2.76806640625-.134765625-4.02392578125-.6669921875-1.25732421875-.53125-2.02099609375-1.52734375-2.29052734375-2.9873046875-.2265625-1.994140625-.1259765625-3.9130859375.29833984375-5.7607421875.42431640625-1.84375,1.0751953125-3.59375,1.9521484375-5.248046875.876953125-1.65234375,1.97265625-3.1708984375,3.28662109375-4.552734375,1.314453125-1.3828125,2.76416015625-2.548828125,4.3515625-3.5009765625,1.71044921875-1.037109375,3.59521484375-1.771484375,5.6552734375-2.201171875,2.05859375-.4306640625,4.12451171875-.5341796875,6.1982421875-.3115234375,2.0732421875.22265625,4.04296875.7802734375,5.9111328125,1.6689453125,1.86767578125.890625,3.4609375,2.1630859375,4.77978515625,3.81640625,1.0625,1.283203125,1.8359375,2.6591796875,2.32177734375,4.1328125.484375,1.47265625.74609375,2.9853515625.78271484375,4.537109375.03662109375,1.552734375-.13037109375,3.107421875-.50146484375,4.6650390625-.37109375,1.556640625-.88720703125,3.087890625-1.54541015625,4.591796875-1.0068359375,2.19921875-2.2734375,4.130859375-3.80322265625,5.798828125-1.52978515625,1.6669921875-3.18798828125,3.216796875-4.97119140625,4.646484375-1.78466796875,1.4306640625-3.65087890625,2.791015625-5.5986328125,4.08203125-1.94775390625,1.29296875-3.86376953125,2.6298828125-5.74755859375,4.0146484375,5.12060546875.736328125,10.23046875,1.6865234375,15.328125,2.8505859375Z"/>
    <path class="cls-1" d="M102.834827057437906,89.038449449592008c-.035344482904293.203000743272241-.141754425010731.739208503197005.046536867430405.822903923809463,14.714380755983257,6.540537644930737,23.148861066751124,20.670772876114825,24.16103793334878,38.568933218974962.791126746305963,13.989366704765416-2.798008152916736,25.337071121775807-10.767404697669008,34.043113251027535-7.969396544751362,8.706042129251728-18.915140509117009,13.452724289865728-32.835281883798416,14.239936204907281-13.441414091990737.760138926998479-24.4132064846508-2.88399978916641-32.917437464215254-10.934255880860292-8.504120702627006-8.048306082393538-13.144025041501664-18.930641825103521-13.919713016622154-32.647007228133589-.779492529449271-13.783640723810095,1.529006063681663-24.971869656310446,6.924355359336914-33.567556672976934,5.396379438771874-8.594767150485495,12.469360819467511-14.584730465084249,21.22192429450115-17.969080354552716,8.750613465735114-3.384239612531928,19.711101598378264-5.448764635172665,32.877564379333307-6.193354514049133l36.830559278344481-2.082842000030723c2.553337150518018-.144396337213948,4.7402822430995,1.808436036306375,4.884678580313448,4.361773186824394l.262404244388563,4.640051947149914c.144396337213948,2.553337150518928-1.808436036306375,4.74028224310041-4.361773186825303,4.884678580314358,0,0-31.689086255943039-2.293213795793235-32.407450687866913,1.832706337595482ZM92.93868285517965,93.354952261884137c-2.041507401060699-2.097486487837159-4.966273809329323-3.119505957432011-7.867179138997926-2.729697923207823-20.892890028825605,2.807474035125779-30.632439103414981,16.682860391110808-29.221925484361236,41.624745305425677.67869940899709,12.001332225321676,3.431539565531239,21.166675197244331,8.262530765137853,27.497758371184318,4.829041190308089,6.331193450878345,11.186968088599315,9.27378264039362,19.073780694875495,8.827767568545823,17.898160342860137-1.012176866595837,26.151200056945527-13.826236487348069,24.758898588379452-38.446078880853747-.854879975780023-15.1167047828676-5.856888667446583-27.374401885291263-15.006105425033638-36.774494441094248Z"/>
  </g>
  <g>
    <path class="cls-2" d="M185.55810546875,76.20068359375c.3662109375.068359375.623046875.29296875.77001953125.671875.1455078125.380859375.24267578125.8046875.29150390625,1.2744140625.04736328125.4697265625.04052734375.9423828125-.02001953125,1.4189453125-.06201171875.4765625-.11181640625.8203125-.15087890625,1.029296875-.17529296875.943359375-.384765625,1.9208984375-.626953125,2.93359375-.2431640625,1.01171875-.5224609375,1.935546875-.8408203125,2.771484375-.31787109375.8349609375-.6904296875,1.525390625-1.11669921875,2.0693359375s-.93798828125.8134765625-1.53369140625.8125c-.28271484375.0556640625-.85009765625-.0234375-1.70458984375-.2353515625-.85498046875-.2138671875-1.8759765625-.4853515625-3.06103515625-.8134765625-1.23828125-.33984375-2.5712890625-.681640625-3.9970703125-1.0283203125-1.427734375-.34765625-2.8955078125-.6884765625-4.4052734375-1.0224609375-1.5107421875-.3359375-2.97265625-.634765625-4.3876953125-.8974609375-1.4150390625-.263671875-2.67724609375-.4716796875-3.78759765625-.623046875-.96240234375-.0712890625-2.13916015625-.2353515625-3.52685546875-.494140625-1.3896484375-.2578125-2.568359375-.55859375-3.53369140625-.900390625-.7568359375-.3037109375-1.2451171875-1.03125-1.4638671875-2.18359375-.22021484375-1.15234375-.232421875-2.46875-.0380859375-3.951171875.1943359375-1.4814453125.59765625-2.9931640625,1.20947265625-4.533203125s1.34375-2.853515625,2.19677734375-3.943359375c1.31689453125-1.54296875,2.73388671875-2.892578125,4.25048828125-4.0478515625,1.515625-1.154296875,3.0732421875-2.2470703125,4.67578125-3.2783203125,1.60107421875-1.0302734375,3.23193359375-2.068359375,4.89013671875-3.1162109375,1.65869140625-1.0458984375,3.3095703125-2.2021484375,4.9560546875-3.4697265625.6923828125-.521484375,1.51806640625-1.31640625,2.47705078125-2.3857421875.95703125-1.068359375,1.7314453125-2.1708984375,2.3232421875-3.30859375.763671875-1.484375.9609375-2.6943359375.59375-3.630859375-.36865234375-.935546875-1.0205078125-1.5849609375-1.955078125-1.94921875-.9365234375-.36328125-2.0224609375-.4306640625-3.2568359375-.19921875-1.23681640625.23046875-2.3671875.7666015625-3.3896484375,1.6064453125-.90966796875.806640625-1.6513671875,1.806640625-2.2255859375,3.0009765625-.5751953125,1.1943359375-.748046875,2.4921875-.51953125,3.888671875.0556640625.2822265625.11767578125.60546875.185546875.9697265625.06640625.3662109375.09814453125.708984375.09228515625,1.033203125-.0849609375.7451171875-.70751953125,1.4013671875-1.87158203125,1.970703125-1.16259765625.5703125-2.4580078125.8984375-3.8828125.9853515625-1.4267578125.087890625-2.76806640625-.134765625-4.02392578125-.6669921875-1.25732421875-.53125-2.02099609375-1.52734375-2.29052734375-2.9873046875-.2265625-1.994140625-.1259765625-3.9130859375.29833984375-5.7607421875.42431640625-1.84375,1.0751953125-3.59375,1.9521484375-5.248046875.876953125-1.65234375,1.97265625-3.1708984375,3.28662109375-4.552734375,1.314453125-1.3828125,2.76416015625-2.548828125,4.3515625-3.5009765625,1.71044921875-1.037109375,3.59521484375-1.771484375,5.6552734375-2.201171875,2.05859375-.4306640625,4.12451171875-.5341796875,6.1982421875-.3115234375,2.0732421875.22265625,4.04296875.7802734375,5.9111328125,1.6689453125,1.86767578125.890625,3.4609375,2.1630859375,4.77978515625,3.81640625,1.0625,1.283203125,1.8359375,2.6591796875,2.32177734375,4.1328125.484375,1.47265625.74609375,2.9853515625.78271484375,4.537109375.03662109375,1.552734375-.13037109375,3.107421875-.50146484375,4.6650390625-.37109375,1.556640625-.88720703125,3.087890625-1.54541015625,4.591796875-1.0068359375,2.19921875-2.2734375,4.130859375-3.80322265625,5.798828125-1.52978515625,1.6669921875-3.18798828125,3.216796875-4.97119140625,4.646484375-1.78466796875,1.4306640625-3.65087890625,2.791015625-5.5986328125,4.08203125-1.94775390625,1.29296875-3.86376953125,2.6298828125-5.74755859375,4.0146484375,5.12060546875.736328125,10.23046875,1.6865234375,15.328125,2.8505859375Z"/>
    <path class="cls-2" d="M102.834827057437906,89.038449449592008c-.035344482904293.203000743272241-.141754425010731.739208503197005.046536867430405.822903923809463,14.714380755983257,6.540537644930737,23.148861066751124,20.670772876114825,24.16103793334878,38.568933218974962.791126746305963,13.989366704765416-2.798008152916736,25.337071121775807-10.767404697669008,34.043113251027535-7.969396544751362,8.706042129251728-18.915140509117009,13.452724289865728-32.835281883798416,14.239936204907281-13.441414091990737.760138926998479-24.4132064846508-2.88399978916641-32.917437464215254-10.934255880860292-8.504120702627006-8.048306082393538-13.144025041501664-18.930641825103521-13.919713016622154-32.647007228133589-.779492529449271-13.783640723810095,1.529006063681663-24.971869656310446,6.924355359336914-33.567556672976934,5.396379438771874-8.594767150485495,12.469360819467511-14.584730465084249,21.22192429450115-17.969080354552716,8.750613465735114-3.384239612531928,19.711101598378264-5.448764635172665,32.877564379333307-6.193354514049133l36.830559278344481-2.082842000030723c2.553337150518018-.144396337213948,4.7402822430995,1.808436036306375,4.884678580313448,4.361773186824394l.262404244388563,4.640051947149914c.144396337213948,2.553337150518928-1.808436036306375,4.74028224310041-4.361773186825303,4.884678580314358,0,0-31.689086255943039-2.293213795793235-32.407450687866913,1.832706337595482ZM92.93868285517965,93.354952261884137c-2.041507401060699-2.097486487837159-4.966273809329323-3.119505957432011-7.867179138997926-2.729697923207823-20.892890028825605,2.807474035125779-30.632439103414981,16.682860391110808-29.221925484361236,41.624745305425677.67869940899709,12.001332225321676,3.431539565531239,21.166675197244331,8.262530765137853,27.497758371184318,4.829041190308089,6.331193450878345,11.186968088599315,9.27378264039362,19.073780694875495,8.827767568545823,17.898160342860137-1.012176866595837,26.151200056945527-13.826236487348069,24.758898588379452-38.446078880853747-.854879975780023-15.1167047828676-5.856888667446583-27.374401885291263-15.006105425033638-36.774494441094248Z"/>
  </g>
  <g>
    <path class="cls-3" d="M185.55810546875,76.20068359375c.3662109375.068359375.623046875.29296875.77001953125.671875.1455078125.380859375.24267578125.8046875.29150390625,1.2744140625.04736328125.4697265625.04052734375.9423828125-.02001953125,1.4189453125-.06201171875.4765625-.11181640625.8203125-.15087890625,1.029296875-.17529296875.943359375-.384765625,1.9208984375-.626953125,2.93359375-.2431640625,1.01171875-.5224609375,1.935546875-.8408203125,2.771484375-.31787109375.8349609375-.6904296875,1.525390625-1.11669921875,2.0693359375s-.93798828125.8134765625-1.53369140625.8125c-.28271484375.0556640625-.85009765625-.0234375-1.70458984375-.2353515625-.85498046875-.2138671875-1.8759765625-.4853515625-3.06103515625-.8134765625-1.23828125-.33984375-2.5712890625-.681640625-3.9970703125-1.0283203125-1.427734375-.34765625-2.8955078125-.6884765625-4.4052734375-1.0224609375-1.5107421875-.3359375-2.97265625-.634765625-4.3876953125-.8974609375-1.4150390625-.263671875-2.67724609375-.4716796875-3.78759765625-.623046875-.96240234375-.0712890625-2.13916015625-.2353515625-3.52685546875-.494140625-1.3896484375-.2578125-2.568359375-.55859375-3.53369140625-.900390625-.7568359375-.3037109375-1.2451171875-1.03125-1.4638671875-2.18359375-.22021484375-1.15234375-.232421875-2.46875-.0380859375-3.951171875.1943359375-1.4814453125.59765625-2.9931640625,1.20947265625-4.533203125s1.34375-2.853515625,2.19677734375-3.943359375c1.31689453125-1.54296875,2.73388671875-2.892578125,4.25048828125-4.0478515625,1.515625-1.154296875,3.0732421875-2.2470703125,4.67578125-3.2783203125,1.60107421875-1.0302734375,3.23193359375-2.068359375,4.89013671875-3.1162109375,1.65869140625-1.0458984375,3.3095703125-2.2021484375,4.9560546875-3.4697265625.6923828125-.521484375,1.51806640625-1.31640625,2.47705078125-2.3857421875.95703125-1.068359375,1.7314453125-2.1708984375,2.3232421875-3.30859375.763671875-1.484375.9609375-2.6943359375.59375-3.630859375-.36865234375-.935546875-1.0205078125-1.5849609375-1.955078125-1.94921875-.9365234375-.36328125-2.0224609375-.4306640625-3.2568359375-.19921875-1.23681640625.23046875-2.3671875.7666015625-3.3896484375,1.6064453125-.90966796875.806640625-1.6513671875,1.806640625-2.2255859375,3.0009765625-.5751953125,1.1943359375-.748046875,2.4921875-.51953125,3.888671875.0556640625.2822265625.11767578125.60546875.185546875.9697265625.06640625.3662109375.09814453125.708984375.09228515625,1.033203125-.0849609375.7451171875-.70751953125,1.4013671875-1.87158203125,1.970703125-1.16259765625.5703125-2.4580078125.8984375-3.8828125.9853515625-1.4267578125.087890625-2.76806640625-.134765625-4.02392578125-.6669921875-1.25732421875-.53125-2.02099609375-1.52734375-2.29052734375-2.9873046875-.2265625-1.994140625-.1259765625-3.9130859375.29833984375-5.7607421875.42431640625-1.84375,1.0751953125-3.59375,1.9521484375-5.248046875.876953125-1.65234375,1.97265625-3.1708984375,3.28662109375-4.552734375,1.314453125-1.3828125,2.76416015625-2.548828125,4.3515625-3.5009765625,1.71044921875-1.037109375,3.59521484375-1.771484375,5.6552734375-2.201171875,2.05859375-.4306640625,4.12451171875-.5341796875,6.1982421875-.3115234375,2.0732421875.22265625,4.04296875.7802734375,5.9111328125,1.6689453125,1.86767578125.890625,3.4609375,2.1630859375,4.77978515625,3.81640625,1.0625,1.283203125,1.8359375,2.6591796875,2.32177734375,4.1328125.484375,1.47265625.74609375,2.9853515625.78271484375,4.537109375.03662109375,1.552734375-.13037109375,3.107421875-.50146484375,4.6650390625-.37109375,1.556640625-.88720703125,3.087890625-1.54541015625,4.591796875-1.0068359375,2.19921875-2.2734375,4.130859375-3.80322265625,5.798828125-1.52978515625,1.6669921875-3.18798828125,3.216796875-4.97119140625,4.646484375-1.78466796875,1.4306640625-3.65087890625,2.791015625-5.5986328125,4.08203125-1.94775390625,1.29296875-3.86376953125,2.6298828125-5.74755859375,4.0146484375,5.12060546875.736328125,10.23046875,1.6865234375,15.328125,2.8505859375Z"/>
    <path class="cls-3" d="M102.834827057437906,89.038449449592008c-.035344482904293.203000743272241-.141754425010731.739208503197005.046536867430405.822903923809463,14.714380755983257,6.540537644930737,23.148861066751124,20.670772876114825,24.16103793334878,38.568933218974962.791126746305963,13.989366704765416-2.798008152916736,25.337071121775807-10.767404697669008,34.043113251027535-7.969396544751362,8.706042129251728-18.915140509117009,13.452724289865728-32.835281883798416,14.239936204907281-13.441414091990737.760138926998479-24.4132064846508-2.88399978916641-32.917437464215254-10.934255880860292-8.504120702627006-8.048306082393538-13.144025041501664-18.930641825103521-13.919713016622154-32.647007228133589-.779492529449271-13.783640723810095,1.529006063681663-24.971869656310446,6.924355359336914-33.567556672976934,5.396379438771874-8.594767150485495,12.469360819467511-14.584730465084249,21.22192429450115-17.969080354552716,8.750613465735114-3.384239612531928,19.711101598378264-5.448764635172665,32.877564379333307-6.193354514049133l36.830559278344481-2.082842000030723c2.553337150518018-.144396337213948,4.7402822430995,1.808436036306375,4.884678580313448,4.361773186824394l.262404244388563,4.640051947149914c.144396337213948,2.553337150518928-1.808436036306375,4.74028224310041-4.361773186825303,4.884678580314358,0,0-31.689086255943039-2.293213795793235-32.407450687866913,1.832706337595482ZM92.93868285517965,93.354952261884137c-2.041507401060699-2.097486487837159-4.966273809329323-3.119505957432011-7.867179138997926-2.729697923207823-20.892890028825605,2.807474035125779-30.632439103414981,16.682860391110808-29.221925484361236,41.624745305425677.67869940899709,12.001332225321676,3.431539565531239,21.166675197244331,8.262530765137853,27.497758371184318,4.829041190308089,6.331193450878345,11.186968088599315,9.27378264039362,19.073780694875495,8.827767568545823,17.898160342860137-1.012176866595837,26.151200056945527-13.826236487348069,24.758898588379452-38.446078880853747-.854879975780023-15.1167047828676-5.856888667446583-27.374401885291263-15.006105425033638-36.774494441094248Z"/>
  </g>
</svg>