<?xml version="1.0" encoding="UTF-8"?>
<svg id="Layer_1" xmlns="http://www.w3.org/2000/svg" viewBox="0 0 280 280">
  <defs>
    <style>
      .cls-1 {
        stroke: #665451;
        stroke-width: 50px;
      }

      .cls-1, .cls-2 {
        fill: none;
        stroke-linecap: round;
        stroke-linejoin: round;
      }

      .cls-3 {
        fill: #fff;
      }

      .cls-2 {
        stroke: #998675;
        stroke-width: 2px;
      }
    </style>
  </defs>
  <g>
    <path d="M77.940842053825691,92.805636367752413c-13.151068368675624-2.2653493195794-26.148772708645993-5.357424764623829-38.911164845847452-9.256531455940603-3.237673062456452-.989193731840714-7.125370794547052,1.687611016638584-7.682176699161573,4.931969377436872-.631992777967753,3.683909298058097,1.463825334687499,6.622571783019339,4.931969377437781,7.682176699162483,12.76239213719964,3.899106691314955,25.760096477170009,6.991182136359384,38.911164845845633,9.256531455939694,3.322945513189552.572434444960891,7.073944516883785-1.387620247615814,7.682176699161573-4.931969377436872.570261700731862-3.324817167444962-1.367739656721824-7.068212097957257-4.931969377435962-7.682176699161573Z"/>
    <path d="M138.235430222326613,106.703871029236325c-12.353223751037149-4.661135595900305-25.433601530148735-6.803861286964093-38.32756112664174-9.418879587923584-3.307726798560907-.670843414795854-7.086039375135442,1.457891221407408-7.682176699163392,4.931969377435962-.58494502900794,3.408933326813894,1.386156334781845,6.963026762278787,4.931969377437781,7.682176699161573,11.694028238021929,2.371683251482864,23.702516668392491,4.227319011140935,34.989130010560984,8.20625331334395.027825540375488.010475569979462.055740605726896.020540523227282.08336083773429.030971330716966,1.689522673048486.637462775517633,3.210321936998298,1.006135199157143,4.998689095062218.423777625663206,1.475144236699634-.480368321380411,3.049860309351061-1.708432260417794,3.720143944252413-3.137395582615682.719924807082862-1.534330618911554,1.035383650687436-3.363955421303217.423960552781864-4.998541678391121-.547362024895847-1.462813347914562-1.606580994121032-3.142661594112724-3.137515992024419-3.720331497391271Z"/>
    <path d="M189.580906406388749,119.250363571911294c-11.943164799362421-2.979908368935867-23.886340789347742-5.959765410778346-35.829710897078257-8.939718542203082-3.279256623682159-.818194551238776-7.104385032293067,1.563737244677213-7.682176699159754,4.931969377436872-.606557466107915,3.535681415912222,1.41855186353132,6.805562999021276,4.931969377434143,7.682176699160664,11.943370107732335,2.979953131424736,23.886546097717655,5.959810173268124,35.829710897078257,8.939718542203082,3.279256623683978.818194551239685,7.104385032293067-1.563737244678123,7.682176699161573-4.931969377435962.606557466109734-3.535681415911313-1.418346555166863-6.805518236533317-4.931969377435962-7.682176699161573Z"/>
    <path d="M53.918478655967192,62.593258817529204c2.009988899068048-6.695758765764367,15.496943476016895-10.73905950320659,17.506957733545278-17.434934578302091.551880151051591-1.838467553331611-11.943816172451989-4.05067664976832-16.84288463674784-5.030100423546173-5.142629901658438-1.028140209281446-18.053583317312587-3.709114816770125-18.644863693973093-1.739367352428417-2.010014257524745,6.695875075098229,9.743717517359983,17.46729794998646,7.733728618291934,24.163056715750827-.55188015105341,1.838467553329792,1.930397404461473,4.715685672446853,3.323194596288886,4.809765028613583,4.722610935761622.31899848654939,6.33256164748127-2.798555616413068,6.923867382594835-4.768419390087729Z"/>
    <path d="M245.711947492327454,132.079537396228261c-12.835022479128384-3.011603703473156-25.669839649888672-6.023162644457443-38.504668011275498-9.034670258349252-3.289167637816718-.771750097778749-7.098798357263149,1.530221843473555-7.682176699159754,4.931969377436872-.599754890419717,3.495602711563151,1.407514032838662,6.85520286137762,4.931969377435962,7.682176699159754,12.834828361385007,3.011507613892718,25.669645532145296,6.023066554878824,38.504668011273679,9.034670258350161,3.28896232945408.77170533528988,7.098593048898692-1.530266605961515,7.682176699161573-4.931969377435053.599766081042617-3.49565403865563-1.407708150582039-6.855298950959877-4.931969377435962-7.682176699162483Z"/>
  </g>
  <g>
    <path class="cls-1" d="M77.940842053825691,92.805636367752413c-13.151068368675624-2.2653493195794-26.148772708645993-5.357424764623829-38.911164845847452-9.256531455940603-3.237673062456452-.989193731840714-7.125370794547052,1.687611016638584-7.682176699161573,4.931969377436872-.631992777967753,3.683909298058097,1.463825334687499,6.622571783019339,4.931969377437781,7.682176699162483,12.76239213719964,3.899106691314955,25.760096477170009,6.991182136359384,38.911164845845633,9.256531455939694,3.322945513189552.572434444960891,7.073944516883785-1.387620247615814,7.682176699161573-4.931969377436872.570261700731862-3.324817167444962-1.367739656721824-7.068212097957257-4.931969377435962-7.682176699161573Z"/>
    <path class="cls-1" d="M138.235430222326613,106.703871029236325c-12.353223751037149-4.661135595900305-25.433601530148735-6.803861286964093-38.32756112664174-9.418879587923584-3.307726798560907-.670843414795854-7.086039375135442,1.457891221407408-7.682176699163392,4.931969377435962-.58494502900794,3.408933326813894,1.386156334781845,6.963026762278787,4.931969377437781,7.682176699161573,11.694028238021929,2.371683251482864,23.702516668392491,4.227319011140935,34.989130010560984,8.20625331334395.027825540375488.010475569979462.055740605726896.020540523227282.08336083773429.030971330716966,1.689522673048486.637462775517633,3.210321936998298,1.006135199157143,4.998689095062218.423777625663206,1.475144236699634-.480368321380411,3.049860309351061-1.708432260417794,3.720143944252413-3.137395582615682.719924807082862-1.534330618911554,1.035383650687436-3.363955421303217.423960552781864-4.998541678391121-.547362024895847-1.462813347914562-1.606580994121032-3.142661594112724-3.137515992024419-3.720331497391271Z"/>
    <path class="cls-1" d="M189.580906406388749,119.250363571911294c-11.943164799362421-2.979908368935867-23.886340789347742-5.959765410778346-35.829710897078257-8.939718542203082-3.279256623682159-.818194551238776-7.104385032293067,1.563737244677213-7.682176699159754,4.931969377436872-.606557466107915,3.535681415912222,1.41855186353132,6.805562999021276,4.931969377434143,7.682176699160664,11.943370107732335,2.979953131424736,23.886546097717655,5.959810173268124,35.829710897078257,8.939718542203082,3.279256623683978.818194551239685,7.104385032293067-1.563737244678123,7.682176699161573-4.931969377435962.606557466109734-3.535681415911313-1.418346555166863-6.805518236533317-4.931969377435962-7.682176699161573Z"/>
    <path class="cls-1" d="M53.918478655967192,62.593258817529204c2.009988899068048-6.695758765764367,15.496943476016895-10.73905950320659,17.506957733545278-17.434934578302091.551880151051591-1.838467553331611-11.943816172451989-4.05067664976832-16.84288463674784-5.030100423546173-5.142629901658438-1.028140209281446-18.053583317312587-3.709114816770125-18.644863693973093-1.739367352428417-2.010014257524745,6.695875075098229,9.743717517359983,17.46729794998646,7.733728618291934,24.163056715750827-.55188015105341,1.838467553329792,1.930397404461473,4.715685672446853,3.323194596288886,4.809765028613583,4.722610935761622.31899848654939,6.33256164748127-2.798555616413068,6.923867382594835-4.768419390087729Z"/>
    <path class="cls-1" d="M245.711947492327454,132.079537396228261c-12.835022479128384-3.011603703473156-25.669839649888672-6.023162644457443-38.504668011275498-9.034670258349252-3.289167637816718-.771750097778749-7.098798357263149,1.530221843473555-7.682176699159754,4.931969377436872-.599754890419717,3.495602711563151,1.407514032838662,6.85520286137762,4.931969377435962,7.682176699159754,12.834828361385007,3.011507613892718,25.669645532145296,6.023066554878824,38.504668011273679,9.034670258350161,3.28896232945408.77170533528988,7.098593048898692-1.530266605961515,7.682176699161573-4.931969377435053.599766081042617-3.49565403865563-1.407708150582039-6.855298950959877-4.931969377435962-7.682176699162483Z"/>
  </g>
  <g>
    <path class="cls-2" d="M77.940842053825691,92.805636367752413c-13.151068368675624-2.2653493195794-26.148772708645993-5.357424764623829-38.911164845847452-9.256531455940603-3.237673062456452-.989193731840714-7.125370794547052,1.687611016638584-7.682176699161573,4.931969377436872-.631992777967753,3.683909298058097,1.463825334687499,6.622571783019339,4.931969377437781,7.682176699162483,12.76239213719964,3.899106691314955,25.760096477170009,6.991182136359384,38.911164845845633,9.256531455939694,3.322945513189552.572434444960891,7.073944516883785-1.387620247615814,7.682176699161573-4.931969377436872.570261700731862-3.324817167444962-1.367739656721824-7.068212097957257-4.931969377435962-7.682176699161573Z"/>
    <path class="cls-2" d="M138.235430222326613,106.703871029236325c-12.353223751037149-4.661135595900305-25.433601530148735-6.803861286964093-38.32756112664174-9.418879587923584-3.307726798560907-.670843414795854-7.086039375135442,1.457891221407408-7.682176699163392,4.931969377435962-.58494502900794,3.408933326813894,1.386156334781845,6.963026762278787,4.931969377437781,7.682176699161573,11.694028238021929,2.371683251482864,23.702516668392491,4.227319011140935,34.989130010560984,8.20625331334395.027825540375488.010475569979462.055740605726896.020540523227282.08336083773429.030971330716966,1.689522673048486.637462775517633,3.210321936998298,1.006135199157143,4.998689095062218.423777625663206,1.475144236699634-.480368321380411,3.049860309351061-1.708432260417794,3.720143944252413-3.137395582615682.719924807082862-1.534330618911554,1.035383650687436-3.363955421303217.423960552781864-4.998541678391121-.547362024895847-1.462813347914562-1.606580994121032-3.142661594112724-3.137515992024419-3.720331497391271Z"/>
    <path class="cls-2" d="M189.580906406388749,119.250363571911294c-11.943164799362421-2.979908368935867-23.886340789347742-5.959765410778346-35.829710897078257-8.939718542203082-3.279256623682159-.818194551238776-7.104385032293067,1.563737244677213-7.682176699159754,4.931969377436872-.606557466107915,3.535681415912222,1.41855186353132,6.805562999021276,4.931969377434143,7.682176699160664,11.943370107732335,2.979953131424736,23.886546097717655,5.959810173268124,35.829710897078257,8.939718542203082,3.279256623683978.818194551239685,7.104385032293067-1.563737244678123,7.682176699161573-4.931969377435962.606557466109734-3.535681415911313-1.418346555166863-6.805518236533317-4.931969377435962-7.682176699161573Z"/>
    <path class="cls-2" d="M53.918478655967192,62.593258817529204c2.009988899068048-6.695758765764367,15.496943476016895-10.73905950320659,17.506957733545278-17.434934578302091.551880151051591-1.838467553331611-11.943816172451989-4.05067664976832-16.84288463674784-5.030100423546173-5.142629901658438-1.028140209281446-18.053583317312587-3.709114816770125-18.644863693973093-1.739367352428417-2.010014257524745,6.695875075098229,9.743717517359983,17.46729794998646,7.733728618291934,24.163056715750827-.55188015105341,1.838467553329792,1.930397404461473,4.715685672446853,3.323194596288886,4.809765028613583,4.722610935761622.31899848654939,6.33256164748127-2.798555616413068,6.923867382594835-4.768419390087729Z"/>
    <path class="cls-2" d="M245.711947492327454,132.079537396228261c-12.835022479128384-3.011603703473156-25.669839649888672-6.023162644457443-38.504668011275498-9.034670258349252-3.289167637816718-.771750097778749-7.098798357263149,1.530221843473555-7.682176699159754,4.931969377436872-.599754890419717,3.495602711563151,1.407514032838662,6.85520286137762,4.931969377435962,7.682176699159754,12.834828361385007,3.011507613892718,25.669645532145296,6.023066554878824,38.504668011273679,9.034670258350161,3.28896232945408.77170533528988,7.098593048898692-1.530266605961515,7.682176699161573-4.931969377435053.599766081042617-3.49565403865563-1.407708150582039-6.855298950959877-4.931969377435962-7.682176699162483Z"/>
  </g>
  <g>
    <path class="cls-3" d="M77.940842053825691,92.805636367752413c-13.151068368675624-2.2653493195794-26.148772708645993-5.357424764623829-38.911164845847452-9.256531455940603-3.237673062456452-.989193731840714-7.125370794547052,1.687611016638584-7.682176699161573,4.931969377436872-.631992777967753,3.683909298058097,1.463825334687499,6.622571783019339,4.931969377437781,7.682176699162483,12.76239213719964,3.899106691314955,25.760096477170009,6.991182136359384,38.911164845845633,9.256531455939694,3.322945513189552.572434444960891,7.073944516883785-1.387620247615814,7.682176699161573-4.931969377436872.570261700731862-3.324817167444962-1.367739656721824-7.068212097957257-4.931969377435962-7.682176699161573Z"/>
    <path class="cls-3" d="M138.235430222326613,106.703871029236325c-12.353223751037149-4.661135595900305-25.433601530148735-6.803861286964093-38.32756112664174-9.418879587923584-3.307726798560907-.670843414795854-7.086039375135442,1.457891221407408-7.682176699163392,4.931969377435962-.58494502900794,3.408933326813894,1.386156334781845,6.963026762278787,4.931969377437781,7.682176699161573,11.694028238021929,2.371683251482864,23.702516668392491,4.227319011140935,34.989130010560984,8.20625331334395.027825540375488.010475569979462.055740605726896.020540523227282.08336083773429.030971330716966,1.689522673048486.637462775517633,3.210321936998298,1.006135199157143,4.998689095062218.423777625663206,1.475144236699634-.480368321380411,3.049860309351061-1.708432260417794,3.720143944252413-3.137395582615682.719924807082862-1.534330618911554,1.035383650687436-3.363955421303217.423960552781864-4.998541678391121-.547362024895847-1.462813347914562-1.606580994121032-3.142661594112724-3.137515992024419-3.720331497391271Z"/>
    <path class="cls-3" d="M189.580906406388749,119.250363571911294c-11.943164799362421-2.979908368935867-23.886340789347742-5.959765410778346-35.829710897078257-8.939718542203082-3.279256623682159-.818194551238776-7.104385032293067,1.563737244677213-7.682176699159754,4.931969377436872-.606557466107915,3.535681415912222,1.41855186353132,6.805562999021276,4.931969377434143,7.682176699160664,11.943370107732335,2.979953131424736,23.886546097717655,5.959810173268124,35.829710897078257,8.939718542203082,3.279256623683978.818194551239685,7.104385032293067-1.563737244678123,7.682176699161573-4.931969377435962.606557466109734-3.535681415911313-1.418346555166863-6.805518236533317-4.931969377435962-7.682176699161573Z"/>
    <path class="cls-3" d="M53.918478655967192,62.593258817529204c2.009988899068048-6.695758765764367,15.496943476016895-10.73905950320659,17.506957733545278-17.434934578302091.551880151051591-1.838467553331611-11.943816172451989-4.05067664976832-16.84288463674784-5.030100423546173-5.142629901658438-1.028140209281446-18.053583317312587-3.709114816770125-18.644863693973093-1.739367352428417-2.010014257524745,6.695875075098229,9.743717517359983,17.46729794998646,7.733728618291934,24.163056715750827-.55188015105341,1.838467553329792,1.930397404461473,4.715685672446853,3.323194596288886,4.809765028613583,4.722610935761622.31899848654939,6.33256164748127-2.798555616413068,6.923867382594835-4.768419390087729Z"/>
    <path class="cls-3" d="M245.711947492327454,132.079537396228261c-12.835022479128384-3.011603703473156-25.669839649888672-6.023162644457443-38.504668011275498-9.034670258349252-3.289167637816718-.771750097778749-7.098798357263149,1.530221843473555-7.682176699159754,4.931969377436872-.599754890419717,3.495602711563151,1.407514032838662,6.85520286137762,4.931969377435962,7.682176699159754,12.834828361385007,3.011507613892718,25.669645532145296,6.023066554878824,38.504668011273679,9.034670258350161,3.28896232945408.77170533528988,7.098593048898692-1.530266605961515,7.682176699161573-4.931969377435053.599766081042617-3.49565403865563-1.407708150582039-6.855298950959877-4.931969377435962-7.682176699162483Z"/>
  </g>
</svg>