<?xml version="1.0" encoding="UTF-8"?>
<svg id="Layer_1" xmlns="http://www.w3.org/2000/svg" viewBox="0 0 280 280">
  <defs>
    <style>
      .cls-1 {
        stroke: #665451;
        stroke-width: 50px;
      }

      .cls-1, .cls-2 {
        fill: none;
        stroke-linecap: round;
        stroke-linejoin: round;
      }

      .cls-3 {
        fill: #fff;
      }

      .cls-2 {
        stroke: #998675;
        stroke-width: 2px;
      }
    </style>
  </defs>
  <g>
    <path d="M137.20458984375,151.68359375c.75439453125.875,1.2275390625,1.8828125,1.42236328125,3.0244140625.177734375.9150390625.111328125,2.046875-.19921875,3.3974609375-.3134765625,1.3525390625-1.10986328125,2.765625-2.396484375,4.2421875-1.2861328125,1.4775390625-2.6904296875,2.9345703125-4.2099609375,4.3671875-1.52197265625,1.4365234375-3.1162109375,2.6181640625-4.787109375,3.5400390625-1.671875.9228515625-3.375,1.3876953125-5.109375,1.392578125-1.7353515625.0029296875-3.5166015625-.6845703125-5.3466796875-2.0595703125-.97119140625-.626953125-2.66650390625-2.1845703125-5.09423828125-4.6806640625-2.42724609375-2.4921875-5.27685546875-5.6494140625-8.54736328125-9.47265625-1.6328125-1.8544921875-3.36083984375-3.8466796875-5.18310546875-5.9765625-1.8251953125-2.1298828125-3.73828125-4.2802734375-5.73681640625-6.4580078125-3.19189453125,4.037109375-6.1982421875,7.8603515625-9.0126953125,11.46484375-2.8173828125,3.6083984375-5.28955078125,6.7578125-7.41650390625,9.447265625-2.55615234375,3.1845703125-4.8994140625,6.123046875-7.02685546875,8.8115234375-.537109375.6171875-1.19677734375,1.1240234375-1.97705078125,1.525390625-.67431640625.2763671875-1.47509765625.41796875-2.39892578125.42578125-.9267578125.00390625-2.0537109375-.4091796875-3.3828125-1.2421875-1.3232421875-.716796875-2.8623046875-1.6513671875-4.6171875-2.8037109375-1.75732421875-1.150390625-3.37109375-2.341796875-4.84375-3.5703125-1.47265625-1.2275390625-2.5712890625-2.4541015625-3.2900390625-3.6767578125-.72119140625-1.2216796875-.77099609375-2.376953125-.1513671875-3.4599609375l26.90283203125-37.59521484375c-3.2802734375-3.93798828125-6.314453125-7.689453125-9.103515625-11.25830078125-2.79150390625-3.564453125-5.26416015625-6.72021484375-7.4189453125-9.46435546875-2.41845703125-3.1865234375-4.6474609375-6.15576171875-6.6865234375-8.90771484375-.625-.65087890625-1.02197265625-1.375-1.19091796875-2.17333984375-.16357421875-.68310546875-.09912109375-1.4384765625.1904296875-2.2685546875.2900390625-.82861328125,1.03466796875-1.7470703125,2.2392578125-2.75732421875,1.2021484375-1.0068359375,2.6259765625-2.17626953125,4.26953125-3.50341796875,1.64306640625-1.328125,3.26708984375-2.50830078125,4.8740234375-3.54638671875,1.60400390625-1.03466796875,3.11572265625-1.74609375,4.537109375-2.134765625,1.41796875-.38525390625,2.5625-.146484375,3.43310546875.7177734375,3.4013671875,4.04638671875,6.79736328125,8.005859375,10.18701171875,11.87646484375,3.39013671875,3.8740234375,6.78173828125,7.7744140625,10.17578125,11.7041015625l17.27490234375-23.74560546875c.75634765625-.74658203125,1.6962890625-1.388671875,2.81640625-1.9296875.89599609375-.40869140625,2.0380859375-.630859375,3.42333984375-.66943359375,1.38623046875-.03564453125,2.91845703125.40625,4.603515625,1.33056640625,1.7978515625.9169921875,3.6044921875,1.9501953125,5.41796875,3.0966796875,1.814453125,1.14892578125,3.345703125,2.40185546875,4.5966796875,3.7607421875,1.2490234375,1.361328125,2.078125,2.892578125,2.486328125,4.599609375.4052734375,1.70703125.1005859375,3.57958984375-.91455078125,5.615234375-.41357421875.72216796875-1.22314453125,1.99267578125-2.42626953125,3.810546875-1.20556640625,1.818359375-2.76220703125,3.98046875-4.671875,6.4814453125-1.9091796875,2.50390625-4.05810546875,5.3115234375-6.4453125,8.42578125-2.38818359375,3.11328125-4.91162109375,6.38330078125-7.56591796875,9.80322265625,4.7470703125,5.11083984375,9.46435546875,10.19091796875,14.150390625,15.2470703125,4.68603515625,5.05517578125,9.40087890625,10.13818359375,14.150390625,15.24658203125Z"/>
    <path d="M41.71435546875,57.257831573486328c3.710547061844409-2.268959280807394,7.53308034994734-4.124702080861425,11.44884538927181-5.8561485789578,3.93970441541569-.161524913473841,7.86646222791569-.511752269430872,11.80030011854069-.758364818258997,11.76325681416165-.80866663102006,35.426225368434643-2.443667640225613,47.185975494872764-3.252700239379919-.000062408939812-.000000566282324,11.796446380130874-.813175767701068,11.796446380127236-.813175767700159,4.016279985664369,1.177878781380969,8.251215602028424,2.554422426391284,12.140272195275429,4.174967920598647-3.630365940421143,2.139237657755075-7.636897064859113,4.083175153959019-11.452648442231293,5.801370099160522-.000001682731636-.000012030989637-11.796388401481636.813163170426378-11.796388401481636.813163170426378-11.758901411851184.80835818815558-35.429369798673179,2.443876567887855-47.185965947443947,3.25269958708941-3.930489130681053.295506742256293-7.868111200993553.487397458809028-11.792671747868553.867985990303168-4.116263143105243-1.177998605077846-8.156349971830423-2.491341725455641-12.1441650390625-4.22979736328125h0Z"/>
  </g>
  <g>
    <g>
      <path class="cls-1" d="M137.20458984375,151.68359375c.75439453125.875,1.2275390625,1.8828125,1.42236328125,3.0244140625.177734375.9150390625.111328125,2.046875-.19921875,3.3974609375-.3134765625,1.3525390625-1.10986328125,2.765625-2.396484375,4.2421875-1.2861328125,1.4775390625-2.6904296875,2.9345703125-4.2099609375,4.3671875-1.52197265625,1.4365234375-3.1162109375,2.6181640625-4.787109375,3.5400390625-1.671875.9228515625-3.375,1.3876953125-5.109375,1.392578125-1.7353515625.0029296875-3.5166015625-.6845703125-5.3466796875-2.0595703125-.97119140625-.626953125-2.66650390625-2.1845703125-5.09423828125-4.6806640625-2.42724609375-2.4921875-5.27685546875-5.6494140625-8.54736328125-9.47265625-1.6328125-1.8544921875-3.36083984375-3.8466796875-5.18310546875-5.9765625-1.8251953125-2.1298828125-3.73828125-4.2802734375-5.73681640625-6.4580078125-3.19189453125,4.037109375-6.1982421875,7.8603515625-9.0126953125,11.46484375-2.8173828125,3.6083984375-5.28955078125,6.7578125-7.41650390625,9.447265625-2.55615234375,3.1845703125-4.8994140625,6.123046875-7.02685546875,8.8115234375-.537109375.6171875-1.19677734375,1.1240234375-1.97705078125,1.525390625-.67431640625.2763671875-1.47509765625.41796875-2.39892578125.42578125-.9267578125.00390625-2.0537109375-.4091796875-3.3828125-1.2421875-1.3232421875-.716796875-2.8623046875-1.6513671875-4.6171875-2.8037109375-1.75732421875-1.150390625-3.37109375-2.341796875-4.84375-3.5703125-1.47265625-1.2275390625-2.5712890625-2.4541015625-3.2900390625-3.6767578125-.72119140625-1.2216796875-.77099609375-2.376953125-.1513671875-3.4599609375l26.90283203125-37.59521484375c-3.2802734375-3.93798828125-6.314453125-7.689453125-9.103515625-11.25830078125-2.79150390625-3.564453125-5.26416015625-6.72021484375-7.4189453125-9.46435546875-2.41845703125-3.1865234375-4.6474609375-6.15576171875-6.6865234375-8.90771484375-.625-.65087890625-1.02197265625-1.375-1.19091796875-2.17333984375-.16357421875-.68310546875-.09912109375-1.4384765625.1904296875-2.2685546875.2900390625-.82861328125,1.03466796875-1.7470703125,2.2392578125-2.75732421875,1.2021484375-1.0068359375,2.6259765625-2.17626953125,4.26953125-3.50341796875,1.64306640625-1.328125,3.26708984375-2.50830078125,4.8740234375-3.54638671875,1.60400390625-1.03466796875,3.11572265625-1.74609375,4.537109375-2.134765625,1.41796875-.38525390625,2.5625-.146484375,3.43310546875.7177734375,3.4013671875,4.04638671875,6.79736328125,8.005859375,10.18701171875,11.87646484375,3.39013671875,3.8740234375,6.78173828125,7.7744140625,10.17578125,11.7041015625l17.27490234375-23.74560546875c.75634765625-.74658203125,1.6962890625-1.388671875,2.81640625-1.9296875.89599609375-.40869140625,2.0380859375-.630859375,3.42333984375-.66943359375,1.38623046875-.03564453125,2.91845703125.40625,4.603515625,1.33056640625,1.7978515625.9169921875,3.6044921875,1.9501953125,5.41796875,3.0966796875,1.814453125,1.14892578125,3.345703125,2.40185546875,4.5966796875,3.7607421875,1.2490234375,1.361328125,2.078125,2.892578125,2.486328125,4.599609375.4052734375,1.70703125.1005859375,3.57958984375-.91455078125,5.615234375-.41357421875.72216796875-1.22314453125,1.99267578125-2.42626953125,3.810546875-1.20556640625,1.818359375-2.76220703125,3.98046875-4.671875,6.4814453125-1.9091796875,2.50390625-4.05810546875,5.3115234375-6.4453125,8.42578125-2.38818359375,3.11328125-4.91162109375,6.38330078125-7.56591796875,9.80322265625,4.7470703125,5.11083984375,9.46435546875,10.19091796875,14.150390625,15.2470703125,4.68603515625,5.05517578125,9.40087890625,10.13818359375,14.150390625,15.24658203125Z"/>
      <path class="cls-1" d="M137.20458984375,151.68359375c.75439453125.875,1.2275390625,1.8828125,1.42236328125,3.0244140625.177734375.9150390625.111328125,2.046875-.19921875,3.3974609375-.3134765625,1.3525390625-1.10986328125,2.765625-2.396484375,4.2421875-1.2861328125,1.4775390625-2.6904296875,2.9345703125-4.2099609375,4.3671875-1.52197265625,1.4365234375-3.1162109375,2.6181640625-4.787109375,3.5400390625-1.671875.9228515625-3.375,1.3876953125-5.109375,1.392578125-1.7353515625.0029296875-3.5166015625-.6845703125-5.3466796875-2.0595703125-.97119140625-.626953125-2.66650390625-2.1845703125-5.09423828125-4.6806640625-2.42724609375-2.4921875-5.27685546875-5.6494140625-8.54736328125-9.47265625-1.6328125-1.8544921875-3.36083984375-3.8466796875-5.18310546875-5.9765625-1.8251953125-2.1298828125-3.73828125-4.2802734375-5.73681640625-6.4580078125-3.19189453125,4.037109375-6.1982421875,7.8603515625-9.0126953125,11.46484375-2.8173828125,3.6083984375-5.28955078125,6.7578125-7.41650390625,9.447265625-2.55615234375,3.1845703125-4.8994140625,6.123046875-7.02685546875,8.8115234375-.537109375.6171875-1.19677734375,1.1240234375-1.97705078125,1.525390625-.67431640625.2763671875-1.47509765625.41796875-2.39892578125.42578125-.9267578125.00390625-2.0537109375-.4091796875-3.3828125-1.2421875-1.3232421875-.716796875-2.8623046875-1.6513671875-4.6171875-2.8037109375-1.75732421875-1.150390625-3.37109375-2.341796875-4.84375-3.5703125-1.47265625-1.2275390625-2.5712890625-2.4541015625-3.2900390625-3.6767578125-.72119140625-1.2216796875-.77099609375-2.376953125-.1513671875-3.4599609375l26.90283203125-37.59521484375c-3.2802734375-3.93798828125-6.314453125-7.689453125-9.103515625-11.25830078125-2.79150390625-3.564453125-5.26416015625-6.72021484375-7.4189453125-9.46435546875-2.41845703125-3.1865234375-4.6474609375-6.15576171875-6.6865234375-8.90771484375-.625-.65087890625-1.02197265625-1.375-1.19091796875-2.17333984375-.16357421875-.68310546875-.09912109375-1.4384765625.1904296875-2.2685546875.2900390625-.82861328125,1.03466796875-1.7470703125,2.2392578125-2.75732421875,1.2021484375-1.0068359375,2.6259765625-2.17626953125,4.26953125-3.50341796875,1.64306640625-1.328125,3.26708984375-2.50830078125,4.8740234375-3.54638671875,1.60400390625-1.03466796875,3.11572265625-1.74609375,4.537109375-2.134765625,1.41796875-.38525390625,2.5625-.146484375,3.43310546875.7177734375,3.4013671875,4.04638671875,6.79736328125,8.005859375,10.18701171875,11.87646484375,3.39013671875,3.8740234375,6.78173828125,7.7744140625,10.17578125,11.7041015625l17.27490234375-23.74560546875c.75634765625-.74658203125,1.6962890625-1.388671875,2.81640625-1.9296875.89599609375-.40869140625,2.0380859375-.630859375,3.42333984375-.66943359375,1.38623046875-.03564453125,2.91845703125.40625,4.603515625,1.33056640625,1.7978515625.9169921875,3.6044921875,1.9501953125,5.41796875,3.0966796875,1.814453125,1.14892578125,3.345703125,2.40185546875,4.5966796875,3.7607421875,1.2490234375,1.361328125,2.078125,2.892578125,2.486328125,4.599609375.4052734375,1.70703125.1005859375,3.57958984375-.91455078125,5.615234375-.41357421875.72216796875-1.22314453125,1.99267578125-2.42626953125,3.810546875-1.20556640625,1.818359375-2.76220703125,3.98046875-4.671875,6.4814453125-1.9091796875,2.50390625-4.05810546875,5.3115234375-6.4453125,8.42578125-2.38818359375,3.11328125-4.91162109375,6.38330078125-7.56591796875,9.80322265625,4.7470703125,5.11083984375,9.46435546875,10.19091796875,14.150390625,15.2470703125,4.68603515625,5.05517578125,9.40087890625,10.13818359375,14.150390625,15.24658203125Z"/>
      <path class="cls-1" d="M137.20458984375,151.68359375c.75439453125.875,1.2275390625,1.8828125,1.42236328125,3.0244140625.177734375.9150390625.111328125,2.046875-.19921875,3.3974609375-.3134765625,1.3525390625-1.10986328125,2.765625-2.396484375,4.2421875-1.2861328125,1.4775390625-2.6904296875,2.9345703125-4.2099609375,4.3671875-1.52197265625,1.4365234375-3.1162109375,2.6181640625-4.787109375,3.5400390625-1.671875.9228515625-3.375,1.3876953125-5.109375,1.392578125-1.7353515625.0029296875-3.5166015625-.6845703125-5.3466796875-2.0595703125-.97119140625-.626953125-2.66650390625-2.1845703125-5.09423828125-4.6806640625-2.42724609375-2.4921875-5.27685546875-5.6494140625-8.54736328125-9.47265625-1.6328125-1.8544921875-3.36083984375-3.8466796875-5.18310546875-5.9765625-1.8251953125-2.1298828125-3.73828125-4.2802734375-5.73681640625-6.4580078125-3.19189453125,4.037109375-6.1982421875,7.8603515625-9.0126953125,11.46484375-2.8173828125,3.6083984375-5.28955078125,6.7578125-7.41650390625,9.447265625-2.55615234375,3.1845703125-4.8994140625,6.123046875-7.02685546875,8.8115234375-.537109375.6171875-1.19677734375,1.1240234375-1.97705078125,1.525390625-.67431640625.2763671875-1.47509765625.41796875-2.39892578125.42578125-.9267578125.00390625-2.0537109375-.4091796875-3.3828125-1.2421875-1.3232421875-.716796875-2.8623046875-1.6513671875-4.6171875-2.8037109375-1.75732421875-1.150390625-3.37109375-2.341796875-4.84375-3.5703125-1.47265625-1.2275390625-2.5712890625-2.4541015625-3.2900390625-3.6767578125-.72119140625-1.2216796875-.77099609375-2.376953125-.1513671875-3.4599609375l26.90283203125-37.59521484375c-3.2802734375-3.93798828125-6.314453125-7.689453125-9.103515625-11.25830078125-2.79150390625-3.564453125-5.26416015625-6.72021484375-7.4189453125-9.46435546875-2.41845703125-3.1865234375-4.6474609375-6.15576171875-6.6865234375-8.90771484375-.625-.65087890625-1.02197265625-1.375-1.19091796875-2.17333984375-.16357421875-.68310546875-.09912109375-1.4384765625.1904296875-2.2685546875.2900390625-.82861328125,1.03466796875-1.7470703125,2.2392578125-2.75732421875,1.2021484375-1.0068359375,2.6259765625-2.17626953125,4.26953125-3.50341796875,1.64306640625-1.328125,3.26708984375-2.50830078125,4.8740234375-3.54638671875,1.60400390625-1.03466796875,3.11572265625-1.74609375,4.537109375-2.134765625,1.41796875-.38525390625,2.5625-.146484375,3.43310546875.7177734375,3.4013671875,4.04638671875,6.79736328125,8.005859375,10.18701171875,11.87646484375,3.39013671875,3.8740234375,6.78173828125,7.7744140625,10.17578125,11.7041015625l17.27490234375-23.74560546875c.75634765625-.74658203125,1.6962890625-1.388671875,2.81640625-1.9296875.89599609375-.40869140625,2.0380859375-.630859375,3.42333984375-.66943359375,1.38623046875-.03564453125,2.91845703125.40625,4.603515625,1.33056640625,1.7978515625.9169921875,3.6044921875,1.9501953125,5.41796875,3.0966796875,1.814453125,1.14892578125,3.345703125,2.40185546875,4.5966796875,3.7607421875,1.2490234375,1.361328125,2.078125,2.892578125,2.486328125,4.599609375.4052734375,1.70703125.1005859375,3.57958984375-.91455078125,5.615234375-.41357421875.72216796875-1.22314453125,1.99267578125-2.42626953125,3.810546875-1.20556640625,1.818359375-2.76220703125,3.98046875-4.671875,6.4814453125-1.9091796875,2.50390625-4.05810546875,5.3115234375-6.4453125,8.42578125-2.38818359375,3.11328125-4.91162109375,6.38330078125-7.56591796875,9.80322265625,4.7470703125,5.11083984375,9.46435546875,10.19091796875,14.150390625,15.2470703125,4.68603515625,5.05517578125,9.40087890625,10.13818359375,14.150390625,15.24658203125Z"/>
    </g>
    <g>
      <line class="cls-1" x1="41.714410739887171" y1="57.257833047041458" x2="136.086200142120106" y2="50.752429389678582"/>
      <path class="cls-1" d="M41.71435546875,57.257831573486328c3.710547061844409-2.268959280807394,7.53308034994734-4.124702080861425,11.44884538927181-5.8561485789578,3.93970441541569-.161524913473841,7.86646222791569-.511752269430872,11.80030011854069-.758364818258997,11.76325681416165-.80866663102006,35.426225368434643-2.443667640225613,47.185975494872764-3.252700239379919-.000062408939812-.000000566282324,11.796446380130874-.813175767701068,11.796446380127236-.813175767700159,4.016279985664369,1.177878781380969,8.251215602028424,2.554422426391284,12.140272195275429,4.174967920598647-3.630365940421143,2.139237657755075-7.636897064859113,4.083175153959019-11.452648442231293,5.801370099160522-.000001682731636-.000012030989637-11.796388401481636.813163170426378-11.796388401481636.813163170426378-11.758901411851184.80835818815558-35.429369798673179,2.443876567887855-47.185965947443947,3.25269958708941-3.930489130681053.295506742256293-7.868111200993553.487397458809028-11.792671747868553.867985990303168-4.116263143105243-1.177998605077846-8.156349971830423-2.491341725455641-12.1441650390625-4.22979736328125h0Z"/>
    </g>
  </g>
  <g>
    <g>
      <path class="cls-2" d="M137.20458984375,151.68359375c.75439453125.875,1.2275390625,1.8828125,1.42236328125,3.0244140625.177734375.9150390625.111328125,2.046875-.19921875,3.3974609375-.3134765625,1.3525390625-1.10986328125,2.765625-2.396484375,4.2421875-1.2861328125,1.4775390625-2.6904296875,2.9345703125-4.2099609375,4.3671875-1.52197265625,1.4365234375-3.1162109375,2.6181640625-4.787109375,3.5400390625-1.671875.9228515625-3.375,1.3876953125-5.109375,1.392578125-1.7353515625.0029296875-3.5166015625-.6845703125-5.3466796875-2.0595703125-.97119140625-.626953125-2.66650390625-2.1845703125-5.09423828125-4.6806640625-2.42724609375-2.4921875-5.27685546875-5.6494140625-8.54736328125-9.47265625-1.6328125-1.8544921875-3.36083984375-3.8466796875-5.18310546875-5.9765625-1.8251953125-2.1298828125-3.73828125-4.2802734375-5.73681640625-6.4580078125-3.19189453125,4.037109375-6.1982421875,7.8603515625-9.0126953125,11.46484375-2.8173828125,3.6083984375-5.28955078125,6.7578125-7.41650390625,9.447265625-2.55615234375,3.1845703125-4.8994140625,6.123046875-7.02685546875,8.8115234375-.537109375.6171875-1.19677734375,1.1240234375-1.97705078125,1.525390625-.67431640625.2763671875-1.47509765625.41796875-2.39892578125.42578125-.9267578125.00390625-2.0537109375-.4091796875-3.3828125-1.2421875-1.3232421875-.716796875-2.8623046875-1.6513671875-4.6171875-2.8037109375-1.75732421875-1.150390625-3.37109375-2.341796875-4.84375-3.5703125-1.47265625-1.2275390625-2.5712890625-2.4541015625-3.2900390625-3.6767578125-.72119140625-1.2216796875-.77099609375-2.376953125-.1513671875-3.4599609375l26.90283203125-37.59521484375c-3.2802734375-3.93798828125-6.314453125-7.689453125-9.103515625-11.25830078125-2.79150390625-3.564453125-5.26416015625-6.72021484375-7.4189453125-9.46435546875-2.41845703125-3.1865234375-4.6474609375-6.15576171875-6.6865234375-8.90771484375-.625-.65087890625-1.02197265625-1.375-1.19091796875-2.17333984375-.16357421875-.68310546875-.09912109375-1.4384765625.1904296875-2.2685546875.2900390625-.82861328125,1.03466796875-1.7470703125,2.2392578125-2.75732421875,1.2021484375-1.0068359375,2.6259765625-2.17626953125,4.26953125-3.50341796875,1.64306640625-1.328125,3.26708984375-2.50830078125,4.8740234375-3.54638671875,1.60400390625-1.03466796875,3.11572265625-1.74609375,4.537109375-2.134765625,1.41796875-.38525390625,2.5625-.146484375,3.43310546875.7177734375,3.4013671875,4.04638671875,6.79736328125,8.005859375,10.18701171875,11.87646484375,3.39013671875,3.8740234375,6.78173828125,7.7744140625,10.17578125,11.7041015625l17.27490234375-23.74560546875c.75634765625-.74658203125,1.6962890625-1.388671875,2.81640625-1.9296875.89599609375-.40869140625,2.0380859375-.630859375,3.42333984375-.66943359375,1.38623046875-.03564453125,2.91845703125.40625,4.603515625,1.33056640625,1.7978515625.9169921875,3.6044921875,1.9501953125,5.41796875,3.0966796875,1.814453125,1.14892578125,3.345703125,2.40185546875,4.5966796875,3.7607421875,1.2490234375,1.361328125,2.078125,2.892578125,2.486328125,4.599609375.4052734375,1.70703125.1005859375,3.57958984375-.91455078125,5.615234375-.41357421875.72216796875-1.22314453125,1.99267578125-2.42626953125,3.810546875-1.20556640625,1.818359375-2.76220703125,3.98046875-4.671875,6.4814453125-1.9091796875,2.50390625-4.05810546875,5.3115234375-6.4453125,8.42578125-2.38818359375,3.11328125-4.91162109375,6.38330078125-7.56591796875,9.80322265625,4.7470703125,5.11083984375,9.46435546875,10.19091796875,14.150390625,15.2470703125,4.68603515625,5.05517578125,9.40087890625,10.13818359375,14.150390625,15.24658203125Z"/>
      <path class="cls-2" d="M137.20458984375,151.68359375c.75439453125.875,1.2275390625,1.8828125,1.42236328125,3.0244140625.177734375.9150390625.111328125,2.046875-.19921875,3.3974609375-.3134765625,1.3525390625-1.10986328125,2.765625-2.396484375,4.2421875-1.2861328125,1.4775390625-2.6904296875,2.9345703125-4.2099609375,4.3671875-1.52197265625,1.4365234375-3.1162109375,2.6181640625-4.787109375,3.5400390625-1.671875.9228515625-3.375,1.3876953125-5.109375,1.392578125-1.7353515625.0029296875-3.5166015625-.6845703125-5.3466796875-2.0595703125-.97119140625-.626953125-2.66650390625-2.1845703125-5.09423828125-4.6806640625-2.42724609375-2.4921875-5.27685546875-5.6494140625-8.54736328125-9.47265625-1.6328125-1.8544921875-3.36083984375-3.8466796875-5.18310546875-5.9765625-1.8251953125-2.1298828125-3.73828125-4.2802734375-5.73681640625-6.4580078125-3.19189453125,4.037109375-6.1982421875,7.8603515625-9.0126953125,11.46484375-2.8173828125,3.6083984375-5.28955078125,6.7578125-7.41650390625,9.447265625-2.55615234375,3.1845703125-4.8994140625,6.123046875-7.02685546875,8.8115234375-.537109375.6171875-1.19677734375,1.1240234375-1.97705078125,1.525390625-.67431640625.2763671875-1.47509765625.41796875-2.39892578125.42578125-.9267578125.00390625-2.0537109375-.4091796875-3.3828125-1.2421875-1.3232421875-.716796875-2.8623046875-1.6513671875-4.6171875-2.8037109375-1.75732421875-1.150390625-3.37109375-2.341796875-4.84375-3.5703125-1.47265625-1.2275390625-2.5712890625-2.4541015625-3.2900390625-3.6767578125-.72119140625-1.2216796875-.77099609375-2.376953125-.1513671875-3.4599609375l26.90283203125-37.59521484375c-3.2802734375-3.93798828125-6.314453125-7.689453125-9.103515625-11.25830078125-2.79150390625-3.564453125-5.26416015625-6.72021484375-7.4189453125-9.46435546875-2.41845703125-3.1865234375-4.6474609375-6.15576171875-6.6865234375-8.90771484375-.625-.65087890625-1.02197265625-1.375-1.19091796875-2.17333984375-.16357421875-.68310546875-.09912109375-1.4384765625.1904296875-2.2685546875.2900390625-.82861328125,1.03466796875-1.7470703125,2.2392578125-2.75732421875,1.2021484375-1.0068359375,2.6259765625-2.17626953125,4.26953125-3.50341796875,1.64306640625-1.328125,3.26708984375-2.50830078125,4.8740234375-3.54638671875,1.60400390625-1.03466796875,3.11572265625-1.74609375,4.537109375-2.134765625,1.41796875-.38525390625,2.5625-.146484375,3.43310546875.7177734375,3.4013671875,4.04638671875,6.79736328125,8.005859375,10.18701171875,11.87646484375,3.39013671875,3.8740234375,6.78173828125,7.7744140625,10.17578125,11.7041015625l17.27490234375-23.74560546875c.75634765625-.74658203125,1.6962890625-1.388671875,2.81640625-1.9296875.89599609375-.40869140625,2.0380859375-.630859375,3.42333984375-.66943359375,1.38623046875-.03564453125,2.91845703125.40625,4.603515625,1.33056640625,1.7978515625.9169921875,3.6044921875,1.9501953125,5.41796875,3.0966796875,1.814453125,1.14892578125,3.345703125,2.40185546875,4.5966796875,3.7607421875,1.2490234375,1.361328125,2.078125,2.892578125,2.486328125,4.599609375.4052734375,1.70703125.1005859375,3.57958984375-.91455078125,5.615234375-.41357421875.72216796875-1.22314453125,1.99267578125-2.42626953125,3.810546875-1.20556640625,1.818359375-2.76220703125,3.98046875-4.671875,6.4814453125-1.9091796875,2.50390625-4.05810546875,5.3115234375-6.4453125,8.42578125-2.38818359375,3.11328125-4.91162109375,6.38330078125-7.56591796875,9.80322265625,4.7470703125,5.11083984375,9.46435546875,10.19091796875,14.150390625,15.2470703125,4.68603515625,5.05517578125,9.40087890625,10.13818359375,14.150390625,15.24658203125Z"/>
      <path class="cls-2" d="M137.20458984375,151.68359375c.75439453125.875,1.2275390625,1.8828125,1.42236328125,3.0244140625.177734375.9150390625.111328125,2.046875-.19921875,3.3974609375-.3134765625,1.3525390625-1.10986328125,2.765625-2.396484375,4.2421875-1.2861328125,1.4775390625-2.6904296875,2.9345703125-4.2099609375,4.3671875-1.52197265625,1.4365234375-3.1162109375,2.6181640625-4.787109375,3.5400390625-1.671875.9228515625-3.375,1.3876953125-5.109375,1.392578125-1.7353515625.0029296875-3.5166015625-.6845703125-5.3466796875-2.0595703125-.97119140625-.626953125-2.66650390625-2.1845703125-5.09423828125-4.6806640625-2.42724609375-2.4921875-5.27685546875-5.6494140625-8.54736328125-9.47265625-1.6328125-1.8544921875-3.36083984375-3.8466796875-5.18310546875-5.9765625-1.8251953125-2.1298828125-3.73828125-4.2802734375-5.73681640625-6.4580078125-3.19189453125,4.037109375-6.1982421875,7.8603515625-9.0126953125,11.46484375-2.8173828125,3.6083984375-5.28955078125,6.7578125-7.41650390625,9.447265625-2.55615234375,3.1845703125-4.8994140625,6.123046875-7.02685546875,8.8115234375-.537109375.6171875-1.19677734375,1.1240234375-1.97705078125,1.525390625-.67431640625.2763671875-1.47509765625.41796875-2.39892578125.42578125-.9267578125.00390625-2.0537109375-.4091796875-3.3828125-1.2421875-1.3232421875-.716796875-2.8623046875-1.6513671875-4.6171875-2.8037109375-1.75732421875-1.150390625-3.37109375-2.341796875-4.84375-3.5703125-1.47265625-1.2275390625-2.5712890625-2.4541015625-3.2900390625-3.6767578125-.72119140625-1.2216796875-.77099609375-2.376953125-.1513671875-3.4599609375l26.90283203125-37.59521484375c-3.2802734375-3.93798828125-6.314453125-7.689453125-9.103515625-11.25830078125-2.79150390625-3.564453125-5.26416015625-6.72021484375-7.4189453125-9.46435546875-2.41845703125-3.1865234375-4.6474609375-6.15576171875-6.6865234375-8.90771484375-.625-.65087890625-1.02197265625-1.375-1.19091796875-2.17333984375-.16357421875-.68310546875-.09912109375-1.4384765625.1904296875-2.2685546875.2900390625-.82861328125,1.03466796875-1.7470703125,2.2392578125-2.75732421875,1.2021484375-1.0068359375,2.6259765625-2.17626953125,4.26953125-3.50341796875,1.64306640625-1.328125,3.26708984375-2.50830078125,4.8740234375-3.54638671875,1.60400390625-1.03466796875,3.11572265625-1.74609375,4.537109375-2.134765625,1.41796875-.38525390625,2.5625-.146484375,3.43310546875.7177734375,3.4013671875,4.04638671875,6.79736328125,8.005859375,10.18701171875,11.87646484375,3.39013671875,3.8740234375,6.78173828125,7.7744140625,10.17578125,11.7041015625l17.27490234375-23.74560546875c.75634765625-.74658203125,1.6962890625-1.388671875,2.81640625-1.9296875.89599609375-.40869140625,2.0380859375-.630859375,3.42333984375-.66943359375,1.38623046875-.03564453125,2.91845703125.40625,4.603515625,1.33056640625,1.7978515625.9169921875,3.6044921875,1.9501953125,5.41796875,3.0966796875,1.814453125,1.14892578125,3.345703125,2.40185546875,4.5966796875,3.7607421875,1.2490234375,1.361328125,2.078125,2.892578125,2.486328125,4.599609375.4052734375,1.70703125.1005859375,3.57958984375-.91455078125,5.615234375-.41357421875.72216796875-1.22314453125,1.99267578125-2.42626953125,3.810546875-1.20556640625,1.818359375-2.76220703125,3.98046875-4.671875,6.4814453125-1.9091796875,2.50390625-4.05810546875,5.3115234375-6.4453125,8.42578125-2.38818359375,3.11328125-4.91162109375,6.38330078125-7.56591796875,9.80322265625,4.7470703125,5.11083984375,9.46435546875,10.19091796875,14.150390625,15.2470703125,4.68603515625,5.05517578125,9.40087890625,10.13818359375,14.150390625,15.24658203125Z"/>
    </g>
    <g>
      <line class="cls-2" x1="41.714410739887171" y1="57.257833047041458" x2="136.086200142120106" y2="50.752429389678582"/>
      <path class="cls-2" d="M41.71435546875,57.257831573486328c3.710547061844409-2.268959280807394,7.53308034994734-4.124702080861425,11.44884538927181-5.8561485789578,3.93970441541569-.161524913473841,7.86646222791569-.511752269430872,11.80030011854069-.758364818258997,11.76325681416165-.80866663102006,35.426225368434643-2.443667640225613,47.185975494872764-3.252700239379919-.000062408939812-.000000566282324,11.796446380130874-.813175767701068,11.796446380127236-.813175767700159,4.016279985664369,1.177878781380969,8.251215602028424,2.554422426391284,12.140272195275429,4.174967920598647-3.630365940421143,2.139237657755075-7.636897064859113,4.083175153959019-11.452648442231293,5.801370099160522-.000001682731636-.000012030989637-11.796388401481636.813163170426378-11.796388401481636.813163170426378-11.758901411851184.80835818815558-35.429369798673179,2.443876567887855-47.185965947443947,3.25269958708941-3.930489130681053.295506742256293-7.868111200993553.487397458809028-11.792671747868553.867985990303168-4.116263143105243-1.177998605077846-8.156349971830423-2.491341725455641-12.1441650390625-4.22979736328125h0Z"/>
    </g>
  </g>
  <g>
    <g>
      <path class="cls-3" d="M137.20458984375,151.68359375c.75439453125.875,1.2275390625,1.8828125,1.42236328125,3.0244140625.177734375.9150390625.111328125,2.046875-.19921875,3.3974609375-.3134765625,1.3525390625-1.10986328125,2.765625-2.396484375,4.2421875-1.2861328125,1.4775390625-2.6904296875,2.9345703125-4.2099609375,4.3671875-1.52197265625,1.4365234375-3.1162109375,2.6181640625-4.787109375,3.5400390625-1.671875.9228515625-3.375,1.3876953125-5.109375,1.392578125-1.7353515625.0029296875-3.5166015625-.6845703125-5.3466796875-2.0595703125-.97119140625-.626953125-2.66650390625-2.1845703125-5.09423828125-4.6806640625-2.42724609375-2.4921875-5.27685546875-5.6494140625-8.54736328125-9.47265625-1.6328125-1.8544921875-3.36083984375-3.8466796875-5.18310546875-5.9765625-1.8251953125-2.1298828125-3.73828125-4.2802734375-5.73681640625-6.4580078125-3.19189453125,4.037109375-6.1982421875,7.8603515625-9.0126953125,11.46484375-2.8173828125,3.6083984375-5.28955078125,6.7578125-7.41650390625,9.447265625-2.55615234375,3.1845703125-4.8994140625,6.123046875-7.02685546875,8.8115234375-.537109375.6171875-1.19677734375,1.1240234375-1.97705078125,1.525390625-.67431640625.2763671875-1.47509765625.41796875-2.39892578125.42578125-.9267578125.00390625-2.0537109375-.4091796875-3.3828125-1.2421875-1.3232421875-.716796875-2.8623046875-1.6513671875-4.6171875-2.8037109375-1.75732421875-1.150390625-3.37109375-2.341796875-4.84375-3.5703125-1.47265625-1.2275390625-2.5712890625-2.4541015625-3.2900390625-3.6767578125-.72119140625-1.2216796875-.77099609375-2.376953125-.1513671875-3.4599609375l26.90283203125-37.59521484375c-3.2802734375-3.93798828125-6.314453125-7.689453125-9.103515625-11.25830078125-2.79150390625-3.564453125-5.26416015625-6.72021484375-7.4189453125-9.46435546875-2.41845703125-3.1865234375-4.6474609375-6.15576171875-6.6865234375-8.90771484375-.625-.65087890625-1.02197265625-1.375-1.19091796875-2.17333984375-.16357421875-.68310546875-.09912109375-1.4384765625.1904296875-2.2685546875.2900390625-.82861328125,1.03466796875-1.7470703125,2.2392578125-2.75732421875,1.2021484375-1.0068359375,2.6259765625-2.17626953125,4.26953125-3.50341796875,1.64306640625-1.328125,3.26708984375-2.50830078125,4.8740234375-3.54638671875,1.60400390625-1.03466796875,3.11572265625-1.74609375,4.537109375-2.134765625,1.41796875-.38525390625,2.5625-.146484375,3.43310546875.7177734375,3.4013671875,4.04638671875,6.79736328125,8.005859375,10.18701171875,11.87646484375,3.39013671875,3.8740234375,6.78173828125,7.7744140625,10.17578125,11.7041015625l17.27490234375-23.74560546875c.75634765625-.74658203125,1.6962890625-1.388671875,2.81640625-1.9296875.89599609375-.40869140625,2.0380859375-.630859375,3.42333984375-.66943359375,1.38623046875-.03564453125,2.91845703125.40625,4.603515625,1.33056640625,1.7978515625.9169921875,3.6044921875,1.9501953125,5.41796875,3.0966796875,1.814453125,1.14892578125,3.345703125,2.40185546875,4.5966796875,3.7607421875,1.2490234375,1.361328125,2.078125,2.892578125,2.486328125,4.599609375.4052734375,1.70703125.1005859375,3.57958984375-.91455078125,5.615234375-.41357421875.72216796875-1.22314453125,1.99267578125-2.42626953125,3.810546875-1.20556640625,1.818359375-2.76220703125,3.98046875-4.671875,6.4814453125-1.9091796875,2.50390625-4.05810546875,5.3115234375-6.4453125,8.42578125-2.38818359375,3.11328125-4.91162109375,6.38330078125-7.56591796875,9.80322265625,4.7470703125,5.11083984375,9.46435546875,10.19091796875,14.150390625,15.2470703125,4.68603515625,5.05517578125,9.40087890625,10.13818359375,14.150390625,15.24658203125Z"/>
      <path class="cls-3" d="M137.20458984375,151.68359375c.75439453125.875,1.2275390625,1.8828125,1.42236328125,3.0244140625.177734375.9150390625.111328125,2.046875-.19921875,3.3974609375-.3134765625,1.3525390625-1.10986328125,2.765625-2.396484375,4.2421875-1.2861328125,1.4775390625-2.6904296875,2.9345703125-4.2099609375,4.3671875-1.52197265625,1.4365234375-3.1162109375,2.6181640625-4.787109375,3.5400390625-1.671875.9228515625-3.375,1.3876953125-5.109375,1.392578125-1.7353515625.0029296875-3.5166015625-.6845703125-5.3466796875-2.0595703125-.97119140625-.626953125-2.66650390625-2.1845703125-5.09423828125-4.6806640625-2.42724609375-2.4921875-5.27685546875-5.6494140625-8.54736328125-9.47265625-1.6328125-1.8544921875-3.36083984375-3.8466796875-5.18310546875-5.9765625-1.8251953125-2.1298828125-3.73828125-4.2802734375-5.73681640625-6.4580078125-3.19189453125,4.037109375-6.1982421875,7.8603515625-9.0126953125,11.46484375-2.8173828125,3.6083984375-5.28955078125,6.7578125-7.41650390625,9.447265625-2.55615234375,3.1845703125-4.8994140625,6.123046875-7.02685546875,8.8115234375-.537109375.6171875-1.19677734375,1.1240234375-1.97705078125,1.525390625-.67431640625.2763671875-1.47509765625.41796875-2.39892578125.42578125-.9267578125.00390625-2.0537109375-.4091796875-3.3828125-1.2421875-1.3232421875-.716796875-2.8623046875-1.6513671875-4.6171875-2.8037109375-1.75732421875-1.150390625-3.37109375-2.341796875-4.84375-3.5703125-1.47265625-1.2275390625-2.5712890625-2.4541015625-3.2900390625-3.6767578125-.72119140625-1.2216796875-.77099609375-2.376953125-.1513671875-3.4599609375l26.90283203125-37.59521484375c-3.2802734375-3.93798828125-6.314453125-7.689453125-9.103515625-11.25830078125-2.79150390625-3.564453125-5.26416015625-6.72021484375-7.4189453125-9.46435546875-2.41845703125-3.1865234375-4.6474609375-6.15576171875-6.6865234375-8.90771484375-.625-.65087890625-1.02197265625-1.375-1.19091796875-2.17333984375-.16357421875-.68310546875-.09912109375-1.4384765625.1904296875-2.2685546875.2900390625-.82861328125,1.03466796875-1.7470703125,2.2392578125-2.75732421875,1.2021484375-1.0068359375,2.6259765625-2.17626953125,4.26953125-3.50341796875,1.64306640625-1.328125,3.26708984375-2.50830078125,4.8740234375-3.54638671875,1.60400390625-1.03466796875,3.11572265625-1.74609375,4.537109375-2.134765625,1.41796875-.38525390625,2.5625-.146484375,3.43310546875.7177734375,3.4013671875,4.04638671875,6.79736328125,8.005859375,10.18701171875,11.87646484375,3.39013671875,3.8740234375,6.78173828125,7.7744140625,10.17578125,11.7041015625l17.27490234375-23.74560546875c.75634765625-.74658203125,1.6962890625-1.388671875,2.81640625-1.9296875.89599609375-.40869140625,2.0380859375-.630859375,3.42333984375-.66943359375,1.38623046875-.03564453125,2.91845703125.40625,4.603515625,1.33056640625,1.7978515625.9169921875,3.6044921875,1.9501953125,5.41796875,3.0966796875,1.814453125,1.14892578125,3.345703125,2.40185546875,4.5966796875,3.7607421875,1.2490234375,1.361328125,2.078125,2.892578125,2.486328125,4.599609375.4052734375,1.70703125.1005859375,3.57958984375-.91455078125,5.615234375-.41357421875.72216796875-1.22314453125,1.99267578125-2.42626953125,3.810546875-1.20556640625,1.818359375-2.76220703125,3.98046875-4.671875,6.4814453125-1.9091796875,2.50390625-4.05810546875,5.3115234375-6.4453125,8.42578125-2.38818359375,3.11328125-4.91162109375,6.38330078125-7.56591796875,9.80322265625,4.7470703125,5.11083984375,9.46435546875,10.19091796875,14.150390625,15.2470703125,4.68603515625,5.05517578125,9.40087890625,10.13818359375,14.150390625,15.24658203125Z"/>
      <path class="cls-3" d="M137.20458984375,151.68359375c.75439453125.875,1.2275390625,1.8828125,1.42236328125,3.0244140625.177734375.9150390625.111328125,2.046875-.19921875,3.3974609375-.3134765625,1.3525390625-1.10986328125,2.765625-2.396484375,4.2421875-1.2861328125,1.4775390625-2.6904296875,2.9345703125-4.2099609375,4.3671875-1.52197265625,1.4365234375-3.1162109375,2.6181640625-4.787109375,3.5400390625-1.671875.9228515625-3.375,1.3876953125-5.109375,1.392578125-1.7353515625.0029296875-3.5166015625-.6845703125-5.3466796875-2.0595703125-.97119140625-.626953125-2.66650390625-2.1845703125-5.09423828125-4.6806640625-2.42724609375-2.4921875-5.27685546875-5.6494140625-8.54736328125-9.47265625-1.6328125-1.8544921875-3.36083984375-3.8466796875-5.18310546875-5.9765625-1.8251953125-2.1298828125-3.73828125-4.2802734375-5.73681640625-6.4580078125-3.19189453125,4.037109375-6.1982421875,7.8603515625-9.0126953125,11.46484375-2.8173828125,3.6083984375-5.28955078125,6.7578125-7.41650390625,9.447265625-2.55615234375,3.1845703125-4.8994140625,6.123046875-7.02685546875,8.8115234375-.537109375.6171875-1.19677734375,1.1240234375-1.97705078125,1.525390625-.67431640625.2763671875-1.47509765625.41796875-2.39892578125.42578125-.9267578125.00390625-2.0537109375-.4091796875-3.3828125-1.2421875-1.3232421875-.716796875-2.8623046875-1.6513671875-4.6171875-2.8037109375-1.75732421875-1.150390625-3.37109375-2.341796875-4.84375-3.5703125-1.47265625-1.2275390625-2.5712890625-2.4541015625-3.2900390625-3.6767578125-.72119140625-1.2216796875-.77099609375-2.376953125-.1513671875-3.4599609375l26.90283203125-37.59521484375c-3.2802734375-3.93798828125-6.314453125-7.689453125-9.103515625-11.25830078125-2.79150390625-3.564453125-5.26416015625-6.72021484375-7.4189453125-9.46435546875-2.41845703125-3.1865234375-4.6474609375-6.15576171875-6.6865234375-8.90771484375-.625-.65087890625-1.02197265625-1.375-1.19091796875-2.17333984375-.16357421875-.68310546875-.09912109375-1.4384765625.1904296875-2.2685546875.2900390625-.82861328125,1.03466796875-1.7470703125,2.2392578125-2.75732421875,1.2021484375-1.0068359375,2.6259765625-2.17626953125,4.26953125-3.50341796875,1.64306640625-1.328125,3.26708984375-2.50830078125,4.8740234375-3.54638671875,1.60400390625-1.03466796875,3.11572265625-1.74609375,4.537109375-2.134765625,1.41796875-.38525390625,2.5625-.146484375,3.43310546875.7177734375,3.4013671875,4.04638671875,6.79736328125,8.005859375,10.18701171875,11.87646484375,3.39013671875,3.8740234375,6.78173828125,7.7744140625,10.17578125,11.7041015625l17.27490234375-23.74560546875c.75634765625-.74658203125,1.6962890625-1.388671875,2.81640625-1.9296875.89599609375-.40869140625,2.0380859375-.630859375,3.42333984375-.66943359375,1.38623046875-.03564453125,2.91845703125.40625,4.603515625,1.33056640625,1.7978515625.9169921875,3.6044921875,1.9501953125,5.41796875,3.0966796875,1.814453125,1.14892578125,3.345703125,2.40185546875,4.5966796875,3.7607421875,1.2490234375,1.361328125,2.078125,2.892578125,2.486328125,4.599609375.4052734375,1.70703125.1005859375,3.57958984375-.91455078125,5.615234375-.41357421875.72216796875-1.22314453125,1.99267578125-2.42626953125,3.810546875-1.20556640625,1.818359375-2.76220703125,3.98046875-4.671875,6.4814453125-1.9091796875,2.50390625-4.05810546875,5.3115234375-6.4453125,8.42578125-2.38818359375,3.11328125-4.91162109375,6.38330078125-7.56591796875,9.80322265625,4.7470703125,5.11083984375,9.46435546875,10.19091796875,14.150390625,15.2470703125,4.68603515625,5.05517578125,9.40087890625,10.13818359375,14.150390625,15.24658203125Z"/>
    </g>
    <g>
      <line class="cls-3" x1="41.714410739887171" y1="57.257833047041458" x2="136.086200142120106" y2="50.752429389678582"/>
      <path class="cls-3" d="M41.71435546875,57.257831573486328c3.710547061844409-2.268959280807394,7.53308034994734-4.124702080861425,11.44884538927181-5.8561485789578,3.93970441541569-.161524913473841,7.86646222791569-.511752269430872,11.80030011854069-.758364818258997,11.76325681416165-.80866663102006,35.426225368434643-2.443667640225613,47.185975494872764-3.252700239379919-.000062408939812-.000000566282324,11.796446380130874-.813175767701068,11.796446380127236-.813175767700159,4.016279985664369,1.177878781380969,8.251215602028424,2.554422426391284,12.140272195275429,4.174967920598647-3.630365940421143,2.139237657755075-7.636897064859113,4.083175153959019-11.452648442231293,5.801370099160522-.000001682731636-.000012030989637-11.796388401481636.813163170426378-11.796388401481636.813163170426378-11.758901411851184.80835818815558-35.429369798673179,2.443876567887855-47.185965947443947,3.25269958708941-3.930489130681053.295506742256293-7.868111200993553.487397458809028-11.792671747868553.867985990303168-4.116263143105243-1.177998605077846-8.156349971830423-2.491341725455641-12.1441650390625-4.22979736328125h0Z"/>
    </g>
  </g>
</svg>