<?xml version="1.0" encoding="UTF-8"?>
<svg xmlns="http://www.w3.org/2000/svg" viewBox="0 0 280 280">
  <defs>
    <style>
      .cls-1 {
        stroke: #665451;
        stroke-width: 50px;
      }

      .cls-1, .cls-2 {
        fill: none;
        stroke-linecap: round;
        stroke-linejoin: round;
      }

      .cls-3 {
        fill: #fff;
      }

      .cls-4 {
        fill: #e11f26;
      }

      .cls-5 {
        fill: #ec1940;
      }

      .cls-2 {
        stroke: #998675;
        stroke-width: 2px;
      }
    </style>
  </defs>
  <g id="Layer_1">
    <g>
      <path class="cls-1" d="M218.689912659805486,85.647219907822546c-7.461995874495187-4.595480787631459-14.437812953647153-9.955467487417081-20.784216567459225-16.000090557186013-.761125328439448-.724959982797373-1.4947530305908-1.478890245143702-2.256037196626494-2.203153711329833,1.73389400142878,1.649722192751142.239183985078853.23307642178861-.120694427419949-.139590095660424-.38930356345918-.403305799708505-.776101827896127-.809201215894973-1.160023836733671-1.217671183481798-1.487953278239729-1.582773756639654-2.934496380794371-3.204256275409534-4.338129912979639-4.862297846819274-2.85320830546334-3.370550916322827-5.519320686846186-6.893579280281301-8.002904714838223-10.544646649527749-2.210942014309694-3.250008849880942-7.531266312817024-3.894985284980066-10.516249233731287-1.394905163287149-3.257344839010329,2.728128396838656-3.75972561035087,7.039952373643246-1.394973308440967,10.516196254314309,7.095900173590053,10.431047872623822,15.768256768997162,19.874900700511716,25.579735733808775,27.874784641117913-7.109409100607081.989371555725484-14.33273502024349,1.182897037881958-21.499243383554131,1.566884163649775-10.392693450308798.556769476582303-20.770430465901882,1.469787521117723-31.147587425499296,2.257741124596578-21.009616800109143,1.595324716779032-42.033366187037245,3.234985052757111-62.914818698149247,6.106439293263975-5.834926837414969.802362266027558-11.656516819581157,1.704364455982613-17.45685490877986,2.72500685452269,6.430514478652185-7.339048124946203,12.056598876919452-15.299892020005245,15.733095469087857-24.482333649440989,1.852995699136954-4.627698401892303,3.21382274257121-9.535040489831772,3.85543859108293-14.481813927771327.504080473992872-3.885576043086985-2.271664674630301-8.097525903564019-6.343901130114318-8.50362133091221-3.994243773957351-.398268364194337-7.963562061031553,2.181200322982477-8.503553185759301,6.343954109533115-.25782999153671,1.987924405021658-.643704893802351,3.949499451274278-1.133397980804148,5.890549452361483-1.148921182430058,3.836832931440767-2.689391933858133,7.541292845253338-4.574005909058542,11.07638068115466-.262125717856179.49157457493402-.530194927805496.979895059417686-.803950214973156,1.465052246549931-.057476930674966.101986116840635-.116407557514322.203170060205593-.174414483679357.304853466275745-.553165246312346.898623089472494-1.109404708042348,1.794309461714874-1.693014766187844,2.673800606441546-1.192255524998473,1.796809526436846-2.458030577583486,3.543896040810978-3.779684655795791,5.247539432735721-2.90772074625238,3.747951886932242-6.082503857771371,7.280896218938324-9.377561721899838,10.690375490908991-.745398193941583.771311804161087-1.497255313674032,1.536235444764316-2.253867629708111,2.29658748840302-.119331658890587.119880242173167-.239079771568868.239382045554521-.358684011071091.359050370056138-.40713417497318.400485944883258-.813798816083363.801774264555206-1.222182352417803,1.201124893064843-1.753222199011361,1.714436328796182-3.522701664080159,3.412024095562629-5.292188712015559,5.109551300042767-1.394307145315906,1.337580143544074-2.660623399628093,2.844531156839366-2.863210319863356,4.875732263846658-.196263009669565,1.969697237448599.175914946548801,4.069672138328315,1.468244594290809,5.640524552753959,10.553745158864331,12.827699462982309,20.503783848391322,26.14348524703928,29.81500202200732,39.899776500331427,2.203372634545303,3.255385438715166,7.536148404733467,3.890744817777886,10.516128109160491,1.394920329024899,3.263241223387013-2.733110978519107,3.751702063775156-7.034272872726433,1.394852183870171-10.516181088580197-6.907333911776732-10.205289321020246-14.168462159699629-20.166736830198715-21.764810945132922-29.867660989909382,18.564873829920543-3.707003575503222,37.380505180110049-6.042075573825059,56.224095368685084-7.816831816741797,10.864390309750888-1.023283209789952,21.744655051181326-1.865741191872985,32.625271221611911-2.692619198899592,10.783367299221936-.819499608292972,21.567577840361992-1.772769762977987,32.3677124706428-2.339464206511366,4.16552082967246-.218548782201651,8.329820683375146-.410494649458087,12.472723764367402-.726168057932227-3.160145492123775,3.366875298103878-6.045920009371912,6.963897615260976-8.471825734164668,10.894063234118221-2.207130792976386,3.575777001185998-4.15736053189903,7.247086327344732-5.528536913812786,11.226774248366382-.662999867623512,1.924612088063441-.833674254809011,3.896272415956446-.032133047414391,5.828321957138542.691556004030645,1.666741871264094,2.260447270322402,3.37027850272716,3.97681531931994,4.019308009724227,3.573103638707835,1.351099363068897,8.483422005676402.015495097864004,9.847698112014768-3.944629292487662.67393275260838-1.956183224207052,1.468821172617027-3.865015129204039,2.395940045060343-5.715051456186302.460369800146509-.918559891971199.985588621775605-1.798675012849344,1.465083756771492-2.70597394338256-.142618042355025.269931910451305-.253989837459812.479914372182066-.339215769881775.64030484453815.124276024398569-.226791565969506.269190266499209-.485262240055818.361815400317937-.631754825463759.205691532089986-.325254736051647.414865949203886-.648239040670887.627265836465085-.969043706956654,2.250999964939183-3.399318096130628,4.871007175965133-6.542693196072833,7.689803562614543-9.48379546315482.296843307767631-.309602488768178.597919399215243-.614875529056008.897041929165425-.921995366748888.032682831601051-.031772417640241.065077916851806-.063877877521918.097760748452856-.095650295161249.755111176582432-.734021608650437,1.521671342847185-1.45619018823345,2.297484688151599-2.168322204684955,1.509724433773954-1.385555170115367,3.054848848641996-2.732053906867804,4.622599467513282-4.051121853947734,3.176480800473655-2.672423408140276,6.446798449880589-5.230127822657778,9.727521068978604-7.772526855867909,1.871534666293883-1.45041734377628,2.851285620974522-3.549215254363844,2.872232994417573-5.88153288344165.019482604740915-2.165191422589487-.859402377735023-4.78177818696895-2.82948935989225-5.995150187360196Z"/>
      <path class="cls-2" d="M218.689912659805486,85.647219907822546c-7.461995874495187-4.595480787631459-14.437812953647153-9.955467487417081-20.784216567459225-16.000090557186013-.761125328439448-.724959982797373-1.4947530305908-1.478890245143702-2.256037196626494-2.203153711329833,1.73389400142878,1.649722192751142.239183985078853.23307642178861-.120694427419949-.139590095660424-.38930356345918-.403305799708505-.776101827896127-.809201215894973-1.160023836733671-1.217671183481798-1.487953278239729-1.582773756639654-2.934496380794371-3.204256275409534-4.338129912979639-4.862297846819274-2.85320830546334-3.370550916322827-5.519320686846186-6.893579280281301-8.002904714838223-10.544646649527749-2.210942014309694-3.250008849880942-7.531266312817024-3.894985284980066-10.516249233731287-1.394905163287149-3.257344839010329,2.728128396838656-3.75972561035087,7.039952373643246-1.394973308440967,10.516196254314309,7.095900173590053,10.431047872623822,15.768256768997162,19.874900700511716,25.579735733808775,27.874784641117913-7.109409100607081.989371555725484-14.33273502024349,1.182897037881958-21.499243383554131,1.566884163649775-10.392693450308798.556769476582303-20.770430465901882,1.469787521117723-31.147587425499296,2.257741124596578-21.009616800109143,1.595324716779032-42.033366187037245,3.234985052757111-62.914818698149247,6.106439293263975-5.834926837414969.802362266027558-11.656516819581157,1.704364455982613-17.45685490877986,2.72500685452269,6.430514478652185-7.339048124946203,12.056598876919452-15.299892020005245,15.733095469087857-24.482333649440989,1.852995699136954-4.627698401892303,3.21382274257121-9.535040489831772,3.85543859108293-14.481813927771327.504080473992872-3.885576043086985-2.271664674630301-8.097525903564019-6.343901130114318-8.50362133091221-3.994243773957351-.398268364194337-7.963562061031553,2.181200322982477-8.503553185759301,6.343954109533115-.25782999153671,1.987924405021658-.643704893802351,3.949499451274278-1.133397980804148,5.890549452361483-1.148921182430058,3.836832931440767-2.689391933858133,7.541292845253338-4.574005909058542,11.07638068115466-.262125717856179.49157457493402-.530194927805496.979895059417686-.803950214973156,1.465052246549931-.057476930674966.101986116840635-.116407557514322.203170060205593-.174414483679357.304853466275745-.553165246312346.898623089472494-1.109404708042348,1.794309461714874-1.693014766187844,2.673800606441546-1.192255524998473,1.796809526436846-2.458030577583486,3.543896040810978-3.779684655795791,5.247539432735721-2.90772074625238,3.747951886932242-6.082503857771371,7.280896218938324-9.377561721899838,10.690375490908991-.745398193941583.771311804161087-1.497255313674032,1.536235444764316-2.253867629708111,2.29658748840302-.119331658890587.119880242173167-.239079771568868.239382045554521-.358684011071091.359050370056138-.40713417497318.400485944883258-.813798816083363.801774264555206-1.222182352417803,1.201124893064843-1.753222199011361,1.714436328796182-3.522701664080159,3.412024095562629-5.292188712015559,5.109551300042767-1.394307145315906,1.337580143544074-2.660623399628093,2.844531156839366-2.863210319863356,4.875732263846658-.196263009669565,1.969697237448599.175914946548801,4.069672138328315,1.468244594290809,5.640524552753959,10.553745158864331,12.827699462982309,20.503783848391322,26.14348524703928,29.81500202200732,39.899776500331427,2.203372634545303,3.255385438715166,7.536148404733467,3.890744817777886,10.516128109160491,1.394920329024899,3.263241223387013-2.733110978519107,3.751702063775156-7.034272872726433,1.394852183870171-10.516181088580197-6.907333911776732-10.205289321020246-14.168462159699629-20.166736830198715-21.764810945132922-29.867660989909382,18.564873829920543-3.707003575503222,37.380505180110049-6.042075573825059,56.224095368685084-7.816831816741797,10.864390309750888-1.023283209789952,21.744655051181326-1.865741191872985,32.625271221611911-2.692619198899592,10.783367299221936-.819499608292972,21.567577840361992-1.772769762977987,32.3677124706428-2.339464206511366,4.16552082967246-.218548782201651,8.329820683375146-.410494649458087,12.472723764367402-.726168057932227-3.160145492123775,3.366875298103878-6.045920009371912,6.963897615260976-8.471825734164668,10.894063234118221-2.207130792976386,3.575777001185998-4.15736053189903,7.247086327344732-5.528536913812786,11.226774248366382-.662999867623512,1.924612088063441-.833674254809011,3.896272415956446-.032133047414391,5.828321957138542.691556004030645,1.666741871264094,2.260447270322402,3.37027850272716,3.97681531931994,4.019308009724227,3.573103638707835,1.351099363068897,8.483422005676402.015495097864004,9.847698112014768-3.944629292487662.67393275260838-1.956183224207052,1.468821172617027-3.865015129204039,2.395940045060343-5.715051456186302.460369800146509-.918559891971199.985588621775605-1.798675012849344,1.465083756771492-2.70597394338256-.142618042355025.269931910451305-.253989837459812.479914372182066-.339215769881775.64030484453815.124276024398569-.226791565969506.269190266499209-.485262240055818.361815400317937-.631754825463759.205691532089986-.325254736051647.414865949203886-.648239040670887.627265836465085-.969043706956654,2.250999964939183-3.399318096130628,4.871007175965133-6.542693196072833,7.689803562614543-9.48379546315482.296843307767631-.309602488768178.597919399215243-.614875529056008.897041929165425-.921995366748888.032682831601051-.031772417640241.065077916851806-.063877877521918.097760748452856-.095650295161249.755111176582432-.734021608650437,1.521671342847185-1.45619018823345,2.297484688151599-2.168322204684955,1.509724433773954-1.385555170115367,3.054848848641996-2.732053906867804,4.622599467513282-4.051121853947734,3.176480800473655-2.672423408140276,6.446798449880589-5.230127822657778,9.727521068978604-7.772526855867909,1.871534666293883-1.45041734377628,2.851285620974522-3.549215254363844,2.872232994417573-5.88153288344165.019482604740915-2.165191422589487-.859402377735023-4.78177818696895-2.82948935989225-5.995150187360196Z"/>
      <path class="cls-3" d="M218.689912659805486,85.647219907822546c-7.461995874495187-4.595480787631459-14.437812953647153-9.955467487417081-20.784216567459225-16.000090557186013-.761125328439448-.724959982797373-1.4947530305908-1.478890245143702-2.256037196626494-2.203153711329833,1.73389400142878,1.649722192751142.239183985078853.23307642178861-.120694427419949-.139590095660424-.38930356345918-.403305799708505-.776101827896127-.809201215894973-1.160023836733671-1.217671183481798-1.487953278239729-1.582773756639654-2.934496380794371-3.204256275409534-4.338129912979639-4.862297846819274-2.85320830546334-3.370550916322827-5.519320686846186-6.893579280281301-8.002904714838223-10.544646649527749-2.210942014309694-3.250008849880942-7.531266312817024-3.894985284980066-10.516249233731287-1.394905163287149-3.257344839010329,2.728128396838656-3.75972561035087,7.039952373643246-1.394973308440967,10.516196254314309,7.095900173590053,10.431047872623822,15.768256768997162,19.874900700511716,25.579735733808775,27.874784641117913-7.109409100607081.989371555725484-14.33273502024349,1.182897037881958-21.499243383554131,1.566884163649775-10.392693450308798.556769476582303-20.770430465901882,1.469787521117723-31.147587425499296,2.257741124596578-21.009616800109143,1.595324716779032-42.033366187037245,3.234985052757111-62.914818698149247,6.106439293263975-5.834926837414969.802362266027558-11.656516819581157,1.704364455982613-17.45685490877986,2.72500685452269,6.430514478652185-7.339048124946203,12.056598876919452-15.299892020005245,15.733095469087857-24.482333649440989,1.852995699136954-4.627698401892303,3.21382274257121-9.535040489831772,3.85543859108293-14.481813927771327.504080473992872-3.885576043086985-2.271664674630301-8.097525903564019-6.343901130114318-8.50362133091221-3.994243773957351-.398268364194337-7.963562061031553,2.181200322982477-8.503553185759301,6.343954109533115-.25782999153671,1.987924405021658-.643704893802351,3.949499451274278-1.133397980804148,5.890549452361483-1.148921182430058,3.836832931440767-2.689391933858133,7.541292845253338-4.574005909058542,11.07638068115466-.262125717856179.49157457493402-.530194927805496.979895059417686-.803950214973156,1.465052246549931-.057476930674966.101986116840635-.116407557514322.203170060205593-.174414483679357.304853466275745-.553165246312346.898623089472494-1.109404708042348,1.794309461714874-1.693014766187844,2.673800606441546-1.192255524998473,1.796809526436846-2.458030577583486,3.543896040810978-3.779684655795791,5.247539432735721-2.90772074625238,3.747951886932242-6.082503857771371,7.280896218938324-9.377561721899838,10.690375490908991-.745398193941583.771311804161087-1.497255313674032,1.536235444764316-2.253867629708111,2.29658748840302-.119331658890587.119880242173167-.239079771568868.239382045554521-.358684011071091.359050370056138-.40713417497318.400485944883258-.813798816083363.801774264555206-1.222182352417803,1.201124893064843-1.753222199011361,1.714436328796182-3.522701664080159,3.412024095562629-5.292188712015559,5.109551300042767-1.394307145315906,1.337580143544074-2.660623399628093,2.844531156839366-2.863210319863356,4.875732263846658-.196263009669565,1.969697237448599.175914946548801,4.069672138328315,1.468244594290809,5.640524552753959,10.553745158864331,12.827699462982309,20.503783848391322,26.14348524703928,29.81500202200732,39.899776500331427,2.203372634545303,3.255385438715166,7.536148404733467,3.890744817777886,10.516128109160491,1.394920329024899,3.263241223387013-2.733110978519107,3.751702063775156-7.034272872726433,1.394852183870171-10.516181088580197-6.907333911776732-10.205289321020246-14.168462159699629-20.166736830198715-21.764810945132922-29.867660989909382,18.564873829920543-3.707003575503222,37.380505180110049-6.042075573825059,56.224095368685084-7.816831816741797,10.864390309750888-1.023283209789952,21.744655051181326-1.865741191872985,32.625271221611911-2.692619198899592,10.783367299221936-.819499608292972,21.567577840361992-1.772769762977987,32.3677124706428-2.339464206511366,4.16552082967246-.218548782201651,8.329820683375146-.410494649458087,12.472723764367402-.726168057932227-3.160145492123775,3.366875298103878-6.045920009371912,6.963897615260976-8.471825734164668,10.894063234118221-2.207130792976386,3.575777001185998-4.15736053189903,7.247086327344732-5.528536913812786,11.226774248366382-.662999867623512,1.924612088063441-.833674254809011,3.896272415956446-.032133047414391,5.828321957138542.691556004030645,1.666741871264094,2.260447270322402,3.37027850272716,3.97681531931994,4.019308009724227,3.573103638707835,1.351099363068897,8.483422005676402.015495097864004,9.847698112014768-3.944629292487662.67393275260838-1.956183224207052,1.468821172617027-3.865015129204039,2.395940045060343-5.715051456186302.460369800146509-.918559891971199.985588621775605-1.798675012849344,1.465083756771492-2.70597394338256-.142618042355025.269931910451305-.253989837459812.479914372182066-.339215769881775.64030484453815.124276024398569-.226791565969506.269190266499209-.485262240055818.361815400317937-.631754825463759.205691532089986-.325254736051647.414865949203886-.648239040670887.627265836465085-.969043706956654,2.250999964939183-3.399318096130628,4.871007175965133-6.542693196072833,7.689803562614543-9.48379546315482.296843307767631-.309602488768178.597919399215243-.614875529056008.897041929165425-.921995366748888.032682831601051-.031772417640241.065077916851806-.063877877521918.097760748452856-.095650295161249.755111176582432-.734021608650437,1.521671342847185-1.45619018823345,2.297484688151599-2.168322204684955,1.509724433773954-1.385555170115367,3.054848848641996-2.732053906867804,4.622599467513282-4.051121853947734,3.176480800473655-2.672423408140276,6.446798449880589-5.230127822657778,9.727521068978604-7.772526855867909,1.871534666293883-1.45041734377628,2.851285620974522-3.549215254363844,2.872232994417573-5.88153288344165.019482604740915-2.165191422589487-.859402377735023-4.78177818696895-2.82948935989225-5.995150187360196Z"/>
    </g>
  </g>
  <g id="Arrows">
    <g>
      <g>
        <path class="cls-5" d="M216.239074707029431,177.011143461186293c9.6474609375,0,18.182739257810681.61407470703125,26.09356689453125,1.8773193359375,2.437622070319776.3892822265625,5.0810546875.5784912109375,8.081298828128638.5784912109375,2.584655761720569,0,5.178894042970569-.1383056640625,7.407592773441138-.26800537109375,2.849182128898974-.16571044921875,5.877380371090112-.242919921875,9.530029296869543-.242919921875,2.790771484380457,0,5.633483886720569.04583740234375,8.382507324220569.09014892578125,1.27801513671875.0206298828125,2.55584716796875.04119873046875,3.83319091796875.05755615234375,8.607666015621362.10992431640625,16.20928955078125,1.57861328125,23.239318847650793,4.48992919921875,13.068542480470569,5.41204833984375,21.741577148439319,15.21478271484375,25.7783203125,29.13592529296875,2.879089355470569,9.9288330078125,3.709594726569776,20.67840576171875,2.613586425790345,33.82952880859375-.037902832040345.45465087890625-.039794921880457.89862060546875-.041625976569776,1.32794189453125-.001892089840112.45135498046875-.00372314453125.87762451171875-.045959472650793,1.28741455078125-.898071289069776,8.71588134765625.101745605470569,17.419921875,1.068725585930224,25.83734130859375.195434570319776,1.70172119140625.390930175790345,3.4034423828125.571472167970569,5.10589599609375.127807617189319,1.205810546875.168823242189319,2.45635986328125.20849609375,3.66571044921875.057067871099207,1.741455078125.116088867189319,3.54107666015625.42919921875,5.32916259765625v13.2296142578125c-.347778320310681,1.52081298828125-.4228515625,3.05242919921875-.495483398430224,4.534912109375-.026794433601026.54779052734375-.053466796880457,1.0947265625-.094177246101026,1.638671875-.482177734369543,6.44464111328125-3.044738769529431,12.3995361328125-8.064453125,18.74041748046875-8.244689941398974,10.41455078125-19.430725097648974,15.663818359375-34.19744873046875,16.04779052734375-.439514160150793.01141357421875-.878845214840112.0172119140625-1.315612792970569.0172119140625-7.625305175779431,0-14.220581054680224-1.7264404296875-20.162658691400793-5.27801513671875-6.481811523439319-3.8741455078125-11.447082519529431-9.30035400390625-14.760620117189319-16.13323974609375-.796142578119543-1.641845703125-1.234741210939319-2.54620361328125-2.29736328125-2.54644775390625-.768615722659888-.00006103515625-1.339721679689319.54498291015625-2.37646484375,1.5345458984375l-.075866699220569.0723876953125c-1.821899414058862,1.73834228515625-3.647216796869543,3.4732666015625-5.472473144529431,5.20819091796875-7.718505859369543,7.33660888671875-15.699829101560681,14.9229736328125-23.292602539060681,22.65985107421875-1.186889648439319,1.2093505859375-2.3466796875,2.47344970703125-3.468322753909888,3.69586181640625-1.527709960939319,1.6650390625-3.107482910148974,3.38677978515625-4.756103515619543,4.968505859375-4.759887695319776,4.56695556640625-9.583190917970569,7.76416015625-14.745422363279431,9.7742919921875-3.338134765630457,1.2998046875-6.819702148441138,1.43402099609375-10.505737304691138,1.5760498046875l-.18603515625.00787353515625-3.377746582029431-.00006103515625-3.421447753909888.00103759765625c-.44091796875.01983642578125-.878967285159888.02960205078125-1.312316894529431.02960205078125-7.57568359375,0-14.701599121090112-3.02203369140625-21.784790039060681-9.2388916015625-4.392822265630457-3.85552978515625-7.8369140625-7.76263427734375-10.529174804689319-11.94464111328125-3.431640625-5.3306884765625-5.02490234375-11.15106201171875-4.870544433590112-17.81707763671875l-.001159667970569-6.0845947265625c-.432800292970569-8.91302490234375,2.935241699220569-17.052490234375,10.010620117180224-24.19219970703125,4.933410644540345-4.97833251953125,10.113830566409888-9.88702392578125,15.123718261720569-14.63409423828125,4.509826660159888-4.27325439453125,9.173217773439319-8.69195556640625,13.653686523439319-13.1583251953125,2.377624511720569-2.37017822265625,4.843200683590112-4.7508544921875,7.2275390625-7.0531005859375,1.079162597659888-1.04205322265625,2.158264160159888-2.083984375,3.2333984375-3.128662109375.90234375-.87677001953125,1.695983886720569-1.74737548828125,1.498291015630457-2.75689697265625-.198486328130457-1.013916015625-1.235717773441138-1.5093994140625-2.469299316409888-2.00830078125-8.08282470703125-3.26922607421875-14.294799804691138-8.6715087890625-18.463439941409888-16.056640625-2.380737304680224-4.2177734375-3.804626464840112-9.0028076171875-4.353149414060681-14.62860107421875-.824401855470569-8.45367431640625.548217773439319-16.67938232421875,4.079650878909888-24.4486083984375,4.827758789060681-10.62139892578125,12.893127441400793-18.1539306640625,23.972045898430224-22.38836669921875,4.607666015630457-1.7611083984375,9.33544921875-2.1168212890625,13.758117675790345-2.2388916015625,2.465942382808862-.06805419921875,4.869201660148974-.10260009765625,7.143127441398974-.10260009765625M216.239074707029431,176.011143461186293c-2.389099121090112,0-4.780029296869543.0369873046875-7.170715332029431.10296630859375-4.747680664060681.13104248046875-9.4990234375.5506591796875-14.087585449220569,2.304443359375-11.32763671875,4.3294677734375-19.53094482421875,11.92059326171875-24.525390625,22.90863037109375-3.598449707029431,7.916748046875-5.016357421869543,16.22412109375-4.16455078125,24.95947265625.52130126953125,5.346435546875,1.850708007810681,10.36920166015625,4.477600097659888,15.0230712890625,4.361450195310681,7.726806640625,10.74102783203125,13.16815185546875,18.959350585941138,16.4921875,2.319519042959655.9381103515625,2.427001953119543,1.3934326171875.649108886709655,3.12091064453125-3.493103027340112,3.39410400390625-7.028137207029431,6.7596435546875-10.470092773430224,10.19073486328125-9.450439453130457,9.42071533203125-19.396667480470569,18.32623291015625-28.78173828125,27.7967529296875-6.723693847659888,6.784912109375-10.78125,15.01544189453125-10.299133300779431,24.94464111328125v6.03607177734375c-.153625488290345,6.62188720703125,1.397583007808862,12.71630859375,5.029724121090112,18.35833740234375,2.974243164058862,4.62005615234375,6.646301269529431,8.5880126953125,10.710327148439319,12.15496826171875,6.435607910150793,5.6484375,13.703002929680224,9.4873046875,22.444458007810681,9.4873046875.448181152340112,0,.901184082029431-.0101318359375,1.357177734369543-.03057861328125,1.125122070319776,0,2.250610351569776-.00006103515625,3.376586914069776-.00006103515625s2.25244140625.00006103515625,3.379516601560681.00006103515625c3.74627685546875-.1448974609375,7.487548828119543-.2637939453125,11.052856445308862-1.652099609375,5.751159667970569-2.23944091796875,10.653259277351026-5.74212646484375,15.074890136720569-9.9844970703125,2.884765625-2.76776123046875,5.451538085939319-5.83831787109375,8.245788574220569-8.685546875,9.345153808590112-9.52252197265625,19.090087890619543-18.63629150390625,28.74169921875-27.844970703125.903259277340112-.86181640625,1.383239746090112-1.3304443359375,1.761840820308862-1.33038330078125.436889648441138.00006103515625.738952636720569.62408447265625,1.400390625,1.98809814453125,3.405212402351026,7.02203369140625,8.453125,12.55035400390625,15.144714355470569,16.54986572265625,6.389587402340112,3.81903076171875,13.334045410159888,5.419677734375,20.675720214840112,5.419677734375.445373535159888,0,.893371582040345-.00592041015625,1.341613769540345-.017578125,14.059692382808862-.36553955078125,26.058776855459655-5.1884765625,34.955505371090112-16.4267578125,4.466918945308862-5.64251708984375,7.72314453125-11.87579345703125,8.277587890619543-19.2864990234375.152526855470569-2.038330078125.112731933599207-4.11798095703125.592468261720569-6.133056640625v-13.43280029296875c-.536254882810681-2.9808349609375-.32550048828125-6.01458740234375-.643310546871362-9.01220703125-1.083068847659888-10.21563720703125-2.704528808599207-20.4029541015625-1.63983154296875-30.7353515625.089721679689319-.8707275390625.016235351558862-1.757080078125.08935546875-2.63482666015625.961791992189319-11.54083251953125.586059570308862-23.0322265625-2.649658203130457-34.1910400390625-4.055786132810681-13.98687744140625-12.746948242180224-24.1453857421875-26.356140136709655-29.78131103515625-7.546813964851026-3.1253662109375-15.480590820319776-4.462158203125-23.609191894540345-4.56597900390625-4.073974609369543-.05206298828125-8.152893066400793-.1478271484375-12.228454589840112-.14776611328125-3.199890136720569,0-6.397888183590112.05902099609375-9.588134765619543.24462890625-2.460144042970569.14312744140625-4.908142089851026.26629638671875-7.349487304691138.26629638671875-2.64697265625,0-5.286193847659888-.144775390625-7.923645019529431-.56597900390625-8.710144042970569-1.390869140625-17.472473144529431-1.88983154296875-26.251220703130457-1.88983154296875h0Z"/>
        <path class="cls-5" d="M215.418762207029431,206.144383207280043c6.57568359375,0,13.25567626953125,1.05926513671875,19.000732421880457,2.0521240234375,5.113952636720569.88372802734375,10.489562988279431,1.29534912109375,16.917297363279431,1.29534912109375,4.036071777340112,0,8.004028320310681-.16802978515625,11.009948730470569-.3143310546875,3.233703613279431-.157470703125,6.681396484369543-.31121826171875,10.153381347650793-.31121826171875,4.91424560546875,0,8.987365722659888.30816650390625,12.818176269529431.96990966796875,10.220581054689319,1.76544189453125,14.563781738290345,6.50469970703125,15.49072265625,16.9033203125.747924804689319,8.3907470703125.770385742189319,17.2763671875.066711425790345,26.4100341796875-.737182617191138,9.568603515625.677429199209655,19.0355224609375,2.04541015625,28.19073486328125.161193847648974,1.07861328125.322448730459655,2.157470703125.480346679680224,3.23681640625.869689941409888,5.9449462890625,1.502197265628638,12.29949951171875.252380371099207,18.48895263671875-1.18896484375,5.8883056640625-7.102111816409888,10.50079345703125-13.461853027349207,10.50079345703125-1.7783203125,0-3.471923828121362-.3604736328125-5.033630371090112-1.07147216796875-3.461791992191138-1.575927734375-4.482299804691138-4.691162109375-4.94952392578125-8.8837890625-.599853515628638-5.3819580078125-.29364013671875-10.88330078125.002502441400793-16.20343017578125.169311523439319-3.041748046875.344360351569776-6.18707275390625.351257324220569-9.29583740234375.01611328125-7.27154541015625-.326538085930224-15.74212646484375-4.623413085930224-24.25189208984375l-.654235839851026-1.2957763671875-.977600097648974,1.07305908203125c-.678405761720569.74462890625-1.347351074220569,1.49871826171875-2.016235351569776,2.2529296875-1.41534423828125,1.595703125-2.87890625,3.24578857421875-4.403869628900793,4.76007080078125-9.105163574220569,9.04144287109375-17.378173828130457,17.17877197265625-25.291748046880457,24.876953125-8.338623046869543,8.11163330078125-16.837463378898974,16.3387451171875-25.056518554689319,24.29498291015625-5.708618164060681,5.52606201171875-11.417175292959655,11.0521240234375-17.119445800779431,16.58465576171875-1.469970703121362,1.42626953125-2.817993164060681,2.98455810546875-4.12158203125,4.4915771484375-1.76544189453125,2.0408935546875-3.591064453121362,4.15130615234375-5.693054199220569,5.88568115234375-2.562438964840112,2.11431884765625-4.751770019529431,3.09906005859375-6.889892578119543,3.09906005859375-2.087097167970569,0-4.209655761720569-.9337158203125-6.679931640630457-2.9383544921875-.696105957029431-.56488037109375-1.428833007810681-1.17742919921875-2.070861816400793-1.82891845703125-5.559143066409888-5.64044189453125-5.597778320308862-10.6097412109375-.12518310546875-16.112548828125,1.767883300779431-1.77764892578125,3.729248046869543-3.45147705078125,5.6259765625-5.07025146484375,1.931091308590112-1.6480712890625,3.92791748046875-3.35223388671875,5.756469726558862-5.1920166015625,14.894409179691138-14.9862060546875,29.863647460941138-29.35107421875,45.16632080078125-43.97198486328125,6.083435058599207-5.8123779296875,12.290649414069776-11.70037841796875,18.293518066409888-17.39453125,3.229064941409888-3.06298828125,6.458068847659888-6.12591552734375,9.68408203125-9.19219970703125,1.284057617189319-1.220458984375,1.991333007808862-1.89276123046875,1.777465820308862-2.82769775390625-.215270996090112-.9410400390625-1.165893554689319-1.24578857421875-2.891540527340112-1.79888916015625-9.333801269529431-2.99169921875-18.85302734375-3.3753662109375-26.103271484378638-3.3753662109375-1.340270996090112,0-2.753845214840112.01458740234375-4.321655273430224.04461669921875-1.684814453130457.03228759765625-3.394836425790345.0877685546875-5.048583984380457.14141845703125-2.568786621090112.0833740234375-5.225036621090112.16961669921875-7.828063964840112.16961669921875-3.746643066409888,0-6.832641601569776-.1778564453125-9.711730957029431-.559814453125-1.794494628909888-.23797607421875-3.315979003909888-.71148681640625-4.651489257819776-1.44744873046875-2.199584960930224-1.21221923828125-3.27734375-2.9039306640625-3.391784667970569-5.3238525390625-.248779296869543-5.2596435546875.984069824220569-9.38140869140625,3.664184570319776-12.25067138671875,2.857299804680224-3.058837890625,7.32421875-4.6728515625,13.276794433590112-4.797119140625.427734375-.0089111328125.855895996090112-.01324462890625,1.283020019529431-.01324462890625M215.418762207029431,205.144383207280043c-.43408203125,0-.869262695308862.00439453125-1.30389404296875.01348876953125-12.201538085930224.25469970703125-18.45977783203125,6.66070556640625-17.919006347650793,18.09478759765625.133972167970569,2.83258056640625,1.48828125,4.81884765625,3.908020019529431,6.15240478515625,1.55792236328125.85858154296875,3.252563476560681,1.33087158203125,5.002685546871362,1.56298828125,3.278198242189319.43487548828125,6.559509277349207.5684814453125,9.843200683599207.5684814453125,4.296936035150793,0,8.597412109369543-.22894287109375,12.895812988279431-.31121826171875,1.435424804691138-.0274658203125,2.869812011720569-.04443359375,4.302490234371362-.04443359375,8.719787597659888,0,17.37420654296875.62762451171875,25.79803466796875,3.32763671875,2.840026855470569.91033935546875,2.838623046880457.94561767578125.730346679691138,2.94952392578125-9.325561523441138,8.86383056640625-18.677001953130457,17.70050048828125-27.979431152340112,26.5885009765625-15.198974609380457,14.52178955078125-30.363830566409888,29.0777587890625-45.184814453130457,43.99005126953125-3.595703125,3.61785888671875-7.785278320310681,6.64532470703125-11.382202148439319,10.2620849609375-5.928405761720569,5.96112060546875-5.774658203121362,11.5367431640625.122009277349207,17.5196533203125.670959472650793.6807861328125,1.409545898430224,1.3001708984375,2.152954101560681,1.9034423828125,2.601440429689319,2.111083984375,4.95654296875,3.161865234375,7.31005859375,3.161865234375,2.421752929689319,0,4.841796875-1.11273193359375,7.526306152340112-3.32769775390625,3.726318359378638-3.0745849609375,6.436889648439319-7.09552001953125,9.874572753909888-10.430908203125,14.052124023439319-13.6339111328125,28.142639160159888-27.22833251953125,42.176879882808862-40.88055419921875,8.478698730470569-8.2479248046875,16.905700683601026-16.54949951171875,25.29913330078125-24.8841552734375,2.258117675779431-2.24237060546875,4.308715820319776-4.6937255859375,6.454650878909888-7.04913330078125,4.039672851558862,8.00042724609375,4.533630371090112,15.8782958984375,4.516052246090112,23.7989501953125-.018981933590112,8.53741455078125-1.30078125,17.059814453125-.347595214840112,25.61224365234375.447998046869543,4.02020263671875,1.432250976558862,7.81817626953125,5.529052734369543,9.68316650390625,1.743408203130457.793701171875,3.597412109380457,1.16131591796875,5.447937011720569,1.16131591796875,6.57147216796875,0,13.09619140625-4.637451171875,14.44207763671875-11.3028564453125,1.26708984375-6.275146484375.672973632810681-12.5692138671875-.2431640625-18.8316650390625-1.513732910148974-10.34771728515625-3.331604003898974-20.64776611328125-2.518188476558862-31.2059326171875.681579589840112-8.846435546875.72235107421875-17.7127685546875-.06768798828125-26.57568359375-.965942382808862-10.8360595703125-5.556274414058862-15.9412841796875-16.316528320308862-17.7999267578125-4.314514160159888-.7452392578125-8.648132324220569-.9844970703125-12.988403320319776-.9844970703125-3.399291992180224,0-6.80303955078125.1468505859375-10.202026367180224.3123779296875-3.660827636720569.17828369140625-7.31298828125.31317138671875-10.961303710941138.31317138671875-5.59033203125,0-11.170166015628638-.3170166015625-16.747009277349207-1.28076171875-6.333251953119543-1.094482421875-12.720275878900793-2.06671142578125-19.171020507810681-2.06671142578125h0Z"/>
      </g>
      <path class="cls-4" d="M279.731018066409888,279.730992093998793c-69.716349124799308.440577277868215-210.016399211830503,1.330699085334345-279.731261790910139,1.531175585188976.000365796760889.00025751762405-1.526855886279009.007093459693351-1.526855886279009.007093459693351l-.004272459531421-1.538330080038577c-.064510199968936-34.904889630965044-.304406964240115-104.981273296894869-.28523834509906-139.865683708852885C-1.816772460939319,139.865513578373793-1.997680664060681.000096097905043-1.997680664060681.000096097905043l-.002563476558862-2.00030517578125c47.593470546120443.061589064702275,165.706438735549455.208737527702397,211.798450492839038.271000175633162,17.377556547429776.057226272945627,52.544869843850392.067278084503414,69.932658321480631.190932783714743.000031272500564-.000140930978887,1.545502549759476.005901487229494,1.545502549759476.005901487229494l-.006897008619489,1.532470729203851c-.32493204417915,69.719190329347839-.970783137610852,210.042533743246167-1.538452148430224,279.73089599609375h0ZM279.731018066409888,279.730992093998793c-.578886571640396-69.742892350994225-1.234218389459784-210.023048281360389-1.538501961969814-279.731249247375672.000049813530495.000353251281922,1.538379891650038,1.538683329406922,1.538379891650038,1.538683329406922-38.949249237099139.064971880679877-100.445714192099331.31659426697297-139.865443183960451.281565584286C139.865478515630457,1.820286527592543.000122070310681,1.997654691655043.000122070310681,1.997654691655043L1.997680664060681.000096097905043c.100229124518592,79.28099495925926-.354748989349901,201.347947925607514-.465833842910797,279.73068255085127-.000474750839203.00015241008623-1.531724750839203-1.53115862507002-1.531724750839203-1.53115862507002,69.708463273909729.186233777156303,210.024441764498988,1.073926720840973,279.730895996099207,1.5313720703125h0Z"/>
    </g>
  </g>
</svg>