<?xml version="1.0" encoding="UTF-8"?>
<svg id="Layer_1" xmlns="http://www.w3.org/2000/svg" viewBox="0 0 280 280">
  <defs>
    <style>
      .cls-1 {
        stroke: #665451;
        stroke-width: 50px;
      }

      .cls-1, .cls-2 {
        fill: none;
        stroke-linecap: round;
        stroke-linejoin: round;
      }

      .cls-3 {
        fill: #fff;
      }

      .cls-2 {
        stroke: #998675;
        stroke-width: 2px;
      }
    </style>
  </defs>
  <path d="M111.168396059754741,103.842227819870459c-.035344482904293.203000743272241-.141754425010731.739208503197005.046536867430405.822903923809463,14.714380755983257,6.540537644930737,23.148861066751124,20.670772876114825,24.16103793334878,38.568933218974962.791126746305963,13.989366704765416-2.798008152916736,25.337071121775807-10.767404697669008,34.043113251029354-7.969396544751362,8.706042129251728-18.915140509117009,13.452724289865728-32.835281883798416,14.239936204907281-13.441414091990737.760138926998479-24.4132064846508-2.88399978916641-32.917437464215254-10.934255880860292-8.504120702627006-8.048306082395356-13.144025041501664-18.93064182510534-13.919713016622154-32.647007228135408-.779492529449271-13.783640723810095,1.529006063681663-24.971869656310446,6.924355359336914-33.567556672976934,5.396379438771874-8.594767150485495,12.469360819467511-14.584730465084249,21.22192429450115-17.969080354552716,8.750613465735114-3.384239612531928,19.711101598378264-5.448764635172665,32.877564379333307-6.193354514049133l36.830559278344481-2.082842000030723c2.553337150518018-.144396337213948,4.7402822430995,1.808436036306375,4.884678580313448,4.361773186824394l.262404244388563,4.640051947149914c.144396337213948,2.553337150518928-1.808436036306375,4.74028224310041-4.361773186825303,4.884678580314358,0,0-31.689086255943039-2.293213795793235-32.407450687866913,1.832706337595482ZM101.272251857496485,108.158730632162587c-2.041507401060699-2.097486487837159-4.966273809329323-3.119505957432011-7.867179138997926-2.729697923207823-20.892890028825605,2.807474035125779-30.632439103414981,16.682860391110808-29.221925484361236,41.624745305425677.67869940899709,12.001332225321676,3.431539565531239,21.166675197244331,8.262530765137853,27.497758371186137,4.829041190308089,6.331193450878345,11.186968088599315,9.27378264039362,19.073780694875495,8.827767568545823,17.898160342860137-1.012176866595837,26.151200056945527-13.826236487349888,24.758898588379452-38.446078880855566-.854879975780023-15.1167047828676-5.856888667446583-27.374401885291263-15.006105425033638-36.774494441094248Z"/>
  <path class="cls-1" d="M111.168396059754741,103.842227819870459c-.035344482904293.203000743272241-.141754425010731.739208503197005.046536867430405.822903923809463,14.714380755983257,6.540537644930737,23.148861066751124,20.670772876114825,24.16103793334878,38.568933218974962.791126746305963,13.989366704765416-2.798008152916736,25.337071121775807-10.767404697669008,34.043113251029354-7.969396544751362,8.706042129251728-18.915140509117009,13.452724289865728-32.835281883798416,14.239936204907281-13.441414091990737.760138926998479-24.4132064846508-2.88399978916641-32.917437464215254-10.934255880860292-8.504120702627006-8.048306082395356-13.144025041501664-18.93064182510534-13.919713016622154-32.647007228135408-.779492529449271-13.783640723810095,1.529006063681663-24.971869656310446,6.924355359336914-33.567556672976934,5.396379438771874-8.594767150485495,12.469360819467511-14.584730465084249,21.22192429450115-17.969080354552716,8.750613465735114-3.384239612531928,19.711101598378264-5.448764635172665,32.877564379333307-6.193354514049133l36.830559278344481-2.082842000030723c2.553337150518018-.144396337213948,4.7402822430995,1.808436036306375,4.884678580313448,4.361773186824394l.262404244388563,4.640051947149914c.144396337213948,2.553337150518928-1.808436036306375,4.74028224310041-4.361773186825303,4.884678580314358,0,0-31.689086255943039-2.293213795793235-32.407450687866913,1.832706337595482ZM101.272251857496485,108.158730632162587c-2.041507401060699-2.097486487837159-4.966273809329323-3.119505957432011-7.867179138997926-2.729697923207823-20.892890028825605,2.807474035125779-30.632439103414981,16.682860391110808-29.221925484361236,41.624745305425677.67869940899709,12.001332225321676,3.431539565531239,21.166675197244331,8.262530765137853,27.497758371186137,4.829041190308089,6.331193450878345,11.186968088599315,9.27378264039362,19.073780694875495,8.827767568545823,17.898160342860137-1.012176866595837,26.151200056945527-13.826236487349888,24.758898588379452-38.446078880855566-.854879975780023-15.1167047828676-5.856888667446583-27.374401885291263-15.006105425033638-36.774494441094248Z"/>
  <path class="cls-2" d="M111.168396059754741,103.842227819870459c-.035344482904293.203000743272241-.141754425010731.739208503197005.046536867430405.822903923809463,14.714380755983257,6.540537644930737,23.148861066751124,20.670772876114825,24.16103793334878,38.568933218974962.791126746305963,13.989366704765416-2.798008152916736,25.337071121775807-10.767404697669008,34.043113251029354-7.969396544751362,8.706042129251728-18.915140509117009,13.452724289865728-32.835281883798416,14.239936204907281-13.441414091990737.760138926998479-24.4132064846508-2.88399978916641-32.917437464215254-10.934255880860292-8.504120702627006-8.048306082395356-13.144025041501664-18.93064182510534-13.919713016622154-32.647007228135408-.779492529449271-13.783640723810095,1.529006063681663-24.971869656310446,6.924355359336914-33.567556672976934,5.396379438771874-8.594767150485495,12.469360819467511-14.584730465084249,21.22192429450115-17.969080354552716,8.750613465735114-3.384239612531928,19.711101598378264-5.448764635172665,32.877564379333307-6.193354514049133l36.830559278344481-2.082842000030723c2.553337150518018-.144396337213948,4.7402822430995,1.808436036306375,4.884678580313448,4.361773186824394l.262404244388563,4.640051947149914c.144396337213948,2.553337150518928-1.808436036306375,4.74028224310041-4.361773186825303,4.884678580314358,0,0-31.689086255943039-2.293213795793235-32.407450687866913,1.832706337595482ZM101.272251857496485,108.158730632162587c-2.041507401060699-2.097486487837159-4.966273809329323-3.119505957432011-7.867179138997926-2.729697923207823-20.892890028825605,2.807474035125779-30.632439103414981,16.682860391110808-29.221925484361236,41.624745305425677.67869940899709,12.001332225321676,3.431539565531239,21.166675197244331,8.262530765137853,27.497758371186137,4.829041190308089,6.331193450878345,11.186968088599315,9.27378264039362,19.073780694875495,8.827767568545823,17.898160342860137-1.012176866595837,26.151200056945527-13.826236487349888,24.758898588379452-38.446078880855566-.854879975780023-15.1167047828676-5.856888667446583-27.374401885291263-15.006105425033638-36.774494441094248Z"/>
  <path class="cls-3" d="M111.168396059754741,103.842227819870459c-.035344482904293.203000743272241-.141754425010731.739208503197005.046536867430405.822903923809463,14.714380755983257,6.540537644930737,23.148861066751124,20.670772876114825,24.16103793334878,38.568933218974962.791126746305963,13.989366704765416-2.798008152916736,25.337071121775807-10.767404697669008,34.043113251029354-7.969396544751362,8.706042129251728-18.915140509117009,13.452724289865728-32.835281883798416,14.239936204907281-13.441414091990737.760138926998479-24.4132064846508-2.88399978916641-32.917437464215254-10.934255880860292-8.504120702627006-8.048306082395356-13.144025041501664-18.93064182510534-13.919713016622154-32.647007228135408-.779492529449271-13.783640723810095,1.529006063681663-24.971869656310446,6.924355359336914-33.567556672976934,5.396379438771874-8.594767150485495,12.469360819467511-14.584730465084249,21.22192429450115-17.969080354552716,8.750613465735114-3.384239612531928,19.711101598378264-5.448764635172665,32.877564379333307-6.193354514049133l36.830559278344481-2.082842000030723c2.553337150518018-.144396337213948,4.7402822430995,1.808436036306375,4.884678580313448,4.361773186824394l.262404244388563,4.640051947149914c.144396337213948,2.553337150518928-1.808436036306375,4.74028224310041-4.361773186825303,4.884678580314358,0,0-31.689086255943039-2.293213795793235-32.407450687866913,1.832706337595482ZM101.272251857496485,108.158730632162587c-2.041507401060699-2.097486487837159-4.966273809329323-3.119505957432011-7.867179138997926-2.729697923207823-20.892890028825605,2.807474035125779-30.632439103414981,16.682860391110808-29.221925484361236,41.624745305425677.67869940899709,12.001332225321676,3.431539565531239,21.166675197244331,8.262530765137853,27.497758371186137,4.829041190308089,6.331193450878345,11.186968088599315,9.27378264039362,19.073780694875495,8.827767568545823,17.898160342860137-1.012176866595837,26.151200056945527-13.826236487349888,24.758898588379452-38.446078880855566-.854879975780023-15.1167047828676-5.856888667446583-27.374401885291263-15.006105425033638-36.774494441094248Z"/>
</svg>