<?xml version="1.0" encoding="UTF-8"?>
<svg id="Content" xmlns="http://www.w3.org/2000/svg" viewBox="0 0 280 280">
  <defs>
    <style>
      .cls-1, .cls-2 {
        stroke: #665451;
        stroke-width: 50px;
      }

      .cls-1, .cls-2, .cls-3, .cls-4 {
        fill: none;
        stroke-linecap: round;
        stroke-linejoin: round;
      }

      .cls-5, .cls-2, .cls-4, .cls-6 {
        font-family: Hey-Comic, 'Hey Comic';
        font-size: 173.089462280273438px;
      }

      .cls-7, .cls-6 {
        fill: #fff;
      }

      .cls-3, .cls-4 {
        stroke: #998675;
        stroke-width: 2px;
      }
    </style>
  </defs>
  <g>
    <text class="cls-5" transform="translate(44.07936781400349 175.261110169289168) rotate(-3.943352669934389)"><tspan x="0" y="0">x</tspan></text>
    <path d="M41.71435546875,57.257831573486328c3.710547061839861-2.268959280807394,7.533080349950069-4.124702080861425,11.448845389269991-5.856148578956891,3.939704415419328-.16152491347475,7.866462227919328-.511752269431781,11.80030011854069-.758364818259906,11.763256814159831-.808666631020969,35.426225368439191-2.443667640225613,47.185975494869126-3.252700239379919-.000062408929807-.000000566282324,11.796446380139969-.813175767700159,11.796446380139969-.813175767700159,4.016279985660731,1.177878781380969,8.251215602020238,2.554422426391284,12.140272195270882,4.174967920598647-3.630365940420234,2.139237657755075-7.636897064860023,4.083175153959019-11.452648442231293,5.801370099160522-.000001682739821-.000012030989637-11.796388401489821.813163170426378-11.796388401489821.813163170426378-11.758901411849365.80835818815558-35.429369798669541,2.443876567887855-47.185965947439399,3.25269958708941-3.930489130680144.295506742256293-7.868111200990825.487397458809028-11.792671747869463.867985990303168-4.116263143100696-1.177998605077846-8.156349971830423-2.491341725455641-12.144165039060681-4.22979736328125h0Z"/>
  </g>
  <g>
    <g>
      <text class="cls-2" transform="translate(44.07936781400349 175.261110169289168) rotate(-3.943352669934389)"><tspan x="0" y="0">x</tspan></text>
      <text class="cls-2" transform="translate(44.07936781400349 175.261110169289168) rotate(-3.943352669934389)"><tspan x="0" y="0">x</tspan></text>
      <text class="cls-2" transform="translate(44.07936781400349 175.261110169289168) rotate(-3.943352669934389)"><tspan x="0" y="0">x</tspan></text>
    </g>
    <g>
      <line class="cls-1" x1="41.7144107398899" y1="57.257833047040549" x2="136.086200142120106" y2="50.752429389678582"/>
      <path class="cls-1" d="M41.71435546875,57.257831573486328c3.710547061839861-2.268959280807394,7.533080349950069-4.124702080861425,11.448845389269991-5.856148578956891,3.939704415419328-.16152491347475,7.866462227919328-.511752269431781,11.80030011854069-.758364818259906,11.763256814159831-.808666631020969,35.426225368439191-2.443667640225613,47.185975494869126-3.252700239379919-.000062408929807-.000000566282324,11.796446380139969-.813175767700159,11.796446380139969-.813175767700159,4.016279985660731,1.177878781380969,8.251215602020238,2.554422426391284,12.140272195270882,4.174967920598647-3.630365940420234,2.139237657755075-7.636897064860023,4.083175153959019-11.452648442231293,5.801370099160522-.000001682739821-.000012030989637-11.796388401489821.813163170426378-11.796388401489821.813163170426378-11.758901411849365.80835818815558-35.429369798669541,2.443876567887855-47.185965947439399,3.25269958708941-3.930489130680144.295506742256293-7.868111200990825.487397458809028-11.792671747869463.867985990303168-4.116263143100696-1.177998605077846-8.156349971830423-2.491341725455641-12.144165039060681-4.22979736328125h0Z"/>
    </g>
  </g>
  <g>
    <g>
      <text class="cls-4" transform="translate(44.07936781400349 175.261110169289168) rotate(-3.943352669934389)"><tspan x="0" y="0">x</tspan></text>
      <text class="cls-4" transform="translate(44.07936781400349 175.261110169289168) rotate(-3.943352669934389)"><tspan x="0" y="0">x</tspan></text>
      <text class="cls-4" transform="translate(44.07936781400349 175.261110169289168) rotate(-3.943352669934389)"><tspan x="0" y="0">x</tspan></text>
    </g>
    <g>
      <line class="cls-3" x1="41.7144107398899" y1="57.257833047040549" x2="136.086200142120106" y2="50.752429389678582"/>
      <path class="cls-3" d="M41.71435546875,57.257831573486328c3.710547061839861-2.268959280807394,7.533080349950069-4.124702080861425,11.448845389269991-5.856148578956891,3.939704415419328-.16152491347475,7.866462227919328-.511752269431781,11.80030011854069-.758364818259906,11.763256814159831-.808666631020969,35.426225368439191-2.443667640225613,47.185975494869126-3.252700239379919-.000062408929807-.000000566282324,11.796446380139969-.813175767700159,11.796446380139969-.813175767700159,4.016279985660731,1.177878781380969,8.251215602020238,2.554422426391284,12.140272195270882,4.174967920598647-3.630365940420234,2.139237657755075-7.636897064860023,4.083175153959019-11.452648442231293,5.801370099160522-.000001682739821-.000012030989637-11.796388401489821.813163170426378-11.796388401489821.813163170426378-11.758901411849365.80835818815558-35.429369798669541,2.443876567887855-47.185965947439399,3.25269958708941-3.930489130680144.295506742256293-7.868111200990825.487397458809028-11.792671747869463.867985990303168-4.116263143100696-1.177998605077846-8.156349971830423-2.491341725455641-12.144165039060681-4.22979736328125h0Z"/>
    </g>
  </g>
  <g>
    <g>
      <text class="cls-6" transform="translate(44.07936781400349 175.261110169289168) rotate(-3.943352669934389)"><tspan x="0" y="0">x</tspan></text>
      <text class="cls-6" transform="translate(44.07936781400349 175.261110169289168) rotate(-3.943352669934389)"><tspan x="0" y="0">x</tspan></text>
      <text class="cls-6" transform="translate(44.07936781400349 175.261110169289168) rotate(-3.943352669934389)"><tspan x="0" y="0">x</tspan></text>
    </g>
    <g>
      <line class="cls-7" x1="41.7144107398899" y1="57.257833047040549" x2="136.086200142120106" y2="50.752429389678582"/>
      <path class="cls-7" d="M41.71435546875,57.257831573486328c3.710547061839861-2.268959280807394,7.533080349950069-4.124702080861425,11.448845389269991-5.856148578956891,3.939704415419328-.16152491347475,7.866462227919328-.511752269431781,11.80030011854069-.758364818259906,11.763256814159831-.808666631020969,35.426225368439191-2.443667640225613,47.185975494869126-3.252700239379919-.000062408929807-.000000566282324,11.796446380139969-.813175767700159,11.796446380139969-.813175767700159,4.016279985660731,1.177878781380969,8.251215602020238,2.554422426391284,12.140272195270882,4.174967920598647-3.630365940420234,2.139237657755075-7.636897064860023,4.083175153959019-11.452648442231293,5.801370099160522-.000001682739821-.000012030989637-11.796388401489821.813163170426378-11.796388401489821.813163170426378-11.758901411849365.80835818815558-35.429369798669541,2.443876567887855-47.185965947439399,3.25269958708941-3.930489130680144.295506742256293-7.868111200990825.487397458809028-11.792671747869463.867985990303168-4.116263143100696-1.177998605077846-8.156349971830423-2.491341725455641-12.144165039060681-4.22979736328125h0Z"/>
    </g>
  </g>
</svg>