<?xml version="1.0" encoding="UTF-8"?>
<svg id="Content" xmlns="http://www.w3.org/2000/svg" viewBox="0 0 280 280">
  <defs>
    <style>
      .cls-1 {
        stroke: #665451;
        stroke-width: 50px;
      }

      .cls-1, .cls-2 {
        fill: none;
        stroke-linecap: round;
        stroke-linejoin: round;
      }

      .cls-3 {
        fill: #fff;
      }

      .cls-2 {
        stroke: #998675;
        stroke-width: 2px;
      }
    </style>
  </defs>
  <g>
    <path d="M146.01318359375,191.83349609375c.8662109375,1.00537109375,1.40966796875,2.1630859375,1.63427734375,3.4736328125.203125,1.0517578125.12744140625,2.35205078125-.2294921875,3.90234375-.35986328125,1.5537109375-1.275390625,3.17578125-2.7529296875,4.873046875-1.47705078125,1.6962890625-3.08984375,3.36962890625-4.83544921875,5.015625-1.748046875,1.650390625-3.5791015625,3.005859375-5.49853515625,4.0654296875-1.919921875,1.060546875-3.8759765625,1.59375-5.8681640625,1.6005859375-1.99267578125.00390625-4.0400390625-.7861328125-6.1416015625-2.3662109375-1.1142578125-.720703125-3.0625-2.509765625-5.8505859375-5.3759765625-2.7880859375-2.8623046875-6.0615234375-6.48779296875-9.8173828125-10.8818359375-1.87451171875-2.1279296875-3.8603515625-4.41650390625-5.953125-6.86279296875-2.09619140625-2.4462890625-4.29345703125-4.916015625-6.58935546875-7.41796875-3.666015625,4.6376953125-7.11865234375,9.02880859375-10.3515625,13.1689453125-3.23583984375,4.1435546875-6.07568359375,7.76171875-8.5185546875,10.8505859375-2.9365234375,3.658203125-5.62744140625,7.0322265625-8.07080078125,10.1220703125-.6171875.70849609375-1.3740234375,1.29052734375-2.27001953125,1.7509765625-.77587890625.3173828125-1.6953125.48046875-2.75634765625.48828125-1.064453125.00439453125-2.3583984375-.4697265625-3.884765625-1.42578125-1.5205078125-.82373046875-3.2880859375-1.89794921875-5.3037109375-3.2216796875-2.0185546875-1.322265625-3.87158203125-2.6875-5.5634765625-4.099609375-1.69140625-1.41015625-2.953125-2.81787109375-3.7783203125-4.2236328125-.82861328125-1.404296875-.8857421875-2.7294921875-.17431640625-3.9736328125l30.900390625-43.181640625c-3.767578125-4.5234375-7.2529296875-8.83203125-10.45654296875-12.9296875-3.2060546875-4.09521484375-6.04638671875-7.7197265625-8.52099609375-10.8720703125-2.77783203125-3.65966796875-5.3388671875-7.0703125-7.68017578125-10.2314453125-.7177734375-.74755859375-1.173828125-1.57861328125-1.36767578125-2.49560546875-.18798828125-.78466796875-.1142578125-1.65185546875.21875-2.60595703125.3330078125-.95068359375,1.1884765625-2.00634765625,2.57177734375-3.166015625,1.38037109375-1.15771484375,3.01611328125-2.5,4.90380859375-4.02490234375s3.75244140625-2.880859375,5.59765625-4.072265625c1.84228515625-1.189453125,3.57958984375-2.0068359375,5.2119140625-2.45166015625,1.62890625-.443359375,2.94287109375-.1689453125,3.94287109375.8232421875,3.90673828125,4.6474609375,7.8076171875,9.1953125,11.701171875,13.6416015625,3.8935546875,4.44921875,7.78955078125,8.9287109375,11.6875,13.44287109375l19.84130859375-27.2744140625c.86865234375-.8564453125,1.9482421875-1.59423828125,3.2353515625-2.21533203125,1.029296875-.47021484375,2.3408203125-.7255859375,3.93212890625-.76953125,1.591796875-.041015625,3.3515625.466796875,5.28662109375,1.52880859375,2.06591796875,1.05322265625,4.14013671875,2.23974609375,6.2236328125,3.556640625,2.083984375,1.3193359375,3.8427734375,2.75830078125,5.27978515625,4.31884765625,1.43408203125,1.56396484375,2.38671875,3.32275390625,2.85498046875,5.283203125.46533203125,1.9609375.115234375,4.11181640625-1.0498046875,6.44970703125-.4755859375.830078125-1.4052734375,2.2890625-2.787109375,4.37646484375-1.384765625,2.0888671875-3.17236328125,4.57177734375-5.36572265625,7.4443359375-2.193359375,2.8759765625-4.6611328125,6.1005859375-7.40380859375,9.67724609375-2.7421875,3.57666015625-5.640625,7.33251953125-8.68896484375,11.26025390625,5.45166015625,5.87060546875,10.8701171875,11.7060546875,16.25244140625,17.51220703125,5.38232421875,5.806640625,10.7978515625,11.6455078125,16.2529296875,17.5126953125Z"/>
    <path d="M36.357780790897777,83.397611059275732c4.301821092294631-2.318331361524542,8.709167499772775-4.212391484021282,13.201653516279293-5.976964246774514,9.007623642602994-.487308936546469,31.318506532400534-2.140578740379169,40.651394427917694-2.747123077118886,8.939989668321687-.615765795216248,31.994670943881829-2.206016580701544,40.647437061275923-2.802064754206185,4.586479517683074,1.135205620880697,9.41730979994918,2.462837710316307,13.893083818838022,4.054145999661159-4.216094486469046,2.190828859378598-8.818686838228132,4.167898739239718-13.205580561808347,5.922199462476783-8.548484216890756.58927884080731-31.791098341998804,2.191486718677879-40.647465594696769,2.801973650417494-9.425849908629061.668102300151077-31.506649440550063,2.106504751753164-40.643753936235044,2.856677116310493-4.69143204329248-1.131613445135372-9.317215258069155-2.402678146419021-13.896768731570774-4.108844150766345h0Z"/>
  </g>
  <g>
    <g>
      <path class="cls-1" d="M146.01318359375,191.83349609375c.8662109375,1.00537109375,1.40966796875,2.1630859375,1.63427734375,3.4736328125.203125,1.0517578125.12744140625,2.35205078125-.2294921875,3.90234375-.35986328125,1.5537109375-1.275390625,3.17578125-2.7529296875,4.873046875-1.47705078125,1.6962890625-3.08984375,3.36962890625-4.83544921875,5.015625-1.748046875,1.650390625-3.5791015625,3.005859375-5.49853515625,4.0654296875-1.919921875,1.060546875-3.8759765625,1.59375-5.8681640625,1.6005859375-1.99267578125.00390625-4.0400390625-.7861328125-6.1416015625-2.3662109375-1.1142578125-.720703125-3.0625-2.509765625-5.8505859375-5.3759765625-2.7880859375-2.8623046875-6.0615234375-6.48779296875-9.8173828125-10.8818359375-1.87451171875-2.1279296875-3.8603515625-4.41650390625-5.953125-6.86279296875-2.09619140625-2.4462890625-4.29345703125-4.916015625-6.58935546875-7.41796875-3.666015625,4.6376953125-7.11865234375,9.02880859375-10.3515625,13.1689453125-3.23583984375,4.1435546875-6.07568359375,7.76171875-8.5185546875,10.8505859375-2.9365234375,3.658203125-5.62744140625,7.0322265625-8.07080078125,10.1220703125-.6171875.70849609375-1.3740234375,1.29052734375-2.27001953125,1.7509765625-.77587890625.3173828125-1.6953125.48046875-2.75634765625.48828125-1.064453125.00439453125-2.3583984375-.4697265625-3.884765625-1.42578125-1.5205078125-.82373046875-3.2880859375-1.89794921875-5.3037109375-3.2216796875-2.0185546875-1.322265625-3.87158203125-2.6875-5.5634765625-4.099609375-1.69140625-1.41015625-2.953125-2.81787109375-3.7783203125-4.2236328125-.82861328125-1.404296875-.8857421875-2.7294921875-.17431640625-3.9736328125l30.900390625-43.181640625c-3.767578125-4.5234375-7.2529296875-8.83203125-10.45654296875-12.9296875-3.2060546875-4.09521484375-6.04638671875-7.7197265625-8.52099609375-10.8720703125-2.77783203125-3.65966796875-5.3388671875-7.0703125-7.68017578125-10.2314453125-.7177734375-.74755859375-1.173828125-1.57861328125-1.36767578125-2.49560546875-.18798828125-.78466796875-.1142578125-1.65185546875.21875-2.60595703125.3330078125-.95068359375,1.1884765625-2.00634765625,2.57177734375-3.166015625,1.38037109375-1.15771484375,3.01611328125-2.5,4.90380859375-4.02490234375s3.75244140625-2.880859375,5.59765625-4.072265625c1.84228515625-1.189453125,3.57958984375-2.0068359375,5.2119140625-2.45166015625,1.62890625-.443359375,2.94287109375-.1689453125,3.94287109375.8232421875,3.90673828125,4.6474609375,7.8076171875,9.1953125,11.701171875,13.6416015625,3.8935546875,4.44921875,7.78955078125,8.9287109375,11.6875,13.44287109375l19.84130859375-27.2744140625c.86865234375-.8564453125,1.9482421875-1.59423828125,3.2353515625-2.21533203125,1.029296875-.47021484375,2.3408203125-.7255859375,3.93212890625-.76953125,1.591796875-.041015625,3.3515625.466796875,5.28662109375,1.52880859375,2.06591796875,1.05322265625,4.14013671875,2.23974609375,6.2236328125,3.556640625,2.083984375,1.3193359375,3.8427734375,2.75830078125,5.27978515625,4.31884765625,1.43408203125,1.56396484375,2.38671875,3.32275390625,2.85498046875,5.283203125.46533203125,1.9609375.115234375,4.11181640625-1.0498046875,6.44970703125-.4755859375.830078125-1.4052734375,2.2890625-2.787109375,4.37646484375-1.384765625,2.0888671875-3.17236328125,4.57177734375-5.36572265625,7.4443359375-2.193359375,2.8759765625-4.6611328125,6.1005859375-7.40380859375,9.67724609375-2.7421875,3.57666015625-5.640625,7.33251953125-8.68896484375,11.26025390625,5.45166015625,5.87060546875,10.8701171875,11.7060546875,16.25244140625,17.51220703125,5.38232421875,5.806640625,10.7978515625,11.6455078125,16.2529296875,17.5126953125Z"/>
      <path class="cls-1" d="M146.01318359375,191.83349609375c.8662109375,1.00537109375,1.40966796875,2.1630859375,1.63427734375,3.4736328125.203125,1.0517578125.12744140625,2.35205078125-.2294921875,3.90234375-.35986328125,1.5537109375-1.275390625,3.17578125-2.7529296875,4.873046875-1.47705078125,1.6962890625-3.08984375,3.36962890625-4.83544921875,5.015625-1.748046875,1.650390625-3.5791015625,3.005859375-5.49853515625,4.0654296875-1.919921875,1.060546875-3.8759765625,1.59375-5.8681640625,1.6005859375-1.99267578125.00390625-4.0400390625-.7861328125-6.1416015625-2.3662109375-1.1142578125-.720703125-3.0625-2.509765625-5.8505859375-5.3759765625-2.7880859375-2.8623046875-6.0615234375-6.48779296875-9.8173828125-10.8818359375-1.87451171875-2.1279296875-3.8603515625-4.41650390625-5.953125-6.86279296875-2.09619140625-2.4462890625-4.29345703125-4.916015625-6.58935546875-7.41796875-3.666015625,4.6376953125-7.11865234375,9.02880859375-10.3515625,13.1689453125-3.23583984375,4.1435546875-6.07568359375,7.76171875-8.5185546875,10.8505859375-2.9365234375,3.658203125-5.62744140625,7.0322265625-8.07080078125,10.1220703125-.6171875.70849609375-1.3740234375,1.29052734375-2.27001953125,1.7509765625-.77587890625.3173828125-1.6953125.48046875-2.75634765625.48828125-1.064453125.00439453125-2.3583984375-.4697265625-3.884765625-1.42578125-1.5205078125-.82373046875-3.2880859375-1.89794921875-5.3037109375-3.2216796875-2.0185546875-1.322265625-3.87158203125-2.6875-5.5634765625-4.099609375-1.69140625-1.41015625-2.953125-2.81787109375-3.7783203125-4.2236328125-.82861328125-1.404296875-.8857421875-2.7294921875-.17431640625-3.9736328125l30.900390625-43.181640625c-3.767578125-4.5234375-7.2529296875-8.83203125-10.45654296875-12.9296875-3.2060546875-4.09521484375-6.04638671875-7.7197265625-8.52099609375-10.8720703125-2.77783203125-3.65966796875-5.3388671875-7.0703125-7.68017578125-10.2314453125-.7177734375-.74755859375-1.173828125-1.57861328125-1.36767578125-2.49560546875-.18798828125-.78466796875-.1142578125-1.65185546875.21875-2.60595703125.3330078125-.95068359375,1.1884765625-2.00634765625,2.57177734375-3.166015625,1.38037109375-1.15771484375,3.01611328125-2.5,4.90380859375-4.02490234375s3.75244140625-2.880859375,5.59765625-4.072265625c1.84228515625-1.189453125,3.57958984375-2.0068359375,5.2119140625-2.45166015625,1.62890625-.443359375,2.94287109375-.1689453125,3.94287109375.8232421875,3.90673828125,4.6474609375,7.8076171875,9.1953125,11.701171875,13.6416015625,3.8935546875,4.44921875,7.78955078125,8.9287109375,11.6875,13.44287109375l19.84130859375-27.2744140625c.86865234375-.8564453125,1.9482421875-1.59423828125,3.2353515625-2.21533203125,1.029296875-.47021484375,2.3408203125-.7255859375,3.93212890625-.76953125,1.591796875-.041015625,3.3515625.466796875,5.28662109375,1.52880859375,2.06591796875,1.05322265625,4.14013671875,2.23974609375,6.2236328125,3.556640625,2.083984375,1.3193359375,3.8427734375,2.75830078125,5.27978515625,4.31884765625,1.43408203125,1.56396484375,2.38671875,3.32275390625,2.85498046875,5.283203125.46533203125,1.9609375.115234375,4.11181640625-1.0498046875,6.44970703125-.4755859375.830078125-1.4052734375,2.2890625-2.787109375,4.37646484375-1.384765625,2.0888671875-3.17236328125,4.57177734375-5.36572265625,7.4443359375-2.193359375,2.8759765625-4.6611328125,6.1005859375-7.40380859375,9.67724609375-2.7421875,3.57666015625-5.640625,7.33251953125-8.68896484375,11.26025390625,5.45166015625,5.87060546875,10.8701171875,11.7060546875,16.25244140625,17.51220703125,5.38232421875,5.806640625,10.7978515625,11.6455078125,16.2529296875,17.5126953125Z"/>
      <path class="cls-1" d="M146.01318359375,191.83349609375c.8662109375,1.00537109375,1.40966796875,2.1630859375,1.63427734375,3.4736328125.203125,1.0517578125.12744140625,2.35205078125-.2294921875,3.90234375-.35986328125,1.5537109375-1.275390625,3.17578125-2.7529296875,4.873046875-1.47705078125,1.6962890625-3.08984375,3.36962890625-4.83544921875,5.015625-1.748046875,1.650390625-3.5791015625,3.005859375-5.49853515625,4.0654296875-1.919921875,1.060546875-3.8759765625,1.59375-5.8681640625,1.6005859375-1.99267578125.00390625-4.0400390625-.7861328125-6.1416015625-2.3662109375-1.1142578125-.720703125-3.0625-2.509765625-5.8505859375-5.3759765625-2.7880859375-2.8623046875-6.0615234375-6.48779296875-9.8173828125-10.8818359375-1.87451171875-2.1279296875-3.8603515625-4.41650390625-5.953125-6.86279296875-2.09619140625-2.4462890625-4.29345703125-4.916015625-6.58935546875-7.41796875-3.666015625,4.6376953125-7.11865234375,9.02880859375-10.3515625,13.1689453125-3.23583984375,4.1435546875-6.07568359375,7.76171875-8.5185546875,10.8505859375-2.9365234375,3.658203125-5.62744140625,7.0322265625-8.07080078125,10.1220703125-.6171875.70849609375-1.3740234375,1.29052734375-2.27001953125,1.7509765625-.77587890625.3173828125-1.6953125.48046875-2.75634765625.48828125-1.064453125.00439453125-2.3583984375-.4697265625-3.884765625-1.42578125-1.5205078125-.82373046875-3.2880859375-1.89794921875-5.3037109375-3.2216796875-2.0185546875-1.322265625-3.87158203125-2.6875-5.5634765625-4.099609375-1.69140625-1.41015625-2.953125-2.81787109375-3.7783203125-4.2236328125-.82861328125-1.404296875-.8857421875-2.7294921875-.17431640625-3.9736328125l30.900390625-43.181640625c-3.767578125-4.5234375-7.2529296875-8.83203125-10.45654296875-12.9296875-3.2060546875-4.09521484375-6.04638671875-7.7197265625-8.52099609375-10.8720703125-2.77783203125-3.65966796875-5.3388671875-7.0703125-7.68017578125-10.2314453125-.7177734375-.74755859375-1.173828125-1.57861328125-1.36767578125-2.49560546875-.18798828125-.78466796875-.1142578125-1.65185546875.21875-2.60595703125.3330078125-.95068359375,1.1884765625-2.00634765625,2.57177734375-3.166015625,1.38037109375-1.15771484375,3.01611328125-2.5,4.90380859375-4.02490234375s3.75244140625-2.880859375,5.59765625-4.072265625c1.84228515625-1.189453125,3.57958984375-2.0068359375,5.2119140625-2.45166015625,1.62890625-.443359375,2.94287109375-.1689453125,3.94287109375.8232421875,3.90673828125,4.6474609375,7.8076171875,9.1953125,11.701171875,13.6416015625,3.8935546875,4.44921875,7.78955078125,8.9287109375,11.6875,13.44287109375l19.84130859375-27.2744140625c.86865234375-.8564453125,1.9482421875-1.59423828125,3.2353515625-2.21533203125,1.029296875-.47021484375,2.3408203125-.7255859375,3.93212890625-.76953125,1.591796875-.041015625,3.3515625.466796875,5.28662109375,1.52880859375,2.06591796875,1.05322265625,4.14013671875,2.23974609375,6.2236328125,3.556640625,2.083984375,1.3193359375,3.8427734375,2.75830078125,5.27978515625,4.31884765625,1.43408203125,1.56396484375,2.38671875,3.32275390625,2.85498046875,5.283203125.46533203125,1.9609375.115234375,4.11181640625-1.0498046875,6.44970703125-.4755859375.830078125-1.4052734375,2.2890625-2.787109375,4.37646484375-1.384765625,2.0888671875-3.17236328125,4.57177734375-5.36572265625,7.4443359375-2.193359375,2.8759765625-4.6611328125,6.1005859375-7.40380859375,9.67724609375-2.7421875,3.57666015625-5.640625,7.33251953125-8.68896484375,11.26025390625,5.45166015625,5.87060546875,10.8701171875,11.7060546875,16.25244140625,17.51220703125,5.38232421875,5.806640625,10.7978515625,11.6455078125,16.2529296875,17.5126953125Z"/>
    </g>
    <g>
      <line class="cls-1" x1="36.357655738606809" y1="83.397613566464315" x2="144.75133651725082" y2="75.925628009776119"/>
      <path class="cls-1" d="M36.357780790897777,83.397611059275732c4.301821092294631-2.318331361524542,8.709167499772775-4.212391484021282,13.201653516279293-5.976964246774514,9.007623642602994-.487308936546469,31.318506532400534-2.140578740379169,40.651394427917694-2.747123077118886,8.939989668321687-.615765795216248,31.994670943881829-2.206016580701544,40.647437061275923-2.802064754206185,4.586479517683074,1.135205620880697,9.41730979994918,2.462837710316307,13.893083818838022,4.054145999661159-4.216094486469046,2.190828859378598-8.818686838228132,4.167898739239718-13.205580561808347,5.922199462476783-8.548484216890756.58927884080731-31.791098341998804,2.191486718677879-40.647465594696769,2.801973650417494-9.425849908629061.668102300151077-31.506649440550063,2.106504751753164-40.643753936235044,2.856677116310493-4.69143204329248-1.131613445135372-9.317215258069155-2.402678146419021-13.896768731570774-4.108844150766345h0Z"/>
    </g>
  </g>
  <g>
    <g>
      <path class="cls-2" d="M146.01318359375,191.83349609375c.8662109375,1.00537109375,1.40966796875,2.1630859375,1.63427734375,3.4736328125.203125,1.0517578125.12744140625,2.35205078125-.2294921875,3.90234375-.35986328125,1.5537109375-1.275390625,3.17578125-2.7529296875,4.873046875-1.47705078125,1.6962890625-3.08984375,3.36962890625-4.83544921875,5.015625-1.748046875,1.650390625-3.5791015625,3.005859375-5.49853515625,4.0654296875-1.919921875,1.060546875-3.8759765625,1.59375-5.8681640625,1.6005859375-1.99267578125.00390625-4.0400390625-.7861328125-6.1416015625-2.3662109375-1.1142578125-.720703125-3.0625-2.509765625-5.8505859375-5.3759765625-2.7880859375-2.8623046875-6.0615234375-6.48779296875-9.8173828125-10.8818359375-1.87451171875-2.1279296875-3.8603515625-4.41650390625-5.953125-6.86279296875-2.09619140625-2.4462890625-4.29345703125-4.916015625-6.58935546875-7.41796875-3.666015625,4.6376953125-7.11865234375,9.02880859375-10.3515625,13.1689453125-3.23583984375,4.1435546875-6.07568359375,7.76171875-8.5185546875,10.8505859375-2.9365234375,3.658203125-5.62744140625,7.0322265625-8.07080078125,10.1220703125-.6171875.70849609375-1.3740234375,1.29052734375-2.27001953125,1.7509765625-.77587890625.3173828125-1.6953125.48046875-2.75634765625.48828125-1.064453125.00439453125-2.3583984375-.4697265625-3.884765625-1.42578125-1.5205078125-.82373046875-3.2880859375-1.89794921875-5.3037109375-3.2216796875-2.0185546875-1.322265625-3.87158203125-2.6875-5.5634765625-4.099609375-1.69140625-1.41015625-2.953125-2.81787109375-3.7783203125-4.2236328125-.82861328125-1.404296875-.8857421875-2.7294921875-.17431640625-3.9736328125l30.900390625-43.181640625c-3.767578125-4.5234375-7.2529296875-8.83203125-10.45654296875-12.9296875-3.2060546875-4.09521484375-6.04638671875-7.7197265625-8.52099609375-10.8720703125-2.77783203125-3.65966796875-5.3388671875-7.0703125-7.68017578125-10.2314453125-.7177734375-.74755859375-1.173828125-1.57861328125-1.36767578125-2.49560546875-.18798828125-.78466796875-.1142578125-1.65185546875.21875-2.60595703125.3330078125-.95068359375,1.1884765625-2.00634765625,2.57177734375-3.166015625,1.38037109375-1.15771484375,3.01611328125-2.5,4.90380859375-4.02490234375s3.75244140625-2.880859375,5.59765625-4.072265625c1.84228515625-1.189453125,3.57958984375-2.0068359375,5.2119140625-2.45166015625,1.62890625-.443359375,2.94287109375-.1689453125,3.94287109375.8232421875,3.90673828125,4.6474609375,7.8076171875,9.1953125,11.701171875,13.6416015625,3.8935546875,4.44921875,7.78955078125,8.9287109375,11.6875,13.44287109375l19.84130859375-27.2744140625c.86865234375-.8564453125,1.9482421875-1.59423828125,3.2353515625-2.21533203125,1.029296875-.47021484375,2.3408203125-.7255859375,3.93212890625-.76953125,1.591796875-.041015625,3.3515625.466796875,5.28662109375,1.52880859375,2.06591796875,1.05322265625,4.14013671875,2.23974609375,6.2236328125,3.556640625,2.083984375,1.3193359375,3.8427734375,2.75830078125,5.27978515625,4.31884765625,1.43408203125,1.56396484375,2.38671875,3.32275390625,2.85498046875,5.283203125.46533203125,1.9609375.115234375,4.11181640625-1.0498046875,6.44970703125-.4755859375.830078125-1.4052734375,2.2890625-2.787109375,4.37646484375-1.384765625,2.0888671875-3.17236328125,4.57177734375-5.36572265625,7.4443359375-2.193359375,2.8759765625-4.6611328125,6.1005859375-7.40380859375,9.67724609375-2.7421875,3.57666015625-5.640625,7.33251953125-8.68896484375,11.26025390625,5.45166015625,5.87060546875,10.8701171875,11.7060546875,16.25244140625,17.51220703125,5.38232421875,5.806640625,10.7978515625,11.6455078125,16.2529296875,17.5126953125Z"/>
      <path class="cls-2" d="M146.01318359375,191.83349609375c.8662109375,1.00537109375,1.40966796875,2.1630859375,1.63427734375,3.4736328125.203125,1.0517578125.12744140625,2.35205078125-.2294921875,3.90234375-.35986328125,1.5537109375-1.275390625,3.17578125-2.7529296875,4.873046875-1.47705078125,1.6962890625-3.08984375,3.36962890625-4.83544921875,5.015625-1.748046875,1.650390625-3.5791015625,3.005859375-5.49853515625,4.0654296875-1.919921875,1.060546875-3.8759765625,1.59375-5.8681640625,1.6005859375-1.99267578125.00390625-4.0400390625-.7861328125-6.1416015625-2.3662109375-1.1142578125-.720703125-3.0625-2.509765625-5.8505859375-5.3759765625-2.7880859375-2.8623046875-6.0615234375-6.48779296875-9.8173828125-10.8818359375-1.87451171875-2.1279296875-3.8603515625-4.41650390625-5.953125-6.86279296875-2.09619140625-2.4462890625-4.29345703125-4.916015625-6.58935546875-7.41796875-3.666015625,4.6376953125-7.11865234375,9.02880859375-10.3515625,13.1689453125-3.23583984375,4.1435546875-6.07568359375,7.76171875-8.5185546875,10.8505859375-2.9365234375,3.658203125-5.62744140625,7.0322265625-8.07080078125,10.1220703125-.6171875.70849609375-1.3740234375,1.29052734375-2.27001953125,1.7509765625-.77587890625.3173828125-1.6953125.48046875-2.75634765625.48828125-1.064453125.00439453125-2.3583984375-.4697265625-3.884765625-1.42578125-1.5205078125-.82373046875-3.2880859375-1.89794921875-5.3037109375-3.2216796875-2.0185546875-1.322265625-3.87158203125-2.6875-5.5634765625-4.099609375-1.69140625-1.41015625-2.953125-2.81787109375-3.7783203125-4.2236328125-.82861328125-1.404296875-.8857421875-2.7294921875-.17431640625-3.9736328125l30.900390625-43.181640625c-3.767578125-4.5234375-7.2529296875-8.83203125-10.45654296875-12.9296875-3.2060546875-4.09521484375-6.04638671875-7.7197265625-8.52099609375-10.8720703125-2.77783203125-3.65966796875-5.3388671875-7.0703125-7.68017578125-10.2314453125-.7177734375-.74755859375-1.173828125-1.57861328125-1.36767578125-2.49560546875-.18798828125-.78466796875-.1142578125-1.65185546875.21875-2.60595703125.3330078125-.95068359375,1.1884765625-2.00634765625,2.57177734375-3.166015625,1.38037109375-1.15771484375,3.01611328125-2.5,4.90380859375-4.02490234375s3.75244140625-2.880859375,5.59765625-4.072265625c1.84228515625-1.189453125,3.57958984375-2.0068359375,5.2119140625-2.45166015625,1.62890625-.443359375,2.94287109375-.1689453125,3.94287109375.8232421875,3.90673828125,4.6474609375,7.8076171875,9.1953125,11.701171875,13.6416015625,3.8935546875,4.44921875,7.78955078125,8.9287109375,11.6875,13.44287109375l19.84130859375-27.2744140625c.86865234375-.8564453125,1.9482421875-1.59423828125,3.2353515625-2.21533203125,1.029296875-.47021484375,2.3408203125-.7255859375,3.93212890625-.76953125,1.591796875-.041015625,3.3515625.466796875,5.28662109375,1.52880859375,2.06591796875,1.05322265625,4.14013671875,2.23974609375,6.2236328125,3.556640625,2.083984375,1.3193359375,3.8427734375,2.75830078125,5.27978515625,4.31884765625,1.43408203125,1.56396484375,2.38671875,3.32275390625,2.85498046875,5.283203125.46533203125,1.9609375.115234375,4.11181640625-1.0498046875,6.44970703125-.4755859375.830078125-1.4052734375,2.2890625-2.787109375,4.37646484375-1.384765625,2.0888671875-3.17236328125,4.57177734375-5.36572265625,7.4443359375-2.193359375,2.8759765625-4.6611328125,6.1005859375-7.40380859375,9.67724609375-2.7421875,3.57666015625-5.640625,7.33251953125-8.68896484375,11.26025390625,5.45166015625,5.87060546875,10.8701171875,11.7060546875,16.25244140625,17.51220703125,5.38232421875,5.806640625,10.7978515625,11.6455078125,16.2529296875,17.5126953125Z"/>
      <path class="cls-2" d="M146.01318359375,191.83349609375c.8662109375,1.00537109375,1.40966796875,2.1630859375,1.63427734375,3.4736328125.203125,1.0517578125.12744140625,2.35205078125-.2294921875,3.90234375-.35986328125,1.5537109375-1.275390625,3.17578125-2.7529296875,4.873046875-1.47705078125,1.6962890625-3.08984375,3.36962890625-4.83544921875,5.015625-1.748046875,1.650390625-3.5791015625,3.005859375-5.49853515625,4.0654296875-1.919921875,1.060546875-3.8759765625,1.59375-5.8681640625,1.6005859375-1.99267578125.00390625-4.0400390625-.7861328125-6.1416015625-2.3662109375-1.1142578125-.720703125-3.0625-2.509765625-5.8505859375-5.3759765625-2.7880859375-2.8623046875-6.0615234375-6.48779296875-9.8173828125-10.8818359375-1.87451171875-2.1279296875-3.8603515625-4.41650390625-5.953125-6.86279296875-2.09619140625-2.4462890625-4.29345703125-4.916015625-6.58935546875-7.41796875-3.666015625,4.6376953125-7.11865234375,9.02880859375-10.3515625,13.1689453125-3.23583984375,4.1435546875-6.07568359375,7.76171875-8.5185546875,10.8505859375-2.9365234375,3.658203125-5.62744140625,7.0322265625-8.07080078125,10.1220703125-.6171875.70849609375-1.3740234375,1.29052734375-2.27001953125,1.7509765625-.77587890625.3173828125-1.6953125.48046875-2.75634765625.48828125-1.064453125.00439453125-2.3583984375-.4697265625-3.884765625-1.42578125-1.5205078125-.82373046875-3.2880859375-1.89794921875-5.3037109375-3.2216796875-2.0185546875-1.322265625-3.87158203125-2.6875-5.5634765625-4.099609375-1.69140625-1.41015625-2.953125-2.81787109375-3.7783203125-4.2236328125-.82861328125-1.404296875-.8857421875-2.7294921875-.17431640625-3.9736328125l30.900390625-43.181640625c-3.767578125-4.5234375-7.2529296875-8.83203125-10.45654296875-12.9296875-3.2060546875-4.09521484375-6.04638671875-7.7197265625-8.52099609375-10.8720703125-2.77783203125-3.65966796875-5.3388671875-7.0703125-7.68017578125-10.2314453125-.7177734375-.74755859375-1.173828125-1.57861328125-1.36767578125-2.49560546875-.18798828125-.78466796875-.1142578125-1.65185546875.21875-2.60595703125.3330078125-.95068359375,1.1884765625-2.00634765625,2.57177734375-3.166015625,1.38037109375-1.15771484375,3.01611328125-2.5,4.90380859375-4.02490234375s3.75244140625-2.880859375,5.59765625-4.072265625c1.84228515625-1.189453125,3.57958984375-2.0068359375,5.2119140625-2.45166015625,1.62890625-.443359375,2.94287109375-.1689453125,3.94287109375.8232421875,3.90673828125,4.6474609375,7.8076171875,9.1953125,11.701171875,13.6416015625,3.8935546875,4.44921875,7.78955078125,8.9287109375,11.6875,13.44287109375l19.84130859375-27.2744140625c.86865234375-.8564453125,1.9482421875-1.59423828125,3.2353515625-2.21533203125,1.029296875-.47021484375,2.3408203125-.7255859375,3.93212890625-.76953125,1.591796875-.041015625,3.3515625.466796875,5.28662109375,1.52880859375,2.06591796875,1.05322265625,4.14013671875,2.23974609375,6.2236328125,3.556640625,2.083984375,1.3193359375,3.8427734375,2.75830078125,5.27978515625,4.31884765625,1.43408203125,1.56396484375,2.38671875,3.32275390625,2.85498046875,5.283203125.46533203125,1.9609375.115234375,4.11181640625-1.0498046875,6.44970703125-.4755859375.830078125-1.4052734375,2.2890625-2.787109375,4.37646484375-1.384765625,2.0888671875-3.17236328125,4.57177734375-5.36572265625,7.4443359375-2.193359375,2.8759765625-4.6611328125,6.1005859375-7.40380859375,9.67724609375-2.7421875,3.57666015625-5.640625,7.33251953125-8.68896484375,11.26025390625,5.45166015625,5.87060546875,10.8701171875,11.7060546875,16.25244140625,17.51220703125,5.38232421875,5.806640625,10.7978515625,11.6455078125,16.2529296875,17.5126953125Z"/>
    </g>
    <g>
      <line class="cls-2" x1="36.357655738606809" y1="83.397613566464315" x2="144.75133651725082" y2="75.925628009776119"/>
      <path class="cls-2" d="M36.357780790897777,83.397611059275732c4.301821092294631-2.318331361524542,8.709167499772775-4.212391484021282,13.201653516279293-5.976964246774514,9.007623642602994-.487308936546469,31.318506532400534-2.140578740379169,40.651394427917694-2.747123077118886,8.939989668321687-.615765795216248,31.994670943881829-2.206016580701544,40.647437061275923-2.802064754206185,4.586479517683074,1.135205620880697,9.41730979994918,2.462837710316307,13.893083818838022,4.054145999661159-4.216094486469046,2.190828859378598-8.818686838228132,4.167898739239718-13.205580561808347,5.922199462476783-8.548484216890756.58927884080731-31.791098341998804,2.191486718677879-40.647465594696769,2.801973650417494-9.425849908629061.668102300151077-31.506649440550063,2.106504751753164-40.643753936235044,2.856677116310493-4.69143204329248-1.131613445135372-9.317215258069155-2.402678146419021-13.896768731570774-4.108844150766345h0Z"/>
    </g>
  </g>
  <g>
    <g>
      <path class="cls-3" d="M146.01318359375,191.83349609375c.8662109375,1.00537109375,1.40966796875,2.1630859375,1.63427734375,3.4736328125.203125,1.0517578125.12744140625,2.35205078125-.2294921875,3.90234375-.35986328125,1.5537109375-1.275390625,3.17578125-2.7529296875,4.873046875-1.47705078125,1.6962890625-3.08984375,3.36962890625-4.83544921875,5.015625-1.748046875,1.650390625-3.5791015625,3.005859375-5.49853515625,4.0654296875-1.919921875,1.060546875-3.8759765625,1.59375-5.8681640625,1.6005859375-1.99267578125.00390625-4.0400390625-.7861328125-6.1416015625-2.3662109375-1.1142578125-.720703125-3.0625-2.509765625-5.8505859375-5.3759765625-2.7880859375-2.8623046875-6.0615234375-6.48779296875-9.8173828125-10.8818359375-1.87451171875-2.1279296875-3.8603515625-4.41650390625-5.953125-6.86279296875-2.09619140625-2.4462890625-4.29345703125-4.916015625-6.58935546875-7.41796875-3.666015625,4.6376953125-7.11865234375,9.02880859375-10.3515625,13.1689453125-3.23583984375,4.1435546875-6.07568359375,7.76171875-8.5185546875,10.8505859375-2.9365234375,3.658203125-5.62744140625,7.0322265625-8.07080078125,10.1220703125-.6171875.70849609375-1.3740234375,1.29052734375-2.27001953125,1.7509765625-.77587890625.3173828125-1.6953125.48046875-2.75634765625.48828125-1.064453125.00439453125-2.3583984375-.4697265625-3.884765625-1.42578125-1.5205078125-.82373046875-3.2880859375-1.89794921875-5.3037109375-3.2216796875-2.0185546875-1.322265625-3.87158203125-2.6875-5.5634765625-4.099609375-1.69140625-1.41015625-2.953125-2.81787109375-3.7783203125-4.2236328125-.82861328125-1.404296875-.8857421875-2.7294921875-.17431640625-3.9736328125l30.900390625-43.181640625c-3.767578125-4.5234375-7.2529296875-8.83203125-10.45654296875-12.9296875-3.2060546875-4.09521484375-6.04638671875-7.7197265625-8.52099609375-10.8720703125-2.77783203125-3.65966796875-5.3388671875-7.0703125-7.68017578125-10.2314453125-.7177734375-.74755859375-1.173828125-1.57861328125-1.36767578125-2.49560546875-.18798828125-.78466796875-.1142578125-1.65185546875.21875-2.60595703125.3330078125-.95068359375,1.1884765625-2.00634765625,2.57177734375-3.166015625,1.38037109375-1.15771484375,3.01611328125-2.5,4.90380859375-4.02490234375s3.75244140625-2.880859375,5.59765625-4.072265625c1.84228515625-1.189453125,3.57958984375-2.0068359375,5.2119140625-2.45166015625,1.62890625-.443359375,2.94287109375-.1689453125,3.94287109375.8232421875,3.90673828125,4.6474609375,7.8076171875,9.1953125,11.701171875,13.6416015625,3.8935546875,4.44921875,7.78955078125,8.9287109375,11.6875,13.44287109375l19.84130859375-27.2744140625c.86865234375-.8564453125,1.9482421875-1.59423828125,3.2353515625-2.21533203125,1.029296875-.47021484375,2.3408203125-.7255859375,3.93212890625-.76953125,1.591796875-.041015625,3.3515625.466796875,5.28662109375,1.52880859375,2.06591796875,1.05322265625,4.14013671875,2.23974609375,6.2236328125,3.556640625,2.083984375,1.3193359375,3.8427734375,2.75830078125,5.27978515625,4.31884765625,1.43408203125,1.56396484375,2.38671875,3.32275390625,2.85498046875,5.283203125.46533203125,1.9609375.115234375,4.11181640625-1.0498046875,6.44970703125-.4755859375.830078125-1.4052734375,2.2890625-2.787109375,4.37646484375-1.384765625,2.0888671875-3.17236328125,4.57177734375-5.36572265625,7.4443359375-2.193359375,2.8759765625-4.6611328125,6.1005859375-7.40380859375,9.67724609375-2.7421875,3.57666015625-5.640625,7.33251953125-8.68896484375,11.26025390625,5.45166015625,5.87060546875,10.8701171875,11.7060546875,16.25244140625,17.51220703125,5.38232421875,5.806640625,10.7978515625,11.6455078125,16.2529296875,17.5126953125Z"/>
      <path class="cls-3" d="M146.01318359375,191.83349609375c.8662109375,1.00537109375,1.40966796875,2.1630859375,1.63427734375,3.4736328125.203125,1.0517578125.12744140625,2.35205078125-.2294921875,3.90234375-.35986328125,1.5537109375-1.275390625,3.17578125-2.7529296875,4.873046875-1.47705078125,1.6962890625-3.08984375,3.36962890625-4.83544921875,5.015625-1.748046875,1.650390625-3.5791015625,3.005859375-5.49853515625,4.0654296875-1.919921875,1.060546875-3.8759765625,1.59375-5.8681640625,1.6005859375-1.99267578125.00390625-4.0400390625-.7861328125-6.1416015625-2.3662109375-1.1142578125-.720703125-3.0625-2.509765625-5.8505859375-5.3759765625-2.7880859375-2.8623046875-6.0615234375-6.48779296875-9.8173828125-10.8818359375-1.87451171875-2.1279296875-3.8603515625-4.41650390625-5.953125-6.86279296875-2.09619140625-2.4462890625-4.29345703125-4.916015625-6.58935546875-7.41796875-3.666015625,4.6376953125-7.11865234375,9.02880859375-10.3515625,13.1689453125-3.23583984375,4.1435546875-6.07568359375,7.76171875-8.5185546875,10.8505859375-2.9365234375,3.658203125-5.62744140625,7.0322265625-8.07080078125,10.1220703125-.6171875.70849609375-1.3740234375,1.29052734375-2.27001953125,1.7509765625-.77587890625.3173828125-1.6953125.48046875-2.75634765625.48828125-1.064453125.00439453125-2.3583984375-.4697265625-3.884765625-1.42578125-1.5205078125-.82373046875-3.2880859375-1.89794921875-5.3037109375-3.2216796875-2.0185546875-1.322265625-3.87158203125-2.6875-5.5634765625-4.099609375-1.69140625-1.41015625-2.953125-2.81787109375-3.7783203125-4.2236328125-.82861328125-1.404296875-.8857421875-2.7294921875-.17431640625-3.9736328125l30.900390625-43.181640625c-3.767578125-4.5234375-7.2529296875-8.83203125-10.45654296875-12.9296875-3.2060546875-4.09521484375-6.04638671875-7.7197265625-8.52099609375-10.8720703125-2.77783203125-3.65966796875-5.3388671875-7.0703125-7.68017578125-10.2314453125-.7177734375-.74755859375-1.173828125-1.57861328125-1.36767578125-2.49560546875-.18798828125-.78466796875-.1142578125-1.65185546875.21875-2.60595703125.3330078125-.95068359375,1.1884765625-2.00634765625,2.57177734375-3.166015625,1.38037109375-1.15771484375,3.01611328125-2.5,4.90380859375-4.02490234375s3.75244140625-2.880859375,5.59765625-4.072265625c1.84228515625-1.189453125,3.57958984375-2.0068359375,5.2119140625-2.45166015625,1.62890625-.443359375,2.94287109375-.1689453125,3.94287109375.8232421875,3.90673828125,4.6474609375,7.8076171875,9.1953125,11.701171875,13.6416015625,3.8935546875,4.44921875,7.78955078125,8.9287109375,11.6875,13.44287109375l19.84130859375-27.2744140625c.86865234375-.8564453125,1.9482421875-1.59423828125,3.2353515625-2.21533203125,1.029296875-.47021484375,2.3408203125-.7255859375,3.93212890625-.76953125,1.591796875-.041015625,3.3515625.466796875,5.28662109375,1.52880859375,2.06591796875,1.05322265625,4.14013671875,2.23974609375,6.2236328125,3.556640625,2.083984375,1.3193359375,3.8427734375,2.75830078125,5.27978515625,4.31884765625,1.43408203125,1.56396484375,2.38671875,3.32275390625,2.85498046875,5.283203125.46533203125,1.9609375.115234375,4.11181640625-1.0498046875,6.44970703125-.4755859375.830078125-1.4052734375,2.2890625-2.787109375,4.37646484375-1.384765625,2.0888671875-3.17236328125,4.57177734375-5.36572265625,7.4443359375-2.193359375,2.8759765625-4.6611328125,6.1005859375-7.40380859375,9.67724609375-2.7421875,3.57666015625-5.640625,7.33251953125-8.68896484375,11.26025390625,5.45166015625,5.87060546875,10.8701171875,11.7060546875,16.25244140625,17.51220703125,5.38232421875,5.806640625,10.7978515625,11.6455078125,16.2529296875,17.5126953125Z"/>
      <path class="cls-3" d="M146.01318359375,191.83349609375c.8662109375,1.00537109375,1.40966796875,2.1630859375,1.63427734375,3.4736328125.203125,1.0517578125.12744140625,2.35205078125-.2294921875,3.90234375-.35986328125,1.5537109375-1.275390625,3.17578125-2.7529296875,4.873046875-1.47705078125,1.6962890625-3.08984375,3.36962890625-4.83544921875,5.015625-1.748046875,1.650390625-3.5791015625,3.005859375-5.49853515625,4.0654296875-1.919921875,1.060546875-3.8759765625,1.59375-5.8681640625,1.6005859375-1.99267578125.00390625-4.0400390625-.7861328125-6.1416015625-2.3662109375-1.1142578125-.720703125-3.0625-2.509765625-5.8505859375-5.3759765625-2.7880859375-2.8623046875-6.0615234375-6.48779296875-9.8173828125-10.8818359375-1.87451171875-2.1279296875-3.8603515625-4.41650390625-5.953125-6.86279296875-2.09619140625-2.4462890625-4.29345703125-4.916015625-6.58935546875-7.41796875-3.666015625,4.6376953125-7.11865234375,9.02880859375-10.3515625,13.1689453125-3.23583984375,4.1435546875-6.07568359375,7.76171875-8.5185546875,10.8505859375-2.9365234375,3.658203125-5.62744140625,7.0322265625-8.07080078125,10.1220703125-.6171875.70849609375-1.3740234375,1.29052734375-2.27001953125,1.7509765625-.77587890625.3173828125-1.6953125.48046875-2.75634765625.48828125-1.064453125.00439453125-2.3583984375-.4697265625-3.884765625-1.42578125-1.5205078125-.82373046875-3.2880859375-1.89794921875-5.3037109375-3.2216796875-2.0185546875-1.322265625-3.87158203125-2.6875-5.5634765625-4.099609375-1.69140625-1.41015625-2.953125-2.81787109375-3.7783203125-4.2236328125-.82861328125-1.404296875-.8857421875-2.7294921875-.17431640625-3.9736328125l30.900390625-43.181640625c-3.767578125-4.5234375-7.2529296875-8.83203125-10.45654296875-12.9296875-3.2060546875-4.09521484375-6.04638671875-7.7197265625-8.52099609375-10.8720703125-2.77783203125-3.65966796875-5.3388671875-7.0703125-7.68017578125-10.2314453125-.7177734375-.74755859375-1.173828125-1.57861328125-1.36767578125-2.49560546875-.18798828125-.78466796875-.1142578125-1.65185546875.21875-2.60595703125.3330078125-.95068359375,1.1884765625-2.00634765625,2.57177734375-3.166015625,1.38037109375-1.15771484375,3.01611328125-2.5,4.90380859375-4.02490234375s3.75244140625-2.880859375,5.59765625-4.072265625c1.84228515625-1.189453125,3.57958984375-2.0068359375,5.2119140625-2.45166015625,1.62890625-.443359375,2.94287109375-.1689453125,3.94287109375.8232421875,3.90673828125,4.6474609375,7.8076171875,9.1953125,11.701171875,13.6416015625,3.8935546875,4.44921875,7.78955078125,8.9287109375,11.6875,13.44287109375l19.84130859375-27.2744140625c.86865234375-.8564453125,1.9482421875-1.59423828125,3.2353515625-2.21533203125,1.029296875-.47021484375,2.3408203125-.7255859375,3.93212890625-.76953125,1.591796875-.041015625,3.3515625.466796875,5.28662109375,1.52880859375,2.06591796875,1.05322265625,4.14013671875,2.23974609375,6.2236328125,3.556640625,2.083984375,1.3193359375,3.8427734375,2.75830078125,5.27978515625,4.31884765625,1.43408203125,1.56396484375,2.38671875,3.32275390625,2.85498046875,5.283203125.46533203125,1.9609375.115234375,4.11181640625-1.0498046875,6.44970703125-.4755859375.830078125-1.4052734375,2.2890625-2.787109375,4.37646484375-1.384765625,2.0888671875-3.17236328125,4.57177734375-5.36572265625,7.4443359375-2.193359375,2.8759765625-4.6611328125,6.1005859375-7.40380859375,9.67724609375-2.7421875,3.57666015625-5.640625,7.33251953125-8.68896484375,11.26025390625,5.45166015625,5.87060546875,10.8701171875,11.7060546875,16.25244140625,17.51220703125,5.38232421875,5.806640625,10.7978515625,11.6455078125,16.2529296875,17.5126953125Z"/>
    </g>
    <g>
      <line class="cls-3" x1="36.357655738606809" y1="83.397613566464315" x2="144.75133651725082" y2="75.925628009776119"/>
      <path class="cls-3" d="M36.357780790897777,83.397611059275732c4.301821092294631-2.318331361524542,8.709167499772775-4.212391484021282,13.201653516279293-5.976964246774514,9.007623642602994-.487308936546469,31.318506532400534-2.140578740379169,40.651394427917694-2.747123077118886,8.939989668321687-.615765795216248,31.994670943881829-2.206016580701544,40.647437061275923-2.802064754206185,4.586479517683074,1.135205620880697,9.41730979994918,2.462837710316307,13.893083818838022,4.054145999661159-4.216094486469046,2.190828859378598-8.818686838228132,4.167898739239718-13.205580561808347,5.922199462476783-8.548484216890756.58927884080731-31.791098341998804,2.191486718677879-40.647465594696769,2.801973650417494-9.425849908629061.668102300151077-31.506649440550063,2.106504751753164-40.643753936235044,2.856677116310493-4.69143204329248-1.131613445135372-9.317215258069155-2.402678146419021-13.896768731570774-4.108844150766345h0Z"/>
    </g>
  </g>
</svg>