<?xml version="1.0" encoding="UTF-8"?>
<svg xmlns="http://www.w3.org/2000/svg" viewBox="0 0 280 280">
  <defs>
    <style>
      .cls-1 {
        stroke: #665451;
        stroke-width: 50px;
      }

      .cls-1, .cls-2 {
        fill: none;
        stroke-linecap: round;
        stroke-linejoin: round;
      }

      .cls-3 {
        fill: #fff;
      }

      .cls-4 {
        fill: #e11f26;
      }

      .cls-5 {
        fill: #ec1940;
      }

      .cls-2 {
        stroke: #998675;
        stroke-width: 2px;
      }
    </style>
  </defs>
  <g id="Layer_1">
    <g>
      <path d="M111.168396059754741,103.842227819870459c-.035344482904293.203000743272241-.141754425010731.739208503197005.046536867430405.822903923809463,14.714380755983257,6.540537644930737,23.148861066751124,20.670772876114825,24.16103793334878,38.568933218974962.791126746305963,13.989366704765416-2.798008152916736,25.337071121775807-10.767404697669008,34.043113251029354-7.969396544751362,8.706042129251728-18.915140509117009,13.452724289865728-32.835281883798416,14.239936204907281-13.441414091990737.760138926998479-24.4132064846508-2.88399978916641-32.917437464215254-10.934255880860292-8.504120702627006-8.048306082395356-13.144025041501664-18.93064182510534-13.919713016622154-32.647007228135408-.779492529449271-13.783640723810095,1.529006063681663-24.971869656310446,6.924355359336914-33.567556672976934,5.396379438771874-8.594767150485495,12.469360819467511-14.584730465084249,21.22192429450115-17.969080354552716,8.750613465735114-3.384239612531928,19.711101598378264-5.448764635172665,32.877564379333307-6.193354514049133l36.830559278344481-2.082842000030723c2.553337150518018-.144396337213948,4.7402822430995,1.808436036306375,4.884678580313448,4.361773186824394l.262404244388563,4.640051947149914c.144396337213948,2.553337150518928-1.808436036306375,4.74028224310041-4.361773186825303,4.884678580314358,0,0-31.689086255943039-2.293213795793235-32.407450687866913,1.832706337595482ZM101.272251857496485,108.158730632162587c-2.041507401060699-2.097486487837159-4.966273809329323-3.119505957432011-7.867179138997926-2.729697923207823-20.892890028825605,2.807474035125779-30.632439103414981,16.682860391110808-29.221925484361236,41.624745305425677.67869940899709,12.001332225321676,3.431539565531239,21.166675197244331,8.262530765137853,27.497758371186137,4.829041190308089,6.331193450878345,11.186968088599315,9.27378264039362,19.073780694875495,8.827767568545823,17.898160342860137-1.012176866595837,26.151200056945527-13.826236487349888,24.758898588379452-38.446078880855566-.854879975780023-15.1167047828676-5.856888667446583-27.374401885291263-15.006105425033638-36.774494441094248Z"/>
      <path class="cls-1" d="M111.168396059754741,103.842227819870459c-.035344482904293.203000743272241-.141754425010731.739208503197005.046536867430405.822903923809463,14.714380755983257,6.540537644930737,23.148861066751124,20.670772876114825,24.16103793334878,38.568933218974962.791126746305963,13.989366704765416-2.798008152916736,25.337071121775807-10.767404697669008,34.043113251029354-7.969396544751362,8.706042129251728-18.915140509117009,13.452724289865728-32.835281883798416,14.239936204907281-13.441414091990737.760138926998479-24.4132064846508-2.88399978916641-32.917437464215254-10.934255880860292-8.504120702627006-8.048306082395356-13.144025041501664-18.93064182510534-13.919713016622154-32.647007228135408-.779492529449271-13.783640723810095,1.529006063681663-24.971869656310446,6.924355359336914-33.567556672976934,5.396379438771874-8.594767150485495,12.469360819467511-14.584730465084249,21.22192429450115-17.969080354552716,8.750613465735114-3.384239612531928,19.711101598378264-5.448764635172665,32.877564379333307-6.193354514049133l36.830559278344481-2.082842000030723c2.553337150518018-.144396337213948,4.7402822430995,1.808436036306375,4.884678580313448,4.361773186824394l.262404244388563,4.640051947149914c.144396337213948,2.553337150518928-1.808436036306375,4.74028224310041-4.361773186825303,4.884678580314358,0,0-31.689086255943039-2.293213795793235-32.407450687866913,1.832706337595482ZM101.272251857496485,108.158730632162587c-2.041507401060699-2.097486487837159-4.966273809329323-3.119505957432011-7.867179138997926-2.729697923207823-20.892890028825605,2.807474035125779-30.632439103414981,16.682860391110808-29.221925484361236,41.624745305425677.67869940899709,12.001332225321676,3.431539565531239,21.166675197244331,8.262530765137853,27.497758371186137,4.829041190308089,6.331193450878345,11.186968088599315,9.27378264039362,19.073780694875495,8.827767568545823,17.898160342860137-1.012176866595837,26.151200056945527-13.826236487349888,24.758898588379452-38.446078880855566-.854879975780023-15.1167047828676-5.856888667446583-27.374401885291263-15.006105425033638-36.774494441094248Z"/>
      <path class="cls-2" d="M111.168396059754741,103.842227819870459c-.035344482904293.203000743272241-.141754425010731.739208503197005.046536867430405.822903923809463,14.714380755983257,6.540537644930737,23.148861066751124,20.670772876114825,24.16103793334878,38.568933218974962.791126746305963,13.989366704765416-2.798008152916736,25.337071121775807-10.767404697669008,34.043113251029354-7.969396544751362,8.706042129251728-18.915140509117009,13.452724289865728-32.835281883798416,14.239936204907281-13.441414091990737.760138926998479-24.4132064846508-2.88399978916641-32.917437464215254-10.934255880860292-8.504120702627006-8.048306082395356-13.144025041501664-18.93064182510534-13.919713016622154-32.647007228135408-.779492529449271-13.783640723810095,1.529006063681663-24.971869656310446,6.924355359336914-33.567556672976934,5.396379438771874-8.594767150485495,12.469360819467511-14.584730465084249,21.22192429450115-17.969080354552716,8.750613465735114-3.384239612531928,19.711101598378264-5.448764635172665,32.877564379333307-6.193354514049133l36.830559278344481-2.082842000030723c2.553337150518018-.144396337213948,4.7402822430995,1.808436036306375,4.884678580313448,4.361773186824394l.262404244388563,4.640051947149914c.144396337213948,2.553337150518928-1.808436036306375,4.74028224310041-4.361773186825303,4.884678580314358,0,0-31.689086255943039-2.293213795793235-32.407450687866913,1.832706337595482ZM101.272251857496485,108.158730632162587c-2.041507401060699-2.097486487837159-4.966273809329323-3.119505957432011-7.867179138997926-2.729697923207823-20.892890028825605,2.807474035125779-30.632439103414981,16.682860391110808-29.221925484361236,41.624745305425677.67869940899709,12.001332225321676,3.431539565531239,21.166675197244331,8.262530765137853,27.497758371186137,4.829041190308089,6.331193450878345,11.186968088599315,9.27378264039362,19.073780694875495,8.827767568545823,17.898160342860137-1.012176866595837,26.151200056945527-13.826236487349888,24.758898588379452-38.446078880855566-.854879975780023-15.1167047828676-5.856888667446583-27.374401885291263-15.006105425033638-36.774494441094248Z"/>
      <path class="cls-3" d="M111.168396059754741,103.842227819870459c-.035344482904293.203000743272241-.141754425010731.739208503197005.046536867430405.822903923809463,14.714380755983257,6.540537644930737,23.148861066751124,20.670772876114825,24.16103793334878,38.568933218974962.791126746305963,13.989366704765416-2.798008152916736,25.337071121775807-10.767404697669008,34.043113251029354-7.969396544751362,8.706042129251728-18.915140509117009,13.452724289865728-32.835281883798416,14.239936204907281-13.441414091990737.760138926998479-24.4132064846508-2.88399978916641-32.917437464215254-10.934255880860292-8.504120702627006-8.048306082395356-13.144025041501664-18.93064182510534-13.919713016622154-32.647007228135408-.779492529449271-13.783640723810095,1.529006063681663-24.971869656310446,6.924355359336914-33.567556672976934,5.396379438771874-8.594767150485495,12.469360819467511-14.584730465084249,21.22192429450115-17.969080354552716,8.750613465735114-3.384239612531928,19.711101598378264-5.448764635172665,32.877564379333307-6.193354514049133l36.830559278344481-2.082842000030723c2.553337150518018-.144396337213948,4.7402822430995,1.808436036306375,4.884678580313448,4.361773186824394l.262404244388563,4.640051947149914c.144396337213948,2.553337150518928-1.808436036306375,4.74028224310041-4.361773186825303,4.884678580314358,0,0-31.689086255943039-2.293213795793235-32.407450687866913,1.832706337595482ZM101.272251857496485,108.158730632162587c-2.041507401060699-2.097486487837159-4.966273809329323-3.119505957432011-7.867179138997926-2.729697923207823-20.892890028825605,2.807474035125779-30.632439103414981,16.682860391110808-29.221925484361236,41.624745305425677.67869940899709,12.001332225321676,3.431539565531239,21.166675197244331,8.262530765137853,27.497758371186137,4.829041190308089,6.331193450878345,11.186968088599315,9.27378264039362,19.073780694875495,8.827767568545823,17.898160342860137-1.012176866595837,26.151200056945527-13.826236487349888,24.758898588379452-38.446078880855566-.854879975780023-15.1167047828676-5.856888667446583-27.374401885291263-15.006105425033638-36.774494441094248Z"/>
    </g>
  </g>
  <g id="Arrows">
    <g>
      <g>
        <path class="cls-5" d="M216.23901915010174,177.011137345280076c9.6474609375,0,18.1827392578125.61407470703125,26.093597412109375,1.87738037109375,2.437591552734375.38922119140625,5.080947875976562.57843017578125,8.081146240234375.57843017578125,2.58477783203125,0,5.17901611328125-.1383056640625,7.407730102538153-.26800537109375,2.849182128907159-.16571044921875,5.877426147461847-.242919921875,9.530044555664972-.242919921875,2.790802001953125,0,5.63348388671875.04583740234375,8.382553100585028.09014892578125,1.278030395508722.0206298828125,2.555816650391534.04119873046875,3.833145141602472.05755615234375,8.607620239257812.10992431640625,16.209304809570312,1.57861328125,23.239395141601562,4.48992919921875,13.068466186523438,5.41204833984375,21.74151611328125,15.21478271484375,25.77825927734375,29.13592529296875,2.879043579101562,9.9288330078125,3.709548950195312,20.67840576171875,2.613571166992188,33.82952880859375-.037857055664972.45465087890625-.039764404296875.89862060546875-.041595458984375,1.3280029296875-.001922607421875.45135498046875-.003738403320312.87762451171875-.04595947265625,1.287353515625-.89813232421875,8.7158203125.10174560546875,17.4197998046875,1.06866455078125,25.83721923828125.19549560546875,1.7017822265625.391006469726562,3.40350341796875.571502685546875,5.10601806640625.127838134765625,1.20587158203125.168838500976562,2.45648193359375.208526611328125,3.6658935546875.057098388671875,1.74139404296875.116104125976562,3.5408935546875.429214477539062,5.3289794921875v13.2296142578125c-.347839355469659,1.52093505859375-.422882080078125,3.0526123046875-.495513916015625,4.53515625-.026809692382812.5477294921875-.053497314454034,1.09454345703125-.09417724609375,1.638427734375-.482208251953125,6.4447021484375-3.04473876953125,12.39959716796875-8.064422607421875,18.74041748046875-8.24468994140625,10.41461181640625-19.430786132813409,15.66387939453125-34.197494506835938,16.04779052734375-.439529418945312.01141357421875-.878875732421875.0172119140625-1.315582275390625.0172119140625-7.625289916992188,0-14.220550537109375-1.7264404296875-20.16265869140625-5.27801513671875-6.481842041015625-3.8741455078125-11.447128295898438-9.30035400390625-14.76068115234375-16.1334228515625-.796127319336847-1.6417236328125-1.23468017578125-2.5460205078125-2.297348022461847-2.5462646484375-.768569946288153-.00006103515625-1.339675903319403.54498291015625-2.376449584960028,1.5345458984375l-.075836181640625.0723876953125c-1.821975708007812,1.73834228515625-3.64727783203125,3.473388671875-5.47259521484375,5.2083740234375-7.718505859375,7.33648681640625-15.69976806640625,14.9228515625-23.29254150390625,22.65966796875-1.186767578125,1.20928955078125-2.346466064453125,2.47320556640625-3.467987060546875,3.695556640625-1.52783203125,1.6651611328125-3.107666015625,3.38702392578125-4.75640869140625,4.96881103515625-4.7598876953125,4.56695556640625-9.583160400390625,7.76416015625-14.745452880859375,9.7742919921875-3.338043212890625,1.2998046875-6.81964111328125,1.43402099609375-10.50567626953125,1.5760498046875l-.18603515625.00787353515625-3.37774658203125-.00006103515625-3.421478271484375.00103759765625c-.440887451171875.01983642578125-.87896728515625.02960205078125-1.312286376953125.02960205078125-7.575714111328125,0-14.701568603515625-3.02203369140625-21.7847900390625-9.2388916015625-4.392913818359375-3.8555908203125-7.837066650390625-7.76275634765625-10.5291748046875-11.94464111328125-3.43170166015625-5.33074951171875-5.02496337890625-11.15118408203125-4.870574951171875-17.81707763671875l-.00115966796875-6.0845947265625c-.43280029296875-8.91302490234375,2.93524169921875-17.05242919921875,10.0106201171875-24.19219970703125,4.933349609375-4.97833251953125,10.11370849609375-9.88690185546875,15.12353515625-14.6339111328125,4.509918212890625-4.2733154296875,9.173370361328125-8.69207763671875,13.653900146484375-13.15850830078125,2.377655029296875-2.37017822265625,4.843170166015625-4.7508544921875,7.227508544921875-7.0531005859375,1.07916259765625-1.04205322265625,2.158294677734375-2.083984375,3.23345947265625-3.128662109375.90234375-.8768310546875,1.6959228515625-1.74737548828125,1.498260498046875-2.7569580078125-.198516845703125-1.01385498046875-1.235748291015625-1.50927734375-2.469268798828125-2.00823974609375-8.082794189453125-3.2691650390625-14.2947998046875-8.67144775390625-18.463470458984375-16.056640625-2.38067626953125-4.2176513671875-3.80462646484375-9.002685546875-4.353179931640625-14.6285400390625-.8243408203125-8.4537353515625.548248291015625-16.67950439453125,4.07965087890625-24.44866943359375,4.82781982421875-10.6214599609375,12.8931884765625-18.1539306640625,23.9720458984375-22.38836669921875,4.60772705078125-1.7611083984375,9.335479736328125-2.1168212890625,13.758148193359375-2.2388916015625,2.465911865234375-.06805419921875,4.869171142578125-.10260009765625,7.14306640625-.10260009765625M216.23901915010174,176.011137345280076c-2.38909912109375,0-4.77996826171875.0369873046875-7.170654296875.10296630859375-4.7476806640625.13104248046875-9.4990234375.5506591796875-14.08758544921875,2.304443359375-11.32763671875,4.3294677734375-19.530914306640625,11.92059326171875-24.525390625,22.90863037109375-3.59844970703125,7.916748046875-5.016357421875,16.22412109375-4.164581298828125,24.95953369140625.521331787109375,5.34637451171875,1.8507080078125,10.369140625,4.477630615234375,15.02301025390625,4.361480712890625,7.726806640625,10.740997314453125,13.16815185546875,18.959381103515625,16.4921875,2.3194580078125.9381103515625,2.42694091796875,1.3934326171875.649078369140625,3.12091064453125-3.49310302734375,3.39410400390625-7.02813720703125,6.7596435546875-10.4700927734375,10.19073486328125-9.450408935546875,9.42071533203125-19.396697998046875,18.32623291015625-28.781768798828125,27.7967529296875-6.723663330078125,6.784912109375-10.78125,15.01544189453125-10.29913330078125,24.94464111328125v6.03607177734375c-.15362548828125,6.62188720703125,1.39764404296875,12.71630859375,5.02972412109375,18.35833740234375,2.9742431640625,4.6201171875,6.646331787109375,8.5880126953125,10.710357666015625,12.15496826171875,6.435577392578125,5.6484375,13.703033447265625,9.4873046875,22.4444580078125,9.4873046875.448150634765625,0,.90118408203125-.0101318359375,1.357147216796875-.03057861328125,1.125152587890625,0,2.250640869140625-.00006103515625,3.376617431640625-.00006103515625s2.25244140625.00006103515625,3.3795166015625.00006103515625c3.74627685546875-.1448974609375,7.487579345703125-.2637939453125,11.052825927734375-1.652099609375,5.751190185546875-2.23944091796875,10.653289794921875-5.74212646484375,15.074920654296875-9.9844970703125,2.884765625-2.76776123046875,5.4515380859375-5.83831787109375,8.245758056640625-8.685546875,9.345184326171875-9.52252197265625,19.090118408203125-18.63629150390625,28.741744995116278-27.844970703125.903259277344659-.86181640625,1.383193969727472-1.3304443359375,1.761840820313409-1.33038330078125.436889648436591.00006103515625.738922119140625.62408447265625,1.400390625,1.9881591796875,3.405151367186591,7.02197265625,8.453079223632812,12.55029296875,15.14471435546875,16.54986572265625,6.389572143554688,3.8189697265625,13.334075927734375,5.41961669921875,20.675704956054688,5.41961669921875.445343017578125,0,.89337158203125-.00592041015625,1.341583251953125-.017578125,14.059738159179688-.365478515625,26.058792114257812-5.18841552734375,34.955551147460028-16.4267578125,4.466857910157159-5.6424560546875,7.723098754883722-11.87579345703125,8.277572631836847-19.2864990234375.152496337890625-2.038330078125.112747192382812-4.11798095703125.592483520507812-6.133056640625v-13.43280029296875c-.536270141601562-2.9808349609375-.32550048828125-6.0145263671875-.643325805664062-9.01220703125-1.08306884765625-10.21563720703125-2.704544067382812-20.4029541015625-1.63983154296875-30.7353515625.089706420898438-.8707275390625.0162353515625-1.757080078125.08935546875-2.63482666015625.961761474609375-11.540771484375.586029052734375-23.0322265625-2.649673461914062-34.1910400390625-4.055801391601562-13.98687744140625-12.7469482421875-24.1453857421875-26.356109619140625-29.78131103515625-7.546875-3.1253662109375-15.480636596679688-4.462158203125-23.609237670898438-4.56597900390625-4.073974609375-.05206298828125-8.15289306640625-.1478271484375-12.228439331054688-.14776611328125-3.199874877929688,0-6.397918701171875.05902099609375-9.588134765625.24462890625-2.460159301757812.14312744140625-4.908294677734375.26629638671875-7.34967041015625.26629638671875-2.64697265625,0-5.285995483398438-.144775390625-7.923446655273438-.56591796875-8.710113525390625-1.39093017578125-17.472564697265625-1.889892578125-26.25128173828125-1.889892578125h0Z"/>
        <path class="cls-5" d="M215.418737167679865,206.144377091373826c6.575714111328125,0,13.25567626953125,1.05926513671875,19.000762939453125,2.0521240234375,5.11395263671875.88372802734375,10.489532470703125,1.29534912109375,16.917312622070312,1.29534912109375,4.03607177734375,0,8.003967285155341-.16802978515625,11.0098876953125-.3143310546875,3.233718872070312-.157470703125,6.681381225585938-.31121826171875,10.153411865234375-.31121826171875,4.914291381835938,0,8.987350463867188.30816650390625,12.81817626953125.96990966796875,10.220596313476562,1.76544189453125,14.56378173828125,6.504638671875,15.490692138671875,16.9033203125.747940063476562,8.39080810546875.770401000976562,17.27642822265625.066741943359375,26.4100341796875-.7371826171875,9.56866455078125.677444458007812,19.03570556640625,2.045486450195312,28.19097900390625.161178588867188,1.07861328125.322357177734375,2.1573486328125.480255126953125,3.23663330078125.86968994140625,5.94488525390625,1.502197265625,12.29931640625.252426147460938,18.4888916015625-1.188980102539062,5.8883056640625-7.102142333984375,10.50079345703125-13.461883544921875,10.50079345703125-1.778366088867188,0-3.471923828125-.3604736328125-5.033645629882812-1.07147216796875-3.46173095703125-1.57586669921875-4.482254028320312-4.69110107421875-4.949508666992188-8.8837890625-.599807739257812-5.3818359375-.293624877929688-10.88299560546875.002471923828125-16.2030029296875.169326782226562-3.0418701171875.344375610351562-6.1873779296875.351287841796875-9.2962646484375.01611328125-7.27154541015625-.326522827148438-15.74212646484375-4.6234130859375-24.25189208984375l-.654266357421875-1.2957763671875-.977600097657159,1.07305908203125c-.678283691405341.7445068359375-1.347106933592841,1.49853515625-2.015899658202216,2.2525634765625-1.415451049804688,1.59588623046875-2.87908935546875,3.24603271484375-4.404129028320312,4.76043701171875-9.105804443359375,9.0419921875-17.378814697265625,17.1793212890625-25.29180908203125,24.876953125-8.33831787109375,8.111328125-16.83685302734375,16.338134765625-25.055572509765625,24.2940673828125-5.7088623046875,5.5263671875-11.41778564453125,11.052734375-17.120361328125,16.5855712890625-1.47003173828125,1.42626953125-2.818023681640625,2.984619140625-4.12164306640625,4.49163818359375-1.76544189453125,2.0408935546875-3.59100341796875,4.15130615234375-5.693023681640625,5.8856201171875-2.562408447265625,2.11431884765625-4.751708984375,3.09906005859375-6.889862060546875,3.09906005859375-2.08709716796875,0-4.209716796875-.9337158203125-6.679962158203125-2.9383544921875-.696136474609375-.56488037109375-1.428802490234375-1.17742919921875-2.07086181640625-1.82891845703125-5.559173583984375-5.64044189453125-5.597747802734375-10.6097412109375-.125152587890625-16.11248779296875,1.7679443359375-1.7777099609375,3.72930908203125-3.45159912109375,5.6260986328125-5.0704345703125,1.931060791015625-1.64801025390625,3.9278564453125-3.35211181640625,5.756317138671875-5.19189453125,14.891510009765625-14.98333740234375,29.862030029296875-29.34942626953125,45.16632080078125-43.97198486328125,6.08343505859375-5.8123779296875,12.2906494140625-11.70037841796875,18.29351806640625-17.39453125,3.229034423828125-3.06298828125,6.458099365234375-6.12591552734375,9.684051513671875-9.19219970703125,1.284088134765625-1.220458984375,1.991409301757812-1.89276123046875,1.77752685546875-2.82769775390625-.215301513671875-.9410400390625-1.165878295899347-1.24578857421875-2.891555786132812-1.79888916015625-9.333831787109375-2.99169921875-18.853012084960938-3.3753662109375-26.103286743164062-3.3753662109375-1.3402099609375,0-2.753814697265625.01458740234375-4.32159423828125.04461669921875-1.6849365234375.03228759765625-3.39508056640625.0877685546875-5.0489501953125.1414794921875-2.568878173828125.0833740234375-5.2252197265625.16961669921875-7.828216552734375.16961669921875-3.746429443359375,0-6.832244873046875-.17791748046875-9.711212158203125-.559814453125-1.79449462890625-.238037109375-3.3160400390625-.7115478515625-4.651519775390625-1.44757080078125-2.199554443359375-1.21209716796875-3.277313232421875-2.90374755859375-3.391754150390625-5.32379150390625-.248779296875-5.25970458984375.984039306640625-9.38140869140625,3.664215087890625-12.25067138671875,2.85723876953125-3.05889892578125,7.32415771484375-4.6728515625,13.2767333984375-4.797119140625.427703857421875-.0089111328125.855865478515625-.01324462890625,1.282989501953125-.01324462890625M215.41876768525799,205.144377091373826c-.434112548828125,0-.869232177734375.00439453125-1.30389404296875.01348876953125-12.201568603515625.25469970703125-18.459747314453125,6.66070556640625-17.918975830078125,18.09478759765625.13397216796875,2.83258056640625,1.488250732421875,4.81890869140625,3.90802001953125,6.15240478515625,1.55792236328125.85858154296875,3.252532958984375,1.33087158203125,5.00262451171875,1.56304931640625,3.2781982421875.43487548828125,6.559051513671875.5684814453125,9.842742919921875.5684814453125,4.29693603515625,0,8.59796142578125-.22900390625,12.89630126953125-.311279296875,1.4354248046875-.0274658203125,2.869842529296875-.04443359375,4.302459716796875-.04443359375,8.71978759765625,0,17.374221801757812.62762451171875,25.798065185546875,3.32763671875,2.840042114257812.91033935546875,2.838607788085938.94561767578125.730316162109375,2.94952392578125-9.3255615234375,8.86383056640625-18.677001953125,17.70050048828125-27.97943115234375,26.5885009765625-15.198944091796875,14.5218505859375-30.36383056640625,29.0777587890625-45.184783935546875,43.9901123046875-3.595733642578125,3.61785888671875-7.7852783203125,6.645263671875-11.382232666015625,10.2620849609375-5.928375244140625,5.9610595703125-5.774627685546875,11.5367431640625.12200927734375,17.51959228515625.67095947265625.6807861328125,1.4095458984375,1.3001708984375,2.1529541015625,1.9034423828125,2.601409912109375,2.111083984375,4.95654296875,3.161865234375,7.310089111328125,3.161865234375,2.4217529296875,0,4.841827392578125-1.11273193359375,7.52630615234375-3.32769775390625,3.726318359375-3.0745849609375,6.436859130859375-7.09552001953125,9.87457275390625-10.430908203125,14.0521240234375-13.6339111328125,28.142608642578125-27.22833251953125,42.1768798828125-40.88055419921875,8.478668212890625-8.2479248046875,16.905670166015625-16.54949951171875,25.29913330078125-24.8841552734375,2.258148193359375-2.24237060546875,4.3087158203125-4.6937255859375,6.454620361328125-7.04913330078125,4.039688110351562,8.00042724609375,4.533615112304688,15.8782958984375,4.516067504882812,23.7989501953125-.018951416016534,8.53741455078125-1.300765991210938,17.059814453125-.347610473632812,25.61224365234375.448043823241278,4.02020263671875,1.4322509765625,7.81817626953125,5.529037475585938,9.68316650390625,1.743438720703125.793701171875,3.597427368164062,1.16131591796875,5.447967529296875,1.16131591796875,6.571502685546875,0,13.096206665039062-4.637451171875,14.442092895507812-11.3028564453125,1.267059326171875-6.275146484375.6729736328125-12.5692138671875-.243179321289062-18.83160400390625-1.51373291015625-10.3477783203125-3.331558227539062-20.6478271484375-2.518157958985284-31.20599365234375.681549072266534-8.846435546875.722305297852472-17.7127685546875-.067718505858466-26.57568359375-.965911865234375-10.8360595703125-5.556243896484375-15.9412841796875-16.316543579101562-17.7999267578125-4.314468383789972-.7452392578125-8.64813232421875-.9844970703125-12.988388061523438-.9844970703125-3.3992919921875,0-6.80303955078125.1468505859375-10.202041625976562.3123779296875-3.660797119140625.17828369140625-7.312957763671875.31317138671875-10.961273193359375.31317138671875-5.59033203125,0-11.170166015625-.3170166015625-16.74700927734375-1.28076171875-6.333282470703125-1.094482421875-12.720245361328125-2.06671142578125-19.1710205078125-2.06671142578125h0Z"/>
      </g>
      <path class="cls-4" d="M279.731008285843927,279.730985978092576c-69.716351184773885.440578179877775-210.01641012973414,1.330698880577984-279.73127705130355,1.531175586202153.000365796359802.000257519355728-1.526855883220378.007154491859183-1.526855883220378.007154491859183l-.00430297856019-1.538391113217585c-.064466009100215-34.904889679753978-.304332171809619-104.981273403907835-.28517733282024-139.865683708776487C-1.81676698272986,139.865507462473033-1.997675185820299.000089981995188-1.997675185820299.000089981995188l-.002593994139716-2.000305175766698c47.593448544559578.061678103189479,165.706463488089867.208744173558443,211.798450492722623.2710002239819,17.377564021579019.057256412161223,52.544894306027345.067305907798072,69.932688834898727.190932715224335.000031326664612-.000140947033287,1.545487259272704.005932051020864,1.545487259272704.005932051020864l-.006912231441675,1.532440185543237c-.3248777676381,69.719190650677774-.970720793335204,210.042533955160252-1.538436889648438,279.73089599609375h0ZM279.731008285843927,279.730985978092576c-.578875428045649-69.742890748202626-1.234200297489224-210.023047358901749-1.538486707469929-279.731249249096436.000049818085245.000353252795321,1.538379895757316,1.538713848854968,1.538379895757316,1.538713848854968-38.949250925439628.064877984557825-100.445683312962501.316583179728696-139.865412666011252.281504515698543C139.865514511429865,1.820249894093649.000097030960205,1.997679093337865.000097030960205,1.997679093337865L1.997686142290149.000089981998826c.100233861439847,79.280994943896076-.354767541000001,201.347947819946057-.46580332395024,279.730682550889469-.000474752219816.000152410046212-1.531785787379704-1.5311586251064-1.531785787379704-1.5311586251064,69.708467800579456.186233468544742,210.024453468805405,1.073926733639382,279.730911254883722,1.531372070310681h0Z"/>
    </g>
  </g>
</svg>