<?xml version="1.0" encoding="UTF-8"?>
<svg id="Layer_1" xmlns="http://www.w3.org/2000/svg" viewBox="0 0 280 280">
  <defs>
    <style>
      .cls-1 {
        stroke: #665451;
        stroke-width: 50px;
      }

      .cls-1, .cls-2 {
        fill: none;
        stroke-linecap: round;
        stroke-linejoin: round;
      }

      .cls-3 {
        fill: #fff;
      }

      .cls-2 {
        stroke: #998675;
        stroke-width: 2px;
      }
    </style>
  </defs>
  <path d="M108.91796875,86.015625c3.8095703125-6.53955078125,8.6826171875-11.6171875,14.61669921875-15.234375,5.93115234375-3.61376953125,12.03076171875-5.50439453125,18.29150390625-5.6728515625,6.26171875-.16552734375,12.2138671875,1.56787109375,17.86083984375,5.203125,5.64404296875,3.6357421875,10.037109375,9.5,13.173828125,17.5869140625,3.61279296875,9.07568359375,6.06396484375,19.08642578125,7.35888671875,30.02880859375,1.29345703125,10.94580078125,2.29150390625,21.84228515625,2.990234375,32.68603515625.24169921875,3.6943359375-.53515625,6.23828125-2.33203125,7.6318359375-1.80029296875,1.392578125-4.23583984375,2.34765625-7.310546875,2.8603515625-2.06005859375.265625-4.1533203125.505859375-6.27685546875.72265625-2.12646484375.2138671875-4.12353515625.064453125-5.9921875-.4501953125-1.87109375-.513671875-3.50439453125-1.4677734375-4.90576171875-2.8583984375-1.40087890625-1.3896484375-2.34423828125-3.5068359375-2.82568359375-6.3544921875-.732421875-3.8603515625-1.2041015625-7.755859375-1.41796875-11.6845703125-.21728515625-3.92626953125-.40576171875-7.888671875-.5712890625-11.8818359375-.1650390625-3.9921875-.4501953125-7.9970703125-.8505859375-12.01904296875-.40380859375-4.01953125-1.21142578125-8.04638671875-2.4287109375-12.07861328125-1.87109375-6.39013671875-4.416015625-10.56982421875-7.63720703125-12.54052734375-3.22021484375-1.96875-6.3955078125-1.99560546875-9.521484375-.08251953125-3.12890625,1.91650390625-5.7841796875,5.69189453125-7.96533203125,11.32373046875-2.18359375,5.6337890625-3.1162109375,12.85205078125-2.794921875,21.65087890625.16064453125,4.8662109375.50390625,9.79541015625,1.03271484375,14.78857421875.52587890625,4.99365234375,1.2939453125,10.04345703125,2.30078125,15.14892578125.63818359375,2.2470703125.6171875,4.1083984375-.06494140625,5.5927734375-.6806640625,1.4833984375-1.7421875,2.728515625-3.1845703125,3.7265625-1.44091796875,1.0009765625-3.0615234375,1.763671875-4.853515625,2.283203125-1.79541015625.5234375-3.49365234375.88671875-5.09521484375,1.0927734375-4.3505859375.560546875-7.78173828125-.3330078125-10.2939453125-2.6875-2.51416015625-2.3515625-4.28857421875-5.73046875-5.31982421875-10.134765625-.859375-3.9609375-1.330078125-8.05859375-1.40966796875-12.296875-.08251953125-4.2353515625-.27392578125-8.42919921875-.57421875-12.57861328125-.15087890625-5.6796875-1.00537109375-10.5166015625-2.56591796875-14.50341796875-1.56103515625-3.98779296875-3.42626953125-6.94580078125-5.5947265625-8.8779296875-2.16796875-1.9296875-4.45751953125-2.76904296875-6.869140625-2.51806640625-2.41015625.25341796875-4.5419921875,1.779296875-6.3916015625,4.57568359375-1.8505859375,2.79931640625-3.2666015625,6.9384765625-4.24609375,12.41455078125-.982421875,5.4794921875-1.15673828125,12.482421875-.521484375,21.00927734375l3.7216796875,24.826171875c-.09765625,1.0595703125-.37158203125,2.0849609375-.8251953125,3.07421875-.470703125.875-1.173828125,1.7216796875-2.11572265625,2.541015625s-2.37158203125,1.4677734375-4.2861328125,1.9482421875c-2.03125.4931640625-4.10205078125.9052734375-6.2109375,1.236328125-2.1123046875.3291015625-4.10498046875.44140625-5.97802734375.333984375-1.8759765625-.107421875-3.5625-.5576171875-5.0615234375-1.35546875-1.498046875-.79296875-2.54443359375-2.142578125-3.138671875-4.044921875-.20361328125-.671875-.583984375-3.1806640625-1.14453125-7.5322265625-.560546875-4.34765625-1.20849609375-9.5869140625-1.9384765625-15.71875-.73291015625-6.1279296875-1.49853515625-12.74853515625-2.2978515625-19.86083984375-.80126953125-7.109375-1.51171875-13.76708984375-2.1357421875-19.96923828125-.625-6.2021484375-1.13134765625-11.48681640625-1.5205078125-15.85986328125-.388671875-4.37060546875-.578125-6.96337890625-.56640625-7.78076171875-.33349609375-.76953125-.306640625-1.47119140625.078125-2.10400390625.154296875-.6005859375.60693359375-1.15234375,1.357421875-1.658203125.7470703125-.50244140625,1.916015625-.9150390625,3.50537109375-1.23681640625,1.4716796875-.3046875,3.2626953125-.62255859375,5.3740234375-.95458984375,2.10888671875-.3291015625,4.1435546875-.56103515625,6.10546875-.69970703125,1.95947265625-.13525390625,3.65673828125-.06201171875,5.08935546875.21728515625,1.43212890625.28173828125,2.27099609375.9287109375,2.51904296875,1.9443359375l1.60986328125,11.13623046875c3.3486328125-3.8046875,7.07763671875-6.9033203125,11.19287109375-9.2958984375,4.1123046875-2.3896484375,8.37158203125-3.87060546875,12.7783203125-4.4384765625,4.40478515625-.56787109375,8.82568359375-.11767578125,13.2626953125,1.3447265625,4.43505859375,1.4658203125,8.70654296875,4.14404296875,12.8154296875,8.03515625Z"/>
  <path class="cls-1" d="M108.91796875,86.015625c3.8095703125-6.53955078125,8.6826171875-11.6171875,14.61669921875-15.234375,5.93115234375-3.61376953125,12.03076171875-5.50439453125,18.29150390625-5.6728515625,6.26171875-.16552734375,12.2138671875,1.56787109375,17.86083984375,5.203125,5.64404296875,3.6357421875,10.037109375,9.5,13.173828125,17.5869140625,3.61279296875,9.07568359375,6.06396484375,19.08642578125,7.35888671875,30.02880859375,1.29345703125,10.94580078125,2.29150390625,21.84228515625,2.990234375,32.68603515625.24169921875,3.6943359375-.53515625,6.23828125-2.33203125,7.6318359375-1.80029296875,1.392578125-4.23583984375,2.34765625-7.310546875,2.8603515625-2.06005859375.265625-4.1533203125.505859375-6.27685546875.72265625-2.12646484375.2138671875-4.12353515625.064453125-5.9921875-.4501953125-1.87109375-.513671875-3.50439453125-1.4677734375-4.90576171875-2.8583984375-1.40087890625-1.3896484375-2.34423828125-3.5068359375-2.82568359375-6.3544921875-.732421875-3.8603515625-1.2041015625-7.755859375-1.41796875-11.6845703125-.21728515625-3.92626953125-.40576171875-7.888671875-.5712890625-11.8818359375-.1650390625-3.9921875-.4501953125-7.9970703125-.8505859375-12.01904296875-.40380859375-4.01953125-1.21142578125-8.04638671875-2.4287109375-12.07861328125-1.87109375-6.39013671875-4.416015625-10.56982421875-7.63720703125-12.54052734375-3.22021484375-1.96875-6.3955078125-1.99560546875-9.521484375-.08251953125-3.12890625,1.91650390625-5.7841796875,5.69189453125-7.96533203125,11.32373046875-2.18359375,5.6337890625-3.1162109375,12.85205078125-2.794921875,21.65087890625.16064453125,4.8662109375.50390625,9.79541015625,1.03271484375,14.78857421875.52587890625,4.99365234375,1.2939453125,10.04345703125,2.30078125,15.14892578125.63818359375,2.2470703125.6171875,4.1083984375-.06494140625,5.5927734375-.6806640625,1.4833984375-1.7421875,2.728515625-3.1845703125,3.7265625-1.44091796875,1.0009765625-3.0615234375,1.763671875-4.853515625,2.283203125-1.79541015625.5234375-3.49365234375.88671875-5.09521484375,1.0927734375-4.3505859375.560546875-7.78173828125-.3330078125-10.2939453125-2.6875-2.51416015625-2.3515625-4.28857421875-5.73046875-5.31982421875-10.134765625-.859375-3.9609375-1.330078125-8.05859375-1.40966796875-12.296875-.08251953125-4.2353515625-.27392578125-8.42919921875-.57421875-12.57861328125-.15087890625-5.6796875-1.00537109375-10.5166015625-2.56591796875-14.50341796875-1.56103515625-3.98779296875-3.42626953125-6.94580078125-5.5947265625-8.8779296875-2.16796875-1.9296875-4.45751953125-2.76904296875-6.869140625-2.51806640625-2.41015625.25341796875-4.5419921875,1.779296875-6.3916015625,4.57568359375-1.8505859375,2.79931640625-3.2666015625,6.9384765625-4.24609375,12.41455078125-.982421875,5.4794921875-1.15673828125,12.482421875-.521484375,21.00927734375l3.7216796875,24.826171875c-.09765625,1.0595703125-.37158203125,2.0849609375-.8251953125,3.07421875-.470703125.875-1.173828125,1.7216796875-2.11572265625,2.541015625s-2.37158203125,1.4677734375-4.2861328125,1.9482421875c-2.03125.4931640625-4.10205078125.9052734375-6.2109375,1.236328125-2.1123046875.3291015625-4.10498046875.44140625-5.97802734375.333984375-1.8759765625-.107421875-3.5625-.5576171875-5.0615234375-1.35546875-1.498046875-.79296875-2.54443359375-2.142578125-3.138671875-4.044921875-.20361328125-.671875-.583984375-3.1806640625-1.14453125-7.5322265625-.560546875-4.34765625-1.20849609375-9.5869140625-1.9384765625-15.71875-.73291015625-6.1279296875-1.49853515625-12.74853515625-2.2978515625-19.86083984375-.80126953125-7.109375-1.51171875-13.76708984375-2.1357421875-19.96923828125-.625-6.2021484375-1.13134765625-11.48681640625-1.5205078125-15.85986328125-.388671875-4.37060546875-.578125-6.96337890625-.56640625-7.78076171875-.33349609375-.76953125-.306640625-1.47119140625.078125-2.10400390625.154296875-.6005859375.60693359375-1.15234375,1.357421875-1.658203125.7470703125-.50244140625,1.916015625-.9150390625,3.50537109375-1.23681640625,1.4716796875-.3046875,3.2626953125-.62255859375,5.3740234375-.95458984375,2.10888671875-.3291015625,4.1435546875-.56103515625,6.10546875-.69970703125,1.95947265625-.13525390625,3.65673828125-.06201171875,5.08935546875.21728515625,1.43212890625.28173828125,2.27099609375.9287109375,2.51904296875,1.9443359375l1.60986328125,11.13623046875c3.3486328125-3.8046875,7.07763671875-6.9033203125,11.19287109375-9.2958984375,4.1123046875-2.3896484375,8.37158203125-3.87060546875,12.7783203125-4.4384765625,4.40478515625-.56787109375,8.82568359375-.11767578125,13.2626953125,1.3447265625,4.43505859375,1.4658203125,8.70654296875,4.14404296875,12.8154296875,8.03515625Z"/>
  <path class="cls-2" d="M108.91796875,86.015625c3.8095703125-6.53955078125,8.6826171875-11.6171875,14.61669921875-15.234375,5.93115234375-3.61376953125,12.03076171875-5.50439453125,18.29150390625-5.6728515625,6.26171875-.16552734375,12.2138671875,1.56787109375,17.86083984375,5.203125,5.64404296875,3.6357421875,10.037109375,9.5,13.173828125,17.5869140625,3.61279296875,9.07568359375,6.06396484375,19.08642578125,7.35888671875,30.02880859375,1.29345703125,10.94580078125,2.29150390625,21.84228515625,2.990234375,32.68603515625.24169921875,3.6943359375-.53515625,6.23828125-2.33203125,7.6318359375-1.80029296875,1.392578125-4.23583984375,2.34765625-7.310546875,2.8603515625-2.06005859375.265625-4.1533203125.505859375-6.27685546875.72265625-2.12646484375.2138671875-4.12353515625.064453125-5.9921875-.4501953125-1.87109375-.513671875-3.50439453125-1.4677734375-4.90576171875-2.8583984375-1.40087890625-1.3896484375-2.34423828125-3.5068359375-2.82568359375-6.3544921875-.732421875-3.8603515625-1.2041015625-7.755859375-1.41796875-11.6845703125-.21728515625-3.92626953125-.40576171875-7.888671875-.5712890625-11.8818359375-.1650390625-3.9921875-.4501953125-7.9970703125-.8505859375-12.01904296875-.40380859375-4.01953125-1.21142578125-8.04638671875-2.4287109375-12.07861328125-1.87109375-6.39013671875-4.416015625-10.56982421875-7.63720703125-12.54052734375-3.22021484375-1.96875-6.3955078125-1.99560546875-9.521484375-.08251953125-3.12890625,1.91650390625-5.7841796875,5.69189453125-7.96533203125,11.32373046875-2.18359375,5.6337890625-3.1162109375,12.85205078125-2.794921875,21.65087890625.16064453125,4.8662109375.50390625,9.79541015625,1.03271484375,14.78857421875.52587890625,4.99365234375,1.2939453125,10.04345703125,2.30078125,15.14892578125.63818359375,2.2470703125.6171875,4.1083984375-.06494140625,5.5927734375-.6806640625,1.4833984375-1.7421875,2.728515625-3.1845703125,3.7265625-1.44091796875,1.0009765625-3.0615234375,1.763671875-4.853515625,2.283203125-1.79541015625.5234375-3.49365234375.88671875-5.09521484375,1.0927734375-4.3505859375.560546875-7.78173828125-.3330078125-10.2939453125-2.6875-2.51416015625-2.3515625-4.28857421875-5.73046875-5.31982421875-10.134765625-.859375-3.9609375-1.330078125-8.05859375-1.40966796875-12.296875-.08251953125-4.2353515625-.27392578125-8.42919921875-.57421875-12.57861328125-.15087890625-5.6796875-1.00537109375-10.5166015625-2.56591796875-14.50341796875-1.56103515625-3.98779296875-3.42626953125-6.94580078125-5.5947265625-8.8779296875-2.16796875-1.9296875-4.45751953125-2.76904296875-6.869140625-2.51806640625-2.41015625.25341796875-4.5419921875,1.779296875-6.3916015625,4.57568359375-1.8505859375,2.79931640625-3.2666015625,6.9384765625-4.24609375,12.41455078125-.982421875,5.4794921875-1.15673828125,12.482421875-.521484375,21.00927734375l3.7216796875,24.826171875c-.09765625,1.0595703125-.37158203125,2.0849609375-.8251953125,3.07421875-.470703125.875-1.173828125,1.7216796875-2.11572265625,2.541015625s-2.37158203125,1.4677734375-4.2861328125,1.9482421875c-2.03125.4931640625-4.10205078125.9052734375-6.2109375,1.236328125-2.1123046875.3291015625-4.10498046875.44140625-5.97802734375.333984375-1.8759765625-.107421875-3.5625-.5576171875-5.0615234375-1.35546875-1.498046875-.79296875-2.54443359375-2.142578125-3.138671875-4.044921875-.20361328125-.671875-.583984375-3.1806640625-1.14453125-7.5322265625-.560546875-4.34765625-1.20849609375-9.5869140625-1.9384765625-15.71875-.73291015625-6.1279296875-1.49853515625-12.74853515625-2.2978515625-19.86083984375-.80126953125-7.109375-1.51171875-13.76708984375-2.1357421875-19.96923828125-.625-6.2021484375-1.13134765625-11.48681640625-1.5205078125-15.85986328125-.388671875-4.37060546875-.578125-6.96337890625-.56640625-7.78076171875-.33349609375-.76953125-.306640625-1.47119140625.078125-2.10400390625.154296875-.6005859375.60693359375-1.15234375,1.357421875-1.658203125.7470703125-.50244140625,1.916015625-.9150390625,3.50537109375-1.23681640625,1.4716796875-.3046875,3.2626953125-.62255859375,5.3740234375-.95458984375,2.10888671875-.3291015625,4.1435546875-.56103515625,6.10546875-.69970703125,1.95947265625-.13525390625,3.65673828125-.06201171875,5.08935546875.21728515625,1.43212890625.28173828125,2.27099609375.9287109375,2.51904296875,1.9443359375l1.60986328125,11.13623046875c3.3486328125-3.8046875,7.07763671875-6.9033203125,11.19287109375-9.2958984375,4.1123046875-2.3896484375,8.37158203125-3.87060546875,12.7783203125-4.4384765625,4.40478515625-.56787109375,8.82568359375-.11767578125,13.2626953125,1.3447265625,4.43505859375,1.4658203125,8.70654296875,4.14404296875,12.8154296875,8.03515625Z"/>
  <path class="cls-3" d="M108.91796875,86.015625c3.8095703125-6.53955078125,8.6826171875-11.6171875,14.61669921875-15.234375,5.93115234375-3.61376953125,12.03076171875-5.50439453125,18.29150390625-5.6728515625,6.26171875-.16552734375,12.2138671875,1.56787109375,17.86083984375,5.203125,5.64404296875,3.6357421875,10.037109375,9.5,13.173828125,17.5869140625,3.61279296875,9.07568359375,6.06396484375,19.08642578125,7.35888671875,30.02880859375,1.29345703125,10.94580078125,2.29150390625,21.84228515625,2.990234375,32.68603515625.24169921875,3.6943359375-.53515625,6.23828125-2.33203125,7.6318359375-1.80029296875,1.392578125-4.23583984375,2.34765625-7.310546875,2.8603515625-2.06005859375.265625-4.1533203125.505859375-6.27685546875.72265625-2.12646484375.2138671875-4.12353515625.064453125-5.9921875-.4501953125-1.87109375-.513671875-3.50439453125-1.4677734375-4.90576171875-2.8583984375-1.40087890625-1.3896484375-2.34423828125-3.5068359375-2.82568359375-6.3544921875-.732421875-3.8603515625-1.2041015625-7.755859375-1.41796875-11.6845703125-.21728515625-3.92626953125-.40576171875-7.888671875-.5712890625-11.8818359375-.1650390625-3.9921875-.4501953125-7.9970703125-.8505859375-12.01904296875-.40380859375-4.01953125-1.21142578125-8.04638671875-2.4287109375-12.07861328125-1.87109375-6.39013671875-4.416015625-10.56982421875-7.63720703125-12.54052734375-3.22021484375-1.96875-6.3955078125-1.99560546875-9.521484375-.08251953125-3.12890625,1.91650390625-5.7841796875,5.69189453125-7.96533203125,11.32373046875-2.18359375,5.6337890625-3.1162109375,12.85205078125-2.794921875,21.65087890625.16064453125,4.8662109375.50390625,9.79541015625,1.03271484375,14.78857421875.52587890625,4.99365234375,1.2939453125,10.04345703125,2.30078125,15.14892578125.63818359375,2.2470703125.6171875,4.1083984375-.06494140625,5.5927734375-.6806640625,1.4833984375-1.7421875,2.728515625-3.1845703125,3.7265625-1.44091796875,1.0009765625-3.0615234375,1.763671875-4.853515625,2.283203125-1.79541015625.5234375-3.49365234375.88671875-5.09521484375,1.0927734375-4.3505859375.560546875-7.78173828125-.3330078125-10.2939453125-2.6875-2.51416015625-2.3515625-4.28857421875-5.73046875-5.31982421875-10.134765625-.859375-3.9609375-1.330078125-8.05859375-1.40966796875-12.296875-.08251953125-4.2353515625-.27392578125-8.42919921875-.57421875-12.57861328125-.15087890625-5.6796875-1.00537109375-10.5166015625-2.56591796875-14.50341796875-1.56103515625-3.98779296875-3.42626953125-6.94580078125-5.5947265625-8.8779296875-2.16796875-1.9296875-4.45751953125-2.76904296875-6.869140625-2.51806640625-2.41015625.25341796875-4.5419921875,1.779296875-6.3916015625,4.57568359375-1.8505859375,2.79931640625-3.2666015625,6.9384765625-4.24609375,12.41455078125-.982421875,5.4794921875-1.15673828125,12.482421875-.521484375,21.00927734375l3.7216796875,24.826171875c-.09765625,1.0595703125-.37158203125,2.0849609375-.8251953125,3.07421875-.470703125.875-1.173828125,1.7216796875-2.11572265625,2.541015625s-2.37158203125,1.4677734375-4.2861328125,1.9482421875c-2.03125.4931640625-4.10205078125.9052734375-6.2109375,1.236328125-2.1123046875.3291015625-4.10498046875.44140625-5.97802734375.333984375-1.8759765625-.107421875-3.5625-.5576171875-5.0615234375-1.35546875-1.498046875-.79296875-2.54443359375-2.142578125-3.138671875-4.044921875-.20361328125-.671875-.583984375-3.1806640625-1.14453125-7.5322265625-.560546875-4.34765625-1.20849609375-9.5869140625-1.9384765625-15.71875-.73291015625-6.1279296875-1.49853515625-12.74853515625-2.2978515625-19.86083984375-.80126953125-7.109375-1.51171875-13.76708984375-2.1357421875-19.96923828125-.625-6.2021484375-1.13134765625-11.48681640625-1.5205078125-15.85986328125-.388671875-4.37060546875-.578125-6.96337890625-.56640625-7.78076171875-.33349609375-.76953125-.306640625-1.47119140625.078125-2.10400390625.154296875-.6005859375.60693359375-1.15234375,1.357421875-1.658203125.7470703125-.50244140625,1.916015625-.9150390625,3.50537109375-1.23681640625,1.4716796875-.3046875,3.2626953125-.62255859375,5.3740234375-.95458984375,2.10888671875-.3291015625,4.1435546875-.56103515625,6.10546875-.69970703125,1.95947265625-.13525390625,3.65673828125-.06201171875,5.08935546875.21728515625,1.43212890625.28173828125,2.27099609375.9287109375,2.51904296875,1.9443359375l1.60986328125,11.13623046875c3.3486328125-3.8046875,7.07763671875-6.9033203125,11.19287109375-9.2958984375,4.1123046875-2.3896484375,8.37158203125-3.87060546875,12.7783203125-4.4384765625,4.40478515625-.56787109375,8.82568359375-.11767578125,13.2626953125,1.3447265625,4.43505859375,1.4658203125,8.70654296875,4.14404296875,12.8154296875,8.03515625Z"/>
</svg>