<?xml version="1.0" encoding="UTF-8"?>
<svg xmlns="http://www.w3.org/2000/svg" viewBox="0 0 280 280">
  <defs>
    <style>
      .cls-1 {
        stroke: #665451;
        stroke-width: 50px;
      }

      .cls-1, .cls-2 {
        fill: none;
        stroke-linecap: round;
        stroke-linejoin: round;
      }

      .cls-3 {
        fill: #fff;
      }

      .cls-4 {
        fill: #e11f26;
      }

      .cls-5 {
        fill: #ec1940;
      }

      .cls-2 {
        stroke: #998675;
        stroke-width: 2px;
      }
    </style>
  </defs>
  <g id="Layer_1">
    <g>
      <g>
        <path d="M74.416397817558391,119.617857606890539c-13.30230006003876,1.063588214475203-26.660847331526384,1.288228955605518-39.991369063061939.672699574474791-3.381809699727455-.156186597704618-6.485089869602234,3.400374874396221-6.220713509112102,6.681533073677201.300436795852875,3.725632875019983,3.05899307319487,6.053412509474583,6.681533073677201,6.220713509113921,13.330521731535555.615529381128908,26.689069003021359.390888639999503,39.99136906306012-.672699574475701,3.361167245062461-.268705839413997,6.509592668071491-3.096996008289352,6.220713509113921-6.681533073678111-.271274561520841-3.362442225009545-3.076315001550029-6.508964590586402-6.681533073677201-6.220713509112102Z"/>
        <path d="M136.274514330172678,118.144185110498256c-13.122910813533963-1.455174857736893-26.326343095985067-.290300532278707-39.466184606748357.3708196250318-3.370804823267463.169594529739697-6.503900097575752,3.168072657021185-6.22071350911574,6.681533073677201.277889648357814,3.447573705804643,3.068096767306997,6.402495865138917,6.68153307367902,6.220713509112102,11.917033585497848-.599573514361509,24.010867085704376-1.777015540195862,35.931400719160592-.718508662336717.029553406944615.003254904229834.059091813252962.006089813455219.088435222693079.009352218003187,1.79478354373714.198991668275994,3.359508758314405.17937636680017,4.947832404237488-.827909804675073,1.310135401517982-.830872717653619,2.53148915046404-2.410798908262223,2.826834528299514-3.961278651823704.317333021166633-1.664860934030003.169648679197053-3.51559876923875-.82769605701651-4.947734905805191-.892722556160152-1.281590619058989-2.335115651167143-2.646631686023284-3.961441775189087-2.826986401183603Z"/>
        <path d="M189.127631554889376,117.578146841493435c-12.309096223403685.07203801067044-24.618190571727609.144128520717459-36.927496792633974.216174031705123-3.379730008180559.019783818030191-6.495449364869273,3.275163874660393-6.220713509113921,6.681533073677201.288354148080543,3.575724670581621,3.060469046176877,6.241915278228589,6.681533073677201,6.220713509113011,12.309306220906365-.072045510987664,24.618400569232108-.144136021033773,36.927496792633974-.216174031705123,3.379730008180559-.019783818029282,6.495449364869273-3.275163874659484,6.220713509113921-6.681533073676292-.288354148078724-3.575724670581621-3.060259048676016-6.241922778547632-6.681533073677201-6.220713509113921Z"/>
        <path d="M246.687143875356924,116.100305227609169c-13.180999922362389.262297451780796-26.361789847218461.524587403242549-39.542577897000228.786929854081791-3.377824938706908.067235753383102-6.498340646319775,3.241309280477253-6.220713509112102,6.681533073678111.285014734015931,3.535210155997447,3.062074125735307,6.292742174266095,6.681533073677201,6.220713509112102,13.180788049779949-.262342450838332,26.361577974639658-.524632402300085,39.542577897000228-.786929854081791,3.377614941207867-.067228253065878,6.498130648818915-3.24130178015821,6.220713509112102-6.681533073676292-.285016609095692-3.535262655374027-3.062285998315929-6.292787173324541-6.681533073677201-6.220713509113921Z"/>
        <path d="M201.944237383517248,92.348495247626488c.246821444776288-1.296007657735572.038178942888408-2.569282201251553-.530466405327388-3.637305973243201-.000324993672621-.321116203295787-.017866043841423-.647399812129152-.007452970186932-.932786458619375.041537926179444-1.138861617474504.083077727431373-2.277670735575157.124407531184261-3.416472353356767.07785806504944-2.135344907961553.155718005175004-4.270637316546527.233577945302386-6.4059297251315.077859940125563-2.135292408586793.155509882748447-4.270577316852723.233369822875829-6.405869725438606.040233007726783-1.104752018172803.07793479493921-2.209729028778384.13501447989438-3.313768588031053.028316725123659-.549436059737673.06084465078311-1.098707129590366.10117436040855-1.647363221835803.016180624506887-.223984883532466.034678721862292-.447842273061724.053604314543918-.671504665727298.000367492777514-.001484983156843.000335616427037-.002377472545049.000493111698233-.003854955383758.157245979657091-1.437365813019824.14482745627538-2.685793530660703-.66219922012715-3.958196924455478-.664659174748522-1.048193820279266-1.928559252784908-2.025309819125141-3.169153795166494-2.26159962082329-2.465315516790724-.469677168481212-5.905516452841766.959520105399861-6.219693421608099,3.831296765759362-.365700447124254,3.342508695487595-.527647018323478,6.702866784971775-.644959739036494,10.064837268868359-14.360962529664903,1.393931361635623-28.689630913722795,2.544063042742891-43.128615771716795,2.583570566948765-2.442203616517872.006694655286083-4.884009784636874-.010805404181156-7.325491598227018-.036885362848807-.204950390248996-1.128691259865263-.688284192961873-2.168853026611032-1.554581765793046-2.975504311390978-.927189462507158-.863140498949178-2.419778022984246-1.484782756692766-3.703325773865799-1.38127399205041-1.332608413236812.107468812936531-2.701253163038928.595333198886692-3.595347439539182,1.641955059531028-.615368203812977.720427676411418-1.114269965997664,1.605118185209903-1.30703085839923,2.548524906414059-8.547656804887083-.181053789287944-17.094768109982397-.423366855456152-25.644472136582408-.473352190199876-7.685333609999361-.044954569872971-15.372414360494076.084883797325347-23.045531530100561.535035850867644-.05958839455343-1.792013700197458-.131148521855721-3.583652381620595-.18212514370498-5.375921095499507-.077117449069192-2.700785423173329-2.57643587300845-5.199833535534708-5.345226458941397-4.976570807289136-2.808416361292984.226465267202911-5.059129817274879,2.450875834547332-4.976570807291864,5.345226458941397.134270674452637,4.713086523966012.297526629554341,9.425295502115659.492698454951096,14.136259433112173.095907739272661,2.320269885010021.199377263736096,4.640322257933803.310401073063986,6.959947121265941.055915972909133,1.165238616737042.118692611011284,2.393048980481581.541395365555218,3.489992693518616.799952066197875,2.075133918032407,2.382862096244935,3.683216839474881,4.595361302392121,4.191939036491931,2.629940707482092.604727752841427,5.695415580810732-1.078543291067945,6.21969342160628-3.831296765760271.304557050465519-1.598696691422447-.098110726228697-3.229694129983727-1.044879381961437-4.440860476790476-.04323500353712-.910271655410725-.085838139490079-1.820513312401999-.126975043076527-2.730912470373369-.036711772780109-.815937783225309-.068383605488634-1.632055574091282-.10341727332343-2.448105859240059,13.966895804969681-.817817408233168,27.963397778297804-.530012943963811,41.942366897979809-.209148836521308,2.542511306874076.058374381046633,5.085768849781743.114093792029962,7.629300131480704.165703251070227.061968641899512.322121071914808.118724847814519.64547963930454.183824701462072.966963212686096.240648216218688,1.192125440775271,1.455176916513665,2.447083250824107,2.481870850515406,2.999577229181341,1.129178454821158.607865625107479,2.769394483793803.823889891672479,3.995304752757875.378235283443246,1.234422662448196-.448692088825737,2.411537788506394-1.265614713518517,2.999524729806581-2.481868975437465.158779814282752-.417160376347965.317561503645265-.834268253320261.476341317928018-1.251428629669135.035329910906512-.152915760796532.05344002656966-.305216495482455.075330097286496-.457652235899332,8.437662898391864.074382763531503,16.874571740863757-.013637551627653,25.302808020576776-.509315530849562,7.842403271788498-.461297249966265,15.663599986688496-1.210216058702827,23.481654216535389-1.970587225964664-.0427790919166,1.174756195554437-.085560058916599,2.349459891732295-.128339150835018,3.524216087286732-.053398412916067,1.460255341113225-.18893593066241,2.881391303910277.188492392369881,4.317901090535997.567745603428193,2.16138334858806,2.270708645866762,3.798663192145796,4.427942973528843,4.355459927985976,2.614995395213555.674911952130969,5.704985370819486-1.128507718965921,6.219903419107141-3.831304266078405ZM198.995465169933595,86.44343077078338c-.018594171531731-.008429864300524-.03819707882576-.015667240741095-.056783750040267-.02388710753803.016610440025033.005872398379324.033432752632507.011789795813456.050043192655721.017662194192781.002176853293349.002077471221128.004353706586699.004154942442256.006740557384546.00622491334525Z"/>
        <path d="M245.143469339434887,85.235335242105975c.086915536494416-6.97438709871949,5.775808157901338-13.937512086414245,5.862720815512148-20.912018191957941.023861618248702-1.914969638300136-5.990984493217184-1.268899013979535-8.363167314704697-1.124824637001439-2.490120886513978.151214230889309-8.754210897723169.433658732088588-8.779772726291412,2.485369287282992-.086912657608991,6.974506105544606,6.656058881246281,14.834127127360262,6.569143344751865,21.808514226080661-.023861618250521,1.914969638298317,1.475417209947409,4.161768518602003,2.126801017673642,3.941175183356791,2.208672096556256-.74797429481805,2.558715913379274-4.146386305742453,2.584274863058454-6.198215867761064Z"/>
        <path d="M39.469609400763147,85.235335242105975c.086915536494416-6.97438709871949,5.775808157901338-13.937512086414245,5.862720815512148-20.912018191957941.023861618248702-1.914969638300136-5.990984493217184-1.268899013979535-8.363167314704697-1.124824637001439-2.490120886513978.151214230889309-8.754210897723169.433658732088588-8.779772726291412,2.485369287282992-.086912657608991,6.974506105544606,6.656058881246281,14.834127127360262,6.569143344751865,21.808514226080661-.023861618250521,1.914969638298317,1.475417209947409,4.161768518602003,2.126801017673642,3.941175183356791,2.208672096556256-.74797429481805,2.558715913379274-4.146386305742453,2.584274863058454-6.198215867761064Z"/>
        <path d="M141.968996020266786,87.786256910041629c.338387888317811-6.980470477461495,11.789279697748498-14.082984241377744,12.127664707197255-21.063573725664355.092905936213356-1.91663989243807-11.854258591505641-1.127060291941234-16.563441277377933-.926451448280204-4.943309071224576.210559414349518-17.376251189400136.642234888657185-17.475783935717118,2.695734877582254-.338385009445119,6.98058948428752,12.850766401354122,14.684270684812873,12.512378513038129,21.664741162275277-.092905936218813,1.916639892436251,2.827780536226783,4.129053437793118,4.125195233871636,3.892831940826909,4.399193849098083-.800965303043995,5.174456891549198-4.209663810990605,5.27398675898803-6.26328280673988Z"/>
      </g>
      <g>
        <path class="cls-1" d="M74.416397817558391,119.617857606890539c-13.30230006003876,1.063588214475203-26.660847331526384,1.288228955605518-39.991369063061939.672699574474791-3.381809699727455-.156186597704618-6.485089869602234,3.400374874396221-6.220713509112102,6.681533073677201.300436795852875,3.725632875019983,3.05899307319487,6.053412509474583,6.681533073677201,6.220713509113921,13.330521731535555.615529381128908,26.689069003021359.390888639999503,39.99136906306012-.672699574475701,3.361167245062461-.268705839413997,6.509592668071491-3.096996008289352,6.220713509113921-6.681533073678111-.271274561520841-3.362442225009545-3.076315001550029-6.508964590586402-6.681533073677201-6.220713509112102Z"/>
        <path class="cls-1" d="M136.274514330172678,118.144185110498256c-13.122910813533963-1.455174857736893-26.326343095985067-.290300532278707-39.466184606748357.3708196250318-3.370804823267463.169594529739697-6.503900097575752,3.168072657021185-6.22071350911574,6.681533073677201.277889648357814,3.447573705804643,3.068096767306997,6.402495865138917,6.68153307367902,6.220713509112102,11.917033585497848-.599573514361509,24.010867085704376-1.777015540195862,35.931400719160592-.718508662336717.029553406944615.003254904229834.059091813252962.006089813455219.088435222693079.009352218003187,1.79478354373714.198991668275994,3.359508758314405.17937636680017,4.947832404237488-.827909804675073,1.310135401517982-.830872717653619,2.53148915046404-2.410798908262223,2.826834528299514-3.961278651823704.317333021166633-1.664860934030003.169648679197053-3.51559876923875-.82769605701651-4.947734905805191-.892722556160152-1.281590619058989-2.335115651167143-2.646631686023284-3.961441775189087-2.826986401183603Z"/>
        <path class="cls-1" d="M189.127631554889376,117.578146841493435c-12.309096223403685.07203801067044-24.618190571727609.144128520717459-36.927496792633974.216174031705123-3.379730008180559.019783818030191-6.495449364869273,3.275163874660393-6.220713509113921,6.681533073677201.288354148080543,3.575724670581621,3.060469046176877,6.241915278228589,6.681533073677201,6.220713509113011,12.309306220906365-.072045510987664,24.618400569232108-.144136021033773,36.927496792633974-.216174031705123,3.379730008180559-.019783818029282,6.495449364869273-3.275163874659484,6.220713509113921-6.681533073676292-.288354148078724-3.575724670581621-3.060259048676016-6.241922778547632-6.681533073677201-6.220713509113921Z"/>
        <path class="cls-1" d="M246.687143875356924,116.100305227609169c-13.180999922362389.262297451780796-26.361789847218461.524587403242549-39.542577897000228.786929854081791-3.377824938706908.067235753383102-6.498340646319775,3.241309280477253-6.220713509112102,6.681533073678111.285014734015931,3.535210155997447,3.062074125735307,6.292742174266095,6.681533073677201,6.220713509112102,13.180788049779949-.262342450838332,26.361577974639658-.524632402300085,39.542577897000228-.786929854081791,3.377614941207867-.067228253065878,6.498130648818915-3.24130178015821,6.220713509112102-6.681533073676292-.285016609095692-3.535262655374027-3.062285998315929-6.292787173324541-6.681533073677201-6.220713509113921Z"/>
        <path class="cls-1" d="M201.944237383517248,92.348495247626488c.246821444776288-1.296007657735572.038178942888408-2.569282201251553-.530466405327388-3.637305973243201-.000324993672621-.321116203295787-.017866043841423-.647399812129152-.007452970186932-.932786458619375.041537926179444-1.138861617474504.083077727431373-2.277670735575157.124407531184261-3.416472353356767.07785806504944-2.135344907961553.155718005175004-4.270637316546527.233577945302386-6.4059297251315.077859940125563-2.135292408586793.155509882748447-4.270577316852723.233369822875829-6.405869725438606.040233007726783-1.104752018172803.07793479493921-2.209729028778384.13501447989438-3.313768588031053.028316725123659-.549436059737673.06084465078311-1.098707129590366.10117436040855-1.647363221835803.016180624506887-.223984883532466.034678721862292-.447842273061724.053604314543918-.671504665727298.000367492777514-.001484983156843.000335616427037-.002377472545049.000493111698233-.003854955383758.157245979657091-1.437365813019824.14482745627538-2.685793530660703-.66219922012715-3.958196924455478-.664659174748522-1.048193820279266-1.928559252784908-2.025309819125141-3.169153795166494-2.26159962082329-2.465315516790724-.469677168481212-5.905516452841766.959520105399861-6.219693421608099,3.831296765759362-.365700447124254,3.342508695487595-.527647018323478,6.702866784971775-.644959739036494,10.064837268868359-14.360962529664903,1.393931361635623-28.689630913722795,2.544063042742891-43.128615771716795,2.583570566948765-2.442203616517872.006694655286083-4.884009784636874-.010805404181156-7.325491598227018-.036885362848807-.204950390248996-1.128691259865263-.688284192961873-2.168853026611032-1.554581765793046-2.975504311390978-.927189462507158-.863140498949178-2.419778022984246-1.484782756692766-3.703325773865799-1.38127399205041-1.332608413236812.107468812936531-2.701253163038928.595333198886692-3.595347439539182,1.641955059531028-.615368203812977.720427676411418-1.114269965997664,1.605118185209903-1.30703085839923,2.548524906414059-8.547656804887083-.181053789287944-17.094768109982397-.423366855456152-25.644472136582408-.473352190199876-7.685333609999361-.044954569872971-15.372414360494076.084883797325347-23.045531530100561.535035850867644-.05958839455343-1.792013700197458-.131148521855721-3.583652381620595-.18212514370498-5.375921095499507-.077117449069192-2.700785423173329-2.57643587300845-5.199833535534708-5.345226458941397-4.976570807289136-2.808416361292984.226465267202911-5.059129817274879,2.450875834547332-4.976570807291864,5.345226458941397.134270674452637,4.713086523966012.297526629554341,9.425295502115659.492698454951096,14.136259433112173.095907739272661,2.320269885010021.199377263736096,4.640322257933803.310401073063986,6.959947121265941.055915972909133,1.165238616737042.118692611011284,2.393048980481581.541395365555218,3.489992693518616.799952066197875,2.075133918032407,2.382862096244935,3.683216839474881,4.595361302392121,4.191939036491931,2.629940707482092.604727752841427,5.695415580810732-1.078543291067945,6.21969342160628-3.831296765760271.304557050465519-1.598696691422447-.098110726228697-3.229694129983727-1.044879381961437-4.440860476790476-.04323500353712-.910271655410725-.085838139490079-1.820513312401999-.126975043076527-2.730912470373369-.036711772780109-.815937783225309-.068383605488634-1.632055574091282-.10341727332343-2.448105859240059,13.966895804969681-.817817408233168,27.963397778297804-.530012943963811,41.942366897979809-.209148836521308,2.542511306874076.058374381046633,5.085768849781743.114093792029962,7.629300131480704.165703251070227.061968641899512.322121071914808.118724847814519.64547963930454.183824701462072.966963212686096.240648216218688,1.192125440775271,1.455176916513665,2.447083250824107,2.481870850515406,2.999577229181341,1.129178454821158.607865625107479,2.769394483793803.823889891672479,3.995304752757875.378235283443246,1.234422662448196-.448692088825737,2.411537788506394-1.265614713518517,2.999524729806581-2.481868975437465.158779814282752-.417160376347965.317561503645265-.834268253320261.476341317928018-1.251428629669135.035329910906512-.152915760796532.05344002656966-.305216495482455.075330097286496-.457652235899332,8.437662898391864.074382763531503,16.874571740863757-.013637551627653,25.302808020576776-.509315530849562,7.842403271788498-.461297249966265,15.663599986688496-1.210216058702827,23.481654216535389-1.970587225964664-.0427790919166,1.174756195554437-.085560058916599,2.349459891732295-.128339150835018,3.524216087286732-.053398412916067,1.460255341113225-.18893593066241,2.881391303910277.188492392369881,4.317901090535997.567745603428193,2.16138334858806,2.270708645866762,3.798663192145796,4.427942973528843,4.355459927985976,2.614995395213555.674911952130969,5.704985370819486-1.128507718965921,6.219903419107141-3.831304266078405ZM198.995465169933595,86.44343077078338c-.018594171531731-.008429864300524-.03819707882576-.015667240741095-.056783750040267-.02388710753803.016610440025033.005872398379324.033432752632507.011789795813456.050043192655721.017662194192781.002176853293349.002077471221128.004353706586699.004154942442256.006740557384546.00622491334525Z"/>
        <path class="cls-1" d="M245.143469339434887,85.235335242105975c.086915536494416-6.97438709871949,5.775808157901338-13.937512086414245,5.862720815512148-20.912018191957941.023861618248702-1.914969638300136-5.990984493217184-1.268899013979535-8.363167314704697-1.124824637001439-2.490120886513978.151214230889309-8.754210897723169.433658732088588-8.779772726291412,2.485369287282992-.086912657608991,6.974506105544606,6.656058881246281,14.834127127360262,6.569143344751865,21.808514226080661-.023861618250521,1.914969638298317,1.475417209947409,4.161768518602003,2.126801017673642,3.941175183356791,2.208672096556256-.74797429481805,2.558715913379274-4.146386305742453,2.584274863058454-6.198215867761064Z"/>
        <path class="cls-1" d="M39.469609400763147,85.235335242105975c.086915536494416-6.97438709871949,5.775808157901338-13.937512086414245,5.862720815512148-20.912018191957941.023861618248702-1.914969638300136-5.990984493217184-1.268899013979535-8.363167314704697-1.124824637001439-2.490120886513978.151214230889309-8.754210897723169.433658732088588-8.779772726291412,2.485369287282992-.086912657608991,6.974506105544606,6.656058881246281,14.834127127360262,6.569143344751865,21.808514226080661-.023861618250521,1.914969638298317,1.475417209947409,4.161768518602003,2.126801017673642,3.941175183356791,2.208672096556256-.74797429481805,2.558715913379274-4.146386305742453,2.584274863058454-6.198215867761064Z"/>
        <path class="cls-1" d="M141.968996020266786,87.786256910041629c.338387888317811-6.980470477461495,11.789279697748498-14.082984241377744,12.127664707197255-21.063573725664355.092905936213356-1.91663989243807-11.854258591505641-1.127060291941234-16.563441277377933-.926451448280204-4.943309071224576.210559414349518-17.376251189400136.642234888657185-17.475783935717118,2.695734877582254-.338385009445119,6.98058948428752,12.850766401354122,14.684270684812873,12.512378513038129,21.664741162275277-.092905936218813,1.916639892436251,2.827780536226783,4.129053437793118,4.125195233871636,3.892831940826909,4.399193849098083-.800965303043995,5.174456891549198-4.209663810990605,5.27398675898803-6.26328280673988Z"/>
      </g>
      <g>
        <path class="cls-2" d="M74.416397817558391,119.617857606890539c-13.30230006003876,1.063588214475203-26.660847331526384,1.288228955605518-39.991369063061939.672699574474791-3.381809699727455-.156186597704618-6.485089869602234,3.400374874396221-6.220713509112102,6.681533073677201.300436795852875,3.725632875019983,3.05899307319487,6.053412509474583,6.681533073677201,6.220713509113921,13.330521731535555.615529381128908,26.689069003021359.390888639999503,39.99136906306012-.672699574475701,3.361167245062461-.268705839413997,6.509592668071491-3.096996008289352,6.220713509113921-6.681533073678111-.271274561520841-3.362442225009545-3.076315001550029-6.508964590586402-6.681533073677201-6.220713509112102Z"/>
        <path class="cls-2" d="M136.274514330172678,118.144185110498256c-13.122910813533963-1.455174857736893-26.326343095985067-.290300532278707-39.466184606748357.3708196250318-3.370804823267463.169594529739697-6.503900097575752,3.168072657021185-6.22071350911574,6.681533073677201.277889648357814,3.447573705804643,3.068096767306997,6.402495865138917,6.68153307367902,6.220713509112102,11.917033585497848-.599573514361509,24.010867085704376-1.777015540195862,35.931400719160592-.718508662336717.029553406944615.003254904229834.059091813252962.006089813455219.088435222693079.009352218003187,1.79478354373714.198991668275994,3.359508758314405.17937636680017,4.947832404237488-.827909804675073,1.310135401517982-.830872717653619,2.53148915046404-2.410798908262223,2.826834528299514-3.961278651823704.317333021166633-1.664860934030003.169648679197053-3.51559876923875-.82769605701651-4.947734905805191-.892722556160152-1.281590619058989-2.335115651167143-2.646631686023284-3.961441775189087-2.826986401183603Z"/>
        <path class="cls-2" d="M189.127631554889376,117.578146841493435c-12.309096223403685.07203801067044-24.618190571727609.144128520717459-36.927496792633974.216174031705123-3.379730008180559.019783818030191-6.495449364869273,3.275163874660393-6.220713509113921,6.681533073677201.288354148080543,3.575724670581621,3.060469046176877,6.241915278228589,6.681533073677201,6.220713509113011,12.309306220906365-.072045510987664,24.618400569232108-.144136021033773,36.927496792633974-.216174031705123,3.379730008180559-.019783818029282,6.495449364869273-3.275163874659484,6.220713509113921-6.681533073676292-.288354148078724-3.575724670581621-3.060259048676016-6.241922778547632-6.681533073677201-6.220713509113921Z"/>
        <path class="cls-2" d="M246.687143875356924,116.100305227609169c-13.180999922362389.262297451780796-26.361789847218461.524587403242549-39.542577897000228.786929854081791-3.377824938706908.067235753383102-6.498340646319775,3.241309280477253-6.220713509112102,6.681533073678111.285014734015931,3.535210155997447,3.062074125735307,6.292742174266095,6.681533073677201,6.220713509112102,13.180788049779949-.262342450838332,26.361577974639658-.524632402300085,39.542577897000228-.786929854081791,3.377614941207867-.067228253065878,6.498130648818915-3.24130178015821,6.220713509112102-6.681533073676292-.285016609095692-3.535262655374027-3.062285998315929-6.292787173324541-6.681533073677201-6.220713509113921Z"/>
        <path class="cls-2" d="M201.944237383517248,92.348495247626488c.246821444776288-1.296007657735572.038178942888408-2.569282201251553-.530466405327388-3.637305973243201-.000324993672621-.321116203295787-.017866043841423-.647399812129152-.007452970186932-.932786458619375.041537926179444-1.138861617474504.083077727431373-2.277670735575157.124407531184261-3.416472353356767.07785806504944-2.135344907961553.155718005175004-4.270637316546527.233577945302386-6.4059297251315.077859940125563-2.135292408586793.155509882748447-4.270577316852723.233369822875829-6.405869725438606.040233007726783-1.104752018172803.07793479493921-2.209729028778384.13501447989438-3.313768588031053.028316725123659-.549436059737673.06084465078311-1.098707129590366.10117436040855-1.647363221835803.016180624506887-.223984883532466.034678721862292-.447842273061724.053604314543918-.671504665727298.000367492777514-.001484983156843.000335616427037-.002377472545049.000493111698233-.003854955383758.157245979657091-1.437365813019824.14482745627538-2.685793530660703-.66219922012715-3.958196924455478-.664659174748522-1.048193820279266-1.928559252784908-2.025309819125141-3.169153795166494-2.26159962082329-2.465315516790724-.469677168481212-5.905516452841766.959520105399861-6.219693421608099,3.831296765759362-.365700447124254,3.342508695487595-.527647018323478,6.702866784971775-.644959739036494,10.064837268868359-14.360962529664903,1.393931361635623-28.689630913722795,2.544063042742891-43.128615771716795,2.583570566948765-2.442203616517872.006694655286083-4.884009784636874-.010805404181156-7.325491598227018-.036885362848807-.204950390248996-1.128691259865263-.688284192961873-2.168853026611032-1.554581765793046-2.975504311390978-.927189462507158-.863140498949178-2.419778022984246-1.484782756692766-3.703325773865799-1.38127399205041-1.332608413236812.107468812936531-2.701253163038928.595333198886692-3.595347439539182,1.641955059531028-.615368203812977.720427676411418-1.114269965997664,1.605118185209903-1.30703085839923,2.548524906414059-8.547656804887083-.181053789287944-17.094768109982397-.423366855456152-25.644472136582408-.473352190199876-7.685333609999361-.044954569872971-15.372414360494076.084883797325347-23.045531530100561.535035850867644-.05958839455343-1.792013700197458-.131148521855721-3.583652381620595-.18212514370498-5.375921095499507-.077117449069192-2.700785423173329-2.57643587300845-5.199833535534708-5.345226458941397-4.976570807289136-2.808416361292984.226465267202911-5.059129817274879,2.450875834547332-4.976570807291864,5.345226458941397.134270674452637,4.713086523966012.297526629554341,9.425295502115659.492698454951096,14.136259433112173.095907739272661,2.320269885010021.199377263736096,4.640322257933803.310401073063986,6.959947121265941.055915972909133,1.165238616737042.118692611011284,2.393048980481581.541395365555218,3.489992693518616.799952066197875,2.075133918032407,2.382862096244935,3.683216839474881,4.595361302392121,4.191939036491931,2.629940707482092.604727752841427,5.695415580810732-1.078543291067945,6.21969342160628-3.831296765760271.304557050465519-1.598696691422447-.098110726228697-3.229694129983727-1.044879381961437-4.440860476790476-.04323500353712-.910271655410725-.085838139490079-1.820513312401999-.126975043076527-2.730912470373369-.036711772780109-.815937783225309-.068383605488634-1.632055574091282-.10341727332343-2.448105859240059,13.966895804969681-.817817408233168,27.963397778297804-.530012943963811,41.942366897979809-.209148836521308,2.542511306874076.058374381046633,5.085768849781743.114093792029962,7.629300131480704.165703251070227.061968641899512.322121071914808.118724847814519.64547963930454.183824701462072.966963212686096.240648216218688,1.192125440775271,1.455176916513665,2.447083250824107,2.481870850515406,2.999577229181341,1.129178454821158.607865625107479,2.769394483793803.823889891672479,3.995304752757875.378235283443246,1.234422662448196-.448692088825737,2.411537788506394-1.265614713518517,2.999524729806581-2.481868975437465.158779814282752-.417160376347965.317561503645265-.834268253320261.476341317928018-1.251428629669135.035329910906512-.152915760796532.05344002656966-.305216495482455.075330097286496-.457652235899332,8.437662898391864.074382763531503,16.874571740863757-.013637551627653,25.302808020576776-.509315530849562,7.842403271788498-.461297249966265,15.663599986688496-1.210216058702827,23.481654216535389-1.970587225964664-.0427790919166,1.174756195554437-.085560058916599,2.349459891732295-.128339150835018,3.524216087286732-.053398412916067,1.460255341113225-.18893593066241,2.881391303910277.188492392369881,4.317901090535997.567745603428193,2.16138334858806,2.270708645866762,3.798663192145796,4.427942973528843,4.355459927985976,2.614995395213555.674911952130969,5.704985370819486-1.128507718965921,6.219903419107141-3.831304266078405ZM198.995465169933595,86.44343077078338c-.018594171531731-.008429864300524-.03819707882576-.015667240741095-.056783750040267-.02388710753803.016610440025033.005872398379324.033432752632507.011789795813456.050043192655721.017662194192781.002176853293349.002077471221128.004353706586699.004154942442256.006740557384546.00622491334525Z"/>
        <path class="cls-2" d="M245.143469339434887,85.235335242105975c.086915536494416-6.97438709871949,5.775808157901338-13.937512086414245,5.862720815512148-20.912018191957941.023861618248702-1.914969638300136-5.990984493217184-1.268899013979535-8.363167314704697-1.124824637001439-2.490120886513978.151214230889309-8.754210897723169.433658732088588-8.779772726291412,2.485369287282992-.086912657608991,6.974506105544606,6.656058881246281,14.834127127360262,6.569143344751865,21.808514226080661-.023861618250521,1.914969638298317,1.475417209947409,4.161768518602003,2.126801017673642,3.941175183356791,2.208672096556256-.74797429481805,2.558715913379274-4.146386305742453,2.584274863058454-6.198215867761064Z"/>
        <path class="cls-2" d="M39.469609400763147,85.235335242105975c.086915536494416-6.97438709871949,5.775808157901338-13.937512086414245,5.862720815512148-20.912018191957941.023861618248702-1.914969638300136-5.990984493217184-1.268899013979535-8.363167314704697-1.124824637001439-2.490120886513978.151214230889309-8.754210897723169.433658732088588-8.779772726291412,2.485369287282992-.086912657608991,6.974506105544606,6.656058881246281,14.834127127360262,6.569143344751865,21.808514226080661-.023861618250521,1.914969638298317,1.475417209947409,4.161768518602003,2.126801017673642,3.941175183356791,2.208672096556256-.74797429481805,2.558715913379274-4.146386305742453,2.584274863058454-6.198215867761064Z"/>
        <path class="cls-2" d="M141.968996020266786,87.786256910041629c.338387888317811-6.980470477461495,11.789279697748498-14.082984241377744,12.127664707197255-21.063573725664355.092905936213356-1.91663989243807-11.854258591505641-1.127060291941234-16.563441277377933-.926451448280204-4.943309071224576.210559414349518-17.376251189400136.642234888657185-17.475783935717118,2.695734877582254-.338385009445119,6.98058948428752,12.850766401354122,14.684270684812873,12.512378513038129,21.664741162275277-.092905936218813,1.916639892436251,2.827780536226783,4.129053437793118,4.125195233871636,3.892831940826909,4.399193849098083-.800965303043995,5.174456891549198-4.209663810990605,5.27398675898803-6.26328280673988Z"/>
      </g>
      <g>
        <path class="cls-3" d="M74.416397817558391,119.617857606890539c-13.30230006003876,1.063588214475203-26.660847331526384,1.288228955605518-39.991369063061939.672699574474791-3.381809699727455-.156186597704618-6.485089869602234,3.400374874396221-6.220713509112102,6.681533073677201.300436795852875,3.725632875019983,3.05899307319487,6.053412509474583,6.681533073677201,6.220713509113921,13.330521731535555.615529381128908,26.689069003021359.390888639999503,39.99136906306012-.672699574475701,3.361167245062461-.268705839413997,6.509592668071491-3.096996008289352,6.220713509113921-6.681533073678111-.271274561520841-3.362442225009545-3.076315001550029-6.508964590586402-6.681533073677201-6.220713509112102Z"/>
        <path class="cls-3" d="M136.274514330172678,118.144185110498256c-13.122910813533963-1.455174857736893-26.326343095985067-.290300532278707-39.466184606748357.3708196250318-3.370804823267463.169594529739697-6.503900097575752,3.168072657021185-6.22071350911574,6.681533073677201.277889648357814,3.447573705804643,3.068096767306997,6.402495865138917,6.68153307367902,6.220713509112102,11.917033585497848-.599573514361509,24.010867085704376-1.777015540195862,35.931400719160592-.718508662336717.029553406944615.003254904229834.059091813252962.006089813455219.088435222693079.009352218003187,1.79478354373714.198991668275994,3.359508758314405.17937636680017,4.947832404237488-.827909804675073,1.310135401517982-.830872717653619,2.53148915046404-2.410798908262223,2.826834528299514-3.961278651823704.317333021166633-1.664860934030003.169648679197053-3.51559876923875-.82769605701651-4.947734905805191-.892722556160152-1.281590619058989-2.335115651167143-2.646631686023284-3.961441775189087-2.826986401183603Z"/>
        <path class="cls-3" d="M189.127631554889376,117.578146841493435c-12.309096223403685.07203801067044-24.618190571727609.144128520717459-36.927496792633974.216174031705123-3.379730008180559.019783818030191-6.495449364869273,3.275163874660393-6.220713509113921,6.681533073677201.288354148080543,3.575724670581621,3.060469046176877,6.241915278228589,6.681533073677201,6.220713509113011,12.309306220906365-.072045510987664,24.618400569232108-.144136021033773,36.927496792633974-.216174031705123,3.379730008180559-.019783818029282,6.495449364869273-3.275163874659484,6.220713509113921-6.681533073676292-.288354148078724-3.575724670581621-3.060259048676016-6.241922778547632-6.681533073677201-6.220713509113921Z"/>
        <path class="cls-3" d="M246.687143875356924,116.100305227609169c-13.180999922362389.262297451780796-26.361789847218461.524587403242549-39.542577897000228.786929854081791-3.377824938706908.067235753383102-6.498340646319775,3.241309280477253-6.220713509112102,6.681533073678111.285014734015931,3.535210155997447,3.062074125735307,6.292742174266095,6.681533073677201,6.220713509112102,13.180788049779949-.262342450838332,26.361577974639658-.524632402300085,39.542577897000228-.786929854081791,3.377614941207867-.067228253065878,6.498130648818915-3.24130178015821,6.220713509112102-6.681533073676292-.285016609095692-3.535262655374027-3.062285998315929-6.292787173324541-6.681533073677201-6.220713509113921Z"/>
        <path class="cls-3" d="M201.944237383517248,92.348495247626488c.246821444776288-1.296007657735572.038178942888408-2.569282201251553-.530466405327388-3.637305973243201-.000324993672621-.321116203295787-.017866043841423-.647399812129152-.007452970186932-.932786458619375.041537926179444-1.138861617474504.083077727431373-2.277670735575157.124407531184261-3.416472353356767.07785806504944-2.135344907961553.155718005175004-4.270637316546527.233577945302386-6.4059297251315.077859940125563-2.135292408586793.155509882748447-4.270577316852723.233369822875829-6.405869725438606.040233007726783-1.104752018172803.07793479493921-2.209729028778384.13501447989438-3.313768588031053.028316725123659-.549436059737673.06084465078311-1.098707129590366.10117436040855-1.647363221835803.016180624506887-.223984883532466.034678721862292-.447842273061724.053604314543918-.671504665727298.000367492777514-.001484983156843.000335616427037-.002377472545049.000493111698233-.003854955383758.157245979657091-1.437365813019824.14482745627538-2.685793530660703-.66219922012715-3.958196924455478-.664659174748522-1.048193820279266-1.928559252784908-2.025309819125141-3.169153795166494-2.26159962082329-2.465315516790724-.469677168481212-5.905516452841766.959520105399861-6.219693421608099,3.831296765759362-.365700447124254,3.342508695487595-.527647018323478,6.702866784971775-.644959739036494,10.064837268868359-14.360962529664903,1.393931361635623-28.689630913722795,2.544063042742891-43.128615771716795,2.583570566948765-2.442203616517872.006694655286083-4.884009784636874-.010805404181156-7.325491598227018-.036885362848807-.204950390248996-1.128691259865263-.688284192961873-2.168853026611032-1.554581765793046-2.975504311390978-.927189462507158-.863140498949178-2.419778022984246-1.484782756692766-3.703325773865799-1.38127399205041-1.332608413236812.107468812936531-2.701253163038928.595333198886692-3.595347439539182,1.641955059531028-.615368203812977.720427676411418-1.114269965997664,1.605118185209903-1.30703085839923,2.548524906414059-8.547656804887083-.181053789287944-17.094768109982397-.423366855456152-25.644472136582408-.473352190199876-7.685333609999361-.044954569872971-15.372414360494076.084883797325347-23.045531530100561.535035850867644-.05958839455343-1.792013700197458-.131148521855721-3.583652381620595-.18212514370498-5.375921095499507-.077117449069192-2.700785423173329-2.57643587300845-5.199833535534708-5.345226458941397-4.976570807289136-2.808416361292984.226465267202911-5.059129817274879,2.450875834547332-4.976570807291864,5.345226458941397.134270674452637,4.713086523966012.297526629554341,9.425295502115659.492698454951096,14.136259433112173.095907739272661,2.320269885010021.199377263736096,4.640322257933803.310401073063986,6.959947121265941.055915972909133,1.165238616737042.118692611011284,2.393048980481581.541395365555218,3.489992693518616.799952066197875,2.075133918032407,2.382862096244935,3.683216839474881,4.595361302392121,4.191939036491931,2.629940707482092.604727752841427,5.695415580810732-1.078543291067945,6.21969342160628-3.831296765760271.304557050465519-1.598696691422447-.098110726228697-3.229694129983727-1.044879381961437-4.440860476790476-.04323500353712-.910271655410725-.085838139490079-1.820513312401999-.126975043076527-2.730912470373369-.036711772780109-.815937783225309-.068383605488634-1.632055574091282-.10341727332343-2.448105859240059,13.966895804969681-.817817408233168,27.963397778297804-.530012943963811,41.942366897979809-.209148836521308,2.542511306874076.058374381046633,5.085768849781743.114093792029962,7.629300131480704.165703251070227.061968641899512.322121071914808.118724847814519.64547963930454.183824701462072.966963212686096.240648216218688,1.192125440775271,1.455176916513665,2.447083250824107,2.481870850515406,2.999577229181341,1.129178454821158.607865625107479,2.769394483793803.823889891672479,3.995304752757875.378235283443246,1.234422662448196-.448692088825737,2.411537788506394-1.265614713518517,2.999524729806581-2.481868975437465.158779814282752-.417160376347965.317561503645265-.834268253320261.476341317928018-1.251428629669135.035329910906512-.152915760796532.05344002656966-.305216495482455.075330097286496-.457652235899332,8.437662898391864.074382763531503,16.874571740863757-.013637551627653,25.302808020576776-.509315530849562,7.842403271788498-.461297249966265,15.663599986688496-1.210216058702827,23.481654216535389-1.970587225964664-.0427790919166,1.174756195554437-.085560058916599,2.349459891732295-.128339150835018,3.524216087286732-.053398412916067,1.460255341113225-.18893593066241,2.881391303910277.188492392369881,4.317901090535997.567745603428193,2.16138334858806,2.270708645866762,3.798663192145796,4.427942973528843,4.355459927985976,2.614995395213555.674911952130969,5.704985370819486-1.128507718965921,6.219903419107141-3.831304266078405ZM198.995465169933595,86.44343077078338c-.018594171531731-.008429864300524-.03819707882576-.015667240741095-.056783750040267-.02388710753803.016610440025033.005872398379324.033432752632507.011789795813456.050043192655721.017662194192781.002176853293349.002077471221128.004353706586699.004154942442256.006740557384546.00622491334525Z"/>
        <path class="cls-3" d="M245.143469339434887,85.235335242105975c.086915536494416-6.97438709871949,5.775808157901338-13.937512086414245,5.862720815512148-20.912018191957941.023861618248702-1.914969638300136-5.990984493217184-1.268899013979535-8.363167314704697-1.124824637001439-2.490120886513978.151214230889309-8.754210897723169.433658732088588-8.779772726291412,2.485369287282992-.086912657608991,6.974506105544606,6.656058881246281,14.834127127360262,6.569143344751865,21.808514226080661-.023861618250521,1.914969638298317,1.475417209947409,4.161768518602003,2.126801017673642,3.941175183356791,2.208672096556256-.74797429481805,2.558715913379274-4.146386305742453,2.584274863058454-6.198215867761064Z"/>
        <path class="cls-3" d="M39.469609400763147,85.235335242105975c.086915536494416-6.97438709871949,5.775808157901338-13.937512086414245,5.862720815512148-20.912018191957941.023861618248702-1.914969638300136-5.990984493217184-1.268899013979535-8.363167314704697-1.124824637001439-2.490120886513978.151214230889309-8.754210897723169.433658732088588-8.779772726291412,2.485369287282992-.086912657608991,6.974506105544606,6.656058881246281,14.834127127360262,6.569143344751865,21.808514226080661-.023861618250521,1.914969638298317,1.475417209947409,4.161768518602003,2.126801017673642,3.941175183356791,2.208672096556256-.74797429481805,2.558715913379274-4.146386305742453,2.584274863058454-6.198215867761064Z"/>
        <path class="cls-3" d="M141.968996020266786,87.786256910041629c.338387888317811-6.980470477461495,11.789279697748498-14.082984241377744,12.127664707197255-21.063573725664355.092905936213356-1.91663989243807-11.854258591505641-1.127060291941234-16.563441277377933-.926451448280204-4.943309071224576.210559414349518-17.376251189400136.642234888657185-17.475783935717118,2.695734877582254-.338385009445119,6.98058948428752,12.850766401354122,14.684270684812873,12.512378513038129,21.664741162275277-.092905936218813,1.916639892436251,2.827780536226783,4.129053437793118,4.125195233871636,3.892831940826909,4.399193849098083-.800965303043995,5.174456891549198-4.209663810990605,5.27398675898803-6.26328280673988Z"/>
      </g>
    </g>
  </g>
  <g id="Arrows">
    <g>
      <g>
        <path class="cls-5" d="M216.239013671875,177.011138916015625c9.647216796875,0,18.1826171875.61407470703125,26.093505859375,1.877365112304688,2.4375.389236450195312,5.0810546875.578475952148438,8.081298828125.578475952148438,2.585205078125,0,5.17919921875-.138320922851562,7.40771484375-.267974853515625,2.849365234375-.165786743164062,5.8779296875-.242996215820312,9.53076171875-.242996215820312,2.790771484375,0,5.6337890625.04583740234375,8.38330078125.090179443359375,1.277587890625.020599365234375,2.554931640625.041183471679688,3.831787109375.0574951171875,8.607421875.109970092773438,16.209228515625,1.578659057617188,23.2392578125,4.489974975585028,13.068359375,5.412033081054688,21.741455078125,15.214797973632812,25.7783203125,29.135955810546875,2.87890625,9.928726196289062,3.70947265625,20.67828369140625,2.613525390625,33.829330444335938-.037841796875.455108642578125-.039794921875.89947509765625-.041748046875,1.329208374023438-.001708984375.451004028320312-.003662109375.876983642578125-.045654296875,1.286270141601562-.898193359375,8.716720581054688.101806640625,17.421524047852472,1.06884765625,25.839706420899347.1953125,1.700958251953125.390869140625,3.401885986328125.5712890625,5.103515625.127685546875,1.20550537109375.168701171875,2.4556884765625.208251953125,3.66473388671875.05712890625,1.74163818359375.1162109375,3.541717529296875.429443359375,5.330169677734375v13.229644775390625c-.347900390625,1.521484375-.423095703125,3.053863525390625-.49560546875,4.5369873046875-.02685546875.547149658203125-.053466796875,1.093414306640625-.09423828125,1.6365966796875-.48193359375,6.444549560546875-3.044677734375,12.399444580078125-8.064453125,18.740447998046875-8.24462890625,10.414581298828125-19.4306640625,15.663818359375-34.197265625,16.04779052734375-.439697265625.01141357421875-.87890625.0172119140625-1.3154296875.0172119140625-7.62548828125,0-14.220947265625-1.726470947265625-20.1630859375-5.278045654296875-6.481689453125-3.874053955078125-11.447021484375-9.30023193359375-14.76025390625-16.132720947265625-.79638671875-1.64215087890625-1.23486328125-2.546722412109375-2.297607421875-2.546905517578125-.768798828125-.000091552734375-1.33984375.545013427734375-2.37646484375,1.53466796875l-.07568359375.072235107421875c-1.8212890625,1.73748779296875-3.6455078125,3.471588134765625-5.469970703125,5.205718994140625-7.719482421875,7.337371826171875-15.70166015625,14.924560546875-23.295166015625,22.66229248046875-1.186767578125,1.20916748046875-2.346435546875,2.472991943359375-3.4677734375,3.69525146484375-1.528076171875,1.66522216796875-3.10791015625,3.387176513671875-4.7568359375,4.969146728515625-4.760009765625,4.5670166015625-9.583251953125,7.76422119140625-14.745361328125,9.774261474609375-3.338134765625,1.2998046875-6.819580078125,1.433990478515625-10.50537109375,1.576019287109375l-.1845703125.00787353515625-6.801025390625.001007080078125c-.44091796875.019805908203125-.87890625.02960205078125-1.312255859375.02960205078125-7.57568359375,0-14.70166015625-3.022064208984375-21.784912109375-9.238922119140625-4.39306640625-3.85565185546875-7.8369140625-7.762786865234375-10.529052734375-11.94464111328125-3.431640625-5.3306884765625-5.02490234375-11.151123046875-4.87060546875-17.817047119140625l-.001220703125-6.084564208984375c-.432861328125-8.912994384765625,2.935302734375-17.05242919921875,10.010498046875-24.192230224609375,4.93359375-4.978515625,10.1142578125-9.8873291015625,15.124267578125-14.634521484375,4.509765625-4.27313232421875,9.1728515625-8.69171142578125,13.6533203125-13.157928466796875,2.3779296875-2.370391845703125,4.84375-4.75128173828125,7.228271484375-7.05377197265625,1.078857421875-1.041778564453125,2.15771484375-2.083526611329034,3.232666015625-3.127990722657159.90234375-.87677001953125,1.696044921875-1.74737548828125,1.498291015625-2.75689697265625-.198486328125-1.013885498046875-1.23583984375-1.50933837890625-2.46923828125-2.00823974609375-8.0830078125-3.269241333007812-14.294921875-8.6715087890625-18.46337890625-16.056716918945312-2.380859375-4.218002319335938-3.804931640625-9.003021240234375-4.353271484375-14.628524780273438-.824462890625-8.453628540039062.548095703125-16.679351806640625,4.07958984375-24.448638916015625,4.827880859375-10.621475219726562,12.893310546875-18.15399169921875,23.971923828125-22.388336181639716,4.607666015625-1.761077880859375,9.335693359375-2.116836547851562,13.75830078125-2.238922119140625,2.4658203125-.068084716796875,4.869140625-.10260009765625,7.14306640625-.10260009765625M216.239013671875,176.011138916015625c-2.38916015625,0-4.780029296875.036972045898438-7.170654296875.10296630859375-4.747802734375.131088256835938-9.4990234375.5506591796875-14.087646484375,2.304443359375-11.32763671875,4.329513549803778-19.53076171875,11.920608520506903-24.525390625,22.908630371092841-3.598388671875,7.916763305664062-5.016357421875,16.224105834960938-4.16455078125,24.959503173828125.521240234375,5.34637451171875,1.850830078125,10.369155883789062,4.477783203125,15.023025512695312,4.361328125,7.726821899414062,10.740966796875,13.168182373046875,18.959228515625,16.492202758789062,2.319580078125.9381103515625,2.427001953125,1.3934326171875.649169921875,3.12091064453125-3.4931640625,3.394104003907159-7.028076171875,6.759613037110284-10.47021484375,10.190734863282159-9.450439453125,9.42071533203125-19.396728515625,18.32623291015625-28.78173828125,27.796783447265625-6.7236328125,6.784881591796875-10.78125,15.015380859375-10.299072265625,24.944610595703125v6.03607177734375c-.153564453125,6.62188720703125,1.397705078125,12.71630859375,5.02978515625,18.35833740234375,2.97412109375,4.620086669921875,6.646240234375,8.587982177734375,10.710205078125,12.154937744140625,6.435791015625,5.6484375,13.703125,9.487335205078125,22.444580078125,9.487335205078125.447998046875,0,.901123046875-.0101318359375,1.357177734375-.030609130859375h6.756103515625c3.746337890625-.1448974609375,7.487548828125-.263763427734375,11.052734375-1.65203857421875,5.751220703125-2.23944091796875,10.6533203125-5.7421875,15.074951171875-9.984527587890625,2.884765625-2.767791748046875,5.45166015625-5.83831787109375,8.245849609375-8.685546875,9.34521484375-9.522491455078125,19.090087890625-18.63629150390625,28.74169921875-27.844940185546875.9033203125-.86181640625,1.383056640625-1.330474853515625,1.76171875-1.330413818359375.43701171875.00006103515625.739013671875.624114990234375,1.400390625,1.988128662109375,3.4052734375,7.022003173828125,8.453125,12.55035400390625,15.144775390625,16.54986572265625,6.389404296875,3.819000244140625,13.334228515625,5.419677734375,20.676025390625,5.419677734375.4453125,0,.89306640625-.00592041015625,1.34130859375-.017578125,14.059814453125-.36553955078125,26.058837890625-5.1884765625,34.95556640625-16.4267578125,4.466796875-5.64251708984375,7.72314453125-11.875823974609375,8.277587890625-19.2864990234375.15234375-2.038360595703125.11279296875-4.118011474609375.592529296875-6.133087158203125v-13.432769775390625c-.536376953125-2.98089599609375-.32568359375-6.01458740234375-.643310546875-9.012237548828125-1.083251953125-10.215606689453125-2.70458984375-20.402923583985284-1.639892578125-30.735382080079034.089599609375-.870697021484375.01611328125-1.75701904296875.08935546875-2.634780883789062.961669921875-11.540817260742188.5859375-23.032272338867188-2.649658203125-34.191024780273438-4.055908203125-13.98687744140625-12.7470703125-24.145401000976562-26.356201171875-29.781341552734375-7.546875-3.125366210936591-15.480712890625-4.462158203124091-23.609130859375-4.566009521483466-4.073486328125-.052032470703125-8.152587890625-.14776611328125-12.227783203125-.14776611328125-3.200439453125,0-6.398193359375.059051513671875-9.5888671875.24468994140625-2.460205078125.14312744140625-4.908203125.266311645507812-7.349609375.266311645507812-2.64697265625,0-5.2861328125-.144821166992188-7.923583984375-.565994262695312-8.710205078125-1.390884399414062-17.47265625-1.889862060546875-26.251220703125-1.889862060546875h0Z"/>
        <path class="cls-5" d="M215.4189453125,206.144393920897528c6.57568359375,0,13.255615234375,1.059249877929688,19.00048828125,2.052093505859375,5.114013671875.883773803710938,10.48974609375,1.295394897460938,16.91748046875,1.295394897460938,4.03564453125,0,8.003662109375-.167999267578125,11.009765625-.314361572265625,3.23388671875-.157455444335938,6.681640625-.311203002929688,10.153564453125-.311203002929688,4.914306640625,0,8.9873046875.308181762695312,12.818115234375.969863891601562,10.220458984375,1.765457153320312,14.563720703125,6.50469970703125,15.490478515625,16.9033203125.748046875,8.390380859375.7705078125,17.276016235351562.06689453125,26.410079956054688-.7373046875,9.568374633789062.67724609375,19.035110473633722,2.04541015625,28.190109252930597.1611328125,1.078857421875.322265625,2.15789794921875.480224609375,3.237457275390625.869873046875,5.94464111328125,1.50244140625,12.298919677734375.25244140625,18.488922119140625-1.18896484375,5.888336181640625-7.10205078125,10.500823974609375-13.4619140625,10.500823974609375-1.7783203125,0-3.4716796875-.3604736328125-5.033447265625-1.071441650390625-3.4619140625-1.575927734375-4.482177734375-4.691162109375-4.949462890625-8.883819580078125-.599853515625-5.381622314453125-.293701171875-10.882598876953125.00244140625-16.20245361328125.169189453125-3.042083740234375.34423828125-6.187744140625.35107421875-9.296844482421875.01611328125-7.2716064453125-.326416015625-15.742126464844659-4.623291015625-24.251846313477472l-.654296875-1.295761108398438-.9775390625,1.072998046875c-.67822265625.744598388671875-1.34716796875,1.49871826171875-2.01611328125,2.25286865234375-1.41552734375,1.595733642578125-2.87890625,3.245819091796875-4.404052734375,4.760101318359375-9.105712890625,9.042083740235284-17.378662109375,17.179412841797784-25.291748046875,24.876983642579034-8.33642578125,8.10955810546875-16.8330078125,16.334564208984375-25.050048828125,24.288726806640625-5.710693359375,5.528167724609375-11.42138671875,11.0562744140625-17.125732421875,16.590911865234375-1.47021484375,1.426300048828125-2.818115234375,2.984649658203125-4.121826171875,4.491729736328125-1.765380859375,2.040863037109375-3.5908203125,4.151214599609375-5.69287109375,5.88555908203125-2.5625,2.114288330078125-4.751708984375,3.0989990234375-6.889892578125,3.0989990234375-2.087158203125,0-4.209716796875-.933685302734375-6.679931640625-2.9383544921875-.80517578125-.65338134765625-1.46533203125-1.21441650390625-2.071044921875-1.82891845703125-5.55908203125-5.640350341796875-5.59765625-10.609619140625-.125244140625-16.112457275390625,1.76806640625-1.77764892578125,3.729248046875-3.4515380859375,5.626220703125-5.070281982421875,1.930908203125-1.6480712890625,3.927978515625-3.352264404296875,5.75634765625-5.192047119140625,14.8955078125-14.987274169921875,29.8642578125-29.3516845703125,45.16650390625-43.971954345703125,6.090087890625-5.818878173829034,12.30419921875-11.713424682618097,18.313720703125-17.413909912110284,3.222412109375-3.0565185546875,6.444580078125-6.113067626953125,9.663818359375-9.172866821289062,1.283935546875-1.220489501953125,1.9912109375-1.892807006835938,1.77734375-2.827713012695312-.21533203125-.9410400390625-1.165771484375-1.2457275390625-2.8916015625-1.798843383789062-9.333251953125-2.991592407226562-18.8525390625-3.37530517578125-26.102783203125-3.375335693359375-1.3388671875-.000015258789062-2.75244140625.014572143554688-4.32177734375.044601440429688-1.68505859375.032257080078125-3.395263671875.087753295898438-5.04931640625.141433715820312-2.568603515625.083389282226562-5.224853515625.169586181640625-7.827880859375.169586181640625-3.74658203125,0-6.83251953125-.177886962890625-9.71142578125-.559783935546875-1.79443359375-.238037109375-3.31591796875-.711532592773438-4.6513671875-1.447525024414062-2.19970703125-1.212127685546875-3.277587890625-2.90380859375-3.39208984375-5.323806762695312-.24853515625-5.259674072265625.984130859375-9.381362915039062,3.664306640625-12.250640869140625,2.857421875-3.058883666992188,7.32421875-4.672882080078125,13.277099609375-4.797119140625.427490234375-.008941650390625.85595703125-.013275146484375,1.282958984375-.013275146484375M215.4189453125,205.144393920897528c-.43408203125,0-.869384765625.004409790039062-1.303955078125.01348876953125-12.20166015625.254684448242188-18.4599609375,6.660659790039062-17.919189453125,18.094772338867188.134033203125,2.83258056640625,1.48828125,4.818893432617188,3.908203125,6.15240478515625,1.557861328125.858566284179688,3.25244140625,1.330856323242188,5.00244140625,1.563018798828125,3.2783203125.434860229492188,6.559326171875.568466186523438,9.843017578125.568466186523438,4.297119140625,0,8.597900390625-.228927612304688,12.896240234375-.311203002929688,1.43603515625-.027496337890625,2.86962890625-.04443359375,4.302734375-.044418334960938,8.718994140625.00006103515625,17.374267578125.627761840820312,25.797607421875,3.327621459960938,2.840087890625.910293579101562,2.838623046875.945571899414062.73046875,2.949478149414062-9.32568359375,8.863845825195312-18.677001953125,17.700531005859375-27.9794921875,26.588546752930597-15.198974609375,14.52178955078125-30.36376953125,29.077728271484375-45.184814453125,43.99005126953125-3.595703125,3.61785888671875-7.785400390625,6.64532470703125-11.38232421875,10.2620849609375-5.92822265625,5.9610595703125-5.774658203125,11.5367431640625.1220703125,17.51959228515625.6708984375.6807861328125,1.40966796875,1.3001708984375,2.153076171875,1.9034423828125,2.601318359375,2.111083984375,4.95654296875,3.161865234375,7.31005859375,3.161865234375,2.421875,0,4.841796875-1.1126708984375,7.5263671875-3.327667236328125,3.726318359375-3.0745849609375,6.436767578125-7.09552001953125,9.87451171875-10.430908203125,14.052001953125-13.633880615234375,28.142578125-27.22833251953125,42.1767578125-40.88055419921875,8.478759765625-8.247894287109375,16.90576171875-16.549530029296875,25.299072265625-24.884185791016534,2.25830078125-2.2423095703125,4.308837890625-4.693695068359375,6.454833984375-7.049087524414062,4.03955078125,8.000442504882812,4.533447265625,15.878280639649347,4.515869140625,23.798904418946222-.018798828125,8.537445068359375-1.300537109375,17.059844970703125-.347412109375,25.612274169921875.447998046875,4.020233154296875,1.43212890625,7.818145751953125,5.529052734375,9.683197021484375,1.743408203125.793670654296875,3.597412109375,1.16131591796875,5.44775390625,1.16131591796875,6.571533203125,0,13.09619140625-4.637481689453125,14.442138671875-11.302886962890625,1.26708984375-6.275146484375.673095703125-12.569183349609375-.2431640625-18.831634521484375-1.513671875-10.3477783203125-3.33154296875-20.6478271484375-2.51806640625-31.205978393555597.681396484375-8.846450805664062.72216796875-17.712738037109375-.06787109375-26.575668334960938-.9658203125-10.8360595703125-5.55615234375-15.9412841796875-16.31640625-17.799942016601562-4.314453125-.745254516601562-8.64794921875-.984451293945312-12.98828125-.984451293945312-3.399169921875,0-6.80322265625.146865844726562-10.2021484375.312362670898438-3.660888671875.178253173828125-7.312744140625.31317138671875-10.961181640625.31317138671875-5.59033203125,0-11.170166015625-.3170166015625-16.7470703125-1.280792236328125-6.333251953125-1.094497680664062-12.72021484375-2.066680908203125-19.1708984375-2.066680908203125h0Z"/>
      </g>
      <path class="cls-4" d="M279.73095703125,279.73101806640625c-69.716361411939943.440556624209421-210.016444231456262,1.330661365813285-279.731322828767588,1.531145080793067.000365797466657.00025750716668-1.526733811821032.007123962124751-1.526733811857412.007123962175683-.000000000185537.000000000251021-.004394531117214-1.538391113459511-.00439453125-1.53839111328125-.064394845961942-34.904880909755775-.304290786052661-104.981250559159889-.285238437871158-139.865653191199272C-1.816894531264552,139.865509033205853-1.997802734365905.000099999994745-1.997802734375.000099999997474l-.00244140625-2.000322206113196c47.593358085498039.061690556978647,165.706438998737212.208738309788714,211.798328422371924.27100202381007,17.377601979482279.057260166581727,52.545012585482255.067300680242624,69.932841412823109.190925555426475.000031336741813-.000140951511639,1.545441492886312.005940629680481,1.545441492929967.005940629648649l-.0068359375,1.532454386120662c-.325019919204351,69.719194950640485-.970933074126151,210.042549467451863-1.53857421875,279.730917677516118h0ZM279.73095703125,279.73101806640625c-.57885625988456-69.742897709330464-1.234127012621684-210.023065012120242-1.53837989110616-279.731271706903499.000049812982979.000353251607521,1.538379891104341,1.538689218844411,1.53837989110616,1.538689218843501-38.949299533025624.064917445006358-100.445728031103499.316601879098016-139.865504218883871.281529314869658.000025703258871.000294797068818-139.865452812366129.177719585543855-139.865452812366129.177719585543855.000000000010914.000000000010004,1.997802734367724-1.997584478769568,1.997802734375-1.997584478762292.100317200975041,79.280981857416009-.354954861610167,201.347921820374722-.465833916074189,279.730643585811777-.000474677675811.0001524102845-1.531968818300811-1.53115862487175-1.531968818300811-1.53115862487175,69.708485410163121.186217077975016,210.024490085046637,1.073943905535998,279.73095703125,1.53143310546875h0Z"/>
    </g>
  </g>
</svg>