<?xml version="1.0" encoding="UTF-8"?>
<svg id="Content" xmlns="http://www.w3.org/2000/svg" xmlns:xlink="http://www.w3.org/1999/xlink" viewBox="0 0 280 280">
  <defs>
    <style>
      .cls-1 {
        stroke: #665451;
        stroke-width: 50px;
      }

      .cls-1, .cls-2 {
        fill: none;
        stroke-linecap: round;
        stroke-linejoin: round;
      }

      .cls-3 {
        fill: #fff;
      }

      .cls-2 {
        stroke: #998675;
        stroke-width: 2px;
      }
    </style>
  </defs>
  <a xlink:href="https://www.notion.so/congruence/Standard-normal-distribution-7240d30a841346fda38999385a955709?pvs=4">
    <g>
      <g>
        <path class="cls-1" d="M101.5048828125,59.419921875c.0751953125.5302734375.15625,1.62890625.2412109375,3.2978515625.0859375,1.669921875.1767578125,3.689453125.2744140625,6.0615234375.0966796875,2.3720703125.1826171875,4.974609375.2548828125,7.8076171875.072265625,2.8349609375.1328125,5.681640625.1826171875,8.541015625.1513671875,6.734375.2666015625,14.1982421875.3466796875,22.3916015625.0703125.431640625.017578125.82421875-.158203125,1.1708984375-.1298828125.298828125-.3701171875.578125-.7197265625.837890625-.3486328125.2607421875-.861328125.408203125-1.537109375.443359375-.724609375.037109375-1.5673828125.1162109375-2.5283203125.2373046875-.9609375.123046875-1.9375.18359375-2.9287109375.1865234375-.9931640625.001953125-1.9189453125-.130859375-2.7802734375-.4033203125-.861328125-.2705078125-1.576171875-.7802734375-2.146484375-1.5263671875-.4111328125-.4638671875-1.1533203125-1.48046875-2.224609375-3.05078125-1.072265625-1.5703125-2.2451171875-3.4619140625-3.521484375-5.6767578125-2.1201171875-3.6259765625-4.265625-7.2392578125-6.43359375-10.837890625-2.1689453125-3.599609375-4.3681640625-7.3310546875-6.59765625-11.1953125l2.06640625,30.37890625c-.01953125.583984375-.13671875,1.125-.353515625,1.619140625-.2216796875.4482421875-.5537109375.8779296875-.99609375,1.2880859375-.443359375.412109375-1.076171875.685546875-1.8984375.82421875-.87109375.1416015625-1.7568359375.259765625-2.654296875.3544921875-.8994140625.09375-1.755859375.0654296875-2.568359375-.0869140625s-1.5126953125-.478515625-2.099609375-.982421875c-.587890625-.5029296875-.9833984375-1.306640625-1.185546875-2.4140625-.125-.5263671875-.2421875-1.6357421875-.3525390625-3.3271484375-.1123046875-1.6923828125-.2275390625-3.72265625-.3486328125-6.09375-.12109375-2.3701171875-.2314453125-4.984375-.3291015625-7.841796875-.0986328125-2.857421875-.197265625-5.7373046875-.2978515625-8.6435546875-.2041015625-6.828125-.421875-14.3837890625-.6513671875-22.6669921875-.0712890625-.4326171875-.0185546875-.822265625.158203125-1.171875.1298828125-.2978515625.345703125-.57421875.6484375-.8330078125.3017578125-.2587890625.7900390625-.4287109375,1.46484375-.51171875.384765625-.06640625,1.0478515625-.1494140625,1.98828125-.2470703125.94140625-.095703125,1.9072265625-.1708984375,2.8994140625-.2216796875.990234375-.05078125,1.9013671875-.0244140625,2.732421875.078125.8291015625.1025390625,1.349609375.3193359375,1.560546875.6474609375,3.41015625,5.0166015625,6.7587890625,10.0341796875,10.0478515625,15.0556640625,3.2880859375,5.0224609375,6.5439453125,10.09375,9.765625,15.21484375l-1.0947265625-28.46484375c.017578125-.58203125.16015625-1.1240234375.42578125-1.6220703125.2216796875-.3994140625.5654296875-.8046875,1.029296875-1.216796875.462890625-.412109375,1.12890625-.6884765625,1.9951171875-.830078125.8681640625-.091796875,1.748046875-.173828125,2.642578125-.244140625.8935546875-.0703125,1.7333984375-.0166015625,2.5185546875.1611328125.7841796875.1787109375,1.45703125.533203125,2.0185546875,1.0615234375.560546875.529296875.9423828125,1.345703125,1.14453125,2.451171875Z"/>
        <path class="cls-1" d="M129.658203125,62.197265625c-1.97265625,1.2646484375-3.7470703125,2.8369140625-5.3251953125,4.7109375-1.5771484375,1.8759765625-2.841796875,3.94140625-3.79296875,6.197265625-.9521484375,2.255859375-1.5712890625,4.6044921875-1.8583984375,7.04296875-.287109375,2.4404296875-.103515625,4.8564453125.5537109375,7.248046875.6552734375,2.392578125,1.8271484375,4.66015625,3.513671875,6.8037109375,1.685546875,2.1455078125,3.9775390625,4.0419921875,6.8759765625,5.6875.248046875.1328125.486328125.265625.7109375.3994140625.2255859375.134765625.4619140625.267578125.7119140625.400390625.3994140625.22265625.6455078125.5126953125.736328125.8720703125.0908203125.3583984375.0986328125.7587890625.0244140625,1.1982421875-.044921875,1.021484375-.3369140625,2.1767578125-.876953125,3.46484375-.541015625,1.2900390625-1.1259765625,2.4111328125-1.755859375,3.3642578125-.541015625.8037109375-1.322265625,1.1826171875-2.3427734375,1.138671875-1.0205078125-.0458984375-2.052734375-.3076171875-3.095703125-.787109375-2.4404296875-1.232421875-4.6884765625-2.7431640625-6.744140625-4.529296875-2.0556640625-1.787109375-3.8349609375-3.841796875-5.3359375-6.166015625-1.501953125-2.3232421875-2.6650390625-4.9072265625-3.4892578125-7.7509765625-.826171875-2.8427734375-1.2265625-5.9404296875-1.2041015625-9.287109375.0390625-3.009765625.4619140625-5.8935546875,1.2666015625-8.650390625.8046875-2.7578125,1.8974609375-5.3369140625,3.2783203125-7.736328125,1.3798828125-2.3984375,3.01171875-4.62890625,4.8955078125-6.6884765625,1.8828125-2.0615234375,3.923828125-3.8759765625,6.1240234375-5.443359375.6083984375-.419921875,1.216796875-.6083984375,1.826171875-.5673828125.6083984375.0419921875,1.1181640625.2958984375,1.5302734375.7587890625.462890625.509765625,1.029296875,1.16015625,1.701171875,1.94921875.669921875.791015625,1.2451171875,1.5986328125,1.724609375,2.421875.478515625.826171875.796875,1.5966796875.955078125,2.31640625.1572265625.7197265625-.044921875,1.263671875-.607421875,1.6318359375Z"/>
        <path class="cls-1" d="M151.517578125,108.2978515625c-3.2412109375.166015625-6.03515625-.396484375-8.3798828125-1.681640625-2.3466796875-1.2861328125-4.1943359375-3.265625-5.54296875-5.9365234375-1.349609375-2.6708984375-2.123046875-5.94140625-2.3212890625-9.8125-.2109375-4.111328125.2958984375-7.7021484375,1.521484375-10.7744140625,1.224609375-3.0693359375,3.06640625-5.4677734375,5.5244140625-7.193359375,2.4580078125-1.7265625,5.4287109375-2.6796875,8.912109375-2.8583984375,3.240234375-.166015625,6.0224609375.3955078125,8.34375,1.6826171875,2.3212890625,1.2880859375,4.1435546875,3.255859375,5.46875,5.9052734375,1.3232421875,2.6474609375,2.0849609375,5.9072265625,2.283203125,9.7763671875.2109375,4.11328125-.2841796875,7.7158203125-1.4833984375,10.80859375-1.2001953125,3.0927734375-3.017578125,5.501953125-5.4501953125,7.2265625-2.4345703125,1.7255859375-5.392578125,2.6787109375-8.8759765625,2.857421875ZM151.93359375,95.10546875c2.8046875-.1435546875,4.849609375-.70703125,6.1337890625-1.6953125,1.283203125-.9873046875,1.8779296875-2.400390625,1.783203125-4.23828125-.0693359375-1.35546875-.4658203125-2.4619140625-1.1884765625-3.322265625-.7236328125-.861328125-1.76171875-1.486328125-3.115234375-1.8779296875-1.35546875-.392578125-3.0234375-.537109375-5.0068359375-.435546875-2.7099609375.138671875-4.705078125.7021484375-5.98828125,1.689453125-1.2841796875.98828125-1.876953125,2.4248046875-1.7802734375,4.3115234375.0673828125,1.306640625.4501953125,2.390625,1.1494140625,3.251953125.6982421875.8623046875,1.7373046875,1.48828125,3.115234375,1.8779296875s3.0107421875.53515625,4.8974609375.4384765625Z"/>
        <path class="cls-1" d="M173.70703125,115.3818359375l-4.150390625-2.916015625-.08984375-1.7412109375c1.3994140625-1.0908203125,2.498046875-2.3720703125,3.2958984375-3.84375.7978515625-1.470703125,1.1630859375-2.861328125,1.0966796875-4.16796875-.0498046875-.966796875-.294921875-1.9482421875-.7333984375-2.9453125-.4404296875-.9951171875-.990234375-1.791015625-1.650390625-2.3876953125l.0927734375-1.0244140625c1.2080078125-1.0322265625,2.4267578125-1.8583984375,3.65625-2.4794921875,1.2294921875-.619140625,2.3271484375-.955078125,3.2958984375-1.0048828125,1.7890625-.091796875,3.2626953125.4873046875,4.41796875,1.73828125s1.7890625,2.96484375,1.900390625,5.1416015625c.0869140625,1.693359375-.3203125,3.4716796875-1.2177734375,5.3369140625-.8994140625,1.8642578125-2.189453125,3.6640625-3.87109375,5.400390625-1.681640625,1.734375-3.6953125,3.3642578125-6.04296875,4.8935546875Z"/>
        <path class="cls-1" d="M188.5185546875,100.580078125c1.541015625-.2236328125,2.7734375-.552734375,3.6962890625-.9892578125.923828125-.435546875,1.572265625-1.025390625,1.947265625-1.7724609375.373046875-.7470703125.5322265625-1.67578125.474609375-2.7900390625l-.75390625-14.73046875c-.08984375-1.7421875-.376953125-2.8544921875-.8623046875-3.3388671875-.4873046875-.4853515625-1.4072265625-.6923828125-2.7607421875-.623046875-.677734375.03515625-1.8359375.1669921875-3.4716796875.3955078125l-.6142578125-.623046875.240234375-5.2509765625c1.0107421875-.1484375,2.033203125-.30859375,3.0673828125-.484375,1.033203125-.1728515625,2.091796875-.349609375,3.1748046875-.5263671875,1.08203125-.17578125,2.12890625-.3388671875,3.1396484375-.48828125,2.306640625-.4091796875,4.373046875-.78125,6.19921875-1.1171875,1.826171875-.3369140625,3.2666015625-.6162109375,4.3232421875-.8408203125,1.0546875-.2236328125,1.583984375-.310546875,1.5869140625-.263671875l1.2412109375,2.919921875c-.7939453125.623046875-1.375,1.34375-1.7451171875,2.1630859375s-.6650390625,1.9140625-.88671875,3.2841796875c-.177734375,1.26953125-.2958984375,2.7421875-.35546875,4.4189453125-.0595703125,1.677734375-.068359375,3.6298828125-.02734375,5.8583984375.0419921875,2.2294921875.1416015625,4.892578125.2998046875,7.98828125.0849609375,1.64453125.375,2.830078125.8740234375,3.556640625.4970703125.7265625,1.2548828125,1.0634765625,2.2705078125,1.01171875.87109375-.044921875,1.95703125-.1484375,3.2578125-.3134765625l.240234375.42578125-.623046875,6.287109375c-1.6015625-.015625-2.9970703125-.0166015625-4.18359375-.00390625-1.189453125.0126953125-2.400390625.0263671875-3.6357421875.0419921875-1.236328125.013671875-2.3388671875.046875-3.3056640625.0966796875-1.306640625.06640625-2.7197265625.17578125-4.240234375.3271484375-1.51953125.1494140625-2.955078125.306640625-4.3046875.4736328125-1.349609375.166015625-2.890625.3662109375-4.625.6015625l.3623046875-5.6943359375Z"/>
        <path class="cls-1" d="M215.57421875,57.794921875c-.5498046875-.310546875-.76953125-.8330078125-.662109375-1.56640625.1083984375-.7333984375.369140625-1.5341796875.7861328125-2.4052734375.416015625-.869140625.9306640625-1.732421875,1.541015625-2.58984375.611328125-.8544921875,1.14453125-1.5615234375,1.6015625-2.1181640625.361328125-.501953125.8427734375-.806640625,1.4443359375-.9111328125.6005859375-.103515625,1.2255859375.0224609375,1.875.3779296875,2.298828125,1.3369140625,4.443359375,2.9365234375,6.4306640625,4.7998046875,1.986328125,1.861328125,3.7529296875,3.9169921875,5.2998046875,6.166015625,1.544921875,2.2490234375,2.798828125,4.7080078125,3.7607421875,7.375.9609375,2.6669921875,1.5419921875,5.4990234375,1.7451171875,8.4970703125.21875,3.333984375.00390625,6.462890625-.6474609375,9.3818359375-.650390625,2.919921875-1.65234375,5.6142578125-3.0048828125,8.083984375-1.353515625,2.4697265625-2.9970703125,4.7001953125-4.9326171875,6.6923828125-1.9345703125,1.9892578125-4.1015625,3.7265625-6.4990234375,5.20703125-.9892578125.583984375-1.9892578125.94921875-3,1.099609375-1.0107421875.1484375-1.826171875-.1494140625-2.4462890625-.8935546875-.6767578125-.88671875-1.3125-1.9443359375-1.9091796875-3.17578125-.59765625-1.23046875-.9697265625-2.3515625-1.1181640625-3.36328125-.0712890625-.431640625-.0673828125-.83203125.01171875-1.2001953125.0771484375-.3681640625.3037109375-.681640625.6787109375-.9443359375.234375-.1572265625.45703125-.3134765625.6669921875-.470703125.2099609375-.15625.4326171875-.3125.6669921875-.470703125,2.8115234375-1.9375,4.9814453125-4.0634765625,6.5126953125-6.373046875,1.5302734375-2.30859375,2.548828125-4.6884765625,3.0537109375-7.140625.50390625-2.451171875.55078125-4.87890625.13671875-7.2822265625s-1.1748046875-4.681640625-2.2783203125-6.83203125c-1.1044921875-2.150390625-2.4892578125-4.080078125-4.1533203125-5.7900390625-1.6640625-1.7080078125-3.517578125-3.09375-5.560546875-4.1533203125Z"/>
        <path class="cls-1" d="M94.0537109375,161.080078125c-1.021484375,1.84765625-2.0439453125,3.669921875-3.06640625,5.4677734375-1.0244140625,1.798828125-2.021484375,3.6455078125-2.990234375,5.537109375-1.3251953125,2.5419921875-2.650390625,5.083984375-3.9755859375,7.625-1.32421875,2.5419921875-2.6240234375,5.107421875-3.8974609375,7.6943359375,3.08984375-.2548828125,6.4150390625-.44921875,9.9736328125-.583984375,3.55859375-.1337890625,6.8916015625-.1591796875,10-.0751953125.38671875-.0205078125.720703125.0966796875,1.0009765625.34765625.2783203125.2529296875.501953125.58203125.66796875.9853515625.1669921875.404296875.2841796875.810546875.353515625,1.21875.0693359375.4091796875.1123046875.7578125.126953125,1.0478515625-.0068359375.8251953125-.0224609375,1.6884765625-.0498046875,2.5859375-.0263671875.8984375-.12890625,1.728515625-.30859375,2.4892578125-.1796875.76171875-.4619140625,1.4052734375-.8466796875,1.935546875-.3857421875.5283203125-.8916015625.833984375-1.517578125.9150390625-.3828125.115234375-1.083984375.1513671875-2.1044921875.107421875-1.0205078125-.0458984375-2.259765625-.0791015625-3.7158203125-.1015625-3.994140625-.3291015625-8.216796875-.37890625-12.6669921875-.150390625-4.4521484375.2275390625-8.7509765625.5693359375-12.8984375,1.0244140625-.240234375.0595703125-.4609375.0234375-.6611328125-.111328125-.1982421875-.0869140625-.4140625-.2705078125-.646484375-.548828125-.232421875-.2802734375-.4150390625-.75390625-.5458984375-1.427734375-.248046875-1.0537109375-.4287109375-1.9794921875-.5419921875-2.7734375-.11328125-.794921875-.185546875-1.482421875-.21484375-2.0634765625-.0302734375-.580078125-.0087890625-1.1015625.0654296875-1.56640625.072265625-.4638671875.1962890625-.8955078125.3701171875-1.2919921875,1.2021484375-3.01953125,2.54296875-5.974609375,4.0205078125-8.865234375,1.4765625-2.8876953125,3.0517578125-5.7451171875,4.7265625-8.572265625,1.673828125-2.826171875,3.384765625-5.6416015625,5.1328125-8.4482421875,1.748046875-2.8056640625,3.49609375-5.611328125,5.244140625-8.41796875-3.0458984375.205078125-6.068359375.3837890625-9.0673828125.537109375-3,.154296875-6.025390625.2607421875-9.078125.3203125-.3935546875-.0771484375-.7392578125-.228515625-1.0419921875-.45703125-.255859375-.2275390625-.5146484375-.5654296875-.7802734375-1.013671875-.265625-.447265625-.419921875-1.107421875-.46484375-1.978515625-.0908203125-.8193359375-.158203125-1.67578125-.2041015625-2.5712890625-.0458984375-.89453125-.0166015625-1.7333984375.0888671875-2.5146484375s.3134765625-1.4462890625.6259765625-1.99609375c.310546875-.5498046875.8017578125-.8896484375,1.474609375-1.021484375.3818359375-.1162109375,1.09375-.177734375,2.1376953125-.18359375,1.0419921875-.00390625,2.2919921875.005859375,3.748046875.02734375,4.271484375.0712890625,8.4873046875-.0107421875,12.6474609375-.248046875,4.158203125-.2373046875,8.392578125-.44140625,12.701171875-.6142578125.53125-.02734375.943359375-.048828125,1.2333984375-.0634765625s.509765625.009765625.658203125.076171875c.1494140625.064453125.240234375.2060546875.2763671875.421875.03515625.2158203125.11328125.5654296875.2353515625,1.04296875.0751953125.529296875.1552734375,1.1455078125.240234375,1.8427734375.0830078125.7001953125.1435546875,1.375.1767578125,2.0283203125.033203125.65234375.0263671875,1.2236328125-.021484375,1.7109375-.0478515625.48828125-.140625.80859375-.2783203125.958984375-1.142578125,1.3701171875-2.23046875,2.869140625-3.26171875,4.498046875-1.033203125,1.6279296875-2.0595703125,3.3671875-3.080078125,5.2138671875Z"/>
      </g>
      <g>
        <path class="cls-2" d="M101.5048828125,59.419921875c.0751953125.5302734375.15625,1.62890625.2412109375,3.2978515625.0859375,1.669921875.1767578125,3.689453125.2744140625,6.0615234375.0966796875,2.3720703125.1826171875,4.974609375.2548828125,7.8076171875.072265625,2.8349609375.1328125,5.681640625.1826171875,8.541015625.1513671875,6.734375.2666015625,14.1982421875.3466796875,22.3916015625.0703125.431640625.017578125.82421875-.158203125,1.1708984375-.1298828125.298828125-.3701171875.578125-.7197265625.837890625-.3486328125.2607421875-.861328125.408203125-1.537109375.443359375-.724609375.037109375-1.5673828125.1162109375-2.5283203125.2373046875-.9609375.123046875-1.9375.18359375-2.9287109375.1865234375-.9931640625.001953125-1.9189453125-.130859375-2.7802734375-.4033203125-.861328125-.2705078125-1.576171875-.7802734375-2.146484375-1.5263671875-.4111328125-.4638671875-1.1533203125-1.48046875-2.224609375-3.05078125-1.072265625-1.5703125-2.2451171875-3.4619140625-3.521484375-5.6767578125-2.1201171875-3.6259765625-4.265625-7.2392578125-6.43359375-10.837890625-2.1689453125-3.599609375-4.3681640625-7.3310546875-6.59765625-11.1953125l2.06640625,30.37890625c-.01953125.583984375-.13671875,1.125-.353515625,1.619140625-.2216796875.4482421875-.5537109375.8779296875-.99609375,1.2880859375-.443359375.412109375-1.076171875.685546875-1.8984375.82421875-.87109375.1416015625-1.7568359375.259765625-2.654296875.3544921875-.8994140625.09375-1.755859375.0654296875-2.568359375-.0869140625s-1.5126953125-.478515625-2.099609375-.982421875c-.587890625-.5029296875-.9833984375-1.306640625-1.185546875-2.4140625-.125-.5263671875-.2421875-1.6357421875-.3525390625-3.3271484375-.1123046875-1.6923828125-.2275390625-3.72265625-.3486328125-6.09375-.12109375-2.3701171875-.2314453125-4.984375-.3291015625-7.841796875-.0986328125-2.857421875-.197265625-5.7373046875-.2978515625-8.6435546875-.2041015625-6.828125-.421875-14.3837890625-.6513671875-22.6669921875-.0712890625-.4326171875-.0185546875-.822265625.158203125-1.171875.1298828125-.2978515625.345703125-.57421875.6484375-.8330078125.3017578125-.2587890625.7900390625-.4287109375,1.46484375-.51171875.384765625-.06640625,1.0478515625-.1494140625,1.98828125-.2470703125.94140625-.095703125,1.9072265625-.1708984375,2.8994140625-.2216796875.990234375-.05078125,1.9013671875-.0244140625,2.732421875.078125.8291015625.1025390625,1.349609375.3193359375,1.560546875.6474609375,3.41015625,5.0166015625,6.7587890625,10.0341796875,10.0478515625,15.0556640625,3.2880859375,5.0224609375,6.5439453125,10.09375,9.765625,15.21484375l-1.0947265625-28.46484375c.017578125-.58203125.16015625-1.1240234375.42578125-1.6220703125.2216796875-.3994140625.5654296875-.8046875,1.029296875-1.216796875.462890625-.412109375,1.12890625-.6884765625,1.9951171875-.830078125.8681640625-.091796875,1.748046875-.173828125,2.642578125-.244140625.8935546875-.0703125,1.7333984375-.0166015625,2.5185546875.1611328125.7841796875.1787109375,1.45703125.533203125,2.0185546875,1.0615234375.560546875.529296875.9423828125,1.345703125,1.14453125,2.451171875Z"/>
        <path class="cls-2" d="M129.658203125,62.197265625c-1.97265625,1.2646484375-3.7470703125,2.8369140625-5.3251953125,4.7109375-1.5771484375,1.8759765625-2.841796875,3.94140625-3.79296875,6.197265625-.9521484375,2.255859375-1.5712890625,4.6044921875-1.8583984375,7.04296875-.287109375,2.4404296875-.103515625,4.8564453125.5537109375,7.248046875.6552734375,2.392578125,1.8271484375,4.66015625,3.513671875,6.8037109375,1.685546875,2.1455078125,3.9775390625,4.0419921875,6.8759765625,5.6875.248046875.1328125.486328125.265625.7109375.3994140625.2255859375.134765625.4619140625.267578125.7119140625.400390625.3994140625.22265625.6455078125.5126953125.736328125.8720703125.0908203125.3583984375.0986328125.7587890625.0244140625,1.1982421875-.044921875,1.021484375-.3369140625,2.1767578125-.876953125,3.46484375-.541015625,1.2900390625-1.1259765625,2.4111328125-1.755859375,3.3642578125-.541015625.8037109375-1.322265625,1.1826171875-2.3427734375,1.138671875-1.0205078125-.0458984375-2.052734375-.3076171875-3.095703125-.787109375-2.4404296875-1.232421875-4.6884765625-2.7431640625-6.744140625-4.529296875-2.0556640625-1.787109375-3.8349609375-3.841796875-5.3359375-6.166015625-1.501953125-2.3232421875-2.6650390625-4.9072265625-3.4892578125-7.7509765625-.826171875-2.8427734375-1.2265625-5.9404296875-1.2041015625-9.287109375.0390625-3.009765625.4619140625-5.8935546875,1.2666015625-8.650390625.8046875-2.7578125,1.8974609375-5.3369140625,3.2783203125-7.736328125,1.3798828125-2.3984375,3.01171875-4.62890625,4.8955078125-6.6884765625,1.8828125-2.0615234375,3.923828125-3.8759765625,6.1240234375-5.443359375.6083984375-.419921875,1.216796875-.6083984375,1.826171875-.5673828125.6083984375.0419921875,1.1181640625.2958984375,1.5302734375.7587890625.462890625.509765625,1.029296875,1.16015625,1.701171875,1.94921875.669921875.791015625,1.2451171875,1.5986328125,1.724609375,2.421875.478515625.826171875.796875,1.5966796875.955078125,2.31640625.1572265625.7197265625-.044921875,1.263671875-.607421875,1.6318359375Z"/>
        <path class="cls-2" d="M151.517578125,108.2978515625c-3.2412109375.166015625-6.03515625-.396484375-8.3798828125-1.681640625-2.3466796875-1.2861328125-4.1943359375-3.265625-5.54296875-5.9365234375-1.349609375-2.6708984375-2.123046875-5.94140625-2.3212890625-9.8125-.2109375-4.111328125.2958984375-7.7021484375,1.521484375-10.7744140625,1.224609375-3.0693359375,3.06640625-5.4677734375,5.5244140625-7.193359375,2.4580078125-1.7265625,5.4287109375-2.6796875,8.912109375-2.8583984375,3.240234375-.166015625,6.0224609375.3955078125,8.34375,1.6826171875,2.3212890625,1.2880859375,4.1435546875,3.255859375,5.46875,5.9052734375,1.3232421875,2.6474609375,2.0849609375,5.9072265625,2.283203125,9.7763671875.2109375,4.11328125-.2841796875,7.7158203125-1.4833984375,10.80859375-1.2001953125,3.0927734375-3.017578125,5.501953125-5.4501953125,7.2265625-2.4345703125,1.7255859375-5.392578125,2.6787109375-8.8759765625,2.857421875ZM151.93359375,95.10546875c2.8046875-.1435546875,4.849609375-.70703125,6.1337890625-1.6953125,1.283203125-.9873046875,1.8779296875-2.400390625,1.783203125-4.23828125-.0693359375-1.35546875-.4658203125-2.4619140625-1.1884765625-3.322265625-.7236328125-.861328125-1.76171875-1.486328125-3.115234375-1.8779296875-1.35546875-.392578125-3.0234375-.537109375-5.0068359375-.435546875-2.7099609375.138671875-4.705078125.7021484375-5.98828125,1.689453125-1.2841796875.98828125-1.876953125,2.4248046875-1.7802734375,4.3115234375.0673828125,1.306640625.4501953125,2.390625,1.1494140625,3.251953125.6982421875.8623046875,1.7373046875,1.48828125,3.115234375,1.8779296875s3.0107421875.53515625,4.8974609375.4384765625Z"/>
        <path class="cls-2" d="M173.70703125,115.3818359375l-4.150390625-2.916015625-.08984375-1.7412109375c1.3994140625-1.0908203125,2.498046875-2.3720703125,3.2958984375-3.84375.7978515625-1.470703125,1.1630859375-2.861328125,1.0966796875-4.16796875-.0498046875-.966796875-.294921875-1.9482421875-.7333984375-2.9453125-.4404296875-.9951171875-.990234375-1.791015625-1.650390625-2.3876953125l.0927734375-1.0244140625c1.2080078125-1.0322265625,2.4267578125-1.8583984375,3.65625-2.4794921875,1.2294921875-.619140625,2.3271484375-.955078125,3.2958984375-1.0048828125,1.7890625-.091796875,3.2626953125.4873046875,4.41796875,1.73828125s1.7890625,2.96484375,1.900390625,5.1416015625c.0869140625,1.693359375-.3203125,3.4716796875-1.2177734375,5.3369140625-.8994140625,1.8642578125-2.189453125,3.6640625-3.87109375,5.400390625-1.681640625,1.734375-3.6953125,3.3642578125-6.04296875,4.8935546875Z"/>
        <path class="cls-2" d="M188.5185546875,100.580078125c1.541015625-.2236328125,2.7734375-.552734375,3.6962890625-.9892578125.923828125-.435546875,1.572265625-1.025390625,1.947265625-1.7724609375.373046875-.7470703125.5322265625-1.67578125.474609375-2.7900390625l-.75390625-14.73046875c-.08984375-1.7421875-.376953125-2.8544921875-.8623046875-3.3388671875-.4873046875-.4853515625-1.4072265625-.6923828125-2.7607421875-.623046875-.677734375.03515625-1.8359375.1669921875-3.4716796875.3955078125l-.6142578125-.623046875.240234375-5.2509765625c1.0107421875-.1484375,2.033203125-.30859375,3.0673828125-.484375,1.033203125-.1728515625,2.091796875-.349609375,3.1748046875-.5263671875,1.08203125-.17578125,2.12890625-.3388671875,3.1396484375-.48828125,2.306640625-.4091796875,4.373046875-.78125,6.19921875-1.1171875,1.826171875-.3369140625,3.2666015625-.6162109375,4.3232421875-.8408203125,1.0546875-.2236328125,1.583984375-.310546875,1.5869140625-.263671875l1.2412109375,2.919921875c-.7939453125.623046875-1.375,1.34375-1.7451171875,2.1630859375s-.6650390625,1.9140625-.88671875,3.2841796875c-.177734375,1.26953125-.2958984375,2.7421875-.35546875,4.4189453125-.0595703125,1.677734375-.068359375,3.6298828125-.02734375,5.8583984375.0419921875,2.2294921875.1416015625,4.892578125.2998046875,7.98828125.0849609375,1.64453125.375,2.830078125.8740234375,3.556640625.4970703125.7265625,1.2548828125,1.0634765625,2.2705078125,1.01171875.87109375-.044921875,1.95703125-.1484375,3.2578125-.3134765625l.240234375.42578125-.623046875,6.287109375c-1.6015625-.015625-2.9970703125-.0166015625-4.18359375-.00390625-1.189453125.0126953125-2.400390625.0263671875-3.6357421875.0419921875-1.236328125.013671875-2.3388671875.046875-3.3056640625.0966796875-1.306640625.06640625-2.7197265625.17578125-4.240234375.3271484375-1.51953125.1494140625-2.955078125.306640625-4.3046875.4736328125-1.349609375.166015625-2.890625.3662109375-4.625.6015625l.3623046875-5.6943359375Z"/>
        <path class="cls-2" d="M215.57421875,57.794921875c-.5498046875-.310546875-.76953125-.8330078125-.662109375-1.56640625.1083984375-.7333984375.369140625-1.5341796875.7861328125-2.4052734375.416015625-.869140625.9306640625-1.732421875,1.541015625-2.58984375.611328125-.8544921875,1.14453125-1.5615234375,1.6015625-2.1181640625.361328125-.501953125.8427734375-.806640625,1.4443359375-.9111328125.6005859375-.103515625,1.2255859375.0224609375,1.875.3779296875,2.298828125,1.3369140625,4.443359375,2.9365234375,6.4306640625,4.7998046875,1.986328125,1.861328125,3.7529296875,3.9169921875,5.2998046875,6.166015625,1.544921875,2.2490234375,2.798828125,4.7080078125,3.7607421875,7.375.9609375,2.6669921875,1.5419921875,5.4990234375,1.7451171875,8.4970703125.21875,3.333984375.00390625,6.462890625-.6474609375,9.3818359375-.650390625,2.919921875-1.65234375,5.6142578125-3.0048828125,8.083984375-1.353515625,2.4697265625-2.9970703125,4.7001953125-4.9326171875,6.6923828125-1.9345703125,1.9892578125-4.1015625,3.7265625-6.4990234375,5.20703125-.9892578125.583984375-1.9892578125.94921875-3,1.099609375-1.0107421875.1484375-1.826171875-.1494140625-2.4462890625-.8935546875-.6767578125-.88671875-1.3125-1.9443359375-1.9091796875-3.17578125-.59765625-1.23046875-.9697265625-2.3515625-1.1181640625-3.36328125-.0712890625-.431640625-.0673828125-.83203125.01171875-1.2001953125.0771484375-.3681640625.3037109375-.681640625.6787109375-.9443359375.234375-.1572265625.45703125-.3134765625.6669921875-.470703125.2099609375-.15625.4326171875-.3125.6669921875-.470703125,2.8115234375-1.9375,4.9814453125-4.0634765625,6.5126953125-6.373046875,1.5302734375-2.30859375,2.548828125-4.6884765625,3.0537109375-7.140625.50390625-2.451171875.55078125-4.87890625.13671875-7.2822265625s-1.1748046875-4.681640625-2.2783203125-6.83203125c-1.1044921875-2.150390625-2.4892578125-4.080078125-4.1533203125-5.7900390625-1.6640625-1.7080078125-3.517578125-3.09375-5.560546875-4.1533203125Z"/>
        <path class="cls-2" d="M94.0537109375,161.080078125c-1.021484375,1.84765625-2.0439453125,3.669921875-3.06640625,5.4677734375-1.0244140625,1.798828125-2.021484375,3.6455078125-2.990234375,5.537109375-1.3251953125,2.5419921875-2.650390625,5.083984375-3.9755859375,7.625-1.32421875,2.5419921875-2.6240234375,5.107421875-3.8974609375,7.6943359375,3.08984375-.2548828125,6.4150390625-.44921875,9.9736328125-.583984375,3.55859375-.1337890625,6.8916015625-.1591796875,10-.0751953125.38671875-.0205078125.720703125.0966796875,1.0009765625.34765625.2783203125.2529296875.501953125.58203125.66796875.9853515625.1669921875.404296875.2841796875.810546875.353515625,1.21875.0693359375.4091796875.1123046875.7578125.126953125,1.0478515625-.0068359375.8251953125-.0224609375,1.6884765625-.0498046875,2.5859375-.0263671875.8984375-.12890625,1.728515625-.30859375,2.4892578125-.1796875.76171875-.4619140625,1.4052734375-.8466796875,1.935546875-.3857421875.5283203125-.8916015625.833984375-1.517578125.9150390625-.3828125.115234375-1.083984375.1513671875-2.1044921875.107421875-1.0205078125-.0458984375-2.259765625-.0791015625-3.7158203125-.1015625-3.994140625-.3291015625-8.216796875-.37890625-12.6669921875-.150390625-4.4521484375.2275390625-8.7509765625.5693359375-12.8984375,1.0244140625-.240234375.0595703125-.4609375.0234375-.6611328125-.111328125-.1982421875-.0869140625-.4140625-.2705078125-.646484375-.548828125-.232421875-.2802734375-.4150390625-.75390625-.5458984375-1.427734375-.248046875-1.0537109375-.4287109375-1.9794921875-.5419921875-2.7734375-.11328125-.794921875-.185546875-1.482421875-.21484375-2.0634765625-.0302734375-.580078125-.0087890625-1.1015625.0654296875-1.56640625.072265625-.4638671875.1962890625-.8955078125.3701171875-1.2919921875,1.2021484375-3.01953125,2.54296875-5.974609375,4.0205078125-8.865234375,1.4765625-2.8876953125,3.0517578125-5.7451171875,4.7265625-8.572265625,1.673828125-2.826171875,3.384765625-5.6416015625,5.1328125-8.4482421875,1.748046875-2.8056640625,3.49609375-5.611328125,5.244140625-8.41796875-3.0458984375.205078125-6.068359375.3837890625-9.0673828125.537109375-3,.154296875-6.025390625.2607421875-9.078125.3203125-.3935546875-.0771484375-.7392578125-.228515625-1.0419921875-.45703125-.255859375-.2275390625-.5146484375-.5654296875-.7802734375-1.013671875-.265625-.447265625-.419921875-1.107421875-.46484375-1.978515625-.0908203125-.8193359375-.158203125-1.67578125-.2041015625-2.5712890625-.0458984375-.89453125-.0166015625-1.7333984375.0888671875-2.5146484375s.3134765625-1.4462890625.6259765625-1.99609375c.310546875-.5498046875.8017578125-.8896484375,1.474609375-1.021484375.3818359375-.1162109375,1.09375-.177734375,2.1376953125-.18359375,1.0419921875-.00390625,2.2919921875.005859375,3.748046875.02734375,4.271484375.0712890625,8.4873046875-.0107421875,12.6474609375-.248046875,4.158203125-.2373046875,8.392578125-.44140625,12.701171875-.6142578125.53125-.02734375.943359375-.048828125,1.2333984375-.0634765625s.509765625.009765625.658203125.076171875c.1494140625.064453125.240234375.2060546875.2763671875.421875.03515625.2158203125.11328125.5654296875.2353515625,1.04296875.0751953125.529296875.1552734375,1.1455078125.240234375,1.8427734375.0830078125.7001953125.1435546875,1.375.1767578125,2.0283203125.033203125.65234375.0263671875,1.2236328125-.021484375,1.7109375-.0478515625.48828125-.140625.80859375-.2783203125.958984375-1.142578125,1.3701171875-2.23046875,2.869140625-3.26171875,4.498046875-1.033203125,1.6279296875-2.0595703125,3.3671875-3.080078125,5.2138671875Z"/>
      </g>
      <g>
        <path class="cls-3" d="M101.5048828125,59.419921875c.0751953125.5302734375.15625,1.62890625.2412109375,3.2978515625.0859375,1.669921875.1767578125,3.689453125.2744140625,6.0615234375.0966796875,2.3720703125.1826171875,4.974609375.2548828125,7.8076171875.072265625,2.8349609375.1328125,5.681640625.1826171875,8.541015625.1513671875,6.734375.2666015625,14.1982421875.3466796875,22.3916015625.0703125.431640625.017578125.82421875-.158203125,1.1708984375-.1298828125.298828125-.3701171875.578125-.7197265625.837890625-.3486328125.2607421875-.861328125.408203125-1.537109375.443359375-.724609375.037109375-1.5673828125.1162109375-2.5283203125.2373046875-.9609375.123046875-1.9375.18359375-2.9287109375.1865234375-.9931640625.001953125-1.9189453125-.130859375-2.7802734375-.4033203125-.861328125-.2705078125-1.576171875-.7802734375-2.146484375-1.5263671875-.4111328125-.4638671875-1.1533203125-1.48046875-2.224609375-3.05078125-1.072265625-1.5703125-2.2451171875-3.4619140625-3.521484375-5.6767578125-2.1201171875-3.6259765625-4.265625-7.2392578125-6.43359375-10.837890625-2.1689453125-3.599609375-4.3681640625-7.3310546875-6.59765625-11.1953125l2.06640625,30.37890625c-.01953125.583984375-.13671875,1.125-.353515625,1.619140625-.2216796875.4482421875-.5537109375.8779296875-.99609375,1.2880859375-.443359375.412109375-1.076171875.685546875-1.8984375.82421875-.87109375.1416015625-1.7568359375.259765625-2.654296875.3544921875-.8994140625.09375-1.755859375.0654296875-2.568359375-.0869140625s-1.5126953125-.478515625-2.099609375-.982421875c-.587890625-.5029296875-.9833984375-1.306640625-1.185546875-2.4140625-.125-.5263671875-.2421875-1.6357421875-.3525390625-3.3271484375-.1123046875-1.6923828125-.2275390625-3.72265625-.3486328125-6.09375-.12109375-2.3701171875-.2314453125-4.984375-.3291015625-7.841796875-.0986328125-2.857421875-.197265625-5.7373046875-.2978515625-8.6435546875-.2041015625-6.828125-.421875-14.3837890625-.6513671875-22.6669921875-.0712890625-.4326171875-.0185546875-.822265625.158203125-1.171875.1298828125-.2978515625.345703125-.57421875.6484375-.8330078125.3017578125-.2587890625.7900390625-.4287109375,1.46484375-.51171875.384765625-.06640625,1.0478515625-.1494140625,1.98828125-.2470703125.94140625-.095703125,1.9072265625-.1708984375,2.8994140625-.2216796875.990234375-.05078125,1.9013671875-.0244140625,2.732421875.078125.8291015625.1025390625,1.349609375.3193359375,1.560546875.6474609375,3.41015625,5.0166015625,6.7587890625,10.0341796875,10.0478515625,15.0556640625,3.2880859375,5.0224609375,6.5439453125,10.09375,9.765625,15.21484375l-1.0947265625-28.46484375c.017578125-.58203125.16015625-1.1240234375.42578125-1.6220703125.2216796875-.3994140625.5654296875-.8046875,1.029296875-1.216796875.462890625-.412109375,1.12890625-.6884765625,1.9951171875-.830078125.8681640625-.091796875,1.748046875-.173828125,2.642578125-.244140625.8935546875-.0703125,1.7333984375-.0166015625,2.5185546875.1611328125.7841796875.1787109375,1.45703125.533203125,2.0185546875,1.0615234375.560546875.529296875.9423828125,1.345703125,1.14453125,2.451171875Z"/>
        <path class="cls-3" d="M129.658203125,62.197265625c-1.97265625,1.2646484375-3.7470703125,2.8369140625-5.3251953125,4.7109375-1.5771484375,1.8759765625-2.841796875,3.94140625-3.79296875,6.197265625-.9521484375,2.255859375-1.5712890625,4.6044921875-1.8583984375,7.04296875-.287109375,2.4404296875-.103515625,4.8564453125.5537109375,7.248046875.6552734375,2.392578125,1.8271484375,4.66015625,3.513671875,6.8037109375,1.685546875,2.1455078125,3.9775390625,4.0419921875,6.8759765625,5.6875.248046875.1328125.486328125.265625.7109375.3994140625.2255859375.134765625.4619140625.267578125.7119140625.400390625.3994140625.22265625.6455078125.5126953125.736328125.8720703125.0908203125.3583984375.0986328125.7587890625.0244140625,1.1982421875-.044921875,1.021484375-.3369140625,2.1767578125-.876953125,3.46484375-.541015625,1.2900390625-1.1259765625,2.4111328125-1.755859375,3.3642578125-.541015625.8037109375-1.322265625,1.1826171875-2.3427734375,1.138671875-1.0205078125-.0458984375-2.052734375-.3076171875-3.095703125-.787109375-2.4404296875-1.232421875-4.6884765625-2.7431640625-6.744140625-4.529296875-2.0556640625-1.787109375-3.8349609375-3.841796875-5.3359375-6.166015625-1.501953125-2.3232421875-2.6650390625-4.9072265625-3.4892578125-7.7509765625-.826171875-2.8427734375-1.2265625-5.9404296875-1.2041015625-9.287109375.0390625-3.009765625.4619140625-5.8935546875,1.2666015625-8.650390625.8046875-2.7578125,1.8974609375-5.3369140625,3.2783203125-7.736328125,1.3798828125-2.3984375,3.01171875-4.62890625,4.8955078125-6.6884765625,1.8828125-2.0615234375,3.923828125-3.8759765625,6.1240234375-5.443359375.6083984375-.419921875,1.216796875-.6083984375,1.826171875-.5673828125.6083984375.0419921875,1.1181640625.2958984375,1.5302734375.7587890625.462890625.509765625,1.029296875,1.16015625,1.701171875,1.94921875.669921875.791015625,1.2451171875,1.5986328125,1.724609375,2.421875.478515625.826171875.796875,1.5966796875.955078125,2.31640625.1572265625.7197265625-.044921875,1.263671875-.607421875,1.6318359375Z"/>
        <path class="cls-3" d="M151.517578125,108.2978515625c-3.2412109375.166015625-6.03515625-.396484375-8.3798828125-1.681640625-2.3466796875-1.2861328125-4.1943359375-3.265625-5.54296875-5.9365234375-1.349609375-2.6708984375-2.123046875-5.94140625-2.3212890625-9.8125-.2109375-4.111328125.2958984375-7.7021484375,1.521484375-10.7744140625,1.224609375-3.0693359375,3.06640625-5.4677734375,5.5244140625-7.193359375,2.4580078125-1.7265625,5.4287109375-2.6796875,8.912109375-2.8583984375,3.240234375-.166015625,6.0224609375.3955078125,8.34375,1.6826171875,2.3212890625,1.2880859375,4.1435546875,3.255859375,5.46875,5.9052734375,1.3232421875,2.6474609375,2.0849609375,5.9072265625,2.283203125,9.7763671875.2109375,4.11328125-.2841796875,7.7158203125-1.4833984375,10.80859375-1.2001953125,3.0927734375-3.017578125,5.501953125-5.4501953125,7.2265625-2.4345703125,1.7255859375-5.392578125,2.6787109375-8.8759765625,2.857421875ZM151.93359375,95.10546875c2.8046875-.1435546875,4.849609375-.70703125,6.1337890625-1.6953125,1.283203125-.9873046875,1.8779296875-2.400390625,1.783203125-4.23828125-.0693359375-1.35546875-.4658203125-2.4619140625-1.1884765625-3.322265625-.7236328125-.861328125-1.76171875-1.486328125-3.115234375-1.8779296875-1.35546875-.392578125-3.0234375-.537109375-5.0068359375-.435546875-2.7099609375.138671875-4.705078125.7021484375-5.98828125,1.689453125-1.2841796875.98828125-1.876953125,2.4248046875-1.7802734375,4.3115234375.0673828125,1.306640625.4501953125,2.390625,1.1494140625,3.251953125.6982421875.8623046875,1.7373046875,1.48828125,3.115234375,1.8779296875s3.0107421875.53515625,4.8974609375.4384765625Z"/>
        <path class="cls-3" d="M173.70703125,115.3818359375l-4.150390625-2.916015625-.08984375-1.7412109375c1.3994140625-1.0908203125,2.498046875-2.3720703125,3.2958984375-3.84375.7978515625-1.470703125,1.1630859375-2.861328125,1.0966796875-4.16796875-.0498046875-.966796875-.294921875-1.9482421875-.7333984375-2.9453125-.4404296875-.9951171875-.990234375-1.791015625-1.650390625-2.3876953125l.0927734375-1.0244140625c1.2080078125-1.0322265625,2.4267578125-1.8583984375,3.65625-2.4794921875,1.2294921875-.619140625,2.3271484375-.955078125,3.2958984375-1.0048828125,1.7890625-.091796875,3.2626953125.4873046875,4.41796875,1.73828125s1.7890625,2.96484375,1.900390625,5.1416015625c.0869140625,1.693359375-.3203125,3.4716796875-1.2177734375,5.3369140625-.8994140625,1.8642578125-2.189453125,3.6640625-3.87109375,5.400390625-1.681640625,1.734375-3.6953125,3.3642578125-6.04296875,4.8935546875Z"/>
        <path class="cls-3" d="M188.5185546875,100.580078125c1.541015625-.2236328125,2.7734375-.552734375,3.6962890625-.9892578125.923828125-.435546875,1.572265625-1.025390625,1.947265625-1.7724609375.373046875-.7470703125.5322265625-1.67578125.474609375-2.7900390625l-.75390625-14.73046875c-.08984375-1.7421875-.376953125-2.8544921875-.8623046875-3.3388671875-.4873046875-.4853515625-1.4072265625-.6923828125-2.7607421875-.623046875-.677734375.03515625-1.8359375.1669921875-3.4716796875.3955078125l-.6142578125-.623046875.240234375-5.2509765625c1.0107421875-.1484375,2.033203125-.30859375,3.0673828125-.484375,1.033203125-.1728515625,2.091796875-.349609375,3.1748046875-.5263671875,1.08203125-.17578125,2.12890625-.3388671875,3.1396484375-.48828125,2.306640625-.4091796875,4.373046875-.78125,6.19921875-1.1171875,1.826171875-.3369140625,3.2666015625-.6162109375,4.3232421875-.8408203125,1.0546875-.2236328125,1.583984375-.310546875,1.5869140625-.263671875l1.2412109375,2.919921875c-.7939453125.623046875-1.375,1.34375-1.7451171875,2.1630859375s-.6650390625,1.9140625-.88671875,3.2841796875c-.177734375,1.26953125-.2958984375,2.7421875-.35546875,4.4189453125-.0595703125,1.677734375-.068359375,3.6298828125-.02734375,5.8583984375.0419921875,2.2294921875.1416015625,4.892578125.2998046875,7.98828125.0849609375,1.64453125.375,2.830078125.8740234375,3.556640625.4970703125.7265625,1.2548828125,1.0634765625,2.2705078125,1.01171875.87109375-.044921875,1.95703125-.1484375,3.2578125-.3134765625l.240234375.42578125-.623046875,6.287109375c-1.6015625-.015625-2.9970703125-.0166015625-4.18359375-.00390625-1.189453125.0126953125-2.400390625.0263671875-3.6357421875.0419921875-1.236328125.013671875-2.3388671875.046875-3.3056640625.0966796875-1.306640625.06640625-2.7197265625.17578125-4.240234375.3271484375-1.51953125.1494140625-2.955078125.306640625-4.3046875.4736328125-1.349609375.166015625-2.890625.3662109375-4.625.6015625l.3623046875-5.6943359375Z"/>
        <path class="cls-3" d="M215.57421875,57.794921875c-.5498046875-.310546875-.76953125-.8330078125-.662109375-1.56640625.1083984375-.7333984375.369140625-1.5341796875.7861328125-2.4052734375.416015625-.869140625.9306640625-1.732421875,1.541015625-2.58984375.611328125-.8544921875,1.14453125-1.5615234375,1.6015625-2.1181640625.361328125-.501953125.8427734375-.806640625,1.4443359375-.9111328125.6005859375-.103515625,1.2255859375.0224609375,1.875.3779296875,2.298828125,1.3369140625,4.443359375,2.9365234375,6.4306640625,4.7998046875,1.986328125,1.861328125,3.7529296875,3.9169921875,5.2998046875,6.166015625,1.544921875,2.2490234375,2.798828125,4.7080078125,3.7607421875,7.375.9609375,2.6669921875,1.5419921875,5.4990234375,1.7451171875,8.4970703125.21875,3.333984375.00390625,6.462890625-.6474609375,9.3818359375-.650390625,2.919921875-1.65234375,5.6142578125-3.0048828125,8.083984375-1.353515625,2.4697265625-2.9970703125,4.7001953125-4.9326171875,6.6923828125-1.9345703125,1.9892578125-4.1015625,3.7265625-6.4990234375,5.20703125-.9892578125.583984375-1.9892578125.94921875-3,1.099609375-1.0107421875.1484375-1.826171875-.1494140625-2.4462890625-.8935546875-.6767578125-.88671875-1.3125-1.9443359375-1.9091796875-3.17578125-.59765625-1.23046875-.9697265625-2.3515625-1.1181640625-3.36328125-.0712890625-.431640625-.0673828125-.83203125.01171875-1.2001953125.0771484375-.3681640625.3037109375-.681640625.6787109375-.9443359375.234375-.1572265625.45703125-.3134765625.6669921875-.470703125.2099609375-.15625.4326171875-.3125.6669921875-.470703125,2.8115234375-1.9375,4.9814453125-4.0634765625,6.5126953125-6.373046875,1.5302734375-2.30859375,2.548828125-4.6884765625,3.0537109375-7.140625.50390625-2.451171875.55078125-4.87890625.13671875-7.2822265625s-1.1748046875-4.681640625-2.2783203125-6.83203125c-1.1044921875-2.150390625-2.4892578125-4.080078125-4.1533203125-5.7900390625-1.6640625-1.7080078125-3.517578125-3.09375-5.560546875-4.1533203125Z"/>
        <path class="cls-3" d="M94.0537109375,161.080078125c-1.021484375,1.84765625-2.0439453125,3.669921875-3.06640625,5.4677734375-1.0244140625,1.798828125-2.021484375,3.6455078125-2.990234375,5.537109375-1.3251953125,2.5419921875-2.650390625,5.083984375-3.9755859375,7.625-1.32421875,2.5419921875-2.6240234375,5.107421875-3.8974609375,7.6943359375,3.08984375-.2548828125,6.4150390625-.44921875,9.9736328125-.583984375,3.55859375-.1337890625,6.8916015625-.1591796875,10-.0751953125.38671875-.0205078125.720703125.0966796875,1.0009765625.34765625.2783203125.2529296875.501953125.58203125.66796875.9853515625.1669921875.404296875.2841796875.810546875.353515625,1.21875.0693359375.4091796875.1123046875.7578125.126953125,1.0478515625-.0068359375.8251953125-.0224609375,1.6884765625-.0498046875,2.5859375-.0263671875.8984375-.12890625,1.728515625-.30859375,2.4892578125-.1796875.76171875-.4619140625,1.4052734375-.8466796875,1.935546875-.3857421875.5283203125-.8916015625.833984375-1.517578125.9150390625-.3828125.115234375-1.083984375.1513671875-2.1044921875.107421875-1.0205078125-.0458984375-2.259765625-.0791015625-3.7158203125-.1015625-3.994140625-.3291015625-8.216796875-.37890625-12.6669921875-.150390625-4.4521484375.2275390625-8.7509765625.5693359375-12.8984375,1.0244140625-.240234375.0595703125-.4609375.0234375-.6611328125-.111328125-.1982421875-.0869140625-.4140625-.2705078125-.646484375-.548828125-.232421875-.2802734375-.4150390625-.75390625-.5458984375-1.427734375-.248046875-1.0537109375-.4287109375-1.9794921875-.5419921875-2.7734375-.11328125-.794921875-.185546875-1.482421875-.21484375-2.0634765625-.0302734375-.580078125-.0087890625-1.1015625.0654296875-1.56640625.072265625-.4638671875.1962890625-.8955078125.3701171875-1.2919921875,1.2021484375-3.01953125,2.54296875-5.974609375,4.0205078125-8.865234375,1.4765625-2.8876953125,3.0517578125-5.7451171875,4.7265625-8.572265625,1.673828125-2.826171875,3.384765625-5.6416015625,5.1328125-8.4482421875,1.748046875-2.8056640625,3.49609375-5.611328125,5.244140625-8.41796875-3.0458984375.205078125-6.068359375.3837890625-9.0673828125.537109375-3,.154296875-6.025390625.2607421875-9.078125.3203125-.3935546875-.0771484375-.7392578125-.228515625-1.0419921875-.45703125-.255859375-.2275390625-.5146484375-.5654296875-.7802734375-1.013671875-.265625-.447265625-.419921875-1.107421875-.46484375-1.978515625-.0908203125-.8193359375-.158203125-1.67578125-.2041015625-2.5712890625-.0458984375-.89453125-.0166015625-1.7333984375.0888671875-2.5146484375s.3134765625-1.4462890625.6259765625-1.99609375c.310546875-.5498046875.8017578125-.8896484375,1.474609375-1.021484375.3818359375-.1162109375,1.09375-.177734375,2.1376953125-.18359375,1.0419921875-.00390625,2.2919921875.005859375,3.748046875.02734375,4.271484375.0712890625,8.4873046875-.0107421875,12.6474609375-.248046875,4.158203125-.2373046875,8.392578125-.44140625,12.701171875-.6142578125.53125-.02734375.943359375-.048828125,1.2333984375-.0634765625s.509765625.009765625.658203125.076171875c.1494140625.064453125.240234375.2060546875.2763671875.421875.03515625.2158203125.11328125.5654296875.2353515625,1.04296875.0751953125.529296875.1552734375,1.1455078125.240234375,1.8427734375.0830078125.7001953125.1435546875,1.375.1767578125,2.0283203125.033203125.65234375.0263671875,1.2236328125-.021484375,1.7109375-.0478515625.48828125-.140625.80859375-.2783203125.958984375-1.142578125,1.3701171875-2.23046875,2.869140625-3.26171875,4.498046875-1.033203125,1.6279296875-2.0595703125,3.3671875-3.080078125,5.2138671875Z"/>
      </g>
    </g>
  </a>
</svg>