<?xml version="1.0" encoding="UTF-8"?>
<svg id="Content" xmlns="http://www.w3.org/2000/svg" xmlns:xlink="http://www.w3.org/1999/xlink" viewBox="0 0 280 280">
  <defs>
    <style>
      .cls-1 {
        stroke: #665451;
        stroke-width: 50px;
      }

      .cls-1, .cls-2 {
        fill: none;
        stroke-linecap: round;
        stroke-linejoin: round;
      }

      .cls-3 {
        fill: #fff;
      }

      .cls-2 {
        stroke: #998675;
        stroke-width: 2px;
      }
    </style>
  </defs>
  <a xlink:href="https://www.notion.so/congruence/Standard-deviation-afa3b68e0cf14a69be1f78a3c6ab6946?pvs=4">
    <g>
      <path d="M130.682316076609823,96.97350355884555c-.070137511090252.226399680794202-.270288062859436.822496783667702-.067770890269458.945634433192026,15.826089186110039,9.622825554119117,23.3731168303093,26.981916737164283,21.899099966939502,47.549465659085399-1.15210513457987,16.075785364261719-6.91338862333032,28.49452439972174-17.283850466249532,37.256217106376425-10.370461842910117,8.761692706653776-23.554930958410296,12.569256748273801-39.551166506600566,11.422852719387265-15.446109355430053-1.106978072580205-27.427915406789907-6.875800859866104-35.947498399459619-17.308869796275758-8.519743587190533-10.4308280965206-12.214804430350341-23.527276034674287-11.085182529500344-39.289343814468339,1.135162412009777-15.839376755959165,5.412025747450571-28.264270358084104,12.829710478150446-37.278122363464718,7.418724853379899-9.012651288175221,16.367605843180172-14.807398758167437,26.849923932009915-17.382881098239523,10.48007724891977-2.575642934602001,23.287432178819472-3.321136685217425,38.41758310988007-2.236802440902466l42.323586070740021,3.033209247402738c2.934149976949811.210282059476413,5.142281210839428,2.759347874273772,4.931999151369382,5.693497851224492l-.382135073439713,5.332084057528846c-.210282059480051,2.934149976948902-2.759347874270134,5.142281210834881-5.693497851219945,4.931999151358468,0,0-35.815280255479593-7.270436185164726-37.24080099235016-2.668940712204858ZM118.758450947209894,100.444460221015106c-2.020964799169633-2.692731832893514-5.207540809699822-4.288257206546405-8.574253720439629-4.26961263593239-24.247727729460166.134281860045121-37.396879563760194,14.533368462847648-39.450987822010575,43.19516544941871-.988379014619568,13.79124909733855.806027577570603,24.65173005696488,5.387540861800517,32.584004907812414,4.579272444329945,7.932114256318528,11.400447132179579,12.222933666108474,20.463524063579825,12.87245822936984,20.567548921920206,1.47401686336616,31.864955886820098-11.932595874852268,33.892542083730405-40.224319894434302,1.244947935519122-17.371258230117746-2.661212405430888-32.089952781641841-11.718365466660543-44.157696056234272Z"/>
      <path class="cls-1" d="M130.682316076609823,96.97350355884555c-.070137511090252.226399680794202-.270288062859436.822496783667702-.067770890269458.945634433192026,15.826089186110039,9.622825554119117,23.3731168303093,26.981916737164283,21.899099966939502,47.549465659085399-1.15210513457987,16.075785364261719-6.91338862333032,28.49452439972174-17.283850466249532,37.256217106376425-10.370461842910117,8.761692706653776-23.554930958410296,12.569256748273801-39.551166506600566,11.422852719387265-15.446109355430053-1.106978072580205-27.427915406789907-6.875800859866104-35.947498399459619-17.308869796275758-8.519743587190533-10.4308280965206-12.214804430350341-23.527276034674287-11.085182529500344-39.289343814468339,1.135162412009777-15.839376755959165,5.412025747450571-28.264270358084104,12.829710478150446-37.278122363464718,7.418724853379899-9.012651288175221,16.367605843180172-14.807398758167437,26.849923932009915-17.382881098239523,10.48007724891977-2.575642934602001,23.287432178819472-3.321136685217425,38.41758310988007-2.236802440902466l42.323586070740021,3.033209247402738c2.934149976949811.210282059476413,5.142281210839428,2.759347874273772,4.931999151369382,5.693497851224492l-.382135073439713,5.332084057528846c-.210282059480051,2.934149976948902-2.759347874270134,5.142281210834881-5.693497851219945,4.931999151358468,0,0-35.815280255479593-7.270436185164726-37.24080099235016-2.668940712204858ZM118.758450947209894,100.444460221015106c-2.020964799169633-2.692731832893514-5.207540809699822-4.288257206546405-8.574253720439629-4.26961263593239-24.247727729460166.134281860045121-37.396879563760194,14.533368462847648-39.450987822010575,43.19516544941871-.988379014619568,13.79124909733855.806027577570603,24.65173005696488,5.387540861800517,32.584004907812414,4.579272444329945,7.932114256318528,11.400447132179579,12.222933666108474,20.463524063579825,12.87245822936984,20.567548921920206,1.47401686336616,31.864955886820098-11.932595874852268,33.892542083730405-40.224319894434302,1.244947935519122-17.371258230117746-2.661212405430888-32.089952781641841-11.718365466660543-44.157696056234272Z"/>
      <path class="cls-2" d="M130.682316076609823,96.97350355884555c-.070137511090252.226399680794202-.270288062859436.822496783667702-.067770890269458.945634433192026,15.826089186110039,9.622825554119117,23.3731168303093,26.981916737164283,21.899099966939502,47.549465659085399-1.15210513457987,16.075785364261719-6.91338862333032,28.49452439972174-17.283850466249532,37.256217106376425-10.370461842910117,8.761692706653776-23.554930958410296,12.569256748273801-39.551166506600566,11.422852719387265-15.446109355430053-1.106978072580205-27.427915406789907-6.875800859866104-35.947498399459619-17.308869796275758-8.519743587190533-10.4308280965206-12.214804430350341-23.527276034674287-11.085182529500344-39.289343814468339,1.135162412009777-15.839376755959165,5.412025747450571-28.264270358084104,12.829710478150446-37.278122363464718,7.418724853379899-9.012651288175221,16.367605843180172-14.807398758167437,26.849923932009915-17.382881098239523,10.48007724891977-2.575642934602001,23.287432178819472-3.321136685217425,38.41758310988007-2.236802440902466l42.323586070740021,3.033209247402738c2.934149976949811.210282059476413,5.142281210839428,2.759347874273772,4.931999151369382,5.693497851224492l-.382135073439713,5.332084057528846c-.210282059480051,2.934149976948902-2.759347874270134,5.142281210834881-5.693497851219945,4.931999151358468,0,0-35.815280255479593-7.270436185164726-37.24080099235016-2.668940712204858ZM118.758450947209894,100.444460221015106c-2.020964799169633-2.692731832893514-5.207540809699822-4.288257206546405-8.574253720439629-4.26961263593239-24.247727729460166.134281860045121-37.396879563760194,14.533368462847648-39.450987822010575,43.19516544941871-.988379014619568,13.79124909733855.806027577570603,24.65173005696488,5.387540861800517,32.584004907812414,4.579272444329945,7.932114256318528,11.400447132179579,12.222933666108474,20.463524063579825,12.87245822936984,20.567548921920206,1.47401686336616,31.864955886820098-11.932595874852268,33.892542083730405-40.224319894434302,1.244947935519122-17.371258230117746-2.661212405430888-32.089952781641841-11.718365466660543-44.157696056234272Z"/>
      <path class="cls-3" d="M130.682316076609823,96.97350355884555c-.070137511090252.226399680794202-.270288062859436.822496783667702-.067770890269458.945634433192026,15.826089186110039,9.622825554119117,23.3731168303093,26.981916737164283,21.899099966939502,47.549465659085399-1.15210513457987,16.075785364261719-6.91338862333032,28.49452439972174-17.283850466249532,37.256217106376425-10.370461842910117,8.761692706653776-23.554930958410296,12.569256748273801-39.551166506600566,11.422852719387265-15.446109355430053-1.106978072580205-27.427915406789907-6.875800859866104-35.947498399459619-17.308869796275758-8.519743587190533-10.4308280965206-12.214804430350341-23.527276034674287-11.085182529500344-39.289343814468339,1.135162412009777-15.839376755959165,5.412025747450571-28.264270358084104,12.829710478150446-37.278122363464718,7.418724853379899-9.012651288175221,16.367605843180172-14.807398758167437,26.849923932009915-17.382881098239523,10.48007724891977-2.575642934602001,23.287432178819472-3.321136685217425,38.41758310988007-2.236802440902466l42.323586070740021,3.033209247402738c2.934149976949811.210282059476413,5.142281210839428,2.759347874273772,4.931999151369382,5.693497851224492l-.382135073439713,5.332084057528846c-.210282059480051,2.934149976948902-2.759347874270134,5.142281210834881-5.693497851219945,4.931999151358468,0,0-35.815280255479593-7.270436185164726-37.24080099235016-2.668940712204858ZM118.758450947209894,100.444460221015106c-2.020964799169633-2.692731832893514-5.207540809699822-4.288257206546405-8.574253720439629-4.26961263593239-24.247727729460166.134281860045121-37.396879563760194,14.533368462847648-39.450987822010575,43.19516544941871-.988379014619568,13.79124909733855.806027577570603,24.65173005696488,5.387540861800517,32.584004907812414,4.579272444329945,7.932114256318528,11.400447132179579,12.222933666108474,20.463524063579825,12.87245822936984,20.567548921920206,1.47401686336616,31.864955886820098-11.932595874852268,33.892542083730405-40.224319894434302,1.244947935519122-17.371258230117746-2.661212405430888-32.089952781641841-11.718365466660543-44.157696056234272Z"/>
    </g>
  </a>
</svg>