<?xml version="1.0" encoding="UTF-8"?>
<svg id="Content" xmlns="http://www.w3.org/2000/svg" xmlns:xlink="http://www.w3.org/1999/xlink" viewBox="0 0 280 280">
  <defs>
    <style>
      .cls-1 {
        stroke: #665451;
        stroke-width: 50px;
      }

      .cls-1, .cls-2 {
        fill: none;
        stroke-linecap: round;
        stroke-linejoin: round;
      }

      .cls-3 {
        fill: #fff;
      }

      .cls-2 {
        stroke: #998675;
        stroke-width: 2px;
      }
    </style>
  </defs>
  <a xlink:href="https://www.notion.so/congruence/Standard-normal-distribution-7240d30a841346fda38999385a955709?pvs=4">
    <g>
      <g>
        <path class="cls-1" d="M101.504882812498181,59.419921875c.0751953125.529296875.15625,1.62890625.2412109375,3.296875.0859375,1.669921875.1767578125,3.6904296875.2744140625,6.0615234375.0966796875,2.3720703125.1826171875,4.9755859375.2548828125,7.80859375.072265625,2.833984375.1328125,5.6806640625.1826171875,8.5400390625.1513671875,6.734375.265625,14.1982421875.3466796875,22.3916015625.0703125.4326171875.017578125.82421875-.158203125,1.171875-.1298828125.2978515625-.3701171875.5771484375-.7197265625.837890625-.3486328125.259765625-.861328125.4072265625-1.537109375.4423828125-.724609375.037109375-1.5673828125.1162109375-2.5283203125.2373046875-.9609375.123046875-1.9384765625.18359375-2.9296875.1865234375-.9921875.001953125-1.91796875-.130859375-2.779296875-.40234375s-1.576171875-.7802734375-2.146484375-1.52734375c-.4111328125-.462890625-1.1533203125-1.48046875-2.224609375-3.05078125-1.072265625-1.5703125-2.24609375-3.4619140625-3.521484375-5.6767578125-2.1201171875-3.6259765625-4.265625-7.2392578125-6.43359375-10.837890625-2.1689453125-3.599609375-4.3681640625-7.3310546875-6.59765625-11.1953125l2.06640625,30.3798828125c-.01953125.583984375-.13671875,1.1240234375-.353515625,1.619140625-.2216796875.4482421875-.5537109375.876953125-.99609375,1.2880859375-.443359375.4111328125-1.076171875.6845703125-1.8984375.82421875-.87109375.1416015625-1.7568359375.259765625-2.654296875.3544921875-.8994140625.09375-1.755859375.0654296875-2.568359375-.0869140625-.8125-.1533203125-1.5126953125-.478515625-2.099609375-.9833984375-.587890625-.5029296875-.9833984375-1.306640625-1.185546875-2.4130859375-.125-.52734375-.2421875-1.6357421875-.3525390625-3.328125-.1123046875-1.6923828125-.2275390625-3.72265625-.3486328125-6.09375-.1220703125-2.369140625-.2314453125-4.984375-.3291015625-7.8408203125-.0986328125-2.857421875-.197265625-5.7373046875-.2978515625-8.64453125-.2041015625-6.8271484375-.421875-14.3828125-.6513671875-22.666015625-.0712890625-.43359375-.0185546875-.8232421875.158203125-1.1728515625.1298828125-.296875.345703125-.57421875.6484375-.8330078125.3017578125-.2578125.7900390625-.4287109375,1.46484375-.51171875.384765625-.06640625,1.0478515625-.1494140625,1.98828125-.2470703125.94140625-.095703125,1.9072265625-.1708984375,2.8994140625-.2216796875.990234375-.05078125,1.9013671875-.0244140625,2.732421875.078125.8291015625.103515625,1.349609375.3203125,1.560546875.6474609375,3.41015625,5.0166015625,6.7587890625,10.0341796875,10.0478515625,15.0556640625,3.2880859375,5.0224609375,6.5439453125,10.09375,9.765625,15.21484375l-1.0947265625-28.46484375c.017578125-.58203125.16015625-1.123046875.42578125-1.62109375.2216796875-.400390625.5654296875-.8046875,1.029296875-1.2177734375.462890625-.4111328125,1.12890625-.6875,1.994140625-.830078125.869140625-.091796875,1.7490234375-.173828125,2.6435546875-.244140625.8935546875-.0703125,1.7333984375-.0166015625,2.5185546875.162109375.7841796875.1787109375,1.45703125.5322265625,2.0185546875,1.060546875.560546875.5302734375.9423828125,1.345703125,1.14453125,2.4521484375Z"/>
        <path class="cls-1" d="M129.658203124998181,62.1962890625c-1.97265625,1.265625-3.748046875,2.837890625-5.3251953125,4.7109375-1.5771484375,1.876953125-2.841796875,3.94140625-3.79296875,6.197265625-.9521484375,2.255859375-1.5712890625,4.6044921875-1.8583984375,7.04296875-.287109375,2.44140625-.103515625,4.8564453125.5537109375,7.248046875.6552734375,2.392578125,1.8271484375,4.6611328125,3.513671875,6.8046875,1.685546875,2.1455078125,3.9775390625,4.041015625,6.8759765625,5.6875.248046875.1328125.486328125.2646484375.7109375.3984375.2255859375.134765625.4619140625.2685546875.7119140625.4013671875.3994140625.2216796875.64453125.5126953125.736328125.87109375.0908203125.359375.0986328125.7587890625.0244140625,1.19921875-.044921875,1.0205078125-.337890625,2.1767578125-.876953125,3.4638671875-.541015625,1.2900390625-1.1259765625,2.4111328125-1.755859375,3.365234375-.541015625.8037109375-1.322265625,1.181640625-2.3427734375,1.1376953125-1.0205078125-.044921875-2.052734375-.3076171875-3.0966796875-.7861328125-2.439453125-1.232421875-4.6875-2.7431640625-6.7431640625-4.5302734375-2.0556640625-1.7861328125-3.8349609375-3.8408203125-5.3359375-6.1650390625-1.501953125-2.3232421875-2.6650390625-4.9072265625-3.4892578125-7.751953125-.826171875-2.8427734375-1.2265625-5.939453125-1.2041015625-9.287109375.0390625-3.009765625.4619140625-5.892578125,1.2666015625-8.6494140625.8046875-2.7587890625,1.8974609375-5.3369140625,3.2783203125-7.736328125,1.3798828125-2.3984375,3.01171875-4.62890625,4.8955078125-6.689453125,1.8828125-2.060546875,3.923828125-3.8759765625,6.1240234375-5.443359375.6083984375-.4189453125,1.216796875-.607421875,1.826171875-.56640625.6083984375.0419921875,1.1181640625.294921875,1.5302734375.7587890625.462890625.509765625,1.029296875,1.1591796875,1.7001953125,1.94921875.6708984375.791015625,1.24609375,1.5986328125,1.7255859375,2.421875.478515625.8251953125.796875,1.595703125.955078125,2.3154296875.1572265625.7197265625-.044921875,1.2646484375-.607421875,1.6318359375Z"/>
        <path class="cls-1" d="M151.517578124998181,108.296875c-3.2412109375.166015625-6.03515625-.3955078125-8.3798828125-1.6806640625-2.3466796875-1.2861328125-4.1943359375-3.2666015625-5.54296875-5.9375-1.349609375-2.669921875-2.123046875-5.94140625-2.3212890625-9.8125-.2109375-4.111328125.2958984375-7.701171875,1.521484375-10.7734375,1.224609375-3.0693359375,3.06640625-5.4677734375,5.5244140625-7.1943359375s5.4287109375-2.6796875,8.912109375-2.8583984375c3.240234375-.166015625,6.0224609375.3955078125,8.34375,1.6826171875,2.3212890625,1.2890625,4.1435546875,3.2568359375,5.46875,5.9052734375,1.3232421875,2.6484375,2.0849609375,5.9072265625,2.283203125,9.77734375.2109375,4.1123046875-.2841796875,7.7158203125-1.4833984375,10.80859375-1.2001953125,3.091796875-3.017578125,5.5009765625-5.4501953125,7.2255859375-2.4345703125,1.7255859375-5.392578125,2.6787109375-8.8759765625,2.857421875ZM151.933593749998181,95.10546875c2.8046875-.1435546875,4.849609375-.7080078125,6.1337890625-1.6962890625,1.283203125-.986328125,1.8779296875-2.3994140625,1.783203125-4.23828125-.0693359375-1.3544921875-.4658203125-2.4619140625-1.1884765625-3.3212890625-.7236328125-.861328125-1.76171875-1.486328125-3.115234375-1.87890625-1.35546875-.3916015625-3.0234375-.537109375-5.0068359375-.435546875-2.7099609375.138671875-4.705078125.703125-5.98828125,1.689453125-1.2841796875.98828125-1.876953125,2.4248046875-1.7802734375,4.3125.0673828125,1.3056640625.4501953125,2.3896484375,1.1484375,3.2509765625.69921875.8623046875,1.7373046875,1.48828125,3.1162109375,1.87890625,1.376953125.3896484375,3.0107421875.53515625,4.8974609375.4384765625Z"/>
        <path class="cls-1" d="M173.707031249998181,115.380859375l-4.150390625-2.916015625-.08984375-1.740234375c1.3994140625-1.0908203125,2.498046875-2.3720703125,3.2958984375-3.8447265625.7978515625-1.470703125,1.1630859375-2.861328125,1.095703125-4.1669921875-.048828125-.9677734375-.2939453125-1.9482421875-.732421875-2.9453125-.4404296875-.99609375-.990234375-1.7919921875-1.650390625-2.388671875l.0927734375-1.0234375c1.2080078125-1.0322265625,2.4267578125-1.8583984375,3.65625-2.4794921875,1.2294921875-.6201171875,2.3271484375-.955078125,3.2958984375-1.0048828125,1.7890625-.091796875,3.2626953125.4873046875,4.41796875,1.7373046875,1.1552734375,1.2509765625,1.7890625,2.96484375,1.900390625,5.1416015625.0869140625,1.6943359375-.3203125,3.47265625-1.2177734375,5.3369140625-.8994140625,1.865234375-2.189453125,3.6640625-3.87109375,5.400390625-1.681640625,1.7353515625-3.6962890625,3.365234375-6.04296875,4.8935546875Z"/>
        <path class="cls-1" d="M188.518554687498181,100.580078125c1.5400390625-.224609375,2.7734375-.5537109375,3.6962890625-.9892578125.923828125-.4365234375,1.572265625-1.0263671875,1.947265625-1.7734375.373046875-.7470703125.5322265625-1.67578125.474609375-2.7890625l-.75390625-14.73046875c-.08984375-1.7421875-.3779296875-2.85546875-.86328125-3.33984375-.486328125-.484375-1.40625-.6923828125-2.759765625-.6220703125-.677734375.0341796875-1.8359375.166015625-3.47265625.3955078125l-.61328125-.623046875.240234375-5.2509765625c1.0107421875-.1484375,2.0322265625-.3095703125,3.0673828125-.4853515625,1.033203125-.1728515625,2.091796875-.34765625,3.173828125-.525390625,1.0830078125-.17578125,2.1298828125-.33984375,3.140625-.4892578125,2.306640625-.408203125,4.373046875-.7802734375,6.19921875-1.1171875,1.826171875-.3359375,3.2666015625-.615234375,4.3232421875-.8408203125,1.0546875-.2236328125,1.583984375-.310546875,1.5869140625-.263671875l1.2412109375,2.919921875c-.7939453125.623046875-1.375,1.3447265625-1.7451171875,2.1630859375-.3701171875.8193359375-.666015625,1.9140625-.88671875,3.2841796875-.1787109375,1.26953125-.2958984375,2.7431640625-.35546875,4.4189453125-.0595703125,1.677734375-.068359375,3.6298828125-.02734375,5.8583984375.0419921875,2.2294921875.1416015625,4.8935546875.2998046875,7.9892578125.0849609375,1.6435546875.375,2.830078125.8740234375,3.556640625.4970703125.7265625,1.2548828125,1.0625,2.2705078125,1.0107421875.87109375-.044921875,1.95703125-.1484375,3.2578125-.3125l.240234375.4248046875-.623046875,6.2880859375c-1.6015625-.015625-2.9970703125-.0166015625-4.18359375-.00390625-1.189453125.0126953125-2.400390625.025390625-3.63671875.041015625-1.236328125.013671875-2.337890625.046875-3.3046875.0966796875-1.306640625.06640625-2.7197265625.17578125-4.240234375.3271484375-1.51953125.150390625-2.955078125.3076171875-4.3046875.474609375-1.349609375.166015625-2.8916015625.365234375-4.625.6005859375l.3623046875-5.693359375Z"/>
        <path class="cls-1" d="M215.574218749998181,57.7939453125c-.5498046875-.3095703125-.76953125-.8330078125-.662109375-1.56640625.1083984375-.7333984375.369140625-1.5341796875.7861328125-2.404296875.416015625-.869140625.9306640625-1.732421875,1.541015625-2.58984375.611328125-.85546875,1.14453125-1.5615234375,1.6015625-2.1181640625.361328125-.5029296875.8427734375-.806640625,1.4443359375-.9111328125.6005859375-.103515625,1.2255859375.0224609375,1.875.376953125,2.298828125,1.3369140625,4.443359375,2.9375,6.4296875,4.7998046875,1.9873046875,1.8623046875,3.75390625,3.91796875,5.30078125,6.1669921875,1.544921875,2.2490234375,2.798828125,4.70703125,3.7607421875,7.375.9609375,2.6669921875,1.5419921875,5.498046875,1.7451171875,8.49609375.21875,3.3349609375.00390625,6.462890625-.6474609375,9.3818359375-.650390625,2.9208984375-1.6533203125,5.6142578125-3.0048828125,8.0849609375-1.353515625,2.4697265625-2.9970703125,4.7001953125-4.9326171875,6.69140625-1.9345703125,1.990234375-4.1015625,3.7275390625-6.4990234375,5.2080078125-.9892578125.5830078125-1.9892578125.94921875-3,1.0986328125-1.0107421875.1484375-1.826171875-.1484375-2.4462890625-.892578125-.6767578125-.8876953125-1.3125-1.9453125-1.9091796875-3.1767578125-.59765625-1.2294921875-.9697265625-2.3515625-1.1181640625-3.3623046875-.0712890625-.4326171875-.0673828125-.83203125.0107421875-1.201171875.078125-.3671875.3046875-.681640625.6796875-.943359375.234375-.1572265625.45703125-.314453125.6669921875-.4716796875.2099609375-.15625.431640625-.3115234375.6669921875-.4697265625,2.8115234375-1.9384765625,4.9814453125-4.0634765625,6.5126953125-6.373046875,1.5302734375-2.30859375,2.548828125-4.689453125,3.0537109375-7.1416015625.50390625-2.451171875.55078125-4.8779296875.13671875-7.2822265625-.4140625-2.4033203125-1.1748046875-4.681640625-2.2783203125-6.83203125-1.10546875-2.1494140625-2.4892578125-4.0791015625-4.1533203125-5.7900390625-1.6640625-1.70703125-3.517578125-3.0927734375-5.560546875-4.1533203125Z"/>
        <path class="cls-1" d="M94.053710937498181,161.0791015625c-1.021484375,1.8486328125-2.0439453125,3.669921875-3.06640625,5.4677734375-1.0244140625,1.7998046875-2.021484375,3.6455078125-2.9912109375,5.5380859375-1.32421875,2.5419921875-2.6494140625,5.0830078125-3.974609375,7.625-1.32421875,2.5419921875-2.6240234375,5.1064453125-3.8984375,7.6943359375,3.0908203125-.255859375,6.416015625-.4501953125,9.974609375-.5849609375,3.55859375-.1328125,6.8916015625-.158203125,10-.0751953125.38671875-.0205078125.720703125.0966796875,1,.3486328125.279296875.2529296875.5029296875.5810546875.6689453125.9853515625.1669921875.4033203125.2841796875.8095703125.353515625,1.21875.0693359375.408203125.1123046875.7578125.126953125,1.046875-.0068359375.8251953125-.0224609375,1.6884765625-.0498046875,2.5859375-.0263671875.8994140625-.12890625,1.7294921875-.30859375,2.490234375-.1796875.76171875-.462890625,1.4052734375-.8466796875,1.9345703125-.3857421875.5283203125-.8916015625.833984375-1.517578125.9150390625-.3828125.1162109375-1.083984375.15234375-2.1044921875.107421875-1.0205078125-.0458984375-2.259765625-.0791015625-3.7158203125-.1015625-3.9951171875-.3291015625-8.216796875-.37890625-12.6669921875-.150390625-4.4521484375.2275390625-8.7509765625.5693359375-12.8984375,1.0244140625-.240234375.060546875-.4609375.0234375-.6611328125-.111328125-.1982421875-.0869140625-.4140625-.26953125-.646484375-.548828125-.232421875-.2802734375-.4150390625-.75390625-.5458984375-1.4267578125-.248046875-1.0546875-.4287109375-1.9794921875-.5419921875-2.7734375-.11328125-.794921875-.185546875-1.482421875-.21484375-2.064453125-.0302734375-.580078125-.0087890625-1.1005859375.0654296875-1.5654296875.072265625-.46484375.1953125-.8955078125.3701171875-1.29296875,1.2021484375-3.01953125,2.5419921875-5.974609375,4.0205078125-8.8642578125,1.4765625-2.8876953125,3.0517578125-5.74609375,4.7265625-8.5732421875,1.673828125-2.8251953125,3.384765625-5.6416015625,5.1328125-8.4482421875,1.748046875-2.8046875,3.49609375-5.611328125,5.244140625-8.4169921875-3.0458984375.205078125-6.068359375.3837890625-9.0673828125.537109375-3.0009765625.154296875-6.025390625.2607421875-9.0791015625.3193359375-.392578125-.0771484375-.73828125-.228515625-1.041015625-.4560546875-.255859375-.228515625-.5146484375-.56640625-.7802734375-1.0146484375-.265625-.4462890625-.419921875-1.1064453125-.46484375-1.9775390625-.0908203125-.818359375-.1591796875-1.6767578125-.2041015625-2.572265625-.0458984375-.89453125-.0166015625-1.732421875.0888671875-2.513671875s.3134765625-1.4462890625.625-1.9970703125c.3115234375-.548828125.802734375-.8896484375,1.4755859375-1.021484375.3818359375-.115234375,1.09375-.1767578125,2.1376953125-.1826171875,1.0419921875-.00390625,2.2919921875.0048828125,3.748046875.0263671875,4.271484375.072265625,8.4873046875-.009765625,12.6474609375-.2470703125,4.158203125-.2373046875,8.3916015625-.44140625,12.701171875-.6142578125.53125-.02734375.943359375-.048828125,1.2333984375-.0634765625s.509765625.009765625.658203125.076171875c.1494140625.0634765625.240234375.205078125.2763671875.4208984375.03515625.216796875.11328125.5654296875.2353515625,1.0439453125.0751953125.529296875.1552734375,1.14453125.240234375,1.841796875.0830078125.7001953125.142578125,1.375.1767578125,2.0283203125.033203125.65234375.0263671875,1.224609375-.021484375,1.7109375-.0478515625.48828125-.140625.80859375-.2783203125.9599609375-1.1435546875,1.369140625-2.23046875,2.8681640625-3.2626953125,4.4970703125s-2.05859375,3.3681640625-3.0791015625,5.2138671875Z"/>
      </g>
      <g>
        <path class="cls-2" d="M101.504882812498181,59.419921875c.0751953125.529296875.15625,1.62890625.2412109375,3.296875.0859375,1.669921875.1767578125,3.6904296875.2744140625,6.0615234375.0966796875,2.3720703125.1826171875,4.9755859375.2548828125,7.80859375.072265625,2.833984375.1328125,5.6806640625.1826171875,8.5400390625.1513671875,6.734375.265625,14.1982421875.3466796875,22.3916015625.0703125.4326171875.017578125.82421875-.158203125,1.171875-.1298828125.2978515625-.3701171875.5771484375-.7197265625.837890625-.3486328125.259765625-.861328125.4072265625-1.537109375.4423828125-.724609375.037109375-1.5673828125.1162109375-2.5283203125.2373046875-.9609375.123046875-1.9384765625.18359375-2.9296875.1865234375-.9921875.001953125-1.91796875-.130859375-2.779296875-.40234375s-1.576171875-.7802734375-2.146484375-1.52734375c-.4111328125-.462890625-1.1533203125-1.48046875-2.224609375-3.05078125-1.072265625-1.5703125-2.24609375-3.4619140625-3.521484375-5.6767578125-2.1201171875-3.6259765625-4.265625-7.2392578125-6.43359375-10.837890625-2.1689453125-3.599609375-4.3681640625-7.3310546875-6.59765625-11.1953125l2.06640625,30.3798828125c-.01953125.583984375-.13671875,1.1240234375-.353515625,1.619140625-.2216796875.4482421875-.5537109375.876953125-.99609375,1.2880859375-.443359375.4111328125-1.076171875.6845703125-1.8984375.82421875-.87109375.1416015625-1.7568359375.259765625-2.654296875.3544921875-.8994140625.09375-1.755859375.0654296875-2.568359375-.0869140625-.8125-.1533203125-1.5126953125-.478515625-2.099609375-.9833984375-.587890625-.5029296875-.9833984375-1.306640625-1.185546875-2.4130859375-.125-.52734375-.2421875-1.6357421875-.3525390625-3.328125-.1123046875-1.6923828125-.2275390625-3.72265625-.3486328125-6.09375-.1220703125-2.369140625-.2314453125-4.984375-.3291015625-7.8408203125-.0986328125-2.857421875-.197265625-5.7373046875-.2978515625-8.64453125-.2041015625-6.8271484375-.421875-14.3828125-.6513671875-22.666015625-.0712890625-.43359375-.0185546875-.8232421875.158203125-1.1728515625.1298828125-.296875.345703125-.57421875.6484375-.8330078125.3017578125-.2578125.7900390625-.4287109375,1.46484375-.51171875.384765625-.06640625,1.0478515625-.1494140625,1.98828125-.2470703125.94140625-.095703125,1.9072265625-.1708984375,2.8994140625-.2216796875.990234375-.05078125,1.9013671875-.0244140625,2.732421875.078125.8291015625.103515625,1.349609375.3203125,1.560546875.6474609375,3.41015625,5.0166015625,6.7587890625,10.0341796875,10.0478515625,15.0556640625,3.2880859375,5.0224609375,6.5439453125,10.09375,9.765625,15.21484375l-1.0947265625-28.46484375c.017578125-.58203125.16015625-1.123046875.42578125-1.62109375.2216796875-.400390625.5654296875-.8046875,1.029296875-1.2177734375.462890625-.4111328125,1.12890625-.6875,1.994140625-.830078125.869140625-.091796875,1.7490234375-.173828125,2.6435546875-.244140625.8935546875-.0703125,1.7333984375-.0166015625,2.5185546875.162109375.7841796875.1787109375,1.45703125.5322265625,2.0185546875,1.060546875.560546875.5302734375.9423828125,1.345703125,1.14453125,2.4521484375Z"/>
        <path class="cls-2" d="M129.658203124998181,62.1962890625c-1.97265625,1.265625-3.748046875,2.837890625-5.3251953125,4.7109375-1.5771484375,1.876953125-2.841796875,3.94140625-3.79296875,6.197265625-.9521484375,2.255859375-1.5712890625,4.6044921875-1.8583984375,7.04296875-.287109375,2.44140625-.103515625,4.8564453125.5537109375,7.248046875.6552734375,2.392578125,1.8271484375,4.6611328125,3.513671875,6.8046875,1.685546875,2.1455078125,3.9775390625,4.041015625,6.8759765625,5.6875.248046875.1328125.486328125.2646484375.7109375.3984375.2255859375.134765625.4619140625.2685546875.7119140625.4013671875.3994140625.2216796875.64453125.5126953125.736328125.87109375.0908203125.359375.0986328125.7587890625.0244140625,1.19921875-.044921875,1.0205078125-.337890625,2.1767578125-.876953125,3.4638671875-.541015625,1.2900390625-1.1259765625,2.4111328125-1.755859375,3.365234375-.541015625.8037109375-1.322265625,1.181640625-2.3427734375,1.1376953125-1.0205078125-.044921875-2.052734375-.3076171875-3.0966796875-.7861328125-2.439453125-1.232421875-4.6875-2.7431640625-6.7431640625-4.5302734375-2.0556640625-1.7861328125-3.8349609375-3.8408203125-5.3359375-6.1650390625-1.501953125-2.3232421875-2.6650390625-4.9072265625-3.4892578125-7.751953125-.826171875-2.8427734375-1.2265625-5.939453125-1.2041015625-9.287109375.0390625-3.009765625.4619140625-5.892578125,1.2666015625-8.6494140625.8046875-2.7587890625,1.8974609375-5.3369140625,3.2783203125-7.736328125,1.3798828125-2.3984375,3.01171875-4.62890625,4.8955078125-6.689453125,1.8828125-2.060546875,3.923828125-3.8759765625,6.1240234375-5.443359375.6083984375-.4189453125,1.216796875-.607421875,1.826171875-.56640625.6083984375.0419921875,1.1181640625.294921875,1.5302734375.7587890625.462890625.509765625,1.029296875,1.1591796875,1.7001953125,1.94921875.6708984375.791015625,1.24609375,1.5986328125,1.7255859375,2.421875.478515625.8251953125.796875,1.595703125.955078125,2.3154296875.1572265625.7197265625-.044921875,1.2646484375-.607421875,1.6318359375Z"/>
        <path class="cls-2" d="M151.517578124998181,108.296875c-3.2412109375.166015625-6.03515625-.3955078125-8.3798828125-1.6806640625-2.3466796875-1.2861328125-4.1943359375-3.2666015625-5.54296875-5.9375-1.349609375-2.669921875-2.123046875-5.94140625-2.3212890625-9.8125-.2109375-4.111328125.2958984375-7.701171875,1.521484375-10.7734375,1.224609375-3.0693359375,3.06640625-5.4677734375,5.5244140625-7.1943359375s5.4287109375-2.6796875,8.912109375-2.8583984375c3.240234375-.166015625,6.0224609375.3955078125,8.34375,1.6826171875,2.3212890625,1.2890625,4.1435546875,3.2568359375,5.46875,5.9052734375,1.3232421875,2.6484375,2.0849609375,5.9072265625,2.283203125,9.77734375.2109375,4.1123046875-.2841796875,7.7158203125-1.4833984375,10.80859375-1.2001953125,3.091796875-3.017578125,5.5009765625-5.4501953125,7.2255859375-2.4345703125,1.7255859375-5.392578125,2.6787109375-8.8759765625,2.857421875ZM151.933593749998181,95.10546875c2.8046875-.1435546875,4.849609375-.7080078125,6.1337890625-1.6962890625,1.283203125-.986328125,1.8779296875-2.3994140625,1.783203125-4.23828125-.0693359375-1.3544921875-.4658203125-2.4619140625-1.1884765625-3.3212890625-.7236328125-.861328125-1.76171875-1.486328125-3.115234375-1.87890625-1.35546875-.3916015625-3.0234375-.537109375-5.0068359375-.435546875-2.7099609375.138671875-4.705078125.703125-5.98828125,1.689453125-1.2841796875.98828125-1.876953125,2.4248046875-1.7802734375,4.3125.0673828125,1.3056640625.4501953125,2.3896484375,1.1484375,3.2509765625.69921875.8623046875,1.7373046875,1.48828125,3.1162109375,1.87890625,1.376953125.3896484375,3.0107421875.53515625,4.8974609375.4384765625Z"/>
        <path class="cls-2" d="M173.707031249998181,115.380859375l-4.150390625-2.916015625-.08984375-1.740234375c1.3994140625-1.0908203125,2.498046875-2.3720703125,3.2958984375-3.8447265625.7978515625-1.470703125,1.1630859375-2.861328125,1.095703125-4.1669921875-.048828125-.9677734375-.2939453125-1.9482421875-.732421875-2.9453125-.4404296875-.99609375-.990234375-1.7919921875-1.650390625-2.388671875l.0927734375-1.0234375c1.2080078125-1.0322265625,2.4267578125-1.8583984375,3.65625-2.4794921875,1.2294921875-.6201171875,2.3271484375-.955078125,3.2958984375-1.0048828125,1.7890625-.091796875,3.2626953125.4873046875,4.41796875,1.7373046875,1.1552734375,1.2509765625,1.7890625,2.96484375,1.900390625,5.1416015625.0869140625,1.6943359375-.3203125,3.47265625-1.2177734375,5.3369140625-.8994140625,1.865234375-2.189453125,3.6640625-3.87109375,5.400390625-1.681640625,1.7353515625-3.6962890625,3.365234375-6.04296875,4.8935546875Z"/>
        <path class="cls-2" d="M188.518554687498181,100.580078125c1.5400390625-.224609375,2.7734375-.5537109375,3.6962890625-.9892578125.923828125-.4365234375,1.572265625-1.0263671875,1.947265625-1.7734375.373046875-.7470703125.5322265625-1.67578125.474609375-2.7890625l-.75390625-14.73046875c-.08984375-1.7421875-.3779296875-2.85546875-.86328125-3.33984375-.486328125-.484375-1.40625-.6923828125-2.759765625-.6220703125-.677734375.0341796875-1.8359375.166015625-3.47265625.3955078125l-.61328125-.623046875.240234375-5.2509765625c1.0107421875-.1484375,2.0322265625-.3095703125,3.0673828125-.4853515625,1.033203125-.1728515625,2.091796875-.34765625,3.173828125-.525390625,1.0830078125-.17578125,2.1298828125-.33984375,3.140625-.4892578125,2.306640625-.408203125,4.373046875-.7802734375,6.19921875-1.1171875,1.826171875-.3359375,3.2666015625-.615234375,4.3232421875-.8408203125,1.0546875-.2236328125,1.583984375-.310546875,1.5869140625-.263671875l1.2412109375,2.919921875c-.7939453125.623046875-1.375,1.3447265625-1.7451171875,2.1630859375-.3701171875.8193359375-.666015625,1.9140625-.88671875,3.2841796875-.1787109375,1.26953125-.2958984375,2.7431640625-.35546875,4.4189453125-.0595703125,1.677734375-.068359375,3.6298828125-.02734375,5.8583984375.0419921875,2.2294921875.1416015625,4.8935546875.2998046875,7.9892578125.0849609375,1.6435546875.375,2.830078125.8740234375,3.556640625.4970703125.7265625,1.2548828125,1.0625,2.2705078125,1.0107421875.87109375-.044921875,1.95703125-.1484375,3.2578125-.3125l.240234375.4248046875-.623046875,6.2880859375c-1.6015625-.015625-2.9970703125-.0166015625-4.18359375-.00390625-1.189453125.0126953125-2.400390625.025390625-3.63671875.041015625-1.236328125.013671875-2.337890625.046875-3.3046875.0966796875-1.306640625.06640625-2.7197265625.17578125-4.240234375.3271484375-1.51953125.150390625-2.955078125.3076171875-4.3046875.474609375-1.349609375.166015625-2.8916015625.365234375-4.625.6005859375l.3623046875-5.693359375Z"/>
        <path class="cls-2" d="M215.574218749998181,57.7939453125c-.5498046875-.3095703125-.76953125-.8330078125-.662109375-1.56640625.1083984375-.7333984375.369140625-1.5341796875.7861328125-2.404296875.416015625-.869140625.9306640625-1.732421875,1.541015625-2.58984375.611328125-.85546875,1.14453125-1.5615234375,1.6015625-2.1181640625.361328125-.5029296875.8427734375-.806640625,1.4443359375-.9111328125.6005859375-.103515625,1.2255859375.0224609375,1.875.376953125,2.298828125,1.3369140625,4.443359375,2.9375,6.4296875,4.7998046875,1.9873046875,1.8623046875,3.75390625,3.91796875,5.30078125,6.1669921875,1.544921875,2.2490234375,2.798828125,4.70703125,3.7607421875,7.375.9609375,2.6669921875,1.5419921875,5.498046875,1.7451171875,8.49609375.21875,3.3349609375.00390625,6.462890625-.6474609375,9.3818359375-.650390625,2.9208984375-1.6533203125,5.6142578125-3.0048828125,8.0849609375-1.353515625,2.4697265625-2.9970703125,4.7001953125-4.9326171875,6.69140625-1.9345703125,1.990234375-4.1015625,3.7275390625-6.4990234375,5.2080078125-.9892578125.5830078125-1.9892578125.94921875-3,1.0986328125-1.0107421875.1484375-1.826171875-.1484375-2.4462890625-.892578125-.6767578125-.8876953125-1.3125-1.9453125-1.9091796875-3.1767578125-.59765625-1.2294921875-.9697265625-2.3515625-1.1181640625-3.3623046875-.0712890625-.4326171875-.0673828125-.83203125.0107421875-1.201171875.078125-.3671875.3046875-.681640625.6796875-.943359375.234375-.1572265625.45703125-.314453125.6669921875-.4716796875.2099609375-.15625.431640625-.3115234375.6669921875-.4697265625,2.8115234375-1.9384765625,4.9814453125-4.0634765625,6.5126953125-6.373046875,1.5302734375-2.30859375,2.548828125-4.689453125,3.0537109375-7.1416015625.50390625-2.451171875.55078125-4.8779296875.13671875-7.2822265625-.4140625-2.4033203125-1.1748046875-4.681640625-2.2783203125-6.83203125-1.10546875-2.1494140625-2.4892578125-4.0791015625-4.1533203125-5.7900390625-1.6640625-1.70703125-3.517578125-3.0927734375-5.560546875-4.1533203125Z"/>
        <path class="cls-2" d="M94.053710937498181,161.0791015625c-1.021484375,1.8486328125-2.0439453125,3.669921875-3.06640625,5.4677734375-1.0244140625,1.7998046875-2.021484375,3.6455078125-2.9912109375,5.5380859375-1.32421875,2.5419921875-2.6494140625,5.0830078125-3.974609375,7.625-1.32421875,2.5419921875-2.6240234375,5.1064453125-3.8984375,7.6943359375,3.0908203125-.255859375,6.416015625-.4501953125,9.974609375-.5849609375,3.55859375-.1328125,6.8916015625-.158203125,10-.0751953125.38671875-.0205078125.720703125.0966796875,1,.3486328125.279296875.2529296875.5029296875.5810546875.6689453125.9853515625.1669921875.4033203125.2841796875.8095703125.353515625,1.21875.0693359375.408203125.1123046875.7578125.126953125,1.046875-.0068359375.8251953125-.0224609375,1.6884765625-.0498046875,2.5859375-.0263671875.8994140625-.12890625,1.7294921875-.30859375,2.490234375-.1796875.76171875-.462890625,1.4052734375-.8466796875,1.9345703125-.3857421875.5283203125-.8916015625.833984375-1.517578125.9150390625-.3828125.1162109375-1.083984375.15234375-2.1044921875.107421875-1.0205078125-.0458984375-2.259765625-.0791015625-3.7158203125-.1015625-3.9951171875-.3291015625-8.216796875-.37890625-12.6669921875-.150390625-4.4521484375.2275390625-8.7509765625.5693359375-12.8984375,1.0244140625-.240234375.060546875-.4609375.0234375-.6611328125-.111328125-.1982421875-.0869140625-.4140625-.26953125-.646484375-.548828125-.232421875-.2802734375-.4150390625-.75390625-.5458984375-1.4267578125-.248046875-1.0546875-.4287109375-1.9794921875-.5419921875-2.7734375-.11328125-.794921875-.185546875-1.482421875-.21484375-2.064453125-.0302734375-.580078125-.0087890625-1.1005859375.0654296875-1.5654296875.072265625-.46484375.1953125-.8955078125.3701171875-1.29296875,1.2021484375-3.01953125,2.5419921875-5.974609375,4.0205078125-8.8642578125,1.4765625-2.8876953125,3.0517578125-5.74609375,4.7265625-8.5732421875,1.673828125-2.8251953125,3.384765625-5.6416015625,5.1328125-8.4482421875,1.748046875-2.8046875,3.49609375-5.611328125,5.244140625-8.4169921875-3.0458984375.205078125-6.068359375.3837890625-9.0673828125.537109375-3.0009765625.154296875-6.025390625.2607421875-9.0791015625.3193359375-.392578125-.0771484375-.73828125-.228515625-1.041015625-.4560546875-.255859375-.228515625-.5146484375-.56640625-.7802734375-1.0146484375-.265625-.4462890625-.419921875-1.1064453125-.46484375-1.9775390625-.0908203125-.818359375-.1591796875-1.6767578125-.2041015625-2.572265625-.0458984375-.89453125-.0166015625-1.732421875.0888671875-2.513671875s.3134765625-1.4462890625.625-1.9970703125c.3115234375-.548828125.802734375-.8896484375,1.4755859375-1.021484375.3818359375-.115234375,1.09375-.1767578125,2.1376953125-.1826171875,1.0419921875-.00390625,2.2919921875.0048828125,3.748046875.0263671875,4.271484375.072265625,8.4873046875-.009765625,12.6474609375-.2470703125,4.158203125-.2373046875,8.3916015625-.44140625,12.701171875-.6142578125.53125-.02734375.943359375-.048828125,1.2333984375-.0634765625s.509765625.009765625.658203125.076171875c.1494140625.0634765625.240234375.205078125.2763671875.4208984375.03515625.216796875.11328125.5654296875.2353515625,1.0439453125.0751953125.529296875.1552734375,1.14453125.240234375,1.841796875.0830078125.7001953125.142578125,1.375.1767578125,2.0283203125.033203125.65234375.0263671875,1.224609375-.021484375,1.7109375-.0478515625.48828125-.140625.80859375-.2783203125.9599609375-1.1435546875,1.369140625-2.23046875,2.8681640625-3.2626953125,4.4970703125s-2.05859375,3.3681640625-3.0791015625,5.2138671875Z"/>
      </g>
      <g>
        <path class="cls-3" d="M101.504882812498181,59.419921875c.0751953125.529296875.15625,1.62890625.2412109375,3.296875.0859375,1.669921875.1767578125,3.6904296875.2744140625,6.0615234375.0966796875,2.3720703125.1826171875,4.9755859375.2548828125,7.80859375.072265625,2.833984375.1328125,5.6806640625.1826171875,8.5400390625.1513671875,6.734375.265625,14.1982421875.3466796875,22.3916015625.0703125.4326171875.017578125.82421875-.158203125,1.171875-.1298828125.2978515625-.3701171875.5771484375-.7197265625.837890625-.3486328125.259765625-.861328125.4072265625-1.537109375.4423828125-.724609375.037109375-1.5673828125.1162109375-2.5283203125.2373046875-.9609375.123046875-1.9384765625.18359375-2.9296875.1865234375-.9921875.001953125-1.91796875-.130859375-2.779296875-.40234375s-1.576171875-.7802734375-2.146484375-1.52734375c-.4111328125-.462890625-1.1533203125-1.48046875-2.224609375-3.05078125-1.072265625-1.5703125-2.24609375-3.4619140625-3.521484375-5.6767578125-2.1201171875-3.6259765625-4.265625-7.2392578125-6.43359375-10.837890625-2.1689453125-3.599609375-4.3681640625-7.3310546875-6.59765625-11.1953125l2.06640625,30.3798828125c-.01953125.583984375-.13671875,1.1240234375-.353515625,1.619140625-.2216796875.4482421875-.5537109375.876953125-.99609375,1.2880859375-.443359375.4111328125-1.076171875.6845703125-1.8984375.82421875-.87109375.1416015625-1.7568359375.259765625-2.654296875.3544921875-.8994140625.09375-1.755859375.0654296875-2.568359375-.0869140625-.8125-.1533203125-1.5126953125-.478515625-2.099609375-.9833984375-.587890625-.5029296875-.9833984375-1.306640625-1.185546875-2.4130859375-.125-.52734375-.2421875-1.6357421875-.3525390625-3.328125-.1123046875-1.6923828125-.2275390625-3.72265625-.3486328125-6.09375-.1220703125-2.369140625-.2314453125-4.984375-.3291015625-7.8408203125-.0986328125-2.857421875-.197265625-5.7373046875-.2978515625-8.64453125-.2041015625-6.8271484375-.421875-14.3828125-.6513671875-22.666015625-.0712890625-.43359375-.0185546875-.8232421875.158203125-1.1728515625.1298828125-.296875.345703125-.57421875.6484375-.8330078125.3017578125-.2578125.7900390625-.4287109375,1.46484375-.51171875.384765625-.06640625,1.0478515625-.1494140625,1.98828125-.2470703125.94140625-.095703125,1.9072265625-.1708984375,2.8994140625-.2216796875.990234375-.05078125,1.9013671875-.0244140625,2.732421875.078125.8291015625.103515625,1.349609375.3203125,1.560546875.6474609375,3.41015625,5.0166015625,6.7587890625,10.0341796875,10.0478515625,15.0556640625,3.2880859375,5.0224609375,6.5439453125,10.09375,9.765625,15.21484375l-1.0947265625-28.46484375c.017578125-.58203125.16015625-1.123046875.42578125-1.62109375.2216796875-.400390625.5654296875-.8046875,1.029296875-1.2177734375.462890625-.4111328125,1.12890625-.6875,1.994140625-.830078125.869140625-.091796875,1.7490234375-.173828125,2.6435546875-.244140625.8935546875-.0703125,1.7333984375-.0166015625,2.5185546875.162109375.7841796875.1787109375,1.45703125.5322265625,2.0185546875,1.060546875.560546875.5302734375.9423828125,1.345703125,1.14453125,2.4521484375Z"/>
        <path class="cls-3" d="M129.658203124998181,62.1962890625c-1.97265625,1.265625-3.748046875,2.837890625-5.3251953125,4.7109375-1.5771484375,1.876953125-2.841796875,3.94140625-3.79296875,6.197265625-.9521484375,2.255859375-1.5712890625,4.6044921875-1.8583984375,7.04296875-.287109375,2.44140625-.103515625,4.8564453125.5537109375,7.248046875.6552734375,2.392578125,1.8271484375,4.6611328125,3.513671875,6.8046875,1.685546875,2.1455078125,3.9775390625,4.041015625,6.8759765625,5.6875.248046875.1328125.486328125.2646484375.7109375.3984375.2255859375.134765625.4619140625.2685546875.7119140625.4013671875.3994140625.2216796875.64453125.5126953125.736328125.87109375.0908203125.359375.0986328125.7587890625.0244140625,1.19921875-.044921875,1.0205078125-.337890625,2.1767578125-.876953125,3.4638671875-.541015625,1.2900390625-1.1259765625,2.4111328125-1.755859375,3.365234375-.541015625.8037109375-1.322265625,1.181640625-2.3427734375,1.1376953125-1.0205078125-.044921875-2.052734375-.3076171875-3.0966796875-.7861328125-2.439453125-1.232421875-4.6875-2.7431640625-6.7431640625-4.5302734375-2.0556640625-1.7861328125-3.8349609375-3.8408203125-5.3359375-6.1650390625-1.501953125-2.3232421875-2.6650390625-4.9072265625-3.4892578125-7.751953125-.826171875-2.8427734375-1.2265625-5.939453125-1.2041015625-9.287109375.0390625-3.009765625.4619140625-5.892578125,1.2666015625-8.6494140625.8046875-2.7587890625,1.8974609375-5.3369140625,3.2783203125-7.736328125,1.3798828125-2.3984375,3.01171875-4.62890625,4.8955078125-6.689453125,1.8828125-2.060546875,3.923828125-3.8759765625,6.1240234375-5.443359375.6083984375-.4189453125,1.216796875-.607421875,1.826171875-.56640625.6083984375.0419921875,1.1181640625.294921875,1.5302734375.7587890625.462890625.509765625,1.029296875,1.1591796875,1.7001953125,1.94921875.6708984375.791015625,1.24609375,1.5986328125,1.7255859375,2.421875.478515625.8251953125.796875,1.595703125.955078125,2.3154296875.1572265625.7197265625-.044921875,1.2646484375-.607421875,1.6318359375Z"/>
        <path class="cls-3" d="M151.517578124998181,108.296875c-3.2412109375.166015625-6.03515625-.3955078125-8.3798828125-1.6806640625-2.3466796875-1.2861328125-4.1943359375-3.2666015625-5.54296875-5.9375-1.349609375-2.669921875-2.123046875-5.94140625-2.3212890625-9.8125-.2109375-4.111328125.2958984375-7.701171875,1.521484375-10.7734375,1.224609375-3.0693359375,3.06640625-5.4677734375,5.5244140625-7.1943359375s5.4287109375-2.6796875,8.912109375-2.8583984375c3.240234375-.166015625,6.0224609375.3955078125,8.34375,1.6826171875,2.3212890625,1.2890625,4.1435546875,3.2568359375,5.46875,5.9052734375,1.3232421875,2.6484375,2.0849609375,5.9072265625,2.283203125,9.77734375.2109375,4.1123046875-.2841796875,7.7158203125-1.4833984375,10.80859375-1.2001953125,3.091796875-3.017578125,5.5009765625-5.4501953125,7.2255859375-2.4345703125,1.7255859375-5.392578125,2.6787109375-8.8759765625,2.857421875ZM151.933593749998181,95.10546875c2.8046875-.1435546875,4.849609375-.7080078125,6.1337890625-1.6962890625,1.283203125-.986328125,1.8779296875-2.3994140625,1.783203125-4.23828125-.0693359375-1.3544921875-.4658203125-2.4619140625-1.1884765625-3.3212890625-.7236328125-.861328125-1.76171875-1.486328125-3.115234375-1.87890625-1.35546875-.3916015625-3.0234375-.537109375-5.0068359375-.435546875-2.7099609375.138671875-4.705078125.703125-5.98828125,1.689453125-1.2841796875.98828125-1.876953125,2.4248046875-1.7802734375,4.3125.0673828125,1.3056640625.4501953125,2.3896484375,1.1484375,3.2509765625.69921875.8623046875,1.7373046875,1.48828125,3.1162109375,1.87890625,1.376953125.3896484375,3.0107421875.53515625,4.8974609375.4384765625Z"/>
        <path class="cls-3" d="M173.707031249998181,115.380859375l-4.150390625-2.916015625-.08984375-1.740234375c1.3994140625-1.0908203125,2.498046875-2.3720703125,3.2958984375-3.8447265625.7978515625-1.470703125,1.1630859375-2.861328125,1.095703125-4.1669921875-.048828125-.9677734375-.2939453125-1.9482421875-.732421875-2.9453125-.4404296875-.99609375-.990234375-1.7919921875-1.650390625-2.388671875l.0927734375-1.0234375c1.2080078125-1.0322265625,2.4267578125-1.8583984375,3.65625-2.4794921875,1.2294921875-.6201171875,2.3271484375-.955078125,3.2958984375-1.0048828125,1.7890625-.091796875,3.2626953125.4873046875,4.41796875,1.7373046875,1.1552734375,1.2509765625,1.7890625,2.96484375,1.900390625,5.1416015625.0869140625,1.6943359375-.3203125,3.47265625-1.2177734375,5.3369140625-.8994140625,1.865234375-2.189453125,3.6640625-3.87109375,5.400390625-1.681640625,1.7353515625-3.6962890625,3.365234375-6.04296875,4.8935546875Z"/>
        <path class="cls-3" d="M188.518554687498181,100.580078125c1.5400390625-.224609375,2.7734375-.5537109375,3.6962890625-.9892578125.923828125-.4365234375,1.572265625-1.0263671875,1.947265625-1.7734375.373046875-.7470703125.5322265625-1.67578125.474609375-2.7890625l-.75390625-14.73046875c-.08984375-1.7421875-.3779296875-2.85546875-.86328125-3.33984375-.486328125-.484375-1.40625-.6923828125-2.759765625-.6220703125-.677734375.0341796875-1.8359375.166015625-3.47265625.3955078125l-.61328125-.623046875.240234375-5.2509765625c1.0107421875-.1484375,2.0322265625-.3095703125,3.0673828125-.4853515625,1.033203125-.1728515625,2.091796875-.34765625,3.173828125-.525390625,1.0830078125-.17578125,2.1298828125-.33984375,3.140625-.4892578125,2.306640625-.408203125,4.373046875-.7802734375,6.19921875-1.1171875,1.826171875-.3359375,3.2666015625-.615234375,4.3232421875-.8408203125,1.0546875-.2236328125,1.583984375-.310546875,1.5869140625-.263671875l1.2412109375,2.919921875c-.7939453125.623046875-1.375,1.3447265625-1.7451171875,2.1630859375-.3701171875.8193359375-.666015625,1.9140625-.88671875,3.2841796875-.1787109375,1.26953125-.2958984375,2.7431640625-.35546875,4.4189453125-.0595703125,1.677734375-.068359375,3.6298828125-.02734375,5.8583984375.0419921875,2.2294921875.1416015625,4.8935546875.2998046875,7.9892578125.0849609375,1.6435546875.375,2.830078125.8740234375,3.556640625.4970703125.7265625,1.2548828125,1.0625,2.2705078125,1.0107421875.87109375-.044921875,1.95703125-.1484375,3.2578125-.3125l.240234375.4248046875-.623046875,6.2880859375c-1.6015625-.015625-2.9970703125-.0166015625-4.18359375-.00390625-1.189453125.0126953125-2.400390625.025390625-3.63671875.041015625-1.236328125.013671875-2.337890625.046875-3.3046875.0966796875-1.306640625.06640625-2.7197265625.17578125-4.240234375.3271484375-1.51953125.150390625-2.955078125.3076171875-4.3046875.474609375-1.349609375.166015625-2.8916015625.365234375-4.625.6005859375l.3623046875-5.693359375Z"/>
        <path class="cls-3" d="M215.574218749998181,57.7939453125c-.5498046875-.3095703125-.76953125-.8330078125-.662109375-1.56640625.1083984375-.7333984375.369140625-1.5341796875.7861328125-2.404296875.416015625-.869140625.9306640625-1.732421875,1.541015625-2.58984375.611328125-.85546875,1.14453125-1.5615234375,1.6015625-2.1181640625.361328125-.5029296875.8427734375-.806640625,1.4443359375-.9111328125.6005859375-.103515625,1.2255859375.0224609375,1.875.376953125,2.298828125,1.3369140625,4.443359375,2.9375,6.4296875,4.7998046875,1.9873046875,1.8623046875,3.75390625,3.91796875,5.30078125,6.1669921875,1.544921875,2.2490234375,2.798828125,4.70703125,3.7607421875,7.375.9609375,2.6669921875,1.5419921875,5.498046875,1.7451171875,8.49609375.21875,3.3349609375.00390625,6.462890625-.6474609375,9.3818359375-.650390625,2.9208984375-1.6533203125,5.6142578125-3.0048828125,8.0849609375-1.353515625,2.4697265625-2.9970703125,4.7001953125-4.9326171875,6.69140625-1.9345703125,1.990234375-4.1015625,3.7275390625-6.4990234375,5.2080078125-.9892578125.5830078125-1.9892578125.94921875-3,1.0986328125-1.0107421875.1484375-1.826171875-.1484375-2.4462890625-.892578125-.6767578125-.8876953125-1.3125-1.9453125-1.9091796875-3.1767578125-.59765625-1.2294921875-.9697265625-2.3515625-1.1181640625-3.3623046875-.0712890625-.4326171875-.0673828125-.83203125.0107421875-1.201171875.078125-.3671875.3046875-.681640625.6796875-.943359375.234375-.1572265625.45703125-.314453125.6669921875-.4716796875.2099609375-.15625.431640625-.3115234375.6669921875-.4697265625,2.8115234375-1.9384765625,4.9814453125-4.0634765625,6.5126953125-6.373046875,1.5302734375-2.30859375,2.548828125-4.689453125,3.0537109375-7.1416015625.50390625-2.451171875.55078125-4.8779296875.13671875-7.2822265625-.4140625-2.4033203125-1.1748046875-4.681640625-2.2783203125-6.83203125-1.10546875-2.1494140625-2.4892578125-4.0791015625-4.1533203125-5.7900390625-1.6640625-1.70703125-3.517578125-3.0927734375-5.560546875-4.1533203125Z"/>
        <path class="cls-3" d="M94.053710937498181,161.0791015625c-1.021484375,1.8486328125-2.0439453125,3.669921875-3.06640625,5.4677734375-1.0244140625,1.7998046875-2.021484375,3.6455078125-2.9912109375,5.5380859375-1.32421875,2.5419921875-2.6494140625,5.0830078125-3.974609375,7.625-1.32421875,2.5419921875-2.6240234375,5.1064453125-3.8984375,7.6943359375,3.0908203125-.255859375,6.416015625-.4501953125,9.974609375-.5849609375,3.55859375-.1328125,6.8916015625-.158203125,10-.0751953125.38671875-.0205078125.720703125.0966796875,1,.3486328125.279296875.2529296875.5029296875.5810546875.6689453125.9853515625.1669921875.4033203125.2841796875.8095703125.353515625,1.21875.0693359375.408203125.1123046875.7578125.126953125,1.046875-.0068359375.8251953125-.0224609375,1.6884765625-.0498046875,2.5859375-.0263671875.8994140625-.12890625,1.7294921875-.30859375,2.490234375-.1796875.76171875-.462890625,1.4052734375-.8466796875,1.9345703125-.3857421875.5283203125-.8916015625.833984375-1.517578125.9150390625-.3828125.1162109375-1.083984375.15234375-2.1044921875.107421875-1.0205078125-.0458984375-2.259765625-.0791015625-3.7158203125-.1015625-3.9951171875-.3291015625-8.216796875-.37890625-12.6669921875-.150390625-4.4521484375.2275390625-8.7509765625.5693359375-12.8984375,1.0244140625-.240234375.060546875-.4609375.0234375-.6611328125-.111328125-.1982421875-.0869140625-.4140625-.26953125-.646484375-.548828125-.232421875-.2802734375-.4150390625-.75390625-.5458984375-1.4267578125-.248046875-1.0546875-.4287109375-1.9794921875-.5419921875-2.7734375-.11328125-.794921875-.185546875-1.482421875-.21484375-2.064453125-.0302734375-.580078125-.0087890625-1.1005859375.0654296875-1.5654296875.072265625-.46484375.1953125-.8955078125.3701171875-1.29296875,1.2021484375-3.01953125,2.5419921875-5.974609375,4.0205078125-8.8642578125,1.4765625-2.8876953125,3.0517578125-5.74609375,4.7265625-8.5732421875,1.673828125-2.8251953125,3.384765625-5.6416015625,5.1328125-8.4482421875,1.748046875-2.8046875,3.49609375-5.611328125,5.244140625-8.4169921875-3.0458984375.205078125-6.068359375.3837890625-9.0673828125.537109375-3.0009765625.154296875-6.025390625.2607421875-9.0791015625.3193359375-.392578125-.0771484375-.73828125-.228515625-1.041015625-.4560546875-.255859375-.228515625-.5146484375-.56640625-.7802734375-1.0146484375-.265625-.4462890625-.419921875-1.1064453125-.46484375-1.9775390625-.0908203125-.818359375-.1591796875-1.6767578125-.2041015625-2.572265625-.0458984375-.89453125-.0166015625-1.732421875.0888671875-2.513671875s.3134765625-1.4462890625.625-1.9970703125c.3115234375-.548828125.802734375-.8896484375,1.4755859375-1.021484375.3818359375-.115234375,1.09375-.1767578125,2.1376953125-.1826171875,1.0419921875-.00390625,2.2919921875.0048828125,3.748046875.0263671875,4.271484375.072265625,8.4873046875-.009765625,12.6474609375-.2470703125,4.158203125-.2373046875,8.3916015625-.44140625,12.701171875-.6142578125.53125-.02734375.943359375-.048828125,1.2333984375-.0634765625s.509765625.009765625.658203125.076171875c.1494140625.0634765625.240234375.205078125.2763671875.4208984375.03515625.216796875.11328125.5654296875.2353515625,1.0439453125.0751953125.529296875.1552734375,1.14453125.240234375,1.841796875.0830078125.7001953125.142578125,1.375.1767578125,2.0283203125.033203125.65234375.0263671875,1.224609375-.021484375,1.7109375-.0478515625.48828125-.140625.80859375-.2783203125.9599609375-1.1435546875,1.369140625-2.23046875,2.8681640625-3.2626953125,4.4970703125s-2.05859375,3.3681640625-3.0791015625,5.2138671875Z"/>
      </g>
    </g>
  </a>
</svg>