<?xml version="1.0" encoding="UTF-8"?>
<svg id="Content" xmlns="http://www.w3.org/2000/svg" xmlns:xlink="http://www.w3.org/1999/xlink" viewBox="0 0 280 280">
  <defs>
    <style>
      .cls-1 {
        stroke: #665451;
        stroke-width: 50px;
      }

      .cls-1, .cls-2 {
        fill: none;
        stroke-linecap: round;
        stroke-linejoin: round;
      }

      .cls-3 {
        fill: #fff;
      }

      .cls-2 {
        stroke: #998675;
        stroke-width: 2px;
      }
    </style>
  </defs>
  <a xlink:href="https://www.notion.so/congruence/Success-probability-fa309cf6ed0d4d669d9b245a92d5f419?pvs=4">
    <g>
      <path class="cls-1" d="M149.3271484375,69.1630859375c5.64453125,4.9560546875,9.888671875,10.4951171875,12.72265625,16.6162109375,2.833984375,6.119140625,4.35546875,12.34765625,4.5634765625,18.6806640625.2080078125,6.3388671875-.7607421875,12.5302734375-2.9013671875,18.5849609375-2.14453125,6.0537109375-5.2841796875,11.5888671875-9.42578125,16.5986328125-4.142578125,5.0126953125-9.2900390625,9.251953125-15.4384765625,12.720703125-6.150390625,3.46875-13.0107421875,5.748046875-20.5810546875,6.8310546875-7.83984375,1.013671875-16.275390625,1.0791015625-25.310546875.1962890625-.3505859375.76171875-.970703125,2.5205078125-1.859375,5.2744140625-.7822265625,2.3564453125-1.830078125,5.958984375-3.146484375,10.8115234375-1.31640625,4.8505859375-3.1279296875,11.529296875-5.435546875,20.0361328125-.6025390625,1.6904296875-1.4345703125,3.1767578125-2.49609375,4.4609375-.990234375,1.015625-2.29296875,1.873046875-3.9091796875,2.578125-1.6181640625.701171875-3.5927734375.8779296875-5.923828125.533203125-2.4638671875-.384765625-5.0009765625-.89453125-7.611328125-1.529296875-2.609375-.6376953125-4.9296875-1.5517578125-6.9599609375-2.7451171875-2.03125-1.1923828125-3.5615234375-2.7861328125-4.5908203125-4.7763671875-1.03125-1.9921875-1.1796875-4.6025390625-.4453125-7.8271484375.8759765625-3.7587890625,2.2255859375-8.9951171875,4.0458984375-15.7041015625,1.8212890625-6.712890625,3.890625-14.2158203125,6.2119140625-22.501953125,2.318359375-8.287109375,4.759765625-17.1484375,7.3203125-26.587890625,2.560546875-9.435546875,5.0234375-18.650390625,7.3916015625-27.6396484375,2.3662109375-8.990234375,4.5732421875-17.5205078125,6.625-25.599609375,2.0478515625-8.0771484375,3.712890625-15.0087890625,4.9990234375-20.796875.5771484375-2.125,1.78515625-3.6904296875,3.626953125-4.6884765625,1.83984375-.9990234375,4.16015625-1.4033203125,6.96484375-1.21484375,1.931640625.240234375,4.1494140625.484375,6.650390625.7353515625,2.5.25,4.8779296875.6806640625,7.1396484375,1.2939453125,2.2587890625.61328125,4.0966796875,1.4697265625,5.51171875,2.56640625,1.4140625,1.099609375,2.017578125,2.5458984375,1.8173828125,4.3447265625-.0498046875.703125-.1337890625,1.28515625-.259765625,1.7490234375-.126953125.466796875-.177734375.9140625-.15234375,1.349609375,5.158203125.970703125,10.384765625,2.748046875,15.6787109375,5.32421875,5.2939453125,2.580078125,10.353515625,6.01953125,15.177734375,10.3251953125ZM99.947265625,130.466796875c5.328125.876953125,10.228515625.5634765625,14.701171875-.93359375,4.47265625-1.49609375,8.2158203125-3.728515625,11.234375-6.69140625,3.0126953125-2.962890625,5.1845703125-6.369140625,6.5166015625-10.21875,1.3291015625-3.84765625,1.5576171875-7.7119140625.681640625-11.5869140625-.8740234375-3.876953125-2.9765625-7.4423828125-6.30078125-10.69921875-3.326171875-3.2568359375-8.0947265625-5.798828125-14.3046875-7.626953125-2.01953125,7.4443359375-4.0166015625,14.9306640625-5.9853515625,22.4560546875-1.97265625,7.5283203125-4.0458984375,15.564453125-6.21875,24.1044921875l-.162109375.59765625-.162109375.5986328125Z"/>
      <path class="cls-2" d="M149.3271484375,69.1630859375c5.64453125,4.9560546875,9.888671875,10.4951171875,12.72265625,16.6162109375,2.833984375,6.119140625,4.35546875,12.34765625,4.5634765625,18.6806640625.2080078125,6.3388671875-.7607421875,12.5302734375-2.9013671875,18.5849609375-2.14453125,6.0537109375-5.2841796875,11.5888671875-9.42578125,16.5986328125-4.142578125,5.0126953125-9.2900390625,9.251953125-15.4384765625,12.720703125-6.150390625,3.46875-13.0107421875,5.748046875-20.5810546875,6.8310546875-7.83984375,1.013671875-16.275390625,1.0791015625-25.310546875.1962890625-.3505859375.76171875-.970703125,2.5205078125-1.859375,5.2744140625-.7822265625,2.3564453125-1.830078125,5.958984375-3.146484375,10.8115234375-1.31640625,4.8505859375-3.1279296875,11.529296875-5.435546875,20.0361328125-.6025390625,1.6904296875-1.4345703125,3.1767578125-2.49609375,4.4609375-.990234375,1.015625-2.29296875,1.873046875-3.9091796875,2.578125-1.6181640625.701171875-3.5927734375.8779296875-5.923828125.533203125-2.4638671875-.384765625-5.0009765625-.89453125-7.611328125-1.529296875-2.609375-.6376953125-4.9296875-1.5517578125-6.9599609375-2.7451171875-2.03125-1.1923828125-3.5615234375-2.7861328125-4.5908203125-4.7763671875-1.03125-1.9921875-1.1796875-4.6025390625-.4453125-7.8271484375.8759765625-3.7587890625,2.2255859375-8.9951171875,4.0458984375-15.7041015625,1.8212890625-6.712890625,3.890625-14.2158203125,6.2119140625-22.501953125,2.318359375-8.287109375,4.759765625-17.1484375,7.3203125-26.587890625,2.560546875-9.435546875,5.0234375-18.650390625,7.3916015625-27.6396484375,2.3662109375-8.990234375,4.5732421875-17.5205078125,6.625-25.599609375,2.0478515625-8.0771484375,3.712890625-15.0087890625,4.9990234375-20.796875.5771484375-2.125,1.78515625-3.6904296875,3.626953125-4.6884765625,1.83984375-.9990234375,4.16015625-1.4033203125,6.96484375-1.21484375,1.931640625.240234375,4.1494140625.484375,6.650390625.7353515625,2.5.25,4.8779296875.6806640625,7.1396484375,1.2939453125,2.2587890625.61328125,4.0966796875,1.4697265625,5.51171875,2.56640625,1.4140625,1.099609375,2.017578125,2.5458984375,1.8173828125,4.3447265625-.0498046875.703125-.1337890625,1.28515625-.259765625,1.7490234375-.126953125.466796875-.177734375.9140625-.15234375,1.349609375,5.158203125.970703125,10.384765625,2.748046875,15.6787109375,5.32421875,5.2939453125,2.580078125,10.353515625,6.01953125,15.177734375,10.3251953125ZM99.947265625,130.466796875c5.328125.876953125,10.228515625.5634765625,14.701171875-.93359375,4.47265625-1.49609375,8.2158203125-3.728515625,11.234375-6.69140625,3.0126953125-2.962890625,5.1845703125-6.369140625,6.5166015625-10.21875,1.3291015625-3.84765625,1.5576171875-7.7119140625.681640625-11.5869140625-.8740234375-3.876953125-2.9765625-7.4423828125-6.30078125-10.69921875-3.326171875-3.2568359375-8.0947265625-5.798828125-14.3046875-7.626953125-2.01953125,7.4443359375-4.0166015625,14.9306640625-5.9853515625,22.4560546875-1.97265625,7.5283203125-4.0458984375,15.564453125-6.21875,24.1044921875l-.162109375.59765625-.162109375.5986328125Z"/>
      <path class="cls-3" d="M149.3271484375,69.1630859375c5.64453125,4.9560546875,9.888671875,10.4951171875,12.72265625,16.6162109375,2.833984375,6.119140625,4.35546875,12.34765625,4.5634765625,18.6806640625.2080078125,6.3388671875-.7607421875,12.5302734375-2.9013671875,18.5849609375-2.14453125,6.0537109375-5.2841796875,11.5888671875-9.42578125,16.5986328125-4.142578125,5.0126953125-9.2900390625,9.251953125-15.4384765625,12.720703125-6.150390625,3.46875-13.0107421875,5.748046875-20.5810546875,6.8310546875-7.83984375,1.013671875-16.275390625,1.0791015625-25.310546875.1962890625-.3505859375.76171875-.970703125,2.5205078125-1.859375,5.2744140625-.7822265625,2.3564453125-1.830078125,5.958984375-3.146484375,10.8115234375-1.31640625,4.8505859375-3.1279296875,11.529296875-5.435546875,20.0361328125-.6025390625,1.6904296875-1.4345703125,3.1767578125-2.49609375,4.4609375-.990234375,1.015625-2.29296875,1.873046875-3.9091796875,2.578125-1.6181640625.701171875-3.5927734375.8779296875-5.923828125.533203125-2.4638671875-.384765625-5.0009765625-.89453125-7.611328125-1.529296875-2.609375-.6376953125-4.9296875-1.5517578125-6.9599609375-2.7451171875-2.03125-1.1923828125-3.5615234375-2.7861328125-4.5908203125-4.7763671875-1.03125-1.9921875-1.1796875-4.6025390625-.4453125-7.8271484375.8759765625-3.7587890625,2.2255859375-8.9951171875,4.0458984375-15.7041015625,1.8212890625-6.712890625,3.890625-14.2158203125,6.2119140625-22.501953125,2.318359375-8.287109375,4.759765625-17.1484375,7.3203125-26.587890625,2.560546875-9.435546875,5.0234375-18.650390625,7.3916015625-27.6396484375,2.3662109375-8.990234375,4.5732421875-17.5205078125,6.625-25.599609375,2.0478515625-8.0771484375,3.712890625-15.0087890625,4.9990234375-20.796875.5771484375-2.125,1.78515625-3.6904296875,3.626953125-4.6884765625,1.83984375-.9990234375,4.16015625-1.4033203125,6.96484375-1.21484375,1.931640625.240234375,4.1494140625.484375,6.650390625.7353515625,2.5.25,4.8779296875.6806640625,7.1396484375,1.2939453125,2.2587890625.61328125,4.0966796875,1.4697265625,5.51171875,2.56640625,1.4140625,1.099609375,2.017578125,2.5458984375,1.8173828125,4.3447265625-.0498046875.703125-.1337890625,1.28515625-.259765625,1.7490234375-.126953125.466796875-.177734375.9140625-.15234375,1.349609375,5.158203125.970703125,10.384765625,2.748046875,15.6787109375,5.32421875,5.2939453125,2.580078125,10.353515625,6.01953125,15.177734375,10.3251953125ZM99.947265625,130.466796875c5.328125.876953125,10.228515625.5634765625,14.701171875-.93359375,4.47265625-1.49609375,8.2158203125-3.728515625,11.234375-6.69140625,3.0126953125-2.962890625,5.1845703125-6.369140625,6.5166015625-10.21875,1.3291015625-3.84765625,1.5576171875-7.7119140625.681640625-11.5869140625-.8740234375-3.876953125-2.9765625-7.4423828125-6.30078125-10.69921875-3.326171875-3.2568359375-8.0947265625-5.798828125-14.3046875-7.626953125-2.01953125,7.4443359375-4.0166015625,14.9306640625-5.9853515625,22.4560546875-1.97265625,7.5283203125-4.0458984375,15.564453125-6.21875,24.1044921875l-.162109375.59765625-.162109375.5986328125Z"/>
    </g>
  </a>
</svg>