<?xml version="1.0" encoding="UTF-8"?>
<svg id="Content" xmlns="http://www.w3.org/2000/svg" xmlns:xlink="http://www.w3.org/1999/xlink" viewBox="0 0 280 280">
  <defs>
    <style>
      .cls-1 {
        stroke: #665451;
        stroke-width: 50px;
      }

      .cls-1, .cls-2 {
        fill: none;
        stroke-linecap: round;
        stroke-linejoin: round;
      }

      .cls-3 {
        fill: #fff;
      }

      .cls-2 {
        stroke: #998675;
        stroke-width: 2px;
      }
    </style>
  </defs>
  <a xlink:href="https://www.notion.so/congruence/Success-probability-fa309cf6ed0d4d669d9b245a92d5f419?pvs=4">
    <g>
      <path class="cls-1" d="M149.271484375,69.181640625c5.64453125,4.95703125,9.888671875,10.49609375,12.72265625,16.6162109375s4.35546875,12.3486328125,4.5625,18.681640625c.208984375,6.337890625-.759765625,12.5302734375-2.90234375,18.583984375s-5.283203125,11.5888671875-9.42578125,16.5986328125c-4.142578125,5.013671875-9.2890625,9.251953125-15.4375,12.720703125-6.150390625,3.46875-13.009765625,5.748046875-20.58203125,6.8310546875-7.83984375,1.0146484375-16.275390625,1.0791015625-25.310546875.197265625-.349609375.7607421875-.970703125,2.51953125-1.857421875,5.2744140625-.783203125,2.35546875-1.8310546875,5.9580078125-3.1484375,10.810546875-1.3154296875,4.8505859375-3.126953125,11.529296875-5.435546875,20.0361328125-.6015625,1.689453125-1.43359375,3.1767578125-2.494140625,4.4609375-.9921875,1.015625-2.294921875,1.8720703125-3.91015625,2.578125-1.619140625.7001953125-3.5927734375.8779296875-5.923828125.5341796875-2.4638671875-.3857421875-5.0009765625-.8955078125-7.611328125-1.53125-2.609375-.63671875-4.9296875-1.55078125-6.9609375-2.744140625s-3.560546875-2.78515625-4.58984375-4.77734375c-1.03125-1.9912109375-1.1796875-4.6015625-.4453125-7.826171875.875-3.7587890625,2.2265625-8.9951171875,4.046875-15.7041015625,1.8203125-6.7138671875,3.890625-14.2158203125,6.2109375-22.501953125s4.759765625-17.1484375,7.3203125-26.587890625c2.560546875-9.435546875,5.0244140625-18.6494140625,7.392578125-27.6396484375,2.3662109375-8.990234375,4.572265625-17.521484375,6.6240234375-25.599609375,2.0478515625-8.076171875,3.7138671875-15.009765625,4.9990234375-20.796875.5771484375-2.125,1.78515625-3.689453125,3.626953125-4.6884765625,1.83984375-.9990234375,4.16015625-1.40234375,6.96484375-1.21484375,1.93359375.240234375,4.150390625.4853515625,6.650390625.7353515625,2.501953125.25,4.87890625.6806640625,7.140625,1.2939453125,2.2578125.61328125,4.095703125,1.4697265625,5.51171875,2.5673828125,1.4140625,1.09765625,2.017578125,2.5458984375,1.81640625,4.3447265625-.048828125.7021484375-.1337890625,1.2841796875-.259765625,1.748046875-.126953125.4677734375-.177734375.9150390625-.15234375,1.3505859375,5.158203125.970703125,10.384765625,2.7470703125,15.6796875,5.32421875,5.29296875,2.580078125,10.353515625,6.0185546875,15.177734375,10.32421875ZM99.890625,130.4853515625c5.328125.876953125,10.228515625.564453125,14.701171875-.9345703125,4.47265625-1.4951171875,8.21484375-3.7275390625,11.234375-6.69140625,3.013671875-2.9609375,5.18359375-6.3681640625,6.517578125-10.2177734375,1.328125-3.8466796875,1.556640625-7.7109375.681640625-11.5869140625s-2.9765625-7.4423828125-6.30078125-10.69921875c-3.3271484375-3.2578125-8.095703125-5.798828125-14.3046875-7.626953125-2.021484375,7.4453125-4.017578125,14.9306640625-5.984375,22.4560546875-1.974609375,7.5283203125-4.046875,15.5634765625-6.220703125,24.10546875l-.162109375.5966796875-.162109375.5986328125Z"/>
      <path class="cls-2" d="M149.271484375,69.181640625c5.64453125,4.95703125,9.888671875,10.49609375,12.72265625,16.6162109375s4.35546875,12.3486328125,4.5625,18.681640625c.208984375,6.337890625-.759765625,12.5302734375-2.90234375,18.583984375s-5.283203125,11.5888671875-9.42578125,16.5986328125c-4.142578125,5.013671875-9.2890625,9.251953125-15.4375,12.720703125-6.150390625,3.46875-13.009765625,5.748046875-20.58203125,6.8310546875-7.83984375,1.0146484375-16.275390625,1.0791015625-25.310546875.197265625-.349609375.7607421875-.970703125,2.51953125-1.857421875,5.2744140625-.783203125,2.35546875-1.8310546875,5.9580078125-3.1484375,10.810546875-1.3154296875,4.8505859375-3.126953125,11.529296875-5.435546875,20.0361328125-.6015625,1.689453125-1.43359375,3.1767578125-2.494140625,4.4609375-.9921875,1.015625-2.294921875,1.8720703125-3.91015625,2.578125-1.619140625.7001953125-3.5927734375.8779296875-5.923828125.5341796875-2.4638671875-.3857421875-5.0009765625-.8955078125-7.611328125-1.53125-2.609375-.63671875-4.9296875-1.55078125-6.9609375-2.744140625s-3.560546875-2.78515625-4.58984375-4.77734375c-1.03125-1.9912109375-1.1796875-4.6015625-.4453125-7.826171875.875-3.7587890625,2.2265625-8.9951171875,4.046875-15.7041015625,1.8203125-6.7138671875,3.890625-14.2158203125,6.2109375-22.501953125s4.759765625-17.1484375,7.3203125-26.587890625c2.560546875-9.435546875,5.0244140625-18.6494140625,7.392578125-27.6396484375,2.3662109375-8.990234375,4.572265625-17.521484375,6.6240234375-25.599609375,2.0478515625-8.076171875,3.7138671875-15.009765625,4.9990234375-20.796875.5771484375-2.125,1.78515625-3.689453125,3.626953125-4.6884765625,1.83984375-.9990234375,4.16015625-1.40234375,6.96484375-1.21484375,1.93359375.240234375,4.150390625.4853515625,6.650390625.7353515625,2.501953125.25,4.87890625.6806640625,7.140625,1.2939453125,2.2578125.61328125,4.095703125,1.4697265625,5.51171875,2.5673828125,1.4140625,1.09765625,2.017578125,2.5458984375,1.81640625,4.3447265625-.048828125.7021484375-.1337890625,1.2841796875-.259765625,1.748046875-.126953125.4677734375-.177734375.9150390625-.15234375,1.3505859375,5.158203125.970703125,10.384765625,2.7470703125,15.6796875,5.32421875,5.29296875,2.580078125,10.353515625,6.0185546875,15.177734375,10.32421875ZM99.890625,130.4853515625c5.328125.876953125,10.228515625.564453125,14.701171875-.9345703125,4.47265625-1.4951171875,8.21484375-3.7275390625,11.234375-6.69140625,3.013671875-2.9609375,5.18359375-6.3681640625,6.517578125-10.2177734375,1.328125-3.8466796875,1.556640625-7.7109375.681640625-11.5869140625s-2.9765625-7.4423828125-6.30078125-10.69921875c-3.3271484375-3.2578125-8.095703125-5.798828125-14.3046875-7.626953125-2.021484375,7.4453125-4.017578125,14.9306640625-5.984375,22.4560546875-1.974609375,7.5283203125-4.046875,15.5634765625-6.220703125,24.10546875l-.162109375.5966796875-.162109375.5986328125Z"/>
      <path class="cls-3" d="M149.271484375,69.181640625c5.64453125,4.95703125,9.888671875,10.49609375,12.72265625,16.6162109375s4.35546875,12.3486328125,4.5625,18.681640625c.208984375,6.337890625-.759765625,12.5302734375-2.90234375,18.583984375s-5.283203125,11.5888671875-9.42578125,16.5986328125c-4.142578125,5.013671875-9.2890625,9.251953125-15.4375,12.720703125-6.150390625,3.46875-13.009765625,5.748046875-20.58203125,6.8310546875-7.83984375,1.0146484375-16.275390625,1.0791015625-25.310546875.197265625-.349609375.7607421875-.970703125,2.51953125-1.857421875,5.2744140625-.783203125,2.35546875-1.8310546875,5.9580078125-3.1484375,10.810546875-1.3154296875,4.8505859375-3.126953125,11.529296875-5.435546875,20.0361328125-.6015625,1.689453125-1.43359375,3.1767578125-2.494140625,4.4609375-.9921875,1.015625-2.294921875,1.8720703125-3.91015625,2.578125-1.619140625.7001953125-3.5927734375.8779296875-5.923828125.5341796875-2.4638671875-.3857421875-5.0009765625-.8955078125-7.611328125-1.53125-2.609375-.63671875-4.9296875-1.55078125-6.9609375-2.744140625s-3.560546875-2.78515625-4.58984375-4.77734375c-1.03125-1.9912109375-1.1796875-4.6015625-.4453125-7.826171875.875-3.7587890625,2.2265625-8.9951171875,4.046875-15.7041015625,1.8203125-6.7138671875,3.890625-14.2158203125,6.2109375-22.501953125s4.759765625-17.1484375,7.3203125-26.587890625c2.560546875-9.435546875,5.0244140625-18.6494140625,7.392578125-27.6396484375,2.3662109375-8.990234375,4.572265625-17.521484375,6.6240234375-25.599609375,2.0478515625-8.076171875,3.7138671875-15.009765625,4.9990234375-20.796875.5771484375-2.125,1.78515625-3.689453125,3.626953125-4.6884765625,1.83984375-.9990234375,4.16015625-1.40234375,6.96484375-1.21484375,1.93359375.240234375,4.150390625.4853515625,6.650390625.7353515625,2.501953125.25,4.87890625.6806640625,7.140625,1.2939453125,2.2578125.61328125,4.095703125,1.4697265625,5.51171875,2.5673828125,1.4140625,1.09765625,2.017578125,2.5458984375,1.81640625,4.3447265625-.048828125.7021484375-.1337890625,1.2841796875-.259765625,1.748046875-.126953125.4677734375-.177734375.9150390625-.15234375,1.3505859375,5.158203125.970703125,10.384765625,2.7470703125,15.6796875,5.32421875,5.29296875,2.580078125,10.353515625,6.0185546875,15.177734375,10.32421875ZM99.890625,130.4853515625c5.328125.876953125,10.228515625.564453125,14.701171875-.9345703125,4.47265625-1.4951171875,8.21484375-3.7275390625,11.234375-6.69140625,3.013671875-2.9609375,5.18359375-6.3681640625,6.517578125-10.2177734375,1.328125-3.8466796875,1.556640625-7.7109375.681640625-11.5869140625s-2.9765625-7.4423828125-6.30078125-10.69921875c-3.3271484375-3.2578125-8.095703125-5.798828125-14.3046875-7.626953125-2.021484375,7.4453125-4.017578125,14.9306640625-5.984375,22.4560546875-1.974609375,7.5283203125-4.046875,15.5634765625-6.220703125,24.10546875l-.162109375.5966796875-.162109375.5986328125Z"/>
    </g>
  </a>
</svg>