<?xml version="1.0" encoding="UTF-8"?>
<svg id="Content" xmlns="http://www.w3.org/2000/svg" xmlns:xlink="http://www.w3.org/1999/xlink" viewBox="0 0 280 280">
  <defs>
    <style>
      .cls-1 {
        fill: #665451;
      }

      .cls-2 {
        fill: url(#linear-gradient);
      }
    </style>
    <linearGradient id="linear-gradient" x1="135.536980947034863" y1="129.050851292360676" x2="135.536980947034863" y2="21.868617683156117" gradientUnits="userSpaceOnUse">
      <stop offset=".033113946447839" stop-color="#d4c0a3" stop-opacity="0"/>
      <stop offset=".077445529981579" stop-color="#d4c0a3" stop-opacity=".067075563153634"/>
      <stop offset=".702797202797203" stop-color="#d4c0a3"/>
    </linearGradient>
  </defs>
  <a xlink:href="https://www.notion.so/congruence/Symmetrically-skewed-unimodal-distribution-558156b3ed444751ba6277c001750d55?pvs=4">
    <g>
      <path class="cls-2" d="M35.219675689149881,129.050851292360676c-.000359612429747-142.909644812272745,200.634250903330212-142.909644812272745,200.634610515769964,0"/>
      <path class="cls-1" d="M47.219675689149881,129.050851292360676c.00587877532962-6.203985162522258.383954611270383-12.402829428988298,1.199454305109612-18.553922699757095l-.428651597369026,3.190075346518825c1.35201878234966-10.039000916422992,3.882729688510153-19.910494819420819,7.803774804779096-29.259369471957143-.403233393630217.955518143452537-.806466787249519,1.911036286905073-1.209700180869731,2.86655443035761,3.292679825690357-7.801110335185513,7.53513995080084-15.178417980623635,12.703365809550633-21.889181512280629-.625455615851024.809550532454523-1.250911231691134,1.619101064909046-1.876366847540339,2.428651597363569,4.885246002710119-6.313269202936681,10.554717809969588-11.98725179761459,16.86442062874994-16.877069028212645l-2.428651597369935,1.876366847533063c6.63324111673046-5.117185351200533,13.922035337210218-9.337508834200889,21.638980647369863-12.594458545212547l-2.866554430360338,1.209700180866093c6.490807005549868-2.723749284011319,13.25805799868067-4.767996247077463,20.16915360350049-6.10401035410996,1.966615277849996-.380174997503673,3.943939676860282-.701518772537383,5.928863630989326-.969823550787623l-3.190075346519734.428651597362659c7.234641732629825-.963599621269168,14.562403084129983-1.18513255531434,21.841337363190178-.64344156860443,2.064836017550078.153663024951129,4.124337586759793.370081042045058,6.176711576450543.64344156860443l-3.190075346520644-.428651597362659c6.969408722409753.9420634910648,13.842078544460492,2.571952616299313,20.477663356549783,4.905640911407318,1.894784076840551.666382172348676,3.768340971840189,1.39101611294609,5.620389478600373,2.168192993490266l-2.866554430359429-1.209700180866093c7.716964225759511,3.256950776389203,15.005778194259619,7.477273990593858,21.639044031799131,12.594458545212547-.809550532449066-.625455615844658-1.619101064899951-1.250911231688406-2.428651597359931-1.876366847533063,6.309729667649663,4.88981896632049,11.979228480589882,10.563800716758124,16.864505566390108,16.877069028212645l-1.87636684753943-2.428651597363569c5.168259641649456,6.710763543981557,9.410756522559495,14.088070317869096,12.703475971769876,21.889181512280629-.403233393620212-.955518143452537-.806466787240424-1.911036286905073-1.209700180870641-2.86655443035761,3.921089113140624,9.348867372323184,6.4518520390302,19.220363252596144,7.803922059119941,29.259369471957143-.142883865789372-1.063358448839608-.285767731569649-2.126716897678307-.428651597359931-3.190075346518825.815530458319699,6.151091820433066,1.193637682459666,12.349936313410581,1.199547681890181,18.553922699757095.002932808049991,3.078697630675379,1.33654445475986,6.307107203236228,3.514718625759997,8.485281374238184,2.081307336440659,2.081307336437931,5.496075058550559,3.648605543037775,8.485281374240003,3.514718625761816,6.496503136830142-.290979171795698,12.006408497620214-5.272718131956026,12-12-.013165614540412-13.820524753977224-1.754337606729678-27.896516047591831-5.842997016829941-41.12437566303106-3.5455434641799-11.470740529002796-8.74599622633923-22.634558390193888-15.808665768719948-32.371642628529116-3.622136183180373-4.993727219823086-7.530187056780051-9.792462579587664-11.924358727879735-14.128945193189793-4.270323179350271-4.214260071700664-8.973507064440128-7.999289519193553-13.853577627410232-11.481672789228469-8.871213504429761-6.330434180030352-18.899012742429477-11.103972162452919-29.239670644939906-14.496273013613063-10.30415355264995-3.380325429651748-21.257529848320701-5.153680180439551-32.08560432088052-5.519170336321622-10.827147116099695-.365458853949349-21.858511984179131.885261078128678-32.358062260040242,3.533990691229519-10.465958381199016,2.640255360031915-20.726423722589971,6.87919230002808-29.968988929749685,12.457808516950536-9.489990525769826,5.727956888470544-18.284980543559868,12.980625545170369-25.479892359850055,21.426902719584177-4.03301944515988,4.73445692641053-7.77741921758934,9.773165943006461-10.983370764450228,15.107207965404996-3.356111206659989,5.583876720083936-6.056414385169319,11.501736454103593-8.458341559109158,17.551682888505638-4.925227057150096,12.40560504766745-7.370173676290051,25.712832117225844-8.289356386690088,38.994257296447358-.231505889209984,3.345067429274422-.338547014080177,6.697337466056524-.341724149220227,10.050229545790899-.002913836139669,3.07502756212125,1.340617847899921,6.311180596377199,3.514718625759997,8.485281374238184,2.081307336440204,2.081307336437931,5.496075058550105,3.648605543037775,8.485281374240003,3.514718625761816,6.506717700010086-.291436683331995,11.993625147370039-5.272494888115034,12-12h0Z"/>
    </g>
  </a>
</svg>