<?xml version="1.0" encoding="UTF-8"?>
<svg id="Content" xmlns="http://www.w3.org/2000/svg" xmlns:xlink="http://www.w3.org/1999/xlink" viewBox="0 0 280 280">
  <defs>
    <style>
      .cls-1 {
        fill: #665451;
      }

      .cls-2 {
        fill: url(#linear-gradient);
      }
    </style>
    <linearGradient id="linear-gradient" x1="140.585994573724747" y1="139.865503647710284" x2="140.585994573724747" y2="78.381295940651398" gradientUnits="userSpaceOnUse">
      <stop offset=".033113946447839" stop-color="#d4c0a3" stop-opacity="0"/>
      <stop offset=".077445529981579" stop-color="#d4c0a3" stop-opacity=".067075563153634"/>
      <stop offset=".702797202797203" stop-color="#d4c0a3"/>
    </linearGradient>
  </defs>
  <a xlink:href="https://www.notion.so/congruence/Symmetrically-skewed-bimodal-distribution-122f9339b29b8040882fefaa27ed4059?pvs=4">
    <g>
      <path class="cls-2" d="M30.255332952629033,139.865503647710284c8.446523749200423-114.434039923487944,55.165030891590504-34.054463113319798,110.330360058071165-34.05446545540326,55.165332454600502-.000002342079824,110.330765430209794-77.48425531914836,110.330963184120264,34.05446545540326"/>
      <path class="cls-1" d="M42.255332952629033,139.865503647710284c.427037024890524-5.738557044020126.978315691201715-11.467770279799879,1.737762034370462-17.172380498104758-.142883865790282,1.063358448838699-.285767731578744,2.126716897677397-.428651597359931,3.190075346516096,1.288907785450647-9.559897245700995,3.018707581200943-19.305542641748616,6.762632158061024-28.249920758977169l-1.209700180861546,2.8665544303567c1.267055221891496-2.993103255917958,2.787533817931035-5.891720709329093,4.772802774121374-8.475081677312119-.62545561584011.809550532454523-1.250911231691134,1.619101064909046-1.876366847529425,2.428651597363569,1.134630785409172-1.45751585306607,2.411294134948548-2.793732416403145,3.868126487908739-3.932560217122955l-2.428651597369026,1.876366847533063c1.198693000369531-.922278166211981,2.497407345170359-1.693097594803476,3.890279714720236-2.283863133012346l-2.866554430351243,1.209700180867003c1.43352540801061-.594516002773162,2.932500211860315-.985818369608751,4.469515097091062-1.194887382513116l-3.190075346519734.428651597365388c2.074720140088175-.267497398757769,4.167964185508026-.203808936770656,6.238725726740086.068249281606768l-3.190075346510639-.428651597363569c4.734175450999828.644976886611403,9.283431700619985,2.288453291543192,13.668368209559048,4.131811155410105l-2.866554430358519-1.209700180867003c7.499541777458944,3.167010793535155,14.687799503999486,7.02369536977676,22.009098928048843,10.571100623279563,8.801178188730773,4.264454154290434,17.842648805770295,8.330800994175661,27.282832290969964,10.965595932695578,9.509132503260844,2.654038899625448,19.60420594155039,3.865043713991327,29.435336020140312,2.672930625856679,5.626942537650393-.682317474362208,11.14138097877003-1.660487546150762,16.593063074449674-3.219250804391777,4.486009337741052-1.282654859376635,8.887104959170756-2.848356996648363,13.225188639740736-4.562229490975369,9.341734581339551-3.690694584796802,18.413140486609336-7.990931654327142,27.618019547429867-11.998196944246956.941434353659133-.409845385611334,1.884934905090631-.814892040070845,2.830847919929511-1.214293504046509l-2.866554430360338,1.209700180865184c6.234818767679826-2.625924640875382,12.698657410930537-5.172309022724221,19.444046117279868-6.082494428443169l-3.190075346519734.42865159736175c2.347199058429396-.306314820725675,4.722888488440731-.388349799988646,7.074049054010175-.076396542888688l-3.190075346519734-.42865159736175c1.594595605509312.2226480625759,3.151219463579764.628120037245026,4.637219715770698,1.250849760352139l-2.866554430351243-1.209700180865184c1.326124531949972.568543495777703,2.56500578187115,1.298904434854194,3.70948298211988,2.177233888931369-.809550532449066-.625455615845567-1.619101064909046-1.250911231689315-2.428651597359931-1.876366847533063,1.320510987159651,1.030784867980401,2.482358015849968,2.234519804154843,3.510532892949414,3.555216797703906l-1.87636684753852-2.42865159736175c1.588900371179989,2.070827166040544,2.827118733070165,4.374906520468357,3.849894344350105,6.770993780044591l-1.209700180861546-2.866554430358519c2.46729766009048,5.860247113718287,3.718603676801649,12.181058672478684,4.576243502151556,18.455344121808594-.142883865790282-1.063358448838699-.285767731571468-2.126716897679216-.428651597359931-3.190075346517915,1.237312066219602,9.220761684566241,1.564333686659666,18.547273693473471,1.570515564009838,27.842229414345638.002047207170108,3.078142601767468,1.337161080649821,6.307723829129827,3.514718625759997,8.485281374238184,2.081307336440659,2.081307336437021,5.49607505854874,3.648605543037775,8.485281374240003,3.514718625761816,6.498048789630047-.291048401773878,12.004474195378862-5.272683108039928,12-12-.004884080441116-7.343612437935008-.219853149599658-14.696285241743681-.906885467969914-22.010379211933468-.605954564880449-6.45094635373971-1.434074866161609-12.956470717437696-2.99504945678018-19.255142816331499-1.201052560070821-4.846354511362733-2.944712531880214-9.668311669400282-5.303795216170329-14.071484876661998-1.227261000471117-2.290654240992808-2.785826487990562-4.31202826068693-4.405114396000499-6.344614828274644-.88855415207945-1.115344112164166-1.860877498758782-2.156763174938533-2.96093220281-3.067073837510179-3.578742033709204-2.961459116437254-7.353319067689881-5.283446430275944-11.915075157239698-6.451870329367011-3.547584789239409-.908659465876553-7.395183170068776-1.263330686746485-11.055196157509272-.930488964691904-7.701545276680918.700378824105428-14.852341317489845,2.906876894539892-21.977402372771394,5.818204858278477-8.307040324278205,3.394289340734758-16.416903660689059,7.228220592924117-24.647670280739476,10.797252952554118-.966397877349664.419050309134036-1.934746842109234.833551589417766-2.905119457180263,1.243313340757595l2.866554430349424-1.209700180865184c-7.699537399248584,3.243940562111675-15.575020022588433,6.179555011653065-23.742630661239673,8.009650090087234-2.294943716169655.514222014986444-4.609564588889043.935233364303713-6.94021855398023,1.250834933702208l3.190075346521553-.428651597363569c-5.591920727891193.739815692359116-11.21505462847017.777441092708614-16.808229389860571.031564789205731l3.190075346519734.42865159736175c-8.354341181118798-1.141545929371205-16.400477390499873-3.818500209566992-24.14824622101878-7.080150852798397l2.866554430358519,1.209700180865184c-7.706071455890196-3.256333284396533-15.130966049189738-7.111478101152898-22.635819456758327-10.795825375396817-7.245624899960603-3.557084582558673-14.71069138456005-7.242712946590473-22.577823352150517-9.195830716165801-8.531691433190645-2.118103294989851-17.238298198060875-1.956106714966154-25.146996536150255,2.174907915847143-4.485416537490892,2.342904046854528-7.78919002360999,5.967476794667164-10.790829714820575,9.923120217428732-2.9635198613596,3.905408061509661-4.901951924619425,8.459472805549012-6.652953190399785,13.007757946938-1.952928448139573,5.072797842272848-3.271589573210804,10.381190832476932-4.319597169520421,15.707143166229798-1.604616140630242,8.154625127755935-2.627345364699067,16.442143292555556-3.39669356406921,24.713840002550569-.202136494159276,2.17328353416633-.380330248581231,4.348644586269074-.542304820801291,6.525271595553932-.218065320439564,2.930378884580932,1.494621394111164,6.465184142582075,3.514718625759997,8.485281374238184,2.081307336440659,2.08130733643884,5.496075058550559,3.648605543037775,8.485281374240003,3.514718625761816,3.103484767401824-.139005463135618,6.322269692831469-1.158449558050052,8.485281374240003-3.514718625761816,2.243538705000901-2.443990893918453,3.267691015111268-5.16570496148961,3.514718625759997-8.485281374238184h0Z"/>
    </g>
  </a>
</svg>