<?xml version="1.0" encoding="UTF-8"?>
<svg id="Content" xmlns="http://www.w3.org/2000/svg" xmlns:xlink="http://www.w3.org/1999/xlink" viewBox="0 0 280 280">
  <defs>
    <style>
      .cls-1 {
        fill: #665451;
      }

      .cls-2 {
        fill: url(#linear-gradient);
      }
    </style>
    <linearGradient id="linear-gradient" x1="139.865503628876468" y1="154.919694594364046" x2="139.865503628876468" y2="37.038869170169164" gradientUnits="userSpaceOnUse">
      <stop offset=".033113946447839" stop-color="#d4c0a3" stop-opacity="0"/>
      <stop offset=".077445529981579" stop-color="#d4c0a3" stop-opacity=".067075563153634"/>
      <stop offset=".702797202797203" stop-color="#d4c0a3"/>
    </linearGradient>
  </defs>
  <a xlink:href="https://www.notion.so/congruence/Symmetrically-skewed-unimodal-distribution-558156b3ed444751ba6277c001750d55?pvs=4">
    <g>
      <path class="cls-2" d="M29.534842007780753,154.919694594364046c-.000395507810026-157.17443389892469,220.66092773436867-157.17443389892469,220.66132324218961,0"/>
      <path class="cls-1" d="M41.534842007780753,154.919694594364046c.005897415487198-6.848826637931779.424847922369736-13.692741144801403,1.329451008199612-20.482620271628548l-.428651597363569,3.190075346517915c1.176483749733961-8.705886635852949,3.149041659069553-17.306291151507139,6.064415424127219-25.59801414823869.772976895832471-2.198452349379295,1.612933163703929-4.372540138487238,2.514795900286117-6.521291198298968l-1.209700180865184,2.86655443035761c3.612490238198006-8.557616096255515,8.266147077581991-16.652771614136327,13.932739142670471-24.0167140590911l-1.876366847533063,2.428651597363569c5.397822215740234-6.984440336541411,11.670091101397702-13.25918539088434,18.652654932899168-18.659394555578729l-2.428651597363569,1.876366847532154c5.634727195218147-4.339801062153128,11.702033875615598-8.104277838837334,18.089566608503446-11.232108381486796,1.806760244156976-.884729693175359,3.638519493853892-1.717011291599192,5.490852047538283-2.501741047822179l-2.866554430358519,1.209700180866093c7.173909395392911-3.023379368450151,14.657601357350359-5.289949864994924,22.300539516034405-6.769369743836251,2.165859551505491-.419238728451091,4.34358808172874-.773789627284714,6.529697506486627-1.069448596917937l-3.190075346516096.428651597363569c7.972191935303272-1.063853115707388,16.048106434867805-1.306912379608548,24.069159322201813-.707942333939172,2.267216458314579.169303801465503,4.528646009044678.407222352898316,6.78215166910195.707942333939172l-3.190075346516096-.428651597363569c7.707726760794685,1.042425861847732,15.308102701084863,2.851392926501831,22.643217062621261,5.442122773392839,2.0859396620599.736744633410126,4.148519639435108,1.537573201345367,6.187059410513029,2.396695567361348l-2.866554430358519-1.209700180866093c6.523928484963108,2.763817913913954,12.77984113038292,6.149862358555765,18.634024277649587,10.143130955858396,1.683568745040247,1.148399705279189,3.33191991858439,2.347220690011454,4.946463497071818,3.590718473450579l-2.42865159736175-1.876366847532154c6.982592349737388,5.400210201380105,13.25489134774034,11.674954055669332,18.652748840491768,18.659394555578729l-1.876366847533063-2.428651597363569c5.666626452684795,7.363938971241623,10.320325154460079,15.459094287629341,13.932860012175297,24.0167140590911l-1.209700180865184-2.86655443035761c3.307027045035284,7.87912880091244,5.731553828945835,16.108808077056892,7.340446072192208,24.498514340017209.484817608064986,2.528122899381742.894191316587239,5.069869975160145,1.238926899839498,7.620791006520449l-.428651597365388-3.190075346517915c.904636933042639,6.789876692319012,1.32362220579671,13.633791280726655,1.329554091586033,20.482620271628548.002666367112397,3.078530678401876,1.3367299579877,6.307292706465887,3.514718625761816,8.485281374238184,2.081307336437021,2.081307336437931,5.496075058546921,3.648605543037775,8.485281374238184,3.514718625761816,6.496968101670063-.290999997627296,12.005826620952575-5.272707549417646,12-12-.013040774116234-15.056600039873047-1.906163014564299-30.374832598211469-6.346057607919647-44.789690718295788-3.87160223079627-12.569802206083295-9.572851705390349-24.784276513031728-17.31107052742118-35.448666265514476-3.916237040140913-5.397143595921989-8.148818980649594-10.575634816634192-12.897147796029458-15.263996560521264-4.640068793300088-4.581468947359099-9.742962100126533-8.702178152203487-15.048592229932183-12.485603683162481-9.678223145812808-6.901505692690989-20.601670306310552-12.117144548040415-31.882913649926195-15.813518801496684-11.237360900668136-3.681995879783244-23.169678741323878-5.621612857859873-34.978200392915824-6.014966681372243-11.773525038266598-.392188050854202-23.756282993845161.959042896269239-35.175258428307643,3.834960857237093-11.454207074142687,2.884791200596737-22.671081068943749,7.518054646979181-32.781164853873634,13.630035240742473-10.289505225970061,6.220448573759313-19.80934158663149,14.082372656576808-27.625493155168442,23.232612392570445-4.392336446184345,5.142035838392985-8.457916277309778,10.622176654626855-11.947429923358868,16.419318500124973-3.654615806908623,6.071426672151574-6.607843179805059,12.502144190083527-9.220294690641822,19.08332946065002-5.378110454703346,13.548324690876143-8.07141151673386,28.071550977679181-9.072983454472705,42.577850228180978-.25366410211609,3.673952150373225-.371545574191259,7.355817498026227-.37471653222201,11.038336030856954-.002648001182024,3.075194730626208,1.340432511493418,6.310995259970696,3.514718625761816,8.485281374238184,2.081307336437021,2.081307336437931,5.496075058545102,3.648605543037775,8.485281374238184,3.514718625761816,6.506252735793169-.291415857527682,11.994207060934059-5.272504629551804,12-12h0Z"/>
    </g>
  </a>
</svg>