<?xml version="1.0" encoding="UTF-8"?>
<svg id="Content" xmlns="http://www.w3.org/2000/svg" xmlns:xlink="http://www.w3.org/1999/xlink" viewBox="0 0 280 280">
  <defs>
    <style>
      .cls-1 {
        fill: #665451;
      }

      .cls-2 {
        fill: url(#linear-gradient);
      }
    </style>
    <linearGradient id="linear-gradient" x1="135.536980947032134" y1="129.050851292360676" x2="135.536980947032134" y2="21.868617683157026" gradientUnits="userSpaceOnUse">
      <stop offset=".033113946447839" stop-color="#d4c0a3" stop-opacity="0"/>
      <stop offset=".077445529981579" stop-color="#d4c0a3" stop-opacity=".067075563153634"/>
      <stop offset=".702797202797203" stop-color="#d4c0a3"/>
    </linearGradient>
  </defs>
  <a xlink:href="https://www.notion.so/congruence/Symmetrically-skewed-unimodal-distribution-558156b3ed444751ba6277c001750d55?pvs=4">
    <g>
      <path class="cls-2" d="M35.219675689148062,129.050851292360676c-.000359612433385-142.909644812272745,200.634250903325665-142.909644812272745,200.634610515769964,0"/>
      <path class="cls-1" d="M47.219675689148062,129.050851292360676c.005878775335077-6.203985162522258.383954611274021-12.402829428988298,1.199454305109612-18.553922699756185l-.428651597365388,3.190075346517915c1.35201878234875-10.039000916423902,3.882729688510153-19.910494819420819,7.80377480477182-29.259369471957143l-1.209700180865184,2.86655443035761c3.2926798256849-7.801110335185513,7.535139950798111-15.178417980623635,12.703365809546085-21.889181512280629l-1.876366847533063,2.428651597363569c4.885246002704662-6.313269202936681,10.554717809962312-11.98725179761459,16.864420628744483-16.877069028212645l-2.428651597363569,1.876366847533063c6.633241116727731-5.117185351200533,13.922035337209309-9.337508834200889,21.638980647363496-12.594458545212547l-2.866554430358519,1.209700180866093c6.490807005549868-2.723749284011319,13.258057998678851-4.767996247077463,20.1691536035014-6.10401035410996,1.966615277846358-.380174997503673,3.943939676855734-.701518772537383,5.928863630988417-.969823550787623l-3.190075346517915.428651597362659c7.234641732624368-.963599621269168,14.562403084124526-1.18513255531434,21.84133736318654-.64344156860443,2.064836017549169.153663024951129,4.124337586763431.370081042045058,6.176711576452362.64344156860443l-3.190075346517915-.428651597362659c6.969408722410662.9420634910648,13.842078544454125,2.571952616299313,20.477663356548874,4.905640911407318,1.89478407684328.666382172348676,3.768340971841099,1.39101611294609,5.620389478599463,2.168192993490266l-2.866554430358519-1.209700180866093c7.71696422576133,3.256950776389203,15.005778194255981,7.477273990593858,21.639044031802769,12.594458545212547l-2.428651597363569-1.876366847533063c6.309729667646025,4.88981896632049,11.979228480589882,10.563800716758124,16.86450556638556,16.877069028212645l-1.876366847533063-2.428651597363569c5.16825964164309,6.710763543981557,9.410756522556767,14.088070317869096,12.703475971764419,21.889181512280629l-1.209700180865184-2.86655443035761c3.921089113133348,9.348867372323184,6.4518520390302,19.220363252596144,7.803922059119941,29.259369471957143l-.428651597365388-3.190075346517915c.815530458326975,6.151091820432157,1.193637682466942,12.349936313409671,1.199547681892,18.553922699756185.002932808052719,3.078697630675379,1.33654445475986,6.307107203236228,3.514718625761816,8.485281374238184,2.081307336437021,2.081307336437931,5.496075058545102,3.648605543037775,8.485281374238184,3.514718625761816,6.49650313683378-.290979171795698,12.006408497618395-5.272718131956026,12-12-.013165614538593-13.820524753978134-1.754337606733316-27.896516047591831-5.842997016829031-41.12437566303106-3.545543464184448-11.470740529002796-8.745996226341958-22.634558390193888-15.80866576871631-32.371642628529116-3.622136183181283-4.993727219823086-7.530187056789146-9.792462579587664-11.92435872788883-14.128945193189793-4.270323179347542-4.214260071700664-8.97350706443649-7.999289519193553-13.853577627402046-11.481672789228469-8.871213504437037-6.330434180030352-18.899012742436753-11.103972162452919-29.239670644939906-14.496273013613063-10.304153552653588-3.380325429651748-21.257529848320701-5.153680180439551-32.08560432088052-5.519170336321622-10.827147116104243-.365458853949349-21.858511984182769.885261078128678-32.358062260042061,3.533990691229519-10.465958381199016,2.640255360031915-20.726423722586333,6.87919230002808-29.968988929747866,12.457808516950536-9.489990525769826,5.727956888470544-18.284980543567144,12.980625545170369-25.479892359857331,21.426902719584177-4.033019445150785,4.73445692641053-7.77741921758934,9.773165943006461-10.983370764442952,15.107207965404996-3.356111206665446,5.583876720083936-6.056414385173412,11.501736454103593-8.458341559107794,17.551682888505638-4.925227057159645,12.40560504766745-7.370173676299601,25.712832117225844-8.289356386696454,38.994257296447358-.231505889210894,3.345067429274422-.338547014080177,6.697337466056524-.341724149218862,10.050229545790899-.002913836140578,3.07502756212125,1.340617847899921,6.311180596377199,3.514718625761816,8.485281374238184,2.081307336437021,2.081307336437931,5.496075058545102,3.648605543037775,8.485281374238184,3.514718625761816,6.506717700010995-.291436683331995,11.993625147371858-5.272494888115034,12-12h0Z"/>
    </g>
  </a>
</svg>