<?xml version="1.0" encoding="UTF-8"?>
<svg id="Content" xmlns="http://www.w3.org/2000/svg" xmlns:xlink="http://www.w3.org/1999/xlink" viewBox="0 0 280 280">
  <defs>
    <style>
      .cls-1 {
        fill: #665451;
      }

      .cls-2 {
        fill: url(#linear-gradient);
      }
    </style>
    <linearGradient id="linear-gradient" x1="139.865503628876468" y1="154.919694594364046" x2="139.865503628876468" y2="37.038869170169164" gradientUnits="userSpaceOnUse">
      <stop offset=".033113946447839" stop-color="#d4c0a3" stop-opacity="0"/>
      <stop offset=".077445529981579" stop-color="#d4c0a3" stop-opacity=".067075563153634"/>
      <stop offset=".702797202797203" stop-color="#d4c0a3"/>
    </linearGradient>
  </defs>
  <a xlink:href="https://www.notion.so/congruence/Symmetrically-skewed-unimodal-distribution-558156b3ed444751ba6277c001750d55?pvs=4">
    <g>
      <path class="cls-2" d="M29.534842007780753,154.919694594364046c-.000395507810026-157.17443389892469,220.66092773436867-157.17443389892469,220.66132324218961,0"/>
      <path class="cls-1" d="M41.534842007780753,154.919694594364046c.005897415489017-6.848826637931779.424847922369736-13.692741144801403,1.329451008199612-20.482620271628548-.142883865790282,1.063358448840518-.285767731580563,2.126716897679216-.428651597359931,3.190075346517915,1.176483749730323-8.70588663585113,3.149041659060458-17.306291151511687,6.064415424119943-25.598014148239599.772976895839747-2.198452349377476,1.612933163700291-4.372540138487238,2.514795900289755-6.521291198299878-.403233393619303.955518143455265-.806466787240424,1.911036286906892-1.209700180870641,2.866554430358519,3.612490238170722-8.557616096259153,8.266147077591086-16.652771614144513,13.932739142670471-24.016714059089281-.62545561584011.809550532452704-1.25091123168022,1.619101064907227-1.876366847529425,2.42865159736175,5.397822215709311-6.984440336545958,11.670091101399521-13.259185390912535,18.652654932899168-18.659394555579638-.809550532449066.625455615845567-1.619101064909046,1.250911231689315-2.428651597359931,1.876366847533063,5.634727195219966-4.339801062153128,11.702033875610141-8.104277838832786,18.089566608499808-11.232108381485887,1.8067602441497-.884729693178087,3.638519493850254-1.71701129160283,5.490852047540102-2.50174104782127l-2.866554430360338,1.209700180865184c7.173909395400187-3.02337936845106,14.657601357350359-5.289949864993105,22.300539516039862-6.76936974383716,2.165859551500034-.419238728451091,4.343588081721464-.773789627284714,6.52969750648117-1.069448596917937l-3.190075346519734.428651597363569c7.972191935308729-1.06385311570557,16.048106434869624-1.306912379610367,24.069159322209089-.707942333940082,2.267216458310941.169303801467322,4.52864600904104.407222352900135,6.782151669100131.707942333940082l-3.190075346519734-.428651597363569c7.707726760800142,1.042425861855008,15.30810270109032,2.85139292650274,22.643217062630356,5.442122773394658,2.0859396620599.736744633408307,4.148519639429651,1.537573201341729,6.187059410509391,2.396695567360439l-2.866554430360338-1.209700180865184c6.523928484961289,2.763817913912135,12.779841130381101,6.149862358553946,18.634024277651406,10.143130955857487,1.683568745038428,1.14839970527828,3.331919918589847,2.347220690011454,4.94646349706818,3.59071847344967l-2.428651597358112-1.876366847533063c6.982592349730112,5.400210201372829,13.254891347769444,11.674954055659327,18.652748840489949,18.659394555579638-.625455615851024-.809550532454523-1.250911231691134-1.619101064909046-1.876366847531244-2.42865159736175,5.666626452699347,7.363938971215248,10.320325154460079,15.459094287638436,13.93286001216984,24.016714059089281l-1.209700180859727-2.866554430358519c3.307027045029827,7.879128800914259,5.731553828940378,16.108808077058711,7.340446072190389,24.498514340019028.484817608059529,2.528122899382652.894191316569049,5.069869975159236,1.238926899839498,7.620791006520449l-.428651597370845-3.190075346517915c.904636933071743,6.789876692311736,1.323622205800348,13.633791280732112,1.32955409159149,20.482620271628548.002666367110578,3.078530678401876,1.336729957978605,6.307292706465887,3.514718625759997,8.485281374238184,2.08130733643884,2.081307336437021,5.496075058539645,3.648605543037775,8.485281374240003,3.514718625761816,6.496968101670063-.290999997627296,12.005826620950756-5.272707549416737,12-12-.013040774119872-15.056600039877594-1.906163014569756-30.374832598206922-6.346057607921466-44.789690718296697-3.871602230788994-12.569802206082386-9.57285170538853-24.784276513035365-17.311070527419361-35.448666265514476-3.916237040139094-5.397143595921079-8.148818980649594-10.575634816634192-12.897147796029458-15.263996560521264-4.640068793300088-4.58146894735728-9.742962100130171-8.702178152207125-15.048592229930364-12.485603683160662-9.678223145820084-6.901505692690989-20.601670306310552-12.117144548039505-31.882913649929833-15.813518801498503-11.237360900669955-3.681995879784154-23.16967874132024-5.621612857859873-34.978200392919462-6.014966681372243-11.773525038261141-.392188050853292-23.756282993839704.959042896269239-35.175258428300367,3.834960857237093-11.454207074140868,2.884791200596737-22.671081068951025,7.518054646976452-32.78116485388091,13.630035240743382-10.289505225959147,6.220448573762042-19.809341586629671,14.082372656572261-27.625493155168442,23.232612392570445-4.392336446180707,5.142035838394804-8.457916277300683,10.622176654625946-11.947429923360687,16.419318500124064-3.654615806910442,6.071426672147936-6.607843179799602,12.502144190086256-9.220294690629089,19.083329460649111-5.378110454710622,13.548324690878871-8.071411516741136,28.07155097768009-9.072983454479981,42.577850228182797-.253664102110633,3.673952150373225-.371545574191259,7.355817498026227-.374716532220191,11.038336030856954-.002648001180205,3.075194730625299,1.34043251148978,6.310995259971605,3.514718625759997,8.485281374238184,2.08130733643884,2.081307336437021,5.496075058539645,3.648605543037775,8.485281374240003,3.514718625761816,6.506252735789531-.291415857527682,11.994207060928602-5.272504629550895,12-12h0Z"/>
    </g>
  </a>
</svg>