<?xml version="1.0" encoding="UTF-8"?>
<svg id="Content" xmlns="http://www.w3.org/2000/svg" xmlns:xlink="http://www.w3.org/1999/xlink" viewBox="0 0 280 280">
  <defs>
    <style>
      .cls-1 {
        stroke: #665451;
        stroke-width: 50px;
      }

      .cls-1, .cls-2 {
        fill: none;
        stroke-linecap: round;
        stroke-linejoin: round;
      }

      .cls-3 {
        fill: #fff;
      }

      .cls-2 {
        stroke: #998675;
        stroke-width: 2px;
      }

      .cls-4 {
        fill: #665451;
      }

      .cls-5 {
        fill: url(#linear-gradient);
      }
    </style>
    <linearGradient id="linear-gradient" x1="184.011767215997679" y1="-458.72204647318722" x2="184.011767215997679" y2="-576.845520643038071" gradientTransform="translate(-10.774261212507554 609.682448085595524) rotate(-3.719431974336864)" gradientUnits="userSpaceOnUse">
      <stop offset=".033113946447839" stop-color="#d4c0a3" stop-opacity="0"/>
      <stop offset=".077445529981579" stop-color="#d4c0a3" stop-opacity=".067075563153634"/>
      <stop offset=".702797202797203" stop-color="#d4c0a3"/>
    </linearGradient>
  </defs>
  <a xlink:href="https://www.notion.so/congruence/T-distribution-9bc75bacef6f402eb0525928277ca51c?pvs=4">
    <g>
      <path class="cls-5" d="M255.366497530249944,132.690951815190601c-12.994731304619563-.699423999746614-26.092380030890126-1.994128024435668-37.812880199880055-8.031917783185236-18.10545276736957-9.071295738425761-30.933141988300122-25.928020924744487-39.118611526119821-44.420342646932113-6.912749934799649-14.873244757697648-10.611914063630138-31.754592520221195-20.373455062799621-45.10781812478308-13.257598898460856-18.211288345819412-34.134368363950671-16.09934093897391-48.47890252337038-.397869387068567-17.666905818109626,19.297871880689854-18.203918179639913,47.517288822838964-30.517181468780109,70.017713666107738-11.349571570470289,21.558579152015227-25.369748552669989,31.957228198085431-48.491124955809937,38.788674530333083"/>
      <path class="cls-4" d="M255.366497530249944,120.690951815190601c-4.929961564429505-.267990665629441-9.855442058140397-.623558726648298-14.750757381480071-1.279197855031271l3.190075346519734.428651597363569c-6.640869055089752-.915908500794103-13.188734494699929-2.420243810207467-19.382151875849559-5.026606298717525l2.866554430360338,1.209700180865184c-5.269207778170312-2.266275616064377-10.218537961400216-5.221451446053834-14.772624004560384-8.703138801909517.80955053245998.625455615841929,1.619101064909955,1.250911231687496,2.428651597369935,1.876366847531244-5.597993737070283-4.326891669987162-10.534119616980206-9.417860010706136-14.860045269730108-15.008982307297629l1.876366847540339,2.428651597363569c-6.24869235298047-8.145702300376797-11.037354431629865-17.205454117996851-15.022875727659994-26.641668529273375l1.209700180859727,2.866554430358519c-5.220037033699555-12.456978816930132-8.947393866090351-25.63170681779593-15.649321007399521-37.429602580079518-3.307735838900044-5.82285092238817-7.376287457800572-11.61437814195051-12.646048950590739-15.819529093518213-5.254214908839458-4.192745127809758-11.195987276749293-7.618998436822949-17.939375777479654-8.672565466644301-6.630016094130042-1.035854061088685-13.328536841269852-.860167494538473-19.729279128449889,1.391175086766452-6.745554684890521,2.372623957538963-12.59017784955995,5.978364499720556-17.899831293610077,10.765213273734844-9.919166811900141,8.942495398832762-16.036485220760369,21.188019424025697-20.579976442550105,33.527986339549898-4.495066959950236,12.208448274926923-7.334305755410242,24.978521286377145-12.386625015329628,36.989400801061493l1.209700180859727-2.8665544303567c-3.190065540199612,7.50699877421539-7.253293502540146,14.763141423823981-12.219308881340112,21.243635462951715.625455615850115-.809550532452704,1.250911231690225-1.619101064909046,1.876366847530335-2.42865159736175-3.472455083289788,4.489596829880611-7.443017430679902,8.5483036347905-11.93211680730019,12.026539873602815l2.428651597369935-1.876366847531244c-4.986181971939914,3.823825091119943-10.492654551930173,6.856798639491899-16.273222300689667,9.299902698850929l2.866554430359429-1.209700180867003c-3.88100347451018,1.623316687337137-7.859516447889291,2.988885446242421-11.891292678029458,4.185877650423208-2.930853372590718.870139719654617-5.616666168390111,2.857618892647224-7.171572875250604,5.514718625761816-1.50520294018952,2.572163534339779-2.142906468850015,6.363000977878983-1.209700180859727,9.246705123391621.939656610020393,2.903636309102694,2.739043699820286,5.705057238023983,5.514718625759997,7.171572875254242,2.825379522039839,1.492776841938394,6.107904376650367,2.141577301486905,9.246705123389802,1.209700180865184,15.564636763479939-4.620977902382947,30.508230856100454-11.928886047988271,41.599141308410253-24.071199431380592,12.124297053550436-13.273663601430599,19.363058707250275-29.734278164280113,24.654886292450101-46.716426484679687,2.788916736039937-8.949988808599301,5.282752159129814-18.015252799810696,8.930714877859828-26.668092848291963l-1.209700180859727,2.866554430359429c2.440189279959668-5.728745187154345,5.403025945749505-11.218226717704965,9.203553076859862-16.165135219047443-.62545561584011.809550532454523-1.25091123168022,1.619101064909046-1.876366847530335,2.42865159736175,2.550803000900487-3.274862204156307,5.416617078140007-6.277379801602365,8.69443261159995-8.832066804161514l-2.428651597359931,1.876366847531244c2.553533388129836-1.955061545651915,5.303667219910494-3.611387650120378,8.263113868610162-4.875881548843608l-2.866554430360338,1.209700180865184c2.484395299360585-1.032449749145599,5.063350273080687-1.766639600828057,7.729081551610761-2.140703475904047l-3.190075346520644.428651597362659c2.380576889110671-.306766133224301,4.767995642920141-.316735024996888,7.148524950350293-.004449507461686l-3.190075346519734-.428651597363569c2.191902022639624.314669445198888,4.315091759299321.895164736706647,6.364807306819785,1.732732800670419-.955518143449808-.40323339362385-1.911036286909621-.806466787244062-2.866554430360338-1.209700180865184,2.260145457330509.955998322438973,4.359875129810462,2.19868094125377,6.312219080280556,3.683660872151449l-2.428651597359931-1.876366847531244c2.349981499809473,1.830214475343382,4.413464303109322,3.961112971839611,6.246231440160045,6.305959472651011-.62545561584011-.809550532456342-1.250911231690225-1.619101064909046-1.876366847530335-2.428651597365388,4.161494773589766,5.433735261105539,7.260905651140092,11.578333655248571,9.923480172779819,17.858802285569254l-1.209700180859727-2.866554430358519c3.757689213310186,8.934410657790067,6.819907043520288,18.137208356964038,10.606026435530111,27.0630991249418,3.210133064490037,7.567985612071425,6.908871231779813,14.922375867536175,11.531839034869336,21.73363274100484,4.96395766625028,7.3136548239072,10.691644991690737,14.25999475979097,17.456418291580121,19.982609460315871,7.894047038190365,6.677916261902283,16.526057823950396,11.893272749661264,26.305290878070082,15.334233608726208,10.769793892570306,3.789503638927272,22.44856513042032,4.743735124764498,33.775016017660164,5.359436296635067,2.970254037550148.161461777382101,6.423888826750044-1.453326078270038,8.485281374240003-3.514718625760906,2.08130733643975-2.081307336436112,3.648605543040503-5.496075058546921,3.514718625759997-8.485281374239094-.139005463140165-3.103484767402733-1.158449558050052-6.32226969283056-3.514718625759997-8.485281374237275-2.418897999269575-2.22050388907337-5.180793710609578-3.33508804711164-8.485281374240003-3.514718625762725h0Z"/>
    </g>
  </a>
  <a xlink:href="https://www.notion.so/congruence/T-distribution-9bc75bacef6f402eb0525928277ca51c?pvs=4">
    <g>
      <path class="cls-1" d="M55.650390625,190.26123046875c.3935546875,1.4013671875.9873046875,2.46533203125,1.7802734375,3.19384765625.791015625.72998046875,1.71484375,1.19580078125,2.7666015625,1.39599609375,1.052734375.2021484375,2.1845703125.234375,3.39453125.0947265625,1.2119140625-.138671875,2.4736328125-.37158203125,3.7861328125-.69677734375,4.259765625-1.01953125,6.421875.62353515625,6.48046875,4.9326171875.076171875,2.08154296875-.2578125,4.11376953125-1.0048828125,6.0986328125-.75,1.98583984375-1.7373046875,3.46435546875-2.96484375,4.43701171875-2.28125,1.806640625-4.7900390625,2.8310546875-7.525390625,3.07177734375-2.73828125.240234375-5.3408203125.01904296875-7.8115234375-.6650390625-3.326171875-.86328125-6.1318359375-2.263671875-8.4169921875-4.20166015625s-4.109375-4.240234375-5.4736328125-6.90869140625c-1.3642578125-2.66748046875-2.34375-5.568359375-2.9365234375-8.70556640625-.5927734375-3.134765625-.865234375-6.2939453125-.814453125-9.4755859375.0400390625-3.10302734375.283203125-6.24169921875.732421875-9.4169921875.4462890625-3.1748046875.966796875-6.64013671875,1.5625-10.3955078125-.39453125-.0458984375-.7255859375-.1025390625-.9951171875-.17529296875-.2724609375-.0703125-.564453125-.12451171875-.8779296875-.1611328125-1.6337890625-.34814453125-2.6875-.88818359375-3.1591796875-1.62060546875-.4736328125-.73095703125-.763671875-2.01953125-.8671875-3.865234375-.0126953125-1.275390625.044921875-2.6240234375.169921875-4.0439453125.123046875-1.41943359375.2939453125-2.71484375.5087890625-3.884765625s.46484375-2.1162109375.748046875-2.84130859375c.28125-.72314453125.5810546875-1.068359375.896484375-1.03173828125,1.1884765625.0595703125,2.3916015625.15771484375,3.6103515625.298828125s2.45703125.2841796875,3.71484375.43017578125c.67578125-4.46337890625,1.33984375-8.64794921875,1.9912109375-12.55712890625.6513671875-3.908203125,1.3671875-7.84912109375,2.146484375-11.822265625.205078125-1.09130859375.7763671875-1.90087890625,1.71484375-2.4306640625.9375-.5283203125,2.0439453125-.7978515625,3.322265625-.81005859375,1.029296875.04052734375,2.2744140625.12548828125,3.734375.2529296875,1.458984375.12939453125,2.8291015625.34814453125,4.107421875.6552734375,1.2783203125.30810546875,2.35546875.810546875,3.2314453125,1.50927734375.8740234375.69921875,1.2822265625,1.642578125,1.224609375,2.8310546875-.421875,4.33349609375-1.0087890625,8.546875-1.7626953125,12.6435546875-.75390625,4.09521484375-1.4794921875,8.134765625-2.1787109375,12.1171875,2.5048828125.3701171875,5.0341796875.72314453125,7.5859375,1.05712890625,2.548828125.33642578125,5.1181640625.69384765625,7.7041015625,1.07177734375.453125.21337890625.8486328125.576171875,1.1875,1.09375.3466796875.43994140625.591796875,1.083984375.7314453125,1.93701171875.140625.85302734375.171875,1.95263671875.095703125,3.2978515625-.076171875,1.34619140625-.19921875,2.74609375-.3671875,4.19970703125-.1689453125,1.4560546875-.4248046875,2.80078125-.765625,4.03466796875-.3427734375,1.2353515625-.798828125,2.25830078125-1.37109375,3.06787109375-.572265625.8115234375-1.3046875,1.28369140625-2.1953125,1.4189453125-.806640625.0673828125-2.7080078125-.19384765625-5.7060546875-.7802734375-3-.5859375-6.4052734375-1.29833984375-10.2099609375-2.13818359375-.1728515625,1.494140625-.4365234375,3.25634765625-.791015625,5.2861328125-.35546875,2.03173828125-.66015625,4.1474609375-.9150390625,6.34765625-.2548828125,2.2021484375-.4033203125,4.33642578125-.4423828125,6.40283203125-.041015625,2.06787109375.166015625,3.884765625.6240234375,5.4501953125Z"/>
      <path class="cls-2" d="M55.650390625,190.26123046875c.3935546875,1.4013671875.9873046875,2.46533203125,1.7802734375,3.19384765625.791015625.72998046875,1.71484375,1.19580078125,2.7666015625,1.39599609375,1.052734375.2021484375,2.1845703125.234375,3.39453125.0947265625,1.2119140625-.138671875,2.4736328125-.37158203125,3.7861328125-.69677734375,4.259765625-1.01953125,6.421875.62353515625,6.48046875,4.9326171875.076171875,2.08154296875-.2578125,4.11376953125-1.0048828125,6.0986328125-.75,1.98583984375-1.7373046875,3.46435546875-2.96484375,4.43701171875-2.28125,1.806640625-4.7900390625,2.8310546875-7.525390625,3.07177734375-2.73828125.240234375-5.3408203125.01904296875-7.8115234375-.6650390625-3.326171875-.86328125-6.1318359375-2.263671875-8.4169921875-4.20166015625s-4.109375-4.240234375-5.4736328125-6.90869140625c-1.3642578125-2.66748046875-2.34375-5.568359375-2.9365234375-8.70556640625-.5927734375-3.134765625-.865234375-6.2939453125-.814453125-9.4755859375.0400390625-3.10302734375.283203125-6.24169921875.732421875-9.4169921875.4462890625-3.1748046875.966796875-6.64013671875,1.5625-10.3955078125-.39453125-.0458984375-.7255859375-.1025390625-.9951171875-.17529296875-.2724609375-.0703125-.564453125-.12451171875-.8779296875-.1611328125-1.6337890625-.34814453125-2.6875-.88818359375-3.1591796875-1.62060546875-.4736328125-.73095703125-.763671875-2.01953125-.8671875-3.865234375-.0126953125-1.275390625.044921875-2.6240234375.169921875-4.0439453125.123046875-1.41943359375.2939453125-2.71484375.5087890625-3.884765625s.46484375-2.1162109375.748046875-2.84130859375c.28125-.72314453125.5810546875-1.068359375.896484375-1.03173828125,1.1884765625.0595703125,2.3916015625.15771484375,3.6103515625.298828125s2.45703125.2841796875,3.71484375.43017578125c.67578125-4.46337890625,1.33984375-8.64794921875,1.9912109375-12.55712890625.6513671875-3.908203125,1.3671875-7.84912109375,2.146484375-11.822265625.205078125-1.09130859375.7763671875-1.90087890625,1.71484375-2.4306640625.9375-.5283203125,2.0439453125-.7978515625,3.322265625-.81005859375,1.029296875.04052734375,2.2744140625.12548828125,3.734375.2529296875,1.458984375.12939453125,2.8291015625.34814453125,4.107421875.6552734375,1.2783203125.30810546875,2.35546875.810546875,3.2314453125,1.50927734375.8740234375.69921875,1.2822265625,1.642578125,1.224609375,2.8310546875-.421875,4.33349609375-1.0087890625,8.546875-1.7626953125,12.6435546875-.75390625,4.09521484375-1.4794921875,8.134765625-2.1787109375,12.1171875,2.5048828125.3701171875,5.0341796875.72314453125,7.5859375,1.05712890625,2.548828125.33642578125,5.1181640625.69384765625,7.7041015625,1.07177734375.453125.21337890625.8486328125.576171875,1.1875,1.09375.3466796875.43994140625.591796875,1.083984375.7314453125,1.93701171875.140625.85302734375.171875,1.95263671875.095703125,3.2978515625-.076171875,1.34619140625-.19921875,2.74609375-.3671875,4.19970703125-.1689453125,1.4560546875-.4248046875,2.80078125-.765625,4.03466796875-.3427734375,1.2353515625-.798828125,2.25830078125-1.37109375,3.06787109375-.572265625.8115234375-1.3046875,1.28369140625-2.1953125,1.4189453125-.806640625.0673828125-2.7080078125-.19384765625-5.7060546875-.7802734375-3-.5859375-6.4052734375-1.29833984375-10.2099609375-2.13818359375-.1728515625,1.494140625-.4365234375,3.25634765625-.791015625,5.2861328125-.35546875,2.03173828125-.66015625,4.1474609375-.9150390625,6.34765625-.2548828125,2.2021484375-.4033203125,4.33642578125-.4423828125,6.40283203125-.041015625,2.06787109375.166015625,3.884765625.6240234375,5.4501953125Z"/>
      <path class="cls-3" d="M55.650390625,190.26123046875c.3935546875,1.4013671875.9873046875,2.46533203125,1.7802734375,3.19384765625.791015625.72998046875,1.71484375,1.19580078125,2.7666015625,1.39599609375,1.052734375.2021484375,2.1845703125.234375,3.39453125.0947265625,1.2119140625-.138671875,2.4736328125-.37158203125,3.7861328125-.69677734375,4.259765625-1.01953125,6.421875.62353515625,6.48046875,4.9326171875.076171875,2.08154296875-.2578125,4.11376953125-1.0048828125,6.0986328125-.75,1.98583984375-1.7373046875,3.46435546875-2.96484375,4.43701171875-2.28125,1.806640625-4.7900390625,2.8310546875-7.525390625,3.07177734375-2.73828125.240234375-5.3408203125.01904296875-7.8115234375-.6650390625-3.326171875-.86328125-6.1318359375-2.263671875-8.4169921875-4.20166015625s-4.109375-4.240234375-5.4736328125-6.90869140625c-1.3642578125-2.66748046875-2.34375-5.568359375-2.9365234375-8.70556640625-.5927734375-3.134765625-.865234375-6.2939453125-.814453125-9.4755859375.0400390625-3.10302734375.283203125-6.24169921875.732421875-9.4169921875.4462890625-3.1748046875.966796875-6.64013671875,1.5625-10.3955078125-.39453125-.0458984375-.7255859375-.1025390625-.9951171875-.17529296875-.2724609375-.0703125-.564453125-.12451171875-.8779296875-.1611328125-1.6337890625-.34814453125-2.6875-.88818359375-3.1591796875-1.62060546875-.4736328125-.73095703125-.763671875-2.01953125-.8671875-3.865234375-.0126953125-1.275390625.044921875-2.6240234375.169921875-4.0439453125.123046875-1.41943359375.2939453125-2.71484375.5087890625-3.884765625s.46484375-2.1162109375.748046875-2.84130859375c.28125-.72314453125.5810546875-1.068359375.896484375-1.03173828125,1.1884765625.0595703125,2.3916015625.15771484375,3.6103515625.298828125s2.45703125.2841796875,3.71484375.43017578125c.67578125-4.46337890625,1.33984375-8.64794921875,1.9912109375-12.55712890625.6513671875-3.908203125,1.3671875-7.84912109375,2.146484375-11.822265625.205078125-1.09130859375.7763671875-1.90087890625,1.71484375-2.4306640625.9375-.5283203125,2.0439453125-.7978515625,3.322265625-.81005859375,1.029296875.04052734375,2.2744140625.12548828125,3.734375.2529296875,1.458984375.12939453125,2.8291015625.34814453125,4.107421875.6552734375,1.2783203125.30810546875,2.35546875.810546875,3.2314453125,1.50927734375.8740234375.69921875,1.2822265625,1.642578125,1.224609375,2.8310546875-.421875,4.33349609375-1.0087890625,8.546875-1.7626953125,12.6435546875-.75390625,4.09521484375-1.4794921875,8.134765625-2.1787109375,12.1171875,2.5048828125.3701171875,5.0341796875.72314453125,7.5859375,1.05712890625,2.548828125.33642578125,5.1181640625.69384765625,7.7041015625,1.07177734375.453125.21337890625.8486328125.576171875,1.1875,1.09375.3466796875.43994140625.591796875,1.083984375.7314453125,1.93701171875.140625.85302734375.171875,1.95263671875.095703125,3.2978515625-.076171875,1.34619140625-.19921875,2.74609375-.3671875,4.19970703125-.1689453125,1.4560546875-.4248046875,2.80078125-.765625,4.03466796875-.3427734375,1.2353515625-.798828125,2.25830078125-1.37109375,3.06787109375-.572265625.8115234375-1.3046875,1.28369140625-2.1953125,1.4189453125-.806640625.0673828125-2.7080078125-.19384765625-5.7060546875-.7802734375-3-.5859375-6.4052734375-1.29833984375-10.2099609375-2.13818359375-.1728515625,1.494140625-.4365234375,3.25634765625-.791015625,5.2861328125-.35546875,2.03173828125-.66015625,4.1474609375-.9150390625,6.34765625-.2548828125,2.2021484375-.4033203125,4.33642578125-.4423828125,6.40283203125-.041015625,2.06787109375.166015625,3.884765625.6240234375,5.4501953125Z"/>
    </g>
  </a>
</svg>