<?xml version="1.0" encoding="UTF-8"?>
<svg id="Layer_1" xmlns="http://www.w3.org/2000/svg" viewBox="0 0 280 280">
  <defs>
    <style>
      .cls-1 {
        stroke: #665451;
        stroke-width: 50px;
      }

      .cls-1, .cls-2 {
        fill: none;
        stroke-linecap: round;
        stroke-linejoin: round;
      }

      .cls-3 {
        fill: #fff;
      }

      .cls-2 {
        stroke: #998675;
        stroke-width: 2px;
      }
    </style>
  </defs>
  <path d="M87.61865234375,149.7421875c.939453125,1.9033203125,2.07421875,3.26953125,3.40625,4.1025390625,1.3291015625.8359375,2.77587890625,1.2568359375,4.33740234375,1.2626953125,1.56201171875.0087890625,3.19287109375-.248046875,4.8916015625-.771484375,1.69921875-.521484375,3.44482421875-1.1904296875,5.23974609375-2.009765625,5.833984375-2.5966796875,9.3701171875-.818359375,10.60546875,5.3427734375.6640625,2.962890625.72802734375,5.96484375.18701171875,9.0087890625-.5439453125,3.046875-1.564453125,5.4296875-3.06396484375,7.1513671875-2.78857421875,3.1982421875-6.111328125,5.3359375-9.96826171875,6.412109375-3.859375,1.0732421875-7.64990234375,1.4521484375-11.37255859375,1.130859375-4.9990234375-.3486328125-9.39306640625-1.607421875-13.1865234375-3.7744140625-3.79248046875-2.1669921875-7.0224609375-4.9814453125-9.6904296875-8.4404296875-2.6669921875-3.4599609375-4.8447265625-7.3583984375-6.53173828125-11.6953125-1.68701171875-4.3359375-2.92138671875-8.7919921875-3.69775390625-13.365234375-.7705078125-4.4580078125-1.2587890625-9.0224609375-1.4638671875-13.69287109375-.2080078125-4.669921875-.38623046875-9.77587890625-.53564453125-15.31787109375-.5771484375.0400390625-1.06689453125.046875-1.47314453125.01513671875-.408203125-.02880859375-.8427734375-.02880859375-1.30126953125.0029296875-2.43310546875-.06298828125-4.08837890625-.55615234375-4.96044921875-1.4794921875-.8740234375-.92138671875-1.6328125-2.69091796875-2.2734375-5.30908203125-.359375-1.82373046875-.6376953125-3.77294921875-.8369140625-5.8408203125-.2021484375-2.068359375-.30322265625-3.97021484375-.306640625-5.7041015625-.005859375-1.73486328125.099609375-3.15771484375.3125-4.27294921875.21142578125-1.1123046875.5478515625-1.68603515625,1.009765625-1.7177734375,1.71826171875-.232421875,3.46875-.41259765625,5.25439453125-.5361328125,1.7841796875-.12255859375,3.59716796875-.24755859375,5.43994140625-.375-.22265625-6.5771484375-.38916015625-12.75244140625-.4970703125-18.52978515625-.1103515625-5.77490234375-.13623046875-11.615234375-.07958984375-17.51806640625.00244140625-1.619140625.60595703125-2.93115234375,1.810546875-3.94189453125,1.20166015625-1.0068359375,2.71630859375-1.68896484375,4.54296875-2.0478515625,1.4873046875-.216796875,3.29443359375-.427734375,5.421875-.6337890625,2.12451171875-.2041015625,4.14599609375-.255859375,6.0615234375-.158203125,1.91552734375.10107421875,3.59375.53369140625,5.0341796875,1.30126953125,1.44091796875.7685546875,2.27783203125,2.01171875,2.5126953125,3.73095703125.5498046875,6.32470703125.83349609375,12.52099609375.84814453125,18.5927734375.01171875,6.07177734375.0498046875,12.05419921875.109375,17.94921875,3.69140625-.1376953125,7.40966796875-.30712890625,11.15625-.50830078125,3.7431640625-.1982421875,7.52099609375-.3720703125,11.328125-.52099609375.70654296875.1845703125,1.36962890625.599609375,1.994140625,1.25048828125.615234375.5380859375,1.13720703125,1.39599609375,1.56640625,2.58154296875.4287109375,1.1845703125.76708984375,2.75341796875,1.017578125,4.70068359375.2490234375,1.951171875.44873046875,3.98974609375.595703125,6.11865234375.14697265625,2.13134765625.1376953125,4.126953125-.02099609375,5.98681640625-.16162109375,1.8623046875-.54296875,3.45068359375-1.146484375,4.763671875-.603515625,1.31591796875-1.52685546875,2.1875-2.76904296875,2.61962890625-1.1357421875.31201171875-3.9326171875.44482421875-8.38671875.4052734375-4.45703125-.03955078125-9.525390625-.1513671875-15.20458984375-.33984375.15087890625,2.18798828125.2431640625,4.78369140625.2763671875,7.7880859375.03369140625,3.0068359375.162109375,6.12109375.38427734375,9.34228515625.22216796875,3.224609375.5791015625,6.32275390625,1.07421875,9.29541015625.4921875,2.9755859375,1.27490234375,5.5234375,2.3486328125,7.6455078125Z"/>
  <path class="cls-1" d="M87.61865234375,149.7421875c.939453125,1.9033203125,2.07421875,3.26953125,3.40625,4.1025390625,1.3291015625.8359375,2.77587890625,1.2568359375,4.33740234375,1.2626953125,1.56201171875.0087890625,3.19287109375-.248046875,4.8916015625-.771484375,1.69921875-.521484375,3.44482421875-1.1904296875,5.23974609375-2.009765625,5.833984375-2.5966796875,9.3701171875-.818359375,10.60546875,5.3427734375.6640625,2.962890625.72802734375,5.96484375.18701171875,9.0087890625-.5439453125,3.046875-1.564453125,5.4296875-3.06396484375,7.1513671875-2.78857421875,3.1982421875-6.111328125,5.3359375-9.96826171875,6.412109375-3.859375,1.0732421875-7.64990234375,1.4521484375-11.37255859375,1.130859375-4.9990234375-.3486328125-9.39306640625-1.607421875-13.1865234375-3.7744140625-3.79248046875-2.1669921875-7.0224609375-4.9814453125-9.6904296875-8.4404296875-2.6669921875-3.4599609375-4.8447265625-7.3583984375-6.53173828125-11.6953125-1.68701171875-4.3359375-2.92138671875-8.7919921875-3.69775390625-13.365234375-.7705078125-4.4580078125-1.2587890625-9.0224609375-1.4638671875-13.69287109375-.2080078125-4.669921875-.38623046875-9.77587890625-.53564453125-15.31787109375-.5771484375.0400390625-1.06689453125.046875-1.47314453125.01513671875-.408203125-.02880859375-.8427734375-.02880859375-1.30126953125.0029296875-2.43310546875-.06298828125-4.08837890625-.55615234375-4.96044921875-1.4794921875-.8740234375-.92138671875-1.6328125-2.69091796875-2.2734375-5.30908203125-.359375-1.82373046875-.6376953125-3.77294921875-.8369140625-5.8408203125-.2021484375-2.068359375-.30322265625-3.97021484375-.306640625-5.7041015625-.005859375-1.73486328125.099609375-3.15771484375.3125-4.27294921875.21142578125-1.1123046875.5478515625-1.68603515625,1.009765625-1.7177734375,1.71826171875-.232421875,3.46875-.41259765625,5.25439453125-.5361328125,1.7841796875-.12255859375,3.59716796875-.24755859375,5.43994140625-.375-.22265625-6.5771484375-.38916015625-12.75244140625-.4970703125-18.52978515625-.1103515625-5.77490234375-.13623046875-11.615234375-.07958984375-17.51806640625.00244140625-1.619140625.60595703125-2.93115234375,1.810546875-3.94189453125,1.20166015625-1.0068359375,2.71630859375-1.68896484375,4.54296875-2.0478515625,1.4873046875-.216796875,3.29443359375-.427734375,5.421875-.6337890625,2.12451171875-.2041015625,4.14599609375-.255859375,6.0615234375-.158203125,1.91552734375.10107421875,3.59375.53369140625,5.0341796875,1.30126953125,1.44091796875.7685546875,2.27783203125,2.01171875,2.5126953125,3.73095703125.5498046875,6.32470703125.83349609375,12.52099609375.84814453125,18.5927734375.01171875,6.07177734375.0498046875,12.05419921875.109375,17.94921875,3.69140625-.1376953125,7.40966796875-.30712890625,11.15625-.50830078125,3.7431640625-.1982421875,7.52099609375-.3720703125,11.328125-.52099609375.70654296875.1845703125,1.36962890625.599609375,1.994140625,1.25048828125.615234375.5380859375,1.13720703125,1.39599609375,1.56640625,2.58154296875.4287109375,1.1845703125.76708984375,2.75341796875,1.017578125,4.70068359375.2490234375,1.951171875.44873046875,3.98974609375.595703125,6.11865234375.14697265625,2.13134765625.1376953125,4.126953125-.02099609375,5.98681640625-.16162109375,1.8623046875-.54296875,3.45068359375-1.146484375,4.763671875-.603515625,1.31591796875-1.52685546875,2.1875-2.76904296875,2.61962890625-1.1357421875.31201171875-3.9326171875.44482421875-8.38671875.4052734375-4.45703125-.03955078125-9.525390625-.1513671875-15.20458984375-.33984375.15087890625,2.18798828125.2431640625,4.78369140625.2763671875,7.7880859375.03369140625,3.0068359375.162109375,6.12109375.38427734375,9.34228515625.22216796875,3.224609375.5791015625,6.32275390625,1.07421875,9.29541015625.4921875,2.9755859375,1.27490234375,5.5234375,2.3486328125,7.6455078125Z"/>
  <path class="cls-2" d="M87.61865234375,149.7421875c.939453125,1.9033203125,2.07421875,3.26953125,3.40625,4.1025390625,1.3291015625.8359375,2.77587890625,1.2568359375,4.33740234375,1.2626953125,1.56201171875.0087890625,3.19287109375-.248046875,4.8916015625-.771484375,1.69921875-.521484375,3.44482421875-1.1904296875,5.23974609375-2.009765625,5.833984375-2.5966796875,9.3701171875-.818359375,10.60546875,5.3427734375.6640625,2.962890625.72802734375,5.96484375.18701171875,9.0087890625-.5439453125,3.046875-1.564453125,5.4296875-3.06396484375,7.1513671875-2.78857421875,3.1982421875-6.111328125,5.3359375-9.96826171875,6.412109375-3.859375,1.0732421875-7.64990234375,1.4521484375-11.37255859375,1.130859375-4.9990234375-.3486328125-9.39306640625-1.607421875-13.1865234375-3.7744140625-3.79248046875-2.1669921875-7.0224609375-4.9814453125-9.6904296875-8.4404296875-2.6669921875-3.4599609375-4.8447265625-7.3583984375-6.53173828125-11.6953125-1.68701171875-4.3359375-2.92138671875-8.7919921875-3.69775390625-13.365234375-.7705078125-4.4580078125-1.2587890625-9.0224609375-1.4638671875-13.69287109375-.2080078125-4.669921875-.38623046875-9.77587890625-.53564453125-15.31787109375-.5771484375.0400390625-1.06689453125.046875-1.47314453125.01513671875-.408203125-.02880859375-.8427734375-.02880859375-1.30126953125.0029296875-2.43310546875-.06298828125-4.08837890625-.55615234375-4.96044921875-1.4794921875-.8740234375-.92138671875-1.6328125-2.69091796875-2.2734375-5.30908203125-.359375-1.82373046875-.6376953125-3.77294921875-.8369140625-5.8408203125-.2021484375-2.068359375-.30322265625-3.97021484375-.306640625-5.7041015625-.005859375-1.73486328125.099609375-3.15771484375.3125-4.27294921875.21142578125-1.1123046875.5478515625-1.68603515625,1.009765625-1.7177734375,1.71826171875-.232421875,3.46875-.41259765625,5.25439453125-.5361328125,1.7841796875-.12255859375,3.59716796875-.24755859375,5.43994140625-.375-.22265625-6.5771484375-.38916015625-12.75244140625-.4970703125-18.52978515625-.1103515625-5.77490234375-.13623046875-11.615234375-.07958984375-17.51806640625.00244140625-1.619140625.60595703125-2.93115234375,1.810546875-3.94189453125,1.20166015625-1.0068359375,2.71630859375-1.68896484375,4.54296875-2.0478515625,1.4873046875-.216796875,3.29443359375-.427734375,5.421875-.6337890625,2.12451171875-.2041015625,4.14599609375-.255859375,6.0615234375-.158203125,1.91552734375.10107421875,3.59375.53369140625,5.0341796875,1.30126953125,1.44091796875.7685546875,2.27783203125,2.01171875,2.5126953125,3.73095703125.5498046875,6.32470703125.83349609375,12.52099609375.84814453125,18.5927734375.01171875,6.07177734375.0498046875,12.05419921875.109375,17.94921875,3.69140625-.1376953125,7.40966796875-.30712890625,11.15625-.50830078125,3.7431640625-.1982421875,7.52099609375-.3720703125,11.328125-.52099609375.70654296875.1845703125,1.36962890625.599609375,1.994140625,1.25048828125.615234375.5380859375,1.13720703125,1.39599609375,1.56640625,2.58154296875.4287109375,1.1845703125.76708984375,2.75341796875,1.017578125,4.70068359375.2490234375,1.951171875.44873046875,3.98974609375.595703125,6.11865234375.14697265625,2.13134765625.1376953125,4.126953125-.02099609375,5.98681640625-.16162109375,1.8623046875-.54296875,3.45068359375-1.146484375,4.763671875-.603515625,1.31591796875-1.52685546875,2.1875-2.76904296875,2.61962890625-1.1357421875.31201171875-3.9326171875.44482421875-8.38671875.4052734375-4.45703125-.03955078125-9.525390625-.1513671875-15.20458984375-.33984375.15087890625,2.18798828125.2431640625,4.78369140625.2763671875,7.7880859375.03369140625,3.0068359375.162109375,6.12109375.38427734375,9.34228515625.22216796875,3.224609375.5791015625,6.32275390625,1.07421875,9.29541015625.4921875,2.9755859375,1.27490234375,5.5234375,2.3486328125,7.6455078125Z"/>
  <path class="cls-3" d="M87.61865234375,149.7421875c.939453125,1.9033203125,2.07421875,3.26953125,3.40625,4.1025390625,1.3291015625.8359375,2.77587890625,1.2568359375,4.33740234375,1.2626953125,1.56201171875.0087890625,3.19287109375-.248046875,4.8916015625-.771484375,1.69921875-.521484375,3.44482421875-1.1904296875,5.23974609375-2.009765625,5.833984375-2.5966796875,9.3701171875-.818359375,10.60546875,5.3427734375.6640625,2.962890625.72802734375,5.96484375.18701171875,9.0087890625-.5439453125,3.046875-1.564453125,5.4296875-3.06396484375,7.1513671875-2.78857421875,3.1982421875-6.111328125,5.3359375-9.96826171875,6.412109375-3.859375,1.0732421875-7.64990234375,1.4521484375-11.37255859375,1.130859375-4.9990234375-.3486328125-9.39306640625-1.607421875-13.1865234375-3.7744140625-3.79248046875-2.1669921875-7.0224609375-4.9814453125-9.6904296875-8.4404296875-2.6669921875-3.4599609375-4.8447265625-7.3583984375-6.53173828125-11.6953125-1.68701171875-4.3359375-2.92138671875-8.7919921875-3.69775390625-13.365234375-.7705078125-4.4580078125-1.2587890625-9.0224609375-1.4638671875-13.69287109375-.2080078125-4.669921875-.38623046875-9.77587890625-.53564453125-15.31787109375-.5771484375.0400390625-1.06689453125.046875-1.47314453125.01513671875-.408203125-.02880859375-.8427734375-.02880859375-1.30126953125.0029296875-2.43310546875-.06298828125-4.08837890625-.55615234375-4.96044921875-1.4794921875-.8740234375-.92138671875-1.6328125-2.69091796875-2.2734375-5.30908203125-.359375-1.82373046875-.6376953125-3.77294921875-.8369140625-5.8408203125-.2021484375-2.068359375-.30322265625-3.97021484375-.306640625-5.7041015625-.005859375-1.73486328125.099609375-3.15771484375.3125-4.27294921875.21142578125-1.1123046875.5478515625-1.68603515625,1.009765625-1.7177734375,1.71826171875-.232421875,3.46875-.41259765625,5.25439453125-.5361328125,1.7841796875-.12255859375,3.59716796875-.24755859375,5.43994140625-.375-.22265625-6.5771484375-.38916015625-12.75244140625-.4970703125-18.52978515625-.1103515625-5.77490234375-.13623046875-11.615234375-.07958984375-17.51806640625.00244140625-1.619140625.60595703125-2.93115234375,1.810546875-3.94189453125,1.20166015625-1.0068359375,2.71630859375-1.68896484375,4.54296875-2.0478515625,1.4873046875-.216796875,3.29443359375-.427734375,5.421875-.6337890625,2.12451171875-.2041015625,4.14599609375-.255859375,6.0615234375-.158203125,1.91552734375.10107421875,3.59375.53369140625,5.0341796875,1.30126953125,1.44091796875.7685546875,2.27783203125,2.01171875,2.5126953125,3.73095703125.5498046875,6.32470703125.83349609375,12.52099609375.84814453125,18.5927734375.01171875,6.07177734375.0498046875,12.05419921875.109375,17.94921875,3.69140625-.1376953125,7.40966796875-.30712890625,11.15625-.50830078125,3.7431640625-.1982421875,7.52099609375-.3720703125,11.328125-.52099609375.70654296875.1845703125,1.36962890625.599609375,1.994140625,1.25048828125.615234375.5380859375,1.13720703125,1.39599609375,1.56640625,2.58154296875.4287109375,1.1845703125.76708984375,2.75341796875,1.017578125,4.70068359375.2490234375,1.951171875.44873046875,3.98974609375.595703125,6.11865234375.14697265625,2.13134765625.1376953125,4.126953125-.02099609375,5.98681640625-.16162109375,1.8623046875-.54296875,3.45068359375-1.146484375,4.763671875-.603515625,1.31591796875-1.52685546875,2.1875-2.76904296875,2.61962890625-1.1357421875.31201171875-3.9326171875.44482421875-8.38671875.4052734375-4.45703125-.03955078125-9.525390625-.1513671875-15.20458984375-.33984375.15087890625,2.18798828125.2431640625,4.78369140625.2763671875,7.7880859375.03369140625,3.0068359375.162109375,6.12109375.38427734375,9.34228515625.22216796875,3.224609375.5791015625,6.32275390625,1.07421875,9.29541015625.4921875,2.9755859375,1.27490234375,5.5234375,2.3486328125,7.6455078125Z"/>
</svg>