<?xml version="1.0" encoding="UTF-8"?>
<svg id="Content" xmlns="http://www.w3.org/2000/svg" viewBox="0 0 280 280">
  <defs>
    <style>
      .cls-1 {
        opacity: .05;
      }

      .cls-2 {
        fill: none;
      }
    </style>
  </defs>
  <rect class="cls-1" y="-.000000000001819" width="280" height="280.000000000001819" rx="5.340425531914627" ry="5.340425531914627"/>
  <g>
    <path class="cls-2" d="M207.829139422088701,196.851013833380421c-7.1796875,0-13-5.8203125-13-13s5.8203125-13,13-13h72.1708984375V5.340515786505421C280.000037859588701,2.391052895880421,277.608924578338701-.000060385369579,274.659705828338701-.000060385369579H5.340369890838701C2.391151140838701-.000060385369579.000037859588701,2.391052895880421.000037859588701,5.340515786505421v269.319091796875c0,2.949462890625,2.39111328125,5.34033203125,5.34033203125,5.34033203125h174.99853515625l83.14892578125-83.14892578125h-55.65869140625Z"/>
    <path class="cls-2" d="M217.108436297088701,279.999939614630421h57.55126953125c2.94921875,0,5.34033203125-2.390869140625,5.34033203125-5.34033203125v-57.55126953125l-62.8916015625,62.8916015625Z"/>
  </g>
  <path class="cls-2" d="M158.395057390838701,269.416931802130421l49.56591796875-49.56591796875h-.1318359375c-19.88232421875,0-36-16.11767578125-36-36s16.11767578125-36,36-36h72.1708984375V5.340515786505421C280.000037859588701,2.391052895880421,277.608924578338701-.000060385369579,274.659705828338701-.000060385369579H5.340369890838701C2.391151140838701-.000060385369579.000037859588701,2.391052895880421.000037859588701,5.340515786505421v269.319091796875c0,2.949462890625,2.39111328125,5.34033203125,5.34033203125,5.34033203125h145.72265625c1.73876953125-3.8349609375,4.1787109375-7.4296875,7.33203125-10.5830078125Z"/>
  <path d="M274.65966796875,1c2.393310546875,0,4.34033203125,1.947113037109375,4.34033203125,4.340423583984375v269.31915283203125c0,2.393310546875-1.947021484375,4.340423583984375-4.34033203125,4.340423583984375H5.34033203125c-2.393310546875,0-4.34033203125-1.947113037109375-4.34033203125-4.340423583984375V5.340423583984375C1,2.947113037109375,2.947021484375,1,5.34033203125,1h269.3193359375M274.65966796875,0H5.34033203125C2.390869140625,0,0,2.391006469726562,0,5.340423583984375v269.31915283203125c0,2.949432373046875,2.390869140625,5.340423583984375,5.34033203125,5.340423583984375h269.3193359375c2.949462890625,0,5.34033203125-2.3909912109375,5.34033203125-5.340423583984375V5.340423583984375c0-2.949417114257812-2.390869140625-5.340423583984375-5.34033203125-5.340423583984375h0Z"/>
</svg>