<?xml version="1.0" encoding="UTF-8"?>
<svg id="Content" xmlns="http://www.w3.org/2000/svg" viewBox="0 0 280 280">
  <defs>
    <style>
      .cls-1 {
        fill: rgba(255, 0, 0, .1);
        stroke: #e11f26;
        stroke-width: 4px;
      }

      .cls-2 {
        fill: blue;
      }

      .cls-3 {
        fill: red;
      }

      .cls-4 {
        fill: #ec1940;
      }
    </style>
  </defs>
  <g>
    <path class="cls-2" d="M179.010085085605169,369.3916015625c-7.7021484375.0009765625-14.935791015625-3.0625-22.1142578125-9.36328125-4.4285888671875-3.88671875-7.90234375-7.8291015625-10.6197509765625-12.0498046875-3.487548828125-5.4169921875-5.1068115234375-11.330078125-4.9503173828125-18.07568359375l.0001220703125-6.0478515625c-.4404296875-9.0830078125,2.9761962890625-17.34912109375,10.154296875-24.5927734375,4.939208984375-4.98388671875,10.1226806640625-9.8955078125,15.1356201171875-14.6455078125,4.5074462890625-4.27099609375,9.168212890625-8.68701171875,13.64404296875-13.14892578125,2.38330078125-2.3759765625,4.853271484375-4.7607421875,7.2418212890625-7.0673828125,1.075927734375-1.03857421875,2.1517333984375-2.07763671875,3.2236328125-3.119140625.9844970703125-.95654296875,1.4921875-1.6064453125,1.3560791015625-2.3017578125-.1365966796875-.6982421875-.86669921875-1.11572265625-2.166015625-1.64111328125-8.1903076171875-3.3125-14.4857177734375-8.7880859375-18.7115478515625-16.2744140625-2.415771484375-4.27978515625-3.8599853515625-9.12939453125-4.415283203125-14.82568359375-.8330078125-8.54248046875.5538330078125-16.85400390625,4.1220703125-24.7041015625,4.88427734375-10.74560546875,13.042724609375-18.36572265625,24.2486572265625-22.6484375,4.677734375-1.7880859375,9.4560546875-2.1484375,13.9229736328125-2.271484375,2.471435546875-.068359375,4.8802490234375-.10302734375,7.15966796875-.10302734375,9.6734619140625,0,18.233642578125.6162109375,26.1695556640625,1.88330078125,2.4117431640625.38525390625,5.0296630859375.572265625,8.0035400390625.572265625,2.5718994140625,0,5.1566162109375-.1376953125,7.37744140625-.26708984375,2.85986328125-.166015625,5.8978271484375-.24365234375,9.560546875-.24365234375,2.79931640625,0,5.6484375.0458984375,8.4036865234375.09033203125,1.272705078125.0205078125,2.5450439453125.04150390625,3.8170166015625.0576171875,8.671875.1103515625,16.3341064453125,1.59130859375,23.42431640625,4.52783203125,13.2156982421875,5.47265625,21.9859619140625,15.38427734375,26.067138671875,29.45849609375,2.8966064453125,9.9892578125,3.7327880859375,20.79638671875,2.631591796875,34.01025390625-.03564453125.4287109375-.0379638671875.85888671875-.039794921875,1.28857421875-.0020751953125.4638671875-.00390625.90234375-.0487060546875,1.33642578125-.8924560546875,8.662109375.104248046875,17.3388671875,1.0682373046875,25.72998046875.1956787109375,1.70263671875.3912353515625,3.40576171875.5718994140625,5.109375.1297607421875,1.2236328125.1710205078125,2.4833984375.2109375,3.7021484375.057373046875,1.751953125.1168212890625,3.564453125.4373779296875,5.345703125l-.0079345703125,13.28662109375c-.3487548828125,1.4951171875-.423583984375,3.0234375-.49609375,4.50244140625-.0269775390625.5517578125-.053955078125,1.10302734375-.094970703125,1.6513671875-.489990234375,6.548828125-3.0863037109375,12.59033203125-8.1708984375,19.01318359375-8.3426513671875,10.5380859375-19.65283203125,15.849609375-34.5765380859375,16.2373046875-.4444580078125.01171875-.8885498046875.017578125-1.330078125.017578125-7.717041015625,0-14.395751953125-1.75-20.4176025390625-5.3486328125-6.566650390625-3.9248046875-11.5970458984375-9.421875-14.9515380859375-16.33935546875-.7567138671875-1.56005859375-1.1007080078125-2.26953125-1.8502197265625-2.26953125-.5682373046875,0-1.057373046875.466796875-2.0316162109375,1.396484375l-.0753173828125.07177734375c-1.8251953125,1.74169921875-3.65380859375,3.4794921875-5.4822998046875,5.2177734375-7.71240234375,7.3310546875-15.6873779296875,14.9111328125-23.2711181640625,22.638671875-1.1820068359375,1.2041015625-2.33984375,2.466796875-3.45947265625,3.6865234375-1.5322265625,1.669921875-3.1165771484375,3.3974609375-4.7757568359375,4.9892578125-4.8087158203125,4.61328125-9.6859130859375,7.8447265625-14.9100341796875,9.87890625-3.4129638671875,1.3291015625-7.095703125,1.4716796875-10.6571044921875,1.609375l-.2337646484375.0087890625h-6.7366943359375c-.4708251953125.0205078125-.9168701171875.0302734375-1.3575439453125.0302734375Z"/>
    <path class="cls-4" d="M216.238966921542669,177.011122703552246c9.6474609375,0,18.18310546875.614105224609375,26.09375,1.877394676208496,2.4375.389237403869629,5.0810546875.578474044799805,8.0810546875.578474044799805,2.5849609375,0,5.17919921875-.138341903686523,7.40771484375-.267999649047852,2.84912109375-.165763854980469,5.87744140625-.242974281311035,9.5302734375-.243000030517578,2.79052734375,0,5.63330078125.045841217041016,8.38232421875.090184211730957,1.27783203125.020605087280273,2.5556640625.041210174560547,3.8330078125.057525634765625,8.607421875.109921455383301,16.20947265625,1.578605651855469,23.2392578125,4.489974021911621,13.06884765625,5.411973595619202,21.74169921875,15.214710235595703,25.7783203125,29.135921478271484,2.87939453125,9.929342269897461,3.7099609375,20.678895950317383,2.61376953125,33.82939338684082-.0380859375.454792022705078-.03955078125.898868560791016-.04150390625,1.328289031982422-.001953125.451236724853516-.00390625.877449035644531-.0458984375,1.287132263183594-.8984375,8.715579986572266.1015625,17.419261932373047,1.068359375,25.836368560791016.1953125,1.702079772949219.39111328125,3.404106140136719.5712890625,5.106971740722656.1279296875,1.205978393554688.1689453125,2.456657409667969.208984375,3.666183471679688.05712890625,1.741233825683594.1162109375,3.5406494140625.42919921875,5.328620910644531v13.229583740234375c-.34814453125,1.521148681640625-.4228515625,3.053062438964844-.49560546875,4.535774230957031-.02685546875.547576904296875-.05322265625,1.094261169433594-.09375,1.637840270996094-.482421875,6.444580078125-3.044921875,12.399497985839844-8.06494140625,18.740425109863281-8.24462890625,10.414627075195312-19.4306640625,15.663894653320312-34.197265625,16.047805786132812-.439453125.011428833007812-.87890625.017242431640625-1.31591796875.017242431640625-7.625,0-14.22021484375-1.726470947265625-20.162109375-5.278045654296875-6.48193359375-3.873977661132812-11.447265625-9.3001708984375-14.76123046875-16.1334228515625-.7958984375-1.641708374023438-1.23486328125-2.546051025390625-2.29736328125-2.546188354492188-.7685546875-.000152587890625-1.33935546875.544845581054688-2.3759765625,1.53424072265625l-.076171875.0726318359375c-1.818359375,1.734939575195312-3.64013671875,3.46649169921875-5.4619140625,5.198074340820312-7.7216796875,7.33984375-15.70703125,14.929580688476562-23.30322265625,22.669952392578125-1.18701171875,1.209808349609375-2.34765625,2.474365234375-3.46923828125,3.697250366210938-1.52734375,1.664581298828125-3.1064453125,3.385818481445312-4.7548828125,4.967132568359375-4.76025390625,4.567245483398438-9.583984375,7.764434814453125-14.74560546875,9.774276733398438-3.337890625,1.299789428710938-6.8193359375,1.433990478515625-10.50537109375,1.5760498046875l-.1845703125.007858276367188-3.3798828125-.000015258789062-3.42138671875.001022338867188c-.44091796875.019821166992188-.87890625.02960205078125-1.3125.02960205078125-7.57568359375,0-14.701171875-3.022079467773438-21.7841796875-9.238922119140625-4.3935546875-3.85601806640625-7.83740234375-7.76312255859375-10.529296875-11.944686889648438-3.43212890625-5.330673217773438-5.025390625-11.151077270507812-4.87060546875-17.8170166015625l-.0009765625-6.084564208984375c-.4326171875-8.913017272949219,2.93505859375-17.052467346191406,10.0107421875-24.192230224609375,4.93408203125-4.979469299316406,10.11572265625-9.889205932617188,15.126953125-14.637313842773438,4.5087890625-4.272209167480469,9.1708984375-8.689842224121094,13.650390625-13.155136108398438,2.37255859375-2.365310668945312,4.8330078125-4.741127014160156,7.21240234375-7.038703918457031,1.083984375-1.046821594238281,2.16796875-2.093582153320312,3.248046875-3.142951965332031.90234375-.876686096191406,1.6962890625-1.747207641601562,1.49853515625-2.756843566894531-.1982421875-1.013916015625-1.23583984375-1.509445190429688-2.46923828125-2.008415222167969-8.08251953125-3.269054412841797-14.29443359375-8.671344757080078-18.46337890625-16.056713104248047-2.380859375-4.217079162597656-3.8046875-9.002105712890625-4.353515625-14.628501892089844-.82373046875-8.453657150268555.548828125-16.679393768310547,4.07958984375-24.44865608215332,4.828125-10.621474027633667,12.8935546875-18.154000282287598,23.97216796875-22.38834285736084,4.60791015625-1.761104583740234,9.3359375-2.116841316223145,13.7587890625-2.238920211791992,2.46533203125-.068078994750977,4.86865234375-.102605819702148,7.142578125-.102605819702148M216.238966921542669,176.011126518249512c-2.38916015625,0-4.77978515625.036967277526855-7.17041015625.102970123291016-4.748046875.131078720092773-9.4990234375.550658226013184-14.087890625,2.304447174072266-11.32763671875,4.329500198364258-19.53076171875,11.92063170671463-24.525390625,22.908631324768066-3.59814453125,7.916763305664062-5.01611328125,16.224105834960938-4.16455078125,24.959499359130859.521484375,5.346397399902344,1.8505859375,10.369159698486328,4.4775390625,15.023025512695312,4.36181640625,7.726818084716797,10.7412109375,13.168212890625,18.95947265625,16.492210388183594,2.3193359375.9381103515625,2.42724609375,1.393447875976562.64892578125,3.120925903320312-3.49267578125,3.39410400390625-7.02783203125,6.759605407714844-10.4697265625,10.19073486328125-9.45068359375,9.420707702636719-19.39697265625,18.32623291015625-28.78173828125,27.796760559082031-6.7236328125,6.784896850585938-10.78125,15.015396118164062-10.29931640625,24.944602966308594v6.036087036132812c-.15380859375,6.62188720703125,1.3974609375,12.71630859375,5.02978515625,18.35833740234375,2.97412109375,4.620086669921875,6.646484375,8.587997436523438,10.71044921875,12.154953002929688,6.43505859375,5.648422241210938,13.70263671875,9.487335205078125,22.44384765625,9.487335205078125.4482421875,0,.9013671875-.0101318359375,1.357421875-.030609130859375,1.12548828125,0,2.2509765625-.000015258789062,3.37646484375-.000015258789062,1.1259765625,0,2.25244140625.000015258789062,3.3798828125.000015258789062,3.74609375-.144882202148438,7.48779296875-.263778686523438,11.052734375-1.652069091796875,5.75146484375-2.239425659179688,10.6533203125-5.742156982421875,15.0751953125-9.9844970703125,2.884765625-2.767791748046875,5.451171875-5.83831787109375,8.24560546875-8.685562133789062,9.34521484375-9.522491455078125,19.08984375-18.63629150390625,28.74169921875-27.844940185546875.9033203125-.861831665039062,1.38330078125-1.330474853515625,1.76171875-1.330413818359375.43701171875.000076293945312.73876953125.624114990234375,1.400390625,1.988113403320312,3.4052734375,7.022003173828125,8.453125,12.55035400390625,15.14501953125,16.549880981445312,6.38916015625,3.819015502929688,13.333984375,5.419662475585938,20.67529296875,5.419662475585938.44580078125,0,.8935546875-.005905151367188,1.341796875-.017562866210938,14.0595703125-.365524291992188,26.05859375-5.1884765625,34.95556640625-16.4267578125,4.466796875-5.642501831054688,7.72314453125-11.875823974609375,8.27783203125-19.286506652832031.15234375-2.038337707519531.1123046875-4.117996215820312.59228515625-6.133079528808594v-13.432785034179688c-.5361328125-2.980873107910156-.32568359375-6.014579772949219-.6435546875-9.012214660644531-1.0830078125-10.215629577636719-2.70458984375-20.402946472167969-1.6396484375-30.735366821289062.08984375-.870712280273438.01611328125-1.757053375244141.08935546875-2.634788513183594.9619140625-11.540843963623047.5859375-23.032291412353516-2.64990234375-34.19105339050293-4.0556640625-13.986869812011719-12.74658203125-24.145369291305542-26.35595703125-29.78134298324585-7.546875-3.125341892242432-15.48046875-4.462157726287842-23.609375-4.56597375869751-4.07373046875-.052038192749023-8.15234375-.147801399230957-12.22802734375-.147786140441895-3.19970703125.000011444091797-6.39794921875.059065818786621-9.58837890625.244681358337402-2.4599609375.143130302429199-4.908203125.266304016113281-7.349609375.266304016113281-2.64697265625,0-5.2861328125-.144804000854492-7.92333984375-.565962791442871-8.7099609375-1.390912055969238-17.47314453125-1.889890670776367-26.25146484375-1.889890670776367h0Z"/>
  </g>
  <g>
    <path class="cls-3" d="M183.715163210605169,340.3837890625c-2.207763671875,0-4.430419921875-.96875-6.9951171875-3.05078125-.81884765625-.6640625-1.491455078125-1.236328125-2.1119384765625-1.865234375-5.799560546875-5.884765625-5.837646484375-11.07080078125-.1236572265625-16.81640625,1.782470703125-1.7919921875,3.751708984375-3.47314453125,5.65625-5.09814453125,1.92333984375-1.6416015625,3.912109375-3.3388671875,5.72607421875-5.1640625,14.9012451171875-14.99267578125,29.8719482421875-29.359375,45.1756591796875-43.9814453125,6.083984375-5.8125,12.1888427734375-11.603515625,18.2938232421875-17.39453125,3.229248046875-3.06298828125,6.45849609375-6.12646484375,9.6846923828125-9.19287109375,1.2255859375-1.16455078125,1.784912109375-1.6962890625,1.634521484375-2.353515625-.1517333984375-.66357421875-.9053955078125-.9052734375-2.556640625-1.4345703125-9.267822265625-2.970703125-18.73876953125-3.3515625-25.954345703125-3.3515625-1.435302734375,0-2.8704833984375.01708984375-4.3084716796875.04443359375-1.6798095703125.0322265625-3.35986328125.0869140625-5.0400390625.1416015625-2.5740966796875.08349609375-5.2357177734375.169921875-7.8480224609375.169921875-3.76806640625,0-6.8743896484375-.17919921875-9.775634765625-.56396484375-1.8575439453125-.24658203125-3.4365234375-.7392578125-4.8270263671875-1.50537109375-2.334228515625-1.2861328125-3.5281982421875-3.16357421875-3.6500244140625-5.73828125-.2552490234375-5.3994140625,1.0225830078125-9.64404296875,3.7982177734375-12.61572265625,2.9527587890625-3.1611328125,7.5391845703125-4.82861328125,13.6317138671875-4.95556640625.430419921875-.00927734375.861328125-.013671875,1.2911376953125-.013671875,6.615966796875,0,13.322021484375,1.06298828125,19.08837890625,2.0595703125,5.0849609375.87890625,10.4337158203125,1.2880859375,16.8328857421875,1.2880859375,4.0245361328125,0,7.9844970703125-.16748046875,10.9847412109375-.3134765625,3.2392578125-.15771484375,6.693359375-.31201171875,10.1778564453125-.31201171875,4.9434814453125,0,9.04345703125.310546875,12.9031982421875.97705078125,10.4932861328125,1.81298828125,14.9522705078125,6.677734375,15.903564453125,17.35205078125.7503662109375,8.41796875.7730712890625,17.33154296875.0672607421875,26.49267578125-.7327880859375,9.51220703125.6776123046875,18.951171875,2.04150390625,28.07861328125.1612548828125,1.0791015625.322509765625,2.15869140625.48046875,3.23828125.876220703125,5.98974609375,1.5126953125,12.3955078125.247802734375,18.66015625-1.234375,6.11328125-7.36279296875,10.90185546875-13.9521484375,10.90185546875-1.8502197265625,0-3.6134033203125-.37548828125-5.2406005859375-1.1162109375-3.67626953125-1.673828125-4.753173828125-4.921875-5.2392578125-9.28369140625-.6044921875-5.42333984375-.297119140625-10.94580078125.0001220703125-16.2861328125.1689453125-3.03564453125.3436279296875-6.173828125.3504638671875-9.26953125.0159912109375-7.2138671875-.3226318359375-15.6142578125-4.5697021484375-24.02587890625l-.3271484375-.6474609375-.48876953125.5361328125c-.676513671875.74267578125-1.34375,1.4951171875-2.0108642578125,2.2470703125-1.4207763671875,1.60205078125-2.8900146484375,3.2587890625-4.426513671875,4.7841796875-9.1143798828125,9.05078125-17.388671875,17.18896484375-25.29541015625,24.880859375-8.3377685546875,8.11083984375-16.6954345703125,16.201171875-25.0531005859375,24.29150390625-5.7098388671875,5.52734375-11.4197998046875,11.0546875-17.123291015625,16.58837890625-1.454345703125,1.4111328125-2.794921875,2.9609375-4.0914306640625,4.45947265625-1.779052734375,2.056640625-3.61865234375,4.18359375-5.753173828125,5.9443359375-2.6566162109375,2.1923828125-4.9468994140625,3.2138671875-7.2080078125,3.2138671875Z"/>
    <path class="cls-4" d="M215.419142702792669,206.144403457641602c6.5751953125,0,13.25537109375,1.059221267700195,19,2.052061080932617,5.1142578125.883779525756836,10.490234375,1.295400619506836,16.91796875,1.295400619506836,4.0361328125,0,8.00390625-.168001174926758,11.009765625-.314361572265625,3.2333984375-.157459259033203,6.68115234375-.311180114746094,10.1533203125-.311180114746094,4.91455078125,0,8.9873046875.308181762695312,12.81787109375.969860076904297,10.220703125,1.765460968017578,14.56396484375,6.504701614379883,15.49072265625,16.903322219848633.748046875,8.391899108886719.7705078125,17.277519226074219.06689453125,26.410079956054688-.7373046875,9.568378448486328.67724609375,19.035076141357422,2.04541015625,28.190120697021484.1611328125,1.078834533691406.322265625,2.157859802246094.48046875,3.237396240234375.86962890625,5.945281982421875,1.501953125,12.300003051757812.25244140625,18.488998413085938-1.18896484375,5.8883056640625-7.10205078125,10.500785827636719-13.4619140625,10.500785827636719-1.77880859375,0-3.47216796875-.360481262207031-5.03369140625-1.071441650390625-3.46142578125-1.57574462890625-4.48193359375-4.6910400390625-4.94970703125-8.883804321289062-.599609375-5.382057189941406-.29345703125-10.883453369140625.0029296875-16.203720092773438.1689453125-3.041656494140625.34423828125-6.186874389648438.35107421875-9.295578002929688.01611328125-7.271339416503906-.32666015625-15.741661071777344-4.62353515625-24.251857757568359l-.654296875-1.295780181884766-.9775390625,1.073020935058594c-.6787109375.744979858398438-1.34814453125,1.499519348144531-2.01708984375,2.254058837890625-1.4150390625,1.5953369140625-2.8779296875,3.245002746582031-4.40283203125,4.758918762207031-9.12109375,9.056983947753906-17.39404296875,17.194297790527344-25.2919921875,24.876983642578125-8.34912109375,8.121856689453125-16.8583984375,16.35931396484375-25.087890625,24.325553894042969-5.6982421875,5.515861511230469-11.39599609375,11.03173828125-17.087890625,16.554122924804688-1.4697265625,1.426177978515625-2.81787109375,2.984405517578125-4.12158203125,4.491302490234375-1.765625,2.041015625-3.59130859375,4.151504516601562-5.69287109375,5.885940551757812-2.5625,2.114273071289062-4.751953125,3.0989990234375-6.89013671875,3.0989990234375-2.0869140625,0-4.20947265625-.933685302734375-6.68017578125-2.93841552734375-.69482421875-.563919067382812-1.4267578125-1.17578125-2.0703125-1.828872680664062-5.5595703125-5.640213012695312-5.59814453125-10.609466552734375-.12548828125-16.112472534179688,1.76806640625-1.777824401855469,3.7294921875-3.451858520507812,5.62646484375-5.070762634277344,1.93115234375-1.647895812988281,3.927734375-3.351921081542969,5.75634765625-5.191535949707031,14.88623046875-14.978538513183594,29.85888671875-29.346702575683594,45.166015625-43.971961975097656,6.09130859375-5.820098876953125,12.306640625-11.715919494628906,18.31787109375-17.417598724365234,3.220703125-3.055301666259766,6.44189453125-6.110603332519531,9.65966796875-9.169120788574219,1.2841796875-1.22052001953125,1.99169921875-1.892822265625,1.77734375-2.827739715576172-.21533203125-.941082000732422-1.16552734375-1.245761871337891-2.8916015625-1.798862457275391-9.3330078125-2.991600036621094-18.8525390625-3.375297546386719-26.10302734375-3.375339508056641-1.3388671875-.000019073486328-2.75244140625.014579772949219-4.32177734375.044601440429688-1.68505859375.032260894775391-3.39501953125.087760925292969-5.048828125.141441345214844-2.56884765625.083377838134766-5.22509765625.169578552246094-7.828125.169578552246094-3.74658203125,0-6.83251953125-.177879333496094-9.71142578125-.559780120849609-1.79443359375-.238059997558594-3.31591796875-.711559295654297-4.6513671875-1.447479248046875-2.19970703125-1.21234130859375-3.27734375-2.904022216796875-3.3916015625-5.323879241943359-.2490234375-5.259622573852539.98388671875-9.381320953369141,3.6640625-12.250602722167969,2.85693359375-3.05889892578125,7.32421875-4.67289924621582,13.27685546875-4.797138214111328.427734375-.008941650390625.85595703125-.013261795043945,1.283203125-.013261795043945M215.419142702792669,205.144396781921387c-.43408203125,0-.86962890625.004416465759277-1.30419921875.013487815856934-12.20166015625.254659652709961-18.4599609375,6.660659790039062-17.9189453125,18.094778060913086.1337890625,2.832603454589844,1.48828125,4.818881988525391,3.90771484375,6.152400970458984,1.55810546875.858562469482422,3.2529296875,1.330860137939453,5.0029296875,1.563022613525391,3.2783203125.434852600097656,6.55908203125.568458557128906,9.8427734375.568458557128906,4.296875,0,8.59765625-.228931427001953,12.89599609375-.311199188232422,1.43603515625-.027492523193359,2.86962890625-.044437408447266,4.302734375-.044425964355469,8.71923828125.000076293945312,17.375.627769470214844,25.7978515625,3.327625274658203,2.84033203125.910301208496094,2.8388671875.945560455322266.73046875,2.949478149414062-9.32568359375,8.863822937011719-18.67724609375,17.700538635253906-27.9794921875,26.588539123535156-15.19873046875,14.521804809570312-30.36376953125,29.077743530273438-45.1845703125,43.990058898925781-3.595703125,3.617866516113281-7.78564453125,6.645301818847656-11.38232421875,10.2620849609375-5.92822265625,5.961074829101562-5.77490234375,11.5367431640625.1220703125,17.51959228515625.6708984375.680801391601562,1.4091796875,1.3001708984375,2.15283203125,1.903472900390625,2.6015625,2.111068725585938,4.95654296875,3.161834716796875,7.31005859375,3.161834716796875,2.421875,0,4.841796875-1.1126708984375,7.5263671875-3.327667236328125,3.72607421875-3.074600219726562,6.43701171875-7.09552001953125,9.87451171875-10.430892944335938,14.05224609375-13.633903503417969,28.142578125-27.228340148925781,42.1767578125-40.880561828613281,8.47900390625-8.247917175292969,16.90576171875-16.549537658691406,25.29931640625-24.884178161621094,2.25830078125-2.242340087890625,4.30859375-4.693702697753906,6.45458984375-7.049102783203125,4.03955078125,8.000442504882812,4.53369140625,15.878280639648438,4.51611328125,23.798919677734375-.01904296875,8.537445068359375-1.30078125,17.059822082519531-.34765625,25.612281799316406.4482421875,4.02020263671875,1.43212890625,7.818138122558594,5.52880859375,9.683158874511719,1.74365234375.793678283691406,3.59765625,1.161331176757812,5.4482421875,1.161331176757812,6.5712890625,0,13.09619140625-4.637466430664062,14.44189453125-11.302886962890625,1.26708984375-6.275123596191406.6728515625-12.569206237792969-.2431640625-18.831642150878906-1.513671875-10.347763061523438-3.33154296875-20.647819519042969-2.51806640625-31.205959320068359.681640625-8.846462249755859.72216796875-17.712760925292969-.06787109375-26.57568359375-.9658203125-10.836057662963867-5.55615234375-15.941278457641602-16.31640625-17.799938201904297-4.314453125-.745246887207031-8.64794921875-.984455108642578-12.98828125-.984455108642578-3.3994140625,0-6.80322265625.146862030029297-10.2021484375.312355041503906-3.66064453125.178256988525391-7.3125.313180923461914-10.9609375.313180923461914-5.59033203125,0-11.17041015625-.31702995300293-16.74755859375-1.280799865722656-6.3330078125-1.094490051269531-12.7197265625-2.066668510437012-19.17041015625-2.066668510437012h0Z"/>
  </g>
  <rect class="cls-1" x=".000000000000455" width="279.731007257750207" height="279.731007295418749"/>
</svg>