<?xml version="1.0" encoding="UTF-8"?>
<svg id="Content" xmlns="http://www.w3.org/2000/svg" viewBox="0 0 280 280">
  <defs>
    <style>
      .cls-1 {
        opacity: .05;
      }

      .cls-2 {
        fill: none;
      }

      .cls-3 {
        fill: #3f3d39;
      }

      .cls-4 {
        fill: #f7f7f7;
      }
    </style>
  </defs>
  <rect class="cls-1" y=".00006038536776" width="280" height="280.000000000001819" rx="5.340425531914627" ry="5.340425531914627"/>
  <path class="cls-4" d="M171.829139422089611,183.85107421875c0,19.88232421875,16.11767578125,36,36,36h.1318359375l-49.56591796875,49.56591796875c-3.1533203125,3.1533203125-5.59326171875,6.748046875-7.33203125,10.5830078125h98.572265625l9.2373046875-9.2373046875v1.51416015625c0,2.652099609375.29541015625,5.2342529296875.83935546875,7.72314453125h14.94775390625c2.94921875,0,5.34033203125-2.390869140625,5.34033203125-5.34033203125v-126.80859375h-72.1708984375c-19.88232421875,0-36,16.11767578125-36,36Z"/>
  <g>
    <path class="cls-2" d="M207.829139422089611,196.85107421875c-7.1796875,0-13-5.8203125-13-13s5.8203125-13,13-13h72.1708984375V5.340576171875c0-2.949462890625-2.39111328125-5.340576171875-5.34033203125-5.340576171875H5.340369890839611C2.391151140839611,0,.000037859589611,2.39111328125.000037859589611,5.340576171875v269.319091796875c0,2.949462890625,2.39111328125,5.34033203125,5.34033203125,5.34033203125h174.99853515625l83.14892578125-83.14892578125h-55.65869140625Z"/>
    <path class="cls-2" d="M217.108436297089611,280h57.55126953125c2.94921875,0,5.34033203125-2.390869140625,5.34033203125-5.34033203125v-57.55126953125l-62.8916015625,62.8916015625Z"/>
    <path class="cls-3" d="M280.000037859589611,170.85107421875h-72.1708984375c-7.1796875,0-13,5.8203125-13,13s5.8203125,13,13,13h55.65869140625l-83.14892578125,83.14892578125h36.76953125l62.8916015625-62.8916015625v-46.25732421875Z"/>
  </g>
  <path class="cls-2" d="M158.395057390839611,269.4169921875l49.56591796875-49.56591796875h-.1318359375c-19.88232421875,0-36-16.11767578125-36-36s16.11767578125-36,36-36h72.1708984375V5.340576171875c0-2.949462890625-2.39111328125-5.340576171875-5.34033203125-5.340576171875H5.340369890839611C2.391151140839611,0,.000037859589611,2.39111328125.000037859589611,5.340576171875v269.319091796875c0,2.949462890625,2.39111328125,5.34033203125,5.34033203125,5.34033203125h145.72265625c1.73876953125-3.8349609375,4.1787109375-7.4296875,7.33203125-10.5830078125Z"/>
  <path d="M274.65966796875,1.00006103515625c2.393310546870453,0,4.34033203125,1.947113037109375,4.34033203125,4.340423583984375v269.31915283203125c0,2.393310546875-1.947021484379547,4.340423583984375-4.34033203125,4.340423583984375H5.34033203125c-2.393310546879547,0-4.34033203125-1.947113037109375-4.34033203125-4.340423583984375V5.340484619140625C1,2.947174072265625,2.947021484370453,1.00006103515625,5.34033203125,1.00006103515625h269.3193359375M274.65966796875.00006103515625H5.34033203125C2.390869140620453.00006103515625,0,2.391067504882812,0,5.340484619140625v269.31915283203125c0,2.949432373046875,2.390869140620453,5.340423583984375,5.34033203125,5.340423583984375h269.3193359375c2.949462890620453,0,5.34033203125-2.3909912109375,5.34033203125-5.340423583984375V5.340484619140625C280,2.391067504882812,277.609130859370453.00006103515625,274.65966796875.00006103515625h0Z"/>
</svg>