<?xml version="1.0" encoding="UTF-8"?>
<svg id="Content" xmlns="http://www.w3.org/2000/svg" xmlns:xlink="http://www.w3.org/1999/xlink" viewBox="0 0 280 280">
  <defs>
    <style>
      .cls-1, .cls-2, .cls-3, .cls-4, .cls-5, .cls-6, .cls-7, .cls-8 {
        font-family: Hey-Comic, 'Hey Comic';
      }

      .cls-1, .cls-2, .cls-6, .cls-7 {
        font-size: 53.509037017822266px;
      }

      .cls-1, .cls-3, .cls-9 {
        fill: #fff;
      }

      .cls-2, .cls-10, .cls-11, .cls-5, .cls-6, .cls-8 {
        fill: none;
        stroke-linecap: round;
        stroke-linejoin: round;
      }

      .cls-2, .cls-11, .cls-8 {
        stroke: #998675;
        stroke-width: 2px;
      }

      .cls-10, .cls-5, .cls-6 {
        stroke: #665451;
        stroke-width: 50px;
      }

      .cls-3, .cls-4, .cls-5, .cls-8 {
        font-size: 126.401008605957031px;
      }
    </style>
  </defs>
  <a xlink:href="https://www.notion.so/congruence/Q-Third-quartile-1061779802c849c8a7dce422d47b0e0a?pvs=4">
    <g>
      <g>
        <path d="M73.988545352589426,120.989910563648664c-13.313664761699329.910350147167264-26.673913057320533.981160785915563-39.996463644079995.212179695734449-3.379787121310073-.195115640319273-6.523813119518309,3.3254777528673-6.29723474354978,6.609462562249973.257518576439907,3.728845232843014,2.989089074100775,6.088233581162058,6.609462562249973,6.29723474354978,13.322550586759462.768981090177476,26.682798882380666.698170451429178,39.996463644079995-.212179695738087,3.36403840236926-.229986314401685,6.544821078150562-3.021836864305442,6.29723474354978-6.609462562248154-.232540185639664-3.365342875000351-3.00116446048014-6.543954913617199-6.609462562249973-6.297234743547961Z"/>
        <path d="M135.85952954035929,120.228592790750554c-13.105285445988557-1.606180396356649-26.321255229699091-.593412452883058-39.467838047159603-.08363307496802-3.372534137719413.130770604455392-6.539947287630639,3.092974347529889-6.29723474354978,6.609462562248154.238174598860496,3.450544880750385,2.994172690971027,6.437398618485531,6.609462562249973,6.297234743546142,11.923147284589504-.462316673765599,24.029736553269686-1.500427811615737,35.937291908319821-.30473371064727.029513969620893.003594977213652.059017775571192.006769814544896.088321675240877.010369873592936,1.792373299998872.219644272288861,3.357220642779794.218047090891559,4.957037256968761-.770883764327664,1.319615522401364-.815732257713535,2.55908015408022-2.381490596239018,2.872258744881037-3.928466839646717.336481803478819-1.661096677473324.210117325768806-3.513412314267043-.770671153470175-4.956937303833911-.877906671130404-1.291784793966144-2.304486563010869-2.67334361178473-3.928628203480912-2.87241248596365Z"/>
        <path d="M188.715660571069748,120.271162212950003c-12.309109694500876-.069698211205832-24.618218118550431-.139343904927955-36.927537883000696-.209037034303037-3.379733755498819-.01913294377664-6.532730202668972,3.200155770657148-6.297234743538866,6.609462562246335.247162827668944,3.578807842164679,2.988394459249321,6.27674084849059,6.609462562239059,6.29723474354978,12.309319764450265.069693129375082,24.61842818849982.139338823097205,36.927537883000696.209037034303037,3.379733755509733.01913294377664,6.532730202679886-3.200155770657148,6.29723474354978-6.609462562246335-.247162827679858-3.578807842164679-2.988184389310845-6.276745930324978-6.609462562249973-6.29723474354978Z"/>
        <path d="M205.588630287749766,94.678461398736545c.368788544419658-6.981205901072826,12.516252181880191-14.10057046476868,12.885037847430794-21.081895372666622.101252748700063-1.916841810547339-12.563073609271669-1.109913316618986-17.554777728149929-.902469984524942-5.239876585830643.217733692163165-18.418575245910688.667449795831999-18.527050384571339,2.721166110564809-.368785665548785,6.981324907897942,13.599648620969674,14.666154442042171,13.230860076550016,21.647360343116816-.101252748709157,1.91684181054552,2.991268617981405,4.125098490405435,4.366782409930238,3.886987694806521,4.664007447940094-.807371420480195,5.490675519029537-4.217313469738656,5.59914777881022-6.271148791296582Z"/>
        <path d="M246.288373536730433,119.456179894452362c-13.183146309720541.110509198306318-26.366082549500788.221013314778247-39.549017518831533.331569948739343-3.37837519129971.028337781535811-6.535231478248534,3.166270129506302-6.297234743538866,6.609462562246335.244290133960021,3.538257562151557,2.989414192888944,6.327582856560184,6.609462562239059,6.297234743547961,13.182934969330745-.110556633959277,26.365871209110992-.221060750431207,39.549017518831533-.331569948737524,3.378165121368511-.028332699705061,6.535021408308239-3.166265047671914,6.29723474354978-6.609462562246335-.244291404420437-3.538310079637085-2.989625533289654-6.327630292213144-6.609462562249973-6.29723474354978Z"/>
        <g>
          <text class="cls-4" transform="translate(30.365655960631557 247.822835039696656) rotate(-4.631696847107841)"><tspan x="0" y="0">Q</tspan></text>
          <text class="cls-5" transform="translate(30.365655960631557 247.822835039696656) rotate(-4.631696847107841)"><tspan x="0" y="0">Q</tspan></text>
          <text class="cls-8" transform="translate(30.365655960631557 247.822835039696656) rotate(-4.631696847107841)"><tspan x="0" y="0">Q</tspan></text>
          <text class="cls-3" transform="translate(30.365655960631557 247.822835039696656) rotate(-4.631696847107841)"><tspan x="0" y="0">Q</tspan></text>
        </g>
        <g>
          <text class="cls-7" transform="translate(112.961991758420481 223.775164546066662) rotate(8.287803816258268)"><tspan x="0" y="0">3</tspan></text>
          <text class="cls-6" transform="translate(112.961991758420481 223.775164546066662) rotate(8.287803816258268)"><tspan x="0" y="0">3</tspan></text>
          <text class="cls-2" transform="translate(112.961991758420481 223.775164546066662) rotate(8.287803816258268)"><tspan x="0" y="0">3</tspan></text>
          <text class="cls-1" transform="translate(112.961991758420481 223.775164546066662) rotate(8.287803816258268)"><tspan x="0" y="0">3</tspan></text>
        </g>
      </g>
      <g>
        <path class="cls-10" d="M73.988545352589426,120.989910563648664c-13.313664761699329.910350147167264-26.673913057320533.981160785915563-39.996463644079995.212179695734449-3.379787121310073-.195115640319273-6.523813119518309,3.3254777528673-6.29723474354978,6.609462562249973.257518576439907,3.728845232843014,2.989089074100775,6.088233581162058,6.609462562249973,6.29723474354978,13.322550586759462.768981090177476,26.682798882380666.698170451429178,39.996463644079995-.212179695738087,3.36403840236926-.229986314401685,6.544821078150562-3.021836864305442,6.29723474354978-6.609462562248154-.232540185639664-3.365342875000351-3.00116446048014-6.543954913617199-6.609462562249973-6.297234743547961Z"/>
        <path class="cls-10" d="M135.85952954035929,120.228592790750554c-13.105285445988557-1.606180396356649-26.321255229699091-.593412452883058-39.467838047159603-.08363307496802-3.372534137719413.130770604455392-6.539947287630639,3.092974347529889-6.29723474354978,6.609462562248154.238174598860496,3.450544880750385,2.994172690971027,6.437398618485531,6.609462562249973,6.297234743546142,11.923147284589504-.462316673765599,24.029736553269686-1.500427811615737,35.937291908319821-.30473371064727.029513969620893.003594977213652.059017775571192.006769814544896.088321675240877.010369873592936,1.792373299998872.219644272288861,3.357220642779794.218047090891559,4.957037256968761-.770883764327664,1.319615522401364-.815732257713535,2.55908015408022-2.381490596239018,2.872258744881037-3.928466839646717.336481803478819-1.661096677473324.210117325768806-3.513412314267043-.770671153470175-4.956937303833911-.877906671130404-1.291784793966144-2.304486563010869-2.67334361178473-3.928628203480912-2.87241248596365Z"/>
        <path class="cls-10" d="M188.715660571069748,120.271162212950003c-12.309109694500876-.069698211205832-24.618218118550431-.139343904927955-36.927537883000696-.209037034303037-3.379733755498819-.01913294377664-6.532730202668972,3.200155770657148-6.297234743538866,6.609462562246335.247162827668944,3.578807842164679,2.988394459249321,6.27674084849059,6.609462562239059,6.29723474354978,12.309319764450265.069693129375082,24.61842818849982.139338823097205,36.927537883000696.209037034303037,3.379733755509733.01913294377664,6.532730202679886-3.200155770657148,6.29723474354978-6.609462562246335-.247162827679858-3.578807842164679-2.988184389310845-6.276745930324978-6.609462562249973-6.29723474354978Z"/>
        <path class="cls-10" d="M205.588630287749766,94.678461398736545c.368788544419658-6.981205901072826,12.516252181880191-14.10057046476868,12.885037847430794-21.081895372666622.101252748700063-1.916841810547339-12.563073609271669-1.109913316618986-17.554777728149929-.902469984524942-5.239876585830643.217733692163165-18.418575245910688.667449795831999-18.527050384571339,2.721166110564809-.368785665548785,6.981324907897942,13.599648620969674,14.666154442042171,13.230860076550016,21.647360343116816-.101252748709157,1.91684181054552,2.991268617981405,4.125098490405435,4.366782409930238,3.886987694806521,4.664007447940094-.807371420480195,5.490675519029537-4.217313469738656,5.59914777881022-6.271148791296582Z"/>
        <path class="cls-10" d="M246.288373536730433,119.456179894452362c-13.183146309720541.110509198306318-26.366082549500788.221013314778247-39.549017518831533.331569948739343-3.37837519129971.028337781535811-6.535231478248534,3.166270129506302-6.297234743538866,6.609462562246335.244290133960021,3.538257562151557,2.989414192888944,6.327582856560184,6.609462562239059,6.297234743547961,13.182934969330745-.110556633959277,26.365871209110992-.221060750431207,39.549017518831533-.331569948737524,3.378165121368511-.028332699705061,6.535021408308239-3.166265047671914,6.29723474354978-6.609462562246335-.244291404420437-3.538310079637085-2.989625533289654-6.327630292213144-6.609462562249973-6.29723474354978Z"/>
        <g>
          <text class="cls-5" transform="translate(30.365655960631557 247.822835039696656) rotate(-4.631696847107841)"><tspan x="0" y="0">Q</tspan></text>
          <text class="cls-5" transform="translate(30.365655960631557 247.822835039696656) rotate(-4.631696847107841)"><tspan x="0" y="0">Q</tspan></text>
          <text class="cls-5" transform="translate(30.365655960631557 247.822835039696656) rotate(-4.631696847107841)"><tspan x="0" y="0">Q</tspan></text>
          <text class="cls-5" transform="translate(30.365655960631557 247.822835039696656) rotate(-4.631696847107841)"><tspan x="0" y="0">Q</tspan></text>
          <text class="cls-5" transform="translate(30.365655960631557 247.822835039696656) rotate(-4.631696847107841)"><tspan x="0" y="0">Q</tspan></text>
        </g>
        <g>
          <text class="cls-6" transform="translate(112.961991758420481 223.775164546066662) rotate(8.287803816258268)"><tspan x="0" y="0">3</tspan></text>
          <text class="cls-6" transform="translate(112.961991758420481 223.775164546066662) rotate(8.287803816258268)"><tspan x="0" y="0">3</tspan></text>
          <text class="cls-6" transform="translate(112.961991758420481 223.775164546066662) rotate(8.287803816258268)"><tspan x="0" y="0">3</tspan></text>
          <text class="cls-6" transform="translate(112.961991758420481 223.775164546066662) rotate(8.287803816258268)"><tspan x="0" y="0">3</tspan></text>
          <text class="cls-6" transform="translate(112.961991758420481 223.775164546066662) rotate(8.287803816258268)"><tspan x="0" y="0">3</tspan></text>
        </g>
      </g>
      <g>
        <path class="cls-11" d="M73.988545352589426,120.989910563648664c-13.313664761699329.910350147167264-26.673913057320533.981160785915563-39.996463644079995.212179695734449-3.379787121310073-.195115640319273-6.523813119518309,3.3254777528673-6.29723474354978,6.609462562249973.257518576439907,3.728845232843014,2.989089074100775,6.088233581162058,6.609462562249973,6.29723474354978,13.322550586759462.768981090177476,26.682798882380666.698170451429178,39.996463644079995-.212179695738087,3.36403840236926-.229986314401685,6.544821078150562-3.021836864305442,6.29723474354978-6.609462562248154-.232540185639664-3.365342875000351-3.00116446048014-6.543954913617199-6.609462562249973-6.297234743547961Z"/>
        <path class="cls-11" d="M135.85952954035929,120.228592790750554c-13.105285445988557-1.606180396356649-26.321255229699091-.593412452883058-39.467838047159603-.08363307496802-3.372534137719413.130770604455392-6.539947287630639,3.092974347529889-6.29723474354978,6.609462562248154.238174598860496,3.450544880750385,2.994172690971027,6.437398618485531,6.609462562249973,6.297234743546142,11.923147284589504-.462316673765599,24.029736553269686-1.500427811615737,35.937291908319821-.30473371064727.029513969620893.003594977213652.059017775571192.006769814544896.088321675240877.010369873592936,1.792373299998872.219644272288861,3.357220642779794.218047090891559,4.957037256968761-.770883764327664,1.319615522401364-.815732257713535,2.55908015408022-2.381490596239018,2.872258744881037-3.928466839646717.336481803478819-1.661096677473324.210117325768806-3.513412314267043-.770671153470175-4.956937303833911-.877906671130404-1.291784793966144-2.304486563010869-2.67334361178473-3.928628203480912-2.87241248596365Z"/>
        <path class="cls-11" d="M188.715660571069748,120.271162212950003c-12.309109694500876-.069698211205832-24.618218118550431-.139343904927955-36.927537883000696-.209037034303037-3.379733755498819-.01913294377664-6.532730202668972,3.200155770657148-6.297234743538866,6.609462562246335.247162827668944,3.578807842164679,2.988394459249321,6.27674084849059,6.609462562239059,6.29723474354978,12.309319764450265.069693129375082,24.61842818849982.139338823097205,36.927537883000696.209037034303037,3.379733755509733.01913294377664,6.532730202679886-3.200155770657148,6.29723474354978-6.609462562246335-.247162827679858-3.578807842164679-2.988184389310845-6.276745930324978-6.609462562249973-6.29723474354978Z"/>
        <path class="cls-11" d="M205.588630287749766,94.678461398736545c.368788544419658-6.981205901072826,12.516252181880191-14.10057046476868,12.885037847430794-21.081895372666622.101252748700063-1.916841810547339-12.563073609271669-1.109913316618986-17.554777728149929-.902469984524942-5.239876585830643.217733692163165-18.418575245910688.667449795831999-18.527050384571339,2.721166110564809-.368785665548785,6.981324907897942,13.599648620969674,14.666154442042171,13.230860076550016,21.647360343116816-.101252748709157,1.91684181054552,2.991268617981405,4.125098490405435,4.366782409930238,3.886987694806521,4.664007447940094-.807371420480195,5.490675519029537-4.217313469738656,5.59914777881022-6.271148791296582Z"/>
        <path class="cls-11" d="M246.288373536730433,119.456179894452362c-13.183146309720541.110509198306318-26.366082549500788.221013314778247-39.549017518831533.331569948739343-3.37837519129971.028337781535811-6.535231478248534,3.166270129506302-6.297234743538866,6.609462562246335.244290133960021,3.538257562151557,2.989414192888944,6.327582856560184,6.609462562239059,6.297234743547961,13.182934969330745-.110556633959277,26.365871209110992-.221060750431207,39.549017518831533-.331569948737524,3.378165121368511-.028332699705061,6.535021408308239-3.166265047671914,6.29723474354978-6.609462562246335-.244291404420437-3.538310079637085-2.989625533289654-6.327630292213144-6.609462562249973-6.29723474354978Z"/>
        <g>
          <text class="cls-8" transform="translate(30.365655960631557 247.822835039696656) rotate(-4.631696847107841)"><tspan x="0" y="0">Q</tspan></text>
          <text class="cls-8" transform="translate(30.365655960631557 247.822835039696656) rotate(-4.631696847107841)"><tspan x="0" y="0">Q</tspan></text>
          <text class="cls-8" transform="translate(30.365655960631557 247.822835039696656) rotate(-4.631696847107841)"><tspan x="0" y="0">Q</tspan></text>
          <text class="cls-8" transform="translate(30.365655960631557 247.822835039696656) rotate(-4.631696847107841)"><tspan x="0" y="0">Q</tspan></text>
          <text class="cls-8" transform="translate(30.365655960631557 247.822835039696656) rotate(-4.631696847107841)"><tspan x="0" y="0">Q</tspan></text>
        </g>
        <g>
          <text class="cls-2" transform="translate(112.961991758420481 223.775164546066662) rotate(8.287803816258268)"><tspan x="0" y="0">3</tspan></text>
          <text class="cls-2" transform="translate(112.961991758420481 223.775164546066662) rotate(8.287803816258268)"><tspan x="0" y="0">3</tspan></text>
          <text class="cls-2" transform="translate(112.961991758420481 223.775164546066662) rotate(8.287803816258268)"><tspan x="0" y="0">3</tspan></text>
          <text class="cls-2" transform="translate(112.961991758420481 223.775164546066662) rotate(8.287803816258268)"><tspan x="0" y="0">3</tspan></text>
          <text class="cls-2" transform="translate(112.961991758420481 223.775164546066662) rotate(8.287803816258268)"><tspan x="0" y="0">3</tspan></text>
        </g>
      </g>
      <g>
        <path class="cls-9" d="M73.988545352589426,120.989910563648664c-13.313664761699329.910350147167264-26.673913057320533.981160785915563-39.996463644079995.212179695734449-3.379787121310073-.195115640319273-6.523813119518309,3.3254777528673-6.29723474354978,6.609462562249973.257518576439907,3.728845232843014,2.989089074100775,6.088233581162058,6.609462562249973,6.29723474354978,13.322550586759462.768981090177476,26.682798882380666.698170451429178,39.996463644079995-.212179695738087,3.36403840236926-.229986314401685,6.544821078150562-3.021836864305442,6.29723474354978-6.609462562248154-.232540185639664-3.365342875000351-3.00116446048014-6.543954913617199-6.609462562249973-6.297234743547961Z"/>
        <path class="cls-9" d="M135.85952954035929,120.228592790750554c-13.105285445988557-1.606180396356649-26.321255229699091-.593412452883058-39.467838047159603-.08363307496802-3.372534137719413.130770604455392-6.539947287630639,3.092974347529889-6.29723474354978,6.609462562248154.238174598860496,3.450544880750385,2.994172690971027,6.437398618485531,6.609462562249973,6.297234743546142,11.923147284589504-.462316673765599,24.029736553269686-1.500427811615737,35.937291908319821-.30473371064727.029513969620893.003594977213652.059017775571192.006769814544896.088321675240877.010369873592936,1.792373299998872.219644272288861,3.357220642779794.218047090891559,4.957037256968761-.770883764327664,1.319615522401364-.815732257713535,2.55908015408022-2.381490596239018,2.872258744881037-3.928466839646717.336481803478819-1.661096677473324.210117325768806-3.513412314267043-.770671153470175-4.956937303833911-.877906671130404-1.291784793966144-2.304486563010869-2.67334361178473-3.928628203480912-2.87241248596365Z"/>
        <path class="cls-9" d="M188.715660571069748,120.271162212950003c-12.309109694500876-.069698211205832-24.618218118550431-.139343904927955-36.927537883000696-.209037034303037-3.379733755498819-.01913294377664-6.532730202668972,3.200155770657148-6.297234743538866,6.609462562246335.247162827668944,3.578807842164679,2.988394459249321,6.27674084849059,6.609462562239059,6.29723474354978,12.309319764450265.069693129375082,24.61842818849982.139338823097205,36.927537883000696.209037034303037,3.379733755509733.01913294377664,6.532730202679886-3.200155770657148,6.29723474354978-6.609462562246335-.247162827679858-3.578807842164679-2.988184389310845-6.276745930324978-6.609462562249973-6.29723474354978Z"/>
        <path class="cls-9" d="M205.588630287749766,94.678461398736545c.368788544419658-6.981205901072826,12.516252181880191-14.10057046476868,12.885037847430794-21.081895372666622.101252748700063-1.916841810547339-12.563073609271669-1.109913316618986-17.554777728149929-.902469984524942-5.239876585830643.217733692163165-18.418575245910688.667449795831999-18.527050384571339,2.721166110564809-.368785665548785,6.981324907897942,13.599648620969674,14.666154442042171,13.230860076550016,21.647360343116816-.101252748709157,1.91684181054552,2.991268617981405,4.125098490405435,4.366782409930238,3.886987694806521,4.664007447940094-.807371420480195,5.490675519029537-4.217313469738656,5.59914777881022-6.271148791296582Z"/>
        <path class="cls-9" d="M246.288373536730433,119.456179894452362c-13.183146309720541.110509198306318-26.366082549500788.221013314778247-39.549017518831533.331569948739343-3.37837519129971.028337781535811-6.535231478248534,3.166270129506302-6.297234743538866,6.609462562246335.244290133960021,3.538257562151557,2.989414192888944,6.327582856560184,6.609462562239059,6.297234743547961,13.182934969330745-.110556633959277,26.365871209110992-.221060750431207,39.549017518831533-.331569948737524,3.378165121368511-.028332699705061,6.535021408308239-3.166265047671914,6.29723474354978-6.609462562246335-.244291404420437-3.538310079637085-2.989625533289654-6.327630292213144-6.609462562249973-6.29723474354978Z"/>
        <g>
          <text class="cls-3" transform="translate(30.365655960631557 247.822835039696656) rotate(-4.631696847107841)"><tspan x="0" y="0">Q</tspan></text>
          <text class="cls-3" transform="translate(30.365655960631557 247.822835039696656) rotate(-4.631696847107841)"><tspan x="0" y="0">Q</tspan></text>
          <text class="cls-3" transform="translate(30.365655960631557 247.822835039696656) rotate(-4.631696847107841)"><tspan x="0" y="0">Q</tspan></text>
          <text class="cls-3" transform="translate(30.365655960631557 247.822835039696656) rotate(-4.631696847107841)"><tspan x="0" y="0">Q</tspan></text>
          <text class="cls-3" transform="translate(30.365655960631557 247.822835039696656) rotate(-4.631696847107841)"><tspan x="0" y="0">Q</tspan></text>
        </g>
        <g>
          <text class="cls-1" transform="translate(112.961991758420481 223.775164546066662) rotate(8.287803816258268)"><tspan x="0" y="0">3</tspan></text>
          <text class="cls-1" transform="translate(112.961991758420481 223.775164546066662) rotate(8.287803816258268)"><tspan x="0" y="0">3</tspan></text>
          <text class="cls-1" transform="translate(112.961991758420481 223.775164546066662) rotate(8.287803816258268)"><tspan x="0" y="0">3</tspan></text>
          <text class="cls-1" transform="translate(112.961991758420481 223.775164546066662) rotate(8.287803816258268)"><tspan x="0" y="0">3</tspan></text>
          <text class="cls-1" transform="translate(112.961991758420481 223.775164546066662) rotate(8.287803816258268)"><tspan x="0" y="0">3</tspan></text>
        </g>
      </g>
    </g>
  </a>
</svg>