<?xml version="1.0" encoding="UTF-8"?>
<svg id="Content" xmlns="http://www.w3.org/2000/svg" xmlns:xlink="http://www.w3.org/1999/xlink" viewBox="0 0 280 280">
  <defs>
    <style>
      .cls-1 {
        stroke: #665451;
        stroke-width: 50px;
      }

      .cls-1, .cls-2 {
        fill: none;
        stroke-linecap: round;
        stroke-linejoin: round;
      }

      .cls-3 {
        fill: #fff;
      }

      .cls-2 {
        stroke: #998675;
        stroke-width: 2px;
      }
    </style>
  </defs>
  <a xlink:href="https://www.notion.so/congruence/Uniform-distribution-c7b664f772f14c6c842c8834c5679763?pvs=4">
    <g>
      <g>
        <path class="cls-1" d="M53.279296874998181,87.90625c.0439453125,2.7626953125.12890625,5.341796875.251953125,7.736328125.1220703125,2.39453125.48046875,4.66796875,1.076171875,6.8203125.6044921875,2.345703125,1.455078125,4.2431640625,2.546875,5.6904296875,1.09375,1.447265625,2.2978515625,2.4892578125,3.6162109375,3.125,1.3173828125.63671875,2.6630859375.8583984375,4.0361328125.666015625,1.373046875-.1904296875,2.6796875-.71875,3.9208984375-1.5830078125,1.240234375-.86328125,2.33203125-2.0478515625,3.2734375-3.5517578125.94140625-1.5029296875,1.6005859375-3.3056640625,1.978515625-5.412109375.3837890625-1.958984375.6083984375-4.21484375.671875-6.7646484375.0625-2.548828125.0283203125-5.130859375-.10546875-7.7421875-.1337890625-2.61328125-.361328125-5.134765625-.6787109375-7.5693359375-.3193359375-2.4326171875-.62109375-4.515625-.90234375-6.248046875-.2099609375-1.2490234375.125-2.28515625,1.0048828125-3.107421875.87890625-.8203125,1.931640625-1.345703125,3.15625-1.580078125,1.2255859375-.2314453125,2.4423828125-.125,3.654296875.3232421875,1.2109375.4462890625,2.0439453125,1.3134765625,2.498046875,2.599609375.791015625,2.19140625,1.4091796875,4.560546875,1.8564453125,7.1083984375.4453125,2.5478515625.7587890625,5.115234375.939453125,7.7001953125.1806640625,2.5859375.23828125,5.1298828125.1728515625,7.630859375-.06640625,2.501953125-.2138671875,4.8251953125-.443359375,6.970703125-.3857421875,2.8837890625-1.0908203125,5.68359375-2.1162109375,8.40234375-1.0244140625,2.7216796875-2.3916015625,5.14453125-4.1015625,7.2685546875s-3.7802734375,3.8564453125-6.208984375,5.1923828125c-2.4306640625,1.3388671875-5.2197265625,2.037109375-8.369140625,2.1015625-1.986328125.0537109375-3.865234375-.1884765625-5.6396484375-.728515625-1.7734375-.5390625-3.42578125-1.2919921875-4.9541015625-2.255859375-1.529296875-.96484375-2.9091796875-2.1181640625-4.142578125-3.462890625-1.232421875-1.3427734375-2.3017578125-2.7919921875-3.205078125-4.3466796875-1.654296875-2.921875-2.8564453125-6.2568359375-3.60546875-10.001953125-.75-3.7451171875-1.2177734375-7.4423828125-1.404296875-11.095703125-.1875-3.65234375-.203125-7.021484375-.0458984375-10.111328125.1572265625-3.0869140625.3369140625-5.4853515625.541015625-7.193359375.0498046875-.9228515625.373046875-1.703125.9716796875-2.3408203125.5966796875-.6376953125,1.3125-1.123046875,2.14453125-1.4580078125.8310546875-.33203125,1.73046875-.5244140625,2.6982421875-.5732421875.9677734375-.0498046875,1.8583984375.0625,2.6728515625.3349609375.814453125.275390625,1.4921875.724609375,2.0341796875,1.3515625.541015625.626953125.810546875,1.4013671875.8095703125,2.3232421875l-.603515625,13.78125Z"/>
        <path class="cls-1" d="M114.157226562498181,74.74609375c-1.9716796875,1.2666015625-3.7470703125,2.837890625-5.32421875,4.7119140625-1.5771484375,1.8759765625-2.8427734375,3.94140625-3.79296875,6.197265625-.9521484375,2.2548828125-1.572265625,4.603515625-1.8583984375,7.04296875-.2880859375,2.4404296875-.103515625,4.85546875.552734375,7.2470703125.65625,2.392578125,1.8271484375,4.6611328125,3.513671875,6.8056640625,1.685546875,2.14453125,3.978515625,4.0400390625,6.8759765625,5.6865234375.2490234375.1328125.486328125.2646484375.7119140625.3994140625.2255859375.1337890625.4619140625.267578125.7119140625.4013671875.3984375.220703125.64453125.51171875.7353515625.87109375.091796875.359375.099609375.7578125.025390625,1.1982421875-.0458984375,1.021484375-.337890625,2.1767578125-.8779296875,3.46484375-.5400390625,1.2890625-1.1259765625,2.41015625-1.7548828125,3.365234375-.541015625.802734375-1.322265625,1.181640625-2.3427734375,1.13671875-1.021484375-.044921875-2.0537109375-.306640625-3.0966796875-.7861328125-2.439453125-1.232421875-4.6875-2.7431640625-6.7431640625-4.529296875-2.056640625-1.7861328125-3.8349609375-3.841796875-5.3369140625-6.1650390625-1.5009765625-2.32421875-2.6640625-4.9072265625-3.4892578125-7.7529296875-.8251953125-2.8427734375-1.2255859375-5.9384765625-1.203125-9.287109375.0390625-3.009765625.4619140625-5.892578125,1.2666015625-8.6494140625.8046875-2.7587890625,1.896484375-5.3369140625,3.27734375-7.7353515625,1.380859375-2.3994140625,3.0126953125-4.62890625,4.896484375-6.689453125,1.8828125-2.060546875,3.923828125-3.8759765625,6.123046875-5.443359375.6083984375-.4189453125,1.2177734375-.6083984375,1.826171875-.5673828125.6083984375.04296875,1.1181640625.2958984375,1.53125.7587890625.462890625.5107421875,1.029296875,1.16015625,1.7001953125,1.9501953125.6708984375.791015625,1.24609375,1.5986328125,1.724609375,2.421875.4794921875.82421875.796875,1.5947265625.9560546875,2.314453125.1572265625.720703125-.044921875,1.265625-.6083984375,1.6318359375Z"/>
        <path class="cls-1" d="M157.130859374998181,81.3486328125c-.1845703125,5.8798828125-.189453125,11.7119140625-.013671875,17.4990234375s.6064453125,11.59765625,1.2939453125,17.4326171875c-.029296875.388671875-.154296875.7841796875-.3759765625,1.1826171875-.2255859375.3515625-.55859375.6962890625-1.001953125,1.0341796875-.4443359375.337890625-1.07421875.5751953125-1.8916015625.71484375-.720703125.1337890625-1.490234375.26953125-2.3076171875.4091796875-.818359375.138671875-1.5908203125.189453125-2.3203125.154296875-.728515625-.033203125-1.390625-.158203125-1.982421875-.37109375-.59375-.2109375-1.048828125-.5751953125-1.3662109375-1.0927734375-1.0517578125.296875-2.10546875.5810546875-3.1572265625.8525390625-1.0537109375.271484375-2.134765625.4853515625-3.2421875.638671875-3.2265625.45703125-6.091796875.1669921875-8.5927734375-.869140625-2.5029296875-1.0361328125-4.58203125-2.5537109375-6.236328125-4.5556640625-1.6552734375-2-2.8662109375-4.33984375-3.6337890625-7.0166015625s-1.0419921875-5.427734375-.822265625-8.2529296875c.21875-2.8232421875.951171875-5.576171875,2.1953125-8.2607421875,1.2451171875-2.6826171875,3.052734375-5.0302734375,5.423828125-7.0439453125,2.5654296875-1.9736328125,5.4462890625-3.26171875,8.6416015625-3.8623046875,3.1943359375-.6005859375,6.4345703125-.5478515625,9.7216796875.1572265625.37109375-.3115234375.994140625-.4638671875,1.8671875-.4599609375.6796875.013671875,1.46875.0224609375,2.3662109375.0244140625.8974609375.0029296875,1.7490234375.0556640625,2.5546875.16015625s1.4814453125.2763671875,2.02734375.5146484375c.5458984375.2392578125.830078125.5751953125.8525390625,1.0107421875ZM146.259765624998181,90.7099609375c-2.220703125-.759765625-4.169921875-.92578125-5.845703125-.5009765625-1.6767578125.42578125-3.06640625,1.2109375-4.171875,2.359375-1.10546875,1.1474609375-1.9326171875,2.525390625-2.48046875,4.12890625-.548828125,1.6044921875-.8310546875,3.1962890625-.8466796875,4.7724609375-.017578125,1.5771484375.2392578125,3.0322265625.7685546875,4.3623046875.529296875,1.33203125,1.3427734375,2.296875,2.4404296875,2.89453125,1.0966796875.5986328125,2.4482421875.7001953125,4.0537109375.302734375,1.603515625-.3974609375,3.498046875-1.5263671875,5.68359375-3.3837890625.0322265625-1.2626953125.041015625-2.5126953125.0263671875-3.748046875-.015625-1.2373046875-.0068359375-2.4853515625.0263671875-3.7490234375.029296875-1.3115234375.0595703125-2.59765625.0927734375-3.8603515625.0322265625-1.2626953125.1162109375-2.4560546875.2529296875-3.578125Z"/>
        <path class="cls-1" d="M165.580078124998181,107.1083984375c.0732421875-.4404296875.22265625-.8359375.4482421875-1.1875.2265625-.3017578125.52734375-.572265625.904296875-.8095703125.375-.2373046875.9013671875-.3740234375,1.5791015625-.4091796875.9208984375.001953125,1.7587890625.01953125,2.513671875.0537109375.7529296875.03515625,1.400390625.1357421875,1.943359375.30078125.833984375.2001953125,1.3125.5400390625,1.4345703125,1.017578125.12109375.4794921875.08203125,1.13671875-.1181640625,1.970703125-.1640625.5908203125-.3701171875,1.28125-.62109375,2.0693359375-.25.7890625-.525390625,1.5908203125-.822265625,2.4072265625-.298828125.814453125-.59765625,1.6064453125-.8974609375,2.3740234375s-.5830078125,1.400390625-.8486328125,1.8974609375c-.2197265625.4482421875-.462890625.8974609375-.73046875,1.34765625-.2685546875.451171875-.587890625.853515625-.95703125,1.2138671875-.3701171875.357421875-.79296875.6337890625-1.2666015625.828125-.4755859375.1943359375-1.0556640625.2353515625-1.740234375.126953125-1.0302734375-.2392578125-1.7314453125-.4345703125-2.103515625-.583984375-.37109375-.15234375-.5419921875-.3984375-.5107421875-.73828125l1.79296875-11.87890625Z"/>
        <path class="cls-1" d="M189.705078124998181,80.990234375c1.88671875-.0966796875,3.859375.0556640625,5.91796875.458984375,2.0576171875.4033203125,4.0302734375,1.0517578125,5.919921875,1.9482421875,1.888671875.89453125,3.607421875,2.029296875,5.158203125,3.40234375,1.548828125,1.373046875,2.8095703125,3.0029296875,3.779296875,4.8876953125,1.25,2.6474609375,1.669921875,5.3974609375,1.2587890625,8.25-.4111328125,2.85546875-1.4775390625,5.486328125-3.1962890625,7.896484375-1.2705078125,1.7119140625-2.796875,3.1826171875-4.576171875,4.4111328125-1.78125,1.228515625-3.7041015625,2.259765625-5.771484375,3.08984375-2.0673828125.8330078125-4.2421875,1.46484375-6.5234375,1.8974609375-2.2822265625.4306640625-4.5869140625.6572265625-6.9140625.6796875-1.1181640625-.0400390625-2.1015625-.3046875-2.9501953125-.7919921875-.8505859375-.48828125-1.408203125-1.427734375-1.6728515625-2.818359375-.1123046875-.2861328125-.2412109375-1.1630859375-.388671875-2.6318359375-.1484375-1.4677734375-.2919921875-3.3125-.4296875-5.5322265625-.138671875-2.21875-.27734375-4.7041015625-.41796875-7.45703125-.1416015625-2.7529296875-.2744140625-5.5654296875-.396484375-8.439453125-.123046875-2.875-.2314453125-5.701171875-.3251953125-8.484375-.0947265625-2.7802734375-.1748046875-5.2841796875-.2392578125-7.5126953125-.06640625-2.2265625-.1259765625-4.091796875-.177734375-5.5927734375-.052734375-1.5009765625-.0625-2.3994140625-.029296875-2.6904296875-.068359375-.3857421875-.013671875-.7509765625.162109375-1.1005859375.130859375-.296875.3466796875-.5634765625.650390625-.7978515625.302734375-.2333984375.7919921875-.390625,1.4677734375-.474609375.625-.080078125,1.4345703125-.1455078125,2.4267578125-.1962890625.9912109375-.05078125,1.9501953125-.0390625,2.8759765625.0341796875.9248046875.0732421875,1.72265625.2509765625,2.3916015625.5322265625.6689453125.2802734375,1.04296875.7099609375,1.12109375,1.2880859375.1337890625,2.611328125.2685546875,5.2373046875.4033203125,7.873046875.134765625,2.6376953125.2939453125,5.259765625.4755859375,7.87109375ZM191.092773437498181,105.21875c1.9267578125-.244140625,3.5615234375-.763671875,4.9033203125-1.560546875,1.341796875-.7958984375,2.361328125-1.7216796875,3.0595703125-2.775390625.697265625-1.0546875,1.0537109375-2.1513671875,1.068359375-3.29296875.0146484375-1.1396484375-.3427734375-2.17578125-1.0693359375-3.109375-.7275390625-.93359375-1.80859375-1.6904296875-3.2451171875-2.2724609375-1.4365234375-.580078125-3.2685546875-.837890625-5.49609375-.7724609375.119140625,2.322265625.248046875,4.619140625.3896484375,6.8916015625.140625,2.2734375.2705078125,4.5693359375.3896484375,6.8916015625Z"/>
        <path class="cls-1" d="M216.545898437498181,69.5c-.5498046875-.3095703125-.76953125-.8330078125-.662109375-1.56640625.1083984375-.7333984375.369140625-1.5341796875.7861328125-2.404296875.416015625-.869140625.9296875-1.732421875,1.541015625-2.5888671875s1.14453125-1.5625,1.6015625-2.119140625c.361328125-.5029296875.8427734375-.806640625,1.4443359375-.9111328125.6005859375-.103515625,1.2255859375.0224609375,1.875.376953125,2.298828125,1.3369140625,4.443359375,2.9375,6.4306640625,4.7998046875,1.986328125,1.8623046875,3.7529296875,3.91796875,5.298828125,6.1669921875,1.5458984375,2.25,2.7998046875,4.7080078125,3.76171875,7.375.9609375,2.6669921875,1.54296875,5.498046875,1.7451171875,8.49609375.2177734375,3.3349609375.0029296875,6.462890625-.6474609375,9.3818359375-.650390625,2.9208984375-1.65234375,5.6142578125-3.0048828125,8.0849609375-1.3544921875,2.4697265625-2.9970703125,4.7001953125-4.9326171875,6.69140625s-4.1015625,3.728515625-6.5,5.2080078125c-.98828125.5830078125-1.98828125.9501953125-2.9990234375,1.0986328125s-1.826171875-.1484375-2.4462890625-.8916015625c-.6767578125-.8876953125-1.3125-1.9462890625-1.9091796875-3.177734375-.59765625-1.2294921875-.9697265625-2.3515625-1.1181640625-3.3623046875-.0712890625-.4326171875-.0673828125-.83203125.01171875-1.2001953125.0771484375-.3671875.3037109375-.6826171875.6787109375-.943359375.234375-.158203125.45703125-.3154296875.6669921875-.47265625.2099609375-.15625.431640625-.3115234375.6669921875-.4697265625,2.8115234375-1.9384765625,4.9814453125-4.0625,6.5126953125-6.373046875,1.5302734375-2.30859375,2.548828125-4.689453125,3.0537109375-7.1416015625.5048828125-2.451171875.55078125-4.8779296875.13671875-7.2822265625-.4150390625-2.4033203125-1.1748046875-4.6806640625-2.2783203125-6.8310546875-1.10546875-2.150390625-2.490234375-4.080078125-4.1533203125-5.791015625-1.6640625-1.70703125-3.517578125-3.0927734375-5.560546875-4.1533203125Z"/>
      </g>
      <g>
        <path class="cls-2" d="M53.279296874998181,87.90625c.0439453125,2.7626953125.12890625,5.341796875.251953125,7.736328125.1220703125,2.39453125.48046875,4.66796875,1.076171875,6.8203125.6044921875,2.345703125,1.455078125,4.2431640625,2.546875,5.6904296875,1.09375,1.447265625,2.2978515625,2.4892578125,3.6162109375,3.125,1.3173828125.63671875,2.6630859375.8583984375,4.0361328125.666015625,1.373046875-.1904296875,2.6796875-.71875,3.9208984375-1.5830078125,1.240234375-.86328125,2.33203125-2.0478515625,3.2734375-3.5517578125.94140625-1.5029296875,1.6005859375-3.3056640625,1.978515625-5.412109375.3837890625-1.958984375.6083984375-4.21484375.671875-6.7646484375.0625-2.548828125.0283203125-5.130859375-.10546875-7.7421875-.1337890625-2.61328125-.361328125-5.134765625-.6787109375-7.5693359375-.3193359375-2.4326171875-.62109375-4.515625-.90234375-6.248046875-.2099609375-1.2490234375.125-2.28515625,1.0048828125-3.107421875.87890625-.8203125,1.931640625-1.345703125,3.15625-1.580078125,1.2255859375-.2314453125,2.4423828125-.125,3.654296875.3232421875,1.2109375.4462890625,2.0439453125,1.3134765625,2.498046875,2.599609375.791015625,2.19140625,1.4091796875,4.560546875,1.8564453125,7.1083984375.4453125,2.5478515625.7587890625,5.115234375.939453125,7.7001953125.1806640625,2.5859375.23828125,5.1298828125.1728515625,7.630859375-.06640625,2.501953125-.2138671875,4.8251953125-.443359375,6.970703125-.3857421875,2.8837890625-1.0908203125,5.68359375-2.1162109375,8.40234375-1.0244140625,2.7216796875-2.3916015625,5.14453125-4.1015625,7.2685546875s-3.7802734375,3.8564453125-6.208984375,5.1923828125c-2.4306640625,1.3388671875-5.2197265625,2.037109375-8.369140625,2.1015625-1.986328125.0537109375-3.865234375-.1884765625-5.6396484375-.728515625-1.7734375-.5390625-3.42578125-1.2919921875-4.9541015625-2.255859375-1.529296875-.96484375-2.9091796875-2.1181640625-4.142578125-3.462890625-1.232421875-1.3427734375-2.3017578125-2.7919921875-3.205078125-4.3466796875-1.654296875-2.921875-2.8564453125-6.2568359375-3.60546875-10.001953125-.75-3.7451171875-1.2177734375-7.4423828125-1.404296875-11.095703125-.1875-3.65234375-.203125-7.021484375-.0458984375-10.111328125.1572265625-3.0869140625.3369140625-5.4853515625.541015625-7.193359375.0498046875-.9228515625.373046875-1.703125.9716796875-2.3408203125.5966796875-.6376953125,1.3125-1.123046875,2.14453125-1.4580078125.8310546875-.33203125,1.73046875-.5244140625,2.6982421875-.5732421875.9677734375-.0498046875,1.8583984375.0625,2.6728515625.3349609375.814453125.275390625,1.4921875.724609375,2.0341796875,1.3515625.541015625.626953125.810546875,1.4013671875.8095703125,2.3232421875l-.603515625,13.78125Z"/>
        <path class="cls-2" d="M114.157226562498181,74.74609375c-1.9716796875,1.2666015625-3.7470703125,2.837890625-5.32421875,4.7119140625-1.5771484375,1.8759765625-2.8427734375,3.94140625-3.79296875,6.197265625-.9521484375,2.2548828125-1.572265625,4.603515625-1.8583984375,7.04296875-.2880859375,2.4404296875-.103515625,4.85546875.552734375,7.2470703125.65625,2.392578125,1.8271484375,4.6611328125,3.513671875,6.8056640625,1.685546875,2.14453125,3.978515625,4.0400390625,6.8759765625,5.6865234375.2490234375.1328125.486328125.2646484375.7119140625.3994140625.2255859375.1337890625.4619140625.267578125.7119140625.4013671875.3984375.220703125.64453125.51171875.7353515625.87109375.091796875.359375.099609375.7578125.025390625,1.1982421875-.0458984375,1.021484375-.337890625,2.1767578125-.8779296875,3.46484375-.5400390625,1.2890625-1.1259765625,2.41015625-1.7548828125,3.365234375-.541015625.802734375-1.322265625,1.181640625-2.3427734375,1.13671875-1.021484375-.044921875-2.0537109375-.306640625-3.0966796875-.7861328125-2.439453125-1.232421875-4.6875-2.7431640625-6.7431640625-4.529296875-2.056640625-1.7861328125-3.8349609375-3.841796875-5.3369140625-6.1650390625-1.5009765625-2.32421875-2.6640625-4.9072265625-3.4892578125-7.7529296875-.8251953125-2.8427734375-1.2255859375-5.9384765625-1.203125-9.287109375.0390625-3.009765625.4619140625-5.892578125,1.2666015625-8.6494140625.8046875-2.7587890625,1.896484375-5.3369140625,3.27734375-7.7353515625,1.380859375-2.3994140625,3.0126953125-4.62890625,4.896484375-6.689453125,1.8828125-2.060546875,3.923828125-3.8759765625,6.123046875-5.443359375.6083984375-.4189453125,1.2177734375-.6083984375,1.826171875-.5673828125.6083984375.04296875,1.1181640625.2958984375,1.53125.7587890625.462890625.5107421875,1.029296875,1.16015625,1.7001953125,1.9501953125.6708984375.791015625,1.24609375,1.5986328125,1.724609375,2.421875.4794921875.82421875.796875,1.5947265625.9560546875,2.314453125.1572265625.720703125-.044921875,1.265625-.6083984375,1.6318359375Z"/>
        <path class="cls-2" d="M157.130859374998181,81.3486328125c-.1845703125,5.8798828125-.189453125,11.7119140625-.013671875,17.4990234375s.6064453125,11.59765625,1.2939453125,17.4326171875c-.029296875.388671875-.154296875.7841796875-.3759765625,1.1826171875-.2255859375.3515625-.55859375.6962890625-1.001953125,1.0341796875-.4443359375.337890625-1.07421875.5751953125-1.8916015625.71484375-.720703125.1337890625-1.490234375.26953125-2.3076171875.4091796875-.818359375.138671875-1.5908203125.189453125-2.3203125.154296875-.728515625-.033203125-1.390625-.158203125-1.982421875-.37109375-.59375-.2109375-1.048828125-.5751953125-1.3662109375-1.0927734375-1.0517578125.296875-2.10546875.5810546875-3.1572265625.8525390625-1.0537109375.271484375-2.134765625.4853515625-3.2421875.638671875-3.2265625.45703125-6.091796875.1669921875-8.5927734375-.869140625-2.5029296875-1.0361328125-4.58203125-2.5537109375-6.236328125-4.5556640625-1.6552734375-2-2.8662109375-4.33984375-3.6337890625-7.0166015625s-1.0419921875-5.427734375-.822265625-8.2529296875c.21875-2.8232421875.951171875-5.576171875,2.1953125-8.2607421875,1.2451171875-2.6826171875,3.052734375-5.0302734375,5.423828125-7.0439453125,2.5654296875-1.9736328125,5.4462890625-3.26171875,8.6416015625-3.8623046875,3.1943359375-.6005859375,6.4345703125-.5478515625,9.7216796875.1572265625.37109375-.3115234375.994140625-.4638671875,1.8671875-.4599609375.6796875.013671875,1.46875.0224609375,2.3662109375.0244140625.8974609375.0029296875,1.7490234375.0556640625,2.5546875.16015625s1.4814453125.2763671875,2.02734375.5146484375c.5458984375.2392578125.830078125.5751953125.8525390625,1.0107421875ZM146.259765624998181,90.7099609375c-2.220703125-.759765625-4.169921875-.92578125-5.845703125-.5009765625-1.6767578125.42578125-3.06640625,1.2109375-4.171875,2.359375-1.10546875,1.1474609375-1.9326171875,2.525390625-2.48046875,4.12890625-.548828125,1.6044921875-.8310546875,3.1962890625-.8466796875,4.7724609375-.017578125,1.5771484375.2392578125,3.0322265625.7685546875,4.3623046875.529296875,1.33203125,1.3427734375,2.296875,2.4404296875,2.89453125,1.0966796875.5986328125,2.4482421875.7001953125,4.0537109375.302734375,1.603515625-.3974609375,3.498046875-1.5263671875,5.68359375-3.3837890625.0322265625-1.2626953125.041015625-2.5126953125.0263671875-3.748046875-.015625-1.2373046875-.0068359375-2.4853515625.0263671875-3.7490234375.029296875-1.3115234375.0595703125-2.59765625.0927734375-3.8603515625.0322265625-1.2626953125.1162109375-2.4560546875.2529296875-3.578125Z"/>
        <path class="cls-2" d="M165.580078124998181,107.1083984375c.0732421875-.4404296875.22265625-.8359375.4482421875-1.1875.2265625-.3017578125.52734375-.572265625.904296875-.8095703125.375-.2373046875.9013671875-.3740234375,1.5791015625-.4091796875.9208984375.001953125,1.7587890625.01953125,2.513671875.0537109375.7529296875.03515625,1.400390625.1357421875,1.943359375.30078125.833984375.2001953125,1.3125.5400390625,1.4345703125,1.017578125.12109375.4794921875.08203125,1.13671875-.1181640625,1.970703125-.1640625.5908203125-.3701171875,1.28125-.62109375,2.0693359375-.25.7890625-.525390625,1.5908203125-.822265625,2.4072265625-.298828125.814453125-.59765625,1.6064453125-.8974609375,2.3740234375s-.5830078125,1.400390625-.8486328125,1.8974609375c-.2197265625.4482421875-.462890625.8974609375-.73046875,1.34765625-.2685546875.451171875-.587890625.853515625-.95703125,1.2138671875-.3701171875.357421875-.79296875.6337890625-1.2666015625.828125-.4755859375.1943359375-1.0556640625.2353515625-1.740234375.126953125-1.0302734375-.2392578125-1.7314453125-.4345703125-2.103515625-.583984375-.37109375-.15234375-.5419921875-.3984375-.5107421875-.73828125l1.79296875-11.87890625Z"/>
        <path class="cls-2" d="M189.705078124998181,80.990234375c1.88671875-.0966796875,3.859375.0556640625,5.91796875.458984375,2.0576171875.4033203125,4.0302734375,1.0517578125,5.919921875,1.9482421875,1.888671875.89453125,3.607421875,2.029296875,5.158203125,3.40234375,1.548828125,1.373046875,2.8095703125,3.0029296875,3.779296875,4.8876953125,1.25,2.6474609375,1.669921875,5.3974609375,1.2587890625,8.25-.4111328125,2.85546875-1.4775390625,5.486328125-3.1962890625,7.896484375-1.2705078125,1.7119140625-2.796875,3.1826171875-4.576171875,4.4111328125-1.78125,1.228515625-3.7041015625,2.259765625-5.771484375,3.08984375-2.0673828125.8330078125-4.2421875,1.46484375-6.5234375,1.8974609375-2.2822265625.4306640625-4.5869140625.6572265625-6.9140625.6796875-1.1181640625-.0400390625-2.1015625-.3046875-2.9501953125-.7919921875-.8505859375-.48828125-1.408203125-1.427734375-1.6728515625-2.818359375-.1123046875-.2861328125-.2412109375-1.1630859375-.388671875-2.6318359375-.1484375-1.4677734375-.2919921875-3.3125-.4296875-5.5322265625-.138671875-2.21875-.27734375-4.7041015625-.41796875-7.45703125-.1416015625-2.7529296875-.2744140625-5.5654296875-.396484375-8.439453125-.123046875-2.875-.2314453125-5.701171875-.3251953125-8.484375-.0947265625-2.7802734375-.1748046875-5.2841796875-.2392578125-7.5126953125-.06640625-2.2265625-.1259765625-4.091796875-.177734375-5.5927734375-.052734375-1.5009765625-.0625-2.3994140625-.029296875-2.6904296875-.068359375-.3857421875-.013671875-.7509765625.162109375-1.1005859375.130859375-.296875.3466796875-.5634765625.650390625-.7978515625.302734375-.2333984375.7919921875-.390625,1.4677734375-.474609375.625-.080078125,1.4345703125-.1455078125,2.4267578125-.1962890625.9912109375-.05078125,1.9501953125-.0390625,2.8759765625.0341796875.9248046875.0732421875,1.72265625.2509765625,2.3916015625.5322265625.6689453125.2802734375,1.04296875.7099609375,1.12109375,1.2880859375.1337890625,2.611328125.2685546875,5.2373046875.4033203125,7.873046875.134765625,2.6376953125.2939453125,5.259765625.4755859375,7.87109375ZM191.092773437498181,105.21875c1.9267578125-.244140625,3.5615234375-.763671875,4.9033203125-1.560546875,1.341796875-.7958984375,2.361328125-1.7216796875,3.0595703125-2.775390625.697265625-1.0546875,1.0537109375-2.1513671875,1.068359375-3.29296875.0146484375-1.1396484375-.3427734375-2.17578125-1.0693359375-3.109375-.7275390625-.93359375-1.80859375-1.6904296875-3.2451171875-2.2724609375-1.4365234375-.580078125-3.2685546875-.837890625-5.49609375-.7724609375.119140625,2.322265625.248046875,4.619140625.3896484375,6.8916015625.140625,2.2734375.2705078125,4.5693359375.3896484375,6.8916015625Z"/>
        <path class="cls-2" d="M216.545898437498181,69.5c-.5498046875-.3095703125-.76953125-.8330078125-.662109375-1.56640625.1083984375-.7333984375.369140625-1.5341796875.7861328125-2.404296875.416015625-.869140625.9296875-1.732421875,1.541015625-2.5888671875s1.14453125-1.5625,1.6015625-2.119140625c.361328125-.5029296875.8427734375-.806640625,1.4443359375-.9111328125.6005859375-.103515625,1.2255859375.0224609375,1.875.376953125,2.298828125,1.3369140625,4.443359375,2.9375,6.4306640625,4.7998046875,1.986328125,1.8623046875,3.7529296875,3.91796875,5.298828125,6.1669921875,1.5458984375,2.25,2.7998046875,4.7080078125,3.76171875,7.375.9609375,2.6669921875,1.54296875,5.498046875,1.7451171875,8.49609375.2177734375,3.3349609375.0029296875,6.462890625-.6474609375,9.3818359375-.650390625,2.9208984375-1.65234375,5.6142578125-3.0048828125,8.0849609375-1.3544921875,2.4697265625-2.9970703125,4.7001953125-4.9326171875,6.69140625s-4.1015625,3.728515625-6.5,5.2080078125c-.98828125.5830078125-1.98828125.9501953125-2.9990234375,1.0986328125s-1.826171875-.1484375-2.4462890625-.8916015625c-.6767578125-.8876953125-1.3125-1.9462890625-1.9091796875-3.177734375-.59765625-1.2294921875-.9697265625-2.3515625-1.1181640625-3.3623046875-.0712890625-.4326171875-.0673828125-.83203125.01171875-1.2001953125.0771484375-.3671875.3037109375-.6826171875.6787109375-.943359375.234375-.158203125.45703125-.3154296875.6669921875-.47265625.2099609375-.15625.431640625-.3115234375.6669921875-.4697265625,2.8115234375-1.9384765625,4.9814453125-4.0625,6.5126953125-6.373046875,1.5302734375-2.30859375,2.548828125-4.689453125,3.0537109375-7.1416015625.5048828125-2.451171875.55078125-4.8779296875.13671875-7.2822265625-.4150390625-2.4033203125-1.1748046875-4.6806640625-2.2783203125-6.8310546875-1.10546875-2.150390625-2.490234375-4.080078125-4.1533203125-5.791015625-1.6640625-1.70703125-3.517578125-3.0927734375-5.560546875-4.1533203125Z"/>
      </g>
      <g>
        <path class="cls-3" d="M53.279296874998181,87.90625c.0439453125,2.7626953125.12890625,5.341796875.251953125,7.736328125.1220703125,2.39453125.48046875,4.66796875,1.076171875,6.8203125.6044921875,2.345703125,1.455078125,4.2431640625,2.546875,5.6904296875,1.09375,1.447265625,2.2978515625,2.4892578125,3.6162109375,3.125,1.3173828125.63671875,2.6630859375.8583984375,4.0361328125.666015625,1.373046875-.1904296875,2.6796875-.71875,3.9208984375-1.5830078125,1.240234375-.86328125,2.33203125-2.0478515625,3.2734375-3.5517578125.94140625-1.5029296875,1.6005859375-3.3056640625,1.978515625-5.412109375.3837890625-1.958984375.6083984375-4.21484375.671875-6.7646484375.0625-2.548828125.0283203125-5.130859375-.10546875-7.7421875-.1337890625-2.61328125-.361328125-5.134765625-.6787109375-7.5693359375-.3193359375-2.4326171875-.62109375-4.515625-.90234375-6.248046875-.2099609375-1.2490234375.125-2.28515625,1.0048828125-3.107421875.87890625-.8203125,1.931640625-1.345703125,3.15625-1.580078125,1.2255859375-.2314453125,2.4423828125-.125,3.654296875.3232421875,1.2109375.4462890625,2.0439453125,1.3134765625,2.498046875,2.599609375.791015625,2.19140625,1.4091796875,4.560546875,1.8564453125,7.1083984375.4453125,2.5478515625.7587890625,5.115234375.939453125,7.7001953125.1806640625,2.5859375.23828125,5.1298828125.1728515625,7.630859375-.06640625,2.501953125-.2138671875,4.8251953125-.443359375,6.970703125-.3857421875,2.8837890625-1.0908203125,5.68359375-2.1162109375,8.40234375-1.0244140625,2.7216796875-2.3916015625,5.14453125-4.1015625,7.2685546875s-3.7802734375,3.8564453125-6.208984375,5.1923828125c-2.4306640625,1.3388671875-5.2197265625,2.037109375-8.369140625,2.1015625-1.986328125.0537109375-3.865234375-.1884765625-5.6396484375-.728515625-1.7734375-.5390625-3.42578125-1.2919921875-4.9541015625-2.255859375-1.529296875-.96484375-2.9091796875-2.1181640625-4.142578125-3.462890625-1.232421875-1.3427734375-2.3017578125-2.7919921875-3.205078125-4.3466796875-1.654296875-2.921875-2.8564453125-6.2568359375-3.60546875-10.001953125-.75-3.7451171875-1.2177734375-7.4423828125-1.404296875-11.095703125-.1875-3.65234375-.203125-7.021484375-.0458984375-10.111328125.1572265625-3.0869140625.3369140625-5.4853515625.541015625-7.193359375.0498046875-.9228515625.373046875-1.703125.9716796875-2.3408203125.5966796875-.6376953125,1.3125-1.123046875,2.14453125-1.4580078125.8310546875-.33203125,1.73046875-.5244140625,2.6982421875-.5732421875.9677734375-.0498046875,1.8583984375.0625,2.6728515625.3349609375.814453125.275390625,1.4921875.724609375,2.0341796875,1.3515625.541015625.626953125.810546875,1.4013671875.8095703125,2.3232421875l-.603515625,13.78125Z"/>
        <path class="cls-3" d="M114.157226562498181,74.74609375c-1.9716796875,1.2666015625-3.7470703125,2.837890625-5.32421875,4.7119140625-1.5771484375,1.8759765625-2.8427734375,3.94140625-3.79296875,6.197265625-.9521484375,2.2548828125-1.572265625,4.603515625-1.8583984375,7.04296875-.2880859375,2.4404296875-.103515625,4.85546875.552734375,7.2470703125.65625,2.392578125,1.8271484375,4.6611328125,3.513671875,6.8056640625,1.685546875,2.14453125,3.978515625,4.0400390625,6.8759765625,5.6865234375.2490234375.1328125.486328125.2646484375.7119140625.3994140625.2255859375.1337890625.4619140625.267578125.7119140625.4013671875.3984375.220703125.64453125.51171875.7353515625.87109375.091796875.359375.099609375.7578125.025390625,1.1982421875-.0458984375,1.021484375-.337890625,2.1767578125-.8779296875,3.46484375-.5400390625,1.2890625-1.1259765625,2.41015625-1.7548828125,3.365234375-.541015625.802734375-1.322265625,1.181640625-2.3427734375,1.13671875-1.021484375-.044921875-2.0537109375-.306640625-3.0966796875-.7861328125-2.439453125-1.232421875-4.6875-2.7431640625-6.7431640625-4.529296875-2.056640625-1.7861328125-3.8349609375-3.841796875-5.3369140625-6.1650390625-1.5009765625-2.32421875-2.6640625-4.9072265625-3.4892578125-7.7529296875-.8251953125-2.8427734375-1.2255859375-5.9384765625-1.203125-9.287109375.0390625-3.009765625.4619140625-5.892578125,1.2666015625-8.6494140625.8046875-2.7587890625,1.896484375-5.3369140625,3.27734375-7.7353515625,1.380859375-2.3994140625,3.0126953125-4.62890625,4.896484375-6.689453125,1.8828125-2.060546875,3.923828125-3.8759765625,6.123046875-5.443359375.6083984375-.4189453125,1.2177734375-.6083984375,1.826171875-.5673828125.6083984375.04296875,1.1181640625.2958984375,1.53125.7587890625.462890625.5107421875,1.029296875,1.16015625,1.7001953125,1.9501953125.6708984375.791015625,1.24609375,1.5986328125,1.724609375,2.421875.4794921875.82421875.796875,1.5947265625.9560546875,2.314453125.1572265625.720703125-.044921875,1.265625-.6083984375,1.6318359375Z"/>
        <path class="cls-3" d="M157.130859374998181,81.3486328125c-.1845703125,5.8798828125-.189453125,11.7119140625-.013671875,17.4990234375s.6064453125,11.59765625,1.2939453125,17.4326171875c-.029296875.388671875-.154296875.7841796875-.3759765625,1.1826171875-.2255859375.3515625-.55859375.6962890625-1.001953125,1.0341796875-.4443359375.337890625-1.07421875.5751953125-1.8916015625.71484375-.720703125.1337890625-1.490234375.26953125-2.3076171875.4091796875-.818359375.138671875-1.5908203125.189453125-2.3203125.154296875-.728515625-.033203125-1.390625-.158203125-1.982421875-.37109375-.59375-.2109375-1.048828125-.5751953125-1.3662109375-1.0927734375-1.0517578125.296875-2.10546875.5810546875-3.1572265625.8525390625-1.0537109375.271484375-2.134765625.4853515625-3.2421875.638671875-3.2265625.45703125-6.091796875.1669921875-8.5927734375-.869140625-2.5029296875-1.0361328125-4.58203125-2.5537109375-6.236328125-4.5556640625-1.6552734375-2-2.8662109375-4.33984375-3.6337890625-7.0166015625s-1.0419921875-5.427734375-.822265625-8.2529296875c.21875-2.8232421875.951171875-5.576171875,2.1953125-8.2607421875,1.2451171875-2.6826171875,3.052734375-5.0302734375,5.423828125-7.0439453125,2.5654296875-1.9736328125,5.4462890625-3.26171875,8.6416015625-3.8623046875,3.1943359375-.6005859375,6.4345703125-.5478515625,9.7216796875.1572265625.37109375-.3115234375.994140625-.4638671875,1.8671875-.4599609375.6796875.013671875,1.46875.0224609375,2.3662109375.0244140625.8974609375.0029296875,1.7490234375.0556640625,2.5546875.16015625s1.4814453125.2763671875,2.02734375.5146484375c.5458984375.2392578125.830078125.5751953125.8525390625,1.0107421875ZM146.259765624998181,90.7099609375c-2.220703125-.759765625-4.169921875-.92578125-5.845703125-.5009765625-1.6767578125.42578125-3.06640625,1.2109375-4.171875,2.359375-1.10546875,1.1474609375-1.9326171875,2.525390625-2.48046875,4.12890625-.548828125,1.6044921875-.8310546875,3.1962890625-.8466796875,4.7724609375-.017578125,1.5771484375.2392578125,3.0322265625.7685546875,4.3623046875.529296875,1.33203125,1.3427734375,2.296875,2.4404296875,2.89453125,1.0966796875.5986328125,2.4482421875.7001953125,4.0537109375.302734375,1.603515625-.3974609375,3.498046875-1.5263671875,5.68359375-3.3837890625.0322265625-1.2626953125.041015625-2.5126953125.0263671875-3.748046875-.015625-1.2373046875-.0068359375-2.4853515625.0263671875-3.7490234375.029296875-1.3115234375.0595703125-2.59765625.0927734375-3.8603515625.0322265625-1.2626953125.1162109375-2.4560546875.2529296875-3.578125Z"/>
        <path class="cls-3" d="M165.580078124998181,107.1083984375c.0732421875-.4404296875.22265625-.8359375.4482421875-1.1875.2265625-.3017578125.52734375-.572265625.904296875-.8095703125.375-.2373046875.9013671875-.3740234375,1.5791015625-.4091796875.9208984375.001953125,1.7587890625.01953125,2.513671875.0537109375.7529296875.03515625,1.400390625.1357421875,1.943359375.30078125.833984375.2001953125,1.3125.5400390625,1.4345703125,1.017578125.12109375.4794921875.08203125,1.13671875-.1181640625,1.970703125-.1640625.5908203125-.3701171875,1.28125-.62109375,2.0693359375-.25.7890625-.525390625,1.5908203125-.822265625,2.4072265625-.298828125.814453125-.59765625,1.6064453125-.8974609375,2.3740234375s-.5830078125,1.400390625-.8486328125,1.8974609375c-.2197265625.4482421875-.462890625.8974609375-.73046875,1.34765625-.2685546875.451171875-.587890625.853515625-.95703125,1.2138671875-.3701171875.357421875-.79296875.6337890625-1.2666015625.828125-.4755859375.1943359375-1.0556640625.2353515625-1.740234375.126953125-1.0302734375-.2392578125-1.7314453125-.4345703125-2.103515625-.583984375-.37109375-.15234375-.5419921875-.3984375-.5107421875-.73828125l1.79296875-11.87890625Z"/>
        <path class="cls-3" d="M189.705078124998181,80.990234375c1.88671875-.0966796875,3.859375.0556640625,5.91796875.458984375,2.0576171875.4033203125,4.0302734375,1.0517578125,5.919921875,1.9482421875,1.888671875.89453125,3.607421875,2.029296875,5.158203125,3.40234375,1.548828125,1.373046875,2.8095703125,3.0029296875,3.779296875,4.8876953125,1.25,2.6474609375,1.669921875,5.3974609375,1.2587890625,8.25-.4111328125,2.85546875-1.4775390625,5.486328125-3.1962890625,7.896484375-1.2705078125,1.7119140625-2.796875,3.1826171875-4.576171875,4.4111328125-1.78125,1.228515625-3.7041015625,2.259765625-5.771484375,3.08984375-2.0673828125.8330078125-4.2421875,1.46484375-6.5234375,1.8974609375-2.2822265625.4306640625-4.5869140625.6572265625-6.9140625.6796875-1.1181640625-.0400390625-2.1015625-.3046875-2.9501953125-.7919921875-.8505859375-.48828125-1.408203125-1.427734375-1.6728515625-2.818359375-.1123046875-.2861328125-.2412109375-1.1630859375-.388671875-2.6318359375-.1484375-1.4677734375-.2919921875-3.3125-.4296875-5.5322265625-.138671875-2.21875-.27734375-4.7041015625-.41796875-7.45703125-.1416015625-2.7529296875-.2744140625-5.5654296875-.396484375-8.439453125-.123046875-2.875-.2314453125-5.701171875-.3251953125-8.484375-.0947265625-2.7802734375-.1748046875-5.2841796875-.2392578125-7.5126953125-.06640625-2.2265625-.1259765625-4.091796875-.177734375-5.5927734375-.052734375-1.5009765625-.0625-2.3994140625-.029296875-2.6904296875-.068359375-.3857421875-.013671875-.7509765625.162109375-1.1005859375.130859375-.296875.3466796875-.5634765625.650390625-.7978515625.302734375-.2333984375.7919921875-.390625,1.4677734375-.474609375.625-.080078125,1.4345703125-.1455078125,2.4267578125-.1962890625.9912109375-.05078125,1.9501953125-.0390625,2.8759765625.0341796875.9248046875.0732421875,1.72265625.2509765625,2.3916015625.5322265625.6689453125.2802734375,1.04296875.7099609375,1.12109375,1.2880859375.1337890625,2.611328125.2685546875,5.2373046875.4033203125,7.873046875.134765625,2.6376953125.2939453125,5.259765625.4755859375,7.87109375ZM191.092773437498181,105.21875c1.9267578125-.244140625,3.5615234375-.763671875,4.9033203125-1.560546875,1.341796875-.7958984375,2.361328125-1.7216796875,3.0595703125-2.775390625.697265625-1.0546875,1.0537109375-2.1513671875,1.068359375-3.29296875.0146484375-1.1396484375-.3427734375-2.17578125-1.0693359375-3.109375-.7275390625-.93359375-1.80859375-1.6904296875-3.2451171875-2.2724609375-1.4365234375-.580078125-3.2685546875-.837890625-5.49609375-.7724609375.119140625,2.322265625.248046875,4.619140625.3896484375,6.8916015625.140625,2.2734375.2705078125,4.5693359375.3896484375,6.8916015625Z"/>
        <path class="cls-3" d="M216.545898437498181,69.5c-.5498046875-.3095703125-.76953125-.8330078125-.662109375-1.56640625.1083984375-.7333984375.369140625-1.5341796875.7861328125-2.404296875.416015625-.869140625.9296875-1.732421875,1.541015625-2.5888671875s1.14453125-1.5625,1.6015625-2.119140625c.361328125-.5029296875.8427734375-.806640625,1.4443359375-.9111328125.6005859375-.103515625,1.2255859375.0224609375,1.875.376953125,2.298828125,1.3369140625,4.443359375,2.9375,6.4306640625,4.7998046875,1.986328125,1.8623046875,3.7529296875,3.91796875,5.298828125,6.1669921875,1.5458984375,2.25,2.7998046875,4.7080078125,3.76171875,7.375.9609375,2.6669921875,1.54296875,5.498046875,1.7451171875,8.49609375.2177734375,3.3349609375.0029296875,6.462890625-.6474609375,9.3818359375-.650390625,2.9208984375-1.65234375,5.6142578125-3.0048828125,8.0849609375-1.3544921875,2.4697265625-2.9970703125,4.7001953125-4.9326171875,6.69140625s-4.1015625,3.728515625-6.5,5.2080078125c-.98828125.5830078125-1.98828125.9501953125-2.9990234375,1.0986328125s-1.826171875-.1484375-2.4462890625-.8916015625c-.6767578125-.8876953125-1.3125-1.9462890625-1.9091796875-3.177734375-.59765625-1.2294921875-.9697265625-2.3515625-1.1181640625-3.3623046875-.0712890625-.4326171875-.0673828125-.83203125.01171875-1.2001953125.0771484375-.3671875.3037109375-.6826171875.6787109375-.943359375.234375-.158203125.45703125-.3154296875.6669921875-.47265625.2099609375-.15625.431640625-.3115234375.6669921875-.4697265625,2.8115234375-1.9384765625,4.9814453125-4.0625,6.5126953125-6.373046875,1.5302734375-2.30859375,2.548828125-4.689453125,3.0537109375-7.1416015625.5048828125-2.451171875.55078125-4.8779296875.13671875-7.2822265625-.4150390625-2.4033203125-1.1748046875-4.6806640625-2.2783203125-6.8310546875-1.10546875-2.150390625-2.490234375-4.080078125-4.1533203125-5.791015625-1.6640625-1.70703125-3.517578125-3.0927734375-5.560546875-4.1533203125Z"/>
      </g>
    </g>
  </a>
</svg>