<?xml version="1.0" encoding="UTF-8"?>
<svg id="Content" xmlns="http://www.w3.org/2000/svg" xmlns:xlink="http://www.w3.org/1999/xlink" viewBox="0 0 280 280">
  <defs>
    <style>
      .cls-1 {
        stroke: #665451;
        stroke-width: 50px;
      }

      .cls-1, .cls-2 {
        fill: none;
        stroke-linecap: round;
        stroke-linejoin: round;
      }

      .cls-3 {
        fill: #fff;
      }

      .cls-2 {
        stroke: #998675;
        stroke-width: 2px;
      }
    </style>
  </defs>
  <a xlink:href="https://www.notion.so/congruence/Union-of-A-and-B-d32f2e2f1c744878bab350603765788c?pvs=4">
    <g>
      <a xlink:href="https://www.notion.so/congruence/B-Event-1f1a5b08a72c49f5ab60f2e0793fd0a8?pvs=4">
        <g>
          <path class="cls-3" d="M73.155273437498181,54.63330078125c3.203125,1.5244140625,5.9990234375,3.48828125,8.3828125,5.888671875,2.384765625,2.40234375,4.443359375,5.0732421875,6.1826171875,8.013671875,1.73828125,2.9404296875,3.1884765625,6.0859375,4.3525390625,9.4365234375,1.1630859375,3.353515625,2.1279296875,6.7421875,2.8916015625,10.1640625,1.681640625,6.7568359375,2.88671875,13.630859375,3.6171875,20.6259765625.7275390625,6.99609375,1.177734375,14.0556640625,1.349609375,21.1748046875.001953125,2.0283203125-.025390625,3.693359375-.0810546875,4.9931640625-.05859375,1.302734375-.275390625,2.3759765625-.65234375,3.21484375-.3779296875.8427734375-.9501953125,1.537109375-1.7158203125,2.0859375-.767578125.548828125-1.8583984375,1.08154296875-3.275390625,1.60302734375-1.357421875.271484375-2.7783203125.5078125-4.2607421875.708984375-1.484375.201171875-2.9072265625-.08984375-4.2666015625-.869140625-1.2734375-.70751953125-2.392578125-1.99658203125-3.353515625-3.86376953125-.9619140625-1.8681640625-1.630859375-4.611328125-2.00390625-8.2294921875l-.09765625-1.208984375c-2.03515625-.078125-4.4462890625-.0849609375-7.23828125-.021484375-2.79296875.0654296875-5.640625.1953125-8.5439453125.3876953125-2.90234375.1962890625-5.7041015625.4013671875-8.4013671875.6201171875-2.7001953125.21875-4.9755859375.40234375-6.8271484375.552734375-.0224609375.732421875-.0244140625,1.9482421875-.0087890625,3.6494140625.0166015625,1.701171875-.109375,3.4150390625-.3740234375,5.138671875-.2666015625,1.724609375-.6875,3.29931640625-1.259765625,4.72509765625-.57421875,1.423828125-1.4609375,2.224609375-2.6630859375,2.404296875-1.1220703125.169921875-2.4033203125.35546875-3.8466796875.5546875-1.443359375.1953125-2.8671875.150390625-4.2685546875-.140625-1.396484375-.2109375-2.5966796875-.763671875-3.599609375-1.654296875-1.005859375-.892578125-1.6337890625-2.380859375-1.8828125-4.46923828125-.2021484375-2.49609375-.39453125-5.3603515625-.57421875-8.5888671875-.181640625-3.2275390625-.302734375-6.744140625-.3681640625-10.55078125-.09375-3.1552734375-.1103515625-6.6201171875-.0517578125-10.3955078125.0595703125-3.775390625.2705078125-7.6630859375.6357421875-11.666015625.3642578125-4.001953125.931640625-8.0205078125,1.69921875-12.056640625.767578125-4.0341796875,1.8330078125-7.890625,3.197265625-11.5703125,1.36328125-3.6767578125,3.0537109375-7.09765625,5.068359375-10.2607421875,2.0126953125-3.162109375,4.509765625-5.87890625,7.48828125-8.1484375,3.5146484375-2.634765625,7.48828125-4.1337890625,11.9189453125-4.4921875,4.4306640625-.359375,8.7080078125.388671875,12.8310546875,2.244140625ZM48.249023437498181,111.98876953125c5.041015625-.8125,10.0712890625-1.5234375,15.08984375-2.134765625,5.017578125-.607421875,10.0712890625-1.0380859375,15.1591796875-1.2880859375-.2216796875-5.73828125-.8779296875-10.8330078125-1.9677734375-15.287109375-1.0908203125-4.4521484375-2.4072265625-8.17578125-3.9462890625-11.173828125-1.5400390625-2.9951171875-3.263671875-5.2470703125-5.1689453125-6.7568359375-1.90625-1.505859375-3.7861328125-2.185546875-5.638671875-2.03515625-1.611328125.1298828125-3.2158203125,1.091796875-4.8134765625,2.8818359375-1.599609375,1.79296875-3.0146484375,4.33984375-4.24609375,7.6416015625-1.2333984375,3.3037109375-2.2626953125,7.33984375-3.0927734375,12.109375-.830078125,4.7705078125-1.2890625,10.1181640625-1.375,16.04296875Z"/>
          <path class="cls-3" d="M238.291992187498181,82.84912109375c3.765625,2.4521484375,6.6787109375,5.64453125,8.7421875,9.5693359375,2.060546875,3.927734375,2.9453125,8.0927734375,2.654296875,12.494140625-.3271484375,4.9736328125-1.92578125,9.2587890625-4.796875,12.85546875-2.87109375,3.59765625-6.36328125,6.5361328125-10.4755859375,8.814453125-4.1142578125,2.279296875-8.6201171875,3.9423828125-13.521484375,4.9873046875s-9.546875,1.5029296875-13.9365234375,1.3720703125c-.390625.1943359375-.7451171875.3232421875-1.0625.3896484375-.3193359375.06640625-.677734375.15625-1.072265625.2705078125-1.443359375.197265625-2.935546875.318359375-4.470703125.3623046875-1.5380859375.04296875-2.94921875-.107421875-4.232421875-.44921875-1.2861328125-.3388671875-2.4111328125-.9775390625-3.37890625-1.9140625-.96875-.9345703125-1.607421875-2.3212890625-1.91796875-4.1630859375-.234375-.87109375-.4189453125-2.66015625-.5556640625-5.3671875-.1396484375-2.703125-.3251953125-5.9931640625-.556640625-9.8671875-.1591796875-3.9580078125-.365234375-8.2587890625-.6201171875-12.9013671875-.25390625-4.6416015625-.53125-9.30078125-.828125-13.9814453125-.416015625-6.1259765625-.8349609375-12.294921875-1.255859375-18.5048828125-.423828125-6.208984375-1.1708984375-12.4326171875-2.2421875-18.6708984375-.2216796875-.7109375-.1923828125-1.361328125.0849609375-1.9521484375.12109375-.49609375.4462890625-.98828125.974609375-1.4775390625.52734375-.48828125,1.3486328125-.8583984375,2.4638671875-1.1123046875.7978515625-.1435546875,1.6748046875-.337890625,2.62890625-.5771484375s1.9501953125-.44140625,2.9912109375-.6083984375c1.0390625-.1630859375,2.0478515625-.2451171875,3.0205078125-.244140625.9736328125.00390625,1.83203125.09375,2.5771484375.2783203125,4.0625-.896484375,8.369140625-1.2666015625,12.923828125-1.107421875,4.552734375.1591796875,8.888671875.880859375,13.0068359375,2.16796875,4.1181640625,1.2900390625,7.7548828125,3.1630859375,10.9150390625,5.6220703125,3.158203125,2.4619140625,5.3779296875,5.5849609375,6.6572265625,9.373046875.5400390625,1.6591796875.9248046875,3.4140625,1.15625,5.2578125.2294921875,1.84765625.1845703125,3.77734375-.138671875,5.7890625-.32421875,2.013671875-.9423828125,4.130859375-1.857421875,6.3525390625-.9140625,2.2236328125-2.20703125,4.5390625-3.876953125,6.9423828125ZM206.298828124998181,78.26513671875c3.8798828125-.1494140625,7.109375-.818359375,9.689453125-2,2.580078125-1.1826171875,4.470703125-2.6123046875,5.6728515625-4.2919921875,1.201171875-1.677734375,1.70703125-3.4404296875,1.517578125-5.291015625-.1923828125-1.849609375-1.0302734375-3.443359375-2.5166015625-4.783203125-1.4873046875-1.337890625-3.6318359375-2.2783203125-6.4306640625-2.822265625-2.8017578125-.54296875-6.2744140625-.36328125-10.416015625.5390625.49609375,3.123046875.9287109375,6.208984375,1.296875,9.2607421875.369140625,3.052734375.763671875,6.181640625,1.1865234375,9.388671875ZM209.500976562498181,113.27587890625c4.388671875.1328125,8.037109375-.365234375,10.9462890625-1.494140625,2.9072265625-1.126953125,5.044921875-2.515625,6.412109375-4.16796875,1.365234375-1.650390625,1.99609375-3.3642578125,1.89453125-5.140625-.1044921875-1.7734375-.9326171875-3.2470703125-2.4873046875-4.4189453125-1.5537109375-1.1708984375-3.83984375-1.857421875-6.85546875-2.060546875-3.0166015625-.19921875-6.73828125.4052734375-11.1630859375,1.81640625l1.2529296875,15.4658203125Z"/>
        </g>
      </a>
      <g>
        <a xlink:href="https://www.notion.so/congruence/B-Event-1f1a5b08a72c49f5ab60f2e0793fd0a8?pvs=4">
          <g>
            <g>
              <path class="cls-1" d="M73.155273437498181,54.63330078125c3.203125,1.5244140625,5.9990234375,3.48828125,8.3828125,5.888671875,2.384765625,2.40234375,4.443359375,5.0732421875,6.1826171875,8.013671875,1.73828125,2.9404296875,3.1884765625,6.0859375,4.3525390625,9.4365234375,1.1630859375,3.353515625,2.1279296875,6.7421875,2.8916015625,10.1640625,1.681640625,6.7568359375,2.88671875,13.630859375,3.6171875,20.6259765625.7275390625,6.99609375,1.177734375,14.0556640625,1.349609375,21.1748046875.001953125,2.0283203125-.025390625,3.693359375-.0810546875,4.9931640625-.05859375,1.302734375-.275390625,2.3759765625-.65234375,3.21484375-.3779296875.8427734375-.9501953125,1.537109375-1.7158203125,2.0859375-.767578125.548828125-1.8583984375,1.08154296875-3.275390625,1.60302734375-1.357421875.271484375-2.7783203125.5078125-4.2607421875.708984375-1.484375.201171875-2.9072265625-.08984375-4.2666015625-.869140625-1.2734375-.70751953125-2.392578125-1.99658203125-3.353515625-3.86376953125-.9619140625-1.8681640625-1.630859375-4.611328125-2.00390625-8.2294921875l-.09765625-1.208984375c-2.03515625-.078125-4.4462890625-.0849609375-7.23828125-.021484375-2.79296875.0654296875-5.640625.1953125-8.5439453125.3876953125-2.90234375.1962890625-5.7041015625.4013671875-8.4013671875.6201171875-2.7001953125.21875-4.9755859375.40234375-6.8271484375.552734375-.0224609375.732421875-.0244140625,1.9482421875-.0087890625,3.6494140625.0166015625,1.701171875-.109375,3.4150390625-.3740234375,5.138671875-.2666015625,1.724609375-.6875,3.29931640625-1.259765625,4.72509765625-.57421875,1.423828125-1.4609375,2.224609375-2.6630859375,2.404296875-1.1220703125.169921875-2.4033203125.35546875-3.8466796875.5546875-1.443359375.1953125-2.8671875.150390625-4.2685546875-.140625-1.396484375-.2109375-2.5966796875-.763671875-3.599609375-1.654296875-1.005859375-.892578125-1.6337890625-2.380859375-1.8828125-4.46923828125-.2021484375-2.49609375-.39453125-5.3603515625-.57421875-8.5888671875-.181640625-3.2275390625-.302734375-6.744140625-.3681640625-10.55078125-.09375-3.1552734375-.1103515625-6.6201171875-.0517578125-10.3955078125.0595703125-3.775390625.2705078125-7.6630859375.6357421875-11.666015625.3642578125-4.001953125.931640625-8.0205078125,1.69921875-12.056640625.767578125-4.0341796875,1.8330078125-7.890625,3.197265625-11.5703125,1.36328125-3.6767578125,3.0537109375-7.09765625,5.068359375-10.2607421875,2.0126953125-3.162109375,4.509765625-5.87890625,7.48828125-8.1484375,3.5146484375-2.634765625,7.48828125-4.1337890625,11.9189453125-4.4921875,4.4306640625-.359375,8.7080078125.388671875,12.8310546875,2.244140625ZM48.249023437498181,111.98876953125c5.041015625-.8125,10.0712890625-1.5234375,15.08984375-2.134765625,5.017578125-.607421875,10.0712890625-1.0380859375,15.1591796875-1.2880859375-.2216796875-5.73828125-.8779296875-10.8330078125-1.9677734375-15.287109375-1.0908203125-4.4521484375-2.4072265625-8.17578125-3.9462890625-11.173828125-1.5400390625-2.9951171875-3.263671875-5.2470703125-5.1689453125-6.7568359375-1.90625-1.505859375-3.7861328125-2.185546875-5.638671875-2.03515625-1.611328125.1298828125-3.2158203125,1.091796875-4.8134765625,2.8818359375-1.599609375,1.79296875-3.0146484375,4.33984375-4.24609375,7.6416015625-1.2333984375,3.3037109375-2.2626953125,7.33984375-3.0927734375,12.109375-.830078125,4.7705078125-1.2890625,10.1181640625-1.375,16.04296875Z"/>
              <path class="cls-1" d="M238.291992187498181,82.84912109375c3.765625,2.4521484375,6.6787109375,5.64453125,8.7421875,9.5693359375,2.060546875,3.927734375,2.9453125,8.0927734375,2.654296875,12.494140625-.3271484375,4.9736328125-1.92578125,9.2587890625-4.796875,12.85546875-2.87109375,3.59765625-6.36328125,6.5361328125-10.4755859375,8.814453125-4.1142578125,2.279296875-8.6201171875,3.9423828125-13.521484375,4.9873046875s-9.546875,1.5029296875-13.9365234375,1.3720703125c-.390625.1943359375-.7451171875.3232421875-1.0625.3896484375-.3193359375.06640625-.677734375.15625-1.072265625.2705078125-1.443359375.197265625-2.935546875.318359375-4.470703125.3623046875-1.5380859375.04296875-2.94921875-.107421875-4.232421875-.44921875-1.2861328125-.3388671875-2.4111328125-.9775390625-3.37890625-1.9140625-.96875-.9345703125-1.607421875-2.3212890625-1.91796875-4.1630859375-.234375-.87109375-.4189453125-2.66015625-.5556640625-5.3671875-.1396484375-2.703125-.3251953125-5.9931640625-.556640625-9.8671875-.1591796875-3.9580078125-.365234375-8.2587890625-.6201171875-12.9013671875-.25390625-4.6416015625-.53125-9.30078125-.828125-13.9814453125-.416015625-6.1259765625-.8349609375-12.294921875-1.255859375-18.5048828125-.423828125-6.208984375-1.1708984375-12.4326171875-2.2421875-18.6708984375-.2216796875-.7109375-.1923828125-1.361328125.0849609375-1.9521484375.12109375-.49609375.4462890625-.98828125.974609375-1.4775390625.52734375-.48828125,1.3486328125-.8583984375,2.4638671875-1.1123046875.7978515625-.1435546875,1.6748046875-.337890625,2.62890625-.5771484375s1.9501953125-.44140625,2.9912109375-.6083984375c1.0390625-.1630859375,2.0478515625-.2451171875,3.0205078125-.244140625.9736328125.00390625,1.83203125.09375,2.5771484375.2783203125,4.0625-.896484375,8.369140625-1.2666015625,12.923828125-1.107421875,4.552734375.1591796875,8.888671875.880859375,13.0068359375,2.16796875,4.1181640625,1.2900390625,7.7548828125,3.1630859375,10.9150390625,5.6220703125,3.158203125,2.4619140625,5.3779296875,5.5849609375,6.6572265625,9.373046875.5400390625,1.6591796875.9248046875,3.4140625,1.15625,5.2578125.2294921875,1.84765625.1845703125,3.77734375-.138671875,5.7890625-.32421875,2.013671875-.9423828125,4.130859375-1.857421875,6.3525390625-.9140625,2.2236328125-2.20703125,4.5390625-3.876953125,6.9423828125ZM206.298828124998181,78.26513671875c3.8798828125-.1494140625,7.109375-.818359375,9.689453125-2,2.580078125-1.1826171875,4.470703125-2.6123046875,5.6728515625-4.2919921875,1.201171875-1.677734375,1.70703125-3.4404296875,1.517578125-5.291015625-.1923828125-1.849609375-1.0302734375-3.443359375-2.5166015625-4.783203125-1.4873046875-1.337890625-3.6318359375-2.2783203125-6.4306640625-2.822265625-2.8017578125-.54296875-6.2744140625-.36328125-10.416015625.5390625.49609375,3.123046875.9287109375,6.208984375,1.296875,9.2607421875.369140625,3.052734375.763671875,6.181640625,1.1865234375,9.388671875ZM209.500976562498181,113.27587890625c4.388671875.1328125,8.037109375-.365234375,10.9462890625-1.494140625,2.9072265625-1.126953125,5.044921875-2.515625,6.412109375-4.16796875,1.365234375-1.650390625,1.99609375-3.3642578125,1.89453125-5.140625-.1044921875-1.7734375-.9326171875-3.2470703125-2.4873046875-4.4189453125-1.5537109375-1.1708984375-3.83984375-1.857421875-6.85546875-2.060546875-3.0166015625-.19921875-6.73828125.4052734375-11.1630859375,1.81640625l1.2529296875,15.4658203125Z"/>
            </g>
            <g>
              <path class="cls-1" d="M73.155273437498181,54.63330078125c3.203125,1.5244140625,5.9990234375,3.48828125,8.3828125,5.888671875,2.384765625,2.40234375,4.443359375,5.0732421875,6.1826171875,8.013671875,1.73828125,2.9404296875,3.1884765625,6.0859375,4.3525390625,9.4365234375,1.1630859375,3.353515625,2.1279296875,6.7421875,2.8916015625,10.1640625,1.681640625,6.7568359375,2.88671875,13.630859375,3.6171875,20.6259765625.7275390625,6.99609375,1.177734375,14.0556640625,1.349609375,21.1748046875.001953125,2.0283203125-.025390625,3.693359375-.0810546875,4.9931640625-.05859375,1.302734375-.275390625,2.3759765625-.65234375,3.21484375-.3779296875.8427734375-.9501953125,1.537109375-1.7158203125,2.0859375-.767578125.548828125-1.8583984375,1.08154296875-3.275390625,1.60302734375-1.357421875.271484375-2.7783203125.5078125-4.2607421875.708984375-1.484375.201171875-2.9072265625-.08984375-4.2666015625-.869140625-1.2734375-.70751953125-2.392578125-1.99658203125-3.353515625-3.86376953125-.9619140625-1.8681640625-1.630859375-4.611328125-2.00390625-8.2294921875l-.09765625-1.208984375c-2.03515625-.078125-4.4462890625-.0849609375-7.23828125-.021484375-2.79296875.0654296875-5.640625.1953125-8.5439453125.3876953125-2.90234375.1962890625-5.7041015625.4013671875-8.4013671875.6201171875-2.7001953125.21875-4.9755859375.40234375-6.8271484375.552734375-.0224609375.732421875-.0244140625,1.9482421875-.0087890625,3.6494140625.0166015625,1.701171875-.109375,3.4150390625-.3740234375,5.138671875-.2666015625,1.724609375-.6875,3.29931640625-1.259765625,4.72509765625-.57421875,1.423828125-1.4609375,2.224609375-2.6630859375,2.404296875-1.1220703125.169921875-2.4033203125.35546875-3.8466796875.5546875-1.443359375.1953125-2.8671875.150390625-4.2685546875-.140625-1.396484375-.2109375-2.5966796875-.763671875-3.599609375-1.654296875-1.005859375-.892578125-1.6337890625-2.380859375-1.8828125-4.46923828125-.2021484375-2.49609375-.39453125-5.3603515625-.57421875-8.5888671875-.181640625-3.2275390625-.302734375-6.744140625-.3681640625-10.55078125-.09375-3.1552734375-.1103515625-6.6201171875-.0517578125-10.3955078125.0595703125-3.775390625.2705078125-7.6630859375.6357421875-11.666015625.3642578125-4.001953125.931640625-8.0205078125,1.69921875-12.056640625.767578125-4.0341796875,1.8330078125-7.890625,3.197265625-11.5703125,1.36328125-3.6767578125,3.0537109375-7.09765625,5.068359375-10.2607421875,2.0126953125-3.162109375,4.509765625-5.87890625,7.48828125-8.1484375,3.5146484375-2.634765625,7.48828125-4.1337890625,11.9189453125-4.4921875,4.4306640625-.359375,8.7080078125.388671875,12.8310546875,2.244140625ZM48.249023437498181,111.98876953125c5.041015625-.8125,10.0712890625-1.5234375,15.08984375-2.134765625,5.017578125-.607421875,10.0712890625-1.0380859375,15.1591796875-1.2880859375-.2216796875-5.73828125-.8779296875-10.8330078125-1.9677734375-15.287109375-1.0908203125-4.4521484375-2.4072265625-8.17578125-3.9462890625-11.173828125-1.5400390625-2.9951171875-3.263671875-5.2470703125-5.1689453125-6.7568359375-1.90625-1.505859375-3.7861328125-2.185546875-5.638671875-2.03515625-1.611328125.1298828125-3.2158203125,1.091796875-4.8134765625,2.8818359375-1.599609375,1.79296875-3.0146484375,4.33984375-4.24609375,7.6416015625-1.2333984375,3.3037109375-2.2626953125,7.33984375-3.0927734375,12.109375-.830078125,4.7705078125-1.2890625,10.1181640625-1.375,16.04296875Z"/>
              <path class="cls-1" d="M238.291992187498181,82.84912109375c3.765625,2.4521484375,6.6787109375,5.64453125,8.7421875,9.5693359375,2.060546875,3.927734375,2.9453125,8.0927734375,2.654296875,12.494140625-.3271484375,4.9736328125-1.92578125,9.2587890625-4.796875,12.85546875-2.87109375,3.59765625-6.36328125,6.5361328125-10.4755859375,8.814453125-4.1142578125,2.279296875-8.6201171875,3.9423828125-13.521484375,4.9873046875s-9.546875,1.5029296875-13.9365234375,1.3720703125c-.390625.1943359375-.7451171875.3232421875-1.0625.3896484375-.3193359375.06640625-.677734375.15625-1.072265625.2705078125-1.443359375.197265625-2.935546875.318359375-4.470703125.3623046875-1.5380859375.04296875-2.94921875-.107421875-4.232421875-.44921875-1.2861328125-.3388671875-2.4111328125-.9775390625-3.37890625-1.9140625-.96875-.9345703125-1.607421875-2.3212890625-1.91796875-4.1630859375-.234375-.87109375-.4189453125-2.66015625-.5556640625-5.3671875-.1396484375-2.703125-.3251953125-5.9931640625-.556640625-9.8671875-.1591796875-3.9580078125-.365234375-8.2587890625-.6201171875-12.9013671875-.25390625-4.6416015625-.53125-9.30078125-.828125-13.9814453125-.416015625-6.1259765625-.8349609375-12.294921875-1.255859375-18.5048828125-.423828125-6.208984375-1.1708984375-12.4326171875-2.2421875-18.6708984375-.2216796875-.7109375-.1923828125-1.361328125.0849609375-1.9521484375.12109375-.49609375.4462890625-.98828125.974609375-1.4775390625.52734375-.48828125,1.3486328125-.8583984375,2.4638671875-1.1123046875.7978515625-.1435546875,1.6748046875-.337890625,2.62890625-.5771484375s1.9501953125-.44140625,2.9912109375-.6083984375c1.0390625-.1630859375,2.0478515625-.2451171875,3.0205078125-.244140625.9736328125.00390625,1.83203125.09375,2.5771484375.2783203125,4.0625-.896484375,8.369140625-1.2666015625,12.923828125-1.107421875,4.552734375.1591796875,8.888671875.880859375,13.0068359375,2.16796875,4.1181640625,1.2900390625,7.7548828125,3.1630859375,10.9150390625,5.6220703125,3.158203125,2.4619140625,5.3779296875,5.5849609375,6.6572265625,9.373046875.5400390625,1.6591796875.9248046875,3.4140625,1.15625,5.2578125.2294921875,1.84765625.1845703125,3.77734375-.138671875,5.7890625-.32421875,2.013671875-.9423828125,4.130859375-1.857421875,6.3525390625-.9140625,2.2236328125-2.20703125,4.5390625-3.876953125,6.9423828125ZM206.298828124998181,78.26513671875c3.8798828125-.1494140625,7.109375-.818359375,9.689453125-2,2.580078125-1.1826171875,4.470703125-2.6123046875,5.6728515625-4.2919921875,1.201171875-1.677734375,1.70703125-3.4404296875,1.517578125-5.291015625-.1923828125-1.849609375-1.0302734375-3.443359375-2.5166015625-4.783203125-1.4873046875-1.337890625-3.6318359375-2.2783203125-6.4306640625-2.822265625-2.8017578125-.54296875-6.2744140625-.36328125-10.416015625.5390625.49609375,3.123046875.9287109375,6.208984375,1.296875,9.2607421875.369140625,3.052734375.763671875,6.181640625,1.1865234375,9.388671875ZM209.500976562498181,113.27587890625c4.388671875.1328125,8.037109375-.365234375,10.9462890625-1.494140625,2.9072265625-1.126953125,5.044921875-2.515625,6.412109375-4.16796875,1.365234375-1.650390625,1.99609375-3.3642578125,1.89453125-5.140625-.1044921875-1.7734375-.9326171875-3.2470703125-2.4873046875-4.4189453125-1.5537109375-1.1708984375-3.83984375-1.857421875-6.85546875-2.060546875-3.0166015625-.19921875-6.73828125.4052734375-11.1630859375,1.81640625l1.2529296875,15.4658203125Z"/>
            </g>
            <g>
              <path class="cls-1" d="M73.155273437498181,54.63330078125c3.203125,1.5244140625,5.9990234375,3.48828125,8.3828125,5.888671875,2.384765625,2.40234375,4.443359375,5.0732421875,6.1826171875,8.013671875,1.73828125,2.9404296875,3.1884765625,6.0859375,4.3525390625,9.4365234375,1.1630859375,3.353515625,2.1279296875,6.7421875,2.8916015625,10.1640625,1.681640625,6.7568359375,2.88671875,13.630859375,3.6171875,20.6259765625.7275390625,6.99609375,1.177734375,14.0556640625,1.349609375,21.1748046875.001953125,2.0283203125-.025390625,3.693359375-.0810546875,4.9931640625-.05859375,1.302734375-.275390625,2.3759765625-.65234375,3.21484375-.3779296875.8427734375-.9501953125,1.537109375-1.7158203125,2.0859375-.767578125.548828125-1.8583984375,1.08154296875-3.275390625,1.60302734375-1.357421875.271484375-2.7783203125.5078125-4.2607421875.708984375-1.484375.201171875-2.9072265625-.08984375-4.2666015625-.869140625-1.2734375-.70751953125-2.392578125-1.99658203125-3.353515625-3.86376953125-.9619140625-1.8681640625-1.630859375-4.611328125-2.00390625-8.2294921875l-.09765625-1.208984375c-2.03515625-.078125-4.4462890625-.0849609375-7.23828125-.021484375-2.79296875.0654296875-5.640625.1953125-8.5439453125.3876953125-2.90234375.1962890625-5.7041015625.4013671875-8.4013671875.6201171875-2.7001953125.21875-4.9755859375.40234375-6.8271484375.552734375-.0224609375.732421875-.0244140625,1.9482421875-.0087890625,3.6494140625.0166015625,1.701171875-.109375,3.4150390625-.3740234375,5.138671875-.2666015625,1.724609375-.6875,3.29931640625-1.259765625,4.72509765625-.57421875,1.423828125-1.4609375,2.224609375-2.6630859375,2.404296875-1.1220703125.169921875-2.4033203125.35546875-3.8466796875.5546875-1.443359375.1953125-2.8671875.150390625-4.2685546875-.140625-1.396484375-.2109375-2.5966796875-.763671875-3.599609375-1.654296875-1.005859375-.892578125-1.6337890625-2.380859375-1.8828125-4.46923828125-.2021484375-2.49609375-.39453125-5.3603515625-.57421875-8.5888671875-.181640625-3.2275390625-.302734375-6.744140625-.3681640625-10.55078125-.09375-3.1552734375-.1103515625-6.6201171875-.0517578125-10.3955078125.0595703125-3.775390625.2705078125-7.6630859375.6357421875-11.666015625.3642578125-4.001953125.931640625-8.0205078125,1.69921875-12.056640625.767578125-4.0341796875,1.8330078125-7.890625,3.197265625-11.5703125,1.36328125-3.6767578125,3.0537109375-7.09765625,5.068359375-10.2607421875,2.0126953125-3.162109375,4.509765625-5.87890625,7.48828125-8.1484375,3.5146484375-2.634765625,7.48828125-4.1337890625,11.9189453125-4.4921875,4.4306640625-.359375,8.7080078125.388671875,12.8310546875,2.244140625ZM48.249023437498181,111.98876953125c5.041015625-.8125,10.0712890625-1.5234375,15.08984375-2.134765625,5.017578125-.607421875,10.0712890625-1.0380859375,15.1591796875-1.2880859375-.2216796875-5.73828125-.8779296875-10.8330078125-1.9677734375-15.287109375-1.0908203125-4.4521484375-2.4072265625-8.17578125-3.9462890625-11.173828125-1.5400390625-2.9951171875-3.263671875-5.2470703125-5.1689453125-6.7568359375-1.90625-1.505859375-3.7861328125-2.185546875-5.638671875-2.03515625-1.611328125.1298828125-3.2158203125,1.091796875-4.8134765625,2.8818359375-1.599609375,1.79296875-3.0146484375,4.33984375-4.24609375,7.6416015625-1.2333984375,3.3037109375-2.2626953125,7.33984375-3.0927734375,12.109375-.830078125,4.7705078125-1.2890625,10.1181640625-1.375,16.04296875Z"/>
              <path class="cls-1" d="M238.291992187498181,82.84912109375c3.765625,2.4521484375,6.6787109375,5.64453125,8.7421875,9.5693359375,2.060546875,3.927734375,2.9453125,8.0927734375,2.654296875,12.494140625-.3271484375,4.9736328125-1.92578125,9.2587890625-4.796875,12.85546875-2.87109375,3.59765625-6.36328125,6.5361328125-10.4755859375,8.814453125-4.1142578125,2.279296875-8.6201171875,3.9423828125-13.521484375,4.9873046875s-9.546875,1.5029296875-13.9365234375,1.3720703125c-.390625.1943359375-.7451171875.3232421875-1.0625.3896484375-.3193359375.06640625-.677734375.15625-1.072265625.2705078125-1.443359375.197265625-2.935546875.318359375-4.470703125.3623046875-1.5380859375.04296875-2.94921875-.107421875-4.232421875-.44921875-1.2861328125-.3388671875-2.4111328125-.9775390625-3.37890625-1.9140625-.96875-.9345703125-1.607421875-2.3212890625-1.91796875-4.1630859375-.234375-.87109375-.4189453125-2.66015625-.5556640625-5.3671875-.1396484375-2.703125-.3251953125-5.9931640625-.556640625-9.8671875-.1591796875-3.9580078125-.365234375-8.2587890625-.6201171875-12.9013671875-.25390625-4.6416015625-.53125-9.30078125-.828125-13.9814453125-.416015625-6.1259765625-.8349609375-12.294921875-1.255859375-18.5048828125-.423828125-6.208984375-1.1708984375-12.4326171875-2.2421875-18.6708984375-.2216796875-.7109375-.1923828125-1.361328125.0849609375-1.9521484375.12109375-.49609375.4462890625-.98828125.974609375-1.4775390625.52734375-.48828125,1.3486328125-.8583984375,2.4638671875-1.1123046875.7978515625-.1435546875,1.6748046875-.337890625,2.62890625-.5771484375s1.9501953125-.44140625,2.9912109375-.6083984375c1.0390625-.1630859375,2.0478515625-.2451171875,3.0205078125-.244140625.9736328125.00390625,1.83203125.09375,2.5771484375.2783203125,4.0625-.896484375,8.369140625-1.2666015625,12.923828125-1.107421875,4.552734375.1591796875,8.888671875.880859375,13.0068359375,2.16796875,4.1181640625,1.2900390625,7.7548828125,3.1630859375,10.9150390625,5.6220703125,3.158203125,2.4619140625,5.3779296875,5.5849609375,6.6572265625,9.373046875.5400390625,1.6591796875.9248046875,3.4140625,1.15625,5.2578125.2294921875,1.84765625.1845703125,3.77734375-.138671875,5.7890625-.32421875,2.013671875-.9423828125,4.130859375-1.857421875,6.3525390625-.9140625,2.2236328125-2.20703125,4.5390625-3.876953125,6.9423828125ZM206.298828124998181,78.26513671875c3.8798828125-.1494140625,7.109375-.818359375,9.689453125-2,2.580078125-1.1826171875,4.470703125-2.6123046875,5.6728515625-4.2919921875,1.201171875-1.677734375,1.70703125-3.4404296875,1.517578125-5.291015625-.1923828125-1.849609375-1.0302734375-3.443359375-2.5166015625-4.783203125-1.4873046875-1.337890625-3.6318359375-2.2783203125-6.4306640625-2.822265625-2.8017578125-.54296875-6.2744140625-.36328125-10.416015625.5390625.49609375,3.123046875.9287109375,6.208984375,1.296875,9.2607421875.369140625,3.052734375.763671875,6.181640625,1.1865234375,9.388671875ZM209.500976562498181,113.27587890625c4.388671875.1328125,8.037109375-.365234375,10.9462890625-1.494140625,2.9072265625-1.126953125,5.044921875-2.515625,6.412109375-4.16796875,1.365234375-1.650390625,1.99609375-3.3642578125,1.89453125-5.140625-.1044921875-1.7734375-.9326171875-3.2470703125-2.4873046875-4.4189453125-1.5537109375-1.1708984375-3.83984375-1.857421875-6.85546875-2.060546875-3.0166015625-.19921875-6.73828125.4052734375-11.1630859375,1.81640625l1.2529296875,15.4658203125Z"/>
            </g>
          </g>
        </a>
        <path class="cls-1" d="M129.183593749998181,90.9443359375c-.146484375,3.1884765625-.216796875,6.1669921875-.216796875,8.9365234375,0,2.7685546875.3603515625,5.4111328125,1.0849609375,7.9287109375.7216796875,2.7412109375,1.8447265625,4.978515625,3.3642578125,6.7119140625,1.5205078125,1.734375,3.23828125,3.0078125,5.15625,3.8173828125,1.9169921875.8115234375,3.908203125,1.1474609375,5.970703125,1.0068359375,2.0625-.138671875,4.052734375-.6708984375,5.970703125-1.59375,1.916015625-.9228515625,3.63671875-2.2236328125,5.15625-3.9013671875,1.51953125-1.6787109375,2.640625-3.7197265625,3.365234375-6.125.7216796875-2.236328125,1.228515625-4.82421875,1.51953125-7.76171875.287109375-2.9365234375.43359375-5.9150390625.43359375-8.935546875s-.146484375-5.9423828125-.43359375-8.767578125c-.291015625-2.82421875-.580078125-5.244140625-.869140625-7.2578125-.216796875-1.4541015625.361328125-2.62890625,1.736328125-3.5234375s2.986328125-1.439453125,4.8310546875-1.63671875c1.845703125-.1953125,3.6533203125,0,5.427734375.587890625,1.7724609375.5869140625,2.9482421875,1.6357421875,3.5283203125,3.146484375,1.01171875,2.5732421875,1.75390625,5.341796875,2.224609375,8.3056640625.4697265625,2.9658203125.7412109375,5.9443359375.814453125,8.935546875.0703125,2.9931640625-.037109375,5.9296875-.326171875,8.810546875s-.6884765625,5.5517578125-1.193359375,8.0126953125c-.796875,3.30078125-2.0625,6.4892578125-3.7998046875,9.564453125-1.7373046875,3.0771484375-3.9619140625,5.7900390625-6.67578125,8.138671875-2.7138671875,2.349609375-5.9345703125,4.224609375-9.6611328125,5.6220703125-3.7275390625,1.3984375-7.9423828125,2.041015625-12.646484375,1.9296875-2.966796875-.056640625-5.751953125-.447265625-8.357421875-1.1748046875-2.60546875-.7265625-5.01171875-1.69140625-7.21875-2.89453125-2.208984375-1.2021484375-4.1796875-2.6142578125-5.916015625-4.2373046875-1.736328125-1.62109375-3.220703125-3.3564453125-4.451171875-5.2021484375-2.2431640625-3.4677734375-3.78125-7.3828125-4.61328125-11.74609375s-1.248046875-8.6552734375-1.248046875-12.87890625c0-4.22265625.234375-8.1103515625.705078125-11.6630859375.470703125-3.5517578125.923828125-6.3056640625,1.357421875-8.2646484375.14453125-1.0615234375.6875-1.9423828125,1.62890625-2.642578125.939453125-.69921875,2.04296875-1.216796875,3.310546875-1.552734375,1.265625-.3349609375,2.6220703125-.5029296875,4.0703125-.5029296875,1.447265625,0,2.767578125.1826171875,3.9619140625.544921875,1.1943359375.365234375,2.1708984375.9228515625,2.9306640625,1.6787109375.759765625.7548828125,1.103515625,1.6650390625,1.03125,2.7265625l-1.953125,15.857421875Z"/>
      </g>
      <g>
        <a xlink:href="https://www.notion.so/congruence/B-Event-1f1a5b08a72c49f5ab60f2e0793fd0a8?pvs=4">
          <g>
            <g>
              <path class="cls-2" d="M73.155273437498181,54.63330078125c3.203125,1.5244140625,5.9990234375,3.48828125,8.3828125,5.888671875,2.384765625,2.40234375,4.443359375,5.0732421875,6.1826171875,8.013671875,1.73828125,2.9404296875,3.1884765625,6.0859375,4.3525390625,9.4365234375,1.1630859375,3.353515625,2.1279296875,6.7421875,2.8916015625,10.1640625,1.681640625,6.7568359375,2.88671875,13.630859375,3.6171875,20.6259765625.7275390625,6.99609375,1.177734375,14.0556640625,1.349609375,21.1748046875.001953125,2.0283203125-.025390625,3.693359375-.0810546875,4.9931640625-.05859375,1.302734375-.275390625,2.3759765625-.65234375,3.21484375-.3779296875.8427734375-.9501953125,1.537109375-1.7158203125,2.0859375-.767578125.548828125-1.8583984375,1.08154296875-3.275390625,1.60302734375-1.357421875.271484375-2.7783203125.5078125-4.2607421875.708984375-1.484375.201171875-2.9072265625-.08984375-4.2666015625-.869140625-1.2734375-.70751953125-2.392578125-1.99658203125-3.353515625-3.86376953125-.9619140625-1.8681640625-1.630859375-4.611328125-2.00390625-8.2294921875l-.09765625-1.208984375c-2.03515625-.078125-4.4462890625-.0849609375-7.23828125-.021484375-2.79296875.0654296875-5.640625.1953125-8.5439453125.3876953125-2.90234375.1962890625-5.7041015625.4013671875-8.4013671875.6201171875-2.7001953125.21875-4.9755859375.40234375-6.8271484375.552734375-.0224609375.732421875-.0244140625,1.9482421875-.0087890625,3.6494140625.0166015625,1.701171875-.109375,3.4150390625-.3740234375,5.138671875-.2666015625,1.724609375-.6875,3.29931640625-1.259765625,4.72509765625-.57421875,1.423828125-1.4609375,2.224609375-2.6630859375,2.404296875-1.1220703125.169921875-2.4033203125.35546875-3.8466796875.5546875-1.443359375.1953125-2.8671875.150390625-4.2685546875-.140625-1.396484375-.2109375-2.5966796875-.763671875-3.599609375-1.654296875-1.005859375-.892578125-1.6337890625-2.380859375-1.8828125-4.46923828125-.2021484375-2.49609375-.39453125-5.3603515625-.57421875-8.5888671875-.181640625-3.2275390625-.302734375-6.744140625-.3681640625-10.55078125-.09375-3.1552734375-.1103515625-6.6201171875-.0517578125-10.3955078125.0595703125-3.775390625.2705078125-7.6630859375.6357421875-11.666015625.3642578125-4.001953125.931640625-8.0205078125,1.69921875-12.056640625.767578125-4.0341796875,1.8330078125-7.890625,3.197265625-11.5703125,1.36328125-3.6767578125,3.0537109375-7.09765625,5.068359375-10.2607421875,2.0126953125-3.162109375,4.509765625-5.87890625,7.48828125-8.1484375,3.5146484375-2.634765625,7.48828125-4.1337890625,11.9189453125-4.4921875,4.4306640625-.359375,8.7080078125.388671875,12.8310546875,2.244140625ZM48.249023437498181,111.98876953125c5.041015625-.8125,10.0712890625-1.5234375,15.08984375-2.134765625,5.017578125-.607421875,10.0712890625-1.0380859375,15.1591796875-1.2880859375-.2216796875-5.73828125-.8779296875-10.8330078125-1.9677734375-15.287109375-1.0908203125-4.4521484375-2.4072265625-8.17578125-3.9462890625-11.173828125-1.5400390625-2.9951171875-3.263671875-5.2470703125-5.1689453125-6.7568359375-1.90625-1.505859375-3.7861328125-2.185546875-5.638671875-2.03515625-1.611328125.1298828125-3.2158203125,1.091796875-4.8134765625,2.8818359375-1.599609375,1.79296875-3.0146484375,4.33984375-4.24609375,7.6416015625-1.2333984375,3.3037109375-2.2626953125,7.33984375-3.0927734375,12.109375-.830078125,4.7705078125-1.2890625,10.1181640625-1.375,16.04296875Z"/>
              <path class="cls-2" d="M238.291992187498181,82.84912109375c3.765625,2.4521484375,6.6787109375,5.64453125,8.7421875,9.5693359375,2.060546875,3.927734375,2.9453125,8.0927734375,2.654296875,12.494140625-.3271484375,4.9736328125-1.92578125,9.2587890625-4.796875,12.85546875-2.87109375,3.59765625-6.36328125,6.5361328125-10.4755859375,8.814453125-4.1142578125,2.279296875-8.6201171875,3.9423828125-13.521484375,4.9873046875s-9.546875,1.5029296875-13.9365234375,1.3720703125c-.390625.1943359375-.7451171875.3232421875-1.0625.3896484375-.3193359375.06640625-.677734375.15625-1.072265625.2705078125-1.443359375.197265625-2.935546875.318359375-4.470703125.3623046875-1.5380859375.04296875-2.94921875-.107421875-4.232421875-.44921875-1.2861328125-.3388671875-2.4111328125-.9775390625-3.37890625-1.9140625-.96875-.9345703125-1.607421875-2.3212890625-1.91796875-4.1630859375-.234375-.87109375-.4189453125-2.66015625-.5556640625-5.3671875-.1396484375-2.703125-.3251953125-5.9931640625-.556640625-9.8671875-.1591796875-3.9580078125-.365234375-8.2587890625-.6201171875-12.9013671875-.25390625-4.6416015625-.53125-9.30078125-.828125-13.9814453125-.416015625-6.1259765625-.8349609375-12.294921875-1.255859375-18.5048828125-.423828125-6.208984375-1.1708984375-12.4326171875-2.2421875-18.6708984375-.2216796875-.7109375-.1923828125-1.361328125.0849609375-1.9521484375.12109375-.49609375.4462890625-.98828125.974609375-1.4775390625.52734375-.48828125,1.3486328125-.8583984375,2.4638671875-1.1123046875.7978515625-.1435546875,1.6748046875-.337890625,2.62890625-.5771484375s1.9501953125-.44140625,2.9912109375-.6083984375c1.0390625-.1630859375,2.0478515625-.2451171875,3.0205078125-.244140625.9736328125.00390625,1.83203125.09375,2.5771484375.2783203125,4.0625-.896484375,8.369140625-1.2666015625,12.923828125-1.107421875,4.552734375.1591796875,8.888671875.880859375,13.0068359375,2.16796875,4.1181640625,1.2900390625,7.7548828125,3.1630859375,10.9150390625,5.6220703125,3.158203125,2.4619140625,5.3779296875,5.5849609375,6.6572265625,9.373046875.5400390625,1.6591796875.9248046875,3.4140625,1.15625,5.2578125.2294921875,1.84765625.1845703125,3.77734375-.138671875,5.7890625-.32421875,2.013671875-.9423828125,4.130859375-1.857421875,6.3525390625-.9140625,2.2236328125-2.20703125,4.5390625-3.876953125,6.9423828125ZM206.298828124998181,78.26513671875c3.8798828125-.1494140625,7.109375-.818359375,9.689453125-2,2.580078125-1.1826171875,4.470703125-2.6123046875,5.6728515625-4.2919921875,1.201171875-1.677734375,1.70703125-3.4404296875,1.517578125-5.291015625-.1923828125-1.849609375-1.0302734375-3.443359375-2.5166015625-4.783203125-1.4873046875-1.337890625-3.6318359375-2.2783203125-6.4306640625-2.822265625-2.8017578125-.54296875-6.2744140625-.36328125-10.416015625.5390625.49609375,3.123046875.9287109375,6.208984375,1.296875,9.2607421875.369140625,3.052734375.763671875,6.181640625,1.1865234375,9.388671875ZM209.500976562498181,113.27587890625c4.388671875.1328125,8.037109375-.365234375,10.9462890625-1.494140625,2.9072265625-1.126953125,5.044921875-2.515625,6.412109375-4.16796875,1.365234375-1.650390625,1.99609375-3.3642578125,1.89453125-5.140625-.1044921875-1.7734375-.9326171875-3.2470703125-2.4873046875-4.4189453125-1.5537109375-1.1708984375-3.83984375-1.857421875-6.85546875-2.060546875-3.0166015625-.19921875-6.73828125.4052734375-11.1630859375,1.81640625l1.2529296875,15.4658203125Z"/>
            </g>
            <g>
              <path class="cls-2" d="M73.155273437498181,54.63330078125c3.203125,1.5244140625,5.9990234375,3.48828125,8.3828125,5.888671875,2.384765625,2.40234375,4.443359375,5.0732421875,6.1826171875,8.013671875,1.73828125,2.9404296875,3.1884765625,6.0859375,4.3525390625,9.4365234375,1.1630859375,3.353515625,2.1279296875,6.7421875,2.8916015625,10.1640625,1.681640625,6.7568359375,2.88671875,13.630859375,3.6171875,20.6259765625.7275390625,6.99609375,1.177734375,14.0556640625,1.349609375,21.1748046875.001953125,2.0283203125-.025390625,3.693359375-.0810546875,4.9931640625-.05859375,1.302734375-.275390625,2.3759765625-.65234375,3.21484375-.3779296875.8427734375-.9501953125,1.537109375-1.7158203125,2.0859375-.767578125.548828125-1.8583984375,1.08154296875-3.275390625,1.60302734375-1.357421875.271484375-2.7783203125.5078125-4.2607421875.708984375-1.484375.201171875-2.9072265625-.08984375-4.2666015625-.869140625-1.2734375-.70751953125-2.392578125-1.99658203125-3.353515625-3.86376953125-.9619140625-1.8681640625-1.630859375-4.611328125-2.00390625-8.2294921875l-.09765625-1.208984375c-2.03515625-.078125-4.4462890625-.0849609375-7.23828125-.021484375-2.79296875.0654296875-5.640625.1953125-8.5439453125.3876953125-2.90234375.1962890625-5.7041015625.4013671875-8.4013671875.6201171875-2.7001953125.21875-4.9755859375.40234375-6.8271484375.552734375-.0224609375.732421875-.0244140625,1.9482421875-.0087890625,3.6494140625.0166015625,1.701171875-.109375,3.4150390625-.3740234375,5.138671875-.2666015625,1.724609375-.6875,3.29931640625-1.259765625,4.72509765625-.57421875,1.423828125-1.4609375,2.224609375-2.6630859375,2.404296875-1.1220703125.169921875-2.4033203125.35546875-3.8466796875.5546875-1.443359375.1953125-2.8671875.150390625-4.2685546875-.140625-1.396484375-.2109375-2.5966796875-.763671875-3.599609375-1.654296875-1.005859375-.892578125-1.6337890625-2.380859375-1.8828125-4.46923828125-.2021484375-2.49609375-.39453125-5.3603515625-.57421875-8.5888671875-.181640625-3.2275390625-.302734375-6.744140625-.3681640625-10.55078125-.09375-3.1552734375-.1103515625-6.6201171875-.0517578125-10.3955078125.0595703125-3.775390625.2705078125-7.6630859375.6357421875-11.666015625.3642578125-4.001953125.931640625-8.0205078125,1.69921875-12.056640625.767578125-4.0341796875,1.8330078125-7.890625,3.197265625-11.5703125,1.36328125-3.6767578125,3.0537109375-7.09765625,5.068359375-10.2607421875,2.0126953125-3.162109375,4.509765625-5.87890625,7.48828125-8.1484375,3.5146484375-2.634765625,7.48828125-4.1337890625,11.9189453125-4.4921875,4.4306640625-.359375,8.7080078125.388671875,12.8310546875,2.244140625ZM48.249023437498181,111.98876953125c5.041015625-.8125,10.0712890625-1.5234375,15.08984375-2.134765625,5.017578125-.607421875,10.0712890625-1.0380859375,15.1591796875-1.2880859375-.2216796875-5.73828125-.8779296875-10.8330078125-1.9677734375-15.287109375-1.0908203125-4.4521484375-2.4072265625-8.17578125-3.9462890625-11.173828125-1.5400390625-2.9951171875-3.263671875-5.2470703125-5.1689453125-6.7568359375-1.90625-1.505859375-3.7861328125-2.185546875-5.638671875-2.03515625-1.611328125.1298828125-3.2158203125,1.091796875-4.8134765625,2.8818359375-1.599609375,1.79296875-3.0146484375,4.33984375-4.24609375,7.6416015625-1.2333984375,3.3037109375-2.2626953125,7.33984375-3.0927734375,12.109375-.830078125,4.7705078125-1.2890625,10.1181640625-1.375,16.04296875Z"/>
              <path class="cls-2" d="M238.291992187498181,82.84912109375c3.765625,2.4521484375,6.6787109375,5.64453125,8.7421875,9.5693359375,2.060546875,3.927734375,2.9453125,8.0927734375,2.654296875,12.494140625-.3271484375,4.9736328125-1.92578125,9.2587890625-4.796875,12.85546875-2.87109375,3.59765625-6.36328125,6.5361328125-10.4755859375,8.814453125-4.1142578125,2.279296875-8.6201171875,3.9423828125-13.521484375,4.9873046875s-9.546875,1.5029296875-13.9365234375,1.3720703125c-.390625.1943359375-.7451171875.3232421875-1.0625.3896484375-.3193359375.06640625-.677734375.15625-1.072265625.2705078125-1.443359375.197265625-2.935546875.318359375-4.470703125.3623046875-1.5380859375.04296875-2.94921875-.107421875-4.232421875-.44921875-1.2861328125-.3388671875-2.4111328125-.9775390625-3.37890625-1.9140625-.96875-.9345703125-1.607421875-2.3212890625-1.91796875-4.1630859375-.234375-.87109375-.4189453125-2.66015625-.5556640625-5.3671875-.1396484375-2.703125-.3251953125-5.9931640625-.556640625-9.8671875-.1591796875-3.9580078125-.365234375-8.2587890625-.6201171875-12.9013671875-.25390625-4.6416015625-.53125-9.30078125-.828125-13.9814453125-.416015625-6.1259765625-.8349609375-12.294921875-1.255859375-18.5048828125-.423828125-6.208984375-1.1708984375-12.4326171875-2.2421875-18.6708984375-.2216796875-.7109375-.1923828125-1.361328125.0849609375-1.9521484375.12109375-.49609375.4462890625-.98828125.974609375-1.4775390625.52734375-.48828125,1.3486328125-.8583984375,2.4638671875-1.1123046875.7978515625-.1435546875,1.6748046875-.337890625,2.62890625-.5771484375s1.9501953125-.44140625,2.9912109375-.6083984375c1.0390625-.1630859375,2.0478515625-.2451171875,3.0205078125-.244140625.9736328125.00390625,1.83203125.09375,2.5771484375.2783203125,4.0625-.896484375,8.369140625-1.2666015625,12.923828125-1.107421875,4.552734375.1591796875,8.888671875.880859375,13.0068359375,2.16796875,4.1181640625,1.2900390625,7.7548828125,3.1630859375,10.9150390625,5.6220703125,3.158203125,2.4619140625,5.3779296875,5.5849609375,6.6572265625,9.373046875.5400390625,1.6591796875.9248046875,3.4140625,1.15625,5.2578125.2294921875,1.84765625.1845703125,3.77734375-.138671875,5.7890625-.32421875,2.013671875-.9423828125,4.130859375-1.857421875,6.3525390625-.9140625,2.2236328125-2.20703125,4.5390625-3.876953125,6.9423828125ZM206.298828124998181,78.26513671875c3.8798828125-.1494140625,7.109375-.818359375,9.689453125-2,2.580078125-1.1826171875,4.470703125-2.6123046875,5.6728515625-4.2919921875,1.201171875-1.677734375,1.70703125-3.4404296875,1.517578125-5.291015625-.1923828125-1.849609375-1.0302734375-3.443359375-2.5166015625-4.783203125-1.4873046875-1.337890625-3.6318359375-2.2783203125-6.4306640625-2.822265625-2.8017578125-.54296875-6.2744140625-.36328125-10.416015625.5390625.49609375,3.123046875.9287109375,6.208984375,1.296875,9.2607421875.369140625,3.052734375.763671875,6.181640625,1.1865234375,9.388671875ZM209.500976562498181,113.27587890625c4.388671875.1328125,8.037109375-.365234375,10.9462890625-1.494140625,2.9072265625-1.126953125,5.044921875-2.515625,6.412109375-4.16796875,1.365234375-1.650390625,1.99609375-3.3642578125,1.89453125-5.140625-.1044921875-1.7734375-.9326171875-3.2470703125-2.4873046875-4.4189453125-1.5537109375-1.1708984375-3.83984375-1.857421875-6.85546875-2.060546875-3.0166015625-.19921875-6.73828125.4052734375-11.1630859375,1.81640625l1.2529296875,15.4658203125Z"/>
            </g>
            <g>
              <path class="cls-2" d="M73.155273437498181,54.63330078125c3.203125,1.5244140625,5.9990234375,3.48828125,8.3828125,5.888671875,2.384765625,2.40234375,4.443359375,5.0732421875,6.1826171875,8.013671875,1.73828125,2.9404296875,3.1884765625,6.0859375,4.3525390625,9.4365234375,1.1630859375,3.353515625,2.1279296875,6.7421875,2.8916015625,10.1640625,1.681640625,6.7568359375,2.88671875,13.630859375,3.6171875,20.6259765625.7275390625,6.99609375,1.177734375,14.0556640625,1.349609375,21.1748046875.001953125,2.0283203125-.025390625,3.693359375-.0810546875,4.9931640625-.05859375,1.302734375-.275390625,2.3759765625-.65234375,3.21484375-.3779296875.8427734375-.9501953125,1.537109375-1.7158203125,2.0859375-.767578125.548828125-1.8583984375,1.08154296875-3.275390625,1.60302734375-1.357421875.271484375-2.7783203125.5078125-4.2607421875.708984375-1.484375.201171875-2.9072265625-.08984375-4.2666015625-.869140625-1.2734375-.70751953125-2.392578125-1.99658203125-3.353515625-3.86376953125-.9619140625-1.8681640625-1.630859375-4.611328125-2.00390625-8.2294921875l-.09765625-1.208984375c-2.03515625-.078125-4.4462890625-.0849609375-7.23828125-.021484375-2.79296875.0654296875-5.640625.1953125-8.5439453125.3876953125-2.90234375.1962890625-5.7041015625.4013671875-8.4013671875.6201171875-2.7001953125.21875-4.9755859375.40234375-6.8271484375.552734375-.0224609375.732421875-.0244140625,1.9482421875-.0087890625,3.6494140625.0166015625,1.701171875-.109375,3.4150390625-.3740234375,5.138671875-.2666015625,1.724609375-.6875,3.29931640625-1.259765625,4.72509765625-.57421875,1.423828125-1.4609375,2.224609375-2.6630859375,2.404296875-1.1220703125.169921875-2.4033203125.35546875-3.8466796875.5546875-1.443359375.1953125-2.8671875.150390625-4.2685546875-.140625-1.396484375-.2109375-2.5966796875-.763671875-3.599609375-1.654296875-1.005859375-.892578125-1.6337890625-2.380859375-1.8828125-4.46923828125-.2021484375-2.49609375-.39453125-5.3603515625-.57421875-8.5888671875-.181640625-3.2275390625-.302734375-6.744140625-.3681640625-10.55078125-.09375-3.1552734375-.1103515625-6.6201171875-.0517578125-10.3955078125.0595703125-3.775390625.2705078125-7.6630859375.6357421875-11.666015625.3642578125-4.001953125.931640625-8.0205078125,1.69921875-12.056640625.767578125-4.0341796875,1.8330078125-7.890625,3.197265625-11.5703125,1.36328125-3.6767578125,3.0537109375-7.09765625,5.068359375-10.2607421875,2.0126953125-3.162109375,4.509765625-5.87890625,7.48828125-8.1484375,3.5146484375-2.634765625,7.48828125-4.1337890625,11.9189453125-4.4921875,4.4306640625-.359375,8.7080078125.388671875,12.8310546875,2.244140625ZM48.249023437498181,111.98876953125c5.041015625-.8125,10.0712890625-1.5234375,15.08984375-2.134765625,5.017578125-.607421875,10.0712890625-1.0380859375,15.1591796875-1.2880859375-.2216796875-5.73828125-.8779296875-10.8330078125-1.9677734375-15.287109375-1.0908203125-4.4521484375-2.4072265625-8.17578125-3.9462890625-11.173828125-1.5400390625-2.9951171875-3.263671875-5.2470703125-5.1689453125-6.7568359375-1.90625-1.505859375-3.7861328125-2.185546875-5.638671875-2.03515625-1.611328125.1298828125-3.2158203125,1.091796875-4.8134765625,2.8818359375-1.599609375,1.79296875-3.0146484375,4.33984375-4.24609375,7.6416015625-1.2333984375,3.3037109375-2.2626953125,7.33984375-3.0927734375,12.109375-.830078125,4.7705078125-1.2890625,10.1181640625-1.375,16.04296875Z"/>
              <path class="cls-2" d="M238.291992187498181,82.84912109375c3.765625,2.4521484375,6.6787109375,5.64453125,8.7421875,9.5693359375,2.060546875,3.927734375,2.9453125,8.0927734375,2.654296875,12.494140625-.3271484375,4.9736328125-1.92578125,9.2587890625-4.796875,12.85546875-2.87109375,3.59765625-6.36328125,6.5361328125-10.4755859375,8.814453125-4.1142578125,2.279296875-8.6201171875,3.9423828125-13.521484375,4.9873046875s-9.546875,1.5029296875-13.9365234375,1.3720703125c-.390625.1943359375-.7451171875.3232421875-1.0625.3896484375-.3193359375.06640625-.677734375.15625-1.072265625.2705078125-1.443359375.197265625-2.935546875.318359375-4.470703125.3623046875-1.5380859375.04296875-2.94921875-.107421875-4.232421875-.44921875-1.2861328125-.3388671875-2.4111328125-.9775390625-3.37890625-1.9140625-.96875-.9345703125-1.607421875-2.3212890625-1.91796875-4.1630859375-.234375-.87109375-.4189453125-2.66015625-.5556640625-5.3671875-.1396484375-2.703125-.3251953125-5.9931640625-.556640625-9.8671875-.1591796875-3.9580078125-.365234375-8.2587890625-.6201171875-12.9013671875-.25390625-4.6416015625-.53125-9.30078125-.828125-13.9814453125-.416015625-6.1259765625-.8349609375-12.294921875-1.255859375-18.5048828125-.423828125-6.208984375-1.1708984375-12.4326171875-2.2421875-18.6708984375-.2216796875-.7109375-.1923828125-1.361328125.0849609375-1.9521484375.12109375-.49609375.4462890625-.98828125.974609375-1.4775390625.52734375-.48828125,1.3486328125-.8583984375,2.4638671875-1.1123046875.7978515625-.1435546875,1.6748046875-.337890625,2.62890625-.5771484375s1.9501953125-.44140625,2.9912109375-.6083984375c1.0390625-.1630859375,2.0478515625-.2451171875,3.0205078125-.244140625.9736328125.00390625,1.83203125.09375,2.5771484375.2783203125,4.0625-.896484375,8.369140625-1.2666015625,12.923828125-1.107421875,4.552734375.1591796875,8.888671875.880859375,13.0068359375,2.16796875,4.1181640625,1.2900390625,7.7548828125,3.1630859375,10.9150390625,5.6220703125,3.158203125,2.4619140625,5.3779296875,5.5849609375,6.6572265625,9.373046875.5400390625,1.6591796875.9248046875,3.4140625,1.15625,5.2578125.2294921875,1.84765625.1845703125,3.77734375-.138671875,5.7890625-.32421875,2.013671875-.9423828125,4.130859375-1.857421875,6.3525390625-.9140625,2.2236328125-2.20703125,4.5390625-3.876953125,6.9423828125ZM206.298828124998181,78.26513671875c3.8798828125-.1494140625,7.109375-.818359375,9.689453125-2,2.580078125-1.1826171875,4.470703125-2.6123046875,5.6728515625-4.2919921875,1.201171875-1.677734375,1.70703125-3.4404296875,1.517578125-5.291015625-.1923828125-1.849609375-1.0302734375-3.443359375-2.5166015625-4.783203125-1.4873046875-1.337890625-3.6318359375-2.2783203125-6.4306640625-2.822265625-2.8017578125-.54296875-6.2744140625-.36328125-10.416015625.5390625.49609375,3.123046875.9287109375,6.208984375,1.296875,9.2607421875.369140625,3.052734375.763671875,6.181640625,1.1865234375,9.388671875ZM209.500976562498181,113.27587890625c4.388671875.1328125,8.037109375-.365234375,10.9462890625-1.494140625,2.9072265625-1.126953125,5.044921875-2.515625,6.412109375-4.16796875,1.365234375-1.650390625,1.99609375-3.3642578125,1.89453125-5.140625-.1044921875-1.7734375-.9326171875-3.2470703125-2.4873046875-4.4189453125-1.5537109375-1.1708984375-3.83984375-1.857421875-6.85546875-2.060546875-3.0166015625-.19921875-6.73828125.4052734375-11.1630859375,1.81640625l1.2529296875,15.4658203125Z"/>
            </g>
          </g>
        </a>
        <path class="cls-2" d="M129.183593749998181,90.9443359375c-.146484375,3.1884765625-.216796875,6.1669921875-.216796875,8.9365234375,0,2.7685546875.3603515625,5.4111328125,1.0849609375,7.9287109375.7216796875,2.7412109375,1.8447265625,4.978515625,3.3642578125,6.7119140625,1.5205078125,1.734375,3.23828125,3.0078125,5.15625,3.8173828125,1.9169921875.8115234375,3.908203125,1.1474609375,5.970703125,1.0068359375,2.0625-.138671875,4.052734375-.6708984375,5.970703125-1.59375,1.916015625-.9228515625,3.63671875-2.2236328125,5.15625-3.9013671875,1.51953125-1.6787109375,2.640625-3.7197265625,3.365234375-6.125.7216796875-2.236328125,1.228515625-4.82421875,1.51953125-7.76171875.287109375-2.9365234375.43359375-5.9150390625.43359375-8.935546875s-.146484375-5.9423828125-.43359375-8.767578125c-.291015625-2.82421875-.580078125-5.244140625-.869140625-7.2578125-.216796875-1.4541015625.361328125-2.62890625,1.736328125-3.5234375s2.986328125-1.439453125,4.8310546875-1.63671875c1.845703125-.1953125,3.6533203125,0,5.427734375.587890625,1.7724609375.5869140625,2.9482421875,1.6357421875,3.5283203125,3.146484375,1.01171875,2.5732421875,1.75390625,5.341796875,2.224609375,8.3056640625.4697265625,2.9658203125.7412109375,5.9443359375.814453125,8.935546875.0703125,2.9931640625-.037109375,5.9296875-.326171875,8.810546875s-.6884765625,5.5517578125-1.193359375,8.0126953125c-.796875,3.30078125-2.0625,6.4892578125-3.7998046875,9.564453125-1.7373046875,3.0771484375-3.9619140625,5.7900390625-6.67578125,8.138671875-2.7138671875,2.349609375-5.9345703125,4.224609375-9.6611328125,5.6220703125-3.7275390625,1.3984375-7.9423828125,2.041015625-12.646484375,1.9296875-2.966796875-.056640625-5.751953125-.447265625-8.357421875-1.1748046875-2.60546875-.7265625-5.01171875-1.69140625-7.21875-2.89453125-2.208984375-1.2021484375-4.1796875-2.6142578125-5.916015625-4.2373046875-1.736328125-1.62109375-3.220703125-3.3564453125-4.451171875-5.2021484375-2.2431640625-3.4677734375-3.78125-7.3828125-4.61328125-11.74609375s-1.248046875-8.6552734375-1.248046875-12.87890625c0-4.22265625.234375-8.1103515625.705078125-11.6630859375.470703125-3.5517578125.923828125-6.3056640625,1.357421875-8.2646484375.14453125-1.0615234375.6875-1.9423828125,1.62890625-2.642578125.939453125-.69921875,2.04296875-1.216796875,3.310546875-1.552734375,1.265625-.3349609375,2.6220703125-.5029296875,4.0703125-.5029296875,1.447265625,0,2.767578125.1826171875,3.9619140625.544921875,1.1943359375.365234375,2.1708984375.9228515625,2.9306640625,1.6787109375.759765625.7548828125,1.103515625,1.6650390625,1.03125,2.7265625l-1.953125,15.857421875Z"/>
      </g>
      <g>
        <a xlink:href="https://www.notion.so/congruence/B-Event-1f1a5b08a72c49f5ab60f2e0793fd0a8?pvs=4">
          <g>
            <g>
              <path class="cls-3" d="M73.155273437498181,54.63330078125c3.203125,1.5244140625,5.9990234375,3.48828125,8.3828125,5.888671875,2.384765625,2.40234375,4.443359375,5.0732421875,6.1826171875,8.013671875,1.73828125,2.9404296875,3.1884765625,6.0859375,4.3525390625,9.4365234375,1.1630859375,3.353515625,2.1279296875,6.7421875,2.8916015625,10.1640625,1.681640625,6.7568359375,2.88671875,13.630859375,3.6171875,20.6259765625.7275390625,6.99609375,1.177734375,14.0556640625,1.349609375,21.1748046875.001953125,2.0283203125-.025390625,3.693359375-.0810546875,4.9931640625-.05859375,1.302734375-.275390625,2.3759765625-.65234375,3.21484375-.3779296875.8427734375-.9501953125,1.537109375-1.7158203125,2.0859375-.767578125.548828125-1.8583984375,1.08154296875-3.275390625,1.60302734375-1.357421875.271484375-2.7783203125.5078125-4.2607421875.708984375-1.484375.201171875-2.9072265625-.08984375-4.2666015625-.869140625-1.2734375-.70751953125-2.392578125-1.99658203125-3.353515625-3.86376953125-.9619140625-1.8681640625-1.630859375-4.611328125-2.00390625-8.2294921875l-.09765625-1.208984375c-2.03515625-.078125-4.4462890625-.0849609375-7.23828125-.021484375-2.79296875.0654296875-5.640625.1953125-8.5439453125.3876953125-2.90234375.1962890625-5.7041015625.4013671875-8.4013671875.6201171875-2.7001953125.21875-4.9755859375.40234375-6.8271484375.552734375-.0224609375.732421875-.0244140625,1.9482421875-.0087890625,3.6494140625.0166015625,1.701171875-.109375,3.4150390625-.3740234375,5.138671875-.2666015625,1.724609375-.6875,3.29931640625-1.259765625,4.72509765625-.57421875,1.423828125-1.4609375,2.224609375-2.6630859375,2.404296875-1.1220703125.169921875-2.4033203125.35546875-3.8466796875.5546875-1.443359375.1953125-2.8671875.150390625-4.2685546875-.140625-1.396484375-.2109375-2.5966796875-.763671875-3.599609375-1.654296875-1.005859375-.892578125-1.6337890625-2.380859375-1.8828125-4.46923828125-.2021484375-2.49609375-.39453125-5.3603515625-.57421875-8.5888671875-.181640625-3.2275390625-.302734375-6.744140625-.3681640625-10.55078125-.09375-3.1552734375-.1103515625-6.6201171875-.0517578125-10.3955078125.0595703125-3.775390625.2705078125-7.6630859375.6357421875-11.666015625.3642578125-4.001953125.931640625-8.0205078125,1.69921875-12.056640625.767578125-4.0341796875,1.8330078125-7.890625,3.197265625-11.5703125,1.36328125-3.6767578125,3.0537109375-7.09765625,5.068359375-10.2607421875,2.0126953125-3.162109375,4.509765625-5.87890625,7.48828125-8.1484375,3.5146484375-2.634765625,7.48828125-4.1337890625,11.9189453125-4.4921875,4.4306640625-.359375,8.7080078125.388671875,12.8310546875,2.244140625ZM48.249023437498181,111.98876953125c5.041015625-.8125,10.0712890625-1.5234375,15.08984375-2.134765625,5.017578125-.607421875,10.0712890625-1.0380859375,15.1591796875-1.2880859375-.2216796875-5.73828125-.8779296875-10.8330078125-1.9677734375-15.287109375-1.0908203125-4.4521484375-2.4072265625-8.17578125-3.9462890625-11.173828125-1.5400390625-2.9951171875-3.263671875-5.2470703125-5.1689453125-6.7568359375-1.90625-1.505859375-3.7861328125-2.185546875-5.638671875-2.03515625-1.611328125.1298828125-3.2158203125,1.091796875-4.8134765625,2.8818359375-1.599609375,1.79296875-3.0146484375,4.33984375-4.24609375,7.6416015625-1.2333984375,3.3037109375-2.2626953125,7.33984375-3.0927734375,12.109375-.830078125,4.7705078125-1.2890625,10.1181640625-1.375,16.04296875Z"/>
              <path class="cls-3" d="M238.291992187498181,82.84912109375c3.765625,2.4521484375,6.6787109375,5.64453125,8.7421875,9.5693359375,2.060546875,3.927734375,2.9453125,8.0927734375,2.654296875,12.494140625-.3271484375,4.9736328125-1.92578125,9.2587890625-4.796875,12.85546875-2.87109375,3.59765625-6.36328125,6.5361328125-10.4755859375,8.814453125-4.1142578125,2.279296875-8.6201171875,3.9423828125-13.521484375,4.9873046875s-9.546875,1.5029296875-13.9365234375,1.3720703125c-.390625.1943359375-.7451171875.3232421875-1.0625.3896484375-.3193359375.06640625-.677734375.15625-1.072265625.2705078125-1.443359375.197265625-2.935546875.318359375-4.470703125.3623046875-1.5380859375.04296875-2.94921875-.107421875-4.232421875-.44921875-1.2861328125-.3388671875-2.4111328125-.9775390625-3.37890625-1.9140625-.96875-.9345703125-1.607421875-2.3212890625-1.91796875-4.1630859375-.234375-.87109375-.4189453125-2.66015625-.5556640625-5.3671875-.1396484375-2.703125-.3251953125-5.9931640625-.556640625-9.8671875-.1591796875-3.9580078125-.365234375-8.2587890625-.6201171875-12.9013671875-.25390625-4.6416015625-.53125-9.30078125-.828125-13.9814453125-.416015625-6.1259765625-.8349609375-12.294921875-1.255859375-18.5048828125-.423828125-6.208984375-1.1708984375-12.4326171875-2.2421875-18.6708984375-.2216796875-.7109375-.1923828125-1.361328125.0849609375-1.9521484375.12109375-.49609375.4462890625-.98828125.974609375-1.4775390625.52734375-.48828125,1.3486328125-.8583984375,2.4638671875-1.1123046875.7978515625-.1435546875,1.6748046875-.337890625,2.62890625-.5771484375s1.9501953125-.44140625,2.9912109375-.6083984375c1.0390625-.1630859375,2.0478515625-.2451171875,3.0205078125-.244140625.9736328125.00390625,1.83203125.09375,2.5771484375.2783203125,4.0625-.896484375,8.369140625-1.2666015625,12.923828125-1.107421875,4.552734375.1591796875,8.888671875.880859375,13.0068359375,2.16796875,4.1181640625,1.2900390625,7.7548828125,3.1630859375,10.9150390625,5.6220703125,3.158203125,2.4619140625,5.3779296875,5.5849609375,6.6572265625,9.373046875.5400390625,1.6591796875.9248046875,3.4140625,1.15625,5.2578125.2294921875,1.84765625.1845703125,3.77734375-.138671875,5.7890625-.32421875,2.013671875-.9423828125,4.130859375-1.857421875,6.3525390625-.9140625,2.2236328125-2.20703125,4.5390625-3.876953125,6.9423828125ZM206.298828124998181,78.26513671875c3.8798828125-.1494140625,7.109375-.818359375,9.689453125-2,2.580078125-1.1826171875,4.470703125-2.6123046875,5.6728515625-4.2919921875,1.201171875-1.677734375,1.70703125-3.4404296875,1.517578125-5.291015625-.1923828125-1.849609375-1.0302734375-3.443359375-2.5166015625-4.783203125-1.4873046875-1.337890625-3.6318359375-2.2783203125-6.4306640625-2.822265625-2.8017578125-.54296875-6.2744140625-.36328125-10.416015625.5390625.49609375,3.123046875.9287109375,6.208984375,1.296875,9.2607421875.369140625,3.052734375.763671875,6.181640625,1.1865234375,9.388671875ZM209.500976562498181,113.27587890625c4.388671875.1328125,8.037109375-.365234375,10.9462890625-1.494140625,2.9072265625-1.126953125,5.044921875-2.515625,6.412109375-4.16796875,1.365234375-1.650390625,1.99609375-3.3642578125,1.89453125-5.140625-.1044921875-1.7734375-.9326171875-3.2470703125-2.4873046875-4.4189453125-1.5537109375-1.1708984375-3.83984375-1.857421875-6.85546875-2.060546875-3.0166015625-.19921875-6.73828125.4052734375-11.1630859375,1.81640625l1.2529296875,15.4658203125Z"/>
            </g>
            <g>
              <path class="cls-3" d="M73.155273437498181,54.63330078125c3.203125,1.5244140625,5.9990234375,3.48828125,8.3828125,5.888671875,2.384765625,2.40234375,4.443359375,5.0732421875,6.1826171875,8.013671875,1.73828125,2.9404296875,3.1884765625,6.0859375,4.3525390625,9.4365234375,1.1630859375,3.353515625,2.1279296875,6.7421875,2.8916015625,10.1640625,1.681640625,6.7568359375,2.88671875,13.630859375,3.6171875,20.6259765625.7275390625,6.99609375,1.177734375,14.0556640625,1.349609375,21.1748046875.001953125,2.0283203125-.025390625,3.693359375-.0810546875,4.9931640625-.05859375,1.302734375-.275390625,2.3759765625-.65234375,3.21484375-.3779296875.8427734375-.9501953125,1.537109375-1.7158203125,2.0859375-.767578125.548828125-1.8583984375,1.08154296875-3.275390625,1.60302734375-1.357421875.271484375-2.7783203125.5078125-4.2607421875.708984375-1.484375.201171875-2.9072265625-.08984375-4.2666015625-.869140625-1.2734375-.70751953125-2.392578125-1.99658203125-3.353515625-3.86376953125-.9619140625-1.8681640625-1.630859375-4.611328125-2.00390625-8.2294921875l-.09765625-1.208984375c-2.03515625-.078125-4.4462890625-.0849609375-7.23828125-.021484375-2.79296875.0654296875-5.640625.1953125-8.5439453125.3876953125-2.90234375.1962890625-5.7041015625.4013671875-8.4013671875.6201171875-2.7001953125.21875-4.9755859375.40234375-6.8271484375.552734375-.0224609375.732421875-.0244140625,1.9482421875-.0087890625,3.6494140625.0166015625,1.701171875-.109375,3.4150390625-.3740234375,5.138671875-.2666015625,1.724609375-.6875,3.29931640625-1.259765625,4.72509765625-.57421875,1.423828125-1.4609375,2.224609375-2.6630859375,2.404296875-1.1220703125.169921875-2.4033203125.35546875-3.8466796875.5546875-1.443359375.1953125-2.8671875.150390625-4.2685546875-.140625-1.396484375-.2109375-2.5966796875-.763671875-3.599609375-1.654296875-1.005859375-.892578125-1.6337890625-2.380859375-1.8828125-4.46923828125-.2021484375-2.49609375-.39453125-5.3603515625-.57421875-8.5888671875-.181640625-3.2275390625-.302734375-6.744140625-.3681640625-10.55078125-.09375-3.1552734375-.1103515625-6.6201171875-.0517578125-10.3955078125.0595703125-3.775390625.2705078125-7.6630859375.6357421875-11.666015625.3642578125-4.001953125.931640625-8.0205078125,1.69921875-12.056640625.767578125-4.0341796875,1.8330078125-7.890625,3.197265625-11.5703125,1.36328125-3.6767578125,3.0537109375-7.09765625,5.068359375-10.2607421875,2.0126953125-3.162109375,4.509765625-5.87890625,7.48828125-8.1484375,3.5146484375-2.634765625,7.48828125-4.1337890625,11.9189453125-4.4921875,4.4306640625-.359375,8.7080078125.388671875,12.8310546875,2.244140625ZM48.249023437498181,111.98876953125c5.041015625-.8125,10.0712890625-1.5234375,15.08984375-2.134765625,5.017578125-.607421875,10.0712890625-1.0380859375,15.1591796875-1.2880859375-.2216796875-5.73828125-.8779296875-10.8330078125-1.9677734375-15.287109375-1.0908203125-4.4521484375-2.4072265625-8.17578125-3.9462890625-11.173828125-1.5400390625-2.9951171875-3.263671875-5.2470703125-5.1689453125-6.7568359375-1.90625-1.505859375-3.7861328125-2.185546875-5.638671875-2.03515625-1.611328125.1298828125-3.2158203125,1.091796875-4.8134765625,2.8818359375-1.599609375,1.79296875-3.0146484375,4.33984375-4.24609375,7.6416015625-1.2333984375,3.3037109375-2.2626953125,7.33984375-3.0927734375,12.109375-.830078125,4.7705078125-1.2890625,10.1181640625-1.375,16.04296875Z"/>
              <path class="cls-3" d="M238.291992187498181,82.84912109375c3.765625,2.4521484375,6.6787109375,5.64453125,8.7421875,9.5693359375,2.060546875,3.927734375,2.9453125,8.0927734375,2.654296875,12.494140625-.3271484375,4.9736328125-1.92578125,9.2587890625-4.796875,12.85546875-2.87109375,3.59765625-6.36328125,6.5361328125-10.4755859375,8.814453125-4.1142578125,2.279296875-8.6201171875,3.9423828125-13.521484375,4.9873046875s-9.546875,1.5029296875-13.9365234375,1.3720703125c-.390625.1943359375-.7451171875.3232421875-1.0625.3896484375-.3193359375.06640625-.677734375.15625-1.072265625.2705078125-1.443359375.197265625-2.935546875.318359375-4.470703125.3623046875-1.5380859375.04296875-2.94921875-.107421875-4.232421875-.44921875-1.2861328125-.3388671875-2.4111328125-.9775390625-3.37890625-1.9140625-.96875-.9345703125-1.607421875-2.3212890625-1.91796875-4.1630859375-.234375-.87109375-.4189453125-2.66015625-.5556640625-5.3671875-.1396484375-2.703125-.3251953125-5.9931640625-.556640625-9.8671875-.1591796875-3.9580078125-.365234375-8.2587890625-.6201171875-12.9013671875-.25390625-4.6416015625-.53125-9.30078125-.828125-13.9814453125-.416015625-6.1259765625-.8349609375-12.294921875-1.255859375-18.5048828125-.423828125-6.208984375-1.1708984375-12.4326171875-2.2421875-18.6708984375-.2216796875-.7109375-.1923828125-1.361328125.0849609375-1.9521484375.12109375-.49609375.4462890625-.98828125.974609375-1.4775390625.52734375-.48828125,1.3486328125-.8583984375,2.4638671875-1.1123046875.7978515625-.1435546875,1.6748046875-.337890625,2.62890625-.5771484375s1.9501953125-.44140625,2.9912109375-.6083984375c1.0390625-.1630859375,2.0478515625-.2451171875,3.0205078125-.244140625.9736328125.00390625,1.83203125.09375,2.5771484375.2783203125,4.0625-.896484375,8.369140625-1.2666015625,12.923828125-1.107421875,4.552734375.1591796875,8.888671875.880859375,13.0068359375,2.16796875,4.1181640625,1.2900390625,7.7548828125,3.1630859375,10.9150390625,5.6220703125,3.158203125,2.4619140625,5.3779296875,5.5849609375,6.6572265625,9.373046875.5400390625,1.6591796875.9248046875,3.4140625,1.15625,5.2578125.2294921875,1.84765625.1845703125,3.77734375-.138671875,5.7890625-.32421875,2.013671875-.9423828125,4.130859375-1.857421875,6.3525390625-.9140625,2.2236328125-2.20703125,4.5390625-3.876953125,6.9423828125ZM206.298828124998181,78.26513671875c3.8798828125-.1494140625,7.109375-.818359375,9.689453125-2,2.580078125-1.1826171875,4.470703125-2.6123046875,5.6728515625-4.2919921875,1.201171875-1.677734375,1.70703125-3.4404296875,1.517578125-5.291015625-.1923828125-1.849609375-1.0302734375-3.443359375-2.5166015625-4.783203125-1.4873046875-1.337890625-3.6318359375-2.2783203125-6.4306640625-2.822265625-2.8017578125-.54296875-6.2744140625-.36328125-10.416015625.5390625.49609375,3.123046875.9287109375,6.208984375,1.296875,9.2607421875.369140625,3.052734375.763671875,6.181640625,1.1865234375,9.388671875ZM209.500976562498181,113.27587890625c4.388671875.1328125,8.037109375-.365234375,10.9462890625-1.494140625,2.9072265625-1.126953125,5.044921875-2.515625,6.412109375-4.16796875,1.365234375-1.650390625,1.99609375-3.3642578125,1.89453125-5.140625-.1044921875-1.7734375-.9326171875-3.2470703125-2.4873046875-4.4189453125-1.5537109375-1.1708984375-3.83984375-1.857421875-6.85546875-2.060546875-3.0166015625-.19921875-6.73828125.4052734375-11.1630859375,1.81640625l1.2529296875,15.4658203125Z"/>
            </g>
            <g>
              <path class="cls-3" d="M73.155273437498181,54.63330078125c3.203125,1.5244140625,5.9990234375,3.48828125,8.3828125,5.888671875,2.384765625,2.40234375,4.443359375,5.0732421875,6.1826171875,8.013671875,1.73828125,2.9404296875,3.1884765625,6.0859375,4.3525390625,9.4365234375,1.1630859375,3.353515625,2.1279296875,6.7421875,2.8916015625,10.1640625,1.681640625,6.7568359375,2.88671875,13.630859375,3.6171875,20.6259765625.7275390625,6.99609375,1.177734375,14.0556640625,1.349609375,21.1748046875.001953125,2.0283203125-.025390625,3.693359375-.0810546875,4.9931640625-.05859375,1.302734375-.275390625,2.3759765625-.65234375,3.21484375-.3779296875.8427734375-.9501953125,1.537109375-1.7158203125,2.0859375-.767578125.548828125-1.8583984375,1.08154296875-3.275390625,1.60302734375-1.357421875.271484375-2.7783203125.5078125-4.2607421875.708984375-1.484375.201171875-2.9072265625-.08984375-4.2666015625-.869140625-1.2734375-.70751953125-2.392578125-1.99658203125-3.353515625-3.86376953125-.9619140625-1.8681640625-1.630859375-4.611328125-2.00390625-8.2294921875l-.09765625-1.208984375c-2.03515625-.078125-4.4462890625-.0849609375-7.23828125-.021484375-2.79296875.0654296875-5.640625.1953125-8.5439453125.3876953125-2.90234375.1962890625-5.7041015625.4013671875-8.4013671875.6201171875-2.7001953125.21875-4.9755859375.40234375-6.8271484375.552734375-.0224609375.732421875-.0244140625,1.9482421875-.0087890625,3.6494140625.0166015625,1.701171875-.109375,3.4150390625-.3740234375,5.138671875-.2666015625,1.724609375-.6875,3.29931640625-1.259765625,4.72509765625-.57421875,1.423828125-1.4609375,2.224609375-2.6630859375,2.404296875-1.1220703125.169921875-2.4033203125.35546875-3.8466796875.5546875-1.443359375.1953125-2.8671875.150390625-4.2685546875-.140625-1.396484375-.2109375-2.5966796875-.763671875-3.599609375-1.654296875-1.005859375-.892578125-1.6337890625-2.380859375-1.8828125-4.46923828125-.2021484375-2.49609375-.39453125-5.3603515625-.57421875-8.5888671875-.181640625-3.2275390625-.302734375-6.744140625-.3681640625-10.55078125-.09375-3.1552734375-.1103515625-6.6201171875-.0517578125-10.3955078125.0595703125-3.775390625.2705078125-7.6630859375.6357421875-11.666015625.3642578125-4.001953125.931640625-8.0205078125,1.69921875-12.056640625.767578125-4.0341796875,1.8330078125-7.890625,3.197265625-11.5703125,1.36328125-3.6767578125,3.0537109375-7.09765625,5.068359375-10.2607421875,2.0126953125-3.162109375,4.509765625-5.87890625,7.48828125-8.1484375,3.5146484375-2.634765625,7.48828125-4.1337890625,11.9189453125-4.4921875,4.4306640625-.359375,8.7080078125.388671875,12.8310546875,2.244140625ZM48.249023437498181,111.98876953125c5.041015625-.8125,10.0712890625-1.5234375,15.08984375-2.134765625,5.017578125-.607421875,10.0712890625-1.0380859375,15.1591796875-1.2880859375-.2216796875-5.73828125-.8779296875-10.8330078125-1.9677734375-15.287109375-1.0908203125-4.4521484375-2.4072265625-8.17578125-3.9462890625-11.173828125-1.5400390625-2.9951171875-3.263671875-5.2470703125-5.1689453125-6.7568359375-1.90625-1.505859375-3.7861328125-2.185546875-5.638671875-2.03515625-1.611328125.1298828125-3.2158203125,1.091796875-4.8134765625,2.8818359375-1.599609375,1.79296875-3.0146484375,4.33984375-4.24609375,7.6416015625-1.2333984375,3.3037109375-2.2626953125,7.33984375-3.0927734375,12.109375-.830078125,4.7705078125-1.2890625,10.1181640625-1.375,16.04296875Z"/>
              <path class="cls-3" d="M238.291992187498181,82.84912109375c3.765625,2.4521484375,6.6787109375,5.64453125,8.7421875,9.5693359375,2.060546875,3.927734375,2.9453125,8.0927734375,2.654296875,12.494140625-.3271484375,4.9736328125-1.92578125,9.2587890625-4.796875,12.85546875-2.87109375,3.59765625-6.36328125,6.5361328125-10.4755859375,8.814453125-4.1142578125,2.279296875-8.6201171875,3.9423828125-13.521484375,4.9873046875s-9.546875,1.5029296875-13.9365234375,1.3720703125c-.390625.1943359375-.7451171875.3232421875-1.0625.3896484375-.3193359375.06640625-.677734375.15625-1.072265625.2705078125-1.443359375.197265625-2.935546875.318359375-4.470703125.3623046875-1.5380859375.04296875-2.94921875-.107421875-4.232421875-.44921875-1.2861328125-.3388671875-2.4111328125-.9775390625-3.37890625-1.9140625-.96875-.9345703125-1.607421875-2.3212890625-1.91796875-4.1630859375-.234375-.87109375-.4189453125-2.66015625-.5556640625-5.3671875-.1396484375-2.703125-.3251953125-5.9931640625-.556640625-9.8671875-.1591796875-3.9580078125-.365234375-8.2587890625-.6201171875-12.9013671875-.25390625-4.6416015625-.53125-9.30078125-.828125-13.9814453125-.416015625-6.1259765625-.8349609375-12.294921875-1.255859375-18.5048828125-.423828125-6.208984375-1.1708984375-12.4326171875-2.2421875-18.6708984375-.2216796875-.7109375-.1923828125-1.361328125.0849609375-1.9521484375.12109375-.49609375.4462890625-.98828125.974609375-1.4775390625.52734375-.48828125,1.3486328125-.8583984375,2.4638671875-1.1123046875.7978515625-.1435546875,1.6748046875-.337890625,2.62890625-.5771484375s1.9501953125-.44140625,2.9912109375-.6083984375c1.0390625-.1630859375,2.0478515625-.2451171875,3.0205078125-.244140625.9736328125.00390625,1.83203125.09375,2.5771484375.2783203125,4.0625-.896484375,8.369140625-1.2666015625,12.923828125-1.107421875,4.552734375.1591796875,8.888671875.880859375,13.0068359375,2.16796875,4.1181640625,1.2900390625,7.7548828125,3.1630859375,10.9150390625,5.6220703125,3.158203125,2.4619140625,5.3779296875,5.5849609375,6.6572265625,9.373046875.5400390625,1.6591796875.9248046875,3.4140625,1.15625,5.2578125.2294921875,1.84765625.1845703125,3.77734375-.138671875,5.7890625-.32421875,2.013671875-.9423828125,4.130859375-1.857421875,6.3525390625-.9140625,2.2236328125-2.20703125,4.5390625-3.876953125,6.9423828125ZM206.298828124998181,78.26513671875c3.8798828125-.1494140625,7.109375-.818359375,9.689453125-2,2.580078125-1.1826171875,4.470703125-2.6123046875,5.6728515625-4.2919921875,1.201171875-1.677734375,1.70703125-3.4404296875,1.517578125-5.291015625-.1923828125-1.849609375-1.0302734375-3.443359375-2.5166015625-4.783203125-1.4873046875-1.337890625-3.6318359375-2.2783203125-6.4306640625-2.822265625-2.8017578125-.54296875-6.2744140625-.36328125-10.416015625.5390625.49609375,3.123046875.9287109375,6.208984375,1.296875,9.2607421875.369140625,3.052734375.763671875,6.181640625,1.1865234375,9.388671875ZM209.500976562498181,113.27587890625c4.388671875.1328125,8.037109375-.365234375,10.9462890625-1.494140625,2.9072265625-1.126953125,5.044921875-2.515625,6.412109375-4.16796875,1.365234375-1.650390625,1.99609375-3.3642578125,1.89453125-5.140625-.1044921875-1.7734375-.9326171875-3.2470703125-2.4873046875-4.4189453125-1.5537109375-1.1708984375-3.83984375-1.857421875-6.85546875-2.060546875-3.0166015625-.19921875-6.73828125.4052734375-11.1630859375,1.81640625l1.2529296875,15.4658203125Z"/>
            </g>
          </g>
        </a>
        <path class="cls-3" d="M129.183593749998181,90.9443359375c-.146484375,3.1884765625-.216796875,6.1669921875-.216796875,8.9365234375,0,2.7685546875.3603515625,5.4111328125,1.0849609375,7.9287109375.7216796875,2.7412109375,1.8447265625,4.978515625,3.3642578125,6.7119140625,1.5205078125,1.734375,3.23828125,3.0078125,5.15625,3.8173828125,1.9169921875.8115234375,3.908203125,1.1474609375,5.970703125,1.0068359375,2.0625-.138671875,4.052734375-.6708984375,5.970703125-1.59375,1.916015625-.9228515625,3.63671875-2.2236328125,5.15625-3.9013671875,1.51953125-1.6787109375,2.640625-3.7197265625,3.365234375-6.125.7216796875-2.236328125,1.228515625-4.82421875,1.51953125-7.76171875.287109375-2.9365234375.43359375-5.9150390625.43359375-8.935546875s-.146484375-5.9423828125-.43359375-8.767578125c-.291015625-2.82421875-.580078125-5.244140625-.869140625-7.2578125-.216796875-1.4541015625.361328125-2.62890625,1.736328125-3.5234375s2.986328125-1.439453125,4.8310546875-1.63671875c1.845703125-.1953125,3.6533203125,0,5.427734375.587890625,1.7724609375.5869140625,2.9482421875,1.6357421875,3.5283203125,3.146484375,1.01171875,2.5732421875,1.75390625,5.341796875,2.224609375,8.3056640625.4697265625,2.9658203125.7412109375,5.9443359375.814453125,8.935546875.0703125,2.9931640625-.037109375,5.9296875-.326171875,8.810546875s-.6884765625,5.5517578125-1.193359375,8.0126953125c-.796875,3.30078125-2.0625,6.4892578125-3.7998046875,9.564453125-1.7373046875,3.0771484375-3.9619140625,5.7900390625-6.67578125,8.138671875-2.7138671875,2.349609375-5.9345703125,4.224609375-9.6611328125,5.6220703125-3.7275390625,1.3984375-7.9423828125,2.041015625-12.646484375,1.9296875-2.966796875-.056640625-5.751953125-.447265625-8.357421875-1.1748046875-2.60546875-.7265625-5.01171875-1.69140625-7.21875-2.89453125-2.208984375-1.2021484375-4.1796875-2.6142578125-5.916015625-4.2373046875-1.736328125-1.62109375-3.220703125-3.3564453125-4.451171875-5.2021484375-2.2431640625-3.4677734375-3.78125-7.3828125-4.61328125-11.74609375s-1.248046875-8.6552734375-1.248046875-12.87890625c0-4.22265625.234375-8.1103515625.705078125-11.6630859375.470703125-3.5517578125.923828125-6.3056640625,1.357421875-8.2646484375.14453125-1.0615234375.6875-1.9423828125,1.62890625-2.642578125.939453125-.69921875,2.04296875-1.216796875,3.310546875-1.552734375,1.265625-.3349609375,2.6220703125-.5029296875,4.0703125-.5029296875,1.447265625,0,2.767578125.1826171875,3.9619140625.544921875,1.1943359375.365234375,2.1708984375.9228515625,2.9306640625,1.6787109375.759765625.7548828125,1.103515625,1.6650390625,1.03125,2.7265625l-1.953125,15.857421875Z"/>
      </g>
    </g>
  </a>
</svg>