<?xml version="1.0" encoding="UTF-8"?>
<svg id="Content" xmlns="http://www.w3.org/2000/svg" xmlns:xlink="http://www.w3.org/1999/xlink" viewBox="0 0 280 280">
  <defs>
    <style>
      .cls-1 {
        stroke: #665451;
        stroke-width: 50px;
      }

      .cls-1, .cls-2 {
        fill: none;
        stroke-linecap: round;
        stroke-linejoin: round;
      }

      .cls-3 {
        fill: #fff;
      }

      .cls-2 {
        stroke: #998675;
        stroke-width: 2px;
      }
    </style>
  </defs>
  <a xlink:href="https://www.notion.so/congruence/Uniform-distribution-c7b664f772f14c6c842c8834c5679763?pvs=4">
    <g>
      <g>
        <path class="cls-1" d="M53.2802734375,87.90625c.0439453125,2.763671875.1279296875,5.341796875.2509765625,7.7373046875.1220703125,2.39453125.48046875,4.66796875,1.076171875,6.8203125.6044921875,2.345703125,1.455078125,4.2431640625,2.546875,5.6904296875,1.09375,1.447265625,2.2978515625,2.48828125,3.6162109375,3.125,1.3173828125.63671875,2.6630859375.857421875,4.0361328125.6650390625,1.373046875-.189453125,2.6796875-.71875,3.9208984375-1.5830078125,1.240234375-.86328125,2.33203125-2.046875,3.2734375-3.55078125.9423828125-1.5029296875,1.6005859375-3.306640625,1.978515625-5.412109375.3837890625-1.9599609375.6083984375-4.2158203125.671875-6.7646484375.0625-2.5498046875.0283203125-5.130859375-.10546875-7.7431640625s-.361328125-5.134765625-.6787109375-7.5693359375c-.3193359375-2.431640625-.6201171875-4.5146484375-.90234375-6.2470703125-.2099609375-1.2490234375.125-2.28515625,1.0048828125-3.107421875.87890625-.8203125,1.931640625-1.345703125,3.1572265625-1.580078125,1.224609375-.232421875,2.44140625-.125,3.654296875.322265625,1.2109375.4462890625,2.04296875,1.3134765625,2.4970703125,2.6005859375.791015625,2.19140625,1.4091796875,4.5595703125,1.8564453125,7.1083984375.4453125,2.546875.7587890625,5.115234375.939453125,7.69921875.1806640625,2.5869140625.23828125,5.130859375.1728515625,7.630859375-.06640625,2.5029296875-.2138671875,4.826171875-.443359375,6.9716796875-.3857421875,2.8828125-1.0908203125,5.6826171875-2.115234375,8.40234375-1.025390625,2.720703125-2.392578125,5.1435546875-4.1025390625,7.267578125-1.7099609375,2.125-3.7802734375,3.8564453125-6.208984375,5.193359375-2.4306640625,1.337890625-5.2197265625,2.0361328125-8.369140625,2.1015625-1.986328125.0537109375-3.865234375-.189453125-5.6396484375-.728515625-1.7734375-.5390625-3.4248046875-1.2919921875-4.9541015625-2.2568359375-1.529296875-.9638671875-2.9091796875-2.1181640625-4.142578125-3.462890625-1.232421875-1.3427734375-2.3017578125-2.7919921875-3.205078125-4.3466796875-1.654296875-2.921875-2.8564453125-6.255859375-3.60546875-10.0009765625-.75-3.7451171875-1.2177734375-7.4423828125-1.404296875-11.095703125-.1875-3.65234375-.203125-7.0224609375-.0458984375-10.1123046875.1572265625-3.0859375.337890625-5.484375.541015625-7.193359375.0498046875-.9228515625.373046875-1.703125.9716796875-2.3408203125.5966796875-.63671875,1.3125-1.1220703125,2.14453125-1.45703125.8310546875-.3330078125,1.73046875-.5244140625,2.69921875-.5732421875.966796875-.0498046875,1.8583984375.0615234375,2.671875.3349609375.814453125.2744140625,1.4921875.724609375,2.0341796875,1.3515625.541015625.6259765625.810546875,1.4013671875.810546875,2.3232421875l-.603515625,13.7802734375Z"/>
        <path class="cls-1" d="M114.1572265625,74.7470703125c-1.9716796875,1.265625-3.7470703125,2.8369140625-5.32421875,4.7119140625s-2.8427734375,3.94140625-3.79296875,6.197265625c-.9521484375,2.2548828125-1.572265625,4.603515625-1.8583984375,7.04296875-.287109375,2.439453125-.103515625,4.85546875.552734375,7.2470703125.65625,2.392578125,1.8271484375,4.66015625,3.513671875,6.8046875,1.685546875,2.14453125,3.978515625,4.041015625,6.8759765625,5.6865234375.2490234375.1328125.4873046875.265625.7119140625.400390625.2255859375.1337890625.4619140625.2666015625.7119140625.400390625.3984375.2216796875.64453125.51171875.7353515625.8720703125.091796875.3583984375.099609375.7578125.025390625,1.197265625-.0458984375,1.0224609375-.337890625,2.1767578125-.876953125,3.4658203125-.541015625,1.2890625-1.1259765625,2.41015625-1.755859375,3.3642578125-.541015625.802734375-1.322265625,1.1826171875-2.3427734375,1.1376953125-1.021484375-.0458984375-2.0537109375-.306640625-3.0966796875-.787109375-2.439453125-1.232421875-4.6875-2.7431640625-6.7431640625-4.5283203125-2.056640625-1.787109375-3.8349609375-3.8427734375-5.3369140625-6.166015625-1.5009765625-2.3232421875-2.6640625-4.9072265625-3.4892578125-7.751953125-.8251953125-2.8427734375-1.2255859375-5.939453125-1.203125-9.287109375.0390625-3.009765625.4619140625-5.8935546875,1.2666015625-8.650390625.8046875-2.7578125,1.896484375-5.3369140625,3.27734375-7.7353515625,1.380859375-2.3994140625,3.0126953125-4.62890625,4.896484375-6.6884765625,1.8828125-2.0615234375,3.923828125-3.8759765625,6.123046875-5.443359375.609375-.419921875,1.2177734375-.609375,1.8271484375-.568359375.607421875.04296875,1.1171875.296875,1.5302734375.7587890625.462890625.5107421875,1.029296875,1.1611328125,1.7001953125,1.9501953125.6708984375.791015625,1.24609375,1.5986328125,1.724609375,2.421875.4794921875.8251953125.796875,1.595703125.9560546875,2.3154296875.1572265625.720703125-.044921875,1.2646484375-.6083984375,1.6318359375Z"/>
        <path class="cls-1" d="M157.130859375,81.349609375c-.1845703125,5.87890625-.189453125,11.7109375-.0126953125,17.4990234375.1748046875,5.787109375.60546875,11.59765625,1.29296875,17.431640625-.029296875.3896484375-.154296875.7841796875-.3759765625,1.18359375-.2255859375.3505859375-.55859375.6962890625-1.001953125,1.033203125-.4443359375.3388671875-1.07421875.576171875-1.8916015625.71484375-.720703125.1337890625-1.490234375.26953125-2.3076171875.41015625-.8173828125.138671875-1.5908203125.189453125-2.3203125.154296875-.728515625-.0341796875-1.3896484375-.1591796875-1.982421875-.37109375-.59375-.2109375-1.048828125-.576171875-1.3662109375-1.09375-1.0517578125.2978515625-2.10546875.58203125-3.1572265625.8525390625-1.0537109375.2724609375-2.134765625.486328125-3.2421875.6396484375-3.2265625.4560546875-6.0908203125.1669921875-8.5927734375-.8701171875-2.5029296875-1.03515625-4.58203125-2.5537109375-6.236328125-4.5546875-1.6552734375-2-2.8662109375-4.33984375-3.6337890625-7.0166015625-.767578125-2.677734375-1.0419921875-5.427734375-.822265625-8.2529296875.21875-2.82421875.951171875-5.5771484375,2.1953125-8.2607421875,1.2451171875-2.68359375,3.052734375-5.03125,5.423828125-7.0439453125,2.5654296875-1.974609375,5.4462890625-3.26171875,8.6416015625-3.86328125,3.1943359375-.599609375,6.4345703125-.546875,9.7216796875.1572265625.37109375-.310546875.994140625-.462890625,1.8681640625-.458984375.6787109375.013671875,1.4677734375.0224609375,2.3662109375.0244140625.896484375.0029296875,1.748046875.0546875,2.5537109375.1591796875s1.4814453125.27734375,2.02734375.5146484375c.5458984375.2392578125.830078125.576171875.8525390625,1.01171875ZM146.259765625,90.7099609375c-2.220703125-.759765625-4.169921875-.9248046875-5.845703125-.5009765625-1.6767578125.4267578125-3.06640625,1.2119140625-4.171875,2.359375-1.10546875,1.1484375-1.9326171875,2.525390625-2.48046875,4.12890625-.548828125,1.60546875-.8310546875,3.197265625-.8466796875,4.7734375-.0166015625,1.5771484375.2392578125,3.0322265625.7685546875,4.3623046875.529296875,1.33203125,1.3427734375,2.296875,2.4404296875,2.89453125,1.09765625.5986328125,2.4482421875.7001953125,4.0537109375.3017578125,1.6044921875-.396484375,3.498046875-1.525390625,5.68359375-3.3837890625.0322265625-1.26171875.041015625-2.51171875.0263671875-3.748046875-.015625-1.236328125-.0068359375-2.484375.0263671875-3.7490234375.029296875-1.310546875.0595703125-2.5966796875.0927734375-3.8603515625.0322265625-1.2626953125.1162109375-2.455078125.2529296875-3.578125Z"/>
        <path class="cls-1" d="M165.580078125,107.109375c.07421875-.44140625.22265625-.8359375.4482421875-1.1884765625.2265625-.30078125.52734375-.572265625.904296875-.8095703125.3759765625-.236328125.9013671875-.373046875,1.580078125-.408203125.9208984375.001953125,1.7578125.01953125,2.5126953125.0537109375.7529296875.03515625,1.400390625.134765625,1.943359375.2998046875.833984375.201171875,1.3125.5400390625,1.4345703125,1.0185546875.12109375.4794921875.08203125,1.1357421875-.1171875,1.9697265625-.1650390625.5908203125-.37109375,1.28125-.6220703125,2.0693359375-.25.7890625-.525390625,1.5908203125-.822265625,2.4072265625-.2978515625.814453125-.59765625,1.6064453125-.896484375,2.3740234375-.30078125.7685546875-.583984375,1.400390625-.849609375,1.8984375-.2197265625.4482421875-.462890625.896484375-.73046875,1.34765625-.2685546875.4501953125-.587890625.853515625-.95703125,1.212890625-.3701171875.3583984375-.79296875.6337890625-1.2666015625.828125-.4755859375.1953125-1.0556640625.236328125-1.740234375.126953125-1.0302734375-.23828125-1.7314453125-.43359375-2.103515625-.583984375-.37109375-.15234375-.5419921875-.3974609375-.5107421875-.73828125l1.79296875-11.8779296875Z"/>
        <path class="cls-1" d="M189.7060546875,80.990234375c1.88671875-.0966796875,3.8583984375.056640625,5.9169921875.458984375,2.0576171875.404296875,4.0302734375,1.052734375,5.919921875,1.9482421875,1.888671875.8955078125,3.607421875,2.029296875,5.158203125,3.40234375,1.548828125,1.373046875,2.8095703125,3.0029296875,3.779296875,4.8876953125,1.2509765625,2.6484375,1.669921875,5.3974609375,1.259765625,8.25-.412109375,2.8564453125-1.478515625,5.486328125-3.197265625,7.8974609375-1.2705078125,1.7119140625-2.7958984375,3.1826171875-4.576171875,4.41015625-1.78125,1.2294921875-3.7041015625,2.2607421875-5.771484375,3.0908203125-2.0673828125.8330078125-4.2421875,1.46484375-6.5234375,1.8974609375-2.2822265625.4296875-4.5869140625.6572265625-6.9140625.6787109375-1.1181640625-.0400390625-2.1015625-.3037109375-2.9501953125-.7919921875-.8505859375-.48828125-1.408203125-1.427734375-1.6728515625-2.818359375-.1123046875-.28515625-.2412109375-1.162109375-.388671875-2.630859375-.1484375-1.4677734375-.2919921875-3.3134765625-.4296875-5.533203125-.138671875-2.21875-.27734375-4.703125-.41796875-7.45703125-.1416015625-2.751953125-.2744140625-5.564453125-.396484375-8.4384765625-.123046875-2.8759765625-.2314453125-5.7021484375-.3251953125-8.484375-.0947265625-2.7802734375-.1748046875-5.28515625-.2392578125-7.513671875-.06640625-2.2265625-.1259765625-4.0908203125-.177734375-5.591796875-.052734375-1.5009765625-.0625-2.3994140625-.029296875-2.69140625-.068359375-.384765625-.013671875-.7509765625.162109375-1.099609375.130859375-.2978515625.3466796875-.564453125.650390625-.7978515625.302734375-.2333984375.7919921875-.3916015625,1.4677734375-.4755859375.625-.080078125,1.4345703125-.1455078125,2.4267578125-.1962890625.9912109375-.05078125,1.9501953125-.0390625,2.8759765625.0341796875.9248046875.07421875,1.72265625.251953125,2.3916015625.5322265625.6689453125.28125,1.04296875.7099609375,1.12109375,1.2880859375.1337890625,2.6123046875.2685546875,5.2373046875.4033203125,7.8740234375.1357421875,2.63671875.2939453125,5.259765625.4765625,7.8701171875ZM191.0927734375,105.2197265625c1.9267578125-.244140625,3.5625-.7646484375,4.9033203125-1.5615234375,1.341796875-.7958984375,2.361328125-1.720703125,3.0595703125-2.7744140625.697265625-1.0556640625,1.0537109375-2.1513671875,1.068359375-3.2939453125.0146484375-1.138671875-.3427734375-2.17578125-1.0693359375-3.1083984375-.7275390625-.93359375-1.80859375-1.6904296875-3.244140625-2.2724609375-1.4375-.580078125-3.26953125-.8388671875-5.4970703125-.7734375.119140625,2.322265625.248046875,4.6201171875.3896484375,6.892578125.140625,2.2734375.2705078125,4.5693359375.3896484375,6.8916015625Z"/>
        <path class="cls-1" d="M216.546875,69.5009765625c-.55078125-.310546875-.7705078125-.8330078125-.6630859375-1.56640625.1083984375-.7333984375.369140625-1.5341796875.7861328125-2.4052734375.416015625-.869140625.9306640625-1.732421875,1.541015625-2.5888671875.611328125-.85546875,1.14453125-1.5625,1.6015625-2.119140625.361328125-.501953125.8427734375-.806640625,1.4443359375-.9111328125.6005859375-.103515625,1.2255859375.0224609375,1.875.3779296875,2.298828125,1.3369140625,4.443359375,2.9365234375,6.4306640625,4.7998046875,1.986328125,1.861328125,3.7529296875,3.9169921875,5.2998046875,6.166015625,1.544921875,2.25,2.798828125,4.708984375,3.7607421875,7.375.9609375,2.6669921875,1.54296875,5.4990234375,1.7451171875,8.4970703125.21875,3.333984375.00390625,6.462890625-.6474609375,9.3818359375-.650390625,2.919921875-1.65234375,5.6142578125-3.0048828125,8.083984375-1.353515625,2.4697265625-2.9970703125,4.7001953125-4.9326171875,6.6923828125-1.9345703125,1.990234375-4.1015625,3.7275390625-6.4990234375,5.20703125-.9892578125.583984375-1.9892578125.9501953125-3,1.099609375-1.0107421875.1484375-1.826171875-.1494140625-2.4462890625-.892578125-.6767578125-.88671875-1.3125-1.9453125-1.9091796875-3.1767578125-.5966796875-1.23046875-.9697265625-2.3515625-1.1181640625-3.36328125-.0712890625-.431640625-.0673828125-.83203125.01171875-1.19921875.0771484375-.3681640625.3037109375-.6826171875.6787109375-.9443359375.234375-.158203125.45703125-.314453125.6669921875-.4716796875.2109375-.15625.431640625-.3125.6669921875-.470703125,2.8115234375-1.9375,4.9814453125-4.0625,6.5126953125-6.373046875,1.5302734375-2.30859375,2.548828125-4.6884765625,3.0537109375-7.140625.5048828125-2.451171875.55078125-4.87890625.13671875-7.2822265625s-1.1748046875-4.6806640625-2.2783203125-6.8310546875c-1.10546875-2.150390625-2.4892578125-4.0810546875-4.15234375-5.791015625-1.6650390625-1.7080078125-3.5185546875-3.09375-5.560546875-4.1533203125Z"/>
      </g>
      <g>
        <path class="cls-2" d="M53.2802734375,87.90625c.0439453125,2.763671875.1279296875,5.341796875.2509765625,7.7373046875.1220703125,2.39453125.48046875,4.66796875,1.076171875,6.8203125.6044921875,2.345703125,1.455078125,4.2431640625,2.546875,5.6904296875,1.09375,1.447265625,2.2978515625,2.48828125,3.6162109375,3.125,1.3173828125.63671875,2.6630859375.857421875,4.0361328125.6650390625,1.373046875-.189453125,2.6796875-.71875,3.9208984375-1.5830078125,1.240234375-.86328125,2.33203125-2.046875,3.2734375-3.55078125.9423828125-1.5029296875,1.6005859375-3.306640625,1.978515625-5.412109375.3837890625-1.9599609375.6083984375-4.2158203125.671875-6.7646484375.0625-2.5498046875.0283203125-5.130859375-.10546875-7.7431640625s-.361328125-5.134765625-.6787109375-7.5693359375c-.3193359375-2.431640625-.6201171875-4.5146484375-.90234375-6.2470703125-.2099609375-1.2490234375.125-2.28515625,1.0048828125-3.107421875.87890625-.8203125,1.931640625-1.345703125,3.1572265625-1.580078125,1.224609375-.232421875,2.44140625-.125,3.654296875.322265625,1.2109375.4462890625,2.04296875,1.3134765625,2.4970703125,2.6005859375.791015625,2.19140625,1.4091796875,4.5595703125,1.8564453125,7.1083984375.4453125,2.546875.7587890625,5.115234375.939453125,7.69921875.1806640625,2.5869140625.23828125,5.130859375.1728515625,7.630859375-.06640625,2.5029296875-.2138671875,4.826171875-.443359375,6.9716796875-.3857421875,2.8828125-1.0908203125,5.6826171875-2.115234375,8.40234375-1.025390625,2.720703125-2.392578125,5.1435546875-4.1025390625,7.267578125-1.7099609375,2.125-3.7802734375,3.8564453125-6.208984375,5.193359375-2.4306640625,1.337890625-5.2197265625,2.0361328125-8.369140625,2.1015625-1.986328125.0537109375-3.865234375-.189453125-5.6396484375-.728515625-1.7734375-.5390625-3.4248046875-1.2919921875-4.9541015625-2.2568359375-1.529296875-.9638671875-2.9091796875-2.1181640625-4.142578125-3.462890625-1.232421875-1.3427734375-2.3017578125-2.7919921875-3.205078125-4.3466796875-1.654296875-2.921875-2.8564453125-6.255859375-3.60546875-10.0009765625-.75-3.7451171875-1.2177734375-7.4423828125-1.404296875-11.095703125-.1875-3.65234375-.203125-7.0224609375-.0458984375-10.1123046875.1572265625-3.0859375.337890625-5.484375.541015625-7.193359375.0498046875-.9228515625.373046875-1.703125.9716796875-2.3408203125.5966796875-.63671875,1.3125-1.1220703125,2.14453125-1.45703125.8310546875-.3330078125,1.73046875-.5244140625,2.69921875-.5732421875.966796875-.0498046875,1.8583984375.0615234375,2.671875.3349609375.814453125.2744140625,1.4921875.724609375,2.0341796875,1.3515625.541015625.6259765625.810546875,1.4013671875.810546875,2.3232421875l-.603515625,13.7802734375Z"/>
        <path class="cls-2" d="M114.1572265625,74.7470703125c-1.9716796875,1.265625-3.7470703125,2.8369140625-5.32421875,4.7119140625s-2.8427734375,3.94140625-3.79296875,6.197265625c-.9521484375,2.2548828125-1.572265625,4.603515625-1.8583984375,7.04296875-.287109375,2.439453125-.103515625,4.85546875.552734375,7.2470703125.65625,2.392578125,1.8271484375,4.66015625,3.513671875,6.8046875,1.685546875,2.14453125,3.978515625,4.041015625,6.8759765625,5.6865234375.2490234375.1328125.4873046875.265625.7119140625.400390625.2255859375.1337890625.4619140625.2666015625.7119140625.400390625.3984375.2216796875.64453125.51171875.7353515625.8720703125.091796875.3583984375.099609375.7578125.025390625,1.197265625-.0458984375,1.0224609375-.337890625,2.1767578125-.876953125,3.4658203125-.541015625,1.2890625-1.1259765625,2.41015625-1.755859375,3.3642578125-.541015625.802734375-1.322265625,1.1826171875-2.3427734375,1.1376953125-1.021484375-.0458984375-2.0537109375-.306640625-3.0966796875-.787109375-2.439453125-1.232421875-4.6875-2.7431640625-6.7431640625-4.5283203125-2.056640625-1.787109375-3.8349609375-3.8427734375-5.3369140625-6.166015625-1.5009765625-2.3232421875-2.6640625-4.9072265625-3.4892578125-7.751953125-.8251953125-2.8427734375-1.2255859375-5.939453125-1.203125-9.287109375.0390625-3.009765625.4619140625-5.8935546875,1.2666015625-8.650390625.8046875-2.7578125,1.896484375-5.3369140625,3.27734375-7.7353515625,1.380859375-2.3994140625,3.0126953125-4.62890625,4.896484375-6.6884765625,1.8828125-2.0615234375,3.923828125-3.8759765625,6.123046875-5.443359375.609375-.419921875,1.2177734375-.609375,1.8271484375-.568359375.607421875.04296875,1.1171875.296875,1.5302734375.7587890625.462890625.5107421875,1.029296875,1.1611328125,1.7001953125,1.9501953125.6708984375.791015625,1.24609375,1.5986328125,1.724609375,2.421875.4794921875.8251953125.796875,1.595703125.9560546875,2.3154296875.1572265625.720703125-.044921875,1.2646484375-.6083984375,1.6318359375Z"/>
        <path class="cls-2" d="M157.130859375,81.349609375c-.1845703125,5.87890625-.189453125,11.7109375-.0126953125,17.4990234375.1748046875,5.787109375.60546875,11.59765625,1.29296875,17.431640625-.029296875.3896484375-.154296875.7841796875-.3759765625,1.18359375-.2255859375.3505859375-.55859375.6962890625-1.001953125,1.033203125-.4443359375.3388671875-1.07421875.576171875-1.8916015625.71484375-.720703125.1337890625-1.490234375.26953125-2.3076171875.41015625-.8173828125.138671875-1.5908203125.189453125-2.3203125.154296875-.728515625-.0341796875-1.3896484375-.1591796875-1.982421875-.37109375-.59375-.2109375-1.048828125-.576171875-1.3662109375-1.09375-1.0517578125.2978515625-2.10546875.58203125-3.1572265625.8525390625-1.0537109375.2724609375-2.134765625.486328125-3.2421875.6396484375-3.2265625.4560546875-6.0908203125.1669921875-8.5927734375-.8701171875-2.5029296875-1.03515625-4.58203125-2.5537109375-6.236328125-4.5546875-1.6552734375-2-2.8662109375-4.33984375-3.6337890625-7.0166015625-.767578125-2.677734375-1.0419921875-5.427734375-.822265625-8.2529296875.21875-2.82421875.951171875-5.5771484375,2.1953125-8.2607421875,1.2451171875-2.68359375,3.052734375-5.03125,5.423828125-7.0439453125,2.5654296875-1.974609375,5.4462890625-3.26171875,8.6416015625-3.86328125,3.1943359375-.599609375,6.4345703125-.546875,9.7216796875.1572265625.37109375-.310546875.994140625-.462890625,1.8681640625-.458984375.6787109375.013671875,1.4677734375.0224609375,2.3662109375.0244140625.896484375.0029296875,1.748046875.0546875,2.5537109375.1591796875s1.4814453125.27734375,2.02734375.5146484375c.5458984375.2392578125.830078125.576171875.8525390625,1.01171875ZM146.259765625,90.7099609375c-2.220703125-.759765625-4.169921875-.9248046875-5.845703125-.5009765625-1.6767578125.4267578125-3.06640625,1.2119140625-4.171875,2.359375-1.10546875,1.1484375-1.9326171875,2.525390625-2.48046875,4.12890625-.548828125,1.60546875-.8310546875,3.197265625-.8466796875,4.7734375-.0166015625,1.5771484375.2392578125,3.0322265625.7685546875,4.3623046875.529296875,1.33203125,1.3427734375,2.296875,2.4404296875,2.89453125,1.09765625.5986328125,2.4482421875.7001953125,4.0537109375.3017578125,1.6044921875-.396484375,3.498046875-1.525390625,5.68359375-3.3837890625.0322265625-1.26171875.041015625-2.51171875.0263671875-3.748046875-.015625-1.236328125-.0068359375-2.484375.0263671875-3.7490234375.029296875-1.310546875.0595703125-2.5966796875.0927734375-3.8603515625.0322265625-1.2626953125.1162109375-2.455078125.2529296875-3.578125Z"/>
        <path class="cls-2" d="M165.580078125,107.109375c.07421875-.44140625.22265625-.8359375.4482421875-1.1884765625.2265625-.30078125.52734375-.572265625.904296875-.8095703125.3759765625-.236328125.9013671875-.373046875,1.580078125-.408203125.9208984375.001953125,1.7578125.01953125,2.5126953125.0537109375.7529296875.03515625,1.400390625.134765625,1.943359375.2998046875.833984375.201171875,1.3125.5400390625,1.4345703125,1.0185546875.12109375.4794921875.08203125,1.1357421875-.1171875,1.9697265625-.1650390625.5908203125-.37109375,1.28125-.6220703125,2.0693359375-.25.7890625-.525390625,1.5908203125-.822265625,2.4072265625-.2978515625.814453125-.59765625,1.6064453125-.896484375,2.3740234375-.30078125.7685546875-.583984375,1.400390625-.849609375,1.8984375-.2197265625.4482421875-.462890625.896484375-.73046875,1.34765625-.2685546875.4501953125-.587890625.853515625-.95703125,1.212890625-.3701171875.3583984375-.79296875.6337890625-1.2666015625.828125-.4755859375.1953125-1.0556640625.236328125-1.740234375.126953125-1.0302734375-.23828125-1.7314453125-.43359375-2.103515625-.583984375-.37109375-.15234375-.5419921875-.3974609375-.5107421875-.73828125l1.79296875-11.8779296875Z"/>
        <path class="cls-2" d="M189.7060546875,80.990234375c1.88671875-.0966796875,3.8583984375.056640625,5.9169921875.458984375,2.0576171875.404296875,4.0302734375,1.052734375,5.919921875,1.9482421875,1.888671875.8955078125,3.607421875,2.029296875,5.158203125,3.40234375,1.548828125,1.373046875,2.8095703125,3.0029296875,3.779296875,4.8876953125,1.2509765625,2.6484375,1.669921875,5.3974609375,1.259765625,8.25-.412109375,2.8564453125-1.478515625,5.486328125-3.197265625,7.8974609375-1.2705078125,1.7119140625-2.7958984375,3.1826171875-4.576171875,4.41015625-1.78125,1.2294921875-3.7041015625,2.2607421875-5.771484375,3.0908203125-2.0673828125.8330078125-4.2421875,1.46484375-6.5234375,1.8974609375-2.2822265625.4296875-4.5869140625.6572265625-6.9140625.6787109375-1.1181640625-.0400390625-2.1015625-.3037109375-2.9501953125-.7919921875-.8505859375-.48828125-1.408203125-1.427734375-1.6728515625-2.818359375-.1123046875-.28515625-.2412109375-1.162109375-.388671875-2.630859375-.1484375-1.4677734375-.2919921875-3.3134765625-.4296875-5.533203125-.138671875-2.21875-.27734375-4.703125-.41796875-7.45703125-.1416015625-2.751953125-.2744140625-5.564453125-.396484375-8.4384765625-.123046875-2.8759765625-.2314453125-5.7021484375-.3251953125-8.484375-.0947265625-2.7802734375-.1748046875-5.28515625-.2392578125-7.513671875-.06640625-2.2265625-.1259765625-4.0908203125-.177734375-5.591796875-.052734375-1.5009765625-.0625-2.3994140625-.029296875-2.69140625-.068359375-.384765625-.013671875-.7509765625.162109375-1.099609375.130859375-.2978515625.3466796875-.564453125.650390625-.7978515625.302734375-.2333984375.7919921875-.3916015625,1.4677734375-.4755859375.625-.080078125,1.4345703125-.1455078125,2.4267578125-.1962890625.9912109375-.05078125,1.9501953125-.0390625,2.8759765625.0341796875.9248046875.07421875,1.72265625.251953125,2.3916015625.5322265625.6689453125.28125,1.04296875.7099609375,1.12109375,1.2880859375.1337890625,2.6123046875.2685546875,5.2373046875.4033203125,7.8740234375.1357421875,2.63671875.2939453125,5.259765625.4765625,7.8701171875ZM191.0927734375,105.2197265625c1.9267578125-.244140625,3.5625-.7646484375,4.9033203125-1.5615234375,1.341796875-.7958984375,2.361328125-1.720703125,3.0595703125-2.7744140625.697265625-1.0556640625,1.0537109375-2.1513671875,1.068359375-3.2939453125.0146484375-1.138671875-.3427734375-2.17578125-1.0693359375-3.1083984375-.7275390625-.93359375-1.80859375-1.6904296875-3.244140625-2.2724609375-1.4375-.580078125-3.26953125-.8388671875-5.4970703125-.7734375.119140625,2.322265625.248046875,4.6201171875.3896484375,6.892578125.140625,2.2734375.2705078125,4.5693359375.3896484375,6.8916015625Z"/>
        <path class="cls-2" d="M216.546875,69.5009765625c-.55078125-.310546875-.7705078125-.8330078125-.6630859375-1.56640625.1083984375-.7333984375.369140625-1.5341796875.7861328125-2.4052734375.416015625-.869140625.9306640625-1.732421875,1.541015625-2.5888671875.611328125-.85546875,1.14453125-1.5625,1.6015625-2.119140625.361328125-.501953125.8427734375-.806640625,1.4443359375-.9111328125.6005859375-.103515625,1.2255859375.0224609375,1.875.3779296875,2.298828125,1.3369140625,4.443359375,2.9365234375,6.4306640625,4.7998046875,1.986328125,1.861328125,3.7529296875,3.9169921875,5.2998046875,6.166015625,1.544921875,2.25,2.798828125,4.708984375,3.7607421875,7.375.9609375,2.6669921875,1.54296875,5.4990234375,1.7451171875,8.4970703125.21875,3.333984375.00390625,6.462890625-.6474609375,9.3818359375-.650390625,2.919921875-1.65234375,5.6142578125-3.0048828125,8.083984375-1.353515625,2.4697265625-2.9970703125,4.7001953125-4.9326171875,6.6923828125-1.9345703125,1.990234375-4.1015625,3.7275390625-6.4990234375,5.20703125-.9892578125.583984375-1.9892578125.9501953125-3,1.099609375-1.0107421875.1484375-1.826171875-.1494140625-2.4462890625-.892578125-.6767578125-.88671875-1.3125-1.9453125-1.9091796875-3.1767578125-.5966796875-1.23046875-.9697265625-2.3515625-1.1181640625-3.36328125-.0712890625-.431640625-.0673828125-.83203125.01171875-1.19921875.0771484375-.3681640625.3037109375-.6826171875.6787109375-.9443359375.234375-.158203125.45703125-.314453125.6669921875-.4716796875.2109375-.15625.431640625-.3125.6669921875-.470703125,2.8115234375-1.9375,4.9814453125-4.0625,6.5126953125-6.373046875,1.5302734375-2.30859375,2.548828125-4.6884765625,3.0537109375-7.140625.5048828125-2.451171875.55078125-4.87890625.13671875-7.2822265625s-1.1748046875-4.6806640625-2.2783203125-6.8310546875c-1.10546875-2.150390625-2.4892578125-4.0810546875-4.15234375-5.791015625-1.6650390625-1.7080078125-3.5185546875-3.09375-5.560546875-4.1533203125Z"/>
      </g>
      <g>
        <path class="cls-3" d="M53.2802734375,87.90625c.0439453125,2.763671875.1279296875,5.341796875.2509765625,7.7373046875.1220703125,2.39453125.48046875,4.66796875,1.076171875,6.8203125.6044921875,2.345703125,1.455078125,4.2431640625,2.546875,5.6904296875,1.09375,1.447265625,2.2978515625,2.48828125,3.6162109375,3.125,1.3173828125.63671875,2.6630859375.857421875,4.0361328125.6650390625,1.373046875-.189453125,2.6796875-.71875,3.9208984375-1.5830078125,1.240234375-.86328125,2.33203125-2.046875,3.2734375-3.55078125.9423828125-1.5029296875,1.6005859375-3.306640625,1.978515625-5.412109375.3837890625-1.9599609375.6083984375-4.2158203125.671875-6.7646484375.0625-2.5498046875.0283203125-5.130859375-.10546875-7.7431640625s-.361328125-5.134765625-.6787109375-7.5693359375c-.3193359375-2.431640625-.6201171875-4.5146484375-.90234375-6.2470703125-.2099609375-1.2490234375.125-2.28515625,1.0048828125-3.107421875.87890625-.8203125,1.931640625-1.345703125,3.1572265625-1.580078125,1.224609375-.232421875,2.44140625-.125,3.654296875.322265625,1.2109375.4462890625,2.04296875,1.3134765625,2.4970703125,2.6005859375.791015625,2.19140625,1.4091796875,4.5595703125,1.8564453125,7.1083984375.4453125,2.546875.7587890625,5.115234375.939453125,7.69921875.1806640625,2.5869140625.23828125,5.130859375.1728515625,7.630859375-.06640625,2.5029296875-.2138671875,4.826171875-.443359375,6.9716796875-.3857421875,2.8828125-1.0908203125,5.6826171875-2.115234375,8.40234375-1.025390625,2.720703125-2.392578125,5.1435546875-4.1025390625,7.267578125-1.7099609375,2.125-3.7802734375,3.8564453125-6.208984375,5.193359375-2.4306640625,1.337890625-5.2197265625,2.0361328125-8.369140625,2.1015625-1.986328125.0537109375-3.865234375-.189453125-5.6396484375-.728515625-1.7734375-.5390625-3.4248046875-1.2919921875-4.9541015625-2.2568359375-1.529296875-.9638671875-2.9091796875-2.1181640625-4.142578125-3.462890625-1.232421875-1.3427734375-2.3017578125-2.7919921875-3.205078125-4.3466796875-1.654296875-2.921875-2.8564453125-6.255859375-3.60546875-10.0009765625-.75-3.7451171875-1.2177734375-7.4423828125-1.404296875-11.095703125-.1875-3.65234375-.203125-7.0224609375-.0458984375-10.1123046875.1572265625-3.0859375.337890625-5.484375.541015625-7.193359375.0498046875-.9228515625.373046875-1.703125.9716796875-2.3408203125.5966796875-.63671875,1.3125-1.1220703125,2.14453125-1.45703125.8310546875-.3330078125,1.73046875-.5244140625,2.69921875-.5732421875.966796875-.0498046875,1.8583984375.0615234375,2.671875.3349609375.814453125.2744140625,1.4921875.724609375,2.0341796875,1.3515625.541015625.6259765625.810546875,1.4013671875.810546875,2.3232421875l-.603515625,13.7802734375Z"/>
        <path class="cls-3" d="M114.1572265625,74.7470703125c-1.9716796875,1.265625-3.7470703125,2.8369140625-5.32421875,4.7119140625s-2.8427734375,3.94140625-3.79296875,6.197265625c-.9521484375,2.2548828125-1.572265625,4.603515625-1.8583984375,7.04296875-.287109375,2.439453125-.103515625,4.85546875.552734375,7.2470703125.65625,2.392578125,1.8271484375,4.66015625,3.513671875,6.8046875,1.685546875,2.14453125,3.978515625,4.041015625,6.8759765625,5.6865234375.2490234375.1328125.4873046875.265625.7119140625.400390625.2255859375.1337890625.4619140625.2666015625.7119140625.400390625.3984375.2216796875.64453125.51171875.7353515625.8720703125.091796875.3583984375.099609375.7578125.025390625,1.197265625-.0458984375,1.0224609375-.337890625,2.1767578125-.876953125,3.4658203125-.541015625,1.2890625-1.1259765625,2.41015625-1.755859375,3.3642578125-.541015625.802734375-1.322265625,1.1826171875-2.3427734375,1.1376953125-1.021484375-.0458984375-2.0537109375-.306640625-3.0966796875-.787109375-2.439453125-1.232421875-4.6875-2.7431640625-6.7431640625-4.5283203125-2.056640625-1.787109375-3.8349609375-3.8427734375-5.3369140625-6.166015625-1.5009765625-2.3232421875-2.6640625-4.9072265625-3.4892578125-7.751953125-.8251953125-2.8427734375-1.2255859375-5.939453125-1.203125-9.287109375.0390625-3.009765625.4619140625-5.8935546875,1.2666015625-8.650390625.8046875-2.7578125,1.896484375-5.3369140625,3.27734375-7.7353515625,1.380859375-2.3994140625,3.0126953125-4.62890625,4.896484375-6.6884765625,1.8828125-2.0615234375,3.923828125-3.8759765625,6.123046875-5.443359375.609375-.419921875,1.2177734375-.609375,1.8271484375-.568359375.607421875.04296875,1.1171875.296875,1.5302734375.7587890625.462890625.5107421875,1.029296875,1.1611328125,1.7001953125,1.9501953125.6708984375.791015625,1.24609375,1.5986328125,1.724609375,2.421875.4794921875.8251953125.796875,1.595703125.9560546875,2.3154296875.1572265625.720703125-.044921875,1.2646484375-.6083984375,1.6318359375Z"/>
        <path class="cls-3" d="M157.130859375,81.349609375c-.1845703125,5.87890625-.189453125,11.7109375-.0126953125,17.4990234375.1748046875,5.787109375.60546875,11.59765625,1.29296875,17.431640625-.029296875.3896484375-.154296875.7841796875-.3759765625,1.18359375-.2255859375.3505859375-.55859375.6962890625-1.001953125,1.033203125-.4443359375.3388671875-1.07421875.576171875-1.8916015625.71484375-.720703125.1337890625-1.490234375.26953125-2.3076171875.41015625-.8173828125.138671875-1.5908203125.189453125-2.3203125.154296875-.728515625-.0341796875-1.3896484375-.1591796875-1.982421875-.37109375-.59375-.2109375-1.048828125-.576171875-1.3662109375-1.09375-1.0517578125.2978515625-2.10546875.58203125-3.1572265625.8525390625-1.0537109375.2724609375-2.134765625.486328125-3.2421875.6396484375-3.2265625.4560546875-6.0908203125.1669921875-8.5927734375-.8701171875-2.5029296875-1.03515625-4.58203125-2.5537109375-6.236328125-4.5546875-1.6552734375-2-2.8662109375-4.33984375-3.6337890625-7.0166015625-.767578125-2.677734375-1.0419921875-5.427734375-.822265625-8.2529296875.21875-2.82421875.951171875-5.5771484375,2.1953125-8.2607421875,1.2451171875-2.68359375,3.052734375-5.03125,5.423828125-7.0439453125,2.5654296875-1.974609375,5.4462890625-3.26171875,8.6416015625-3.86328125,3.1943359375-.599609375,6.4345703125-.546875,9.7216796875.1572265625.37109375-.310546875.994140625-.462890625,1.8681640625-.458984375.6787109375.013671875,1.4677734375.0224609375,2.3662109375.0244140625.896484375.0029296875,1.748046875.0546875,2.5537109375.1591796875s1.4814453125.27734375,2.02734375.5146484375c.5458984375.2392578125.830078125.576171875.8525390625,1.01171875ZM146.259765625,90.7099609375c-2.220703125-.759765625-4.169921875-.9248046875-5.845703125-.5009765625-1.6767578125.4267578125-3.06640625,1.2119140625-4.171875,2.359375-1.10546875,1.1484375-1.9326171875,2.525390625-2.48046875,4.12890625-.548828125,1.60546875-.8310546875,3.197265625-.8466796875,4.7734375-.0166015625,1.5771484375.2392578125,3.0322265625.7685546875,4.3623046875.529296875,1.33203125,1.3427734375,2.296875,2.4404296875,2.89453125,1.09765625.5986328125,2.4482421875.7001953125,4.0537109375.3017578125,1.6044921875-.396484375,3.498046875-1.525390625,5.68359375-3.3837890625.0322265625-1.26171875.041015625-2.51171875.0263671875-3.748046875-.015625-1.236328125-.0068359375-2.484375.0263671875-3.7490234375.029296875-1.310546875.0595703125-2.5966796875.0927734375-3.8603515625.0322265625-1.2626953125.1162109375-2.455078125.2529296875-3.578125Z"/>
        <path class="cls-3" d="M165.580078125,107.109375c.07421875-.44140625.22265625-.8359375.4482421875-1.1884765625.2265625-.30078125.52734375-.572265625.904296875-.8095703125.3759765625-.236328125.9013671875-.373046875,1.580078125-.408203125.9208984375.001953125,1.7578125.01953125,2.5126953125.0537109375.7529296875.03515625,1.400390625.134765625,1.943359375.2998046875.833984375.201171875,1.3125.5400390625,1.4345703125,1.0185546875.12109375.4794921875.08203125,1.1357421875-.1171875,1.9697265625-.1650390625.5908203125-.37109375,1.28125-.6220703125,2.0693359375-.25.7890625-.525390625,1.5908203125-.822265625,2.4072265625-.2978515625.814453125-.59765625,1.6064453125-.896484375,2.3740234375-.30078125.7685546875-.583984375,1.400390625-.849609375,1.8984375-.2197265625.4482421875-.462890625.896484375-.73046875,1.34765625-.2685546875.4501953125-.587890625.853515625-.95703125,1.212890625-.3701171875.3583984375-.79296875.6337890625-1.2666015625.828125-.4755859375.1953125-1.0556640625.236328125-1.740234375.126953125-1.0302734375-.23828125-1.7314453125-.43359375-2.103515625-.583984375-.37109375-.15234375-.5419921875-.3974609375-.5107421875-.73828125l1.79296875-11.8779296875Z"/>
        <path class="cls-3" d="M189.7060546875,80.990234375c1.88671875-.0966796875,3.8583984375.056640625,5.9169921875.458984375,2.0576171875.404296875,4.0302734375,1.052734375,5.919921875,1.9482421875,1.888671875.8955078125,3.607421875,2.029296875,5.158203125,3.40234375,1.548828125,1.373046875,2.8095703125,3.0029296875,3.779296875,4.8876953125,1.2509765625,2.6484375,1.669921875,5.3974609375,1.259765625,8.25-.412109375,2.8564453125-1.478515625,5.486328125-3.197265625,7.8974609375-1.2705078125,1.7119140625-2.7958984375,3.1826171875-4.576171875,4.41015625-1.78125,1.2294921875-3.7041015625,2.2607421875-5.771484375,3.0908203125-2.0673828125.8330078125-4.2421875,1.46484375-6.5234375,1.8974609375-2.2822265625.4296875-4.5869140625.6572265625-6.9140625.6787109375-1.1181640625-.0400390625-2.1015625-.3037109375-2.9501953125-.7919921875-.8505859375-.48828125-1.408203125-1.427734375-1.6728515625-2.818359375-.1123046875-.28515625-.2412109375-1.162109375-.388671875-2.630859375-.1484375-1.4677734375-.2919921875-3.3134765625-.4296875-5.533203125-.138671875-2.21875-.27734375-4.703125-.41796875-7.45703125-.1416015625-2.751953125-.2744140625-5.564453125-.396484375-8.4384765625-.123046875-2.8759765625-.2314453125-5.7021484375-.3251953125-8.484375-.0947265625-2.7802734375-.1748046875-5.28515625-.2392578125-7.513671875-.06640625-2.2265625-.1259765625-4.0908203125-.177734375-5.591796875-.052734375-1.5009765625-.0625-2.3994140625-.029296875-2.69140625-.068359375-.384765625-.013671875-.7509765625.162109375-1.099609375.130859375-.2978515625.3466796875-.564453125.650390625-.7978515625.302734375-.2333984375.7919921875-.3916015625,1.4677734375-.4755859375.625-.080078125,1.4345703125-.1455078125,2.4267578125-.1962890625.9912109375-.05078125,1.9501953125-.0390625,2.8759765625.0341796875.9248046875.07421875,1.72265625.251953125,2.3916015625.5322265625.6689453125.28125,1.04296875.7099609375,1.12109375,1.2880859375.1337890625,2.6123046875.2685546875,5.2373046875.4033203125,7.8740234375.1357421875,2.63671875.2939453125,5.259765625.4765625,7.8701171875ZM191.0927734375,105.2197265625c1.9267578125-.244140625,3.5625-.7646484375,4.9033203125-1.5615234375,1.341796875-.7958984375,2.361328125-1.720703125,3.0595703125-2.7744140625.697265625-1.0556640625,1.0537109375-2.1513671875,1.068359375-3.2939453125.0146484375-1.138671875-.3427734375-2.17578125-1.0693359375-3.1083984375-.7275390625-.93359375-1.80859375-1.6904296875-3.244140625-2.2724609375-1.4375-.580078125-3.26953125-.8388671875-5.4970703125-.7734375.119140625,2.322265625.248046875,4.6201171875.3896484375,6.892578125.140625,2.2734375.2705078125,4.5693359375.3896484375,6.8916015625Z"/>
        <path class="cls-3" d="M216.546875,69.5009765625c-.55078125-.310546875-.7705078125-.8330078125-.6630859375-1.56640625.1083984375-.7333984375.369140625-1.5341796875.7861328125-2.4052734375.416015625-.869140625.9306640625-1.732421875,1.541015625-2.5888671875.611328125-.85546875,1.14453125-1.5625,1.6015625-2.119140625.361328125-.501953125.8427734375-.806640625,1.4443359375-.9111328125.6005859375-.103515625,1.2255859375.0224609375,1.875.3779296875,2.298828125,1.3369140625,4.443359375,2.9365234375,6.4306640625,4.7998046875,1.986328125,1.861328125,3.7529296875,3.9169921875,5.2998046875,6.166015625,1.544921875,2.25,2.798828125,4.708984375,3.7607421875,7.375.9609375,2.6669921875,1.54296875,5.4990234375,1.7451171875,8.4970703125.21875,3.333984375.00390625,6.462890625-.6474609375,9.3818359375-.650390625,2.919921875-1.65234375,5.6142578125-3.0048828125,8.083984375-1.353515625,2.4697265625-2.9970703125,4.7001953125-4.9326171875,6.6923828125-1.9345703125,1.990234375-4.1015625,3.7275390625-6.4990234375,5.20703125-.9892578125.583984375-1.9892578125.9501953125-3,1.099609375-1.0107421875.1484375-1.826171875-.1494140625-2.4462890625-.892578125-.6767578125-.88671875-1.3125-1.9453125-1.9091796875-3.1767578125-.5966796875-1.23046875-.9697265625-2.3515625-1.1181640625-3.36328125-.0712890625-.431640625-.0673828125-.83203125.01171875-1.19921875.0771484375-.3681640625.3037109375-.6826171875.6787109375-.9443359375.234375-.158203125.45703125-.314453125.6669921875-.4716796875.2109375-.15625.431640625-.3125.6669921875-.470703125,2.8115234375-1.9375,4.9814453125-4.0625,6.5126953125-6.373046875,1.5302734375-2.30859375,2.548828125-4.6884765625,3.0537109375-7.140625.5048828125-2.451171875.55078125-4.87890625.13671875-7.2822265625s-1.1748046875-4.6806640625-2.2783203125-6.8310546875c-1.10546875-2.150390625-2.4892578125-4.0810546875-4.15234375-5.791015625-1.6650390625-1.7080078125-3.5185546875-3.09375-5.560546875-4.1533203125Z"/>
      </g>
    </g>
  </a>
</svg>