<?xml version="1.0" encoding="UTF-8"?>
<svg id="Content" xmlns="http://www.w3.org/2000/svg" xmlns:xlink="http://www.w3.org/1999/xlink" viewBox="0 0 280 280">
  <defs>
    <style>
      .cls-1, .cls-2, .cls-3, .cls-4 {
        fill: none;
        stroke-linecap: round;
        stroke-linejoin: round;
      }

      .cls-1, .cls-4 {
        stroke: #665451;
        stroke-width: 50px;
      }

      .cls-2, .cls-3 {
        stroke: #998675;
        stroke-width: 2px;
      }

      .cls-2, .cls-5, .cls-6, .cls-4 {
        font-family: Hey-Comic, 'Hey Comic';
        font-size: 137.147384643554688px;
      }

      .cls-7, .cls-6 {
        fill: #fff;
      }
    </style>
  </defs>
  <a xlink:href="https://www.notion.so/congruence/Variance-c780d1bfa767424b9ea919e93cbce82e?pvs=4">
    <g>
      <g>
        <text class="cls-5" transform="translate(148.258321184548549 81.722418868797831) rotate(10.536381405124514) scale(.583000595788695)"><tspan x="0" y="0">2</tspan></text>
        <path d="M102.834827057440634,89.038449449592008c-.035344482910659.203000743273151-.141754425010731.739208503197005.046536867429495.822903923810372,14.714380755979619,6.540537644930737,23.148861066750214,20.670772876113915,24.161037933349689,38.568933218974053.791126746300506,13.989366704765416-2.798008152920374,25.337071121775807-10.767404697669917,34.043113251027535s-18.915140509119738,13.452724289865728-32.835281883799325,14.239936204907281c-13.441414091990737.760138926998479-24.4132064846508-2.88399978916641-32.917437464210707-10.934255880860292-8.504120702629734-8.048306082393538-13.144025041509849-18.930641825103521-13.91971301662943-32.647007228133589-.77949252945109-13.783640723810095,1.529006063679844-24.971869656310446,6.924355359339643-33.567556672976934,5.396379438770055-8.594767150485495,12.46936081946933-14.584730465083339,21.221924294500241-17.969080354552716,8.750613465729657-3.384239612531019,19.711101598379173-5.448764635171756,32.877564379329669-6.193354514049133l36.830559278349938-2.082842000030723c2.553337150520747-.144396337214857,4.7402822430995,1.808436036306375,4.88467858031072,4.361773186825303l.262404244389472,4.640051947149914c.1443963372094,2.553337150518928-1.808436036310013,4.7402822430995-4.36177318683076,4.884678580314358,0,0-31.689086255939401-2.293213795794145-32.407450687858727,1.832706337594573ZM92.93868285517965,93.354952261885046c-2.041507401059789-2.097486487837159-4.966273809330232-3.119505957432921-7.867179138999745-2.729697923208732-20.892890028820148,2.807474035125779-30.632439103409524,16.682860391110808-29.221925484359417,41.624745305425677.678699408999819,12.001332225321676,3.43153956552942,21.166675197244331,8.262530765139672,27.497758371184318,4.829041190309908,6.331193450878345,11.186968088599315,9.27378264039362,19.073780694870038,8.827767568545823,17.898160342859228-1.012176866595837,26.151200056950074-13.826236487348069,24.758898588380362-38.446078880853747-.854879975780932-15.1167047828676-5.856888667440217-27.374401885290354-15.00610542503091-36.774494441093339Z"/>
      </g>
      <g>
        <text class="cls-4" transform="translate(148.258321184548549 81.722418868797831) rotate(10.536381405124514) scale(.583000595788695)"><tspan x="0" y="0">2</tspan></text>
        <path class="cls-1" d="M102.834827057440634,89.038449449592008c-.035344482910659.203000743273151-.141754425010731.739208503197005.046536867429495.822903923810372,14.714380755979619,6.540537644930737,23.148861066750214,20.670772876113915,24.161037933349689,38.568933218974053.791126746300506,13.989366704765416-2.798008152920374,25.337071121775807-10.767404697669917,34.043113251027535s-18.915140509119738,13.452724289865728-32.835281883799325,14.239936204907281c-13.441414091990737.760138926998479-24.4132064846508-2.88399978916641-32.917437464210707-10.934255880860292-8.504120702629734-8.048306082393538-13.144025041509849-18.930641825103521-13.91971301662943-32.647007228133589-.77949252945109-13.783640723810095,1.529006063679844-24.971869656310446,6.924355359339643-33.567556672976934,5.396379438770055-8.594767150485495,12.46936081946933-14.584730465083339,21.221924294500241-17.969080354552716,8.750613465729657-3.384239612531019,19.711101598379173-5.448764635171756,32.877564379329669-6.193354514049133l36.830559278349938-2.082842000030723c2.553337150520747-.144396337214857,4.7402822430995,1.808436036306375,4.88467858031072,4.361773186825303l.262404244389472,4.640051947149914c.1443963372094,2.553337150518928-1.808436036310013,4.7402822430995-4.36177318683076,4.884678580314358,0,0-31.689086255939401-2.293213795794145-32.407450687858727,1.832706337594573ZM92.93868285517965,93.354952261885046c-2.041507401059789-2.097486487837159-4.966273809330232-3.119505957432921-7.867179138999745-2.729697923208732-20.892890028820148,2.807474035125779-30.632439103409524,16.682860391110808-29.221925484359417,41.624745305425677.678699408999819,12.001332225321676,3.43153956552942,21.166675197244331,8.262530765139672,27.497758371184318,4.829041190309908,6.331193450878345,11.186968088599315,9.27378264039362,19.073780694870038,8.827767568545823,17.898160342859228-1.012176866595837,26.151200056950074-13.826236487348069,24.758898588380362-38.446078880853747-.854879975780932-15.1167047828676-5.856888667440217-27.374401885290354-15.00610542503091-36.774494441093339Z"/>
      </g>
      <g>
        <text class="cls-2" transform="translate(148.258321184548549 81.722418868797831) rotate(10.536381405124514) scale(.583000595788695)"><tspan x="0" y="0">2</tspan></text>
        <path class="cls-3" d="M102.834827057440634,89.038449449592008c-.035344482910659.203000743273151-.141754425010731.739208503197005.046536867429495.822903923810372,14.714380755979619,6.540537644930737,23.148861066750214,20.670772876113915,24.161037933349689,38.568933218974053.791126746300506,13.989366704765416-2.798008152920374,25.337071121775807-10.767404697669917,34.043113251027535s-18.915140509119738,13.452724289865728-32.835281883799325,14.239936204907281c-13.441414091990737.760138926998479-24.4132064846508-2.88399978916641-32.917437464210707-10.934255880860292-8.504120702629734-8.048306082393538-13.144025041509849-18.930641825103521-13.91971301662943-32.647007228133589-.77949252945109-13.783640723810095,1.529006063679844-24.971869656310446,6.924355359339643-33.567556672976934,5.396379438770055-8.594767150485495,12.46936081946933-14.584730465083339,21.221924294500241-17.969080354552716,8.750613465729657-3.384239612531019,19.711101598379173-5.448764635171756,32.877564379329669-6.193354514049133l36.830559278349938-2.082842000030723c2.553337150520747-.144396337214857,4.7402822430995,1.808436036306375,4.88467858031072,4.361773186825303l.262404244389472,4.640051947149914c.1443963372094,2.553337150518928-1.808436036310013,4.7402822430995-4.36177318683076,4.884678580314358,0,0-31.689086255939401-2.293213795794145-32.407450687858727,1.832706337594573ZM92.93868285517965,93.354952261885046c-2.041507401059789-2.097486487837159-4.966273809330232-3.119505957432921-7.867179138999745-2.729697923208732-20.892890028820148,2.807474035125779-30.632439103409524,16.682860391110808-29.221925484359417,41.624745305425677.678699408999819,12.001332225321676,3.43153956552942,21.166675197244331,8.262530765139672,27.497758371184318,4.829041190309908,6.331193450878345,11.186968088599315,9.27378264039362,19.073780694870038,8.827767568545823,17.898160342859228-1.012176866595837,26.151200056950074-13.826236487348069,24.758898588380362-38.446078880853747-.854879975780932-15.1167047828676-5.856888667440217-27.374401885290354-15.00610542503091-36.774494441093339Z"/>
      </g>
      <g>
        <text class="cls-6" transform="translate(148.258321184548549 81.722418868797831) rotate(10.536381405124514) scale(.583000595788695)"><tspan x="0" y="0">2</tspan></text>
        <path class="cls-7" d="M102.834827057440634,89.038449449592008c-.035344482910659.203000743273151-.141754425010731.739208503197005.046536867429495.822903923810372,14.714380755979619,6.540537644930737,23.148861066750214,20.670772876113915,24.161037933349689,38.568933218974053.791126746300506,13.989366704765416-2.798008152920374,25.337071121775807-10.767404697669917,34.043113251027535s-18.915140509119738,13.452724289865728-32.835281883799325,14.239936204907281c-13.441414091990737.760138926998479-24.4132064846508-2.88399978916641-32.917437464210707-10.934255880860292-8.504120702629734-8.048306082393538-13.144025041509849-18.930641825103521-13.91971301662943-32.647007228133589-.77949252945109-13.783640723810095,1.529006063679844-24.971869656310446,6.924355359339643-33.567556672976934,5.396379438770055-8.594767150485495,12.46936081946933-14.584730465083339,21.221924294500241-17.969080354552716,8.750613465729657-3.384239612531019,19.711101598379173-5.448764635171756,32.877564379329669-6.193354514049133l36.830559278349938-2.082842000030723c2.553337150520747-.144396337214857,4.7402822430995,1.808436036306375,4.88467858031072,4.361773186825303l.262404244389472,4.640051947149914c.1443963372094,2.553337150518928-1.808436036310013,4.7402822430995-4.36177318683076,4.884678580314358,0,0-31.689086255939401-2.293213795794145-32.407450687858727,1.832706337594573ZM92.93868285517965,93.354952261885046c-2.041507401059789-2.097486487837159-4.966273809330232-3.119505957432921-7.867179138999745-2.729697923208732-20.892890028820148,2.807474035125779-30.632439103409524,16.682860391110808-29.221925484359417,41.624745305425677.678699408999819,12.001332225321676,3.43153956552942,21.166675197244331,8.262530765139672,27.497758371184318,4.829041190309908,6.331193450878345,11.186968088599315,9.27378264039362,19.073780694870038,8.827767568545823,17.898160342859228-1.012176866595837,26.151200056950074-13.826236487348069,24.758898588380362-38.446078880853747-.854879975780932-15.1167047828676-5.856888667440217-27.374401885290354-15.00610542503091-36.774494441093339Z"/>
      </g>
    </g>
  </a>
</svg>