<?xml version="1.0" encoding="UTF-8"?>
<svg id="Content" xmlns="http://www.w3.org/2000/svg" xmlns:xlink="http://www.w3.org/1999/xlink" viewBox="0 0 280 280">
  <defs>
    <style>
      .cls-1 {
        stroke: #665451;
        stroke-width: 50px;
      }

      .cls-1, .cls-2 {
        fill: none;
        stroke-linecap: round;
        stroke-linejoin: round;
      }

      .cls-3 {
        fill: #fff;
      }

      .cls-2 {
        stroke: #998675;
        stroke-width: 2px;
      }
    </style>
  </defs>
  <a xlink:href="https://www.notion.so/congruence/Variance-c780d1bfa767424b9ea919e93cbce82e?pvs=4">
    <g>
      <g>
        <path d="M197.006103515625,104.556640625c.3662109375.0673828125.623046875.2919921875.77001953125.671875.1455078125.380859375.2431640625.8046875.29150390625,1.2744140625.046875.4697265625.04052734375.9423828125-.02001953125,1.4189453125-.06201171875.4765625-.1123046875.8203125-.15087890625,1.029296875-.17529296875.943359375-.38525390625,1.9208984375-.626953125,2.93359375-.24267578125,1.01171875-.5224609375,1.935546875-.8408203125,2.771484375-.31787109375.8349609375-.68994140625,1.525390625-1.11669921875,2.0693359375-.42626953125.5439453125-.9375.8134765625-1.53369140625.8125-.28271484375.0556640625-.85009765625-.0234375-1.705078125-.2353515625-.85400390625-.2138671875-1.87548828125-.4853515625-3.06103515625-.8134765625-1.23779296875-.33984375-2.57080078125-.681640625-3.99658203125-1.0283203125-1.427734375-.34765625-2.8955078125-.6884765625-4.40478515625-1.0224609375-1.51123046875-.3359375-2.9736328125-.634765625-4.3876953125-.8974609375-1.4150390625-.263671875-2.677734375-.4716796875-3.78759765625-.623046875-.962890625-.0712890625-2.1396484375-.2353515625-3.52783203125-.494140625-1.38916015625-.2578125-2.5673828125-.55859375-3.533203125-.900390625-.7568359375-.3037109375-1.2451171875-1.03125-1.4638671875-2.18359375-.220703125-1.15234375-.232421875-2.4697265625-.0380859375-3.951171875s.59716796875-2.9931640625,1.208984375-4.533203125,1.34423828125-2.853515625,2.197265625-3.943359375c1.31689453125-1.54296875,2.734375-2.892578125,4.25048828125-4.0478515625,1.51611328125-1.154296875,3.07373046875-2.2470703125,4.67578125-3.2783203125,1.60107421875-1.0302734375,3.2314453125-2.068359375,4.89013671875-3.1162109375,1.65869140625-1.0458984375,3.3095703125-2.2021484375,4.95556640625-3.4697265625.693359375-.521484375,1.5185546875-1.31640625,2.47705078125-2.3857421875.95751953125-1.068359375,1.73193359375-2.1708984375,2.3232421875-3.30859375.7646484375-1.484375.9619140625-2.6943359375.59423828125-3.630859375-.36865234375-.935546875-1.02001953125-1.5849609375-1.955078125-1.94921875-.93603515625-.36328125-2.02197265625-.4306640625-3.2568359375-.19921875-1.23681640625.23046875-2.36669921875.7666015625-3.3896484375,1.6064453125-.90966796875.806640625-1.6513671875,1.806640625-2.2255859375,3.0009765625-.5751953125,1.1943359375-.74755859375,2.4921875-.51953125,3.888671875.0556640625.2822265625.1171875.60546875.18603515625.9697265625.06640625.3662109375.09765625.708984375.091796875,1.033203125-.0849609375.7451171875-.7080078125,1.4013671875-1.87109375,1.970703125-1.1630859375.5703125-2.4580078125.8984375-3.88330078125.9853515625-1.4267578125.087890625-2.76806640625-.134765625-4.02392578125-.6669921875-1.2568359375-.53125-2.02099609375-1.52734375-2.291015625-2.9873046875-.22607421875-1.994140625-.1259765625-3.9140625.298828125-5.7607421875.4248046875-1.84375,1.0751953125-3.59375,1.9521484375-5.248046875.876953125-1.6533203125,1.97216796875-3.1708984375,3.28662109375-4.552734375,1.31494140625-1.3828125,2.76416015625-2.548828125,4.35205078125-3.501953125,1.7099609375-1.0361328125,3.5947265625-1.7705078125,5.6552734375-2.2001953125,2.05810546875-.4306640625,4.12451171875-.5341796875,6.197265625-.3115234375,2.07421875.22265625,4.04345703125.7802734375,5.91162109375,1.6689453125,1.86767578125.890625,3.4609375,2.1630859375,4.77978515625,3.81640625,1.0625,1.283203125,1.83642578125,2.6591796875,2.322265625,4.1328125.484375,1.47265625.74609375,2.9853515625.78271484375,4.537109375.03662109375,1.552734375-.13134765625,3.107421875-.501953125,4.6650390625-.37109375,1.556640625-.88720703125,3.087890625-1.54541015625,4.591796875-1.00634765625,2.19921875-2.2734375,4.130859375-3.80322265625,5.798828125-1.52978515625,1.6669921875-3.18798828125,3.216796875-4.970703125,4.646484375-1.78515625,1.4306640625-3.65087890625,2.791015625-5.59912109375,4.08203125-1.94775390625,1.29296875-3.8642578125,2.6298828125-5.74755859375,4.013671875,5.12060546875.7373046875,10.23046875,1.6875,15.328125,2.8515625Z"/>
        <path d="M114.286302602247815,117.378874981507579c-.035344482910659.203000743273151-.141754425010731.739208503197005.046536867429495.822903923810372,14.714380755979619,6.540537644930737,23.148861066750214,20.670772876113915,24.161037933349689,38.568933218974053.791126746300506,13.989366704765416-2.798008152920374,25.337071121775807-10.767404697669917,34.043113251027535s-18.915140509119738,13.452724289865728-32.835281883799325,14.239936204907281c-13.441414091990737.760138926998479-24.4132064846508-2.88399978916641-32.917437464210707-10.934255880860292-8.504120702629734-8.048306082393538-13.144025041509849-18.930641825103521-13.91971301662943-32.647007228133589-.77949252945109-13.783640723810095,1.529006063679844-24.971869656310446,6.924355359339643-33.567556672976934,5.396379438770055-8.594767150485495,12.46936081946933-14.584730465083339,21.221924294500241-17.969080354552716,8.750613465729657-3.384239612531019,19.711101598379173-5.448764635171756,32.877564379329669-6.193354514049133l36.830559278349938-2.082842000030723c2.553337150520747-.144396337214857,4.7402822430995,1.808436036306375,4.88467858031072,4.361773186825303l.262404244389472,4.640051947149914c.1443963372094,2.553337150518928-1.808436036310013,4.7402822430995-4.36177318683076,4.884678580314358,0,0-31.689086255939401-2.293213795794145-32.407450687858727,1.832706337594573ZM104.390158399986831,121.695377793800617c-2.041507401059789-2.097486487837159-4.966273809330232-3.119505957432921-7.867179138999745-2.729697923208732-20.892890028820148,2.807474035125779-30.632439103409524,16.682860391110808-29.221925484359417,41.624745305425677.678699408999819,12.001332225321676,3.43153956552942,21.166675197244331,8.262530765139672,27.497758371184318,4.829041190309908,6.331193450878345,11.186968088599315,9.27378264039362,19.073780694870038,8.827767568545823,17.898160342859228-1.012176866595837,26.151200056950074-13.826236487348069,24.758898588380362-38.446078880853747-.854879975780932-15.1167047828676-5.856888667440217-27.374401885290354-15.00610542503091-36.774494441093339Z"/>
      </g>
      <g>
        <path class="cls-1" d="M197.006103515625,104.556640625c.3662109375.0673828125.623046875.2919921875.77001953125.671875.1455078125.380859375.2431640625.8046875.29150390625,1.2744140625.046875.4697265625.04052734375.9423828125-.02001953125,1.4189453125-.06201171875.4765625-.1123046875.8203125-.15087890625,1.029296875-.17529296875.943359375-.38525390625,1.9208984375-.626953125,2.93359375-.24267578125,1.01171875-.5224609375,1.935546875-.8408203125,2.771484375-.31787109375.8349609375-.68994140625,1.525390625-1.11669921875,2.0693359375-.42626953125.5439453125-.9375.8134765625-1.53369140625.8125-.28271484375.0556640625-.85009765625-.0234375-1.705078125-.2353515625-.85400390625-.2138671875-1.87548828125-.4853515625-3.06103515625-.8134765625-1.23779296875-.33984375-2.57080078125-.681640625-3.99658203125-1.0283203125-1.427734375-.34765625-2.8955078125-.6884765625-4.40478515625-1.0224609375-1.51123046875-.3359375-2.9736328125-.634765625-4.3876953125-.8974609375-1.4150390625-.263671875-2.677734375-.4716796875-3.78759765625-.623046875-.962890625-.0712890625-2.1396484375-.2353515625-3.52783203125-.494140625-1.38916015625-.2578125-2.5673828125-.55859375-3.533203125-.900390625-.7568359375-.3037109375-1.2451171875-1.03125-1.4638671875-2.18359375-.220703125-1.15234375-.232421875-2.4697265625-.0380859375-3.951171875s.59716796875-2.9931640625,1.208984375-4.533203125,1.34423828125-2.853515625,2.197265625-3.943359375c1.31689453125-1.54296875,2.734375-2.892578125,4.25048828125-4.0478515625,1.51611328125-1.154296875,3.07373046875-2.2470703125,4.67578125-3.2783203125,1.60107421875-1.0302734375,3.2314453125-2.068359375,4.89013671875-3.1162109375,1.65869140625-1.0458984375,3.3095703125-2.2021484375,4.95556640625-3.4697265625.693359375-.521484375,1.5185546875-1.31640625,2.47705078125-2.3857421875.95751953125-1.068359375,1.73193359375-2.1708984375,2.3232421875-3.30859375.7646484375-1.484375.9619140625-2.6943359375.59423828125-3.630859375-.36865234375-.935546875-1.02001953125-1.5849609375-1.955078125-1.94921875-.93603515625-.36328125-2.02197265625-.4306640625-3.2568359375-.19921875-1.23681640625.23046875-2.36669921875.7666015625-3.3896484375,1.6064453125-.90966796875.806640625-1.6513671875,1.806640625-2.2255859375,3.0009765625-.5751953125,1.1943359375-.74755859375,2.4921875-.51953125,3.888671875.0556640625.2822265625.1171875.60546875.18603515625.9697265625.06640625.3662109375.09765625.708984375.091796875,1.033203125-.0849609375.7451171875-.7080078125,1.4013671875-1.87109375,1.970703125-1.1630859375.5703125-2.4580078125.8984375-3.88330078125.9853515625-1.4267578125.087890625-2.76806640625-.134765625-4.02392578125-.6669921875-1.2568359375-.53125-2.02099609375-1.52734375-2.291015625-2.9873046875-.22607421875-1.994140625-.1259765625-3.9140625.298828125-5.7607421875.4248046875-1.84375,1.0751953125-3.59375,1.9521484375-5.248046875.876953125-1.6533203125,1.97216796875-3.1708984375,3.28662109375-4.552734375,1.31494140625-1.3828125,2.76416015625-2.548828125,4.35205078125-3.501953125,1.7099609375-1.0361328125,3.5947265625-1.7705078125,5.6552734375-2.2001953125,2.05810546875-.4306640625,4.12451171875-.5341796875,6.197265625-.3115234375,2.07421875.22265625,4.04345703125.7802734375,5.91162109375,1.6689453125,1.86767578125.890625,3.4609375,2.1630859375,4.77978515625,3.81640625,1.0625,1.283203125,1.83642578125,2.6591796875,2.322265625,4.1328125.484375,1.47265625.74609375,2.9853515625.78271484375,4.537109375.03662109375,1.552734375-.13134765625,3.107421875-.501953125,4.6650390625-.37109375,1.556640625-.88720703125,3.087890625-1.54541015625,4.591796875-1.00634765625,2.19921875-2.2734375,4.130859375-3.80322265625,5.798828125-1.52978515625,1.6669921875-3.18798828125,3.216796875-4.970703125,4.646484375-1.78515625,1.4306640625-3.65087890625,2.791015625-5.59912109375,4.08203125-1.94775390625,1.29296875-3.8642578125,2.6298828125-5.74755859375,4.013671875,5.12060546875.7373046875,10.23046875,1.6875,15.328125,2.8515625Z"/>
        <path class="cls-1" d="M114.286302602247815,117.378874981507579c-.035344482910659.203000743273151-.141754425010731.739208503197005.046536867429495.822903923810372,14.714380755979619,6.540537644930737,23.148861066750214,20.670772876113915,24.161037933349689,38.568933218974053.791126746300506,13.989366704765416-2.798008152920374,25.337071121775807-10.767404697669917,34.043113251027535s-18.915140509119738,13.452724289865728-32.835281883799325,14.239936204907281c-13.441414091990737.760138926998479-24.4132064846508-2.88399978916641-32.917437464210707-10.934255880860292-8.504120702629734-8.048306082393538-13.144025041509849-18.930641825103521-13.91971301662943-32.647007228133589-.77949252945109-13.783640723810095,1.529006063679844-24.971869656310446,6.924355359339643-33.567556672976934,5.396379438770055-8.594767150485495,12.46936081946933-14.584730465083339,21.221924294500241-17.969080354552716,8.750613465729657-3.384239612531019,19.711101598379173-5.448764635171756,32.877564379329669-6.193354514049133l36.830559278349938-2.082842000030723c2.553337150520747-.144396337214857,4.7402822430995,1.808436036306375,4.88467858031072,4.361773186825303l.262404244389472,4.640051947149914c.1443963372094,2.553337150518928-1.808436036310013,4.7402822430995-4.36177318683076,4.884678580314358,0,0-31.689086255939401-2.293213795794145-32.407450687858727,1.832706337594573ZM104.390158399986831,121.695377793800617c-2.041507401059789-2.097486487837159-4.966273809330232-3.119505957432921-7.867179138999745-2.729697923208732-20.892890028820148,2.807474035125779-30.632439103409524,16.682860391110808-29.221925484359417,41.624745305425677.678699408999819,12.001332225321676,3.43153956552942,21.166675197244331,8.262530765139672,27.497758371184318,4.829041190309908,6.331193450878345,11.186968088599315,9.27378264039362,19.073780694870038,8.827767568545823,17.898160342859228-1.012176866595837,26.151200056950074-13.826236487348069,24.758898588380362-38.446078880853747-.854879975780932-15.1167047828676-5.856888667440217-27.374401885290354-15.00610542503091-36.774494441093339Z"/>
      </g>
      <g>
        <path class="cls-2" d="M197.006103515625,104.556640625c.3662109375.0673828125.623046875.2919921875.77001953125.671875.1455078125.380859375.2431640625.8046875.29150390625,1.2744140625.046875.4697265625.04052734375.9423828125-.02001953125,1.4189453125-.06201171875.4765625-.1123046875.8203125-.15087890625,1.029296875-.17529296875.943359375-.38525390625,1.9208984375-.626953125,2.93359375-.24267578125,1.01171875-.5224609375,1.935546875-.8408203125,2.771484375-.31787109375.8349609375-.68994140625,1.525390625-1.11669921875,2.0693359375-.42626953125.5439453125-.9375.8134765625-1.53369140625.8125-.28271484375.0556640625-.85009765625-.0234375-1.705078125-.2353515625-.85400390625-.2138671875-1.87548828125-.4853515625-3.06103515625-.8134765625-1.23779296875-.33984375-2.57080078125-.681640625-3.99658203125-1.0283203125-1.427734375-.34765625-2.8955078125-.6884765625-4.40478515625-1.0224609375-1.51123046875-.3359375-2.9736328125-.634765625-4.3876953125-.8974609375-1.4150390625-.263671875-2.677734375-.4716796875-3.78759765625-.623046875-.962890625-.0712890625-2.1396484375-.2353515625-3.52783203125-.494140625-1.38916015625-.2578125-2.5673828125-.55859375-3.533203125-.900390625-.7568359375-.3037109375-1.2451171875-1.03125-1.4638671875-2.18359375-.220703125-1.15234375-.232421875-2.4697265625-.0380859375-3.951171875s.59716796875-2.9931640625,1.208984375-4.533203125,1.34423828125-2.853515625,2.197265625-3.943359375c1.31689453125-1.54296875,2.734375-2.892578125,4.25048828125-4.0478515625,1.51611328125-1.154296875,3.07373046875-2.2470703125,4.67578125-3.2783203125,1.60107421875-1.0302734375,3.2314453125-2.068359375,4.89013671875-3.1162109375,1.65869140625-1.0458984375,3.3095703125-2.2021484375,4.95556640625-3.4697265625.693359375-.521484375,1.5185546875-1.31640625,2.47705078125-2.3857421875.95751953125-1.068359375,1.73193359375-2.1708984375,2.3232421875-3.30859375.7646484375-1.484375.9619140625-2.6943359375.59423828125-3.630859375-.36865234375-.935546875-1.02001953125-1.5849609375-1.955078125-1.94921875-.93603515625-.36328125-2.02197265625-.4306640625-3.2568359375-.19921875-1.23681640625.23046875-2.36669921875.7666015625-3.3896484375,1.6064453125-.90966796875.806640625-1.6513671875,1.806640625-2.2255859375,3.0009765625-.5751953125,1.1943359375-.74755859375,2.4921875-.51953125,3.888671875.0556640625.2822265625.1171875.60546875.18603515625.9697265625.06640625.3662109375.09765625.708984375.091796875,1.033203125-.0849609375.7451171875-.7080078125,1.4013671875-1.87109375,1.970703125-1.1630859375.5703125-2.4580078125.8984375-3.88330078125.9853515625-1.4267578125.087890625-2.76806640625-.134765625-4.02392578125-.6669921875-1.2568359375-.53125-2.02099609375-1.52734375-2.291015625-2.9873046875-.22607421875-1.994140625-.1259765625-3.9140625.298828125-5.7607421875.4248046875-1.84375,1.0751953125-3.59375,1.9521484375-5.248046875.876953125-1.6533203125,1.97216796875-3.1708984375,3.28662109375-4.552734375,1.31494140625-1.3828125,2.76416015625-2.548828125,4.35205078125-3.501953125,1.7099609375-1.0361328125,3.5947265625-1.7705078125,5.6552734375-2.2001953125,2.05810546875-.4306640625,4.12451171875-.5341796875,6.197265625-.3115234375,2.07421875.22265625,4.04345703125.7802734375,5.91162109375,1.6689453125,1.86767578125.890625,3.4609375,2.1630859375,4.77978515625,3.81640625,1.0625,1.283203125,1.83642578125,2.6591796875,2.322265625,4.1328125.484375,1.47265625.74609375,2.9853515625.78271484375,4.537109375.03662109375,1.552734375-.13134765625,3.107421875-.501953125,4.6650390625-.37109375,1.556640625-.88720703125,3.087890625-1.54541015625,4.591796875-1.00634765625,2.19921875-2.2734375,4.130859375-3.80322265625,5.798828125-1.52978515625,1.6669921875-3.18798828125,3.216796875-4.970703125,4.646484375-1.78515625,1.4306640625-3.65087890625,2.791015625-5.59912109375,4.08203125-1.94775390625,1.29296875-3.8642578125,2.6298828125-5.74755859375,4.013671875,5.12060546875.7373046875,10.23046875,1.6875,15.328125,2.8515625Z"/>
        <path class="cls-2" d="M114.286302602247815,117.378874981507579c-.035344482910659.203000743273151-.141754425010731.739208503197005.046536867429495.822903923810372,14.714380755979619,6.540537644930737,23.148861066750214,20.670772876113915,24.161037933349689,38.568933218974053.791126746300506,13.989366704765416-2.798008152920374,25.337071121775807-10.767404697669917,34.043113251027535s-18.915140509119738,13.452724289865728-32.835281883799325,14.239936204907281c-13.441414091990737.760138926998479-24.4132064846508-2.88399978916641-32.917437464210707-10.934255880860292-8.504120702629734-8.048306082393538-13.144025041509849-18.930641825103521-13.91971301662943-32.647007228133589-.77949252945109-13.783640723810095,1.529006063679844-24.971869656310446,6.924355359339643-33.567556672976934,5.396379438770055-8.594767150485495,12.46936081946933-14.584730465083339,21.221924294500241-17.969080354552716,8.750613465729657-3.384239612531019,19.711101598379173-5.448764635171756,32.877564379329669-6.193354514049133l36.830559278349938-2.082842000030723c2.553337150520747-.144396337214857,4.7402822430995,1.808436036306375,4.88467858031072,4.361773186825303l.262404244389472,4.640051947149914c.1443963372094,2.553337150518928-1.808436036310013,4.7402822430995-4.36177318683076,4.884678580314358,0,0-31.689086255939401-2.293213795794145-32.407450687858727,1.832706337594573ZM104.390158399986831,121.695377793800617c-2.041507401059789-2.097486487837159-4.966273809330232-3.119505957432921-7.867179138999745-2.729697923208732-20.892890028820148,2.807474035125779-30.632439103409524,16.682860391110808-29.221925484359417,41.624745305425677.678699408999819,12.001332225321676,3.43153956552942,21.166675197244331,8.262530765139672,27.497758371184318,4.829041190309908,6.331193450878345,11.186968088599315,9.27378264039362,19.073780694870038,8.827767568545823,17.898160342859228-1.012176866595837,26.151200056950074-13.826236487348069,24.758898588380362-38.446078880853747-.854879975780932-15.1167047828676-5.856888667440217-27.374401885290354-15.00610542503091-36.774494441093339Z"/>
      </g>
      <g>
        <path class="cls-3" d="M197.006103515625,104.556640625c.3662109375.0673828125.623046875.2919921875.77001953125.671875.1455078125.380859375.2431640625.8046875.29150390625,1.2744140625.046875.4697265625.04052734375.9423828125-.02001953125,1.4189453125-.06201171875.4765625-.1123046875.8203125-.15087890625,1.029296875-.17529296875.943359375-.38525390625,1.9208984375-.626953125,2.93359375-.24267578125,1.01171875-.5224609375,1.935546875-.8408203125,2.771484375-.31787109375.8349609375-.68994140625,1.525390625-1.11669921875,2.0693359375-.42626953125.5439453125-.9375.8134765625-1.53369140625.8125-.28271484375.0556640625-.85009765625-.0234375-1.705078125-.2353515625-.85400390625-.2138671875-1.87548828125-.4853515625-3.06103515625-.8134765625-1.23779296875-.33984375-2.57080078125-.681640625-3.99658203125-1.0283203125-1.427734375-.34765625-2.8955078125-.6884765625-4.40478515625-1.0224609375-1.51123046875-.3359375-2.9736328125-.634765625-4.3876953125-.8974609375-1.4150390625-.263671875-2.677734375-.4716796875-3.78759765625-.623046875-.962890625-.0712890625-2.1396484375-.2353515625-3.52783203125-.494140625-1.38916015625-.2578125-2.5673828125-.55859375-3.533203125-.900390625-.7568359375-.3037109375-1.2451171875-1.03125-1.4638671875-2.18359375-.220703125-1.15234375-.232421875-2.4697265625-.0380859375-3.951171875s.59716796875-2.9931640625,1.208984375-4.533203125,1.34423828125-2.853515625,2.197265625-3.943359375c1.31689453125-1.54296875,2.734375-2.892578125,4.25048828125-4.0478515625,1.51611328125-1.154296875,3.07373046875-2.2470703125,4.67578125-3.2783203125,1.60107421875-1.0302734375,3.2314453125-2.068359375,4.89013671875-3.1162109375,1.65869140625-1.0458984375,3.3095703125-2.2021484375,4.95556640625-3.4697265625.693359375-.521484375,1.5185546875-1.31640625,2.47705078125-2.3857421875.95751953125-1.068359375,1.73193359375-2.1708984375,2.3232421875-3.30859375.7646484375-1.484375.9619140625-2.6943359375.59423828125-3.630859375-.36865234375-.935546875-1.02001953125-1.5849609375-1.955078125-1.94921875-.93603515625-.36328125-2.02197265625-.4306640625-3.2568359375-.19921875-1.23681640625.23046875-2.36669921875.7666015625-3.3896484375,1.6064453125-.90966796875.806640625-1.6513671875,1.806640625-2.2255859375,3.0009765625-.5751953125,1.1943359375-.74755859375,2.4921875-.51953125,3.888671875.0556640625.2822265625.1171875.60546875.18603515625.9697265625.06640625.3662109375.09765625.708984375.091796875,1.033203125-.0849609375.7451171875-.7080078125,1.4013671875-1.87109375,1.970703125-1.1630859375.5703125-2.4580078125.8984375-3.88330078125.9853515625-1.4267578125.087890625-2.76806640625-.134765625-4.02392578125-.6669921875-1.2568359375-.53125-2.02099609375-1.52734375-2.291015625-2.9873046875-.22607421875-1.994140625-.1259765625-3.9140625.298828125-5.7607421875.4248046875-1.84375,1.0751953125-3.59375,1.9521484375-5.248046875.876953125-1.6533203125,1.97216796875-3.1708984375,3.28662109375-4.552734375,1.31494140625-1.3828125,2.76416015625-2.548828125,4.35205078125-3.501953125,1.7099609375-1.0361328125,3.5947265625-1.7705078125,5.6552734375-2.2001953125,2.05810546875-.4306640625,4.12451171875-.5341796875,6.197265625-.3115234375,2.07421875.22265625,4.04345703125.7802734375,5.91162109375,1.6689453125,1.86767578125.890625,3.4609375,2.1630859375,4.77978515625,3.81640625,1.0625,1.283203125,1.83642578125,2.6591796875,2.322265625,4.1328125.484375,1.47265625.74609375,2.9853515625.78271484375,4.537109375.03662109375,1.552734375-.13134765625,3.107421875-.501953125,4.6650390625-.37109375,1.556640625-.88720703125,3.087890625-1.54541015625,4.591796875-1.00634765625,2.19921875-2.2734375,4.130859375-3.80322265625,5.798828125-1.52978515625,1.6669921875-3.18798828125,3.216796875-4.970703125,4.646484375-1.78515625,1.4306640625-3.65087890625,2.791015625-5.59912109375,4.08203125-1.94775390625,1.29296875-3.8642578125,2.6298828125-5.74755859375,4.013671875,5.12060546875.7373046875,10.23046875,1.6875,15.328125,2.8515625Z"/>
        <path class="cls-3" d="M114.286302602247815,117.378874981507579c-.035344482910659.203000743273151-.141754425010731.739208503197005.046536867429495.822903923810372,14.714380755979619,6.540537644930737,23.148861066750214,20.670772876113915,24.161037933349689,38.568933218974053.791126746300506,13.989366704765416-2.798008152920374,25.337071121775807-10.767404697669917,34.043113251027535s-18.915140509119738,13.452724289865728-32.835281883799325,14.239936204907281c-13.441414091990737.760138926998479-24.4132064846508-2.88399978916641-32.917437464210707-10.934255880860292-8.504120702629734-8.048306082393538-13.144025041509849-18.930641825103521-13.91971301662943-32.647007228133589-.77949252945109-13.783640723810095,1.529006063679844-24.971869656310446,6.924355359339643-33.567556672976934,5.396379438770055-8.594767150485495,12.46936081946933-14.584730465083339,21.221924294500241-17.969080354552716,8.750613465729657-3.384239612531019,19.711101598379173-5.448764635171756,32.877564379329669-6.193354514049133l36.830559278349938-2.082842000030723c2.553337150520747-.144396337214857,4.7402822430995,1.808436036306375,4.88467858031072,4.361773186825303l.262404244389472,4.640051947149914c.1443963372094,2.553337150518928-1.808436036310013,4.7402822430995-4.36177318683076,4.884678580314358,0,0-31.689086255939401-2.293213795794145-32.407450687858727,1.832706337594573ZM104.390158399986831,121.695377793800617c-2.041507401059789-2.097486487837159-4.966273809330232-3.119505957432921-7.867179138999745-2.729697923208732-20.892890028820148,2.807474035125779-30.632439103409524,16.682860391110808-29.221925484359417,41.624745305425677.678699408999819,12.001332225321676,3.43153956552942,21.166675197244331,8.262530765139672,27.497758371184318,4.829041190309908,6.331193450878345,11.186968088599315,9.27378264039362,19.073780694870038,8.827767568545823,17.898160342859228-1.012176866595837,26.151200056950074-13.826236487348069,24.758898588380362-38.446078880853747-.854879975780932-15.1167047828676-5.856888667440217-27.374401885290354-15.00610542503091-36.774494441093339Z"/>
      </g>
    </g>
  </a>
</svg>