<?xml version="1.0" encoding="UTF-8"?>
<svg id="Content" xmlns="http://www.w3.org/2000/svg" viewBox="0 0 280 280">
  <defs>
    <style>
      .cls-1 {
        stroke: #665451;
        stroke-width: 50px;
      }

      .cls-1, .cls-2 {
        fill: none;
        stroke-linecap: round;
        stroke-linejoin: round;
      }

      .cls-3 {
        fill: #fff;
      }

      .cls-2 {
        stroke: #998675;
        stroke-width: 2px;
      }
    </style>
  </defs>
  <path d="M143.427490234375,161.05712890625c.8878173828125,1.005859375,1.451416015625,2.16943359375,1.694091796875,3.49169921875.2181396484375,1.0595703125.15771484375,2.375-.184326171875,3.9462890625-.344970703125,1.5751953125-1.250732421875,3.22607421875-2.7232666015625,4.9580078125-1.4725341796875,1.73291015625-3.0821533203125,3.4443359375-4.826171875,5.12939453125-1.7469482421875,1.6884765625-3.5809326171875,3.08056640625-5.5081787109375,4.17578125-1.927490234375,1.0947265625-3.89794921875,1.6572265625-5.9114990234375,1.6884765625-2.0137939453125.02783203125-4.0924072265625-.74609375-6.2359619140625-2.31689453125-1.1351318359375-.71484375-3.125732421875-2.5-5.978515625-5.3623046875-2.8525390625-2.859375-6.204833984375-6.484375-10.0543212890625-10.87841796875-1.9207763671875-2.12841796875-3.955322265625-4.41748046875-6.100341796875-6.8642578125-2.1480712890625-2.447265625-4.39892578125-4.91748046875-6.7498779296875-7.4169921875-3.648681640625,4.73095703125-7.084716796875,9.21142578125-10.30224609375,13.43505859375-3.22021484375,4.2265625-6.046142578125,7.91748046875-8.4779052734375,11.0693359375-2.9232177734375,3.7333984375-5.6021728515625,7.17626953125-8.0338134765625,10.32763671875-.615478515625.72412109375-1.37353515625,1.3212890625-2.273681640625,1.79736328125-.7796630859375.3310546875-1.707275390625.5068359375-2.77978515625.52734375-1.075927734375.01806640625-2.38916015625-.4453125-3.943603515625-1.3935546875-1.54638671875-.8134765625-3.34619140625-1.8779296875-5.3994140625-3.19189453125-2.0560302734375-1.31103515625-3.946044921875-2.66943359375-5.6728515625-4.07666015625-1.7265625-1.4033203125-3.0186767578125-2.810546875-3.8701171875-4.22265625-.8543701171875-1.408203125-.92822265625-2.7470703125-.224365234375-4.013671875l30.706787109375-44.0185546875c-3.8631591796875-4.525390625-7.4383544921875-8.83837890625-10.7254638671875-12.94140625-3.2900390625-4.09912109375-6.2049560546875-7.72802734375-8.744384765625-10.8837890625-2.8516845703125-3.66552734375-5.4815673828125-7.0810546875-7.886474609375-10.24755859375-.734619140625-.7470703125-1.2054443359375-1.58154296875-1.4127197265625-2.50634765625-.199462890625-.79052734375-.135009765625-1.66796875.189697265625-2.63671875.3250732421875-.96484375,1.176513671875-2.0419921875,2.560791015625-3.2314453125,1.3812255859375-1.185546875,3.01806640625-2.5625,4.9072265625-4.126953125,1.889404296875-1.564453125,3.7579345703125-2.95703125,5.6083984375-4.18408203125,1.84765625-1.2236328125,3.593505859375-2.07080078125,5.237548828125-2.541015625,1.64111328125-.466796875,2.97265625-.2060546875,3.994873046875.78564453125,4.005615234375,4.6484375,8.0030517578125,9.1982421875,11.9921875,13.64404296875,3.9893798828125,4.44921875,7.981201171875,8.9296875,11.975830078125,13.4443359375l19.722412109375-27.80615234375c.86767578125-.876953125,1.94970703125-1.63525390625,3.24267578125-2.27880859375,1.03466796875-.48681640625,2.3575439453125-.76123046875,3.9652099609375-.82470703125,1.60791015625-.0615234375,3.3929443359375.43017578125,5.36181640625,1.48095703125,2.1002197265625,1.0390625,4.2113037109375,2.21337890625,6.3331298828125,3.5185546875,2.1221923828125,1.30859375,3.917236328125,2.74169921875,5.388671875,4.30126953125,1.468505859375,1.56298828125,2.45263671875,3.3291015625,2.949951171875,5.3046875.493896484375,1.97607421875.1663818359375,4.154296875-.983154296875,6.53125-.4700927734375.84423828125-1.392333984375,2.33056640625-2.763671875,4.4580078125-1.374267578125,2.12744140625-3.150634765625,4.65869140625-5.33251953125,7.58837890625-2.181640625,2.93359375-4.636962890625,6.22265625-7.365234375,9.87109375-2.7286376953125,3.64794921875-5.612548828125,7.4794921875-8.6458740234375,11.486328125,5.5816650390625,5.8671875,11.12890625,11.69873046875,16.6392822265625,17.50146484375,5.51025390625,5.8037109375,11.0545654296875,11.6396484375,16.63916015625,17.50244140625Z"/>
  <path class="cls-1" d="M143.427490234375,161.05712890625c.8878173828125,1.005859375,1.451416015625,2.16943359375,1.694091796875,3.49169921875.2181396484375,1.0595703125.15771484375,2.375-.184326171875,3.9462890625-.344970703125,1.5751953125-1.250732421875,3.22607421875-2.7232666015625,4.9580078125-1.4725341796875,1.73291015625-3.0821533203125,3.4443359375-4.826171875,5.12939453125-1.7469482421875,1.6884765625-3.5809326171875,3.08056640625-5.5081787109375,4.17578125-1.927490234375,1.0947265625-3.89794921875,1.6572265625-5.9114990234375,1.6884765625-2.0137939453125.02783203125-4.0924072265625-.74609375-6.2359619140625-2.31689453125-1.1351318359375-.71484375-3.125732421875-2.5-5.978515625-5.3623046875-2.8525390625-2.859375-6.204833984375-6.484375-10.0543212890625-10.87841796875-1.9207763671875-2.12841796875-3.955322265625-4.41748046875-6.100341796875-6.8642578125-2.1480712890625-2.447265625-4.39892578125-4.91748046875-6.7498779296875-7.4169921875-3.648681640625,4.73095703125-7.084716796875,9.21142578125-10.30224609375,13.43505859375-3.22021484375,4.2265625-6.046142578125,7.91748046875-8.4779052734375,11.0693359375-2.9232177734375,3.7333984375-5.6021728515625,7.17626953125-8.0338134765625,10.32763671875-.615478515625.72412109375-1.37353515625,1.3212890625-2.273681640625,1.79736328125-.7796630859375.3310546875-1.707275390625.5068359375-2.77978515625.52734375-1.075927734375.01806640625-2.38916015625-.4453125-3.943603515625-1.3935546875-1.54638671875-.8134765625-3.34619140625-1.8779296875-5.3994140625-3.19189453125-2.0560302734375-1.31103515625-3.946044921875-2.66943359375-5.6728515625-4.07666015625-1.7265625-1.4033203125-3.0186767578125-2.810546875-3.8701171875-4.22265625-.8543701171875-1.408203125-.92822265625-2.7470703125-.224365234375-4.013671875l30.706787109375-44.0185546875c-3.8631591796875-4.525390625-7.4383544921875-8.83837890625-10.7254638671875-12.94140625-3.2900390625-4.09912109375-6.2049560546875-7.72802734375-8.744384765625-10.8837890625-2.8516845703125-3.66552734375-5.4815673828125-7.0810546875-7.886474609375-10.24755859375-.734619140625-.7470703125-1.2054443359375-1.58154296875-1.4127197265625-2.50634765625-.199462890625-.79052734375-.135009765625-1.66796875.189697265625-2.63671875.3250732421875-.96484375,1.176513671875-2.0419921875,2.560791015625-3.2314453125,1.3812255859375-1.185546875,3.01806640625-2.5625,4.9072265625-4.126953125,1.889404296875-1.564453125,3.7579345703125-2.95703125,5.6083984375-4.18408203125,1.84765625-1.2236328125,3.593505859375-2.07080078125,5.237548828125-2.541015625,1.64111328125-.466796875,2.97265625-.2060546875,3.994873046875.78564453125,4.005615234375,4.6484375,8.0030517578125,9.1982421875,11.9921875,13.64404296875,3.9893798828125,4.44921875,7.981201171875,8.9296875,11.975830078125,13.4443359375l19.722412109375-27.80615234375c.86767578125-.876953125,1.94970703125-1.63525390625,3.24267578125-2.27880859375,1.03466796875-.48681640625,2.3575439453125-.76123046875,3.9652099609375-.82470703125,1.60791015625-.0615234375,3.3929443359375.43017578125,5.36181640625,1.48095703125,2.1002197265625,1.0390625,4.2113037109375,2.21337890625,6.3331298828125,3.5185546875,2.1221923828125,1.30859375,3.917236328125,2.74169921875,5.388671875,4.30126953125,1.468505859375,1.56298828125,2.45263671875,3.3291015625,2.949951171875,5.3046875.493896484375,1.97607421875.1663818359375,4.154296875-.983154296875,6.53125-.4700927734375.84423828125-1.392333984375,2.33056640625-2.763671875,4.4580078125-1.374267578125,2.12744140625-3.150634765625,4.65869140625-5.33251953125,7.58837890625-2.181640625,2.93359375-4.636962890625,6.22265625-7.365234375,9.87109375-2.7286376953125,3.64794921875-5.612548828125,7.4794921875-8.6458740234375,11.486328125,5.5816650390625,5.8671875,11.12890625,11.69873046875,16.6392822265625,17.50146484375,5.51025390625,5.8037109375,11.0545654296875,11.6396484375,16.63916015625,17.50244140625Z"/>
  <path class="cls-2" d="M143.427490234375,161.05712890625c.8878173828125,1.005859375,1.451416015625,2.16943359375,1.694091796875,3.49169921875.2181396484375,1.0595703125.15771484375,2.375-.184326171875,3.9462890625-.344970703125,1.5751953125-1.250732421875,3.22607421875-2.7232666015625,4.9580078125-1.4725341796875,1.73291015625-3.0821533203125,3.4443359375-4.826171875,5.12939453125-1.7469482421875,1.6884765625-3.5809326171875,3.08056640625-5.5081787109375,4.17578125-1.927490234375,1.0947265625-3.89794921875,1.6572265625-5.9114990234375,1.6884765625-2.0137939453125.02783203125-4.0924072265625-.74609375-6.2359619140625-2.31689453125-1.1351318359375-.71484375-3.125732421875-2.5-5.978515625-5.3623046875-2.8525390625-2.859375-6.204833984375-6.484375-10.0543212890625-10.87841796875-1.9207763671875-2.12841796875-3.955322265625-4.41748046875-6.100341796875-6.8642578125-2.1480712890625-2.447265625-4.39892578125-4.91748046875-6.7498779296875-7.4169921875-3.648681640625,4.73095703125-7.084716796875,9.21142578125-10.30224609375,13.43505859375-3.22021484375,4.2265625-6.046142578125,7.91748046875-8.4779052734375,11.0693359375-2.9232177734375,3.7333984375-5.6021728515625,7.17626953125-8.0338134765625,10.32763671875-.615478515625.72412109375-1.37353515625,1.3212890625-2.273681640625,1.79736328125-.7796630859375.3310546875-1.707275390625.5068359375-2.77978515625.52734375-1.075927734375.01806640625-2.38916015625-.4453125-3.943603515625-1.3935546875-1.54638671875-.8134765625-3.34619140625-1.8779296875-5.3994140625-3.19189453125-2.0560302734375-1.31103515625-3.946044921875-2.66943359375-5.6728515625-4.07666015625-1.7265625-1.4033203125-3.0186767578125-2.810546875-3.8701171875-4.22265625-.8543701171875-1.408203125-.92822265625-2.7470703125-.224365234375-4.013671875l30.706787109375-44.0185546875c-3.8631591796875-4.525390625-7.4383544921875-8.83837890625-10.7254638671875-12.94140625-3.2900390625-4.09912109375-6.2049560546875-7.72802734375-8.744384765625-10.8837890625-2.8516845703125-3.66552734375-5.4815673828125-7.0810546875-7.886474609375-10.24755859375-.734619140625-.7470703125-1.2054443359375-1.58154296875-1.4127197265625-2.50634765625-.199462890625-.79052734375-.135009765625-1.66796875.189697265625-2.63671875.3250732421875-.96484375,1.176513671875-2.0419921875,2.560791015625-3.2314453125,1.3812255859375-1.185546875,3.01806640625-2.5625,4.9072265625-4.126953125,1.889404296875-1.564453125,3.7579345703125-2.95703125,5.6083984375-4.18408203125,1.84765625-1.2236328125,3.593505859375-2.07080078125,5.237548828125-2.541015625,1.64111328125-.466796875,2.97265625-.2060546875,3.994873046875.78564453125,4.005615234375,4.6484375,8.0030517578125,9.1982421875,11.9921875,13.64404296875,3.9893798828125,4.44921875,7.981201171875,8.9296875,11.975830078125,13.4443359375l19.722412109375-27.80615234375c.86767578125-.876953125,1.94970703125-1.63525390625,3.24267578125-2.27880859375,1.03466796875-.48681640625,2.3575439453125-.76123046875,3.9652099609375-.82470703125,1.60791015625-.0615234375,3.3929443359375.43017578125,5.36181640625,1.48095703125,2.1002197265625,1.0390625,4.2113037109375,2.21337890625,6.3331298828125,3.5185546875,2.1221923828125,1.30859375,3.917236328125,2.74169921875,5.388671875,4.30126953125,1.468505859375,1.56298828125,2.45263671875,3.3291015625,2.949951171875,5.3046875.493896484375,1.97607421875.1663818359375,4.154296875-.983154296875,6.53125-.4700927734375.84423828125-1.392333984375,2.33056640625-2.763671875,4.4580078125-1.374267578125,2.12744140625-3.150634765625,4.65869140625-5.33251953125,7.58837890625-2.181640625,2.93359375-4.636962890625,6.22265625-7.365234375,9.87109375-2.7286376953125,3.64794921875-5.612548828125,7.4794921875-8.6458740234375,11.486328125,5.5816650390625,5.8671875,11.12890625,11.69873046875,16.6392822265625,17.50146484375,5.51025390625,5.8037109375,11.0545654296875,11.6396484375,16.63916015625,17.50244140625Z"/>
  <path class="cls-3" d="M143.427490234375,161.05712890625c.8878173828125,1.005859375,1.451416015625,2.16943359375,1.694091796875,3.49169921875.2181396484375,1.0595703125.15771484375,2.375-.184326171875,3.9462890625-.344970703125,1.5751953125-1.250732421875,3.22607421875-2.7232666015625,4.9580078125-1.4725341796875,1.73291015625-3.0821533203125,3.4443359375-4.826171875,5.12939453125-1.7469482421875,1.6884765625-3.5809326171875,3.08056640625-5.5081787109375,4.17578125-1.927490234375,1.0947265625-3.89794921875,1.6572265625-5.9114990234375,1.6884765625-2.0137939453125.02783203125-4.0924072265625-.74609375-6.2359619140625-2.31689453125-1.1351318359375-.71484375-3.125732421875-2.5-5.978515625-5.3623046875-2.8525390625-2.859375-6.204833984375-6.484375-10.0543212890625-10.87841796875-1.9207763671875-2.12841796875-3.955322265625-4.41748046875-6.100341796875-6.8642578125-2.1480712890625-2.447265625-4.39892578125-4.91748046875-6.7498779296875-7.4169921875-3.648681640625,4.73095703125-7.084716796875,9.21142578125-10.30224609375,13.43505859375-3.22021484375,4.2265625-6.046142578125,7.91748046875-8.4779052734375,11.0693359375-2.9232177734375,3.7333984375-5.6021728515625,7.17626953125-8.0338134765625,10.32763671875-.615478515625.72412109375-1.37353515625,1.3212890625-2.273681640625,1.79736328125-.7796630859375.3310546875-1.707275390625.5068359375-2.77978515625.52734375-1.075927734375.01806640625-2.38916015625-.4453125-3.943603515625-1.3935546875-1.54638671875-.8134765625-3.34619140625-1.8779296875-5.3994140625-3.19189453125-2.0560302734375-1.31103515625-3.946044921875-2.66943359375-5.6728515625-4.07666015625-1.7265625-1.4033203125-3.0186767578125-2.810546875-3.8701171875-4.22265625-.8543701171875-1.408203125-.92822265625-2.7470703125-.224365234375-4.013671875l30.706787109375-44.0185546875c-3.8631591796875-4.525390625-7.4383544921875-8.83837890625-10.7254638671875-12.94140625-3.2900390625-4.09912109375-6.2049560546875-7.72802734375-8.744384765625-10.8837890625-2.8516845703125-3.66552734375-5.4815673828125-7.0810546875-7.886474609375-10.24755859375-.734619140625-.7470703125-1.2054443359375-1.58154296875-1.4127197265625-2.50634765625-.199462890625-.79052734375-.135009765625-1.66796875.189697265625-2.63671875.3250732421875-.96484375,1.176513671875-2.0419921875,2.560791015625-3.2314453125,1.3812255859375-1.185546875,3.01806640625-2.5625,4.9072265625-4.126953125,1.889404296875-1.564453125,3.7579345703125-2.95703125,5.6083984375-4.18408203125,1.84765625-1.2236328125,3.593505859375-2.07080078125,5.237548828125-2.541015625,1.64111328125-.466796875,2.97265625-.2060546875,3.994873046875.78564453125,4.005615234375,4.6484375,8.0030517578125,9.1982421875,11.9921875,13.64404296875,3.9893798828125,4.44921875,7.981201171875,8.9296875,11.975830078125,13.4443359375l19.722412109375-27.80615234375c.86767578125-.876953125,1.94970703125-1.63525390625,3.24267578125-2.27880859375,1.03466796875-.48681640625,2.3575439453125-.76123046875,3.9652099609375-.82470703125,1.60791015625-.0615234375,3.3929443359375.43017578125,5.36181640625,1.48095703125,2.1002197265625,1.0390625,4.2113037109375,2.21337890625,6.3331298828125,3.5185546875,2.1221923828125,1.30859375,3.917236328125,2.74169921875,5.388671875,4.30126953125,1.468505859375,1.56298828125,2.45263671875,3.3291015625,2.949951171875,5.3046875.493896484375,1.97607421875.1663818359375,4.154296875-.983154296875,6.53125-.4700927734375.84423828125-1.392333984375,2.33056640625-2.763671875,4.4580078125-1.374267578125,2.12744140625-3.150634765625,4.65869140625-5.33251953125,7.58837890625-2.181640625,2.93359375-4.636962890625,6.22265625-7.365234375,9.87109375-2.7286376953125,3.64794921875-5.612548828125,7.4794921875-8.6458740234375,11.486328125,5.5816650390625,5.8671875,11.12890625,11.69873046875,16.6392822265625,17.50146484375,5.51025390625,5.8037109375,11.0545654296875,11.6396484375,16.63916015625,17.50244140625Z"/>
</svg>