<?xml version="1.0" encoding="UTF-8"?>
<svg id="Content" xmlns="http://www.w3.org/2000/svg" viewBox="0 0 280 280">
  <defs>
    <style>
      .cls-1 {
        stroke: #665451;
        stroke-width: 50px;
      }

      .cls-1, .cls-2 {
        fill: none;
        stroke-linecap: round;
        stroke-linejoin: round;
      }

      .cls-3 {
        fill: #fff;
      }

      .cls-2 {
        stroke: #998675;
        stroke-width: 2px;
      }
    </style>
  </defs>
  <path d="M137.732666015625,159.47314453125c.727294921875,1.126953125,1.1103515625,2.3623046875,1.15234375,3.70556640625.0570068359375,1.08056640625-.19970703125,2.37158203125-.773193359375,3.87451171875-.57666015625,1.50537109375-1.719482421875,3.00244140625-3.4346923828125,4.494140625-1.7152099609375,1.49267578125-3.5631103515625,2.9443359375-5.5396728515625,4.34912109375-1.9801025390625,1.4072265625-4.0018310546875,2.509765625-6.0712890625,3.30419921875-2.069580078125.79345703125-4.1021728515625,1.05517578125-6.09765625.7841796875-1.9951171875-.27392578125-3.9346923828125-1.35009765625-5.8187255859375-3.22412109375-1.015380859375-.87646484375-2.71630859375-2.93994140625-5.1083984375-6.19775390625-2.3922119140625-3.25341796875-5.1641845703125-7.33935546875-8.3123779296875-12.2607421875-1.58056640625-2.3916015625-3.24951171875-4.95947265625-5.00390625-7.7001953125-1.757568359375-2.74072265625-3.61328125-5.5205078125-5.5634765625-8.34375-4.31591796875,4.13134765625-8.384033203125,8.04736328125-12.197509765625,11.7412109375-3.81689453125,3.697265625-7.1634521484375,6.923828125-10.03955078125,9.67529296875-3.44921875,3.25390625-6.613525390625,6.25732421875-9.489501953125,9.00927734375-.7169189453125.62353515625-1.555908203125,1.1005859375-2.51708984375,1.4365234375-.8203125.2099609375-1.763916015625.24560546875-2.8275146484375.10546875-1.0662841796875-.1435546875-2.2955322265625-.798828125-3.6903076171875-1.96875-1.4072265625-1.0361328125-3.02734375-2.357421875-4.86083984375-3.96435546875-1.836669921875-1.603515625-3.501708984375-3.22998046875-4.99853515625-4.8798828125-1.4969482421875-1.64599609375-2.5638427734375-3.23095703125-3.1943359375-4.75390625-.634033203125-1.5205078125-.5064697265625-2.85546875.3790283203125-4.00244140625l36.9508056640625-38.92529296875c-3.142333984375-5.052734375-6.031494140625-9.85205078125-8.667236328125-14.4013671875-2.639404296875-4.54541015625-4.97802734375-8.56982421875-7.0164794921875-12.06982421875-2.270751953125-4.0517578125-4.3597412109375-7.822265625-6.2633056640625-11.3134765625-.6146240234375-.84814453125-.9552001953125-1.74365234375-1.0216064453125-2.689453125-.078857421875-.81103515625.1160888671875-1.66943359375.5821533203125-2.578125.4658203125-.90576171875,1.468994140625-1.84326171875,3.015625-2.81201171875,1.543212890625-.96533203125,3.36767578125-2.08154296875,5.469970703125-3.345703125,2.102294921875-1.263671875,4.158203125-2.36083984375,6.171630859375-3.29736328125,2.0098876953125-.93359375,3.8629150390625-1.509765625,5.558837890625-1.72802734375,1.692626953125-.21630859375,2.9700927734375.24072265625,3.832275390625,1.3740234375,3.264404296875,5.19677734375,6.5357666015625,10.29345703125,9.8143310546875,15.2861328125,3.2783203125,4.99658203125,6.554443359375,10.02392578125,9.828125,15.0859375l23.6629638671875-24.54052734375c.989013671875-.73681640625,2.172607421875-1.3251953125,3.54736328125-1.76708984375,1.095947265625-.32666015625,2.44482421875-.39990234375,4.0439453125-.22216796875,1.5989990234375.1796875,3.290283203125.93310546875,5.0797119140625,2.2666015625,1.9208984375,1.34228515625,3.83251953125,2.8193359375,5.7349853515625,4.42724609375,1.90234375,1.61181640625,3.462646484375,3.296875,4.683837890625,5.06005859375,1.2181396484375,1.76513671875,1.9267578125,3.65869140625,2.12255859375,5.6865234375.192626953125,2.02783203125-.457275390625,4.1318359375-1.94970703125,6.31005859375-.59130859375.7646484375-1.7255859375,2.095703125-3.39990234375,3.994140625-1.6773681640625,1.8974609375-3.8126220703125,4.134765625-6.408447265625,6.70458984375-2.59619140625,2.57373046875-5.516357421875,5.4580078125-8.76025390625,8.65673828125s-6.668701171875,6.55517578125-10.267822265625,10.0625c4.640380859375,6.63671875,9.251953125,13.2333984375,13.83154296875,19.79638671875,4.579345703125,6.5625,9.1875,13.16259765625,13.831298828125,19.7958984375Z"/>
  <path class="cls-1" d="M137.732666015625,159.47314453125c.727294921875,1.126953125,1.1103515625,2.3623046875,1.15234375,3.70556640625.0570068359375,1.08056640625-.19970703125,2.37158203125-.773193359375,3.87451171875-.57666015625,1.50537109375-1.719482421875,3.00244140625-3.4346923828125,4.494140625-1.7152099609375,1.49267578125-3.5631103515625,2.9443359375-5.5396728515625,4.34912109375-1.9801025390625,1.4072265625-4.0018310546875,2.509765625-6.0712890625,3.30419921875-2.069580078125.79345703125-4.1021728515625,1.05517578125-6.09765625.7841796875-1.9951171875-.27392578125-3.9346923828125-1.35009765625-5.8187255859375-3.22412109375-1.015380859375-.87646484375-2.71630859375-2.93994140625-5.1083984375-6.19775390625-2.3922119140625-3.25341796875-5.1641845703125-7.33935546875-8.3123779296875-12.2607421875-1.58056640625-2.3916015625-3.24951171875-4.95947265625-5.00390625-7.7001953125-1.757568359375-2.74072265625-3.61328125-5.5205078125-5.5634765625-8.34375-4.31591796875,4.13134765625-8.384033203125,8.04736328125-12.197509765625,11.7412109375-3.81689453125,3.697265625-7.1634521484375,6.923828125-10.03955078125,9.67529296875-3.44921875,3.25390625-6.613525390625,6.25732421875-9.489501953125,9.00927734375-.7169189453125.62353515625-1.555908203125,1.1005859375-2.51708984375,1.4365234375-.8203125.2099609375-1.763916015625.24560546875-2.8275146484375.10546875-1.0662841796875-.1435546875-2.2955322265625-.798828125-3.6903076171875-1.96875-1.4072265625-1.0361328125-3.02734375-2.357421875-4.86083984375-3.96435546875-1.836669921875-1.603515625-3.501708984375-3.22998046875-4.99853515625-4.8798828125-1.4969482421875-1.64599609375-2.5638427734375-3.23095703125-3.1943359375-4.75390625-.634033203125-1.5205078125-.5064697265625-2.85546875.3790283203125-4.00244140625l36.9508056640625-38.92529296875c-3.142333984375-5.052734375-6.031494140625-9.85205078125-8.667236328125-14.4013671875-2.639404296875-4.54541015625-4.97802734375-8.56982421875-7.0164794921875-12.06982421875-2.270751953125-4.0517578125-4.3597412109375-7.822265625-6.2633056640625-11.3134765625-.6146240234375-.84814453125-.9552001953125-1.74365234375-1.0216064453125-2.689453125-.078857421875-.81103515625.1160888671875-1.66943359375.5821533203125-2.578125.4658203125-.90576171875,1.468994140625-1.84326171875,3.015625-2.81201171875,1.543212890625-.96533203125,3.36767578125-2.08154296875,5.469970703125-3.345703125,2.102294921875-1.263671875,4.158203125-2.36083984375,6.171630859375-3.29736328125,2.0098876953125-.93359375,3.8629150390625-1.509765625,5.558837890625-1.72802734375,1.692626953125-.21630859375,2.9700927734375.24072265625,3.832275390625,1.3740234375,3.264404296875,5.19677734375,6.5357666015625,10.29345703125,9.8143310546875,15.2861328125,3.2783203125,4.99658203125,6.554443359375,10.02392578125,9.828125,15.0859375l23.6629638671875-24.54052734375c.989013671875-.73681640625,2.172607421875-1.3251953125,3.54736328125-1.76708984375,1.095947265625-.32666015625,2.44482421875-.39990234375,4.0439453125-.22216796875,1.5989990234375.1796875,3.290283203125.93310546875,5.0797119140625,2.2666015625,1.9208984375,1.34228515625,3.83251953125,2.8193359375,5.7349853515625,4.42724609375,1.90234375,1.61181640625,3.462646484375,3.296875,4.683837890625,5.06005859375,1.2181396484375,1.76513671875,1.9267578125,3.65869140625,2.12255859375,5.6865234375.192626953125,2.02783203125-.457275390625,4.1318359375-1.94970703125,6.31005859375-.59130859375.7646484375-1.7255859375,2.095703125-3.39990234375,3.994140625-1.6773681640625,1.8974609375-3.8126220703125,4.134765625-6.408447265625,6.70458984375-2.59619140625,2.57373046875-5.516357421875,5.4580078125-8.76025390625,8.65673828125s-6.668701171875,6.55517578125-10.267822265625,10.0625c4.640380859375,6.63671875,9.251953125,13.2333984375,13.83154296875,19.79638671875,4.579345703125,6.5625,9.1875,13.16259765625,13.831298828125,19.7958984375Z"/>
  <path class="cls-2" d="M137.732666015625,159.47314453125c.727294921875,1.126953125,1.1103515625,2.3623046875,1.15234375,3.70556640625.0570068359375,1.08056640625-.19970703125,2.37158203125-.773193359375,3.87451171875-.57666015625,1.50537109375-1.719482421875,3.00244140625-3.4346923828125,4.494140625-1.7152099609375,1.49267578125-3.5631103515625,2.9443359375-5.5396728515625,4.34912109375-1.9801025390625,1.4072265625-4.0018310546875,2.509765625-6.0712890625,3.30419921875-2.069580078125.79345703125-4.1021728515625,1.05517578125-6.09765625.7841796875-1.9951171875-.27392578125-3.9346923828125-1.35009765625-5.8187255859375-3.22412109375-1.015380859375-.87646484375-2.71630859375-2.93994140625-5.1083984375-6.19775390625-2.3922119140625-3.25341796875-5.1641845703125-7.33935546875-8.3123779296875-12.2607421875-1.58056640625-2.3916015625-3.24951171875-4.95947265625-5.00390625-7.7001953125-1.757568359375-2.74072265625-3.61328125-5.5205078125-5.5634765625-8.34375-4.31591796875,4.13134765625-8.384033203125,8.04736328125-12.197509765625,11.7412109375-3.81689453125,3.697265625-7.1634521484375,6.923828125-10.03955078125,9.67529296875-3.44921875,3.25390625-6.613525390625,6.25732421875-9.489501953125,9.00927734375-.7169189453125.62353515625-1.555908203125,1.1005859375-2.51708984375,1.4365234375-.8203125.2099609375-1.763916015625.24560546875-2.8275146484375.10546875-1.0662841796875-.1435546875-2.2955322265625-.798828125-3.6903076171875-1.96875-1.4072265625-1.0361328125-3.02734375-2.357421875-4.86083984375-3.96435546875-1.836669921875-1.603515625-3.501708984375-3.22998046875-4.99853515625-4.8798828125-1.4969482421875-1.64599609375-2.5638427734375-3.23095703125-3.1943359375-4.75390625-.634033203125-1.5205078125-.5064697265625-2.85546875.3790283203125-4.00244140625l36.9508056640625-38.92529296875c-3.142333984375-5.052734375-6.031494140625-9.85205078125-8.667236328125-14.4013671875-2.639404296875-4.54541015625-4.97802734375-8.56982421875-7.0164794921875-12.06982421875-2.270751953125-4.0517578125-4.3597412109375-7.822265625-6.2633056640625-11.3134765625-.6146240234375-.84814453125-.9552001953125-1.74365234375-1.0216064453125-2.689453125-.078857421875-.81103515625.1160888671875-1.66943359375.5821533203125-2.578125.4658203125-.90576171875,1.468994140625-1.84326171875,3.015625-2.81201171875,1.543212890625-.96533203125,3.36767578125-2.08154296875,5.469970703125-3.345703125,2.102294921875-1.263671875,4.158203125-2.36083984375,6.171630859375-3.29736328125,2.0098876953125-.93359375,3.8629150390625-1.509765625,5.558837890625-1.72802734375,1.692626953125-.21630859375,2.9700927734375.24072265625,3.832275390625,1.3740234375,3.264404296875,5.19677734375,6.5357666015625,10.29345703125,9.8143310546875,15.2861328125,3.2783203125,4.99658203125,6.554443359375,10.02392578125,9.828125,15.0859375l23.6629638671875-24.54052734375c.989013671875-.73681640625,2.172607421875-1.3251953125,3.54736328125-1.76708984375,1.095947265625-.32666015625,2.44482421875-.39990234375,4.0439453125-.22216796875,1.5989990234375.1796875,3.290283203125.93310546875,5.0797119140625,2.2666015625,1.9208984375,1.34228515625,3.83251953125,2.8193359375,5.7349853515625,4.42724609375,1.90234375,1.61181640625,3.462646484375,3.296875,4.683837890625,5.06005859375,1.2181396484375,1.76513671875,1.9267578125,3.65869140625,2.12255859375,5.6865234375.192626953125,2.02783203125-.457275390625,4.1318359375-1.94970703125,6.31005859375-.59130859375.7646484375-1.7255859375,2.095703125-3.39990234375,3.994140625-1.6773681640625,1.8974609375-3.8126220703125,4.134765625-6.408447265625,6.70458984375-2.59619140625,2.57373046875-5.516357421875,5.4580078125-8.76025390625,8.65673828125s-6.668701171875,6.55517578125-10.267822265625,10.0625c4.640380859375,6.63671875,9.251953125,13.2333984375,13.83154296875,19.79638671875,4.579345703125,6.5625,9.1875,13.16259765625,13.831298828125,19.7958984375Z"/>
  <path class="cls-3" d="M137.732666015625,159.47314453125c.727294921875,1.126953125,1.1103515625,2.3623046875,1.15234375,3.70556640625.0570068359375,1.08056640625-.19970703125,2.37158203125-.773193359375,3.87451171875-.57666015625,1.50537109375-1.719482421875,3.00244140625-3.4346923828125,4.494140625-1.7152099609375,1.49267578125-3.5631103515625,2.9443359375-5.5396728515625,4.34912109375-1.9801025390625,1.4072265625-4.0018310546875,2.509765625-6.0712890625,3.30419921875-2.069580078125.79345703125-4.1021728515625,1.05517578125-6.09765625.7841796875-1.9951171875-.27392578125-3.9346923828125-1.35009765625-5.8187255859375-3.22412109375-1.015380859375-.87646484375-2.71630859375-2.93994140625-5.1083984375-6.19775390625-2.3922119140625-3.25341796875-5.1641845703125-7.33935546875-8.3123779296875-12.2607421875-1.58056640625-2.3916015625-3.24951171875-4.95947265625-5.00390625-7.7001953125-1.757568359375-2.74072265625-3.61328125-5.5205078125-5.5634765625-8.34375-4.31591796875,4.13134765625-8.384033203125,8.04736328125-12.197509765625,11.7412109375-3.81689453125,3.697265625-7.1634521484375,6.923828125-10.03955078125,9.67529296875-3.44921875,3.25390625-6.613525390625,6.25732421875-9.489501953125,9.00927734375-.7169189453125.62353515625-1.555908203125,1.1005859375-2.51708984375,1.4365234375-.8203125.2099609375-1.763916015625.24560546875-2.8275146484375.10546875-1.0662841796875-.1435546875-2.2955322265625-.798828125-3.6903076171875-1.96875-1.4072265625-1.0361328125-3.02734375-2.357421875-4.86083984375-3.96435546875-1.836669921875-1.603515625-3.501708984375-3.22998046875-4.99853515625-4.8798828125-1.4969482421875-1.64599609375-2.5638427734375-3.23095703125-3.1943359375-4.75390625-.634033203125-1.5205078125-.5064697265625-2.85546875.3790283203125-4.00244140625l36.9508056640625-38.92529296875c-3.142333984375-5.052734375-6.031494140625-9.85205078125-8.667236328125-14.4013671875-2.639404296875-4.54541015625-4.97802734375-8.56982421875-7.0164794921875-12.06982421875-2.270751953125-4.0517578125-4.3597412109375-7.822265625-6.2633056640625-11.3134765625-.6146240234375-.84814453125-.9552001953125-1.74365234375-1.0216064453125-2.689453125-.078857421875-.81103515625.1160888671875-1.66943359375.5821533203125-2.578125.4658203125-.90576171875,1.468994140625-1.84326171875,3.015625-2.81201171875,1.543212890625-.96533203125,3.36767578125-2.08154296875,5.469970703125-3.345703125,2.102294921875-1.263671875,4.158203125-2.36083984375,6.171630859375-3.29736328125,2.0098876953125-.93359375,3.8629150390625-1.509765625,5.558837890625-1.72802734375,1.692626953125-.21630859375,2.9700927734375.24072265625,3.832275390625,1.3740234375,3.264404296875,5.19677734375,6.5357666015625,10.29345703125,9.8143310546875,15.2861328125,3.2783203125,4.99658203125,6.554443359375,10.02392578125,9.828125,15.0859375l23.6629638671875-24.54052734375c.989013671875-.73681640625,2.172607421875-1.3251953125,3.54736328125-1.76708984375,1.095947265625-.32666015625,2.44482421875-.39990234375,4.0439453125-.22216796875,1.5989990234375.1796875,3.290283203125.93310546875,5.0797119140625,2.2666015625,1.9208984375,1.34228515625,3.83251953125,2.8193359375,5.7349853515625,4.42724609375,1.90234375,1.61181640625,3.462646484375,3.296875,4.683837890625,5.06005859375,1.2181396484375,1.76513671875,1.9267578125,3.65869140625,2.12255859375,5.6865234375.192626953125,2.02783203125-.457275390625,4.1318359375-1.94970703125,6.31005859375-.59130859375.7646484375-1.7255859375,2.095703125-3.39990234375,3.994140625-1.6773681640625,1.8974609375-3.8126220703125,4.134765625-6.408447265625,6.70458984375-2.59619140625,2.57373046875-5.516357421875,5.4580078125-8.76025390625,8.65673828125s-6.668701171875,6.55517578125-10.267822265625,10.0625c4.640380859375,6.63671875,9.251953125,13.2333984375,13.83154296875,19.79638671875,4.579345703125,6.5625,9.1875,13.16259765625,13.831298828125,19.7958984375Z"/>
</svg>