<?xml version="1.0" encoding="UTF-8"?>
<svg id="Content" xmlns="http://www.w3.org/2000/svg" viewBox="0 0 280 280">
  <defs>
    <style>
      .cls-1 {
        stroke: #665451;
        stroke-width: 50px;
      }

      .cls-1, .cls-2 {
        fill: none;
        stroke-linecap: round;
        stroke-linejoin: round;
      }

      .cls-3 {
        fill: #fff;
      }

      .cls-2 {
        stroke: #998675;
        stroke-width: 2px;
      }
    </style>
  </defs>
  <path d="M137.6943359375,159.47705078125c.7274169921875,1.126953125,1.1104736328125,2.3623046875,1.15234375,3.70556640625.05712890625,1.080078125-.1995849609375,2.37158203125-.7730712890625,3.8740234375-.5767822265625,1.50537109375-1.7196044921875,3.00244140625-3.434814453125,4.49462890625s-3.5631103515625,2.9443359375-5.5396728515625,4.3486328125c-1.97998046875,1.40771484375-4.0018310546875,2.51025390625-6.0712890625,3.30419921875-2.069580078125.7939453125-4.1021728515625,1.05517578125-6.09765625.78466796875-1.9952392578125-.2744140625-3.9346923828125-1.35009765625-5.818603515625-3.224609375-1.0155029296875-.87646484375-2.71630859375-2.93994140625-5.1083984375-6.197265625-2.392333984375-3.25341796875-5.164306640625-7.33984375-8.3125-12.2607421875-1.580322265625-2.39208984375-3.2493896484375-4.9599609375-5.0037841796875-7.70068359375-1.7576904296875-2.74072265625-3.61328125-5.52001953125-5.5633544921875-8.34375-4.3160400390625,4.13134765625-8.3841552734375,8.04736328125-12.1976318359375,11.7412109375-3.81689453125,3.697265625-7.1634521484375,6.923828125-10.03955078125,9.67529296875-3.4493408203125,3.25390625-6.613525390625,6.2568359375-9.4896240234375,9.00927734375-.7169189453125.623046875-1.5557861328125,1.1005859375-2.51708984375,1.4365234375-.8203125.2099609375-1.763916015625.24560546875-2.827392578125.10498046875-1.06640625-.14306640625-2.295654296875-.79833984375-3.6904296875-1.96826171875-1.4072265625-1.0361328125-3.02734375-2.35791015625-4.8607177734375-3.96435546875-1.8367919921875-1.603515625-3.5018310546875-3.23046875-4.9986572265625-4.8798828125-1.4969482421875-1.64599609375-2.563720703125-3.23095703125-3.1943359375-4.75439453125-.6337890625-1.5205078125-.50634765625-2.85546875.379150390625-4.001953125l36.950927734375-38.92529296875c-3.14208984375-5.052734375-6.03125-9.85205078125-8.667236328125-14.4013671875-2.63916015625-4.54541015625-4.9779052734375-8.56982421875-7.016357421875-12.06982421875-2.270751953125-4.0517578125-4.359619140625-7.82275390625-6.2633056640625-11.3134765625-.6143798828125-.84814453125-.9552001953125-1.74365234375-1.0213623046875-2.689453125-.0791015625-.81103515625.115966796875-1.66943359375.58203125-2.578125.4658203125-.90576171875,1.468994140625-1.84326171875,3.015625-2.81201171875,1.5433349609375-.96533203125,3.3677978515625-2.08154296875,5.469970703125-3.345703125,2.102294921875-1.263671875,4.158203125-2.361328125,6.171630859375-3.29736328125,2.010009765625-.93359375,3.863037109375-1.509765625,5.558837890625-1.72802734375,1.692626953125-.21630859375,2.9700927734375.24072265625,3.8323974609375,1.3740234375,3.2642822265625,5.19677734375,6.53564453125,10.29345703125,9.814208984375,15.2861328125,3.2781982421875,4.99658203125,6.5543212890625,10.02392578125,9.8280029296875,15.0859375l23.6630859375-24.5400390625c.9892578125-.73681640625,2.172607421875-1.3251953125,3.54736328125-1.767578125,1.095947265625-.32666015625,2.44482421875-.3994140625,4.0439453125-.22216796875,1.5989990234375.18017578125,3.290283203125.93359375,5.0797119140625,2.26708984375,1.9210205078125,1.341796875,3.83251953125,2.8193359375,5.7349853515625,4.4267578125,1.90234375,1.6123046875,3.462646484375,3.29736328125,4.683837890625,5.06005859375,1.218017578125,1.76513671875,1.9267578125,3.65869140625,2.12255859375,5.68701171875.192626953125,2.02734375-.4573974609375,4.1318359375-1.94970703125,6.31005859375-.59130859375.7646484375-1.7257080078125,2.095703125-3.39990234375,3.99365234375-1.677490234375,1.8974609375-3.812744140625,4.13525390625-6.40869140625,6.705078125-2.59619140625,2.5732421875-5.51611328125,5.4580078125-8.760009765625,8.65625-3.244140625,3.19921875-6.6689453125,6.5556640625-10.26806640625,10.0625,4.640380859375,6.63671875,9.251953125,13.2333984375,13.8314208984375,19.79638671875,4.5792236328125,6.56298828125,9.1876220703125,13.16259765625,13.8311767578125,19.79638671875Z"/>
  <path class="cls-1" d="M137.6943359375,159.47705078125c.7274169921875,1.126953125,1.1104736328125,2.3623046875,1.15234375,3.70556640625.05712890625,1.080078125-.1995849609375,2.37158203125-.7730712890625,3.8740234375-.5767822265625,1.50537109375-1.7196044921875,3.00244140625-3.434814453125,4.49462890625s-3.5631103515625,2.9443359375-5.5396728515625,4.3486328125c-1.97998046875,1.40771484375-4.0018310546875,2.51025390625-6.0712890625,3.30419921875-2.069580078125.7939453125-4.1021728515625,1.05517578125-6.09765625.78466796875-1.9952392578125-.2744140625-3.9346923828125-1.35009765625-5.818603515625-3.224609375-1.0155029296875-.87646484375-2.71630859375-2.93994140625-5.1083984375-6.197265625-2.392333984375-3.25341796875-5.164306640625-7.33984375-8.3125-12.2607421875-1.580322265625-2.39208984375-3.2493896484375-4.9599609375-5.0037841796875-7.70068359375-1.7576904296875-2.74072265625-3.61328125-5.52001953125-5.5633544921875-8.34375-4.3160400390625,4.13134765625-8.3841552734375,8.04736328125-12.1976318359375,11.7412109375-3.81689453125,3.697265625-7.1634521484375,6.923828125-10.03955078125,9.67529296875-3.4493408203125,3.25390625-6.613525390625,6.2568359375-9.4896240234375,9.00927734375-.7169189453125.623046875-1.5557861328125,1.1005859375-2.51708984375,1.4365234375-.8203125.2099609375-1.763916015625.24560546875-2.827392578125.10498046875-1.06640625-.14306640625-2.295654296875-.79833984375-3.6904296875-1.96826171875-1.4072265625-1.0361328125-3.02734375-2.35791015625-4.8607177734375-3.96435546875-1.8367919921875-1.603515625-3.5018310546875-3.23046875-4.9986572265625-4.8798828125-1.4969482421875-1.64599609375-2.563720703125-3.23095703125-3.1943359375-4.75439453125-.6337890625-1.5205078125-.50634765625-2.85546875.379150390625-4.001953125l36.950927734375-38.92529296875c-3.14208984375-5.052734375-6.03125-9.85205078125-8.667236328125-14.4013671875-2.63916015625-4.54541015625-4.9779052734375-8.56982421875-7.016357421875-12.06982421875-2.270751953125-4.0517578125-4.359619140625-7.82275390625-6.2633056640625-11.3134765625-.6143798828125-.84814453125-.9552001953125-1.74365234375-1.0213623046875-2.689453125-.0791015625-.81103515625.115966796875-1.66943359375.58203125-2.578125.4658203125-.90576171875,1.468994140625-1.84326171875,3.015625-2.81201171875,1.5433349609375-.96533203125,3.3677978515625-2.08154296875,5.469970703125-3.345703125,2.102294921875-1.263671875,4.158203125-2.361328125,6.171630859375-3.29736328125,2.010009765625-.93359375,3.863037109375-1.509765625,5.558837890625-1.72802734375,1.692626953125-.21630859375,2.9700927734375.24072265625,3.8323974609375,1.3740234375,3.2642822265625,5.19677734375,6.53564453125,10.29345703125,9.814208984375,15.2861328125,3.2781982421875,4.99658203125,6.5543212890625,10.02392578125,9.8280029296875,15.0859375l23.6630859375-24.5400390625c.9892578125-.73681640625,2.172607421875-1.3251953125,3.54736328125-1.767578125,1.095947265625-.32666015625,2.44482421875-.3994140625,4.0439453125-.22216796875,1.5989990234375.18017578125,3.290283203125.93359375,5.0797119140625,2.26708984375,1.9210205078125,1.341796875,3.83251953125,2.8193359375,5.7349853515625,4.4267578125,1.90234375,1.6123046875,3.462646484375,3.29736328125,4.683837890625,5.06005859375,1.218017578125,1.76513671875,1.9267578125,3.65869140625,2.12255859375,5.68701171875.192626953125,2.02734375-.4573974609375,4.1318359375-1.94970703125,6.31005859375-.59130859375.7646484375-1.7257080078125,2.095703125-3.39990234375,3.99365234375-1.677490234375,1.8974609375-3.812744140625,4.13525390625-6.40869140625,6.705078125-2.59619140625,2.5732421875-5.51611328125,5.4580078125-8.760009765625,8.65625-3.244140625,3.19921875-6.6689453125,6.5556640625-10.26806640625,10.0625,4.640380859375,6.63671875,9.251953125,13.2333984375,13.8314208984375,19.79638671875,4.5792236328125,6.56298828125,9.1876220703125,13.16259765625,13.8311767578125,19.79638671875Z"/>
  <path class="cls-2" d="M137.6943359375,159.47705078125c.7274169921875,1.126953125,1.1104736328125,2.3623046875,1.15234375,3.70556640625.05712890625,1.080078125-.1995849609375,2.37158203125-.7730712890625,3.8740234375-.5767822265625,1.50537109375-1.7196044921875,3.00244140625-3.434814453125,4.49462890625s-3.5631103515625,2.9443359375-5.5396728515625,4.3486328125c-1.97998046875,1.40771484375-4.0018310546875,2.51025390625-6.0712890625,3.30419921875-2.069580078125.7939453125-4.1021728515625,1.05517578125-6.09765625.78466796875-1.9952392578125-.2744140625-3.9346923828125-1.35009765625-5.818603515625-3.224609375-1.0155029296875-.87646484375-2.71630859375-2.93994140625-5.1083984375-6.197265625-2.392333984375-3.25341796875-5.164306640625-7.33984375-8.3125-12.2607421875-1.580322265625-2.39208984375-3.2493896484375-4.9599609375-5.0037841796875-7.70068359375-1.7576904296875-2.74072265625-3.61328125-5.52001953125-5.5633544921875-8.34375-4.3160400390625,4.13134765625-8.3841552734375,8.04736328125-12.1976318359375,11.7412109375-3.81689453125,3.697265625-7.1634521484375,6.923828125-10.03955078125,9.67529296875-3.4493408203125,3.25390625-6.613525390625,6.2568359375-9.4896240234375,9.00927734375-.7169189453125.623046875-1.5557861328125,1.1005859375-2.51708984375,1.4365234375-.8203125.2099609375-1.763916015625.24560546875-2.827392578125.10498046875-1.06640625-.14306640625-2.295654296875-.79833984375-3.6904296875-1.96826171875-1.4072265625-1.0361328125-3.02734375-2.35791015625-4.8607177734375-3.96435546875-1.8367919921875-1.603515625-3.5018310546875-3.23046875-4.9986572265625-4.8798828125-1.4969482421875-1.64599609375-2.563720703125-3.23095703125-3.1943359375-4.75439453125-.6337890625-1.5205078125-.50634765625-2.85546875.379150390625-4.001953125l36.950927734375-38.92529296875c-3.14208984375-5.052734375-6.03125-9.85205078125-8.667236328125-14.4013671875-2.63916015625-4.54541015625-4.9779052734375-8.56982421875-7.016357421875-12.06982421875-2.270751953125-4.0517578125-4.359619140625-7.82275390625-6.2633056640625-11.3134765625-.6143798828125-.84814453125-.9552001953125-1.74365234375-1.0213623046875-2.689453125-.0791015625-.81103515625.115966796875-1.66943359375.58203125-2.578125.4658203125-.90576171875,1.468994140625-1.84326171875,3.015625-2.81201171875,1.5433349609375-.96533203125,3.3677978515625-2.08154296875,5.469970703125-3.345703125,2.102294921875-1.263671875,4.158203125-2.361328125,6.171630859375-3.29736328125,2.010009765625-.93359375,3.863037109375-1.509765625,5.558837890625-1.72802734375,1.692626953125-.21630859375,2.9700927734375.24072265625,3.8323974609375,1.3740234375,3.2642822265625,5.19677734375,6.53564453125,10.29345703125,9.814208984375,15.2861328125,3.2781982421875,4.99658203125,6.5543212890625,10.02392578125,9.8280029296875,15.0859375l23.6630859375-24.5400390625c.9892578125-.73681640625,2.172607421875-1.3251953125,3.54736328125-1.767578125,1.095947265625-.32666015625,2.44482421875-.3994140625,4.0439453125-.22216796875,1.5989990234375.18017578125,3.290283203125.93359375,5.0797119140625,2.26708984375,1.9210205078125,1.341796875,3.83251953125,2.8193359375,5.7349853515625,4.4267578125,1.90234375,1.6123046875,3.462646484375,3.29736328125,4.683837890625,5.06005859375,1.218017578125,1.76513671875,1.9267578125,3.65869140625,2.12255859375,5.68701171875.192626953125,2.02734375-.4573974609375,4.1318359375-1.94970703125,6.31005859375-.59130859375.7646484375-1.7257080078125,2.095703125-3.39990234375,3.99365234375-1.677490234375,1.8974609375-3.812744140625,4.13525390625-6.40869140625,6.705078125-2.59619140625,2.5732421875-5.51611328125,5.4580078125-8.760009765625,8.65625-3.244140625,3.19921875-6.6689453125,6.5556640625-10.26806640625,10.0625,4.640380859375,6.63671875,9.251953125,13.2333984375,13.8314208984375,19.79638671875,4.5792236328125,6.56298828125,9.1876220703125,13.16259765625,13.8311767578125,19.79638671875Z"/>
  <path class="cls-3" d="M137.6943359375,159.47705078125c.7274169921875,1.126953125,1.1104736328125,2.3623046875,1.15234375,3.70556640625.05712890625,1.080078125-.1995849609375,2.37158203125-.7730712890625,3.8740234375-.5767822265625,1.50537109375-1.7196044921875,3.00244140625-3.434814453125,4.49462890625s-3.5631103515625,2.9443359375-5.5396728515625,4.3486328125c-1.97998046875,1.40771484375-4.0018310546875,2.51025390625-6.0712890625,3.30419921875-2.069580078125.7939453125-4.1021728515625,1.05517578125-6.09765625.78466796875-1.9952392578125-.2744140625-3.9346923828125-1.35009765625-5.818603515625-3.224609375-1.0155029296875-.87646484375-2.71630859375-2.93994140625-5.1083984375-6.197265625-2.392333984375-3.25341796875-5.164306640625-7.33984375-8.3125-12.2607421875-1.580322265625-2.39208984375-3.2493896484375-4.9599609375-5.0037841796875-7.70068359375-1.7576904296875-2.74072265625-3.61328125-5.52001953125-5.5633544921875-8.34375-4.3160400390625,4.13134765625-8.3841552734375,8.04736328125-12.1976318359375,11.7412109375-3.81689453125,3.697265625-7.1634521484375,6.923828125-10.03955078125,9.67529296875-3.4493408203125,3.25390625-6.613525390625,6.2568359375-9.4896240234375,9.00927734375-.7169189453125.623046875-1.5557861328125,1.1005859375-2.51708984375,1.4365234375-.8203125.2099609375-1.763916015625.24560546875-2.827392578125.10498046875-1.06640625-.14306640625-2.295654296875-.79833984375-3.6904296875-1.96826171875-1.4072265625-1.0361328125-3.02734375-2.35791015625-4.8607177734375-3.96435546875-1.8367919921875-1.603515625-3.5018310546875-3.23046875-4.9986572265625-4.8798828125-1.4969482421875-1.64599609375-2.563720703125-3.23095703125-3.1943359375-4.75439453125-.6337890625-1.5205078125-.50634765625-2.85546875.379150390625-4.001953125l36.950927734375-38.92529296875c-3.14208984375-5.052734375-6.03125-9.85205078125-8.667236328125-14.4013671875-2.63916015625-4.54541015625-4.9779052734375-8.56982421875-7.016357421875-12.06982421875-2.270751953125-4.0517578125-4.359619140625-7.82275390625-6.2633056640625-11.3134765625-.6143798828125-.84814453125-.9552001953125-1.74365234375-1.0213623046875-2.689453125-.0791015625-.81103515625.115966796875-1.66943359375.58203125-2.578125.4658203125-.90576171875,1.468994140625-1.84326171875,3.015625-2.81201171875,1.5433349609375-.96533203125,3.3677978515625-2.08154296875,5.469970703125-3.345703125,2.102294921875-1.263671875,4.158203125-2.361328125,6.171630859375-3.29736328125,2.010009765625-.93359375,3.863037109375-1.509765625,5.558837890625-1.72802734375,1.692626953125-.21630859375,2.9700927734375.24072265625,3.8323974609375,1.3740234375,3.2642822265625,5.19677734375,6.53564453125,10.29345703125,9.814208984375,15.2861328125,3.2781982421875,4.99658203125,6.5543212890625,10.02392578125,9.8280029296875,15.0859375l23.6630859375-24.5400390625c.9892578125-.73681640625,2.172607421875-1.3251953125,3.54736328125-1.767578125,1.095947265625-.32666015625,2.44482421875-.3994140625,4.0439453125-.22216796875,1.5989990234375.18017578125,3.290283203125.93359375,5.0797119140625,2.26708984375,1.9210205078125,1.341796875,3.83251953125,2.8193359375,5.7349853515625,4.4267578125,1.90234375,1.6123046875,3.462646484375,3.29736328125,4.683837890625,5.06005859375,1.218017578125,1.76513671875,1.9267578125,3.65869140625,2.12255859375,5.68701171875.192626953125,2.02734375-.4573974609375,4.1318359375-1.94970703125,6.31005859375-.59130859375.7646484375-1.7257080078125,2.095703125-3.39990234375,3.99365234375-1.677490234375,1.8974609375-3.812744140625,4.13525390625-6.40869140625,6.705078125-2.59619140625,2.5732421875-5.51611328125,5.4580078125-8.760009765625,8.65625-3.244140625,3.19921875-6.6689453125,6.5556640625-10.26806640625,10.0625,4.640380859375,6.63671875,9.251953125,13.2333984375,13.8314208984375,19.79638671875,4.5792236328125,6.56298828125,9.1876220703125,13.16259765625,13.8311767578125,19.79638671875Z"/>
</svg>