<?xml version="1.0" encoding="UTF-8"?>
<svg id="Layer_1" xmlns="http://www.w3.org/2000/svg" viewBox="0 0 280 280">
  <defs>
    <style>
      .cls-1 {
        stroke: #665451;
        stroke-width: 50px;
      }

      .cls-1, .cls-2 {
        fill: none;
        stroke-linecap: round;
        stroke-linejoin: round;
      }

      .cls-3 {
        fill: #fff;
      }

      .cls-2 {
        stroke: #998675;
        stroke-width: 2px;
      }
    </style>
  </defs>
  <path d="M127.8720703125,144.7412109375c.76513671875.865234375,1.25048828125,1.8671875,1.458984375,3.0068359375.18798828125.912109375.1357421875,2.044921875-.15869140625,3.400390625-.296875,1.3544921875-1.07666015625,2.7783203125-2.34521484375,4.26953125-1.2685546875,1.4931640625-2.65478515625,2.966796875-4.1572265625,4.41796875-1.5048828125,1.4541015625-3.08447265625,2.654296875-4.74462890625,3.59765625-1.66015625.9423828125-3.357421875,1.427734375-5.09228515625,1.453125-1.734375.0244140625-3.52490234375-.6416015625-5.37109375-1.9951171875-.97802734375-.615234375-2.6923828125-2.1533203125-5.14990234375-4.619140625-2.45703125-2.462890625-5.34423828125-5.5859375-8.66015625-9.3701171875-1.654296875-1.833984375-3.4072265625-3.8046875-5.2548828125-5.9130859375-1.85009765625-2.10693359375-3.78955078125-4.23486328125-5.81396484375-6.38818359375-3.14306640625,4.076171875-6.1025390625,7.93408203125-8.87451171875,11.57275390625-2.7734375,3.640625-5.20751953125,6.8193359375-7.3017578125,9.53515625-2.5185546875,3.21484375-4.826171875,6.181640625-6.92041015625,8.8955078125-.5302734375.623046875-1.18359375,1.1376953125-1.95849609375,1.5478515625-.671875.28515625-1.470703125.4365234375-2.39404296875.455078125-.92724609375.015625-2.05859375-.3857421875-3.3974609375-1.201171875-1.33203125-.701171875-2.88232421875-1.6171875-4.65087890625-2.7490234375-1.77099609375-1.12890625-3.39892578125-2.2998046875-4.88623046875-3.5107421875-1.4873046875-1.2099609375-2.6005859375-2.421875-3.333984375-3.6376953125-.7353515625-1.212890625-.79931640625-2.3671875-.19287109375-3.45703125l26.44921875-37.91552734375c-3.3271484375-3.8984375-6.40625-7.61328125-9.23828125-11.1484375-2.83349609375-3.5302734375-5.34423828125-6.65625-7.53173828125-9.3740234375-2.45703125-3.15771484375-4.7216796875-6.10009765625-6.79345703125-8.8271484375-.6328125-.6435546875-1.0380859375-1.36181640625-1.216796875-2.158203125-.171875-.68115234375-.11669921875-1.4375.1630859375-2.2724609375.2802734375-.83056640625,1.013671875-1.7578125,2.2060546875-2.7822265625,1.18994140625-1.0224609375,2.599609375-2.208984375,4.2275390625-3.55615234375,1.62646484375-1.34765625,3.236328125-2.54638671875,4.830078125-3.603515625,1.591796875-1.05517578125,3.09521484375-1.7841796875,4.51171875-2.18896484375,1.41357421875-.40234375,2.56005859375-.177734375,3.44140625.6767578125,3.44970703125,4.00439453125,6.89306640625,7.92333984375,10.3291015625,11.7529296875,3.4365234375,3.83154296875,6.87451171875,7.6923828125,10.31591796875,11.5810546875l16.98779296875-23.9521484375c.74755859375-.75537109375,1.6796875-1.4091796875,2.7939453125-1.96240234375.890625-.419921875,2.0302734375-.65673828125,3.4150390625-.7119140625,1.384765625-.05224609375,2.92236328125.37158203125,4.6181640625,1.2763671875,1.8095703125.89501953125,3.6279296875,1.90576171875,5.45556640625,3.03076171875,1.828125,1.1279296875,3.37451171875,2.36083984375,4.6416015625,3.705078125,1.2646484375,1.3466796875,2.1123046875,2.8671875,2.54052734375,4.5703125.42578125,1.70166015625.1435546875,3.57763671875-.8466796875,5.62451171875-.40478515625.72802734375-1.19921875,2.00830078125-2.38037109375,3.83984375-1.18359375,1.83251953125-2.7138671875,4.01318359375-4.59326171875,6.537109375-1.87939453125,2.5263671875-3.99365234375,5.3603515625-6.34423828125,8.5029296875-2.3505859375,3.14208984375-4.833984375,6.44287109375-7.447265625,9.89306640625,4.80810546875,5.0546875,9.58642578125,10.0771484375,14.33251953125,15.0771484375,4.74658203125,4.998046875,9.5224609375,10.0244140625,14.33251953125,15.07470703125Z"/>
  <path class="cls-1" d="M127.8720703125,144.7412109375c.76513671875.865234375,1.25048828125,1.8671875,1.458984375,3.0068359375.18798828125.912109375.1357421875,2.044921875-.15869140625,3.400390625-.296875,1.3544921875-1.07666015625,2.7783203125-2.34521484375,4.26953125-1.2685546875,1.4931640625-2.65478515625,2.966796875-4.1572265625,4.41796875-1.5048828125,1.4541015625-3.08447265625,2.654296875-4.74462890625,3.59765625-1.66015625.9423828125-3.357421875,1.427734375-5.09228515625,1.453125-1.734375.0244140625-3.52490234375-.6416015625-5.37109375-1.9951171875-.97802734375-.615234375-2.6923828125-2.1533203125-5.14990234375-4.619140625-2.45703125-2.462890625-5.34423828125-5.5859375-8.66015625-9.3701171875-1.654296875-1.833984375-3.4072265625-3.8046875-5.2548828125-5.9130859375-1.85009765625-2.10693359375-3.78955078125-4.23486328125-5.81396484375-6.38818359375-3.14306640625,4.076171875-6.1025390625,7.93408203125-8.87451171875,11.57275390625-2.7734375,3.640625-5.20751953125,6.8193359375-7.3017578125,9.53515625-2.5185546875,3.21484375-4.826171875,6.181640625-6.92041015625,8.8955078125-.5302734375.623046875-1.18359375,1.1376953125-1.95849609375,1.5478515625-.671875.28515625-1.470703125.4365234375-2.39404296875.455078125-.92724609375.015625-2.05859375-.3857421875-3.3974609375-1.201171875-1.33203125-.701171875-2.88232421875-1.6171875-4.65087890625-2.7490234375-1.77099609375-1.12890625-3.39892578125-2.2998046875-4.88623046875-3.5107421875-1.4873046875-1.2099609375-2.6005859375-2.421875-3.333984375-3.6376953125-.7353515625-1.212890625-.79931640625-2.3671875-.19287109375-3.45703125l26.44921875-37.91552734375c-3.3271484375-3.8984375-6.40625-7.61328125-9.23828125-11.1484375-2.83349609375-3.5302734375-5.34423828125-6.65625-7.53173828125-9.3740234375-2.45703125-3.15771484375-4.7216796875-6.10009765625-6.79345703125-8.8271484375-.6328125-.6435546875-1.0380859375-1.36181640625-1.216796875-2.158203125-.171875-.68115234375-.11669921875-1.4375.1630859375-2.2724609375.2802734375-.83056640625,1.013671875-1.7578125,2.2060546875-2.7822265625,1.18994140625-1.0224609375,2.599609375-2.208984375,4.2275390625-3.55615234375,1.62646484375-1.34765625,3.236328125-2.54638671875,4.830078125-3.603515625,1.591796875-1.05517578125,3.09521484375-1.7841796875,4.51171875-2.18896484375,1.41357421875-.40234375,2.56005859375-.177734375,3.44140625.6767578125,3.44970703125,4.00439453125,6.89306640625,7.92333984375,10.3291015625,11.7529296875,3.4365234375,3.83154296875,6.87451171875,7.6923828125,10.31591796875,11.5810546875l16.98779296875-23.9521484375c.74755859375-.75537109375,1.6796875-1.4091796875,2.7939453125-1.96240234375.890625-.419921875,2.0302734375-.65673828125,3.4150390625-.7119140625,1.384765625-.05224609375,2.92236328125.37158203125,4.6181640625,1.2763671875,1.8095703125.89501953125,3.6279296875,1.90576171875,5.45556640625,3.03076171875,1.828125,1.1279296875,3.37451171875,2.36083984375,4.6416015625,3.705078125,1.2646484375,1.3466796875,2.1123046875,2.8671875,2.54052734375,4.5703125.42578125,1.70166015625.1435546875,3.57763671875-.8466796875,5.62451171875-.40478515625.72802734375-1.19921875,2.00830078125-2.38037109375,3.83984375-1.18359375,1.83251953125-2.7138671875,4.01318359375-4.59326171875,6.537109375-1.87939453125,2.5263671875-3.99365234375,5.3603515625-6.34423828125,8.5029296875-2.3505859375,3.14208984375-4.833984375,6.44287109375-7.447265625,9.89306640625,4.80810546875,5.0546875,9.58642578125,10.0771484375,14.33251953125,15.0771484375,4.74658203125,4.998046875,9.5224609375,10.0244140625,14.33251953125,15.07470703125Z"/>
  <path class="cls-2" d="M127.8720703125,144.7412109375c.76513671875.865234375,1.25048828125,1.8671875,1.458984375,3.0068359375.18798828125.912109375.1357421875,2.044921875-.15869140625,3.400390625-.296875,1.3544921875-1.07666015625,2.7783203125-2.34521484375,4.26953125-1.2685546875,1.4931640625-2.65478515625,2.966796875-4.1572265625,4.41796875-1.5048828125,1.4541015625-3.08447265625,2.654296875-4.74462890625,3.59765625-1.66015625.9423828125-3.357421875,1.427734375-5.09228515625,1.453125-1.734375.0244140625-3.52490234375-.6416015625-5.37109375-1.9951171875-.97802734375-.615234375-2.6923828125-2.1533203125-5.14990234375-4.619140625-2.45703125-2.462890625-5.34423828125-5.5859375-8.66015625-9.3701171875-1.654296875-1.833984375-3.4072265625-3.8046875-5.2548828125-5.9130859375-1.85009765625-2.10693359375-3.78955078125-4.23486328125-5.81396484375-6.38818359375-3.14306640625,4.076171875-6.1025390625,7.93408203125-8.87451171875,11.57275390625-2.7734375,3.640625-5.20751953125,6.8193359375-7.3017578125,9.53515625-2.5185546875,3.21484375-4.826171875,6.181640625-6.92041015625,8.8955078125-.5302734375.623046875-1.18359375,1.1376953125-1.95849609375,1.5478515625-.671875.28515625-1.470703125.4365234375-2.39404296875.455078125-.92724609375.015625-2.05859375-.3857421875-3.3974609375-1.201171875-1.33203125-.701171875-2.88232421875-1.6171875-4.65087890625-2.7490234375-1.77099609375-1.12890625-3.39892578125-2.2998046875-4.88623046875-3.5107421875-1.4873046875-1.2099609375-2.6005859375-2.421875-3.333984375-3.6376953125-.7353515625-1.212890625-.79931640625-2.3671875-.19287109375-3.45703125l26.44921875-37.91552734375c-3.3271484375-3.8984375-6.40625-7.61328125-9.23828125-11.1484375-2.83349609375-3.5302734375-5.34423828125-6.65625-7.53173828125-9.3740234375-2.45703125-3.15771484375-4.7216796875-6.10009765625-6.79345703125-8.8271484375-.6328125-.6435546875-1.0380859375-1.36181640625-1.216796875-2.158203125-.171875-.68115234375-.11669921875-1.4375.1630859375-2.2724609375.2802734375-.83056640625,1.013671875-1.7578125,2.2060546875-2.7822265625,1.18994140625-1.0224609375,2.599609375-2.208984375,4.2275390625-3.55615234375,1.62646484375-1.34765625,3.236328125-2.54638671875,4.830078125-3.603515625,1.591796875-1.05517578125,3.09521484375-1.7841796875,4.51171875-2.18896484375,1.41357421875-.40234375,2.56005859375-.177734375,3.44140625.6767578125,3.44970703125,4.00439453125,6.89306640625,7.92333984375,10.3291015625,11.7529296875,3.4365234375,3.83154296875,6.87451171875,7.6923828125,10.31591796875,11.5810546875l16.98779296875-23.9521484375c.74755859375-.75537109375,1.6796875-1.4091796875,2.7939453125-1.96240234375.890625-.419921875,2.0302734375-.65673828125,3.4150390625-.7119140625,1.384765625-.05224609375,2.92236328125.37158203125,4.6181640625,1.2763671875,1.8095703125.89501953125,3.6279296875,1.90576171875,5.45556640625,3.03076171875,1.828125,1.1279296875,3.37451171875,2.36083984375,4.6416015625,3.705078125,1.2646484375,1.3466796875,2.1123046875,2.8671875,2.54052734375,4.5703125.42578125,1.70166015625.1435546875,3.57763671875-.8466796875,5.62451171875-.40478515625.72802734375-1.19921875,2.00830078125-2.38037109375,3.83984375-1.18359375,1.83251953125-2.7138671875,4.01318359375-4.59326171875,6.537109375-1.87939453125,2.5263671875-3.99365234375,5.3603515625-6.34423828125,8.5029296875-2.3505859375,3.14208984375-4.833984375,6.44287109375-7.447265625,9.89306640625,4.80810546875,5.0546875,9.58642578125,10.0771484375,14.33251953125,15.0771484375,4.74658203125,4.998046875,9.5224609375,10.0244140625,14.33251953125,15.07470703125Z"/>
  <path class="cls-3" d="M127.8720703125,144.7412109375c.76513671875.865234375,1.25048828125,1.8671875,1.458984375,3.0068359375.18798828125.912109375.1357421875,2.044921875-.15869140625,3.400390625-.296875,1.3544921875-1.07666015625,2.7783203125-2.34521484375,4.26953125-1.2685546875,1.4931640625-2.65478515625,2.966796875-4.1572265625,4.41796875-1.5048828125,1.4541015625-3.08447265625,2.654296875-4.74462890625,3.59765625-1.66015625.9423828125-3.357421875,1.427734375-5.09228515625,1.453125-1.734375.0244140625-3.52490234375-.6416015625-5.37109375-1.9951171875-.97802734375-.615234375-2.6923828125-2.1533203125-5.14990234375-4.619140625-2.45703125-2.462890625-5.34423828125-5.5859375-8.66015625-9.3701171875-1.654296875-1.833984375-3.4072265625-3.8046875-5.2548828125-5.9130859375-1.85009765625-2.10693359375-3.78955078125-4.23486328125-5.81396484375-6.38818359375-3.14306640625,4.076171875-6.1025390625,7.93408203125-8.87451171875,11.57275390625-2.7734375,3.640625-5.20751953125,6.8193359375-7.3017578125,9.53515625-2.5185546875,3.21484375-4.826171875,6.181640625-6.92041015625,8.8955078125-.5302734375.623046875-1.18359375,1.1376953125-1.95849609375,1.5478515625-.671875.28515625-1.470703125.4365234375-2.39404296875.455078125-.92724609375.015625-2.05859375-.3857421875-3.3974609375-1.201171875-1.33203125-.701171875-2.88232421875-1.6171875-4.65087890625-2.7490234375-1.77099609375-1.12890625-3.39892578125-2.2998046875-4.88623046875-3.5107421875-1.4873046875-1.2099609375-2.6005859375-2.421875-3.333984375-3.6376953125-.7353515625-1.212890625-.79931640625-2.3671875-.19287109375-3.45703125l26.44921875-37.91552734375c-3.3271484375-3.8984375-6.40625-7.61328125-9.23828125-11.1484375-2.83349609375-3.5302734375-5.34423828125-6.65625-7.53173828125-9.3740234375-2.45703125-3.15771484375-4.7216796875-6.10009765625-6.79345703125-8.8271484375-.6328125-.6435546875-1.0380859375-1.36181640625-1.216796875-2.158203125-.171875-.68115234375-.11669921875-1.4375.1630859375-2.2724609375.2802734375-.83056640625,1.013671875-1.7578125,2.2060546875-2.7822265625,1.18994140625-1.0224609375,2.599609375-2.208984375,4.2275390625-3.55615234375,1.62646484375-1.34765625,3.236328125-2.54638671875,4.830078125-3.603515625,1.591796875-1.05517578125,3.09521484375-1.7841796875,4.51171875-2.18896484375,1.41357421875-.40234375,2.56005859375-.177734375,3.44140625.6767578125,3.44970703125,4.00439453125,6.89306640625,7.92333984375,10.3291015625,11.7529296875,3.4365234375,3.83154296875,6.87451171875,7.6923828125,10.31591796875,11.5810546875l16.98779296875-23.9521484375c.74755859375-.75537109375,1.6796875-1.4091796875,2.7939453125-1.96240234375.890625-.419921875,2.0302734375-.65673828125,3.4150390625-.7119140625,1.384765625-.05224609375,2.92236328125.37158203125,4.6181640625,1.2763671875,1.8095703125.89501953125,3.6279296875,1.90576171875,5.45556640625,3.03076171875,1.828125,1.1279296875,3.37451171875,2.36083984375,4.6416015625,3.705078125,1.2646484375,1.3466796875,2.1123046875,2.8671875,2.54052734375,4.5703125.42578125,1.70166015625.1435546875,3.57763671875-.8466796875,5.62451171875-.40478515625.72802734375-1.19921875,2.00830078125-2.38037109375,3.83984375-1.18359375,1.83251953125-2.7138671875,4.01318359375-4.59326171875,6.537109375-1.87939453125,2.5263671875-3.99365234375,5.3603515625-6.34423828125,8.5029296875-2.3505859375,3.14208984375-4.833984375,6.44287109375-7.447265625,9.89306640625,4.80810546875,5.0546875,9.58642578125,10.0771484375,14.33251953125,15.0771484375,4.74658203125,4.998046875,9.5224609375,10.0244140625,14.33251953125,15.07470703125Z"/>
</svg>