<?xml version="1.0" encoding="UTF-8"?>
<svg id="Content" xmlns="http://www.w3.org/2000/svg" xmlns:xlink="http://www.w3.org/1999/xlink" viewBox="0 0 280 280">
  <defs>
    <style>
      .cls-1 {
        stroke: #665451;
        stroke-width: 50px;
      }

      .cls-1, .cls-2 {
        fill: none;
        stroke-linecap: round;
        stroke-linejoin: round;
      }

      .cls-3 {
        fill: #fff;
      }

      .cls-2 {
        stroke: #998675;
        stroke-width: 2px;
      }

      .cls-4 {
        fill: #665451;
      }

      .cls-5 {
        fill: url(#linear-gradient);
      }
    </style>
    <linearGradient id="linear-gradient" x1="180.810152643593938" y1="-360.11850716427216" x2="180.810152643593938" y2="-478.24198133412483" gradientTransform="translate(-13.975875784913569 511.078908776681772) rotate(-3.719431974336864)" gradientUnits="userSpaceOnUse">
      <stop offset=".033113946447839" stop-color="#d4c0a3" stop-opacity="0"/>
      <stop offset=".077445529981579" stop-color="#d4c0a3" stop-opacity=".067075563153634"/>
      <stop offset=".702797202797203" stop-color="#d4c0a3"/>
    </linearGradient>
  </defs>
  <a xlink:href="https://www.notion.so/congruence/Z-distribution-125f9339b29b80c4ba34f96962e65fda?pvs=4">
    <g>
      <path class="cls-5" d="M255.366497530250854,132.690951815191511c-12.994731304623201-.699423999747523-26.092380030888307-1.994128024436577-37.812880199880965-8.031917783186145-18.105452767365932-9.071295738425761-30.933141988301941-25.928020924744487-39.11861152612255-44.420342646932113-6.912749934799649-14.873244757696739-10.61191406362741-31.754592520221195-20.373455062794164-45.10781812478308-13.257598898462675-18.211288345819412-34.134368363955218-16.09934093897391-48.478902523374927-.397869387068567-17.666905818108717,19.297871880689854-18.203918179633547,47.517288822838964-30.51718146877829,70.017713666107738-11.34957157046847,21.558579152015227-25.369748552671808,31.957228198085431-48.491124955808118,38.788674530333083"/>
      <path class="cls-4" d="M255.366497530250854,120.690951815191511c-4.929961564432233-.26799066563035-9.855442058140397-.623558726649208-14.750757381478252-1.27919785503218l3.190075346516096.428651597363569c-6.640869055085204-.915908500794103-13.188734494695382-2.420243810207467-19.382151875845011-5.026606298717525l2.866554430358519,1.209700180865184c-5.269207778168493-2.266275616064377-10.218537961398397-5.221451446053834-14.772624004559475-8.703138801909517l2.428651597363569,1.876366847531244c-5.597993737068464-4.326891669987162-10.534119616977478-9.417860010706136-14.860045269722832-15.008982307297629l1.876366847533063,2.428651597363569c-6.248692352975922-8.145702300376797-11.037354431624408-17.205454117996851-15.022875727659994-26.641668529273375l1.209700180865184,2.866554430358519c-5.220037033701374-12.456978816930132-8.947393866088532-25.63170681779593-15.649321007400431-37.429602580079518-3.307735838905501-5.82285092238817-7.376287457796934-11.61437814195051-12.646048950595286-15.819529093518213-5.254214908838549-4.192745127809758-11.195987276749293-7.618998436822949-17.939375777474197-8.672565466644301-6.63001609413368-1.035854061088685-13.328536841276218-.860167494538473-19.729279128456255,1.391175086766452-6.745554684886883,2.372623957538963-12.590177849553584,5.978364499720556-17.89983129360553,10.765213273734844-9.91916681190196,8.942495398832762-16.036485220760369,21.188019424025697-20.579976442550105,33.527986339549898-4.495066959945689,12.208448274926923-7.334305755412061,24.978521286377145-12.386625015333266,36.989400801061493l1.209700180865184-2.8665544303567c-3.190065540200521,7.50699877421539-7.253293502546512,14.763141423823981-12.219308881340112,21.243635462951715l1.876366847533063-2.42865159736175c-3.472455083294335,4.489596829880611-7.443017430687178,8.5483036347905-11.932116807302009,12.026539873602815l2.428651597363569-1.876366847531244c-4.986181971933547,3.823825091119943-10.492654551930173,6.856798639491899-16.273222300686029,9.299902698850929l2.866554430358519-1.209700180867003c-3.881003474507452,1.623316687337137-7.859516447888382,2.988885446242421-11.891292678024911,4.185877650423208-2.930853372597994.870139719654617-5.616666168398297,2.857618892647224-7.171572875253332,5.514718625761816-1.505202940194067,2.572163534339779-2.142906468854562,6.363000977878983-1.209700180865184,9.246705123390711.93965661002585,2.903636309103604,2.739043699824833,5.705057238024892,5.514718625759997,7.171572875255151,2.825379522048024,1.492776841938394,6.107904376651277,2.141577301486905,9.246705123394349,1.209700180865184,15.564636763485396-4.620977902382947,30.508230856099544-11.928886047988271,41.599141308410253-24.071199431380592,12.124297053551345-13.273663601430599,19.363058707247546-29.734278164280113,24.65488629245192-46.716426484679687,2.78891673603357-8.949988808599301,5.282752159131633-18.015252799810696,8.930714877860737-26.668092848291053l-1.209700180865184,2.866554430358519c2.440189279957849-5.728745187154345,5.40302594575769-11.218226717704965,9.203553076866228-16.165135219047443l-1.876366847533063,2.42865159736175c2.550803000900487-3.274862204156307,5.416617078142735-6.277379801602365,8.694432611602679-8.832066804161514l-2.428651597363569,1.876366847531244c2.553533388130745-1.955061545651915,5.303667219914132-3.611387650120378,8.263113868608343-4.875881548843608l-2.866554430358519,1.209700180865184c2.484395299356038-1.032449749145599,5.063350273081596-1.766639600828057,7.729081551608033-2.140703475903138l-3.190075346516096.42865159736175c2.380576889108852-.306766133224301,4.76799564292196-.316735024996888,7.148524950349383-.004449507461686l-3.190075346517915-.428651597363569c2.191902022635986.314669445198888,4.31509175930114.895164736706647,6.364807306816147,1.732732800670419l-2.866554430358519-1.209700180865184c2.260145457334147.955998322438973,4.359875129805005,2.19868094125377,6.312219080278737,3.683660872151449l-2.42865159736175-1.876366847531244c2.349981499817659,1.830214475343382,4.413464303113869,3.961112971839611,6.246231440163683,6.305959472651011l-1.876366847533063-2.428651597365388c4.161494773594313,5.433735261105539,7.260905651142821,11.578333655248571,9.923480172783457,17.858802285569254l-1.209700180865184-2.866554430358519c3.757689213318372,8.934410657790067,6.819907043520288,18.137208356964038,10.606026435531021,27.0630991249418,3.210133064490947,7.567985612071425,6.90887123178436,14.922375867536175,11.531839034871155,21.73363274100484,4.963957666248461,7.3136548239072,10.691644991688008,14.259994759790061,17.456418291580121,19.982609460315871,7.894047038194913,6.677916261902283,16.526057823948577,11.893272749661264,26.305290878071901,15.334233608726208,10.769793892566668,3.789503638927272,22.448565130416682,4.743735124764498,33.775016017660164,5.359436296635977,2.97025403754742.161461777381191,6.423888826744587-1.453326078270038,8.485281374238184-3.514718625761816,2.081307336437021-2.081307336435202,3.648605543039594-5.496075058546921,3.514718625761816-8.485281374238184-.139005463135618-3.103484767403643-1.158449558051871-6.322269692831469-3.514718625761816-8.485281374238184-2.418897999270484-2.22050388907337-5.180793710611397-3.33508804711164-8.485281374238184-3.514718625761816h0Z"/>
    </g>
  </a>
  <a xlink:href="https://www.notion.so/congruence/Z-distribution-125f9339b29b80c4ba34f96962e65fda?pvs=4">
    <g>
      <path class="cls-1" d="M84.958984375,125.64990234375c.462890625.13427734375.826171875.615234375,1.0888671875,1.44140625.26171875.8271484375.400390625,1.859375.41796875,3.095703125.0146484375,1.23828125-.0546875,2.5439453125-.2138671875,3.9189453125-.16015625,1.3759765625-.3515625,2.66943359375-.5703125,3.8779296875-.2197265625,1.2109375-.4833984375,2.27490234375-.7880859375,3.19580078125-.3046875.92041015625-.58984375,1.4853515625-.8525390625,1.693359375-4.9501953125,4.20751953125-9.6357421875,8.54638671875-14.056640625,13.0126953125-4.4208984375,4.4677734375-8.859375,9.072265625-13.3125,13.8154296875l20.0625,2.2041015625c.53125.22216796875.970703125.55126953125,1.3203125.9892578125.3466796875.43994140625.6337890625,1.05029296875.86328125,1.8330078125.2255859375.78466796875.3427734375,1.85302734375.3447265625,3.20703125-.0771484375,1.34716796875-.1708984375,2.6689453125-.2802734375,3.97119140625-.111328125,1.3017578125-.3076171875,2.47412109375-.5869140625,3.517578125-.2802734375,1.04296875-.716796875,1.888671875-1.3095703125,2.537109375s-1.3740234375,1.0361328125-2.3447265625,1.16259765625c-.4912109375.10205078125-1.4853515625.08544921875-2.9833984375-.04638671875-1.498046875-.13427734375-3.2900390625-.32177734375-5.3720703125-.56298828125-2.083984375-.2412109375-4.3818359375-.52734375-6.892578125-.857421875-2.5107421875-.33203125-5.0595703125-.6865234375-7.64453125-1.06494140625-6.037109375-.857421875-12.65234375-1.86279296875-19.8486328125-3.015625-.32421875.04296875-.625-.111328125-.90234375-.462890625-.208984375-.26318359375-.400390625-.6630859375-.578125-1.20263671875-.1767578125-.53759765625-.201171875-1.3564453125-.0732421875-2.4580078125.1025390625-1.58154296875.2412109375-3.47705078125.419921875-5.68798828125.1748046875-2.2099609375.5361328125-3.9609375,1.0859375-5.25244140625,4.2021484375-5.32861328125,8.8427734375-10.30908203125,13.9208984375-14.9404296875,5.076171875-4.62939453125,10.431640625-9.24951171875,16.0654296875-13.85595703125-3.537109375-.4091796875-7.0205078125-.7919921875-10.443359375-1.14892578125-3.42578125-.35546875-6.8720703125-.6953125-10.33984375-1.01806640625-.6123046875-.22998046875-1.0908203125-.5634765625-1.4384765625-1.0029296875-.34765625-.43798828125-.6357421875-1.04833984375-.86328125-1.8330078125-.228515625-.78271484375-.34375-1.8515625-.3447265625-3.20703125.0048828125-1.43359375.0712890625-2.8603515625.1962890625-4.27978515625.123046875-1.419921875.3193359375-2.75146484375.58203125-3.99560546875.263671875-1.2431640625.68359375-2.29052734375,1.259765625-3.1416015625.576171875-.84814453125,1.3505859375-1.33740234375,2.3212890625-1.4638671875.4013671875-.03173828125,1.662109375.09375,3.7802734375.3779296875,2.1181640625.287109375,4.6630859375.66015625,7.6376953125,1.1240234375s6.181640625.9755859375,9.623046875,1.5322265625c3.4404296875.55908203125,6.6630859375,1.11181640625,9.66796875,1.65771484375,3.0029296875.54736328125,5.55859375,1.02294921875,7.6630859375,1.42529296875,2.1044921875.404296875,3.34375.70703125,3.71875.908203125Z"/>
      <path class="cls-2" d="M84.958984375,125.64990234375c.462890625.13427734375.826171875.615234375,1.0888671875,1.44140625.26171875.8271484375.400390625,1.859375.41796875,3.095703125.0146484375,1.23828125-.0546875,2.5439453125-.2138671875,3.9189453125-.16015625,1.3759765625-.3515625,2.66943359375-.5703125,3.8779296875-.2197265625,1.2109375-.4833984375,2.27490234375-.7880859375,3.19580078125-.3046875.92041015625-.58984375,1.4853515625-.8525390625,1.693359375-4.9501953125,4.20751953125-9.6357421875,8.54638671875-14.056640625,13.0126953125-4.4208984375,4.4677734375-8.859375,9.072265625-13.3125,13.8154296875l20.0625,2.2041015625c.53125.22216796875.970703125.55126953125,1.3203125.9892578125.3466796875.43994140625.6337890625,1.05029296875.86328125,1.8330078125.2255859375.78466796875.3427734375,1.85302734375.3447265625,3.20703125-.0771484375,1.34716796875-.1708984375,2.6689453125-.2802734375,3.97119140625-.111328125,1.3017578125-.3076171875,2.47412109375-.5869140625,3.517578125-.2802734375,1.04296875-.716796875,1.888671875-1.3095703125,2.537109375s-1.3740234375,1.0361328125-2.3447265625,1.16259765625c-.4912109375.10205078125-1.4853515625.08544921875-2.9833984375-.04638671875-1.498046875-.13427734375-3.2900390625-.32177734375-5.3720703125-.56298828125-2.083984375-.2412109375-4.3818359375-.52734375-6.892578125-.857421875-2.5107421875-.33203125-5.0595703125-.6865234375-7.64453125-1.06494140625-6.037109375-.857421875-12.65234375-1.86279296875-19.8486328125-3.015625-.32421875.04296875-.625-.111328125-.90234375-.462890625-.208984375-.26318359375-.400390625-.6630859375-.578125-1.20263671875-.1767578125-.53759765625-.201171875-1.3564453125-.0732421875-2.4580078125.1025390625-1.58154296875.2412109375-3.47705078125.419921875-5.68798828125.1748046875-2.2099609375.5361328125-3.9609375,1.0859375-5.25244140625,4.2021484375-5.32861328125,8.8427734375-10.30908203125,13.9208984375-14.9404296875,5.076171875-4.62939453125,10.431640625-9.24951171875,16.0654296875-13.85595703125-3.537109375-.4091796875-7.0205078125-.7919921875-10.443359375-1.14892578125-3.42578125-.35546875-6.8720703125-.6953125-10.33984375-1.01806640625-.6123046875-.22998046875-1.0908203125-.5634765625-1.4384765625-1.0029296875-.34765625-.43798828125-.6357421875-1.04833984375-.86328125-1.8330078125-.228515625-.78271484375-.34375-1.8515625-.3447265625-3.20703125.0048828125-1.43359375.0712890625-2.8603515625.1962890625-4.27978515625.123046875-1.419921875.3193359375-2.75146484375.58203125-3.99560546875.263671875-1.2431640625.68359375-2.29052734375,1.259765625-3.1416015625.576171875-.84814453125,1.3505859375-1.33740234375,2.3212890625-1.4638671875.4013671875-.03173828125,1.662109375.09375,3.7802734375.3779296875,2.1181640625.287109375,4.6630859375.66015625,7.6376953125,1.1240234375s6.181640625.9755859375,9.623046875,1.5322265625c3.4404296875.55908203125,6.6630859375,1.11181640625,9.66796875,1.65771484375,3.0029296875.54736328125,5.55859375,1.02294921875,7.6630859375,1.42529296875,2.1044921875.404296875,3.34375.70703125,3.71875.908203125Z"/>
      <path class="cls-3" d="M84.958984375,125.64990234375c.462890625.13427734375.826171875.615234375,1.0888671875,1.44140625.26171875.8271484375.400390625,1.859375.41796875,3.095703125.0146484375,1.23828125-.0546875,2.5439453125-.2138671875,3.9189453125-.16015625,1.3759765625-.3515625,2.66943359375-.5703125,3.8779296875-.2197265625,1.2109375-.4833984375,2.27490234375-.7880859375,3.19580078125-.3046875.92041015625-.58984375,1.4853515625-.8525390625,1.693359375-4.9501953125,4.20751953125-9.6357421875,8.54638671875-14.056640625,13.0126953125-4.4208984375,4.4677734375-8.859375,9.072265625-13.3125,13.8154296875l20.0625,2.2041015625c.53125.22216796875.970703125.55126953125,1.3203125.9892578125.3466796875.43994140625.6337890625,1.05029296875.86328125,1.8330078125.2255859375.78466796875.3427734375,1.85302734375.3447265625,3.20703125-.0771484375,1.34716796875-.1708984375,2.6689453125-.2802734375,3.97119140625-.111328125,1.3017578125-.3076171875,2.47412109375-.5869140625,3.517578125-.2802734375,1.04296875-.716796875,1.888671875-1.3095703125,2.537109375s-1.3740234375,1.0361328125-2.3447265625,1.16259765625c-.4912109375.10205078125-1.4853515625.08544921875-2.9833984375-.04638671875-1.498046875-.13427734375-3.2900390625-.32177734375-5.3720703125-.56298828125-2.083984375-.2412109375-4.3818359375-.52734375-6.892578125-.857421875-2.5107421875-.33203125-5.0595703125-.6865234375-7.64453125-1.06494140625-6.037109375-.857421875-12.65234375-1.86279296875-19.8486328125-3.015625-.32421875.04296875-.625-.111328125-.90234375-.462890625-.208984375-.26318359375-.400390625-.6630859375-.578125-1.20263671875-.1767578125-.53759765625-.201171875-1.3564453125-.0732421875-2.4580078125.1025390625-1.58154296875.2412109375-3.47705078125.419921875-5.68798828125.1748046875-2.2099609375.5361328125-3.9609375,1.0859375-5.25244140625,4.2021484375-5.32861328125,8.8427734375-10.30908203125,13.9208984375-14.9404296875,5.076171875-4.62939453125,10.431640625-9.24951171875,16.0654296875-13.85595703125-3.537109375-.4091796875-7.0205078125-.7919921875-10.443359375-1.14892578125-3.42578125-.35546875-6.8720703125-.6953125-10.33984375-1.01806640625-.6123046875-.22998046875-1.0908203125-.5634765625-1.4384765625-1.0029296875-.34765625-.43798828125-.6357421875-1.04833984375-.86328125-1.8330078125-.228515625-.78271484375-.34375-1.8515625-.3447265625-3.20703125.0048828125-1.43359375.0712890625-2.8603515625.1962890625-4.27978515625.123046875-1.419921875.3193359375-2.75146484375.58203125-3.99560546875.263671875-1.2431640625.68359375-2.29052734375,1.259765625-3.1416015625.576171875-.84814453125,1.3505859375-1.33740234375,2.3212890625-1.4638671875.4013671875-.03173828125,1.662109375.09375,3.7802734375.3779296875,2.1181640625.287109375,4.6630859375.66015625,7.6376953125,1.1240234375s6.181640625.9755859375,9.623046875,1.5322265625c3.4404296875.55908203125,6.6630859375,1.11181640625,9.66796875,1.65771484375,3.0029296875.54736328125,5.55859375,1.02294921875,7.6630859375,1.42529296875,2.1044921875.404296875,3.34375.70703125,3.71875.908203125Z"/>
    </g>
  </a>
</svg>