<?xml version="1.0" encoding="UTF-8"?>
<svg id="Content" xmlns="http://www.w3.org/2000/svg" xmlns:xlink="http://www.w3.org/1999/xlink" viewBox="0 0 280 280">
  <defs>
    <style>
      .cls-1 {
        stroke: #665451;
        stroke-width: 50px;
      }

      .cls-1, .cls-2 {
        fill: none;
        stroke-linecap: round;
        stroke-linejoin: round;
      }

      .cls-3 {
        fill: #fff;
      }

      .cls-2 {
        stroke: #998675;
        stroke-width: 2px;
      }

      .cls-4 {
        fill: #665451;
      }

      .cls-5 {
        fill: url(#linear-gradient);
      }
    </style>
    <linearGradient id="linear-gradient" x1="180.810152643593028" y1="-360.118507164273069" x2="180.810152643593028" y2="-478.24198133412483" gradientTransform="translate(-13.975875784913569 511.078908776681772) rotate(-3.719431974336864)" gradientUnits="userSpaceOnUse">
      <stop offset=".033113946447839" stop-color="#d4c0a3" stop-opacity="0"/>
      <stop offset=".077445529981579" stop-color="#d4c0a3" stop-opacity=".067075563153634"/>
      <stop offset=".702797202797203" stop-color="#d4c0a3"/>
    </linearGradient>
  </defs>
  <a xlink:href="https://www.notion.so/congruence/Z-distribution-125f9339b29b80c4ba34f96962e65fda?pvs=4">
    <g>
      <path class="cls-5" d="M255.366497530249944,132.690951815190601c-12.994731304620473-.699423999746614-26.092380030890126-1.994128024435668-37.812880199880055-8.031917783185236-18.10545276736957-9.071295738425761-30.933141988300122-25.928020924744487-39.118611526119821-44.420342646932113-6.912749934800559-14.873244757697648-10.611914063630138-31.754592520221195-20.373455062800531-45.10781812478308-13.257598898459037-18.211288345819412-34.134368363949761-16.09934093897391-48.47890252336947-.397869387068567-17.666905818110536,19.297871880689854-18.203918179639913,47.517288822838964-30.517181468780109,70.017713666107738-11.349571570470289,21.558579152015227-25.369748552669989,31.957228198085431-48.491124955809937,38.788674530333083"/>
      <path class="cls-4" d="M255.366497530249944,120.690951815190601c-4.929961564429505-.267990665629441-9.855442058139488-.623558726648298-14.750757381480071-1.279197855031271l3.190075346520644.428651597363569c-6.640869055090661-.915908500794103-13.188734494700839-2.420243810207467-19.382151875850468-5.026606298717525l2.866554430360338,1.209700180865184c-5.269207778170312-2.266275616064377-10.218537961400216-5.221451446053834-14.772624004560384-8.703138801909517.80955053245998.625455615841929,1.619101064909955,1.250911231687496,2.428651597369935,1.876366847531244-5.597993737070283-4.326891669987162-10.534119616979297-9.417860010706136-14.860045269730108-15.008982307297629l1.876366847540339,2.428651597363569c-6.24869235297956-8.145702300376797-11.037354431629865-17.205454117996851-15.022875727659994-26.641668529273375l1.209700180859727,2.866554430358519c-5.220037033699555-12.456978816930132-8.947393866090351-25.63170681779593-15.649321007400431-37.429602580079518-3.307735838900044-5.82285092238817-7.376287457799663-11.61437814195051-12.646048950589829-15.819529093518213-5.254214908839458-4.192745127809758-11.195987276749293-7.618998436822949-17.939375777479654-8.672565466644301-6.630016094130042-1.035854061088685-13.328536841269852-.860167494538473-19.729279128449889,1.391175086766452-6.745554684889612,2.372623957538963-12.59017784955995,5.978364499720556-17.899831293610077,10.765213273734844-9.919166811900141,8.942495398832762-16.036485220760369,21.188019424025697-20.579976442550105,33.527986339549898-4.495066959949327,12.208448274926923-7.334305755410242,24.978521286377145-12.386625015329628,36.989400801061493l1.209700180859727-2.8665544303567c-3.190065540200521,7.50699877421539-7.253293502540146,14.763141423823981-12.219308881340112,21.243635462951715.625455615850115-.809550532452704,1.250911231690225-1.619101064909046,1.876366847529425-2.42865159736175-3.472455083288878,4.489596829880611-7.443017430679902,8.5483036347905-11.93211680729928,12.026539873602815l2.428651597369935-1.876366847531244c-4.986181971939914,3.823825091119943-10.492654551930173,6.856798639491899-16.273222300689667,9.299902698850929l2.866554430360338-1.209700180867003c-3.88100347451109,1.623316687337137-7.859516447890201,2.988885446242421-11.891292678030368,4.185877650423208-2.930853372590718.870139719654617-5.616666168390111,2.857618892647224-7.171572875249694,5.514718625761816-1.505202940190429,2.572163534339779-2.142906468850924,6.363000977878983-1.209700180860636,9.246705123391621.939656610019483,2.903636309102694,2.739043699820286,5.705057238023983,5.514718625759997,7.171572875254242,2.825379522039839,1.492776841938394,6.107904376650367,2.141577301486905,9.246705123389802,1.209700180865184,15.564636763479939-4.620977902382947,30.508230856100454-11.928886047988271,41.599141308410253-24.071199431380592,12.124297053549526-13.273663601430599,19.363058707249365-29.734278164280113,24.654886292450101-46.716426484679687,2.788916736039937-8.949988808599301,5.282752159129814-18.015252799810696,8.930714877859828-26.668092848291963l-1.209700180859727,2.866554430359429c2.440189279959668-5.728745187154345,5.403025945760419-11.218226717704965,9.203553076859862-16.165135219047443-.62545561584011.809550532454523-1.25091123168022,1.619101064909046-1.876366847529425,2.42865159736175,2.550803000899577-3.274862204156307,5.416617078139097-6.277379801602365,8.694432611599041-8.832066804161514l-2.428651597359931,1.876366847531244c2.553533388130745-1.955061545651915,5.303667219910494-3.611387650120378,8.263113868610162-4.875881548843608l-2.866554430360338,1.209700180865184c2.484395299360585-1.032449749145599,5.063350273079777-1.766639600828057,7.729081551609852-2.140703475904047l-3.190075346519734.428651597362659c2.380576889110671-.306766133224301,4.767995642920141-.316735024996888,7.148524950350293-.004449507461686l-3.190075346520644-.428651597363569c2.191902022640534.314669445198888,4.31509175930114.895164736706647,6.364807306820694,1.732732800670419l-2.866554430359429-1.209700180865184c2.2601454573296.955998322438973,4.359875129809552,2.19868094125377,6.312219080278737,3.683660872151449l-2.428651597359931-1.876366847531244c2.349981499820387,1.830214475343382,4.413464303110231,3.961112971839611,6.246231440160045,6.305959472651011l-1.876366847529425-2.428651597365388c4.161494773589766,5.433735261105539,7.260905651140092,11.578333655248571,9.923480172779819,17.858802285569254l-1.209700180859727-2.866554430358519c3.757689213309277,8.934410657790067,6.819907043520288,18.137208356964038,10.606026435529202,27.0630991249418,3.210133064490947,7.567985612071425,6.908871231780722,14.922375867536175,11.531839034871155,21.73363274100484,4.963957666249371,7.3136548239072,10.691644991689827,14.25999475979097,17.456418291580121,19.982609460315871,7.894047038189456,6.677916261902283,16.526057823949486,11.893272749661264,26.305290878069172,15.334233608726208,10.769793892570306,3.789503638927272,22.44856513042032,4.743735124764498,33.775016017660164,5.359436296635067,2.970254037550148.161461777382101,6.423888826750044-1.453326078270038,8.485281374240003-3.514718625760906,2.08130733643975-2.081307336436112,3.648605543040503-5.496075058546921,3.514718625759997-8.485281374239094-.139005463130161-3.103484767402733-1.158449558050052-6.32226969283056-3.514718625759997-8.485281374237275-2.418897999269575-2.22050388907337-5.180793710610487-3.33508804711164-8.485281374240003-3.514718625762725h0Z"/>
    </g>
  </a>
  <a xlink:href="https://www.notion.so/congruence/Z-distribution-125f9339b29b80c4ba34f96962e65fda?pvs=4">
    <g>
      <path class="cls-1" d="M84.9287109375,125.6796875c.462890625.13427734375.8251953125.615234375,1.087890625,1.44091796875.2626953125.828125.4013671875,1.85986328125.4189453125,3.09619140625.0146484375,1.23779296875-.056640625,2.54443359375-.2158203125,3.91845703125-.1591796875,1.376953125-.349609375,2.66943359375-.5693359375,3.87890625-.21875,1.21044921875-.482421875,2.27392578125-.787109375,3.19482421875-.306640625.92041015625-.5908203125,1.4853515625-.8544921875,1.69384765625-4.9482421875,4.20703125-9.6337890625,8.5458984375-14.0546875,13.01220703125-4.421875,4.46826171875-8.8603515625,9.07275390625-13.3125,13.81591796875l20.0625,2.20361328125c.5302734375.22216796875.9697265625.55126953125,1.318359375.98974609375.34765625.439453125.6357421875,1.0498046875.8642578125,1.8330078125.2255859375.7841796875.341796875,1.8525390625.345703125,3.20703125-.0771484375,1.3466796875-.171875,2.6689453125-.28125,3.97119140625-.111328125,1.30126953125-.3076171875,2.47412109375-.5859375,3.51708984375-.28125,1.04296875-.716796875,1.8896484375-1.3095703125,2.537109375-.59375.6484375-1.375,1.0361328125-2.345703125,1.1630859375-.4912109375.1015625-1.4853515625.0849609375-2.9833984375-.046875-1.498046875-.13427734375-3.2900390625-.3212890625-5.3720703125-.5625-2.083984375-.2412109375-4.3818359375-.52783203125-6.892578125-.857421875-2.51171875-.33251953125-5.05859375-.68701171875-7.64453125-1.0654296875-6.0361328125-.857421875-12.6513671875-1.86279296875-19.8486328125-3.015625-.3232421875.04345703125-.625-.111328125-.9013671875-.46240234375-.208984375-.26318359375-.4013671875-.6630859375-.5791015625-1.20263671875-.1767578125-.53759765625-.2001953125-1.3564453125-.0732421875-2.45849609375.1025390625-1.5810546875.2421875-3.47705078125.419921875-5.6884765625.17578125-2.20849609375.5361328125-3.95947265625,1.0859375-5.251953125,4.203125-5.328125,8.8427734375-10.30908203125,13.9208984375-14.93994140625,5.0771484375-4.6298828125,10.4326171875-9.24951171875,16.0654296875-13.85546875-3.5380859375-.4091796875-7.01953125-.79248046875-10.443359375-1.14990234375-3.42578125-.35498046875-6.8720703125-.69482421875-10.33984375-1.017578125-.611328125-.22998046875-1.0908203125-.5634765625-1.4375-1.00341796875-.3486328125-.4384765625-.63671875-1.048828125-.86328125-1.8330078125-.2294921875-.7822265625-.34375-1.8515625-.345703125-3.20703125.0048828125-1.43310546875.072265625-2.85986328125.197265625-4.2802734375.123046875-1.4189453125.318359375-2.7509765625.5810546875-3.9951171875.263671875-1.2431640625.6845703125-2.291015625,1.2607421875-3.14111328125.576171875-.84814453125,1.3505859375-1.33740234375,2.3212890625-1.4638671875.4013671875-.0322265625,1.6611328125.09326171875,3.7802734375.3779296875,2.1181640625.2861328125,4.6630859375.65966796875,7.6376953125,1.1240234375,2.974609375.46337890625,6.1806640625.97509765625,9.623046875,1.53271484375,3.439453125.55859375,6.662109375,1.11083984375,9.6669921875,1.6572265625,3.0029296875.546875,5.5595703125,1.02294921875,7.6640625,1.4248046875,2.103515625.404296875,3.3427734375.70703125,3.71875.90869140625Z"/>
      <path class="cls-2" d="M84.9287109375,125.6796875c.462890625.13427734375.8251953125.615234375,1.087890625,1.44091796875.2626953125.828125.4013671875,1.85986328125.4189453125,3.09619140625.0146484375,1.23779296875-.056640625,2.54443359375-.2158203125,3.91845703125-.1591796875,1.376953125-.349609375,2.66943359375-.5693359375,3.87890625-.21875,1.21044921875-.482421875,2.27392578125-.787109375,3.19482421875-.306640625.92041015625-.5908203125,1.4853515625-.8544921875,1.69384765625-4.9482421875,4.20703125-9.6337890625,8.5458984375-14.0546875,13.01220703125-4.421875,4.46826171875-8.8603515625,9.07275390625-13.3125,13.81591796875l20.0625,2.20361328125c.5302734375.22216796875.9697265625.55126953125,1.318359375.98974609375.34765625.439453125.6357421875,1.0498046875.8642578125,1.8330078125.2255859375.7841796875.341796875,1.8525390625.345703125,3.20703125-.0771484375,1.3466796875-.171875,2.6689453125-.28125,3.97119140625-.111328125,1.30126953125-.3076171875,2.47412109375-.5859375,3.51708984375-.28125,1.04296875-.716796875,1.8896484375-1.3095703125,2.537109375-.59375.6484375-1.375,1.0361328125-2.345703125,1.1630859375-.4912109375.1015625-1.4853515625.0849609375-2.9833984375-.046875-1.498046875-.13427734375-3.2900390625-.3212890625-5.3720703125-.5625-2.083984375-.2412109375-4.3818359375-.52783203125-6.892578125-.857421875-2.51171875-.33251953125-5.05859375-.68701171875-7.64453125-1.0654296875-6.0361328125-.857421875-12.6513671875-1.86279296875-19.8486328125-3.015625-.3232421875.04345703125-.625-.111328125-.9013671875-.46240234375-.208984375-.26318359375-.4013671875-.6630859375-.5791015625-1.20263671875-.1767578125-.53759765625-.2001953125-1.3564453125-.0732421875-2.45849609375.1025390625-1.5810546875.2421875-3.47705078125.419921875-5.6884765625.17578125-2.20849609375.5361328125-3.95947265625,1.0859375-5.251953125,4.203125-5.328125,8.8427734375-10.30908203125,13.9208984375-14.93994140625,5.0771484375-4.6298828125,10.4326171875-9.24951171875,16.0654296875-13.85546875-3.5380859375-.4091796875-7.01953125-.79248046875-10.443359375-1.14990234375-3.42578125-.35498046875-6.8720703125-.69482421875-10.33984375-1.017578125-.611328125-.22998046875-1.0908203125-.5634765625-1.4375-1.00341796875-.3486328125-.4384765625-.63671875-1.048828125-.86328125-1.8330078125-.2294921875-.7822265625-.34375-1.8515625-.345703125-3.20703125.0048828125-1.43310546875.072265625-2.85986328125.197265625-4.2802734375.123046875-1.4189453125.318359375-2.7509765625.5810546875-3.9951171875.263671875-1.2431640625.6845703125-2.291015625,1.2607421875-3.14111328125.576171875-.84814453125,1.3505859375-1.33740234375,2.3212890625-1.4638671875.4013671875-.0322265625,1.6611328125.09326171875,3.7802734375.3779296875,2.1181640625.2861328125,4.6630859375.65966796875,7.6376953125,1.1240234375,2.974609375.46337890625,6.1806640625.97509765625,9.623046875,1.53271484375,3.439453125.55859375,6.662109375,1.11083984375,9.6669921875,1.6572265625,3.0029296875.546875,5.5595703125,1.02294921875,7.6640625,1.4248046875,2.103515625.404296875,3.3427734375.70703125,3.71875.90869140625Z"/>
      <path class="cls-3" d="M84.9287109375,125.6796875c.462890625.13427734375.8251953125.615234375,1.087890625,1.44091796875.2626953125.828125.4013671875,1.85986328125.4189453125,3.09619140625.0146484375,1.23779296875-.056640625,2.54443359375-.2158203125,3.91845703125-.1591796875,1.376953125-.349609375,2.66943359375-.5693359375,3.87890625-.21875,1.21044921875-.482421875,2.27392578125-.787109375,3.19482421875-.306640625.92041015625-.5908203125,1.4853515625-.8544921875,1.69384765625-4.9482421875,4.20703125-9.6337890625,8.5458984375-14.0546875,13.01220703125-4.421875,4.46826171875-8.8603515625,9.07275390625-13.3125,13.81591796875l20.0625,2.20361328125c.5302734375.22216796875.9697265625.55126953125,1.318359375.98974609375.34765625.439453125.6357421875,1.0498046875.8642578125,1.8330078125.2255859375.7841796875.341796875,1.8525390625.345703125,3.20703125-.0771484375,1.3466796875-.171875,2.6689453125-.28125,3.97119140625-.111328125,1.30126953125-.3076171875,2.47412109375-.5859375,3.51708984375-.28125,1.04296875-.716796875,1.8896484375-1.3095703125,2.537109375-.59375.6484375-1.375,1.0361328125-2.345703125,1.1630859375-.4912109375.1015625-1.4853515625.0849609375-2.9833984375-.046875-1.498046875-.13427734375-3.2900390625-.3212890625-5.3720703125-.5625-2.083984375-.2412109375-4.3818359375-.52783203125-6.892578125-.857421875-2.51171875-.33251953125-5.05859375-.68701171875-7.64453125-1.0654296875-6.0361328125-.857421875-12.6513671875-1.86279296875-19.8486328125-3.015625-.3232421875.04345703125-.625-.111328125-.9013671875-.46240234375-.208984375-.26318359375-.4013671875-.6630859375-.5791015625-1.20263671875-.1767578125-.53759765625-.2001953125-1.3564453125-.0732421875-2.45849609375.1025390625-1.5810546875.2421875-3.47705078125.419921875-5.6884765625.17578125-2.20849609375.5361328125-3.95947265625,1.0859375-5.251953125,4.203125-5.328125,8.8427734375-10.30908203125,13.9208984375-14.93994140625,5.0771484375-4.6298828125,10.4326171875-9.24951171875,16.0654296875-13.85546875-3.5380859375-.4091796875-7.01953125-.79248046875-10.443359375-1.14990234375-3.42578125-.35498046875-6.8720703125-.69482421875-10.33984375-1.017578125-.611328125-.22998046875-1.0908203125-.5634765625-1.4375-1.00341796875-.3486328125-.4384765625-.63671875-1.048828125-.86328125-1.8330078125-.2294921875-.7822265625-.34375-1.8515625-.345703125-3.20703125.0048828125-1.43310546875.072265625-2.85986328125.197265625-4.2802734375.123046875-1.4189453125.318359375-2.7509765625.5810546875-3.9951171875.263671875-1.2431640625.6845703125-2.291015625,1.2607421875-3.14111328125.576171875-.84814453125,1.3505859375-1.33740234375,2.3212890625-1.4638671875.4013671875-.0322265625,1.6611328125.09326171875,3.7802734375.3779296875,2.1181640625.2861328125,4.6630859375.65966796875,7.6376953125,1.1240234375,2.974609375.46337890625,6.1806640625.97509765625,9.623046875,1.53271484375,3.439453125.55859375,6.662109375,1.11083984375,9.6669921875,1.6572265625,3.0029296875.546875,5.5595703125,1.02294921875,7.6640625,1.4248046875,2.103515625.404296875,3.3427734375.70703125,3.71875.90869140625Z"/>
    </g>
  </a>
</svg>