<?xml version="1.0" encoding="UTF-8"?>
<svg id="Content" xmlns="http://www.w3.org/2000/svg" xmlns:xlink="http://www.w3.org/1999/xlink" viewBox="0 0 280 280">
  <defs>
    <style>
      .cls-1, .cls-2, .cls-3, .cls-4, .cls-5, .cls-6, .cls-7, .cls-8 {
        font-family: Hey-Comic, 'Hey Comic';
      }

      .cls-1, .cls-2, .cls-6, .cls-7 {
        font-size: 53.509037017822266px;
      }

      .cls-1, .cls-3, .cls-9 {
        fill: #fff;
      }

      .cls-2, .cls-10, .cls-11, .cls-5, .cls-6, .cls-8 {
        fill: none;
        stroke-linecap: round;
        stroke-linejoin: round;
      }

      .cls-2, .cls-11, .cls-8 {
        stroke: #998675;
        stroke-width: 2px;
      }

      .cls-10, .cls-5, .cls-6 {
        stroke: #665451;
        stroke-width: 50px;
      }

      .cls-3, .cls-4, .cls-5, .cls-8 {
        font-size: 126.401008605957031px;
      }
    </style>
  </defs>
  <a xlink:href="https://www.notion.so/congruence/Zeroth-quartile-123f9339b29b80f59049cbaf821f9600?pvs=4">
    <g>
      <g>
        <path d="M80.184130648989594,93.404127329333278c-12.874560847560133-3.511137957937535-25.517492749899247-7.830573289096719-37.849103403030313-12.930873746274301-3.128385387048183-1.293922705794103-7.253987371639596.999303314969438-8.118137757859586,4.175643677510379-.980977932320457,3.606699999168995.824566503990354,6.732111980069021,4.175643677510379,8.118137757861405,12.331610653129246,5.100300457173944,24.97454255547018,9.419735788333128,37.849103403030313,12.930873746270663,3.253075415128478.887213852982313,7.174142105679493-.705596221019732,8.118137757859586-4.17564367750856.885229817080472-3.255146045141373-.686354069090157-7.166536968587025-4.175643677510379-8.118137757859586Z"/>
        <path d="M138.875528735710759,112.997954922264398c-11.85152659402047-5.819762836901646-24.667432661461135-9.202085692886612-37.252661066480869-13.036735713913004-3.228526586379303-.983719239497077-7.192893713288868.774390643509832-8.118137757859586,4.17564367750856-.907880505759749,3.337475108653962.71473349550979,7.063591657723009,4.175643677510379,8.118137757857767,11.414025888108881,3.477814098339877,23.190365339069103,6.471976350236218,34.045319840108277,11.510777963439978.02669772578156.013085476733977.05352378796124.025770765272682.08002141965153.038792073810328,1.620909571049197.795925759966849,3.099541123088784,1.308174225554467,4.935356417719959.899298156979057,1.514282808138887-.337271137570497,3.199099585170188-1.409308532283831,4.002808381639625-2.767715134843456.86318733365988-1.458550582940006,1.351963506349421-3.249678454574678.899466166980346-4.935192202477992-.405136339930323-1.508407313429416-1.299058877919379-3.281748073432027-2.767817079269662-4.003006578361237Z"/>
        <path d="M188.787845590730285,130.391431453883342c-11.603927719879721-4.107055001320987-23.207871481810798-8.214059979116428-34.81199929577997-12.321179148637384-3.186112092740586-1.127677285463506-7.221265550200769.878000404869454-8.118137757859586,4.175643677506741-.941500681970865,3.46157933613722.762021320029817,6.909942158297781,4.175643677510379,8.118137757861405,11.604127813969171,4.107119169520956,23.20807157589843,8.214124147318216,34.811999295769056,12.321179148637384,3.186112092738767,1.127677285463506,7.221265550200769-.878000404869454,8.118137757859586-4.175643677506741.941500681970865-3.46157933613722-.761821225929452-6.90987799010145-4.175643677499465-8.118137757861405Z"/>
        <path d="M47.874531352410486,54.318539608713763c2.640355440349595-6.473157187358083,16.451847984959386-9.20974234123787,19.092239777310169-15.68301288398834.724961152038304-1.77734801707993-11.502299899060745-5.17298976553684-16.285417701110418-6.615878132039143-5.020912403881084-1.514646238567366-17.616757002979284-5.416574195682188-18.393477655479728-3.512309879708482-2.640391792350783,6.47327054275047,8.030749538009331,18.318121917636745,5.390394097648823,24.791279104998466-.724961152040123,1.777348017076292,1.471144730170636,4.878509883497827,2.848587671371206,5.105194436431702,4.670548688429335.768628020608958,6.57091680576923-2.180894974328112,7.347673810259948-4.085272645694204Z"/>
        <path d="M243.436846162419897,148.523398002527756c-12.488680242890041-4.223792691111157-24.977160391670623-8.447521214022345-37.465656582509837-12.671199713407987-3.200414011369503-1.082391850919521-7.21250313902965.84517186231642-8.118137757859586,4.175643677506741-.930901024610648,3.422333637747215.746292522029762,6.958300762029467,4.17564367750856,8.118137757859586,12.488496190831938,4.223678499387461,24.976976339621615,8.447407022300467,37.465656582500742,12.671199713409806,3.200213917280053,1.082327682719551,7.212303044931105-.845236030512751,8.118137757859586-4.17564367750856.930917066660186-3.422383661270942-.74647657407877-6.958414953749525-4.175643677499465-8.118137757859586Z"/>
        <g>
          <text class="cls-4" transform="translate(31.211847366881557 229.667317461571656) rotate(-4.631696847107841)"><tspan x="0" y="0">Q</tspan></text>
          <text class="cls-5" transform="translate(31.211847366881557 229.667317461571656) rotate(-4.631696847107841)"><tspan x="0" y="0">Q</tspan></text>
          <text class="cls-8" transform="translate(31.211847366881557 229.667317461571656) rotate(-4.631696847107841)"><tspan x="0" y="0">Q</tspan></text>
          <text class="cls-3" transform="translate(31.211847366881557 229.667317461571656) rotate(-4.631696847107841)"><tspan x="0" y="0">Q</tspan></text>
        </g>
        <g>
          <text class="cls-7" transform="translate(113.808183164670481 205.619646967941662) rotate(8.287803816258268)"><tspan x="0" y="0">0</tspan></text>
          <text class="cls-6" transform="translate(113.808183164670481 205.619646967941662) rotate(8.287803816258268)"><tspan x="0" y="0">0</tspan></text>
          <text class="cls-2" transform="translate(113.808183164670481 205.619646967941662) rotate(8.287803816258268)"><tspan x="0" y="0">0</tspan></text>
          <text class="cls-1" transform="translate(113.808183164670481 205.619646967941662) rotate(8.287803816258268)"><tspan x="0" y="0">0</tspan></text>
        </g>
      </g>
      <g>
        <path class="cls-10" d="M80.184130648989594,93.404127329333278c-12.874560847560133-3.511137957937535-25.517492749899247-7.830573289096719-37.849103403030313-12.930873746274301-3.128385387048183-1.293922705794103-7.253987371639596.999303314969438-8.118137757859586,4.175643677510379-.980977932320457,3.606699999168995.824566503990354,6.732111980069021,4.175643677510379,8.118137757861405,12.331610653129246,5.100300457173944,24.97454255547018,9.419735788333128,37.849103403030313,12.930873746270663,3.253075415128478.887213852982313,7.174142105679493-.705596221019732,8.118137757859586-4.17564367750856.885229817080472-3.255146045141373-.686354069090157-7.166536968587025-4.175643677510379-8.118137757859586Z"/>
        <path class="cls-10" d="M138.875528735710759,112.997954922264398c-11.85152659402047-5.819762836901646-24.667432661461135-9.202085692886612-37.252661066480869-13.036735713913004-3.228526586379303-.983719239497077-7.192893713288868.774390643509832-8.118137757859586,4.17564367750856-.907880505759749,3.337475108653962.71473349550979,7.063591657723009,4.175643677510379,8.118137757857767,11.414025888108881,3.477814098339877,23.190365339069103,6.471976350236218,34.045319840108277,11.510777963439978.02669772578156.013085476733977.05352378796124.025770765272682.08002141965153.038792073810328,1.620909571049197.795925759966849,3.099541123088784,1.308174225554467,4.935356417719959.899298156979057,1.514282808138887-.337271137570497,3.199099585170188-1.409308532283831,4.002808381639625-2.767715134843456.86318733365988-1.458550582940006,1.351963506349421-3.249678454574678.899466166980346-4.935192202477992-.405136339930323-1.508407313429416-1.299058877919379-3.281748073432027-2.767817079269662-4.003006578361237Z"/>
        <path class="cls-10" d="M188.787845590730285,130.391431453883342c-11.603927719879721-4.107055001320987-23.207871481810798-8.214059979116428-34.81199929577997-12.321179148637384-3.186112092740586-1.127677285463506-7.221265550200769.878000404869454-8.118137757859586,4.175643677506741-.941500681970865,3.46157933613722.762021320029817,6.909942158297781,4.175643677510379,8.118137757861405,11.604127813969171,4.107119169520956,23.20807157589843,8.214124147318216,34.811999295769056,12.321179148637384,3.186112092738767,1.127677285463506,7.221265550200769-.878000404869454,8.118137757859586-4.175643677506741.941500681970865-3.46157933613722-.761821225929452-6.90987799010145-4.175643677499465-8.118137757861405Z"/>
        <path class="cls-10" d="M47.874531352410486,54.318539608713763c2.640355440349595-6.473157187358083,16.451847984959386-9.20974234123787,19.092239777310169-15.68301288398834.724961152038304-1.77734801707993-11.502299899060745-5.17298976553684-16.285417701110418-6.615878132039143-5.020912403881084-1.514646238567366-17.616757002979284-5.416574195682188-18.393477655479728-3.512309879708482-2.640391792350783,6.47327054275047,8.030749538009331,18.318121917636745,5.390394097648823,24.791279104998466-.724961152040123,1.777348017076292,1.471144730170636,4.878509883497827,2.848587671371206,5.105194436431702,4.670548688429335.768628020608958,6.57091680576923-2.180894974328112,7.347673810259948-4.085272645694204Z"/>
        <path class="cls-10" d="M243.436846162419897,148.523398002527756c-12.488680242890041-4.223792691111157-24.977160391670623-8.447521214022345-37.465656582509837-12.671199713407987-3.200414011369503-1.082391850919521-7.21250313902965.84517186231642-8.118137757859586,4.175643677506741-.930901024610648,3.422333637747215.746292522029762,6.958300762029467,4.17564367750856,8.118137757859586,12.488496190831938,4.223678499387461,24.976976339621615,8.447407022300467,37.465656582500742,12.671199713409806,3.200213917280053,1.082327682719551,7.212303044931105-.845236030512751,8.118137757859586-4.17564367750856.930917066660186-3.422383661270942-.74647657407877-6.958414953749525-4.175643677499465-8.118137757859586Z"/>
        <g>
          <text class="cls-5" transform="translate(31.211847366881557 229.667317461571656) rotate(-4.631696847107841)"><tspan x="0" y="0">Q</tspan></text>
          <text class="cls-5" transform="translate(31.211847366881557 229.667317461571656) rotate(-4.631696847107841)"><tspan x="0" y="0">Q</tspan></text>
          <text class="cls-5" transform="translate(31.211847366881557 229.667317461571656) rotate(-4.631696847107841)"><tspan x="0" y="0">Q</tspan></text>
          <text class="cls-5" transform="translate(31.211847366881557 229.667317461571656) rotate(-4.631696847107841)"><tspan x="0" y="0">Q</tspan></text>
          <text class="cls-5" transform="translate(31.211847366881557 229.667317461571656) rotate(-4.631696847107841)"><tspan x="0" y="0">Q</tspan></text>
        </g>
        <g>
          <text class="cls-6" transform="translate(113.808183164670481 205.619646967941662) rotate(8.287803816258268)"><tspan x="0" y="0">0</tspan></text>
          <text class="cls-6" transform="translate(113.808183164670481 205.619646967941662) rotate(8.287803816258268)"><tspan x="0" y="0">0</tspan></text>
          <text class="cls-6" transform="translate(113.808183164670481 205.619646967941662) rotate(8.287803816258268)"><tspan x="0" y="0">0</tspan></text>
          <text class="cls-6" transform="translate(113.808183164670481 205.619646967941662) rotate(8.287803816258268)"><tspan x="0" y="0">0</tspan></text>
          <text class="cls-6" transform="translate(113.808183164670481 205.619646967941662) rotate(8.287803816258268)"><tspan x="0" y="0">0</tspan></text>
        </g>
      </g>
      <g>
        <path class="cls-11" d="M80.184130648989594,93.404127329333278c-12.874560847560133-3.511137957937535-25.517492749899247-7.830573289096719-37.849103403030313-12.930873746274301-3.128385387048183-1.293922705794103-7.253987371639596.999303314969438-8.118137757859586,4.175643677510379-.980977932320457,3.606699999168995.824566503990354,6.732111980069021,4.175643677510379,8.118137757861405,12.331610653129246,5.100300457173944,24.97454255547018,9.419735788333128,37.849103403030313,12.930873746270663,3.253075415128478.887213852982313,7.174142105679493-.705596221019732,8.118137757859586-4.17564367750856.885229817080472-3.255146045141373-.686354069090157-7.166536968587025-4.175643677510379-8.118137757859586Z"/>
        <path class="cls-11" d="M138.875528735710759,112.997954922264398c-11.85152659402047-5.819762836901646-24.667432661461135-9.202085692886612-37.252661066480869-13.036735713913004-3.228526586379303-.983719239497077-7.192893713288868.774390643509832-8.118137757859586,4.17564367750856-.907880505759749,3.337475108653962.71473349550979,7.063591657723009,4.175643677510379,8.118137757857767,11.414025888108881,3.477814098339877,23.190365339069103,6.471976350236218,34.045319840108277,11.510777963439978.02669772578156.013085476733977.05352378796124.025770765272682.08002141965153.038792073810328,1.620909571049197.795925759966849,3.099541123088784,1.308174225554467,4.935356417719959.899298156979057,1.514282808138887-.337271137570497,3.199099585170188-1.409308532283831,4.002808381639625-2.767715134843456.86318733365988-1.458550582940006,1.351963506349421-3.249678454574678.899466166980346-4.935192202477992-.405136339930323-1.508407313429416-1.299058877919379-3.281748073432027-2.767817079269662-4.003006578361237Z"/>
        <path class="cls-11" d="M188.787845590730285,130.391431453883342c-11.603927719879721-4.107055001320987-23.207871481810798-8.214059979116428-34.81199929577997-12.321179148637384-3.186112092740586-1.127677285463506-7.221265550200769.878000404869454-8.118137757859586,4.175643677506741-.941500681970865,3.46157933613722.762021320029817,6.909942158297781,4.175643677510379,8.118137757861405,11.604127813969171,4.107119169520956,23.20807157589843,8.214124147318216,34.811999295769056,12.321179148637384,3.186112092738767,1.127677285463506,7.221265550200769-.878000404869454,8.118137757859586-4.175643677506741.941500681970865-3.46157933613722-.761821225929452-6.90987799010145-4.175643677499465-8.118137757861405Z"/>
        <path class="cls-11" d="M47.874531352410486,54.318539608713763c2.640355440349595-6.473157187358083,16.451847984959386-9.20974234123787,19.092239777310169-15.68301288398834.724961152038304-1.77734801707993-11.502299899060745-5.17298976553684-16.285417701110418-6.615878132039143-5.020912403881084-1.514646238567366-17.616757002979284-5.416574195682188-18.393477655479728-3.512309879708482-2.640391792350783,6.47327054275047,8.030749538009331,18.318121917636745,5.390394097648823,24.791279104998466-.724961152040123,1.777348017076292,1.471144730170636,4.878509883497827,2.848587671371206,5.105194436431702,4.670548688429335.768628020608958,6.57091680576923-2.180894974328112,7.347673810259948-4.085272645694204Z"/>
        <path class="cls-11" d="M243.436846162419897,148.523398002527756c-12.488680242890041-4.223792691111157-24.977160391670623-8.447521214022345-37.465656582509837-12.671199713407987-3.200414011369503-1.082391850919521-7.21250313902965.84517186231642-8.118137757859586,4.175643677506741-.930901024610648,3.422333637747215.746292522029762,6.958300762029467,4.17564367750856,8.118137757859586,12.488496190831938,4.223678499387461,24.976976339621615,8.447407022300467,37.465656582500742,12.671199713409806,3.200213917280053,1.082327682719551,7.212303044931105-.845236030512751,8.118137757859586-4.17564367750856.930917066660186-3.422383661270942-.74647657407877-6.958414953749525-4.175643677499465-8.118137757859586Z"/>
        <g>
          <text class="cls-8" transform="translate(31.211847366881557 229.667317461571656) rotate(-4.631696847107841)"><tspan x="0" y="0">Q</tspan></text>
          <text class="cls-8" transform="translate(31.211847366881557 229.667317461571656) rotate(-4.631696847107841)"><tspan x="0" y="0">Q</tspan></text>
          <text class="cls-8" transform="translate(31.211847366881557 229.667317461571656) rotate(-4.631696847107841)"><tspan x="0" y="0">Q</tspan></text>
          <text class="cls-8" transform="translate(31.211847366881557 229.667317461571656) rotate(-4.631696847107841)"><tspan x="0" y="0">Q</tspan></text>
          <text class="cls-8" transform="translate(31.211847366881557 229.667317461571656) rotate(-4.631696847107841)"><tspan x="0" y="0">Q</tspan></text>
        </g>
        <g>
          <text class="cls-2" transform="translate(113.808183164670481 205.619646967941662) rotate(8.287803816258268)"><tspan x="0" y="0">0</tspan></text>
          <text class="cls-2" transform="translate(113.808183164670481 205.619646967941662) rotate(8.287803816258268)"><tspan x="0" y="0">0</tspan></text>
          <text class="cls-2" transform="translate(113.808183164670481 205.619646967941662) rotate(8.287803816258268)"><tspan x="0" y="0">0</tspan></text>
          <text class="cls-2" transform="translate(113.808183164670481 205.619646967941662) rotate(8.287803816258268)"><tspan x="0" y="0">0</tspan></text>
          <text class="cls-2" transform="translate(113.808183164670481 205.619646967941662) rotate(8.287803816258268)"><tspan x="0" y="0">0</tspan></text>
        </g>
      </g>
      <g>
        <path class="cls-9" d="M80.184130648989594,93.404127329333278c-12.874560847560133-3.511137957937535-25.517492749899247-7.830573289096719-37.849103403030313-12.930873746274301-3.128385387048183-1.293922705794103-7.253987371639596.999303314969438-8.118137757859586,4.175643677510379-.980977932320457,3.606699999168995.824566503990354,6.732111980069021,4.175643677510379,8.118137757861405,12.331610653129246,5.100300457173944,24.97454255547018,9.419735788333128,37.849103403030313,12.930873746270663,3.253075415128478.887213852982313,7.174142105679493-.705596221019732,8.118137757859586-4.17564367750856.885229817080472-3.255146045141373-.686354069090157-7.166536968587025-4.175643677510379-8.118137757859586Z"/>
        <path class="cls-9" d="M138.875528735710759,112.997954922264398c-11.85152659402047-5.819762836901646-24.667432661461135-9.202085692886612-37.252661066480869-13.036735713913004-3.228526586379303-.983719239497077-7.192893713288868.774390643509832-8.118137757859586,4.17564367750856-.907880505759749,3.337475108653962.71473349550979,7.063591657723009,4.175643677510379,8.118137757857767,11.414025888108881,3.477814098339877,23.190365339069103,6.471976350236218,34.045319840108277,11.510777963439978.02669772578156.013085476733977.05352378796124.025770765272682.08002141965153.038792073810328,1.620909571049197.795925759966849,3.099541123088784,1.308174225554467,4.935356417719959.899298156979057,1.514282808138887-.337271137570497,3.199099585170188-1.409308532283831,4.002808381639625-2.767715134843456.86318733365988-1.458550582940006,1.351963506349421-3.249678454574678.899466166980346-4.935192202477992-.405136339930323-1.508407313429416-1.299058877919379-3.281748073432027-2.767817079269662-4.003006578361237Z"/>
        <path class="cls-9" d="M188.787845590730285,130.391431453883342c-11.603927719879721-4.107055001320987-23.207871481810798-8.214059979116428-34.81199929577997-12.321179148637384-3.186112092740586-1.127677285463506-7.221265550200769.878000404869454-8.118137757859586,4.175643677506741-.941500681970865,3.46157933613722.762021320029817,6.909942158297781,4.175643677510379,8.118137757861405,11.604127813969171,4.107119169520956,23.20807157589843,8.214124147318216,34.811999295769056,12.321179148637384,3.186112092738767,1.127677285463506,7.221265550200769-.878000404869454,8.118137757859586-4.175643677506741.941500681970865-3.46157933613722-.761821225929452-6.90987799010145-4.175643677499465-8.118137757861405Z"/>
        <path class="cls-9" d="M47.874531352410486,54.318539608713763c2.640355440349595-6.473157187358083,16.451847984959386-9.20974234123787,19.092239777310169-15.68301288398834.724961152038304-1.77734801707993-11.502299899060745-5.17298976553684-16.285417701110418-6.615878132039143-5.020912403881084-1.514646238567366-17.616757002979284-5.416574195682188-18.393477655479728-3.512309879708482-2.640391792350783,6.47327054275047,8.030749538009331,18.318121917636745,5.390394097648823,24.791279104998466-.724961152040123,1.777348017076292,1.471144730170636,4.878509883497827,2.848587671371206,5.105194436431702,4.670548688429335.768628020608958,6.57091680576923-2.180894974328112,7.347673810259948-4.085272645694204Z"/>
        <path class="cls-9" d="M243.436846162419897,148.523398002527756c-12.488680242890041-4.223792691111157-24.977160391670623-8.447521214022345-37.465656582509837-12.671199713407987-3.200414011369503-1.082391850919521-7.21250313902965.84517186231642-8.118137757859586,4.175643677506741-.930901024610648,3.422333637747215.746292522029762,6.958300762029467,4.17564367750856,8.118137757859586,12.488496190831938,4.223678499387461,24.976976339621615,8.447407022300467,37.465656582500742,12.671199713409806,3.200213917280053,1.082327682719551,7.212303044931105-.845236030512751,8.118137757859586-4.17564367750856.930917066660186-3.422383661270942-.74647657407877-6.958414953749525-4.175643677499465-8.118137757859586Z"/>
        <g>
          <text class="cls-3" transform="translate(31.211847366881557 229.667317461571656) rotate(-4.631696847107841)"><tspan x="0" y="0">Q</tspan></text>
          <text class="cls-3" transform="translate(31.211847366881557 229.667317461571656) rotate(-4.631696847107841)"><tspan x="0" y="0">Q</tspan></text>
          <text class="cls-3" transform="translate(31.211847366881557 229.667317461571656) rotate(-4.631696847107841)"><tspan x="0" y="0">Q</tspan></text>
          <text class="cls-3" transform="translate(31.211847366881557 229.667317461571656) rotate(-4.631696847107841)"><tspan x="0" y="0">Q</tspan></text>
          <text class="cls-3" transform="translate(31.211847366881557 229.667317461571656) rotate(-4.631696847107841)"><tspan x="0" y="0">Q</tspan></text>
        </g>
        <g>
          <text class="cls-1" transform="translate(113.808183164670481 205.619646967941662) rotate(8.287803816258268)"><tspan x="0" y="0">0</tspan></text>
          <text class="cls-1" transform="translate(113.808183164670481 205.619646967941662) rotate(8.287803816258268)"><tspan x="0" y="0">0</tspan></text>
          <text class="cls-1" transform="translate(113.808183164670481 205.619646967941662) rotate(8.287803816258268)"><tspan x="0" y="0">0</tspan></text>
          <text class="cls-1" transform="translate(113.808183164670481 205.619646967941662) rotate(8.287803816258268)"><tspan x="0" y="0">0</tspan></text>
          <text class="cls-1" transform="translate(113.808183164670481 205.619646967941662) rotate(8.287803816258268)"><tspan x="0" y="0">0</tspan></text>
        </g>
      </g>
    </g>
  </a>
</svg>